<svg xmlns="http://www.w3.org/2000/svg" width="940" height="540" viewBox="0 0 940 540">
<rect width="100%" height="100%" fill="#ffffff"/>
<text x="470.0" y="26" text-anchor="middle" font-family="Arial" font-size="18" fill="#111827">Naive Inventory By Regime</text>
<line x1="85" y1="470" x2="785" y2="470" stroke="#111827" stroke-width="1"/>
<line x1="85" y1="42" x2="85" y2="470" stroke="#111827" stroke-width="1"/>
<line x1="85.00" y1="42" x2="85.00" y2="470" stroke="#e5e7eb" stroke-width="1"/>
<text x="85.00" y="494" text-anchor="middle" font-family="Arial" font-size="12" fill="#374151">0</text>
<line x1="260.00" y1="42" x2="260.00" y2="470" stroke="#e5e7eb" stroke-width="1"/>
<text x="260.00" y="494" text-anchor="middle" font-family="Arial" font-size="12" fill="#374151">50000</text>
<line x1="435.00" y1="42" x2="435.00" y2="470" stroke="#e5e7eb" stroke-width="1"/>
<text x="435.00" y="494" text-anchor="middle" font-family="Arial" font-size="12" fill="#374151">100000</text>
<line x1="610.00" y1="42" x2="610.00" y2="470" stroke="#e5e7eb" stroke-width="1"/>
<text x="610.00" y="494" text-anchor="middle" font-family="Arial" font-size="12" fill="#374151">150000</text>
<line x1="785.00" y1="42" x2="785.00" y2="470" stroke="#e5e7eb" stroke-width="1"/>
<text x="785.00" y="494" text-anchor="middle" font-family="Arial" font-size="12" fill="#374151">200000</text>
<line x1="85" y1="470.00" x2="785" y2="470.00" stroke="#e5e7eb" stroke-width="1"/>
<text x="73" y="474.00" text-anchor="end" font-family="Arial" font-size="12" fill="#374151">-21761</text>
<line x1="85" y1="363.00" x2="785" y2="363.00" stroke="#e5e7eb" stroke-width="1"/>
<text x="73" y="367.00" text-anchor="end" font-family="Arial" font-size="12" fill="#374151">-10548</text>
<line x1="85" y1="256.00" x2="785" y2="256.00" stroke="#e5e7eb" stroke-width="1"/>
<text x="73" y="260.00" text-anchor="end" font-family="Arial" font-size="12" fill="#374151">665</text>
<line x1="85" y1="149.00" x2="785" y2="149.00" stroke="#e5e7eb" stroke-width="1"/>
<text x="73" y="153.00" text-anchor="end" font-family="Arial" font-size="12" fill="#374151">11878</text>
<line x1="85" y1="42.00" x2="785" y2="42.00" stroke="#e5e7eb" stroke-width="1"/>
<text x="73" y="46.00" text-anchor="end" font-family="Arial" font-size="12" fill="#374151">23091</text>
<polyline fill="none" stroke="#2563eb" stroke-width="2" points="85.00,262.35 85.35,262.41 85.70,262.21 86.05,262.40 86.40,262.73 86.75,262.48 87.10,262.34 87.45,262.38 87.80,262.19 88.15,262.42 88.50,262.36 88.85,262.56 89.20,262.96 89.55,263.15 89.90,263.24 90.25,262.96 90.60,263.01 90.95,263.55 91.30,263.64 91.65,264.12 92.00,264.03 92.35,264.31 92.70,264.60 93.05,264.41 93.40,264.52 93.75,264.62 94.10,264.74 94.45,265.03 94.80,265.00 95.15,264.82 95.50,264.60 95.85,264.73 96.20,264.35 96.55,264.45 96.90,264.68 97.25,264.97 97.60,264.99 97.95,265.27 98.30,265.35 98.65,265.17 99.00,264.87 99.35,264.87 99.70,264.94 100.05,265.04 100.40,265.15 100.75,264.96 101.10,265.27 101.45,264.98 101.80,264.95 102.15,264.76 102.50,264.87 102.85,265.16 103.20,265.42 103.55,265.50 103.90,265.45 104.25,265.54 104.60,265.59 104.95,265.53 105.30,265.53 105.65,265.72 106.00,265.85 106.35,265.72 106.70,265.46 107.05,265.55 107.40,265.46 107.75,265.48 108.10,265.28 108.45,265.57 108.80,265.07 109.15,264.68 109.50,263.92 109.85,263.16 110.20,262.97 110.55,262.97 110.90,263.06 111.25,263.41 111.60,263.33 111.95,263.23 112.30,263.38 112.65,263.19 113.00,263.47 113.35,263.38 113.70,263.66 114.05,263.57 114.40,263.69 114.75,263.82 115.10,263.73 115.45,263.63 115.80,263.45 116.15,263.45 116.50,263.93 116.85,263.74 117.20,263.59 117.55,263.55 117.90,263.27 118.25,263.16 118.60,262.99 118.95,262.73 119.30,262.15 119.65,261.39 120.00,260.91 120.35,260.06 120.70,259.39 121.05,258.74 121.40,258.45 121.75,258.45 122.10,258.07 122.45,258.10 122.80,258.06 123.15,258.07 123.50,258.07 123.85,258.13 124.20,258.32 124.55,258.26 124.90,258.26 125.25,258.17 125.60,257.78 125.95,257.50 126.30,257.63 126.65,257.82 127.00,257.91 127.35,258.00 127.70,258.38 128.05,257.96 128.40,258.24 128.75,258.14 129.10,258.11 129.45,257.74 129.80,257.89 130.15,257.92 130.50,258.02 130.85,258.12 131.20,258.12 131.55,257.83 131.90,257.59 132.25,257.31 132.60,257.12 132.95,257.02 133.30,256.83 133.65,256.91 134.00,256.82 134.35,256.44 134.70,256.67 135.05,256.76 135.40,256.76 135.75,257.10 136.10,256.94 136.45,257.13 136.80,257.03 137.15,256.75 137.50,256.75 137.85,256.77 138.20,256.77 138.55,256.99 138.90,256.80 139.25,256.74 139.60,256.75 139.95,256.53 140.30,256.35 140.65,256.33 141.00,255.86 141.35,255.77 141.70,255.73 142.05,255.59 142.40,255.44 142.75,255.11 143.10,255.11 143.45,254.92 143.80,254.86 144.15,254.98 144.50,255.06 144.85,255.29 145.20,255.29 145.55,254.82 145.90,254.35 146.25,253.67 146.60,253.09 146.95,252.33 147.30,251.85 147.65,251.44 148.00,251.34 148.35,251.72 148.70,251.87 149.05,251.98 149.40,251.87 149.75,251.87 150.10,252.35 150.45,252.54 150.80,252.51 151.15,252.70 151.50,253.18 151.85,252.71 152.20,251.94 152.55,251.46 152.90,250.89 153.25,250.31 153.60,249.64 153.95,249.57 154.30,249.76 154.65,248.90 155.00,248.18 155.35,247.60 155.70,247.51 156.05,247.13 156.40,247.22 156.75,247.32 157.10,247.32 157.45,247.05 157.80,247.09 158.15,247.37 158.50,247.18 158.85,247.28 159.20,247.37 159.55,246.80 159.90,246.71 160.25,246.42 160.60,246.20 160.95,246.39 161.30,246.57 161.65,246.20 162.00,246.10 162.35,246.16 162.70,246.14 163.05,246.24 163.40,245.86 163.75,245.91 164.10,246.04 164.45,245.38 164.80,244.71 165.15,244.43 165.50,244.54 165.85,244.80 166.20,244.80 166.55,244.89 166.90,244.56 167.25,243.89 167.60,243.22 167.95,242.86 168.30,242.73 168.65,243.01 169.00,243.25 169.35,243.64 169.70,243.70 170.05,243.70 170.40,243.53 170.75,243.34 171.10,243.24 171.45,243.62 171.80,243.62 172.15,243.61 172.50,243.61 172.85,244.19 173.20,244.09 173.55,243.90 173.90,244.09 174.25,243.81 174.60,243.98 174.95,243.97 175.30,244.14 175.65,244.14 176.00,244.61 176.35,244.44 176.70,244.67 177.05,244.66 177.40,244.66 177.75,244.77 178.10,244.39 178.45,244.16 178.80,244.37 179.15,244.27 179.50,244.35 179.85,244.43 180.20,244.52 180.55,244.38 180.90,244.85 181.25,244.86 181.60,245.05 181.95,245.16 182.30,245.26 182.65,245.01 183.00,245.06 183.35,245.26 183.70,245.45 184.05,244.87 184.40,244.11 184.75,243.35 185.10,242.68 185.45,241.86 185.80,241.32 186.15,240.71 186.50,240.00 186.85,239.08 187.20,238.45 187.55,238.48 187.90,237.81 188.25,237.05 188.60,236.55 188.95,235.83 189.30,235.12 189.65,234.26 190.00,233.39 190.35,232.54 190.70,231.63 191.05,231.06 191.40,230.48 191.75,230.07 192.10,229.41 192.45,228.93 192.80,228.36 193.15,227.79 193.50,227.07 193.85,226.49 194.20,225.76 194.55,225.11 194.90,224.43 195.25,223.72 195.60,222.86 195.95,222.10 196.30,221.43 196.65,220.66 197.00,219.90 197.35,219.42 197.70,219.04 198.05,218.47 198.40,217.61 198.75,216.76 199.10,216.16 199.45,215.59 199.80,215.08 200.15,214.32 200.50,213.56 200.85,213.00 201.20,212.49 201.55,211.63 201.90,211.34 202.25,210.56 202.60,209.91 202.95,209.15 203.30,208.48 203.65,207.62 204.00,207.14 204.35,206.67 204.70,206.28 205.05,205.65 205.40,205.18 205.75,204.35 206.10,203.68 206.45,202.82 206.80,202.15 207.15,201.32 207.50,200.48 207.85,200.02 208.20,199.36 208.55,198.69 208.90,197.93 209.25,197.41 209.60,196.84 209.95,196.07 210.30,195.22 210.65,194.55 211.00,193.88 211.35,193.50 211.70,192.64 212.05,192.07 212.40,191.21 212.75,191.40 213.10,191.13 213.45,191.32 213.80,191.23 214.15,191.15 214.50,191.53 214.85,191.82 215.20,191.63 215.55,191.80 215.90,191.89 216.25,191.89 216.60,192.28 216.95,192.47 217.30,192.57 217.65,192.76 218.00,193.43 218.35,193.53 218.70,193.34 219.05,193.49 219.40,193.82 219.75,193.77 220.10,194.06 220.45,194.44 220.80,195.31 221.15,195.41 221.50,195.34 221.85,195.59 222.20,195.87 222.55,196.06 222.90,196.35 223.25,196.11 223.60,195.91 223.95,195.84 224.30,195.64 224.65,195.62 225.00,195.81 225.35,195.87 225.70,195.89 226.05,195.77 226.40,195.77 226.75,195.61 227.10,195.79 227.45,195.50 227.80,195.32 228.15,195.42 228.50,194.95 228.85,194.95 229.20,195.04 229.55,195.34 229.90,195.25 230.25,195.70 230.60,195.35 230.95,195.16 231.30,195.44 231.65,195.63 232.00,195.44 232.35,195.08 232.70,195.16 233.05,195.71 233.40,195.62 233.75,195.63 234.10,195.66 234.45,194.80 234.80,194.08 235.15,193.70 235.50,193.13 235.85,193.04 236.20,193.04 236.55,193.23 236.90,193.42 237.25,193.29 237.60,193.10 237.95,193.31 238.30,193.21 238.65,192.88 239.00,192.97 239.35,193.00 239.70,192.89 240.05,192.98 240.40,192.89 240.75,192.56 241.10,192.74 241.45,192.30 241.80,191.91 242.15,191.43 242.50,190.95 242.85,190.47 243.20,190.47 243.55,190.00 243.90,189.24 244.25,188.69 244.60,188.02 244.95,188.02 245.30,187.50 245.65,186.82 246.00,186.34 246.35,185.72 246.70,185.11 247.05,184.92 247.40,184.35 247.75,183.77 248.10,183.20 248.45,183.01 248.80,182.30 249.15,181.58 249.50,181.21 249.85,180.65 250.20,181.04 250.55,180.61 250.90,180.61 251.25,180.72 251.60,180.29 251.95,179.72 252.30,179.70 252.65,179.71 253.00,179.61 253.35,179.94 253.70,179.93 254.05,180.02 254.40,180.12 254.75,180.12 255.10,180.21 255.45,179.95 255.80,180.06 256.15,180.06 256.50,179.68 256.85,179.52 257.20,179.14 257.55,179.14 257.90,179.14 258.25,179.46 258.60,179.46 258.95,179.29 259.30,178.88 259.65,178.59 260.00,177.92 260.35,177.33 260.70,176.76 261.05,175.76 261.40,175.23 261.75,174.99 262.10,174.46 262.45,173.72 262.80,173.05 263.15,172.28 263.50,171.81 263.85,171.28 264.20,170.77 264.55,169.95 264.90,169.09 265.25,168.42 265.60,167.58 265.95,166.82 266.30,165.96 266.65,165.48 267.00,164.62 267.35,164.05 267.70,163.23 268.05,162.37 268.40,161.71 268.75,160.95 269.10,160.38 269.45,159.97 269.80,159.39 270.15,158.63 270.50,157.96 270.85,157.10 271.20,156.53 271.55,155.96 271.90,155.53 272.25,154.67 272.60,153.82 272.95,152.96 273.30,152.48 273.65,151.83 274.00,151.06 274.35,150.11 274.70,149.54 275.05,148.82 275.40,148.07 275.75,147.59 276.10,146.89 276.45,146.13 276.80,145.56 277.15,144.89 277.50,144.14 277.85,143.76 278.20,143.23 278.55,142.76 278.90,142.19 279.25,141.52 279.60,140.98 279.95,140.31 280.30,139.54 280.65,138.85 281.00,138.33 281.35,137.66 281.70,137.11 282.05,136.30 282.40,135.63 282.75,135.22 283.10,134.58 283.45,133.96 283.80,133.24 284.15,132.63 284.50,132.22 284.85,131.45 285.20,130.59 285.55,130.12 285.90,129.54 286.25,128.88 286.60,128.30 286.95,127.54 287.30,127.05 287.65,126.29 288.00,125.81 288.35,126.10 288.70,126.33 289.05,126.33 289.40,126.32 289.75,126.61 290.10,126.57 290.45,126.23 290.80,125.66 291.15,125.37 291.50,125.28 291.85,125.37 292.20,125.57 292.55,125.67 292.90,125.67 293.25,125.86 293.60,125.99 293.95,126.31 294.30,126.60 294.65,126.69 295.00,126.69 295.35,126.82 295.70,126.87 296.05,126.73 296.40,126.73 296.75,126.44 297.10,126.60 297.45,127.36 297.80,127.93 298.15,128.60 298.50,128.94 298.85,128.94 299.20,128.94 299.55,129.13 299.90,129.08 300.25,129.05 300.60,129.42 300.95,129.99 301.30,130.95 301.65,131.81 302.00,132.00 302.35,132.00 302.70,132.10 303.05,132.10 303.40,132.22 303.75,132.24 304.10,132.34 304.45,132.22 304.80,132.31 305.15,132.12 305.50,132.31 305.85,132.50 306.20,132.88 306.55,133.08 306.90,133.17 307.25,133.28 307.60,132.89 307.95,133.18 308.30,133.47 308.65,133.61 309.00,133.61 309.35,133.30 309.70,133.77 310.05,133.49 310.40,133.11 310.75,132.88 311.10,133.08 311.45,132.60 311.80,132.40 312.15,132.51 312.50,132.70 312.85,132.70 313.20,132.66 313.55,132.39 313.90,132.39 314.25,132.33 314.60,132.36 314.95,132.17 315.30,132.07 315.65,131.88 316.00,132.55 316.35,133.17 316.70,133.74 317.05,134.41 317.40,135.17 317.75,135.94 318.10,136.55 318.45,137.22 318.80,137.88 319.15,138.65 319.50,138.69 319.85,138.69 320.20,138.89 320.55,139.55 320.90,140.22 321.25,140.84 321.60,141.61 321.95,142.18 322.30,142.66 322.65,143.42 323.00,143.99 323.35,144.56 323.70,145.36 324.05,145.80 324.40,146.28 324.75,147.14 325.10,147.90 325.45,148.57 325.80,149.43 326.15,150.00 326.50,150.67 326.85,151.50 327.20,152.21 327.55,152.60 327.90,153.33 328.25,153.96 328.60,154.90 328.95,155.47 329.30,156.14 329.65,156.89 330.00,157.38 330.35,157.74 330.70,157.46 331.05,157.65 331.40,157.74 331.75,157.84 332.10,157.47 332.45,157.55 332.80,157.46 333.15,157.24 333.50,157.43 333.85,157.33 334.20,157.19 334.55,157.19 334.90,156.86 335.25,156.86 335.60,156.10 335.95,155.30 336.30,154.35 336.65,153.77 337.00,153.10 337.35,152.25 337.70,151.48 338.05,150.72 338.40,150.12 338.75,149.26 339.10,148.40 339.45,147.64 339.80,147.06 340.15,146.49 340.50,146.01 340.85,145.54 341.20,145.63 341.55,145.36 341.90,145.61 342.25,145.61 342.60,145.80 342.95,145.80 343.30,145.60 343.65,145.41 344.00,144.91 344.35,144.62 344.70,144.34 345.05,144.07 345.40,143.92 345.75,143.82 346.10,143.63 346.45,143.75 346.80,142.93 347.15,142.27 347.50,141.61 347.85,141.22 348.20,140.27 348.55,139.60 348.90,138.93 349.25,138.55 349.60,137.98 349.95,137.60 350.30,137.12 350.65,136.54 351.00,135.99 351.35,135.32 351.70,134.55 352.05,134.04 352.40,133.37 352.75,132.61 353.10,131.65 353.45,131.08 353.80,130.41 354.15,129.55 354.50,128.98 354.85,128.31 355.20,127.84 355.55,127.26 355.90,126.79 356.25,126.19 356.60,125.42 356.95,124.66 357.30,124.09 357.65,123.32 358.00,122.80 358.35,121.94 358.70,121.27 359.05,120.70 359.40,119.94 359.75,119.27 360.10,118.60 360.45,117.75 360.80,117.08 361.15,116.63 361.50,115.68 361.85,115.11 362.20,114.44 362.55,113.74 362.90,113.17 363.25,112.41 363.60,111.60 363.95,110.84 364.30,110.25 364.65,109.43 365.00,108.95 365.35,108.20 365.70,107.48 366.05,106.74 366.40,105.88 366.75,105.22 367.10,104.46 367.45,103.50 367.80,102.84 368.15,101.98 368.50,101.25 368.85,100.39 369.20,100.01 369.55,99.17 369.90,98.41 370.25,97.74 370.60,97.16 370.95,96.49 371.30,96.01 371.65,95.34 372.00,94.74 372.35,94.29 372.70,93.58 373.05,93.01 373.40,92.33 373.75,91.70 374.10,90.94 374.45,90.46 374.80,89.70 375.15,89.31 375.50,88.55 375.85,87.79 376.20,87.22 376.55,86.37 376.90,85.89 377.25,85.26 377.60,84.50 377.95,84.01 378.30,83.40 378.65,82.59 379.00,82.20 379.35,81.63 379.70,80.96 380.05,80.30 380.40,79.90 380.75,79.29 381.10,78.72 381.45,78.05 381.80,77.39 382.15,76.81 382.50,75.95 382.85,75.21 383.20,74.48 383.55,73.71 383.90,73.23 384.25,72.38 384.60,71.52 384.95,71.52 385.30,71.52 385.65,71.52 386.00,71.52 386.35,71.52 386.70,71.52 387.05,71.52 387.40,71.52 387.75,71.52 388.10,71.52 388.45,71.52 388.80,71.52 389.15,71.52 389.50,71.52 389.85,71.52 390.20,71.52 390.55,71.52 390.90,71.52 391.25,71.52 391.60,71.52 391.95,71.52 392.30,71.52 392.65,71.52 393.00,71.52 393.35,71.52 393.70,71.52 394.05,71.52 394.40,71.52 394.75,71.52 395.10,71.52 395.45,71.52 395.80,71.52 396.15,71.52 396.50,71.52 396.85,71.52 397.20,71.52 397.55,71.52 397.90,71.52 398.25,71.52 398.60,71.52 398.95,71.52 399.30,71.52 399.65,71.52 400.00,71.52 400.35,71.52 400.70,71.52 401.05,71.52 401.40,71.52 401.75,71.52 402.10,71.52 402.45,71.52 402.80,71.52 403.15,71.52 403.50,71.52 403.85,71.52 404.20,71.52 404.55,71.52 404.90,71.52 405.25,71.52 405.60,71.52 405.95,71.52 406.30,71.52 406.65,71.52 407.00,71.52 407.35,71.52 407.70,71.52 408.05,71.52 408.40,71.52 408.75,71.52 409.10,71.52 409.45,71.52 409.80,71.52 410.15,71.52 410.50,71.52 410.85,71.52 411.20,71.52 411.55,71.52 411.90,71.52 412.25,71.52 412.60,71.52 412.95,71.52 413.30,71.52 413.65,71.52 414.00,71.52 414.35,71.52 414.70,71.52 415.05,71.52 415.40,71.52 415.75,71.52 416.10,71.52 416.45,71.52 416.80,71.52 417.15,71.52 417.50,71.52 417.85,71.52 418.20,71.52 418.55,71.52 418.90,71.52 419.25,71.52 419.60,71.52 419.95,71.52 420.30,71.52 420.65,71.52 421.00,71.52 421.35,71.52 421.70,71.52 422.05,71.52 422.40,71.52 422.75,71.52 423.10,71.52 423.45,71.52 423.80,71.52 424.15,71.52 424.50,71.52 424.85,71.52 425.20,71.52 425.55,71.52 425.90,71.52 426.25,71.52 426.60,71.52 426.95,71.52 427.30,71.52 427.65,71.52 428.00,71.52 428.35,71.52 428.70,71.52 429.05,71.52 429.40,71.52 429.75,71.52 430.10,71.52 430.45,71.52 430.80,71.52 431.15,71.52 431.50,71.52 431.85,71.52 432.20,71.52 432.55,71.52 432.90,71.52 433.25,71.52 433.60,71.52 433.95,71.52 434.30,71.52 434.65,71.52 435.00,71.52 435.35,71.52 435.70,71.52 436.05,71.52 436.40,71.52 436.75,71.52 437.10,71.52 437.45,71.52 437.80,71.52 438.15,71.52 438.50,71.52 438.85,71.52 439.20,71.52 439.55,71.52 439.90,71.52 440.25,71.52 440.60,71.52 440.95,71.52 441.30,71.52 441.65,71.52 442.00,71.52 442.35,71.52 442.70,71.52 443.05,71.52 443.40,71.52 443.75,71.52 444.10,71.52 444.45,71.52 444.80,71.52 445.15,71.52 445.50,71.52 445.85,71.52 446.20,71.52 446.55,71.52 446.90,71.52 447.25,71.52 447.60,71.52 447.95,71.52 448.30,71.52 448.65,71.52 449.00,71.52 449.35,71.52 449.70,71.52 450.05,71.52 450.40,71.52 450.75,71.52 451.10,71.52 451.45,71.52 451.80,71.52 452.15,71.52 452.50,71.52 452.85,71.52 453.20,71.52 453.55,71.52 453.90,71.52 454.25,71.52 454.60,71.52 454.95,71.52 455.30,71.52 455.65,71.52 456.00,71.52 456.35,71.52 456.70,71.52 457.05,71.52 457.40,71.52 457.75,71.52 458.10,71.52 458.45,71.52 458.80,71.61 459.15,71.77 459.50,72.06 459.85,72.35 460.20,72.77 460.55,73.34 460.90,73.59 461.25,74.07 461.60,74.68 461.95,75.43 462.30,75.71 462.65,76.46 463.00,76.87 463.35,77.63 463.70,77.63 464.05,78.03 464.40,78.60 464.75,78.75 465.10,79.04 465.45,78.94 465.80,79.04 466.15,79.04 466.50,79.29 466.85,79.77 467.20,79.96 467.55,80.53 467.90,80.15 468.25,80.40 468.60,80.88 468.95,81.26 469.30,81.55 469.65,81.45 470.00,81.59 470.35,81.69 470.70,81.73 471.05,81.92 471.40,82.38 471.75,83.14 472.10,83.65 472.45,83.84 472.80,84.35 473.15,84.35 473.50,84.46 473.85,84.50 474.20,84.89 474.55,85.38 474.90,86.15 475.25,86.91 475.60,87.21 475.95,87.79 476.30,88.41 476.65,88.95 477.00,89.12 477.35,89.50 477.70,89.69 478.05,90.05 478.40,90.34 478.75,90.30 479.10,90.77 479.45,91.06 479.80,91.21 480.15,91.16 480.50,91.11 480.85,91.49 481.20,92.06 481.55,92.59 481.90,92.96 482.25,92.96 482.60,93.15 482.95,92.58 483.30,92.11 483.65,91.56 484.00,92.02 484.35,91.36 484.70,90.97 485.05,90.31 485.40,90.11 485.75,90.13 486.10,90.71 486.45,91.01 486.80,90.99 487.15,90.46 487.50,89.79 487.85,89.33 488.20,88.47 488.55,88.38 488.90,87.81 489.25,87.23 489.60,86.76 489.95,86.18 490.30,85.42 490.65,84.94 491.00,84.28 491.35,83.74 491.70,83.07 492.05,82.31 492.40,81.55 492.75,80.88 493.10,80.40 493.45,79.80 493.80,79.04 494.15,78.27 494.50,77.61 494.85,77.03 495.20,76.43 495.55,76.05 495.90,75.57 496.25,76.15 496.60,75.72 496.95,75.33 497.30,74.67 497.65,74.09 498.00,73.33 498.35,72.57 498.70,71.99 499.05,71.56 499.40,71.56 499.75,71.56 500.10,71.56 500.45,71.56 500.80,71.56 501.15,71.56 501.50,71.56 501.85,71.63 502.20,71.73 502.55,72.20 502.90,72.74 503.25,73.22 503.60,73.27 503.95,73.64 504.30,73.73 504.65,72.80 505.00,72.13 505.35,72.03 505.70,71.94 506.05,71.65 506.40,71.65 506.75,71.65 507.10,71.56 507.45,71.56 507.80,71.56 508.15,71.56 508.50,71.56 508.85,71.68 509.20,72.62 509.55,72.99 509.90,73.19 510.25,73.46 510.60,73.85 510.95,74.51 511.30,75.20 511.65,74.91 512.00,74.53 512.35,73.86 512.70,73.65 513.05,73.26 513.40,72.79 513.75,72.58 514.10,72.10 514.45,71.62 514.80,71.53 515.15,71.53 515.50,71.53 515.85,71.53 516.20,71.53 516.55,71.53 516.90,71.53 517.25,71.53 517.60,71.53 517.95,71.53 518.30,71.53 518.65,71.53 519.00,71.53 519.35,71.53 519.70,71.53 520.05,71.53 520.40,71.53 520.75,71.53 521.10,71.53 521.45,71.53 521.80,71.53 522.15,71.53 522.50,71.53 522.85,71.53 523.20,71.53 523.55,71.53 523.90,71.53 524.25,71.53 524.60,71.53 524.95,71.53 525.30,71.53 525.65,71.53 526.00,71.53 526.35,71.53 526.70,71.53 527.05,71.53 527.40,71.53 527.75,71.53 528.10,71.53 528.45,71.53 528.80,71.53 529.15,71.53 529.50,71.53 529.85,71.53 530.20,71.53 530.55,71.53 530.90,71.53 531.25,71.53 531.60,71.53 531.95,71.53 532.30,71.53 532.65,71.53 533.00,71.53 533.35,71.53 533.70,71.53 534.05,71.53 534.40,71.53 534.75,71.53 535.10,71.53 535.45,71.53 535.80,71.53 536.15,71.53 536.50,71.53 536.85,71.53 537.20,71.53 537.55,71.53 537.90,71.53 538.25,71.53 538.60,71.53 538.95,71.53 539.30,71.53 539.65,71.53 540.00,71.53 540.35,71.53 540.70,71.53 541.05,71.53 541.40,71.53 541.75,71.53 542.10,71.53 542.45,71.53 542.80,71.53 543.15,71.53 543.50,71.53 543.85,71.53 544.20,71.53 544.55,71.53 544.90,71.53 545.25,71.53 545.60,71.53 545.95,71.53 546.30,71.53 546.65,71.53 547.00,71.53 547.35,71.53 547.70,71.53 548.05,71.53 548.40,71.53 548.75,71.53 549.10,71.53 549.45,71.53 549.80,71.53 550.15,71.53 550.50,71.53 550.85,71.53 551.20,71.53 551.55,71.53 551.90,71.53 552.25,71.53 552.60,71.53 552.95,71.53 553.30,71.53 553.65,71.53 554.00,71.53 554.35,71.53 554.70,71.53 555.05,71.53 555.40,71.53 555.75,71.53 556.10,71.53 556.45,71.53 556.80,71.53 557.15,71.53 557.50,71.53 557.85,71.53 558.20,71.53 558.55,71.53 558.90,71.53 559.25,71.53 559.60,71.53 559.95,71.53 560.30,71.53 560.65,71.53 561.00,71.53 561.35,71.53 561.70,71.53 562.05,71.53 562.40,71.53 562.75,71.53 563.10,71.53 563.45,71.53 563.80,71.53 564.15,71.53 564.50,71.53 564.85,71.53 565.20,71.53 565.55,71.53 565.90,71.53 566.25,71.53 566.60,71.53 566.95,71.53 567.30,71.53 567.65,71.53 568.00,71.53 568.35,71.53 568.70,71.53 569.05,71.53 569.40,71.53 569.75,71.53 570.10,71.53 570.45,71.53 570.80,71.53 571.15,71.53 571.50,71.53 571.85,71.53 572.20,71.53 572.55,71.53 572.90,71.53 573.25,71.53 573.60,71.53 573.95,71.53 574.30,71.53 574.65,71.53 575.00,71.53 575.35,71.53 575.70,71.53 576.05,71.53 576.40,71.53 576.75,71.53 577.10,71.53 577.45,71.53 577.80,71.53 578.15,71.53 578.50,71.53 578.85,71.53 579.20,71.53 579.55,71.53 579.90,71.53 580.25,71.53 580.60,71.53 580.95,71.53 581.30,71.53 581.65,71.53 582.00,71.53 582.35,71.53 582.70,71.53 583.05,71.53 583.40,71.53 583.75,71.53 584.10,71.53 584.45,71.53 584.80,71.53 585.15,71.53 585.50,71.53 585.85,71.53 586.20,71.53 586.55,71.53 586.90,71.53 587.25,71.53 587.60,71.53 587.95,71.53 588.30,71.53 588.65,71.53 589.00,71.53 589.35,71.53 589.70,71.53 590.05,71.53 590.40,71.53 590.75,71.53 591.10,71.53 591.45,71.53 591.80,71.53 592.15,71.53 592.50,71.53 592.85,71.53 593.20,71.53 593.55,71.53 593.90,71.53 594.25,71.53 594.60,71.53 594.95,71.53 595.30,71.53 595.65,71.53 596.00,71.53 596.35,71.53 596.70,71.53 597.05,71.53 597.40,71.53 597.75,71.53 598.10,71.53 598.45,71.53 598.80,71.53 599.15,71.53 599.50,71.53 599.85,71.53 600.20,71.53 600.55,71.53 600.90,71.72 601.25,71.53 601.60,71.53 601.95,71.53 602.30,71.53 602.65,71.53 603.00,71.53 603.35,71.53 603.70,71.53 604.05,71.53 604.40,71.53 604.75,71.53 605.10,71.53 605.45,71.53 605.80,71.53 606.15,71.53 606.50,71.53 606.85,71.53 607.20,71.53 607.55,71.53 607.90,71.53 608.25,71.53 608.60,71.53 608.95,71.53 609.30,71.53 609.65,71.56 610.00,71.68 610.35,71.68 610.70,71.68 611.05,71.94 611.40,72.54 611.75,72.10 612.10,71.74 612.45,71.55 612.80,71.64 613.15,71.76 613.50,72.31 613.85,72.12 614.20,72.12 614.55,72.05 614.90,72.36 615.25,72.07 615.60,71.78 615.95,72.25 616.30,72.06 616.65,71.97 617.00,72.53 617.35,73.07 617.70,73.45 618.05,73.93 618.40,74.79 618.75,75.11 619.10,75.89 619.45,76.84 619.80,77.34 620.15,78.01 620.50,78.91 620.85,79.68 621.20,80.53 621.55,81.39 621.90,82.09 622.25,82.04 622.60,82.57 622.95,83.08 623.30,83.08 623.65,83.66 624.00,84.42 624.35,85.18 624.70,85.81 625.05,86.19 625.40,86.86 625.75,87.53 626.10,88.39 626.45,88.58 626.80,89.03 627.15,89.52 627.50,90.19 627.85,90.38 628.20,90.58 628.55,91.05 628.90,91.16 629.25,91.16 629.60,91.64 629.95,92.02 630.30,91.85 630.65,91.85 631.00,91.95 631.35,91.97 631.70,92.42 632.05,92.61 632.40,92.89 632.75,93.22 633.10,93.60 633.45,93.79 633.80,94.55 634.15,94.65 634.50,94.74 634.85,94.69 635.20,94.97 635.55,95.26 635.90,95.45 636.25,95.45 636.60,95.58 636.95,95.39 637.30,95.26 637.65,95.26 638.00,95.34 638.35,95.53 638.70,95.62 639.05,96.09 639.40,96.15 639.75,96.08 640.10,96.38 640.45,96.64 640.80,96.85 641.15,96.92 641.50,96.98 641.85,97.17 642.20,97.35 642.55,97.73 642.90,97.36 643.25,97.66 643.60,97.76 643.95,97.70 644.30,97.81 644.65,97.52 645.00,97.91 645.35,97.88 645.70,98.09 646.05,98.00 646.40,98.19 646.75,98.28 647.10,98.09 647.45,98.46 647.80,98.25 648.15,98.29 648.50,98.44 648.85,98.68 649.20,98.81 649.55,99.09 649.90,99.18 650.25,99.10 650.60,99.30 650.95,99.20 651.30,99.27 651.65,99.67 652.00,99.95 652.35,100.43 652.70,100.84 653.05,101.03 653.40,100.74 653.75,101.21 654.10,101.12 654.45,101.58 654.80,101.88 655.15,102.11 655.50,102.05 655.85,101.96 656.20,101.67 656.55,101.96 656.90,102.12 657.25,102.50 657.60,102.28 657.95,102.25 658.30,102.25 658.65,102.49 659.00,102.85 659.35,102.85 659.70,102.89 660.05,103.08 660.40,103.55 660.75,103.55 661.10,103.21 661.45,103.17 661.80,103.53 662.15,103.68 662.50,103.77 662.85,103.62 663.20,103.64 663.55,103.61 663.90,104.12 664.25,104.79 664.60,105.65 664.95,106.22 665.30,107.11 665.65,107.36 666.00,107.84 666.35,108.50 666.70,109.05 667.05,110.00 667.40,110.48 667.75,110.96 668.10,111.75 668.45,112.70 668.80,113.37 669.15,114.09 669.50,114.80 669.85,115.37 670.20,116.07 670.55,117.02 670.90,117.69 671.25,118.48 671.60,119.24 671.95,119.72 672.30,120.48 672.65,121.16 673.00,121.92 673.35,122.40 673.70,122.89 674.05,123.56 674.40,124.13 674.75,124.75 675.10,125.37 675.45,126.06 675.80,126.39 676.15,127.14 676.50,127.71 676.85,128.38 677.20,129.14 677.55,129.79 677.90,130.75 678.25,131.61 678.60,131.99 678.95,132.82 679.30,133.49 679.65,134.25 680.00,134.15 680.35,134.64 680.70,134.54 681.05,135.12 681.40,135.02 681.75,134.83 682.10,134.67 682.45,134.71 682.80,134.61 683.15,134.72 683.50,134.92 683.85,135.01 684.20,134.73 684.55,134.73 684.90,134.92 685.25,134.92 685.60,134.99 685.95,134.66 686.30,134.54 686.65,134.25 687.00,134.37 687.35,133.99 687.70,134.09 688.05,133.61 688.40,133.61 688.75,133.42 689.10,133.32 689.45,132.85 689.80,132.37 690.15,132.27 690.50,131.99 690.85,131.41 691.20,130.58 691.55,129.77 691.90,129.11 692.25,128.34 692.60,127.67 692.95,126.91 693.30,126.15 693.65,125.19 694.00,124.45 694.35,123.59 694.70,122.92 695.05,122.54 695.40,121.87 695.75,121.14 696.10,120.28 696.45,119.71 696.80,119.28 697.15,119.28 697.50,119.52 697.85,119.23 698.20,118.56 698.55,117.89 698.90,117.03 699.25,116.37 699.60,115.79 699.95,115.13 700.30,114.74 700.65,113.98 701.00,113.87 701.35,113.77 701.70,113.49 702.05,113.16 702.40,112.70 702.75,112.70 703.10,112.70 703.45,112.70 703.80,113.29 704.15,113.48 704.50,113.29 704.85,112.68 705.20,112.30 705.55,111.44 705.90,110.86 706.25,110.29 706.60,109.81 706.95,110.00 707.30,109.84 707.65,110.03 708.00,109.92 708.35,109.92 708.70,110.08 709.05,110.00 709.40,109.91 709.75,109.74 710.10,109.84 710.45,109.83 710.80,109.28 711.15,109.75 711.50,110.30 711.85,110.30 712.20,110.58 712.55,110.49 712.90,110.39 713.25,110.20 713.60,109.98 713.95,110.18 714.30,110.18 714.65,110.18 715.00,109.80 715.35,109.51 715.70,109.90 716.05,110.05 716.40,110.03 716.75,110.01 717.10,110.30 717.45,110.22 717.80,110.23 718.15,110.21 718.50,110.31 718.85,110.40 719.20,110.21 719.55,110.27 719.90,109.89 720.25,110.22 720.60,110.37 720.95,110.54 721.30,110.40 721.65,110.72 722.00,110.43 722.35,110.72 722.70,110.67 723.05,110.77 723.40,110.96 723.75,110.67 724.10,110.29 724.45,110.56 724.80,110.35 725.15,110.82 725.50,111.47 725.85,112.08 726.20,112.26 726.55,112.64 726.90,112.58 727.25,112.44 727.60,112.65 727.95,112.65 728.30,113.23 728.65,113.99 729.00,114.85 729.35,115.80 729.70,116.57 730.05,117.05 730.40,117.71 730.75,118.28 731.10,118.48 731.45,118.86 731.80,118.95 732.15,119.24 732.50,119.33 732.85,118.95 733.20,118.91 733.55,119.14 733.90,119.07 734.25,118.88 734.60,119.19 734.95,119.55 735.30,119.84 735.65,119.81 736.00,120.06 736.35,119.66 736.70,119.62 737.05,119.96 737.40,120.42 737.75,120.47 738.10,121.04 738.45,121.23 738.80,121.19 739.15,121.14 739.50,121.14 739.85,121.33 740.20,121.81 740.55,122.00 740.90,121.75 741.25,121.84 741.60,122.03 741.95,121.88 742.30,121.82 742.65,121.54 743.00,121.63 743.35,121.97 743.70,122.30 744.05,122.15 744.40,122.10 744.75,122.20 745.10,122.20 745.45,122.10 745.80,122.36 746.15,122.74 746.50,122.84 746.85,123.69 747.20,124.46 747.55,125.13 747.90,125.89 748.25,126.30 748.60,127.25 748.95,128.11 749.30,128.78 749.65,129.52 750.00,130.28 750.35,131.04 750.70,131.71 751.05,132.19 751.40,132.66 751.75,133.52 752.10,134.29 752.45,134.94 752.80,135.32 753.15,136.18 753.50,136.94 753.85,137.80 754.20,138.56 754.55,139.23 754.90,139.71 755.25,140.28 755.60,141.04 755.95,141.62 756.30,142.09 756.65,142.57 757.00,143.33 757.35,143.92 757.70,144.82 758.05,145.32 758.40,146.10 758.75,146.61 759.10,147.27 759.45,148.13 759.80,148.90 760.15,149.60 760.50,150.27 760.85,151.03 761.20,151.77 761.55,152.38 761.90,152.95 762.25,153.72 762.60,154.46 762.95,155.32 763.30,155.51 763.65,156.18 764.00,156.69 764.35,157.47 764.70,158.13 765.05,158.71 765.40,159.28 765.75,160.14 766.10,160.95 766.45,161.43 766.80,162.00 767.15,162.63 767.50,163.31 767.85,163.89 768.20,164.36 768.55,165.15 768.90,165.82 769.25,166.40 769.60,167.25 769.95,167.63 770.30,168.30 770.65,168.38 771.00,168.67 771.35,169.43 771.70,170.00 772.05,170.51 772.40,171.19 772.75,172.05 773.10,172.65 773.45,173.23 773.80,173.80 774.15,173.52 774.50,174.09 774.85,174.85 775.20,175.62 775.55,176.50 775.90,177.17 776.25,178.09 776.60,178.66 776.95,179.37 777.30,180.14 777.65,180.81 778.00,181.66 778.35,182.05 778.70,182.24 779.05,182.38 779.40,183.14 779.75,183.57 780.10,184.24 780.45,184.05 780.80,184.53 781.15,185.10 781.50,186.05 781.85,186.72 782.20,187.39 782.55,188.25 782.90,188.92 783.25,189.78 783.60,190.41 783.95,190.71 784.30,191.38 784.65,191.38 785.00,191.24 785.00,262.35"/>
<line x1="813" y1="54" x2="839" y2="54" stroke="#2563eb" stroke-width="3"/>
<text x="847" y="58" font-family="Arial" font-size="13" fill="#111827">low volatility</text>
<polyline fill="none" stroke="#dc2626" stroke-width="2" points="85.00,262.35 85.35,262.35 85.70,262.03 86.05,262.27 86.40,263.03 86.75,263.75 87.10,264.50 87.45,265.17 87.80,265.74 88.15,266.47 88.50,266.75 88.85,267.11 89.20,267.20 89.55,267.11 89.90,266.63 90.25,266.25 90.60,266.00 90.95,265.93 91.30,266.32 91.65,266.12 92.00,266.03 92.35,265.74 92.70,266.36 93.05,266.55 93.40,266.27 93.75,266.31 94.10,266.59 94.45,266.11 94.80,265.49 95.15,265.32 95.50,264.65 95.85,263.99 96.20,263.13 96.55,262.56 96.90,261.68 97.25,261.20 97.60,260.53 97.95,259.83 98.30,259.44 98.65,258.68 99.00,257.92 99.35,257.44 99.70,256.77 100.05,255.91 100.40,255.06 100.75,254.75 101.10,255.33 101.45,256.10 101.80,256.83 102.15,257.51 102.50,258.28 102.85,258.66 103.20,259.52 103.55,260.27 103.90,261.04 104.25,260.21 104.60,259.73 104.95,259.38 105.30,258.78 105.65,258.59 106.00,258.30 106.35,258.49 106.70,258.97 107.05,259.54 107.40,260.18 107.75,260.66 108.10,261.52 108.45,261.54 108.80,260.78 109.15,260.69 109.50,260.56 109.85,260.18 110.20,259.51 110.55,259.14 110.90,258.50 111.25,257.81 111.60,257.24 111.95,257.05 112.30,256.95 112.65,257.33 113.00,257.42 113.35,257.38 113.70,257.52 114.05,257.80 114.40,257.99 114.75,257.99 115.10,257.98 115.45,257.98 115.80,258.07 116.15,258.17 116.50,258.01 116.85,257.92 117.20,258.10 117.55,258.10 117.90,258.67 118.25,259.44 118.60,260.20 118.95,260.87 119.30,261.53 119.65,262.30 120.00,262.98 120.35,263.74 120.70,264.31 121.05,264.88 121.40,265.38 121.75,266.05 122.10,266.72 122.45,267.43 122.80,268.10 123.15,268.68 123.50,269.45 123.85,270.08 124.20,270.75 124.55,271.32 124.90,271.98 125.25,272.69 125.60,273.17 125.95,274.03 126.30,274.60 126.65,275.43 127.00,276.00 127.35,276.42 127.70,276.90 128.05,276.33 128.40,275.75 128.75,274.99 129.10,274.32 129.45,273.94 129.80,273.83 130.15,273.54 130.50,272.87 130.85,272.71 131.20,272.55 131.55,272.36 131.90,271.70 132.25,270.93 132.60,269.98 132.95,269.22 133.30,268.26 133.65,268.26 134.00,267.87 134.35,268.04 134.70,267.85 135.05,268.55 135.40,269.22 135.75,269.98 136.10,269.88 136.45,270.39 136.80,270.58 137.15,271.25 137.50,271.14 137.85,271.63 138.20,271.82 138.55,271.89 138.90,272.17 139.25,272.84 139.60,273.02 139.95,273.02 140.30,272.26 140.65,272.60 141.00,272.51 141.35,272.64 141.70,272.83 142.05,273.34 142.40,273.82 142.75,274.31 143.10,275.17 143.45,275.84 143.80,276.32 144.15,277.08 144.50,277.94 144.85,278.51 145.20,279.18 145.55,279.94 145.90,280.51 146.25,281.18 146.60,281.75 146.95,282.42 147.30,282.82 147.65,283.41 148.00,283.60 148.35,284.46 148.70,285.14 149.05,285.91 149.40,286.57 149.75,286.21 150.10,286.69 150.45,287.45 150.80,288.02 151.15,288.53 151.50,289.10 151.85,289.45 152.20,289.73 152.55,290.40 152.90,291.26 153.25,292.02 153.60,292.26 153.95,292.73 154.30,292.73 154.65,293.11 155.00,293.22 155.35,293.98 155.70,294.65 156.05,295.03 156.40,295.41 156.75,295.87 157.10,296.14 157.45,296.77 157.80,297.37 158.15,298.22 158.50,298.88 158.85,299.84 159.20,300.59 159.55,301.26 159.90,301.70 160.25,301.91 160.60,302.48 160.95,303.34 161.30,303.76 161.65,304.62 162.00,305.38 162.35,305.76 162.70,306.53 163.05,307.07 163.40,307.83 163.75,308.41 164.10,308.60 164.45,308.69 164.80,308.69 165.15,308.48 165.50,308.39 165.85,307.63 166.20,306.77 166.55,306.43 166.90,305.95 167.25,306.13 167.60,306.81 167.95,307.29 168.30,307.86 168.65,307.39 169.00,306.72 169.35,306.05 169.70,305.33 170.05,304.57 170.40,304.09 170.75,303.62 171.10,303.03 171.45,302.27 171.80,301.63 172.15,301.06 172.50,300.30 172.85,299.53 173.20,298.86 173.55,298.18 173.90,297.51 174.25,296.70 174.60,296.22 174.95,295.65 175.30,295.17 175.65,294.50 176.00,293.86 176.35,293.10 176.70,292.34 177.05,291.76 177.40,291.01 177.75,290.25 178.10,289.68 178.45,289.10 178.80,288.53 179.15,287.78 179.50,287.09 179.85,286.23 180.20,285.47 180.55,284.89 180.90,284.13 181.25,283.56 181.60,282.73 181.95,282.21 182.30,281.54 182.65,280.84 183.00,280.35 183.35,279.87 183.70,279.20 184.05,278.72 184.40,278.05 184.75,277.28 185.10,276.52 185.45,275.75 185.80,275.34 186.15,274.67 186.50,273.91 186.85,273.16 187.20,272.49 187.55,271.92 187.90,271.44 188.25,270.58 188.60,270.00 188.95,269.26 189.30,268.74 189.65,268.08 190.00,267.31 190.35,266.45 190.70,265.88 191.05,265.24 191.40,264.53 191.75,263.67 192.10,262.93 192.45,262.36 192.80,261.80 193.15,261.13 193.50,260.56 193.85,260.08 194.20,259.32 194.55,258.56 194.90,257.96 195.25,257.67 195.60,256.81 195.95,256.24 196.30,255.38 196.65,254.52 197.00,253.76 197.35,253.11 197.70,252.44 198.05,251.96 198.40,251.31 198.75,250.54 199.10,249.87 199.45,249.30 199.80,248.75 200.15,247.86 200.50,246.91 200.85,246.25 201.20,245.58 201.55,244.91 201.90,244.34 202.25,243.59 202.60,243.61 202.95,243.14 203.30,242.66 203.65,241.90 204.00,241.42 204.35,240.75 204.70,240.02 205.05,239.44 205.40,238.87 205.75,238.39 206.10,237.54 206.45,236.96 206.80,236.20 207.15,235.53 207.50,234.86 207.85,234.29 208.20,233.91 208.55,233.05 208.90,232.38 209.25,231.71 209.60,230.95 209.95,230.28 210.30,229.52 210.65,228.76 211.00,227.99 211.35,227.31 211.70,226.54 212.05,225.78 212.40,225.21 212.75,224.25 213.10,223.39 213.45,222.72 213.80,221.95 214.15,221.18 214.50,220.42 214.85,219.56 215.20,219.18 215.55,218.51 215.90,217.55 216.25,216.98 216.60,216.47 216.95,215.79 217.30,215.12 217.65,214.64 218.00,214.03 218.35,213.26 218.70,212.50 219.05,212.33 219.40,211.91 219.75,211.25 220.10,210.48 220.45,209.81 220.80,209.05 221.15,208.57 221.50,207.81 221.85,207.31 222.20,206.68 222.55,205.91 222.90,205.24 223.25,204.77 223.60,203.91 223.95,203.43 224.30,202.76 224.65,202.29 225.00,201.71 225.35,201.24 225.70,200.72 226.05,199.90 226.40,199.04 226.75,198.38 227.10,197.78 227.45,197.01 227.80,196.25 228.15,196.01 228.50,195.91 228.85,195.91 229.20,195.72 229.55,195.91 229.90,196.39 230.25,197.25 230.60,197.85 230.95,198.52 231.30,199.00 231.65,199.63 232.00,200.49 232.35,201.23 232.70,201.78 233.05,202.45 233.40,203.21 233.75,203.89 234.10,204.56 234.45,205.31 234.80,205.87 235.15,206.89 235.50,207.52 235.85,207.90 236.20,208.37 236.55,208.99 236.90,209.66 237.25,210.43 237.60,211.10 237.95,211.71 238.30,212.51 238.65,213.21 239.00,213.76 239.35,214.33 239.70,214.90 240.05,215.39 240.40,215.86 240.75,216.37 241.10,216.84 241.45,217.70 241.80,218.27 242.15,219.12 242.50,219.79 242.85,219.98 243.20,219.98 243.55,219.21 243.90,218.45 244.25,217.77 244.60,217.12 244.95,216.36 245.30,215.41 245.65,214.64 246.00,213.88 246.35,213.12 246.70,212.73 247.05,212.72 247.40,212.82 247.75,212.53 248.10,212.44 248.45,212.34 248.80,212.32 249.15,211.74 249.50,211.07 249.85,210.41 250.20,209.85 250.55,209.19 250.90,208.61 251.25,208.03 251.60,207.36 251.95,206.78 252.30,205.97 252.65,205.59 253.00,204.89 253.35,204.18 253.70,203.23 254.05,202.94 254.40,202.47 254.75,201.70 255.10,200.75 255.45,200.18 255.80,199.41 256.15,198.73 256.50,197.87 256.85,197.41 257.20,196.85 257.55,196.04 257.90,195.20 258.25,194.87 258.60,194.23 258.95,193.37 259.30,192.61 259.65,192.04 260.00,191.46 260.35,190.90 260.70,190.04 261.05,189.52 261.40,188.86 261.75,188.02 262.10,187.45 262.45,187.03 262.80,186.33 263.15,185.86 263.50,185.20 263.85,184.43 264.20,184.15 264.55,183.48 264.90,182.91 265.25,182.43 265.60,182.24 265.95,182.41 266.30,182.52 266.65,182.71 267.00,182.71 267.35,182.32 267.70,182.23 268.05,182.63 268.40,182.81 268.75,183.00 269.10,183.01 269.45,182.84 269.80,182.85 270.15,182.85 270.50,182.73 270.85,182.48 271.20,182.48 271.55,182.67 271.90,183.53 272.25,184.38 272.60,184.50 272.95,184.12 273.30,183.35 273.65,183.35 274.00,182.69 274.35,181.92 274.70,181.42 275.05,181.02 275.40,180.16 275.75,179.49 276.10,179.01 276.45,179.11 276.80,179.61 277.15,180.42 277.50,181.00 277.85,181.66 278.20,182.24 278.55,182.43 278.90,182.24 279.25,181.86 279.60,181.66 279.95,181.86 280.30,182.06 280.65,182.08 281.00,182.28 281.35,182.21 281.70,182.24 282.05,182.24 282.40,182.24 282.75,182.33 283.10,181.67 283.45,180.91 283.80,180.53 284.15,180.43 284.50,179.67 284.85,178.84 285.20,178.17 285.55,177.50 285.90,176.93 286.25,176.36 286.60,175.68 286.95,175.68 287.30,175.33 287.65,174.57 288.00,174.09 288.35,173.23 288.70,172.84 289.05,172.27 289.40,171.75 289.75,171.08 290.10,170.41 290.45,169.91 290.80,169.46 291.15,168.98 291.50,168.11 291.85,167.54 292.20,167.26 292.55,166.40 292.90,165.74 293.25,165.17 293.60,164.39 293.95,163.82 294.30,163.15 294.65,162.48 295.00,161.72 295.35,161.05 295.70,160.48 296.05,159.82 296.40,159.06 296.75,158.68 297.10,159.15 297.45,158.88 297.80,158.40 298.15,158.11 298.50,158.19 298.85,158.36 299.20,158.55 299.55,157.79 299.90,157.06 300.25,156.49 300.60,155.87 300.95,155.11 301.30,154.15 301.65,153.20 302.00,152.25 302.35,151.48 302.70,150.95 303.05,150.18 303.40,149.44 303.75,148.77 304.10,148.01 304.45,147.40 304.80,146.81 305.15,146.14 305.50,145.49 305.85,144.44 306.20,144.06 306.55,143.49 306.90,143.01 307.25,142.34 307.60,142.35 307.95,142.78 308.30,142.61 308.65,142.60 309.00,143.36 309.35,144.22 309.70,144.89 310.05,145.52 310.40,146.38 310.75,146.95 311.10,147.71 311.45,148.32 311.80,148.80 312.15,149.48 312.50,150.01 312.85,150.41 313.20,151.08 313.55,151.94 313.90,152.32 314.25,152.99 314.60,153.36 314.95,153.59 315.30,154.26 315.65,154.83 316.00,155.21 316.35,155.12 316.70,154.73 317.05,154.06 317.40,153.10 317.75,152.63 318.10,152.63 318.45,151.83 318.80,150.97 319.15,150.52 319.50,149.85 319.85,149.18 320.20,148.32 320.55,147.80 320.90,147.04 321.25,146.37 321.60,145.41 321.95,144.79 322.30,144.44 322.65,143.68 323.00,143.29 323.35,142.56 323.70,141.89 324.05,141.22 324.40,140.46 324.75,139.79 325.10,139.19 325.45,138.62 325.80,138.16 326.15,137.27 326.50,136.89 326.85,136.13 327.20,135.65 327.55,135.17 327.90,134.60 328.25,134.03 328.60,133.61 328.95,132.94 329.30,132.08 329.65,131.32 330.00,130.46 330.35,129.60 330.70,129.20 331.05,129.01 331.40,128.82 331.75,127.96 332.10,127.50 332.45,126.64 332.80,125.78 333.15,125.12 333.50,124.64 333.85,123.90 334.20,123.18 334.55,122.42 334.90,121.94 335.25,121.18 335.60,120.55 335.95,119.69 336.30,119.11 336.65,118.45 337.00,117.68 337.35,117.02 337.70,116.16 338.05,115.70 338.40,115.13 338.75,114.65 339.10,113.89 339.45,113.22 339.80,112.47 340.15,111.61 340.50,110.85 340.85,110.32 341.20,109.74 341.55,108.89 341.90,108.41 342.25,107.93 342.60,107.19 342.95,106.52 343.30,105.95 343.65,105.39 344.00,104.82 344.35,103.87 344.70,103.02 345.05,102.25 345.40,101.59 345.75,100.74 346.10,100.26 346.45,99.68 346.80,99.10 347.15,98.44 347.50,97.48 347.85,96.72 348.20,96.15 348.55,95.29 348.90,94.65 349.25,93.98 349.60,93.22 349.95,92.64 350.30,91.94 350.65,91.37 351.00,90.60 351.35,90.07 351.70,89.30 352.05,88.45 352.40,87.59 352.75,86.92 353.10,85.96 353.45,85.39 353.80,84.94 354.15,84.08 354.50,83.42 354.85,82.65 355.20,81.99 355.55,81.04 355.90,80.28 356.25,79.42 356.60,79.50 356.95,80.17 357.30,80.55 357.65,81.06 358.00,81.28 358.35,81.66 358.70,82.04 359.05,82.44 359.40,82.85 359.75,82.85 360.10,82.28 360.45,82.73 360.80,82.79 361.15,83.17 361.50,83.74 361.85,84.03 362.20,84.79 362.55,85.20 362.90,85.34 363.25,86.11 363.60,86.79 363.95,87.41 364.30,87.37 364.65,87.75 365.00,88.61 365.35,89.14 365.70,89.95 366.05,90.61 366.40,91.18 366.75,91.85 367.10,92.33 367.45,93.09 367.80,93.76 368.15,94.42 368.50,95.09 368.85,95.95 369.20,96.42 369.55,97.16 369.90,97.58 370.25,98.11 370.60,98.17 370.95,98.46 371.30,98.57 371.65,97.68 372.00,96.82 372.35,95.96 372.70,95.58 373.05,95.22 373.40,95.22 373.75,95.70 374.10,96.12 374.45,96.17 374.80,96.00 375.15,96.29 375.50,96.61 375.85,96.52 376.20,96.23 376.55,95.56 376.90,94.90 377.25,94.27 377.60,93.34 377.95,92.83 378.30,92.25 378.65,91.49 379.00,90.92 379.35,90.34 379.70,89.96 380.05,90.06 380.40,89.68 380.75,88.98 381.10,88.12 381.45,87.64 381.80,86.79 382.15,86.69 382.50,86.98 382.85,87.25 383.20,87.18 383.55,86.92 383.90,86.86 384.25,86.72 384.60,87.39 384.95,87.96 385.30,88.82 385.65,89.32 386.00,89.80 386.35,90.36 386.70,91.13 387.05,91.99 387.40,91.89 387.75,91.86 388.10,92.37 388.45,92.93 388.80,93.65 389.15,94.11 389.50,94.69 389.85,95.26 390.20,95.54 390.55,95.81 390.90,96.54 391.25,97.11 391.60,97.68 391.95,98.54 392.30,99.30 392.65,100.05 393.00,100.53 393.35,100.91 393.70,101.38 394.05,102.15 394.40,102.72 394.75,103.48 395.10,103.96 395.45,104.44 395.80,105.02 396.15,105.61 396.50,105.52 396.85,106.23 397.20,106.80 397.55,107.43 397.90,108.20 398.25,108.96 398.60,109.71 398.95,110.18 399.30,111.04 399.65,111.59 400.00,112.25 400.35,112.92 400.70,113.02 401.05,113.25 401.40,113.41 401.75,113.68 402.10,113.58 402.45,113.29 402.80,113.38 403.15,112.84 403.50,112.07 403.85,111.60 404.20,111.78 404.55,111.68 404.90,112.06 405.25,111.87 405.60,111.87 405.95,111.51 406.30,111.13 406.65,110.95 407.00,110.02 407.35,109.35 407.70,108.63 408.05,108.25 408.40,109.10 408.75,109.49 409.10,109.96 409.45,110.73 409.80,111.54 410.15,112.21 410.50,112.87 410.85,113.35 411.20,114.02 411.55,114.69 411.90,115.35 412.25,115.83 412.60,116.50 412.95,117.17 413.30,117.65 413.65,118.17 414.00,118.74 414.35,119.32 414.70,120.17 415.05,121.03 415.40,121.89 415.75,122.51 416.10,122.81 416.45,122.52 416.80,122.23 417.15,121.70 417.50,121.13 417.85,121.19 418.20,121.58 418.55,122.34 418.90,122.92 419.25,123.49 419.60,123.80 419.95,124.47 420.30,125.03 420.65,125.70 421.00,126.40 421.35,126.98 421.70,127.74 422.05,128.31 422.40,129.27 422.75,130.13 423.10,130.91 423.45,131.58 423.80,132.42 424.15,132.99 424.50,133.66 424.85,134.33 425.20,135.37 425.55,135.85 425.90,136.52 426.25,136.93 426.60,137.60 426.95,138.36 427.30,139.03 427.65,139.75 428.00,140.52 428.35,141.09 428.70,141.85 429.05,142.52 429.40,143.26 429.75,143.73 430.10,144.64 430.45,145.50 430.80,146.26 431.15,146.75 431.50,147.23 431.85,147.89 432.20,148.56 432.55,149.33 432.90,149.90 433.25,150.38 433.60,151.14 433.95,151.90 434.30,152.57 434.65,153.33 435.00,153.91 435.35,154.76 435.70,154.76 436.05,154.96 436.40,155.72 436.75,156.01 437.10,155.62 437.45,155.62 437.80,155.58 438.15,155.39 438.50,155.67 438.85,155.57 439.20,155.28 439.55,155.48 439.90,155.31 440.25,155.64 440.60,155.62 440.95,155.53 441.30,156.01 441.65,156.96 442.00,157.11 442.35,157.35 442.70,158.02 443.05,158.60 443.40,159.27 443.75,159.75 444.10,160.13 444.45,160.70 444.80,161.47 445.15,161.95 445.50,162.59 445.85,163.35 446.20,164.12 446.55,164.81 446.90,165.48 447.25,166.53 447.60,166.82 447.95,167.65 448.30,168.12 448.65,169.08 449.00,169.84 449.35,170.49 449.70,171.15 450.05,172.01 450.40,172.77 450.75,173.25 451.10,173.82 451.45,174.37 451.80,175.04 452.15,175.81 452.50,176.38 452.85,177.05 453.20,177.81 453.55,178.48 453.90,179.24 454.25,179.91 454.60,180.56 454.95,181.32 455.30,182.08 455.65,182.75 456.00,183.42 456.35,183.78 456.70,184.45 457.05,185.21 457.40,186.17 457.75,186.71 458.10,187.32 458.45,188.18 458.80,188.95 459.15,189.71 459.50,190.19 459.85,190.95 460.20,191.71 460.55,192.48 460.90,192.99 461.25,193.74 461.60,194.69 461.95,195.44 462.30,196.21 462.65,196.78 463.00,196.97 463.35,196.88 463.70,197.00 464.05,196.93 464.40,196.74 464.75,196.80 465.10,196.62 465.45,196.33 465.80,196.38 466.15,196.57 466.50,196.58 466.85,196.77 467.20,197.15 467.55,197.27 467.90,197.84 468.25,198.40 468.60,198.69 468.95,198.69 469.30,199.53 469.65,200.29 470.00,201.15 470.35,201.72 470.70,202.36 471.05,203.22 471.40,203.89 471.75,204.47 472.10,205.04 472.45,205.62 472.80,206.38 473.15,207.05 473.50,207.62 473.85,208.10 474.20,208.67 474.55,209.43 474.90,210.02 475.25,210.81 475.60,211.48 475.95,212.33 476.30,212.72 476.65,213.48 477.00,214.24 477.35,214.91 477.70,215.48 478.05,216.06 478.40,216.53 478.75,217.11 479.10,217.39 479.45,217.30 479.80,217.57 480.15,218.12 480.50,217.48 480.85,217.10 481.20,217.10 481.55,216.51 481.90,216.52 482.25,216.24 482.60,215.95 482.95,216.33 483.30,216.81 483.65,217.48 484.00,217.95 484.35,218.62 484.70,219.45 485.05,220.31 485.40,221.25 485.75,222.10 486.10,222.43 486.45,223.19 486.80,223.98 487.15,224.64 487.50,225.31 487.85,225.89 488.20,226.37 488.55,227.13 488.90,227.80 489.25,228.66 489.60,229.23 489.95,230.09 490.30,230.80 490.65,231.50 491.00,232.27 491.35,232.94 491.70,233.20 492.05,234.16 492.40,234.67 492.75,235.15 493.10,234.52 493.45,234.62 493.80,234.14 494.15,234.52 494.50,234.23 494.85,234.72 495.20,235.46 495.55,236.18 495.90,237.13 496.25,237.90 496.60,238.48 496.95,239.15 497.30,239.75 497.65,239.74 498.00,239.55 498.35,239.45 498.70,240.03 499.05,240.19 499.40,240.86 499.75,241.72 500.10,242.38 500.45,241.43 500.80,240.76 501.15,240.00 501.50,239.90 501.85,239.23 502.20,238.76 502.55,238.09 502.90,237.42 503.25,236.72 503.60,236.23 503.95,235.46 504.30,234.70 504.65,234.00 505.00,233.30 505.35,232.82 505.70,232.73 506.05,232.34 506.40,232.34 506.75,232.34 507.10,232.30 507.45,232.11 507.80,232.22 508.15,232.65 508.50,232.44 508.85,232.33 509.20,232.62 509.55,233.38 509.90,233.38 510.25,233.52 510.60,233.52 510.95,233.66 511.30,234.20 511.65,234.77 512.00,235.44 512.35,236.01 512.70,236.75 513.05,237.52 513.40,238.28 513.75,239.04 514.10,239.87 514.45,240.73 514.80,241.11 515.15,241.97 515.50,242.48 515.85,243.34 516.20,244.01 516.55,243.91 516.90,244.09 517.25,244.85 517.60,245.43 517.95,246.34 518.30,247.11 518.65,247.87 519.00,248.35 519.35,248.92 519.70,249.78 520.05,250.35 520.40,250.37 520.75,250.37 521.10,250.20 521.45,250.29 521.80,250.20 522.15,250.39 522.50,250.39 522.85,250.46 523.20,250.44 523.55,250.44 523.90,251.10 524.25,250.82 524.60,250.74 524.95,250.07 525.30,250.17 525.65,250.06 526.00,249.83 526.35,250.02 526.70,249.83 527.05,249.89 527.40,250.11 527.75,250.76 528.10,251.31 528.45,251.41 528.80,251.70 529.15,251.25 529.50,250.29 529.85,249.72 530.20,249.12 530.55,248.54 530.90,247.87 531.25,247.59 531.60,247.66 531.95,247.87 532.30,248.52 532.65,248.63 533.00,248.36 533.35,247.76 533.70,247.18 534.05,246.51 534.40,245.97 534.75,245.21 535.10,244.35 535.45,243.49 535.80,242.73 536.15,242.11 536.50,241.42 536.85,240.47 537.20,239.61 537.55,238.94 537.90,238.24 538.25,237.59 538.60,237.11 538.95,236.72 539.30,235.96 539.65,235.50 540.00,234.74 540.35,234.17 540.70,233.42 541.05,232.66 541.40,231.96 541.75,231.20 542.10,230.39 542.45,229.67 542.80,228.81 543.15,228.20 543.50,227.44 543.85,226.83 544.20,226.26 544.55,225.78 544.90,225.11 545.25,224.40 545.60,223.92 545.95,223.44 546.30,223.41 546.65,222.94 547.00,222.80 547.35,222.99 547.70,223.54 548.05,223.95 548.40,224.80 548.75,225.37 549.10,225.94 549.45,226.90 549.80,227.66 550.15,228.61 550.50,229.19 550.85,229.76 551.20,230.33 551.55,231.19 551.90,231.81 552.25,232.38 552.60,233.05 552.95,233.72 553.30,234.29 553.65,234.96 554.00,235.44 554.35,236.20 554.70,236.70 555.05,237.59 555.40,238.26 555.75,238.93 556.10,239.60 556.45,240.36 556.80,241.13 557.15,241.90 557.50,242.52 557.85,243.15 558.20,243.99 558.55,244.56 558.90,245.32 559.25,245.90 559.60,246.48 559.95,246.67 560.30,246.30 560.65,246.06 561.00,246.12 561.35,246.31 561.70,246.31 562.05,246.48 562.40,246.44 562.75,245.58 563.10,245.01 563.45,244.15 563.80,243.49 564.15,243.04 564.50,242.47 564.85,241.64 565.20,240.68 565.55,239.95 565.90,239.19 566.25,238.42 566.60,237.85 566.95,237.20 567.30,236.68 567.65,236.08 568.00,235.31 568.35,234.74 568.70,234.26 569.05,233.59 569.40,232.92 569.75,232.44 570.10,231.58 570.45,230.72 570.80,230.65 571.15,230.55 571.50,230.65 571.85,230.65 572.20,230.17 572.55,229.41 572.90,228.64 573.25,227.88 573.60,227.23 573.95,226.66 574.30,226.20 574.65,226.02 575.00,226.02 575.35,226.21 575.70,226.11 576.05,226.22 576.40,226.50 576.75,226.67 577.10,226.82 577.45,226.72 577.80,226.56 578.15,226.52 578.50,226.71 578.85,227.19 579.20,228.05 579.55,228.71 579.90,229.29 580.25,229.85 580.60,230.45 580.95,231.21 581.30,231.55 581.65,232.32 582.00,232.70 582.35,232.98 582.70,233.31 583.05,233.28 583.40,233.56 583.75,234.42 584.10,235.27 584.45,235.90 584.80,236.41 585.15,237.08 585.50,237.84 585.85,238.80 586.20,239.37 586.55,239.94 586.90,240.80 587.25,241.14 587.60,241.53 587.95,242.19 588.30,242.76 588.65,243.53 589.00,244.22 589.35,245.07 589.70,245.87 590.05,246.72 590.40,247.49 590.75,247.97 591.10,248.82 591.45,249.31 591.80,249.91 592.15,250.87 592.50,251.53 592.85,252.23 593.20,252.61 593.55,253.01 593.90,253.53 594.25,254.01 594.60,254.63 594.95,255.20 595.30,255.53 595.65,256.30 596.00,256.92 596.35,257.58 596.70,257.97 597.05,258.73 597.40,259.35 597.75,260.02 598.10,260.49 598.45,260.88 598.80,261.57 599.15,262.43 599.50,263.11 599.85,263.87 600.20,264.35 600.55,265.11 600.90,265.88 601.25,266.54 601.60,267.03 601.95,267.67 602.30,268.53 602.65,268.97 603.00,269.54 603.35,270.14 603.70,270.71 604.05,271.53 604.40,272.19 604.75,272.67 605.10,273.15 605.45,273.05 605.80,273.73 606.15,274.39 606.50,274.87 606.85,275.44 607.20,275.82 607.55,275.53 607.90,274.87 608.25,274.39 608.60,273.82 608.95,273.15 609.30,272.58 609.65,272.19 610.00,271.43 610.35,270.95 610.70,270.28 611.05,269.62 611.40,268.95 611.75,268.38 612.10,267.74 612.45,267.83 612.80,268.41 613.15,268.79 613.50,268.99 613.85,269.56 614.20,269.47 614.55,269.12 614.90,268.45 615.25,268.55 615.60,268.45 615.95,268.74 616.30,268.47 616.65,268.82 617.00,269.45 617.35,269.18 617.70,269.02 618.05,268.35 618.40,267.49 618.75,266.46 619.10,265.79 619.45,265.12 619.80,264.36 620.15,263.50 620.50,262.74 620.85,261.78 621.20,261.11 621.55,260.16 621.90,259.52 622.25,258.85 622.60,257.99 622.95,257.33 623.30,256.66 623.65,256.09 624.00,255.42 624.35,254.85 624.70,253.99 625.05,253.32 625.40,252.65 625.75,252.07 626.10,251.32 626.45,250.75 626.80,250.37 627.15,250.33 627.50,251.06 627.85,251.15 628.20,251.61 628.55,252.28 628.90,252.95 629.25,253.44 629.60,253.63 629.95,253.92 630.30,254.68 630.65,255.41 631.00,256.17 631.35,256.44 631.70,256.43 632.05,256.29 632.40,255.81 632.75,255.38 633.10,254.81 633.45,254.82 633.80,255.10 634.15,255.10 634.50,255.20 634.85,255.91 635.20,256.01 635.55,255.06 635.90,254.39 636.25,253.53 636.60,252.77 636.95,252.14 637.30,251.75 637.65,251.74 638.00,251.38 638.35,250.71 638.70,250.24 639.05,249.76 639.40,248.90 639.75,248.30 640.10,247.63 640.45,246.82 640.80,245.99 641.15,245.26 641.50,244.69 641.85,244.88 642.20,244.61 642.55,243.94 642.90,243.37 643.25,242.60 643.60,241.93 643.95,241.40 644.30,240.83 644.65,240.27 645.00,239.51 645.35,238.56 645.70,238.08 646.05,237.47 646.40,236.80 646.75,236.12 647.10,235.46 647.45,234.88 647.80,234.31 648.15,233.74 648.50,233.17 648.85,232.59 649.20,232.12 649.55,231.54 649.90,230.97 650.25,230.33 650.60,229.71 650.95,229.05 651.30,228.35 651.65,227.81 652.00,227.33 652.35,226.74 652.70,225.79 653.05,225.12 653.40,224.55 653.75,223.98 654.10,223.31 654.45,223.24 654.80,223.16 655.15,223.69 655.50,223.08 655.85,222.32 656.20,221.93 656.55,221.18 656.90,220.61 657.25,220.95 657.60,220.09 657.95,219.33 658.30,218.66 658.65,218.25 659.00,217.87 659.35,217.32 659.70,216.64 660.05,216.07 660.40,215.31 660.75,214.56 661.10,213.98 661.45,213.12 661.80,212.54 662.15,211.81 662.50,211.05 662.85,210.28 663.20,209.52 663.55,209.12 663.90,208.35 664.25,207.67 664.60,207.08 664.95,206.50 665.30,206.12 665.65,205.45 666.00,204.69 666.35,203.83 666.70,203.07 667.05,202.42 667.40,201.75 667.75,201.08 668.10,200.56 668.45,199.99 668.80,199.22 669.15,198.60 669.50,197.84 669.85,197.08 670.20,196.31 670.55,195.36 670.90,194.98 671.25,194.42 671.60,193.85 671.95,193.14 672.30,192.40 672.65,191.54 673.00,190.87 673.35,190.06 673.70,189.20 674.05,188.25 674.40,187.87 674.75,186.82 675.10,186.05 675.45,185.39 675.80,184.62 676.15,183.96 676.50,183.10 676.85,182.17 677.20,181.62 677.55,180.95 677.90,180.04 678.25,179.71 678.60,179.29 678.95,178.81 679.30,178.72 679.65,178.43 680.00,178.53 680.35,178.65 680.70,177.95 681.05,177.00 681.40,176.76 681.75,176.66 682.10,176.86 682.45,177.24 682.80,177.51 683.15,177.71 683.50,178.43 683.85,178.29 684.20,178.30 684.55,177.97 684.90,177.11 685.25,176.45 685.60,175.68 685.95,175.01 686.30,174.46 686.65,173.89 687.00,174.08 687.35,173.60 687.70,173.17 688.05,172.89 688.40,173.20 688.75,173.39 689.10,173.81 689.45,174.48 689.80,175.24 690.15,175.53 690.50,175.82 690.85,176.39 691.20,176.15 691.55,176.09 691.90,175.52 692.25,175.66 692.60,175.66 692.95,175.57 693.30,174.84 693.65,175.12 694.00,175.21 694.35,174.96 694.70,174.67 695.05,174.68 695.40,174.39 695.75,174.70 696.10,174.60 696.45,174.22 696.80,174.79 697.15,175.29 697.50,176.06 697.85,176.77 698.20,177.34 698.55,178.11 698.90,178.96 699.25,179.90 699.60,180.57 699.95,181.32 700.30,181.70 700.65,182.39 701.00,182.76 701.35,183.53 701.70,182.95 702.05,182.42 702.40,181.94 702.75,181.94 703.10,182.08 703.45,182.39 703.80,182.39 704.15,181.91 704.50,181.53 704.85,181.82 705.20,181.66 705.55,181.66 705.90,181.86 706.25,182.52 706.60,183.48 706.95,183.97 707.30,184.55 707.65,185.31 708.00,185.99 708.35,186.74 708.70,187.03 709.05,187.50 709.40,188.25 709.75,188.92 710.10,189.78 710.45,190.77 710.80,191.40 711.15,191.96 711.50,192.82 711.85,193.39 712.20,194.16 712.55,195.02 712.90,195.69 713.25,196.26 713.60,197.01 713.95,197.30 714.30,198.15 714.65,198.91 715.00,199.39 715.35,200.15 715.70,200.72 716.05,201.48 716.40,202.37 716.75,202.94 717.10,203.61 717.45,204.18 717.80,204.95 718.15,205.62 718.50,206.19 718.85,206.74 719.20,207.22 719.55,208.08 719.90,208.24 720.25,208.43 720.60,209.17 720.95,209.19 721.30,208.80 721.65,208.67 722.00,209.11 722.35,208.92 722.70,208.86 723.05,208.04 723.40,207.41 723.75,206.74 724.10,206.27 724.45,206.07 724.80,205.62 725.15,204.84 725.50,203.89 725.85,203.37 726.20,202.80 726.55,202.04 726.90,201.47 727.25,200.81 727.60,200.40 727.95,199.54 728.30,198.77 728.65,198.08 729.00,197.60 729.35,197.07 729.70,196.78 730.05,197.09 730.40,197.09 730.75,196.52 731.10,196.03 731.45,195.57 731.80,195.76 732.15,196.20 732.50,196.01 732.85,196.68 733.20,196.96 733.55,197.40 733.90,197.21 734.25,197.11 734.60,196.39 734.95,195.86 735.30,195.01 735.65,194.30 736.00,193.49 736.35,193.20 736.70,192.44 737.05,192.10 737.40,192.30 737.75,192.20 738.10,192.01 738.45,191.98 738.80,191.60 739.15,192.17 739.50,193.03 739.85,193.98 740.20,194.74 740.55,194.89 740.90,195.56 741.25,196.38 741.60,197.24 741.95,197.72 742.30,198.48 742.65,199.24 743.00,199.72 743.35,200.10 743.70,200.58 744.05,201.12 744.40,201.98 744.75,202.36 745.10,202.74 745.45,202.90 745.80,202.99 746.15,202.99 746.50,203.18 746.85,203.18 747.20,203.76 747.55,204.52 747.90,205.38 748.25,205.75 748.60,205.26 748.95,204.86 749.30,204.20 749.65,204.80 750.00,205.02 750.35,204.89 750.70,204.70 751.05,204.51 751.40,204.60 751.75,204.41 752.10,204.06 752.45,203.32 752.80,202.46 753.15,202.57 753.50,202.29 753.85,202.78 754.20,202.78 754.55,202.59 754.90,202.69 755.25,202.59 755.60,202.93 755.95,202.45 756.30,202.04 756.65,201.27 757.00,200.61 757.35,200.85 757.70,201.32 758.05,201.23 758.40,201.61 758.75,202.09 759.10,202.56 759.45,202.93 759.80,203.79 760.15,203.57 760.50,203.48 760.85,203.35 761.20,203.18 761.55,202.99 761.90,203.05 762.25,203.00 762.60,203.00 762.95,202.62 763.30,202.03 763.65,201.46 764.00,200.88 764.35,200.60 764.70,200.41 765.05,199.93 765.40,199.26 765.75,199.20 766.10,199.52 766.45,200.38 766.80,201.14 767.15,201.90 767.50,202.48 767.85,203.34 768.20,203.87 768.55,203.68 768.90,203.97 769.25,204.55 769.60,205.41 769.95,205.69 770.30,205.99 770.65,206.66 771.00,207.61 771.35,208.18 771.70,209.14 772.05,209.81 772.40,210.58 772.75,211.40 773.10,212.16 773.45,212.93 773.80,213.32 774.15,213.70 774.50,214.37 774.85,215.29 775.20,215.48 775.55,214.93 775.90,214.26 776.25,213.88 776.60,213.21 776.95,212.49 777.30,211.84 777.65,211.36 778.00,210.79 778.35,210.15 778.70,209.51 779.05,208.84 779.40,208.17 779.75,207.70 780.10,207.04 780.45,206.52 780.80,205.98 781.15,206.07 781.50,205.85 781.85,205.09 782.20,204.61 782.55,203.95 782.90,203.03 783.25,203.03 783.60,203.03 783.95,203.25 784.30,203.18 784.65,203.79 785.00,204.37 785.00,262.35"/>
<line x1="813" y1="78" x2="839" y2="78" stroke="#dc2626" stroke-width="3"/>
<text x="847" y="82" font-family="Arial" font-size="13" fill="#111827">high volatility</text>
<polyline fill="none" stroke="#059669" stroke-width="2" points="85.00,262.35 85.35,262.54 85.70,262.49 86.05,262.49 86.40,262.78 86.75,262.78 87.10,262.57 87.45,262.24 87.80,262.24 88.15,262.37 88.50,262.42 88.85,262.78 89.20,262.78 89.55,262.59 89.90,262.63 90.25,262.44 90.60,262.42 90.95,262.23 91.30,262.25 91.65,262.41 92.00,262.39 92.35,262.39 92.70,262.39 93.05,262.25 93.40,261.88 93.75,261.40 94.10,261.31 94.45,260.76 94.80,260.28 95.15,259.62 95.50,258.76 95.85,257.92 96.20,257.45 96.55,256.79 96.90,256.14 97.25,255.28 97.60,254.59 97.95,253.82 98.30,252.94 98.65,252.28 99.00,251.61 99.35,250.66 99.70,249.99 100.05,249.51 100.40,248.84 100.75,248.18 101.10,247.51 101.45,246.93 101.80,246.16 102.15,245.57 102.50,244.91 102.85,244.11 103.20,243.30 103.55,242.44 103.90,241.68 104.25,241.01 104.60,240.72 104.95,240.05 105.30,239.48 105.65,238.91 106.00,239.28 106.35,239.00 106.70,239.12 107.05,238.64 107.40,238.64 107.75,238.74 108.10,238.45 108.45,238.16 108.80,237.87 109.15,237.15 109.50,236.63 109.85,235.87 110.20,235.20 110.55,234.72 110.90,234.54 111.25,234.39 111.60,234.48 111.95,234.72 112.30,234.30 112.65,234.31 113.00,234.20 113.35,234.20 113.70,234.48 114.05,234.19 114.40,234.28 114.75,234.30 115.10,234.40 115.45,234.40 115.80,234.19 116.15,234.07 116.50,234.26 116.85,234.64 117.20,234.84 117.55,234.93 117.90,234.93 118.25,234.93 118.60,235.31 118.95,235.40 119.30,235.78 119.65,235.67 120.00,235.49 120.35,235.49 120.70,236.09 121.05,236.04 121.40,235.96 121.75,235.40 122.10,235.15 122.45,234.96 122.80,235.15 123.15,235.15 123.50,235.63 123.85,235.82 124.20,236.37 124.55,236.92 124.90,237.58 125.25,238.54 125.60,239.25 125.95,240.02 126.30,240.78 126.65,241.32 127.00,242.27 127.35,242.94 127.70,243.41 128.05,244.13 128.40,244.51 128.75,244.70 129.10,245.33 129.45,246.00 129.80,246.76 130.15,247.35 130.50,247.82 130.85,247.97 131.20,248.04 131.55,247.85 131.90,247.65 132.25,247.80 132.60,248.25 132.95,248.59 133.30,248.53 133.65,248.62 134.00,248.81 134.35,248.95 134.70,248.95 135.05,248.57 135.40,248.69 135.75,248.88 136.10,249.26 136.45,249.43 136.80,249.34 137.15,249.63 137.50,249.66 137.85,249.74 138.20,249.50 138.55,250.15 138.90,250.53 139.25,251.10 139.60,251.79 139.95,252.65 140.30,253.33 140.65,253.81 141.00,254.48 141.35,254.65 141.70,254.46 142.05,254.65 142.40,254.72 142.75,254.65 143.10,254.81 143.45,254.62 143.80,254.33 144.15,254.43 144.50,254.20 144.85,254.58 145.20,255.23 145.55,255.32 145.90,255.61 146.25,255.90 146.60,255.90 146.95,255.66 147.30,255.47 147.65,255.47 148.00,255.75 148.35,255.66 148.70,255.75 149.05,255.30 149.40,255.49 149.75,255.78 150.10,255.78 150.45,255.57 150.80,255.86 151.15,255.67 151.50,255.09 151.85,254.84 152.20,254.72 152.55,254.82 152.90,255.00 153.25,255.18 153.60,255.18 153.95,255.18 154.30,254.89 154.65,254.70 155.00,254.96 155.35,255.06 155.70,254.86 156.05,254.93 156.40,255.05 156.75,254.99 157.10,254.80 157.45,255.08 157.80,255.47 158.15,255.35 158.50,255.64 158.85,255.45 159.20,255.54 159.55,256.16 159.90,255.92 160.25,256.17 160.60,255.31 160.95,254.74 161.30,254.07 161.65,253.60 162.00,252.84 162.35,252.30 162.70,251.61 163.05,251.04 163.40,250.47 163.75,250.37 164.10,249.99 164.45,250.08 164.80,250.37 165.15,250.75 165.50,251.25 165.85,251.73 166.20,252.12 166.55,252.94 166.90,253.46 167.25,254.03 167.60,254.80 167.95,255.56 168.30,256.13 168.65,256.65 169.00,257.42 169.35,258.19 169.70,258.85 170.05,259.71 170.40,260.19 170.75,260.67 171.10,261.47 171.45,262.04 171.80,262.80 172.15,263.57 172.50,264.43 172.85,265.19 173.20,266.03 173.55,266.70 173.90,267.36 174.25,268.13 174.60,268.99 174.95,269.37 175.30,270.03 175.65,270.94 176.00,271.52 176.35,272.23 176.70,272.99 177.05,273.57 177.40,274.15 177.75,274.67 178.10,275.34 178.45,276.11 178.80,276.87 179.15,277.49 179.50,278.16 179.85,278.92 180.20,279.59 180.55,280.35 180.90,281.17 181.25,281.94 181.60,282.48 181.95,283.05 182.30,283.91 182.65,284.67 183.00,285.34 183.35,286.01 183.70,286.68 184.05,287.21 184.40,287.88 184.75,288.87 185.10,289.16 185.45,289.92 185.80,290.50 186.15,291.35 186.50,291.88 186.85,292.55 187.20,293.41 187.55,294.17 187.90,294.65 188.25,295.45 188.60,295.93 188.95,296.66 189.30,297.61 189.65,298.38 190.00,299.24 190.35,299.98 190.70,300.74 191.05,301.60 191.40,302.27 191.75,303.09 192.10,304.05 192.45,304.43 192.80,304.69 193.15,305.35 193.50,306.10 193.85,306.67 194.20,307.34 194.55,307.77 194.90,308.53 195.25,309.31 195.60,310.27 195.95,310.94 196.30,311.70 196.65,312.08 197.00,313.03 197.35,313.39 197.70,313.30 198.05,313.45 198.40,313.35 198.75,313.35 199.10,313.31 199.45,313.31 199.80,313.31 200.15,313.30 200.50,313.11 200.85,313.30 201.20,313.48 201.55,313.60 201.90,313.88 202.25,314.65 202.60,315.41 202.95,316.17 203.30,316.94 203.65,317.80 204.00,318.51 204.35,319.28 204.70,319.75 205.05,320.42 205.40,320.95 205.75,321.53 206.10,321.74 206.45,321.83 206.80,322.29 207.15,322.20 207.50,322.30 207.85,322.97 208.20,323.45 208.55,324.11 208.90,324.88 209.25,325.69 209.60,326.45 209.95,327.02 210.30,327.50 210.65,328.38 211.00,328.47 211.35,329.13 211.70,329.20 212.05,329.20 212.40,329.09 212.75,329.09 213.10,329.05 213.45,329.81 213.80,330.57 214.15,331.24 214.50,331.91 214.85,332.33 215.20,333.09 215.55,333.86 215.90,334.43 216.25,335.12 216.60,335.59 216.95,336.17 217.30,336.93 217.65,337.50 218.00,337.99 218.35,338.47 218.70,339.21 219.05,339.88 219.40,340.64 219.75,341.31 220.10,341.95 220.45,342.62 220.80,343.30 221.15,343.75 221.50,344.42 221.85,345.31 222.20,345.83 222.55,346.60 222.90,347.45 223.25,348.16 223.60,348.92 223.95,349.69 224.30,350.37 224.65,351.16 225.00,352.01 225.35,352.48 225.70,353.15 226.05,353.84 226.40,354.32 226.75,354.86 227.10,355.43 227.45,356.19 227.80,356.86 228.15,357.44 228.50,358.29 228.85,359.06 229.20,359.82 229.55,360.35 229.90,361.01 230.25,361.68 230.60,362.45 230.95,363.19 231.30,363.86 231.65,364.33 232.00,365.25 232.35,365.77 232.70,366.45 233.05,367.03 233.40,367.69 233.75,368.32 234.10,369.18 234.45,369.95 234.80,370.58 235.15,371.34 235.50,372.20 235.85,373.12 236.20,373.79 236.55,374.55 236.90,374.98 237.25,375.65 237.60,376.32 237.95,376.99 238.30,377.75 238.65,378.32 239.00,378.83 239.35,379.50 239.70,380.38 240.05,381.18 240.40,381.94 240.75,382.61 241.10,383.37 241.45,384.14 241.80,384.90 242.15,385.76 242.50,386.52 242.85,387.19 243.20,387.94 243.55,388.42 243.90,389.09 244.25,389.85 244.60,390.30 244.95,390.78 245.30,391.64 245.65,392.24 246.00,392.90 246.35,393.58 246.70,394.35 247.05,395.01 247.40,395.49 247.75,396.09 248.10,395.90 248.45,396.19 248.80,397.05 249.15,397.62 249.50,397.62 249.85,397.81 250.20,397.90 250.55,398.21 250.90,398.69 251.25,399.36 251.60,400.22 251.95,400.89 252.30,401.56 252.65,402.32 253.00,402.99 253.35,403.69 253.70,404.36 254.05,405.00 254.40,405.86 254.75,406.34 255.10,406.82 255.45,406.72 255.80,406.80 256.15,407.37 256.50,407.85 256.85,408.52 257.20,409.28 257.55,409.52 257.90,410.09 258.25,410.76 258.60,411.33 258.95,412.09 259.30,412.95 259.65,413.71 260.00,413.36 260.35,413.55 260.70,413.84 261.05,414.23 261.40,414.87 261.75,415.43 262.10,415.97 262.45,416.64 262.80,417.29 263.15,418.24 263.50,418.62 263.85,419.38 264.20,420.05 264.55,420.72 264.90,421.43 265.25,422.19 265.60,422.76 265.95,423.43 266.30,423.91 266.65,424.67 267.00,425.34 267.35,425.63 267.70,426.29 268.05,426.57 268.40,426.76 268.75,426.85 269.10,426.34 269.45,425.86 269.80,425.29 270.15,424.62 270.50,423.86 270.85,423.60 271.20,423.34 271.55,423.11 271.90,423.01 272.25,423.17 272.60,422.79 272.95,422.97 273.30,423.09 273.65,422.80 274.00,422.23 274.35,422.42 274.70,422.60 275.05,422.79 275.40,422.63 275.75,422.82 276.10,422.87 276.45,422.90 276.80,422.80 277.15,422.51 277.50,422.61 277.85,422.52 278.20,422.83 278.55,423.40 278.90,424.17 279.25,424.93 279.60,425.88 279.95,426.05 280.30,426.21 280.65,426.48 281.00,427.18 281.35,428.04 281.70,428.52 282.05,428.07 282.40,428.83 282.75,429.79 283.10,430.17 283.45,430.43 283.80,431.19 284.15,431.74 284.50,432.60 284.85,433.17 285.20,433.75 285.55,434.06 285.90,434.63 286.25,435.31 286.60,435.89 286.95,436.56 287.30,436.85 287.65,437.52 288.00,437.44 288.35,437.10 288.70,436.72 289.05,435.86 289.40,435.10 289.75,434.71 290.10,434.90 290.45,434.37 290.80,434.46 291.15,434.27 291.50,434.08 291.85,433.60 292.20,433.71 292.55,434.37 292.90,434.75 293.25,435.11 293.60,435.75 293.95,436.20 294.30,436.77 294.65,437.15 295.00,437.43 295.35,437.91 295.70,438.29 296.05,439.15 296.40,439.81 296.75,440.48 297.10,439.91 297.45,439.23 297.80,438.72 298.15,438.12 298.50,437.41 298.85,436.77 299.20,436.11 299.55,436.30 299.90,436.05 300.25,435.76 300.60,435.28 300.95,435.57 301.30,435.32 301.65,434.56 302.00,433.65 302.35,433.08 302.70,432.97 303.05,432.88 303.40,432.83 303.75,432.45 304.10,432.45 304.45,432.00 304.80,431.76 305.15,431.57 305.50,431.53 305.85,430.93 306.20,430.22 306.55,429.67 306.90,428.91 307.25,428.24 307.60,427.65 307.95,426.81 308.30,426.42 308.65,425.94 309.00,425.46 309.35,424.99 309.70,424.51 310.05,423.79 310.40,423.22 310.75,422.47 311.10,421.80 311.45,420.94 311.80,420.24 312.15,419.51 312.50,418.56 312.85,417.80 313.20,417.04 313.55,416.46 313.90,415.70 314.25,415.19 314.60,414.41 314.95,413.65 315.30,412.89 315.65,412.32 316.00,411.66 316.35,411.16 316.70,410.68 317.05,409.92 317.40,409.33 317.75,408.75 318.10,408.08 318.45,407.33 318.80,406.63 319.15,406.29 319.50,405.43 319.85,404.73 320.20,403.96 320.55,403.30 320.90,402.69 321.25,402.03 321.60,401.07 321.95,400.31 322.30,399.75 322.65,398.89 323.00,398.22 323.35,397.57 323.70,397.04 324.05,396.08 324.40,395.13 324.75,394.59 325.10,393.93 325.45,393.16 325.80,392.36 326.15,391.69 326.50,390.93 326.85,390.17 327.20,389.31 327.55,388.70 327.90,387.84 328.25,386.81 328.60,386.04 328.95,385.18 329.30,384.42 329.65,383.93 330.00,383.17 330.35,382.41 330.70,381.63 331.05,380.77 331.40,379.83 331.75,379.35 332.10,378.77 332.45,378.10 332.80,377.34 333.15,376.82 333.50,376.05 333.85,375.29 334.20,374.65 334.55,373.79 334.90,373.13 335.25,372.35 335.60,371.59 335.95,370.82 336.30,370.14 336.65,369.56 337.00,368.74 337.35,367.88 337.70,367.41 338.05,366.83 338.40,366.26 338.75,365.50 339.10,364.74 339.45,364.26 339.80,363.60 340.15,362.95 340.50,362.38 340.85,361.62 341.20,361.01 341.55,360.63 341.90,360.06 342.25,359.53 342.60,358.95 342.95,358.28 343.30,357.52 343.65,356.91 344.00,356.05 344.35,355.10 344.70,354.52 345.05,353.94 345.40,353.27 345.75,352.59 346.10,351.82 346.45,351.16 346.80,350.36 347.15,349.97 347.50,349.21 347.85,348.54 348.20,348.06 348.55,347.73 348.90,347.06 349.25,346.20 349.60,345.54 349.95,344.68 350.30,343.91 350.65,343.16 351.00,342.49 351.35,341.92 351.70,341.06 352.05,340.30 352.40,339.63 352.75,338.87 353.10,338.24 353.45,337.85 353.80,337.57 354.15,337.00 354.50,337.29 354.85,338.12 355.20,338.91 355.55,339.52 355.90,340.00 356.25,340.29 356.60,339.91 356.95,340.13 357.30,340.22 357.65,340.32 358.00,340.22 358.35,340.79 358.70,340.89 359.05,340.93 359.40,340.94 359.75,340.90 360.10,340.61 360.45,340.21 360.80,339.83 361.15,339.83 361.50,339.93 361.85,339.93 362.20,340.10 362.55,339.94 362.90,339.85 363.25,339.75 363.60,339.57 363.95,339.48 364.30,339.48 364.65,339.29 365.00,339.10 365.35,338.96 365.70,338.63 366.05,338.05 366.40,337.29 366.75,336.38 367.10,336.17 367.45,335.59 367.80,335.31 368.15,334.73 368.50,334.07 368.85,333.40 369.20,332.52 369.55,331.66 369.90,330.80 370.25,330.13 370.60,329.18 370.95,328.51 371.30,328.13 371.65,327.75 372.00,327.37 372.35,326.70 372.70,326.03 373.05,325.95 373.40,325.98 373.75,325.98 374.10,326.08 374.45,326.08 374.80,326.05 375.15,325.96 375.50,326.17 375.85,326.38 376.20,326.38 376.55,326.34 376.90,326.43 377.25,326.34 377.60,326.46 377.95,326.08 378.30,325.49 378.65,324.88 379.00,324.59 379.35,323.83 379.70,323.35 380.05,322.87 380.40,322.30 380.75,321.49 381.10,320.65 381.45,319.95 381.80,319.57 382.15,319.29 382.50,319.29 382.85,318.44 383.20,318.02 383.55,317.99 383.90,317.61 384.25,317.61 384.60,316.94 384.95,316.46 385.30,315.70 385.65,315.03 386.00,314.27 386.35,313.79 386.70,312.93 387.05,312.36 387.40,311.88 387.75,311.02 388.10,310.35 388.45,309.69 388.80,308.75 389.15,308.08 389.50,307.58 389.85,306.91 390.20,306.15 390.55,305.38 390.90,304.65 391.25,304.27 391.60,303.70 391.95,303.14 392.30,302.34 392.65,301.86 393.00,301.25 393.35,300.40 393.70,299.64 394.05,298.87 394.40,298.30 394.75,297.70 395.10,297.27 395.45,296.52 395.80,296.23 396.15,295.28 396.50,294.57 396.85,293.85 397.20,293.09 397.55,292.32 397.90,291.74 398.25,291.26 398.60,290.78 398.95,290.02 399.30,289.98 399.65,289.94 400.00,289.82 400.35,289.45 400.70,288.68 401.05,287.82 401.40,287.12 401.75,286.64 402.10,286.70 402.45,286.60 402.80,286.91 403.15,287.10 403.50,286.81 403.85,286.53 404.20,285.86 404.55,285.29 404.90,285.29 405.25,285.43 405.60,285.23 405.95,285.04 406.30,284.56 406.65,283.70 407.00,283.22 407.35,283.13 407.70,283.80 408.05,284.06 408.40,284.01 408.75,284.08 409.10,284.30 409.45,284.24 409.80,284.05 410.15,284.00 410.50,284.15 410.85,283.88 411.20,283.88 411.55,284.38 411.90,284.27 412.25,284.18 412.60,284.18 412.95,284.10 413.30,284.14 413.65,284.29 414.00,284.19 414.35,284.21 414.70,284.02 415.05,284.49 415.40,283.92 415.75,283.16 416.10,282.68 416.45,282.01 416.80,281.44 417.15,280.58 417.50,280.20 417.85,279.59 418.20,278.96 418.55,278.39 418.90,277.81 419.25,277.05 419.60,276.19 419.95,275.52 420.30,274.66 420.65,273.90 421.00,273.14 421.35,272.47 421.70,271.84 422.05,271.08 422.40,270.50 422.75,269.74 423.10,268.95 423.45,268.14 423.80,267.76 424.15,267.09 424.50,266.32 424.85,265.47 425.20,264.80 425.55,264.13 425.90,263.27 426.25,262.49 426.60,261.91 426.95,261.33 427.30,260.57 427.65,259.81 428.00,259.04 428.35,258.35 428.70,257.78 429.05,257.12 429.40,256.35 429.75,255.69 430.10,254.92 430.45,254.35 430.80,253.97 431.15,253.39 431.50,252.62 431.85,251.95 432.20,251.36 432.55,250.69 432.90,250.22 433.25,249.36 433.60,248.69 433.95,248.31 434.30,247.45 434.65,246.88 435.00,246.11 435.35,245.35 435.70,244.78 436.05,244.24 436.40,243.48 436.75,242.62 437.10,241.86 437.45,241.38 437.80,240.60 438.15,239.84 438.50,239.07 438.85,238.40 439.20,237.71 439.55,237.13 439.90,236.37 440.25,235.63 440.60,235.05 440.95,234.39 441.30,233.72 441.65,233.05 442.00,232.38 442.35,231.75 442.70,231.03 443.05,230.46 443.40,229.84 443.75,229.18 444.10,228.79 444.45,228.20 444.80,227.34 445.15,226.77 445.50,225.82 445.85,225.15 446.20,224.39 446.55,223.91 446.90,223.34 447.25,222.88 447.60,222.29 447.95,221.52 448.30,220.76 448.65,220.04 449.00,219.28 449.35,218.69 449.70,218.12 450.05,217.55 450.40,216.89 450.75,216.03 451.10,215.38 451.45,214.71 451.80,214.23 452.15,213.66 452.50,212.80 452.85,211.85 453.20,211.08 453.55,210.31 453.90,209.66 454.25,208.94 454.60,208.08 454.95,207.70 455.30,207.03 455.65,206.46 456.00,205.98 456.35,205.12 456.70,204.63 457.05,203.87 457.40,203.20 457.75,202.53 458.10,201.87 458.45,201.01 458.80,200.53 459.15,199.96 459.50,199.10 459.85,198.43 460.20,197.76 460.55,197.01 460.90,196.25 461.25,195.86 461.60,195.33 461.95,194.76 462.30,193.91 462.65,193.05 463.00,192.48 463.35,192.00 463.70,191.34 464.05,190.77 464.40,190.01 464.75,189.28 465.10,188.52 465.45,187.85 465.80,187.28 466.15,186.55 466.50,186.10 466.85,186.20 467.20,186.02 467.55,186.04 467.90,186.21 468.25,185.54 468.60,185.86 468.95,185.48 469.30,185.47 469.65,185.28 470.00,184.79 470.35,184.37 470.70,183.99 471.05,183.80 471.40,184.24 471.75,184.43 472.10,184.53 472.45,184.06 472.80,184.36 473.15,184.83 473.50,185.60 473.85,186.26 474.20,186.78 474.55,187.54 474.90,188.12 475.25,188.12 475.60,188.21 475.95,187.83 476.30,187.92 476.65,187.83 477.00,187.67 477.35,187.67 477.70,187.00 478.05,186.33 478.40,185.99 478.75,186.10 479.10,185.99 479.45,185.51 479.80,185.32 480.15,185.32 480.50,185.61 480.85,185.51 481.20,185.04 481.55,185.04 481.90,184.66 482.25,184.56 482.60,184.34 482.95,184.43 483.30,184.15 483.65,184.35 484.00,184.35 484.35,184.35 484.70,184.53 485.05,184.60 485.40,184.51 485.75,184.41 486.10,184.22 486.45,183.85 486.80,184.04 487.15,184.21 487.50,184.24 487.85,184.53 488.20,184.15 488.55,183.86 488.90,183.48 489.25,182.81 489.60,182.33 489.95,181.76 490.30,181.76 490.65,181.19 491.00,180.62 491.35,180.52 491.70,180.35 492.05,180.29 492.40,180.39 492.75,180.43 493.10,181.08 493.45,181.85 493.80,182.23 494.15,182.12 494.50,182.03 494.85,182.00 495.20,182.62 495.55,182.91 495.90,183.67 496.25,184.34 496.60,185.00 496.95,185.85 497.30,186.66 497.65,187.13 498.00,187.90 498.35,188.74 498.70,189.50 499.05,190.45 499.40,191.22 499.75,191.62 500.10,192.38 500.45,192.36 500.80,192.93 501.15,193.70 501.50,194.37 501.85,194.94 502.20,195.84 502.55,196.42 502.90,196.70 503.25,197.56 503.60,198.23 503.95,198.90 504.30,199.57 504.65,200.26 505.00,201.03 505.35,201.79 505.70,202.55 506.05,203.41 506.40,204.27 506.75,205.05 507.10,205.88 507.45,206.54 507.80,207.31 508.15,208.07 508.50,208.61 508.85,209.28 509.20,210.04 509.55,210.68 509.90,211.32 510.25,212.09 510.60,212.54 510.95,213.36 511.30,214.21 511.65,214.86 512.00,215.63 512.35,216.39 512.70,217.06 513.05,217.74 513.40,218.40 513.75,219.17 514.10,219.83 514.45,220.69 514.80,221.17 515.15,221.85 515.50,222.13 515.85,222.80 516.20,223.57 516.55,224.33 516.90,224.90 517.25,225.86 517.60,226.60 517.95,227.29 518.30,228.05 518.65,228.75 519.00,229.40 519.35,229.84 519.70,230.61 520.05,231.18 520.40,231.64 520.75,232.40 521.10,233.36 521.45,234.12 521.80,234.98 522.15,235.52 522.50,236.29 522.85,236.95 523.20,237.72 523.55,238.48 523.90,239.15 524.25,239.91 524.60,240.73 524.95,241.30 525.30,241.71 525.65,242.54 526.00,243.20 526.35,243.87 526.70,244.35 527.05,244.50 527.40,244.82 527.75,245.20 528.10,245.87 528.45,246.44 528.80,247.01 529.15,247.58 529.50,248.16 529.85,248.16 530.20,248.30 530.55,248.19 530.90,248.50 531.25,248.21 531.60,248.50 531.95,248.90 532.30,249.09 532.65,248.93 533.00,249.04 533.35,249.01 533.70,248.93 534.05,249.02 534.40,249.22 534.75,249.01 535.10,248.91 535.45,248.53 535.80,248.24 536.15,248.24 536.50,248.34 536.85,247.96 537.20,247.96 537.55,248.28 537.90,248.18 538.25,248.18 538.60,247.99 538.95,248.47 539.30,249.23 539.65,249.95 540.00,250.52 540.35,251.17 540.70,251.84 541.05,252.17 541.40,252.35 541.75,252.48 542.10,252.67 542.45,252.50 542.80,252.35 543.15,252.15 543.50,252.18 543.85,252.18 544.20,252.10 544.55,252.31 544.90,252.16 545.25,252.56 545.60,252.47 545.95,252.61 546.30,252.64 546.65,252.35 547.00,252.26 547.35,251.82 547.70,251.13 548.05,250.85 548.40,250.57 548.75,250.63 549.10,250.86 549.45,250.67 549.80,250.72 550.15,250.82 550.50,251.20 550.85,250.82 551.20,250.82 551.55,250.80 551.90,250.63 552.25,249.67 552.60,248.91 552.95,248.86 553.30,248.58 553.65,248.69 554.00,248.31 554.35,248.31 554.70,249.01 555.05,249.59 555.40,250.19 555.75,251.05 556.10,251.71 556.45,252.47 556.80,252.95 557.15,253.42 557.50,253.52 557.85,253.61 558.20,253.52 558.55,253.42 558.90,253.14 559.25,252.97 559.60,253.16 559.95,253.04 560.30,253.34 560.65,253.23 561.00,253.42 561.35,253.04 561.70,253.27 562.05,253.06 562.40,252.97 562.75,253.20 563.10,252.97 563.45,252.68 563.80,252.45 564.15,252.61 564.50,253.09 564.85,253.42 565.20,253.71 565.55,254.08 565.90,253.89 566.25,253.60 566.60,253.51 566.95,253.44 567.30,253.68 567.65,253.63 568.00,253.68 568.35,253.79 568.70,253.50 569.05,253.60 569.40,253.74 569.75,253.55 570.10,253.45 570.45,253.36 570.80,253.64 571.15,253.95 571.50,254.14 571.85,254.23 572.20,254.48 572.55,255.15 572.90,255.82 573.25,256.68 573.60,257.15 573.95,257.73 574.30,258.30 574.65,258.68 575.00,259.54 575.35,260.40 575.70,261.07 576.05,261.73 576.40,262.50 576.75,262.88 577.10,263.26 577.45,263.93 577.80,264.31 578.15,264.93 578.50,265.65 578.85,266.41 579.20,267.16 579.55,267.95 579.90,268.42 580.25,269.00 580.60,269.57 580.95,269.95 581.30,270.62 581.65,271.31 582.00,271.87 582.35,272.54 582.70,273.30 583.05,273.87 583.40,274.73 583.75,275.40 584.10,276.16 584.45,276.83 584.80,277.54 585.15,278.30 585.50,279.06 585.85,279.83 586.20,280.69 586.55,281.26 586.90,281.83 587.25,282.69 587.60,283.36 587.95,283.93 588.30,284.88 588.65,285.65 589.00,286.07 589.35,286.83 589.70,287.21 590.05,287.91 590.40,288.39 590.75,289.05 591.10,289.82 591.45,290.68 591.80,291.51 592.15,291.70 592.50,291.98 592.85,291.76 593.20,292.14 593.55,291.77 593.90,291.18 594.25,290.84 594.60,290.90 594.95,291.18 595.30,291.28 595.65,291.29 596.00,291.48 596.35,291.19 596.70,290.94 597.05,290.87 597.40,290.39 597.75,290.10 598.10,290.23 598.45,290.17 598.80,290.23 599.15,290.04 599.50,289.98 599.85,290.26 600.20,289.83 600.55,289.26 600.90,288.48 601.25,287.99 601.60,287.22 601.95,286.36 602.30,285.79 602.65,284.96 603.00,284.24 603.35,283.76 603.70,283.09 604.05,282.42 604.40,281.68 604.75,280.92 605.10,280.25 605.45,279.68 605.80,279.21 606.15,278.35 606.50,277.68 606.85,276.97 607.20,276.31 607.55,275.64 607.90,275.16 608.25,274.40 608.60,273.72 608.95,272.78 609.30,272.20 609.65,271.82 610.00,270.87 610.35,270.10 610.70,269.44 611.05,268.48 611.40,267.72 611.75,267.22 612.10,266.69 612.45,265.87 612.80,265.20 613.15,264.44 613.50,263.86 613.85,263.10 614.20,262.43 614.55,261.76 614.90,261.10 615.25,260.18 615.60,259.23 615.95,258.65 616.30,257.79 616.65,257.14 617.00,256.28 617.35,255.61 617.70,254.82 618.05,254.05 618.40,253.29 618.75,252.69 619.10,252.02 619.45,251.16 619.80,250.58 620.15,250.56 620.50,250.56 620.85,250.47 621.20,249.99 621.55,249.27 621.90,248.76 622.25,247.99 622.60,247.35 622.95,246.50 623.30,245.83 623.65,245.40 624.00,244.64 624.35,243.87 624.70,243.34 625.05,242.96 625.40,242.40 625.75,241.54 626.10,240.78 626.45,240.02 626.80,239.25 627.15,238.49 627.50,237.82 627.85,237.06 628.20,236.39 628.55,235.78 628.90,235.14 629.25,234.28 629.60,233.61 629.95,232.75 630.30,232.28 630.65,231.42 631.00,230.85 631.35,230.09 631.70,229.52 632.05,228.81 632.40,228.19 632.75,227.52 633.10,226.95 633.45,225.92 633.80,225.06 634.15,224.49 634.50,224.01 634.85,223.25 635.20,222.77 635.55,221.91 635.90,221.06 636.25,220.20 636.60,219.43 636.95,218.77 637.30,218.00 637.65,217.05 638.00,216.48 638.35,216.03 638.70,215.32 639.05,214.48 639.40,213.62 639.75,212.95 640.10,212.45 640.45,211.97 640.80,211.30 641.15,210.54 641.50,209.87 641.85,209.20 642.20,208.44 642.55,207.77 642.90,207.13 643.25,206.45 643.60,205.68 643.95,204.73 644.30,203.77 644.65,203.19 645.00,202.60 645.35,201.84 645.70,201.46 646.05,200.88 646.40,200.12 646.75,199.55 647.10,198.97 647.45,198.21 647.80,197.54 648.15,196.68 648.50,196.08 648.85,195.40 649.20,194.63 649.55,193.93 649.90,193.42 650.25,192.66 650.60,191.99 650.95,191.32 651.30,190.56 651.65,189.79 652.00,188.96 652.35,188.17 652.70,187.31 653.05,186.65 653.40,185.79 653.75,185.02 654.10,184.61 654.45,184.04 654.80,183.64 655.15,182.83 655.50,182.26 655.85,181.40 656.20,180.83 656.55,180.16 656.90,179.58 657.25,178.86 657.60,178.13 657.95,177.39 658.30,176.91 658.65,176.24 659.00,175.67 659.35,174.91 659.70,174.31 660.05,173.74 660.40,173.18 660.75,172.23 661.10,171.66 661.45,170.97 661.80,170.29 662.15,169.72 662.50,169.05 662.85,168.29 663.20,167.62 663.55,167.33 663.90,166.47 664.25,165.64 664.60,165.19 664.95,164.55 665.30,164.35 665.65,163.88 666.00,162.96 666.35,162.38 666.70,161.62 667.05,161.05 667.40,160.10 667.75,159.38 668.10,158.76 668.45,158.00 668.80,157.24 669.15,156.28 669.50,155.52 669.85,154.56 670.20,153.99 670.55,153.23 670.90,152.38 671.25,151.62 671.60,150.76 671.95,149.90 672.30,149.42 672.65,148.66 673.00,147.80 673.35,147.13 673.70,146.18 674.05,145.89 674.40,145.03 674.75,144.34 675.10,143.58 675.45,142.79 675.80,142.03 676.15,141.55 676.50,141.06 676.85,140.30 677.20,139.78 677.55,138.92 677.90,138.28 678.25,137.55 678.60,136.88 678.95,136.21 679.30,135.52 679.65,135.04 680.00,134.18 680.35,133.51 680.70,132.94 681.05,132.18 681.40,131.61 681.75,130.94 682.10,130.37 682.45,129.70 682.80,129.22 683.15,128.55 683.50,127.74 683.85,126.88 684.20,126.21 684.55,125.68 684.90,125.01 685.25,124.34 685.60,123.49 685.95,122.81 686.30,122.04 686.65,121.47 687.00,120.71 687.35,120.03 687.70,119.27 688.05,118.32 688.40,117.75 688.75,116.99 689.10,116.54 689.45,115.89 689.80,115.32 690.15,114.65 690.50,114.27 690.85,113.60 691.20,113.08 691.55,112.42 691.90,111.84 692.25,111.65 692.60,111.65 692.95,111.65 693.30,111.75 693.65,111.47 694.00,111.57 694.35,111.95 694.70,112.17 695.05,111.65 695.40,111.27 695.75,111.21 696.10,111.40 696.45,110.83 696.80,110.63 697.15,110.44 697.50,110.63 697.85,110.23 698.20,109.66 698.55,109.09 698.90,108.99 699.25,108.51 699.60,108.51 699.95,108.89 700.30,109.31 700.65,110.05 701.00,109.68 701.35,109.39 701.70,109.40 702.05,109.31 702.40,108.92 702.75,108.06 703.10,107.49 703.45,106.92 703.80,106.07 704.15,105.40 704.50,104.73 704.85,104.12 705.20,103.54 705.55,102.93 705.90,102.45 706.25,101.72 706.60,101.27 706.95,101.37 707.30,101.37 707.65,101.46 708.00,101.84 708.35,101.92 708.70,102.52 709.05,102.62 709.40,102.71 709.75,102.96 710.10,103.31 710.45,103.42 710.80,103.53 711.15,103.34 711.50,103.06 711.85,102.78 712.20,103.16 712.55,103.63 712.90,103.25 713.25,103.72 713.60,104.01 713.95,104.07 714.30,104.54 714.65,104.74 715.00,104.84 715.35,104.84 715.70,104.21 716.05,103.64 716.40,103.64 716.75,103.80 717.10,103.67 717.45,103.62 717.80,103.71 718.15,103.62 718.50,103.18 718.85,102.42 719.20,101.67 719.55,101.19 719.90,100.42 720.25,99.69 720.60,99.21 720.95,99.69 721.30,100.26 721.65,100.31 722.00,100.31 722.35,100.59 722.70,100.83 723.05,100.83 723.40,101.38 723.75,101.78 724.10,101.49 724.45,100.92 724.80,100.71 725.15,100.53 725.50,100.86 725.85,100.29 726.20,100.40 726.55,100.47 726.90,99.90 727.25,99.23 727.60,98.66 727.95,97.99 728.30,97.22 728.65,96.75 729.00,96.17 729.35,95.65 729.70,94.70 730.05,94.02 730.40,93.35 730.75,92.68 731.10,92.09 731.45,91.71 731.80,90.95 732.15,90.37 732.50,89.90 732.85,89.32 733.20,88.66 733.55,88.69 733.90,88.12 734.25,87.26 734.60,86.79 734.95,86.02 735.30,85.64 735.65,85.16 736.00,84.69 736.35,84.35 736.70,83.87 737.05,83.26 737.40,82.82 737.75,82.19 738.10,81.61 738.45,81.33 738.80,80.85 739.15,79.99 739.50,79.23 739.85,78.46 740.20,77.99 740.55,78.08 740.90,78.08 741.25,78.65 741.60,78.69 741.95,78.89 742.30,78.43 742.65,78.58 743.00,79.25 743.35,79.82 743.70,80.58 744.05,81.25 744.40,81.73 744.75,82.40 745.10,83.16 745.45,84.02 745.80,84.69 746.15,85.45 746.50,85.86 746.85,85.67 747.20,84.83 747.55,84.92 747.90,85.50 748.25,85.73 748.60,86.58 748.95,86.16 749.30,85.37 749.65,84.78 750.00,84.11 750.35,83.26 750.70,82.63 751.05,82.25 751.40,81.78 751.75,81.11 752.10,80.82 752.45,80.44 752.80,79.96 753.15,79.20 753.50,78.78 753.85,78.87 754.20,79.64 754.55,79.64 754.90,80.11 755.25,80.69 755.60,81.43 755.95,82.24 756.30,82.91 756.65,83.67 757.00,84.34 757.35,84.82 757.70,85.04 758.05,85.61 758.40,85.99 758.75,86.57 759.10,86.37 759.45,85.51 759.80,85.31 760.15,85.50 760.50,85.59 760.85,85.39 761.20,85.66 761.55,86.23 761.90,85.95 762.25,85.20 762.60,84.56 762.95,84.18 763.30,84.53 763.65,84.53 764.00,85.11 764.35,85.45 764.70,86.02 765.05,86.40 765.40,86.80 765.75,87.28 766.10,87.55 766.45,87.07 766.80,86.21 767.15,85.59 767.50,84.97 767.85,84.21 768.20,84.04 768.55,84.23 768.90,85.09 769.25,85.85 769.60,85.83 769.95,86.31 770.30,86.94 770.65,87.61 771.00,87.98 771.35,88.74 771.70,89.24 772.05,89.81 772.40,90.10 772.75,90.10 773.10,90.67 773.45,91.14 773.80,91.33 774.15,91.65 774.50,92.42 774.85,92.62 775.20,92.90 775.55,93.46 775.90,93.57 776.25,93.82 776.60,94.18 776.95,93.70 777.30,93.23 777.65,92.37 778.00,91.70 778.35,91.03 778.70,90.84 779.05,91.13 779.40,91.60 779.75,91.53 780.10,92.10 780.45,92.29 780.80,92.66 781.15,92.76 781.50,93.20 781.85,93.15 782.20,93.49 782.55,93.88 782.90,94.45 783.25,94.64 783.60,95.10 783.95,95.57 784.30,95.72 784.65,95.81 785.00,96.44 785.00,262.35"/>
<line x1="813" y1="102" x2="839" y2="102" stroke="#059669" stroke-width="3"/>
<text x="847" y="106" font-family="Arial" font-size="13" fill="#111827">trending</text>
<text x="435.0" y="518" text-anchor="middle" font-family="Arial" font-size="14" fill="#111827">Event index</text>
<text x="22" y="256.0" text-anchor="middle" transform="rotate(-90 22 256.0)" font-family="Arial" font-size="14" fill="#111827">Inventory</text>
</svg>
