<svg xmlns="http://www.w3.org/2000/svg" width="940" height="540" viewBox="0 0 940 540">
<rect width="100%" height="100%" fill="#ffffff"/>
<text x="470.0" y="26" text-anchor="middle" font-family="Arial" font-size="18" fill="#111827">Naive Cumulative PnL After Fees By Regime</text>
<line x1="85" y1="470" x2="785" y2="470" stroke="#111827" stroke-width="1"/>
<line x1="85" y1="42" x2="85" y2="470" stroke="#111827" stroke-width="1"/>
<line x1="85.00" y1="42" x2="85.00" y2="470" stroke="#e5e7eb" stroke-width="1"/>
<text x="85.00" y="494" text-anchor="middle" font-family="Arial" font-size="12" fill="#374151">0</text>
<line x1="260.00" y1="42" x2="260.00" y2="470" stroke="#e5e7eb" stroke-width="1"/>
<text x="260.00" y="494" text-anchor="middle" font-family="Arial" font-size="12" fill="#374151">50000</text>
<line x1="435.00" y1="42" x2="435.00" y2="470" stroke="#e5e7eb" stroke-width="1"/>
<text x="435.00" y="494" text-anchor="middle" font-family="Arial" font-size="12" fill="#374151">100000</text>
<line x1="610.00" y1="42" x2="610.00" y2="470" stroke="#e5e7eb" stroke-width="1"/>
<text x="610.00" y="494" text-anchor="middle" font-family="Arial" font-size="12" fill="#374151">150000</text>
<line x1="785.00" y1="42" x2="785.00" y2="470" stroke="#e5e7eb" stroke-width="1"/>
<text x="785.00" y="494" text-anchor="middle" font-family="Arial" font-size="12" fill="#374151">200000</text>
<line x1="85" y1="470.00" x2="785" y2="470.00" stroke="#e5e7eb" stroke-width="1"/>
<text x="73" y="474.00" text-anchor="end" font-family="Arial" font-size="12" fill="#374151">-2537012</text>
<line x1="85" y1="363.00" x2="785" y2="363.00" stroke="#e5e7eb" stroke-width="1"/>
<text x="73" y="367.00" text-anchor="end" font-family="Arial" font-size="12" fill="#374151">657393</text>
<line x1="85" y1="256.00" x2="785" y2="256.00" stroke="#e5e7eb" stroke-width="1"/>
<text x="73" y="260.00" text-anchor="end" font-family="Arial" font-size="12" fill="#374151">3851797</text>
<line x1="85" y1="149.00" x2="785" y2="149.00" stroke="#e5e7eb" stroke-width="1"/>
<text x="73" y="153.00" text-anchor="end" font-family="Arial" font-size="12" fill="#374151">7046201</text>
<line x1="85" y1="42.00" x2="785" y2="42.00" stroke="#e5e7eb" stroke-width="1"/>
<text x="73" y="46.00" text-anchor="end" font-family="Arial" font-size="12" fill="#374151">10240605</text>
<polyline fill="none" stroke="#2563eb" stroke-width="2" points="85.00,385.02 85.35,385.00 85.70,384.97 86.05,384.95 86.40,384.93 86.75,384.91 87.10,384.88 87.45,384.85 87.80,384.82 88.15,384.79 88.50,384.77 88.85,384.75 89.20,384.73 89.55,384.71 89.90,384.68 90.25,384.62 90.60,384.60 90.95,384.57 91.30,384.52 91.65,384.48 92.00,384.49 92.35,384.45 92.70,384.44 93.05,384.44 93.40,384.44 93.75,384.42 94.10,384.38 94.45,384.41 94.80,384.38 95.15,384.35 95.50,384.35 95.85,384.32 96.20,384.24 96.55,384.25 96.90,384.21 97.25,384.15 97.60,384.21 97.95,384.22 98.30,384.20 98.65,384.18 99.00,384.19 99.35,384.17 99.70,384.14 100.05,384.13 100.40,384.09 100.75,384.12 101.10,384.02 101.45,384.06 101.80,384.02 102.15,384.00 102.50,383.92 102.85,383.89 103.20,383.92 103.55,383.92 103.90,383.89 104.25,383.82 104.60,383.87 104.95,383.82 105.30,383.85 105.65,383.89 106.00,383.89 106.35,383.88 106.70,383.88 107.05,383.84 107.40,383.85 107.75,383.81 108.10,383.75 108.45,383.79 108.80,383.83 109.15,383.83 109.50,383.82 109.85,383.82 110.20,383.80 110.55,383.78 110.90,383.75 111.25,383.73 111.60,383.69 111.95,383.69 112.30,383.65 112.65,383.63 113.00,383.60 113.35,383.58 113.70,383.55 114.05,383.54 114.40,383.51 114.75,383.49 115.10,383.48 115.45,383.45 115.80,383.43 116.15,383.40 116.50,383.38 116.85,383.36 117.20,383.32 117.55,383.30 117.90,383.29 118.25,383.27 118.60,383.25 118.95,383.25 119.30,383.25 119.65,383.23 120.00,383.23 120.35,383.19 120.70,383.18 121.05,383.18 121.40,383.28 121.75,383.23 122.10,383.24 122.45,383.16 122.80,383.18 123.15,383.19 123.50,383.10 123.85,383.04 124.20,382.96 124.55,382.98 124.90,382.96 125.25,382.95 125.60,382.90 125.95,382.90 126.30,382.97 126.65,383.00 127.00,382.96 127.35,382.95 127.70,382.92 128.05,383.01 128.40,382.95 128.75,382.95 129.10,382.94 129.45,382.89 129.80,382.88 130.15,382.87 130.50,382.80 130.85,382.76 131.20,382.72 131.55,382.71 131.90,382.72 132.25,382.87 132.60,382.76 132.95,382.74 133.30,382.60 133.65,382.65 134.00,382.64 134.35,382.70 134.70,382.72 135.05,382.77 135.40,382.63 135.75,382.59 136.10,382.64 136.45,382.66 136.80,382.55 137.15,382.45 137.50,382.41 137.85,382.49 138.20,382.41 138.55,382.28 138.90,382.30 139.25,382.23 139.60,382.03 139.95,381.91 140.30,381.82 140.65,381.69 141.00,381.82 141.35,381.83 141.70,381.82 142.05,381.62 142.40,381.56 142.75,381.61 143.10,381.45 143.45,381.56 143.80,381.53 144.15,381.58 144.50,381.56 144.85,381.48 145.20,381.28 145.55,381.21 145.90,381.08 146.25,380.99 146.60,381.05 146.95,381.02 147.30,380.96 147.65,381.17 148.00,381.17 148.35,381.13 148.70,381.39 149.05,381.37 149.40,381.33 149.75,381.20 150.10,381.45 150.45,381.31 150.80,381.16 151.15,380.96 151.50,380.87 151.85,380.70 152.20,380.42 152.55,380.53 152.90,380.55 153.25,380.65 153.60,380.65 153.95,380.78 154.30,380.54 154.65,380.45 155.00,380.51 155.35,380.55 155.70,380.72 156.05,380.75 156.40,381.05 156.75,380.75 157.10,380.66 157.45,380.60 157.80,380.74 158.15,380.83 158.50,380.60 158.85,380.69 159.20,380.20 159.55,380.27 159.90,380.16 160.25,380.14 160.60,380.39 160.95,380.30 161.30,380.20 161.65,380.04 162.00,380.09 162.35,380.30 162.70,380.21 163.05,380.27 163.40,380.07 163.75,380.04 164.10,379.69 164.45,379.53 164.80,379.80 165.15,379.89 165.50,379.68 165.85,379.79 166.20,379.75 166.55,379.53 166.90,379.34 167.25,379.17 167.60,379.29 167.95,379.81 168.30,379.73 168.65,379.94 169.00,379.98 169.35,380.24 169.70,379.98 170.05,380.14 170.40,380.08 170.75,379.56 171.10,379.24 171.45,379.47 171.80,379.26 172.15,379.06 172.50,379.36 172.85,379.65 173.20,379.94 173.55,379.83 173.90,379.55 174.25,379.24 174.60,379.05 174.95,379.26 175.30,379.27 175.65,379.29 176.00,379.33 176.35,379.38 176.70,379.51 177.05,379.40 177.40,379.15 177.75,379.03 178.10,378.89 178.45,378.97 178.80,378.94 179.15,378.39 179.50,378.84 179.85,378.76 180.20,378.68 180.55,378.61 180.90,378.75 181.25,379.05 181.60,378.69 181.95,379.01 182.30,378.83 182.65,378.52 183.00,378.35 183.35,378.05 183.70,377.75 184.05,377.30 184.40,377.10 184.75,377.32 185.10,377.81 185.45,377.62 185.80,377.37 186.15,377.40 186.50,377.51 186.85,377.47 187.20,378.02 187.55,377.79 187.90,377.51 188.25,377.56 188.60,377.28 188.95,376.86 189.30,376.67 189.65,376.49 190.00,376.26 190.35,376.63 190.70,376.87 191.05,377.19 191.40,377.29 191.75,376.97 192.10,377.33 192.45,376.61 192.80,376.67 193.15,376.11 193.50,375.09 193.85,375.44 194.20,375.63 194.55,375.16 194.90,374.37 195.25,373.22 195.60,373.16 195.95,373.82 196.30,373.55 196.65,374.42 197.00,375.50 197.35,374.72 197.70,375.29 198.05,374.20 198.40,375.22 198.75,374.84 199.10,374.57 199.45,374.74 199.80,374.40 200.15,373.00 200.50,371.63 200.85,370.58 201.20,369.27 201.55,368.83 201.90,369.55 202.25,370.26 202.60,369.40 202.95,369.18 203.30,370.22 203.65,369.55 204.00,370.42 204.35,371.51 204.70,372.04 205.05,371.02 205.40,370.65 205.75,369.96 206.10,370.71 206.45,370.89 206.80,370.22 207.15,370.10 207.50,370.13 207.85,370.57 208.20,371.02 208.55,371.92 208.90,372.64 209.25,373.19 209.60,371.48 209.95,370.34 210.30,370.08 210.65,370.55 211.00,370.31 211.35,371.31 211.70,373.39 212.05,373.56 212.40,374.92 212.75,374.80 213.10,375.58 213.45,376.72 213.80,375.62 214.15,375.12 214.50,376.56 214.85,377.58 215.20,379.55 215.55,379.96 215.90,380.44 216.25,380.58 216.60,381.05 216.95,379.91 217.30,380.26 217.65,381.60 218.00,381.50 218.35,380.80 218.70,381.04 219.05,381.58 219.40,380.85 219.75,381.75 220.10,381.01 220.45,382.78 220.80,382.28 221.15,381.53 221.50,381.97 221.85,382.49 222.20,381.42 222.55,382.91 222.90,382.18 223.25,382.07 223.60,381.32 223.95,380.39 224.30,381.10 224.65,380.01 225.00,380.25 225.35,380.86 225.70,380.92 226.05,380.62 226.40,379.64 226.75,380.53 227.10,380.06 227.45,380.21 227.80,379.78 228.15,380.56 228.50,379.39 228.85,379.03 229.20,380.14 229.55,380.59 229.90,380.80 230.25,380.54 230.60,379.86 230.95,379.59 231.30,378.71 231.65,378.54 232.00,376.34 232.35,377.09 232.70,377.03 233.05,377.31 233.40,375.09 233.75,374.52 234.10,373.44 234.45,373.17 234.80,372.93 235.15,373.11 235.50,374.91 235.85,374.66 236.20,373.70 236.55,373.90 236.90,375.74 237.25,374.71 237.60,373.75 237.95,374.62 238.30,375.57 238.65,374.78 239.00,374.00 239.35,375.08 239.70,376.03 240.05,375.14 240.40,374.32 240.75,375.20 241.10,372.88 241.45,372.25 241.80,373.00 242.15,371.55 242.50,372.37 242.85,373.87 243.20,373.39 243.55,371.98 243.90,370.94 244.25,370.86 244.60,372.30 244.95,372.62 245.30,371.30 245.65,371.18 246.00,371.84 246.35,371.76 246.70,371.13 247.05,372.09 247.40,372.13 247.75,371.59 248.10,372.69 248.45,371.43 248.80,370.33 249.15,371.59 249.50,371.75 249.85,370.87 250.20,371.75 250.55,373.15 250.90,373.31 251.25,371.50 251.60,371.03 251.95,372.16 252.30,371.74 252.65,372.73 253.00,373.27 253.35,374.25 253.70,375.93 254.05,376.47 254.40,375.54 254.75,374.71 255.10,376.09 255.45,376.19 255.80,376.23 256.15,376.56 256.50,376.93 256.85,375.77 257.20,372.65 257.55,373.10 257.90,371.88 258.25,373.43 258.60,371.92 258.95,370.37 259.30,370.29 259.65,369.14 260.00,368.48 260.35,368.87 260.70,369.15 261.05,368.53 261.40,370.24 261.75,369.49 262.10,366.94 262.45,365.35 262.80,365.85 263.15,365.82 263.50,363.56 263.85,361.98 264.20,361.05 264.55,361.10 264.90,360.77 265.25,362.39 265.60,363.25 265.95,361.55 266.30,361.79 266.65,360.08 267.00,358.75 267.35,358.64 267.70,357.86 268.05,357.98 268.40,360.04 268.75,360.49 269.10,360.44 269.45,361.29 269.80,360.95 270.15,359.66 270.50,357.12 270.85,356.54 271.20,356.39 271.55,355.27 271.90,352.64 272.25,352.94 272.60,352.97 272.95,355.16 273.30,352.86 273.65,352.58 274.00,352.03 274.35,353.12 274.70,357.14 275.05,355.84 275.40,359.04 275.75,357.72 276.10,355.52 276.45,353.00 276.80,354.76 277.15,357.57 277.50,356.37 277.85,357.50 278.20,357.56 278.55,361.47 278.90,361.54 279.25,359.21 279.60,356.90 279.95,356.50 280.30,357.60 280.65,355.92 281.00,355.35 281.35,353.74 281.70,353.72 282.05,354.40 282.40,357.82 282.75,361.97 283.10,363.42 283.45,361.51 283.80,361.35 284.15,359.65 284.50,360.65 284.85,358.50 285.20,359.06 285.55,359.64 285.90,360.21 286.25,359.48 286.60,358.08 286.95,358.84 287.30,361.09 287.65,359.96 288.00,365.27 288.35,364.87 288.70,365.28 289.05,365.91 289.40,364.90 289.75,365.09 290.10,364.10 290.45,360.53 290.80,361.75 291.15,364.08 291.50,364.21 291.85,364.56 292.20,364.33 292.55,362.63 292.90,362.63 293.25,365.92 293.60,365.80 293.95,367.38 294.30,370.98 294.65,369.81 295.00,367.53 295.35,368.58 295.70,367.15 296.05,368.10 296.40,369.96 296.75,371.65 297.10,374.62 297.45,376.29 297.80,377.72 298.15,375.09 298.50,372.89 298.85,374.36 299.20,373.75 299.55,372.18 299.90,372.14 300.25,373.79 300.60,376.35 300.95,378.22 301.30,379.37 301.65,377.44 302.00,375.12 302.35,373.64 302.70,371.75 303.05,373.20 303.40,375.69 303.75,374.20 304.10,373.76 304.45,369.21 304.80,370.75 305.15,371.25 305.50,370.12 305.85,371.56 306.20,374.41 306.55,376.94 306.90,374.64 307.25,374.34 307.60,375.91 307.95,378.25 308.30,376.64 308.65,374.62 309.00,374.71 309.35,373.10 309.70,368.09 310.05,371.66 310.40,372.79 310.75,372.95 311.10,374.08 311.45,372.40 311.80,372.97 312.15,371.74 312.50,373.67 312.85,372.92 313.20,372.21 313.55,371.50 313.90,369.18 314.25,371.04 314.60,371.20 314.95,373.84 315.30,374.62 315.65,378.30 316.00,378.75 316.35,379.45 316.70,378.58 317.05,380.23 317.40,382.31 317.75,384.79 318.10,384.06 318.45,385.20 318.80,383.28 319.15,380.24 319.50,377.56 319.85,378.02 320.20,380.04 320.55,382.35 320.90,385.86 321.25,385.22 321.60,384.64 321.95,384.98 322.30,385.25 322.65,384.56 323.00,385.19 323.35,381.27 323.70,381.55 324.05,382.56 324.40,384.13 324.75,384.68 325.10,384.25 325.45,384.71 325.80,384.87 326.15,383.79 326.50,382.45 326.85,383.03 327.20,381.45 327.55,382.97 327.90,384.65 328.25,385.41 328.60,386.34 328.95,386.26 329.30,387.50 329.65,383.87 330.00,384.77 330.35,382.56 330.70,381.63 331.05,380.57 331.40,380.22 331.75,377.56 332.10,376.08 332.45,375.87 332.80,376.57 333.15,376.56 333.50,376.13 333.85,373.15 334.20,372.60 334.55,371.52 334.90,371.67 335.25,369.53 335.60,369.59 335.95,368.99 336.30,367.18 336.65,364.18 337.00,364.70 337.35,363.25 337.70,363.36 338.05,364.49 338.40,365.04 338.75,365.28 339.10,366.65 339.45,367.15 339.80,366.62 340.15,367.12 340.50,368.53 340.85,368.81 341.20,370.93 341.55,367.98 341.90,368.60 342.25,367.36 342.60,369.67 342.95,367.41 343.30,367.15 343.65,366.17 344.00,365.61 344.35,365.02 344.70,366.83 345.05,366.79 345.40,368.11 345.75,367.19 346.10,366.90 346.45,364.97 346.80,363.23 347.15,361.52 347.50,360.26 347.85,358.07 348.20,358.99 348.55,358.05 348.90,354.17 349.25,353.43 349.60,351.73 349.95,353.33 350.30,349.62 350.65,350.04 351.00,352.89 351.35,351.43 351.70,350.02 352.05,348.62 352.40,349.60 352.75,349.16 353.10,348.46 353.45,346.42 353.80,346.54 354.15,344.45 354.50,342.28 354.85,344.70 355.20,346.57 355.55,345.35 355.90,341.38 356.25,339.25 356.60,335.91 356.95,338.38 357.30,337.98 357.65,341.05 358.00,340.72 358.35,340.79 358.70,343.83 359.05,342.12 359.40,343.15 359.75,345.28 360.10,343.66 360.45,347.35 360.80,345.77 361.15,345.16 361.50,346.24 361.85,342.29 362.20,343.47 362.55,344.11 362.90,347.09 363.25,349.11 363.60,348.54 363.95,348.98 364.30,349.84 364.65,346.41 365.00,345.94 365.35,340.36 365.70,342.01 366.05,338.58 366.40,338.46 366.75,339.17 367.10,338.67 367.45,339.28 367.80,341.72 368.15,347.09 368.50,348.73 368.85,350.43 369.20,350.77 369.55,352.14 369.90,351.75 370.25,348.27 370.60,345.04 370.95,342.52 371.30,340.02 371.65,336.58 372.00,334.54 372.35,336.75 372.70,334.48 373.05,331.51 373.40,333.29 373.75,331.03 374.10,329.56 374.45,326.11 374.80,326.04 375.15,329.60 375.50,328.73 375.85,327.46 376.20,324.71 376.55,324.25 376.90,323.10 377.25,325.01 377.60,323.27 377.95,321.49 378.30,320.87 378.65,317.82 379.00,322.21 379.35,324.55 379.70,323.53 380.05,321.67 380.40,318.89 380.75,315.63 381.10,310.72 381.45,309.37 381.80,312.23 382.15,308.58 382.50,310.79 382.85,309.42 383.20,310.55 383.55,308.41 383.90,306.84 384.25,300.80 384.60,301.47 384.95,301.21 385.30,300.08 385.65,296.65 386.00,294.92 386.35,297.34 386.70,298.93 387.05,297.16 387.40,298.49 387.75,299.85 388.10,298.43 388.45,299.21 388.80,302.82 389.15,302.57 389.50,303.48 389.85,304.66 390.20,305.91 390.55,310.15 390.90,307.07 391.25,306.06 391.60,305.74 391.95,308.21 392.30,306.14 392.65,302.20 393.00,297.78 393.35,296.28 393.70,296.69 394.05,299.33 394.40,300.06 394.75,301.80 395.10,305.42 395.45,298.68 395.80,298.48 396.15,293.82 396.50,299.94 396.85,298.95 397.20,297.28 397.55,297.83 397.90,299.60 398.25,302.13 398.60,305.75 398.95,305.80 399.30,304.50 399.65,305.83 400.00,307.25 400.35,306.83 400.70,305.25 401.05,302.56 401.40,302.65 401.75,301.22 402.10,297.29 402.45,294.16 402.80,296.05 403.15,292.31 403.50,289.46 403.85,289.87 404.20,290.31 404.55,287.60 404.90,282.76 405.25,284.25 405.60,281.94 405.95,279.36 406.30,280.42 406.65,282.03 407.00,279.04 407.35,279.70 407.70,277.55 408.05,281.37 408.40,285.48 408.75,283.59 409.10,281.73 409.45,277.64 409.80,277.66 410.15,279.03 410.50,285.81 410.85,285.22 411.20,280.55 411.55,283.23 411.90,285.98 412.25,284.98 412.60,286.36 412.95,287.77 413.30,289.26 413.65,288.14 414.00,288.07 414.35,286.12 414.70,288.65 415.05,284.84 415.40,285.52 415.75,286.14 416.10,281.68 416.45,274.24 416.80,271.34 417.15,271.97 417.50,269.28 417.85,267.05 418.20,269.32 418.55,273.74 418.90,272.14 419.25,268.93 419.60,269.62 419.95,266.59 420.30,263.28 420.65,259.45 421.00,260.85 421.35,259.45 421.70,259.18 422.05,253.89 422.40,252.56 422.75,254.26 423.10,253.16 423.45,250.12 423.80,248.24 424.15,249.38 424.50,248.71 424.85,249.15 425.20,247.18 425.55,246.08 425.90,248.92 426.25,247.18 426.60,244.16 426.95,245.44 427.30,245.00 427.65,241.24 428.00,239.20 428.35,241.24 428.70,242.24 429.05,244.89 429.40,247.53 429.75,240.60 430.10,243.35 430.45,245.15 430.80,248.60 431.15,254.51 431.50,251.83 431.85,254.46 432.20,254.96 432.55,253.97 432.90,256.75 433.25,261.72 433.60,260.24 433.95,261.10 434.30,261.54 434.65,262.85 435.00,266.54 435.35,265.95 435.70,266.13 436.05,268.22 436.40,270.49 436.75,270.74 437.10,267.87 437.45,270.14 437.80,267.72 438.15,264.29 438.50,262.04 438.85,264.02 439.20,264.89 439.55,267.37 439.90,264.79 440.25,264.14 440.60,262.50 440.95,262.18 441.30,261.36 441.65,264.12 442.00,266.87 442.35,265.93 442.70,266.82 443.05,260.85 443.40,261.91 443.75,259.80 444.10,260.40 444.45,258.62 444.80,257.46 445.15,254.37 445.50,256.80 445.85,255.90 446.20,252.03 446.55,255.97 446.90,258.94 447.25,252.88 447.60,249.46 447.95,246.33 448.30,243.18 448.65,240.39 449.00,244.26 449.35,244.54 449.70,248.42 450.05,250.59 450.40,247.07 450.75,249.61 451.10,249.64 451.45,252.82 451.80,247.19 452.15,245.55 452.50,248.35 452.85,249.37 453.20,250.02 453.55,246.11 453.90,244.59 454.25,244.64 454.60,247.27 454.95,249.60 455.30,250.88 455.65,252.95 456.00,252.86 456.35,253.54 456.70,251.44 457.05,249.78 457.40,249.11 457.75,251.08 458.10,252.91 458.45,255.14 458.80,260.87 459.15,261.65 459.50,264.69 459.85,267.28 460.20,262.92 460.55,268.94 460.90,272.47 461.25,271.76 461.60,271.14 461.95,273.16 462.30,273.37 462.65,275.96 463.00,271.36 463.35,274.92 463.70,276.68 464.05,278.60 464.40,274.79 464.75,272.09 465.10,268.95 465.45,268.98 465.80,265.41 466.15,266.48 466.50,264.83 466.85,266.30 467.20,263.52 467.55,263.40 467.90,265.13 468.25,265.72 468.60,266.97 468.95,268.71 469.30,268.40 469.65,269.15 470.00,266.31 470.35,268.82 470.70,269.42 471.05,271.44 471.40,272.26 471.75,272.42 472.10,271.26 472.45,268.68 472.80,263.39 473.15,261.77 473.50,265.49 473.85,263.48 474.20,264.15 474.55,264.36 474.90,269.15 475.25,268.49 475.60,273.31 475.95,275.47 476.30,272.19 476.65,270.12 477.00,270.02 477.35,271.67 477.70,271.12 478.05,271.53 478.40,271.49 478.75,273.71 479.10,271.95 479.45,269.30 479.80,264.45 480.15,267.24 480.50,264.83 480.85,262.43 481.20,262.46 481.55,262.05 481.90,261.55 482.25,258.45 482.60,253.24 482.95,252.43 483.30,252.11 483.65,254.26 484.00,252.29 484.35,252.06 484.70,252.19 485.05,253.68 485.40,254.37 485.75,255.70 486.10,254.11 486.45,253.84 486.80,249.54 487.15,249.04 487.50,247.96 487.85,246.65 488.20,248.12 488.55,250.03 488.90,247.07 489.25,248.71 489.60,245.48 489.95,243.85 490.30,244.33 490.65,247.17 491.00,245.68 491.35,245.50 491.70,244.47 492.05,242.55 492.40,243.42 492.75,239.73 493.10,240.99 493.45,242.29 493.80,240.83 494.15,241.59 494.50,240.50 494.85,238.93 495.20,237.46 495.55,239.23 495.90,242.37 496.25,244.46 496.60,241.44 496.95,239.06 497.30,237.31 497.65,235.48 498.00,234.37 498.35,230.72 498.70,230.19 499.05,228.96 499.40,227.16 499.75,229.31 500.10,230.83 500.45,231.24 500.80,234.06 501.15,234.04 501.50,238.68 501.85,237.48 502.20,243.00 502.55,239.87 502.90,241.48 503.25,238.29 503.60,243.05 503.95,242.42 504.30,238.01 504.65,236.57 505.00,237.29 505.35,238.60 505.70,235.54 506.05,235.87 506.40,235.74 506.75,237.06 507.10,235.86 507.45,232.42 507.80,232.71 508.15,232.17 508.50,231.56 508.85,237.57 509.20,241.55 509.55,240.20 509.90,237.83 510.25,238.85 510.60,240.01 510.95,240.11 511.30,240.41 511.65,235.96 512.00,231.93 512.35,235.03 512.70,232.51 513.05,234.77 513.40,235.65 513.75,230.00 514.10,228.03 514.45,228.69 514.80,224.60 515.15,224.01 515.50,225.35 515.85,221.97 516.20,224.65 516.55,224.82 516.90,222.46 517.25,218.34 517.60,216.56 517.95,214.19 518.30,217.51 518.65,218.72 519.00,219.49 519.35,218.51 519.70,218.30 520.05,219.27 520.40,219.69 520.75,220.96 521.10,219.26 521.45,218.92 521.80,217.77 522.15,218.08 522.50,219.53 522.85,218.19 523.20,218.74 523.55,220.68 523.90,225.20 524.25,221.28 524.60,219.53 524.95,219.19 525.30,213.29 525.65,213.91 526.00,209.67 526.35,214.01 526.70,214.19 527.05,212.98 527.40,212.10 527.75,208.28 528.10,209.40 528.45,208.10 528.80,205.26 529.15,206.12 529.50,204.59 529.85,199.90 530.20,199.94 530.55,198.12 530.90,198.85 531.25,201.71 531.60,203.28 531.95,202.26 532.30,197.89 532.65,197.05 533.00,194.59 533.35,195.35 533.70,195.53 534.05,195.72 534.40,200.38 534.75,198.76 535.10,202.33 535.45,203.70 535.80,202.81 536.15,203.44 536.50,203.57 536.85,199.76 537.20,201.78 537.55,198.59 537.90,199.50 538.25,199.41 538.60,198.69 538.95,197.89 539.30,199.86 539.65,202.98 540.00,199.62 540.35,201.38 540.70,198.82 541.05,198.64 541.40,194.27 541.75,197.70 542.10,200.00 542.45,198.46 542.80,193.61 543.15,191.86 543.50,192.17 543.85,191.12 544.20,185.32 544.55,185.72 544.90,185.45 545.25,188.85 545.60,183.38 545.95,179.96 546.30,177.80 546.65,180.26 547.00,180.68 547.35,177.81 547.70,181.93 548.05,183.54 548.40,185.23 548.75,182.31 549.10,180.91 549.45,178.17 549.80,182.74 550.15,179.74 550.50,184.14 550.85,185.10 551.20,182.26 551.55,186.32 551.90,187.53 552.25,189.40 552.60,189.27 552.95,186.60 553.30,186.80 553.65,186.10 554.00,185.04 554.35,184.18 554.70,184.98 555.05,186.41 555.40,187.81 555.75,188.90 556.10,184.50 556.45,187.70 556.80,189.51 557.15,190.27 557.50,195.61 557.85,195.67 558.20,194.66 558.55,198.73 558.90,194.60 559.25,194.26 559.60,194.87 559.95,192.54 560.30,189.74 560.65,188.92 561.00,187.53 561.35,187.56 561.70,186.29 562.05,183.29 562.40,183.64 562.75,181.99 563.10,183.03 563.45,181.51 563.80,184.61 564.15,183.34 564.50,178.47 564.85,173.26 565.20,174.35 565.55,173.73 565.90,171.26 566.25,172.58 566.60,167.60 566.95,168.80 567.30,166.68 567.65,166.24 568.00,164.04 568.35,161.35 568.70,156.58 569.05,155.36 569.40,155.99 569.75,153.29 570.10,151.89 570.45,150.27 570.80,152.38 571.15,154.30 571.50,152.69 571.85,152.24 572.20,151.86 572.55,153.36 572.90,151.57 573.25,149.65 573.60,146.01 573.95,144.33 574.30,139.99 574.65,139.41 575.00,143.88 575.35,142.79 575.70,138.04 576.05,138.75 576.40,136.35 576.75,135.46 577.10,133.88 577.45,134.39 577.80,133.19 578.15,132.42 578.50,127.71 578.85,132.62 579.20,128.86 579.55,132.30 579.90,128.38 580.25,128.87 580.60,127.62 580.95,128.72 581.30,131.99 581.65,131.38 582.00,131.19 582.35,131.99 582.70,129.47 583.05,131.00 583.40,133.25 583.75,135.85 584.10,136.24 584.45,132.18 584.80,137.71 585.15,135.57 585.50,135.06 585.85,134.15 586.20,133.95 586.55,131.31 586.90,131.18 587.25,134.29 587.60,134.36 587.95,137.93 588.30,140.86 588.65,138.29 589.00,137.41 589.35,131.31 589.70,125.67 590.05,126.05 590.40,126.91 590.75,126.09 591.10,131.36 591.45,133.23 591.80,134.93 592.15,134.74 592.50,135.57 592.85,136.43 593.20,137.78 593.55,139.96 593.90,139.45 594.25,136.95 594.60,135.94 594.95,134.34 595.30,137.62 595.65,141.52 596.00,140.36 596.35,137.47 596.70,134.30 597.05,136.25 597.40,135.42 597.75,136.85 598.10,138.08 598.45,138.87 598.80,137.66 599.15,140.26 599.50,143.53 599.85,142.60 600.20,144.78 600.55,144.50 600.90,145.41 601.25,141.27 601.60,140.15 601.95,136.00 602.30,135.69 602.65,136.15 603.00,131.21 603.35,127.81 603.70,124.93 604.05,122.75 604.40,123.27 604.75,125.98 605.10,125.70 605.45,127.27 605.80,125.17 606.15,123.23 606.50,124.24 606.85,130.05 607.20,131.20 607.55,127.73 607.90,132.03 608.25,130.12 608.60,134.76 608.95,133.99 609.30,135.29 609.65,136.77 610.00,133.72 610.35,134.98 610.70,134.72 611.05,136.69 611.40,134.89 611.75,130.18 612.10,127.69 612.45,130.33 612.80,133.21 613.15,132.01 613.50,135.03 613.85,130.10 614.20,131.44 614.55,130.30 614.90,130.95 615.25,128.08 615.60,131.23 615.95,131.87 616.30,131.41 616.65,131.80 617.00,133.55 617.35,140.45 617.70,141.94 618.05,141.49 618.40,141.92 618.75,142.69 619.10,145.66 619.45,145.47 619.80,149.45 620.15,150.55 620.50,154.63 620.85,154.31 621.20,152.43 621.55,151.11 621.90,147.89 622.25,146.42 622.60,147.64 622.95,148.26 623.30,149.36 623.65,152.93 624.00,154.89 624.35,150.70 624.70,151.68 625.05,154.12 625.40,152.67 625.75,156.58 626.10,152.66 626.45,155.27 626.80,152.91 627.15,152.54 627.50,150.30 627.85,149.15 628.20,150.27 628.55,151.21 628.90,153.85 629.25,153.05 629.60,150.75 629.95,148.29 630.30,150.60 630.65,150.50 631.00,151.41 631.35,150.47 631.70,152.85 632.05,151.17 632.40,148.27 632.75,151.96 633.10,153.53 633.45,151.59 633.80,149.00 634.15,152.92 634.50,154.32 634.85,156.49 635.20,155.08 635.55,151.85 635.90,156.34 636.25,153.79 636.60,151.90 636.95,152.95 637.30,151.12 637.65,147.43 638.00,148.32 638.35,147.08 638.70,146.42 639.05,148.36 639.40,149.11 639.75,144.81 640.10,144.31 640.45,144.85 640.80,147.28 641.15,147.78 641.50,148.86 641.85,150.56 642.20,148.76 642.55,149.95 642.90,148.52 643.25,144.88 643.60,147.28 643.95,143.00 644.30,138.28 644.65,139.82 645.00,140.20 645.35,137.71 645.70,140.43 646.05,138.73 646.40,139.71 646.75,137.64 647.10,142.89 647.45,144.45 647.80,144.55 648.15,142.97 648.50,143.58 648.85,142.91 649.20,141.17 649.55,140.91 649.90,137.98 650.25,140.20 650.60,141.50 650.95,134.42 651.30,134.03 651.65,137.24 652.00,138.81 652.35,134.49 652.70,136.12 653.05,135.02 653.40,132.63 653.75,134.80 654.10,131.18 654.45,128.74 654.80,130.84 655.15,132.68 655.50,128.34 655.85,130.92 656.20,132.58 656.55,131.97 656.90,132.65 657.25,132.36 657.60,132.18 657.95,127.92 658.30,131.93 658.65,131.40 659.00,133.25 659.35,133.51 659.70,133.05 660.05,133.63 660.40,138.61 660.75,137.96 661.10,138.04 661.45,142.63 661.80,145.37 662.15,143.47 662.50,145.16 662.85,143.63 663.20,143.87 663.55,145.64 663.90,149.70 664.25,151.22 664.60,152.29 664.95,150.33 665.30,150.96 665.65,151.75 666.00,155.75 666.35,155.99 666.70,158.64 667.05,155.29 667.40,158.18 667.75,158.03 668.10,157.64 668.45,156.20 668.80,157.09 669.15,155.08 669.50,156.82 669.85,156.68 670.20,155.98 670.55,157.75 670.90,158.99 671.25,159.44 671.60,159.91 671.95,162.22 672.30,161.48 672.65,163.25 673.00,164.02 673.35,165.25 673.70,164.98 674.05,163.02 674.40,164.96 674.75,165.28 675.10,166.61 675.45,161.33 675.80,163.65 676.15,160.76 676.50,163.67 676.85,165.53 677.20,164.88 677.55,163.45 677.90,163.80 678.25,163.45 678.60,162.88 678.95,163.80 679.30,163.38 679.65,162.29 680.00,159.18 680.35,159.70 680.70,160.51 681.05,161.87 681.40,157.67 681.75,157.98 682.10,159.14 682.45,158.06 682.80,156.25 683.15,158.64 683.50,159.90 683.85,157.94 684.20,158.05 684.55,156.65 684.90,154.55 685.25,154.97 685.60,152.49 685.95,150.77 686.30,149.37 686.65,149.29 687.00,148.70 687.35,146.47 687.70,146.61 688.05,145.99 688.40,145.56 688.75,145.15 689.10,145.75 689.45,142.25 689.80,145.34 690.15,141.66 690.50,135.13 690.85,138.21 691.20,138.64 691.55,136.83 691.90,136.14 692.25,136.45 692.60,135.45 692.95,133.68 693.30,132.15 693.65,133.22 694.00,135.67 694.35,135.62 694.70,133.91 695.05,135.73 695.40,135.73 695.75,135.14 696.10,134.43 696.45,136.48 696.80,140.55 697.15,139.85 697.50,137.91 697.85,135.68 698.20,136.15 698.55,133.29 698.90,132.70 699.25,132.08 699.60,134.77 699.95,133.57 700.30,132.97 700.65,134.19 701.00,134.95 701.35,136.02 701.70,134.41 702.05,133.29 702.40,133.10 702.75,132.34 703.10,133.71 703.45,133.81 703.80,134.92 704.15,134.61 704.50,131.17 704.85,131.96 705.20,130.72 705.55,127.98 705.90,128.37 706.25,128.56 706.60,131.09 706.95,133.46 707.30,133.51 707.65,131.84 708.00,134.41 708.35,135.60 708.70,135.78 709.05,135.49 709.40,140.34 709.75,139.82 710.10,140.84 710.45,138.83 710.80,134.97 711.15,137.89 711.50,135.71 711.85,136.33 712.20,137.65 712.55,133.63 712.90,131.71 713.25,130.47 713.60,130.74 713.95,129.14 714.30,129.84 714.65,129.98 715.00,128.17 715.35,129.64 715.70,131.82 716.05,135.01 716.40,138.68 716.75,139.84 717.10,138.32 717.45,136.07 717.80,136.03 718.15,135.86 718.50,134.62 718.85,130.68 719.20,130.45 719.55,132.59 719.90,132.15 720.25,131.97 720.60,132.67 720.95,136.05 721.30,135.45 721.65,138.74 722.00,137.47 722.35,135.90 722.70,139.61 723.05,143.13 723.40,140.28 723.75,139.19 724.10,140.52 724.45,141.03 724.80,143.55 725.15,142.91 725.50,146.29 725.85,145.32 726.20,145.20 726.55,145.02 726.90,144.72 727.25,144.71 727.60,146.90 727.95,145.22 728.30,150.16 728.65,149.15 729.00,150.17 729.35,152.08 729.70,151.77 730.05,153.61 730.40,149.26 730.75,148.87 731.10,148.14 731.45,148.70 731.80,147.77 732.15,146.03 732.50,146.48 732.85,146.45 733.20,143.82 733.55,139.28 733.90,138.56 734.25,140.56 734.60,142.14 734.95,140.77 735.30,141.72 735.65,139.66 736.00,139.53 736.35,140.73 736.70,139.80 737.05,139.20 737.40,138.75 737.75,139.44 738.10,140.13 738.45,138.27 738.80,132.94 739.15,130.91 739.50,130.78 739.85,133.20 740.20,132.17 740.55,133.90 740.90,136.31 741.25,133.53 741.60,137.76 741.95,138.07 742.30,139.52 742.65,140.94 743.00,139.71 743.35,139.71 743.70,139.87 744.05,140.74 744.40,139.91 744.75,143.12 745.10,143.98 745.45,144.28 745.80,145.03 746.15,148.77 746.50,148.07 746.85,152.44 747.20,153.31 747.55,153.22 747.90,157.39 748.25,159.64 748.60,161.46 748.95,162.42 749.30,159.92 749.65,156.36 750.00,157.01 750.35,157.49 750.70,158.50 751.05,158.11 751.40,157.99 751.75,158.03 752.10,157.34 752.45,156.81 752.80,158.32 753.15,159.93 753.50,159.84 753.85,161.71 754.20,162.36 754.55,164.12 754.90,163.53 755.25,164.71 755.60,164.44 755.95,167.33 756.30,166.65 756.65,166.79 757.00,167.35 757.35,165.76 757.70,166.44 758.05,164.40 758.40,164.08 758.75,163.60 759.10,164.06 759.45,167.33 759.80,167.10 760.15,167.11 760.50,166.49 760.85,168.21 761.20,169.04 761.55,167.87 761.90,171.39 762.25,172.85 762.60,175.43 762.95,175.78 763.30,176.55 763.65,176.55 764.00,173.60 764.35,171.11 764.70,169.84 765.05,169.96 765.40,169.80 765.75,168.55 766.10,164.68 766.45,163.43 766.80,162.57 767.15,164.13 767.50,164.26 767.85,163.49 768.20,164.05 768.55,166.73 768.90,165.61 769.25,162.98 769.60,163.45 769.95,163.52 770.30,160.84 770.65,159.11 771.00,159.44 771.35,159.74 771.70,159.42 772.05,163.34 772.40,162.42 772.75,163.24 773.10,162.18 773.45,163.31 773.80,160.15 774.15,160.30 774.50,160.85 774.85,161.59 775.20,161.59 775.55,161.73 775.90,161.33 776.25,163.53 776.60,162.34 776.95,162.60 777.30,161.84 777.65,162.40 778.00,162.08 778.35,160.60 778.70,160.99 779.05,160.02 779.40,161.23 779.75,161.46 780.10,159.84 780.45,159.71 780.80,161.19 781.15,162.56 781.50,161.83 781.85,161.10 782.20,160.84 782.55,162.06 782.90,162.44 783.25,162.31 783.60,161.35 783.95,161.21 784.30,160.93 784.65,159.82 785.00,157.79 785.00,162.34"/>
<line x1="813" y1="54" x2="839" y2="54" stroke="#2563eb" stroke-width="3"/>
<text x="847" y="58" font-family="Arial" font-size="13" fill="#111827">low volatility</text>
<polyline fill="none" stroke="#dc2626" stroke-width="2" points="85.00,385.02 85.35,385.00 85.70,384.97 86.05,384.95 86.40,384.87 86.75,384.76 87.10,384.53 87.45,384.39 87.80,384.32 88.15,384.28 88.50,384.43 88.85,384.67 89.20,384.86 89.55,385.00 89.90,385.17 90.25,385.00 90.60,384.78 90.95,384.56 91.30,384.59 91.65,384.67 92.00,384.73 92.35,384.53 92.70,384.48 93.05,384.49 93.40,384.73 93.75,384.38 94.10,384.52 94.45,384.72 94.80,384.75 95.15,384.86 95.50,384.82 95.85,384.95 96.20,384.84 96.55,384.87 96.90,384.81 97.25,384.82 97.60,384.69 97.95,384.56 98.30,384.56 98.65,384.66 99.00,384.74 99.35,384.68 99.70,384.38 100.05,384.12 100.40,384.30 100.75,384.67 101.10,385.39 101.45,385.56 101.80,385.78 102.15,385.83 102.50,386.46 102.85,386.48 103.20,386.22 103.55,386.12 103.90,385.93 104.25,385.73 104.60,385.46 104.95,385.32 105.30,385.53 105.65,385.62 106.00,385.76 106.35,385.61 106.70,386.04 107.05,386.19 107.40,386.22 107.75,386.26 108.10,386.15 108.45,386.08 108.80,386.01 109.15,386.04 109.50,386.00 109.85,385.80 110.20,385.83 110.55,385.75 110.90,385.55 111.25,385.50 111.60,385.62 111.95,385.69 112.30,385.78 112.65,386.39 113.00,386.42 113.35,385.99 113.70,385.93 114.05,386.05 114.40,385.70 114.75,385.52 115.10,385.53 115.45,385.65 115.80,385.49 116.15,385.61 116.50,385.76 116.85,385.54 117.20,385.84 117.55,385.84 117.90,386.21 118.25,386.44 118.60,386.40 118.95,386.38 119.30,386.27 119.65,386.23 120.00,386.22 120.35,386.09 120.70,386.18 121.05,386.01 121.40,386.02 121.75,386.19 122.10,385.82 122.45,385.50 122.80,385.20 123.15,385.32 123.50,385.63 123.85,385.14 124.20,385.31 124.55,385.50 124.90,385.46 125.25,385.01 125.60,385.41 125.95,385.11 126.30,384.53 126.65,384.50 127.00,384.70 127.35,385.13 127.70,386.72 128.05,388.66 128.40,389.22 128.75,389.20 129.10,388.43 129.45,387.99 129.80,387.78 130.15,387.98 130.50,388.31 130.85,387.91 131.20,388.25 131.55,388.29 131.90,388.71 132.25,389.72 132.60,389.29 132.95,389.03 133.30,388.70 133.65,387.96 134.00,388.40 134.35,388.61 134.70,388.21 135.05,387.62 135.40,387.56 135.75,387.51 136.10,387.54 136.45,387.10 136.80,387.51 137.15,387.42 137.50,387.35 137.85,387.55 138.20,387.02 138.55,387.07 138.90,385.90 139.25,386.84 139.60,387.42 139.95,387.61 140.30,387.87 140.65,387.56 141.00,387.11 141.35,387.53 141.70,386.15 142.05,385.52 142.40,385.72 142.75,384.23 143.10,384.36 143.45,384.18 143.80,383.34 144.15,384.01 144.50,382.15 144.85,381.90 145.20,380.54 145.55,382.67 145.90,382.10 146.25,382.41 146.60,381.67 146.95,382.59 147.30,382.89 147.65,382.97 148.00,383.17 148.35,382.98 148.70,383.03 149.05,383.04 149.40,385.45 149.75,385.22 150.10,383.55 150.45,383.88 150.80,384.36 151.15,383.63 151.50,383.29 151.85,381.69 152.20,381.22 152.55,382.42 152.90,382.55 153.25,383.94 153.60,383.96 153.95,384.48 154.30,384.43 154.65,384.13 155.00,384.25 155.35,380.13 155.70,383.81 156.05,383.54 156.40,382.95 156.75,384.38 157.10,382.03 157.45,381.82 157.80,382.42 158.15,381.57 158.50,380.23 158.85,379.77 159.20,380.15 159.55,381.46 159.90,383.19 160.25,378.16 160.60,376.28 160.95,378.62 161.30,379.32 161.65,377.67 162.00,376.10 162.35,374.28 162.70,375.04 163.05,375.86 163.40,377.89 163.75,381.35 164.10,382.77 164.45,380.63 164.80,380.53 165.15,382.70 165.50,386.34 165.85,388.18 166.20,388.35 166.55,386.46 166.90,382.08 167.25,381.93 167.60,379.17 167.95,378.00 168.30,382.59 168.65,387.49 169.00,389.60 169.35,391.27 169.70,396.50 170.05,393.57 170.40,390.43 170.75,388.59 171.10,389.62 171.45,390.43 171.80,391.72 172.15,392.28 172.50,392.73 172.85,393.72 173.20,394.57 173.55,394.92 173.90,394.08 174.25,395.21 174.60,395.84 174.95,398.95 175.30,396.91 175.65,396.62 176.00,399.21 176.35,399.67 176.70,399.20 177.05,401.81 177.40,402.99 177.75,402.19 178.10,402.46 178.45,399.71 178.80,398.20 179.15,397.80 179.50,397.59 179.85,396.60 180.20,395.97 180.55,399.13 180.90,399.68 181.25,399.66 181.60,399.57 181.95,397.59 182.30,397.18 182.65,398.50 183.00,399.21 183.35,400.63 183.70,400.42 184.05,398.72 184.40,397.92 184.75,398.71 185.10,397.96 185.45,400.02 185.80,400.56 186.15,398.62 186.50,398.31 186.85,398.36 187.20,398.64 187.55,399.12 187.90,398.80 188.25,398.57 188.60,398.11 188.95,398.45 189.30,398.07 189.65,398.26 190.00,398.55 190.35,398.40 190.70,398.27 191.05,398.12 191.40,398.12 191.75,398.16 192.10,398.05 192.45,397.93 192.80,397.83 193.15,397.68 193.50,397.44 193.85,397.39 194.20,397.40 194.55,397.22 194.90,397.06 195.25,396.96 195.60,396.69 195.95,396.63 196.30,396.60 196.65,396.48 197.00,396.53 197.35,396.14 197.70,396.28 198.05,396.48 198.40,395.19 198.75,395.95 199.10,395.63 199.45,396.48 199.80,395.52 200.15,394.82 200.50,395.01 200.85,395.47 201.20,394.70 201.55,396.08 201.90,396.08 202.25,396.54 202.60,397.97 202.95,396.13 203.30,394.94 203.65,393.60 204.00,392.53 204.35,394.50 204.70,393.75 205.05,392.34 205.40,393.56 205.75,393.66 206.10,394.55 206.45,394.94 206.80,394.76 207.15,392.28 207.50,390.12 207.85,388.99 208.20,387.65 208.55,384.29 208.90,383.59 209.25,383.88 209.60,381.73 209.95,385.28 210.30,386.46 210.65,387.12 211.00,385.29 211.35,381.45 211.70,381.55 212.05,379.65 212.40,381.12 212.75,383.45 213.10,383.74 213.45,383.53 213.80,383.66 214.15,386.83 214.50,387.02 214.85,387.07 215.20,388.19 215.55,385.06 215.90,385.16 216.25,384.67 216.60,384.06 216.95,384.01 217.30,385.31 217.65,386.10 218.00,382.30 218.35,385.00 218.70,386.07 219.05,388.08 219.40,386.71 219.75,381.85 220.10,387.26 220.45,381.32 220.80,381.57 221.15,379.02 221.50,378.35 221.85,376.12 222.20,380.05 222.55,382.79 222.90,380.34 223.25,377.48 223.60,379.11 223.95,373.91 224.30,376.62 224.65,380.61 225.00,378.96 225.35,381.54 225.70,379.69 226.05,378.36 226.40,373.70 226.75,373.72 227.10,373.90 227.45,376.72 227.80,376.90 228.15,383.27 228.50,379.50 228.85,381.79 229.20,383.08 229.55,385.66 229.90,388.65 230.25,392.64 230.60,394.35 230.95,388.38 231.30,392.17 231.65,393.94 232.00,394.57 232.35,400.99 232.70,403.43 233.05,401.76 233.40,401.57 233.75,407.82 234.10,407.54 234.45,415.52 234.80,411.93 235.15,410.70 235.50,417.00 235.85,416.45 236.20,417.73 236.55,415.71 236.90,415.34 237.25,410.03 237.60,407.94 237.95,406.45 238.30,408.03 238.65,409.42 239.00,410.31 239.35,407.01 239.70,406.73 240.05,408.03 240.40,408.75 240.75,407.36 241.10,411.68 241.45,412.70 241.80,414.01 242.15,416.04 242.50,410.71 242.85,408.17 243.20,405.69 243.55,401.05 243.90,399.05 244.25,394.01 244.60,394.35 244.95,389.14 245.30,387.58 245.65,390.51 246.00,391.85 246.35,394.40 246.70,395.26 247.05,398.84 247.40,398.16 247.75,397.51 248.10,394.49 248.45,394.87 248.80,391.70 249.15,388.29 249.50,383.42 249.85,383.65 250.20,379.14 250.55,381.06 250.90,380.62 251.25,380.37 251.60,374.40 251.95,372.92 252.30,368.20 252.65,366.29 253.00,366.59 253.35,362.91 253.70,360.76 254.05,359.77 254.40,357.08 254.75,359.29 255.10,354.66 255.45,352.27 255.80,349.90 256.15,347.36 256.50,349.92 256.85,345.68 257.20,347.77 257.55,349.51 257.90,343.87 258.25,337.58 258.60,339.00 258.95,337.95 259.30,333.75 259.65,336.65 260.00,334.11 260.35,327.54 260.70,326.55 261.05,329.64 261.40,323.02 261.75,326.92 262.10,316.39 262.45,322.93 262.80,315.96 263.15,310.13 263.50,310.05 263.85,315.29 264.20,320.31 264.55,322.20 264.90,325.08 265.25,334.96 265.60,334.94 265.95,334.91 266.30,339.17 266.65,340.67 267.00,339.17 267.35,348.34 267.70,344.75 268.05,341.39 268.40,349.44 268.75,341.89 269.10,343.46 269.45,344.97 269.80,349.02 270.15,351.37 270.50,349.51 270.85,350.63 271.20,348.94 271.55,356.15 271.90,356.33 272.25,352.72 272.60,347.15 272.95,340.34 273.30,341.29 273.65,340.68 274.00,334.98 274.35,340.17 274.70,340.77 275.05,337.05 275.40,325.79 275.75,334.49 276.10,337.55 276.45,347.23 276.80,349.08 277.15,353.85 277.50,359.26 277.85,357.85 278.20,352.00 278.55,351.91 278.90,350.52 279.25,347.80 279.60,349.65 279.95,355.67 280.30,347.90 280.65,348.58 281.00,351.02 281.35,350.82 281.70,344.35 282.05,346.77 282.40,347.89 282.75,346.25 283.10,339.91 283.45,338.60 283.80,340.98 284.15,339.72 284.50,336.50 284.85,330.14 285.20,328.00 285.55,326.72 285.90,327.19 286.25,332.03 286.60,333.49 286.95,339.46 287.30,332.85 287.65,329.69 288.00,327.51 288.35,333.61 288.70,338.82 289.05,331.51 289.40,329.05 289.75,325.05 290.10,321.04 290.45,325.03 290.80,329.12 291.15,315.43 291.50,304.27 291.85,307.21 292.20,307.43 292.55,301.46 292.90,301.85 293.25,301.31 293.60,307.67 293.95,307.16 294.30,310.80 294.65,317.15 295.00,318.30 295.35,307.51 295.70,312.94 296.05,319.20 296.40,310.59 296.75,324.16 297.10,324.56 297.45,320.86 297.80,325.25 298.15,330.39 298.50,331.37 298.85,333.06 299.20,329.18 299.55,311.95 299.90,317.77 300.25,314.97 300.60,320.45 300.95,313.68 301.30,314.37 301.65,311.38 302.00,302.84 302.35,306.99 302.70,307.17 303.05,305.10 303.40,297.92 303.75,291.70 304.10,292.84 304.45,302.00 304.80,306.02 305.15,305.24 305.50,308.22 305.85,308.73 306.20,313.33 306.55,301.90 306.90,303.77 307.25,314.80 307.60,311.34 307.95,320.04 308.30,320.75 308.65,327.20 309.00,329.14 309.35,328.02 309.70,333.42 310.05,335.20 310.40,345.08 310.75,341.65 311.10,343.09 311.45,354.33 311.80,347.73 312.15,347.47 312.50,351.13 312.85,351.40 313.20,357.76 313.55,349.97 313.90,342.00 314.25,347.42 314.60,333.51 314.95,337.11 315.30,341.97 315.65,344.74 316.00,333.05 316.35,329.07 316.70,325.50 317.05,316.08 317.40,315.90 317.75,329.79 318.10,316.81 318.45,306.65 318.80,300.61 319.15,298.56 319.50,292.70 319.85,283.18 320.20,287.56 320.55,281.91 320.90,278.21 321.25,277.37 321.60,284.14 321.95,289.27 322.30,293.22 322.65,276.77 323.00,282.52 323.35,280.93 323.70,289.30 324.05,286.38 324.40,286.01 324.75,288.76 325.10,287.43 325.45,290.42 325.80,289.03 326.15,279.92 326.50,277.70 326.85,270.48 327.20,271.04 327.55,267.14 327.90,276.78 328.25,276.95 328.60,280.98 328.95,279.91 329.30,282.28 329.65,285.29 330.00,283.15 330.35,288.01 330.70,295.58 331.05,296.94 331.40,283.76 331.75,286.49 332.10,288.12 332.45,275.23 332.80,275.83 333.15,270.95 333.50,249.54 333.85,243.14 334.20,237.35 334.55,245.39 334.90,237.28 335.25,245.02 335.60,233.51 335.95,234.60 336.30,242.86 336.65,244.09 337.00,243.55 337.35,242.07 337.70,243.05 338.05,239.96 338.40,236.85 338.75,252.68 339.10,241.81 339.45,234.92 339.80,229.01 340.15,226.31 340.50,226.77 340.85,230.85 341.20,229.42 341.55,219.08 341.90,227.11 342.25,243.17 342.60,225.45 342.95,209.91 343.30,205.46 343.65,216.51 344.00,215.38 344.35,214.80 344.70,216.41 345.05,219.58 345.40,220.88 345.75,208.39 346.10,210.96 346.45,211.67 346.80,203.64 347.15,188.06 347.50,190.12 347.85,193.63 348.20,180.26 348.55,191.20 348.90,177.52 349.25,166.88 349.60,158.82 349.95,152.21 350.30,141.04 350.65,134.79 351.00,135.58 351.35,133.90 351.70,127.27 352.05,110.27 352.40,106.09 352.75,106.00 353.10,97.83 353.45,99.54 353.80,90.28 354.15,102.82 354.50,87.85 354.85,74.33 355.20,75.55 355.55,82.33 355.90,87.16 356.25,120.53 356.60,129.37 356.95,122.89 357.30,109.51 357.65,122.87 358.00,121.17 358.35,127.10 358.70,126.17 359.05,111.75 359.40,108.93 359.75,101.95 360.10,114.95 360.45,111.28 360.80,112.00 361.15,112.12 361.50,118.54 361.85,113.57 362.20,122.41 362.55,107.89 362.90,111.17 363.25,126.62 363.60,124.19 363.95,116.13 364.30,108.77 364.65,122.02 365.00,133.39 365.35,137.47 365.70,140.23 366.05,158.87 366.40,170.85 366.75,163.81 367.10,177.82 367.45,181.40 367.80,185.37 368.15,201.01 368.50,196.55 368.85,189.46 369.20,166.47 369.55,149.94 369.90,143.18 370.25,143.32 370.60,138.11 370.95,146.33 371.30,119.89 371.65,101.90 372.00,101.56 372.35,94.79 372.70,93.76 373.05,104.03 373.40,112.31 373.75,116.18 374.10,108.36 374.45,116.53 374.80,120.55 375.15,116.74 375.50,106.49 375.85,100.68 376.20,86.87 376.55,82.93 376.90,78.89 377.25,83.21 377.60,75.47 377.95,76.61 378.30,75.68 378.65,81.24 379.00,88.90 379.35,77.94 379.70,97.12 380.05,92.07 380.40,78.31 380.75,74.16 381.10,77.34 381.45,74.33 381.80,73.44 382.15,81.58 382.50,81.36 382.85,80.67 383.20,71.52 383.55,82.25 383.90,77.82 384.25,86.55 384.60,91.27 384.95,102.09 385.30,98.35 385.65,99.63 386.00,99.88 386.35,98.43 386.70,106.00 387.05,95.20 387.40,92.37 387.75,92.23 388.10,91.76 388.45,109.70 388.80,114.84 389.15,111.07 389.50,114.23 389.85,102.07 390.20,100.12 390.55,111.17 390.90,115.87 391.25,109.84 391.60,122.38 391.95,130.74 392.30,121.47 392.65,113.84 393.00,107.64 393.35,106.55 393.70,118.72 394.05,139.69 394.40,117.68 394.75,121.69 395.10,109.48 395.45,120.78 395.80,116.46 396.15,102.47 396.50,109.79 396.85,116.57 397.20,124.25 397.55,119.39 397.90,138.40 398.25,143.15 398.60,143.27 398.95,138.12 399.30,138.22 399.65,130.42 400.00,125.43 400.35,118.34 400.70,113.81 401.05,122.35 401.40,113.95 401.75,110.95 402.10,106.01 402.45,100.99 402.80,94.70 403.15,93.14 403.50,90.30 403.85,102.51 404.20,111.52 404.55,110.80 404.90,98.18 405.25,93.18 405.60,110.80 405.95,94.07 406.30,88.31 406.65,95.14 407.00,83.87 407.35,81.94 407.70,86.02 408.05,106.83 408.40,111.73 408.75,110.94 409.10,132.58 409.45,134.65 409.80,141.41 410.15,146.82 410.50,148.00 410.85,145.28 411.20,146.99 411.55,141.38 411.90,146.54 412.25,139.61 412.60,132.32 412.95,128.36 413.30,130.68 413.65,139.09 414.00,136.22 414.35,131.39 414.70,138.51 415.05,134.77 415.40,144.61 415.75,136.78 416.10,131.51 416.45,121.05 416.80,118.69 417.15,109.31 417.50,116.69 417.85,126.32 418.20,136.81 418.55,133.85 418.90,138.45 419.25,143.33 419.60,152.63 419.95,162.44 420.30,165.38 420.65,167.23 421.00,171.42 421.35,175.77 421.70,172.33 422.05,180.83 422.40,194.99 422.75,196.06 423.10,200.57 423.45,200.75 423.80,202.68 424.15,201.23 424.50,210.21 424.85,206.71 425.20,214.91 425.55,216.91 425.90,205.73 426.25,208.77 426.60,202.25 426.95,200.11 427.30,195.06 427.65,200.12 428.00,205.41 428.35,209.53 428.70,216.63 429.05,226.31 429.40,210.99 429.75,206.39 430.10,201.30 430.45,201.44 430.80,197.90 431.15,198.78 431.50,200.36 431.85,199.49 432.20,198.51 432.55,192.55 432.90,190.51 433.25,190.17 433.60,193.71 433.95,189.69 434.30,203.44 434.65,198.66 435.00,202.32 435.35,188.54 435.70,186.97 436.05,198.53 436.40,199.25 436.75,188.73 437.10,187.32 437.45,195.96 437.80,187.42 438.15,192.14 438.50,193.40 438.85,188.73 439.20,186.16 439.55,190.11 439.90,189.21 440.25,194.51 440.60,192.44 440.95,196.72 441.30,199.26 441.65,199.88 442.00,196.67 442.35,205.74 442.70,215.94 443.05,224.38 443.40,230.67 443.75,239.59 444.10,232.45 444.45,224.64 444.80,235.02 445.15,225.05 445.50,227.61 445.85,229.05 446.20,230.00 446.55,229.92 446.90,219.06 447.25,223.07 447.60,218.54 447.95,225.78 448.30,226.77 448.65,214.06 449.00,214.08 449.35,217.22 449.70,229.49 450.05,235.62 450.40,239.36 450.75,233.30 451.10,228.37 451.45,240.16 451.80,238.39 452.15,238.25 452.50,231.46 452.85,234.12 453.20,241.75 453.55,244.36 453.90,245.30 454.25,247.30 454.60,252.57 454.95,257.87 455.30,256.62 455.65,257.18 456.00,254.70 456.35,255.99 456.70,261.49 457.05,264.17 457.40,263.17 457.75,261.83 458.10,267.40 458.45,267.12 458.80,260.08 459.15,262.51 459.50,260.29 459.85,266.65 460.20,270.70 460.55,270.16 460.90,266.18 461.25,262.76 461.60,261.88 461.95,260.53 462.30,266.02 462.65,261.54 463.00,256.08 463.35,256.61 463.70,257.29 464.05,251.05 464.40,253.27 464.75,252.90 465.10,254.06 465.45,251.87 465.80,252.41 466.15,247.33 466.50,251.95 466.85,254.48 467.20,252.51 467.55,256.24 467.90,260.87 468.25,261.76 468.60,255.96 468.95,260.96 469.30,265.14 469.65,270.80 470.00,270.47 470.35,269.79 470.70,274.08 471.05,277.17 471.40,277.75 471.75,272.41 472.10,270.55 472.45,266.34 472.80,267.10 473.15,269.58 473.50,270.43 473.85,268.39 474.20,269.12 474.55,267.99 474.90,274.91 475.25,274.86 475.60,277.83 475.95,272.60 476.30,272.86 476.65,272.54 477.00,273.51 477.35,275.37 477.70,274.03 478.05,273.22 478.40,274.72 478.75,269.19 479.10,268.47 479.45,268.19 479.80,269.68 480.15,266.51 480.50,262.94 480.85,266.07 481.20,264.38 481.55,263.39 481.90,262.86 482.25,261.99 482.60,263.72 482.95,268.86 483.30,271.84 483.65,275.64 484.00,275.98 484.35,276.64 484.70,277.64 485.05,275.96 485.40,273.43 485.75,273.53 486.10,275.65 486.45,277.34 486.80,274.14 487.15,274.98 487.50,272.74 487.85,276.21 488.20,275.67 488.55,275.95 488.90,276.50 489.25,278.40 489.60,278.19 489.95,278.76 490.30,279.08 490.65,281.28 491.00,280.68 491.35,278.10 491.70,275.72 492.05,274.88 492.40,273.65 492.75,274.09 493.10,272.72 493.45,273.95 493.80,272.26 494.15,273.50 494.50,273.67 494.85,277.14 495.20,278.82 495.55,279.70 495.90,278.86 496.25,277.91 496.60,277.65 496.95,275.27 497.30,274.85 497.65,275.16 498.00,275.20 498.35,276.64 498.70,274.57 499.05,275.59 499.40,277.35 499.75,276.50 500.10,275.60 500.45,273.80 500.80,272.35 501.15,272.81 501.50,271.37 501.85,269.20 502.20,268.22 502.55,269.62 502.90,268.96 503.25,269.04 503.60,269.55 503.95,268.83 504.30,266.02 504.65,266.61 505.00,269.42 505.35,271.11 505.70,270.76 506.05,270.47 506.40,273.44 506.75,273.27 507.10,274.00 507.45,274.17 507.80,275.25 508.15,273.72 508.50,270.31 508.85,273.02 509.20,275.51 509.55,275.44 509.90,273.68 510.25,271.43 510.60,272.97 510.95,275.67 511.30,276.55 511.65,279.89 512.00,278.31 512.35,278.73 512.70,279.79 513.05,281.53 513.40,281.32 513.75,282.41 514.10,280.15 514.45,278.13 514.80,279.32 515.15,279.65 515.50,278.25 515.85,278.59 516.20,277.13 516.55,277.00 516.90,278.15 517.25,278.33 517.60,279.74 517.95,278.81 518.30,278.29 518.65,278.32 519.00,277.28 519.35,279.46 519.70,279.36 520.05,277.80 520.40,276.77 520.75,276.31 521.10,277.06 521.45,276.66 521.80,276.72 522.15,276.39 522.50,277.05 522.85,277.31 523.20,277.44 523.55,277.64 523.90,277.28 524.25,276.70 524.60,275.77 524.95,276.25 525.30,276.66 525.65,276.98 526.00,277.02 526.35,276.53 526.70,276.92 527.05,277.55 527.40,277.97 527.75,278.00 528.10,278.13 528.45,277.95 528.80,276.60 529.15,276.07 529.50,274.95 529.85,274.84 530.20,274.44 530.55,273.57 530.90,274.24 531.25,275.95 531.60,276.16 531.95,276.47 532.30,277.12 532.65,276.14 533.00,275.31 533.35,275.02 533.70,273.12 534.05,272.97 534.40,272.67 534.75,272.29 535.10,270.58 535.45,272.16 535.80,272.38 536.15,270.28 536.50,270.21 536.85,270.18 537.20,270.54 537.55,269.62 537.90,268.60 538.25,269.32 538.60,270.22 538.95,270.41 539.30,271.49 539.65,270.24 540.00,269.93 540.35,269.96 540.70,271.76 541.05,271.10 541.40,267.82 541.75,268.87 542.10,267.31 542.45,266.03 542.80,263.71 543.15,263.87 543.50,261.84 543.85,262.31 544.20,265.04 544.55,267.70 544.90,270.87 545.25,270.77 545.60,267.95 545.95,271.04 546.30,271.34 546.65,269.40 547.00,271.45 547.35,272.19 547.70,272.84 548.05,277.70 548.40,276.70 548.75,279.40 549.10,280.10 549.45,279.09 549.80,281.53 550.15,283.60 550.50,284.29 550.85,285.61 551.20,283.58 551.55,282.61 551.90,282.79 552.25,284.66 552.60,283.45 552.95,282.74 553.30,283.24 553.65,285.33 554.00,286.94 554.35,286.39 554.70,286.48 555.05,287.02 555.40,285.31 555.75,286.88 556.10,284.83 556.45,287.94 556.80,288.32 557.15,287.57 557.50,286.03 557.85,283.90 558.20,284.54 558.55,284.83 558.90,285.66 559.25,284.29 559.60,284.02 559.95,283.07 560.30,283.83 560.65,284.06 561.00,283.76 561.35,283.94 561.70,282.73 562.05,283.45 562.40,281.22 562.75,281.22 563.10,280.34 563.45,279.47 563.80,280.24 564.15,278.45 564.50,279.62 564.85,279.91 565.20,278.46 565.55,276.96 565.90,278.11 566.25,278.63 566.60,275.59 566.95,274.04 567.30,275.26 567.65,276.78 568.00,275.61 568.35,275.30 568.70,271.98 569.05,271.48 569.40,270.57 569.75,270.48 570.10,272.26 570.45,273.27 570.80,275.38 571.15,277.67 571.50,276.22 571.85,273.62 572.20,275.82 572.55,272.64 572.90,271.16 573.25,270.16 573.60,269.92 573.95,271.38 574.30,275.85 574.65,274.33 575.00,277.54 575.35,277.26 575.70,276.28 576.05,277.94 576.40,277.53 576.75,279.63 577.10,277.51 577.45,275.83 577.80,276.67 578.15,277.09 578.50,279.17 578.85,280.22 579.20,279.88 579.55,281.65 579.90,283.54 580.25,282.57 580.60,282.52 580.95,281.57 581.30,280.78 581.65,282.10 582.00,281.61 582.35,281.33 582.70,282.46 583.05,281.27 583.40,281.92 583.75,282.93 584.10,284.41 584.45,286.67 584.80,287.13 585.15,288.09 585.50,287.80 585.85,290.19 586.20,290.47 586.55,291.58 586.90,293.09 587.25,295.38 587.60,296.02 587.95,294.48 588.30,293.65 588.65,293.88 589.00,292.62 589.35,292.25 589.70,293.28 590.05,291.47 590.40,291.53 590.75,290.60 591.10,290.14 591.45,292.00 591.80,291.40 592.15,290.11 592.50,290.94 592.85,291.48 593.20,291.52 593.55,291.05 593.90,290.44 594.25,290.23 594.60,289.78 594.95,289.37 595.30,289.04 595.65,289.31 596.00,289.16 596.35,289.15 596.70,288.83 597.05,288.31 597.40,287.91 597.75,287.71 598.10,287.79 598.45,287.95 598.80,287.79 599.15,287.71 599.50,287.62 599.85,287.41 600.20,287.49 600.55,287.37 600.90,287.05 601.25,286.70 601.60,286.39 601.95,286.44 602.30,286.13 602.65,285.51 603.00,285.43 603.35,285.46 603.70,286.02 604.05,286.94 604.40,286.91 604.75,286.53 605.10,287.15 605.45,287.21 605.80,286.73 606.15,286.05 606.50,286.63 606.85,286.53 607.20,287.72 607.55,288.53 607.90,289.04 608.25,289.18 608.60,289.94 608.95,289.51 609.30,288.47 609.65,289.11 610.00,289.94 610.35,289.94 610.70,289.69 611.05,289.94 611.40,290.29 611.75,290.34 612.10,289.97 612.45,289.36 612.80,288.97 613.15,288.84 613.50,288.73 613.85,288.84 614.20,289.36 614.55,289.73 614.90,289.82 615.25,289.69 615.60,289.11 615.95,289.05 616.30,289.28 616.65,288.93 617.00,289.23 617.35,289.18 617.70,289.60 618.05,290.40 618.40,290.70 618.75,290.76 619.10,290.62 619.45,290.54 619.80,290.53 620.15,290.42 620.50,290.17 620.85,289.88 621.20,289.72 621.55,289.42 621.90,289.14 622.25,288.70 622.60,288.30 622.95,288.76 623.30,289.05 623.65,288.94 624.00,288.82 624.35,288.69 624.70,288.12 625.05,287.92 625.40,288.12 625.75,287.78 626.10,286.85 626.45,288.13 626.80,288.03 627.15,288.78 627.50,289.71 627.85,289.90 628.20,290.23 628.55,290.76 628.90,290.24 629.25,290.80 629.60,290.43 629.95,290.60 630.30,290.74 630.65,290.76 631.00,290.89 631.35,290.13 631.70,290.41 632.05,289.82 632.40,289.59 632.75,289.76 633.10,289.73 633.45,290.20 633.80,290.62 634.15,289.72 634.50,289.95 634.85,290.32 635.20,289.40 635.55,288.52 635.90,288.91 636.25,288.54 636.60,288.62 636.95,289.05 637.30,289.83 637.65,289.40 638.00,288.48 638.35,288.05 638.70,287.63 639.05,287.14 639.40,286.26 639.75,285.93 640.10,287.23 640.45,287.41 640.80,288.04 641.15,287.25 641.50,289.52 641.85,289.44 642.20,287.48 642.55,287.66 642.90,287.19 643.25,284.49 643.60,283.38 643.95,284.48 644.30,283.56 644.65,283.33 645.00,282.81 645.35,283.93 645.70,283.01 646.05,282.04 646.40,282.38 646.75,279.80 647.10,280.76 647.45,280.36 647.80,278.26 648.15,280.42 648.50,279.64 648.85,277.88 649.20,278.56 649.55,277.92 649.90,277.00 650.25,276.81 650.60,278.16 650.95,280.84 651.30,282.67 651.65,280.25 652.00,280.21 652.35,278.54 652.70,278.06 653.05,278.24 653.40,280.49 653.75,281.84 654.10,284.35 654.45,285.69 654.80,286.63 655.15,285.22 655.50,283.66 655.85,285.24 656.20,281.13 656.55,283.06 656.90,283.96 657.25,280.60 657.60,277.34 657.95,271.57 658.30,271.41 658.65,273.90 659.00,275.56 659.35,273.60 659.70,269.05 660.05,273.56 660.40,274.16 660.75,276.87 661.10,276.10 661.45,277.05 661.80,277.43 662.15,273.02 662.50,268.09 662.85,271.11 663.20,268.21 663.55,267.34 663.90,266.79 664.25,268.57 664.60,265.55 664.95,266.82 665.30,262.40 665.65,257.41 666.00,255.89 666.35,255.13 666.70,255.10 667.05,256.90 667.40,256.48 667.75,255.81 668.10,258.71 668.45,252.49 668.80,248.92 669.15,245.50 669.50,245.32 669.85,246.22 670.20,248.40 670.55,250.19 670.90,248.85 671.25,243.14 671.60,243.72 671.95,246.17 672.30,243.51 672.65,246.73 673.00,243.69 673.35,236.79 673.70,232.10 674.05,233.37 674.40,230.33 674.75,230.46 675.10,227.56 675.45,226.49 675.80,230.17 676.15,234.34 676.50,232.92 676.85,240.15 677.20,238.87 677.55,243.09 677.90,243.42 678.25,250.67 678.60,253.93 678.95,247.95 679.30,248.56 679.65,249.80 680.00,249.93 680.35,245.95 680.70,243.90 681.05,246.54 681.40,248.22 681.75,252.83 682.10,249.82 682.45,249.33 682.80,258.81 683.15,263.62 683.50,259.32 683.85,250.66 684.20,250.08 684.55,245.68 684.90,241.43 685.25,238.05 685.60,243.10 685.95,242.54 686.30,245.06 686.65,242.56 687.00,243.74 687.35,241.02 687.70,238.20 688.05,247.40 688.40,254.47 688.75,248.27 689.10,256.54 689.45,263.48 689.80,260.98 690.15,254.88 690.50,261.27 690.85,258.26 691.20,249.94 691.55,250.48 691.90,248.89 692.25,251.56 692.60,248.79 692.95,246.23 693.30,253.67 693.65,261.15 694.00,251.70 694.35,253.92 694.70,249.76 695.05,255.07 695.40,250.55 695.75,246.46 696.10,251.90 696.45,261.24 696.80,264.33 697.15,268.29 697.50,265.77 697.85,263.71 698.20,268.00 698.55,264.44 698.90,270.55 699.25,261.55 699.60,261.78 699.95,262.32 700.30,268.70 700.65,270.09 701.00,267.43 701.35,260.94 701.70,257.92 702.05,252.73 702.40,256.50 702.75,257.91 703.10,264.22 703.45,265.58 703.80,254.91 704.15,245.59 704.50,252.88 704.85,249.40 705.20,259.97 705.55,258.25 705.90,264.83 706.25,269.98 706.60,271.74 706.95,269.38 707.30,274.95 707.65,277.49 708.00,278.52 708.35,273.92 708.70,278.90 709.05,285.49 709.40,281.47 709.75,279.05 710.10,283.08 710.45,280.98 710.80,284.60 711.15,288.91 711.50,292.06 711.85,293.95 712.20,294.17 712.55,298.57 712.90,300.37 713.25,297.96 713.60,296.55 713.95,297.24 714.30,295.72 714.65,298.35 715.00,296.24 715.35,298.91 715.70,292.05 716.05,297.06 716.40,296.80 716.75,291.28 717.10,289.95 717.45,288.43 717.80,292.39 718.15,293.07 718.50,293.40 718.85,289.23 719.20,287.03 719.55,284.91 719.90,282.12 720.25,284.14 720.60,282.16 720.95,285.97 721.30,284.45 721.65,284.28 722.00,279.60 722.35,279.69 722.70,278.84 723.05,274.44 723.40,269.80 723.75,271.93 724.10,278.10 724.45,275.86 724.80,267.91 725.15,271.46 725.50,271.04 725.85,272.01 726.20,268.10 726.55,265.77 726.90,265.12 727.25,268.80 727.60,266.42 727.95,260.87 728.30,257.88 728.65,254.24 729.00,260.08 729.35,264.67 729.70,266.64 730.05,266.97 730.40,264.93 730.75,260.12 731.10,259.65 731.45,264.48 731.80,265.27 732.15,274.54 732.50,269.20 732.85,273.66 733.20,273.17 733.55,275.26 733.90,269.01 734.25,264.70 734.60,261.43 734.95,258.44 735.30,251.04 735.65,256.51 736.00,260.95 736.35,258.01 736.70,258.57 737.05,260.31 737.40,262.98 737.75,262.94 738.10,262.23 738.45,263.59 738.80,266.86 739.15,274.37 739.50,276.76 739.85,275.76 740.20,277.49 740.55,276.77 740.90,277.09 741.25,279.79 741.60,278.69 741.95,275.79 742.30,277.33 742.65,279.37 743.00,276.81 743.35,277.00 743.70,277.61 744.05,276.87 744.40,279.44 744.75,274.82 745.10,271.92 745.45,274.28 745.80,275.31 746.15,271.47 746.50,274.31 746.85,277.56 747.20,277.57 747.55,278.40 747.90,275.47 748.25,278.64 748.60,274.12 748.95,273.40 749.30,272.23 749.65,273.69 750.00,275.52 750.35,274.60 750.70,273.91 751.05,275.10 751.40,280.08 751.75,273.09 752.10,272.39 752.45,270.21 752.80,269.32 753.15,269.23 753.50,270.65 753.85,275.17 754.20,274.82 754.55,274.97 754.90,272.05 755.25,271.30 755.60,277.88 755.95,272.35 756.30,266.04 756.65,263.07 757.00,270.77 757.35,277.33 757.70,278.77 758.05,279.15 758.40,281.69 758.75,280.69 759.10,277.28 759.45,284.40 759.80,279.15 760.15,278.39 760.50,272.02 760.85,274.02 761.20,271.77 761.55,277.41 761.90,273.51 762.25,275.73 762.60,273.03 762.95,267.45 763.30,263.68 763.65,265.08 764.00,268.44 764.35,267.23 764.70,267.11 765.05,266.83 765.40,266.72 765.75,269.61 766.10,275.60 766.45,277.49 766.80,279.05 767.15,284.02 767.50,280.81 767.85,283.37 768.20,279.72 768.55,276.29 768.90,279.53 769.25,284.94 769.60,283.61 769.95,279.11 770.30,282.39 770.65,287.04 771.00,285.08 771.35,288.45 771.70,286.69 772.05,285.43 772.40,285.47 772.75,287.64 773.10,288.38 773.45,292.81 773.80,290.10 774.15,288.98 774.50,286.10 774.85,281.81 775.20,280.71 775.55,275.25 775.90,277.57 776.25,275.29 776.60,274.63 776.95,273.81 777.30,270.55 777.65,272.95 778.00,272.80 778.35,272.22 778.70,267.71 779.05,262.53 779.40,265.75 779.75,265.67 780.10,269.62 780.45,268.82 780.80,271.96 781.15,272.73 781.50,264.74 781.85,264.98 782.20,267.35 782.55,265.51 782.90,266.80 783.25,274.36 783.60,274.83 783.95,273.11 784.30,276.01 784.65,276.81 785.00,279.53 785.00,279.08"/>
<line x1="813" y1="78" x2="839" y2="78" stroke="#dc2626" stroke-width="3"/>
<text x="847" y="82" font-family="Arial" font-size="13" fill="#111827">high volatility</text>
<polyline fill="none" stroke="#059669" stroke-width="2" points="85.00,385.02 85.35,384.99 85.70,384.96 86.05,384.93 86.40,384.91 86.75,384.90 87.10,384.88 87.45,384.86 87.80,384.84 88.15,384.82 88.50,384.80 88.85,384.77 89.20,384.76 89.55,384.73 89.90,384.71 90.25,384.70 90.60,384.68 90.95,384.65 91.30,384.62 91.65,384.60 92.00,384.58 92.35,384.55 92.70,384.54 93.05,384.52 93.40,384.49 93.75,384.44 94.10,384.39 94.45,384.39 94.80,384.39 95.15,384.29 95.50,384.24 95.85,384.22 96.20,384.05 96.55,383.83 96.90,383.59 97.25,383.49 97.60,383.51 97.95,383.52 98.30,382.93 98.65,383.16 99.00,383.25 99.35,383.06 99.70,382.35 100.05,382.41 100.40,382.07 100.75,381.89 101.10,381.97 101.45,381.39 101.80,381.08 102.15,381.19 102.50,381.31 102.85,381.21 103.20,380.99 103.55,380.92 103.90,380.59 104.25,380.94 104.60,380.44 104.95,379.61 105.30,379.80 105.65,380.20 106.00,380.90 106.35,380.95 106.70,380.77 107.05,380.08 107.40,380.44 107.75,379.95 108.10,379.45 108.45,380.08 108.80,379.26 109.15,378.96 109.50,378.33 109.85,378.83 110.20,378.37 110.55,379.73 110.90,380.00 111.25,380.20 111.60,379.29 111.95,380.59 112.30,379.32 112.65,380.22 113.00,380.33 113.35,380.87 113.70,380.12 114.05,381.95 114.40,382.27 114.75,382.28 115.10,381.46 115.45,381.37 115.80,382.00 116.15,382.02 116.50,383.17 116.85,382.17 117.20,382.46 117.55,379.77 117.90,381.74 118.25,381.41 118.60,382.57 118.95,381.43 119.30,381.07 119.65,381.30 120.00,379.88 120.35,379.08 120.70,380.59 121.05,380.20 121.40,380.61 121.75,381.01 122.10,381.39 122.45,381.96 122.80,382.18 123.15,381.84 123.50,382.01 123.85,382.97 124.20,383.92 124.55,385.75 124.90,385.91 125.25,385.58 125.60,384.66 125.95,383.79 126.30,384.33 126.65,384.68 127.00,384.53 127.35,384.71 127.70,384.86 128.05,384.22 128.40,384.21 128.75,384.43 129.10,384.46 129.45,384.97 129.80,385.09 130.15,385.00 130.50,384.53 130.85,383.90 131.20,384.01 131.55,383.95 131.90,383.06 132.25,383.55 132.60,383.33 132.95,383.06 133.30,383.37 133.65,383.29 134.00,383.47 134.35,383.31 134.70,383.75 135.05,383.60 135.40,383.74 135.75,383.76 136.10,383.94 136.45,383.76 136.80,383.49 137.15,383.35 137.50,383.45 137.85,383.86 138.20,383.98 138.55,383.93 138.90,384.24 139.25,384.56 139.60,384.31 139.95,384.93 140.30,384.61 140.65,384.41 141.00,384.25 141.35,383.91 141.70,383.90 142.05,383.68 142.40,383.78 142.75,383.59 143.10,383.53 143.45,383.62 143.80,383.61 144.15,383.55 144.50,383.95 144.85,383.90 145.20,384.12 145.55,383.89 145.90,383.84 146.25,383.70 146.60,383.86 146.95,383.75 147.30,383.71 147.65,383.42 148.00,383.36 148.35,383.29 148.70,382.87 149.05,382.98 149.40,383.05 149.75,383.26 150.10,383.26 150.45,383.11 150.80,382.96 151.15,382.42 151.50,382.55 151.85,382.75 152.20,382.76 152.55,382.69 152.90,382.78 153.25,382.60 153.60,382.61 153.95,382.75 154.30,382.90 154.65,382.76 155.00,382.51 155.35,382.39 155.70,382.54 156.05,382.29 156.40,382.47 156.75,382.39 157.10,382.51 157.45,382.47 157.80,382.51 158.15,382.17 158.50,381.95 158.85,382.38 159.20,382.23 159.55,382.01 159.90,381.89 160.25,381.95 160.60,381.67 160.95,381.28 161.30,380.94 161.65,380.89 162.00,381.12 162.35,381.37 162.70,381.45 163.05,381.58 163.40,381.91 163.75,382.09 164.10,382.16 164.45,382.44 164.80,383.07 165.15,383.29 165.50,383.33 165.85,383.42 166.20,383.90 166.55,383.88 166.90,384.10 167.25,383.98 167.60,384.18 167.95,384.20 168.30,384.31 168.65,384.33 169.00,384.18 169.35,384.25 169.70,384.14 170.05,384.10 170.40,383.98 170.75,383.89 171.10,383.79 171.45,383.77 171.80,383.74 172.15,383.73 172.50,383.68 172.85,383.65 173.20,383.54 173.55,383.61 173.90,383.51 174.25,383.36 174.60,383.53 174.95,383.64 175.30,383.56 175.65,383.18 176.00,383.17 176.35,383.09 176.70,383.19 177.05,382.82 177.40,382.75 177.75,382.89 178.10,383.02 178.45,382.04 178.80,382.09 179.15,382.54 179.50,382.11 179.85,381.98 180.20,381.08 180.55,380.91 180.90,380.13 181.25,378.96 181.60,378.13 181.95,378.85 182.30,378.89 182.65,378.64 183.00,379.13 183.35,378.50 183.70,377.54 184.05,377.99 184.40,377.63 184.75,377.43 185.10,377.73 185.45,377.70 185.80,376.63 186.15,377.42 186.50,375.83 186.85,376.27 187.20,375.12 187.55,373.36 187.90,375.22 188.25,373.94 188.60,374.75 188.95,373.87 189.30,374.84 189.65,374.37 190.00,374.02 190.35,373.02 190.70,373.24 191.05,376.48 191.40,377.08 191.75,378.01 192.10,376.99 192.45,377.01 192.80,374.16 193.15,373.56 193.50,374.75 193.85,374.94 194.20,375.58 194.55,373.93 194.90,376.00 195.25,377.24 195.60,376.79 195.95,376.57 196.30,376.15 196.65,376.82 197.00,377.67 197.35,382.18 197.70,382.32 198.05,383.00 198.40,381.68 198.75,382.80 199.10,384.08 199.45,384.28 199.80,381.77 200.15,381.79 200.50,382.40 200.85,381.78 201.20,378.81 201.55,379.90 201.90,378.03 202.25,378.62 202.60,376.48 202.95,375.54 203.30,374.80 203.65,375.91 204.00,374.83 204.35,373.03 204.70,375.94 205.05,377.19 205.40,377.58 205.75,379.26 206.10,377.38 206.45,380.28 206.80,378.08 207.15,377.19 207.50,376.14 207.85,374.44 208.20,374.81 208.55,374.34 208.90,373.00 209.25,373.28 209.60,373.85 209.95,373.87 210.30,373.59 210.65,376.86 211.00,377.20 211.35,376.93 211.70,378.51 212.05,380.74 212.40,381.92 212.75,378.27 213.10,375.61 213.45,375.23 213.80,371.45 214.15,372.16 214.50,372.50 214.85,372.97 215.20,372.02 215.55,375.67 215.90,372.33 216.25,372.17 216.60,369.25 216.95,366.60 217.30,365.92 217.65,366.86 218.00,366.17 218.35,367.09 218.70,370.95 219.05,369.82 219.40,367.80 219.75,370.50 220.10,369.21 220.45,368.55 220.80,371.08 221.15,372.13 221.50,371.19 221.85,369.00 222.20,370.23 222.55,370.18 222.90,369.01 223.25,367.06 223.60,363.21 223.95,365.17 224.30,362.19 224.65,358.73 225.00,356.42 225.35,357.50 225.70,352.42 226.05,351.53 226.40,352.46 226.75,351.75 227.10,350.04 227.45,348.46 227.80,346.87 228.15,348.44 228.50,351.40 228.85,353.61 229.20,356.73 229.55,355.71 229.90,358.93 230.25,355.36 230.60,359.61 230.95,356.92 231.30,355.49 231.65,353.26 232.00,353.65 232.35,352.85 232.70,356.02 233.05,358.66 233.40,356.66 233.75,358.54 234.10,361.23 234.45,361.32 234.80,360.78 235.15,361.73 235.50,365.45 235.85,360.51 236.20,359.01 236.55,357.17 236.90,353.55 237.25,349.25 237.60,349.84 237.95,348.43 238.30,347.91 238.65,345.21 239.00,343.08 239.35,345.34 239.70,342.45 240.05,338.37 240.40,339.31 240.75,339.63 241.10,339.00 241.45,345.05 241.80,344.71 242.15,347.78 242.50,352.17 242.85,349.93 243.20,352.15 243.55,355.87 243.90,359.18 244.25,359.00 244.60,360.24 244.95,356.20 245.30,348.31 245.65,348.54 246.00,352.76 246.35,352.54 246.70,346.02 247.05,345.12 247.40,349.09 247.75,354.56 248.10,359.72 248.45,355.42 248.80,356.50 249.15,360.86 249.50,360.03 249.85,354.58 250.20,361.90 250.55,352.04 250.90,352.07 251.25,347.29 251.60,343.82 251.95,338.99 252.30,339.00 252.65,339.80 253.00,340.54 253.35,342.54 253.70,345.44 254.05,346.46 254.40,347.14 254.75,348.93 255.10,345.50 255.45,354.25 255.80,355.85 256.15,343.71 256.50,345.45 256.85,343.24 257.20,352.32 257.55,349.97 257.90,345.67 258.25,348.16 258.60,346.86 258.95,342.48 259.30,345.65 259.65,349.00 260.00,352.04 260.35,342.77 260.70,349.35 261.05,343.29 261.40,342.79 261.75,337.87 262.10,337.36 262.45,338.19 262.80,336.91 263.15,335.79 263.50,339.04 263.85,339.01 264.20,331.45 264.55,326.15 264.90,325.21 265.25,320.32 265.60,328.44 265.95,334.45 266.30,333.46 266.65,330.68 267.00,335.48 267.35,332.75 267.70,334.03 268.05,342.63 268.40,341.50 268.75,346.18 269.10,348.20 269.45,349.27 269.80,356.48 270.15,358.13 270.50,352.97 270.85,353.81 271.20,355.55 271.55,349.09 271.90,346.78 272.25,344.96 272.60,346.55 272.95,338.75 273.30,344.09 273.65,339.89 274.00,344.62 274.35,344.00 274.70,336.14 275.05,347.07 275.40,345.44 275.75,341.52 276.10,341.17 276.45,337.32 276.80,344.31 277.15,342.12 277.50,339.01 277.85,338.04 278.20,334.13 278.55,328.43 278.90,326.74 279.25,324.33 279.60,328.41 279.95,334.33 280.30,337.66 280.65,328.69 281.00,329.57 281.35,325.42 281.70,333.52 282.05,331.66 282.40,329.43 282.75,327.86 283.10,335.06 283.45,327.74 283.80,324.44 284.15,326.37 284.50,325.58 284.85,326.74 285.20,329.70 285.55,318.07 285.90,313.43 286.25,319.78 286.60,320.59 286.95,325.65 287.30,325.68 287.65,327.37 288.00,335.39 288.35,335.91 288.70,333.43 289.05,340.12 289.40,342.95 289.75,335.05 290.10,334.21 290.45,332.92 290.80,336.69 291.15,338.17 291.50,332.51 291.85,328.77 292.20,326.04 292.55,329.39 292.90,324.57 293.25,318.38 293.60,315.34 293.95,319.59 294.30,327.85 294.65,325.55 295.00,323.00 295.35,325.55 295.70,321.34 296.05,320.71 296.40,320.52 296.75,324.99 297.10,330.45 297.45,327.42 297.80,330.93 298.15,338.53 298.50,341.03 298.85,338.09 299.20,337.21 299.55,331.07 299.90,336.69 300.25,334.62 300.60,330.69 300.95,330.20 301.30,338.94 301.65,338.34 302.00,341.78 302.35,339.30 302.70,336.59 303.05,326.48 303.40,324.80 303.75,330.20 304.10,335.68 304.45,333.61 304.80,333.23 305.15,330.76 305.50,336.40 305.85,340.93 306.20,349.82 306.55,350.79 306.90,348.80 307.25,351.24 307.60,357.94 307.95,346.91 308.30,343.14 308.65,343.68 309.00,343.34 309.35,351.94 309.70,350.90 310.05,360.71 310.40,353.38 310.75,360.65 311.10,365.62 311.45,366.84 311.80,377.67 312.15,379.61 312.50,382.03 312.85,382.15 313.20,382.08 313.55,379.30 313.90,374.51 314.25,375.00 314.60,373.77 314.95,374.82 315.30,377.94 315.65,382.22 316.00,382.29 316.35,390.63 316.70,395.24 317.05,388.57 317.40,385.09 317.75,393.55 318.10,397.11 318.45,398.84 318.80,402.19 319.15,403.29 319.50,401.26 319.85,401.47 320.20,405.50 320.55,405.79 320.90,397.75 321.25,391.42 321.60,388.90 321.95,388.82 322.30,388.24 322.65,395.65 323.00,396.60 323.35,401.44 323.70,401.41 324.05,398.85 324.40,399.83 324.75,399.71 325.10,402.58 325.45,409.20 325.80,414.75 326.15,416.88 326.50,419.40 326.85,411.55 327.20,403.64 327.55,407.88 327.90,415.71 328.25,419.93 328.60,420.23 328.95,425.12 329.30,422.79 329.65,419.28 330.00,423.77 330.35,418.73 330.70,419.21 331.05,415.05 331.40,424.37 331.75,421.64 332.10,430.07 332.45,435.85 332.80,436.15 333.15,440.48 333.50,436.18 333.85,436.59 334.20,440.19 334.55,438.62 334.90,434.44 335.25,432.33 335.60,432.46 335.95,434.49 336.30,430.65 336.65,428.45 337.00,422.97 337.35,419.96 337.70,422.41 338.05,420.20 338.40,419.48 338.75,417.60 339.10,418.11 339.45,415.67 339.80,417.55 340.15,419.32 340.50,415.89 340.85,413.27 341.20,411.89 341.55,408.65 341.90,406.34 342.25,405.37 342.60,405.03 342.95,409.39 343.30,414.03 343.65,412.30 344.00,410.39 344.35,414.86 344.70,410.21 345.05,409.25 345.40,413.11 345.75,411.72 346.10,414.29 346.45,413.68 346.80,416.89 347.15,415.89 347.50,415.52 347.85,414.68 348.20,412.21 348.55,413.66 348.90,413.56 349.25,414.26 349.60,414.47 349.95,412.64 350.30,411.17 350.65,411.72 351.00,409.26 351.35,411.01 351.70,412.44 352.05,410.43 352.40,411.86 352.75,411.66 353.10,408.40 353.45,408.39 353.80,406.00 354.15,402.88 354.50,400.41 354.85,395.79 355.20,394.21 355.55,396.93 355.90,396.09 356.25,396.57 356.60,397.55 356.95,398.45 357.30,396.89 357.65,399.29 358.00,395.55 358.35,394.80 358.70,398.34 359.05,399.54 359.40,401.08 359.75,403.90 360.10,403.67 360.45,407.07 360.80,403.33 361.15,400.86 361.50,401.73 361.85,402.42 362.20,401.89 362.55,403.84 362.90,402.02 363.25,401.66 363.60,402.38 363.95,401.36 364.30,402.07 364.65,402.44 365.00,404.83 365.35,405.97 365.70,407.29 366.05,407.02 366.40,411.71 366.75,414.02 367.10,415.13 367.45,413.02 367.80,414.02 368.15,414.42 368.50,413.50 368.85,412.29 369.20,408.50 369.55,408.68 369.90,408.81 370.25,408.50 370.60,408.47 370.95,408.15 371.30,407.64 371.65,408.70 372.00,407.72 372.35,408.31 372.70,407.64 373.05,404.12 373.40,404.37 373.75,403.81 374.10,405.81 374.45,404.37 374.80,402.33 375.15,404.02 375.50,405.59 375.85,405.81 376.20,404.64 376.55,405.03 376.90,404.54 377.25,404.82 377.60,406.17 377.95,408.57 378.30,411.57 378.65,408.49 379.00,408.50 379.35,411.40 379.70,412.21 380.05,409.74 380.40,410.27 380.75,411.55 381.10,411.81 381.45,409.69 381.80,407.61 382.15,408.05 382.50,409.30 382.85,409.25 383.20,407.77 383.55,407.43 383.90,409.42 384.25,409.66 384.60,411.20 384.95,410.87 385.30,411.79 385.65,412.06 386.00,412.29 386.35,411.87 386.70,412.85 387.05,412.35 387.40,413.54 387.75,414.21 388.10,416.11 388.45,417.64 388.80,418.47 389.15,419.16 389.50,418.83 389.85,418.10 390.20,420.23 390.55,419.15 390.90,418.05 391.25,418.14 391.60,419.19 391.95,419.43 392.30,419.39 392.65,419.28 393.00,418.74 393.35,418.21 393.70,418.94 394.05,417.72 394.40,417.63 394.75,416.18 395.10,417.62 395.45,417.26 395.80,416.51 396.15,415.61 396.50,415.40 396.85,415.35 397.20,415.56 397.55,414.81 397.90,414.99 398.25,414.10 398.60,412.69 398.95,413.10 399.30,412.25 399.65,411.60 400.00,412.55 400.35,413.63 400.70,414.38 401.05,413.29 401.40,413.79 401.75,412.85 402.10,411.86 402.45,411.68 402.80,411.54 403.15,412.32 403.50,412.53 403.85,412.57 404.20,412.90 404.55,412.42 404.90,412.24 405.25,411.74 405.60,410.94 405.95,411.76 406.30,413.48 406.65,412.81 407.00,412.68 407.35,411.46 407.70,411.15 408.05,411.07 408.40,411.26 408.75,410.87 409.10,411.13 409.45,410.66 409.80,410.92 410.15,410.45 410.50,410.65 410.85,410.17 411.20,410.26 411.55,410.58 411.90,410.69 412.25,410.76 412.60,411.86 412.95,411.95 413.30,411.67 413.65,411.69 414.00,411.54 414.35,412.16 414.70,411.57 415.05,412.11 415.40,413.35 415.75,413.18 416.10,413.87 416.45,413.28 416.80,413.53 417.15,413.46 417.50,414.01 417.85,413.41 418.20,413.77 418.55,413.54 418.90,414.23 419.25,414.35 419.60,414.29 419.95,414.78 420.30,415.00 420.65,414.97 421.00,414.37 421.35,414.21 421.70,414.56 422.05,414.23 422.40,413.96 422.75,414.09 423.10,414.24 423.45,413.80 423.80,413.61 424.15,413.59 424.50,413.57 424.85,413.52 425.20,413.36 425.55,413.23 425.90,413.12 426.25,412.98 426.60,412.86 426.95,412.75 427.30,412.61 427.65,412.44 428.00,412.19 428.35,412.02 428.70,411.64 429.05,411.30 429.40,411.01 429.75,410.89 430.10,410.38 430.45,409.79 430.80,409.56 431.15,409.09 431.50,408.69 431.85,408.53 432.20,408.19 432.55,406.89 432.90,406.65 433.25,406.80 433.60,406.00 433.95,405.52 434.30,405.17 434.65,404.78 435.00,404.29 435.35,403.31 435.70,402.38 436.05,402.66 436.40,401.40 436.75,400.48 437.10,399.32 437.45,399.60 437.80,398.42 438.15,397.23 438.50,397.27 438.85,396.94 439.20,395.91 439.55,394.77 439.90,394.98 440.25,394.23 440.60,393.75 440.95,392.77 441.30,391.02 441.65,390.59 442.00,391.86 442.35,392.25 442.70,391.63 443.05,391.61 443.40,392.64 443.75,392.92 444.10,391.85 444.45,392.57 444.80,390.91 445.15,389.72 445.50,390.40 445.85,389.28 446.20,388.05 446.55,387.19 446.90,387.45 447.25,385.91 447.60,385.85 447.95,386.00 448.30,387.11 448.65,386.42 449.00,384.88 449.35,387.87 449.70,384.55 450.05,382.01 450.40,382.77 450.75,383.57 451.10,383.37 451.45,381.44 451.80,382.88 452.15,381.42 452.50,381.66 452.85,378.66 453.20,379.06 453.55,380.20 453.90,378.40 454.25,379.20 454.60,380.99 454.95,378.70 455.30,378.92 455.65,377.55 456.00,375.67 456.35,374.34 456.70,375.44 457.05,374.54 457.40,377.42 457.75,375.66 458.10,377.65 458.45,376.22 458.80,376.09 459.15,374.59 459.50,374.25 459.85,374.48 460.20,375.30 460.55,377.82 460.90,373.95 461.25,374.12 461.60,372.80 461.95,372.88 462.30,372.02 462.65,369.57 463.00,368.62 463.35,371.90 463.70,373.30 464.05,370.68 464.40,372.17 464.75,372.50 465.10,375.83 465.45,380.01 465.80,379.32 466.15,378.14 466.50,380.16 466.85,379.85 467.20,378.89 467.55,380.46 467.90,384.70 468.25,381.65 468.60,381.41 468.95,381.70 469.30,378.83 469.65,378.43 470.00,375.54 470.35,375.79 470.70,374.70 471.05,376.24 471.40,381.62 471.75,381.26 472.10,376.88 472.45,374.96 472.80,379.49 473.15,383.07 473.50,384.98 473.85,387.64 474.20,389.42 474.55,389.84 474.90,386.51 475.25,388.11 475.60,386.99 475.95,387.31 476.30,381.73 476.65,381.85 477.00,378.31 477.35,378.56 477.70,377.25 478.05,374.76 478.40,378.13 478.75,377.18 479.10,374.47 479.45,375.23 479.80,375.16 480.15,375.70 480.50,374.37 480.85,376.86 481.20,376.08 481.55,376.51 481.90,373.03 482.25,374.85 482.60,375.01 482.95,377.00 483.30,377.28 483.65,381.14 484.00,381.99 484.35,382.93 484.70,383.09 485.05,381.26 485.40,377.54 485.75,378.31 486.10,375.80 486.45,375.86 486.80,376.31 487.15,375.42 487.50,376.71 487.85,372.75 488.20,372.94 488.55,372.89 488.90,370.43 489.25,367.99 489.60,370.61 489.95,372.77 490.30,371.39 490.65,371.33 491.00,370.97 491.35,374.54 491.70,376.93 492.05,379.74 492.40,380.38 492.75,382.81 493.10,386.27 493.45,385.00 493.80,382.30 494.15,380.11 494.50,383.12 494.85,386.15 495.20,385.23 495.55,386.51 495.90,391.82 496.25,393.78 496.60,390.69 496.95,391.79 497.30,390.56 497.65,392.18 498.00,393.39 498.35,390.46 498.70,388.60 499.05,389.08 499.40,389.56 499.75,388.32 500.10,389.22 500.45,387.59 500.80,390.03 501.15,390.92 501.50,389.75 501.85,391.46 502.20,391.49 502.55,392.45 502.90,393.33 503.25,394.18 503.60,396.21 503.95,398.14 504.30,398.44 504.65,401.56 505.00,405.06 505.35,404.41 505.70,402.26 506.05,399.79 506.40,399.21 506.75,399.81 507.10,401.92 507.45,403.59 507.80,403.29 508.15,403.01 508.50,405.14 508.85,405.17 509.20,406.50 509.55,406.29 509.90,408.36 510.25,407.62 510.60,409.96 510.95,410.84 511.30,412.25 511.65,412.85 512.00,412.27 512.35,413.10 512.70,413.72 513.05,413.83 513.40,412.95 513.75,415.13 514.10,414.20 514.45,412.60 514.80,412.28 515.15,410.34 515.50,410.62 515.85,411.11 516.20,411.99 516.55,412.28 516.90,413.72 517.25,412.27 517.60,411.77 517.95,411.54 518.30,411.51 518.65,411.35 519.00,411.64 519.35,412.32 519.70,411.41 520.05,409.61 520.40,409.44 520.75,409.20 521.10,408.54 521.45,408.31 521.80,408.37 522.15,408.64 522.50,407.89 522.85,407.29 523.20,407.66 523.55,408.53 523.90,408.58 524.25,408.39 524.60,408.72 524.95,408.18 525.30,407.49 525.65,407.91 526.00,407.45 526.35,406.80 526.70,406.94 527.05,407.83 527.40,407.46 527.75,407.63 528.10,407.92 528.45,408.20 528.80,407.99 529.15,407.42 529.50,407.83 529.85,407.71 530.20,407.12 530.55,407.29 530.90,407.35 531.25,407.26 531.60,406.85 531.95,407.14 532.30,407.22 532.65,406.69 533.00,407.19 533.35,406.78 533.70,406.43 534.05,406.80 534.40,406.07 534.75,406.20 535.10,406.32 535.45,406.51 535.80,406.46 536.15,406.80 536.50,406.57 536.85,405.92 537.20,405.58 537.55,406.12 537.90,406.13 538.25,406.01 538.60,406.66 538.95,407.29 539.30,407.88 539.65,408.25 540.00,408.15 540.35,408.14 540.70,407.89 541.05,407.17 541.40,406.90 541.75,406.95 542.10,406.96 542.45,406.60 542.80,406.47 543.15,406.78 543.50,406.81 543.85,407.15 544.20,406.94 544.55,407.08 544.90,406.85 545.25,406.23 545.60,406.51 545.95,406.84 546.30,406.29 546.65,406.10 547.00,405.76 547.35,405.45 547.70,405.62 548.05,405.62 548.40,405.81 548.75,405.83 549.10,405.91 549.45,405.85 549.80,406.07 550.15,406.10 550.50,405.49 550.85,405.48 551.20,405.40 551.55,404.99 551.90,405.14 552.25,404.77 552.60,405.25 552.95,405.30 553.30,406.27 553.65,406.22 554.00,406.23 554.35,407.04 554.70,406.98 555.05,407.17 555.40,407.43 555.75,407.69 556.10,407.76 556.45,407.80 556.80,407.72 557.15,407.00 557.50,406.62 557.85,406.55 558.20,406.72 558.55,406.80 558.90,406.77 559.25,406.52 559.60,406.33 559.95,406.53 560.30,406.31 560.65,406.18 561.00,406.08 561.35,406.03 561.70,406.07 562.05,406.04 562.40,405.80 562.75,406.01 563.10,405.92 563.45,405.97 563.80,406.14 564.15,406.39 564.50,406.18 564.85,405.86 565.20,405.89 565.55,405.81 565.90,405.92 566.25,406.12 566.60,406.40 566.95,406.57 567.30,406.84 567.65,406.52 568.00,406.67 568.35,406.36 568.70,406.38 569.05,406.13 569.40,406.12 569.75,406.27 570.10,405.87 570.45,406.11 570.80,406.51 571.15,406.28 571.50,406.34 571.85,406.46 572.20,406.78 572.55,406.70 572.90,406.62 573.25,406.70 573.60,406.76 573.95,406.84 574.30,406.87 574.65,406.91 575.00,406.89 575.35,406.79 575.70,406.77 576.05,406.71 576.40,406.63 576.75,406.58 577.10,406.55 577.45,406.47 577.80,406.45 578.15,406.36 578.50,406.35 578.85,406.30 579.20,406.43 579.55,406.45 579.90,406.48 580.25,406.49 580.60,406.63 580.95,406.28 581.30,406.00 581.65,405.97 582.00,406.15 582.35,405.59 582.70,405.52 583.05,405.11 583.40,405.22 583.75,405.19 584.10,404.43 584.45,404.35 584.80,404.03 585.15,403.43 585.50,404.39 585.85,404.70 586.20,404.21 586.55,404.78 586.90,404.26 587.25,404.04 587.60,403.71 587.95,403.53 588.30,404.23 588.65,403.79 589.00,404.36 589.35,404.62 589.70,405.53 590.05,406.28 590.40,405.47 590.75,405.67 591.10,405.30 591.45,405.00 591.80,406.15 592.15,407.00 592.50,408.17 592.85,408.16 593.20,408.53 593.55,409.67 593.90,409.15 594.25,408.11 594.60,406.84 594.95,406.07 595.30,407.70 595.65,408.71 596.00,408.26 596.35,407.80 596.70,408.82 597.05,409.39 597.40,409.27 597.75,409.09 598.10,408.50 598.45,408.44 598.80,408.06 599.15,407.77 599.50,407.73 599.85,409.00 600.20,410.08 600.55,410.92 600.90,411.16 601.25,411.57 601.60,411.62 601.95,411.54 602.30,411.40 602.65,410.33 603.00,410.78 603.35,409.81 603.70,410.34 604.05,411.26 604.40,411.59 604.75,412.03 605.10,412.35 605.45,412.12 605.80,411.87 606.15,411.56 606.50,411.64 606.85,411.97 607.20,412.21 607.55,412.00 607.90,412.04 608.25,411.74 608.60,412.09 608.95,411.96 609.30,411.90 609.65,411.59 610.00,411.57 610.35,411.61 610.70,411.94 611.05,411.68 611.40,411.61 611.75,411.47 612.10,411.51 612.45,411.37 612.80,411.43 613.15,411.35 613.50,411.36 613.85,411.19 614.20,411.07 614.55,410.92 614.90,410.84 615.25,410.68 615.60,410.65 615.95,410.58 616.30,410.73 616.65,410.74 617.00,410.60 617.35,410.67 617.70,410.07 618.05,410.33 618.40,410.68 618.75,410.78 619.10,411.01 619.45,410.95 619.80,410.90 620.15,411.44 620.50,411.04 620.85,411.00 621.20,410.70 621.55,410.77 621.90,410.40 622.25,409.49 622.60,409.43 622.95,409.68 623.30,409.07 623.65,408.83 624.00,408.96 624.35,408.46 624.70,409.23 625.05,409.81 625.40,409.99 625.75,409.51 626.10,408.55 626.45,408.77 626.80,408.51 627.15,409.34 627.50,408.59 627.85,408.23 628.20,407.27 628.55,407.22 628.90,406.97 629.25,404.07 629.60,403.65 629.95,402.18 630.30,402.66 630.65,403.50 631.00,403.60 631.35,401.83 631.70,402.01 632.05,402.34 632.40,400.49 632.75,399.66 633.10,400.17 633.45,401.13 633.80,400.57 634.15,398.21 634.50,398.05 634.85,395.76 635.20,393.27 635.55,392.93 635.90,392.11 636.25,391.88 636.60,391.95 636.95,391.35 637.30,390.00 637.65,390.30 638.00,389.36 638.35,390.05 638.70,391.54 639.05,391.97 639.40,391.57 639.75,389.57 640.10,392.04 640.45,391.23 640.80,391.11 641.15,388.70 641.50,385.79 641.85,387.01 642.20,385.64 642.55,386.66 642.90,386.02 643.25,384.80 643.60,385.49 643.95,385.14 644.30,381.38 644.65,378.26 645.00,376.50 645.35,374.03 645.70,376.47 646.05,373.06 646.40,369.77 646.75,369.47 647.10,367.57 647.45,366.92 647.80,368.18 648.15,366.77 648.50,361.50 648.85,365.00 649.20,364.63 649.55,364.60 649.90,361.38 650.25,360.29 650.60,359.30 650.95,355.41 651.30,354.20 651.65,354.11 652.00,354.64 652.35,354.02 652.70,350.66 653.05,351.74 653.40,351.80 653.75,350.31 654.10,348.56 654.45,352.43 654.80,348.82 655.15,344.83 655.50,343.78 655.85,342.75 656.20,344.93 656.55,346.18 656.90,346.95 657.25,344.00 657.60,341.49 657.95,341.09 658.30,337.95 658.65,341.54 659.00,339.31 659.35,337.43 659.70,340.58 660.05,339.09 660.40,343.79 660.75,341.90 661.10,341.44 661.45,345.36 661.80,341.78 662.15,342.05 662.50,337.39 662.85,332.53 663.20,328.99 663.55,325.21 663.90,326.93 664.25,323.51 664.60,326.50 664.95,322.40 665.30,322.46 665.65,323.25 666.00,321.75 666.35,318.65 666.70,316.53 667.05,318.30 667.40,315.13 667.75,318.47 668.10,319.60 668.45,315.35 668.80,314.60 669.15,314.38 669.50,316.15 669.85,317.16 670.20,314.50 670.55,313.86 670.90,314.06 671.25,311.86 671.60,313.70 671.95,308.78 672.30,307.09 672.65,311.90 673.00,312.78 673.35,311.22 673.70,310.39 674.05,311.39 674.40,314.79 674.75,312.93 675.10,316.65 675.45,317.62 675.80,316.63 676.15,311.21 676.50,309.38 676.85,313.10 677.20,313.88 677.55,310.76 677.90,310.11 678.25,314.31 678.60,312.57 678.95,309.09 679.30,306.12 679.65,306.30 680.00,300.79 680.35,297.09 680.70,295.70 681.05,295.31 681.40,296.33 681.75,301.06 682.10,291.44 682.45,291.99 682.80,289.69 683.15,285.23 683.50,277.68 683.85,271.71 684.20,277.18 684.55,277.69 684.90,277.30 685.25,281.83 685.60,281.03 685.95,279.36 686.30,277.52 686.65,283.17 687.00,284.67 687.35,281.31 687.70,281.92 688.05,277.07 688.40,276.90 688.75,281.16 689.10,278.46 689.45,273.79 689.80,277.64 690.15,279.91 690.50,282.03 690.85,282.57 691.20,285.72 691.55,292.01 691.90,294.38 692.25,304.08 692.60,304.81 692.95,308.63 693.30,303.06 693.65,302.69 694.00,304.22 694.35,298.00 694.70,295.12 695.05,289.17 695.40,292.99 695.75,296.34 696.10,291.99 696.45,290.30 696.80,292.34 697.15,293.74 697.50,293.53 697.85,287.89 698.20,287.62 698.55,289.33 698.90,287.12 699.25,286.76 699.60,294.15 699.95,298.09 700.30,300.68 700.65,287.40 701.00,290.76 701.35,287.86 701.70,288.57 702.05,284.69 702.40,286.12 702.75,274.29 703.10,269.40 703.45,270.73 703.80,273.58 704.15,269.39 704.50,269.86 704.85,266.94 705.20,270.52 705.55,271.74 705.90,275.56 706.25,276.26 706.60,277.32 706.95,285.81 707.30,286.18 707.65,287.84 708.00,286.61 708.35,281.74 708.70,283.53 709.05,282.70 709.40,282.79 709.75,285.49 710.10,285.32 710.45,279.59 710.80,282.77 711.15,277.25 711.50,277.85 711.85,279.42 712.20,278.37 712.55,277.17 712.90,283.14 713.25,283.43 713.60,287.09 713.95,280.78 714.30,275.97 714.65,284.66 715.00,277.96 715.35,273.72 715.70,272.70 716.05,277.18 716.40,279.71 716.75,275.06 717.10,274.38 717.45,280.41 717.80,280.38 718.15,278.85 718.50,264.41 718.85,270.07 719.20,270.46 719.55,271.08 719.90,268.48 720.25,271.16 720.60,274.21 720.95,275.56 721.30,275.13 721.65,274.30 722.00,280.86 722.35,278.21 722.70,278.45 723.05,276.16 723.40,277.17 723.75,270.60 724.10,266.53 724.45,271.97 724.80,269.43 725.15,269.29 725.50,269.43 725.85,266.70 726.20,273.64 726.55,270.48 726.90,264.17 727.25,264.74 727.60,264.90 727.95,258.70 728.30,261.19 728.65,259.60 729.00,264.94 729.35,266.17 729.70,261.90 730.05,257.54 730.40,258.97 730.75,256.08 731.10,258.51 731.45,253.67 731.80,252.67 732.15,250.06 732.50,251.35 732.85,255.52 733.20,260.18 733.55,264.81 733.90,250.91 734.25,245.89 734.60,240.94 734.95,247.13 735.30,247.70 735.65,250.66 736.00,245.89 736.35,252.70 736.70,249.18 737.05,242.79 737.40,245.64 737.75,252.79 738.10,247.77 738.45,244.59 738.80,243.97 739.15,246.64 739.50,244.23 739.85,245.87 740.20,251.40 740.55,250.00 740.90,251.30 741.25,254.19 741.60,251.69 741.95,256.09 742.30,253.48 742.65,265.49 743.00,269.99 743.35,270.69 743.70,276.61 744.05,290.70 744.40,296.11 744.75,284.55 745.10,282.26 745.45,278.77 745.80,272.91 746.15,269.23 746.50,255.20 746.85,253.56 747.20,255.84 747.55,262.47 747.90,262.29 748.25,261.52 748.60,253.00 748.95,244.15 749.30,244.10 749.65,244.05 750.00,235.97 750.35,234.79 750.70,236.98 751.05,246.24 751.40,244.28 751.75,242.31 752.10,232.32 752.45,235.28 752.80,236.25 753.15,243.28 753.50,246.28 753.85,252.49 754.20,247.38 754.55,253.66 754.90,260.44 755.25,265.26 755.60,270.48 755.95,273.47 756.30,271.70 756.65,271.97 757.00,265.27 757.35,266.94 757.70,270.32 758.05,268.11 758.40,260.49 758.75,253.11 759.10,241.75 759.45,245.75 759.80,251.42 760.15,253.31 760.50,257.58 760.85,258.72 761.20,250.19 761.55,249.14 761.90,243.30 762.25,241.32 762.60,239.53 762.95,247.74 763.30,249.18 763.65,253.22 764.00,260.70 764.35,259.33 764.70,253.81 765.05,252.16 765.40,252.12 765.75,248.80 766.10,241.67 766.45,241.01 766.80,241.70 767.15,237.42 767.50,239.41 767.85,239.20 768.20,242.62 768.55,246.40 768.90,248.45 769.25,249.67 769.60,253.35 769.95,253.66 770.30,257.55 770.65,258.77 771.00,261.78 771.35,253.39 771.70,261.28 772.05,260.67 772.40,254.27 772.75,262.20 773.10,268.03 773.45,260.08 773.80,262.86 774.15,261.34 774.50,262.73 774.85,263.38 775.20,256.04 775.55,258.08 775.90,252.87 776.25,248.89 776.60,244.18 776.95,240.83 777.30,242.49 777.65,233.12 778.00,236.44 778.35,235.94 778.70,246.05 779.05,252.15 779.40,253.83 779.75,249.55 780.10,259.59 780.45,250.62 780.80,246.03 781.15,247.26 781.50,254.77 781.85,252.30 782.20,245.55 782.55,249.49 782.90,250.31 783.25,251.70 783.60,254.26 783.95,248.40 784.30,255.17 784.65,253.89 785.00,258.02 785.00,275.60"/>
<line x1="813" y1="102" x2="839" y2="102" stroke="#059669" stroke-width="3"/>
<text x="847" y="106" font-family="Arial" font-size="13" fill="#111827">trending</text>
<text x="435.0" y="518" text-anchor="middle" font-family="Arial" font-size="14" fill="#111827">Event index</text>
<text x="22" y="256.0" text-anchor="middle" transform="rotate(-90 22 256.0)" font-family="Arial" font-size="14" fill="#111827">Net PnL after fees</text>
</svg>
