<svg xmlns="http://www.w3.org/2000/svg" width="940" height="540" viewBox="0 0 940 540">
<rect width="100%" height="100%" fill="#ffffff"/>
<text x="470.0" y="26" text-anchor="middle" font-family="Arial" font-size="18" fill="#111827">High Volatility Cumulative PnL After Fees</text>
<line x1="85" y1="470" x2="755" y2="470" stroke="#111827" stroke-width="1"/>
<line x1="85" y1="42" x2="85" y2="470" stroke="#111827" stroke-width="1"/>
<line x1="85.00" y1="42" x2="85.00" y2="470" stroke="#e5e7eb" stroke-width="1"/>
<text x="85.00" y="494" text-anchor="middle" font-family="Arial" font-size="12" fill="#374151">0</text>
<line x1="252.50" y1="42" x2="252.50" y2="470" stroke="#e5e7eb" stroke-width="1"/>
<text x="252.50" y="494" text-anchor="middle" font-family="Arial" font-size="12" fill="#374151">50000</text>
<line x1="420.00" y1="42" x2="420.00" y2="470" stroke="#e5e7eb" stroke-width="1"/>
<text x="420.00" y="494" text-anchor="middle" font-family="Arial" font-size="12" fill="#374151">100000</text>
<line x1="587.50" y1="42" x2="587.50" y2="470" stroke="#e5e7eb" stroke-width="1"/>
<text x="587.50" y="494" text-anchor="middle" font-family="Arial" font-size="12" fill="#374151">149999</text>
<line x1="755.00" y1="42" x2="755.00" y2="470" stroke="#e5e7eb" stroke-width="1"/>
<text x="755.00" y="494" text-anchor="middle" font-family="Arial" font-size="12" fill="#374151">199999</text>
<line x1="85" y1="470.00" x2="755" y2="470.00" stroke="#e5e7eb" stroke-width="1"/>
<text x="73" y="474.00" text-anchor="end" font-family="Arial" font-size="12" fill="#374151">-110261</text>
<line x1="85" y1="363.00" x2="755" y2="363.00" stroke="#e5e7eb" stroke-width="1"/>
<text x="73" y="367.00" text-anchor="end" font-family="Arial" font-size="12" fill="#374151">-74016</text>
<line x1="85" y1="256.00" x2="755" y2="256.00" stroke="#e5e7eb" stroke-width="1"/>
<text x="73" y="260.00" text-anchor="end" font-family="Arial" font-size="12" fill="#374151">-37772</text>
<line x1="85" y1="149.00" x2="755" y2="149.00" stroke="#e5e7eb" stroke-width="1"/>
<text x="73" y="153.00" text-anchor="end" font-family="Arial" font-size="12" fill="#374151">-1527</text>
<line x1="85" y1="42.00" x2="755" y2="42.00" stroke="#e5e7eb" stroke-width="1"/>
<text x="73" y="46.00" text-anchor="end" font-family="Arial" font-size="12" fill="#374151">34717</text>
<polyline fill="none" stroke="#2563eb" stroke-width="2" points="85.00,144.49 85.34,144.49 85.67,144.49 86.01,144.49 86.34,144.49 86.68,144.49 87.01,144.15 87.35,143.86 87.68,143.74 88.02,143.70 88.35,143.54 88.69,143.54 89.02,143.58 89.36,143.85 89.69,144.18 90.03,143.85 90.36,142.45 90.70,141.12 91.03,141.39 91.37,141.81 91.70,142.14 92.04,141.33 92.37,140.55 92.71,140.63 93.04,141.19 93.38,140.46 93.71,140.61 94.05,141.53 94.38,141.71 94.72,142.42 95.05,142.24 95.39,142.98 95.72,142.29 96.06,142.94 96.39,143.37 96.73,143.07 97.06,143.59 97.40,143.86 97.73,143.48 98.07,142.89 98.40,142.69 98.74,142.77 99.07,143.21 99.41,143.51 99.74,143.23 100.08,142.80 100.41,141.46 100.75,141.01 101.08,140.31 101.42,139.98 101.75,135.59 102.09,134.76 102.42,136.21 102.76,136.52 103.09,140.04 103.43,144.76 103.76,149.03 104.10,150.69 104.43,147.56 104.77,146.26 105.10,144.47 105.44,145.82 105.77,141.36 106.11,138.82 106.44,137.33 106.78,135.47 107.11,138.15 107.45,142.12 107.78,144.64 108.12,143.33 108.45,143.50 108.79,148.25 109.12,147.35 109.46,148.83 109.79,151.68 110.13,151.83 110.46,150.09 110.80,148.62 111.13,147.00 111.47,137.84 111.80,137.16 112.14,143.67 112.47,144.18 112.81,142.14 113.14,147.77 113.48,150.68 113.81,149.98 114.15,147.91 114.48,150.15 114.82,148.25 115.15,145.44 115.49,148.74 115.82,142.86 116.16,142.32 116.49,132.94 116.83,123.31 117.16,121.60 117.50,118.04 117.83,124.18 118.17,126.96 118.50,127.31 118.84,119.40 119.17,126.46 119.51,120.21 119.84,122.00 120.18,127.34 120.51,119.46 120.85,114.61 121.18,111.03 121.52,114.01 121.85,119.27 122.19,113.80 122.52,116.43 122.86,118.49 123.19,118.56 123.53,115.16 123.86,118.60 124.20,116.42 124.53,112.34 124.87,112.67 125.20,114.00 125.54,116.72 125.87,126.07 126.21,137.70 126.54,141.36 126.88,141.79 127.21,137.40 127.55,134.44 127.88,133.04 128.22,134.57 128.55,137.23 128.89,134.07 129.22,137.10 129.56,137.51 129.89,141.66 130.23,152.71 130.56,149.16 130.90,146.64 131.23,142.14 131.57,129.49 131.90,137.61 132.24,141.88 132.57,134.26 132.91,123.59 133.24,122.72 133.58,121.90 133.91,122.85 134.25,115.63 134.58,122.22 134.92,120.85 135.25,120.43 135.59,123.24 135.92,117.32 136.26,117.86 136.59,104.71 136.93,115.30 137.26,121.37 137.60,123.31 137.93,125.80 138.27,122.88 138.60,118.65 138.94,123.07 139.27,109.73 139.61,104.21 139.94,105.57 140.28,92.24 140.61,94.91 140.95,94.21 141.28,88.01 141.62,94.16 141.95,81.95 142.29,80.83 142.62,73.64 142.96,87.19 143.29,84.36 143.63,86.86 143.96,83.22 144.30,88.93 144.63,90.81 144.97,91.51 145.30,92.64 145.64,91.83 145.97,92.38 146.31,92.69 146.64,104.25 146.98,103.18 147.31,94.06 147.65,95.86 147.98,98.25 148.32,94.27 148.65,92.90 148.99,86.01 149.32,83.90 149.66,88.31 149.99,88.93 150.33,93.85 150.66,93.99 151.00,95.99 151.33,95.88 151.67,94.85 152.00,95.36 152.34,81.05 152.67,93.72 153.01,92.85 153.34,90.92 153.68,95.64 154.01,88.71 154.35,87.63 154.68,88.84 155.02,86.83 155.35,83.77 155.69,82.63 156.02,83.37 156.36,85.94 156.69,89.72 157.03,78.28 157.36,74.38 157.70,79.40 158.03,80.86 158.37,77.65 158.70,74.70 159.04,71.52 159.37,72.82 159.71,74.15 160.04,77.25 160.38,82.36 160.71,84.48 161.05,81.40 161.38,81.28 161.72,84.46 162.05,89.80 162.39,92.54 162.72,92.85 163.06,90.01 163.39,83.29 163.73,83.11 164.06,78.90 164.40,77.16 164.73,83.98 165.07,91.25 165.40,94.45 165.74,97.07 166.07,105.33 166.41,100.41 166.74,94.64 167.08,91.33 167.41,93.26 167.75,94.82 168.08,97.06 168.42,98.28 168.75,99.05 169.09,100.52 169.42,101.97 169.76,102.88 170.09,101.27 170.43,103.92 170.76,105.84 171.10,114.72 171.43,109.29 171.77,108.65 172.10,116.70 172.44,118.62 172.77,117.76 173.11,126.09 173.44,130.25 173.78,128.18 174.11,129.72 174.45,120.85 174.78,116.41 175.12,115.50 175.45,114.92 175.79,112.05 176.12,109.80 176.46,119.32 176.79,121.45 177.13,121.51 177.46,121.75 177.80,116.78 178.13,115.88 178.47,119.41 178.80,121.22 179.14,124.22 179.47,124.01 179.81,121.56 180.14,120.42 180.48,121.70 180.81,119.84 181.15,125.91 181.48,127.55 181.82,122.71 182.15,122.04 182.49,122.38 182.82,123.49 183.16,125.42 183.49,124.76 183.83,124.20 184.16,122.45 184.50,124.25 184.83,122.52 185.17,123.80 185.50,125.66 185.84,125.18 186.17,124.62 186.51,123.67 186.84,124.37 187.18,126.59 187.51,127.54 187.85,126.56 188.18,127.28 188.52,127.71 188.85,128.99 189.19,128.40 189.52,127.01 189.86,127.47 190.19,127.80 190.53,128.07 190.86,128.59 191.20,128.40 191.53,127.97 191.87,127.92 192.20,127.44 192.54,128.28 192.87,127.67 193.21,127.05 193.54,129.87 193.88,127.12 194.21,127.75 194.55,124.70 194.88,127.62 195.22,129.35 195.55,128.52 195.89,127.38 196.22,128.89 196.56,126.07 196.89,125.95 197.23,124.87 197.56,121.63 197.90,125.68 198.23,127.54 198.57,129.65 198.90,131.95 199.24,127.89 199.57,129.20 199.91,131.71 200.24,129.37 200.58,129.13 200.91,127.51 201.25,126.82 201.58,127.08 201.92,130.14 202.25,132.70 202.59,133.93 202.92,134.47 203.26,137.19 203.59,137.59 203.93,137.15 204.26,138.69 204.60,135.70 204.93,134.65 205.27,133.29 205.60,134.95 205.94,138.50 206.27,138.20 206.61,139.75 206.94,138.26 207.28,135.98 207.61,135.59 207.95,135.68 208.28,135.49 208.62,132.75 208.95,132.55 209.29,132.47 209.62,131.59 209.96,133.63 210.29,133.53 210.63,133.99 210.96,134.11 211.30,133.82 211.63,133.34 211.97,132.66 212.30,134.63 212.64,132.85 212.97,132.10 213.31,130.74 213.64,131.65 213.98,134.85 214.31,131.30 214.65,135.10 214.98,134.91 215.32,136.47 215.65,136.83 215.99,138.16 216.32,135.72 216.66,134.05 216.99,135.20 217.33,136.97 217.66,135.74 218.00,139.43 218.33,137.45 218.67,134.62 219.00,135.76 219.34,133.96 219.67,135.25 220.01,136.31 220.34,140.00 220.68,139.92 221.01,139.74 221.35,137.51 221.68,137.34 222.02,132.48 222.35,135.34 222.69,133.61 223.02,132.34 223.36,130.37 223.69,128.43 224.03,125.84 224.36,124.35 224.70,129.02 225.03,126.00 225.37,124.99 225.70,124.53 226.04,120.08 226.37,118.32 226.71,119.41 227.04,119.30 227.38,115.64 227.71,115.72 228.05,110.91 228.38,112.93 228.72,113.50 229.05,109.53 229.39,109.79 229.72,108.89 230.06,110.26 230.39,110.39 230.73,114.52 231.06,116.14 231.40,117.31 231.73,115.92 232.07,114.67 232.40,113.85 232.74,116.68 233.07,116.91 233.41,115.73 233.74,114.88 234.08,116.38 234.41,111.60 234.75,110.38 235.08,108.82 235.42,106.35 235.75,112.56 236.09,115.56 236.42,118.49 236.76,123.93 237.09,126.15 237.43,131.80 237.76,131.05 238.10,134.62 238.43,135.29 238.77,133.11 239.10,131.73 239.44,129.50 239.77,128.77 240.11,125.22 240.44,125.15 240.78,125.99 241.11,130.02 241.45,129.50 241.78,133.75 242.12,138.26 242.45,143.67 242.79,143.31 243.12,148.29 243.46,146.02 243.79,146.43 244.13,146.63 244.46,152.94 244.80,154.39 245.13,158.94 245.47,160.83 245.80,160.32 246.14,163.56 246.47,165.41 246.81,166.30 247.14,168.79 247.48,166.36 247.81,170.40 248.15,172.78 248.48,175.26 248.82,177.93 249.15,174.69 249.49,177.96 249.82,176.15 250.16,174.58 250.49,178.59 250.83,183.18 251.16,181.89 251.50,182.31 251.83,185.55 252.17,182.53 252.50,184.26 252.84,189.46 253.17,189.65 253.51,187.32 253.84,191.66 254.18,188.73 254.51,195.67 254.85,191.15 255.18,195.62 255.52,199.51 255.85,199.35 256.19,195.17 256.52,191.33 256.86,189.82 257.19,187.63 257.53,180.33 257.86,180.32 258.20,180.16 258.53,177.45 258.87,176.50 259.20,177.43 259.54,171.62 259.87,173.88 260.21,175.99 260.54,170.88 260.88,175.67 261.21,174.66 261.55,173.68 261.88,171.10 262.22,169.59 262.55,170.77 262.89,170.04 263.22,171.09 263.56,166.52 263.89,166.38 264.23,168.71 264.56,172.30 264.90,176.70 265.23,175.96 265.57,176.41 265.90,180.62 266.24,176.80 266.57,176.02 266.91,179.49 267.24,189.86 267.58,181.72 267.91,179.06 268.25,170.15 268.58,168.47 268.92,164.06 269.25,159.01 269.59,160.29 269.92,165.79 270.26,165.86 270.59,167.16 270.93,169.03 271.26,167.67 271.60,163.25 271.93,168.95 272.27,168.37 272.60,166.32 272.94,166.46 273.27,171.88 273.61,169.83 273.94,168.87 274.28,170.23 274.61,174.96 274.95,175.90 275.28,173.91 275.62,174.68 275.95,176.64 276.29,179.76 276.62,180.80 276.96,181.36 277.29,181.04 277.63,178.16 277.96,177.68 278.30,174.78 278.63,177.98 278.97,179.04 279.30,179.86 279.64,177.54 279.97,175.57 280.31,178.31 280.64,178.91 280.98,179.51 281.31,179.75 281.65,179.27 281.98,179.27 282.32,179.27 282.65,178.41 282.99,178.69 283.32,178.71 283.66,178.21 283.99,178.26 284.33,178.22 284.66,178.79 285.00,178.75 285.33,179.07 285.67,179.61 286.00,179.21 286.34,178.94 286.67,179.39 287.01,179.32 287.34,178.62 287.68,179.73 288.01,179.76 288.35,179.46 288.68,179.49 289.02,179.91 289.35,179.99 289.69,180.13 290.02,179.82 290.36,178.43 290.69,178.90 291.03,178.67 291.36,179.11 291.70,178.58 292.03,178.55 292.37,177.90 292.70,176.61 293.04,177.25 293.37,177.29 293.71,176.99 294.04,175.93 294.38,175.02 294.71,175.21 295.05,175.76 295.38,175.65 295.72,175.70 296.05,175.49 296.39,175.40 296.72,175.40 297.06,175.40 297.39,175.40 297.73,175.40 298.06,175.40 298.40,175.40 298.73,175.40 299.07,175.40 299.40,175.40 299.74,175.26 300.07,175.65 300.41,175.78 300.74,176.50 301.08,176.46 301.41,176.68 301.75,178.35 302.08,177.39 302.42,177.20 302.75,177.15 303.09,177.19 303.42,178.17 303.76,176.51 304.09,174.61 304.43,175.36 304.76,173.43 305.10,173.71 305.43,174.09 305.77,174.31 306.10,173.39 306.44,171.29 306.77,169.28 307.11,164.90 307.44,164.85 307.78,171.27 308.11,165.30 308.45,159.28 308.78,156.16 309.12,155.12 309.45,151.85 309.79,146.27 310.12,148.63 310.46,145.79 310.79,144.00 311.13,143.67 311.46,147.21 311.80,149.84 312.13,151.03 312.47,142.96 312.80,145.85 313.14,145.05 313.47,149.00 313.81,147.58 314.14,147.48 314.48,148.65 314.81,147.88 315.15,149.34 315.48,148.50 315.82,143.65 316.15,142.50 316.49,138.72 316.82,139.08 317.16,137.07 317.49,142.45 317.83,142.60 318.16,144.61 318.50,144.09 318.83,145.36 319.17,147.13 319.50,145.94 319.84,148.74 320.17,153.06 320.51,153.85 320.84,146.38 321.18,147.94 321.51,148.87 321.85,141.68 322.18,142.07 322.52,139.41 322.85,127.67 323.19,124.28 323.52,121.25 323.86,125.74 324.19,121.81 324.53,125.61 324.86,120.22 325.20,120.86 325.53,124.82 325.87,124.64 326.20,124.18 326.54,123.79 326.87,124.12 327.21,123.26 327.54,122.41 327.88,126.95 328.21,123.89 328.55,121.99 328.88,120.37 329.22,119.68 329.55,119.86 329.89,120.93 330.22,120.50 330.56,117.15 330.89,119.83 331.23,125.10 331.56,120.39 331.90,117.06 332.23,116.14 332.57,117.91 332.90,117.74 333.24,117.68 333.57,117.31 333.91,117.48 334.24,117.55 334.58,116.28 334.91,116.63 335.25,116.67 335.58,116.26 335.92,115.47 336.25,115.59 336.59,115.78 336.92,115.10 337.26,115.67 337.59,114.99 337.93,114.46 338.26,114.07 338.60,113.75 338.93,113.21 339.27,113.35 339.60,113.35 339.94,113.35 340.27,113.35 340.61,113.35 340.94,113.35 341.28,113.35 341.61,113.35 341.95,113.35 342.28,113.35 342.62,113.35 342.95,113.08 343.29,113.70 343.62,113.40 343.96,113.40 344.29,113.69 344.63,116.78 344.96,117.60 345.30,117.00 345.63,114.84 345.97,116.92 346.30,116.61 346.64,117.71 346.97,117.54 347.31,114.84 347.64,114.31 347.98,113.00 348.31,116.07 348.65,115.21 348.98,115.39 349.32,115.20 349.65,117.01 349.99,115.61 350.32,118.11 350.66,113.97 350.99,114.91 351.33,119.14 351.66,118.56 352.00,116.62 352.33,114.86 352.67,118.04 353.00,120.61 353.34,121.88 353.67,122.83 354.01,129.22 354.34,133.04 354.68,131.33 355.01,134.81 355.35,135.74 355.68,136.76 356.02,140.75 356.35,139.46 356.69,137.38 357.02,130.41 357.36,125.37 357.69,123.31 358.03,123.24 358.36,120.97 358.70,124.35 359.03,113.49 359.37,106.15 359.70,106.05 360.04,103.34 360.37,102.70 360.71,107.37 361.04,111.13 361.38,113.07 361.71,108.73 362.05,113.04 362.38,115.50 362.72,113.18 363.05,106.62 363.39,102.80 363.72,94.25 364.06,91.61 364.39,89.02 364.73,91.88 365.06,86.92 365.40,87.94 365.73,87.23 366.07,90.85 366.40,95.77 366.74,88.81 367.07,101.00 367.41,97.80 367.74,89.02 368.08,86.46 368.41,88.19 368.75,86.62 369.08,86.19 369.42,89.82 369.75,89.71 370.09,89.38 370.42,84.64 370.76,90.31 371.09,87.99 371.43,92.91 371.76,95.62 372.10,101.86 372.43,99.68 372.77,100.14 373.10,100.27 373.44,99.12 373.77,103.55 374.11,97.53 374.44,96.01 374.78,95.29 375.11,95.06 375.45,103.95 375.78,106.51 376.12,104.52 376.45,105.94 376.79,100.44 377.12,99.24 377.46,104.28 377.79,106.43 378.13,103.37 378.46,108.50 378.80,111.95 379.13,108.15 379.47,104.52 379.80,101.48 380.14,101.08 380.47,105.52 380.81,111.29 381.14,106.50 381.48,107.06 381.81,102.57 382.15,106.58 382.48,104.57 382.82,97.36 383.15,101.18 383.49,104.72 383.82,109.28 384.16,105.90 384.49,119.06 384.83,122.43 385.16,122.58 385.50,118.81 385.83,118.77 386.17,114.15 386.50,111.17 386.84,106.90 387.17,104.19 387.51,108.98 387.84,104.40 388.18,102.76 388.51,100.06 388.85,96.84 389.18,92.52 389.52,91.26 389.85,89.26 390.19,97.73 390.52,103.61 390.86,103.14 391.19,94.90 391.53,91.00 391.86,104.28 392.20,91.49 392.53,86.83 392.87,92.43 393.20,83.29 393.54,81.12 393.87,84.67 394.21,102.52 394.54,106.08 394.88,105.45 395.21,121.69 395.55,123.31 395.88,128.49 396.22,132.39 396.55,133.31 396.89,131.41 397.22,132.69 397.56,128.28 397.89,132.12 398.23,127.14 398.56,122.25 398.90,119.07 399.23,120.91 399.57,127.63 399.90,125.01 400.24,120.85 400.57,125.85 400.91,123.05 401.24,130.54 401.58,124.61 401.91,120.57 402.25,111.82 402.58,109.09 402.92,100.84 403.25,107.34 403.59,115.79 403.92,125.00 404.26,122.41 404.59,126.49 404.93,130.85 405.26,139.17 405.60,148.03 405.93,150.77 406.27,152.58 406.60,156.52 406.94,160.62 407.27,157.35 407.61,164.77 407.94,177.28 408.28,178.52 408.61,182.75 408.95,183.16 409.28,185.20 409.62,184.14 409.95,192.97 410.29,189.91 410.62,198.37 410.96,200.57 411.29,189.94 411.63,193.11 411.96,186.96 412.30,185.13 412.63,179.65 412.97,185.36 413.30,191.40 413.64,196.14 413.97,203.57 414.31,213.90 414.64,198.42 414.98,193.85 415.31,188.86 415.65,189.31 415.98,185.81 416.32,186.75 416.65,188.86 416.99,187.93 417.32,187.00 417.66,180.57 417.99,178.44 418.33,178.14 418.66,182.18 419.00,177.70 419.33,194.32 419.67,188.69 420.00,192.57 420.34,176.85 420.67,175.08 421.01,188.39 421.34,189.26 421.68,177.06 422.01,175.45 422.35,185.48 422.68,175.61 423.02,181.09 423.35,182.47 423.69,177.46 424.02,174.70 424.36,178.98 424.69,177.62 425.03,183.36 425.36,180.83 425.70,185.80 426.03,188.53 426.37,188.92 426.70,185.15 427.04,195.83 427.37,207.97 427.71,218.14 428.04,225.86 428.38,236.77 428.71,227.66 429.05,218.20 429.38,231.98 429.72,219.06 430.05,222.61 430.39,224.75 430.72,226.28 431.06,226.20 431.39,211.60 431.73,217.27 432.06,210.68 432.40,219.86 432.73,221.16 433.07,205.65 433.40,205.71 433.74,209.67 434.07,226.20 434.41,234.80 434.74,240.23 435.08,231.62 435.41,224.95 435.75,240.51 436.08,238.31 436.42,238.38 436.75,228.81 437.09,232.81 437.42,244.15 437.76,248.39 438.09,250.20 438.43,254.05 438.76,263.42 439.10,273.05 439.43,271.37 439.77,272.57 440.10,268.30 440.44,270.94 440.77,281.79 441.11,287.46 441.44,286.11 441.78,283.69 442.11,295.74 442.45,295.81 442.78,281.29 443.12,286.96 443.45,282.40 443.79,296.75 444.12,306.25 444.46,305.61 444.79,296.91 445.13,288.99 445.46,287.16 445.80,284.00 446.13,298.31 446.47,285.82 446.80,269.64 447.14,271.27 447.47,273.33 447.81,255.16 448.14,261.50 448.48,260.40 448.81,264.14 449.15,257.31 449.48,258.88 449.82,243.54 450.15,257.59 450.49,265.37 450.82,259.46 451.16,270.92 451.49,285.24 451.83,288.16 452.16,270.82 452.50,285.87 452.83,298.20 453.17,314.98 453.50,314.38 453.84,312.53 454.17,325.46 454.51,335.13 454.84,337.41 455.18,320.97 455.51,314.68 455.85,300.72 456.18,303.31 456.52,311.57 456.85,314.51 457.19,306.98 457.52,309.65 457.86,305.63 458.19,329.78 458.53,329.31 458.86,339.78 459.20,321.70 459.53,322.77 459.87,321.61 460.20,325.71 460.54,332.95 460.87,328.02 461.21,324.73 461.54,330.89 461.88,304.79 462.21,301.44 462.55,300.02 462.88,307.38 463.22,291.30 463.55,273.33 463.89,289.03 464.22,280.70 464.56,275.84 464.89,273.28 465.23,269.09 465.56,277.53 465.90,302.56 466.23,317.34 466.57,336.50 466.90,338.22 467.24,341.77 467.57,347.13 467.91,339.47 468.24,327.22 468.58,327.91 468.91,339.07 469.25,348.43 469.58,331.66 469.92,336.49 470.25,323.83 470.59,343.67 470.92,340.83 471.26,342.26 471.59,345.61 471.93,356.88 472.26,356.18 472.60,360.27 472.93,362.91 473.27,376.48 473.60,373.98 473.94,358.78 474.27,344.11 474.61,338.94 474.94,330.93 475.28,333.77 475.61,324.70 475.95,332.87 476.28,321.20 476.62,329.30 476.95,330.53 477.29,353.46 477.62,364.98 477.96,371.81 478.29,366.88 478.63,360.61 478.96,358.66 479.30,339.50 479.63,336.01 479.97,338.79 480.30,339.23 480.64,350.76 480.97,334.62 481.31,342.50 481.64,355.71 481.98,349.84 482.31,343.14 482.65,330.76 482.98,321.28 483.32,324.45 483.65,315.45 483.99,302.92 484.32,297.78 484.66,306.33 484.99,302.65 485.33,303.55 485.66,306.72 486.00,303.03 486.33,288.28 486.67,291.99 487.00,307.13 487.34,316.21 487.67,314.46 488.01,312.85 488.34,329.28 488.68,328.48 489.01,332.64 489.35,333.75 489.68,339.79 490.02,331.43 490.35,312.53 490.69,327.67 491.02,340.01 491.36,339.08 491.69,330.61 492.03,319.74 492.36,327.39 492.70,340.62 493.03,345.01 493.37,362.09 493.70,354.30 494.04,356.74 494.37,362.91 494.71,373.24 495.04,372.82 495.38,380.13 495.71,367.17 496.05,354.68 496.38,362.64 496.72,365.42 497.05,355.84 497.39,358.55 497.72,347.83 498.06,346.97 498.39,355.85 498.73,357.54 499.06,370.11 499.40,362.46 499.73,357.93 500.07,358.21 500.40,348.69 500.74,369.96 501.07,369.94 501.41,353.44 501.74,342.34 502.08,337.38 502.41,345.85 502.75,341.52 503.08,342.58 503.42,338.95 503.75,345.98 504.09,348.82 504.42,350.05 504.76,352.02 505.09,348.70 505.43,343.55 505.76,334.99 506.10,339.37 506.43,342.84 506.77,345.78 507.10,346.25 507.44,342.12 507.77,345.36 508.11,350.53 508.44,354.22 508.78,354.55 509.11,355.83 509.45,354.28 509.78,341.90 510.12,337.13 510.45,328.22 510.79,327.75 511.12,325.11 511.46,318.80 511.79,324.46 512.13,337.01 512.46,338.60 512.80,341.00 513.13,345.88 513.47,338.73 513.80,332.89 514.14,330.96 514.47,318.75 514.81,317.71 515.14,316.06 515.48,314.18 515.81,303.33 516.15,315.04 516.48,317.07 516.82,304.71 517.15,305.12 517.49,305.85 517.82,308.87 518.16,304.29 518.49,299.07 518.83,303.64 519.16,308.58 519.50,309.85 519.83,316.04 520.17,308.91 520.50,307.37 520.84,307.54 521.17,316.55 521.51,313.64 521.84,299.50 522.18,304.48 522.51,298.37 522.85,293.32 523.18,284.69 523.52,285.63 523.85,278.14 524.19,280.66 524.52,291.79 524.86,302.89 525.19,315.75 525.53,314.94 525.86,304.97 526.20,315.54 526.53,316.57 526.87,310.14 527.20,317.05 527.54,319.63 527.87,321.58 528.21,337.15 528.54,334.02 528.88,343.10 529.21,345.60 529.55,342.12 529.88,351.51 530.22,359.23 530.55,362.56 530.89,368.67 531.22,359.68 531.56,355.58 531.89,356.76 532.23,366.30 532.56,360.61 532.90,356.30 533.23,359.13 533.57,370.10 533.90,378.78 534.24,376.53 534.57,377.40 534.91,381.13 535.24,371.76 535.58,381.43 535.91,369.34 536.25,388.19 536.58,391.40 536.92,387.55 537.25,378.31 537.59,365.00 537.92,369.37 538.26,371.30 538.59,376.71 538.93,368.12 539.26,366.05 539.60,359.28 539.93,364.31 540.27,365.72 540.60,364.07 540.94,365.34 541.27,358.02 541.61,362.57 541.94,348.70 542.28,348.98 542.61,343.73 542.95,338.92 543.28,343.22 543.62,333.49 543.95,340.19 544.29,341.93 544.62,334.95 544.96,328.14 545.29,333.94 545.63,336.55 545.96,323.38 546.30,317.22 546.63,322.81 546.97,328.79 547.30,324.67 547.64,323.79 547.97,311.55 548.31,310.20 548.64,307.37 548.98,307.36 549.31,313.27 549.65,316.71 549.98,323.32 550.32,330.47 550.65,325.38 550.99,316.66 551.32,324.01 551.66,313.65 551.99,309.32 552.33,306.28 552.66,305.75 553.00,310.27 553.33,322.83 553.67,318.75 554.00,327.50 554.34,326.80 554.67,324.22 555.01,328.78 555.34,327.75 555.68,333.59 556.01,327.76 556.35,323.19 556.68,325.57 557.02,326.77 557.35,333.03 557.69,335.85 558.02,334.93 558.36,340.09 558.69,346.29 559.03,342.82 559.36,342.36 559.70,338.86 560.03,335.43 560.37,341.15 560.70,338.78 561.04,337.53 561.37,343.02 561.71,337.29 562.04,340.36 562.38,345.13 562.71,352.41 563.05,363.91 563.38,366.62 563.72,372.17 564.05,371.28 564.39,386.56 564.72,389.25 565.06,397.19 565.39,408.87 565.73,424.29 566.06,429.72 566.40,421.88 566.73,417.55 567.07,421.37 567.40,413.17 567.74,412.58 568.07,424.54 568.41,409.87 568.74,412.96 569.08,404.31 569.41,401.48 569.75,426.35 570.08,421.63 570.42,408.23 570.75,423.23 571.09,436.79 571.42,440.48 571.76,434.83 572.09,426.18 572.43,425.04 572.76,419.66 573.10,413.68 573.43,407.57 573.77,419.84 574.10,420.75 574.44,427.04 574.77,419.01 575.11,405.06 575.44,389.13 575.78,378.07 576.11,384.55 576.45,402.89 576.78,393.24 577.12,391.53 577.45,398.93 577.79,408.44 578.12,397.81 578.46,399.63 578.79,407.85 579.13,414.65 579.46,419.73 579.80,414.90 580.13,417.43 580.47,426.39 580.80,424.88 581.14,421.39 581.47,411.58 581.81,398.09 582.14,397.75 582.48,401.98 582.81,394.80 583.15,394.05 583.48,398.98 583.82,405.58 584.15,399.74 584.49,400.42 584.82,389.74 585.16,382.96 585.49,378.27 585.83,376.85 586.16,369.33 586.50,372.77 586.83,383.61 587.17,376.43 587.50,366.34 587.84,366.06 588.17,368.73 588.51,365.08 588.84,359.02 589.18,357.45 589.51,362.79 589.85,372.94 590.18,379.22 590.52,380.82 590.85,382.04 591.19,380.55 591.52,374.86 591.86,370.16 592.19,368.80 592.53,370.23 592.86,378.64 593.20,379.17 593.53,375.40 593.87,380.10 594.20,376.40 594.54,376.62 594.87,370.57 595.21,358.28 595.54,351.49 595.88,346.56 596.21,346.88 596.55,345.45 596.88,338.99 597.22,330.29 597.55,330.20 597.89,330.55 598.22,333.01 598.56,330.77 598.89,327.46 599.23,320.34 599.56,318.05 599.90,332.39 600.23,339.98 600.57,339.00 600.90,338.11 601.24,337.10 601.57,331.14 601.91,329.76 602.24,332.74 602.58,329.83 602.91,322.33 603.25,333.19 603.58,332.58 603.92,338.68 604.25,346.03 604.59,347.66 604.92,350.78 605.26,355.82 605.59,351.13 605.93,356.97 606.26,353.04 606.60,355.01 606.93,356.87 607.27,357.37 607.60,359.52 607.94,347.50 608.27,352.11 608.61,343.25 608.94,340.13 609.28,342.69 609.61,342.17 609.95,347.19 610.28,351.76 610.62,340.82 610.95,343.80 611.29,348.24 611.62,336.21 611.96,325.25 612.29,330.85 612.63,327.57 612.96,328.66 613.30,333.74 613.63,342.15 613.97,337.91 614.30,328.61 614.64,324.98 614.97,321.70 615.31,318.15 615.64,312.32 615.98,310.62 616.31,320.47 616.65,321.42 616.98,325.03 617.32,321.16 617.65,333.12 617.99,332.78 618.32,322.44 618.66,323.51 618.99,321.27 619.33,308.62 619.66,304.03 620.00,309.16 620.33,305.82 620.67,305.12 621.00,303.96 621.34,307.66 621.67,305.23 622.01,302.83 622.34,304.06 622.68,298.53 623.01,300.68 623.35,300.16 623.68,296.53 624.02,300.69 624.35,299.52 624.69,296.69 625.02,298.04 625.36,296.61 625.69,294.92 626.03,294.88 626.36,297.69 626.70,302.74 627.03,305.80 627.37,302.24 627.70,302.28 628.04,299.97 628.37,299.15 628.71,299.62 629.04,303.66 629.38,306.15 629.71,310.37 630.05,312.44 630.38,313.42 630.72,311.57 631.05,309.52 631.39,311.56 631.72,306.34 632.06,308.80 632.39,309.91 632.73,305.76 633.06,301.86 633.40,295.10 633.73,295.12 634.07,298.15 634.40,299.85 634.74,298.07 635.07,293.19 635.41,298.36 635.74,299.16 636.08,302.18 636.41,301.15 636.75,302.05 637.08,302.40 637.42,298.70 637.75,294.67 638.09,297.31 638.42,295.05 638.76,293.88 639.09,293.51 639.43,295.32 639.76,292.61 640.10,293.91 640.43,289.94 640.77,285.60 641.10,284.22 641.44,283.75 641.77,283.99 642.11,286.01 642.44,285.79 642.78,285.03 643.11,287.15 643.45,282.97 643.78,280.71 644.12,278.56 644.45,278.66 644.79,279.45 645.12,280.75 645.46,282.37 645.79,281.43 646.13,277.28 646.46,277.78 646.80,279.44 647.13,277.95 647.47,279.50 647.80,278.46 648.14,275.24 648.47,273.18 648.81,273.96 649.14,272.62 649.48,272.88 649.81,271.70 650.15,271.35 650.48,273.12 650.82,275.85 651.15,275.21 651.49,279.21 651.82,278.57 652.16,281.41 652.49,281.80 652.83,285.59 653.16,287.13 653.50,284.67 653.83,284.93 654.17,285.44 654.50,285.51 654.84,284.17 655.17,283.54 655.51,284.35 655.84,284.87 656.18,286.28 656.51,284.90 656.85,284.71 657.18,288.56 657.52,289.30 657.85,287.97 658.19,285.29 658.52,285.12 658.86,283.76 659.19,282.46 659.53,281.45 659.86,282.98 660.20,282.82 660.53,283.43 660.87,282.46 661.20,282.92 661.54,281.87 661.87,280.78 662.21,283.96 662.54,286.03 662.88,284.65 663.21,286.30 663.55,286.68 663.88,286.41 664.22,286.35 664.55,286.54 664.89,286.22 665.22,285.29 665.56,285.21 665.89,285.04 666.23,285.33 666.56,285.04 666.90,284.77 667.23,285.56 667.57,286.35 667.90,285.35 668.24,285.22 668.57,284.39 668.91,285.46 669.24,284.56 669.58,283.20 669.91,284.87 670.25,286.75 670.58,287.38 670.92,288.19 671.25,287.68 671.59,287.35 671.92,287.82 672.26,287.43 672.59,288.11 672.93,286.75 673.26,286.80 673.60,286.92 673.93,288.32 674.27,288.63 674.60,288.05 674.94,286.60 675.27,285.93 675.61,284.78 675.94,285.61 676.28,285.93 676.61,287.32 676.95,287.33 677.28,286.10 677.62,285.03 677.95,285.87 678.29,285.96 678.62,286.07 678.96,286.05 679.29,286.12 679.63,286.17 679.96,286.19 680.30,286.17 680.63,286.23 680.97,286.25 681.30,286.27 681.64,286.22 681.97,286.27 682.31,286.35 682.64,286.31 682.98,286.28 683.31,286.49 683.65,286.39 683.98,286.44 684.32,286.05 684.65,285.82 684.99,285.85 685.32,285.85 685.66,286.30 685.99,285.97 686.33,286.13 686.66,286.40 687.00,286.20 687.33,286.50 687.67,285.77 688.00,286.27 688.34,285.13 688.67,288.37 689.01,285.56 689.34,285.40 689.68,289.57 690.01,290.58 690.35,291.79 690.68,288.26 691.02,287.56 691.35,287.17 691.69,291.17 692.02,293.43 692.36,295.96 692.69,298.80 693.03,296.60 693.36,298.76 693.70,294.56 694.03,295.98 694.37,296.12 694.70,299.70 695.04,299.62 695.37,300.25 695.71,303.61 696.04,307.06 696.38,305.44 696.71,300.37 697.05,302.29 697.38,310.43 697.72,306.77 698.05,307.50 698.39,306.66 698.72,309.92 699.06,311.80 699.39,311.86 699.73,309.44 700.06,310.70 700.40,312.78 700.73,313.89 701.07,315.24 701.40,313.00 701.74,311.27 702.07,310.54 702.41,310.40 702.74,311.16 703.08,312.94 703.41,313.10 703.75,311.12 704.08,310.72 704.42,306.13 704.75,308.60 705.09,306.95 705.42,306.91 705.76,305.85 706.09,308.27 706.43,309.37 706.76,310.16 707.10,310.88 707.43,312.63 707.77,311.32 708.10,310.28 708.44,310.95 708.77,310.82 709.11,310.42 709.44,309.81 709.78,309.81 710.11,309.97 710.45,309.66 710.78,308.91 711.12,307.20 711.45,306.64 711.79,306.86 712.12,306.66 712.46,306.74 712.79,306.40 713.13,305.73 713.46,305.99 713.80,306.96 714.13,306.36 714.47,305.57 714.80,306.56 715.14,306.47 715.47,306.22 715.81,306.31 716.14,305.63 716.48,306.58 716.81,306.94 717.15,306.64 717.48,306.42 717.82,306.37 718.15,306.41 718.49,306.46 718.82,306.46 719.16,306.47 719.49,306.42 719.83,306.47 720.16,306.40 720.50,306.50 720.83,306.14 721.17,306.58 721.50,307.15 721.84,306.88 722.17,306.42 722.51,306.97 722.84,309.22 723.18,306.07 723.51,305.77 723.85,304.04 724.18,303.52 724.52,303.48 724.85,304.30 725.19,306.65 725.52,306.51 725.86,306.59 726.19,305.38 726.53,305.17 726.86,306.47 727.20,305.79 727.53,305.70 727.87,305.29 728.20,306.45 728.54,307.18 728.87,307.20 729.21,307.21 729.54,306.83 729.88,306.95 730.21,306.71 730.55,306.81 730.88,307.32 731.22,307.47 731.55,308.29 731.89,308.16 732.22,308.76 732.56,307.09 732.89,308.21 733.23,307.30 733.56,308.04 733.90,309.67 734.23,311.18 734.57,310.61 734.90,309.27 735.24,309.41 735.57,309.44 735.91,309.50 736.24,309.53 736.58,308.79 736.91,307.39 737.25,307.07 737.58,306.87 737.92,305.27 738.25,305.46 738.59,304.84 738.92,304.96 739.26,304.77 739.59,305.29 739.93,306.15 740.26,305.79 740.60,304.40 740.93,305.42 741.27,306.90 741.60,306.30 741.94,307.42 742.27,306.87 742.61,306.37 742.94,306.36 743.28,307.50 743.61,307.93 743.95,310.32 744.28,309.06 744.62,308.68 744.95,307.65 745.29,306.07 745.62,305.22 745.96,302.20 746.29,303.49 746.63,302.25 746.96,301.64 747.30,301.07 747.63,298.30 747.97,300.13 748.30,300.04 748.64,299.66 748.97,296.72 749.31,293.43 749.64,295.55 749.98,295.10 750.31,296.99 750.65,296.40 750.98,297.39 751.32,297.64 751.65,295.13 751.99,295.23 752.32,295.97 752.66,295.42 752.99,295.93 753.33,298.12 753.66,298.27 754.00,297.76 754.33,297.94 754.67,298.06 755.00,298.50"/>
<line x1="783" y1="58" x2="809" y2="58" stroke="#2563eb" stroke-width="3"/>
<text x="817" y="62" font-family="Arial" font-size="13" fill="#111827">Naive</text>
<polyline fill="none" stroke="#dc2626" stroke-width="2" points="85.00,144.49 85.34,144.49 85.67,144.49 86.01,144.49 86.34,144.49 86.68,144.49 87.01,144.15 87.35,143.86 87.68,143.74 88.02,143.70 88.35,143.57 88.69,143.57 89.02,143.64 89.36,143.91 89.69,144.24 90.03,143.91 90.36,142.57 90.70,141.23 91.03,141.51 91.37,141.95 91.70,142.28 92.04,141.51 92.37,140.79 92.71,140.87 93.04,141.43 93.38,140.70 93.71,140.85 94.05,141.76 94.38,141.95 94.72,142.65 95.05,142.47 95.39,143.25 95.72,142.56 96.06,143.21 96.39,143.64 96.73,143.34 97.06,143.85 97.40,144.12 97.73,143.75 98.07,143.18 98.40,142.99 98.74,143.07 99.07,143.51 99.41,143.80 99.74,143.52 100.08,143.10 100.41,141.79 100.75,141.33 101.08,140.63 101.42,140.33 101.75,135.94 102.09,135.12 102.42,136.57 102.76,136.87 103.09,140.42 103.43,145.14 103.76,149.42 104.10,151.07 104.43,147.94 104.77,146.64 105.10,144.85 105.44,146.20 105.77,141.77 106.11,139.23 106.44,137.74 106.78,135.89 107.11,138.57 107.45,142.54 107.78,145.05 108.12,143.74 108.45,143.91 108.79,148.66 109.12,147.77 109.46,149.24 109.79,152.09 110.13,152.24 110.46,150.50 110.80,149.03 111.13,147.41 111.47,138.25 111.80,137.57 112.14,144.08 112.47,144.59 112.81,142.55 113.14,148.19 113.48,151.09 113.81,150.42 114.15,148.35 114.48,150.59 114.82,148.69 115.15,145.88 115.49,149.18 115.82,143.30 116.16,142.76 116.49,133.38 116.83,123.75 117.16,122.04 117.50,118.48 117.83,124.63 118.17,127.40 118.50,127.78 118.84,119.87 119.17,126.97 119.51,120.71 119.84,122.50 120.18,127.84 120.51,119.96 120.85,115.11 121.18,111.54 121.52,114.51 121.85,119.77 122.19,114.30 122.52,116.93 122.86,118.99 123.19,119.06 123.53,115.66 123.86,119.11 124.20,116.92 124.53,112.84 124.87,113.17 125.20,114.53 125.54,117.26 125.87,126.60 126.21,138.23 126.54,141.89 126.88,142.32 127.21,137.93 127.55,134.97 127.88,133.57 128.22,135.10 128.55,137.76 128.89,134.61 129.22,137.63 129.56,138.04 129.89,142.19 130.23,153.24 130.56,149.69 130.90,147.17 131.23,142.67 131.57,130.02 131.90,138.14 132.24,142.41 132.57,134.79 132.91,124.12 133.24,123.26 133.58,122.43 133.91,123.38 134.25,116.19 134.58,122.78 134.92,121.41 135.25,121.02 135.59,123.86 135.92,117.97 136.26,118.51 136.59,105.36 136.93,115.95 137.26,122.02 137.60,123.96 137.93,126.45 138.27,123.53 138.60,119.30 138.94,123.72 139.27,110.38 139.61,104.86 139.94,106.22 140.28,92.89 140.61,95.56 140.95,94.86 141.28,88.72 141.62,94.87 141.95,82.66 142.29,81.56 142.62,74.38 142.96,87.93 143.29,85.09 143.63,87.60 143.96,83.95 144.30,89.67 144.63,91.55 144.97,92.24 145.30,93.38 145.64,92.57 145.97,93.12 146.31,93.43 146.64,104.99 146.98,103.92 147.31,94.80 147.65,96.60 147.98,98.99 148.32,95.00 148.65,93.73 148.99,86.83 149.32,84.75 149.66,89.20 149.99,89.82 150.33,94.73 150.66,94.88 151.00,96.87 151.33,96.76 151.67,95.74 152.00,96.25 152.34,81.94 152.67,94.60 153.01,93.73 153.34,91.81 153.68,96.53 154.01,89.63 154.35,88.57 154.68,89.81 155.02,87.80 155.35,84.75 155.69,83.66 156.02,84.41 156.36,86.97 156.69,90.76 157.03,79.32 157.36,75.44 157.70,80.46 158.03,81.93 158.37,78.72 158.70,75.76 159.04,72.64 159.37,73.94 159.71,75.27 160.04,78.37 160.38,83.48 160.71,85.60 161.05,82.52 161.38,82.40 161.72,85.59 162.05,90.93 162.39,93.66 162.72,93.98 163.06,91.13 163.39,84.41 163.73,84.23 164.06,80.02 164.40,78.28 164.73,85.11 165.07,92.37 165.40,95.57 165.74,98.19 166.07,106.45 166.41,101.56 166.74,95.79 167.08,92.48 167.41,94.42 167.75,95.97 168.08,98.21 168.42,99.43 168.75,100.20 169.09,101.68 169.42,103.15 169.76,104.06 170.09,102.45 170.43,105.10 170.76,107.02 171.10,115.90 171.43,110.48 171.77,109.83 172.10,117.92 172.44,119.83 172.77,118.97 173.11,127.33 173.44,131.49 173.78,129.42 174.11,130.96 174.45,122.12 174.78,117.68 175.12,116.77 175.45,116.22 175.79,113.38 176.12,111.18 176.46,120.70 176.79,122.84 177.13,122.93 177.46,123.17 177.80,118.23 178.13,117.32 178.47,120.88 178.80,122.70 179.14,125.70 179.47,125.52 179.81,123.07 180.14,121.93 180.48,123.21 180.81,121.34 181.15,127.41 181.48,129.05 181.82,124.22 182.15,123.55 182.49,123.88 182.82,124.99 183.16,126.93 183.49,126.30 183.83,125.73 184.16,123.99 184.50,125.78 184.83,124.06 185.17,125.33 185.50,127.19 185.84,126.75 186.17,126.18 186.51,125.23 186.84,125.96 187.18,128.19 187.51,129.13 187.85,128.18 188.18,128.90 188.52,129.33 188.85,130.61 189.19,130.02 189.52,128.64 189.86,129.09 190.19,129.43 190.53,129.69 190.86,130.21 191.20,130.02 191.53,129.60 191.87,129.55 192.20,129.06 192.54,129.91 192.87,129.30 193.21,128.67 193.54,131.49 193.88,128.74 194.21,129.38 194.55,126.32 194.88,129.27 195.22,131.00 195.55,130.20 195.89,129.07 196.22,130.57 196.56,127.75 196.89,127.63 197.23,126.56 197.56,123.31 197.90,127.37 198.23,129.25 198.57,131.36 198.90,133.66 199.24,129.60 199.57,130.91 199.91,133.43 200.24,131.09 200.58,130.85 200.91,129.23 201.25,128.54 201.58,128.79 201.92,131.86 202.25,134.41 202.59,135.64 202.92,136.18 203.26,138.90 203.59,139.30 203.93,138.87 204.26,140.40 204.60,137.41 204.93,136.36 205.27,135.00 205.60,136.67 205.94,140.22 206.27,139.91 206.61,141.46 206.94,139.97 207.28,137.69 207.61,137.30 207.95,137.39 208.28,137.23 208.62,134.52 208.95,134.32 209.29,134.24 209.62,133.36 209.96,135.40 210.29,135.30 210.63,135.76 210.96,135.89 211.30,135.60 211.63,135.11 211.97,134.43 212.30,136.41 212.64,134.65 212.97,133.90 213.31,132.54 213.64,133.45 213.98,136.65 214.31,133.10 214.65,136.90 214.98,136.71 215.32,138.27 215.65,138.63 215.99,139.96 216.32,137.52 216.66,135.85 216.99,137.03 217.33,138.83 217.66,137.60 218.00,141.29 218.33,139.31 218.67,136.48 219.00,137.62 219.34,135.82 219.67,137.11 220.01,138.17 220.34,141.86 220.68,141.78 221.01,141.60 221.35,139.37 221.68,139.20 222.02,134.34 222.35,137.20 222.69,135.47 223.02,134.20 223.36,132.23 223.69,130.31 224.03,127.73 224.36,126.24 224.70,130.91 225.03,127.89 225.37,126.88 225.70,126.42 226.04,121.97 226.37,120.21 226.71,121.30 227.04,121.22 227.38,117.56 227.71,117.64 228.05,112.83 228.38,114.85 228.72,115.42 229.05,111.45 229.39,111.71 229.72,110.81 230.06,112.18 230.39,112.31 230.73,116.44 231.06,118.05 231.40,119.23 231.73,117.84 232.07,116.58 232.40,115.77 232.74,118.60 233.07,118.83 233.41,117.65 233.74,116.80 234.08,118.30 234.41,113.52 234.75,112.30 235.08,110.74 235.42,108.26 235.75,114.47 236.09,117.48 236.42,120.41 236.76,125.85 237.09,128.07 237.43,133.72 237.76,132.99 238.10,136.60 238.43,137.30 238.77,135.11 239.10,133.74 239.44,131.51 239.77,130.77 240.11,127.23 240.44,127.16 240.78,128.00 241.11,132.03 241.45,131.51 241.78,135.76 242.12,140.27 242.45,145.68 242.79,145.31 243.12,150.30 243.46,148.03 243.79,148.44 244.13,148.63 244.46,154.94 244.80,156.39 245.13,160.98 245.47,162.86 245.80,162.35 246.14,165.63 246.47,167.47 246.81,168.37 247.14,170.85 247.48,168.43 247.81,172.47 248.15,174.84 248.48,177.32 248.82,180.00 249.15,176.78 249.49,180.06 249.82,178.25 250.16,176.67 250.49,180.68 250.83,185.28 251.16,183.98 251.50,184.41 251.83,187.65 252.17,184.63 252.50,186.36 252.84,191.56 253.17,191.75 253.51,189.42 253.84,193.76 254.18,190.83 254.51,197.77 254.85,193.25 255.18,197.71 255.52,201.63 255.85,201.48 256.19,197.30 256.52,193.45 256.86,191.94 257.19,189.76 257.53,182.45 257.86,182.44 258.20,182.31 258.53,179.61 258.87,178.65 259.20,179.59 259.54,173.78 259.87,176.04 260.21,178.15 260.54,173.04 260.88,177.82 261.21,176.81 261.55,175.84 261.88,173.25 262.22,171.75 262.55,172.92 262.89,172.20 263.22,173.25 263.56,168.68 263.89,168.54 264.23,170.86 264.56,174.46 264.90,178.86 265.23,178.14 265.57,178.60 265.90,182.81 266.24,178.99 266.57,178.20 266.91,181.67 267.24,192.04 267.58,183.94 267.91,181.28 268.25,172.43 268.58,170.74 268.92,166.33 269.25,161.28 269.59,162.56 269.92,168.07 270.26,168.13 270.59,169.44 270.93,171.33 271.26,169.97 271.60,165.55 271.93,171.25 272.27,170.67 272.60,168.62 272.94,168.76 273.27,174.18 273.61,172.14 273.94,171.18 274.28,172.53 274.61,177.26 274.95,178.20 275.28,176.24 275.62,177.02 275.95,178.97 276.29,182.12 276.62,183.16 276.96,183.75 277.29,183.43 277.63,180.55 277.96,180.10 278.30,177.20 278.63,180.40 278.97,181.46 279.30,182.28 279.64,179.96 279.97,177.99 280.31,180.73 280.64,181.33 280.98,181.93 281.31,182.17 281.65,181.69 281.98,181.69 282.32,181.69 282.65,180.83 282.99,181.11 283.32,181.13 283.66,180.63 283.99,180.68 284.33,180.64 284.66,181.21 285.00,181.17 285.33,181.49 285.67,182.03 286.00,181.66 286.34,181.39 286.67,181.84 287.01,181.80 287.34,181.10 287.68,182.21 288.01,182.24 288.35,181.94 288.68,182.03 289.02,182.45 289.35,182.53 289.69,182.67 290.02,182.35 290.36,180.97 290.69,181.43 291.03,181.21 291.36,181.65 291.70,181.12 292.03,181.09 292.37,180.47 292.70,179.18 293.04,179.82 293.37,179.86 293.71,179.55 294.04,178.50 294.38,177.59 294.71,177.78 295.05,178.33 295.38,178.25 295.72,178.30 296.05,178.08 296.39,178.02 296.72,178.02 297.06,178.02 297.39,178.02 297.73,178.02 298.06,178.02 298.40,178.02 298.73,178.02 299.07,178.02 299.40,178.02 299.74,177.89 300.07,178.28 300.41,178.41 300.74,179.13 301.08,179.09 301.41,179.31 301.75,180.98 302.08,180.01 302.42,179.86 302.75,179.83 303.09,179.88 303.42,180.85 303.76,179.23 304.09,177.35 304.43,178.13 304.76,176.24 305.10,176.52 305.43,176.90 305.77,177.11 306.10,176.20 306.44,174.12 306.77,172.12 307.11,167.73 307.44,167.69 307.78,174.10 308.11,168.13 308.45,162.12 308.78,158.99 309.12,157.95 309.45,154.68 309.79,149.10 310.12,151.47 310.46,148.63 310.79,146.83 311.13,146.50 311.46,150.04 311.80,152.67 312.13,153.86 312.47,145.79 312.80,148.68 313.14,147.92 313.47,151.89 313.81,150.48 314.14,150.37 314.48,151.54 314.81,150.77 315.15,152.23 315.48,151.42 315.82,146.57 316.15,145.42 316.49,141.65 316.82,142.00 317.16,139.99 317.49,145.37 317.83,145.52 318.16,147.53 318.50,147.02 318.83,148.28 319.17,150.06 319.50,148.86 319.84,151.67 320.17,155.98 320.51,156.77 320.84,149.30 321.18,150.87 321.51,151.79 321.85,144.61 322.18,144.99 322.52,142.33 322.85,130.60 323.19,127.20 323.52,124.18 323.86,128.66 324.19,124.15 324.53,128.43 324.86,122.37 325.20,123.09 325.53,127.55 325.87,127.48 326.20,127.02 326.54,126.47 326.87,126.81 327.21,125.95 327.54,125.09 327.88,129.63 328.21,126.58 328.55,124.67 328.88,123.06 329.22,122.36 329.55,122.55 329.89,123.62 330.22,123.18 330.56,119.84 330.89,122.51 331.23,127.79 331.56,123.07 331.90,119.75 332.23,118.82 332.57,120.59 332.90,120.43 333.24,120.37 333.57,120.05 333.91,120.22 334.24,120.30 334.58,119.02 334.91,119.41 335.25,119.45 335.58,119.04 335.92,118.25 336.25,118.36 336.59,118.55 336.92,117.88 337.26,118.44 337.59,117.76 337.93,117.24 338.26,116.85 338.60,116.53 338.93,115.99 339.27,116.12 339.60,116.12 339.94,116.12 340.27,116.12 340.61,116.12 340.94,116.12 341.28,116.12 341.61,116.12 341.95,116.12 342.28,116.12 342.62,116.12 342.95,115.85 343.29,116.47 343.62,116.18 343.96,116.18 344.29,116.49 344.63,119.58 344.96,120.40 345.30,119.80 345.63,117.64 345.97,119.76 346.30,119.44 346.64,120.55 346.97,120.37 347.31,117.68 347.64,117.15 347.98,115.84 348.31,118.90 348.65,118.05 348.98,118.22 349.32,118.07 349.65,119.87 349.99,118.47 350.32,120.97 350.66,116.84 350.99,117.78 351.33,122.01 351.66,121.42 352.00,119.48 352.33,117.72 352.67,120.96 353.00,123.53 353.34,124.80 353.67,125.75 354.01,132.14 354.34,135.99 354.68,134.28 355.01,137.76 355.35,138.69 355.68,139.71 356.02,143.70 356.35,142.42 356.69,140.33 357.02,133.37 357.36,128.32 357.69,126.26 358.03,126.22 358.36,123.98 358.70,127.36 359.03,116.50 359.37,109.16 359.70,109.06 360.04,106.35 360.37,105.71 360.71,110.38 361.04,114.14 361.38,116.08 361.71,111.74 362.05,116.05 362.38,118.51 362.72,116.19 363.05,109.63 363.39,105.81 363.72,97.29 364.06,94.65 364.39,92.06 364.73,94.92 365.06,89.96 365.40,90.98 365.73,90.30 366.07,93.92 366.40,98.83 366.74,91.88 367.07,104.07 367.41,100.87 367.74,92.12 368.08,89.59 368.41,91.32 368.75,89.75 369.08,89.31 369.42,92.98 369.75,92.87 370.09,92.54 370.42,87.83 370.76,93.50 371.09,91.18 371.43,96.12 371.76,98.83 372.10,105.08 372.43,102.89 372.77,103.38 373.10,103.51 373.44,102.39 373.77,106.83 374.11,100.84 374.44,99.31 374.78,98.62 375.11,98.39 375.45,107.28 375.78,109.85 376.12,107.88 376.45,109.31 376.79,103.81 377.12,102.63 377.46,107.71 377.79,109.85 378.13,106.83 378.46,111.98 378.80,115.43 379.13,111.63 379.47,108.03 379.80,105.06 380.14,104.65 380.47,109.09 380.81,114.95 381.14,110.19 381.48,110.81 381.81,106.32 382.15,110.32 382.48,108.32 382.82,101.11 383.15,104.93 383.49,108.47 383.82,113.03 384.16,109.64 384.49,122.81 384.83,126.18 385.16,126.33 385.50,122.58 385.83,122.58 386.17,117.95 386.50,114.97 386.84,110.71 387.17,108.00 387.51,112.82 387.84,108.23 388.18,106.60 388.51,103.90 388.85,100.70 389.18,96.39 389.52,95.12 389.85,93.13 390.19,101.59 390.52,107.48 390.86,107.01 391.19,98.77 391.53,94.87 391.86,108.14 392.20,95.36 392.53,90.70 392.87,96.29 393.20,87.15 393.54,84.99 393.87,88.53 394.21,106.39 394.54,109.94 394.88,109.32 395.21,125.55 395.55,127.18 395.88,132.36 396.22,136.26 396.55,137.17 396.89,135.27 397.22,136.56 397.56,132.18 397.89,136.02 398.23,131.09 398.56,126.20 398.90,123.02 399.23,124.87 399.57,131.59 399.90,128.99 400.24,124.83 400.57,129.89 400.91,127.10 401.24,134.59 401.58,128.65 401.91,124.62 402.25,115.87 402.58,113.14 402.92,104.89 403.25,111.39 403.59,119.83 403.92,129.05 404.26,126.45 404.59,130.53 404.93,134.89 405.26,143.21 405.60,152.08 405.93,154.82 406.27,156.62 406.60,160.57 406.94,164.67 407.27,161.39 407.61,168.81 407.94,181.33 408.28,182.56 408.61,186.79 408.95,187.20 409.28,189.24 409.62,188.18 409.95,197.02 410.29,193.95 410.62,202.41 410.96,204.62 411.29,193.99 411.63,197.15 411.96,191.00 412.30,189.17 412.63,183.72 412.97,189.43 413.30,195.47 413.64,200.21 413.97,207.65 414.31,217.97 414.64,202.49 414.98,197.92 415.31,192.93 415.65,193.39 415.98,189.89 416.32,190.82 416.65,192.93 416.99,192.00 417.32,191.07 417.66,184.68 417.99,182.54 418.33,182.25 418.66,186.29 419.00,181.80 419.33,198.42 419.67,192.80 420.00,196.70 420.34,180.98 420.67,179.21 421.01,192.53 421.34,193.39 421.68,181.19 422.01,179.58 422.35,189.61 422.68,179.74 423.02,185.22 423.35,186.64 423.69,181.62 424.02,178.86 424.36,183.14 424.69,181.81 425.03,187.55 425.36,185.05 425.70,190.02 426.03,192.75 426.37,193.14 426.70,189.37 427.04,200.05 427.37,212.19 427.71,222.36 428.04,230.08 428.38,240.99 428.71,231.91 429.05,222.48 429.38,236.26 429.72,223.34 430.05,226.89 430.39,229.03 430.72,230.56 431.06,230.51 431.39,215.91 431.73,221.58 432.06,215.02 432.40,224.22 432.73,225.53 433.07,210.02 433.40,210.08 433.74,214.04 434.07,230.57 434.41,239.17 434.74,244.60 435.08,236.02 435.41,229.38 435.75,244.93 436.08,242.73 436.42,242.81 436.75,233.34 437.09,237.07 437.42,247.64 437.76,251.59 438.09,253.30 438.43,256.92 438.76,265.73 439.10,274.78 439.43,273.20 439.77,274.32 440.10,270.29 440.44,272.78 440.77,283.02 441.11,288.37 441.44,287.12 441.78,284.83 442.11,296.24 442.45,296.30 442.78,282.56 443.12,287.92 443.45,283.60 443.79,297.19 444.12,306.18 444.46,305.58 444.79,297.34 445.13,289.82 445.46,288.08 445.80,285.09 446.13,298.69 446.47,286.80 446.80,271.32 447.14,272.88 447.47,274.85 447.81,257.48 448.14,263.54 448.48,262.47 448.81,266.06 449.15,259.51 449.48,261.07 449.82,246.38 450.15,259.83 450.49,267.29 450.82,261.62 451.16,272.60 451.49,286.31 451.83,289.14 452.16,272.49 452.50,286.21 452.83,297.45 453.17,312.69 453.50,312.14 453.84,310.46 454.17,322.20 454.51,330.94 454.84,333.01 455.18,318.09 455.51,312.39 455.85,299.66 456.18,302.04 456.52,309.54 456.85,312.21 457.19,305.30 457.52,307.76 457.86,304.12 458.19,326.04 458.53,325.55 458.86,335.01 459.20,318.63 459.53,319.60 459.87,318.54 460.20,322.27 460.54,328.86 460.87,324.39 461.21,321.36 461.54,326.96 461.88,302.90 462.21,299.81 462.55,298.47 462.88,305.26 463.22,290.40 463.55,273.77 463.89,288.30 464.22,280.59 464.56,276.09 464.89,273.73 465.23,269.85 465.56,277.66 465.90,300.81 466.23,314.49 466.57,332.22 466.90,333.81 467.24,337.11 467.57,342.04 467.91,335.00 468.24,323.74 468.58,324.37 468.91,334.63 469.25,343.22 469.58,327.81 469.92,332.25 470.25,320.62 470.59,338.85 470.92,336.24 471.26,337.57 471.59,340.62 471.93,350.90 472.26,350.26 472.60,353.99 472.93,356.40 473.27,368.77 473.60,366.50 473.94,352.70 474.27,339.39 474.61,334.69 474.94,327.42 475.28,330.01 475.61,321.78 475.95,329.20 476.28,318.57 476.62,325.92 476.95,327.04 477.29,347.86 477.62,358.31 477.96,364.52 478.29,360.04 478.63,354.35 478.96,352.55 479.30,335.07 479.63,331.89 479.97,334.43 480.30,334.85 480.64,345.31 480.97,330.71 481.31,337.84 481.64,349.71 481.98,344.52 482.31,338.58 482.65,327.68 482.98,319.33 483.32,322.13 483.65,314.20 483.99,303.25 484.32,298.76 484.66,306.27 484.99,303.02 485.33,303.82 485.66,306.63 486.00,303.36 486.33,290.27 486.67,293.56 487.00,307.04 487.34,315.30 487.67,313.67 488.01,312.14 488.34,327.73 488.68,326.98 489.01,330.92 489.35,331.98 489.68,337.71 490.02,329.78 490.35,311.84 490.69,326.21 491.02,337.84 491.36,336.93 491.69,328.97 492.03,318.75 492.36,325.94 492.70,338.38 493.03,342.51 493.37,358.56 493.70,351.25 494.04,353.54 494.37,359.33 494.71,369.05 495.04,368.65 495.38,375.52 495.71,363.34 496.05,351.60 496.38,359.08 496.72,361.69 497.05,352.69 497.39,355.24 497.72,345.16 498.06,344.35 498.39,352.71 498.73,354.30 499.06,366.16 499.40,358.94 499.73,354.70 500.07,354.98 500.40,346.07 500.74,365.99 501.07,365.96 501.41,350.51 501.74,340.12 502.08,335.48 502.41,343.40 502.75,339.34 503.08,340.37 503.42,336.99 503.75,343.54 504.09,346.18 504.42,347.35 504.76,349.18 505.09,346.12 505.43,341.38 505.76,333.49 506.10,337.52 506.43,340.72 506.77,343.43 507.10,343.86 507.44,340.09 507.77,343.05 508.11,347.78 508.44,351.16 508.78,351.48 509.11,352.65 509.45,351.22 509.78,339.90 510.12,335.55 510.45,327.40 510.79,326.96 511.12,324.56 511.46,318.73 511.79,323.95 512.13,335.51 512.46,336.98 512.80,339.19 513.13,343.69 513.47,337.15 513.80,331.80 514.14,330.03 514.47,318.87 514.81,317.86 515.14,316.35 515.48,314.60 515.81,304.49 516.15,315.41 516.48,317.30 516.82,305.78 517.15,306.16 517.49,306.86 517.82,309.69 518.16,305.40 518.49,300.52 518.83,304.80 519.16,309.41 519.50,310.61 519.83,316.42 520.17,309.68 520.50,308.21 520.84,308.36 521.17,316.85 521.51,314.12 521.84,300.88 522.18,305.54 522.51,299.82 522.85,295.08 523.18,287.02 523.52,287.91 523.85,280.87 524.19,283.24 524.52,293.76 524.86,304.23 525.19,316.37 525.53,315.61 525.86,306.26 526.20,316.15 526.53,317.12 526.87,311.10 527.20,317.56 527.54,319.99 527.87,321.79 528.21,336.30 528.54,333.39 528.88,341.85 529.21,344.18 529.55,340.91 529.88,349.71 530.22,356.92 530.55,360.05 530.89,365.79 531.22,357.30 531.56,353.44 531.89,354.55 532.23,363.55 532.56,358.18 532.90,354.12 533.23,356.82 533.57,367.13 533.90,375.30 534.24,373.18 534.57,374.00 534.91,377.50 535.24,368.69 535.58,377.78 535.91,366.42 536.25,384.10 536.58,387.10 536.92,383.49 537.25,374.90 537.59,362.50 537.92,366.57 538.26,368.39 538.59,373.37 538.93,365.47 539.26,363.53 539.60,357.26 539.93,361.90 540.27,363.18 540.60,361.68 540.94,362.84 541.27,356.14 541.61,360.31 541.94,347.66 542.28,347.92 542.61,343.09 542.95,338.73 543.28,342.65 543.62,333.69 543.95,339.87 544.29,341.47 544.62,335.03 544.96,328.76 545.29,334.11 545.63,336.51 545.96,324.37 546.30,318.70 546.63,323.85 546.97,329.32 547.30,325.56 547.64,324.75 547.97,313.50 548.31,312.25 548.64,309.65 548.98,309.64 549.31,315.01 549.65,318.16 549.98,324.21 550.32,330.75 550.65,326.03 550.99,318.00 551.32,324.77 551.66,315.22 551.99,311.29 552.33,308.47 552.66,307.98 553.00,312.16 553.33,323.66 553.67,319.93 554.00,327.94 554.34,327.30 554.67,324.93 555.01,329.11 555.34,328.16 555.68,333.50 556.01,328.17 556.35,323.99 556.68,326.17 557.02,327.27 557.35,333.03 557.69,335.60 558.02,334.75 558.36,339.51 558.69,345.22 559.03,341.99 559.36,341.56 559.70,338.31 560.03,335.08 560.37,340.44 560.70,338.20 561.04,337.03 561.37,342.19 561.71,336.81 562.04,339.68 562.38,344.15 562.71,350.97 563.05,361.73 563.38,364.27 563.72,369.47 564.05,368.66 564.39,383.02 564.72,385.55 565.06,393.01 565.39,404.00 565.73,418.48 566.06,423.61 566.40,416.27 566.73,412.18 567.07,415.75 567.40,408.01 567.74,407.45 568.07,418.76 568.41,404.88 568.74,407.80 569.08,399.60 569.41,396.92 569.75,420.58 570.08,416.11 570.42,403.41 570.75,417.65 571.09,430.56 571.42,434.07 571.76,428.68 572.09,420.42 572.43,419.36 572.76,414.23 573.10,408.54 573.43,402.72 573.77,414.43 574.10,415.30 574.44,421.28 574.77,413.66 575.11,400.44 575.44,385.35 575.78,374.83 576.11,381.00 576.45,398.35 576.78,389.24 577.12,387.65 577.45,394.62 577.79,403.48 578.12,393.61 578.46,395.29 578.79,402.98 579.13,409.33 579.46,414.06 579.80,409.57 580.13,411.91 580.47,420.22 580.80,418.81 581.14,415.57 581.47,406.45 581.81,393.92 582.14,393.63 582.48,397.56 582.81,390.89 583.15,390.19 583.48,394.77 583.82,400.91 584.15,395.48 584.49,396.11 584.82,386.18 585.16,379.95 585.49,375.62 585.83,374.30 586.16,367.36 586.50,370.54 586.83,380.55 587.17,373.92 587.50,364.59 587.84,364.37 588.17,366.83 588.51,363.47 588.84,357.94 589.18,356.51 589.51,361.36 589.85,370.61 590.18,376.29 590.52,377.76 590.85,378.86 591.19,377.51 591.52,372.45 591.86,368.20 592.19,366.97 592.53,368.26 592.86,375.89 593.20,376.38 593.53,372.95 593.87,377.23 594.20,373.90 594.54,374.10 594.87,368.62 595.21,357.44 595.54,351.27 595.88,346.77 596.21,347.07 596.55,345.77 596.88,339.89 597.22,331.92 597.55,331.80 597.89,332.12 598.22,334.35 598.56,332.32 598.89,329.31 599.23,322.82 599.56,320.72 599.90,333.88 600.23,340.84 600.57,339.94 600.90,339.15 601.24,338.22 601.57,332.79 601.91,331.52 602.24,334.25 602.58,331.59 602.91,324.77 603.25,334.65 603.58,334.09 603.92,339.64 604.25,346.34 604.59,347.81 604.92,350.65 605.26,355.24 605.59,351.00 605.93,356.35 606.26,352.77 606.60,354.56 606.93,356.26 607.27,356.71 607.60,358.67 607.94,347.73 608.27,351.94 608.61,343.89 608.94,341.05 609.28,343.38 609.61,342.91 609.95,347.38 610.28,351.45 610.62,341.58 610.95,344.27 611.29,348.24 611.62,337.40 611.96,327.47 612.29,332.56 612.63,329.58 612.96,330.54 613.30,335.23 613.63,343.00 613.97,339.08 614.30,330.49 614.64,327.15 614.97,324.13 615.31,320.88 615.64,315.54 615.98,313.97 616.31,323.01 616.65,323.83 616.98,327.12 617.32,323.63 617.65,334.49 617.99,334.19 618.32,324.78 618.66,325.75 618.99,323.71 619.33,312.20 619.66,308.03 620.00,312.67 620.33,309.66 620.67,309.04 621.00,308.02 621.34,311.27 621.67,309.13 622.01,307.03 622.34,308.11 622.68,303.37 623.01,305.17 623.35,304.73 623.68,301.70 624.02,305.18 624.35,304.20 624.69,301.84 625.02,302.99 625.36,301.69 625.69,300.22 626.03,300.18 626.36,302.63 626.70,306.97 627.03,309.58 627.37,306.61 627.70,306.64 628.04,304.71 628.37,303.97 628.71,304.37 629.04,307.89 629.38,310.08 629.71,313.91 630.05,315.98 630.38,316.96 630.72,315.11 631.05,313.06 631.39,315.10 631.72,309.88 632.06,312.34 632.39,313.45 632.73,309.30 633.06,305.40 633.40,298.64 633.73,298.66 634.07,301.69 634.40,303.39 634.74,301.61 635.07,296.73 635.41,301.90 635.74,302.70 636.08,305.72 636.41,304.69 636.75,305.59 637.08,305.94 637.42,302.24 637.75,298.21 638.09,300.85 638.42,298.59 638.76,297.41 639.09,297.05 639.43,298.86 639.76,296.15 640.10,297.45 640.43,293.48 640.77,289.14 641.10,287.78 641.44,287.32 641.77,287.56 642.11,289.58 642.44,289.36 642.78,288.63 643.11,290.75 643.45,286.57 643.78,284.31 644.12,282.16 644.45,282.25 644.79,283.05 645.12,284.35 645.46,285.96 645.79,285.03 646.13,280.91 646.46,281.40 646.80,283.07 647.13,281.58 647.47,283.16 647.80,282.11 648.14,278.89 648.47,276.83 648.81,277.62 649.14,276.28 649.48,276.53 649.81,275.36 650.15,275.01 650.48,276.78 650.82,279.54 651.15,278.89 651.49,282.89 651.82,282.26 652.16,285.10 652.49,285.49 652.83,289.28 653.16,290.82 653.50,288.36 653.83,288.62 654.17,289.13 654.50,289.19 654.84,287.88 655.17,287.25 655.51,288.07 655.84,288.59 656.18,290.00 656.51,288.62 656.85,288.42 657.18,292.28 657.52,293.02 657.85,291.69 658.19,289.01 658.52,288.84 658.86,287.48 659.19,286.18 659.53,285.16 659.86,286.70 660.20,286.54 660.53,287.15 660.87,286.17 661.20,286.64 661.54,285.58 661.87,284.50 662.21,287.71 662.54,289.78 662.88,288.40 663.21,290.05 663.55,290.43 663.88,290.15 664.22,290.09 664.55,290.32 664.89,290.00 665.22,289.10 665.56,289.02 665.89,288.85 666.23,289.13 666.56,288.84 666.90,288.57 667.23,289.36 667.57,290.16 667.90,289.16 668.24,289.03 668.57,288.19 668.91,289.27 669.24,288.36 669.58,287.04 669.91,288.74 670.25,290.62 670.58,291.24 670.92,292.05 671.25,291.55 671.59,291.21 671.92,291.68 672.26,291.29 672.59,291.97 672.93,290.61 673.26,290.66 673.60,290.78 673.93,292.18 674.27,292.50 674.60,291.91 674.94,290.47 675.27,289.79 675.61,288.65 675.94,289.48 676.28,289.79 676.61,291.18 676.95,291.20 677.28,289.96 677.62,288.89 677.95,289.73 678.29,289.85 678.62,289.96 678.96,289.94 679.29,290.01 679.63,290.06 679.96,290.08 680.30,290.06 680.63,290.12 680.97,290.15 681.30,290.16 681.64,290.11 681.97,290.17 682.31,290.24 682.64,290.20 682.98,290.17 683.31,290.41 683.65,290.34 683.98,290.39 684.32,290.03 684.65,289.80 684.99,289.83 685.32,289.83 685.66,290.31 685.99,289.98 686.33,290.17 686.66,290.44 687.00,290.24 687.33,290.54 687.67,289.81 688.00,290.34 688.34,289.20 688.67,292.44 689.01,289.63 689.34,289.48 689.68,293.64 690.01,294.65 690.35,295.86 690.68,292.34 691.02,291.63 691.35,291.24 691.69,295.24 692.02,297.53 692.36,300.06 692.69,302.90 693.03,300.70 693.36,302.86 693.70,298.69 694.03,300.11 694.37,300.25 694.70,303.86 695.04,303.78 695.37,304.41 695.71,307.77 696.04,311.22 696.38,309.59 696.71,304.53 697.05,306.45 697.38,314.59 697.72,310.93 698.05,311.66 698.39,310.81 698.72,314.07 699.06,315.96 699.39,316.02 699.73,313.60 700.06,314.86 700.40,316.94 700.73,318.05 701.07,319.40 701.40,317.16 701.74,315.43 702.07,314.69 702.41,314.56 702.74,315.32 703.08,317.10 703.41,317.26 703.75,315.31 704.08,314.91 704.42,310.32 704.75,312.79 705.09,311.14 705.42,311.12 705.76,310.06 706.09,312.49 706.43,313.59 706.76,314.38 707.10,315.10 707.43,316.85 707.77,315.53 708.10,314.49 708.44,315.17 708.77,315.04 709.11,314.64 709.44,314.03 709.78,314.03 710.11,314.19 710.45,313.87 710.78,313.13 711.12,311.42 711.45,310.86 711.79,311.08 712.12,310.88 712.46,310.96 712.79,310.65 713.13,309.98 713.46,310.23 713.80,311.24 714.13,310.64 714.47,309.85 714.80,310.83 715.14,310.75 715.47,310.50 715.81,310.59 716.14,309.91 716.48,310.85 716.81,311.22 717.15,310.92 717.48,310.73 717.82,310.68 718.15,310.72 718.49,310.76 718.82,310.76 719.16,310.77 719.49,310.73 719.83,310.78 720.16,310.71 720.50,310.80 720.83,310.44 721.17,310.89 721.50,311.46 721.84,311.18 722.17,310.76 722.51,311.30 722.84,313.55 723.18,310.41 723.51,310.11 723.85,308.37 724.18,307.86 724.52,307.82 724.85,308.64 725.19,310.99 725.52,310.84 725.86,310.92 726.19,309.71 726.53,309.50 726.86,310.80 727.20,310.15 727.53,310.07 727.87,309.68 728.20,310.84 728.54,311.58 728.87,311.60 729.21,311.60 729.54,311.25 729.88,311.37 730.21,311.13 730.55,311.23 730.88,311.77 731.22,311.98 731.55,312.80 731.89,312.70 732.22,313.31 732.56,311.69 732.89,312.85 733.23,311.93 733.56,312.70 733.90,314.36 734.23,315.87 734.57,315.30 734.90,313.96 735.24,314.10 735.57,314.13 735.91,314.19 736.24,314.22 736.58,313.48 736.91,312.08 737.25,311.82 737.58,311.62 737.92,310.02 738.25,310.21 738.59,309.62 738.92,309.73 739.26,309.58 739.59,310.10 739.93,310.96 740.26,310.60 740.60,309.20 740.93,310.23 741.27,311.71 741.60,311.11 741.94,312.22 742.27,311.68 742.61,311.21 742.94,311.26 743.28,312.40 743.61,312.83 743.95,315.21 744.28,313.99 744.62,313.60 744.95,312.58 745.29,310.99 745.62,310.15 745.96,307.13 746.29,308.41 746.63,307.18 746.96,306.57 747.30,305.99 747.63,303.23 747.97,305.06 748.30,304.96 748.64,304.58 748.97,301.65 749.31,298.35 749.64,300.48 749.98,300.05 750.31,301.95 750.65,301.36 750.98,302.35 751.32,302.59 751.65,300.09 751.99,300.18 752.32,300.92 752.66,300.37 752.99,300.88 753.33,303.08 753.66,303.23 754.00,302.71 754.33,302.89 754.67,303.02 755.00,303.46"/>
<line x1="783" y1="82" x2="809" y2="82" stroke="#dc2626" stroke-width="3"/>
<text x="817" y="86" font-family="Arial" font-size="13" fill="#111827">Avellaneda Stoikov</text>
<polyline fill="none" stroke="#7c3aed" stroke-width="2" points=""/>
<line x1="783" y1="106" x2="809" y2="106" stroke="#7c3aed" stroke-width="3"/>
<text x="817" y="110" font-family="Arial" font-size="13" fill="#111827">Calibrated Avellaneda Stoikov</text>
<text x="420.0" y="518" text-anchor="middle" font-family="Arial" font-size="14" fill="#111827">Event index</text>
<text x="22" y="256.0" text-anchor="middle" transform="rotate(-90 22 256.0)" font-family="Arial" font-size="14" fill="#111827">Net PnL after fees</text>
</svg>
