<svg xmlns="http://www.w3.org/2000/svg" width="940" height="540" viewBox="0 0 940 540">
<rect width="100%" height="100%" fill="#ffffff"/>
<text x="470.0" y="26" text-anchor="middle" font-family="Arial" font-size="18" fill="#111827">High Volatility Inventory</text>
<line x1="85" y1="470" x2="755" y2="470" stroke="#111827" stroke-width="1"/>
<line x1="85" y1="42" x2="85" y2="470" stroke="#111827" stroke-width="1"/>
<line x1="85.00" y1="42" x2="85.00" y2="470" stroke="#e5e7eb" stroke-width="1"/>
<text x="85.00" y="494" text-anchor="middle" font-family="Arial" font-size="12" fill="#374151">0</text>
<line x1="252.50" y1="42" x2="252.50" y2="470" stroke="#e5e7eb" stroke-width="1"/>
<text x="252.50" y="494" text-anchor="middle" font-family="Arial" font-size="12" fill="#374151">50000</text>
<line x1="420.00" y1="42" x2="420.00" y2="470" stroke="#e5e7eb" stroke-width="1"/>
<text x="420.00" y="494" text-anchor="middle" font-family="Arial" font-size="12" fill="#374151">100000</text>
<line x1="587.50" y1="42" x2="587.50" y2="470" stroke="#e5e7eb" stroke-width="1"/>
<text x="587.50" y="494" text-anchor="middle" font-family="Arial" font-size="12" fill="#374151">149999</text>
<line x1="755.00" y1="42" x2="755.00" y2="470" stroke="#e5e7eb" stroke-width="1"/>
<text x="755.00" y="494" text-anchor="middle" font-family="Arial" font-size="12" fill="#374151">199999</text>
<line x1="85" y1="470.00" x2="755" y2="470.00" stroke="#e5e7eb" stroke-width="1"/>
<text x="73" y="474.00" text-anchor="end" font-family="Arial" font-size="12" fill="#374151">-195</text>
<line x1="85" y1="363.00" x2="755" y2="363.00" stroke="#e5e7eb" stroke-width="1"/>
<text x="73" y="367.00" text-anchor="end" font-family="Arial" font-size="12" fill="#374151">-68</text>
<line x1="85" y1="256.00" x2="755" y2="256.00" stroke="#e5e7eb" stroke-width="1"/>
<text x="73" y="260.00" text-anchor="end" font-family="Arial" font-size="12" fill="#374151">58</text>
<line x1="85" y1="149.00" x2="755" y2="149.00" stroke="#e5e7eb" stroke-width="1"/>
<text x="73" y="153.00" text-anchor="end" font-family="Arial" font-size="12" fill="#374151">185</text>
<line x1="85" y1="42.00" x2="755" y2="42.00" stroke="#e5e7eb" stroke-width="1"/>
<text x="73" y="46.00" text-anchor="end" font-family="Arial" font-size="12" fill="#374151">312</text>
<polyline fill="none" stroke="#2563eb" stroke-width="2" points="85.00,305.39 85.34,305.39 85.67,305.39 86.01,305.39 86.34,305.39 86.68,305.39 87.01,313.84 87.35,313.84 87.68,313.84 88.02,313.84 88.35,305.39 88.69,305.39 89.02,313.84 89.36,313.84 89.69,313.84 90.03,313.84 90.36,330.72 90.70,330.72 91.03,330.72 91.37,322.28 91.70,322.28 92.04,313.84 92.37,313.84 92.71,313.84 93.04,313.84 93.38,313.84 93.71,322.28 94.05,322.28 94.38,322.28 94.72,322.28 95.05,322.28 95.39,313.84 95.72,313.84 96.06,313.84 96.39,313.84 96.73,313.84 97.06,313.84 97.40,313.84 97.73,322.28 98.07,313.84 98.40,313.84 98.74,313.84 99.07,313.84 99.41,313.84 99.74,313.84 100.08,313.84 100.41,322.28 100.75,322.28 101.08,322.28 101.42,322.28 101.75,339.16 102.09,339.16 102.42,339.16 102.76,339.16 103.09,347.61 103.43,347.61 103.76,347.61 104.10,347.61 104.43,347.61 104.77,347.61 105.10,347.61 105.44,347.61 105.77,339.16 106.11,347.61 106.44,356.05 106.78,356.05 107.11,356.05 107.45,356.05 107.78,356.05 108.12,356.05 108.45,356.05 108.79,356.05 109.12,356.05 109.46,364.49 109.79,364.49 110.13,364.49 110.46,364.49 110.80,372.94 111.13,381.38 111.47,381.38 111.80,381.38 112.14,381.38 112.47,381.38 112.81,381.38 113.14,381.38 113.48,381.38 113.81,372.94 114.15,372.94 114.48,372.94 114.82,372.94 115.15,381.38 115.49,381.38 115.82,389.82 116.16,389.82 116.49,406.71 116.83,415.15 117.16,423.60 117.50,432.04 117.83,432.04 118.17,432.04 118.50,423.60 118.84,415.15 119.17,406.71 119.51,406.71 119.84,406.71 120.18,398.27 120.51,398.27 120.85,398.27 121.18,398.27 121.52,398.27 121.85,398.27 122.19,398.27 122.52,398.27 122.86,389.82 123.19,389.82 123.53,389.82 123.86,398.27 124.20,398.27 124.53,398.27 124.87,398.27 125.20,389.82 125.54,389.82 125.87,389.82 126.21,389.82 126.54,381.38 126.88,381.38 127.21,381.38 127.55,389.82 127.88,389.82 128.22,389.82 128.55,389.82 128.89,389.82 129.22,389.82 129.56,398.27 129.89,398.27 130.23,398.27 130.56,398.27 130.90,398.27 131.23,406.71 131.57,406.71 131.90,415.15 132.24,415.15 132.57,415.15 132.91,415.15 133.24,432.04 133.58,440.48 133.91,440.48 134.25,432.04 134.58,432.04 134.92,432.04 135.25,423.60 135.59,415.15 135.92,406.71 136.26,406.71 136.59,415.15 136.93,415.15 137.26,415.15 137.60,406.71 137.93,406.71 138.27,406.71 138.60,406.71 138.94,406.71 139.27,406.71 139.61,406.71 139.94,415.15 140.28,415.15 140.61,423.60 140.95,423.60 141.28,415.15 141.62,415.15 141.95,415.15 142.29,406.71 142.62,406.71 142.96,406.71 143.29,415.15 143.63,415.15 143.96,415.15 144.30,415.15 144.63,415.15 144.97,415.15 145.30,415.15 145.64,423.60 145.97,423.60 146.31,423.60 146.64,415.15 146.98,415.15 147.31,432.04 147.65,432.04 147.98,432.04 148.32,440.48 148.65,423.60 148.99,423.60 149.32,415.15 149.66,406.71 149.99,406.71 150.33,415.15 150.66,415.15 151.00,415.15 151.33,415.15 151.67,415.15 152.00,415.15 152.34,415.15 152.67,415.15 153.01,415.15 153.34,415.15 153.68,415.15 154.01,398.27 154.35,389.82 154.68,389.82 155.02,389.82 155.35,389.82 155.69,372.94 156.02,372.94 156.36,389.82 156.69,389.82 157.03,398.27 157.36,389.82 157.70,389.82 158.03,389.82 158.37,389.82 158.70,389.82 159.04,372.94 159.37,372.94 159.71,372.94 160.04,372.94 160.38,372.94 160.71,372.94 161.05,372.94 161.38,372.94 161.72,372.94 162.05,372.94 162.39,372.94 162.72,372.94 163.06,372.94 163.39,372.94 163.73,372.94 164.06,372.94 164.40,372.94 164.73,372.94 165.07,372.94 165.40,372.94 165.74,372.94 166.07,372.94 166.41,372.94 166.74,381.38 167.08,381.38 167.41,381.38 167.75,372.94 168.08,372.94 168.42,364.49 168.75,364.49 169.09,372.94 169.42,381.38 169.76,381.38 170.09,381.38 170.43,389.82 170.76,398.27 171.10,398.27 171.43,398.27 171.77,406.71 172.10,398.27 172.44,398.27 172.77,398.27 173.11,389.82 173.44,389.82 173.78,398.27 174.11,398.27 174.45,389.82 174.78,389.82 175.12,389.82 175.45,381.38 175.79,372.94 176.12,372.94 176.46,372.94 176.79,372.94 177.13,364.49 177.46,364.49 177.80,356.05 178.13,356.05 178.47,347.61 178.80,347.61 179.14,339.16 179.47,330.72 179.81,330.72 180.14,330.72 180.48,339.16 180.81,347.61 181.15,339.16 181.48,339.16 181.82,339.16 182.15,339.16 182.49,339.16 182.82,339.16 183.16,339.16 183.49,330.72 183.83,339.16 184.16,339.16 184.50,339.16 184.83,339.16 185.17,339.16 185.50,330.72 185.84,339.16 186.17,339.16 186.51,339.16 186.84,330.72 187.18,330.72 187.51,330.72 187.85,322.28 188.18,322.28 188.52,322.28 188.85,322.28 189.19,322.28 189.52,330.72 189.86,330.72 190.19,330.72 190.53,330.72 190.86,330.72 191.20,330.72 191.53,330.72 191.87,330.72 192.20,330.72 192.54,330.72 192.87,330.72 193.21,330.72 193.54,330.72 193.88,339.16 194.21,347.61 194.55,356.05 194.88,347.61 195.22,347.61 195.55,339.16 195.89,339.16 196.22,339.16 196.56,339.16 196.89,347.61 197.23,347.61 197.56,347.61 197.90,347.61 198.23,339.16 198.57,339.16 198.90,347.61 199.24,347.61 199.57,347.61 199.91,347.61 200.24,347.61 200.58,347.61 200.91,347.61 201.25,347.61 201.58,347.61 201.92,339.16 202.25,339.16 202.59,339.16 202.92,330.72 203.26,330.72 203.59,330.72 203.93,330.72 204.26,330.72 204.60,330.72 204.93,330.72 205.27,339.16 205.60,339.16 205.94,339.16 206.27,339.16 206.61,339.16 206.94,339.16 207.28,339.16 207.61,339.16 207.95,339.16 208.28,330.72 208.62,339.16 208.95,339.16 209.29,339.16 209.62,339.16 209.96,330.72 210.29,330.72 210.63,339.16 210.96,330.72 211.30,322.28 211.63,322.28 211.97,330.72 212.30,330.72 212.64,339.16 212.97,339.16 213.31,339.16 213.64,339.16 213.98,339.16 214.31,339.16 214.65,339.16 214.98,339.16 215.32,339.16 215.65,339.16 215.99,339.16 216.32,339.16 216.66,339.16 216.99,356.05 217.33,347.61 217.66,347.61 218.00,347.61 218.33,347.61 218.67,347.61 219.00,347.61 219.34,347.61 219.67,356.05 220.01,356.05 220.34,356.05 220.68,356.05 221.01,356.05 221.35,356.05 221.68,356.05 222.02,356.05 222.35,356.05 222.69,347.61 223.02,356.05 223.36,356.05 223.69,347.61 224.03,347.61 224.36,356.05 224.70,356.05 225.03,356.05 225.37,347.61 225.70,347.61 226.04,347.61 226.37,347.61 226.71,347.61 227.04,339.16 227.38,339.16 227.71,339.16 228.05,339.16 228.38,339.16 228.72,339.16 229.05,339.16 229.39,339.16 229.72,339.16 230.06,347.61 230.39,347.61 230.73,347.61 231.06,347.61 231.40,347.61 231.73,347.61 232.07,347.61 232.40,347.61 232.74,347.61 233.07,347.61 233.41,347.61 233.74,356.05 234.08,356.05 234.41,356.05 234.75,356.05 235.08,356.05 235.42,356.05 235.75,356.05 236.09,356.05 236.42,356.05 236.76,356.05 237.09,356.05 237.43,356.05 237.76,347.61 238.10,339.16 238.43,339.16 238.77,339.16 239.10,347.61 239.44,347.61 239.77,347.61 240.11,356.05 240.44,372.94 240.78,372.94 241.11,372.94 241.45,372.94 241.78,372.94 242.12,372.94 242.45,364.49 242.79,364.49 243.12,364.49 243.46,364.49 243.79,364.49 244.13,364.49 244.46,364.49 244.80,364.49 245.13,364.49 245.47,364.49 245.80,364.49 246.14,364.49 246.47,364.49 246.81,364.49 247.14,364.49 247.48,364.49 247.81,372.94 248.15,381.38 248.48,381.38 248.82,381.38 249.15,364.49 249.49,356.05 249.82,356.05 250.16,356.05 250.49,356.05 250.83,356.05 251.16,356.05 251.50,364.49 251.83,364.49 252.17,372.94 252.50,364.49 252.84,364.49 253.17,356.05 253.51,356.05 253.84,356.05 254.18,356.05 254.51,356.05 254.85,356.05 255.18,356.05 255.52,364.49 255.85,364.49 256.19,364.49 256.52,364.49 256.86,364.49 257.19,364.49 257.53,364.49 257.86,364.49 258.20,356.05 258.53,356.05 258.87,356.05 259.20,356.05 259.54,356.05 259.87,356.05 260.21,356.05 260.54,356.05 260.88,356.05 261.21,356.05 261.55,356.05 261.88,356.05 262.22,356.05 262.55,356.05 262.89,356.05 263.22,356.05 263.56,356.05 263.89,356.05 264.23,356.05 264.56,356.05 264.90,356.05 265.23,364.49 265.57,364.49 265.90,364.49 266.24,372.94 266.57,381.38 266.91,381.38 267.24,381.38 267.58,372.94 267.91,381.38 268.25,381.38 268.58,381.38 268.92,381.38 269.25,381.38 269.59,381.38 269.92,381.38 270.26,381.38 270.59,381.38 270.93,364.49 271.26,364.49 271.60,364.49 271.93,364.49 272.27,372.94 272.60,372.94 272.94,372.94 273.27,372.94 273.61,372.94 273.94,372.94 274.28,372.94 274.61,364.49 274.95,364.49 275.28,356.05 275.62,356.05 275.95,356.05 276.29,347.61 276.62,347.61 276.96,356.05 277.29,356.05 277.63,356.05 277.96,347.61 278.30,347.61 278.63,347.61 278.97,339.16 279.30,339.16 279.64,339.16 279.97,339.16 280.31,339.16 280.64,330.72 280.98,322.28 281.31,313.84 281.65,305.39 281.98,305.39 282.32,305.39 282.65,296.95 282.99,296.95 283.32,296.95 283.66,296.95 283.99,296.95 284.33,296.95 284.66,296.95 285.00,296.95 285.33,296.95 285.67,296.95 286.00,305.39 286.34,296.95 286.67,296.95 287.01,296.95 287.34,296.95 287.68,296.95 288.01,296.95 288.35,296.95 288.68,296.95 289.02,296.95 289.35,296.95 289.69,296.95 290.02,296.95 290.36,296.95 290.69,296.95 291.03,296.95 291.36,296.95 291.70,296.95 292.03,296.95 292.37,288.51 292.70,288.51 293.04,288.51 293.37,288.51 293.71,288.51 294.04,288.51 294.38,288.51 294.71,288.51 295.05,296.95 295.38,313.84 295.72,313.84 296.05,313.84 296.39,305.39 296.72,305.39 297.06,305.39 297.39,305.39 297.73,305.39 298.06,305.39 298.40,305.39 298.73,305.39 299.07,305.39 299.40,305.39 299.74,296.95 300.07,296.95 300.41,296.95 300.74,296.95 301.08,288.51 301.41,288.51 301.75,288.51 302.08,288.51 302.42,296.95 302.75,288.51 303.09,288.51 303.42,288.51 303.76,280.06 304.09,288.51 304.43,288.51 304.76,296.95 305.10,296.95 305.43,296.95 305.77,296.95 306.10,296.95 306.44,271.62 306.77,254.73 307.11,254.73 307.44,254.73 307.78,254.73 308.11,254.73 308.45,246.29 308.78,246.29 309.12,246.29 309.45,237.85 309.79,237.85 310.12,246.29 310.46,246.29 310.79,246.29 311.13,246.29 311.46,246.29 311.80,246.29 312.13,254.73 312.47,246.29 312.80,246.29 313.14,254.73 313.47,246.29 313.81,254.73 314.14,254.73 314.48,254.73 314.81,246.29 315.15,246.29 315.48,237.85 315.82,237.85 316.15,237.85 316.49,237.85 316.82,237.85 317.16,237.85 317.49,229.40 317.83,229.40 318.16,237.85 318.50,237.85 318.83,229.40 319.17,229.40 319.50,229.40 319.84,229.40 320.17,229.40 320.51,229.40 320.84,229.40 321.18,229.40 321.51,229.40 321.85,229.40 322.18,229.40 322.52,229.40 322.85,229.40 323.19,229.40 323.52,229.40 323.86,229.40 324.19,237.85 324.53,237.85 324.86,237.85 325.20,237.85 325.53,237.85 325.87,254.73 326.20,263.18 326.54,263.18 326.87,263.18 327.21,263.18 327.54,263.18 327.88,263.18 328.21,263.18 328.55,263.18 328.88,263.18 329.22,263.18 329.55,263.18 329.89,254.73 330.22,254.73 330.56,254.73 330.89,254.73 331.23,254.73 331.56,271.62 331.90,271.62 332.23,271.62 332.57,280.06 332.90,280.06 333.24,280.06 333.57,296.95 333.91,296.95 334.24,296.95 334.58,288.51 334.91,296.95 335.25,296.95 335.58,296.95 335.92,296.95 336.25,296.95 336.59,296.95 336.92,296.95 337.26,296.95 337.59,296.95 337.93,296.95 338.26,296.95 338.60,296.95 338.93,296.95 339.27,305.39 339.60,305.39 339.94,305.39 340.27,305.39 340.61,305.39 340.94,305.39 341.28,305.39 341.61,305.39 341.95,305.39 342.28,305.39 342.62,305.39 342.95,313.84 343.29,313.84 343.62,305.39 343.96,305.39 344.29,288.51 344.63,288.51 344.96,288.51 345.30,288.51 345.63,280.06 345.97,271.62 346.30,271.62 346.64,271.62 346.97,271.62 347.31,271.62 347.64,271.62 347.98,271.62 348.31,263.18 348.65,263.18 348.98,263.18 349.32,254.73 349.65,254.73 349.99,254.73 350.32,254.73 350.66,254.73 350.99,254.73 351.33,263.18 351.66,263.18 352.00,263.18 352.33,263.18 352.67,263.18 353.00,254.73 353.34,246.29 353.67,246.29 354.01,246.29 354.34,263.18 354.68,263.18 355.01,263.18 355.35,263.18 355.68,263.18 356.02,254.73 356.35,254.73 356.69,254.73 357.02,254.73 357.36,254.73 357.69,254.73 358.03,246.29 358.36,237.85 358.70,237.85 359.03,237.85 359.37,237.85 359.70,237.85 360.04,237.85 360.37,229.40 360.71,229.40 361.04,229.40 361.38,212.52 361.71,212.52 362.05,204.07 362.38,204.07 362.72,204.07 363.05,195.63 363.39,195.63 363.72,204.07 364.06,195.63 364.39,195.63 364.73,195.63 365.06,195.63 365.40,187.19 365.73,195.63 366.07,195.63 366.40,195.63 366.74,195.63 367.07,195.63 367.41,195.63 367.74,204.07 368.08,212.52 368.41,212.52 368.75,212.52 369.08,212.52 369.42,220.96 369.75,220.96 370.09,220.96 370.42,212.52 370.76,212.52 371.09,212.52 371.43,204.07 371.76,204.07 372.10,204.07 372.43,204.07 372.77,212.52 373.10,212.52 373.44,204.07 373.77,204.07 374.11,212.52 374.44,212.52 374.78,220.96 375.11,220.96 375.45,220.96 375.78,220.96 376.12,229.40 376.45,229.40 376.79,229.40 377.12,220.96 377.46,229.40 377.79,229.40 378.13,229.40 378.46,237.85 378.80,237.85 379.13,237.85 379.47,229.40 379.80,246.29 380.14,246.29 380.47,246.29 380.81,271.62 381.14,263.18 381.48,246.29 381.81,254.73 382.15,231.94 382.48,231.94 382.82,223.49 383.15,223.49 383.49,223.49 383.82,206.61 384.16,198.16 384.49,198.16 384.83,198.16 385.16,198.16 385.50,206.61 385.83,215.05 386.17,215.05 386.50,215.05 386.84,215.05 387.17,215.05 387.51,223.49 387.84,223.49 388.18,223.49 388.51,223.49 388.85,215.05 389.18,206.61 389.52,198.16 389.85,198.16 390.19,206.61 390.52,206.61 390.86,206.61 391.19,206.61 391.53,198.16 391.86,189.72 392.20,189.72 392.53,181.28 392.87,181.28 393.20,181.28 393.54,172.84 393.87,172.84 394.21,172.84 394.54,181.28 394.88,181.28 395.21,189.72 395.55,189.72 395.88,198.16 396.22,198.16 396.55,198.16 396.89,198.16 397.22,198.16 397.56,198.16 397.89,189.72 398.23,206.61 398.56,206.61 398.90,189.72 399.23,189.72 399.57,189.72 399.90,181.28 400.24,181.28 400.57,198.16 400.91,198.16 401.24,198.16 401.58,198.16 401.91,198.16 402.25,189.72 402.58,181.28 402.92,181.28 403.25,181.28 403.59,181.28 403.92,181.28 404.26,181.28 404.59,181.28 404.93,181.28 405.26,181.28 405.60,181.28 405.93,181.28 406.27,181.28 406.60,181.28 406.94,181.28 407.27,189.72 407.61,189.72 407.94,189.72 408.28,189.72 408.61,189.72 408.95,189.72 409.28,189.72 409.62,189.72 409.95,181.28 410.29,181.28 410.62,181.28 410.96,181.28 411.29,181.28 411.63,181.28 411.96,181.28 412.30,181.28 412.63,172.84 412.97,172.84 413.30,172.84 413.64,172.84 413.97,181.28 414.31,181.28 414.64,181.28 414.98,181.28 415.31,181.28 415.65,181.28 415.98,181.28 416.32,172.84 416.65,181.28 416.99,172.84 417.32,172.84 417.66,181.28 417.99,181.28 418.33,181.28 418.66,181.28 419.00,172.84 419.33,172.84 419.67,172.84 420.00,181.28 420.34,181.28 420.67,181.28 421.01,181.28 421.34,181.28 421.68,181.28 422.01,181.28 422.35,181.28 422.68,181.28 423.02,181.28 423.35,189.72 423.69,189.72 424.02,189.72 424.36,189.72 424.69,189.72 425.03,189.72 425.36,181.28 425.70,181.28 426.03,189.72 426.37,181.28 426.70,181.28 427.04,181.28 427.37,181.28 427.71,181.28 428.04,181.28 428.38,181.28 428.71,189.72 429.05,172.84 429.38,172.84 429.72,172.84 430.05,172.84 430.39,172.84 430.72,164.39 431.06,172.84 431.39,172.84 431.73,172.84 432.06,181.28 432.40,189.72 432.73,189.72 433.07,189.72 433.40,189.72 433.74,189.72 434.07,181.28 434.41,181.28 434.74,181.28 435.08,181.28 435.41,189.72 435.75,189.72 436.08,181.28 436.42,181.28 436.75,181.28 437.09,181.28 437.42,181.28 437.76,172.84 438.09,172.84 438.43,164.39 438.76,164.39 439.10,164.39 439.43,164.39 439.77,155.95 440.10,155.95 440.44,155.95 440.77,155.95 441.11,155.95 441.44,147.51 441.78,147.51 442.11,147.51 442.45,147.51 442.78,147.51 443.12,147.51 443.45,147.51 443.79,147.51 444.12,147.51 444.46,147.51 444.79,147.51 445.13,139.06 445.46,139.06 445.80,139.06 446.13,130.62 446.47,122.18 446.80,113.73 447.14,113.73 447.47,113.73 447.81,113.73 448.14,96.85 448.48,96.85 448.81,96.85 449.15,96.85 449.48,105.29 449.82,105.29 450.15,105.29 450.49,105.29 450.82,105.29 451.16,105.29 451.49,105.29 451.83,113.73 452.16,113.73 452.50,113.73 452.83,122.18 453.17,122.18 453.50,122.18 453.84,122.18 454.17,130.62 454.51,122.18 454.84,122.18 455.18,122.18 455.51,113.73 455.85,113.73 456.18,122.18 456.52,122.18 456.85,113.73 457.19,105.29 457.52,113.73 457.86,122.18 458.19,122.18 458.53,130.62 458.86,130.62 459.20,122.18 459.53,122.18 459.87,113.73 460.20,113.73 460.54,122.18 460.87,122.18 461.21,113.73 461.54,105.29 461.88,88.40 462.21,88.40 462.55,79.96 462.88,71.52 463.22,79.96 463.55,79.96 463.89,79.96 464.22,79.96 464.56,79.96 464.89,79.96 465.23,79.96 465.56,79.96 465.90,79.96 466.23,79.96 466.57,79.96 466.90,88.40 467.24,96.85 467.57,96.85 467.91,96.85 468.24,96.85 468.58,96.85 468.91,96.85 469.25,96.85 469.58,96.85 469.92,96.85 470.25,96.85 470.59,96.85 470.92,96.85 471.26,113.73 471.59,113.73 471.93,113.73 472.26,113.73 472.60,113.73 472.93,113.73 473.27,130.62 473.60,130.62 473.94,122.18 474.27,122.18 474.61,122.18 474.94,122.18 475.28,122.18 475.61,122.18 475.95,122.18 476.28,122.18 476.62,122.18 476.95,122.18 477.29,122.18 477.62,122.18 477.96,122.18 478.29,122.18 478.63,122.18 478.96,113.73 479.30,113.73 479.63,113.73 479.97,113.73 480.30,122.18 480.64,122.18 480.97,130.62 481.31,139.06 481.64,147.51 481.98,155.95 482.31,164.39 482.65,164.39 482.98,164.39 483.32,164.39 483.65,164.39 483.99,172.84 484.32,172.84 484.66,164.39 484.99,155.95 485.33,155.95 485.66,155.95 486.00,155.95 486.33,155.95 486.67,155.95 487.00,147.51 487.34,147.51 487.67,139.06 488.01,139.06 488.34,139.06 488.68,139.06 489.01,139.06 489.35,139.06 489.68,139.06 490.02,139.06 490.35,139.06 490.69,139.06 491.02,155.95 491.36,164.39 491.69,164.39 492.03,164.39 492.36,164.39 492.70,164.39 493.03,164.39 493.37,164.39 493.70,164.39 494.04,164.39 494.37,164.39 494.71,164.39 495.04,164.39 495.38,164.39 495.71,164.39 496.05,164.39 496.38,164.39 496.72,164.39 497.05,164.39 497.39,164.39 497.72,164.39 498.06,164.39 498.39,155.95 498.73,155.95 499.06,155.95 499.40,155.95 499.73,164.39 500.07,172.84 500.40,172.84 500.74,172.84 501.07,172.84 501.41,172.84 501.74,172.84 502.08,172.84 502.41,164.39 502.75,164.39 503.08,172.84 503.42,181.28 503.75,181.28 504.09,181.28 504.42,189.72 504.76,198.16 505.09,198.16 505.43,198.16 505.76,198.16 506.10,198.16 506.43,198.16 506.77,198.16 507.10,198.16 507.44,206.61 507.77,206.61 508.11,206.61 508.44,198.16 508.78,198.16 509.11,198.16 509.45,198.16 509.78,206.61 510.12,206.61 510.45,206.61 510.79,206.61 511.12,206.61 511.46,198.16 511.79,198.16 512.13,198.16 512.46,198.16 512.80,198.16 513.13,198.16 513.47,206.61 513.80,206.61 514.14,206.61 514.47,206.61 514.81,198.16 515.14,189.72 515.48,181.28 515.81,181.28 516.15,181.28 516.48,181.28 516.82,181.28 517.15,181.28 517.49,172.84 517.82,172.84 518.16,172.84 518.49,172.84 518.83,172.84 519.16,164.39 519.50,164.39 519.83,164.39 520.17,155.95 520.50,147.51 520.84,155.95 521.17,164.39 521.51,172.84 521.84,172.84 522.18,172.84 522.51,172.84 522.85,164.39 523.18,172.84 523.52,164.39 523.85,164.39 524.19,164.39 524.52,155.95 524.86,155.95 525.19,155.95 525.53,164.39 525.86,172.84 526.20,172.84 526.53,172.84 526.87,172.84 527.20,172.84 527.54,172.84 527.87,181.28 528.21,181.28 528.54,181.28 528.88,181.28 529.21,181.28 529.55,172.84 529.88,172.84 530.22,164.39 530.55,164.39 530.89,164.39 531.22,155.95 531.56,155.95 531.89,155.95 532.23,155.95 532.56,155.95 532.90,155.95 533.23,164.39 533.57,164.39 533.90,164.39 534.24,164.39 534.57,164.39 534.91,164.39 535.24,164.39 535.58,164.39 535.91,164.39 536.25,172.84 536.58,172.84 536.92,172.84 537.25,181.28 537.59,181.28 537.92,181.28 538.26,189.72 538.59,198.16 538.93,198.16 539.26,189.72 539.60,189.72 539.93,198.16 540.27,206.61 540.60,206.61 540.94,206.61 541.27,206.61 541.61,206.61 541.94,206.61 542.28,206.61 542.61,198.16 542.95,206.61 543.28,198.16 543.62,198.16 543.95,198.16 544.29,198.16 544.62,198.16 544.96,198.16 545.29,198.16 545.63,198.16 545.96,198.16 546.30,198.16 546.63,206.61 546.97,206.61 547.30,206.61 547.64,206.61 547.97,198.16 548.31,198.16 548.64,198.16 548.98,198.16 549.31,206.61 549.65,206.61 549.98,206.61 550.32,206.61 550.65,198.16 550.99,198.16 551.32,198.16 551.66,198.16 551.99,206.61 552.33,198.16 552.66,198.16 553.00,198.16 553.33,206.61 553.67,206.61 554.00,206.61 554.34,206.61 554.67,206.61 555.01,206.61 555.34,206.61 555.68,206.61 556.01,206.61 556.35,206.61 556.68,206.61 557.02,206.61 557.35,198.16 557.69,206.61 558.02,206.61 558.36,198.16 558.69,198.16 559.03,189.72 559.36,198.16 559.70,189.72 560.03,172.84 560.37,172.84 560.70,164.39 561.04,164.39 561.37,164.39 561.71,164.39 562.04,172.84 562.38,172.84 562.71,172.84 563.05,172.84 563.38,172.84 563.72,172.84 564.05,164.39 564.39,164.39 564.72,164.39 565.06,164.39 565.39,164.39 565.73,172.84 566.06,181.28 566.40,172.84 566.73,161.01 567.07,152.57 567.40,152.57 567.74,152.57 568.07,152.57 568.41,144.13 568.74,144.13 569.08,144.13 569.41,144.13 569.75,144.13 570.08,144.13 570.42,144.13 570.75,135.69 571.09,127.24 571.42,127.24 571.76,127.24 572.09,118.80 572.43,127.24 572.76,127.24 573.10,127.24 573.43,127.24 573.77,135.69 574.10,135.69 574.44,135.69 574.77,144.13 575.11,144.13 575.44,144.13 575.78,135.69 576.11,144.13 576.45,152.57 576.78,152.57 577.12,161.01 577.45,169.46 577.79,186.34 578.12,186.34 578.46,186.34 578.79,177.90 579.13,186.34 579.46,186.34 579.80,186.34 580.13,186.34 580.47,177.90 580.80,177.90 581.14,186.34 581.47,186.34 581.81,186.34 582.14,186.34 582.48,186.34 582.81,186.34 583.15,186.34 583.48,186.34 583.82,186.34 584.15,186.34 584.49,186.34 584.82,186.34 585.16,194.79 585.49,194.79 585.83,194.79 586.16,194.79 586.50,194.79 586.83,194.79 587.17,194.79 587.50,194.79 587.84,203.23 588.17,203.23 588.51,203.23 588.84,211.67 589.18,211.67 589.51,211.67 589.85,211.67 590.18,211.67 590.52,220.12 590.85,220.12 591.19,228.56 591.52,228.56 591.86,220.12 592.19,220.12 592.53,220.12 592.86,211.67 593.20,211.67 593.53,211.67 593.87,211.67 594.20,220.12 594.54,220.12 594.87,211.67 595.21,211.67 595.54,211.67 595.88,211.67 596.21,211.67 596.55,211.67 596.88,211.67 597.22,203.23 597.55,211.67 597.89,211.67 598.22,211.67 598.56,211.67 598.89,211.67 599.23,203.23 599.56,203.23 599.90,203.23 600.23,203.23 600.57,211.67 600.90,203.23 601.24,203.23 601.57,203.23 601.91,203.23 602.24,203.23 602.58,211.67 602.91,211.67 603.25,211.67 603.58,211.67 603.92,211.67 604.25,211.67 604.59,211.67 604.92,211.67 605.26,211.67 605.59,203.23 605.93,211.67 606.26,211.67 606.60,211.67 606.93,211.67 607.27,211.67 607.60,211.67 607.94,211.67 608.27,220.12 608.61,211.67 608.94,211.67 609.28,220.12 609.61,228.56 609.95,228.56 610.28,228.56 610.62,220.12 610.95,220.12 611.29,220.12 611.62,220.12 611.96,211.67 612.29,211.67 612.63,211.67 612.96,203.23 613.30,194.79 613.63,194.79 613.97,194.79 614.30,194.79 614.64,203.23 614.97,203.23 615.31,203.23 615.64,203.23 615.98,203.23 616.31,203.23 616.65,211.67 616.98,220.12 617.32,220.12 617.65,211.67 617.99,211.67 618.32,211.67 618.66,211.67 618.99,211.67 619.33,211.67 619.66,211.67 620.00,220.12 620.33,220.12 620.67,237.00 621.00,237.00 621.34,237.00 621.67,237.00 622.01,237.00 622.34,245.45 622.68,253.89 623.01,253.89 623.35,253.89 623.68,253.89 624.02,253.89 624.35,253.89 624.69,253.89 625.02,245.45 625.36,237.00 625.69,237.00 626.03,237.00 626.36,245.45 626.70,245.45 627.03,253.89 627.37,253.89 627.70,253.89 628.04,253.89 628.37,245.45 628.71,245.45 629.04,237.00 629.38,237.00 629.71,245.45 630.05,245.45 630.38,253.89 630.72,253.89 631.05,253.89 631.39,253.89 631.72,253.89 632.06,253.89 632.39,253.89 632.73,253.89 633.06,253.89 633.40,253.89 633.73,253.89 634.07,253.89 634.40,262.33 634.74,262.33 635.07,253.89 635.41,253.89 635.74,253.89 636.08,253.89 636.41,262.33 636.75,262.33 637.08,262.33 637.42,262.33 637.75,262.33 638.09,262.33 638.42,262.33 638.76,253.89 639.09,253.89 639.43,253.89 639.76,253.89 640.10,253.89 640.43,253.89 640.77,253.89 641.10,245.45 641.44,245.45 641.77,245.45 642.11,245.45 642.44,245.45 642.78,262.33 643.11,262.33 643.45,262.33 643.78,262.33 644.12,262.33 644.45,262.33 644.79,262.33 645.12,253.89 645.46,253.89 645.79,253.89 646.13,262.33 646.46,262.33 646.80,262.33 647.13,262.33 647.47,279.22 647.80,279.22 648.14,270.78 648.47,270.78 648.81,270.78 649.14,270.78 649.48,270.78 649.81,270.78 650.15,270.78 650.48,270.78 650.82,262.33 651.15,262.33 651.49,262.33 651.82,262.33 652.16,253.89 652.49,262.33 652.83,262.33 653.16,270.78 653.50,270.78 653.83,270.78 654.17,270.78 654.50,270.78 654.84,279.22 655.17,279.22 655.51,279.22 655.84,279.22 656.18,279.22 656.51,270.78 656.85,270.78 657.18,270.78 657.52,279.22 657.85,279.22 658.19,279.22 658.52,279.22 658.86,279.22 659.19,279.22 659.53,279.22 659.86,279.22 660.20,279.22 660.53,270.78 660.87,270.78 661.20,270.78 661.54,270.78 661.87,270.78 662.21,279.22 662.54,279.22 662.88,287.66 663.21,287.66 663.55,296.10 663.88,304.55 664.22,304.55 664.55,296.10 664.89,296.10 665.22,304.55 665.56,296.10 665.89,296.10 666.23,296.10 666.56,296.10 666.90,296.10 667.23,296.10 667.57,296.10 667.90,296.10 668.24,287.66 668.57,287.66 668.91,287.66 669.24,287.66 669.58,279.22 669.91,287.66 670.25,287.66 670.58,287.66 670.92,287.66 671.25,287.66 671.59,296.10 671.92,296.10 672.26,296.10 672.59,296.10 672.93,287.66 673.26,287.66 673.60,287.66 673.93,287.66 674.27,287.66 674.60,287.66 674.94,287.66 675.27,287.66 675.61,287.66 675.94,287.66 676.28,287.66 676.61,287.66 676.95,296.10 677.28,296.10 677.62,296.10 677.95,296.10 678.29,304.55 678.62,304.55 678.96,304.55 679.29,304.55 679.63,304.55 679.96,304.55 680.30,304.55 680.63,304.55 680.97,304.55 681.30,304.55 681.64,304.55 681.97,304.55 682.31,304.55 682.64,304.55 682.98,304.55 683.31,296.10 683.65,304.55 683.98,304.55 684.32,312.99 684.65,304.55 684.99,304.55 685.32,304.55 685.66,296.10 685.99,304.55 686.33,321.43 686.66,321.43 687.00,321.43 687.33,321.43 687.67,321.43 688.00,329.88 688.34,329.88 688.67,338.32 689.01,338.32 689.34,346.76 689.68,355.21 690.01,355.21 690.35,355.21 690.68,355.21 691.02,355.21 691.35,355.21 691.69,363.65 692.02,372.09 692.36,372.09 692.69,363.65 693.03,363.65 693.36,363.65 693.70,355.21 694.03,355.21 694.37,355.21 694.70,346.76 695.04,346.76 695.37,346.76 695.71,346.76 696.04,346.76 696.38,346.76 696.71,355.21 697.05,363.65 697.38,363.65 697.72,363.65 698.05,355.21 698.39,355.21 698.72,355.21 699.06,355.21 699.39,346.76 699.73,338.32 700.06,338.32 700.40,329.88 700.73,329.88 701.07,329.88 701.40,329.88 701.74,329.88 702.07,329.88 702.41,329.88 702.74,329.88 703.08,329.88 703.41,329.88 703.75,338.32 704.08,338.32 704.42,338.32 704.75,329.88 705.09,329.88 705.42,338.32 705.76,338.32 706.09,329.88 706.43,321.43 706.76,321.43 707.10,321.43 707.43,321.43 707.77,321.43 708.10,321.43 708.44,321.43 708.77,321.43 709.11,321.43 709.44,321.43 709.78,321.43 710.11,321.43 710.45,321.43 710.78,321.43 711.12,321.43 711.45,321.43 711.79,312.99 712.12,312.99 712.46,312.99 712.79,321.43 713.13,321.43 713.46,321.43 713.80,329.88 714.13,329.88 714.47,329.88 714.80,329.88 715.14,329.88 715.47,329.88 715.81,321.43 716.14,321.43 716.48,312.99 716.81,312.99 717.15,312.99 717.48,304.55 717.82,304.55 718.15,304.55 718.49,304.55 718.82,304.55 719.16,304.55 719.49,304.55 719.83,304.55 720.16,304.55 720.50,287.66 720.83,287.66 721.17,287.66 721.50,287.66 721.84,287.66 722.17,279.22 722.51,279.22 722.84,279.22 723.18,279.22 723.51,279.22 723.85,270.78 724.18,270.78 724.52,270.78 724.85,270.78 725.19,279.22 725.52,279.22 725.86,279.22 726.19,287.66 726.53,287.66 726.86,296.10 727.20,304.55 727.53,304.55 727.87,296.10 728.20,296.10 728.54,304.55 728.87,304.55 729.21,304.55 729.54,312.99 729.88,312.99 730.21,304.55 730.55,304.55 730.88,312.99 731.22,312.99 731.55,312.99 731.89,321.43 732.22,321.43 732.56,321.43 732.89,329.88 733.23,329.88 733.56,321.43 733.90,329.88 734.23,329.88 734.57,329.88 734.90,329.88 735.24,321.43 735.57,321.43 735.91,321.43 736.24,321.43 736.58,321.43 736.91,312.99 737.25,312.99 737.58,312.99 737.92,321.43 738.25,321.43 738.59,312.99 738.92,304.55 739.26,296.10 739.59,296.10 739.93,296.10 740.26,287.66 740.60,287.66 740.93,287.66 741.27,287.66 741.60,287.66 741.94,287.66 742.27,287.66 742.61,279.22 742.94,279.22 743.28,279.22 743.61,279.22 743.95,279.22 744.28,287.66 744.62,287.66 744.95,287.66 745.29,287.66 745.62,279.22 745.96,279.22 746.29,279.22 746.63,279.22 746.96,270.78 747.30,262.33 747.63,262.33 747.97,270.78 748.30,270.78 748.64,270.78 748.97,270.78 749.31,270.78 749.64,270.78 749.98,279.22 750.31,279.22 750.65,287.66 750.98,287.66 751.32,287.66 751.65,287.66 751.99,287.66 752.32,287.66 752.66,287.66 752.99,279.22 753.33,287.66 753.66,287.66 754.00,287.66 754.33,296.10 754.67,296.10 755.00,296.10"/>
<line x1="783" y1="58" x2="809" y2="58" stroke="#2563eb" stroke-width="3"/>
<text x="817" y="62" font-family="Arial" font-size="13" fill="#111827">Naive</text>
<polyline fill="none" stroke="#dc2626" stroke-width="2" points="85.00,305.39 85.34,305.39 85.67,305.39 86.01,305.39 86.34,305.39 86.68,305.39 87.01,313.84 87.35,313.84 87.68,313.84 88.02,313.84 88.35,305.39 88.69,305.39 89.02,313.84 89.36,313.84 89.69,313.84 90.03,313.84 90.36,330.72 90.70,330.72 91.03,330.72 91.37,322.28 91.70,322.28 92.04,313.84 92.37,313.84 92.71,313.84 93.04,313.84 93.38,313.84 93.71,322.28 94.05,322.28 94.38,322.28 94.72,322.28 95.05,322.28 95.39,313.84 95.72,313.84 96.06,313.84 96.39,313.84 96.73,313.84 97.06,313.84 97.40,313.84 97.73,322.28 98.07,313.84 98.40,313.84 98.74,313.84 99.07,313.84 99.41,313.84 99.74,313.84 100.08,313.84 100.41,322.28 100.75,322.28 101.08,322.28 101.42,322.28 101.75,339.16 102.09,339.16 102.42,339.16 102.76,339.16 103.09,347.61 103.43,347.61 103.76,347.61 104.10,347.61 104.43,347.61 104.77,347.61 105.10,347.61 105.44,347.61 105.77,339.16 106.11,347.61 106.44,356.05 106.78,356.05 107.11,356.05 107.45,356.05 107.78,356.05 108.12,356.05 108.45,356.05 108.79,356.05 109.12,356.05 109.46,364.49 109.79,364.49 110.13,364.49 110.46,364.49 110.80,372.94 111.13,381.38 111.47,381.38 111.80,381.38 112.14,381.38 112.47,381.38 112.81,381.38 113.14,381.38 113.48,381.38 113.81,372.94 114.15,372.94 114.48,372.94 114.82,372.94 115.15,381.38 115.49,381.38 115.82,389.82 116.16,389.82 116.49,406.71 116.83,415.15 117.16,423.60 117.50,432.04 117.83,432.04 118.17,432.04 118.50,423.60 118.84,415.15 119.17,406.71 119.51,406.71 119.84,406.71 120.18,398.27 120.51,398.27 120.85,398.27 121.18,398.27 121.52,398.27 121.85,398.27 122.19,398.27 122.52,398.27 122.86,389.82 123.19,389.82 123.53,389.82 123.86,398.27 124.20,398.27 124.53,398.27 124.87,398.27 125.20,389.82 125.54,389.82 125.87,389.82 126.21,389.82 126.54,381.38 126.88,381.38 127.21,381.38 127.55,389.82 127.88,389.82 128.22,389.82 128.55,389.82 128.89,389.82 129.22,389.82 129.56,398.27 129.89,398.27 130.23,398.27 130.56,398.27 130.90,398.27 131.23,406.71 131.57,406.71 131.90,415.15 132.24,415.15 132.57,415.15 132.91,415.15 133.24,432.04 133.58,440.48 133.91,440.48 134.25,432.04 134.58,432.04 134.92,432.04 135.25,423.60 135.59,415.15 135.92,406.71 136.26,406.71 136.59,415.15 136.93,415.15 137.26,415.15 137.60,406.71 137.93,406.71 138.27,406.71 138.60,406.71 138.94,406.71 139.27,406.71 139.61,406.71 139.94,415.15 140.28,415.15 140.61,423.60 140.95,423.60 141.28,415.15 141.62,415.15 141.95,415.15 142.29,406.71 142.62,406.71 142.96,406.71 143.29,415.15 143.63,415.15 143.96,415.15 144.30,415.15 144.63,415.15 144.97,415.15 145.30,415.15 145.64,423.60 145.97,423.60 146.31,423.60 146.64,415.15 146.98,415.15 147.31,432.04 147.65,432.04 147.98,432.04 148.32,440.48 148.65,423.60 148.99,423.60 149.32,415.15 149.66,406.71 149.99,406.71 150.33,415.15 150.66,415.15 151.00,415.15 151.33,415.15 151.67,415.15 152.00,415.15 152.34,415.15 152.67,415.15 153.01,415.15 153.34,415.15 153.68,415.15 154.01,398.27 154.35,389.82 154.68,389.82 155.02,389.82 155.35,389.82 155.69,372.94 156.02,372.94 156.36,389.82 156.69,389.82 157.03,398.27 157.36,389.82 157.70,389.82 158.03,389.82 158.37,389.82 158.70,389.82 159.04,372.94 159.37,372.94 159.71,372.94 160.04,372.94 160.38,372.94 160.71,372.94 161.05,372.94 161.38,372.94 161.72,372.94 162.05,372.94 162.39,372.94 162.72,372.94 163.06,372.94 163.39,372.94 163.73,372.94 164.06,372.94 164.40,372.94 164.73,372.94 165.07,372.94 165.40,372.94 165.74,372.94 166.07,372.94 166.41,372.94 166.74,381.38 167.08,381.38 167.41,381.38 167.75,372.94 168.08,372.94 168.42,364.49 168.75,364.49 169.09,372.94 169.42,381.38 169.76,381.38 170.09,381.38 170.43,389.82 170.76,398.27 171.10,398.27 171.43,398.27 171.77,406.71 172.10,398.27 172.44,398.27 172.77,398.27 173.11,389.82 173.44,389.82 173.78,398.27 174.11,398.27 174.45,389.82 174.78,389.82 175.12,389.82 175.45,381.38 175.79,372.94 176.12,372.94 176.46,372.94 176.79,372.94 177.13,364.49 177.46,364.49 177.80,356.05 178.13,356.05 178.47,347.61 178.80,347.61 179.14,339.16 179.47,330.72 179.81,330.72 180.14,330.72 180.48,339.16 180.81,347.61 181.15,339.16 181.48,339.16 181.82,339.16 182.15,339.16 182.49,339.16 182.82,339.16 183.16,339.16 183.49,330.72 183.83,339.16 184.16,339.16 184.50,339.16 184.83,339.16 185.17,339.16 185.50,330.72 185.84,339.16 186.17,339.16 186.51,339.16 186.84,330.72 187.18,330.72 187.51,330.72 187.85,322.28 188.18,322.28 188.52,322.28 188.85,322.28 189.19,322.28 189.52,330.72 189.86,330.72 190.19,330.72 190.53,330.72 190.86,330.72 191.20,330.72 191.53,330.72 191.87,330.72 192.20,330.72 192.54,330.72 192.87,330.72 193.21,330.72 193.54,330.72 193.88,339.16 194.21,347.61 194.55,356.05 194.88,347.61 195.22,347.61 195.55,339.16 195.89,339.16 196.22,339.16 196.56,339.16 196.89,347.61 197.23,347.61 197.56,347.61 197.90,347.61 198.23,339.16 198.57,339.16 198.90,347.61 199.24,347.61 199.57,347.61 199.91,347.61 200.24,347.61 200.58,347.61 200.91,347.61 201.25,347.61 201.58,347.61 201.92,339.16 202.25,339.16 202.59,339.16 202.92,330.72 203.26,330.72 203.59,330.72 203.93,330.72 204.26,330.72 204.60,330.72 204.93,330.72 205.27,339.16 205.60,339.16 205.94,339.16 206.27,339.16 206.61,339.16 206.94,339.16 207.28,339.16 207.61,339.16 207.95,339.16 208.28,330.72 208.62,339.16 208.95,339.16 209.29,339.16 209.62,339.16 209.96,330.72 210.29,330.72 210.63,339.16 210.96,330.72 211.30,322.28 211.63,322.28 211.97,330.72 212.30,330.72 212.64,339.16 212.97,339.16 213.31,339.16 213.64,339.16 213.98,339.16 214.31,339.16 214.65,339.16 214.98,339.16 215.32,339.16 215.65,339.16 215.99,339.16 216.32,339.16 216.66,339.16 216.99,356.05 217.33,347.61 217.66,347.61 218.00,347.61 218.33,347.61 218.67,347.61 219.00,347.61 219.34,347.61 219.67,356.05 220.01,356.05 220.34,356.05 220.68,356.05 221.01,356.05 221.35,356.05 221.68,356.05 222.02,356.05 222.35,356.05 222.69,347.61 223.02,356.05 223.36,356.05 223.69,347.61 224.03,347.61 224.36,356.05 224.70,356.05 225.03,356.05 225.37,347.61 225.70,347.61 226.04,347.61 226.37,347.61 226.71,347.61 227.04,339.16 227.38,339.16 227.71,339.16 228.05,339.16 228.38,339.16 228.72,339.16 229.05,339.16 229.39,339.16 229.72,339.16 230.06,347.61 230.39,347.61 230.73,347.61 231.06,347.61 231.40,347.61 231.73,347.61 232.07,347.61 232.40,347.61 232.74,347.61 233.07,347.61 233.41,347.61 233.74,356.05 234.08,356.05 234.41,356.05 234.75,356.05 235.08,356.05 235.42,356.05 235.75,356.05 236.09,356.05 236.42,356.05 236.76,356.05 237.09,356.05 237.43,356.05 237.76,347.61 238.10,339.16 238.43,339.16 238.77,339.16 239.10,347.61 239.44,347.61 239.77,347.61 240.11,356.05 240.44,372.94 240.78,372.94 241.11,372.94 241.45,372.94 241.78,372.94 242.12,372.94 242.45,364.49 242.79,364.49 243.12,364.49 243.46,364.49 243.79,364.49 244.13,364.49 244.46,364.49 244.80,364.49 245.13,364.49 245.47,364.49 245.80,364.49 246.14,364.49 246.47,364.49 246.81,364.49 247.14,364.49 247.48,364.49 247.81,372.94 248.15,381.38 248.48,381.38 248.82,381.38 249.15,364.49 249.49,356.05 249.82,356.05 250.16,356.05 250.49,356.05 250.83,356.05 251.16,356.05 251.50,364.49 251.83,364.49 252.17,372.94 252.50,364.49 252.84,364.49 253.17,356.05 253.51,356.05 253.84,356.05 254.18,356.05 254.51,356.05 254.85,356.05 255.18,356.05 255.52,364.49 255.85,364.49 256.19,364.49 256.52,364.49 256.86,364.49 257.19,364.49 257.53,364.49 257.86,364.49 258.20,356.05 258.53,356.05 258.87,356.05 259.20,356.05 259.54,356.05 259.87,356.05 260.21,356.05 260.54,356.05 260.88,356.05 261.21,356.05 261.55,356.05 261.88,356.05 262.22,356.05 262.55,356.05 262.89,356.05 263.22,356.05 263.56,356.05 263.89,356.05 264.23,356.05 264.56,356.05 264.90,356.05 265.23,364.49 265.57,364.49 265.90,364.49 266.24,372.94 266.57,381.38 266.91,381.38 267.24,381.38 267.58,372.94 267.91,381.38 268.25,381.38 268.58,381.38 268.92,381.38 269.25,381.38 269.59,381.38 269.92,381.38 270.26,381.38 270.59,381.38 270.93,364.49 271.26,364.49 271.60,364.49 271.93,364.49 272.27,372.94 272.60,372.94 272.94,372.94 273.27,372.94 273.61,372.94 273.94,372.94 274.28,372.94 274.61,364.49 274.95,364.49 275.28,356.05 275.62,356.05 275.95,356.05 276.29,347.61 276.62,347.61 276.96,356.05 277.29,356.05 277.63,356.05 277.96,347.61 278.30,347.61 278.63,347.61 278.97,339.16 279.30,339.16 279.64,339.16 279.97,339.16 280.31,339.16 280.64,330.72 280.98,322.28 281.31,313.84 281.65,305.39 281.98,305.39 282.32,305.39 282.65,296.95 282.99,296.95 283.32,296.95 283.66,296.95 283.99,296.95 284.33,296.95 284.66,296.95 285.00,296.95 285.33,296.95 285.67,296.95 286.00,305.39 286.34,296.95 286.67,296.95 287.01,296.95 287.34,296.95 287.68,296.95 288.01,296.95 288.35,296.95 288.68,296.95 289.02,296.95 289.35,296.95 289.69,296.95 290.02,296.95 290.36,296.95 290.69,296.95 291.03,296.95 291.36,296.95 291.70,296.95 292.03,296.95 292.37,288.51 292.70,288.51 293.04,288.51 293.37,288.51 293.71,288.51 294.04,288.51 294.38,288.51 294.71,288.51 295.05,296.95 295.38,313.84 295.72,313.84 296.05,313.84 296.39,305.39 296.72,305.39 297.06,305.39 297.39,305.39 297.73,305.39 298.06,305.39 298.40,305.39 298.73,305.39 299.07,305.39 299.40,305.39 299.74,296.95 300.07,296.95 300.41,296.95 300.74,296.95 301.08,288.51 301.41,288.51 301.75,288.51 302.08,288.51 302.42,296.95 302.75,288.51 303.09,288.51 303.42,288.51 303.76,280.06 304.09,288.51 304.43,288.51 304.76,296.95 305.10,296.95 305.43,296.95 305.77,296.95 306.10,296.95 306.44,271.62 306.77,254.73 307.11,254.73 307.44,254.73 307.78,254.73 308.11,254.73 308.45,246.29 308.78,246.29 309.12,246.29 309.45,237.85 309.79,237.85 310.12,246.29 310.46,246.29 310.79,246.29 311.13,246.29 311.46,246.29 311.80,246.29 312.13,254.73 312.47,246.29 312.80,246.29 313.14,254.73 313.47,246.29 313.81,254.73 314.14,254.73 314.48,254.73 314.81,246.29 315.15,246.29 315.48,237.85 315.82,237.85 316.15,237.85 316.49,237.85 316.82,237.85 317.16,237.85 317.49,229.40 317.83,229.40 318.16,237.85 318.50,237.85 318.83,229.40 319.17,229.40 319.50,229.40 319.84,229.40 320.17,229.40 320.51,229.40 320.84,229.40 321.18,229.40 321.51,229.40 321.85,229.40 322.18,229.40 322.52,229.40 322.85,229.40 323.19,229.40 323.52,229.40 323.86,229.40 324.19,229.40 324.53,229.40 324.86,229.40 325.20,229.40 325.53,229.40 325.87,246.29 326.20,254.73 326.54,263.18 326.87,263.18 327.21,263.18 327.54,263.18 327.88,263.18 328.21,263.18 328.55,263.18 328.88,263.18 329.22,263.18 329.55,263.18 329.89,254.73 330.22,254.73 330.56,254.73 330.89,254.73 331.23,254.73 331.56,271.62 331.90,271.62 332.23,271.62 332.57,280.06 332.90,280.06 333.24,280.06 333.57,296.95 333.91,296.95 334.24,296.95 334.58,288.51 334.91,296.95 335.25,296.95 335.58,296.95 335.92,296.95 336.25,296.95 336.59,296.95 336.92,296.95 337.26,296.95 337.59,296.95 337.93,296.95 338.26,296.95 338.60,296.95 338.93,296.95 339.27,305.39 339.60,305.39 339.94,305.39 340.27,305.39 340.61,305.39 340.94,305.39 341.28,305.39 341.61,305.39 341.95,305.39 342.28,305.39 342.62,305.39 342.95,313.84 343.29,313.84 343.62,305.39 343.96,305.39 344.29,288.51 344.63,288.51 344.96,288.51 345.30,288.51 345.63,280.06 345.97,271.62 346.30,271.62 346.64,271.62 346.97,271.62 347.31,271.62 347.64,271.62 347.98,271.62 348.31,263.18 348.65,263.18 348.98,263.18 349.32,254.73 349.65,254.73 349.99,254.73 350.32,254.73 350.66,254.73 350.99,254.73 351.33,263.18 351.66,263.18 352.00,263.18 352.33,263.18 352.67,263.18 353.00,254.73 353.34,246.29 353.67,246.29 354.01,246.29 354.34,263.18 354.68,263.18 355.01,263.18 355.35,263.18 355.68,263.18 356.02,254.73 356.35,254.73 356.69,254.73 357.02,254.73 357.36,254.73 357.69,254.73 358.03,246.29 358.36,237.85 358.70,237.85 359.03,237.85 359.37,237.85 359.70,237.85 360.04,237.85 360.37,229.40 360.71,229.40 361.04,229.40 361.38,212.52 361.71,212.52 362.05,204.07 362.38,204.07 362.72,204.07 363.05,195.63 363.39,195.63 363.72,204.07 364.06,195.63 364.39,195.63 364.73,195.63 365.06,195.63 365.40,187.19 365.73,195.63 366.07,195.63 366.40,195.63 366.74,195.63 367.07,195.63 367.41,195.63 367.74,204.07 368.08,212.52 368.41,212.52 368.75,212.52 369.08,212.52 369.42,220.96 369.75,220.96 370.09,220.96 370.42,212.52 370.76,212.52 371.09,212.52 371.43,204.07 371.76,204.07 372.10,204.07 372.43,204.07 372.77,212.52 373.10,212.52 373.44,204.07 373.77,204.07 374.11,212.52 374.44,212.52 374.78,220.96 375.11,220.96 375.45,220.96 375.78,220.96 376.12,229.40 376.45,229.40 376.79,229.40 377.12,220.96 377.46,229.40 377.79,229.40 378.13,229.40 378.46,237.85 378.80,237.85 379.13,237.85 379.47,229.40 379.80,246.29 380.14,246.29 380.47,246.29 380.81,271.62 381.14,263.18 381.48,246.29 381.81,254.73 382.15,231.94 382.48,231.94 382.82,223.49 383.15,223.49 383.49,223.49 383.82,206.61 384.16,198.16 384.49,198.16 384.83,198.16 385.16,198.16 385.50,206.61 385.83,215.05 386.17,215.05 386.50,215.05 386.84,215.05 387.17,215.05 387.51,223.49 387.84,223.49 388.18,223.49 388.51,223.49 388.85,215.05 389.18,206.61 389.52,198.16 389.85,198.16 390.19,206.61 390.52,206.61 390.86,206.61 391.19,206.61 391.53,198.16 391.86,189.72 392.20,189.72 392.53,181.28 392.87,181.28 393.20,181.28 393.54,172.84 393.87,172.84 394.21,172.84 394.54,181.28 394.88,181.28 395.21,189.72 395.55,189.72 395.88,198.16 396.22,198.16 396.55,198.16 396.89,198.16 397.22,198.16 397.56,198.16 397.89,189.72 398.23,206.61 398.56,206.61 398.90,189.72 399.23,189.72 399.57,189.72 399.90,181.28 400.24,181.28 400.57,198.16 400.91,198.16 401.24,198.16 401.58,198.16 401.91,198.16 402.25,189.72 402.58,181.28 402.92,181.28 403.25,181.28 403.59,181.28 403.92,181.28 404.26,181.28 404.59,181.28 404.93,181.28 405.26,181.28 405.60,181.28 405.93,181.28 406.27,181.28 406.60,181.28 406.94,181.28 407.27,189.72 407.61,189.72 407.94,189.72 408.28,189.72 408.61,189.72 408.95,189.72 409.28,189.72 409.62,189.72 409.95,181.28 410.29,181.28 410.62,181.28 410.96,181.28 411.29,181.28 411.63,181.28 411.96,181.28 412.30,181.28 412.63,172.84 412.97,172.84 413.30,172.84 413.64,172.84 413.97,181.28 414.31,181.28 414.64,181.28 414.98,181.28 415.31,181.28 415.65,181.28 415.98,181.28 416.32,172.84 416.65,181.28 416.99,172.84 417.32,172.84 417.66,181.28 417.99,181.28 418.33,181.28 418.66,181.28 419.00,172.84 419.33,172.84 419.67,172.84 420.00,181.28 420.34,181.28 420.67,181.28 421.01,181.28 421.34,181.28 421.68,181.28 422.01,181.28 422.35,181.28 422.68,181.28 423.02,181.28 423.35,189.72 423.69,189.72 424.02,189.72 424.36,189.72 424.69,189.72 425.03,189.72 425.36,181.28 425.70,181.28 426.03,189.72 426.37,181.28 426.70,181.28 427.04,181.28 427.37,181.28 427.71,181.28 428.04,181.28 428.38,181.28 428.71,189.72 429.05,172.84 429.38,172.84 429.72,172.84 430.05,172.84 430.39,172.84 430.72,164.39 431.06,172.84 431.39,172.84 431.73,172.84 432.06,181.28 432.40,189.72 432.73,189.72 433.07,189.72 433.40,189.72 433.74,189.72 434.07,181.28 434.41,181.28 434.74,181.28 435.08,181.28 435.41,189.72 435.75,189.72 436.08,181.28 436.42,181.28 436.75,189.72 437.09,189.72 437.42,189.72 437.76,181.28 438.09,181.28 438.43,172.84 438.76,172.84 439.10,172.84 439.43,172.84 439.77,164.39 440.10,164.39 440.44,164.39 440.77,164.39 441.11,164.39 441.44,155.95 441.78,155.95 442.11,155.95 442.45,155.95 442.78,155.95 443.12,155.95 443.45,155.95 443.79,155.95 444.12,155.95 444.46,155.95 444.79,155.95 445.13,147.51 445.46,147.51 445.80,147.51 446.13,139.06 446.47,130.62 446.80,122.18 447.14,122.18 447.47,122.18 447.81,122.18 448.14,105.29 448.48,105.29 448.81,105.29 449.15,105.29 449.48,113.73 449.82,113.73 450.15,113.73 450.49,113.73 450.82,113.73 451.16,113.73 451.49,113.73 451.83,122.18 452.16,130.62 452.50,130.62 452.83,139.06 453.17,139.06 453.50,139.06 453.84,139.06 454.17,147.51 454.51,139.06 454.84,139.06 455.18,139.06 455.51,130.62 455.85,130.62 456.18,139.06 456.52,139.06 456.85,130.62 457.19,122.18 457.52,130.62 457.86,139.06 458.19,139.06 458.53,147.51 458.86,147.51 459.20,139.06 459.53,139.06 459.87,130.62 460.20,130.62 460.54,139.06 460.87,139.06 461.21,130.62 461.54,122.18 461.88,105.29 462.21,105.29 462.55,96.85 462.88,88.40 463.22,96.85 463.55,96.85 463.89,96.85 464.22,96.85 464.56,96.85 464.89,96.85 465.23,96.85 465.56,96.85 465.90,96.85 466.23,96.85 466.57,96.85 466.90,105.29 467.24,113.73 467.57,113.73 467.91,113.73 468.24,113.73 468.58,113.73 468.91,113.73 469.25,113.73 469.58,113.73 469.92,113.73 470.25,113.73 470.59,113.73 470.92,113.73 471.26,130.62 471.59,130.62 471.93,130.62 472.26,130.62 472.60,130.62 472.93,130.62 473.27,147.51 473.60,147.51 473.94,139.06 474.27,139.06 474.61,139.06 474.94,139.06 475.28,139.06 475.61,139.06 475.95,139.06 476.28,139.06 476.62,139.06 476.95,139.06 477.29,139.06 477.62,139.06 477.96,139.06 478.29,139.06 478.63,139.06 478.96,130.62 479.30,130.62 479.63,130.62 479.97,130.62 480.30,139.06 480.64,139.06 480.97,147.51 481.31,155.95 481.64,164.39 481.98,172.84 482.31,181.28 482.65,181.28 482.98,181.28 483.32,181.28 483.65,181.28 483.99,189.72 484.32,189.72 484.66,181.28 484.99,172.84 485.33,172.84 485.66,172.84 486.00,172.84 486.33,172.84 486.67,172.84 487.00,164.39 487.34,155.95 487.67,147.51 488.01,147.51 488.34,147.51 488.68,147.51 489.01,147.51 489.35,147.51 489.68,147.51 490.02,147.51 490.35,147.51 490.69,147.51 491.02,164.39 491.36,172.84 491.69,172.84 492.03,172.84 492.36,172.84 492.70,172.84 493.03,172.84 493.37,172.84 493.70,172.84 494.04,172.84 494.37,172.84 494.71,172.84 495.04,172.84 495.38,172.84 495.71,172.84 496.05,172.84 496.38,172.84 496.72,172.84 497.05,172.84 497.39,172.84 497.72,172.84 498.06,172.84 498.39,164.39 498.73,164.39 499.06,164.39 499.40,164.39 499.73,172.84 500.07,181.28 500.40,181.28 500.74,181.28 501.07,181.28 501.41,181.28 501.74,181.28 502.08,181.28 502.41,172.84 502.75,172.84 503.08,181.28 503.42,189.72 503.75,189.72 504.09,189.72 504.42,198.16 504.76,206.61 505.09,206.61 505.43,206.61 505.76,206.61 506.10,206.61 506.43,206.61 506.77,206.61 507.10,206.61 507.44,215.05 507.77,215.05 508.11,215.05 508.44,206.61 508.78,206.61 509.11,206.61 509.45,206.61 509.78,215.05 510.12,215.05 510.45,215.05 510.79,215.05 511.12,215.05 511.46,206.61 511.79,206.61 512.13,206.61 512.46,206.61 512.80,206.61 513.13,206.61 513.47,215.05 513.80,215.05 514.14,215.05 514.47,215.05 514.81,206.61 515.14,198.16 515.48,189.72 515.81,189.72 516.15,189.72 516.48,189.72 516.82,189.72 517.15,189.72 517.49,181.28 517.82,181.28 518.16,181.28 518.49,181.28 518.83,181.28 519.16,172.84 519.50,172.84 519.83,172.84 520.17,164.39 520.50,155.95 520.84,164.39 521.17,172.84 521.51,181.28 521.84,181.28 522.18,181.28 522.51,181.28 522.85,172.84 523.18,181.28 523.52,172.84 523.85,172.84 524.19,172.84 524.52,164.39 524.86,164.39 525.19,164.39 525.53,172.84 525.86,181.28 526.20,181.28 526.53,181.28 526.87,181.28 527.20,181.28 527.54,181.28 527.87,189.72 528.21,189.72 528.54,189.72 528.88,189.72 529.21,189.72 529.55,181.28 529.88,181.28 530.22,172.84 530.55,172.84 530.89,172.84 531.22,164.39 531.56,164.39 531.89,164.39 532.23,164.39 532.56,164.39 532.90,164.39 533.23,172.84 533.57,172.84 533.90,172.84 534.24,172.84 534.57,172.84 534.91,172.84 535.24,172.84 535.58,172.84 535.91,172.84 536.25,181.28 536.58,181.28 536.92,181.28 537.25,189.72 537.59,189.72 537.92,189.72 538.26,198.16 538.59,206.61 538.93,206.61 539.26,198.16 539.60,198.16 539.93,206.61 540.27,215.05 540.60,215.05 540.94,215.05 541.27,215.05 541.61,215.05 541.94,215.05 542.28,215.05 542.61,206.61 542.95,215.05 543.28,206.61 543.62,206.61 543.95,206.61 544.29,206.61 544.62,206.61 544.96,206.61 545.29,206.61 545.63,206.61 545.96,206.61 546.30,206.61 546.63,215.05 546.97,215.05 547.30,215.05 547.64,215.05 547.97,206.61 548.31,206.61 548.64,206.61 548.98,206.61 549.31,215.05 549.65,215.05 549.98,215.05 550.32,215.05 550.65,206.61 550.99,206.61 551.32,206.61 551.66,206.61 551.99,215.05 552.33,206.61 552.66,206.61 553.00,206.61 553.33,215.05 553.67,215.05 554.00,215.05 554.34,215.05 554.67,215.05 555.01,215.05 555.34,215.05 555.68,215.05 556.01,215.05 556.35,215.05 556.68,215.05 557.02,215.05 557.35,206.61 557.69,215.05 558.02,215.05 558.36,206.61 558.69,206.61 559.03,198.16 559.36,206.61 559.70,198.16 560.03,181.28 560.37,181.28 560.70,172.84 561.04,172.84 561.37,172.84 561.71,172.84 562.04,181.28 562.38,181.28 562.71,181.28 563.05,181.28 563.38,181.28 563.72,181.28 564.05,172.84 564.39,172.84 564.72,172.84 565.06,172.84 565.39,172.84 565.73,181.28 566.06,189.72 566.40,181.28 566.73,169.46 567.07,161.01 567.40,161.01 567.74,161.01 568.07,161.01 568.41,152.57 568.74,152.57 569.08,152.57 569.41,152.57 569.75,152.57 570.08,152.57 570.42,152.57 570.75,144.13 571.09,135.69 571.42,135.69 571.76,135.69 572.09,127.24 572.43,135.69 572.76,135.69 573.10,135.69 573.43,135.69 573.77,144.13 574.10,144.13 574.44,144.13 574.77,152.57 575.11,152.57 575.44,152.57 575.78,144.13 576.11,152.57 576.45,161.01 576.78,161.01 577.12,169.46 577.45,177.90 577.79,194.79 578.12,194.79 578.46,194.79 578.79,186.34 579.13,194.79 579.46,194.79 579.80,194.79 580.13,194.79 580.47,186.34 580.80,186.34 581.14,194.79 581.47,194.79 581.81,194.79 582.14,194.79 582.48,194.79 582.81,194.79 583.15,194.79 583.48,194.79 583.82,194.79 584.15,194.79 584.49,194.79 584.82,194.79 585.16,203.23 585.49,203.23 585.83,203.23 586.16,203.23 586.50,203.23 586.83,203.23 587.17,203.23 587.50,203.23 587.84,211.67 588.17,211.67 588.51,211.67 588.84,220.12 589.18,220.12 589.51,220.12 589.85,220.12 590.18,220.12 590.52,228.56 590.85,228.56 591.19,237.00 591.52,237.00 591.86,228.56 592.19,228.56 592.53,228.56 592.86,220.12 593.20,220.12 593.53,220.12 593.87,220.12 594.20,228.56 594.54,228.56 594.87,220.12 595.21,220.12 595.54,220.12 595.88,220.12 596.21,220.12 596.55,220.12 596.88,220.12 597.22,211.67 597.55,220.12 597.89,220.12 598.22,220.12 598.56,220.12 598.89,220.12 599.23,211.67 599.56,211.67 599.90,211.67 600.23,211.67 600.57,220.12 600.90,211.67 601.24,211.67 601.57,211.67 601.91,211.67 602.24,211.67 602.58,220.12 602.91,220.12 603.25,220.12 603.58,220.12 603.92,220.12 604.25,220.12 604.59,220.12 604.92,220.12 605.26,220.12 605.59,211.67 605.93,220.12 606.26,220.12 606.60,220.12 606.93,220.12 607.27,220.12 607.60,220.12 607.94,220.12 608.27,228.56 608.61,220.12 608.94,220.12 609.28,228.56 609.61,237.00 609.95,237.00 610.28,237.00 610.62,228.56 610.95,228.56 611.29,228.56 611.62,228.56 611.96,220.12 612.29,220.12 612.63,220.12 612.96,211.67 613.30,203.23 613.63,203.23 613.97,203.23 614.30,203.23 614.64,211.67 614.97,211.67 615.31,211.67 615.64,211.67 615.98,211.67 616.31,211.67 616.65,220.12 616.98,228.56 617.32,228.56 617.65,220.12 617.99,220.12 618.32,220.12 618.66,220.12 618.99,220.12 619.33,220.12 619.66,220.12 620.00,228.56 620.33,228.56 620.67,245.45 621.00,245.45 621.34,245.45 621.67,245.45 622.01,245.45 622.34,253.89 622.68,262.33 623.01,262.33 623.35,262.33 623.68,262.33 624.02,262.33 624.35,262.33 624.69,262.33 625.02,253.89 625.36,245.45 625.69,245.45 626.03,245.45 626.36,253.89 626.70,253.89 627.03,262.33 627.37,262.33 627.70,262.33 628.04,262.33 628.37,253.89 628.71,253.89 629.04,245.45 629.38,245.45 629.71,245.45 630.05,245.45 630.38,253.89 630.72,253.89 631.05,253.89 631.39,253.89 631.72,253.89 632.06,253.89 632.39,253.89 632.73,253.89 633.06,253.89 633.40,253.89 633.73,253.89 634.07,253.89 634.40,262.33 634.74,262.33 635.07,253.89 635.41,253.89 635.74,253.89 636.08,253.89 636.41,262.33 636.75,262.33 637.08,262.33 637.42,262.33 637.75,262.33 638.09,262.33 638.42,262.33 638.76,253.89 639.09,253.89 639.43,253.89 639.76,253.89 640.10,253.89 640.43,253.89 640.77,253.89 641.10,245.45 641.44,245.45 641.77,245.45 642.11,245.45 642.44,245.45 642.78,262.33 643.11,262.33 643.45,262.33 643.78,262.33 644.12,262.33 644.45,262.33 644.79,262.33 645.12,253.89 645.46,253.89 645.79,253.89 646.13,262.33 646.46,262.33 646.80,262.33 647.13,262.33 647.47,279.22 647.80,279.22 648.14,270.78 648.47,270.78 648.81,270.78 649.14,270.78 649.48,270.78 649.81,270.78 650.15,270.78 650.48,270.78 650.82,262.33 651.15,262.33 651.49,262.33 651.82,262.33 652.16,253.89 652.49,262.33 652.83,262.33 653.16,270.78 653.50,270.78 653.83,270.78 654.17,270.78 654.50,270.78 654.84,279.22 655.17,279.22 655.51,279.22 655.84,279.22 656.18,279.22 656.51,270.78 656.85,270.78 657.18,270.78 657.52,279.22 657.85,279.22 658.19,279.22 658.52,279.22 658.86,279.22 659.19,279.22 659.53,279.22 659.86,279.22 660.20,279.22 660.53,270.78 660.87,270.78 661.20,270.78 661.54,270.78 661.87,270.78 662.21,279.22 662.54,279.22 662.88,287.66 663.21,287.66 663.55,296.10 663.88,304.55 664.22,304.55 664.55,296.10 664.89,296.10 665.22,304.55 665.56,296.10 665.89,296.10 666.23,296.10 666.56,296.10 666.90,296.10 667.23,296.10 667.57,296.10 667.90,296.10 668.24,287.66 668.57,287.66 668.91,287.66 669.24,287.66 669.58,279.22 669.91,287.66 670.25,287.66 670.58,287.66 670.92,287.66 671.25,287.66 671.59,296.10 671.92,296.10 672.26,296.10 672.59,296.10 672.93,287.66 673.26,287.66 673.60,287.66 673.93,287.66 674.27,287.66 674.60,287.66 674.94,287.66 675.27,287.66 675.61,287.66 675.94,287.66 676.28,287.66 676.61,287.66 676.95,296.10 677.28,296.10 677.62,296.10 677.95,296.10 678.29,304.55 678.62,304.55 678.96,304.55 679.29,304.55 679.63,304.55 679.96,304.55 680.30,304.55 680.63,304.55 680.97,304.55 681.30,304.55 681.64,304.55 681.97,304.55 682.31,304.55 682.64,304.55 682.98,304.55 683.31,296.10 683.65,304.55 683.98,304.55 684.32,312.99 684.65,304.55 684.99,304.55 685.32,304.55 685.66,296.10 685.99,304.55 686.33,321.43 686.66,321.43 687.00,321.43 687.33,321.43 687.67,321.43 688.00,329.88 688.34,329.88 688.67,338.32 689.01,338.32 689.34,346.76 689.68,355.21 690.01,355.21 690.35,355.21 690.68,355.21 691.02,355.21 691.35,355.21 691.69,363.65 692.02,372.09 692.36,372.09 692.69,363.65 693.03,363.65 693.36,363.65 693.70,355.21 694.03,355.21 694.37,355.21 694.70,346.76 695.04,346.76 695.37,346.76 695.71,346.76 696.04,346.76 696.38,346.76 696.71,355.21 697.05,363.65 697.38,363.65 697.72,363.65 698.05,355.21 698.39,355.21 698.72,355.21 699.06,355.21 699.39,346.76 699.73,338.32 700.06,338.32 700.40,329.88 700.73,329.88 701.07,329.88 701.40,329.88 701.74,329.88 702.07,329.88 702.41,329.88 702.74,329.88 703.08,329.88 703.41,329.88 703.75,338.32 704.08,338.32 704.42,338.32 704.75,329.88 705.09,329.88 705.42,338.32 705.76,338.32 706.09,329.88 706.43,321.43 706.76,321.43 707.10,321.43 707.43,321.43 707.77,321.43 708.10,321.43 708.44,321.43 708.77,321.43 709.11,321.43 709.44,321.43 709.78,321.43 710.11,321.43 710.45,321.43 710.78,321.43 711.12,321.43 711.45,321.43 711.79,312.99 712.12,312.99 712.46,312.99 712.79,321.43 713.13,321.43 713.46,321.43 713.80,329.88 714.13,329.88 714.47,329.88 714.80,329.88 715.14,329.88 715.47,329.88 715.81,321.43 716.14,321.43 716.48,312.99 716.81,312.99 717.15,312.99 717.48,304.55 717.82,304.55 718.15,304.55 718.49,304.55 718.82,304.55 719.16,304.55 719.49,304.55 719.83,304.55 720.16,304.55 720.50,287.66 720.83,287.66 721.17,287.66 721.50,287.66 721.84,287.66 722.17,279.22 722.51,279.22 722.84,279.22 723.18,279.22 723.51,279.22 723.85,270.78 724.18,270.78 724.52,270.78 724.85,270.78 725.19,279.22 725.52,279.22 725.86,279.22 726.19,287.66 726.53,287.66 726.86,296.10 727.20,304.55 727.53,304.55 727.87,296.10 728.20,296.10 728.54,304.55 728.87,304.55 729.21,304.55 729.54,312.99 729.88,312.99 730.21,304.55 730.55,304.55 730.88,312.99 731.22,312.99 731.55,312.99 731.89,321.43 732.22,321.43 732.56,321.43 732.89,329.88 733.23,329.88 733.56,321.43 733.90,329.88 734.23,329.88 734.57,329.88 734.90,329.88 735.24,321.43 735.57,321.43 735.91,321.43 736.24,321.43 736.58,321.43 736.91,312.99 737.25,312.99 737.58,312.99 737.92,321.43 738.25,321.43 738.59,312.99 738.92,304.55 739.26,296.10 739.59,296.10 739.93,296.10 740.26,287.66 740.60,287.66 740.93,287.66 741.27,287.66 741.60,287.66 741.94,287.66 742.27,287.66 742.61,279.22 742.94,279.22 743.28,279.22 743.61,279.22 743.95,279.22 744.28,287.66 744.62,287.66 744.95,287.66 745.29,287.66 745.62,279.22 745.96,279.22 746.29,279.22 746.63,279.22 746.96,270.78 747.30,262.33 747.63,262.33 747.97,270.78 748.30,270.78 748.64,270.78 748.97,270.78 749.31,270.78 749.64,270.78 749.98,279.22 750.31,279.22 750.65,287.66 750.98,287.66 751.32,287.66 751.65,287.66 751.99,287.66 752.32,287.66 752.66,287.66 752.99,279.22 753.33,287.66 753.66,287.66 754.00,287.66 754.33,296.10 754.67,296.10 755.00,296.10"/>
<line x1="783" y1="82" x2="809" y2="82" stroke="#dc2626" stroke-width="3"/>
<text x="817" y="86" font-family="Arial" font-size="13" fill="#111827">Avellaneda Stoikov</text>
<polyline fill="none" stroke="#7c3aed" stroke-width="2" points=""/>
<line x1="783" y1="106" x2="809" y2="106" stroke="#7c3aed" stroke-width="3"/>
<text x="817" y="110" font-family="Arial" font-size="13" fill="#111827">Calibrated Avellaneda Stoikov</text>
<text x="420.0" y="518" text-anchor="middle" font-family="Arial" font-size="14" fill="#111827">Event index</text>
<text x="22" y="256.0" text-anchor="middle" transform="rotate(-90 22 256.0)" font-family="Arial" font-size="14" fill="#111827">Inventory</text>
</svg>
