<svg xmlns="http://www.w3.org/2000/svg" width="940" height="540" viewBox="0 0 940 540">
<rect width="100%" height="100%" fill="#ffffff"/>
<text x="470.0" y="26" text-anchor="middle" font-family="Arial" font-size="18" fill="#111827">Low Volatility Inventory</text>
<line x1="85" y1="470" x2="755" y2="470" stroke="#111827" stroke-width="1"/>
<line x1="85" y1="42" x2="85" y2="470" stroke="#111827" stroke-width="1"/>
<line x1="85.00" y1="42" x2="85.00" y2="470" stroke="#e5e7eb" stroke-width="1"/>
<text x="85.00" y="494" text-anchor="middle" font-family="Arial" font-size="12" fill="#374151">0</text>
<line x1="252.50" y1="42" x2="252.50" y2="470" stroke="#e5e7eb" stroke-width="1"/>
<text x="252.50" y="494" text-anchor="middle" font-family="Arial" font-size="12" fill="#374151">50000</text>
<line x1="420.00" y1="42" x2="420.00" y2="470" stroke="#e5e7eb" stroke-width="1"/>
<text x="420.00" y="494" text-anchor="middle" font-family="Arial" font-size="12" fill="#374151">100000</text>
<line x1="587.50" y1="42" x2="587.50" y2="470" stroke="#e5e7eb" stroke-width="1"/>
<text x="587.50" y="494" text-anchor="middle" font-family="Arial" font-size="12" fill="#374151">149999</text>
<line x1="755.00" y1="42" x2="755.00" y2="470" stroke="#e5e7eb" stroke-width="1"/>
<text x="755.00" y="494" text-anchor="middle" font-family="Arial" font-size="12" fill="#374151">199999</text>
<line x1="85" y1="470.00" x2="755" y2="470.00" stroke="#e5e7eb" stroke-width="1"/>
<text x="73" y="474.00" text-anchor="end" font-family="Arial" font-size="12" fill="#374151">-131</text>
<line x1="85" y1="363.00" x2="755" y2="363.00" stroke="#e5e7eb" stroke-width="1"/>
<text x="73" y="367.00" text-anchor="end" font-family="Arial" font-size="12" fill="#374151">69</text>
<line x1="85" y1="256.00" x2="755" y2="256.00" stroke="#e5e7eb" stroke-width="1"/>
<text x="73" y="260.00" text-anchor="end" font-family="Arial" font-size="12" fill="#374151">270</text>
<line x1="85" y1="149.00" x2="755" y2="149.00" stroke="#e5e7eb" stroke-width="1"/>
<text x="73" y="153.00" text-anchor="end" font-family="Arial" font-size="12" fill="#374151">470</text>
<line x1="85" y1="42.00" x2="755" y2="42.00" stroke="#e5e7eb" stroke-width="1"/>
<text x="73" y="46.00" text-anchor="end" font-family="Arial" font-size="12" fill="#374151">670</text>
<polyline fill="none" stroke="#2563eb" stroke-width="2" points="85.00,399.90 85.34,405.24 85.67,410.58 86.01,415.92 86.34,415.92 86.68,421.26 87.01,421.26 87.35,415.92 87.68,415.92 88.02,415.92 88.35,415.92 88.69,410.58 89.02,410.58 89.36,415.92 89.69,415.92 90.03,410.58 90.36,410.58 90.70,405.24 91.03,405.24 91.37,399.90 91.70,399.90 92.04,399.90 92.37,399.90 92.71,399.90 93.04,399.90 93.38,399.90 93.71,399.90 94.05,399.90 94.38,405.24 94.72,405.24 95.05,405.24 95.39,410.58 95.72,410.58 96.06,399.90 96.39,399.90 96.73,399.90 97.06,399.90 97.40,394.56 97.73,389.22 98.07,389.22 98.40,389.22 98.74,389.22 99.07,383.88 99.41,383.88 99.74,383.88 100.08,383.88 100.41,383.88 100.75,383.88 101.08,383.88 101.42,383.88 101.75,389.22 102.09,383.88 102.42,383.88 102.76,383.88 103.09,389.22 103.43,389.22 103.76,389.22 104.10,389.22 104.43,389.22 104.77,389.22 105.10,389.22 105.44,389.22 105.77,389.22 106.11,389.22 106.44,389.22 106.78,383.88 107.11,383.88 107.45,383.88 107.78,389.22 108.12,389.22 108.45,389.22 108.79,389.22 109.12,383.88 109.46,383.88 109.79,378.54 110.13,378.54 110.46,389.22 110.80,389.22 111.13,389.22 111.47,383.88 111.80,378.54 112.14,378.54 112.47,378.54 112.81,378.54 113.14,378.54 113.48,378.54 113.81,378.54 114.15,378.54 114.48,373.20 114.82,373.20 115.15,373.20 115.49,373.20 115.82,378.54 116.16,378.54 116.49,378.54 116.83,373.20 117.16,373.20 117.50,367.86 117.83,373.20 118.17,373.20 118.50,373.20 118.84,373.20 119.17,378.54 119.51,378.54 119.84,378.54 120.18,378.54 120.51,378.54 120.85,378.54 121.18,373.20 121.52,373.20 121.85,373.20 122.19,367.86 122.52,367.86 122.86,367.86 123.19,367.86 123.53,367.86 123.86,367.86 124.20,367.86 124.53,373.20 124.87,373.20 125.20,378.54 125.54,373.20 125.87,373.20 126.21,373.20 126.54,373.20 126.88,378.54 127.21,373.20 127.55,373.20 127.88,373.20 128.22,373.20 128.55,378.54 128.89,373.20 129.22,373.20 129.56,373.20 129.89,367.86 130.23,378.54 130.56,383.88 130.90,383.88 131.23,383.88 131.57,378.54 131.90,378.54 132.24,383.88 132.57,383.88 132.91,394.56 133.24,394.56 133.58,399.90 133.91,399.90 134.25,399.90 134.58,399.90 134.92,405.24 135.25,405.24 135.59,405.24 135.92,405.24 136.26,399.90 136.59,405.24 136.93,410.58 137.26,410.58 137.60,410.58 137.93,410.58 138.27,410.58 138.60,410.58 138.94,415.92 139.27,421.26 139.61,426.60 139.94,426.60 140.28,426.60 140.61,426.60 140.95,431.94 141.28,426.60 141.62,421.26 141.95,415.92 142.29,410.58 142.62,405.24 142.96,405.24 143.29,405.24 143.63,405.24 143.96,405.24 144.30,405.24 144.63,405.24 144.97,405.24 145.30,405.24 145.64,410.58 145.97,415.92 146.31,415.92 146.64,415.92 146.98,415.92 147.31,405.24 147.65,405.24 147.98,405.24 148.32,399.90 148.65,399.90 148.99,399.90 149.32,399.90 149.66,399.90 149.99,399.90 150.33,399.90 150.66,399.90 151.00,399.90 151.33,399.90 151.67,399.90 152.00,399.90 152.34,399.90 152.67,399.90 153.01,405.24 153.34,405.24 153.68,405.24 154.01,405.24 154.35,410.58 154.68,415.92 155.02,415.92 155.35,410.58 155.69,410.58 156.02,410.58 156.36,410.58 156.69,410.58 157.03,405.24 157.36,405.24 157.70,410.58 158.03,410.58 158.37,410.58 158.70,410.58 159.04,410.58 159.37,410.58 159.71,410.58 160.04,410.58 160.38,405.24 160.71,405.24 161.05,405.24 161.38,405.24 161.72,405.24 162.05,399.90 162.39,399.90 162.72,399.90 163.06,405.24 163.39,399.90 163.73,405.24 164.06,405.24 164.40,405.24 164.73,405.24 165.07,410.58 165.40,410.58 165.74,410.58 166.07,405.24 166.41,399.90 166.74,399.90 167.08,399.90 167.41,394.56 167.75,389.22 168.08,389.22 168.42,389.22 168.75,383.88 169.09,378.54 169.42,378.54 169.76,378.54 170.09,378.54 170.43,378.54 170.76,383.88 171.10,389.22 171.43,389.22 171.77,389.22 172.10,389.22 172.44,389.22 172.77,389.22 173.11,394.56 173.44,394.56 173.78,399.90 174.11,399.90 174.45,399.90 174.78,399.90 175.12,394.56 175.45,394.56 175.79,389.22 176.12,383.88 176.46,389.22 176.79,389.22 177.13,389.22 177.46,389.22 177.80,389.22 178.13,389.22 178.47,389.22 178.80,389.22 179.14,394.56 179.47,399.90 179.81,399.90 180.14,405.24 180.48,405.24 180.81,405.24 181.15,405.24 181.48,405.24 181.82,405.24 182.15,405.24 182.49,405.24 182.82,405.24 183.16,405.24 183.49,399.90 183.83,399.90 184.16,399.90 184.50,405.24 184.83,399.90 185.17,399.90 185.50,399.90 185.84,399.90 186.17,399.90 186.51,399.90 186.84,399.90 187.18,399.90 187.51,399.90 187.85,399.90 188.18,399.90 188.52,399.90 188.85,399.90 189.19,399.90 189.52,399.90 189.86,399.90 190.19,399.90 190.53,399.90 190.86,394.56 191.20,394.56 191.53,394.56 191.87,394.56 192.20,394.56 192.54,389.22 192.87,389.22 193.21,389.22 193.54,389.22 193.88,389.22 194.21,389.22 194.55,383.88 194.88,383.88 195.22,378.54 195.55,373.20 195.89,373.20 196.22,373.20 196.56,373.20 196.89,373.20 197.23,373.20 197.56,373.20 197.90,378.54 198.23,378.54 198.57,373.20 198.90,371.07 199.24,376.41 199.57,381.75 199.91,387.09 200.24,387.09 200.58,387.09 200.91,387.09 201.25,392.43 201.58,392.43 201.92,387.09 202.25,387.09 202.59,387.09 202.92,392.43 203.26,392.43 203.59,392.43 203.93,397.77 204.26,397.77 204.60,397.77 204.93,397.77 205.27,392.43 205.60,392.43 205.94,392.43 206.27,397.77 206.61,397.77 206.94,397.77 207.28,397.77 207.61,397.77 207.95,397.77 208.28,403.11 208.62,403.11 208.95,403.11 209.29,403.11 209.62,413.78 209.96,419.12 210.29,424.46 210.63,424.46 210.96,424.46 211.30,424.46 211.63,424.46 211.97,419.12 212.30,419.12 212.64,419.12 212.97,419.12 213.31,419.12 213.64,419.12 213.98,424.46 214.31,424.46 214.65,424.46 214.98,424.46 215.32,424.46 215.65,424.46 215.99,424.46 216.32,424.46 216.66,424.46 216.99,424.46 217.33,429.80 217.66,440.48 218.00,440.48 218.33,440.48 218.67,440.48 219.00,440.48 219.34,440.48 219.67,440.48 220.01,435.14 220.34,435.14 220.68,435.14 221.01,440.48 221.35,440.48 221.68,435.14 222.02,435.14 222.35,435.14 222.69,424.46 223.02,424.46 223.36,424.46 223.69,419.12 224.03,419.12 224.36,419.12 224.70,424.46 225.03,419.12 225.37,413.78 225.70,413.78 226.04,408.45 226.37,408.45 226.71,408.45 227.04,408.45 227.38,408.45 227.71,408.45 228.05,408.45 228.38,408.45 228.72,408.45 229.05,408.45 229.39,408.45 229.72,403.11 230.06,403.11 230.39,397.77 230.73,397.77 231.06,397.77 231.40,387.09 231.73,381.75 232.07,387.09 232.40,387.09 232.74,387.09 233.07,387.09 233.41,397.77 233.74,397.77 234.08,392.43 234.41,381.75 234.75,381.75 235.08,381.75 235.42,381.75 235.75,381.75 236.09,381.75 236.42,381.75 236.76,387.09 237.09,387.09 237.43,387.09 237.76,387.09 238.10,387.09 238.43,387.09 238.77,387.09 239.10,387.09 239.44,381.75 239.77,381.75 240.11,371.07 240.44,376.41 240.78,376.41 241.11,376.41 241.45,381.75 241.78,376.41 242.12,376.41 242.45,376.41 242.79,376.41 243.12,371.07 243.46,376.41 243.79,376.41 244.13,376.41 244.46,371.07 244.80,371.07 245.13,371.07 245.47,371.07 245.80,376.41 246.14,376.41 246.47,376.41 246.81,371.07 247.14,371.07 247.48,376.41 247.81,376.41 248.15,376.41 248.48,381.75 248.82,381.75 249.15,381.75 249.49,387.09 249.82,387.09 250.16,387.09 250.49,381.75 250.83,381.75 251.16,371.07 251.50,365.73 251.83,365.73 252.17,365.73 252.50,365.73 252.84,365.73 253.17,365.73 253.51,365.73 253.84,365.73 254.18,376.41 254.51,376.41 254.85,376.41 255.18,376.41 255.52,376.41 255.85,376.41 256.19,371.07 256.52,371.07 256.86,371.07 257.19,371.07 257.53,371.07 257.86,371.07 258.20,365.73 258.53,365.73 258.87,360.39 259.20,360.39 259.54,360.39 259.87,355.05 260.21,355.05 260.54,355.05 260.88,360.39 261.21,365.73 261.55,365.73 261.88,365.73 262.22,371.07 262.55,371.07 262.89,365.73 263.22,360.39 263.56,360.39 263.89,360.39 264.23,360.39 264.56,360.39 264.90,360.39 265.23,360.39 265.57,360.39 265.90,360.39 266.24,360.39 266.57,360.39 266.91,360.39 267.24,360.39 267.58,360.39 267.91,360.39 268.25,360.39 268.58,360.39 268.92,360.39 269.25,360.39 269.59,360.39 269.92,360.39 270.26,360.39 270.59,360.39 270.93,360.39 271.26,360.39 271.60,360.39 271.93,360.39 272.27,360.39 272.60,360.39 272.94,360.39 273.27,360.39 273.61,360.39 273.94,360.39 274.28,360.39 274.61,360.39 274.95,360.39 275.28,360.39 275.62,360.39 275.95,360.39 276.29,365.73 276.62,371.07 276.96,371.07 277.29,365.73 277.63,365.73 277.96,360.39 278.30,360.39 278.63,360.39 278.97,360.39 279.30,360.39 279.64,360.39 279.97,365.73 280.31,365.73 280.64,365.73 280.98,371.07 281.31,376.41 281.65,376.41 281.98,376.41 282.32,376.41 282.65,376.41 282.99,376.41 283.32,376.41 283.66,381.75 283.99,371.07 284.33,371.07 284.66,371.07 285.00,371.07 285.33,381.75 285.67,381.75 286.00,381.75 286.34,381.75 286.67,381.75 287.01,381.75 287.34,381.75 287.68,381.75 288.01,387.09 288.35,387.09 288.68,387.09 289.02,387.09 289.35,387.09 289.69,387.09 290.02,387.09 290.36,387.09 290.69,387.09 291.03,387.09 291.36,387.09 291.70,387.09 292.03,387.09 292.37,387.09 292.70,392.43 293.04,392.43 293.37,392.43 293.71,392.43 294.04,387.09 294.38,387.09 294.71,387.09 295.05,387.09 295.38,387.09 295.72,392.43 296.05,392.43 296.39,392.43 296.72,392.43 297.06,392.43 297.39,392.43 297.73,392.43 298.06,397.77 298.40,397.77 298.73,397.77 299.07,397.77 299.40,397.77 299.74,392.43 300.07,392.43 300.41,387.09 300.74,392.43 301.08,392.43 301.41,397.77 301.75,397.77 302.08,392.43 302.42,387.09 302.75,387.09 303.09,387.09 303.42,392.43 303.76,392.43 304.09,392.43 304.43,392.43 304.76,392.43 305.10,392.43 305.43,392.43 305.77,387.09 306.10,381.75 306.44,381.75 306.77,371.07 307.11,371.07 307.44,371.07 307.78,371.07 308.11,371.07 308.45,371.07 308.78,365.73 309.12,365.73 309.45,371.07 309.79,371.07 310.12,365.73 310.46,360.39 310.79,365.73 311.13,365.73 311.46,365.73 311.80,365.73 312.13,365.73 312.47,365.73 312.80,365.73 313.14,365.73 313.47,365.73 313.81,365.73 314.14,365.73 314.48,360.39 314.81,355.05 315.15,360.39 315.48,360.39 315.82,360.39 316.15,360.39 316.49,355.05 316.82,349.71 317.16,349.71 317.49,349.71 317.83,344.37 318.16,344.37 318.50,344.37 318.83,339.03 319.17,339.03 319.50,339.03 319.84,339.03 320.17,339.03 320.51,339.03 320.84,339.03 321.18,344.37 321.51,339.03 321.85,339.03 322.18,344.37 322.52,339.03 322.85,339.03 323.19,339.03 323.52,339.03 323.86,339.03 324.19,339.03 324.53,339.03 324.86,339.03 325.20,339.03 325.53,339.03 325.87,339.03 326.20,333.69 326.54,333.69 326.87,333.69 327.21,333.69 327.54,333.69 327.88,328.35 328.21,323.01 328.55,333.69 328.88,333.69 329.22,333.69 329.55,333.69 329.89,328.35 330.22,333.69 330.56,333.69 330.89,333.69 331.23,328.35 331.56,333.69 331.90,333.69 332.23,333.69 332.57,328.35 332.90,333.69 333.24,339.03 333.57,339.03 333.91,339.03 334.24,339.03 334.58,339.03 334.91,339.03 335.25,339.03 335.58,339.03 335.92,339.03 336.25,339.03 336.59,333.69 336.92,333.69 337.26,333.69 337.59,333.69 337.93,333.69 338.26,333.69 338.60,323.01 338.93,317.67 339.27,317.67 339.60,312.33 339.94,312.33 340.27,312.33 340.61,312.33 340.94,306.99 341.28,306.99 341.61,301.65 341.95,301.65 342.28,306.99 342.62,312.33 342.95,312.33 343.29,312.33 343.62,317.67 343.96,323.01 344.29,323.01 344.63,323.01 344.96,317.67 345.30,317.67 345.63,312.33 345.97,317.67 346.30,323.01 346.64,323.01 346.97,323.01 347.31,323.01 347.64,328.35 347.98,328.35 348.31,328.35 348.65,328.35 348.98,328.35 349.32,328.35 349.65,328.35 349.99,328.35 350.32,328.35 350.66,328.35 350.99,323.01 351.33,323.01 351.66,323.01 352.00,323.01 352.33,323.01 352.67,323.01 353.00,323.01 353.34,317.67 353.67,312.33 354.01,317.67 354.34,317.67 354.68,317.67 355.01,317.67 355.35,317.67 355.68,317.67 356.02,317.67 356.35,323.01 356.69,323.01 357.02,323.01 357.36,328.35 357.69,328.35 358.03,328.35 358.36,328.35 358.70,328.35 359.03,328.35 359.37,328.35 359.70,328.35 360.04,328.35 360.37,328.35 360.71,317.67 361.04,317.67 361.38,317.67 361.71,317.67 362.05,312.33 362.38,312.33 362.72,312.33 363.05,312.33 363.39,312.33 363.72,312.33 364.06,312.33 364.39,312.33 364.73,312.33 365.06,312.33 365.40,312.33 365.73,306.99 366.07,306.99 366.40,301.65 366.74,306.99 367.07,306.99 367.41,301.65 367.74,301.65 368.08,290.97 368.41,290.97 368.75,290.97 369.08,290.97 369.42,296.31 369.75,296.31 370.09,296.31 370.42,290.97 370.76,285.63 371.09,285.63 371.43,285.63 371.76,285.63 372.10,280.30 372.43,280.30 372.77,274.96 373.10,274.96 373.44,274.96 373.77,269.62 374.11,269.62 374.44,269.62 374.78,269.62 375.11,269.62 375.45,269.62 375.78,269.62 376.12,269.62 376.45,269.62 376.79,264.28 377.12,264.28 377.46,269.62 377.79,269.62 378.13,264.28 378.46,264.28 378.80,274.96 379.13,274.96 379.47,274.96 379.80,274.96 380.14,274.96 380.47,274.96 380.81,269.62 381.14,269.62 381.48,269.62 381.81,269.62 382.15,269.62 382.48,264.28 382.82,264.28 383.15,264.28 383.49,264.28 383.82,258.94 384.16,258.94 384.49,258.94 384.83,258.94 385.16,258.94 385.50,258.94 385.83,258.94 386.17,258.94 386.50,258.94 386.84,258.94 387.17,264.28 387.51,264.28 387.84,264.28 388.18,264.28 388.51,264.28 388.85,258.94 389.18,258.94 389.52,258.94 389.85,258.94 390.19,258.94 390.52,258.94 390.86,258.94 391.19,258.94 391.53,258.94 391.86,258.94 392.20,258.94 392.53,258.94 392.87,248.26 393.20,253.60 393.54,253.60 393.87,253.60 394.21,253.60 394.54,253.60 394.88,258.94 395.21,253.60 395.55,253.60 395.88,248.26 396.22,242.92 396.55,253.60 396.89,253.60 397.22,248.26 397.56,248.26 397.89,242.92 398.23,242.92 398.56,242.92 398.90,242.92 399.23,242.92 399.57,242.92 399.90,242.92 400.24,242.92 400.57,242.92 400.91,242.92 401.24,242.92 401.58,248.26 401.91,242.92 402.25,237.58 402.58,226.90 402.92,226.90 403.25,226.90 403.59,226.90 403.92,226.90 404.26,226.90 404.59,232.24 404.93,232.24 405.26,226.90 405.60,221.56 405.93,221.56 406.27,216.22 406.60,216.22 406.94,216.22 407.27,216.22 407.61,216.22 407.94,216.22 408.28,216.22 408.61,216.22 408.95,216.22 409.28,210.88 409.62,210.88 409.95,210.88 410.29,210.88 410.62,210.88 410.96,210.88 411.29,210.88 411.63,221.56 411.96,221.56 412.30,221.56 412.63,221.56 412.97,221.56 413.30,216.22 413.64,210.88 413.97,210.88 414.31,210.88 414.64,210.88 414.98,210.88 415.31,210.88 415.65,216.22 415.98,216.22 416.32,216.22 416.65,216.22 416.99,216.22 417.32,216.22 417.66,216.22 417.99,216.22 418.33,216.22 418.66,216.22 419.00,216.22 419.33,216.22 419.67,216.22 420.00,216.22 420.34,216.22 420.67,216.22 421.01,216.22 421.34,216.22 421.68,216.22 422.01,216.22 422.35,210.88 422.68,210.88 423.02,205.54 423.35,200.20 423.69,200.20 424.02,200.20 424.36,200.20 424.69,200.20 425.03,200.20 425.36,194.86 425.70,194.86 426.03,194.86 426.37,200.20 426.70,205.54 427.04,210.88 427.37,210.88 427.71,205.54 428.04,205.54 428.38,200.20 428.71,200.20 429.05,200.20 429.38,200.20 429.72,200.20 430.05,200.20 430.39,200.20 430.72,194.86 431.06,194.86 431.39,189.52 431.73,189.52 432.06,189.52 432.40,189.52 432.73,189.52 433.07,189.52 433.40,189.52 433.74,189.52 434.07,189.52 434.41,189.52 434.74,189.52 435.08,189.52 435.41,189.52 435.75,189.52 436.08,189.52 436.42,189.52 436.75,189.52 437.09,189.52 437.42,189.52 437.76,184.18 438.09,184.18 438.43,184.18 438.76,184.18 439.10,184.18 439.43,184.18 439.77,178.84 440.10,178.84 440.44,178.84 440.77,184.18 441.11,178.84 441.44,178.84 441.78,178.84 442.11,178.84 442.45,178.84 442.78,178.84 443.12,178.84 443.45,178.84 443.79,178.84 444.12,178.84 444.46,178.84 444.79,178.84 445.13,178.84 445.46,173.50 445.80,168.16 446.13,168.16 446.47,168.16 446.80,168.16 447.14,168.16 447.47,168.16 447.81,168.16 448.14,168.16 448.48,168.16 448.81,168.16 449.15,168.16 449.48,168.16 449.82,162.82 450.15,162.82 450.49,168.16 450.82,168.16 451.16,173.50 451.49,173.50 451.83,173.50 452.16,173.50 452.50,173.50 452.83,173.50 453.17,168.16 453.50,173.50 453.84,168.16 454.17,162.82 454.51,168.16 454.84,173.50 455.18,173.50 455.51,173.50 455.85,173.50 456.18,162.82 456.52,168.16 456.85,168.16 457.19,168.16 457.52,173.50 457.86,173.50 458.19,173.50 458.53,173.50 458.86,168.16 459.20,168.16 459.53,162.82 459.87,162.82 460.20,162.82 460.54,162.82 460.87,162.82 461.21,162.82 461.54,162.82 461.88,162.82 462.21,157.48 462.55,157.48 462.88,157.48 463.22,157.48 463.55,152.15 463.89,146.81 464.22,146.81 464.56,146.81 464.89,146.81 465.23,146.81 465.56,146.81 465.90,141.47 466.23,141.47 466.57,141.47 466.90,141.47 467.24,141.47 467.57,141.47 467.91,141.47 468.24,141.47 468.58,146.81 468.91,141.47 469.25,141.47 469.58,141.47 469.92,141.47 470.25,141.47 470.59,141.47 470.92,146.81 471.26,152.15 471.59,152.15 471.93,152.15 472.26,157.48 472.60,157.48 472.93,157.48 473.27,162.82 473.60,162.82 473.94,162.82 474.27,162.82 474.61,167.63 474.94,167.63 475.28,172.97 475.61,172.97 475.95,172.97 476.28,172.97 476.62,172.97 476.95,167.63 477.29,167.63 477.62,167.63 477.96,167.63 478.29,167.63 478.63,167.63 478.96,167.63 479.30,167.63 479.63,167.63 479.97,162.29 480.30,162.29 480.64,156.95 480.97,156.95 481.31,156.95 481.64,156.95 481.98,162.29 482.31,156.95 482.65,156.95 482.98,156.95 483.32,156.95 483.65,156.95 483.99,156.95 484.32,156.95 484.66,156.95 484.99,156.95 485.33,156.95 485.66,156.95 486.00,156.95 486.33,162.29 486.67,162.29 487.00,162.29 487.34,162.29 487.67,167.63 488.01,167.63 488.34,172.97 488.68,172.97 489.01,172.97 489.35,178.31 489.68,178.31 490.02,167.63 490.35,167.63 490.69,167.63 491.02,167.63 491.36,172.97 491.69,178.31 492.03,178.31 492.36,178.31 492.70,178.31 493.03,183.65 493.37,183.65 493.70,183.65 494.04,188.99 494.37,188.99 494.71,188.99 495.04,188.99 495.38,188.99 495.71,188.99 496.05,188.99 496.38,188.99 496.72,188.99 497.05,194.33 497.39,194.33 497.72,194.33 498.06,188.99 498.39,194.33 498.73,194.33 499.06,194.33 499.40,188.99 499.73,183.65 500.07,183.65 500.40,172.97 500.74,172.97 501.07,172.97 501.41,172.97 501.74,172.97 502.08,172.97 502.41,167.63 502.75,167.63 503.08,167.63 503.42,167.63 503.75,167.63 504.09,167.63 504.42,167.63 504.76,167.63 505.09,167.63 505.43,172.97 505.76,167.63 506.10,167.63 506.43,178.31 506.77,178.31 507.10,178.31 507.44,178.31 507.77,178.31 508.11,178.31 508.44,178.31 508.78,183.65 509.11,188.99 509.45,188.99 509.78,194.33 510.12,194.33 510.45,194.33 510.79,188.99 511.12,188.99 511.46,188.99 511.79,188.99 512.13,183.65 512.46,183.65 512.80,188.99 513.13,188.99 513.47,188.99 513.80,194.33 514.14,194.33 514.47,194.33 514.81,194.33 515.14,194.33 515.48,194.33 515.81,199.67 516.15,205.01 516.48,205.01 516.82,205.01 517.15,205.01 517.49,205.01 517.82,205.01 518.16,205.01 518.49,205.01 518.83,205.01 519.16,194.33 519.50,199.67 519.83,205.01 520.17,205.01 520.50,210.35 520.84,210.35 521.17,210.35 521.51,205.01 521.84,205.01 522.18,205.01 522.51,205.01 522.85,215.69 523.18,215.69 523.52,210.35 523.85,199.67 524.19,199.67 524.52,199.67 524.86,199.67 525.19,199.67 525.53,199.67 525.86,199.67 526.20,199.67 526.53,199.67 526.87,199.67 527.20,199.67 527.54,205.01 527.87,188.99 528.21,183.65 528.54,183.65 528.88,183.65 529.21,183.65 529.55,183.65 529.88,183.65 530.22,178.31 530.55,178.31 530.89,178.31 531.22,167.63 531.56,167.63 531.89,167.63 532.23,167.63 532.56,167.63 532.90,172.97 533.23,172.97 533.57,167.63 533.90,167.63 534.24,162.29 534.57,156.95 534.91,162.29 535.24,172.97 535.58,167.63 535.91,167.63 536.25,167.63 536.58,167.63 536.92,167.63 537.25,167.63 537.59,167.63 537.92,172.97 538.26,178.31 538.59,178.31 538.93,183.65 539.26,183.65 539.60,183.65 539.93,183.65 540.27,183.65 540.60,188.99 540.94,183.65 541.27,178.31 541.61,178.31 541.94,178.31 542.28,172.97 542.61,183.65 542.95,183.65 543.28,183.65 543.62,178.31 543.95,178.31 544.29,178.31 544.62,172.97 544.96,172.97 545.29,172.97 545.63,178.31 545.96,178.31 546.30,172.97 546.63,172.97 546.97,172.97 547.30,172.97 547.64,172.97 547.97,172.97 548.31,172.97 548.64,172.97 548.98,162.29 549.31,162.29 549.65,162.29 549.98,162.29 550.32,156.95 550.65,156.95 550.99,156.95 551.32,156.95 551.66,162.29 551.99,156.95 552.33,156.95 552.66,156.95 553.00,156.95 553.33,151.61 553.67,151.61 554.00,151.61 554.34,156.95 554.67,156.95 555.01,156.95 555.34,156.95 555.68,151.61 556.01,146.27 556.35,146.27 556.68,146.27 557.02,140.93 557.35,140.93 557.69,140.93 558.02,140.93 558.36,146.27 558.69,146.27 559.03,140.93 559.36,135.59 559.70,135.59 560.03,135.59 560.37,140.93 560.70,140.93 561.04,140.93 561.37,140.93 561.71,140.93 562.04,135.59 562.38,135.59 562.71,135.59 563.05,135.59 563.38,135.59 563.72,135.59 564.05,135.59 564.39,135.59 564.72,140.93 565.06,140.93 565.39,135.59 565.73,135.59 566.06,135.59 566.40,135.59 566.73,135.59 567.07,135.59 567.40,140.93 567.74,140.93 568.07,140.93 568.41,140.93 568.74,140.93 569.08,135.59 569.41,135.59 569.75,135.59 570.08,135.59 570.42,135.59 570.75,135.59 571.09,135.59 571.42,135.59 571.76,130.25 572.09,124.91 572.43,119.57 572.76,119.57 573.10,119.57 573.43,119.57 573.77,119.57 574.10,119.57 574.44,119.57 574.77,114.23 575.11,108.89 575.44,103.55 575.78,108.89 576.11,108.89 576.45,108.89 576.78,108.89 577.12,108.89 577.45,108.89 577.79,108.89 578.12,103.55 578.46,103.55 578.79,108.89 579.13,108.89 579.46,108.89 579.80,108.89 580.13,108.89 580.47,108.89 580.80,108.89 581.14,108.89 581.47,103.55 581.81,103.55 582.14,103.55 582.48,103.55 582.81,103.55 583.15,103.55 583.48,103.55 583.82,103.55 584.15,103.55 584.49,103.55 584.82,103.55 585.16,103.55 585.49,92.88 585.83,87.54 586.16,92.88 586.50,87.54 586.83,87.54 587.17,76.86 587.50,71.52 587.84,71.52 588.17,76.86 588.51,76.86 588.84,82.20 589.18,82.20 589.51,76.86 589.85,76.86 590.18,76.86 590.52,76.86 590.85,76.86 591.19,76.86 591.52,76.86 591.86,76.86 592.19,76.86 592.53,82.20 592.86,87.54 593.20,87.54 593.53,92.88 593.87,92.88 594.20,92.88 594.54,92.88 594.87,92.88 595.21,103.55 595.54,108.89 595.88,108.89 596.21,108.89 596.55,108.89 596.88,108.89 597.22,108.89 597.55,114.23 597.89,119.57 598.22,119.57 598.56,119.57 598.89,98.22 599.23,98.22 599.56,92.88 599.90,92.88 600.23,98.22 600.57,98.22 600.90,98.22 601.24,98.22 601.57,98.22 601.91,98.22 602.24,98.22 602.58,98.22 602.91,92.88 603.25,92.88 603.58,98.22 603.92,98.22 604.25,92.88 604.59,92.88 604.92,92.88 605.26,98.22 605.59,98.22 605.93,98.22 606.26,98.22 606.60,92.88 606.93,98.22 607.27,92.88 607.60,92.88 607.94,92.88 608.27,87.54 608.61,82.20 608.94,82.20 609.28,76.86 609.61,76.86 609.95,87.54 610.28,87.54 610.62,87.54 610.95,92.88 611.29,92.88 611.62,92.88 611.96,92.88 612.29,92.88 612.63,92.88 612.96,92.88 613.30,92.88 613.63,87.54 613.97,87.54 614.30,87.54 614.64,87.54 614.97,82.20 615.31,82.20 615.64,82.20 615.98,82.20 616.31,82.20 616.65,82.20 616.98,82.20 617.32,82.20 617.65,82.20 617.99,82.20 618.32,82.20 618.66,82.20 618.99,82.20 619.33,82.20 619.66,82.20 620.00,82.20 620.33,82.20 620.67,76.86 621.00,76.86 621.34,76.86 621.67,76.86 622.01,76.86 622.34,76.86 622.68,76.86 623.01,76.86 623.35,87.54 623.68,87.54 624.02,87.54 624.35,87.54 624.69,87.54 625.02,92.88 625.36,92.88 625.69,87.54 626.03,87.54 626.36,87.54 626.70,87.54 627.03,87.54 627.37,87.54 627.70,92.88 628.04,87.54 628.37,87.54 628.71,87.54 629.04,87.54 629.38,87.54 629.71,87.54 630.05,87.54 630.38,82.20 630.72,82.20 631.05,82.20 631.39,82.20 631.72,82.20 632.06,82.20 632.39,82.20 632.73,76.86 633.06,76.86 633.40,76.86 633.73,76.86 634.07,76.86 634.40,71.52 634.74,76.86 635.07,71.52 635.41,71.52 635.74,76.86 636.08,76.86 636.41,76.86 636.75,76.86 637.08,76.86 637.42,76.86 637.75,82.20 638.09,82.20 638.42,82.20 638.76,82.20 639.09,82.20 639.43,82.20 639.76,82.20 640.10,82.20 640.43,82.20 640.77,87.54 641.10,87.54 641.44,87.54 641.77,87.54 642.11,87.54 642.44,87.54 642.78,87.54 643.11,87.54 643.45,87.54 643.78,92.88 644.12,92.88 644.45,92.88 644.79,92.88 645.12,92.88 645.46,92.88 645.79,92.88 646.13,92.88 646.46,92.88 646.80,92.88 647.13,92.88 647.47,92.88 647.80,98.22 648.14,103.55 648.47,103.55 648.81,103.55 649.14,103.55 649.48,103.55 649.81,103.55 650.15,108.89 650.48,108.89 650.82,108.89 651.15,108.89 651.49,114.23 651.82,114.23 652.16,114.23 652.49,119.57 652.83,124.91 653.16,124.91 653.50,130.25 653.83,130.25 654.17,130.25 654.50,130.25 654.84,130.25 655.17,130.25 655.51,130.25 655.84,130.25 656.18,130.25 656.51,124.91 656.85,124.91 657.18,124.91 657.52,124.91 657.85,124.91 658.19,124.91 658.52,124.91 658.86,124.91 659.19,119.57 659.53,119.57 659.86,119.57 660.20,119.57 660.53,114.23 660.87,114.23 661.20,114.23 661.54,114.23 661.87,108.89 662.21,108.89 662.54,108.89 662.88,108.89 663.21,108.89 663.55,108.89 663.88,108.89 664.22,108.89 664.55,108.89 664.89,108.89 665.22,108.89 665.56,103.55 665.89,103.55 666.23,103.55 666.56,103.55 666.90,103.55 667.23,98.22 667.57,98.22 667.90,98.22 668.24,98.22 668.57,98.22 668.91,98.22 669.24,98.22 669.58,108.89 669.91,103.55 670.25,103.55 670.58,108.89 670.92,108.89 671.25,114.23 671.59,114.23 671.92,114.23 672.26,114.23 672.59,114.23 672.93,114.23 673.26,114.23 673.60,108.89 673.93,103.55 674.27,108.89 674.60,108.89 674.94,108.89 675.27,108.89 675.61,114.23 675.94,114.23 676.28,114.23 676.61,114.23 676.95,119.57 677.28,119.57 677.62,114.23 677.95,108.89 678.29,108.89 678.62,103.55 678.96,98.22 679.29,92.88 679.63,87.54 679.96,87.54 680.30,87.54 680.63,87.54 680.97,87.54 681.30,87.54 681.64,87.54 681.97,87.54 682.31,87.54 682.64,87.54 682.98,87.54 683.31,87.54 683.65,87.54 683.98,87.54 684.32,87.54 684.65,87.54 684.99,87.54 685.32,87.54 685.66,87.54 685.99,87.54 686.33,87.54 686.66,87.54 687.00,82.20 687.33,82.20 687.67,82.20 688.00,82.20 688.34,82.20 688.67,82.20 689.01,82.20 689.34,82.20 689.68,82.20 690.01,82.20 690.35,82.20 690.68,82.20 691.02,82.20 691.35,82.20 691.69,82.20 692.02,82.20 692.36,82.20 692.69,82.20 693.03,82.20 693.36,87.54 693.70,87.54 694.03,87.54 694.37,87.54 694.70,87.54 695.04,87.54 695.37,87.54 695.71,87.54 696.04,92.88 696.38,92.88 696.71,92.88 697.05,103.55 697.38,103.55 697.72,103.55 698.05,108.89 698.39,108.89 698.72,114.23 699.06,114.23 699.39,114.23 699.73,114.23 700.06,114.23 700.40,114.23 700.73,114.23 701.07,114.23 701.40,114.23 701.74,114.23 702.07,114.23 702.41,114.23 702.74,119.57 703.08,119.57 703.41,114.23 703.75,119.57 704.08,119.57 704.42,114.23 704.75,114.23 705.09,114.23 705.42,103.55 705.76,103.55 706.09,103.55 706.43,103.55 706.76,108.89 707.10,108.89 707.43,108.89 707.77,108.89 708.10,114.23 708.44,114.23 708.77,114.23 709.11,108.89 709.44,108.89 709.78,108.89 710.11,103.55 710.45,103.55 710.78,103.55 711.12,103.55 711.45,103.55 711.79,103.55 712.12,103.55 712.46,103.55 712.79,103.55 713.13,103.55 713.46,103.55 713.80,103.55 714.13,108.89 714.47,108.89 714.80,108.89 715.14,108.89 715.47,108.89 715.81,108.89 716.14,108.89 716.48,114.23 716.81,114.23 717.15,114.23 717.48,114.23 717.82,114.23 718.15,114.23 718.49,114.23 718.82,119.57 719.16,124.91 719.49,124.91 719.83,124.91 720.16,124.91 720.50,124.91 720.83,124.91 721.17,124.91 721.50,124.91 721.84,124.91 722.17,130.25 722.51,130.25 722.84,135.59 723.18,135.59 723.51,135.59 723.85,135.59 724.18,135.59 724.52,135.59 724.85,135.59 725.19,130.25 725.52,135.59 725.86,135.59 726.19,135.59 726.53,135.59 726.86,135.59 727.20,135.59 727.53,135.59 727.87,135.59 728.20,135.59 728.54,135.59 728.87,135.59 729.21,135.59 729.54,135.59 729.88,135.59 730.21,135.59 730.55,139.86 730.88,139.86 731.22,139.86 731.55,139.86 731.89,139.86 732.22,139.86 732.56,139.86 732.89,145.20 733.23,145.20 733.56,145.20 733.90,145.20 734.23,145.20 734.57,145.20 734.90,145.20 735.24,145.20 735.57,145.20 735.91,139.86 736.24,134.52 736.58,134.52 736.91,134.52 737.25,134.52 737.58,134.52 737.92,134.52 738.25,134.52 738.59,134.52 738.92,134.52 739.26,129.18 739.59,129.18 739.93,129.18 740.26,129.18 740.60,129.18 740.93,129.18 741.27,129.18 741.60,129.18 741.94,123.85 742.27,123.85 742.61,129.18 742.94,129.18 743.28,129.18 743.61,129.18 743.95,129.18 744.28,129.18 744.62,118.51 744.95,118.51 745.29,118.51 745.62,118.51 745.96,113.17 746.29,113.17 746.63,113.17 746.96,118.51 747.30,118.51 747.63,118.51 747.97,118.51 748.30,123.85 748.64,123.85 748.97,123.85 749.31,129.18 749.64,129.18 749.98,129.18 750.31,129.18 750.65,129.18 750.98,129.18 751.32,134.52 751.65,134.52 751.99,134.52 752.32,134.52 752.66,134.52 752.99,134.52 753.33,134.52 753.66,139.86 754.00,139.86 754.33,139.86 754.67,139.86 755.00,139.86"/>
<line x1="783" y1="58" x2="809" y2="58" stroke="#2563eb" stroke-width="3"/>
<text x="817" y="62" font-family="Arial" font-size="13" fill="#111827">Naive</text>
<polyline fill="none" stroke="#dc2626" stroke-width="2" points="85.00,399.90 85.34,405.24 85.67,410.58 86.01,415.92 86.34,415.92 86.68,421.26 87.01,421.26 87.35,415.92 87.68,415.92 88.02,415.92 88.35,415.92 88.69,410.58 89.02,410.58 89.36,415.92 89.69,415.92 90.03,410.58 90.36,410.58 90.70,405.24 91.03,405.24 91.37,399.90 91.70,399.90 92.04,399.90 92.37,399.90 92.71,399.90 93.04,399.90 93.38,399.90 93.71,399.90 94.05,399.90 94.38,405.24 94.72,405.24 95.05,405.24 95.39,410.58 95.72,410.58 96.06,399.90 96.39,399.90 96.73,399.90 97.06,399.90 97.40,394.56 97.73,389.22 98.07,389.22 98.40,389.22 98.74,389.22 99.07,383.88 99.41,383.88 99.74,383.88 100.08,383.88 100.41,383.88 100.75,383.88 101.08,383.88 101.42,383.88 101.75,389.22 102.09,383.88 102.42,383.88 102.76,383.88 103.09,389.22 103.43,389.22 103.76,389.22 104.10,389.22 104.43,389.22 104.77,389.22 105.10,389.22 105.44,389.22 105.77,389.22 106.11,389.22 106.44,389.22 106.78,383.88 107.11,383.88 107.45,383.88 107.78,389.22 108.12,389.22 108.45,389.22 108.79,389.22 109.12,383.88 109.46,383.88 109.79,378.54 110.13,378.54 110.46,389.22 110.80,389.22 111.13,389.22 111.47,383.88 111.80,378.54 112.14,378.54 112.47,378.54 112.81,378.54 113.14,378.54 113.48,378.54 113.81,378.54 114.15,378.54 114.48,373.20 114.82,373.20 115.15,373.20 115.49,373.20 115.82,378.54 116.16,378.54 116.49,378.54 116.83,373.20 117.16,378.54 117.50,373.20 117.83,378.54 118.17,378.54 118.50,378.54 118.84,378.54 119.17,383.88 119.51,378.54 119.84,378.54 120.18,378.54 120.51,373.20 120.85,373.20 121.18,367.86 121.52,367.86 121.85,367.86 122.19,362.52 122.52,362.52 122.86,362.52 123.19,362.52 123.53,362.52 123.86,362.52 124.20,362.52 124.53,367.86 124.87,367.86 125.20,373.20 125.54,367.86 125.87,367.86 126.21,367.86 126.54,367.86 126.88,373.20 127.21,367.86 127.55,367.86 127.88,367.86 128.22,367.86 128.55,373.20 128.89,367.86 129.22,367.86 129.56,367.86 129.89,362.52 130.23,373.20 130.56,378.54 130.90,378.54 131.23,378.54 131.57,373.20 131.90,373.20 132.24,378.54 132.57,378.54 132.91,389.22 133.24,389.22 133.58,394.56 133.91,394.56 134.25,394.56 134.58,394.56 134.92,399.90 135.25,399.90 135.59,399.90 135.92,399.90 136.26,394.56 136.59,399.90 136.93,405.24 137.26,405.24 137.60,405.24 137.93,405.24 138.27,405.24 138.60,405.24 138.94,410.58 139.27,415.92 139.61,421.26 139.94,421.26 140.28,421.26 140.61,421.26 140.95,426.60 141.28,421.26 141.62,415.92 141.95,410.58 142.29,405.24 142.62,399.90 142.96,399.90 143.29,399.90 143.63,399.90 143.96,399.90 144.30,399.90 144.63,399.90 144.97,399.90 145.30,399.90 145.64,405.24 145.97,410.58 146.31,410.58 146.64,410.58 146.98,410.58 147.31,399.90 147.65,399.90 147.98,399.90 148.32,394.56 148.65,394.56 148.99,394.56 149.32,394.56 149.66,394.56 149.99,394.56 150.33,394.56 150.66,394.56 151.00,394.56 151.33,394.56 151.67,394.56 152.00,394.56 152.34,394.56 152.67,394.56 153.01,399.90 153.34,399.90 153.68,399.90 154.01,399.90 154.35,405.24 154.68,410.58 155.02,410.58 155.35,405.24 155.69,405.24 156.02,405.24 156.36,405.24 156.69,405.24 157.03,399.90 157.36,399.90 157.70,405.24 158.03,405.24 158.37,405.24 158.70,405.24 159.04,405.24 159.37,405.24 159.71,405.24 160.04,405.24 160.38,399.90 160.71,399.90 161.05,399.90 161.38,399.90 161.72,399.90 162.05,394.56 162.39,394.56 162.72,394.56 163.06,399.90 163.39,394.56 163.73,399.90 164.06,399.90 164.40,399.90 164.73,399.90 165.07,405.24 165.40,405.24 165.74,405.24 166.07,399.90 166.41,394.56 166.74,394.56 167.08,394.56 167.41,389.22 167.75,383.88 168.08,383.88 168.42,383.88 168.75,378.54 169.09,373.20 169.42,373.20 169.76,373.20 170.09,373.20 170.43,373.20 170.76,378.54 171.10,383.88 171.43,383.88 171.77,383.88 172.10,383.88 172.44,383.88 172.77,383.88 173.11,389.22 173.44,389.22 173.78,394.56 174.11,394.56 174.45,394.56 174.78,394.56 175.12,389.22 175.45,389.22 175.79,383.88 176.12,378.54 176.46,383.88 176.79,383.88 177.13,383.88 177.46,383.88 177.80,383.88 178.13,383.88 178.47,383.88 178.80,383.88 179.14,389.22 179.47,394.56 179.81,394.56 180.14,399.90 180.48,399.90 180.81,399.90 181.15,399.90 181.48,399.90 181.82,399.90 182.15,399.90 182.49,399.90 182.82,394.56 183.16,394.56 183.49,389.22 183.83,389.22 184.16,389.22 184.50,394.56 184.83,389.22 185.17,389.22 185.50,389.22 185.84,389.22 186.17,389.22 186.51,389.22 186.84,389.22 187.18,383.88 187.51,383.88 187.85,383.88 188.18,383.88 188.52,383.88 188.85,383.88 189.19,383.88 189.52,383.88 189.86,383.88 190.19,383.88 190.53,383.88 190.86,378.54 191.20,378.54 191.53,378.54 191.87,378.54 192.20,378.54 192.54,373.20 192.87,373.20 193.21,373.20 193.54,373.20 193.88,373.20 194.21,373.20 194.55,367.86 194.88,367.86 195.22,362.52 195.55,357.19 195.89,357.19 196.22,357.19 196.56,357.19 196.89,357.19 197.23,357.19 197.56,357.19 197.90,362.52 198.23,362.52 198.57,357.19 198.90,355.05 199.24,360.39 199.57,365.73 199.91,371.07 200.24,371.07 200.58,371.07 200.91,371.07 201.25,376.41 201.58,376.41 201.92,371.07 202.25,371.07 202.59,371.07 202.92,376.41 203.26,376.41 203.59,376.41 203.93,381.75 204.26,381.75 204.60,381.75 204.93,381.75 205.27,376.41 205.60,376.41 205.94,376.41 206.27,381.75 206.61,381.75 206.94,381.75 207.28,381.75 207.61,381.75 207.95,381.75 208.28,387.09 208.62,387.09 208.95,387.09 209.29,387.09 209.62,397.77 209.96,403.11 210.29,408.45 210.63,408.45 210.96,408.45 211.30,408.45 211.63,408.45 211.97,403.11 212.30,403.11 212.64,403.11 212.97,403.11 213.31,403.11 213.64,403.11 213.98,408.45 214.31,408.45 214.65,408.45 214.98,408.45 215.32,408.45 215.65,408.45 215.99,408.45 216.32,408.45 216.66,408.45 216.99,408.45 217.33,413.78 217.66,424.46 218.00,424.46 218.33,424.46 218.67,424.46 219.00,424.46 219.34,424.46 219.67,424.46 220.01,419.12 220.34,419.12 220.68,419.12 221.01,424.46 221.35,424.46 221.68,419.12 222.02,419.12 222.35,419.12 222.69,408.45 223.02,408.45 223.36,408.45 223.69,403.11 224.03,403.11 224.36,403.11 224.70,408.45 225.03,403.11 225.37,397.77 225.70,397.77 226.04,392.43 226.37,392.43 226.71,392.43 227.04,392.43 227.38,392.43 227.71,392.43 228.05,392.43 228.38,392.43 228.72,392.43 229.05,392.43 229.39,392.43 229.72,387.09 230.06,387.09 230.39,381.75 230.73,381.75 231.06,381.75 231.40,371.07 231.73,365.73 232.07,371.07 232.40,371.07 232.74,371.07 233.07,371.07 233.41,381.75 233.74,381.75 234.08,376.41 234.41,365.73 234.75,365.73 235.08,365.73 235.42,365.73 235.75,365.73 236.09,365.73 236.42,365.73 236.76,371.07 237.09,371.07 237.43,371.07 237.76,371.07 238.10,371.07 238.43,376.41 238.77,376.41 239.10,376.41 239.44,371.07 239.77,371.07 240.11,360.39 240.44,365.73 240.78,365.73 241.11,365.73 241.45,371.07 241.78,365.73 242.12,365.73 242.45,365.73 242.79,365.73 243.12,360.39 243.46,365.73 243.79,365.73 244.13,365.73 244.46,360.39 244.80,360.39 245.13,360.39 245.47,360.39 245.80,360.39 246.14,360.39 246.47,360.39 246.81,355.05 247.14,355.05 247.48,360.39 247.81,360.39 248.15,360.39 248.48,365.73 248.82,365.73 249.15,365.73 249.49,371.07 249.82,371.07 250.16,371.07 250.49,365.73 250.83,365.73 251.16,355.05 251.50,349.71 251.83,349.71 252.17,349.71 252.50,349.71 252.84,355.05 253.17,355.05 253.51,355.05 253.84,355.05 254.18,360.39 254.51,365.73 254.85,365.73 255.18,365.73 255.52,365.73 255.85,365.73 256.19,360.39 256.52,360.39 256.86,360.39 257.19,360.39 257.53,360.39 257.86,360.39 258.20,355.05 258.53,355.05 258.87,355.05 259.20,355.05 259.54,355.05 259.87,349.71 260.21,349.71 260.54,349.71 260.88,355.05 261.21,360.39 261.55,360.39 261.88,360.39 262.22,365.73 262.55,365.73 262.89,360.39 263.22,355.05 263.56,355.05 263.89,355.05 264.23,355.05 264.56,355.05 264.90,355.05 265.23,355.05 265.57,355.05 265.90,355.05 266.24,355.05 266.57,355.05 266.91,355.05 267.24,355.05 267.58,355.05 267.91,355.05 268.25,355.05 268.58,355.05 268.92,355.05 269.25,355.05 269.59,355.05 269.92,355.05 270.26,355.05 270.59,355.05 270.93,355.05 271.26,355.05 271.60,355.05 271.93,355.05 272.27,355.05 272.60,355.05 272.94,355.05 273.27,355.05 273.61,355.05 273.94,355.05 274.28,355.05 274.61,355.05 274.95,355.05 275.28,355.05 275.62,355.05 275.95,355.05 276.29,360.39 276.62,365.73 276.96,365.73 277.29,360.39 277.63,360.39 277.96,355.05 278.30,355.05 278.63,355.05 278.97,355.05 279.30,355.05 279.64,355.05 279.97,360.39 280.31,360.39 280.64,360.39 280.98,365.73 281.31,371.07 281.65,371.07 281.98,371.07 282.32,371.07 282.65,371.07 282.99,371.07 283.32,371.07 283.66,376.41 283.99,365.73 284.33,365.73 284.66,365.73 285.00,365.73 285.33,376.41 285.67,376.41 286.00,376.41 286.34,376.41 286.67,376.41 287.01,376.41 287.34,376.41 287.68,376.41 288.01,381.75 288.35,381.75 288.68,381.75 289.02,381.75 289.35,381.75 289.69,381.75 290.02,381.75 290.36,381.75 290.69,381.75 291.03,381.75 291.36,381.75 291.70,376.41 292.03,376.41 292.37,376.41 292.70,381.75 293.04,381.75 293.37,381.75 293.71,381.75 294.04,376.41 294.38,376.41 294.71,376.41 295.05,376.41 295.38,376.41 295.72,387.09 296.05,387.09 296.39,387.09 296.72,387.09 297.06,387.09 297.39,387.09 297.73,387.09 298.06,392.43 298.40,392.43 298.73,392.43 299.07,392.43 299.40,392.43 299.74,387.09 300.07,387.09 300.41,381.75 300.74,387.09 301.08,387.09 301.41,392.43 301.75,392.43 302.08,387.09 302.42,381.75 302.75,381.75 303.09,381.75 303.42,387.09 303.76,387.09 304.09,387.09 304.43,387.09 304.76,387.09 305.10,387.09 305.43,387.09 305.77,381.75 306.10,376.41 306.44,376.41 306.77,365.73 307.11,365.73 307.44,365.73 307.78,365.73 308.11,365.73 308.45,365.73 308.78,360.39 309.12,360.39 309.45,365.73 309.79,365.73 310.12,360.39 310.46,355.05 310.79,360.39 311.13,360.39 311.46,360.39 311.80,360.39 312.13,360.39 312.47,360.39 312.80,360.39 313.14,360.39 313.47,360.39 313.81,360.39 314.14,360.39 314.48,355.05 314.81,349.71 315.15,355.05 315.48,355.05 315.82,355.05 316.15,355.05 316.49,349.71 316.82,344.37 317.16,344.37 317.49,344.37 317.83,339.03 318.16,339.03 318.50,339.03 318.83,333.69 319.17,333.69 319.50,333.69 319.84,333.69 320.17,333.69 320.51,333.69 320.84,333.69 321.18,339.03 321.51,333.69 321.85,333.69 322.18,339.03 322.52,333.69 322.85,333.69 323.19,333.69 323.52,333.69 323.86,333.69 324.19,333.69 324.53,333.69 324.86,333.69 325.20,333.69 325.53,333.69 325.87,339.03 326.20,333.69 326.54,333.69 326.87,333.69 327.21,333.69 327.54,333.69 327.88,328.35 328.21,323.01 328.55,333.69 328.88,333.69 329.22,333.69 329.55,333.69 329.89,328.35 330.22,333.69 330.56,333.69 330.89,333.69 331.23,328.35 331.56,333.69 331.90,333.69 332.23,333.69 332.57,328.35 332.90,333.69 333.24,339.03 333.57,339.03 333.91,339.03 334.24,339.03 334.58,339.03 334.91,339.03 335.25,339.03 335.58,339.03 335.92,339.03 336.25,339.03 336.59,333.69 336.92,333.69 337.26,333.69 337.59,333.69 337.93,333.69 338.26,333.69 338.60,323.01 338.93,317.67 339.27,317.67 339.60,312.33 339.94,312.33 340.27,312.33 340.61,312.33 340.94,306.99 341.28,306.99 341.61,301.65 341.95,301.65 342.28,306.99 342.62,312.33 342.95,312.33 343.29,312.33 343.62,317.67 343.96,323.01 344.29,323.01 344.63,323.01 344.96,317.67 345.30,317.67 345.63,312.33 345.97,317.67 346.30,323.01 346.64,323.01 346.97,323.01 347.31,323.01 347.64,328.35 347.98,328.35 348.31,328.35 348.65,328.35 348.98,328.35 349.32,328.35 349.65,328.35 349.99,328.35 350.32,328.35 350.66,328.35 350.99,323.01 351.33,323.01 351.66,323.01 352.00,323.01 352.33,323.01 352.67,323.01 353.00,323.01 353.34,317.67 353.67,312.33 354.01,317.67 354.34,317.67 354.68,317.67 355.01,317.67 355.35,317.67 355.68,317.67 356.02,317.67 356.35,323.01 356.69,323.01 357.02,323.01 357.36,328.35 357.69,328.35 358.03,333.69 358.36,333.69 358.70,333.69 359.03,333.69 359.37,333.69 359.70,333.69 360.04,333.69 360.37,333.69 360.71,323.01 361.04,323.01 361.38,323.01 361.71,323.01 362.05,317.67 362.38,317.67 362.72,317.67 363.05,317.67 363.39,317.67 363.72,317.67 364.06,317.67 364.39,317.67 364.73,312.33 365.06,312.33 365.40,312.33 365.73,306.99 366.07,306.99 366.40,301.65 366.74,306.99 367.07,306.99 367.41,301.65 367.74,301.65 368.08,290.97 368.41,290.97 368.75,290.97 369.08,290.97 369.42,296.31 369.75,296.31 370.09,296.31 370.42,290.97 370.76,285.63 371.09,285.63 371.43,285.63 371.76,285.63 372.10,280.30 372.43,280.30 372.77,274.96 373.10,274.96 373.44,274.96 373.77,269.62 374.11,269.62 374.44,269.62 374.78,269.62 375.11,269.62 375.45,269.62 375.78,269.62 376.12,269.62 376.45,269.62 376.79,264.28 377.12,264.28 377.46,269.62 377.79,269.62 378.13,264.28 378.46,264.28 378.80,274.96 379.13,274.96 379.47,274.96 379.80,274.96 380.14,274.96 380.47,274.96 380.81,269.62 381.14,269.62 381.48,269.62 381.81,269.62 382.15,269.62 382.48,264.28 382.82,264.28 383.15,264.28 383.49,264.28 383.82,258.94 384.16,258.94 384.49,258.94 384.83,258.94 385.16,258.94 385.50,258.94 385.83,258.94 386.17,258.94 386.50,258.94 386.84,258.94 387.17,264.28 387.51,264.28 387.84,264.28 388.18,264.28 388.51,264.28 388.85,258.94 389.18,258.94 389.52,258.94 389.85,258.94 390.19,258.94 390.52,258.94 390.86,258.94 391.19,258.94 391.53,258.94 391.86,258.94 392.20,258.94 392.53,258.94 392.87,248.26 393.20,253.60 393.54,253.60 393.87,253.60 394.21,253.60 394.54,253.60 394.88,258.94 395.21,253.60 395.55,253.60 395.88,248.26 396.22,242.92 396.55,253.60 396.89,253.60 397.22,248.26 397.56,248.26 397.89,242.92 398.23,242.92 398.56,242.92 398.90,242.92 399.23,242.92 399.57,242.92 399.90,242.92 400.24,242.92 400.57,242.92 400.91,242.92 401.24,242.92 401.58,248.26 401.91,242.92 402.25,237.58 402.58,226.90 402.92,226.90 403.25,226.90 403.59,226.90 403.92,226.90 404.26,226.90 404.59,232.24 404.93,232.24 405.26,226.90 405.60,221.56 405.93,221.56 406.27,216.22 406.60,216.22 406.94,216.22 407.27,216.22 407.61,216.22 407.94,216.22 408.28,216.22 408.61,216.22 408.95,216.22 409.28,210.88 409.62,210.88 409.95,210.88 410.29,210.88 410.62,210.88 410.96,210.88 411.29,210.88 411.63,221.56 411.96,221.56 412.30,221.56 412.63,221.56 412.97,221.56 413.30,216.22 413.64,210.88 413.97,210.88 414.31,210.88 414.64,210.88 414.98,210.88 415.31,210.88 415.65,216.22 415.98,216.22 416.32,216.22 416.65,216.22 416.99,216.22 417.32,216.22 417.66,216.22 417.99,216.22 418.33,216.22 418.66,216.22 419.00,216.22 419.33,216.22 419.67,216.22 420.00,216.22 420.34,216.22 420.67,216.22 421.01,216.22 421.34,216.22 421.68,216.22 422.01,216.22 422.35,210.88 422.68,210.88 423.02,205.54 423.35,200.20 423.69,200.20 424.02,200.20 424.36,200.20 424.69,200.20 425.03,200.20 425.36,194.86 425.70,194.86 426.03,194.86 426.37,200.20 426.70,205.54 427.04,210.88 427.37,210.88 427.71,205.54 428.04,205.54 428.38,200.20 428.71,205.54 429.05,205.54 429.38,205.54 429.72,205.54 430.05,205.54 430.39,205.54 430.72,200.20 431.06,200.20 431.39,194.86 431.73,194.86 432.06,194.86 432.40,194.86 432.73,194.86 433.07,194.86 433.40,194.86 433.74,194.86 434.07,194.86 434.41,194.86 434.74,189.52 435.08,189.52 435.41,189.52 435.75,189.52 436.08,189.52 436.42,189.52 436.75,189.52 437.09,189.52 437.42,189.52 437.76,184.18 438.09,184.18 438.43,184.18 438.76,184.18 439.10,184.18 439.43,184.18 439.77,178.84 440.10,178.84 440.44,178.84 440.77,184.18 441.11,178.84 441.44,178.84 441.78,178.84 442.11,178.84 442.45,178.84 442.78,178.84 443.12,178.84 443.45,178.84 443.79,178.84 444.12,178.84 444.46,178.84 444.79,178.84 445.13,178.84 445.46,173.50 445.80,168.16 446.13,168.16 446.47,168.16 446.80,168.16 447.14,168.16 447.47,168.16 447.81,168.16 448.14,168.16 448.48,168.16 448.81,168.16 449.15,168.16 449.48,168.16 449.82,162.82 450.15,162.82 450.49,168.16 450.82,168.16 451.16,173.50 451.49,173.50 451.83,173.50 452.16,173.50 452.50,173.50 452.83,173.50 453.17,168.16 453.50,173.50 453.84,168.16 454.17,162.82 454.51,168.16 454.84,173.50 455.18,173.50 455.51,173.50 455.85,173.50 456.18,162.82 456.52,168.16 456.85,168.16 457.19,168.16 457.52,173.50 457.86,173.50 458.19,173.50 458.53,173.50 458.86,168.16 459.20,168.16 459.53,162.82 459.87,162.82 460.20,162.82 460.54,162.82 460.87,162.82 461.21,162.82 461.54,162.82 461.88,162.82 462.21,157.48 462.55,157.48 462.88,157.48 463.22,157.48 463.55,152.15 463.89,146.81 464.22,146.81 464.56,146.81 464.89,146.81 465.23,146.81 465.56,146.81 465.90,141.47 466.23,141.47 466.57,141.47 466.90,141.47 467.24,141.47 467.57,141.47 467.91,141.47 468.24,141.47 468.58,146.81 468.91,141.47 469.25,141.47 469.58,141.47 469.92,141.47 470.25,141.47 470.59,141.47 470.92,146.81 471.26,152.15 471.59,152.15 471.93,152.15 472.26,157.48 472.60,157.48 472.93,157.48 473.27,162.82 473.60,162.82 473.94,162.82 474.27,162.82 474.61,167.63 474.94,167.63 475.28,172.97 475.61,172.97 475.95,172.97 476.28,172.97 476.62,172.97 476.95,167.63 477.29,167.63 477.62,167.63 477.96,167.63 478.29,167.63 478.63,167.63 478.96,167.63 479.30,167.63 479.63,167.63 479.97,162.29 480.30,162.29 480.64,156.95 480.97,156.95 481.31,156.95 481.64,156.95 481.98,162.29 482.31,156.95 482.65,156.95 482.98,156.95 483.32,156.95 483.65,156.95 483.99,156.95 484.32,156.95 484.66,156.95 484.99,156.95 485.33,156.95 485.66,156.95 486.00,156.95 486.33,162.29 486.67,162.29 487.00,162.29 487.34,162.29 487.67,167.63 488.01,167.63 488.34,172.97 488.68,172.97 489.01,172.97 489.35,178.31 489.68,178.31 490.02,167.63 490.35,167.63 490.69,167.63 491.02,167.63 491.36,172.97 491.69,178.31 492.03,178.31 492.36,178.31 492.70,178.31 493.03,183.65 493.37,183.65 493.70,183.65 494.04,188.99 494.37,188.99 494.71,188.99 495.04,188.99 495.38,188.99 495.71,188.99 496.05,188.99 496.38,188.99 496.72,188.99 497.05,194.33 497.39,194.33 497.72,194.33 498.06,188.99 498.39,194.33 498.73,194.33 499.06,194.33 499.40,188.99 499.73,183.65 500.07,183.65 500.40,172.97 500.74,172.97 501.07,172.97 501.41,172.97 501.74,172.97 502.08,172.97 502.41,167.63 502.75,167.63 503.08,167.63 503.42,167.63 503.75,167.63 504.09,167.63 504.42,167.63 504.76,167.63 505.09,167.63 505.43,172.97 505.76,167.63 506.10,167.63 506.43,178.31 506.77,178.31 507.10,178.31 507.44,178.31 507.77,178.31 508.11,178.31 508.44,178.31 508.78,183.65 509.11,188.99 509.45,188.99 509.78,194.33 510.12,194.33 510.45,194.33 510.79,188.99 511.12,188.99 511.46,188.99 511.79,188.99 512.13,183.65 512.46,183.65 512.80,188.99 513.13,188.99 513.47,188.99 513.80,194.33 514.14,194.33 514.47,194.33 514.81,194.33 515.14,194.33 515.48,194.33 515.81,199.67 516.15,205.01 516.48,205.01 516.82,205.01 517.15,205.01 517.49,205.01 517.82,205.01 518.16,205.01 518.49,205.01 518.83,205.01 519.16,194.33 519.50,199.67 519.83,205.01 520.17,205.01 520.50,210.35 520.84,210.35 521.17,210.35 521.51,205.01 521.84,205.01 522.18,205.01 522.51,205.01 522.85,215.69 523.18,215.69 523.52,210.35 523.85,199.67 524.19,199.67 524.52,199.67 524.86,199.67 525.19,199.67 525.53,199.67 525.86,199.67 526.20,199.67 526.53,199.67 526.87,199.67 527.20,199.67 527.54,205.01 527.87,188.99 528.21,183.65 528.54,183.65 528.88,183.65 529.21,183.65 529.55,183.65 529.88,183.65 530.22,178.31 530.55,178.31 530.89,178.31 531.22,167.63 531.56,167.63 531.89,167.63 532.23,167.63 532.56,167.63 532.90,172.97 533.23,172.97 533.57,167.63 533.90,167.63 534.24,162.29 534.57,156.95 534.91,162.29 535.24,172.97 535.58,167.63 535.91,167.63 536.25,167.63 536.58,167.63 536.92,167.63 537.25,167.63 537.59,167.63 537.92,172.97 538.26,178.31 538.59,178.31 538.93,183.65 539.26,183.65 539.60,183.65 539.93,183.65 540.27,183.65 540.60,188.99 540.94,183.65 541.27,178.31 541.61,178.31 541.94,178.31 542.28,172.97 542.61,183.65 542.95,183.65 543.28,183.65 543.62,178.31 543.95,178.31 544.29,178.31 544.62,172.97 544.96,172.97 545.29,172.97 545.63,178.31 545.96,178.31 546.30,172.97 546.63,172.97 546.97,172.97 547.30,172.97 547.64,172.97 547.97,172.97 548.31,172.97 548.64,172.97 548.98,162.29 549.31,162.29 549.65,162.29 549.98,162.29 550.32,156.95 550.65,156.95 550.99,156.95 551.32,156.95 551.66,162.29 551.99,156.95 552.33,156.95 552.66,156.95 553.00,156.95 553.33,151.61 553.67,151.61 554.00,151.61 554.34,156.95 554.67,156.95 555.01,156.95 555.34,156.95 555.68,151.61 556.01,146.27 556.35,146.27 556.68,146.27 557.02,140.93 557.35,140.93 557.69,140.93 558.02,140.93 558.36,146.27 558.69,146.27 559.03,140.93 559.36,135.59 559.70,135.59 560.03,135.59 560.37,140.93 560.70,140.93 561.04,140.93 561.37,140.93 561.71,140.93 562.04,135.59 562.38,135.59 562.71,135.59 563.05,135.59 563.38,135.59 563.72,135.59 564.05,135.59 564.39,135.59 564.72,140.93 565.06,140.93 565.39,135.59 565.73,135.59 566.06,135.59 566.40,135.59 566.73,135.59 567.07,135.59 567.40,140.93 567.74,140.93 568.07,140.93 568.41,140.93 568.74,140.93 569.08,135.59 569.41,135.59 569.75,135.59 570.08,135.59 570.42,135.59 570.75,135.59 571.09,135.59 571.42,135.59 571.76,130.25 572.09,124.91 572.43,119.57 572.76,119.57 573.10,119.57 573.43,119.57 573.77,119.57 574.10,119.57 574.44,119.57 574.77,114.23 575.11,108.89 575.44,103.55 575.78,108.89 576.11,108.89 576.45,108.89 576.78,108.89 577.12,108.89 577.45,108.89 577.79,108.89 578.12,103.55 578.46,103.55 578.79,108.89 579.13,108.89 579.46,108.89 579.80,108.89 580.13,114.23 580.47,114.23 580.80,114.23 581.14,114.23 581.47,108.89 581.81,108.89 582.14,108.89 582.48,108.89 582.81,108.89 583.15,108.89 583.48,108.89 583.82,108.89 584.15,108.89 584.49,108.89 584.82,108.89 585.16,108.89 585.49,98.22 585.83,92.88 586.16,98.22 586.50,92.88 586.83,92.88 587.17,82.20 587.50,76.86 587.84,76.86 588.17,82.20 588.51,82.20 588.84,87.54 589.18,87.54 589.51,82.20 589.85,82.20 590.18,82.20 590.52,82.20 590.85,82.20 591.19,82.20 591.52,82.20 591.86,82.20 592.19,82.20 592.53,87.54 592.86,92.88 593.20,92.88 593.53,98.22 593.87,98.22 594.20,98.22 594.54,98.22 594.87,98.22 595.21,108.89 595.54,114.23 595.88,114.23 596.21,114.23 596.55,114.23 596.88,114.23 597.22,114.23 597.55,119.57 597.89,124.91 598.22,124.91 598.56,124.91 598.89,103.55 599.23,103.55 599.56,98.22 599.90,98.22 600.23,103.55 600.57,103.55 600.90,103.55 601.24,103.55 601.57,98.22 601.91,98.22 602.24,98.22 602.58,98.22 602.91,92.88 603.25,92.88 603.58,98.22 603.92,98.22 604.25,92.88 604.59,92.88 604.92,92.88 605.26,98.22 605.59,98.22 605.93,98.22 606.26,98.22 606.60,92.88 606.93,98.22 607.27,92.88 607.60,92.88 607.94,92.88 608.27,87.54 608.61,82.20 608.94,87.54 609.28,82.20 609.61,82.20 609.95,92.88 610.28,92.88 610.62,92.88 610.95,98.22 611.29,98.22 611.62,98.22 611.96,98.22 612.29,98.22 612.63,98.22 612.96,98.22 613.30,98.22 613.63,92.88 613.97,92.88 614.30,92.88 614.64,92.88 614.97,87.54 615.31,87.54 615.64,87.54 615.98,87.54 616.31,87.54 616.65,87.54 616.98,87.54 617.32,87.54 617.65,87.54 617.99,87.54 618.32,87.54 618.66,87.54 618.99,87.54 619.33,87.54 619.66,87.54 620.00,87.54 620.33,87.54 620.67,82.20 621.00,82.20 621.34,82.20 621.67,82.20 622.01,82.20 622.34,82.20 622.68,82.20 623.01,82.20 623.35,92.88 623.68,92.88 624.02,92.88 624.35,92.88 624.69,92.88 625.02,98.22 625.36,98.22 625.69,92.88 626.03,92.88 626.36,92.88 626.70,92.88 627.03,92.88 627.37,92.88 627.70,98.22 628.04,92.88 628.37,92.88 628.71,92.88 629.04,92.88 629.38,92.88 629.71,92.88 630.05,92.88 630.38,87.54 630.72,87.54 631.05,87.54 631.39,87.54 631.72,87.54 632.06,87.54 632.39,87.54 632.73,82.20 633.06,82.20 633.40,82.20 633.73,82.20 634.07,82.20 634.40,76.86 634.74,82.20 635.07,76.86 635.41,76.86 635.74,82.20 636.08,82.20 636.41,82.20 636.75,82.20 637.08,82.20 637.42,82.20 637.75,87.54 638.09,87.54 638.42,87.54 638.76,87.54 639.09,87.54 639.43,87.54 639.76,87.54 640.10,87.54 640.43,87.54 640.77,92.88 641.10,92.88 641.44,92.88 641.77,92.88 642.11,92.88 642.44,92.88 642.78,92.88 643.11,92.88 643.45,92.88 643.78,98.22 644.12,98.22 644.45,98.22 644.79,98.22 645.12,98.22 645.46,98.22 645.79,98.22 646.13,98.22 646.46,98.22 646.80,98.22 647.13,98.22 647.47,98.22 647.80,103.55 648.14,108.89 648.47,108.89 648.81,108.89 649.14,108.89 649.48,108.89 649.81,108.89 650.15,114.23 650.48,114.23 650.82,114.23 651.15,114.23 651.49,119.57 651.82,119.57 652.16,119.57 652.49,124.91 652.83,130.25 653.16,130.25 653.50,135.59 653.83,135.59 654.17,135.59 654.50,135.59 654.84,135.59 655.17,135.59 655.51,135.59 655.84,135.59 656.18,135.59 656.51,130.25 656.85,130.25 657.18,130.25 657.52,130.25 657.85,130.25 658.19,124.91 658.52,124.91 658.86,124.91 659.19,119.57 659.53,119.57 659.86,119.57 660.20,119.57 660.53,114.23 660.87,114.23 661.20,114.23 661.54,114.23 661.87,108.89 662.21,108.89 662.54,108.89 662.88,108.89 663.21,108.89 663.55,108.89 663.88,108.89 664.22,108.89 664.55,108.89 664.89,108.89 665.22,108.89 665.56,103.55 665.89,103.55 666.23,103.55 666.56,103.55 666.90,103.55 667.23,98.22 667.57,98.22 667.90,98.22 668.24,98.22 668.57,98.22 668.91,98.22 669.24,98.22 669.58,108.89 669.91,103.55 670.25,103.55 670.58,108.89 670.92,108.89 671.25,114.23 671.59,114.23 671.92,114.23 672.26,114.23 672.59,114.23 672.93,114.23 673.26,114.23 673.60,108.89 673.93,103.55 674.27,108.89 674.60,108.89 674.94,108.89 675.27,108.89 675.61,114.23 675.94,114.23 676.28,114.23 676.61,114.23 676.95,119.57 677.28,119.57 677.62,114.23 677.95,108.89 678.29,108.89 678.62,103.55 678.96,98.22 679.29,92.88 679.63,87.54 679.96,87.54 680.30,87.54 680.63,87.54 680.97,87.54 681.30,87.54 681.64,87.54 681.97,87.54 682.31,87.54 682.64,87.54 682.98,87.54 683.31,87.54 683.65,87.54 683.98,87.54 684.32,87.54 684.65,87.54 684.99,87.54 685.32,87.54 685.66,87.54 685.99,87.54 686.33,87.54 686.66,87.54 687.00,82.20 687.33,82.20 687.67,82.20 688.00,82.20 688.34,82.20 688.67,82.20 689.01,82.20 689.34,82.20 689.68,82.20 690.01,82.20 690.35,82.20 690.68,82.20 691.02,82.20 691.35,82.20 691.69,82.20 692.02,82.20 692.36,82.20 692.69,82.20 693.03,82.20 693.36,87.54 693.70,87.54 694.03,87.54 694.37,87.54 694.70,87.54 695.04,87.54 695.37,87.54 695.71,87.54 696.04,92.88 696.38,92.88 696.71,92.88 697.05,103.55 697.38,103.55 697.72,103.55 698.05,108.89 698.39,108.89 698.72,114.23 699.06,114.23 699.39,114.23 699.73,114.23 700.06,114.23 700.40,114.23 700.73,114.23 701.07,114.23 701.40,114.23 701.74,114.23 702.07,114.23 702.41,114.23 702.74,119.57 703.08,119.57 703.41,114.23 703.75,119.57 704.08,119.57 704.42,114.23 704.75,114.23 705.09,114.23 705.42,103.55 705.76,103.55 706.09,103.55 706.43,103.55 706.76,108.89 707.10,108.89 707.43,108.89 707.77,108.89 708.10,114.23 708.44,114.23 708.77,114.23 709.11,108.89 709.44,108.89 709.78,108.89 710.11,103.55 710.45,103.55 710.78,103.55 711.12,103.55 711.45,103.55 711.79,103.55 712.12,103.55 712.46,103.55 712.79,103.55 713.13,103.55 713.46,103.55 713.80,103.55 714.13,108.89 714.47,108.89 714.80,108.89 715.14,108.89 715.47,108.89 715.81,108.89 716.14,108.89 716.48,114.23 716.81,114.23 717.15,114.23 717.48,114.23 717.82,114.23 718.15,114.23 718.49,114.23 718.82,119.57 719.16,124.91 719.49,124.91 719.83,124.91 720.16,124.91 720.50,124.91 720.83,124.91 721.17,124.91 721.50,124.91 721.84,124.91 722.17,130.25 722.51,130.25 722.84,135.59 723.18,135.59 723.51,135.59 723.85,135.59 724.18,135.59 724.52,135.59 724.85,135.59 725.19,130.25 725.52,135.59 725.86,135.59 726.19,135.59 726.53,135.59 726.86,135.59 727.20,135.59 727.53,135.59 727.87,135.59 728.20,135.59 728.54,135.59 728.87,130.25 729.21,130.25 729.54,130.25 729.88,130.25 730.21,130.25 730.55,134.52 730.88,134.52 731.22,134.52 731.55,134.52 731.89,134.52 732.22,134.52 732.56,134.52 732.89,139.86 733.23,139.86 733.56,139.86 733.90,139.86 734.23,139.86 734.57,139.86 734.90,139.86 735.24,139.86 735.57,139.86 735.91,134.52 736.24,129.18 736.58,129.18 736.91,129.18 737.25,129.18 737.58,129.18 737.92,129.18 738.25,129.18 738.59,129.18 738.92,129.18 739.26,123.85 739.59,123.85 739.93,123.85 740.26,123.85 740.60,123.85 740.93,123.85 741.27,123.85 741.60,123.85 741.94,118.51 742.27,118.51 742.61,123.85 742.94,123.85 743.28,123.85 743.61,123.85 743.95,123.85 744.28,123.85 744.62,113.17 744.95,113.17 745.29,113.17 745.62,113.17 745.96,107.83 746.29,107.83 746.63,107.83 746.96,113.17 747.30,113.17 747.63,113.17 747.97,113.17 748.30,118.51 748.64,118.51 748.97,118.51 749.31,123.85 749.64,123.85 749.98,123.85 750.31,123.85 750.65,123.85 750.98,123.85 751.32,129.18 751.65,129.18 751.99,129.18 752.32,129.18 752.66,129.18 752.99,129.18 753.33,129.18 753.66,134.52 754.00,134.52 754.33,134.52 754.67,134.52 755.00,134.52"/>
<line x1="783" y1="82" x2="809" y2="82" stroke="#dc2626" stroke-width="3"/>
<text x="817" y="86" font-family="Arial" font-size="13" fill="#111827">Avellaneda Stoikov</text>
<polyline fill="none" stroke="#7c3aed" stroke-width="2" points=""/>
<line x1="783" y1="106" x2="809" y2="106" stroke="#7c3aed" stroke-width="3"/>
<text x="817" y="110" font-family="Arial" font-size="13" fill="#111827">Calibrated Avellaneda Stoikov</text>
<text x="420.0" y="518" text-anchor="middle" font-family="Arial" font-size="14" fill="#111827">Event index</text>
<text x="22" y="256.0" text-anchor="middle" transform="rotate(-90 22 256.0)" font-family="Arial" font-size="14" fill="#111827">Inventory</text>
</svg>
