<svg xmlns="http://www.w3.org/2000/svg" width="940" height="540" viewBox="0 0 940 540">
<rect width="100%" height="100%" fill="#ffffff"/>
<text x="470.0" y="26" text-anchor="middle" font-family="Arial" font-size="18" fill="#111827">Low Volatility Cumulative PnL After Fees</text>
<line x1="85" y1="470" x2="755" y2="470" stroke="#111827" stroke-width="1"/>
<line x1="85" y1="42" x2="85" y2="470" stroke="#111827" stroke-width="1"/>
<line x1="85.00" y1="42" x2="85.00" y2="470" stroke="#e5e7eb" stroke-width="1"/>
<text x="85.00" y="494" text-anchor="middle" font-family="Arial" font-size="12" fill="#374151">0</text>
<line x1="252.50" y1="42" x2="252.50" y2="470" stroke="#e5e7eb" stroke-width="1"/>
<text x="252.50" y="494" text-anchor="middle" font-family="Arial" font-size="12" fill="#374151">50000</text>
<line x1="420.00" y1="42" x2="420.00" y2="470" stroke="#e5e7eb" stroke-width="1"/>
<text x="420.00" y="494" text-anchor="middle" font-family="Arial" font-size="12" fill="#374151">100000</text>
<line x1="587.50" y1="42" x2="587.50" y2="470" stroke="#e5e7eb" stroke-width="1"/>
<text x="587.50" y="494" text-anchor="middle" font-family="Arial" font-size="12" fill="#374151">149999</text>
<line x1="755.00" y1="42" x2="755.00" y2="470" stroke="#e5e7eb" stroke-width="1"/>
<text x="755.00" y="494" text-anchor="middle" font-family="Arial" font-size="12" fill="#374151">199999</text>
<line x1="85" y1="470.00" x2="755" y2="470.00" stroke="#e5e7eb" stroke-width="1"/>
<text x="73" y="474.00" text-anchor="end" font-family="Arial" font-size="12" fill="#374151">-12727</text>
<line x1="85" y1="363.00" x2="755" y2="363.00" stroke="#e5e7eb" stroke-width="1"/>
<text x="73" y="367.00" text-anchor="end" font-family="Arial" font-size="12" fill="#374151">32173</text>
<line x1="85" y1="256.00" x2="755" y2="256.00" stroke="#e5e7eb" stroke-width="1"/>
<text x="73" y="260.00" text-anchor="end" font-family="Arial" font-size="12" fill="#374151">77074</text>
<line x1="85" y1="149.00" x2="755" y2="149.00" stroke="#e5e7eb" stroke-width="1"/>
<text x="73" y="153.00" text-anchor="end" font-family="Arial" font-size="12" fill="#374151">121975</text>
<line x1="85" y1="42.00" x2="755" y2="42.00" stroke="#e5e7eb" stroke-width="1"/>
<text x="73" y="46.00" text-anchor="end" font-family="Arial" font-size="12" fill="#374151">166875</text>
<polyline fill="none" stroke="#2563eb" stroke-width="2" points="85.00,439.67 85.34,439.52 85.67,439.44 86.01,439.43 86.34,439.44 86.68,439.42 87.01,439.20 87.35,439.25 87.68,439.57 88.02,440.08 88.35,440.28 88.69,439.93 89.02,440.29 89.36,440.34 89.69,440.36 90.03,439.30 90.36,439.40 90.70,439.16 91.03,439.06 91.37,438.86 91.70,438.86 92.04,438.86 92.37,438.86 92.71,438.86 93.04,438.86 93.38,438.86 93.71,438.86 94.05,438.86 94.38,438.76 94.72,438.76 95.05,438.81 95.39,438.64 95.72,438.28 96.06,438.07 96.39,437.88 96.73,437.88 97.06,437.88 97.40,437.71 97.73,437.58 98.07,437.56 98.40,437.40 98.74,437.39 99.07,437.29 99.41,437.19 99.74,437.32 100.08,436.88 100.41,437.38 100.75,436.96 101.08,437.11 101.42,437.06 101.75,437.18 102.09,437.19 102.42,436.85 102.76,436.47 103.09,436.34 103.43,436.50 103.76,436.20 104.10,436.30 104.43,436.03 104.77,435.78 105.10,435.71 105.44,435.66 105.77,435.55 106.11,435.62 106.44,435.22 106.78,435.16 107.11,435.43 107.45,435.04 107.78,434.56 108.12,434.48 108.45,434.40 108.79,434.29 109.12,434.49 109.46,434.42 109.79,434.47 110.13,434.18 110.46,434.11 110.80,433.97 111.13,434.09 111.47,433.83 111.80,433.87 112.14,433.70 112.47,433.93 112.81,433.67 113.14,433.78 113.48,433.70 113.81,433.44 114.15,433.46 114.48,433.17 114.82,433.00 115.15,433.03 115.49,432.90 115.82,433.02 116.16,432.94 116.49,432.57 116.83,432.00 117.16,431.86 117.50,430.79 117.83,430.82 118.17,430.73 118.50,430.93 118.84,430.53 119.17,430.29 119.51,430.40 119.84,431.30 120.18,431.20 120.51,431.09 120.85,430.78 121.18,430.98 121.52,431.02 121.85,430.56 122.19,430.09 122.52,429.46 122.86,429.92 123.19,429.89 123.53,430.05 123.86,429.90 124.20,430.18 124.53,430.93 124.87,431.31 125.20,430.94 125.54,430.94 125.87,430.85 126.21,431.78 126.54,431.56 126.88,431.62 127.21,431.58 127.55,431.33 127.88,431.19 128.22,431.32 128.55,430.92 128.89,430.67 129.22,430.56 129.56,430.63 129.89,430.77 130.23,431.65 130.56,431.11 130.90,431.13 131.23,430.68 131.57,430.95 131.90,431.01 132.24,430.99 132.57,431.16 132.91,431.00 133.24,430.86 133.58,430.73 133.91,430.73 134.25,430.73 134.58,430.73 134.92,430.63 135.25,430.66 135.59,430.53 135.92,430.59 136.26,430.51 136.59,430.35 136.93,430.28 137.26,430.75 137.60,430.96 137.93,431.13 138.27,431.34 138.60,431.04 138.94,430.82 139.27,430.67 139.61,431.40 139.94,431.54 140.28,431.17 140.61,431.81 140.95,431.05 141.28,430.94 141.62,430.42 141.95,430.32 142.29,430.38 142.62,430.58 142.96,430.63 143.29,430.74 143.63,430.80 143.96,430.75 144.30,430.76 144.63,430.79 144.97,430.65 145.30,430.64 145.64,430.60 145.97,430.01 146.31,430.00 146.64,430.03 146.98,430.24 147.31,429.64 147.65,429.72 147.98,429.80 148.32,429.67 148.65,429.67 148.99,429.67 149.32,429.67 149.66,429.67 149.99,429.67 150.33,429.67 150.66,429.67 151.00,429.67 151.33,429.67 151.67,429.67 152.00,429.67 152.34,429.67 152.67,429.67 153.01,429.53 153.34,429.39 153.68,429.51 154.01,429.54 154.35,429.41 154.68,429.08 155.02,428.94 155.35,429.06 155.69,428.95 156.02,429.37 156.36,429.30 156.69,429.07 157.03,428.98 157.36,428.86 157.70,428.73 158.03,428.79 158.37,428.91 158.70,428.84 159.04,428.64 159.37,428.70 159.71,428.63 160.04,428.77 160.38,428.65 160.71,428.79 161.05,428.84 161.38,428.73 161.72,428.69 162.05,428.59 162.39,428.59 162.72,428.59 163.06,428.55 163.39,428.40 163.73,428.36 164.06,428.31 164.40,428.12 164.73,428.14 165.07,427.94 165.40,427.89 165.74,427.68 166.07,427.71 166.41,427.59 166.74,427.59 167.08,427.59 167.41,427.50 167.75,427.50 168.08,427.36 168.42,427.24 168.75,427.44 169.09,427.74 169.42,428.21 169.76,428.09 170.09,427.71 170.43,427.29 170.76,426.95 171.10,427.05 171.43,427.08 171.77,427.11 172.10,427.16 172.44,427.22 172.77,427.33 173.11,427.21 173.44,426.94 173.78,426.84 174.11,426.84 174.45,426.84 174.78,426.84 175.12,426.53 175.45,426.70 175.79,426.58 176.12,426.43 176.46,426.22 176.79,426.34 177.13,426.60 177.46,426.34 177.80,426.61 178.13,426.48 178.47,426.25 178.80,425.90 179.14,425.56 179.47,425.46 179.81,425.46 180.14,425.33 180.48,425.24 180.81,425.07 181.15,425.13 181.48,425.21 181.82,425.20 182.15,425.16 182.49,425.16 182.82,425.00 183.16,425.06 183.49,424.98 183.83,424.98 184.16,424.98 184.50,424.91 184.83,424.77 185.17,424.77 185.50,424.77 185.84,424.77 186.17,424.77 186.51,424.77 186.84,424.77 187.18,424.77 187.51,424.77 187.85,424.77 188.18,424.53 188.52,424.53 188.85,424.53 189.19,424.53 189.52,424.53 189.86,424.53 190.19,424.53 190.53,424.53 190.86,424.42 191.20,424.54 191.53,424.51 191.87,424.66 192.20,424.84 192.54,424.62 192.87,424.81 193.21,424.47 193.54,424.79 193.88,424.69 194.21,424.62 194.55,424.67 194.88,424.53 195.22,423.78 195.55,422.82 195.89,422.13 196.22,421.28 196.56,421.06 196.89,421.56 197.23,422.10 197.56,421.59 197.90,421.40 198.23,421.97 198.57,421.49 198.90,422.01 199.24,422.69 199.57,422.85 199.91,422.32 200.24,422.22 200.58,422.05 200.91,422.27 201.25,422.22 201.58,421.84 201.92,421.70 202.25,421.72 202.59,421.85 202.92,421.89 203.26,422.03 203.59,422.14 203.93,422.07 204.26,422.00 204.60,421.95 204.93,421.94 205.27,421.91 205.60,421.88 205.94,422.02 206.27,422.05 206.61,422.06 206.94,422.11 207.28,422.11 207.61,422.14 207.95,422.19 208.28,422.05 208.62,422.07 208.95,421.99 209.29,421.93 209.62,421.35 209.96,421.10 210.29,420.83 210.63,420.76 210.96,420.55 211.30,421.04 211.63,420.88 211.97,420.25 212.30,420.28 212.64,420.53 212.97,420.43 213.31,420.23 213.64,420.49 213.98,419.99 214.31,420.32 214.65,419.51 214.98,419.73 215.32,419.57 215.65,419.35 215.99,419.10 216.32,419.60 216.66,418.89 216.99,419.22 217.33,419.19 217.66,419.41 218.00,420.13 218.33,419.56 218.67,420.37 219.00,420.17 219.34,419.68 219.67,419.62 220.01,419.73 220.34,420.37 220.68,419.75 221.01,419.94 221.35,419.57 221.68,419.71 222.02,419.18 222.35,419.94 222.69,419.92 223.02,419.39 223.36,419.17 223.69,419.00 224.03,419.09 224.36,419.34 224.70,419.31 225.03,419.52 225.37,419.47 225.70,420.04 226.04,419.68 226.37,419.68 226.71,419.63 227.04,419.99 227.38,420.08 227.71,420.25 228.05,420.29 228.38,420.33 228.72,420.30 229.05,420.01 229.39,420.05 229.72,420.07 230.06,420.06 230.39,419.89 230.73,419.85 231.06,419.81 231.40,419.64 231.73,419.77 232.07,419.47 232.40,419.29 232.74,419.55 233.07,419.78 233.41,419.49 233.74,419.46 234.08,419.43 234.41,418.68 234.75,418.48 235.08,418.73 235.42,418.26 235.75,418.53 236.09,419.02 236.42,418.87 236.76,418.45 237.09,418.22 237.43,418.21 237.76,418.53 238.10,418.60 238.43,418.32 238.77,418.30 239.10,418.44 239.44,418.29 239.77,418.10 240.11,418.13 240.44,418.04 240.78,417.84 241.11,418.27 241.45,417.72 241.78,417.23 242.12,417.70 242.45,417.77 242.79,417.45 243.12,417.67 243.46,418.20 243.79,418.27 244.13,417.33 244.46,417.01 244.80,417.52 245.13,417.34 245.47,417.79 245.80,417.93 246.14,418.29 246.47,418.92 246.81,419.00 247.14,418.60 247.48,418.09 247.81,418.60 248.15,418.65 248.48,418.54 248.82,418.64 249.15,418.75 249.49,418.35 249.82,417.75 250.16,417.84 250.49,417.49 250.83,417.93 251.16,417.18 251.50,416.25 251.83,416.21 252.17,415.62 252.50,415.29 252.84,415.50 253.17,415.64 253.51,415.34 253.84,416.20 254.18,415.72 254.51,414.85 254.85,414.32 255.18,414.50 255.52,414.49 255.85,413.75 256.19,412.93 256.52,412.57 256.86,412.61 257.19,412.51 257.53,413.16 257.86,413.51 258.20,412.74 258.53,412.88 258.87,411.89 259.20,411.25 259.54,411.22 259.87,410.70 260.21,410.82 260.54,412.02 260.88,412.24 261.21,412.18 261.55,412.55 261.88,412.42 262.22,411.83 262.55,410.96 262.89,410.65 263.22,410.48 263.56,409.97 263.89,408.76 264.23,408.95 264.56,409.01 264.90,410.07 265.23,409.04 265.57,408.95 265.90,408.74 266.24,409.28 266.57,411.10 266.91,410.55 267.24,411.99 267.58,411.42 267.91,410.48 268.25,409.42 268.58,410.20 268.92,411.43 269.25,410.94 269.59,411.43 269.92,411.47 270.26,413.13 270.59,413.16 270.93,412.20 271.26,411.26 271.60,411.11 271.93,411.58 272.27,410.91 272.60,410.69 272.94,410.07 273.27,410.08 273.61,410.37 273.94,411.75 274.28,413.40 274.61,413.97 274.95,413.23 275.28,413.17 275.62,412.52 275.95,412.91 276.29,412.11 276.62,412.19 276.96,412.36 277.29,412.50 277.63,412.27 277.96,411.74 278.30,412.04 278.63,412.87 278.97,412.47 279.30,414.43 279.64,414.29 279.97,414.32 280.31,414.53 280.64,414.22 280.98,414.15 281.31,413.79 281.65,413.01 281.98,413.28 282.32,413.79 282.65,413.83 282.99,413.91 283.32,413.86 283.66,413.40 283.99,413.10 284.33,413.99 284.66,413.96 285.00,414.39 285.33,414.83 285.67,414.63 286.00,414.25 286.34,414.43 286.67,414.19 287.01,414.36 287.34,414.68 287.68,414.97 288.01,415.25 288.35,415.45 288.68,415.62 289.02,415.30 289.35,415.03 289.69,415.22 290.02,415.14 290.36,414.96 290.69,414.95 291.03,415.16 291.36,415.47 291.70,415.70 292.03,415.85 292.37,415.61 292.70,415.22 293.04,415.12 293.37,414.98 293.71,414.85 294.04,415.05 294.38,414.86 294.71,414.81 295.05,414.24 295.38,414.44 295.72,414.38 296.05,414.30 296.39,414.41 296.72,414.62 297.06,414.81 297.39,414.64 297.73,414.62 298.06,414.57 298.40,414.62 298.73,414.59 299.07,414.55 299.40,414.55 299.74,414.32 300.07,413.95 300.41,414.23 300.74,414.20 301.08,414.22 301.41,414.13 301.75,414.10 302.08,414.03 302.42,413.76 302.75,414.00 303.09,413.91 303.42,413.77 303.76,413.72 304.09,413.55 304.43,413.69 304.76,413.70 305.10,413.90 305.43,413.96 305.77,414.20 306.10,414.12 306.44,414.24 306.77,413.86 307.11,414.33 307.44,414.93 307.78,415.65 308.11,415.44 308.45,415.78 308.78,415.01 309.12,413.95 309.45,412.92 309.79,413.06 310.12,413.49 310.46,414.18 310.79,415.47 311.13,415.24 311.46,415.04 311.80,415.17 312.13,415.27 312.47,415.02 312.80,415.26 313.14,413.82 313.47,413.92 313.81,414.30 314.14,414.89 314.48,414.92 314.81,414.55 315.15,414.75 315.48,414.82 315.82,414.35 316.15,413.75 316.49,413.61 316.82,412.62 317.16,413.51 317.49,414.50 317.83,414.85 318.16,415.47 318.50,415.42 318.83,416.14 319.17,413.50 319.50,414.16 319.84,412.54 320.17,411.61 320.51,410.83 320.84,410.59 321.18,408.72 321.51,407.59 321.85,407.45 322.18,407.87 322.52,407.54 322.85,407.25 323.19,405.07 323.52,404.67 323.86,403.90 324.19,404.03 324.53,402.47 324.86,402.52 325.20,402.09 325.53,400.81 325.87,398.67 326.20,398.96 326.54,397.88 326.87,397.75 327.21,398.62 327.54,399.05 327.88,399.14 328.21,400.21 328.55,400.37 328.88,399.99 329.22,400.36 329.55,401.40 329.89,401.52 330.22,403.05 330.56,400.94 330.89,401.39 331.23,400.34 331.56,401.80 331.90,400.18 332.23,400.01 332.57,399.15 332.90,398.57 333.24,398.12 333.57,399.32 333.91,399.32 334.24,400.19 334.58,399.61 334.91,399.25 335.25,398.00 335.58,396.88 335.92,395.79 336.25,394.99 336.59,393.38 336.92,394.04 337.26,393.41 337.59,390.78 337.93,390.30 338.26,389.17 338.60,390.06 338.93,386.95 339.27,387.35 339.60,389.82 339.94,388.58 340.27,387.41 340.61,386.23 340.94,387.12 341.28,386.78 341.61,386.09 341.95,383.99 342.28,384.03 342.62,382.24 342.95,380.49 343.29,382.58 343.62,383.97 343.96,382.99 344.29,380.17 344.63,378.70 344.96,376.29 345.30,378.27 345.63,377.86 345.97,380.20 346.30,379.92 346.64,380.05 346.97,382.22 347.31,381.09 347.64,381.68 347.98,383.09 348.31,382.11 348.65,384.49 348.98,383.53 349.32,383.18 349.65,383.91 349.99,381.50 350.32,382.28 350.66,382.71 350.99,384.53 351.33,385.89 351.66,385.55 352.00,385.87 352.33,386.45 352.67,384.28 353.00,384.01 353.34,380.15 353.67,381.13 354.01,378.78 354.34,378.77 354.68,379.30 355.01,379.03 355.35,379.51 355.68,381.16 356.02,384.72 356.35,385.60 356.69,386.65 357.02,386.87 357.36,387.50 357.69,387.31 358.03,385.40 358.36,383.64 358.70,382.29 359.03,380.94 359.37,379.10 359.70,378.03 360.04,379.27 360.37,378.09 360.71,376.09 361.04,377.25 361.38,375.92 361.71,375.08 362.05,372.74 362.38,372.77 362.72,375.11 363.05,374.62 363.39,373.89 363.72,372.20 364.06,372.00 364.39,371.33 364.73,372.60 365.06,371.59 365.40,370.54 365.73,370.03 366.07,368.12 366.40,371.02 366.74,372.58 367.07,371.98 367.41,370.70 367.74,368.85 368.08,366.25 368.41,362.64 368.75,361.74 369.08,364.00 369.42,361.37 369.75,363.07 370.09,362.22 370.42,363.05 370.76,361.46 371.09,360.34 371.43,355.88 371.76,356.56 372.10,356.23 372.43,355.33 372.77,352.36 373.10,350.92 373.44,352.93 373.77,354.20 374.11,352.67 374.44,353.82 374.78,354.99 375.11,353.76 375.45,354.44 375.78,357.58 376.12,357.36 376.45,358.15 376.79,359.07 377.12,360.20 377.46,363.79 377.79,361.12 378.13,360.08 378.46,359.79 378.80,361.67 379.13,359.95 379.47,356.67 379.80,352.99 380.14,351.75 380.47,352.09 380.81,354.19 381.14,354.82 381.48,356.33 381.81,359.47 382.15,353.62 382.48,353.33 382.82,349.11 383.15,354.64 383.49,353.75 383.82,352.14 384.16,352.66 384.49,354.32 384.83,356.70 385.16,360.09 385.50,360.14 385.83,358.93 386.17,360.17 386.50,361.50 386.84,361.11 387.17,359.56 387.51,357.13 387.84,357.21 388.18,355.92 388.51,352.37 388.85,349.28 389.18,351.06 389.52,347.54 389.85,344.86 390.19,345.25 390.52,345.67 390.86,343.12 391.19,338.57 391.53,339.98 391.86,337.80 392.20,335.38 392.53,336.38 392.87,337.76 393.20,334.48 393.54,335.12 393.87,333.02 394.21,336.75 394.54,340.75 394.88,338.82 395.21,336.91 395.55,332.92 395.88,332.77 396.22,334.04 396.55,340.63 396.89,340.05 397.22,335.26 397.56,337.97 397.89,340.67 398.23,339.62 398.56,341.07 398.90,342.54 399.23,344.10 399.57,342.93 399.90,342.86 400.24,340.82 400.57,343.46 400.91,339.48 401.24,340.19 401.58,340.71 401.91,336.08 402.25,327.98 402.58,324.22 402.92,324.95 403.25,321.86 403.59,319.28 403.92,321.90 404.26,327.00 404.59,325.07 404.93,321.48 405.26,322.17 405.60,318.52 405.93,314.58 406.27,309.87 406.60,311.59 406.94,309.88 407.27,309.55 407.61,303.08 407.94,301.44 408.28,303.53 408.61,302.18 408.95,298.46 409.28,295.85 409.62,297.28 409.95,296.43 410.29,296.99 410.62,294.51 410.96,293.13 411.29,296.70 411.63,294.27 411.96,290.68 412.30,292.20 412.63,291.68 412.97,287.21 413.30,284.62 413.64,287.04 413.97,288.31 414.31,291.65 414.64,294.97 414.98,286.25 415.31,289.70 415.65,291.82 415.98,296.05 416.32,303.29 416.65,300.00 416.99,303.22 417.32,303.83 417.66,302.62 417.99,306.02 418.33,312.11 418.66,310.30 419.00,311.34 419.33,311.89 419.67,313.49 420.00,318.00 420.34,317.28 420.67,317.50 421.01,320.06 421.34,322.83 421.68,323.14 422.01,319.63 422.35,322.35 422.68,319.30 423.02,314.73 423.35,311.64 423.69,314.27 424.02,315.43 424.36,318.74 424.69,315.30 425.03,314.43 425.36,312.15 425.70,311.72 426.03,310.60 426.37,314.20 426.70,317.65 427.04,316.26 427.37,317.38 427.71,309.58 428.04,310.96 428.38,308.14 428.71,308.93 429.05,306.57 429.38,305.02 429.72,300.91 430.05,304.14 430.39,302.94 430.72,297.67 431.06,303.04 431.39,307.04 431.73,298.55 432.06,293.75 432.40,289.37 432.73,284.96 433.07,281.04 433.40,286.47 433.74,286.86 434.07,292.30 434.41,295.34 434.74,290.41 435.08,293.97 435.41,294.01 435.75,298.46 436.08,290.57 436.42,288.27 436.75,292.20 437.09,293.63 437.42,294.55 437.76,288.83 438.09,286.65 438.43,286.73 438.76,290.50 439.10,293.85 439.43,295.70 439.77,298.54 440.10,298.40 440.44,299.41 440.77,296.28 441.11,293.50 441.44,292.50 441.78,295.40 442.11,298.11 442.45,301.39 442.78,309.84 443.12,311.01 443.45,315.49 443.79,319.35 444.12,312.88 444.46,321.79 444.79,327.06 445.13,325.99 445.46,324.95 445.80,327.95 446.13,328.29 446.47,332.34 446.80,325.03 447.14,330.66 447.47,333.52 447.81,336.57 448.14,330.46 448.48,326.15 448.81,321.12 449.15,321.20 449.48,315.48 449.82,317.12 450.15,314.41 450.49,316.60 450.82,312.14 451.16,311.83 451.49,314.64 451.83,315.58 452.16,317.55 452.50,320.34 452.83,319.84 453.17,320.96 453.50,316.26 453.84,320.23 454.17,321.22 454.51,324.43 454.84,325.66 455.18,325.87 455.51,323.98 455.85,319.84 456.18,310.67 456.52,307.62 456.85,313.81 457.19,310.51 457.52,311.52 457.86,311.84 458.19,319.63 458.53,318.51 458.86,326.43 459.20,330.05 459.53,324.34 459.87,320.74 460.20,320.59 460.54,323.48 460.87,322.54 461.21,323.27 461.54,323.20 461.88,327.12 462.21,323.85 462.55,319.12 462.88,310.41 463.22,315.49 463.55,311.00 463.89,306.43 464.22,306.50 464.56,305.72 464.89,304.78 465.23,298.93 465.56,289.03 465.90,287.41 466.23,286.85 466.57,291.07 466.90,287.02 467.24,286.65 467.57,286.94 467.91,289.87 468.24,291.23 468.58,293.67 468.91,290.47 469.25,289.97 469.58,281.76 469.92,280.87 470.25,278.88 470.59,276.46 470.92,279.19 471.26,282.56 471.59,277.27 471.93,280.30 472.26,274.50 472.60,271.70 472.93,272.63 473.27,277.56 473.60,275.12 473.94,274.87 474.27,273.04 474.61,269.82 474.94,271.33 475.28,265.38 475.61,267.44 475.95,269.56 476.28,267.36 476.62,268.65 476.95,266.93 477.29,264.49 477.62,262.25 477.96,265.10 478.29,270.14 478.63,273.40 478.96,268.68 479.30,264.96 479.63,262.29 479.97,259.32 480.30,257.65 480.64,251.79 480.97,251.04 481.31,249.13 481.64,246.21 481.98,249.56 482.31,251.89 482.65,252.56 482.98,257.12 483.32,257.09 483.65,264.60 483.99,262.66 484.32,271.60 484.66,266.52 484.99,269.10 485.33,263.86 485.66,271.65 486.00,270.61 486.33,263.42 486.67,261.24 487.00,262.49 487.34,264.59 487.67,259.70 488.01,260.24 488.34,259.94 488.68,261.97 489.01,260.15 489.35,254.94 489.68,255.37 490.02,254.30 490.35,253.35 490.69,262.66 491.02,268.76 491.36,266.57 491.69,262.85 492.03,264.37 492.36,265.87 492.70,265.98 493.03,266.29 493.37,259.80 493.70,253.96 494.04,258.33 494.37,254.77 494.71,257.80 495.04,259.12 495.38,251.16 495.71,248.44 496.05,249.42 496.38,243.69 496.72,242.85 497.05,244.63 497.39,240.01 497.72,243.68 498.06,243.85 498.39,240.49 498.73,234.84 499.06,232.41 499.40,228.99 499.73,233.63 500.07,235.39 500.40,236.25 500.74,234.78 501.07,234.16 501.41,235.63 501.74,236.27 502.08,238.19 502.41,235.48 502.75,234.96 503.08,233.17 503.42,233.66 503.75,235.90 504.09,233.61 504.42,234.24 504.76,237.24 505.09,244.23 505.43,238.14 505.76,235.41 506.10,234.88 506.43,225.99 506.77,226.90 507.10,220.64 507.44,227.04 507.77,227.31 508.11,225.52 508.44,224.22 508.78,218.52 509.11,220.00 509.45,218.18 509.78,214.13 510.12,215.31 510.45,213.22 510.79,206.48 511.12,206.54 511.46,203.98 511.79,205.01 512.13,209.00 512.46,211.27 512.80,209.66 513.13,203.52 513.47,202.34 513.80,198.80 514.14,199.84 514.47,200.09 514.81,200.35 515.14,206.73 515.48,204.51 515.81,209.26 516.15,210.93 516.48,209.76 516.82,210.59 517.15,210.75 517.49,205.81 517.82,208.43 518.16,204.28 518.49,205.26 518.83,205.13 519.16,203.89 519.50,202.69 519.83,205.19 520.17,209.24 520.50,204.84 520.84,207.06 521.17,203.83 521.51,203.33 521.84,197.65 522.18,202.10 522.51,205.09 522.85,202.80 523.18,196.85 523.52,194.51 523.85,194.60 524.19,193.20 524.52,185.46 524.86,185.99 525.19,185.64 525.53,190.17 525.86,182.88 526.20,178.32 526.53,175.43 526.87,178.71 527.20,179.27 527.54,175.30 527.87,180.55 528.21,182.72 528.54,185.15 528.88,180.94 529.21,178.93 529.55,174.98 529.88,181.56 530.22,177.08 530.55,183.57 530.89,184.99 531.22,180.44 531.56,186.72 531.89,188.59 532.23,191.48 532.56,191.28 532.90,187.02 533.23,187.32 533.57,186.10 533.90,184.45 534.24,182.99 534.57,184.16 534.91,186.26 535.24,188.23 535.58,189.76 535.91,182.63 536.25,187.58 536.58,190.39 536.92,191.56 537.25,199.82 537.59,199.92 537.92,198.31 538.26,204.25 538.59,198.15 538.93,197.56 539.26,198.43 539.60,195.07 539.93,191.05 540.27,189.87 540.60,187.75 540.94,187.68 541.27,185.68 541.61,181.25 541.94,181.77 542.28,179.12 542.61,180.42 542.95,178.23 543.28,182.70 543.62,180.78 543.95,173.60 544.29,165.90 544.62,167.42 544.96,166.48 545.29,162.75 545.63,164.56 545.96,157.21 546.30,158.80 546.63,155.60 546.97,154.95 547.30,151.62 547.64,147.55 547.97,140.33 548.31,138.49 548.64,139.44 548.98,134.92 549.31,132.70 549.65,130.14 549.98,133.48 550.32,136.42 550.65,133.82 550.99,133.08 551.32,132.47 551.66,134.67 551.99,131.65 552.33,128.54 552.66,122.64 553.00,119.92 553.33,112.65 553.67,111.69 554.00,119.10 554.34,117.19 554.67,109.50 555.01,110.66 555.34,106.77 555.68,105.22 556.01,102.49 556.35,103.35 556.68,101.32 557.02,99.87 557.35,91.75 557.69,100.21 558.02,93.72 558.36,99.54 558.69,92.91 559.03,93.64 559.36,91.40 559.70,93.34 560.03,99.09 560.37,97.93 560.70,97.61 561.04,98.97 561.37,94.64 561.71,97.28 562.04,101.13 562.38,105.70 562.71,106.40 563.05,99.25 563.38,108.99 563.72,105.22 564.05,104.31 564.39,102.71 564.72,102.19 565.06,97.64 565.39,97.33 565.73,102.82 566.06,102.93 566.40,109.23 566.73,114.39 567.07,109.86 567.40,108.22 567.74,97.69 568.07,87.95 568.41,88.61 568.74,89.98 569.08,88.39 569.41,97.67 569.75,100.98 570.08,103.95 570.42,103.63 570.75,105.09 571.09,106.60 571.42,108.97 571.76,112.72 572.09,111.70 572.43,106.95 572.76,105.06 573.10,102.07 573.43,108.20 573.77,115.48 574.10,113.31 574.44,107.91 574.77,101.76 575.11,105.44 575.44,103.68 575.78,106.32 576.11,108.71 576.45,110.24 576.78,107.90 577.12,112.67 577.45,119.03 577.79,117.22 578.12,121.18 578.46,120.63 578.79,122.33 579.13,114.32 579.46,112.16 579.80,104.11 580.13,103.52 580.47,104.40 580.80,94.82 581.14,88.24 581.47,82.38 581.81,78.06 582.14,79.10 582.48,84.45 582.81,83.88 583.15,87.00 583.48,82.84 583.82,79.01 584.15,81.02 584.49,92.48 584.82,94.75 585.16,87.91 585.49,96.34 585.83,92.28 586.16,101.66 586.50,99.75 586.83,102.46 587.17,105.34 587.50,98.51 587.84,101.28 588.17,100.59 588.51,104.83 588.84,100.80 589.18,90.87 589.51,85.46 589.85,91.17 590.18,97.37 590.52,94.79 590.85,101.27 591.19,90.65 591.52,93.56 591.86,91.16 592.19,92.54 592.53,86.41 592.86,92.96 593.20,94.26 593.53,93.23 593.87,94.08 594.20,97.67 594.54,111.83 594.87,114.91 595.21,113.64 595.54,114.25 595.88,115.76 596.21,121.57 596.55,121.12 596.88,129.02 597.22,131.17 597.55,139.05 597.89,138.23 598.22,134.52 598.56,131.87 598.89,124.54 599.23,121.48 599.56,123.95 599.90,125.25 600.23,127.55 600.57,135.17 600.90,139.34 601.24,130.23 601.57,132.29 601.91,137.57 602.24,134.35 602.58,142.87 602.91,133.97 603.25,139.87 603.58,134.38 603.92,133.56 604.25,128.43 604.59,125.85 604.92,128.41 605.26,130.46 605.59,136.40 605.93,134.66 606.26,129.49 606.60,123.87 606.93,129.11 607.27,128.82 607.60,130.97 607.94,128.88 608.27,134.35 608.61,130.28 608.94,123.41 609.28,132.10 609.61,135.93 609.95,131.14 610.28,124.98 610.62,134.32 610.95,137.57 611.29,142.67 611.62,139.40 611.96,131.88 612.29,142.43 612.63,136.51 612.96,132.14 613.30,134.67 613.63,130.32 613.97,121.60 614.30,123.78 614.64,120.85 614.97,119.13 615.31,123.82 615.64,125.70 615.98,115.34 616.31,114.13 616.65,115.48 616.98,121.44 617.32,122.71 617.65,125.43 617.99,129.61 618.32,125.23 618.66,128.17 618.99,124.79 619.33,115.89 619.66,121.84 620.00,111.40 620.33,99.85 620.67,103.53 621.00,104.49 621.34,98.34 621.67,105.19 622.01,101.00 622.34,103.47 622.68,98.34 623.01,111.54 623.35,115.11 623.68,115.43 624.02,111.65 624.35,113.15 624.69,111.55 625.02,107.35 625.36,106.75 625.69,99.57 626.03,105.02 626.36,108.23 626.70,91.06 627.03,90.15 627.37,98.01 627.70,101.76 628.04,91.15 628.37,95.18 628.71,92.52 629.04,86.74 629.38,92.09 629.71,83.24 630.05,77.23 630.38,82.32 630.72,86.99 631.05,76.08 631.39,82.65 631.72,86.90 632.06,85.37 632.39,87.14 632.73,86.32 633.06,85.73 633.40,74.87 633.73,85.19 634.07,83.87 634.40,88.54 634.74,89.19 635.07,87.89 635.41,89.45 635.74,102.22 636.08,100.60 636.41,100.90 636.75,112.80 637.08,119.90 637.42,115.02 637.75,119.20 638.09,115.38 638.42,116.04 638.76,120.58 639.09,130.94 639.43,134.79 639.76,137.52 640.10,132.45 640.43,134.06 640.77,135.85 641.10,146.12 641.44,146.73 641.77,153.58 642.11,144.87 642.44,152.42 642.78,152.02 643.11,151.00 643.45,147.16 643.78,149.41 644.12,144.11 644.45,148.70 644.79,148.32 645.12,146.46 645.46,151.20 645.79,154.54 646.13,155.76 646.46,157.03 646.80,163.33 647.13,161.34 647.47,166.23 647.80,168.25 648.14,171.48 648.47,170.82 648.81,165.53 649.14,170.81 649.48,171.73 649.81,175.44 650.15,161.01 650.48,167.31 650.82,159.43 651.15,167.41 651.49,172.45 651.82,170.72 652.16,166.82 652.49,167.68 652.83,166.61 653.16,165.11 653.50,167.42 653.83,166.30 654.17,163.42 654.50,155.13 654.84,156.57 655.17,158.80 655.51,162.50 655.84,151.23 656.18,152.12 656.51,155.25 656.85,152.35 657.18,147.46 657.52,154.06 657.85,157.61 658.19,152.29 658.52,152.67 658.86,148.89 659.19,142.96 659.53,144.21 659.86,137.35 660.20,132.61 660.53,128.43 660.87,128.28 661.20,126.67 661.54,120.44 661.87,120.69 662.21,118.97 662.54,117.78 662.88,116.68 663.21,118.46 663.55,108.51 663.88,117.36 664.22,106.94 664.55,88.44 664.89,97.24 665.22,98.51 665.56,93.26 665.89,91.36 666.23,92.31 666.56,89.58 666.90,84.73 667.23,80.23 667.57,83.41 667.90,90.33 668.24,90.25 668.57,85.62 668.91,90.64 669.24,90.71 669.58,89.00 669.91,87.09 670.25,92.57 670.58,103.20 670.92,101.43 671.25,96.36 671.59,90.72 671.92,91.98 672.26,84.84 672.59,83.46 672.93,81.98 673.26,88.71 673.60,85.63 673.93,84.07 674.27,87.16 674.60,89.07 674.94,91.78 675.27,87.84 675.61,85.00 675.94,84.57 676.28,82.76 676.61,86.10 676.95,86.28 677.28,88.96 677.62,88.17 677.95,79.66 678.29,81.66 678.62,78.51 678.96,71.52 679.29,72.46 679.63,72.87 679.96,79.51 680.30,85.72 680.63,85.91 680.97,81.60 681.30,88.38 681.64,91.56 681.97,92.05 682.31,91.35 682.64,104.08 682.98,102.79 683.31,105.49 683.65,100.32 683.98,90.40 684.32,97.97 684.65,92.30 684.99,93.98 685.32,97.51 685.66,87.05 685.99,82.10 686.33,78.89 686.66,79.67 687.00,75.34 687.33,77.22 687.67,77.66 688.00,72.91 688.34,76.86 688.67,82.69 689.01,91.18 689.34,100.99 689.68,104.12 690.01,100.11 690.35,94.23 690.68,94.14 691.02,93.76 691.35,90.53 691.69,80.10 692.02,79.57 692.36,85.30 692.69,84.23 693.03,83.79 693.36,85.59 693.70,94.50 694.03,93.00 694.37,101.65 694.70,98.39 695.04,94.33 695.37,104.11 695.71,113.36 696.04,105.94 696.38,103.20 696.71,106.70 697.05,107.86 697.38,114.18 697.72,112.62 698.05,120.79 698.39,118.41 698.72,117.99 699.06,117.56 699.39,116.90 699.73,116.93 700.06,122.27 700.40,118.24 700.73,130.23 701.07,127.76 701.40,130.05 701.74,134.74 702.07,133.98 702.41,138.56 702.74,127.61 703.08,126.65 703.41,124.77 703.75,126.11 704.08,123.86 704.42,119.35 704.75,120.53 705.09,120.54 705.42,113.65 705.76,101.76 706.09,99.93 706.43,105.25 706.76,109.32 707.10,105.81 707.43,108.33 707.77,103.03 708.10,102.68 708.44,105.82 708.77,103.51 709.11,101.81 709.44,100.67 709.78,102.53 710.11,104.24 710.45,99.35 710.78,85.17 711.12,79.84 711.45,79.55 711.79,86.06 712.12,83.34 712.46,88.03 712.79,94.55 713.13,87.17 713.46,98.59 713.80,99.50 714.13,103.24 714.47,107.03 714.80,103.86 715.14,103.90 715.47,104.39 715.81,106.71 716.14,104.59 716.48,112.89 716.81,115.20 717.15,116.05 717.48,118.05 717.82,127.81 718.15,126.00 718.49,137.43 718.82,139.31 719.16,138.78 719.49,149.47 719.83,155.29 720.16,160.08 720.50,162.70 720.83,156.28 721.17,146.98 721.50,148.74 721.84,150.06 722.17,152.65 722.51,151.65 722.84,151.30 723.18,151.45 723.51,149.70 723.85,148.33 724.18,152.33 724.52,156.66 724.85,156.50 725.19,161.64 725.52,163.36 725.86,168.28 726.19,166.74 726.53,170.08 726.86,169.50 727.20,177.66 727.53,175.85 727.87,176.36 728.20,178.12 728.54,173.76 728.87,175.90 729.21,170.14 729.54,169.37 729.88,168.06 730.21,169.53 730.55,179.17 730.88,178.69 731.22,178.88 731.55,177.22 731.89,182.50 732.22,185.20 732.56,181.85 732.89,192.40 733.23,197.04 733.56,205.07 733.90,206.52 734.23,208.94 734.57,209.30 734.90,200.49 735.24,193.15 735.57,189.42 735.91,189.87 736.24,189.39 736.58,185.53 736.91,172.89 737.25,168.80 737.58,165.96 737.92,171.31 738.25,171.84 738.59,169.26 738.92,171.24 739.26,180.73 739.59,176.90 739.93,167.56 740.26,169.36 740.60,169.62 740.93,159.94 741.27,153.64 741.60,154.93 741.94,155.88 742.27,154.72 742.61,169.52 742.94,166.10 743.28,169.30 743.61,165.26 743.95,169.66 744.28,157.49 744.62,157.89 744.95,160.13 745.29,163.21 745.62,163.26 745.96,163.84 746.29,162.18 746.63,171.77 746.96,166.62 747.30,167.80 747.63,164.42 747.97,166.72 748.30,165.21 748.64,158.83 748.97,160.66 749.31,156.41 749.64,161.68 749.98,162.70 750.31,155.70 750.65,155.22 750.98,161.67 751.32,167.68 751.65,164.56 751.99,161.38 752.32,160.29 752.66,165.85 752.99,167.65 753.33,167.15 753.66,162.69 754.00,162.11 754.33,160.87 754.67,155.76 755.00,146.45"/>
<line x1="783" y1="58" x2="809" y2="58" stroke="#2563eb" stroke-width="3"/>
<text x="817" y="62" font-family="Arial" font-size="13" fill="#111827">Naive</text>
<polyline fill="none" stroke="#dc2626" stroke-width="2" points="85.00,439.67 85.34,439.54 85.67,439.46 86.01,439.48 86.34,439.48 86.68,439.47 87.01,439.25 87.35,439.32 87.68,439.64 88.02,440.15 88.35,440.35 88.69,440.03 89.02,440.38 89.36,440.46 89.69,440.48 90.03,439.41 90.36,439.52 90.70,439.30 91.03,439.21 91.37,439.02 91.70,439.02 92.04,439.02 92.37,439.02 92.71,439.02 93.04,439.02 93.38,439.02 93.71,439.02 94.05,439.02 94.38,438.93 94.72,438.93 95.05,438.98 95.39,438.83 95.72,438.47 96.06,438.26 96.39,438.07 96.73,438.07 97.06,438.07 97.40,437.90 97.73,437.77 98.07,437.75 98.40,437.59 98.74,437.58 99.07,437.51 99.41,437.41 99.74,437.53 100.08,437.10 100.41,437.60 100.75,437.18 101.08,437.32 101.42,437.27 101.75,437.39 102.09,437.41 102.42,437.07 102.76,436.73 103.09,436.62 103.43,436.79 103.76,436.49 104.10,436.58 104.43,436.32 104.77,436.06 105.10,436.00 105.44,435.94 105.77,435.83 106.11,435.90 106.44,435.53 106.78,435.47 107.11,435.74 107.45,435.35 107.78,434.87 108.12,434.79 108.45,434.71 108.79,434.60 109.12,434.82 109.46,434.76 109.79,434.83 110.13,434.54 110.46,434.52 110.80,434.38 111.13,434.49 111.47,434.26 111.80,434.30 112.14,434.13 112.47,434.36 112.81,434.09 113.14,434.21 113.48,434.13 113.81,433.87 114.15,433.89 114.48,433.60 114.82,433.42 115.15,433.46 115.49,433.33 115.82,433.48 116.16,433.40 116.49,433.02 116.83,432.48 117.16,432.22 117.50,431.36 117.83,431.39 118.17,431.31 118.50,431.47 118.84,431.15 119.17,430.93 119.51,430.92 119.84,431.82 120.18,431.72 120.51,431.58 120.85,431.20 121.18,431.48 121.52,431.60 121.85,431.04 122.19,430.55 122.52,429.81 122.86,430.35 123.19,430.31 123.53,430.49 123.86,430.32 124.20,430.65 124.53,431.53 124.87,431.98 125.20,431.61 125.54,431.63 125.87,431.52 126.21,432.63 126.54,432.38 126.88,432.47 127.21,432.45 127.55,432.14 127.88,432.04 128.22,432.20 128.55,431.74 128.89,431.45 129.22,431.32 129.56,431.41 129.89,431.62 130.23,432.75 130.56,432.11 130.90,432.14 131.23,431.54 131.57,431.90 131.90,431.99 132.24,432.10 132.57,432.32 132.91,432.28 133.24,432.00 133.58,431.86 133.91,431.95 134.25,432.01 134.58,431.91 134.92,431.75 135.25,431.75 135.59,431.75 135.92,431.75 136.26,431.54 136.59,431.44 136.93,431.33 137.26,431.57 137.60,431.68 137.93,431.76 138.27,431.86 138.60,431.71 138.94,431.54 139.27,431.40 139.61,431.95 139.94,432.06 140.28,431.77 140.61,432.28 140.95,431.65 141.28,431.55 141.62,431.13 141.95,431.03 142.29,431.04 142.62,431.08 142.96,431.08 143.29,431.08 143.63,431.08 143.96,431.08 144.30,431.08 144.63,431.08 144.97,431.08 145.30,431.08 145.64,431.03 145.97,430.64 146.31,430.63 146.64,430.66 146.98,430.79 147.31,430.38 147.65,430.38 147.98,430.38 148.32,430.15 148.65,430.10 148.99,429.99 149.32,429.81 149.66,429.89 149.99,429.90 150.33,429.97 150.66,429.98 151.00,430.05 151.33,429.93 151.67,429.89 152.00,429.93 152.34,429.95 152.67,430.04 153.01,429.95 153.34,429.95 153.68,429.95 154.01,429.95 154.35,429.82 154.68,429.59 155.02,429.50 155.35,429.55 155.69,429.50 156.02,429.71 156.36,429.67 156.69,429.45 157.03,429.38 157.36,429.38 157.70,429.24 158.03,429.28 158.37,429.33 158.70,429.30 159.04,429.20 159.37,429.23 159.71,429.19 160.04,429.27 160.38,429.16 160.71,429.16 161.05,429.16 161.38,429.16 161.72,429.16 162.05,429.02 162.39,429.07 162.72,429.07 163.06,428.97 163.39,428.78 163.73,428.68 164.06,428.68 164.40,428.68 164.73,428.68 165.07,428.56 165.40,428.54 165.74,428.43 166.07,428.40 166.41,428.36 166.74,428.35 167.08,428.17 167.41,428.00 167.75,428.09 168.08,427.89 168.42,427.71 168.75,428.04 169.09,428.46 169.42,429.05 169.76,428.91 170.09,428.42 170.43,427.90 170.76,427.52 171.10,427.74 171.43,427.78 171.77,427.83 172.10,427.90 172.44,427.98 172.77,428.16 173.11,428.01 173.44,427.67 173.78,427.54 174.11,427.49 174.45,427.53 174.78,427.53 175.12,427.02 175.45,427.37 175.79,427.25 176.12,427.07 176.46,426.88 176.79,427.06 177.13,427.44 177.46,427.05 177.80,427.46 178.13,427.27 178.47,426.92 178.80,426.54 179.14,426.12 179.47,425.89 179.81,425.72 180.14,425.55 180.48,425.55 180.81,425.55 181.15,425.55 181.48,425.55 181.82,425.55 182.15,425.55 182.49,425.55 182.82,425.53 183.16,425.48 183.49,425.25 183.83,425.28 184.16,425.14 184.50,424.86 184.83,424.65 185.17,424.57 185.50,424.47 185.84,424.66 186.17,424.78 186.51,424.92 186.84,424.97 187.18,424.69 187.51,424.92 187.85,424.48 188.18,424.31 188.52,423.98 188.85,423.40 189.19,423.62 189.52,423.74 189.86,423.50 190.19,423.09 190.53,422.51 190.86,422.41 191.20,422.90 191.53,422.76 191.87,423.36 192.20,424.08 192.54,423.52 192.87,423.98 193.21,423.15 193.54,423.96 193.88,423.69 194.21,423.51 194.55,423.65 194.88,423.37 195.22,422.06 195.55,420.55 195.89,419.45 196.22,418.08 196.56,417.73 196.89,418.54 197.23,419.40 197.56,418.58 197.90,418.37 198.23,419.36 198.57,418.69 198.90,419.56 199.24,420.67 199.57,421.04 199.91,420.18 200.24,419.96 200.58,419.57 200.91,420.07 201.25,420.12 201.58,419.58 201.92,419.45 202.25,419.50 202.59,419.78 202.92,420.01 203.26,420.45 203.59,420.79 203.93,420.92 204.26,420.32 204.60,419.94 204.93,419.86 205.27,420.00 205.60,419.92 205.94,420.36 206.27,421.03 206.61,421.09 206.94,421.54 207.28,421.51 207.61,421.77 207.95,422.14 208.28,421.70 208.62,421.59 208.95,421.93 209.29,422.17 209.62,422.19 209.96,422.06 210.29,421.96 210.63,421.93 210.96,421.86 211.30,422.03 211.63,421.98 211.97,421.77 212.30,421.77 212.64,421.81 212.97,421.80 213.31,421.76 213.64,421.81 213.98,421.60 214.31,421.72 214.65,421.44 214.98,421.51 215.32,421.15 215.65,421.08 215.99,420.99 216.32,421.16 216.66,420.92 216.99,421.03 217.33,420.97 217.66,421.02 218.00,421.45 218.33,421.11 218.67,421.60 219.00,421.48 219.34,421.18 219.67,421.14 220.01,421.17 220.34,421.52 220.68,421.18 221.01,421.26 221.35,420.96 221.68,420.98 222.02,420.69 222.35,421.11 222.69,421.00 223.02,420.82 223.36,420.74 223.69,420.67 224.03,420.69 224.36,420.73 224.70,420.65 225.03,420.60 225.37,420.50 225.70,420.41 226.04,420.31 226.37,420.30 226.71,420.34 227.04,420.03 227.38,419.95 227.71,419.80 228.05,419.77 228.38,419.73 228.72,419.76 229.05,420.01 229.39,419.98 229.72,419.73 230.06,419.78 230.39,420.19 230.73,419.85 231.06,419.54 231.40,419.68 231.73,420.10 232.07,419.58 232.40,419.17 232.74,419.76 233.07,420.28 233.41,419.77 233.74,419.51 234.08,419.74 234.41,418.33 234.75,417.94 235.08,418.41 235.42,417.53 235.75,418.04 236.09,418.96 236.42,418.69 236.76,417.87 237.09,417.36 237.43,417.33 237.76,418.04 238.10,418.21 238.43,417.48 238.77,417.45 239.10,417.71 239.44,417.57 239.77,417.27 240.11,417.52 240.44,417.44 240.78,417.15 241.11,417.77 241.45,417.03 241.78,416.38 242.12,417.07 242.45,417.16 242.79,416.70 243.12,417.10 243.46,417.88 243.79,417.98 244.13,416.77 244.46,416.38 244.80,417.08 245.13,416.84 245.47,417.45 245.80,417.58 246.14,418.19 246.47,419.23 246.81,419.46 247.14,418.83 247.48,418.13 247.81,418.99 248.15,419.06 248.48,418.99 248.82,419.18 249.15,419.39 249.49,418.71 249.82,417.34 250.16,417.55 250.49,416.94 250.83,417.76 251.16,416.65 251.50,415.37 251.83,415.32 252.17,414.44 252.50,413.96 252.84,414.13 253.17,414.33 253.51,413.93 253.84,415.06 254.18,414.31 254.51,412.85 254.85,412.07 255.18,412.33 255.52,412.32 255.85,411.24 256.19,410.19 256.52,409.70 256.86,409.76 257.19,409.62 257.53,410.51 257.86,410.99 258.20,409.98 258.53,410.16 258.87,408.93 259.20,408.19 259.54,408.16 259.87,407.60 260.21,407.73 260.54,409.08 260.88,409.35 261.21,409.29 261.55,409.71 261.88,409.57 262.22,408.92 262.55,407.88 262.89,407.55 263.22,407.39 263.56,406.82 263.89,405.44 264.23,405.66 264.56,405.73 264.90,406.93 265.23,405.76 265.57,405.65 265.90,405.42 266.24,406.03 266.57,408.10 266.91,407.47 267.24,409.10 267.58,408.46 267.91,407.40 268.25,406.19 268.58,407.08 268.92,408.48 269.25,407.92 269.59,408.48 269.92,408.52 270.26,410.40 270.59,410.44 270.93,409.35 271.26,408.28 271.60,408.11 271.93,408.64 272.27,407.88 272.60,407.64 272.94,406.92 273.27,406.94 273.61,407.27 273.94,408.84 274.28,410.71 274.61,411.36 274.95,410.52 275.28,410.45 275.62,409.71 275.95,410.16 276.29,409.26 276.62,409.38 276.96,409.57 277.29,409.75 277.63,409.48 277.96,408.88 278.30,409.22 278.63,410.17 278.97,409.71 279.30,411.93 279.64,411.77 279.97,411.85 280.31,412.10 280.64,411.73 280.98,411.69 281.31,411.29 281.65,410.33 281.98,410.66 282.32,411.29 282.65,411.34 282.99,411.43 283.32,411.38 283.66,410.83 283.99,410.56 284.33,411.61 284.66,411.58 285.00,412.09 285.33,412.73 285.67,412.48 286.00,411.98 286.34,412.22 286.67,411.91 287.01,412.12 287.34,412.54 287.68,412.91 288.01,413.34 288.35,413.62 288.68,413.87 289.02,413.42 289.35,413.04 289.69,413.30 290.02,413.20 290.36,412.93 290.69,412.93 291.03,413.22 291.36,413.66 291.70,413.93 292.03,414.20 292.37,413.76 292.70,413.16 293.04,412.90 293.37,412.57 293.71,412.64 294.04,413.10 294.38,412.76 294.71,412.67 295.05,411.63 295.38,411.99 295.72,411.89 296.05,411.75 296.39,411.93 296.72,412.29 297.06,412.61 297.39,412.33 297.73,412.29 298.06,412.33 298.40,412.50 298.73,412.39 299.07,412.24 299.40,412.25 299.74,411.93 300.07,411.30 300.41,411.77 300.74,411.83 301.08,411.85 301.41,411.85 301.75,411.73 302.08,411.70 302.42,411.36 302.75,411.71 303.09,411.58 303.42,411.40 303.76,411.31 304.09,411.03 304.43,411.26 304.76,411.29 305.10,411.62 305.43,411.72 305.77,412.16 306.10,412.09 306.44,412.26 306.77,411.83 307.11,412.39 307.44,413.10 307.78,413.95 308.11,413.71 308.45,414.11 308.78,413.26 309.12,412.03 309.45,410.85 309.79,411.03 310.12,411.59 310.46,412.43 310.79,413.91 311.13,413.65 311.46,413.42 311.80,413.56 312.13,413.68 312.47,413.40 312.80,413.67 313.14,412.00 313.47,412.13 313.81,412.56 314.14,413.25 314.48,413.33 314.81,412.93 315.15,413.19 315.48,413.27 315.82,412.73 316.15,412.05 316.49,411.98 316.82,410.91 317.16,411.90 317.49,413.00 317.83,413.39 318.16,414.07 318.50,414.02 318.83,414.84 319.17,411.97 319.50,412.69 319.84,410.92 320.17,409.95 320.51,409.11 320.84,408.85 321.18,406.81 321.51,405.58 321.85,405.43 322.18,405.92 322.52,405.62 322.85,405.30 323.19,402.93 323.52,402.50 323.86,401.65 324.19,401.80 324.53,400.10 324.86,400.16 325.20,399.69 325.53,398.29 325.87,396.01 326.20,396.30 326.54,395.21 326.87,395.11 327.21,395.98 327.54,396.41 327.88,396.50 328.21,397.57 328.55,397.75 328.88,397.38 329.22,397.75 329.55,398.78 329.89,398.90 330.22,400.43 330.56,398.32 330.89,398.78 331.23,397.72 331.56,399.26 331.90,397.63 332.23,397.46 332.57,396.62 332.90,396.07 333.24,395.62 333.57,396.82 333.91,396.82 334.24,397.70 334.58,397.11 334.91,396.75 335.25,395.50 335.58,394.38 335.92,393.29 336.25,392.49 336.59,390.88 336.92,391.54 337.26,390.91 337.59,388.28 337.93,387.80 338.26,386.67 338.60,387.56 338.93,384.45 339.27,384.85 339.60,387.34 339.94,386.10 340.27,384.93 340.61,383.76 340.94,384.64 341.28,384.31 341.61,383.61 341.95,381.53 342.28,381.57 342.62,379.81 342.95,378.06 343.29,380.15 343.62,381.54 343.96,380.59 344.29,377.77 344.63,376.30 344.96,373.88 345.30,375.86 345.63,375.46 345.97,377.82 346.30,377.56 346.64,377.69 346.97,379.86 347.31,378.73 347.64,379.32 347.98,380.73 348.31,379.75 348.65,382.13 348.98,381.18 349.32,380.83 349.65,381.55 349.99,379.14 350.32,379.92 350.66,380.36 350.99,382.19 351.33,383.55 351.66,383.22 352.00,383.54 352.33,384.11 352.67,381.95 353.00,381.68 353.34,377.84 353.67,378.84 354.01,376.49 354.34,376.48 354.68,377.01 355.01,376.75 355.35,377.23 355.68,378.88 356.02,382.43 356.35,383.31 356.69,384.37 357.02,384.59 357.36,385.22 357.69,385.03 358.03,383.06 358.36,381.42 358.70,380.17 359.03,378.93 359.37,377.23 359.70,376.24 360.04,377.38 360.37,376.29 360.71,374.45 361.04,375.54 361.38,374.29 361.71,373.51 362.05,371.30 362.38,371.33 362.72,373.53 363.05,373.07 363.39,372.38 363.72,370.79 364.06,370.61 364.39,369.98 364.73,371.10 365.06,370.09 365.40,369.04 365.73,368.53 366.07,366.62 366.40,369.52 366.74,371.10 367.07,370.50 367.41,369.23 367.74,367.38 368.08,364.77 368.41,361.16 368.75,360.26 369.08,362.52 369.42,359.91 369.75,361.62 370.09,360.77 370.42,361.63 370.76,360.06 371.09,358.93 371.43,354.47 371.76,355.15 372.10,354.83 372.43,353.93 372.77,350.96 373.10,349.52 373.44,351.53 373.77,352.82 374.11,351.29 374.44,352.44 374.78,353.61 375.11,352.38 375.45,353.06 375.78,356.20 376.12,355.98 376.45,356.77 376.79,357.72 377.12,358.85 377.46,362.46 377.79,359.79 378.13,358.74 378.46,358.45 378.80,360.34 379.13,358.62 379.47,355.34 379.80,351.66 380.14,350.41 380.47,350.75 380.81,352.85 381.14,353.49 381.48,355.00 381.81,358.14 382.15,352.29 382.48,351.99 382.82,347.78 383.15,353.31 383.49,352.42 383.82,350.83 384.16,351.35 384.49,353.01 384.83,355.39 385.16,358.78 385.50,358.83 385.83,357.62 386.17,358.86 386.50,360.19 386.84,359.80 387.17,358.25 387.51,355.82 387.84,355.90 388.18,354.61 388.51,351.06 388.85,347.98 389.18,349.75 389.52,346.24 389.85,343.56 390.19,343.94 390.52,344.36 390.86,341.81 391.19,337.27 391.53,338.67 391.86,336.49 392.20,334.08 392.53,335.07 392.87,336.45 393.20,333.19 393.54,333.83 393.87,331.74 394.21,335.46 394.54,339.47 394.88,337.54 395.21,335.65 395.55,331.66 395.88,331.51 396.22,332.78 396.55,339.41 396.89,338.83 397.22,334.04 397.56,336.75 397.89,339.48 398.23,338.43 398.56,339.88 398.90,341.35 399.23,342.91 399.57,341.74 399.90,341.67 400.24,339.63 400.57,342.27 400.91,338.29 401.24,339.00 401.58,339.55 401.91,334.93 402.25,326.86 402.58,323.11 402.92,323.84 403.25,320.74 403.59,318.16 403.92,320.78 404.26,325.88 404.59,323.95 404.93,320.36 405.26,321.05 405.60,317.40 405.93,313.46 406.27,308.78 406.60,310.50 406.94,308.79 407.27,308.46 407.61,301.98 407.94,300.35 408.28,302.43 408.61,301.08 408.95,297.36 409.28,294.75 409.62,296.19 409.95,295.34 410.29,295.90 410.62,293.42 410.96,292.03 411.29,295.60 411.63,293.20 411.96,289.61 412.30,291.13 412.63,290.61 412.97,286.14 413.30,283.58 413.64,286.00 413.97,287.26 414.31,290.60 414.64,293.92 414.98,285.20 415.31,288.65 415.65,290.78 415.98,295.00 416.32,302.24 416.65,298.95 416.99,302.17 417.32,302.79 417.66,301.57 417.99,304.98 418.33,311.06 418.66,309.25 419.00,310.30 419.33,310.84 419.67,312.44 420.00,316.95 420.34,316.23 420.67,316.46 421.01,319.01 421.34,321.79 421.68,322.09 422.01,318.58 422.35,321.30 422.68,318.26 423.02,313.68 423.35,310.61 423.69,313.25 424.02,314.41 424.36,317.71 424.69,314.28 425.03,313.41 425.36,311.15 425.70,310.73 426.03,309.60 426.37,313.22 426.70,316.67 427.04,315.28 427.37,316.41 427.71,308.61 428.04,309.99 428.38,307.19 428.71,307.86 429.05,305.56 429.38,304.06 429.72,300.05 430.05,303.20 430.39,302.03 430.72,296.89 431.06,302.13 431.39,306.03 431.73,297.75 432.06,293.07 432.40,288.81 432.73,284.50 433.07,280.69 433.40,285.98 433.74,286.36 434.07,291.66 434.41,294.62 434.74,289.69 435.08,293.25 435.41,293.30 435.75,297.75 436.08,289.86 436.42,287.56 436.75,291.49 437.09,292.92 437.42,293.83 437.76,288.14 438.09,285.96 438.43,286.04 438.76,289.81 439.10,293.16 439.43,295.01 439.77,297.87 440.10,297.74 440.44,298.74 440.77,295.64 441.11,292.88 441.44,291.88 441.78,294.79 442.11,297.49 442.45,300.77 442.78,309.23 443.12,310.39 443.45,314.87 443.79,318.73 444.12,312.26 444.46,321.17 444.79,326.44 445.13,325.37 445.46,324.33 445.80,327.33 446.13,327.67 446.47,331.72 446.80,324.42 447.14,330.04 447.47,332.90 447.81,335.95 448.14,329.84 448.48,325.53 448.81,320.50 449.15,320.58 449.48,314.86 449.82,316.50 450.15,313.79 450.49,315.98 450.82,311.52 451.16,311.21 451.49,314.02 451.83,314.97 452.16,316.93 452.50,319.72 452.83,319.22 453.17,320.34 453.50,315.67 453.84,319.66 454.17,320.65 454.51,323.86 454.84,325.11 455.18,325.32 455.51,323.43 455.85,319.29 456.18,310.12 456.52,307.09 456.85,313.28 457.19,309.99 457.52,311.00 457.86,311.31 458.19,319.11 458.53,317.98 458.86,325.93 459.20,329.55 459.53,323.84 459.87,320.24 460.20,320.09 460.54,322.98 460.87,322.04 461.21,322.77 461.54,322.70 461.88,326.62 462.21,323.38 462.55,318.64 462.88,309.93 463.22,315.02 463.55,310.54 463.89,306.00 464.22,306.07 464.56,305.29 464.89,304.35 465.23,298.50 465.56,288.61 465.90,287.00 466.23,286.45 466.57,290.66 466.90,286.64 467.24,286.27 467.57,286.56 467.91,289.49 468.24,290.85 468.58,293.29 468.91,290.09 469.25,289.59 469.58,281.38 469.92,280.49 470.25,278.50 470.59,276.08 470.92,278.83 471.26,282.21 471.59,276.92 471.93,279.95 472.26,274.15 472.60,271.34 472.93,272.27 473.27,277.20 473.60,274.76 473.94,274.52 474.27,272.73 474.61,269.53 474.94,271.05 475.28,265.11 475.61,267.18 475.95,269.30 476.28,267.10 476.62,268.39 476.95,266.69 477.29,264.25 477.62,262.01 477.96,264.86 478.29,269.90 478.63,273.16 478.96,268.44 479.30,264.72 479.63,262.05 479.97,259.10 480.30,257.43 480.64,251.60 480.97,250.85 481.31,248.94 481.64,246.01 481.98,249.39 482.31,251.73 482.65,252.39 482.98,256.95 483.32,256.92 483.65,264.43 483.99,262.49 484.32,271.43 484.66,266.35 484.99,268.93 485.33,263.70 485.66,271.48 486.00,270.44 486.33,263.26 486.67,261.08 487.00,262.32 487.34,264.42 487.67,259.53 488.01,260.07 488.34,259.79 488.68,261.82 489.01,260.01 489.35,254.80 489.68,255.23 490.02,254.18 490.35,253.23 490.69,262.54 491.02,268.64 491.36,266.47 491.69,262.76 492.03,264.28 492.36,265.80 492.70,265.91 493.03,266.22 493.37,259.72 493.70,253.88 494.04,258.26 494.37,254.70 494.71,257.75 495.04,259.07 495.38,251.11 495.71,248.39 496.05,249.37 496.38,243.64 496.72,242.80 497.05,244.61 497.39,239.98 497.72,243.65 498.06,243.83 498.39,240.46 498.73,234.81 499.06,232.38 499.40,228.99 499.73,233.63 500.07,235.39 500.40,236.30 500.74,234.82 501.07,234.21 501.41,235.67 501.74,236.31 502.08,238.24 502.41,235.52 502.75,235.00 503.08,233.22 503.42,233.70 503.75,235.94 504.09,233.68 504.42,234.31 504.76,237.31 505.09,244.30 505.43,238.23 505.76,235.51 506.10,234.98 506.43,226.08 506.77,227.00 507.10,220.73 507.44,227.14 507.77,227.40 508.11,225.61 508.44,224.31 508.78,218.62 509.11,220.09 509.45,218.27 509.78,214.25 510.12,215.43 510.45,213.34 510.79,206.60 511.12,206.66 511.46,204.10 511.79,205.13 512.13,209.12 512.46,211.38 512.80,209.80 513.13,203.67 513.47,202.48 513.80,198.94 514.14,199.98 514.47,200.24 514.81,200.49 515.14,206.87 515.48,204.65 515.81,209.40 516.15,211.09 516.48,209.93 516.82,210.76 517.15,210.91 517.49,205.97 517.82,208.59 518.16,204.45 518.49,205.42 518.83,205.30 519.16,204.08 519.50,202.90 519.83,205.41 520.17,209.46 520.50,205.05 520.84,207.27 521.17,204.05 521.51,203.57 521.84,197.88 522.18,202.34 522.51,205.33 522.85,203.06 523.18,197.11 523.52,194.77 523.85,194.88 524.19,193.48 524.52,185.75 524.86,186.28 525.19,185.92 525.53,190.46 525.86,183.16 526.20,178.60 526.53,175.71 526.87,178.99 527.20,179.55 527.54,175.63 527.87,180.93 528.21,183.13 528.54,185.56 528.88,181.34 529.21,179.33 529.55,175.38 529.88,181.97 530.22,177.48 530.55,183.98 530.89,185.39 531.22,180.87 531.56,187.14 531.89,189.02 532.23,191.91 532.56,191.71 532.90,187.45 533.23,187.75 533.57,186.52 533.90,184.88 534.24,183.42 534.57,184.61 534.91,186.71 535.24,188.73 535.58,190.26 535.91,183.18 536.25,188.13 536.58,190.93 536.92,192.10 537.25,200.37 537.59,200.46 537.92,198.88 538.26,204.82 538.59,198.72 538.93,198.15 539.26,199.03 539.60,195.67 539.93,191.64 540.27,190.46 540.60,188.35 540.94,188.30 541.27,186.33 541.61,181.90 541.94,182.41 542.28,179.78 542.61,181.11 542.95,178.92 543.28,183.39 543.62,181.47 543.95,174.29 544.29,166.59 544.62,168.11 544.96,167.17 545.29,163.44 545.63,165.25 545.96,157.90 546.30,159.49 546.63,156.29 546.97,155.64 547.30,152.31 547.64,148.24 547.97,141.02 548.31,139.18 548.64,140.13 548.98,135.61 549.31,133.39 549.65,130.83 549.98,134.17 550.32,137.11 550.65,134.51 550.99,133.77 551.32,133.16 551.66,135.36 551.99,132.34 552.33,129.23 552.66,123.33 553.00,120.61 553.33,113.34 553.67,112.38 554.00,119.79 554.34,117.88 554.67,110.19 555.01,111.35 555.34,107.46 555.68,105.94 556.01,103.22 556.35,104.08 556.68,102.06 557.02,100.63 557.35,92.51 557.69,100.97 558.02,94.49 558.36,100.30 558.69,93.68 559.03,94.40 559.36,92.18 559.70,94.12 560.03,99.88 560.37,98.72 560.70,98.39 561.04,99.76 561.37,95.42 561.71,98.06 562.04,101.94 562.38,106.51 562.71,107.21 563.05,100.06 563.38,109.79 563.72,106.03 564.05,105.12 564.39,103.51 564.72,103.00 565.06,98.44 565.39,98.14 565.73,103.63 566.06,103.74 566.40,110.04 566.73,115.20 567.07,110.67 567.40,109.05 567.74,98.52 568.07,88.78 568.41,89.44 568.74,90.81 569.08,89.25 569.41,98.52 569.75,101.83 570.08,104.81 570.42,104.49 570.75,105.94 571.09,107.45 571.42,109.83 571.76,113.58 572.09,112.58 572.43,107.83 572.76,105.94 573.10,102.95 573.43,109.08 573.77,116.37 574.10,114.19 574.44,108.79 574.77,102.64 575.11,106.32 575.44,104.59 575.78,107.25 576.11,109.64 576.45,111.17 576.78,108.83 577.12,113.60 577.45,119.95 577.79,118.15 578.12,122.15 578.46,121.61 578.79,123.30 579.13,115.30 579.46,113.14 579.80,105.08 580.13,104.41 580.47,105.28 580.80,95.88 581.14,89.41 581.47,83.65 581.81,79.41 582.14,80.43 582.48,85.69 582.81,85.13 583.15,88.19 583.48,84.11 583.82,80.35 584.15,82.32 584.49,93.57 584.82,95.80 585.16,89.08 585.49,97.42 585.83,93.44 586.16,102.68 586.50,100.82 586.83,103.48 587.17,106.36 587.50,99.66 587.84,102.39 588.17,101.73 588.51,105.90 588.84,101.94 589.18,92.17 589.51,86.85 589.85,92.47 590.18,98.56 590.52,96.03 590.85,102.40 591.19,91.96 591.52,94.82 591.86,92.46 592.19,93.81 592.53,87.79 592.86,94.25 593.20,95.53 593.53,94.53 593.87,95.37 594.20,98.89 594.54,112.81 594.87,115.83 595.21,114.58 595.54,115.18 595.88,116.66 596.21,122.36 596.55,121.92 596.88,129.68 597.22,131.79 597.55,139.52 597.89,138.72 598.22,135.07 598.56,132.47 598.89,125.31 599.23,122.31 599.56,124.75 599.90,126.03 600.23,128.29 600.57,135.78 600.90,139.87 601.24,130.92 601.57,132.89 601.91,138.17 602.24,134.94 602.58,143.47 602.91,134.59 603.25,140.48 603.58,135.00 603.92,134.18 604.25,129.05 604.59,126.46 604.92,129.02 605.26,131.10 605.59,137.04 605.93,135.30 606.26,130.13 606.60,124.51 606.93,129.75 607.27,129.49 607.60,131.63 607.94,129.54 608.27,135.04 608.61,130.99 608.94,124.01 609.28,132.58 609.61,136.34 609.95,131.68 610.28,125.63 610.62,134.80 610.95,138.00 611.29,143.01 611.62,139.79 611.96,132.40 612.29,142.77 612.63,136.96 612.96,132.66 613.30,135.14 613.63,130.86 613.97,122.30 614.30,124.44 614.64,121.56 614.97,119.86 615.31,124.48 615.64,126.32 615.98,116.14 616.31,114.95 616.65,116.27 616.98,122.14 617.32,123.39 617.65,126.06 617.99,130.17 618.32,125.87 618.66,128.75 618.99,125.43 619.33,116.68 619.66,122.53 620.00,112.27 620.33,100.91 620.67,104.53 621.00,105.47 621.34,99.42 621.67,106.15 622.01,102.03 622.34,104.47 622.68,99.42 623.01,112.41 623.35,115.94 623.68,116.25 624.02,112.53 624.35,114.01 624.69,112.44 625.02,108.30 625.36,107.72 625.69,100.66 626.03,106.01 626.36,109.16 626.70,92.29 627.03,91.40 627.37,99.12 627.70,102.81 628.04,92.37 628.37,96.34 628.71,93.72 629.04,88.04 629.38,93.31 629.71,84.61 630.05,78.70 630.38,83.70 630.72,88.29 631.05,77.56 631.39,84.02 631.72,88.20 632.06,86.69 632.39,88.43 632.73,87.62 633.06,87.09 633.40,76.41 633.73,86.56 634.07,85.26 634.40,89.88 634.74,90.51 635.07,89.26 635.41,90.79 635.74,103.37 636.08,101.78 636.41,102.07 636.75,113.78 637.08,120.76 637.42,115.96 637.75,120.06 638.09,116.31 638.42,116.96 638.76,121.43 639.09,131.61 639.43,135.40 639.76,138.07 640.10,133.09 640.43,134.68 640.77,136.44 641.10,146.52 641.44,147.13 641.77,153.86 642.11,145.30 642.44,152.72 642.78,152.33 643.11,151.32 643.45,147.55 643.78,149.76 644.12,144.56 644.45,149.06 644.79,148.69 645.12,146.86 645.46,151.51 645.79,154.80 646.13,156.00 646.46,157.25 646.80,163.44 647.13,161.48 647.47,166.29 647.80,168.27 648.14,171.44 648.47,170.79 648.81,165.59 649.14,170.78 649.48,171.69 649.81,175.32 650.15,161.15 650.48,167.34 650.82,159.61 651.15,167.44 651.49,172.39 651.82,170.69 652.16,166.86 652.49,167.73 652.83,166.70 653.16,165.22 653.50,167.49 653.83,166.39 654.17,163.57 654.50,155.45 654.84,156.85 655.17,159.04 655.51,162.67 655.84,151.62 656.18,152.50 656.51,155.56 656.85,152.72 657.18,147.92 657.52,154.39 657.85,157.87 658.19,152.51 658.52,152.89 658.86,149.10 659.19,143.17 659.53,144.42 659.86,137.56 660.20,132.83 660.53,128.64 660.87,128.50 661.20,126.88 661.54,120.65 661.87,120.91 662.21,119.18 662.54,117.99 662.88,116.89 663.21,118.67 663.55,108.72 663.88,117.57 664.22,107.15 664.55,88.65 664.89,97.45 665.22,98.72 665.56,93.47 665.89,91.57 666.23,92.52 666.56,89.79 666.90,84.94 667.23,80.44 667.57,83.62 667.90,90.54 668.24,90.47 668.57,85.83 668.91,90.85 669.24,90.92 669.58,89.26 669.91,87.37 670.25,92.85 670.58,103.51 670.92,101.73 671.25,96.69 671.59,91.05 671.92,92.31 672.26,85.17 672.59,83.79 672.93,82.31 673.26,89.04 673.60,85.99 673.93,84.43 674.27,87.52 674.60,89.42 674.94,92.14 675.27,88.20 675.61,85.35 675.94,84.92 676.28,83.12 676.61,86.45 676.95,86.64 677.28,89.31 677.62,88.54 677.95,80.06 678.29,82.06 678.62,78.91 678.96,71.92 679.29,72.89 679.63,73.29 679.96,79.94 680.30,86.14 680.63,86.33 680.97,82.03 681.30,88.80 681.64,91.99 681.97,92.48 682.31,91.77 682.64,104.51 682.98,103.22 683.31,105.91 683.65,100.74 683.98,90.82 684.32,98.40 684.65,92.73 684.99,94.40 685.32,97.94 685.66,87.47 685.99,82.52 686.33,79.32 686.66,80.09 687.00,75.77 687.33,77.65 687.67,78.08 688.00,73.34 688.34,77.29 688.67,83.11 689.01,91.61 689.34,101.41 689.68,104.54 690.01,100.54 690.35,94.65 690.68,94.57 691.02,94.18 691.35,90.95 691.69,80.52 692.02,80.00 692.36,85.72 692.69,84.66 693.03,84.21 693.36,86.01 693.70,94.93 694.03,93.42 694.37,102.07 694.70,98.81 695.04,94.76 695.37,104.54 695.71,113.79 696.04,106.37 696.38,103.63 696.71,107.13 697.05,108.31 697.38,114.63 697.72,113.07 698.05,121.27 698.39,118.88 698.72,118.49 699.06,118.06 699.39,117.39 699.73,117.43 700.06,122.77 700.40,118.74 700.73,130.73 701.07,128.26 701.40,130.55 701.74,135.24 702.07,134.48 702.41,139.06 702.74,128.11 703.08,127.15 703.41,125.26 703.75,126.60 704.08,124.36 704.42,119.87 704.75,121.05 705.09,121.07 705.42,114.19 705.76,102.30 706.09,100.47 706.43,105.79 706.76,109.89 707.10,106.38 707.43,108.89 707.77,103.60 708.10,103.27 708.44,106.41 708.77,104.10 709.11,102.43 709.44,101.29 709.78,103.15 710.11,104.86 710.45,99.96 710.78,85.78 711.12,80.45 711.45,80.17 711.79,86.67 712.12,83.96 712.46,88.65 712.79,95.17 713.13,87.78 713.46,99.21 713.80,100.11 714.13,103.86 714.47,107.64 714.80,104.48 715.14,104.52 715.47,105.00 715.81,107.33 716.14,105.20 716.48,113.51 716.81,115.81 717.15,116.67 717.48,118.67 717.82,128.43 718.15,126.62 718.49,138.04 718.82,139.92 719.16,139.40 719.49,150.09 719.83,155.90 720.16,160.70 720.50,163.32 720.83,156.89 721.17,147.60 721.50,149.35 721.84,150.67 722.17,153.26 722.51,152.27 722.84,151.91 723.18,152.06 723.51,150.32 723.85,148.95 724.18,152.95 724.52,157.27 724.85,157.12 725.19,162.26 725.52,164.00 725.86,168.92 726.19,167.38 726.53,170.72 726.86,170.14 727.20,178.30 727.53,176.49 727.87,177.00 728.20,178.76 728.54,174.40 728.87,176.40 729.21,170.53 729.54,169.74 729.88,168.41 730.21,169.90 730.55,179.76 730.88,179.27 731.22,179.47 731.55,177.77 731.89,183.16 732.22,185.92 732.56,182.50 732.89,193.27 733.23,198.00 733.56,206.21 733.90,207.68 734.23,210.16 734.57,210.52 734.90,201.53 735.24,194.04 735.57,190.23 735.91,190.69 736.24,190.21 736.58,186.26 736.91,173.37 737.25,169.20 737.58,166.30 737.92,171.76 738.25,172.30 738.59,169.66 738.92,171.69 739.26,181.37 739.59,177.46 739.93,167.93 740.26,169.77 740.60,170.04 740.93,160.17 741.27,153.74 741.60,155.06 741.94,156.05 742.27,154.87 742.61,169.98 742.94,166.50 743.28,169.76 743.61,165.64 743.95,170.13 744.28,157.72 744.62,158.15 744.95,160.44 745.29,163.57 745.62,163.63 745.96,164.24 746.29,162.55 746.63,172.32 746.96,167.10 747.30,168.30 747.63,164.88 747.97,167.23 748.30,165.72 748.64,159.22 748.97,161.08 749.31,156.77 749.64,162.15 749.98,163.19 750.31,156.05 750.65,155.56 750.98,162.19 751.32,168.32 751.65,165.14 751.99,161.90 752.32,160.78 752.66,166.45 752.99,168.29 753.33,167.78 753.66,163.25 754.00,162.66 754.33,161.40 754.67,156.19 755.00,146.68"/>
<line x1="783" y1="82" x2="809" y2="82" stroke="#dc2626" stroke-width="3"/>
<text x="817" y="86" font-family="Arial" font-size="13" fill="#111827">Avellaneda Stoikov</text>
<polyline fill="none" stroke="#7c3aed" stroke-width="2" points=""/>
<line x1="783" y1="106" x2="809" y2="106" stroke="#7c3aed" stroke-width="3"/>
<text x="817" y="110" font-family="Arial" font-size="13" fill="#111827">Calibrated Avellaneda Stoikov</text>
<text x="420.0" y="518" text-anchor="middle" font-family="Arial" font-size="14" fill="#111827">Event index</text>
<text x="22" y="256.0" text-anchor="middle" transform="rotate(-90 22 256.0)" font-family="Arial" font-size="14" fill="#111827">Net PnL after fees</text>
</svg>
