<svg xmlns="http://www.w3.org/2000/svg" width="940" height="540" viewBox="0 0 940 540">
<rect width="100%" height="100%" fill="#ffffff"/>
<text x="470.0" y="26" text-anchor="middle" font-family="Arial" font-size="18" fill="#111827">Trending Inventory</text>
<line x1="85" y1="470" x2="755" y2="470" stroke="#111827" stroke-width="1"/>
<line x1="85" y1="42" x2="85" y2="470" stroke="#111827" stroke-width="1"/>
<line x1="85.00" y1="42" x2="85.00" y2="470" stroke="#e5e7eb" stroke-width="1"/>
<text x="85.00" y="494" text-anchor="middle" font-family="Arial" font-size="12" fill="#374151">0</text>
<line x1="252.50" y1="42" x2="252.50" y2="470" stroke="#e5e7eb" stroke-width="1"/>
<text x="252.50" y="494" text-anchor="middle" font-family="Arial" font-size="12" fill="#374151">50000</text>
<line x1="420.00" y1="42" x2="420.00" y2="470" stroke="#e5e7eb" stroke-width="1"/>
<text x="420.00" y="494" text-anchor="middle" font-family="Arial" font-size="12" fill="#374151">100000</text>
<line x1="587.50" y1="42" x2="587.50" y2="470" stroke="#e5e7eb" stroke-width="1"/>
<text x="587.50" y="494" text-anchor="middle" font-family="Arial" font-size="12" fill="#374151">149999</text>
<line x1="755.00" y1="42" x2="755.00" y2="470" stroke="#e5e7eb" stroke-width="1"/>
<text x="755.00" y="494" text-anchor="middle" font-family="Arial" font-size="12" fill="#374151">199999</text>
<line x1="85" y1="470.00" x2="755" y2="470.00" stroke="#e5e7eb" stroke-width="1"/>
<text x="73" y="474.00" text-anchor="end" font-family="Arial" font-size="12" fill="#374151">-174</text>
<line x1="85" y1="363.00" x2="755" y2="363.00" stroke="#e5e7eb" stroke-width="1"/>
<text x="73" y="367.00" text-anchor="end" font-family="Arial" font-size="12" fill="#374151">35</text>
<line x1="85" y1="256.00" x2="755" y2="256.00" stroke="#e5e7eb" stroke-width="1"/>
<text x="73" y="260.00" text-anchor="end" font-family="Arial" font-size="12" fill="#374151">243</text>
<line x1="85" y1="149.00" x2="755" y2="149.00" stroke="#e5e7eb" stroke-width="1"/>
<text x="73" y="153.00" text-anchor="end" font-family="Arial" font-size="12" fill="#374151">452</text>
<line x1="85" y1="42.00" x2="755" y2="42.00" stroke="#e5e7eb" stroke-width="1"/>
<text x="73" y="46.00" text-anchor="end" font-family="Arial" font-size="12" fill="#374151">661</text>
<polyline fill="none" stroke="#2563eb" stroke-width="2" points="85.00,380.96 85.34,380.96 85.67,386.09 86.01,386.09 86.34,386.09 86.68,380.96 87.01,380.96 87.35,391.22 87.68,391.22 88.02,391.22 88.35,391.22 88.69,391.22 89.02,391.22 89.36,391.22 89.69,386.09 90.03,386.09 90.36,386.09 90.70,391.22 91.03,396.35 91.37,406.61 91.70,406.61 92.04,406.61 92.37,406.61 92.71,406.61 93.04,406.61 93.38,406.61 93.71,406.61 94.05,406.61 94.38,401.48 94.72,401.48 95.05,401.48 95.39,406.61 95.72,406.61 96.06,406.61 96.39,406.61 96.73,411.75 97.06,411.75 97.40,411.75 97.73,411.75 98.07,411.75 98.40,411.75 98.74,411.75 99.07,411.75 99.41,406.61 99.74,401.48 100.08,401.48 100.41,396.35 100.75,391.22 101.08,396.35 101.42,396.35 101.75,396.35 102.09,401.48 102.42,401.48 102.76,401.48 103.09,401.48 103.43,406.61 103.76,406.61 104.10,406.61 104.43,401.48 104.77,401.48 105.10,396.35 105.44,396.35 105.77,396.35 106.11,396.35 106.44,391.22 106.78,391.22 107.11,391.22 107.45,391.22 107.78,386.09 108.12,386.09 108.45,386.09 108.79,386.09 109.12,375.82 109.46,375.82 109.79,375.82 110.13,375.82 110.46,375.82 110.80,375.82 111.13,375.82 111.47,375.82 111.80,375.82 112.14,375.82 112.47,386.09 112.81,391.22 113.14,386.09 113.48,386.09 113.81,386.09 114.15,386.09 114.48,380.96 114.82,380.96 115.15,386.09 115.49,386.09 115.82,391.22 116.16,391.22 116.49,391.22 116.83,391.22 117.16,396.35 117.50,396.35 117.83,396.35 118.17,396.35 118.50,391.22 118.84,386.09 119.17,386.09 119.51,386.09 119.84,386.09 120.18,386.09 120.51,386.09 120.85,386.09 121.18,396.35 121.52,396.35 121.85,396.35 122.19,399.43 122.52,399.43 122.86,399.43 123.19,399.43 123.53,399.43 123.86,399.43 124.20,394.30 124.53,389.17 124.87,389.17 125.20,389.17 125.54,389.17 125.87,384.03 126.21,384.03 126.54,384.03 126.88,384.03 127.21,389.17 127.55,389.17 127.88,394.30 128.22,394.30 128.55,394.30 128.89,394.30 129.22,394.30 129.56,389.17 129.89,389.17 130.23,389.17 130.56,389.17 130.90,389.17 131.23,389.17 131.57,384.03 131.90,389.17 132.24,389.17 132.57,389.17 132.91,389.17 133.24,389.17 133.58,384.03 133.91,384.03 134.25,384.03 134.58,389.17 134.92,399.43 135.25,399.43 135.59,404.56 135.92,404.56 136.26,399.43 136.59,399.43 136.93,399.43 137.26,399.43 137.60,399.43 137.93,399.43 138.27,399.43 138.60,399.43 138.94,394.30 139.27,404.56 139.61,404.56 139.94,401.48 140.28,401.48 140.61,401.48 140.95,411.75 141.28,411.75 141.62,422.01 141.95,422.01 142.29,416.88 142.62,416.88 142.96,416.88 143.29,422.01 143.63,422.01 143.96,422.01 144.30,422.01 144.63,416.88 144.97,416.88 145.30,416.88 145.64,416.88 145.97,416.88 146.31,416.88 146.64,416.88 146.98,416.88 147.31,416.88 147.65,416.88 147.98,416.88 148.32,416.88 148.65,416.88 148.99,422.01 149.32,422.01 149.66,422.01 149.99,422.01 150.33,416.88 150.66,416.88 151.00,416.88 151.33,416.88 151.67,411.75 152.00,406.61 152.34,406.61 152.67,406.61 153.01,401.48 153.34,401.48 153.68,401.48 154.01,401.48 154.35,401.48 154.68,401.48 155.02,401.48 155.35,401.48 155.69,401.48 156.02,401.48 156.36,406.61 156.69,406.61 157.03,406.61 157.36,406.61 157.70,406.61 158.03,406.61 158.37,401.48 158.70,411.75 159.04,411.75 159.37,411.75 159.71,411.75 160.04,411.75 160.38,411.75 160.71,411.75 161.05,411.75 161.38,411.75 161.72,416.88 162.05,416.88 162.39,411.75 162.72,411.75 163.06,411.75 163.39,411.75 163.73,411.75 164.06,411.75 164.40,411.75 164.73,406.61 165.07,406.61 165.40,406.61 165.74,401.48 166.07,396.35 166.41,391.22 166.74,391.22 167.08,386.09 167.41,386.09 167.75,386.09 168.08,386.09 168.42,380.96 168.75,380.96 169.09,380.96 169.42,386.09 169.76,386.09 170.09,386.09 170.43,386.09 170.76,386.09 171.10,391.22 171.43,386.09 171.77,386.09 172.10,386.09 172.44,386.09 172.77,386.09 173.11,391.22 173.44,386.09 173.78,391.22 174.11,391.22 174.45,391.22 174.78,391.22 175.12,380.96 175.45,391.22 175.79,391.22 176.12,391.22 176.46,396.35 176.79,401.48 177.13,401.48 177.46,401.48 177.80,401.48 178.13,401.48 178.47,406.61 178.80,406.61 179.14,401.48 179.47,401.48 179.81,401.48 180.14,401.48 180.48,401.48 180.81,401.48 181.15,401.48 181.48,401.48 181.82,401.48 182.15,401.48 182.49,401.48 182.82,396.35 183.16,396.35 183.49,391.22 183.83,391.22 184.16,391.22 184.50,391.22 184.83,391.22 185.17,396.35 185.50,396.35 185.84,401.48 186.17,396.35 186.51,396.35 186.84,396.35 187.18,401.48 187.51,401.48 187.85,401.48 188.18,401.48 188.52,406.61 188.85,406.61 189.19,411.75 189.52,406.61 189.86,406.61 190.19,411.75 190.53,406.61 190.86,411.75 191.20,411.75 191.53,411.75 191.87,411.75 192.20,411.75 192.54,406.61 192.87,406.61 193.21,406.61 193.54,411.75 193.88,411.75 194.21,411.75 194.55,416.88 194.88,416.88 195.22,416.88 195.55,416.88 195.89,416.88 196.22,422.01 196.56,422.01 196.89,422.01 197.23,422.01 197.56,422.01 197.90,422.01 198.23,422.01 198.57,422.01 198.90,422.01 199.24,422.01 199.57,422.01 199.91,416.88 200.24,406.61 200.58,406.61 200.91,406.61 201.25,406.61 201.58,406.61 201.92,411.75 202.25,416.88 202.59,416.88 202.92,416.88 203.26,416.88 203.59,416.88 203.93,416.88 204.26,411.75 204.60,416.88 204.93,422.01 205.27,422.01 205.60,411.75 205.94,411.75 206.27,411.75 206.61,411.75 206.94,416.88 207.28,416.88 207.61,422.01 207.95,422.01 208.28,422.01 208.62,422.01 208.95,427.14 209.29,427.14 209.62,427.14 209.96,427.14 210.29,427.14 210.63,427.14 210.96,427.14 211.30,422.01 211.63,422.01 211.97,422.01 212.30,422.01 212.64,427.14 212.97,427.14 213.31,422.01 213.64,422.01 213.98,416.88 214.31,416.88 214.65,416.88 214.98,416.88 215.32,422.01 215.65,427.14 215.99,427.14 216.32,432.27 216.66,432.27 216.99,432.27 217.33,432.27 217.66,432.27 218.00,432.27 218.33,432.27 218.67,432.27 219.00,432.27 219.34,427.14 219.67,427.14 220.01,427.14 220.34,427.14 220.68,427.14 221.01,427.14 221.35,427.14 221.68,422.01 222.02,422.01 222.35,422.01 222.69,422.01 223.02,422.01 223.36,422.01 223.69,422.01 224.03,422.01 224.36,422.01 224.70,427.14 225.03,416.88 225.37,416.88 225.70,422.01 226.04,422.01 226.37,416.88 226.71,416.88 227.04,411.75 227.38,406.61 227.71,396.35 228.05,396.35 228.38,396.35 228.72,396.35 229.05,396.35 229.39,396.35 229.72,396.35 230.06,396.35 230.39,396.35 230.73,396.35 231.06,401.48 231.40,401.48 231.73,401.48 232.07,406.61 232.40,406.61 232.74,401.48 233.07,401.48 233.41,401.48 233.74,401.48 234.08,406.61 234.41,406.61 234.75,406.61 235.08,401.48 235.42,401.48 235.75,401.48 236.09,401.48 236.42,406.61 236.76,401.48 237.09,396.35 237.43,396.35 237.76,391.22 238.10,391.22 238.43,391.22 238.77,391.22 239.10,391.22 239.44,391.22 239.77,391.22 240.11,391.22 240.44,386.09 240.78,386.09 241.11,386.09 241.45,380.96 241.78,380.96 242.12,380.96 242.45,375.82 242.79,375.82 243.12,370.69 243.46,375.82 243.79,380.96 244.13,380.96 244.46,380.96 244.80,391.22 245.13,391.22 245.47,391.22 245.80,391.22 246.14,396.35 246.47,396.35 246.81,396.35 247.14,396.35 247.48,396.35 247.81,396.35 248.15,391.22 248.48,391.22 248.82,386.09 249.15,386.09 249.49,386.09 249.82,391.22 250.16,391.22 250.49,391.22 250.83,391.22 251.16,391.22 251.50,391.22 251.83,391.22 252.17,391.22 252.50,391.22 252.84,391.22 253.17,391.22 253.51,391.22 253.84,391.22 254.18,391.22 254.51,391.22 254.85,391.22 255.18,391.22 255.52,391.22 255.85,386.09 256.19,386.09 256.52,386.09 256.86,386.09 257.19,391.22 257.53,391.22 257.86,391.22 258.20,391.22 258.53,391.22 258.87,396.35 259.20,396.35 259.54,396.35 259.87,396.35 260.21,396.35 260.54,396.35 260.88,396.35 261.21,396.35 261.55,396.35 261.88,396.35 262.22,391.22 262.55,396.35 262.89,401.48 263.22,401.48 263.56,401.48 263.89,406.61 264.23,406.61 264.56,406.61 264.90,406.61 265.23,406.61 265.57,406.61 265.90,411.75 266.24,411.75 266.57,411.75 266.91,411.75 267.24,411.75 267.58,416.88 267.91,416.88 268.25,416.88 268.58,422.01 268.92,411.75 269.25,406.61 269.59,406.61 269.92,406.61 270.26,411.75 270.59,427.14 270.93,427.14 271.26,422.01 271.60,416.88 271.93,416.88 272.27,416.88 272.60,411.75 272.94,411.75 273.27,411.75 273.61,411.75 273.94,411.75 274.28,411.75 274.61,406.61 274.95,406.61 275.28,406.61 275.62,406.61 275.95,401.48 276.29,396.35 276.62,396.35 276.96,391.22 277.29,396.35 277.63,396.35 277.96,396.35 278.30,396.35 278.63,396.35 278.97,401.48 279.30,401.48 279.64,406.61 279.97,406.61 280.31,406.61 280.64,406.61 280.98,406.61 281.31,411.75 281.65,411.75 281.98,411.75 282.32,411.75 282.65,406.61 282.99,406.61 283.32,406.61 283.66,401.48 283.99,401.48 284.33,401.48 284.66,401.48 285.00,401.48 285.33,401.48 285.67,406.61 286.00,401.48 286.34,401.48 286.67,391.22 287.01,386.09 287.34,391.22 287.68,391.22 288.01,391.22 288.35,391.22 288.68,391.22 289.02,391.22 289.35,391.22 289.69,391.22 290.02,391.22 290.36,391.22 290.69,391.22 291.03,391.22 291.36,401.48 291.70,401.48 292.03,401.48 292.37,401.48 292.70,401.48 293.04,401.48 293.37,401.48 293.71,401.48 294.04,401.48 294.38,401.48 294.71,406.61 295.05,406.61 295.38,401.48 295.72,401.48 296.05,401.48 296.39,401.48 296.72,396.35 297.06,396.35 297.39,396.35 297.73,396.35 298.06,396.35 298.40,396.35 298.73,401.48 299.07,401.48 299.40,401.48 299.74,401.48 300.07,401.48 300.41,401.48 300.74,401.48 301.08,401.48 301.41,406.61 301.75,406.61 302.08,406.61 302.42,406.61 302.75,406.61 303.09,406.61 303.42,406.61 303.76,406.61 304.09,406.61 304.43,406.61 304.76,406.61 305.10,406.61 305.43,411.75 305.77,411.75 306.10,411.75 306.44,411.75 306.77,406.61 307.11,406.61 307.44,406.61 307.78,406.61 308.11,406.61 308.45,406.61 308.78,406.61 309.12,406.61 309.45,406.61 309.79,406.61 310.12,406.61 310.46,401.48 310.79,401.48 311.13,406.61 311.46,406.61 311.80,406.61 312.13,406.61 312.47,406.61 312.80,401.48 313.14,401.48 313.47,401.48 313.81,401.48 314.14,401.48 314.48,401.48 314.81,401.48 315.15,401.48 315.48,401.48 315.82,401.48 316.15,391.22 316.49,386.09 316.82,386.09 317.16,386.09 317.49,386.09 317.83,386.09 318.16,386.09 318.50,386.09 318.83,380.96 319.17,380.96 319.50,375.82 319.84,375.82 320.17,380.96 320.51,380.96 320.84,380.96 321.18,380.96 321.51,380.96 321.85,380.96 322.18,380.96 322.52,380.96 322.85,380.96 323.19,375.82 323.52,370.69 323.86,370.69 324.19,370.69 324.53,375.82 324.86,375.82 325.20,385.06 325.53,385.06 325.87,390.19 326.20,390.19 326.54,390.19 326.87,390.19 327.21,390.19 327.54,390.19 327.88,390.19 328.21,390.19 328.55,390.19 328.88,390.19 329.22,390.19 329.55,390.19 329.89,390.19 330.22,390.19 330.56,390.19 330.89,390.19 331.23,390.19 331.56,390.19 331.90,390.19 332.23,390.19 332.57,390.19 332.90,390.19 333.24,385.06 333.57,385.06 333.91,385.06 334.24,385.06 334.58,385.06 334.91,379.93 335.25,379.93 335.58,379.93 335.92,379.93 336.25,379.93 336.59,379.93 336.92,379.93 337.26,379.93 337.59,379.93 337.93,379.93 338.26,379.93 338.60,379.93 338.93,379.93 339.27,385.06 339.60,385.06 339.94,385.06 340.27,390.19 340.61,390.19 340.94,390.19 341.28,385.06 341.61,385.06 341.95,385.06 342.28,385.06 342.62,385.06 342.95,385.06 343.29,385.06 343.62,385.06 343.96,390.19 344.29,390.19 344.63,390.19 344.96,395.32 345.30,390.19 345.63,390.19 345.97,395.32 346.30,395.32 346.64,400.46 346.97,400.46 347.31,400.46 347.64,400.46 347.98,395.32 348.31,395.32 348.65,395.32 348.98,395.32 349.32,395.32 349.65,395.32 349.99,395.32 350.32,395.32 350.66,399.43 350.99,394.30 351.33,394.30 351.66,394.30 352.00,394.30 352.33,394.30 352.67,399.43 353.00,399.43 353.34,399.43 353.67,399.43 354.01,399.43 354.34,399.43 354.68,399.43 355.01,399.43 355.35,399.43 355.68,399.43 356.02,399.43 356.35,404.56 356.69,404.56 357.02,404.56 357.36,404.56 357.69,404.56 358.03,404.56 358.36,404.56 358.70,404.56 359.03,409.69 359.37,409.69 359.70,409.69 360.04,414.82 360.37,414.82 360.71,414.82 361.04,425.09 361.38,425.09 361.71,425.09 362.05,425.09 362.38,425.09 362.72,425.09 363.05,430.22 363.39,430.22 363.72,430.22 364.06,430.22 364.39,430.22 364.73,430.22 365.06,430.22 365.40,430.22 365.73,430.22 366.07,430.22 366.40,430.22 366.74,430.22 367.07,435.35 367.41,435.35 367.74,435.35 368.08,435.35 368.41,435.35 368.75,435.35 369.08,435.35 369.42,435.35 369.75,435.35 370.09,435.35 370.42,435.35 370.76,435.35 371.09,435.35 371.43,435.35 371.76,435.35 372.10,430.22 372.43,430.22 372.77,430.22 373.10,430.22 373.44,430.22 373.77,430.22 374.11,430.22 374.44,425.09 374.78,425.09 375.11,425.09 375.45,425.09 375.78,419.96 376.12,419.96 376.45,419.96 376.79,419.96 377.12,414.82 377.46,414.82 377.79,414.82 378.13,414.82 378.46,414.82 378.80,414.82 379.13,414.82 379.47,414.82 379.80,414.82 380.14,414.82 380.47,414.82 380.81,409.69 381.14,409.69 381.48,409.69 381.81,409.69 382.15,409.69 382.48,409.69 382.82,409.69 383.15,409.69 383.49,409.69 383.82,404.56 384.16,404.56 384.49,404.56 384.83,404.56 385.16,404.56 385.50,404.56 385.83,404.56 386.17,409.69 386.50,409.69 386.84,409.69 387.17,409.69 387.51,409.69 387.84,409.69 388.18,409.69 388.51,409.69 388.85,409.69 389.18,414.82 389.52,419.96 389.85,419.96 390.19,414.82 390.52,414.82 390.86,414.82 391.19,414.82 391.53,414.82 391.86,419.96 392.20,419.96 392.53,414.82 392.87,414.82 393.20,414.82 393.54,414.82 393.87,414.82 394.21,414.82 394.54,414.82 394.88,414.82 395.21,414.82 395.55,414.82 395.88,414.82 396.22,419.96 396.55,419.96 396.89,419.96 397.22,419.96 397.56,419.96 397.89,414.82 398.23,414.82 398.56,414.82 398.90,414.82 399.23,409.69 399.57,404.56 399.90,404.56 400.24,399.43 400.57,389.17 400.91,389.17 401.24,384.03 401.58,384.03 401.91,384.03 402.25,384.03 402.58,384.03 402.92,384.03 403.25,384.03 403.59,384.03 403.92,384.03 404.26,384.03 404.59,384.03 404.93,384.03 405.26,389.17 405.60,389.17 405.93,384.03 406.27,384.03 406.60,384.03 406.94,384.03 407.27,384.03 407.61,384.03 407.94,384.03 408.28,378.90 408.61,378.90 408.95,378.90 409.28,378.90 409.62,378.90 409.95,378.90 410.29,378.90 410.62,373.77 410.96,373.77 411.29,373.77 411.63,373.77 411.96,373.77 412.30,373.77 412.63,378.90 412.97,378.90 413.30,368.64 413.64,368.64 413.97,373.77 414.31,373.77 414.64,373.77 414.98,373.77 415.31,373.77 415.65,373.77 415.98,373.77 416.32,368.64 416.65,363.51 416.99,363.51 417.32,358.38 417.66,358.38 417.99,358.38 418.33,353.24 418.66,353.24 419.00,353.24 419.33,353.24 419.67,353.24 420.00,353.24 420.34,348.11 420.67,348.11 421.01,348.11 421.34,348.11 421.68,348.11 422.01,348.11 422.35,348.11 422.68,353.24 423.02,353.24 423.35,353.24 423.69,353.24 424.02,353.24 424.36,353.24 424.69,348.11 425.03,348.11 425.36,348.11 425.70,348.11 426.03,348.11 426.37,348.11 426.70,348.11 427.04,348.11 427.37,342.98 427.71,348.11 428.04,348.11 428.38,348.11 428.71,348.11 429.05,348.11 429.38,358.38 429.72,353.24 430.05,353.24 430.39,353.24 430.72,358.38 431.06,358.38 431.39,348.11 431.73,358.38 432.06,363.51 432.40,363.51 432.73,363.51 433.07,363.51 433.40,363.51 433.74,363.51 434.07,358.38 434.41,358.38 434.74,358.38 435.08,363.51 435.41,363.51 435.75,363.51 436.08,363.51 436.42,363.51 436.75,363.51 437.09,363.51 437.42,363.51 437.76,363.51 438.09,363.51 438.43,358.38 438.76,353.24 439.10,353.24 439.43,353.24 439.77,348.11 440.10,342.98 440.44,342.98 440.77,342.98 441.11,337.85 441.44,337.85 441.78,337.85 442.11,337.85 442.45,332.72 442.78,332.72 443.12,322.45 443.45,317.32 443.79,317.32 444.12,317.32 444.46,317.32 444.79,322.45 445.13,332.72 445.46,332.72 445.80,342.98 446.13,342.98 446.47,337.85 446.80,337.85 447.14,337.85 447.47,337.85 447.81,337.85 448.14,337.85 448.48,337.85 448.81,337.85 449.15,337.85 449.48,332.72 449.82,332.72 450.15,332.72 450.49,332.72 450.82,332.72 451.16,334.26 451.49,334.26 451.83,329.13 452.16,329.13 452.50,323.99 452.83,323.99 453.17,329.13 453.50,329.13 453.84,318.86 454.17,308.60 454.51,313.73 454.84,313.73 455.18,313.73 455.51,313.73 455.85,313.73 456.18,308.60 456.52,303.47 456.85,303.47 457.19,303.47 457.52,303.47 457.86,303.47 458.19,303.47 458.53,303.47 458.86,303.47 459.20,303.47 459.53,303.47 459.87,303.47 460.20,303.47 460.54,303.47 460.87,298.34 461.21,298.34 461.54,298.34 461.88,298.34 462.21,282.94 462.55,282.94 462.88,282.94 463.22,277.81 463.55,277.81 463.89,272.68 464.22,277.81 464.56,277.81 464.89,282.94 465.23,277.81 465.56,277.81 465.90,277.81 466.23,277.81 466.57,277.81 466.90,277.81 467.24,282.94 467.57,288.07 467.91,293.20 468.24,293.20 468.58,277.81 468.91,277.81 469.25,277.81 469.58,272.68 469.92,262.41 470.25,257.28 470.59,257.28 470.92,257.28 471.26,257.28 471.59,252.15 471.93,252.15 472.26,252.15 472.60,247.02 472.93,247.02 473.27,247.02 473.60,247.02 473.94,247.02 474.27,247.02 474.61,247.02 474.94,247.02 475.28,247.02 475.61,247.02 475.95,247.02 476.28,247.02 476.62,247.02 476.95,247.02 477.29,247.02 477.62,247.02 477.96,247.02 478.29,247.02 478.63,247.02 478.96,247.02 479.30,247.02 479.63,247.02 479.97,247.02 480.30,247.02 480.64,241.89 480.97,241.89 481.31,241.89 481.64,241.89 481.98,247.02 482.31,247.02 482.65,241.89 482.98,247.02 483.32,247.02 483.65,247.02 483.99,247.02 484.32,247.02 484.66,247.02 484.99,247.02 485.33,247.02 485.66,247.02 486.00,247.02 486.33,247.02 486.67,247.02 487.00,247.02 487.34,247.02 487.67,247.02 488.01,247.02 488.34,247.02 488.68,247.02 489.01,247.02 489.35,247.02 489.68,247.02 490.02,252.15 490.35,257.28 490.69,257.28 491.02,257.28 491.36,257.28 491.69,262.41 492.03,262.41 492.36,267.55 492.70,272.68 493.03,272.68 493.37,272.68 493.70,272.68 494.04,272.68 494.37,272.68 494.71,272.68 495.04,272.68 495.38,272.68 495.71,272.68 496.05,272.68 496.38,272.68 496.72,272.68 497.05,272.68 497.39,262.41 497.72,262.41 498.06,262.41 498.39,267.55 498.73,267.55 499.06,267.55 499.40,267.55 499.73,267.55 500.07,267.55 500.40,267.55 500.74,262.41 501.07,262.41 501.41,262.41 501.74,262.41 502.08,262.41 502.41,262.41 502.75,262.41 503.08,262.41 503.42,262.41 503.75,262.41 504.09,262.41 504.42,262.41 504.76,267.55 505.09,267.55 505.43,272.68 505.76,272.68 506.10,272.68 506.43,267.55 506.77,267.55 507.10,262.41 507.44,257.28 507.77,257.28 508.11,257.28 508.44,257.28 508.78,257.28 509.11,257.28 509.45,257.28 509.78,257.28 510.12,257.28 510.45,257.28 510.79,257.28 511.12,257.28 511.46,262.41 511.79,262.41 512.13,257.28 512.46,257.28 512.80,257.28 513.13,257.28 513.47,262.41 513.80,262.41 514.14,262.41 514.47,262.41 514.81,257.28 515.14,257.28 515.48,257.28 515.81,257.28 516.15,257.28 516.48,257.28 516.82,257.28 517.15,257.28 517.49,257.28 517.82,257.28 518.16,262.41 518.49,257.28 518.83,257.28 519.16,257.28 519.50,257.28 519.83,257.28 520.17,262.41 520.50,267.55 520.84,267.55 521.17,267.55 521.51,267.55 521.84,267.55 522.18,267.55 522.51,262.41 522.85,262.41 523.18,262.41 523.52,262.41 523.85,267.55 524.19,267.55 524.52,267.55 524.86,267.55 525.19,267.55 525.53,267.55 525.86,267.55 526.20,267.55 526.53,267.55 526.87,267.55 527.20,267.55 527.54,262.41 527.87,257.28 528.21,257.28 528.54,257.28 528.88,257.28 529.21,257.28 529.55,257.28 529.88,257.28 530.22,262.41 530.55,262.41 530.89,262.41 531.22,262.41 531.56,262.41 531.89,267.55 532.23,262.41 532.56,257.28 532.90,252.15 533.23,252.15 533.57,252.15 533.90,252.15 534.24,252.15 534.57,252.15 534.91,252.15 535.24,252.15 535.58,252.15 535.91,252.15 536.25,252.15 536.58,252.15 536.92,257.28 537.25,257.28 537.59,257.28 537.92,257.28 538.26,257.28 538.59,257.28 538.93,257.28 539.26,257.28 539.60,262.41 539.93,267.55 540.27,262.41 540.60,262.41 540.94,262.41 541.27,267.55 541.61,267.55 541.94,267.55 542.28,267.55 542.61,267.55 542.95,267.55 543.28,267.55 543.62,267.55 543.95,267.55 544.29,267.55 544.62,267.55 544.96,267.55 545.29,267.55 545.63,267.55 545.96,272.68 546.30,272.68 546.63,272.68 546.97,272.68 547.30,272.68 547.64,272.68 547.97,277.81 548.31,277.81 548.64,272.68 548.98,272.68 549.31,272.68 549.65,272.68 549.98,272.68 550.32,272.68 550.65,272.68 550.99,272.68 551.32,277.81 551.66,277.81 551.99,277.81 552.33,277.81 552.66,282.94 553.00,282.94 553.33,282.94 553.67,282.94 554.00,282.94 554.34,282.94 554.67,282.94 555.01,282.94 555.34,282.94 555.68,282.94 556.01,288.07 556.35,293.20 556.68,277.81 557.02,272.68 557.35,272.68 557.69,272.68 558.02,272.68 558.36,272.68 558.69,267.55 559.03,267.55 559.36,267.55 559.70,267.55 560.03,267.55 560.37,267.55 560.70,267.55 561.04,267.55 561.37,267.55 561.71,267.55 562.04,267.55 562.38,267.55 562.71,267.55 563.05,267.55 563.38,267.55 563.72,267.55 564.05,267.55 564.39,267.55 564.72,267.55 565.06,262.41 565.39,262.41 565.73,262.41 566.06,262.41 566.40,262.41 566.73,262.41 567.07,257.28 567.40,257.28 567.74,257.28 568.07,257.28 568.41,257.28 568.74,257.28 569.08,257.28 569.41,257.28 569.75,252.15 570.08,247.02 570.42,247.02 570.75,247.02 571.09,247.02 571.42,247.02 571.76,247.02 572.09,247.02 572.43,247.02 572.76,247.02 573.10,247.02 573.43,247.02 573.77,247.02 574.10,247.02 574.44,247.02 574.77,247.02 575.11,247.02 575.44,247.02 575.78,241.89 576.11,236.76 576.45,236.76 576.78,236.76 577.12,236.76 577.45,231.62 577.79,231.62 578.12,231.62 578.46,226.49 578.79,226.49 579.13,226.49 579.46,226.49 579.80,226.49 580.13,226.49 580.47,226.49 580.80,226.49 581.14,226.49 581.47,226.49 581.81,226.49 582.14,226.49 582.48,226.49 582.81,226.49 583.15,226.49 583.48,226.49 583.82,226.49 584.15,226.49 584.49,226.49 584.82,226.49 585.16,226.49 585.49,226.49 585.83,226.49 586.16,226.49 586.50,226.49 586.83,226.49 587.17,226.49 587.50,226.49 587.84,221.36 588.17,221.36 588.51,221.36 588.84,221.36 589.18,221.36 589.51,221.36 589.85,221.36 590.18,226.49 590.52,216.23 590.85,216.23 591.19,216.23 591.52,216.23 591.86,211.10 592.19,211.10 592.53,205.97 592.86,205.97 593.20,205.97 593.53,205.97 593.87,211.10 594.20,211.10 594.54,211.10 594.87,216.23 595.21,216.23 595.54,216.23 595.88,221.36 596.21,221.36 596.55,226.49 596.88,226.49 597.22,226.49 597.55,226.49 597.89,226.49 598.22,226.49 598.56,226.49 598.89,226.49 599.23,226.49 599.56,226.49 599.90,216.23 600.23,216.23 600.57,216.23 600.90,216.23 601.24,216.23 601.57,216.23 601.91,216.23 602.24,216.23 602.58,216.23 602.91,216.23 603.25,221.36 603.58,221.36 603.92,221.36 604.25,226.49 604.59,226.49 604.92,226.49 605.26,226.49 605.59,231.62 605.93,226.49 606.26,226.49 606.60,221.36 606.93,221.36 607.27,221.36 607.60,226.49 607.94,226.49 608.27,226.49 608.61,226.49 608.94,226.49 609.28,226.49 609.61,231.62 609.95,231.62 610.28,231.62 610.62,231.62 610.95,231.62 611.29,231.62 611.62,231.62 611.96,231.62 612.29,226.49 612.63,216.23 612.96,216.23 613.30,211.10 613.63,200.83 613.97,200.83 614.30,200.83 614.64,195.70 614.97,195.70 615.31,195.70 615.64,195.70 615.98,195.70 616.31,200.83 616.65,200.83 616.98,200.83 617.32,200.83 617.65,200.83 617.99,200.83 618.32,195.70 618.66,195.70 618.99,195.70 619.33,204.94 619.66,210.07 620.00,210.07 620.33,204.94 620.67,204.94 621.00,204.94 621.34,199.81 621.67,199.81 622.01,184.41 622.34,184.41 622.68,184.41 623.01,184.41 623.35,179.28 623.68,179.28 624.02,184.41 624.35,184.41 624.69,179.28 625.02,179.28 625.36,179.28 625.69,179.28 626.03,179.28 626.36,179.28 626.70,179.28 627.03,174.15 627.37,174.15 627.70,174.15 628.04,174.15 628.37,169.02 628.71,169.02 629.04,169.02 629.38,174.15 629.71,169.02 630.05,169.02 630.38,174.15 630.72,169.02 631.05,163.89 631.39,158.76 631.72,158.76 632.06,158.76 632.39,163.89 632.73,163.89 633.06,163.89 633.40,158.76 633.73,158.76 634.07,158.76 634.40,158.76 634.74,158.76 635.07,158.76 635.41,158.76 635.74,158.76 636.08,158.76 636.41,158.76 636.75,158.76 637.08,158.76 637.42,158.76 637.75,158.76 638.09,158.76 638.42,148.49 638.76,148.49 639.09,143.36 639.43,143.36 639.76,143.36 640.10,143.36 640.43,143.36 640.77,143.36 641.10,143.36 641.44,143.36 641.77,143.36 642.11,148.49 642.44,148.49 642.78,148.49 643.11,148.49 643.45,148.49 643.78,148.49 644.12,148.49 644.45,148.49 644.79,153.62 645.12,153.62 645.46,153.62 645.79,153.62 646.13,148.49 646.46,148.49 646.80,148.49 647.13,148.49 647.47,148.49 647.80,148.49 648.14,148.49 648.47,148.49 648.81,148.49 649.14,153.62 649.48,153.62 649.81,153.62 650.15,153.62 650.48,153.62 650.82,153.62 651.15,153.62 651.49,153.62 651.82,153.62 652.16,148.49 652.49,148.49 652.83,153.62 653.16,153.62 653.50,153.62 653.83,148.49 654.17,148.49 654.50,148.49 654.84,148.49 655.17,148.49 655.51,143.36 655.84,143.36 656.18,143.36 656.51,143.36 656.85,143.36 657.18,143.36 657.52,143.36 657.85,143.36 658.19,143.36 658.52,138.23 658.86,138.23 659.19,138.23 659.53,138.23 659.86,143.36 660.20,148.49 660.53,138.23 660.87,133.10 661.20,133.10 661.54,127.97 661.87,133.10 662.21,133.10 662.54,122.83 662.88,122.83 663.21,122.83 663.55,127.97 663.88,127.97 664.22,127.97 664.55,127.97 664.89,127.97 665.22,127.97 665.56,127.97 665.89,127.97 666.23,127.97 666.56,127.97 666.90,138.23 667.23,138.23 667.57,138.23 667.90,138.23 668.24,138.23 668.57,138.23 668.91,138.23 669.24,138.23 669.58,138.23 669.91,143.36 670.25,143.36 670.58,148.49 670.92,148.49 671.25,148.49 671.59,148.49 671.92,148.49 672.26,148.49 672.59,148.49 672.93,148.49 673.26,148.49 673.60,148.49 673.93,148.49 674.27,143.36 674.60,143.36 674.94,143.36 675.27,143.36 675.61,143.36 675.94,143.36 676.28,143.36 676.61,143.36 676.95,143.36 677.28,143.36 677.62,143.36 677.95,143.36 678.29,143.36 678.62,143.36 678.96,143.36 679.29,143.36 679.63,143.36 679.96,143.36 680.30,143.36 680.63,143.36 680.97,143.36 681.30,143.36 681.64,143.36 681.97,143.36 682.31,148.49 682.64,148.49 682.98,148.49 683.31,148.49 683.65,148.49 683.98,143.36 684.32,133.10 684.65,133.10 684.99,133.10 685.32,133.10 685.66,133.10 685.99,133.10 686.33,133.10 686.66,143.36 687.00,143.36 687.33,143.36 687.67,138.23 688.00,133.10 688.34,133.10 688.67,133.10 689.01,133.10 689.34,133.10 689.68,133.10 690.01,133.10 690.35,133.10 690.68,133.10 691.02,133.10 691.35,133.10 691.69,133.10 692.02,133.10 692.36,133.10 692.69,133.10 693.03,133.10 693.36,122.83 693.70,122.83 694.03,122.83 694.37,122.83 694.70,122.83 695.04,122.83 695.37,122.83 695.71,127.97 696.04,127.97 696.38,127.97 696.71,122.83 697.05,122.83 697.38,122.83 697.72,122.83 698.05,122.83 698.39,122.83 698.72,122.83 699.06,122.83 699.39,122.83 699.73,122.83 700.06,122.83 700.40,117.70 700.73,117.70 701.07,117.70 701.40,117.70 701.74,117.70 702.07,117.70 702.41,117.70 702.74,112.57 703.08,107.44 703.41,102.31 703.75,97.18 704.08,86.91 704.42,86.91 704.75,81.78 705.09,81.78 705.42,81.78 705.76,81.78 706.09,81.78 706.43,76.65 706.76,76.65 707.10,76.65 707.43,76.65 707.77,76.65 708.10,76.65 708.44,76.65 708.77,76.65 709.11,76.65 709.44,76.65 709.78,76.65 710.11,76.65 710.45,76.65 710.78,76.65 711.12,76.65 711.45,76.65 711.79,76.65 712.12,81.78 712.46,81.78 712.79,81.78 713.13,81.78 713.46,86.91 713.80,86.91 714.13,86.91 714.47,86.91 714.80,86.91 715.14,86.91 715.47,86.91 715.81,92.04 716.14,97.18 716.48,97.18 716.81,97.18 717.15,97.18 717.48,102.31 717.82,102.31 718.15,102.31 718.49,102.31 718.82,102.31 719.16,102.31 719.49,102.31 719.83,102.31 720.16,102.31 720.50,102.31 720.83,102.31 721.17,102.31 721.50,102.31 721.84,102.31 722.17,102.31 722.51,102.31 722.84,107.44 723.18,107.44 723.51,107.44 723.85,107.44 724.18,107.44 724.52,102.31 724.85,102.31 725.19,102.31 725.52,102.31 725.86,107.44 726.19,107.44 726.53,107.44 726.86,107.44 727.20,112.57 727.53,112.57 727.87,112.57 728.20,112.57 728.54,112.57 728.87,112.57 729.21,112.57 729.54,107.44 729.88,107.44 730.21,107.44 730.55,107.44 730.88,107.44 731.22,107.44 731.55,107.44 731.89,107.44 732.22,107.44 732.56,107.44 732.89,107.44 733.23,107.44 733.56,97.18 733.90,97.18 734.23,102.31 734.57,102.31 734.90,102.31 735.24,102.31 735.57,97.18 735.91,97.18 736.24,97.18 736.58,97.18 736.91,97.18 737.25,97.18 737.58,92.04 737.92,92.04 738.25,97.18 738.59,102.31 738.92,107.44 739.26,107.44 739.59,107.44 739.93,107.44 740.26,107.44 740.60,107.44 740.93,107.44 741.27,107.44 741.60,107.44 741.94,107.44 742.27,107.44 742.61,107.44 742.94,107.44 743.28,107.44 743.61,107.44 743.95,107.44 744.28,97.18 744.62,97.18 744.95,97.18 745.29,97.18 745.62,97.18 745.96,102.31 746.29,97.18 746.63,97.18 746.96,97.18 747.30,97.18 747.63,92.04 747.97,92.04 748.30,92.04 748.64,92.04 748.97,92.04 749.31,92.04 749.64,92.04 749.98,97.18 750.31,97.18 750.65,97.18 750.98,97.18 751.32,92.04 751.65,92.04 751.99,92.04 752.32,92.04 752.66,92.04 752.99,92.04 753.33,81.78 753.66,81.78 754.00,81.78 754.33,81.78 754.67,86.91 755.00,86.91"/>
<line x1="783" y1="58" x2="809" y2="58" stroke="#2563eb" stroke-width="3"/>
<text x="817" y="62" font-family="Arial" font-size="13" fill="#111827">Naive</text>
<polyline fill="none" stroke="#dc2626" stroke-width="2" points="85.00,380.96 85.34,380.96 85.67,386.09 86.01,386.09 86.34,386.09 86.68,380.96 87.01,380.96 87.35,391.22 87.68,391.22 88.02,391.22 88.35,391.22 88.69,391.22 89.02,391.22 89.36,391.22 89.69,386.09 90.03,386.09 90.36,386.09 90.70,391.22 91.03,396.35 91.37,406.61 91.70,406.61 92.04,406.61 92.37,406.61 92.71,406.61 93.04,406.61 93.38,406.61 93.71,406.61 94.05,406.61 94.38,401.48 94.72,401.48 95.05,401.48 95.39,406.61 95.72,406.61 96.06,406.61 96.39,406.61 96.73,411.75 97.06,411.75 97.40,411.75 97.73,411.75 98.07,411.75 98.40,411.75 98.74,411.75 99.07,411.75 99.41,406.61 99.74,401.48 100.08,401.48 100.41,396.35 100.75,391.22 101.08,396.35 101.42,396.35 101.75,396.35 102.09,401.48 102.42,401.48 102.76,401.48 103.09,401.48 103.43,406.61 103.76,406.61 104.10,406.61 104.43,401.48 104.77,401.48 105.10,396.35 105.44,396.35 105.77,396.35 106.11,396.35 106.44,391.22 106.78,391.22 107.11,391.22 107.45,391.22 107.78,386.09 108.12,386.09 108.45,386.09 108.79,386.09 109.12,375.82 109.46,375.82 109.79,375.82 110.13,375.82 110.46,375.82 110.80,375.82 111.13,375.82 111.47,375.82 111.80,375.82 112.14,375.82 112.47,386.09 112.81,391.22 113.14,386.09 113.48,386.09 113.81,386.09 114.15,386.09 114.48,380.96 114.82,380.96 115.15,386.09 115.49,386.09 115.82,391.22 116.16,391.22 116.49,391.22 116.83,391.22 117.16,396.35 117.50,396.35 117.83,396.35 118.17,396.35 118.50,391.22 118.84,386.09 119.17,386.09 119.51,386.09 119.84,386.09 120.18,386.09 120.51,386.09 120.85,386.09 121.18,396.35 121.52,396.35 121.85,396.35 122.19,399.43 122.52,399.43 122.86,399.43 123.19,399.43 123.53,399.43 123.86,399.43 124.20,394.30 124.53,389.17 124.87,389.17 125.20,389.17 125.54,389.17 125.87,384.03 126.21,384.03 126.54,384.03 126.88,384.03 127.21,389.17 127.55,389.17 127.88,394.30 128.22,394.30 128.55,394.30 128.89,394.30 129.22,394.30 129.56,389.17 129.89,389.17 130.23,389.17 130.56,389.17 130.90,389.17 131.23,389.17 131.57,384.03 131.90,389.17 132.24,389.17 132.57,389.17 132.91,389.17 133.24,389.17 133.58,384.03 133.91,384.03 134.25,384.03 134.58,389.17 134.92,399.43 135.25,399.43 135.59,404.56 135.92,404.56 136.26,399.43 136.59,399.43 136.93,399.43 137.26,399.43 137.60,399.43 137.93,399.43 138.27,399.43 138.60,399.43 138.94,394.30 139.27,404.56 139.61,404.56 139.94,401.48 140.28,401.48 140.61,401.48 140.95,411.75 141.28,411.75 141.62,422.01 141.95,422.01 142.29,416.88 142.62,416.88 142.96,416.88 143.29,422.01 143.63,422.01 143.96,422.01 144.30,422.01 144.63,416.88 144.97,416.88 145.30,416.88 145.64,416.88 145.97,416.88 146.31,416.88 146.64,416.88 146.98,416.88 147.31,416.88 147.65,416.88 147.98,416.88 148.32,416.88 148.65,416.88 148.99,422.01 149.32,422.01 149.66,422.01 149.99,422.01 150.33,416.88 150.66,416.88 151.00,416.88 151.33,416.88 151.67,411.75 152.00,406.61 152.34,406.61 152.67,406.61 153.01,401.48 153.34,401.48 153.68,401.48 154.01,401.48 154.35,401.48 154.68,401.48 155.02,401.48 155.35,401.48 155.69,401.48 156.02,401.48 156.36,406.61 156.69,406.61 157.03,406.61 157.36,406.61 157.70,406.61 158.03,406.61 158.37,401.48 158.70,411.75 159.04,411.75 159.37,411.75 159.71,411.75 160.04,411.75 160.38,411.75 160.71,411.75 161.05,411.75 161.38,411.75 161.72,416.88 162.05,416.88 162.39,411.75 162.72,411.75 163.06,411.75 163.39,411.75 163.73,411.75 164.06,411.75 164.40,411.75 164.73,406.61 165.07,406.61 165.40,406.61 165.74,401.48 166.07,396.35 166.41,391.22 166.74,391.22 167.08,386.09 167.41,386.09 167.75,386.09 168.08,386.09 168.42,380.96 168.75,380.96 169.09,380.96 169.42,386.09 169.76,386.09 170.09,386.09 170.43,386.09 170.76,386.09 171.10,391.22 171.43,386.09 171.77,386.09 172.10,386.09 172.44,386.09 172.77,386.09 173.11,391.22 173.44,386.09 173.78,391.22 174.11,391.22 174.45,391.22 174.78,391.22 175.12,380.96 175.45,391.22 175.79,391.22 176.12,391.22 176.46,396.35 176.79,401.48 177.13,401.48 177.46,401.48 177.80,401.48 178.13,401.48 178.47,406.61 178.80,406.61 179.14,401.48 179.47,401.48 179.81,401.48 180.14,401.48 180.48,401.48 180.81,401.48 181.15,401.48 181.48,401.48 181.82,401.48 182.15,401.48 182.49,401.48 182.82,396.35 183.16,396.35 183.49,391.22 183.83,391.22 184.16,391.22 184.50,391.22 184.83,391.22 185.17,396.35 185.50,396.35 185.84,401.48 186.17,396.35 186.51,396.35 186.84,396.35 187.18,401.48 187.51,401.48 187.85,401.48 188.18,401.48 188.52,406.61 188.85,406.61 189.19,411.75 189.52,406.61 189.86,406.61 190.19,411.75 190.53,406.61 190.86,411.75 191.20,411.75 191.53,411.75 191.87,411.75 192.20,411.75 192.54,406.61 192.87,406.61 193.21,406.61 193.54,411.75 193.88,411.75 194.21,411.75 194.55,416.88 194.88,416.88 195.22,416.88 195.55,416.88 195.89,416.88 196.22,422.01 196.56,422.01 196.89,422.01 197.23,422.01 197.56,422.01 197.90,422.01 198.23,422.01 198.57,422.01 198.90,422.01 199.24,422.01 199.57,422.01 199.91,416.88 200.24,406.61 200.58,406.61 200.91,406.61 201.25,406.61 201.58,406.61 201.92,411.75 202.25,416.88 202.59,416.88 202.92,416.88 203.26,416.88 203.59,416.88 203.93,416.88 204.26,411.75 204.60,416.88 204.93,422.01 205.27,422.01 205.60,411.75 205.94,411.75 206.27,411.75 206.61,411.75 206.94,416.88 207.28,416.88 207.61,422.01 207.95,422.01 208.28,422.01 208.62,422.01 208.95,427.14 209.29,427.14 209.62,427.14 209.96,427.14 210.29,427.14 210.63,427.14 210.96,427.14 211.30,422.01 211.63,422.01 211.97,422.01 212.30,422.01 212.64,427.14 212.97,427.14 213.31,422.01 213.64,422.01 213.98,416.88 214.31,416.88 214.65,416.88 214.98,416.88 215.32,422.01 215.65,427.14 215.99,427.14 216.32,432.27 216.66,432.27 216.99,432.27 217.33,432.27 217.66,432.27 218.00,432.27 218.33,432.27 218.67,432.27 219.00,432.27 219.34,427.14 219.67,427.14 220.01,427.14 220.34,427.14 220.68,427.14 221.01,427.14 221.35,427.14 221.68,422.01 222.02,422.01 222.35,422.01 222.69,422.01 223.02,422.01 223.36,422.01 223.69,422.01 224.03,422.01 224.36,422.01 224.70,427.14 225.03,416.88 225.37,416.88 225.70,422.01 226.04,422.01 226.37,416.88 226.71,416.88 227.04,411.75 227.38,406.61 227.71,396.35 228.05,396.35 228.38,396.35 228.72,396.35 229.05,396.35 229.39,396.35 229.72,396.35 230.06,396.35 230.39,396.35 230.73,396.35 231.06,401.48 231.40,401.48 231.73,401.48 232.07,406.61 232.40,406.61 232.74,401.48 233.07,401.48 233.41,401.48 233.74,401.48 234.08,406.61 234.41,406.61 234.75,406.61 235.08,401.48 235.42,401.48 235.75,401.48 236.09,401.48 236.42,406.61 236.76,401.48 237.09,396.35 237.43,396.35 237.76,391.22 238.10,391.22 238.43,391.22 238.77,391.22 239.10,391.22 239.44,391.22 239.77,391.22 240.11,391.22 240.44,386.09 240.78,386.09 241.11,386.09 241.45,380.96 241.78,380.96 242.12,380.96 242.45,375.82 242.79,375.82 243.12,370.69 243.46,375.82 243.79,380.96 244.13,380.96 244.46,380.96 244.80,391.22 245.13,391.22 245.47,391.22 245.80,391.22 246.14,396.35 246.47,396.35 246.81,396.35 247.14,396.35 247.48,396.35 247.81,396.35 248.15,391.22 248.48,391.22 248.82,386.09 249.15,386.09 249.49,386.09 249.82,391.22 250.16,391.22 250.49,391.22 250.83,391.22 251.16,391.22 251.50,391.22 251.83,391.22 252.17,391.22 252.50,391.22 252.84,391.22 253.17,391.22 253.51,391.22 253.84,391.22 254.18,391.22 254.51,391.22 254.85,391.22 255.18,391.22 255.52,391.22 255.85,386.09 256.19,386.09 256.52,386.09 256.86,386.09 257.19,391.22 257.53,391.22 257.86,391.22 258.20,391.22 258.53,391.22 258.87,396.35 259.20,396.35 259.54,396.35 259.87,396.35 260.21,396.35 260.54,396.35 260.88,396.35 261.21,396.35 261.55,396.35 261.88,396.35 262.22,391.22 262.55,396.35 262.89,401.48 263.22,401.48 263.56,401.48 263.89,406.61 264.23,406.61 264.56,406.61 264.90,406.61 265.23,406.61 265.57,406.61 265.90,411.75 266.24,411.75 266.57,411.75 266.91,411.75 267.24,411.75 267.58,416.88 267.91,416.88 268.25,416.88 268.58,422.01 268.92,411.75 269.25,406.61 269.59,406.61 269.92,406.61 270.26,411.75 270.59,427.14 270.93,427.14 271.26,422.01 271.60,416.88 271.93,416.88 272.27,416.88 272.60,411.75 272.94,411.75 273.27,411.75 273.61,411.75 273.94,411.75 274.28,411.75 274.61,406.61 274.95,406.61 275.28,406.61 275.62,406.61 275.95,401.48 276.29,396.35 276.62,396.35 276.96,391.22 277.29,396.35 277.63,396.35 277.96,396.35 278.30,396.35 278.63,396.35 278.97,401.48 279.30,401.48 279.64,406.61 279.97,406.61 280.31,406.61 280.64,406.61 280.98,406.61 281.31,411.75 281.65,411.75 281.98,411.75 282.32,411.75 282.65,406.61 282.99,406.61 283.32,406.61 283.66,401.48 283.99,401.48 284.33,401.48 284.66,401.48 285.00,401.48 285.33,401.48 285.67,406.61 286.00,401.48 286.34,401.48 286.67,391.22 287.01,386.09 287.34,391.22 287.68,391.22 288.01,391.22 288.35,391.22 288.68,391.22 289.02,391.22 289.35,391.22 289.69,391.22 290.02,391.22 290.36,391.22 290.69,391.22 291.03,391.22 291.36,401.48 291.70,401.48 292.03,401.48 292.37,401.48 292.70,401.48 293.04,401.48 293.37,401.48 293.71,401.48 294.04,401.48 294.38,401.48 294.71,406.61 295.05,406.61 295.38,401.48 295.72,401.48 296.05,401.48 296.39,401.48 296.72,396.35 297.06,396.35 297.39,396.35 297.73,396.35 298.06,396.35 298.40,396.35 298.73,401.48 299.07,401.48 299.40,401.48 299.74,401.48 300.07,401.48 300.41,401.48 300.74,401.48 301.08,401.48 301.41,406.61 301.75,406.61 302.08,406.61 302.42,406.61 302.75,406.61 303.09,406.61 303.42,406.61 303.76,406.61 304.09,406.61 304.43,406.61 304.76,406.61 305.10,406.61 305.43,411.75 305.77,411.75 306.10,411.75 306.44,411.75 306.77,406.61 307.11,406.61 307.44,406.61 307.78,406.61 308.11,406.61 308.45,406.61 308.78,406.61 309.12,406.61 309.45,406.61 309.79,406.61 310.12,406.61 310.46,401.48 310.79,401.48 311.13,406.61 311.46,406.61 311.80,406.61 312.13,406.61 312.47,406.61 312.80,401.48 313.14,401.48 313.47,401.48 313.81,401.48 314.14,401.48 314.48,401.48 314.81,401.48 315.15,401.48 315.48,401.48 315.82,401.48 316.15,391.22 316.49,386.09 316.82,386.09 317.16,386.09 317.49,386.09 317.83,386.09 318.16,386.09 318.50,386.09 318.83,380.96 319.17,380.96 319.50,375.82 319.84,375.82 320.17,380.96 320.51,380.96 320.84,380.96 321.18,380.96 321.51,380.96 321.85,380.96 322.18,380.96 322.52,380.96 322.85,380.96 323.19,375.82 323.52,370.69 323.86,370.69 324.19,370.69 324.53,375.82 324.86,375.82 325.20,385.06 325.53,385.06 325.87,390.19 326.20,390.19 326.54,390.19 326.87,390.19 327.21,390.19 327.54,390.19 327.88,390.19 328.21,390.19 328.55,390.19 328.88,390.19 329.22,390.19 329.55,390.19 329.89,390.19 330.22,390.19 330.56,390.19 330.89,390.19 331.23,390.19 331.56,390.19 331.90,390.19 332.23,390.19 332.57,390.19 332.90,390.19 333.24,385.06 333.57,385.06 333.91,385.06 334.24,385.06 334.58,385.06 334.91,379.93 335.25,379.93 335.58,379.93 335.92,379.93 336.25,379.93 336.59,379.93 336.92,379.93 337.26,379.93 337.59,379.93 337.93,379.93 338.26,379.93 338.60,379.93 338.93,379.93 339.27,385.06 339.60,385.06 339.94,385.06 340.27,390.19 340.61,395.32 340.94,395.32 341.28,390.19 341.61,390.19 341.95,390.19 342.28,390.19 342.62,390.19 342.95,390.19 343.29,390.19 343.62,390.19 343.96,395.32 344.29,395.32 344.63,395.32 344.96,400.46 345.30,395.32 345.63,395.32 345.97,400.46 346.30,400.46 346.64,405.59 346.97,405.59 347.31,405.59 347.64,405.59 347.98,400.46 348.31,400.46 348.65,400.46 348.98,400.46 349.32,400.46 349.65,400.46 349.99,400.46 350.32,400.46 350.66,404.56 350.99,399.43 351.33,399.43 351.66,399.43 352.00,399.43 352.33,399.43 352.67,404.56 353.00,404.56 353.34,404.56 353.67,404.56 354.01,404.56 354.34,404.56 354.68,404.56 355.01,404.56 355.35,404.56 355.68,404.56 356.02,404.56 356.35,409.69 356.69,409.69 357.02,409.69 357.36,409.69 357.69,409.69 358.03,409.69 358.36,409.69 358.70,409.69 359.03,414.82 359.37,414.82 359.70,414.82 360.04,419.96 360.37,419.96 360.71,419.96 361.04,430.22 361.38,430.22 361.71,430.22 362.05,430.22 362.38,430.22 362.72,430.22 363.05,435.35 363.39,435.35 363.72,435.35 364.06,435.35 364.39,435.35 364.73,435.35 365.06,435.35 365.40,435.35 365.73,435.35 366.07,435.35 366.40,435.35 366.74,435.35 367.07,440.48 367.41,440.48 367.74,440.48 368.08,440.48 368.41,440.48 368.75,440.48 369.08,440.48 369.42,440.48 369.75,440.48 370.09,440.48 370.42,440.48 370.76,440.48 371.09,440.48 371.43,440.48 371.76,440.48 372.10,435.35 372.43,435.35 372.77,435.35 373.10,435.35 373.44,435.35 373.77,435.35 374.11,435.35 374.44,430.22 374.78,430.22 375.11,430.22 375.45,430.22 375.78,425.09 376.12,425.09 376.45,425.09 376.79,425.09 377.12,419.96 377.46,419.96 377.79,419.96 378.13,419.96 378.46,419.96 378.80,419.96 379.13,419.96 379.47,419.96 379.80,419.96 380.14,425.09 380.47,425.09 380.81,419.96 381.14,419.96 381.48,419.96 381.81,419.96 382.15,419.96 382.48,419.96 382.82,419.96 383.15,419.96 383.49,419.96 383.82,414.82 384.16,414.82 384.49,414.82 384.83,419.96 385.16,419.96 385.50,419.96 385.83,419.96 386.17,425.09 386.50,425.09 386.84,425.09 387.17,425.09 387.51,425.09 387.84,425.09 388.18,425.09 388.51,425.09 388.85,425.09 389.18,430.22 389.52,435.35 389.85,435.35 390.19,430.22 390.52,430.22 390.86,430.22 391.19,430.22 391.53,430.22 391.86,435.35 392.20,435.35 392.53,430.22 392.87,430.22 393.20,430.22 393.54,430.22 393.87,430.22 394.21,430.22 394.54,430.22 394.88,430.22 395.21,430.22 395.55,430.22 395.88,430.22 396.22,435.35 396.55,435.35 396.89,435.35 397.22,435.35 397.56,435.35 397.89,430.22 398.23,430.22 398.56,430.22 398.90,430.22 399.23,425.09 399.57,419.96 399.90,419.96 400.24,414.82 400.57,404.56 400.91,404.56 401.24,399.43 401.58,399.43 401.91,399.43 402.25,399.43 402.58,399.43 402.92,399.43 403.25,399.43 403.59,399.43 403.92,399.43 404.26,399.43 404.59,399.43 404.93,399.43 405.26,404.56 405.60,404.56 405.93,399.43 406.27,399.43 406.60,399.43 406.94,399.43 407.27,399.43 407.61,399.43 407.94,399.43 408.28,394.30 408.61,394.30 408.95,394.30 409.28,389.17 409.62,389.17 409.95,389.17 410.29,389.17 410.62,384.03 410.96,384.03 411.29,384.03 411.63,384.03 411.96,384.03 412.30,384.03 412.63,389.17 412.97,389.17 413.30,378.90 413.64,378.90 413.97,384.03 414.31,384.03 414.64,384.03 414.98,384.03 415.31,384.03 415.65,384.03 415.98,384.03 416.32,378.90 416.65,373.77 416.99,373.77 417.32,368.64 417.66,368.64 417.99,368.64 418.33,363.51 418.66,363.51 419.00,363.51 419.33,363.51 419.67,363.51 420.00,363.51 420.34,358.38 420.67,358.38 421.01,358.38 421.34,358.38 421.68,358.38 422.01,358.38 422.35,358.38 422.68,363.51 423.02,363.51 423.35,363.51 423.69,363.51 424.02,363.51 424.36,363.51 424.69,358.38 425.03,358.38 425.36,358.38 425.70,358.38 426.03,358.38 426.37,358.38 426.70,358.38 427.04,358.38 427.37,353.24 427.71,358.38 428.04,358.38 428.38,358.38 428.71,358.38 429.05,358.38 429.38,368.64 429.72,363.51 430.05,363.51 430.39,363.51 430.72,368.64 431.06,368.64 431.39,358.38 431.73,368.64 432.06,373.77 432.40,373.77 432.73,373.77 433.07,373.77 433.40,373.77 433.74,373.77 434.07,368.64 434.41,368.64 434.74,368.64 435.08,373.77 435.41,373.77 435.75,373.77 436.08,373.77 436.42,373.77 436.75,373.77 437.09,373.77 437.42,373.77 437.76,373.77 438.09,373.77 438.43,368.64 438.76,363.51 439.10,363.51 439.43,363.51 439.77,358.38 440.10,353.24 440.44,353.24 440.77,353.24 441.11,348.11 441.44,348.11 441.78,348.11 442.11,348.11 442.45,342.98 442.78,342.98 443.12,332.72 443.45,327.59 443.79,327.59 444.12,327.59 444.46,327.59 444.79,332.72 445.13,342.98 445.46,342.98 445.80,353.24 446.13,353.24 446.47,348.11 446.80,348.11 447.14,348.11 447.47,348.11 447.81,348.11 448.14,348.11 448.48,348.11 448.81,348.11 449.15,348.11 449.48,342.98 449.82,342.98 450.15,342.98 450.49,342.98 450.82,342.98 451.16,344.52 451.49,344.52 451.83,339.39 452.16,339.39 452.50,334.26 452.83,334.26 453.17,339.39 453.50,339.39 453.84,329.13 454.17,318.86 454.51,323.99 454.84,323.99 455.18,323.99 455.51,323.99 455.85,323.99 456.18,318.86 456.52,313.73 456.85,313.73 457.19,313.73 457.52,313.73 457.86,313.73 458.19,313.73 458.53,313.73 458.86,313.73 459.20,313.73 459.53,313.73 459.87,313.73 460.20,313.73 460.54,313.73 460.87,308.60 461.21,308.60 461.54,308.60 461.88,308.60 462.21,293.20 462.55,293.20 462.88,293.20 463.22,288.07 463.55,288.07 463.89,282.94 464.22,288.07 464.56,288.07 464.89,293.20 465.23,288.07 465.56,288.07 465.90,288.07 466.23,288.07 466.57,288.07 466.90,288.07 467.24,293.20 467.57,298.34 467.91,303.47 468.24,303.47 468.58,288.07 468.91,288.07 469.25,288.07 469.58,282.94 469.92,272.68 470.25,267.55 470.59,267.55 470.92,267.55 471.26,267.55 471.59,262.41 471.93,262.41 472.26,262.41 472.60,257.28 472.93,257.28 473.27,257.28 473.60,257.28 473.94,257.28 474.27,257.28 474.61,257.28 474.94,257.28 475.28,257.28 475.61,257.28 475.95,257.28 476.28,257.28 476.62,257.28 476.95,257.28 477.29,257.28 477.62,257.28 477.96,257.28 478.29,257.28 478.63,257.28 478.96,257.28 479.30,257.28 479.63,257.28 479.97,257.28 480.30,257.28 480.64,252.15 480.97,252.15 481.31,252.15 481.64,252.15 481.98,257.28 482.31,257.28 482.65,252.15 482.98,257.28 483.32,257.28 483.65,257.28 483.99,257.28 484.32,257.28 484.66,257.28 484.99,257.28 485.33,257.28 485.66,257.28 486.00,257.28 486.33,257.28 486.67,257.28 487.00,257.28 487.34,257.28 487.67,257.28 488.01,257.28 488.34,257.28 488.68,257.28 489.01,257.28 489.35,257.28 489.68,257.28 490.02,262.41 490.35,267.55 490.69,267.55 491.02,267.55 491.36,267.55 491.69,272.68 492.03,272.68 492.36,277.81 492.70,282.94 493.03,282.94 493.37,282.94 493.70,282.94 494.04,282.94 494.37,282.94 494.71,282.94 495.04,282.94 495.38,282.94 495.71,282.94 496.05,282.94 496.38,282.94 496.72,282.94 497.05,282.94 497.39,272.68 497.72,272.68 498.06,272.68 498.39,277.81 498.73,277.81 499.06,277.81 499.40,277.81 499.73,277.81 500.07,277.81 500.40,277.81 500.74,272.68 501.07,272.68 501.41,272.68 501.74,272.68 502.08,272.68 502.41,272.68 502.75,272.68 503.08,272.68 503.42,272.68 503.75,272.68 504.09,272.68 504.42,272.68 504.76,277.81 505.09,277.81 505.43,282.94 505.76,282.94 506.10,282.94 506.43,277.81 506.77,277.81 507.10,272.68 507.44,267.55 507.77,267.55 508.11,267.55 508.44,267.55 508.78,267.55 509.11,267.55 509.45,267.55 509.78,267.55 510.12,267.55 510.45,267.55 510.79,267.55 511.12,267.55 511.46,272.68 511.79,272.68 512.13,267.55 512.46,267.55 512.80,267.55 513.13,267.55 513.47,272.68 513.80,272.68 514.14,272.68 514.47,272.68 514.81,267.55 515.14,267.55 515.48,267.55 515.81,267.55 516.15,267.55 516.48,267.55 516.82,267.55 517.15,267.55 517.49,267.55 517.82,267.55 518.16,272.68 518.49,267.55 518.83,267.55 519.16,267.55 519.50,267.55 519.83,267.55 520.17,272.68 520.50,277.81 520.84,277.81 521.17,277.81 521.51,277.81 521.84,277.81 522.18,277.81 522.51,272.68 522.85,272.68 523.18,272.68 523.52,272.68 523.85,277.81 524.19,277.81 524.52,277.81 524.86,277.81 525.19,277.81 525.53,277.81 525.86,277.81 526.20,277.81 526.53,277.81 526.87,277.81 527.20,277.81 527.54,272.68 527.87,267.55 528.21,267.55 528.54,267.55 528.88,267.55 529.21,267.55 529.55,267.55 529.88,267.55 530.22,272.68 530.55,272.68 530.89,272.68 531.22,272.68 531.56,272.68 531.89,277.81 532.23,272.68 532.56,267.55 532.90,262.41 533.23,262.41 533.57,262.41 533.90,262.41 534.24,262.41 534.57,262.41 534.91,262.41 535.24,262.41 535.58,262.41 535.91,262.41 536.25,262.41 536.58,262.41 536.92,267.55 537.25,267.55 537.59,267.55 537.92,267.55 538.26,267.55 538.59,267.55 538.93,267.55 539.26,267.55 539.60,272.68 539.93,277.81 540.27,272.68 540.60,272.68 540.94,272.68 541.27,277.81 541.61,277.81 541.94,272.68 542.28,272.68 542.61,272.68 542.95,272.68 543.28,267.55 543.62,267.55 543.95,267.55 544.29,267.55 544.62,267.55 544.96,267.55 545.29,267.55 545.63,267.55 545.96,272.68 546.30,272.68 546.63,272.68 546.97,272.68 547.30,272.68 547.64,272.68 547.97,277.81 548.31,277.81 548.64,272.68 548.98,272.68 549.31,272.68 549.65,277.81 549.98,277.81 550.32,277.81 550.65,277.81 550.99,277.81 551.32,282.94 551.66,282.94 551.99,282.94 552.33,282.94 552.66,288.07 553.00,288.07 553.33,288.07 553.67,288.07 554.00,288.07 554.34,288.07 554.67,288.07 555.01,288.07 555.34,288.07 555.68,288.07 556.01,293.20 556.35,298.34 556.68,282.94 557.02,277.81 557.35,277.81 557.69,277.81 558.02,277.81 558.36,277.81 558.69,272.68 559.03,272.68 559.36,272.68 559.70,272.68 560.03,272.68 560.37,272.68 560.70,272.68 561.04,272.68 561.37,272.68 561.71,272.68 562.04,272.68 562.38,272.68 562.71,272.68 563.05,272.68 563.38,272.68 563.72,272.68 564.05,272.68 564.39,272.68 564.72,272.68 565.06,267.55 565.39,267.55 565.73,267.55 566.06,267.55 566.40,267.55 566.73,267.55 567.07,262.41 567.40,262.41 567.74,262.41 568.07,262.41 568.41,262.41 568.74,262.41 569.08,262.41 569.41,262.41 569.75,257.28 570.08,252.15 570.42,252.15 570.75,252.15 571.09,252.15 571.42,252.15 571.76,252.15 572.09,252.15 572.43,252.15 572.76,252.15 573.10,252.15 573.43,252.15 573.77,252.15 574.10,252.15 574.44,252.15 574.77,252.15 575.11,252.15 575.44,252.15 575.78,247.02 576.11,241.89 576.45,241.89 576.78,241.89 577.12,241.89 577.45,236.76 577.79,236.76 578.12,236.76 578.46,231.62 578.79,231.62 579.13,231.62 579.46,231.62 579.80,231.62 580.13,231.62 580.47,231.62 580.80,231.62 581.14,231.62 581.47,231.62 581.81,231.62 582.14,231.62 582.48,231.62 582.81,231.62 583.15,231.62 583.48,231.62 583.82,231.62 584.15,231.62 584.49,231.62 584.82,231.62 585.16,231.62 585.49,231.62 585.83,231.62 586.16,231.62 586.50,231.62 586.83,231.62 587.17,231.62 587.50,231.62 587.84,226.49 588.17,226.49 588.51,226.49 588.84,226.49 589.18,226.49 589.51,226.49 589.85,226.49 590.18,231.62 590.52,221.36 590.85,221.36 591.19,221.36 591.52,221.36 591.86,216.23 592.19,216.23 592.53,211.10 592.86,211.10 593.20,211.10 593.53,211.10 593.87,216.23 594.20,216.23 594.54,216.23 594.87,216.23 595.21,216.23 595.54,216.23 595.88,221.36 596.21,221.36 596.55,226.49 596.88,226.49 597.22,226.49 597.55,226.49 597.89,226.49 598.22,226.49 598.56,226.49 598.89,226.49 599.23,226.49 599.56,226.49 599.90,216.23 600.23,216.23 600.57,216.23 600.90,211.10 601.24,211.10 601.57,211.10 601.91,211.10 602.24,211.10 602.58,211.10 602.91,211.10 603.25,216.23 603.58,216.23 603.92,216.23 604.25,221.36 604.59,221.36 604.92,221.36 605.26,221.36 605.59,226.49 605.93,221.36 606.26,221.36 606.60,216.23 606.93,216.23 607.27,216.23 607.60,221.36 607.94,221.36 608.27,221.36 608.61,221.36 608.94,221.36 609.28,221.36 609.61,226.49 609.95,226.49 610.28,226.49 610.62,226.49 610.95,226.49 611.29,226.49 611.62,226.49 611.96,226.49 612.29,221.36 612.63,211.10 612.96,211.10 613.30,205.97 613.63,195.70 613.97,195.70 614.30,195.70 614.64,190.57 614.97,190.57 615.31,190.57 615.64,190.57 615.98,190.57 616.31,195.70 616.65,195.70 616.98,195.70 617.32,195.70 617.65,195.70 617.99,195.70 618.32,190.57 618.66,190.57 618.99,190.57 619.33,199.81 619.66,204.94 620.00,204.94 620.33,199.81 620.67,199.81 621.00,199.81 621.34,194.68 621.67,194.68 622.01,179.28 622.34,179.28 622.68,179.28 623.01,179.28 623.35,174.15 623.68,174.15 624.02,179.28 624.35,179.28 624.69,174.15 625.02,174.15 625.36,174.15 625.69,174.15 626.03,174.15 626.36,174.15 626.70,174.15 627.03,169.02 627.37,169.02 627.70,169.02 628.04,169.02 628.37,163.89 628.71,163.89 629.04,163.89 629.38,169.02 629.71,163.89 630.05,163.89 630.38,169.02 630.72,163.89 631.05,158.76 631.39,153.62 631.72,153.62 632.06,153.62 632.39,158.76 632.73,158.76 633.06,158.76 633.40,153.62 633.73,153.62 634.07,153.62 634.40,153.62 634.74,153.62 635.07,153.62 635.41,153.62 635.74,153.62 636.08,153.62 636.41,153.62 636.75,153.62 637.08,153.62 637.42,153.62 637.75,153.62 638.09,153.62 638.42,143.36 638.76,143.36 639.09,138.23 639.43,138.23 639.76,138.23 640.10,138.23 640.43,138.23 640.77,138.23 641.10,138.23 641.44,138.23 641.77,138.23 642.11,143.36 642.44,143.36 642.78,143.36 643.11,143.36 643.45,143.36 643.78,143.36 644.12,143.36 644.45,143.36 644.79,148.49 645.12,148.49 645.46,148.49 645.79,148.49 646.13,143.36 646.46,143.36 646.80,143.36 647.13,143.36 647.47,143.36 647.80,143.36 648.14,143.36 648.47,143.36 648.81,143.36 649.14,148.49 649.48,148.49 649.81,148.49 650.15,148.49 650.48,148.49 650.82,148.49 651.15,148.49 651.49,148.49 651.82,148.49 652.16,143.36 652.49,143.36 652.83,148.49 653.16,148.49 653.50,148.49 653.83,143.36 654.17,143.36 654.50,143.36 654.84,143.36 655.17,143.36 655.51,138.23 655.84,138.23 656.18,138.23 656.51,138.23 656.85,138.23 657.18,138.23 657.52,138.23 657.85,138.23 658.19,138.23 658.52,133.10 658.86,133.10 659.19,133.10 659.53,133.10 659.86,138.23 660.20,143.36 660.53,133.10 660.87,127.97 661.20,127.97 661.54,122.83 661.87,127.97 662.21,127.97 662.54,117.70 662.88,117.70 663.21,117.70 663.55,122.83 663.88,122.83 664.22,122.83 664.55,122.83 664.89,122.83 665.22,122.83 665.56,122.83 665.89,122.83 666.23,122.83 666.56,122.83 666.90,133.10 667.23,133.10 667.57,133.10 667.90,133.10 668.24,133.10 668.57,133.10 668.91,133.10 669.24,133.10 669.58,133.10 669.91,138.23 670.25,138.23 670.58,143.36 670.92,143.36 671.25,143.36 671.59,143.36 671.92,143.36 672.26,143.36 672.59,143.36 672.93,143.36 673.26,143.36 673.60,143.36 673.93,143.36 674.27,138.23 674.60,138.23 674.94,138.23 675.27,138.23 675.61,138.23 675.94,138.23 676.28,138.23 676.61,138.23 676.95,138.23 677.28,138.23 677.62,138.23 677.95,138.23 678.29,138.23 678.62,138.23 678.96,138.23 679.29,138.23 679.63,138.23 679.96,138.23 680.30,138.23 680.63,138.23 680.97,138.23 681.30,138.23 681.64,138.23 681.97,138.23 682.31,143.36 682.64,143.36 682.98,143.36 683.31,143.36 683.65,143.36 683.98,138.23 684.32,127.97 684.65,127.97 684.99,127.97 685.32,127.97 685.66,127.97 685.99,127.97 686.33,127.97 686.66,138.23 687.00,138.23 687.33,138.23 687.67,133.10 688.00,127.97 688.34,127.97 688.67,127.97 689.01,127.97 689.34,127.97 689.68,127.97 690.01,127.97 690.35,127.97 690.68,127.97 691.02,127.97 691.35,127.97 691.69,127.97 692.02,127.97 692.36,127.97 692.69,127.97 693.03,127.97 693.36,117.70 693.70,117.70 694.03,117.70 694.37,117.70 694.70,117.70 695.04,117.70 695.37,117.70 695.71,122.83 696.04,122.83 696.38,122.83 696.71,117.70 697.05,117.70 697.38,117.70 697.72,117.70 698.05,117.70 698.39,117.70 698.72,117.70 699.06,117.70 699.39,117.70 699.73,117.70 700.06,117.70 700.40,112.57 700.73,112.57 701.07,112.57 701.40,112.57 701.74,112.57 702.07,112.57 702.41,112.57 702.74,107.44 703.08,102.31 703.41,97.18 703.75,92.04 704.08,81.78 704.42,81.78 704.75,76.65 705.09,76.65 705.42,76.65 705.76,76.65 706.09,76.65 706.43,71.52 706.76,71.52 707.10,71.52 707.43,71.52 707.77,71.52 708.10,71.52 708.44,71.52 708.77,71.52 709.11,71.52 709.44,71.52 709.78,71.52 710.11,71.52 710.45,71.52 710.78,71.52 711.12,71.52 711.45,71.52 711.79,71.52 712.12,76.65 712.46,76.65 712.79,76.65 713.13,76.65 713.46,81.78 713.80,81.78 714.13,81.78 714.47,81.78 714.80,81.78 715.14,81.78 715.47,81.78 715.81,86.91 716.14,92.04 716.48,92.04 716.81,92.04 717.15,92.04 717.48,97.18 717.82,97.18 718.15,97.18 718.49,97.18 718.82,97.18 719.16,97.18 719.49,97.18 719.83,97.18 720.16,97.18 720.50,97.18 720.83,97.18 721.17,97.18 721.50,97.18 721.84,97.18 722.17,97.18 722.51,97.18 722.84,102.31 723.18,102.31 723.51,102.31 723.85,102.31 724.18,102.31 724.52,97.18 724.85,97.18 725.19,97.18 725.52,97.18 725.86,102.31 726.19,102.31 726.53,102.31 726.86,102.31 727.20,107.44 727.53,107.44 727.87,107.44 728.20,107.44 728.54,107.44 728.87,107.44 729.21,107.44 729.54,102.31 729.88,102.31 730.21,102.31 730.55,102.31 730.88,102.31 731.22,102.31 731.55,102.31 731.89,102.31 732.22,102.31 732.56,102.31 732.89,102.31 733.23,102.31 733.56,92.04 733.90,92.04 734.23,97.18 734.57,97.18 734.90,97.18 735.24,97.18 735.57,92.04 735.91,92.04 736.24,92.04 736.58,92.04 736.91,92.04 737.25,92.04 737.58,86.91 737.92,86.91 738.25,92.04 738.59,97.18 738.92,102.31 739.26,102.31 739.59,102.31 739.93,102.31 740.26,102.31 740.60,102.31 740.93,102.31 741.27,102.31 741.60,102.31 741.94,102.31 742.27,102.31 742.61,102.31 742.94,102.31 743.28,102.31 743.61,102.31 743.95,102.31 744.28,92.04 744.62,92.04 744.95,92.04 745.29,92.04 745.62,92.04 745.96,97.18 746.29,92.04 746.63,92.04 746.96,92.04 747.30,92.04 747.63,86.91 747.97,86.91 748.30,86.91 748.64,86.91 748.97,86.91 749.31,86.91 749.64,86.91 749.98,92.04 750.31,92.04 750.65,92.04 750.98,92.04 751.32,86.91 751.65,86.91 751.99,86.91 752.32,86.91 752.66,86.91 752.99,86.91 753.33,76.65 753.66,76.65 754.00,76.65 754.33,76.65 754.67,81.78 755.00,81.78"/>
<line x1="783" y1="82" x2="809" y2="82" stroke="#dc2626" stroke-width="3"/>
<text x="817" y="86" font-family="Arial" font-size="13" fill="#111827">Avellaneda Stoikov</text>
<polyline fill="none" stroke="#7c3aed" stroke-width="2" points=""/>
<line x1="783" y1="106" x2="809" y2="106" stroke="#7c3aed" stroke-width="3"/>
<text x="817" y="110" font-family="Arial" font-size="13" fill="#111827">Calibrated Avellaneda Stoikov</text>
<text x="420.0" y="518" text-anchor="middle" font-family="Arial" font-size="14" fill="#111827">Event index</text>
<text x="22" y="256.0" text-anchor="middle" transform="rotate(-90 22 256.0)" font-family="Arial" font-size="14" fill="#111827">Inventory</text>
</svg>
