<svg xmlns="http://www.w3.org/2000/svg" width="940" height="540" viewBox="0 0 940 540">
<rect width="100%" height="100%" fill="#ffffff"/>
<text x="470.0" y="26" text-anchor="middle" font-family="Arial" font-size="18" fill="#111827">Trending Cumulative PnL After Fees</text>
<line x1="85" y1="470" x2="755" y2="470" stroke="#111827" stroke-width="1"/>
<line x1="85" y1="42" x2="85" y2="470" stroke="#111827" stroke-width="1"/>
<line x1="85.00" y1="42" x2="85.00" y2="470" stroke="#e5e7eb" stroke-width="1"/>
<text x="85.00" y="494" text-anchor="middle" font-family="Arial" font-size="12" fill="#374151">0</text>
<line x1="252.50" y1="42" x2="252.50" y2="470" stroke="#e5e7eb" stroke-width="1"/>
<text x="252.50" y="494" text-anchor="middle" font-family="Arial" font-size="12" fill="#374151">50000</text>
<line x1="420.00" y1="42" x2="420.00" y2="470" stroke="#e5e7eb" stroke-width="1"/>
<text x="420.00" y="494" text-anchor="middle" font-family="Arial" font-size="12" fill="#374151">100000</text>
<line x1="587.50" y1="42" x2="587.50" y2="470" stroke="#e5e7eb" stroke-width="1"/>
<text x="587.50" y="494" text-anchor="middle" font-family="Arial" font-size="12" fill="#374151">149999</text>
<line x1="755.00" y1="42" x2="755.00" y2="470" stroke="#e5e7eb" stroke-width="1"/>
<text x="755.00" y="494" text-anchor="middle" font-family="Arial" font-size="12" fill="#374151">199999</text>
<line x1="85" y1="470.00" x2="755" y2="470.00" stroke="#e5e7eb" stroke-width="1"/>
<text x="73" y="474.00" text-anchor="end" font-family="Arial" font-size="12" fill="#374151">-67089</text>
<line x1="85" y1="363.00" x2="755" y2="363.00" stroke="#e5e7eb" stroke-width="1"/>
<text x="73" y="367.00" text-anchor="end" font-family="Arial" font-size="12" fill="#374151">-4120</text>
<line x1="85" y1="256.00" x2="755" y2="256.00" stroke="#e5e7eb" stroke-width="1"/>
<text x="73" y="260.00" text-anchor="end" font-family="Arial" font-size="12" fill="#374151">58848</text>
<line x1="85" y1="149.00" x2="755" y2="149.00" stroke="#e5e7eb" stroke-width="1"/>
<text x="73" y="153.00" text-anchor="end" font-family="Arial" font-size="12" fill="#374151">121817</text>
<line x1="85" y1="42.00" x2="755" y2="42.00" stroke="#e5e7eb" stroke-width="1"/>
<text x="73" y="46.00" text-anchor="end" font-family="Arial" font-size="12" fill="#374151">184785</text>
<polyline fill="none" stroke="#2563eb" stroke-width="2" points="85.00,356.00 85.34,356.00 85.67,355.90 86.01,355.82 86.34,355.81 86.68,355.74 87.01,355.74 87.35,355.73 87.68,355.42 88.02,355.13 88.35,355.54 88.69,355.20 89.02,355.40 89.36,355.48 89.69,355.23 90.03,355.49 90.36,355.58 90.70,355.42 91.03,355.57 91.37,355.04 91.70,356.03 92.04,356.44 92.37,357.07 92.71,356.73 93.04,356.70 93.38,357.71 93.71,358.43 94.05,358.34 94.38,358.21 94.72,358.91 95.05,359.08 95.39,359.01 95.72,359.84 96.06,360.70 96.39,361.48 96.73,361.57 97.06,361.33 97.40,361.13 97.73,362.85 98.07,362.02 98.40,361.67 98.74,362.07 99.07,363.69 99.41,363.41 99.74,363.87 100.08,364.07 100.41,363.89 100.75,364.15 101.08,364.21 101.42,364.09 101.75,363.78 102.09,363.78 102.42,364.00 102.76,364.05 103.09,364.35 103.43,363.91 103.76,364.45 104.10,365.36 104.43,365.07 104.77,364.52 105.10,363.90 105.44,363.85 105.77,363.95 106.11,364.36 106.44,364.12 106.78,364.31 107.11,364.50 107.45,364.24 107.78,364.51 108.12,364.57 108.45,364.69 108.79,364.60 109.12,364.46 109.46,364.70 109.79,364.75 110.13,364.79 110.46,364.64 110.80,364.87 111.13,364.65 111.47,364.81 111.80,364.83 112.14,364.93 112.47,364.78 112.81,364.14 113.14,364.04 113.48,364.03 113.81,364.17 114.15,364.18 114.48,364.11 114.82,364.11 115.15,363.86 115.49,364.03 115.82,363.91 116.16,364.86 116.49,364.15 116.83,364.26 117.16,363.62 117.50,364.21 117.83,364.39 118.17,364.25 118.50,364.91 118.84,365.00 119.17,364.73 119.51,364.79 119.84,364.71 120.18,364.64 120.51,364.56 120.85,364.46 121.18,364.25 121.52,364.43 121.85,364.32 122.19,363.64 122.52,363.00 122.86,361.74 123.19,361.60 123.53,361.78 123.86,362.43 124.20,362.95 124.53,362.50 124.87,362.37 125.20,362.41 125.54,362.33 125.87,362.19 126.21,362.29 126.54,362.29 126.88,362.25 127.21,362.12 127.55,361.88 127.88,361.69 128.22,361.74 128.55,362.13 128.89,362.67 129.22,362.56 129.56,362.46 129.89,362.93 130.23,362.65 130.56,362.76 130.90,362.90 131.23,362.71 131.57,362.64 131.90,362.46 132.24,362.54 132.57,362.27 132.91,362.19 133.24,362.09 133.58,362.06 133.91,362.02 134.25,362.06 134.58,362.11 134.92,362.05 135.25,361.88 135.59,361.04 135.92,360.80 136.26,360.67 136.59,360.20 136.93,359.69 137.26,360.05 137.60,358.92 137.93,359.44 138.27,359.82 138.60,360.13 138.94,360.76 139.27,360.62 139.61,361.19 139.94,360.84 140.28,361.24 140.61,361.35 140.95,360.79 141.28,360.75 141.62,360.68 141.95,358.64 142.29,358.76 142.62,357.73 142.96,358.72 143.29,358.86 143.63,359.51 143.96,358.38 144.30,358.94 144.63,358.99 144.97,360.31 145.30,360.47 145.64,360.75 145.97,362.78 146.31,362.16 146.64,361.72 146.98,360.58 147.31,360.45 147.65,361.06 147.98,361.70 148.32,364.41 148.65,363.75 148.99,362.65 149.32,362.49 149.66,362.75 149.99,362.20 150.33,362.99 150.66,362.81 151.00,362.01 151.33,361.21 151.67,361.59 152.00,362.24 152.34,362.56 152.67,362.01 153.01,362.58 153.34,362.01 153.68,362.19 154.01,361.83 154.35,361.83 154.68,361.68 155.02,362.55 155.35,363.12 155.69,361.82 156.02,362.18 156.36,362.81 156.69,363.16 157.03,362.87 157.36,363.85 157.70,365.08 158.03,365.93 158.37,365.85 158.70,364.79 159.04,363.99 159.37,363.69 159.71,363.33 160.04,362.45 160.38,361.95 160.71,361.75 161.05,361.02 161.38,359.50 161.72,358.66 162.05,358.47 162.39,358.04 162.72,356.65 163.06,356.53 163.39,355.71 163.73,355.96 164.06,355.01 164.40,354.63 164.73,353.85 165.07,353.52 165.40,353.85 165.74,353.03 166.07,353.12 166.41,352.76 166.74,352.98 167.08,353.10 167.41,353.29 167.75,353.14 168.08,353.35 168.42,353.34 168.75,353.34 169.09,353.34 169.42,353.31 169.76,353.42 170.09,353.34 170.43,353.24 170.76,353.40 171.10,353.54 171.43,353.39 171.77,353.18 172.10,353.20 172.44,353.18 172.77,353.24 173.11,352.87 173.44,352.81 173.78,352.85 174.11,352.97 174.45,351.83 174.78,351.92 175.12,351.88 175.45,351.75 175.79,351.72 176.12,351.24 176.46,350.98 176.79,350.28 177.13,349.26 177.46,348.57 177.80,349.38 178.13,349.58 178.47,349.39 178.80,350.04 179.14,349.47 179.47,348.81 179.81,349.24 180.14,349.07 180.48,349.06 180.81,349.32 181.15,349.39 181.48,348.72 181.82,349.36 182.15,348.38 182.49,348.74 182.82,348.06 183.16,347.33 183.49,347.92 183.83,347.59 184.16,347.85 184.50,347.65 184.83,347.97 185.17,347.91 185.50,347.72 185.84,347.18 186.17,347.24 186.51,348.50 186.84,348.75 187.18,348.99 187.51,348.54 187.85,348.56 188.18,347.26 188.52,346.83 188.85,347.55 189.19,347.61 189.52,347.94 189.86,347.08 190.19,348.37 190.53,349.03 190.86,348.67 191.20,348.56 191.53,348.34 191.87,348.74 192.20,348.98 192.54,351.42 192.87,351.50 193.21,351.84 193.54,351.09 193.88,351.74 194.21,352.49 194.55,352.61 194.88,350.96 195.22,350.98 195.55,351.41 195.89,351.01 196.22,348.77 196.56,349.62 196.89,348.21 197.23,348.66 197.56,347.10 197.90,346.44 198.23,345.94 198.57,346.75 198.90,346.01 199.24,344.82 199.57,346.80 199.91,347.45 200.24,347.34 200.58,348.03 200.91,347.27 201.25,348.46 201.58,347.57 201.92,347.09 202.25,346.14 202.59,345.20 202.92,345.42 203.26,345.16 203.59,344.46 203.93,344.63 204.26,344.83 204.60,344.74 204.93,344.50 205.27,346.45 205.60,346.52 205.94,346.41 206.27,347.11 206.61,348.09 206.94,348.69 207.28,346.84 207.61,345.19 207.95,344.98 208.28,342.83 208.62,343.25 208.95,343.38 209.29,343.55 209.62,342.98 209.96,345.22 210.29,343.20 210.63,343.12 210.96,341.39 211.30,339.80 211.63,339.49 211.97,340.00 212.30,339.67 212.64,340.13 212.97,342.35 213.31,341.31 213.64,340.09 213.98,341.19 214.31,340.65 214.65,340.38 214.98,341.45 215.32,341.98 215.65,341.42 215.99,340.28 216.32,340.92 216.66,340.90 216.99,340.24 217.33,339.16 217.66,337.02 218.00,338.15 218.33,336.54 218.67,334.70 219.00,333.42 219.34,333.95 219.67,331.55 220.01,331.20 220.34,331.68 220.68,331.39 221.01,330.64 221.35,329.98 221.68,329.34 222.02,330.03 222.35,331.30 222.69,332.23 223.02,333.51 223.36,333.14 223.69,334.43 224.03,332.85 224.36,334.53 224.70,333.44 225.03,332.76 225.37,332.04 225.70,332.14 226.04,331.86 226.37,332.97 226.71,333.84 227.04,333.22 227.38,333.68 227.71,333.91 228.05,333.92 228.38,333.85 228.72,333.98 229.05,334.48 229.39,333.83 229.72,333.64 230.06,333.40 230.39,332.94 230.73,332.40 231.06,332.48 231.40,332.25 231.73,332.18 232.07,331.64 232.40,331.21 232.74,331.57 233.07,331.12 233.41,330.29 233.74,330.46 234.08,330.47 234.41,330.37 234.75,331.60 235.08,331.45 235.42,331.95 235.75,332.64 236.09,332.30 236.42,332.52 236.76,333.18 237.09,333.54 237.43,333.52 237.76,333.56 238.10,333.26 238.43,332.67 238.77,332.69 239.10,333.01 239.44,332.99 239.77,332.52 240.11,332.46 240.44,332.66 240.78,332.86 241.11,333.05 241.45,332.84 241.78,332.84 242.12,332.84 242.45,332.74 242.79,332.94 243.12,332.52 243.46,332.79 243.79,332.72 244.13,332.72 244.46,332.72 244.80,332.43 245.13,332.43 245.47,332.27 245.80,332.33 246.14,332.28 246.47,332.58 246.81,332.68 247.14,332.76 247.48,332.94 247.81,332.60 248.15,333.16 248.48,333.27 248.82,332.47 249.15,332.53 249.49,332.46 249.82,332.80 250.16,332.65 250.49,332.37 250.83,332.53 251.16,332.45 251.50,332.16 251.83,332.37 252.17,332.45 252.50,332.65 252.84,332.05 253.17,332.48 253.51,332.09 253.84,332.06 254.18,331.75 254.51,331.72 254.85,331.77 255.18,331.70 255.52,331.63 255.85,331.71 256.19,331.71 256.52,331.48 256.86,331.32 257.19,331.05 257.53,330.76 257.86,331.26 258.20,331.62 258.53,331.57 258.87,331.32 259.20,331.75 259.54,331.51 259.87,331.63 260.21,332.39 260.54,332.29 260.88,332.71 261.21,332.89 261.55,332.98 261.88,333.62 262.22,333.55 262.55,333.13 262.89,333.12 263.22,333.33 263.56,332.55 263.89,332.23 264.23,331.96 264.56,332.20 264.90,331.02 265.23,331.83 265.57,331.20 265.90,331.97 266.24,331.86 266.57,330.44 266.91,332.43 267.24,332.14 267.58,331.26 267.91,331.20 268.25,330.39 268.58,331.79 268.92,331.18 269.25,330.59 269.59,330.45 269.92,329.86 270.26,328.89 270.59,328.10 270.93,327.47 271.26,328.47 271.60,329.73 271.93,330.42 272.27,328.57 272.60,328.71 272.94,327.99 273.27,329.42 273.61,329.09 273.94,328.71 274.28,328.34 274.61,329.42 274.95,328.37 275.28,327.90 275.62,328.18 275.95,328.00 276.29,328.02 276.62,328.28 276.96,327.39 277.29,326.89 277.63,327.43 277.96,327.50 278.30,327.93 278.63,327.94 278.97,328.03 279.30,328.92 279.64,328.89 279.97,328.55 280.31,329.47 280.64,329.86 280.98,328.76 281.31,328.61 281.65,328.39 281.98,329.03 282.32,329.28 282.65,328.24 282.99,327.71 283.32,327.33 283.66,327.63 283.99,327.09 284.33,326.40 284.66,326.07 285.00,326.54 285.33,327.47 285.67,327.10 286.00,326.66 286.34,326.95 286.67,326.44 287.01,326.32 287.34,326.25 287.68,326.49 288.01,326.79 288.35,326.62 288.68,326.76 289.02,327.18 289.35,327.32 289.69,327.15 290.02,326.88 290.36,326.54 290.69,326.86 291.03,326.74 291.36,326.22 291.70,326.17 292.03,327.15 292.37,327.08 292.70,327.26 293.04,326.98 293.37,326.67 293.71,325.52 294.04,325.34 294.38,325.95 294.71,326.60 295.05,326.31 295.38,326.06 295.72,325.78 296.05,326.43 296.39,326.95 296.72,327.59 297.06,327.67 297.39,327.50 297.73,327.71 298.06,328.30 298.40,327.33 298.73,326.77 299.07,326.83 299.40,326.79 299.74,327.81 300.07,327.47 300.41,328.64 300.74,327.76 301.08,328.64 301.41,329.25 301.75,329.45 302.08,331.12 302.42,331.43 302.75,331.83 303.09,331.86 303.42,331.87 303.76,331.45 304.09,330.71 304.43,330.80 304.76,330.61 305.10,330.79 305.43,331.33 305.77,332.18 306.10,332.21 306.44,333.85 306.77,334.34 307.11,333.27 307.44,332.72 307.78,334.13 308.11,334.75 308.45,335.06 308.78,335.66 309.12,335.85 309.45,335.55 309.79,335.50 310.12,336.22 310.46,336.18 310.79,335.10 311.13,333.91 311.46,333.50 311.80,333.50 312.13,333.42 312.47,334.75 312.80,334.85 313.14,335.56 313.47,335.58 313.81,335.24 314.14,335.42 314.48,335.42 314.81,335.86 315.15,336.87 315.48,337.73 315.82,338.08 316.15,337.51 316.49,336.79 316.82,336.50 317.16,336.67 317.49,336.98 317.83,337.16 318.16,337.18 318.50,337.39 318.83,337.07 319.17,337.07 319.50,336.89 319.84,337.08 320.17,337.01 320.51,337.01 320.84,337.01 321.18,337.01 321.51,337.01 321.85,337.01 322.18,337.01 322.52,337.01 322.85,337.01 323.19,336.84 323.52,336.34 323.86,336.43 324.19,336.77 324.53,336.76 324.86,336.74 325.20,336.49 325.53,336.36 325.87,336.16 326.20,335.74 326.54,335.51 326.87,335.73 327.21,335.56 327.54,335.52 327.88,335.38 328.21,335.44 328.55,335.24 328.88,335.41 329.22,335.58 329.55,335.30 329.89,335.08 330.22,334.97 330.56,334.69 330.89,334.49 331.23,334.41 331.56,334.38 331.90,334.78 332.23,335.22 332.57,335.07 332.90,334.90 333.24,335.09 333.57,334.90 333.91,334.86 334.24,335.03 334.58,334.97 334.91,335.04 335.25,335.04 335.58,335.00 335.92,335.01 336.25,335.02 336.59,335.03 336.92,335.05 337.26,335.04 337.59,335.04 337.93,335.03 338.26,335.02 338.60,335.04 338.93,335.06 339.27,335.04 339.60,334.92 339.94,335.01 340.27,335.15 340.61,334.94 340.94,335.11 341.28,335.05 341.61,334.89 341.95,334.89 342.28,334.77 342.62,334.61 342.95,334.48 343.29,334.24 343.62,334.16 343.96,333.94 344.29,333.85 344.63,333.91 344.96,333.97 345.30,334.05 345.63,333.88 345.97,334.20 346.30,333.56 346.64,333.30 346.97,334.14 347.31,334.43 347.64,334.79 347.98,335.06 348.31,335.03 348.65,335.62 348.98,334.97 349.32,334.54 349.65,334.70 349.99,334.83 350.32,334.74 350.66,335.13 350.99,334.78 351.33,334.72 351.66,334.85 352.00,334.68 352.33,334.80 352.67,334.82 353.00,335.36 353.34,335.63 353.67,335.93 354.01,335.87 354.34,336.96 354.68,337.52 355.01,337.78 355.35,337.29 355.68,337.54 356.02,337.65 356.35,337.37 356.69,337.00 357.02,335.82 357.36,335.88 357.69,335.92 358.03,335.82 358.36,335.82 358.70,335.71 359.03,335.40 359.37,335.84 359.70,335.44 360.04,335.62 360.37,335.29 360.71,333.54 361.04,333.41 361.38,333.06 361.71,334.39 362.05,333.47 362.38,332.15 362.72,333.27 363.05,334.28 363.39,334.46 363.72,333.63 364.06,333.92 364.39,333.58 364.73,333.81 365.06,334.80 365.40,336.55 365.73,338.76 366.07,336.49 366.40,336.52 366.74,338.70 367.07,339.31 367.41,337.23 367.74,337.69 368.08,338.82 368.41,339.07 368.75,337.20 369.08,335.35 369.42,335.77 369.75,336.91 370.09,336.86 370.42,335.53 370.76,335.25 371.09,337.11 371.43,337.35 371.76,338.80 372.10,338.40 372.43,339.21 372.77,339.46 373.10,339.69 373.44,339.33 373.77,340.25 374.11,339.82 374.44,340.74 374.78,341.36 375.11,343.05 375.45,344.46 375.78,344.90 376.12,345.55 376.45,345.35 376.79,344.84 377.12,346.44 377.46,345.75 377.79,345.02 378.13,345.13 378.46,346.01 378.80,346.27 379.13,346.36 379.47,346.35 379.80,345.99 380.14,345.67 380.47,346.39 380.81,345.53 381.14,345.52 381.48,344.48 381.81,345.63 382.15,345.43 382.48,344.86 382.82,344.21 383.15,344.09 383.49,344.10 383.82,344.25 384.16,343.75 384.49,343.91 384.83,343.25 385.16,342.17 385.50,342.51 385.83,341.83 386.17,340.95 386.50,341.91 386.84,342.99 387.17,343.79 387.51,342.68 387.84,343.23 388.18,342.21 388.51,341.11 388.85,340.93 389.18,340.53 389.52,341.53 389.85,341.88 390.19,341.86 390.52,342.34 390.86,341.68 391.19,341.45 391.53,340.79 391.86,339.62 392.20,340.99 392.53,343.52 392.87,342.55 393.20,342.37 393.54,340.54 393.87,340.08 394.21,339.99 394.54,340.32 394.88,339.77 395.21,340.19 395.55,339.54 395.88,339.96 396.22,339.11 396.55,339.50 396.89,338.72 397.22,338.91 397.56,339.45 397.89,339.64 398.23,339.78 398.56,341.43 398.90,341.60 399.23,341.15 399.57,341.10 399.90,340.98 400.24,341.47 400.57,340.93 400.91,341.12 401.24,341.24 401.58,341.22 401.91,341.32 402.25,341.24 402.58,341.28 402.92,341.28 403.25,341.37 403.59,341.28 403.92,341.34 404.26,341.31 404.59,341.45 404.93,341.48 405.26,341.48 405.60,341.81 405.93,341.78 406.27,341.81 406.60,341.69 406.94,341.67 407.27,341.80 407.61,341.74 407.94,341.67 408.28,341.73 408.61,341.65 408.95,341.74 409.28,341.79 409.62,341.76 409.95,341.72 410.29,341.67 410.62,341.60 410.96,341.65 411.29,341.47 411.63,341.41 411.96,341.28 412.30,341.30 412.63,341.21 412.97,341.19 413.30,340.88 413.64,340.87 413.97,340.34 414.31,340.15 414.64,340.08 414.98,340.18 415.31,339.93 415.65,339.59 415.98,339.52 416.32,339.24 416.65,339.00 416.99,339.19 417.32,338.96 417.66,337.09 417.99,337.09 418.33,338.02 418.66,337.08 419.00,336.52 419.33,336.67 419.67,336.48 420.00,336.32 420.34,335.16 420.67,334.07 421.01,335.08 421.34,333.68 421.68,333.01 422.01,331.95 422.35,332.79 422.68,331.85 423.02,331.04 423.35,331.64 423.69,331.74 424.02,331.11 424.36,330.32 424.69,331.11 425.03,330.79 425.36,330.67 425.70,330.07 426.03,328.67 426.37,328.72 426.70,330.52 427.04,331.33 427.37,331.04 427.71,331.36 428.04,332.70 428.38,333.31 428.71,332.51 429.05,333.47 429.38,332.57 429.72,331.84 430.05,332.72 430.39,332.20 430.72,331.72 431.06,331.39 431.39,331.60 431.73,330.58 432.06,330.58 432.40,330.82 432.73,331.44 433.07,331.32 433.40,330.89 433.74,332.15 434.07,330.90 434.41,329.83 434.74,330.38 435.08,330.81 435.41,330.86 435.75,330.31 436.08,330.90 436.42,330.51 436.75,330.74 437.09,329.92 437.42,330.19 437.76,330.68 438.09,330.23 438.43,330.51 438.76,331.28 439.10,330.27 439.43,330.53 439.77,329.83 440.10,328.77 440.44,328.22 440.77,329.06 441.11,328.68 441.44,330.89 441.78,329.89 442.11,331.38 442.45,330.61 442.78,330.66 443.12,329.58 443.45,329.50 443.79,329.98 444.12,330.99 444.46,333.56 444.79,330.38 445.13,330.54 445.46,329.76 445.80,329.84 446.13,329.53 446.47,328.23 446.80,327.78 447.14,329.76 447.47,330.64 447.81,329.20 448.14,330.11 448.48,330.35 448.81,332.06 449.15,334.37 449.48,333.81 449.82,333.11 450.15,334.32 450.49,334.16 450.82,333.60 451.16,334.52 451.49,336.98 451.83,335.12 452.16,334.98 452.50,335.09 452.83,333.10 453.17,332.80 453.50,330.99 453.84,331.00 454.17,330.07 454.51,331.22 454.84,335.60 455.18,335.33 455.51,331.78 455.85,330.23 456.18,333.78 456.52,336.81 456.85,338.63 457.19,341.18 457.52,342.91 457.86,343.34 458.19,339.85 458.53,341.45 458.86,340.37 459.20,340.71 459.53,335.26 459.87,335.39 460.20,331.95 460.54,332.22 460.87,330.90 461.21,328.18 461.54,331.64 461.88,330.70 462.21,327.21 462.55,328.15 462.88,328.10 463.22,328.69 463.55,327.04 463.89,330.26 464.22,329.20 464.56,329.77 464.89,325.44 465.23,327.43 465.56,327.65 465.90,330.17 466.23,330.56 466.57,335.39 466.90,336.48 467.24,337.58 467.57,337.70 467.91,335.63 468.24,331.70 468.58,332.25 468.91,329.17 469.25,329.25 469.58,329.85 469.92,328.52 470.25,330.31 470.59,324.43 470.92,324.74 471.26,324.68 471.59,320.94 471.93,317.22 472.26,321.23 472.60,324.62 472.93,322.51 473.27,322.43 473.60,321.80 473.94,327.34 474.27,331.08 474.61,335.44 474.94,336.48 475.28,340.25 475.61,345.63 475.95,343.67 476.28,339.45 476.62,336.04 476.95,340.82 477.29,345.60 477.62,344.20 477.96,346.25 478.29,354.77 478.63,358.01 478.96,353.05 479.30,354.93 479.63,352.77 479.97,355.51 480.30,357.63 480.64,352.45 480.97,349.14 481.31,350.02 481.64,350.95 481.98,348.57 482.31,350.23 482.65,347.19 482.98,351.58 483.32,353.23 483.65,351.08 483.99,354.29 484.32,354.40 484.66,356.25 484.99,357.97 485.33,359.72 485.66,363.78 486.00,367.74 486.33,368.51 486.67,375.02 487.00,382.50 487.34,381.49 487.67,377.30 488.01,372.31 488.34,371.30 488.68,372.82 489.01,377.79 489.35,381.81 489.68,381.48 490.02,380.97 490.35,385.68 490.69,386.06 491.02,389.42 491.36,389.30 491.69,394.18 492.03,393.00 492.36,398.31 492.70,400.49 493.03,404.09 493.37,405.88 493.70,405.23 494.04,407.69 494.37,409.68 494.71,410.53 495.04,409.11 495.38,414.96 495.71,413.41 496.05,410.36 496.38,409.99 496.72,405.72 497.05,406.66 497.39,408.41 497.72,411.66 498.06,413.28 498.39,417.96 498.73,414.78 499.06,414.03 499.40,413.99 499.73,414.66 500.07,414.81 500.40,416.38 500.74,419.09 501.07,416.69 501.41,410.83 501.74,410.56 502.08,410.18 502.41,408.28 502.75,407.77 503.08,408.47 503.42,409.84 503.75,407.01 504.09,404.62 504.42,406.49 504.76,410.57 505.09,411.08 505.43,410.44 505.76,412.26 506.10,409.86 506.43,406.41 506.77,408.74 507.10,406.12 507.44,402.25 507.77,403.19 508.11,409.19 508.44,406.78 508.78,407.99 509.11,410.07 509.45,412.14 509.78,410.63 510.12,406.30 510.45,409.66 510.79,408.93 511.12,404.33 511.46,405.82 511.79,406.53 512.13,405.89 512.46,402.63 512.80,405.33 513.13,406.29 513.47,401.84 513.80,406.25 514.14,402.99 514.47,400.20 514.81,403.54 515.14,397.28 515.48,398.60 515.81,399.96 516.15,401.79 516.48,401.60 516.82,404.63 517.15,402.88 517.49,397.69 517.82,395.10 518.16,399.52 518.49,399.68 518.83,398.84 519.16,404.46 519.50,409.70 519.83,414.94 520.17,418.16 520.50,417.20 520.84,417.30 521.17,415.06 521.51,407.78 521.84,405.18 522.18,406.00 522.51,406.29 522.85,402.39 523.18,401.13 523.52,404.82 523.85,405.42 524.19,409.27 524.52,407.37 524.86,409.06 525.19,406.97 525.53,400.56 525.86,403.88 526.20,407.77 526.53,401.94 526.87,400.20 527.20,396.72 527.54,393.34 527.87,395.06 528.21,395.26 528.54,397.25 528.88,397.71 529.21,398.77 529.55,398.24 529.88,400.69 530.22,401.23 530.55,395.40 530.89,395.44 531.22,394.87 531.56,391.06 531.89,392.60 532.23,389.23 532.56,393.51 532.90,394.18 533.23,402.98 533.57,402.73 533.90,402.99 534.24,410.28 534.57,410.02 534.91,411.83 535.24,414.48 535.58,417.48 535.91,418.51 536.25,419.43 536.58,418.62 536.92,409.39 537.25,404.66 537.59,403.91 537.92,406.54 538.26,407.85 538.59,407.89 538.93,405.13 539.26,402.95 539.60,405.60 539.93,403.16 540.27,401.79 540.60,400.77 540.94,400.42 541.27,401.11 541.61,401.08 541.94,398.57 542.28,401.26 542.61,400.49 542.95,401.28 543.28,403.41 543.62,406.38 543.95,404.36 544.29,400.92 544.62,401.52 544.96,400.65 545.29,402.40 545.63,405.21 545.96,408.73 546.30,411.03 546.63,414.18 546.97,410.60 547.30,412.70 547.64,409.20 547.97,409.82 548.31,407.19 548.64,407.38 548.98,409.35 549.31,404.88 549.65,407.96 549.98,412.94 550.32,410.32 550.65,411.33 550.99,413.25 551.32,417.35 551.66,416.51 551.99,415.38 552.33,416.99 552.66,418.10 553.00,420.14 553.33,421.43 553.67,422.90 554.00,424.35 554.34,423.33 554.67,425.16 555.01,426.04 555.34,428.09 555.68,427.87 556.01,426.60 556.35,426.78 556.68,425.20 557.02,426.54 557.35,424.70 557.69,424.34 558.02,420.24 558.36,419.18 558.69,418.27 559.03,417.95 559.36,415.59 559.70,420.47 560.03,423.83 560.37,423.57 560.70,421.19 561.04,426.74 561.37,426.72 561.71,430.08 562.04,428.16 562.38,427.86 562.71,433.13 563.05,433.02 563.38,434.59 563.72,437.78 564.05,430.76 564.39,428.28 564.72,430.71 565.06,427.06 565.39,429.77 565.73,430.51 566.06,431.89 566.40,432.46 566.73,428.46 567.07,430.25 567.40,427.26 567.74,425.72 568.07,421.34 568.41,417.84 568.74,421.42 569.08,420.47 569.41,422.03 569.75,423.20 570.08,418.04 570.42,414.31 570.75,409.17 571.09,409.11 571.42,407.44 571.76,402.55 572.09,404.80 572.43,409.24 572.76,414.80 573.10,418.11 573.43,410.89 573.77,406.39 574.10,408.26 574.44,410.16 574.77,405.54 575.11,402.91 575.44,403.41 575.78,404.08 576.11,406.66 576.45,406.85 576.78,408.55 577.12,409.88 577.45,409.99 577.79,403.36 578.12,397.85 578.46,393.07 578.79,391.56 579.13,389.13 579.46,388.51 579.80,388.68 580.13,389.34 580.47,395.92 580.80,392.85 581.14,399.28 581.47,395.50 581.81,388.76 582.14,386.01 582.48,382.17 582.81,379.05 583.15,380.48 583.48,382.26 583.82,384.38 584.15,383.24 584.49,379.49 584.82,376.38 585.16,377.79 585.49,376.82 585.83,379.47 586.16,374.38 586.50,374.64 586.83,374.64 587.17,378.76 587.50,377.92 587.84,375.98 588.17,367.85 588.51,371.09 588.84,370.52 589.18,373.15 589.51,370.19 589.85,372.10 590.18,365.47 590.52,363.63 590.85,354.25 591.19,357.49 591.52,361.49 591.86,346.55 592.19,356.40 592.53,355.84 592.86,362.71 593.20,362.93 593.53,372.19 593.87,373.40 594.20,370.90 594.54,373.48 594.87,361.73 595.21,368.26 595.54,375.24 595.88,376.92 596.21,380.44 596.55,379.60 596.88,378.99 597.22,385.88 597.55,381.10 597.89,380.80 598.22,377.34 598.56,378.27 598.89,374.33 599.23,365.28 599.56,365.31 599.90,368.15 600.23,362.87 600.57,361.06 600.90,362.85 601.24,359.27 601.57,366.12 601.91,370.96 602.24,372.52 602.58,369.09 602.91,362.42 603.25,364.37 603.58,363.06 603.92,368.69 604.25,364.16 604.59,362.41 604.92,357.31 605.26,357.47 605.59,356.47 605.93,341.87 606.26,340.45 606.60,333.71 606.93,336.71 607.27,341.81 607.60,342.76 607.94,335.41 608.27,336.84 608.61,339.01 608.94,331.66 609.28,328.95 609.61,331.60 609.95,336.37 610.28,334.97 610.62,326.66 610.95,326.60 611.29,319.12 611.62,310.79 611.96,310.80 612.29,308.84 612.63,308.74 612.96,310.09 613.30,308.72 613.63,304.67 613.97,307.26 614.30,304.57 614.64,307.77 614.97,314.31 615.31,316.90 615.64,316.44 615.98,310.10 616.31,319.15 616.65,316.88 616.98,317.15 617.32,309.99 617.65,301.32 617.99,306.04 618.32,302.41 618.66,306.46 618.99,305.13 619.33,302.11 619.66,304.76 620.00,304.70 620.33,294.96 620.67,286.85 621.00,282.68 621.34,276.52 621.67,283.88 622.01,274.20 622.34,265.54 622.68,265.57 623.01,260.90 623.35,260.06 623.68,264.88 624.02,261.90 624.35,248.05 624.69,258.90 625.02,259.04 625.36,260.02 625.69,251.87 626.03,250.08 626.36,248.46 626.70,239.07 627.03,236.80 627.37,237.86 627.70,240.62 628.04,240.23 628.37,232.72 628.71,236.66 629.04,238.17 629.38,235.44 629.71,231.49 630.05,242.26 630.38,233.75 630.72,224.89 631.05,223.02 631.39,221.47 631.72,227.96 632.06,232.12 632.39,234.72 632.73,228.39 633.06,223.22 633.40,223.12 633.73,216.01 634.07,225.61 634.40,220.85 634.74,217.18 635.07,225.34 635.41,222.39 635.74,233.98 636.08,230.36 636.41,229.76 636.75,239.32 637.08,231.61 637.42,232.65 637.75,222.64 638.09,212.39 638.42,204.04 638.76,195.59 639.09,199.99 639.43,192.91 639.76,200.28 640.10,191.51 640.43,191.86 640.77,194.16 641.10,191.68 641.44,185.31 641.77,181.39 642.11,185.85 642.44,179.98 642.78,187.83 643.11,190.78 643.45,182.53 643.78,181.67 644.12,182.11 644.45,186.42 644.79,189.22 645.12,184.40 645.46,183.78 645.79,184.85 646.13,181.10 646.46,185.43 646.80,176.49 647.13,173.59 647.47,183.51 647.80,185.81 648.14,183.31 648.47,182.41 648.81,184.50 649.14,191.15 649.48,188.17 649.81,195.33 650.15,197.46 650.48,196.05 650.82,186.64 651.15,183.65 651.49,190.58 651.82,192.18 652.16,186.98 652.49,186.12 652.83,193.61 653.16,190.86 653.50,185.16 653.83,180.33 654.17,180.82 654.50,171.70 654.84,165.66 655.17,163.55 655.51,163.06 655.84,165.04 656.18,173.37 656.51,157.21 656.85,158.41 657.18,154.72 657.52,147.51 657.85,135.28 658.19,125.82 658.52,134.98 658.86,136.08 659.19,135.71 659.53,143.49 659.86,142.33 660.20,139.75 660.53,136.99 660.87,146.41 661.20,149.10 661.54,143.73 661.87,144.94 662.21,137.30 662.54,137.07 662.88,144.44 663.21,140.04 663.55,132.47 663.88,138.90 664.22,142.72 664.55,146.22 664.89,147.21 665.22,152.33 665.56,162.43 665.89,166.23 666.23,181.64 666.56,182.83 666.90,188.56 667.23,180.13 667.57,179.62 667.90,181.97 668.24,172.53 668.57,168.18 668.91,159.16 669.24,164.98 669.58,170.07 669.91,163.44 670.25,161.00 670.58,164.08 670.92,166.14 671.25,165.86 671.59,157.74 671.92,157.39 672.26,159.88 672.59,156.74 672.93,156.25 673.26,166.81 673.60,172.45 673.93,176.17 674.27,156.62 674.60,161.58 674.94,157.34 675.27,158.40 675.61,152.74 675.94,154.85 676.28,137.69 676.61,130.69 676.95,132.70 677.28,136.92 677.62,131.01 677.95,131.79 678.29,127.74 678.62,132.89 678.96,134.51 679.29,139.91 679.63,140.93 679.96,142.45 680.30,154.27 680.63,154.81 680.97,157.14 681.30,155.45 681.64,148.67 681.97,151.15 682.31,149.97 682.64,150.12 682.98,153.86 683.31,153.64 683.65,145.76 683.98,150.06 684.32,142.09 684.65,143.01 684.99,145.36 685.32,143.83 685.66,142.09 685.99,150.91 686.33,151.35 686.66,156.42 687.00,147.52 687.33,140.71 687.67,153.18 688.00,143.36 688.34,137.09 688.67,135.63 689.01,142.27 689.34,146.01 689.68,139.19 690.01,138.23 690.35,147.16 690.68,147.14 691.02,144.93 691.35,123.72 691.69,132.07 692.02,132.70 692.36,133.66 692.69,129.94 693.03,133.84 693.36,138.43 693.70,140.43 694.03,139.77 694.37,138.55 694.70,148.44 695.04,144.48 695.37,144.86 695.71,141.40 696.04,142.90 696.38,133.15 696.71,126.87 697.05,135.14 697.38,131.36 697.72,131.18 698.05,131.39 698.39,127.31 698.72,137.75 699.06,133.03 699.39,123.61 699.73,124.50 700.06,124.79 700.40,115.33 700.73,119.18 701.07,116.82 701.40,124.88 701.74,126.75 702.07,120.50 702.41,114.11 702.74,116.20 703.08,111.79 703.41,115.44 703.75,107.76 704.08,106.03 704.42,101.91 704.75,103.93 705.09,110.80 705.42,118.45 705.76,126.01 706.09,103.52 706.43,95.27 706.76,87.26 707.10,97.51 707.43,98.50 707.77,103.37 708.10,95.72 708.44,106.78 708.77,101.16 709.11,91.01 709.44,95.64 709.78,107.13 710.11,99.22 710.45,94.21 710.78,93.31 711.12,97.66 711.45,93.99 711.79,96.67 712.12,105.17 712.46,103.04 712.79,105.05 713.13,109.45 713.46,105.53 713.80,112.18 714.13,108.30 714.47,126.44 714.80,133.20 715.14,134.22 715.47,143.21 715.81,164.13 716.14,171.59 716.48,154.47 716.81,151.07 717.15,145.82 717.48,137.05 717.82,131.54 718.15,110.68 718.49,108.28 718.82,111.73 719.16,121.58 719.49,121.31 719.83,120.18 720.16,107.44 720.50,94.27 720.83,94.30 721.17,94.29 721.50,82.45 721.84,80.88 722.17,84.20 722.51,97.78 722.84,94.84 723.18,92.11 723.51,77.94 723.85,82.22 724.18,83.65 724.52,93.81 724.85,98.15 725.19,107.05 725.52,99.65 725.86,108.43 726.19,117.99 726.53,124.81 726.86,132.22 727.20,136.35 727.53,133.84 727.87,134.20 728.20,124.66 728.54,127.02 728.87,131.87 729.21,128.67 729.54,117.61 729.88,106.77 730.21,90.14 730.55,96.06 730.88,104.38 731.22,107.17 731.55,113.43 731.89,115.13 732.22,102.68 732.56,101.11 732.89,92.59 733.23,89.78 733.56,86.92 733.90,99.33 734.23,101.32 734.57,107.33 734.90,118.39 735.24,116.32 735.57,107.83 735.91,105.31 736.24,105.26 736.58,100.20 736.91,89.29 737.25,88.32 737.58,89.37 737.92,82.82 738.25,85.82 738.59,85.53 738.92,90.55 739.26,96.02 739.59,98.97 739.93,100.71 740.26,106.13 740.60,106.58 740.93,112.27 741.27,114.04 741.60,118.50 741.94,106.01 742.27,117.73 742.61,116.78 742.94,107.22 743.28,119.14 743.61,127.87 743.95,115.89 744.28,119.99 744.62,117.60 744.95,119.77 745.29,120.83 745.62,109.27 745.96,112.42 746.29,104.16 746.63,97.86 746.96,90.37 747.30,85.11 747.63,87.66 747.97,72.69 748.30,78.08 748.64,77.36 748.97,93.45 749.31,103.16 749.64,105.83 749.98,99.05 750.31,114.77 750.65,100.67 750.98,93.43 751.32,95.28 751.65,107.36 751.99,103.42 752.32,92.55 752.66,98.94 752.99,100.26 753.33,102.53 753.66,106.67 754.00,96.78 754.33,108.23 754.67,106.09 755.00,112.98"/>
<line x1="783" y1="58" x2="809" y2="58" stroke="#2563eb" stroke-width="3"/>
<text x="817" y="62" font-family="Arial" font-size="13" fill="#111827">Naive</text>
<polyline fill="none" stroke="#dc2626" stroke-width="2" points="85.00,356.00 85.34,356.00 85.67,355.90 86.01,355.82 86.34,355.81 86.68,355.76 87.01,355.76 87.35,355.74 87.68,355.44 88.02,355.16 88.35,355.57 88.69,355.24 89.02,355.43 89.36,355.51 89.69,355.27 90.03,355.52 90.36,355.62 90.70,355.45 91.03,355.61 91.37,355.11 91.70,356.10 92.04,356.50 92.37,357.15 92.71,356.81 93.04,356.79 93.38,357.79 93.71,358.52 94.05,358.42 94.38,358.31 94.72,359.02 95.05,359.18 95.39,359.13 95.72,359.96 96.06,360.82 96.39,361.60 96.73,361.71 97.06,361.47 97.40,361.27 97.73,362.99 98.07,362.16 98.40,361.80 98.74,362.21 99.07,363.83 99.41,363.56 99.74,364.02 100.08,364.22 100.41,364.04 100.75,364.32 101.08,364.40 101.42,364.27 101.75,363.99 102.09,364.01 102.42,364.22 102.76,364.27 103.09,364.57 103.43,364.15 103.76,364.69 104.10,365.60 104.43,365.33 104.77,364.81 105.10,364.19 105.44,364.14 105.77,364.24 106.11,364.65 106.44,364.41 106.78,364.60 107.11,364.79 107.45,364.53 107.78,364.80 108.12,364.86 108.45,364.98 108.79,364.88 109.12,364.77 109.46,365.01 109.79,365.06 110.13,365.10 110.46,364.95 110.80,365.17 111.13,364.96 111.47,365.11 111.80,365.14 112.14,365.23 112.47,365.08 112.81,364.44 113.14,364.34 113.48,364.34 113.81,364.48 114.15,364.49 114.48,364.41 114.82,364.41 115.15,364.17 115.49,364.34 115.82,364.22 116.16,365.16 116.49,364.45 116.83,364.56 117.16,363.92 117.50,364.52 117.83,364.70 118.17,364.56 118.50,365.21 118.84,365.31 119.17,365.03 119.51,365.10 119.84,365.02 120.18,364.94 120.51,364.87 120.85,364.76 121.18,364.56 121.52,364.73 121.85,364.63 122.19,363.95 122.52,363.31 122.86,362.05 123.19,361.90 123.53,362.08 123.86,362.74 124.20,363.25 124.53,362.84 124.87,362.71 125.20,362.75 125.54,362.67 125.87,362.55 126.21,362.65 126.54,362.65 126.88,362.61 127.21,362.50 127.55,362.25 127.88,362.06 128.22,362.11 128.55,362.50 128.89,363.04 129.22,362.93 129.56,362.85 129.89,363.32 130.23,363.04 130.56,363.15 130.90,363.29 131.23,363.10 131.57,363.05 131.90,362.87 132.24,362.94 132.57,362.68 132.91,362.61 133.24,362.52 133.58,362.51 133.91,362.47 134.25,362.50 134.58,362.57 134.92,362.53 135.25,362.36 135.59,361.52 135.92,361.27 136.26,361.16 136.59,360.69 136.93,360.18 137.26,360.54 137.60,359.41 137.93,359.93 138.27,360.31 138.60,360.63 138.94,361.26 139.27,361.12 139.61,361.68 139.94,361.34 140.28,361.74 140.61,361.85 140.95,361.33 141.28,361.29 141.62,361.23 141.95,359.20 142.29,359.33 142.62,358.30 142.96,359.29 143.29,359.45 143.63,360.09 143.96,358.97 144.30,359.53 144.63,359.60 144.97,360.91 145.30,361.08 145.64,361.36 145.97,363.39 146.31,362.76 146.64,362.32 146.98,361.18 147.31,361.05 147.65,361.67 147.98,362.30 148.32,365.01 148.65,364.35 148.99,363.27 149.32,363.11 149.66,363.37 149.99,362.82 150.33,363.63 150.66,363.45 151.00,362.65 151.33,361.85 151.67,362.24 152.00,362.91 152.34,363.23 152.67,362.68 153.01,363.25 153.34,362.69 153.68,362.87 154.01,362.50 154.35,362.51 154.68,362.36 155.02,363.22 155.35,363.79 155.69,362.50 156.02,362.85 156.36,363.48 156.69,363.83 157.03,363.54 157.36,364.52 157.70,365.75 158.03,366.60 158.37,366.53 158.70,365.47 159.04,364.66 159.37,364.36 159.71,364.00 160.04,363.13 160.38,362.62 160.71,362.42 161.05,361.70 161.38,360.17 161.72,359.33 162.05,359.14 162.39,358.73 162.72,357.34 163.06,357.22 163.39,356.40 163.73,356.65 164.06,355.70 164.40,355.32 164.73,354.56 165.07,354.23 165.40,354.55 165.74,353.75 166.07,353.86 166.41,353.52 166.74,353.74 167.08,353.86 167.41,354.05 167.75,353.90 168.08,354.11 168.42,354.12 168.75,354.12 169.09,354.12 169.42,354.10 169.76,354.21 170.09,354.13 170.43,354.03 170.76,354.20 171.10,354.35 171.43,354.21 171.77,354.01 172.10,354.02 172.44,354.00 172.77,354.07 173.11,353.71 173.44,353.65 173.78,353.69 174.11,353.82 174.45,352.71 174.78,352.80 175.12,352.77 175.45,352.68 175.79,352.65 176.12,352.17 176.46,351.93 176.79,351.23 177.13,350.20 177.46,349.52 177.80,350.33 178.13,350.52 178.47,350.35 178.80,351.01 179.14,350.43 179.47,349.77 179.81,350.21 180.14,350.03 180.48,350.02 180.81,350.28 181.15,350.35 181.48,349.68 181.82,350.32 182.15,349.34 182.49,349.71 182.82,349.02 183.16,348.29 183.49,348.88 183.83,348.55 184.16,348.82 184.50,348.61 184.83,348.93 185.17,348.87 185.50,348.70 185.84,348.16 186.17,348.24 186.51,349.50 186.84,349.74 187.18,350.00 187.51,349.55 187.85,349.57 188.18,348.28 188.52,347.86 188.85,348.58 189.19,348.64 189.52,348.96 189.86,348.11 190.19,349.40 190.53,350.06 190.86,349.72 191.20,349.61 191.53,349.38 191.87,349.78 192.20,350.04 192.54,352.49 192.87,352.56 193.21,352.90 193.54,352.16 193.88,352.81 194.21,353.55 194.55,353.68 194.88,352.02 195.22,352.05 195.55,352.47 195.89,352.08 196.22,349.84 196.56,350.68 196.89,349.27 197.23,349.72 197.56,348.16 197.90,347.50 198.23,347.00 198.57,347.81 198.90,347.07 199.24,345.88 199.57,347.87 199.91,348.54 200.24,348.42 200.58,349.12 200.91,348.35 201.25,349.54 201.58,348.65 201.92,348.17 202.25,347.24 202.59,346.29 202.92,346.51 203.26,346.26 203.59,345.55 203.93,345.72 204.26,345.94 204.60,345.86 204.93,345.63 205.27,347.58 205.60,347.65 205.94,347.54 206.27,348.24 206.61,349.22 206.94,349.82 207.28,347.98 207.61,346.34 207.95,346.13 208.28,343.98 208.62,344.40 208.95,344.55 209.29,344.75 209.62,344.18 209.96,346.42 210.29,344.40 210.63,344.32 210.96,342.59 211.30,341.02 211.63,340.70 211.97,341.22 212.30,340.89 212.64,341.37 212.97,343.58 213.31,342.57 213.64,341.37 213.98,342.49 214.31,341.95 214.65,341.68 214.98,342.75 215.32,343.28 215.65,342.73 215.99,341.58 216.32,342.23 216.66,342.21 216.99,341.55 217.33,340.46 217.66,338.33 218.00,339.46 218.33,337.84 218.67,336.00 219.00,334.76 219.34,335.28 219.67,332.89 220.01,332.53 220.34,333.02 220.68,332.72 221.01,331.98 221.35,331.32 221.68,330.67 222.02,331.37 222.35,332.63 222.69,333.57 223.02,334.85 223.36,334.47 223.69,335.77 224.03,334.19 224.36,335.87 224.70,334.80 225.03,334.15 225.37,333.42 225.70,333.52 226.04,333.25 226.37,334.37 226.71,335.24 227.04,334.64 227.38,335.10 227.71,335.34 228.05,335.36 228.38,335.29 228.72,335.42 229.05,335.92 229.39,335.27 229.72,335.07 230.06,334.84 230.39,334.38 230.73,333.83 231.06,333.91 231.40,333.69 231.73,333.62 232.07,333.08 232.40,332.65 232.74,333.03 233.07,332.57 233.41,331.76 233.74,331.93 234.08,331.94 234.41,331.84 234.75,333.07 235.08,332.94 235.42,333.44 235.75,334.13 236.09,333.79 236.42,334.03 236.76,334.70 237.09,335.08 237.43,335.06 237.76,335.12 238.10,334.82 238.43,334.23 238.77,334.25 239.10,334.56 239.44,334.55 239.77,334.07 240.11,334.01 240.44,334.24 240.78,334.44 241.11,334.62 241.45,334.41 241.78,334.41 242.12,334.41 242.45,334.32 242.79,334.51 243.12,334.11 243.46,334.40 243.79,334.32 244.13,334.32 244.46,334.32 244.80,334.03 245.13,334.04 245.47,333.88 245.80,333.93 246.14,333.90 246.47,334.20 246.81,334.31 247.14,334.38 247.48,334.56 247.81,334.22 248.15,334.81 248.48,334.92 248.82,334.11 249.15,334.17 249.49,334.10 249.82,334.44 250.16,334.29 250.49,334.01 250.83,334.17 251.16,334.09 251.50,333.81 251.83,334.01 252.17,334.11 252.50,334.30 252.84,333.71 253.17,334.13 253.51,333.75 253.84,333.72 254.18,333.41 254.51,333.38 254.85,333.43 255.18,333.36 255.52,333.29 255.85,333.37 256.19,333.37 256.52,333.14 256.86,332.98 257.19,332.71 257.53,332.42 257.86,332.92 258.20,333.28 258.53,333.22 258.87,332.98 259.20,333.41 259.54,333.17 259.87,333.28 260.21,334.05 260.54,333.95 260.88,334.37 261.21,334.54 261.55,334.64 261.88,335.28 262.22,335.21 262.55,334.81 262.89,334.81 263.22,335.02 263.56,334.24 263.89,333.92 264.23,333.65 264.56,333.89 264.90,332.71 265.23,333.52 265.57,332.89 265.90,333.68 266.24,333.57 266.57,332.15 266.91,334.14 267.24,333.85 267.58,332.97 267.91,332.91 268.25,332.10 268.58,333.50 268.92,332.91 269.25,332.32 269.59,332.17 269.92,331.59 270.26,330.62 270.59,329.85 270.93,329.22 271.26,330.22 271.60,331.47 271.93,332.16 272.27,330.31 272.60,330.46 272.94,329.74 273.27,331.16 273.61,330.83 273.94,330.45 274.28,330.10 274.61,331.19 274.95,330.14 275.28,329.68 275.62,329.96 275.95,329.78 276.29,329.82 276.62,330.07 276.96,329.20 277.29,328.72 277.63,329.26 277.96,329.33 278.30,329.76 278.63,329.77 278.97,329.86 279.30,330.75 279.64,330.73 279.97,330.39 280.31,331.32 280.64,331.71 280.98,330.60 281.31,330.47 281.65,330.25 281.98,330.89 282.32,331.14 282.65,330.10 282.99,329.57 283.32,329.19 283.66,329.49 283.99,328.95 284.33,328.26 284.66,327.93 285.00,328.41 285.33,329.33 285.67,328.96 286.00,328.53 286.34,328.81 286.67,328.30 287.01,328.20 287.34,328.13 287.68,328.37 288.01,328.67 288.35,328.50 288.68,328.66 289.02,329.08 289.35,329.21 289.69,329.05 290.02,328.81 290.36,328.47 290.69,328.79 291.03,328.67 291.36,328.19 291.70,328.14 292.03,329.11 292.37,329.04 292.70,329.24 293.04,328.96 293.37,328.65 293.71,327.51 294.04,327.32 294.38,327.93 294.71,328.58 295.05,328.29 295.38,328.06 295.72,327.78 296.05,328.43 296.39,328.94 296.72,329.60 297.06,329.69 297.39,329.51 297.73,329.72 298.06,330.31 298.40,329.34 298.73,328.80 299.07,328.86 299.40,328.82 299.74,329.85 300.07,329.53 300.41,330.71 300.74,329.83 301.08,330.71 301.41,331.32 301.75,331.51 302.08,333.18 302.42,333.50 302.75,333.89 303.09,333.93 303.42,333.94 303.76,333.52 304.09,332.78 304.43,332.86 304.76,332.68 305.10,332.86 305.43,333.40 305.77,334.24 306.10,334.28 306.44,335.92 306.77,336.41 307.11,335.34 307.44,334.79 307.78,336.20 308.11,336.81 308.45,337.13 308.78,337.72 309.12,337.92 309.45,337.62 309.79,337.58 310.12,338.30 310.46,338.28 310.79,337.20 311.13,336.01 311.46,335.60 311.80,335.60 312.13,335.52 312.47,336.85 312.80,336.97 313.14,337.68 313.47,337.70 313.81,337.36 314.14,337.53 314.48,337.53 314.81,337.98 315.15,338.98 315.48,339.85 315.82,340.20 316.15,339.63 316.49,338.91 316.82,338.62 317.16,338.79 317.49,339.10 317.83,339.27 318.16,339.30 318.50,339.50 318.83,339.19 319.17,339.19 319.50,339.00 319.84,339.20 320.17,339.14 320.51,339.14 320.84,339.14 321.18,339.14 321.51,339.14 321.85,339.14 322.18,339.14 322.52,339.14 322.85,339.14 323.19,338.97 323.52,338.47 323.86,338.57 324.19,338.90 324.53,338.89 324.86,338.87 325.20,338.66 325.53,338.53 325.87,338.33 326.20,337.91 326.54,337.68 326.87,337.90 327.21,337.73 327.54,337.68 327.88,337.54 328.21,337.60 328.55,337.41 328.88,337.58 329.22,337.75 329.55,337.46 329.89,337.25 330.22,337.14 330.56,336.86 330.89,336.66 331.23,336.57 331.56,336.55 331.90,336.95 332.23,337.38 332.57,337.23 332.90,337.07 333.24,337.26 333.57,337.07 333.91,337.03 334.24,337.20 334.58,337.14 334.91,337.20 335.25,337.21 335.58,337.17 335.92,337.18 336.25,337.19 336.59,337.19 336.92,337.22 337.26,337.20 337.59,337.20 337.93,337.20 338.26,337.19 338.60,337.21 338.93,337.23 339.27,337.20 339.60,337.09 339.94,337.18 340.27,337.32 340.61,337.01 340.94,337.27 341.28,337.22 341.61,336.86 341.95,336.86 342.28,336.58 342.62,336.22 342.95,335.93 343.29,335.40 343.62,335.22 343.96,335.18 344.29,335.03 344.63,335.12 344.96,335.25 345.30,335.39 345.63,335.12 345.97,335.60 346.30,334.73 346.64,334.43 346.97,335.48 347.31,335.85 347.64,336.31 347.98,336.76 348.31,336.71 348.65,337.51 348.98,336.63 349.32,336.05 349.65,336.27 349.99,336.44 350.32,336.31 350.66,336.83 350.99,336.37 351.33,336.29 351.66,336.46 352.00,336.23 352.33,336.40 352.67,336.44 353.00,337.14 353.34,337.48 353.67,337.86 354.01,337.78 354.34,339.18 354.68,339.89 355.01,340.23 355.35,339.61 355.68,339.92 356.02,340.06 356.35,339.72 356.69,339.27 357.02,337.83 357.36,337.90 357.69,337.96 358.03,337.84 358.36,337.83 358.70,337.70 359.03,337.35 359.37,337.88 359.70,337.40 360.04,337.63 360.37,337.25 360.71,335.23 361.04,335.12 361.38,334.74 361.71,336.22 362.05,335.18 362.38,333.72 362.72,334.96 363.05,336.10 363.39,336.29 363.72,335.37 364.06,335.70 364.39,335.33 364.73,335.58 365.06,336.67 365.40,338.61 365.73,341.04 366.07,338.54 366.40,338.57 366.74,340.98 367.07,341.67 367.41,339.40 367.74,339.90 368.08,341.13 368.41,341.40 368.75,339.37 369.08,337.34 369.42,337.79 369.75,339.04 370.09,338.99 370.42,337.54 370.76,337.23 371.09,339.26 371.43,339.53 371.76,341.12 372.10,340.68 372.43,341.58 372.77,341.86 373.10,342.11 373.44,341.71 373.77,342.73 374.11,342.25 374.44,343.29 374.78,343.98 375.11,345.87 375.45,347.44 375.78,347.99 376.12,348.71 376.45,348.50 376.79,347.92 377.12,349.77 377.46,348.97 377.79,348.13 378.13,348.25 378.46,349.27 378.80,349.57 379.13,349.67 379.47,349.66 379.80,349.25 380.14,348.68 380.47,349.63 380.81,348.50 381.14,348.49 381.48,347.07 381.81,348.64 382.15,348.37 382.48,347.59 382.82,346.71 383.15,346.54 383.49,346.55 383.82,346.80 384.16,346.08 384.49,346.31 384.83,345.18 385.16,343.40 385.50,343.95 385.83,342.83 386.17,341.63 386.50,343.10 386.84,344.77 387.17,345.99 387.51,344.29 387.84,345.13 388.18,343.56 388.51,341.87 388.85,341.60 389.18,341.13 389.52,342.59 389.85,343.09 390.19,343.10 390.52,343.80 390.86,342.84 391.19,342.50 391.53,341.55 391.86,339.89 392.20,341.80 392.53,345.45 392.87,344.04 393.20,343.79 393.54,341.12 393.87,340.45 394.21,340.32 394.54,340.80 394.88,340.00 395.21,340.61 395.55,339.67 395.88,340.28 396.22,339.14 396.55,339.69 396.89,338.60 397.22,338.86 397.56,339.62 397.89,339.91 398.23,340.11 398.56,342.51 398.90,342.76 399.23,342.14 399.57,342.14 399.90,341.94 400.24,342.85 400.57,341.93 400.91,342.49 401.24,343.45 401.58,343.33 401.91,343.93 402.25,343.45 402.58,343.69 402.92,343.66 403.25,344.22 403.59,343.66 403.92,344.06 404.26,343.85 404.59,344.66 404.93,344.89 405.26,344.94 405.60,345.90 405.93,346.28 406.27,346.44 406.60,345.71 406.94,345.60 407.27,346.40 407.61,346.01 407.94,345.63 408.28,346.14 408.61,346.67 408.95,346.07 409.28,345.78 409.62,345.88 409.95,346.05 410.29,346.25 410.62,346.05 410.96,346.02 411.29,346.10 411.63,346.12 411.96,346.18 412.30,346.17 412.63,346.01 412.97,346.09 413.30,346.05 413.64,346.05 413.97,346.07 414.31,346.15 414.64,346.17 414.98,346.13 415.31,346.24 415.65,346.39 415.98,346.42 416.32,346.39 416.65,346.26 416.99,346.33 417.32,346.19 417.66,345.17 417.99,345.17 418.33,345.67 418.66,345.08 419.00,344.73 419.33,344.82 419.67,344.70 420.00,344.60 420.34,343.81 420.67,343.06 421.01,343.75 421.34,342.79 421.68,342.33 422.01,341.60 422.35,342.18 422.68,341.57 423.02,341.06 423.35,341.44 423.69,341.50 424.02,341.11 424.36,340.61 424.69,341.14 425.03,340.93 425.36,340.84 425.70,340.43 426.03,339.47 426.37,339.50 426.70,340.74 427.04,341.30 427.37,341.07 427.71,341.29 428.04,342.21 428.38,342.63 428.71,342.08 429.05,342.74 429.38,342.19 429.72,341.69 430.05,342.25 430.39,341.92 430.72,341.66 431.06,341.48 431.39,341.57 431.73,340.90 432.06,340.84 432.40,340.94 432.73,341.20 433.07,341.15 433.40,340.97 433.74,341.49 434.07,340.92 434.41,340.34 434.74,340.64 435.08,340.81 435.41,340.83 435.75,340.61 436.08,340.85 436.42,340.69 436.75,340.78 437.09,340.45 437.42,340.56 437.76,340.76 438.09,340.57 438.43,340.64 438.76,341.03 439.10,340.39 439.43,340.56 439.77,340.07 440.10,339.31 440.44,338.90 440.77,339.51 441.11,339.22 441.44,340.90 441.78,340.14 442.11,341.27 442.45,340.68 442.78,340.72 443.12,339.88 443.45,339.79 443.79,340.19 444.12,341.04 444.46,343.20 444.79,340.55 445.13,340.68 445.46,340.07 445.80,340.12 446.13,339.90 446.47,338.92 446.80,338.58 447.14,340.09 447.47,340.76 447.81,339.66 448.14,340.35 448.48,340.54 448.81,341.80 449.15,343.56 449.48,343.09 449.82,342.53 450.15,343.49 450.49,343.36 450.82,342.92 451.16,343.64 451.49,345.57 451.83,344.10 452.16,343.99 452.50,344.06 452.83,342.43 453.17,342.17 453.50,340.72 453.84,340.71 454.17,339.94 454.51,340.92 454.84,344.62 455.18,344.40 455.51,341.38 455.85,340.07 456.18,343.06 456.52,345.67 456.85,347.24 457.19,349.46 457.52,350.95 457.86,351.33 458.19,348.29 458.53,349.68 458.86,348.73 459.20,349.03 459.53,344.30 459.87,344.42 460.20,341.43 460.54,341.67 460.87,340.51 461.21,338.13 461.54,341.16 461.88,340.33 462.21,337.21 462.55,338.05 462.88,338.00 463.22,338.52 463.55,337.04 463.89,339.94 464.22,338.99 464.56,339.50 464.89,335.60 465.23,337.38 465.56,337.58 465.90,339.85 466.23,340.20 466.57,344.55 466.90,345.53 467.24,346.53 467.57,346.63 467.91,344.79 468.24,341.33 468.58,341.84 468.91,339.05 469.25,339.13 469.58,339.67 469.92,338.45 470.25,340.07 470.59,334.68 470.92,334.97 471.26,334.91 471.59,331.47 471.93,328.05 472.26,331.74 472.60,334.89 472.93,332.94 473.27,332.86 473.60,332.29 473.94,337.41 474.27,340.86 474.61,344.89 474.94,345.85 475.28,349.33 475.61,354.30 475.95,352.49 476.28,348.59 476.62,345.45 476.95,349.85 477.29,354.27 477.62,352.98 477.96,354.87 478.29,362.74 478.63,365.73 478.96,361.15 479.30,362.88 479.63,360.89 479.97,363.43 480.30,365.38 480.64,360.58 480.97,357.51 481.31,358.33 481.64,359.19 481.98,357.00 482.31,358.53 482.65,355.71 482.98,359.75 483.32,361.28 483.65,359.30 483.99,362.26 484.32,362.36 484.66,364.07 484.99,365.66 485.33,367.27 485.66,371.03 486.00,374.68 486.33,375.39 486.67,381.40 487.00,388.31 487.34,387.37 487.67,383.50 488.01,378.90 488.34,377.97 488.68,379.37 489.01,383.96 489.35,387.67 489.68,387.37 490.02,386.88 490.35,391.19 490.69,391.54 491.02,394.62 491.36,394.51 491.69,398.96 492.03,397.89 492.36,402.72 492.70,404.67 493.03,407.93 493.37,409.55 493.70,408.97 494.04,411.19 494.37,412.99 494.71,413.76 495.04,412.48 495.38,417.77 495.71,416.38 496.05,413.61 496.38,413.27 496.72,409.41 497.05,410.26 497.39,411.84 497.72,414.81 498.06,416.29 498.39,420.54 498.73,417.66 499.06,416.98 499.40,416.94 499.73,417.55 500.07,417.68 500.40,419.11 500.74,421.58 501.07,419.39 501.41,414.03 501.74,413.78 502.08,413.44 502.41,411.71 502.75,411.23 503.08,411.88 503.42,413.13 503.75,410.55 504.09,408.36 504.42,410.07 504.76,413.80 505.09,414.26 505.43,413.68 505.76,415.34 506.10,413.16 506.43,410.03 506.77,412.15 507.10,409.74 507.44,406.20 507.77,407.07 508.11,412.56 508.44,410.36 508.78,411.47 509.11,413.38 509.45,415.27 509.78,413.89 510.12,409.92 510.45,413.00 510.79,412.34 511.12,408.12 511.46,409.48 511.79,410.12 512.13,409.55 512.46,406.56 512.80,409.03 513.13,409.92 513.47,405.84 513.80,409.87 514.14,406.90 514.47,404.35 514.81,407.40 515.14,401.66 515.48,402.88 515.81,404.12 516.15,405.80 516.48,405.63 516.82,408.40 517.15,406.80 517.49,402.04 517.82,399.66 518.16,403.73 518.49,403.87 518.83,403.09 519.16,408.25 519.50,413.05 519.83,417.86 520.17,420.78 520.50,419.87 520.84,419.97 521.17,417.93 521.51,411.31 521.84,408.94 522.18,409.69 522.51,409.94 522.85,406.38 523.18,405.23 523.52,408.60 523.85,409.14 524.19,412.64 524.52,410.91 524.86,412.45 525.19,410.55 525.53,404.72 525.86,407.74 526.20,411.28 526.53,405.97 526.87,404.39 527.20,401.23 527.54,398.13 527.87,399.68 528.21,399.86 528.54,401.69 528.88,402.12 529.21,403.09 529.55,402.60 529.88,404.84 530.22,405.35 530.55,400.03 530.89,400.06 531.22,399.55 531.56,396.07 531.89,397.46 532.23,394.39 532.56,398.32 532.90,398.93 533.23,407.03 533.57,406.80 533.90,407.04 534.24,413.74 534.57,413.51 534.91,415.18 535.24,417.61 535.58,420.37 535.91,421.32 536.25,422.17 536.58,421.42 536.92,412.95 537.25,408.61 537.59,407.93 537.92,410.33 538.26,411.54 538.59,411.57 538.93,409.04 539.26,407.05 539.60,409.48 539.93,407.27 540.27,406.03 540.60,405.09 540.94,404.78 541.27,405.42 541.61,405.39 541.94,402.92 542.28,405.49 542.61,404.75 542.95,405.51 543.28,407.57 543.62,410.54 543.95,408.52 544.29,405.08 544.62,405.68 544.96,404.84 545.29,406.60 545.63,409.40 545.96,412.94 546.30,415.24 546.63,418.39 546.97,414.81 547.30,416.91 547.64,413.41 547.97,414.05 548.31,411.42 548.64,411.61 548.98,413.57 549.31,409.11 549.65,412.09 549.98,416.83 550.32,414.34 550.65,415.30 550.99,417.13 551.32,421.01 551.66,420.22 551.99,419.15 552.33,420.68 552.66,421.73 553.00,423.66 553.33,424.88 553.67,426.28 554.00,427.65 554.34,426.69 554.67,428.42 555.01,429.26 555.34,431.20 555.68,430.99 556.01,429.78 556.35,429.95 556.68,428.47 557.02,429.74 557.35,427.99 557.69,427.64 558.02,423.74 558.36,422.73 558.69,421.86 559.03,421.55 559.36,419.29 559.70,423.96 560.03,427.16 560.37,426.92 560.70,424.64 561.04,429.94 561.37,429.92 561.71,433.13 562.04,431.30 562.38,431.01 562.71,436.05 563.05,435.94 563.38,437.44 563.72,440.48 564.05,433.78 564.39,431.42 564.72,433.73 565.06,430.24 565.39,432.84 565.73,433.54 566.06,434.87 566.40,435.41 566.73,431.59 567.07,433.29 567.40,430.43 567.74,428.95 568.07,424.76 568.41,421.40 568.74,424.83 569.08,423.93 569.41,425.42 569.75,426.54 570.08,421.59 570.42,418.00 570.75,413.06 571.09,413.01 571.42,411.40 571.76,406.70 572.09,408.86 572.43,413.13 572.76,418.48 573.10,421.67 573.43,414.72 573.77,410.39 574.10,412.19 574.44,414.02 574.77,409.57 575.11,407.04 575.44,407.52 575.78,408.16 576.11,410.67 576.45,410.85 576.78,412.49 577.12,413.77 577.45,413.89 577.79,407.52 578.12,402.20 578.46,397.57 578.79,396.12 579.13,393.76 579.46,393.16 579.80,393.33 580.13,393.96 580.47,400.32 580.80,397.36 581.14,403.58 581.47,399.92 581.81,393.40 582.14,390.75 582.48,387.04 582.81,384.02 583.15,385.40 583.48,387.12 583.82,389.18 584.15,388.07 584.49,384.44 584.82,381.43 585.16,382.80 585.49,381.87 585.83,384.42 586.16,379.51 586.50,379.76 586.83,379.75 587.17,383.74 587.50,382.92 587.84,381.06 588.17,373.20 588.51,376.34 588.84,375.78 589.18,378.32 589.51,375.46 589.85,377.31 590.18,370.89 590.52,369.14 590.85,360.05 591.19,363.18 591.52,367.07 591.86,352.57 592.19,362.12 592.53,361.58 592.86,368.26 593.20,368.48 593.53,377.46 593.87,378.63 594.20,376.21 594.54,378.71 594.87,367.04 595.21,373.57 595.54,380.55 595.88,382.23 596.21,385.76 596.55,384.92 596.88,384.31 597.22,391.20 597.55,386.41 597.89,386.11 598.22,382.66 598.56,383.58 598.89,379.65 599.23,370.60 599.56,370.63 599.90,373.50 600.23,368.22 600.57,366.41 600.90,368.13 601.24,364.44 601.57,371.50 601.91,376.50 602.24,378.11 602.58,374.56 602.91,367.69 603.25,369.70 603.58,368.35 603.92,374.16 604.25,369.49 604.59,367.68 604.92,362.41 605.26,362.58 605.59,361.56 605.93,346.48 606.26,345.01 606.60,338.07 606.93,341.16 607.27,346.43 607.60,347.43 607.94,339.84 608.27,341.31 608.61,343.55 608.94,335.96 609.28,333.16 609.61,335.90 609.95,340.83 610.28,339.39 610.62,330.78 610.95,330.72 611.29,322.99 611.62,314.38 611.96,314.38 612.29,312.37 612.63,312.28 612.96,313.67 613.30,312.26 613.63,308.11 613.97,310.77 614.30,308.01 614.64,311.30 614.97,318.03 615.31,320.68 615.64,320.21 615.98,313.70 616.31,323.00 616.65,320.67 616.98,320.94 617.32,313.58 617.65,304.66 617.99,309.51 618.32,305.79 618.66,309.95 618.99,308.58 619.33,305.51 619.66,308.26 620.00,308.20 620.33,298.17 620.67,289.83 621.00,285.54 621.34,279.20 621.67,286.77 622.01,276.85 622.34,267.97 622.68,268.00 623.01,263.20 623.35,262.36 623.68,267.30 624.02,264.29 624.35,250.07 624.69,261.23 625.02,261.37 625.36,262.37 625.69,254.02 626.03,252.18 626.36,250.52 626.70,240.89 627.03,238.57 627.37,239.66 627.70,242.49 628.04,242.09 628.37,234.39 628.71,238.43 629.04,239.98 629.38,237.20 629.71,233.15 630.05,244.19 630.38,235.47 630.72,226.39 631.05,224.48 631.39,222.91 631.72,229.56 632.06,233.82 632.39,236.49 632.73,230.01 633.06,224.71 633.40,224.64 633.73,217.36 634.07,227.19 634.40,222.32 634.74,218.56 635.07,226.91 635.41,223.89 635.74,235.75 636.08,232.04 636.41,231.43 636.75,241.21 637.08,233.32 637.42,234.39 637.75,224.14 638.09,213.66 638.42,205.14 638.76,196.51 639.09,201.01 639.43,193.78 639.76,201.31 640.10,192.35 640.43,192.71 640.77,195.05 641.10,192.52 641.44,186.01 641.77,182.01 642.11,186.58 642.44,180.59 642.78,188.61 643.11,191.62 643.45,183.19 643.78,182.31 644.12,182.75 644.45,187.16 644.79,190.02 645.12,185.10 645.46,184.46 645.79,185.56 646.13,181.73 646.46,186.15 646.80,177.01 647.13,174.05 647.47,184.19 647.80,186.54 648.14,183.99 648.47,183.06 648.81,185.20 649.14,192.00 649.48,188.95 649.81,196.28 650.15,198.45 650.48,197.01 650.82,187.39 651.15,184.33 651.49,191.42 651.82,193.06 652.16,187.76 652.49,186.88 652.83,194.54 653.16,191.73 653.50,185.90 653.83,180.98 654.17,181.49 654.50,172.16 654.84,165.99 655.17,163.83 655.51,163.33 655.84,165.36 656.18,173.87 656.51,157.35 656.85,158.58 657.18,154.81 657.52,147.45 657.85,134.95 658.19,125.28 658.52,134.65 658.86,135.77 659.19,135.39 659.53,143.33 659.86,142.18 660.20,139.56 660.53,136.75 660.87,146.37 661.20,149.12 661.54,143.64 661.87,144.87 662.21,137.07 662.54,136.85 662.88,144.36 663.21,139.87 663.55,132.16 663.88,138.72 664.22,142.61 664.55,146.19 664.89,147.19 665.22,152.41 665.56,162.72 665.89,166.60 666.23,182.32 666.56,183.54 666.90,189.42 667.23,180.81 667.57,180.30 667.90,182.69 668.24,173.05 668.57,168.61 668.91,159.40 669.24,165.34 669.58,170.54 669.91,163.77 670.25,161.28 670.58,164.42 670.92,166.53 671.25,166.24 671.59,157.95 671.92,157.59 672.26,160.13 672.59,156.92 672.93,156.42 673.26,167.21 673.60,172.98 673.93,176.78 674.27,156.81 674.60,161.88 674.94,157.54 675.27,158.63 675.61,152.84 675.94,155.00 676.28,137.47 676.61,130.32 676.95,132.37 677.28,136.68 677.62,130.65 677.95,131.44 678.29,127.30 678.62,132.56 678.96,134.22 679.29,139.74 679.63,140.79 679.96,142.34 680.30,154.41 680.63,154.97 680.97,157.35 681.30,155.62 681.64,148.69 681.97,151.23 682.31,150.02 682.64,150.17 682.98,153.99 683.31,153.77 683.65,145.71 683.98,150.13 684.32,142.00 684.65,142.94 684.99,145.33 685.32,143.77 685.66,141.99 685.99,151.00 686.33,151.44 686.66,156.65 687.00,147.55 687.33,140.60 687.67,153.35 688.00,143.34 688.34,136.95 688.67,135.45 689.01,142.22 689.34,146.05 689.68,139.08 690.01,138.11 690.35,147.22 690.68,147.20 691.02,144.95 691.35,123.30 691.69,131.82 692.02,132.46 692.36,133.44 692.69,129.64 693.03,133.63 693.36,138.30 693.70,140.34 694.03,139.68 694.37,138.43 694.70,148.51 695.04,144.47 695.37,144.86 695.71,141.34 696.04,142.87 696.38,132.91 696.71,126.52 697.05,134.95 697.38,131.10 697.72,130.91 698.05,131.13 698.39,126.97 698.72,137.61 699.06,132.80 699.39,123.19 699.73,124.10 700.06,124.39 700.40,114.76 700.73,118.67 701.07,116.28 701.40,124.49 701.74,126.39 702.07,120.02 702.41,113.51 702.74,115.64 703.08,111.15 703.41,114.87 703.75,107.06 704.08,105.30 704.42,101.10 704.75,103.16 705.09,110.15 705.42,117.94 705.76,125.62 706.09,102.75 706.43,94.36 706.76,86.21 707.10,96.64 707.43,97.64 707.77,102.60 708.10,94.82 708.44,106.06 708.77,100.35 709.11,90.03 709.44,94.74 709.78,106.42 710.11,98.37 710.45,93.28 710.78,92.37 711.12,96.79 711.45,93.06 711.79,95.78 712.12,104.43 712.46,102.26 712.79,104.31 713.13,108.78 713.46,104.80 713.80,111.56 714.13,107.61 714.47,126.07 714.80,132.95 715.14,133.99 715.47,143.14 715.81,164.43 716.14,172.03 716.48,154.61 716.81,151.14 717.15,145.80 717.48,136.89 717.82,131.27 718.15,110.03 718.49,107.59 718.82,111.10 719.16,121.13 719.49,120.86 719.83,119.71 720.16,106.73 720.50,93.32 720.83,93.35 721.17,93.34 721.50,81.29 721.84,79.69 722.17,83.07 722.51,96.89 722.84,93.92 723.18,91.14 723.51,76.70 723.85,81.06 724.18,82.52 724.52,92.86 724.85,97.29 725.19,106.36 725.52,98.82 725.86,107.76 726.19,117.50 726.53,124.45 726.86,132.00 727.20,136.21 727.53,133.65 727.87,134.02 728.20,124.30 728.54,126.70 728.87,131.64 729.21,128.38 729.54,117.11 729.88,106.08 730.21,89.13 730.55,95.16 730.88,103.64 731.22,106.48 731.55,112.86 731.89,114.59 732.22,101.90 732.56,100.31 732.89,91.63 733.23,88.76 733.56,85.86 733.90,98.49 734.23,100.53 734.57,106.66 734.90,117.92 735.24,115.81 735.57,107.17 735.91,104.60 736.24,104.56 736.58,99.40 736.91,88.29 737.25,87.30 737.58,88.39 737.92,81.72 738.25,84.80 738.59,84.51 738.92,89.61 739.26,95.19 739.59,98.20 739.93,99.97 740.26,105.49 740.60,105.95 740.93,111.75 741.27,113.55 741.60,118.09 741.94,105.37 742.27,117.31 742.61,116.34 742.94,106.60 743.28,118.75 743.61,127.64 743.95,115.43 744.28,119.63 744.62,117.20 744.95,119.41 745.29,120.48 745.62,108.72 745.96,111.94 746.29,103.55 746.63,97.13 746.96,89.51 747.30,84.15 747.63,86.75 747.97,71.52 748.30,77.01 748.64,76.28 748.97,92.65 749.31,102.53 749.64,105.25 749.98,98.34 750.31,114.35 750.65,100.00 750.98,92.63 751.32,94.51 751.65,106.81 751.99,102.80 752.32,91.73 752.66,98.23 752.99,99.57 753.33,101.90 753.66,106.12 754.00,96.06 754.33,107.71 754.67,105.53 755.00,112.54"/>
<line x1="783" y1="82" x2="809" y2="82" stroke="#dc2626" stroke-width="3"/>
<text x="817" y="86" font-family="Arial" font-size="13" fill="#111827">Avellaneda Stoikov</text>
<polyline fill="none" stroke="#7c3aed" stroke-width="2" points=""/>
<line x1="783" y1="106" x2="809" y2="106" stroke="#7c3aed" stroke-width="3"/>
<text x="817" y="110" font-family="Arial" font-size="13" fill="#111827">Calibrated Avellaneda Stoikov</text>
<text x="420.0" y="518" text-anchor="middle" font-family="Arial" font-size="14" fill="#111827">Event index</text>
<text x="22" y="256.0" text-anchor="middle" transform="rotate(-90 22 256.0)" font-family="Arial" font-size="14" fill="#111827">Net PnL after fees</text>
</svg>
