<svg xmlns="http://www.w3.org/2000/svg" width="940" height="540" viewBox="0 0 940 540">
<rect width="100%" height="100%" fill="#ffffff"/>
<text x="470.0" y="26" text-anchor="middle" font-family="Arial" font-size="18" fill="#111827">Naive Inventory By Regime</text>
<line x1="85" y1="470" x2="785" y2="470" stroke="#111827" stroke-width="1"/>
<line x1="85" y1="42" x2="85" y2="470" stroke="#111827" stroke-width="1"/>
<line x1="85.00" y1="42" x2="85.00" y2="470" stroke="#e5e7eb" stroke-width="1"/>
<text x="85.00" y="494" text-anchor="middle" font-family="Arial" font-size="12" fill="#374151">0</text>
<line x1="260.00" y1="42" x2="260.00" y2="470" stroke="#e5e7eb" stroke-width="1"/>
<text x="260.00" y="494" text-anchor="middle" font-family="Arial" font-size="12" fill="#374151">50000</text>
<line x1="435.00" y1="42" x2="435.00" y2="470" stroke="#e5e7eb" stroke-width="1"/>
<text x="435.00" y="494" text-anchor="middle" font-family="Arial" font-size="12" fill="#374151">100000</text>
<line x1="610.00" y1="42" x2="610.00" y2="470" stroke="#e5e7eb" stroke-width="1"/>
<text x="610.00" y="494" text-anchor="middle" font-family="Arial" font-size="12" fill="#374151">149999</text>
<line x1="785.00" y1="42" x2="785.00" y2="470" stroke="#e5e7eb" stroke-width="1"/>
<text x="785.00" y="494" text-anchor="middle" font-family="Arial" font-size="12" fill="#374151">199999</text>
<line x1="85" y1="470.00" x2="785" y2="470.00" stroke="#e5e7eb" stroke-width="1"/>
<text x="73" y="474.00" text-anchor="end" font-family="Arial" font-size="12" fill="#374151">-222</text>
<line x1="85" y1="363.00" x2="785" y2="363.00" stroke="#e5e7eb" stroke-width="1"/>
<text x="73" y="367.00" text-anchor="end" font-family="Arial" font-size="12" fill="#374151">3</text>
<line x1="85" y1="256.00" x2="785" y2="256.00" stroke="#e5e7eb" stroke-width="1"/>
<text x="73" y="260.00" text-anchor="end" font-family="Arial" font-size="12" fill="#374151">228</text>
<line x1="85" y1="149.00" x2="785" y2="149.00" stroke="#e5e7eb" stroke-width="1"/>
<text x="73" y="153.00" text-anchor="end" font-family="Arial" font-size="12" fill="#374151">452</text>
<line x1="85" y1="42.00" x2="785" y2="42.00" stroke="#e5e7eb" stroke-width="1"/>
<text x="73" y="46.00" text-anchor="end" font-family="Arial" font-size="12" fill="#374151">677</text>
<polyline fill="none" stroke="#2563eb" stroke-width="2" points="85.00,364.31 85.35,369.07 85.70,373.83 86.05,378.59 86.40,378.59 86.75,383.35 87.10,383.35 87.45,378.59 87.80,378.59 88.15,378.59 88.50,378.59 88.85,373.83 89.20,373.83 89.55,378.59 89.90,378.59 90.25,373.83 90.60,373.83 90.95,369.07 91.30,369.07 91.65,364.31 92.00,364.31 92.35,364.31 92.70,364.31 93.05,364.31 93.40,364.31 93.75,364.31 94.10,364.31 94.45,364.31 94.80,369.07 95.15,369.07 95.50,369.07 95.85,373.83 96.20,373.83 96.55,364.31 96.90,364.31 97.25,364.31 97.60,364.31 97.95,359.55 98.30,354.79 98.65,354.79 99.00,354.79 99.35,354.79 99.70,350.03 100.05,350.03 100.40,350.03 100.75,350.03 101.10,350.03 101.45,350.03 101.80,350.03 102.15,350.03 102.50,354.79 102.85,350.03 103.20,350.03 103.55,350.03 103.90,354.79 104.25,354.79 104.60,354.79 104.95,354.79 105.30,354.79 105.65,354.79 106.00,354.79 106.35,354.79 106.70,354.79 107.05,354.79 107.40,354.79 107.75,350.03 108.10,350.03 108.45,350.03 108.80,354.79 109.15,354.79 109.50,354.79 109.85,354.79 110.20,350.03 110.55,350.03 110.90,345.27 111.25,345.27 111.60,354.79 111.95,354.79 112.30,354.79 112.65,350.03 113.00,345.27 113.35,345.27 113.70,345.27 114.05,345.27 114.40,345.27 114.75,345.27 115.10,345.27 115.45,345.27 115.80,340.51 116.15,340.51 116.50,340.51 116.85,340.51 117.20,345.27 117.55,345.27 117.90,345.27 118.25,340.51 118.60,340.51 118.95,335.74 119.30,340.51 119.65,340.51 120.00,340.51 120.35,340.51 120.70,345.27 121.05,345.27 121.40,345.27 121.75,345.27 122.10,345.27 122.45,345.27 122.80,340.51 123.15,340.51 123.50,340.51 123.85,335.74 124.20,335.74 124.55,335.74 124.90,335.74 125.25,335.74 125.60,335.74 125.95,335.74 126.30,340.51 126.65,340.51 127.00,345.27 127.35,340.51 127.70,340.51 128.05,340.51 128.40,340.51 128.75,345.27 129.10,340.51 129.45,340.51 129.80,340.51 130.15,340.51 130.50,345.27 130.85,340.51 131.20,340.51 131.55,340.51 131.90,335.74 132.25,345.27 132.60,350.03 132.95,350.03 133.30,350.03 133.65,345.27 134.00,345.27 134.35,350.03 134.70,350.03 135.05,359.55 135.40,359.55 135.75,364.31 136.10,364.31 136.45,364.31 136.80,364.31 137.15,369.07 137.50,369.07 137.85,369.07 138.20,369.07 138.55,364.31 138.90,369.07 139.25,373.83 139.60,373.83 139.95,373.83 140.30,373.83 140.65,373.83 141.00,373.83 141.35,378.59 141.70,383.35 142.05,388.11 142.40,388.11 142.75,388.11 143.10,388.11 143.45,392.87 143.80,388.11 144.15,383.35 144.50,378.59 144.85,373.83 145.20,369.07 145.55,369.07 145.90,369.07 146.25,369.07 146.60,369.07 146.95,369.07 147.30,369.07 147.65,369.07 148.00,369.07 148.35,373.83 148.70,378.59 149.05,378.59 149.40,378.59 149.75,378.59 150.10,369.07 150.45,369.07 150.80,369.07 151.15,364.31 151.50,364.31 151.85,364.31 152.20,364.31 152.55,364.31 152.90,364.31 153.25,364.31 153.60,364.31 153.95,364.31 154.30,364.31 154.65,364.31 155.00,364.31 155.35,364.31 155.70,364.31 156.05,369.07 156.40,369.07 156.75,369.07 157.10,369.07 157.45,373.83 157.80,378.59 158.15,378.59 158.50,373.83 158.85,373.83 159.20,373.83 159.55,373.83 159.90,373.83 160.25,369.07 160.60,369.07 160.95,373.83 161.30,373.83 161.65,373.83 162.00,373.83 162.35,373.83 162.70,373.83 163.05,373.83 163.40,373.83 163.75,369.07 164.10,369.07 164.45,369.07 164.80,369.07 165.15,369.07 165.50,364.31 165.85,364.31 166.20,364.31 166.55,369.07 166.90,364.31 167.25,369.07 167.60,369.07 167.95,369.07 168.30,369.07 168.65,373.83 169.00,373.83 169.35,373.83 169.70,369.07 170.05,364.31 170.40,364.31 170.75,364.31 171.10,359.55 171.45,354.79 171.80,354.79 172.15,354.79 172.50,350.03 172.85,345.27 173.20,345.27 173.55,345.27 173.90,345.27 174.25,345.27 174.60,350.03 174.95,354.79 175.30,354.79 175.65,354.79 176.00,354.79 176.35,354.79 176.70,354.79 177.05,359.55 177.40,359.55 177.75,364.31 178.10,364.31 178.45,364.31 178.80,364.31 179.15,359.55 179.50,359.55 179.85,354.79 180.20,350.03 180.55,354.79 180.90,354.79 181.25,354.79 181.60,354.79 181.95,354.79 182.30,354.79 182.65,354.79 183.00,354.79 183.35,359.55 183.70,364.31 184.05,364.31 184.40,369.07 184.75,369.07 185.10,369.07 185.45,369.07 185.80,369.07 186.15,369.07 186.50,369.07 186.85,369.07 187.20,369.07 187.55,369.07 187.90,364.31 188.25,364.31 188.60,364.31 188.95,369.07 189.30,364.31 189.65,364.31 190.00,364.31 190.35,364.31 190.70,364.31 191.05,364.31 191.40,364.31 191.75,364.31 192.10,364.31 192.45,364.31 192.80,364.31 193.15,364.31 193.50,364.31 193.85,364.31 194.20,364.31 194.55,364.31 194.90,364.31 195.25,364.31 195.60,359.55 195.95,359.55 196.30,359.55 196.65,359.55 197.00,359.55 197.35,354.79 197.70,354.79 198.05,354.79 198.40,354.79 198.75,354.79 199.10,354.79 199.45,350.03 199.80,350.03 200.15,345.27 200.50,340.51 200.85,340.51 201.20,340.51 201.55,340.51 201.90,340.51 202.25,340.51 202.60,340.51 202.95,345.27 203.30,345.27 203.65,340.51 204.00,338.60 204.35,343.36 204.70,348.12 205.05,352.88 205.40,352.88 205.75,352.88 206.10,352.88 206.45,357.64 206.80,357.64 207.15,352.88 207.50,352.88 207.85,352.88 208.20,357.64 208.55,357.64 208.90,357.64 209.25,362.40 209.60,362.40 209.95,362.40 210.30,362.40 210.65,357.64 211.00,357.64 211.35,357.64 211.70,362.40 212.05,362.40 212.40,362.40 212.75,362.40 213.10,362.40 213.45,362.40 213.80,367.17 214.15,367.17 214.50,367.17 214.85,367.17 215.20,376.69 215.55,381.45 215.90,386.21 216.25,386.21 216.60,386.21 216.95,386.21 217.30,386.21 217.65,381.45 218.00,381.45 218.35,381.45 218.70,381.45 219.05,381.45 219.40,381.45 219.75,386.21 220.10,386.21 220.45,386.21 220.80,386.21 221.15,386.21 221.50,386.21 221.85,386.21 222.20,386.21 222.55,386.21 222.90,386.21 223.25,390.97 223.60,400.49 223.95,400.49 224.30,400.49 224.65,400.49 225.00,400.49 225.35,400.49 225.70,400.49 226.05,395.73 226.40,395.73 226.75,395.73 227.10,400.49 227.45,400.49 227.80,395.73 228.15,395.73 228.50,395.73 228.85,386.21 229.20,386.21 229.55,386.21 229.90,381.45 230.25,381.45 230.60,381.45 230.95,386.21 231.30,381.45 231.65,376.69 232.00,376.69 232.35,371.93 232.70,371.93 233.05,371.93 233.40,371.93 233.75,371.93 234.10,371.93 234.45,371.93 234.80,371.93 235.15,371.93 235.50,371.93 235.85,371.93 236.20,367.17 236.55,367.17 236.90,362.40 237.25,362.40 237.60,362.40 237.95,352.88 238.30,348.12 238.65,352.88 239.00,352.88 239.35,352.88 239.70,352.88 240.05,362.40 240.40,362.40 240.75,357.64 241.10,348.12 241.45,348.12 241.80,348.12 242.15,348.12 242.50,348.12 242.85,348.12 243.20,348.12 243.55,352.88 243.90,352.88 244.25,352.88 244.60,352.88 244.95,352.88 245.30,352.88 245.65,352.88 246.00,352.88 246.35,348.12 246.70,348.12 247.05,338.60 247.40,343.36 247.75,343.36 248.10,343.36 248.45,348.12 248.80,343.36 249.15,343.36 249.50,343.36 249.85,343.36 250.20,338.60 250.55,343.36 250.90,343.36 251.25,343.36 251.60,338.60 251.95,338.60 252.30,338.60 252.65,338.60 253.00,343.36 253.35,343.36 253.70,343.36 254.05,338.60 254.40,338.60 254.75,343.36 255.10,343.36 255.45,343.36 255.80,348.12 256.15,348.12 256.50,348.12 256.85,352.88 257.20,352.88 257.55,352.88 257.90,348.12 258.25,348.12 258.60,338.60 258.95,333.84 259.30,333.84 259.65,333.84 260.00,333.84 260.35,333.84 260.70,333.84 261.05,333.84 261.40,333.84 261.75,343.36 262.10,343.36 262.45,343.36 262.80,343.36 263.15,343.36 263.50,343.36 263.85,338.60 264.20,338.60 264.55,338.60 264.90,338.60 265.25,338.60 265.60,338.60 265.95,333.84 266.30,333.84 266.65,329.08 267.00,329.08 267.35,329.08 267.70,324.32 268.05,324.32 268.40,324.32 268.75,329.08 269.10,333.84 269.45,333.84 269.80,333.84 270.15,338.60 270.50,338.60 270.85,333.84 271.20,329.08 271.55,329.08 271.90,329.08 272.25,329.08 272.60,329.08 272.95,329.08 273.30,329.08 273.65,329.08 274.00,329.08 274.35,329.08 274.70,329.08 275.05,329.08 275.40,329.08 275.75,329.08 276.10,329.08 276.45,329.08 276.80,329.08 277.15,329.08 277.50,329.08 277.85,329.08 278.20,329.08 278.55,329.08 278.90,329.08 279.25,329.08 279.60,329.08 279.95,329.08 280.30,329.08 280.65,329.08 281.00,329.08 281.35,329.08 281.70,329.08 282.05,329.08 282.40,329.08 282.75,329.08 283.10,329.08 283.45,329.08 283.80,329.08 284.15,329.08 284.50,329.08 284.85,333.84 285.20,338.60 285.55,338.60 285.90,333.84 286.25,333.84 286.60,329.08 286.95,329.08 287.30,329.08 287.65,329.08 288.00,329.08 288.35,329.08 288.70,333.84 289.05,333.84 289.40,333.84 289.75,338.60 290.10,343.36 290.45,343.36 290.80,343.36 291.15,343.36 291.50,343.36 291.85,343.36 292.20,343.36 292.55,348.12 292.90,338.60 293.25,338.60 293.60,338.60 293.95,338.60 294.30,348.12 294.65,348.12 295.00,348.12 295.35,348.12 295.70,348.12 296.05,348.12 296.40,348.12 296.75,348.12 297.10,352.88 297.45,352.88 297.80,352.88 298.15,352.88 298.50,352.88 298.85,352.88 299.20,352.88 299.55,352.88 299.90,352.88 300.25,352.88 300.60,352.88 300.95,352.88 301.30,352.88 301.65,352.88 302.00,357.64 302.35,357.64 302.70,357.64 303.05,357.64 303.40,352.88 303.75,352.88 304.10,352.88 304.45,352.88 304.80,352.88 305.15,357.64 305.50,357.64 305.85,357.64 306.20,357.64 306.55,357.64 306.90,357.64 307.25,357.64 307.60,362.40 307.95,362.40 308.30,362.40 308.65,362.40 309.00,362.40 309.35,357.64 309.70,357.64 310.05,352.88 310.40,357.64 310.75,357.64 311.10,362.40 311.45,362.40 311.80,357.64 312.15,352.88 312.50,352.88 312.85,352.88 313.20,357.64 313.55,357.64 313.90,357.64 314.25,357.64 314.60,357.64 314.95,357.64 315.30,357.64 315.65,352.88 316.00,348.12 316.35,348.12 316.70,338.60 317.05,338.60 317.40,338.60 317.75,338.60 318.10,338.60 318.45,338.60 318.80,333.84 319.15,333.84 319.50,338.60 319.85,338.60 320.20,333.84 320.55,329.08 320.90,333.84 321.25,333.84 321.60,333.84 321.95,333.84 322.30,333.84 322.65,333.84 323.00,333.84 323.35,333.84 323.70,333.84 324.05,333.84 324.40,333.84 324.75,329.08 325.10,324.32 325.45,329.08 325.80,329.08 326.15,329.08 326.50,329.08 326.85,324.32 327.20,319.56 327.55,319.56 327.90,319.56 328.25,314.80 328.60,314.80 328.95,314.80 329.30,310.04 329.65,310.04 330.00,310.04 330.35,310.04 330.70,310.04 331.05,310.04 331.40,310.04 331.75,314.80 332.10,310.04 332.45,310.04 332.80,314.80 333.15,310.04 333.50,310.04 333.85,310.04 334.20,310.04 334.55,310.04 334.90,310.04 335.25,310.04 335.60,310.04 335.95,310.04 336.30,310.04 336.65,310.04 337.00,305.27 337.35,305.27 337.70,305.27 338.05,305.27 338.40,305.27 338.75,300.51 339.10,295.75 339.45,305.27 339.80,305.27 340.15,305.27 340.50,305.27 340.85,300.51 341.20,305.27 341.55,305.27 341.90,305.27 342.25,300.51 342.60,305.27 342.95,305.27 343.30,305.27 343.65,300.51 344.00,305.27 344.35,310.04 344.70,310.04 345.05,310.04 345.40,310.04 345.75,310.04 346.10,310.04 346.45,310.04 346.80,310.04 347.15,310.04 347.50,310.04 347.85,305.27 348.20,305.27 348.55,305.27 348.90,305.27 349.25,305.27 349.60,305.27 349.95,295.75 350.30,290.99 350.65,290.99 351.00,286.23 351.35,286.23 351.70,286.23 352.05,286.23 352.40,281.47 352.75,281.47 353.10,276.71 353.45,276.71 353.80,281.47 354.15,286.23 354.50,286.23 354.85,286.23 355.20,290.99 355.55,295.75 355.90,295.75 356.25,295.75 356.60,290.99 356.95,290.99 357.30,286.23 357.65,290.99 358.00,295.75 358.35,295.75 358.70,295.75 359.05,295.75 359.40,300.51 359.75,300.51 360.10,300.51 360.45,300.51 360.80,300.51 361.15,300.51 361.50,300.51 361.85,300.51 362.20,300.51 362.55,300.51 362.90,295.75 363.25,295.75 363.60,295.75 363.95,295.75 364.30,295.75 364.65,295.75 365.00,295.75 365.35,290.99 365.70,286.23 366.05,290.99 366.40,290.99 366.75,290.99 367.10,290.99 367.45,290.99 367.80,290.99 368.15,290.99 368.50,295.75 368.85,295.75 369.20,295.75 369.55,300.51 369.90,300.51 370.25,300.51 370.60,300.51 370.95,300.51 371.30,300.51 371.65,300.51 372.00,300.51 372.35,300.51 372.70,300.51 373.05,290.99 373.40,290.99 373.75,290.99 374.10,290.99 374.45,286.23 374.80,286.23 375.15,286.23 375.50,286.23 375.85,286.23 376.20,286.23 376.55,286.23 376.90,286.23 377.25,286.23 377.60,286.23 377.95,286.23 378.30,281.47 378.65,281.47 379.00,276.71 379.35,281.47 379.70,281.47 380.05,276.71 380.40,276.71 380.75,267.19 381.10,267.19 381.45,267.19 381.80,267.19 382.15,271.95 382.50,271.95 382.85,271.95 383.20,267.19 383.55,262.43 383.90,262.43 384.25,262.43 384.60,262.43 384.95,257.67 385.30,257.67 385.65,252.91 386.00,252.91 386.35,252.91 386.70,248.14 387.05,248.14 387.40,248.14 387.75,248.14 388.10,248.14 388.45,248.14 388.80,248.14 389.15,248.14 389.50,248.14 389.85,243.38 390.20,243.38 390.55,248.14 390.90,248.14 391.25,243.38 391.60,243.38 391.95,252.91 392.30,252.91 392.65,252.91 393.00,252.91 393.35,252.91 393.70,252.91 394.05,248.14 394.40,248.14 394.75,248.14 395.10,248.14 395.45,248.14 395.80,243.38 396.15,243.38 396.50,243.38 396.85,243.38 397.20,238.62 397.55,238.62 397.90,238.62 398.25,238.62 398.60,238.62 398.95,238.62 399.30,238.62 399.65,238.62 400.00,238.62 400.35,238.62 400.70,243.38 401.05,243.38 401.40,243.38 401.75,243.38 402.10,243.38 402.45,238.62 402.80,238.62 403.15,238.62 403.50,238.62 403.85,238.62 404.20,238.62 404.55,238.62 404.90,238.62 405.25,238.62 405.60,238.62 405.95,238.62 406.30,238.62 406.65,229.10 407.00,233.86 407.35,233.86 407.70,233.86 408.05,233.86 408.40,233.86 408.75,238.62 409.10,233.86 409.45,233.86 409.80,229.10 410.15,224.34 410.50,233.86 410.85,233.86 411.20,229.10 411.55,229.10 411.90,224.34 412.25,224.34 412.60,224.34 412.95,224.34 413.30,224.34 413.65,224.34 414.00,224.34 414.35,224.34 414.70,224.34 415.05,224.34 415.40,224.34 415.75,229.10 416.10,224.34 416.45,219.58 416.80,210.06 417.15,210.06 417.50,210.06 417.85,210.06 418.20,210.06 418.55,210.06 418.90,214.82 419.25,214.82 419.60,210.06 419.95,205.30 420.30,205.30 420.65,200.54 421.00,200.54 421.35,200.54 421.70,200.54 422.05,200.54 422.40,200.54 422.75,200.54 423.10,200.54 423.45,200.54 423.80,195.78 424.15,195.78 424.50,195.78 424.85,195.78 425.20,195.78 425.55,195.78 425.90,195.78 426.25,205.30 426.60,205.30 426.95,205.30 427.30,205.30 427.65,205.30 428.00,200.54 428.35,195.78 428.70,195.78 429.05,195.78 429.40,195.78 429.75,195.78 430.10,195.78 430.45,200.54 430.80,200.54 431.15,200.54 431.50,200.54 431.85,200.54 432.20,200.54 432.55,200.54 432.90,200.54 433.25,200.54 433.60,200.54 433.95,200.54 434.30,200.54 434.65,200.54 435.00,200.54 435.35,200.54 435.70,200.54 436.05,200.54 436.40,200.54 436.75,200.54 437.10,200.54 437.45,195.78 437.80,195.78 438.15,191.01 438.50,186.25 438.85,186.25 439.20,186.25 439.55,186.25 439.90,186.25 440.25,186.25 440.60,181.49 440.95,181.49 441.30,181.49 441.65,186.25 442.00,191.01 442.35,195.78 442.70,195.78 443.05,191.01 443.40,191.01 443.75,186.25 444.10,186.25 444.45,186.25 444.80,186.25 445.15,186.25 445.50,186.25 445.85,186.25 446.20,181.49 446.55,181.49 446.90,176.73 447.25,176.73 447.60,176.73 447.95,176.73 448.30,176.73 448.65,176.73 449.00,176.73 449.35,176.73 449.70,176.73 450.05,176.73 450.40,176.73 450.75,176.73 451.10,176.73 451.45,176.73 451.80,176.73 452.15,176.73 452.50,176.73 452.85,176.73 453.20,176.73 453.55,171.97 453.90,171.97 454.25,171.97 454.60,171.97 454.95,171.97 455.30,171.97 455.65,167.21 456.00,167.21 456.35,167.21 456.70,171.97 457.05,167.21 457.40,167.21 457.75,167.21 458.10,167.21 458.45,167.21 458.80,167.21 459.15,167.21 459.50,167.21 459.85,167.21 460.20,167.21 460.55,167.21 460.90,167.21 461.25,167.21 461.60,162.45 461.95,157.69 462.30,157.69 462.65,157.69 463.00,157.69 463.35,157.69 463.70,157.69 464.05,157.69 464.40,157.69 464.75,157.69 465.10,157.69 465.45,157.69 465.80,157.69 466.15,152.93 466.50,152.93 466.85,157.69 467.20,157.69 467.55,162.45 467.90,162.45 468.25,162.45 468.60,162.45 468.95,162.45 469.30,162.45 469.65,157.69 470.00,162.45 470.35,157.69 470.70,152.93 471.05,157.69 471.40,162.45 471.75,162.45 472.10,162.45 472.45,162.45 472.80,152.93 473.15,157.69 473.50,157.69 473.85,157.69 474.20,162.45 474.55,162.45 474.90,162.45 475.25,162.45 475.60,157.69 475.95,157.69 476.30,152.93 476.65,152.93 477.00,152.93 477.35,152.93 477.70,152.93 478.05,152.93 478.40,152.93 478.75,152.93 479.10,148.17 479.45,148.17 479.80,148.17 480.15,148.17 480.50,143.41 480.85,138.65 481.20,138.65 481.55,138.65 481.90,138.65 482.25,138.65 482.60,138.65 482.95,133.88 483.30,133.88 483.65,133.88 484.00,133.88 484.35,133.88 484.70,133.88 485.05,133.88 485.40,133.88 485.75,138.65 486.10,133.88 486.45,133.88 486.80,133.88 487.15,133.88 487.50,133.88 487.85,133.88 488.20,138.65 488.55,143.41 488.90,143.41 489.25,143.41 489.60,148.17 489.95,148.17 490.30,148.17 490.65,152.93 491.00,152.93 491.35,152.93 491.70,152.93 492.05,157.21 492.40,157.21 492.75,161.97 493.10,161.97 493.45,161.97 493.80,161.97 494.15,161.97 494.50,157.21 494.85,157.21 495.20,157.21 495.55,157.21 495.90,157.21 496.25,157.21 496.60,157.21 496.95,157.21 497.30,157.21 497.65,152.45 498.00,152.45 498.35,147.69 498.70,147.69 499.05,147.69 499.40,147.69 499.75,152.45 500.10,147.69 500.45,147.69 500.80,147.69 501.15,147.69 501.50,147.69 501.85,147.69 502.20,147.69 502.55,147.69 502.90,147.69 503.25,147.69 503.60,147.69 503.95,147.69 504.30,152.45 504.65,152.45 505.00,152.45 505.35,152.45 505.70,157.21 506.05,157.21 506.40,161.97 506.75,161.97 507.10,161.97 507.45,166.73 507.80,166.73 508.15,157.21 508.50,157.21 508.85,157.21 509.20,157.21 509.55,161.97 509.90,166.73 510.25,166.73 510.60,166.73 510.95,166.73 511.30,171.49 511.65,171.49 512.00,171.49 512.35,176.26 512.70,176.26 513.05,176.26 513.40,176.26 513.75,176.26 514.10,176.26 514.45,176.26 514.80,176.26 515.15,176.26 515.50,181.02 515.85,181.02 516.20,181.02 516.55,176.26 516.90,181.02 517.25,181.02 517.60,181.02 517.95,176.26 518.30,171.49 518.65,171.49 519.00,161.97 519.35,161.97 519.70,161.97 520.05,161.97 520.40,161.97 520.75,161.97 521.10,157.21 521.45,157.21 521.80,157.21 522.15,157.21 522.50,157.21 522.85,157.21 523.20,157.21 523.55,157.21 523.90,157.21 524.25,161.97 524.60,157.21 524.95,157.21 525.30,166.73 525.65,166.73 526.00,166.73 526.35,166.73 526.70,166.73 527.05,166.73 527.40,166.73 527.75,171.49 528.10,176.26 528.45,176.26 528.80,181.02 529.15,181.02 529.50,181.02 529.85,176.26 530.20,176.26 530.55,176.26 530.90,176.26 531.25,171.49 531.60,171.49 531.95,176.26 532.30,176.26 532.65,176.26 533.00,181.02 533.35,181.02 533.70,181.02 534.05,181.02 534.40,181.02 534.75,181.02 535.10,185.78 535.45,190.54 535.80,190.54 536.15,190.54 536.50,190.54 536.85,190.54 537.20,190.54 537.55,190.54 537.90,190.54 538.25,190.54 538.60,181.02 538.95,185.78 539.30,190.54 539.65,190.54 540.00,195.30 540.35,195.30 540.70,195.30 541.05,190.54 541.40,190.54 541.75,190.54 542.10,190.54 542.45,200.06 542.80,200.06 543.15,195.30 543.50,185.78 543.85,185.78 544.20,185.78 544.55,185.78 544.90,185.78 545.25,185.78 545.60,185.78 545.95,185.78 546.30,185.78 546.65,185.78 547.00,185.78 547.35,190.54 547.70,176.26 548.05,171.49 548.40,171.49 548.75,171.49 549.10,171.49 549.45,171.49 549.80,171.49 550.15,166.73 550.50,166.73 550.85,166.73 551.20,157.21 551.55,157.21 551.90,157.21 552.25,157.21 552.60,157.21 552.95,161.97 553.30,161.97 553.65,157.21 554.00,157.21 554.35,152.45 554.70,147.69 555.05,152.45 555.40,161.97 555.75,157.21 556.10,157.21 556.45,157.21 556.80,157.21 557.15,157.21 557.50,157.21 557.85,157.21 558.20,161.97 558.55,166.73 558.90,166.73 559.25,171.49 559.60,171.49 559.95,171.49 560.30,171.49 560.65,171.49 561.00,176.26 561.35,171.49 561.70,166.73 562.05,166.73 562.40,166.73 562.75,161.97 563.10,171.49 563.45,171.49 563.80,171.49 564.15,166.73 564.50,166.73 564.85,166.73 565.20,161.97 565.55,161.97 565.90,161.97 566.25,166.73 566.60,166.73 566.95,161.97 567.30,161.97 567.65,161.97 568.00,161.97 568.35,161.97 568.70,161.97 569.05,161.97 569.40,161.97 569.75,152.45 570.10,152.45 570.45,152.45 570.80,152.45 571.15,147.69 571.50,147.69 571.85,147.69 572.20,147.69 572.55,152.45 572.90,147.69 573.25,147.69 573.60,147.69 573.95,147.69 574.30,142.93 574.65,142.93 575.00,142.93 575.35,147.69 575.70,147.69 576.05,147.69 576.40,147.69 576.75,142.93 577.10,138.17 577.45,138.17 577.80,138.17 578.15,133.41 578.50,133.41 578.85,133.41 579.20,133.41 579.55,138.17 579.90,138.17 580.25,133.41 580.60,128.65 580.95,128.65 581.30,128.65 581.65,133.41 582.00,133.41 582.35,133.41 582.70,133.41 583.05,133.41 583.40,128.65 583.75,128.65 584.10,128.65 584.45,128.65 584.80,128.65 585.15,128.65 585.50,128.65 585.85,128.65 586.20,133.41 586.55,133.41 586.90,128.65 587.25,128.65 587.60,128.65 587.95,128.65 588.30,128.65 588.65,128.65 589.00,133.41 589.35,133.41 589.70,133.41 590.05,133.41 590.40,133.41 590.75,128.65 591.10,128.65 591.45,128.65 591.80,128.65 592.15,128.65 592.50,128.65 592.85,128.65 593.20,128.65 593.55,123.89 593.90,119.13 594.25,114.36 594.60,114.36 594.95,114.36 595.30,114.36 595.65,114.36 596.00,114.36 596.35,114.36 596.70,109.60 597.05,104.84 597.40,100.08 597.75,104.84 598.10,104.84 598.45,104.84 598.80,104.84 599.15,104.84 599.50,104.84 599.85,104.84 600.20,100.08 600.55,100.08 600.90,104.84 601.25,104.84 601.60,104.84 601.95,104.84 602.30,104.84 602.65,104.84 603.00,104.84 603.35,104.84 603.70,100.08 604.05,100.08 604.40,100.08 604.75,100.08 605.10,100.08 605.45,100.08 605.80,100.08 606.15,100.08 606.50,100.08 606.85,100.08 607.20,100.08 607.55,100.08 607.90,90.56 608.25,85.80 608.60,90.56 608.95,85.80 609.30,85.80 609.65,76.28 610.00,71.52 610.35,71.52 610.70,76.28 611.05,76.28 611.40,81.04 611.75,81.04 612.10,76.28 612.45,76.28 612.80,76.28 613.15,76.28 613.50,76.28 613.85,76.28 614.20,76.28 614.55,76.28 614.90,76.28 615.25,81.04 615.60,85.80 615.95,85.80 616.30,90.56 616.65,90.56 617.00,90.56 617.35,90.56 617.70,90.56 618.05,100.08 618.40,104.84 618.75,104.84 619.10,104.84 619.45,104.84 619.80,104.84 620.15,104.84 620.50,109.60 620.85,114.36 621.20,114.36 621.55,114.36 621.90,95.32 622.25,95.32 622.60,90.56 622.95,90.56 623.30,95.32 623.65,95.32 624.00,95.32 624.35,95.32 624.70,95.32 625.05,95.32 625.40,95.32 625.75,95.32 626.10,90.56 626.45,90.56 626.80,95.32 627.15,95.32 627.50,90.56 627.85,90.56 628.20,90.56 628.55,95.32 628.90,95.32 629.25,95.32 629.60,95.32 629.95,90.56 630.30,95.32 630.65,90.56 631.00,90.56 631.35,90.56 631.70,85.80 632.05,81.04 632.40,81.04 632.75,76.28 633.10,76.28 633.45,85.80 633.80,85.80 634.15,85.80 634.50,90.56 634.85,90.56 635.20,90.56 635.55,90.56 635.90,90.56 636.25,90.56 636.60,90.56 636.95,90.56 637.30,85.80 637.65,85.80 638.00,85.80 638.35,85.80 638.70,81.04 639.05,81.04 639.40,81.04 639.75,81.04 640.10,81.04 640.45,81.04 640.80,81.04 641.15,81.04 641.50,81.04 641.85,81.04 642.20,81.04 642.55,81.04 642.90,81.04 643.25,81.04 643.60,81.04 643.95,81.04 644.30,81.04 644.65,76.28 645.00,76.28 645.35,76.28 645.70,76.28 646.05,76.28 646.40,76.28 646.75,76.28 647.10,76.28 647.45,85.80 647.80,85.80 648.15,85.80 648.50,85.80 648.85,85.80 649.20,90.56 649.55,90.56 649.90,85.80 650.25,85.80 650.60,85.80 650.95,85.80 651.30,85.80 651.65,85.80 652.00,90.56 652.35,85.80 652.70,85.80 653.05,85.80 653.40,85.80 653.75,85.80 654.10,85.80 654.45,85.80 654.80,81.04 655.15,81.04 655.50,81.04 655.85,81.04 656.20,81.04 656.55,81.04 656.90,81.04 657.25,76.28 657.60,76.28 657.95,76.28 658.30,76.28 658.65,76.28 659.00,71.52 659.35,76.28 659.70,71.52 660.05,71.52 660.40,76.28 660.75,76.28 661.10,76.28 661.45,76.28 661.80,76.28 662.15,76.28 662.50,81.04 662.85,81.04 663.20,81.04 663.55,81.04 663.90,81.04 664.25,81.04 664.60,81.04 664.95,81.04 665.30,81.04 665.65,85.80 666.00,85.80 666.35,85.80 666.70,85.80 667.05,85.80 667.40,85.80 667.75,85.80 668.10,85.80 668.45,85.80 668.80,90.56 669.15,90.56 669.50,90.56 669.85,90.56 670.20,90.56 670.55,90.56 670.90,90.56 671.25,90.56 671.60,90.56 671.95,90.56 672.30,90.56 672.65,90.56 673.00,95.32 673.35,100.08 673.70,100.08 674.05,100.08 674.40,100.08 674.75,100.08 675.10,100.08 675.45,104.84 675.80,104.84 676.15,104.84 676.50,104.84 676.85,109.60 677.20,109.60 677.55,109.60 677.90,114.36 678.25,119.13 678.60,119.13 678.95,123.89 679.30,123.89 679.65,123.89 680.00,123.89 680.35,123.89 680.70,123.89 681.05,123.89 681.40,123.89 681.75,123.89 682.10,119.13 682.45,119.13 682.80,119.13 683.15,119.13 683.50,119.13 683.85,119.13 684.20,119.13 684.55,119.13 684.90,114.36 685.25,114.36 685.60,114.36 685.95,114.36 686.30,109.60 686.65,109.60 687.00,109.60 687.35,109.60 687.70,104.84 688.05,104.84 688.40,104.84 688.75,104.84 689.10,104.84 689.45,104.84 689.80,104.84 690.15,104.84 690.50,104.84 690.85,104.84 691.20,104.84 691.55,100.08 691.90,100.08 692.25,100.08 692.60,100.08 692.95,100.08 693.30,95.32 693.65,95.32 694.00,95.32 694.35,95.32 694.70,95.32 695.05,95.32 695.40,95.32 695.75,104.84 696.10,100.08 696.45,100.08 696.80,104.84 697.15,104.84 697.50,109.60 697.85,109.60 698.20,109.60 698.55,109.60 698.90,109.60 699.25,109.60 699.60,109.60 699.95,104.84 700.30,100.08 700.65,104.84 701.00,104.84 701.35,104.84 701.70,104.84 702.05,109.60 702.40,109.60 702.75,109.60 703.10,109.60 703.45,114.36 703.80,114.36 704.15,109.60 704.50,104.84 704.85,104.84 705.20,100.08 705.55,95.32 705.90,90.56 706.25,85.80 706.60,85.80 706.95,85.80 707.30,85.80 707.65,85.80 708.00,85.80 708.35,85.80 708.70,85.80 709.05,85.80 709.40,85.80 709.75,85.80 710.10,85.80 710.45,85.80 710.80,85.80 711.15,85.80 711.50,85.80 711.85,85.80 712.20,85.80 712.55,85.80 712.90,85.80 713.25,85.80 713.60,85.80 713.95,81.04 714.30,81.04 714.65,81.04 715.00,81.04 715.35,81.04 715.70,81.04 716.05,81.04 716.40,81.04 716.75,81.04 717.10,81.04 717.45,81.04 717.80,81.04 718.15,81.04 718.50,81.04 718.85,81.04 719.20,81.04 719.55,81.04 719.90,81.04 720.25,81.04 720.60,85.80 720.95,85.80 721.30,85.80 721.65,85.80 722.00,85.80 722.35,85.80 722.70,85.80 723.05,85.80 723.40,90.56 723.75,90.56 724.10,90.56 724.45,100.08 724.80,100.08 725.15,100.08 725.50,104.84 725.85,104.84 726.20,109.60 726.55,109.60 726.90,109.60 727.25,109.60 727.60,109.60 727.95,109.60 728.30,109.60 728.65,109.60 729.00,109.60 729.35,109.60 729.70,109.60 730.05,109.60 730.40,114.36 730.75,114.36 731.10,109.60 731.45,114.36 731.80,114.36 732.15,109.60 732.50,109.60 732.85,109.60 733.20,100.08 733.55,100.08 733.90,100.08 734.25,100.08 734.60,104.84 734.95,104.84 735.30,104.84 735.65,104.84 736.00,109.60 736.35,109.60 736.70,109.60 737.05,104.84 737.40,104.84 737.75,104.84 738.10,100.08 738.45,100.08 738.80,100.08 739.15,100.08 739.50,100.08 739.85,100.08 740.20,100.08 740.55,100.08 740.90,100.08 741.25,100.08 741.60,100.08 741.95,100.08 742.30,104.84 742.65,104.84 743.00,104.84 743.35,104.84 743.70,104.84 744.05,104.84 744.40,104.84 744.75,109.60 745.10,109.60 745.45,109.60 745.80,109.60 746.15,109.60 746.50,109.60 746.85,109.60 747.20,114.36 747.55,119.13 747.90,119.13 748.25,119.13 748.60,119.13 748.95,119.13 749.30,119.13 749.65,119.13 750.00,119.13 750.35,119.13 750.70,123.89 751.05,123.89 751.40,128.65 751.75,128.65 752.10,128.65 752.45,128.65 752.80,128.65 753.15,128.65 753.50,128.65 753.85,123.89 754.20,128.65 754.55,128.65 754.90,128.65 755.25,128.65 755.60,128.65 755.95,128.65 756.30,128.65 756.65,128.65 757.00,128.65 757.35,128.65 757.70,128.65 758.05,128.65 758.40,128.65 758.75,128.65 759.10,128.65 759.45,132.46 759.80,132.46 760.15,132.46 760.50,132.46 760.85,132.46 761.20,132.46 761.55,132.46 761.90,137.22 762.25,137.22 762.60,137.22 762.95,137.22 763.30,137.22 763.65,137.22 764.00,137.22 764.35,137.22 764.70,137.22 765.05,132.46 765.40,127.70 765.75,127.70 766.10,127.70 766.45,127.70 766.80,127.70 767.15,127.70 767.50,127.70 767.85,127.70 768.20,127.70 768.55,122.93 768.90,122.93 769.25,122.93 769.60,122.93 769.95,122.93 770.30,122.93 770.65,122.93 771.00,122.93 771.35,118.17 771.70,118.17 772.05,122.93 772.40,122.93 772.75,122.93 773.10,122.93 773.45,122.93 773.80,122.93 774.15,113.41 774.50,113.41 774.85,113.41 775.20,113.41 775.55,108.65 775.90,108.65 776.25,108.65 776.60,113.41 776.95,113.41 777.30,113.41 777.65,113.41 778.00,118.17 778.35,118.17 778.70,118.17 779.05,122.93 779.40,122.93 779.75,122.93 780.10,122.93 780.45,122.93 780.80,122.93 781.15,127.70 781.50,127.70 781.85,127.70 782.20,127.70 782.55,127.70 782.90,127.70 783.25,127.70 783.60,132.46 783.95,132.46 784.30,132.46 784.65,132.46 785.00,132.46"/>
<line x1="813" y1="54" x2="839" y2="54" stroke="#2563eb" stroke-width="3"/>
<text x="847" y="58" font-family="Arial" font-size="13" fill="#111827">low volatility</text>
<polyline fill="none" stroke="#dc2626" stroke-width="2" points="85.00,364.31 85.35,364.31 85.70,364.31 86.05,364.31 86.40,364.31 86.75,364.31 87.10,369.07 87.45,369.07 87.80,369.07 88.15,369.07 88.50,364.31 88.85,364.31 89.20,369.07 89.55,369.07 89.90,369.07 90.25,369.07 90.60,378.59 90.95,378.59 91.30,378.59 91.65,373.83 92.00,373.83 92.35,369.07 92.70,369.07 93.05,369.07 93.40,369.07 93.75,369.07 94.10,373.83 94.45,373.83 94.80,373.83 95.15,373.83 95.50,373.83 95.85,369.07 96.20,369.07 96.55,369.07 96.90,369.07 97.25,369.07 97.60,369.07 97.95,369.07 98.30,373.83 98.65,369.07 99.00,369.07 99.35,369.07 99.70,369.07 100.05,369.07 100.40,369.07 100.75,369.07 101.10,373.83 101.45,373.83 101.80,373.83 102.15,373.83 102.50,383.35 102.85,383.35 103.20,383.35 103.55,383.35 103.90,388.11 104.25,388.11 104.60,388.11 104.95,388.11 105.30,388.11 105.65,388.11 106.00,388.11 106.35,388.11 106.70,383.35 107.05,388.11 107.40,392.87 107.75,392.87 108.10,392.87 108.45,392.87 108.80,392.87 109.15,392.87 109.50,392.87 109.85,392.87 110.20,392.87 110.55,397.64 110.90,397.64 111.25,397.64 111.60,397.64 111.95,402.40 112.30,407.16 112.65,407.16 113.00,407.16 113.35,407.16 113.70,407.16 114.05,407.16 114.40,407.16 114.75,407.16 115.10,402.40 115.45,402.40 115.80,402.40 116.15,402.40 116.50,407.16 116.85,407.16 117.20,411.92 117.55,411.92 117.90,421.44 118.25,426.20 118.60,430.96 118.95,435.72 119.30,435.72 119.65,435.72 120.00,430.96 120.35,426.20 120.70,421.44 121.05,421.44 121.40,421.44 121.75,416.68 122.10,416.68 122.45,416.68 122.80,416.68 123.15,416.68 123.50,416.68 123.85,416.68 124.20,416.68 124.55,411.92 124.90,411.92 125.25,411.92 125.60,416.68 125.95,416.68 126.30,416.68 126.65,416.68 127.00,411.92 127.35,411.92 127.70,411.92 128.05,411.92 128.40,407.16 128.75,407.16 129.10,407.16 129.45,411.92 129.80,411.92 130.15,411.92 130.50,411.92 130.85,411.92 131.20,411.92 131.55,416.68 131.90,416.68 132.25,416.68 132.60,416.68 132.95,416.68 133.30,421.44 133.65,421.44 134.00,426.20 134.35,426.20 134.70,426.20 135.05,426.20 135.40,435.72 135.75,440.48 136.10,440.48 136.45,435.72 136.80,435.72 137.15,435.72 137.50,430.96 137.85,426.20 138.20,421.44 138.55,421.44 138.90,426.20 139.25,426.20 139.60,426.20 139.95,421.44 140.30,421.44 140.65,421.44 141.00,421.44 141.35,421.44 141.70,421.44 142.05,421.44 142.40,426.20 142.75,426.20 143.10,430.96 143.45,430.96 143.80,426.20 144.15,426.20 144.50,426.20 144.85,421.44 145.20,421.44 145.55,421.44 145.90,426.20 146.25,426.20 146.60,426.20 146.95,426.20 147.30,426.20 147.65,426.20 148.00,426.20 148.35,430.96 148.70,430.96 149.05,430.96 149.40,426.20 149.75,426.20 150.10,435.72 150.45,435.72 150.80,435.72 151.15,440.48 151.50,430.96 151.85,430.96 152.20,426.20 152.55,421.44 152.90,421.44 153.25,426.20 153.60,426.20 153.95,426.20 154.30,426.20 154.65,426.20 155.00,426.20 155.35,426.20 155.70,426.20 156.05,426.20 156.40,426.20 156.75,426.20 157.10,416.68 157.45,411.92 157.80,411.92 158.15,411.92 158.50,411.92 158.85,402.40 159.20,402.40 159.55,411.92 159.90,411.92 160.25,416.68 160.60,411.92 160.95,411.92 161.30,411.92 161.65,411.92 162.00,411.92 162.35,402.40 162.70,402.40 163.05,402.40 163.40,402.40 163.75,402.40 164.10,402.40 164.45,402.40 164.80,402.40 165.15,402.40 165.50,402.40 165.85,402.40 166.20,402.40 166.55,402.40 166.90,402.40 167.25,402.40 167.60,402.40 167.95,402.40 168.30,402.40 168.65,402.40 169.00,402.40 169.35,402.40 169.70,402.40 170.05,402.40 170.40,407.16 170.75,407.16 171.10,407.16 171.45,402.40 171.80,402.40 172.15,397.64 172.50,397.64 172.85,402.40 173.20,407.16 173.55,407.16 173.90,407.16 174.25,411.92 174.60,416.68 174.95,416.68 175.30,416.68 175.65,421.44 176.00,416.68 176.35,416.68 176.70,416.68 177.05,411.92 177.40,411.92 177.75,416.68 178.10,416.68 178.45,411.92 178.80,411.92 179.15,411.92 179.50,407.16 179.85,402.40 180.20,402.40 180.55,402.40 180.90,402.40 181.25,397.64 181.60,397.64 181.95,392.87 182.30,392.87 182.65,388.11 183.00,388.11 183.35,383.35 183.70,378.59 184.05,378.59 184.40,378.59 184.75,383.35 185.10,388.11 185.45,383.35 185.80,383.35 186.15,383.35 186.50,383.35 186.85,383.35 187.20,383.35 187.55,383.35 187.90,378.59 188.25,383.35 188.60,383.35 188.95,383.35 189.30,383.35 189.65,383.35 190.00,378.59 190.35,383.35 190.70,383.35 191.05,383.35 191.40,378.59 191.75,378.59 192.10,378.59 192.45,373.83 192.80,373.83 193.15,373.83 193.50,373.83 193.85,373.83 194.20,378.59 194.55,378.59 194.90,378.59 195.25,378.59 195.60,378.59 195.95,378.59 196.30,378.59 196.65,378.59 197.00,378.59 197.35,378.59 197.70,378.59 198.05,378.59 198.40,378.59 198.75,383.35 199.10,388.11 199.45,392.87 199.80,388.11 200.15,388.11 200.50,383.35 200.85,383.35 201.20,383.35 201.55,383.35 201.90,388.11 202.25,388.11 202.60,388.11 202.95,388.11 203.30,383.35 203.65,383.35 204.00,388.11 204.35,388.11 204.70,388.11 205.05,388.11 205.40,388.11 205.75,388.11 206.10,388.11 206.45,388.11 206.80,388.11 207.15,383.35 207.50,383.35 207.85,383.35 208.20,378.59 208.55,378.59 208.90,378.59 209.25,378.59 209.60,378.59 209.95,378.59 210.30,378.59 210.65,383.35 211.00,383.35 211.35,383.35 211.70,383.35 212.05,383.35 212.40,383.35 212.75,383.35 213.10,383.35 213.45,383.35 213.80,378.59 214.15,383.35 214.50,383.35 214.85,383.35 215.20,383.35 215.55,378.59 215.90,378.59 216.25,383.35 216.60,378.59 216.95,373.83 217.30,373.83 217.65,378.59 218.00,378.59 218.35,383.35 218.70,383.35 219.05,383.35 219.40,383.35 219.75,383.35 220.10,383.35 220.45,383.35 220.80,383.35 221.15,383.35 221.50,383.35 221.85,383.35 222.20,383.35 222.55,383.35 222.90,392.87 223.25,388.11 223.60,388.11 223.95,388.11 224.30,388.11 224.65,388.11 225.00,388.11 225.35,388.11 225.70,392.87 226.05,392.87 226.40,392.87 226.75,392.87 227.10,392.87 227.45,392.87 227.80,392.87 228.15,392.87 228.50,392.87 228.85,388.11 229.20,392.87 229.55,392.87 229.90,388.11 230.25,388.11 230.60,392.87 230.95,392.87 231.30,392.87 231.65,388.11 232.00,388.11 232.35,388.11 232.70,388.11 233.05,388.11 233.40,383.35 233.75,383.35 234.10,383.35 234.45,383.35 234.80,383.35 235.15,383.35 235.50,383.35 235.85,383.35 236.20,383.35 236.55,388.11 236.90,388.11 237.25,388.11 237.60,388.11 237.95,388.11 238.30,388.11 238.65,388.11 239.00,388.11 239.35,388.11 239.70,388.11 240.05,388.11 240.40,392.87 240.75,392.87 241.10,392.87 241.45,392.87 241.80,392.87 242.15,392.87 242.50,392.87 242.85,392.87 243.20,392.87 243.55,392.87 243.90,392.87 244.25,392.87 244.60,388.11 244.95,383.35 245.30,383.35 245.65,383.35 246.00,388.11 246.35,388.11 246.70,388.11 247.05,392.87 247.40,402.40 247.75,402.40 248.10,402.40 248.45,402.40 248.80,402.40 249.15,402.40 249.50,397.64 249.85,397.64 250.20,397.64 250.55,397.64 250.90,397.64 251.25,397.64 251.60,397.64 251.95,397.64 252.30,397.64 252.65,397.64 253.00,397.64 253.35,397.64 253.70,397.64 254.05,397.64 254.40,397.64 254.75,397.64 255.10,402.40 255.45,407.16 255.80,407.16 256.15,407.16 256.50,397.64 256.85,392.87 257.20,392.87 257.55,392.87 257.90,392.87 258.25,392.87 258.60,392.87 258.95,397.64 259.30,397.64 259.65,402.40 260.00,397.64 260.35,397.64 260.70,392.87 261.05,392.87 261.40,392.87 261.75,392.87 262.10,392.87 262.45,392.87 262.80,392.87 263.15,397.64 263.50,397.64 263.85,397.64 264.20,397.64 264.55,397.64 264.90,397.64 265.25,397.64 265.60,397.64 265.95,392.87 266.30,392.87 266.65,392.87 267.00,392.87 267.35,392.87 267.70,392.87 268.05,392.87 268.40,392.87 268.75,392.87 269.10,392.87 269.45,392.87 269.80,392.87 270.15,392.87 270.50,392.87 270.85,392.87 271.20,392.87 271.55,392.87 271.90,392.87 272.25,392.87 272.60,392.87 272.95,392.87 273.30,397.64 273.65,397.64 274.00,397.64 274.35,402.40 274.70,407.16 275.05,407.16 275.40,407.16 275.75,402.40 276.10,407.16 276.45,407.16 276.80,407.16 277.15,407.16 277.50,407.16 277.85,407.16 278.20,407.16 278.55,407.16 278.90,407.16 279.25,397.64 279.60,397.64 279.95,397.64 280.30,397.64 280.65,402.40 281.00,402.40 281.35,402.40 281.70,402.40 282.05,402.40 282.40,402.40 282.75,402.40 283.10,397.64 283.45,397.64 283.80,392.87 284.15,392.87 284.50,392.87 284.85,388.11 285.20,388.11 285.55,392.87 285.90,392.87 286.25,392.87 286.60,388.11 286.95,388.11 287.30,388.11 287.65,383.35 288.00,383.35 288.35,383.35 288.70,383.35 289.05,383.35 289.40,378.59 289.75,373.83 290.10,369.07 290.45,364.31 290.80,364.31 291.15,364.31 291.50,359.55 291.85,359.55 292.20,359.55 292.55,359.55 292.90,359.55 293.25,359.55 293.60,359.55 293.95,359.55 294.30,359.55 294.65,359.55 295.00,364.31 295.35,359.55 295.70,359.55 296.05,359.55 296.40,359.55 296.75,359.55 297.10,359.55 297.45,359.55 297.80,359.55 298.15,359.55 298.50,359.55 298.85,359.55 299.20,359.55 299.55,359.55 299.90,359.55 300.25,359.55 300.60,359.55 300.95,359.55 301.30,359.55 301.65,354.79 302.00,354.79 302.35,354.79 302.70,354.79 303.05,354.79 303.40,354.79 303.75,354.79 304.10,354.79 304.45,359.55 304.80,369.07 305.15,369.07 305.50,369.07 305.85,364.31 306.20,364.31 306.55,364.31 306.90,364.31 307.25,364.31 307.60,364.31 307.95,364.31 308.30,364.31 308.65,364.31 309.00,364.31 309.35,359.55 309.70,359.55 310.05,359.55 310.40,359.55 310.75,354.79 311.10,354.79 311.45,354.79 311.80,354.79 312.15,359.55 312.50,354.79 312.85,354.79 313.20,354.79 313.55,350.03 313.90,354.79 314.25,354.79 314.60,359.55 314.95,359.55 315.30,359.55 315.65,359.55 316.00,359.55 316.35,345.27 316.70,335.74 317.05,335.74 317.40,335.74 317.75,335.74 318.10,335.74 318.45,330.98 318.80,330.98 319.15,330.98 319.50,326.22 319.85,326.22 320.20,330.98 320.55,330.98 320.90,330.98 321.25,330.98 321.60,330.98 321.95,330.98 322.30,335.74 322.65,330.98 323.00,330.98 323.35,335.74 323.70,330.98 324.05,335.74 324.40,335.74 324.75,335.74 325.10,330.98 325.45,330.98 325.80,326.22 326.15,326.22 326.50,326.22 326.85,326.22 327.20,326.22 327.55,326.22 327.90,321.46 328.25,321.46 328.60,326.22 328.95,326.22 329.30,321.46 329.65,321.46 330.00,321.46 330.35,321.46 330.70,321.46 331.05,321.46 331.40,321.46 331.75,321.46 332.10,321.46 332.45,321.46 332.80,321.46 333.15,321.46 333.50,321.46 333.85,321.46 334.20,321.46 334.55,321.46 334.90,326.22 335.25,326.22 335.60,326.22 335.95,326.22 336.30,326.22 336.65,335.74 337.00,340.51 337.35,340.51 337.70,340.51 338.05,340.51 338.40,340.51 338.75,340.51 339.10,340.51 339.45,340.51 339.80,340.51 340.15,340.51 340.50,340.51 340.85,335.74 341.20,335.74 341.55,335.74 341.90,335.74 342.25,335.74 342.60,345.27 342.95,345.27 343.30,345.27 343.65,350.03 344.00,350.03 344.35,350.03 344.70,359.55 345.05,359.55 345.40,359.55 345.75,354.79 346.10,359.55 346.45,359.55 346.80,359.55 347.15,359.55 347.50,359.55 347.85,359.55 348.20,359.55 348.55,359.55 348.90,359.55 349.25,359.55 349.60,359.55 349.95,359.55 350.30,359.55 350.65,364.31 351.00,364.31 351.35,364.31 351.70,364.31 352.05,364.31 352.40,364.31 352.75,364.31 353.10,364.31 353.45,364.31 353.80,364.31 354.15,364.31 354.50,369.07 354.85,369.07 355.20,364.31 355.55,364.31 355.90,354.79 356.25,354.79 356.60,354.79 356.95,354.79 357.30,350.03 357.65,345.27 358.00,345.27 358.35,345.27 358.70,345.27 359.05,345.27 359.40,345.27 359.75,345.27 360.10,340.51 360.45,340.51 360.80,340.51 361.15,335.74 361.50,335.74 361.85,335.74 362.20,335.74 362.55,335.74 362.90,335.74 363.25,340.51 363.60,340.51 363.95,340.51 364.30,340.51 364.65,340.51 365.00,335.74 365.35,330.98 365.70,330.98 366.05,330.98 366.40,340.51 366.75,340.51 367.10,340.51 367.45,340.51 367.80,340.51 368.15,335.74 368.50,335.74 368.85,335.74 369.20,335.74 369.55,335.74 369.90,335.74 370.25,330.98 370.60,326.22 370.95,326.22 371.30,326.22 371.65,326.22 372.00,326.22 372.35,326.22 372.70,321.46 373.05,321.46 373.40,321.46 373.75,311.94 374.10,311.94 374.45,307.18 374.80,307.18 375.15,307.18 375.50,302.42 375.85,302.42 376.20,307.18 376.55,302.42 376.90,302.42 377.25,302.42 377.60,302.42 377.95,297.66 378.30,302.42 378.65,302.42 379.00,302.42 379.35,302.42 379.70,302.42 380.05,302.42 380.40,307.18 380.75,311.94 381.10,311.94 381.45,311.94 381.80,311.94 382.15,316.70 382.50,316.70 382.85,316.70 383.20,311.94 383.55,311.94 383.90,311.94 384.25,307.18 384.60,307.18 384.95,307.18 385.30,307.18 385.65,311.94 386.00,311.94 386.35,307.18 386.70,307.18 387.05,311.94 387.40,311.94 387.75,316.70 388.10,316.70 388.45,316.70 388.80,316.70 389.15,321.46 389.50,321.46 389.85,321.46 390.20,316.70 390.55,321.46 390.90,321.46 391.25,321.46 391.60,326.22 391.95,326.22 392.30,326.22 392.65,321.46 393.00,330.98 393.35,330.98 393.70,330.98 394.05,345.27 394.40,340.51 394.75,330.98 395.10,335.74 395.45,322.89 395.80,322.89 396.15,318.13 396.50,318.13 396.85,318.13 397.20,308.61 397.55,303.85 397.90,303.85 398.25,303.85 398.60,303.85 398.95,308.61 399.30,313.37 399.65,313.37 400.00,313.37 400.35,313.37 400.70,313.37 401.05,318.13 401.40,318.13 401.75,318.13 402.10,318.13 402.45,313.37 402.80,308.61 403.15,303.85 403.50,303.85 403.85,308.61 404.20,308.61 404.55,308.61 404.90,308.61 405.25,303.85 405.60,299.09 405.95,299.09 406.30,294.32 406.65,294.32 407.00,294.32 407.35,289.56 407.70,289.56 408.05,289.56 408.40,294.32 408.75,294.32 409.10,299.09 409.45,299.09 409.80,303.85 410.15,303.85 410.50,303.85 410.85,303.85 411.20,303.85 411.55,303.85 411.90,299.09 412.25,308.61 412.60,308.61 412.95,299.09 413.30,299.09 413.65,299.09 414.00,294.32 414.35,294.32 414.70,303.85 415.05,303.85 415.40,303.85 415.75,303.85 416.10,303.85 416.45,299.09 416.80,294.32 417.15,294.32 417.50,294.32 417.85,294.32 418.20,294.32 418.55,294.32 418.90,294.32 419.25,294.32 419.60,294.32 419.95,294.32 420.30,294.32 420.65,294.32 421.00,294.32 421.35,294.32 421.70,299.09 422.05,299.09 422.40,299.09 422.75,299.09 423.10,299.09 423.45,299.09 423.80,299.09 424.15,299.09 424.50,294.32 424.85,294.32 425.20,294.32 425.55,294.32 425.90,294.32 426.25,294.32 426.60,294.32 426.95,294.32 427.30,289.56 427.65,289.56 428.00,289.56 428.35,289.56 428.70,294.32 429.05,294.32 429.40,294.32 429.75,294.32 430.10,294.32 430.45,294.32 430.80,294.32 431.15,289.56 431.50,294.32 431.85,289.56 432.20,289.56 432.55,294.32 432.90,294.32 433.25,294.32 433.60,294.32 433.95,289.56 434.30,289.56 434.65,289.56 435.00,294.32 435.35,294.32 435.70,294.32 436.05,294.32 436.40,294.32 436.75,294.32 437.10,294.32 437.45,294.32 437.80,294.32 438.15,294.32 438.50,299.09 438.85,299.09 439.20,299.09 439.55,299.09 439.90,299.09 440.25,299.09 440.60,294.32 440.95,294.32 441.30,299.09 441.65,294.32 442.00,294.32 442.35,294.32 442.70,294.32 443.05,294.32 443.40,294.32 443.75,294.32 444.10,299.09 444.45,289.56 444.80,289.56 445.15,289.56 445.50,289.56 445.85,289.56 446.20,284.80 446.55,289.56 446.90,289.56 447.25,289.56 447.60,294.32 447.95,299.09 448.30,299.09 448.65,299.09 449.00,299.09 449.35,299.09 449.70,294.32 450.05,294.32 450.40,294.32 450.75,294.32 451.10,299.09 451.45,299.09 451.80,294.32 452.15,294.32 452.50,294.32 452.85,294.32 453.20,294.32 453.55,289.56 453.90,289.56 454.25,284.80 454.60,284.80 454.95,284.80 455.30,284.80 455.65,280.04 456.00,280.04 456.35,280.04 456.70,280.04 457.05,280.04 457.40,275.28 457.75,275.28 458.10,275.28 458.45,275.28 458.80,275.28 459.15,275.28 459.50,275.28 459.85,275.28 460.20,275.28 460.55,275.28 460.90,275.28 461.25,270.52 461.60,270.52 461.95,270.52 462.30,265.76 462.65,261.00 463.00,256.24 463.35,256.24 463.70,256.24 464.05,256.24 464.40,246.72 464.75,246.72 465.10,246.72 465.45,246.72 465.80,251.48 466.15,251.48 466.50,251.48 466.85,251.48 467.20,251.48 467.55,251.48 467.90,251.48 468.25,256.24 468.60,256.24 468.95,256.24 469.30,261.00 469.65,261.00 470.00,261.00 470.35,261.00 470.70,265.76 471.05,261.00 471.40,261.00 471.75,261.00 472.10,256.24 472.45,256.24 472.80,261.00 473.15,261.00 473.50,256.24 473.85,251.48 474.20,256.24 474.55,261.00 474.90,261.00 475.25,265.76 475.60,265.76 475.95,261.00 476.30,261.00 476.65,256.24 477.00,256.24 477.35,261.00 477.70,261.00 478.05,256.24 478.40,251.48 478.75,241.96 479.10,241.96 479.45,237.19 479.80,232.43 480.15,237.19 480.50,237.19 480.85,237.19 481.20,237.19 481.55,237.19 481.90,237.19 482.25,237.19 482.60,237.19 482.95,237.19 483.30,237.19 483.65,237.19 484.00,241.96 484.35,246.72 484.70,246.72 485.05,246.72 485.40,246.72 485.75,246.72 486.10,246.72 486.45,246.72 486.80,246.72 487.15,246.72 487.50,246.72 487.85,246.72 488.20,246.72 488.55,256.24 488.90,256.24 489.25,256.24 489.60,256.24 489.95,256.24 490.30,256.24 490.65,265.76 491.00,265.76 491.35,261.00 491.70,261.00 492.05,261.00 492.40,261.00 492.75,261.00 493.10,261.00 493.45,261.00 493.80,261.00 494.15,261.00 494.50,261.00 494.85,261.00 495.20,261.00 495.55,261.00 495.90,261.00 496.25,261.00 496.60,256.24 496.95,256.24 497.30,256.24 497.65,256.24 498.00,261.00 498.35,261.00 498.70,265.76 499.05,270.52 499.40,275.28 499.75,280.04 500.10,284.80 500.45,284.80 500.80,284.80 501.15,284.80 501.50,284.80 501.85,289.56 502.20,289.56 502.55,284.80 502.90,280.04 503.25,280.04 503.60,280.04 503.95,280.04 504.30,280.04 504.65,280.04 505.00,275.28 505.35,275.28 505.70,270.52 506.05,270.52 506.40,270.52 506.75,270.52 507.10,270.52 507.45,270.52 507.80,270.52 508.15,270.52 508.50,270.52 508.85,270.52 509.20,280.04 509.55,284.80 509.90,284.80 510.25,284.80 510.60,284.80 510.95,284.80 511.30,284.80 511.65,284.80 512.00,284.80 512.35,284.80 512.70,284.80 513.05,284.80 513.40,284.80 513.75,284.80 514.10,284.80 514.45,284.80 514.80,284.80 515.15,284.80 515.50,284.80 515.85,284.80 516.20,284.80 516.55,284.80 516.90,280.04 517.25,280.04 517.60,280.04 517.95,280.04 518.30,284.80 518.65,289.56 519.00,289.56 519.35,289.56 519.70,289.56 520.05,289.56 520.40,289.56 520.75,289.56 521.10,284.80 521.45,284.80 521.80,289.56 522.15,294.32 522.50,294.32 522.85,294.32 523.20,299.09 523.55,303.85 523.90,303.85 524.25,303.85 524.60,303.85 524.95,303.85 525.30,303.85 525.65,303.85 526.00,303.85 526.35,308.61 526.70,308.61 527.05,308.61 527.40,303.85 527.75,303.85 528.10,303.85 528.45,303.85 528.80,308.61 529.15,308.61 529.50,308.61 529.85,308.61 530.20,308.61 530.55,303.85 530.90,303.85 531.25,303.85 531.60,303.85 531.95,303.85 532.30,303.85 532.65,308.61 533.00,308.61 533.35,308.61 533.70,308.61 534.05,303.85 534.40,299.09 534.75,294.32 535.10,294.32 535.45,294.32 535.80,294.32 536.15,294.32 536.50,294.32 536.85,289.56 537.20,289.56 537.55,289.56 537.90,289.56 538.25,289.56 538.60,284.80 538.95,284.80 539.30,284.80 539.65,280.04 540.00,275.28 540.35,280.04 540.70,284.80 541.05,289.56 541.40,289.56 541.75,289.56 542.10,289.56 542.45,284.80 542.80,289.56 543.15,284.80 543.50,284.80 543.85,284.80 544.20,280.04 544.55,280.04 544.90,280.04 545.25,284.80 545.60,289.56 545.95,289.56 546.30,289.56 546.65,289.56 547.00,289.56 547.35,289.56 547.70,294.32 548.05,294.32 548.40,294.32 548.75,294.32 549.10,294.32 549.45,289.56 549.80,289.56 550.15,284.80 550.50,284.80 550.85,284.80 551.20,280.04 551.55,280.04 551.90,280.04 552.25,280.04 552.60,280.04 552.95,280.04 553.30,284.80 553.65,284.80 554.00,284.80 554.35,284.80 554.70,284.80 555.05,284.80 555.40,284.80 555.75,284.80 556.10,284.80 556.45,289.56 556.80,289.56 557.15,289.56 557.50,294.32 557.85,294.32 558.20,294.32 558.55,299.09 558.90,303.85 559.25,303.85 559.60,299.09 559.95,299.09 560.30,303.85 560.65,308.61 561.00,308.61 561.35,308.61 561.70,308.61 562.05,308.61 562.40,308.61 562.75,308.61 563.10,303.85 563.45,308.61 563.80,303.85 564.15,303.85 564.50,303.85 564.85,303.85 565.20,303.85 565.55,303.85 565.90,303.85 566.25,303.85 566.60,303.85 566.95,303.85 567.30,308.61 567.65,308.61 568.00,308.61 568.35,308.61 568.70,303.85 569.05,303.85 569.40,303.85 569.75,303.85 570.10,308.61 570.45,308.61 570.80,308.61 571.15,308.61 571.50,303.85 571.85,303.85 572.20,303.85 572.55,303.85 572.90,308.61 573.25,303.85 573.60,303.85 573.95,303.85 574.30,308.61 574.65,308.61 575.00,308.61 575.35,308.61 575.70,308.61 576.05,308.61 576.40,308.61 576.75,308.61 577.10,308.61 577.45,308.61 577.80,308.61 578.15,308.61 578.50,303.85 578.85,308.61 579.20,308.61 579.55,303.85 579.90,303.85 580.25,299.09 580.60,303.85 580.95,299.09 581.30,289.56 581.65,289.56 582.00,284.80 582.35,284.80 582.70,284.80 583.05,284.80 583.40,289.56 583.75,289.56 584.10,289.56 584.45,289.56 584.80,289.56 585.15,289.56 585.50,284.80 585.85,284.80 586.20,284.80 586.55,284.80 586.90,284.80 587.25,289.56 587.60,294.32 587.95,289.56 588.30,282.90 588.65,278.14 589.00,278.14 589.35,278.14 589.70,278.14 590.05,273.38 590.40,273.38 590.75,273.38 591.10,273.38 591.45,273.38 591.80,273.38 592.15,273.38 592.50,268.62 592.85,263.86 593.20,263.86 593.55,263.86 593.90,259.09 594.25,263.86 594.60,263.86 594.95,263.86 595.30,263.86 595.65,268.62 596.00,268.62 596.35,268.62 596.70,273.38 597.05,273.38 597.40,273.38 597.75,268.62 598.10,273.38 598.45,278.14 598.80,278.14 599.15,282.90 599.50,287.66 599.85,297.18 600.20,297.18 600.55,297.18 600.90,292.42 601.25,297.18 601.60,297.18 601.95,297.18 602.30,297.18 602.65,292.42 603.00,292.42 603.35,297.18 603.70,297.18 604.05,297.18 604.40,297.18 604.75,297.18 605.10,297.18 605.45,297.18 605.80,297.18 606.15,297.18 606.50,297.18 606.85,297.18 607.20,297.18 607.55,301.94 607.90,301.94 608.25,301.94 608.60,301.94 608.95,301.94 609.30,301.94 609.65,301.94 610.00,301.94 610.35,306.70 610.70,306.70 611.05,306.70 611.40,311.46 611.75,311.46 612.10,311.46 612.45,311.46 612.80,311.46 613.15,316.22 613.50,316.22 613.85,320.99 614.20,320.99 614.55,316.22 614.90,316.22 615.25,316.22 615.60,311.46 615.95,311.46 616.30,311.46 616.65,311.46 617.00,316.22 617.35,316.22 617.70,311.46 618.05,311.46 618.40,311.46 618.75,311.46 619.10,311.46 619.45,311.46 619.80,311.46 620.15,306.70 620.50,311.46 620.85,311.46 621.20,311.46 621.55,311.46 621.90,311.46 622.25,306.70 622.60,306.70 622.95,306.70 623.30,306.70 623.65,311.46 624.00,306.70 624.35,306.70 624.70,306.70 625.05,306.70 625.40,306.70 625.75,311.46 626.10,311.46 626.45,311.46 626.80,311.46 627.15,311.46 627.50,311.46 627.85,311.46 628.20,311.46 628.55,311.46 628.90,306.70 629.25,311.46 629.60,311.46 629.95,311.46 630.30,311.46 630.65,311.46 631.00,311.46 631.35,311.46 631.70,316.22 632.05,311.46 632.40,311.46 632.75,316.22 633.10,320.99 633.45,320.99 633.80,320.99 634.15,316.22 634.50,316.22 634.85,316.22 635.20,316.22 635.55,311.46 635.90,311.46 636.25,311.46 636.60,306.70 636.95,301.94 637.30,301.94 637.65,301.94 638.00,301.94 638.35,306.70 638.70,306.70 639.05,306.70 639.40,306.70 639.75,306.70 640.10,306.70 640.45,311.46 640.80,316.22 641.15,316.22 641.50,311.46 641.85,311.46 642.20,311.46 642.55,311.46 642.90,311.46 643.25,311.46 643.60,311.46 643.95,316.22 644.30,316.22 644.65,325.75 645.00,325.75 645.35,325.75 645.70,325.75 646.05,325.75 646.40,330.51 646.75,335.27 647.10,335.27 647.45,335.27 647.80,335.27 648.15,335.27 648.50,335.27 648.85,335.27 649.20,330.51 649.55,325.75 649.90,325.75 650.25,325.75 650.60,330.51 650.95,330.51 651.30,335.27 651.65,335.27 652.00,335.27 652.35,335.27 652.70,330.51 653.05,330.51 653.40,325.75 653.75,325.75 654.10,330.51 654.45,330.51 654.80,335.27 655.15,335.27 655.50,335.27 655.85,335.27 656.20,335.27 656.55,335.27 656.90,335.27 657.25,335.27 657.60,335.27 657.95,335.27 658.30,335.27 658.65,335.27 659.00,340.03 659.35,340.03 659.70,335.27 660.05,335.27 660.40,335.27 660.75,335.27 661.10,340.03 661.45,340.03 661.80,340.03 662.15,340.03 662.50,340.03 662.85,340.03 663.20,340.03 663.55,335.27 663.90,335.27 664.25,335.27 664.60,335.27 664.95,335.27 665.30,335.27 665.65,335.27 666.00,330.51 666.35,330.51 666.70,330.51 667.05,330.51 667.40,330.51 667.75,340.03 668.10,340.03 668.45,340.03 668.80,340.03 669.15,340.03 669.50,340.03 669.85,340.03 670.20,335.27 670.55,335.27 670.90,335.27 671.25,340.03 671.60,340.03 671.95,340.03 672.30,340.03 672.65,349.55 673.00,349.55 673.35,344.79 673.70,344.79 674.05,344.79 674.40,344.79 674.75,344.79 675.10,344.79 675.45,344.79 675.80,344.79 676.15,340.03 676.50,340.03 676.85,340.03 677.20,340.03 677.55,335.27 677.90,340.03 678.25,340.03 678.60,344.79 678.95,344.79 679.30,344.79 679.65,344.79 680.00,344.79 680.35,349.55 680.70,349.55 681.05,349.55 681.40,349.55 681.75,349.55 682.10,344.79 682.45,344.79 682.80,344.79 683.15,349.55 683.50,349.55 683.85,349.55 684.20,349.55 684.55,349.55 684.90,349.55 685.25,349.55 685.60,349.55 685.95,349.55 686.30,344.79 686.65,344.79 687.00,344.79 687.35,344.79 687.70,344.79 688.05,349.55 688.40,349.55 688.75,354.31 689.10,354.31 689.45,359.07 689.80,363.83 690.15,363.83 690.50,359.07 690.85,359.07 691.20,363.83 691.55,359.07 691.90,359.07 692.25,359.07 692.60,359.07 692.95,359.07 693.30,359.07 693.65,359.07 694.00,359.07 694.35,354.31 694.70,354.31 695.05,354.31 695.40,354.31 695.75,349.55 696.10,354.31 696.45,354.31 696.80,354.31 697.15,354.31 697.50,354.31 697.85,359.07 698.20,359.07 698.55,359.07 698.90,359.07 699.25,354.31 699.60,354.31 699.95,354.31 700.30,354.31 700.65,354.31 701.00,354.31 701.35,354.31 701.70,354.31 702.05,354.31 702.40,354.31 702.75,354.31 703.10,354.31 703.45,359.07 703.80,359.07 704.15,359.07 704.50,359.07 704.85,363.83 705.20,363.83 705.55,363.83 705.90,363.83 706.25,363.83 706.60,363.83 706.95,363.83 707.30,363.83 707.65,363.83 708.00,363.83 708.35,363.83 708.70,363.83 709.05,363.83 709.40,363.83 709.75,363.83 710.10,359.07 710.45,363.83 710.80,363.83 711.15,368.59 711.50,363.83 711.85,363.83 712.20,363.83 712.55,359.07 712.90,363.83 713.25,373.35 713.60,373.35 713.95,373.35 714.30,373.35 714.65,373.35 715.00,378.12 715.35,378.12 715.70,382.88 716.05,382.88 716.40,387.64 716.75,392.40 717.10,392.40 717.45,392.40 717.80,392.40 718.15,392.40 718.50,392.40 718.85,397.16 719.20,401.92 719.55,401.92 719.90,397.16 720.25,397.16 720.60,397.16 720.95,392.40 721.30,392.40 721.65,392.40 722.00,387.64 722.35,387.64 722.70,387.64 723.05,387.64 723.40,387.64 723.75,387.64 724.10,392.40 724.45,397.16 724.80,397.16 725.15,397.16 725.50,392.40 725.85,392.40 726.20,392.40 726.55,392.40 726.90,387.64 727.25,382.88 727.60,382.88 727.95,378.12 728.30,378.12 728.65,378.12 729.00,378.12 729.35,378.12 729.70,378.12 730.05,378.12 730.40,378.12 730.75,378.12 731.10,378.12 731.45,382.88 731.80,382.88 732.15,382.88 732.50,378.12 732.85,378.12 733.20,382.88 733.55,382.88 733.90,378.12 734.25,373.35 734.60,373.35 734.95,373.35 735.30,373.35 735.65,373.35 736.00,373.35 736.35,373.35 736.70,373.35 737.05,373.35 737.40,373.35 737.75,373.35 738.10,373.35 738.45,373.35 738.80,373.35 739.15,373.35 739.50,373.35 739.85,368.59 740.20,368.59 740.55,368.59 740.90,373.35 741.25,373.35 741.60,373.35 741.95,378.12 742.30,378.12 742.65,378.12 743.00,378.12 743.35,378.12 743.70,378.12 744.05,373.35 744.40,373.35 744.75,368.59 745.10,368.59 745.45,368.59 745.80,363.83 746.15,363.83 746.50,363.83 746.85,363.83 747.20,363.83 747.55,363.83 747.90,363.83 748.25,363.83 748.60,363.83 748.95,354.31 749.30,354.31 749.65,354.31 750.00,354.31 750.35,354.31 750.70,349.55 751.05,349.55 751.40,349.55 751.75,349.55 752.10,349.55 752.45,344.79 752.80,344.79 753.15,344.79 753.50,344.79 753.85,349.55 754.20,349.55 754.55,349.55 754.90,354.31 755.25,354.31 755.60,359.07 755.95,363.83 756.30,363.83 756.65,359.07 757.00,359.07 757.35,363.83 757.70,363.83 758.05,363.83 758.40,368.59 758.75,368.59 759.10,363.83 759.45,363.83 759.80,368.59 760.15,368.59 760.50,368.59 760.85,373.35 761.20,373.35 761.55,373.35 761.90,378.12 762.25,378.12 762.60,373.35 762.95,378.12 763.30,378.12 763.65,378.12 764.00,378.12 764.35,373.35 764.70,373.35 765.05,373.35 765.40,373.35 765.75,373.35 766.10,368.59 766.45,368.59 766.80,368.59 767.15,373.35 767.50,373.35 767.85,368.59 768.20,363.83 768.55,359.07 768.90,359.07 769.25,359.07 769.60,354.31 769.95,354.31 770.30,354.31 770.65,354.31 771.00,354.31 771.35,354.31 771.70,354.31 772.05,349.55 772.40,349.55 772.75,349.55 773.10,349.55 773.45,349.55 773.80,354.31 774.15,354.31 774.50,354.31 774.85,354.31 775.20,349.55 775.55,349.55 775.90,349.55 776.25,349.55 776.60,344.79 776.95,340.03 777.30,340.03 777.65,344.79 778.00,344.79 778.35,344.79 778.70,344.79 779.05,344.79 779.40,344.79 779.75,349.55 780.10,349.55 780.45,354.31 780.80,354.31 781.15,354.31 781.50,354.31 781.85,354.31 782.20,354.31 782.55,354.31 782.90,349.55 783.25,354.31 783.60,354.31 783.95,354.31 784.30,359.07 784.65,359.07 785.00,359.07"/>
<line x1="813" y1="78" x2="839" y2="78" stroke="#dc2626" stroke-width="3"/>
<text x="847" y="82" font-family="Arial" font-size="13" fill="#111827">high volatility</text>
<polyline fill="none" stroke="#059669" stroke-width="2" points="85.00,364.31 85.35,364.31 85.70,369.07 86.05,369.07 86.40,369.07 86.75,364.31 87.10,364.31 87.45,373.83 87.80,373.83 88.15,373.83 88.50,373.83 88.85,373.83 89.20,373.83 89.55,373.83 89.90,369.07 90.25,369.07 90.60,369.07 90.95,373.83 91.30,378.59 91.65,388.11 92.00,388.11 92.35,388.11 92.70,388.11 93.05,388.11 93.40,388.11 93.75,388.11 94.10,388.11 94.45,388.11 94.80,383.35 95.15,383.35 95.50,383.35 95.85,388.11 96.20,388.11 96.55,388.11 96.90,388.11 97.25,392.87 97.60,392.87 97.95,392.87 98.30,392.87 98.65,392.87 99.00,392.87 99.35,392.87 99.70,392.87 100.05,388.11 100.40,383.35 100.75,383.35 101.10,378.59 101.45,373.83 101.80,378.59 102.15,378.59 102.50,378.59 102.85,383.35 103.20,383.35 103.55,383.35 103.90,383.35 104.25,388.11 104.60,388.11 104.95,388.11 105.30,383.35 105.65,383.35 106.00,378.59 106.35,378.59 106.70,378.59 107.05,378.59 107.40,373.83 107.75,373.83 108.10,373.83 108.45,373.83 108.80,369.07 109.15,369.07 109.50,369.07 109.85,369.07 110.20,359.55 110.55,359.55 110.90,359.55 111.25,359.55 111.60,359.55 111.95,359.55 112.30,359.55 112.65,359.55 113.00,359.55 113.35,359.55 113.70,369.07 114.05,373.83 114.40,369.07 114.75,369.07 115.10,369.07 115.45,369.07 115.80,364.31 116.15,364.31 116.50,369.07 116.85,369.07 117.20,373.83 117.55,373.83 117.90,373.83 118.25,373.83 118.60,378.59 118.95,378.59 119.30,378.59 119.65,378.59 120.00,373.83 120.35,369.07 120.70,369.07 121.05,369.07 121.40,369.07 121.75,369.07 122.10,369.07 122.45,369.07 122.80,378.59 123.15,378.59 123.50,378.59 123.85,381.45 124.20,381.45 124.55,381.45 124.90,381.45 125.25,381.45 125.60,381.45 125.95,376.69 126.30,371.93 126.65,371.93 127.00,371.93 127.35,371.93 127.70,367.17 128.05,367.17 128.40,367.17 128.75,367.17 129.10,371.93 129.45,371.93 129.80,376.69 130.15,376.69 130.50,376.69 130.85,376.69 131.20,376.69 131.55,371.93 131.90,371.93 132.25,371.93 132.60,371.93 132.95,371.93 133.30,371.93 133.65,367.17 134.00,371.93 134.35,371.93 134.70,371.93 135.05,371.93 135.40,371.93 135.75,367.17 136.10,367.17 136.45,367.17 136.80,371.93 137.15,381.45 137.50,381.45 137.85,386.21 138.20,386.21 138.55,381.45 138.90,381.45 139.25,381.45 139.60,381.45 139.95,381.45 140.30,381.45 140.65,381.45 141.00,381.45 141.35,376.69 141.70,386.21 142.05,386.21 142.40,383.35 142.75,383.35 143.10,383.35 143.45,392.87 143.80,392.87 144.15,402.40 144.50,402.40 144.85,397.64 145.20,397.64 145.55,397.64 145.90,402.40 146.25,402.40 146.60,402.40 146.95,402.40 147.30,397.64 147.65,397.64 148.00,397.64 148.35,397.64 148.70,397.64 149.05,397.64 149.40,397.64 149.75,397.64 150.10,397.64 150.45,397.64 150.80,397.64 151.15,397.64 151.50,397.64 151.85,402.40 152.20,402.40 152.55,402.40 152.90,402.40 153.25,397.64 153.60,397.64 153.95,397.64 154.30,397.64 154.65,392.87 155.00,388.11 155.35,388.11 155.70,388.11 156.05,383.35 156.40,383.35 156.75,383.35 157.10,383.35 157.45,383.35 157.80,383.35 158.15,383.35 158.50,383.35 158.85,383.35 159.20,383.35 159.55,388.11 159.90,388.11 160.25,388.11 160.60,388.11 160.95,388.11 161.30,388.11 161.65,383.35 162.00,392.87 162.35,392.87 162.70,392.87 163.05,392.87 163.40,392.87 163.75,392.87 164.10,392.87 164.45,392.87 164.80,392.87 165.15,397.64 165.50,397.64 165.85,392.87 166.20,392.87 166.55,392.87 166.90,392.87 167.25,392.87 167.60,392.87 167.95,392.87 168.30,388.11 168.65,388.11 169.00,388.11 169.35,383.35 169.70,378.59 170.05,373.83 170.40,373.83 170.75,369.07 171.10,369.07 171.45,369.07 171.80,369.07 172.15,364.31 172.50,364.31 172.85,364.31 173.20,369.07 173.55,369.07 173.90,369.07 174.25,369.07 174.60,369.07 174.95,373.83 175.30,369.07 175.65,369.07 176.00,369.07 176.35,369.07 176.70,369.07 177.05,373.83 177.40,369.07 177.75,373.83 178.10,373.83 178.45,373.83 178.80,373.83 179.15,364.31 179.50,373.83 179.85,373.83 180.20,373.83 180.55,378.59 180.90,383.35 181.25,383.35 181.60,383.35 181.95,383.35 182.30,383.35 182.65,388.11 183.00,388.11 183.35,383.35 183.70,383.35 184.05,383.35 184.40,383.35 184.75,383.35 185.10,383.35 185.45,383.35 185.80,383.35 186.15,383.35 186.50,383.35 186.85,383.35 187.20,378.59 187.55,378.59 187.90,373.83 188.25,373.83 188.60,373.83 188.95,373.83 189.30,373.83 189.65,378.59 190.00,378.59 190.35,383.35 190.70,378.59 191.05,378.59 191.40,378.59 191.75,383.35 192.10,383.35 192.45,383.35 192.80,383.35 193.15,388.11 193.50,388.11 193.85,392.87 194.20,388.11 194.55,388.11 194.90,392.87 195.25,388.11 195.60,392.87 195.95,392.87 196.30,392.87 196.65,392.87 197.00,392.87 197.35,388.11 197.70,388.11 198.05,388.11 198.40,392.87 198.75,392.87 199.10,392.87 199.45,397.64 199.80,397.64 200.15,397.64 200.50,397.64 200.85,397.64 201.20,402.40 201.55,402.40 201.90,402.40 202.25,402.40 202.60,402.40 202.95,402.40 203.30,402.40 203.65,402.40 204.00,402.40 204.35,402.40 204.70,402.40 205.05,397.64 205.40,388.11 205.75,388.11 206.10,388.11 206.45,388.11 206.80,388.11 207.15,392.87 207.50,397.64 207.85,397.64 208.20,397.64 208.55,397.64 208.90,397.64 209.25,397.64 209.60,392.87 209.95,397.64 210.30,402.40 210.65,402.40 211.00,392.87 211.35,392.87 211.70,392.87 212.05,392.87 212.40,397.64 212.75,397.64 213.10,402.40 213.45,402.40 213.80,402.40 214.15,402.40 214.50,407.16 214.85,407.16 215.20,407.16 215.55,407.16 215.90,407.16 216.25,407.16 216.60,407.16 216.95,402.40 217.30,402.40 217.65,402.40 218.00,402.40 218.35,407.16 218.70,407.16 219.05,402.40 219.40,402.40 219.75,397.64 220.10,397.64 220.45,397.64 220.80,397.64 221.15,402.40 221.50,407.16 221.85,407.16 222.20,411.92 222.55,411.92 222.90,411.92 223.25,411.92 223.60,411.92 223.95,411.92 224.30,411.92 224.65,411.92 225.00,411.92 225.35,407.16 225.70,407.16 226.05,407.16 226.40,407.16 226.75,407.16 227.10,407.16 227.45,407.16 227.80,402.40 228.15,402.40 228.50,402.40 228.85,402.40 229.20,402.40 229.55,402.40 229.90,402.40 230.25,402.40 230.60,402.40 230.95,407.16 231.30,397.64 231.65,397.64 232.00,402.40 232.35,402.40 232.70,397.64 233.05,397.64 233.40,392.87 233.75,388.11 234.10,378.59 234.45,378.59 234.80,378.59 235.15,378.59 235.50,378.59 235.85,378.59 236.20,378.59 236.55,378.59 236.90,378.59 237.25,378.59 237.60,383.35 237.95,383.35 238.30,383.35 238.65,388.11 239.00,388.11 239.35,383.35 239.70,383.35 240.05,383.35 240.40,383.35 240.75,388.11 241.10,388.11 241.45,388.11 241.80,383.35 242.15,383.35 242.50,383.35 242.85,383.35 243.20,388.11 243.55,383.35 243.90,378.59 244.25,378.59 244.60,373.83 244.95,373.83 245.30,373.83 245.65,373.83 246.00,373.83 246.35,373.83 246.70,373.83 247.05,373.83 247.40,369.07 247.75,369.07 248.10,369.07 248.45,364.31 248.80,364.31 249.15,364.31 249.50,359.55 249.85,359.55 250.20,354.79 250.55,359.55 250.90,364.31 251.25,364.31 251.60,364.31 251.95,373.83 252.30,373.83 252.65,373.83 253.00,373.83 253.35,378.59 253.70,378.59 254.05,378.59 254.40,378.59 254.75,378.59 255.10,378.59 255.45,373.83 255.80,373.83 256.15,369.07 256.50,369.07 256.85,369.07 257.20,373.83 257.55,373.83 257.90,373.83 258.25,373.83 258.60,373.83 258.95,373.83 259.30,373.83 259.65,373.83 260.00,373.83 260.35,373.83 260.70,373.83 261.05,373.83 261.40,373.83 261.75,373.83 262.10,373.83 262.45,373.83 262.80,373.83 263.15,373.83 263.50,369.07 263.85,369.07 264.20,369.07 264.55,369.07 264.90,373.83 265.25,373.83 265.60,373.83 265.95,373.83 266.30,373.83 266.65,378.59 267.00,378.59 267.35,378.59 267.70,378.59 268.05,378.59 268.40,378.59 268.75,378.59 269.10,378.59 269.45,378.59 269.80,378.59 270.15,373.83 270.50,378.59 270.85,383.35 271.20,383.35 271.55,383.35 271.90,388.11 272.25,388.11 272.60,388.11 272.95,388.11 273.30,388.11 273.65,388.11 274.00,392.87 274.35,392.87 274.70,392.87 275.05,392.87 275.40,392.87 275.75,397.64 276.10,397.64 276.45,397.64 276.80,402.40 277.15,392.87 277.50,388.11 277.85,388.11 278.20,388.11 278.55,392.87 278.90,407.16 279.25,407.16 279.60,402.40 279.95,397.64 280.30,397.64 280.65,397.64 281.00,392.87 281.35,392.87 281.70,392.87 282.05,392.87 282.40,392.87 282.75,392.87 283.10,388.11 283.45,388.11 283.80,388.11 284.15,388.11 284.50,383.35 284.85,378.59 285.20,378.59 285.55,373.83 285.90,378.59 286.25,378.59 286.60,378.59 286.95,378.59 287.30,378.59 287.65,383.35 288.00,383.35 288.35,388.11 288.70,388.11 289.05,388.11 289.40,388.11 289.75,388.11 290.10,392.87 290.45,392.87 290.80,392.87 291.15,392.87 291.50,388.11 291.85,388.11 292.20,388.11 292.55,383.35 292.90,383.35 293.25,383.35 293.60,383.35 293.95,383.35 294.30,383.35 294.65,388.11 295.00,383.35 295.35,383.35 295.70,373.83 296.05,369.07 296.40,373.83 296.75,373.83 297.10,373.83 297.45,373.83 297.80,373.83 298.15,373.83 298.50,373.83 298.85,373.83 299.20,373.83 299.55,373.83 299.90,373.83 300.25,373.83 300.60,383.35 300.95,383.35 301.30,383.35 301.65,383.35 302.00,383.35 302.35,383.35 302.70,383.35 303.05,383.35 303.40,383.35 303.75,383.35 304.10,388.11 304.45,388.11 304.80,383.35 305.15,383.35 305.50,383.35 305.85,383.35 306.20,378.59 306.55,378.59 306.90,378.59 307.25,378.59 307.60,378.59 307.95,378.59 308.30,383.35 308.65,383.35 309.00,383.35 309.35,383.35 309.70,383.35 310.05,383.35 310.40,383.35 310.75,383.35 311.10,388.11 311.45,388.11 311.80,388.11 312.15,388.11 312.50,388.11 312.85,388.11 313.20,388.11 313.55,388.11 313.90,388.11 314.25,388.11 314.60,388.11 314.95,388.11 315.30,392.87 315.65,392.87 316.00,392.87 316.35,392.87 316.70,388.11 317.05,388.11 317.40,388.11 317.75,388.11 318.10,388.11 318.45,388.11 318.80,388.11 319.15,388.11 319.50,388.11 319.85,388.11 320.20,388.11 320.55,383.35 320.90,383.35 321.25,388.11 321.60,388.11 321.95,388.11 322.30,388.11 322.65,388.11 323.00,383.35 323.35,383.35 323.70,383.35 324.05,383.35 324.40,383.35 324.75,383.35 325.10,383.35 325.45,383.35 325.80,383.35 326.15,383.35 326.50,373.83 326.85,369.07 327.20,369.07 327.55,369.07 327.90,369.07 328.25,369.07 328.60,369.07 328.95,369.07 329.30,364.31 329.65,364.31 330.00,359.55 330.35,359.55 330.70,364.31 331.05,364.31 331.40,364.31 331.75,364.31 332.10,364.31 332.45,364.31 332.80,364.31 333.15,364.31 333.50,364.31 333.85,359.55 334.20,354.79 334.55,354.79 334.90,354.79 335.25,359.55 335.60,359.55 335.95,368.12 336.30,368.12 336.65,372.88 337.00,372.88 337.35,372.88 337.70,372.88 338.05,372.88 338.40,372.88 338.75,372.88 339.10,372.88 339.45,372.88 339.80,372.88 340.15,372.88 340.50,372.88 340.85,372.88 341.20,372.88 341.55,372.88 341.90,372.88 342.25,372.88 342.60,372.88 342.95,372.88 343.30,372.88 343.65,372.88 344.00,372.88 344.35,368.12 344.70,368.12 345.05,368.12 345.40,368.12 345.75,368.12 346.10,363.36 346.45,363.36 346.80,363.36 347.15,363.36 347.50,363.36 347.85,363.36 348.20,363.36 348.55,363.36 348.90,363.36 349.25,363.36 349.60,363.36 349.95,363.36 350.30,363.36 350.65,368.12 351.00,368.12 351.35,368.12 351.70,372.88 352.05,372.88 352.40,372.88 352.75,368.12 353.10,368.12 353.45,368.12 353.80,368.12 354.15,368.12 354.50,368.12 354.85,368.12 355.20,368.12 355.55,372.88 355.90,372.88 356.25,372.88 356.60,377.64 356.95,372.88 357.30,372.88 357.65,377.64 358.00,377.64 358.35,382.40 358.70,382.40 359.05,382.40 359.40,382.40 359.75,377.64 360.10,377.64 360.45,377.64 360.80,377.64 361.15,377.64 361.50,377.64 361.85,377.64 362.20,377.64 362.55,381.45 362.90,376.69 363.25,376.69 363.60,376.69 363.95,376.69 364.30,376.69 364.65,381.45 365.00,381.45 365.35,381.45 365.70,381.45 366.05,381.45 366.40,381.45 366.75,381.45 367.10,381.45 367.45,381.45 367.80,381.45 368.15,381.45 368.50,386.21 368.85,386.21 369.20,386.21 369.55,386.21 369.90,386.21 370.25,386.21 370.60,386.21 370.95,386.21 371.30,390.97 371.65,390.97 372.00,390.97 372.35,395.73 372.70,395.73 373.05,395.73 373.40,405.25 373.75,405.25 374.10,405.25 374.45,405.25 374.80,405.25 375.15,405.25 375.50,410.01 375.85,410.01 376.20,410.01 376.55,410.01 376.90,410.01 377.25,410.01 377.60,410.01 377.95,410.01 378.30,410.01 378.65,410.01 379.00,410.01 379.35,410.01 379.70,414.77 380.05,414.77 380.40,414.77 380.75,414.77 381.10,414.77 381.45,414.77 381.80,414.77 382.15,414.77 382.50,414.77 382.85,414.77 383.20,414.77 383.55,414.77 383.90,414.77 384.25,414.77 384.60,414.77 384.95,410.01 385.30,410.01 385.65,410.01 386.00,410.01 386.35,410.01 386.70,410.01 387.05,410.01 387.40,405.25 387.75,405.25 388.10,405.25 388.45,405.25 388.80,400.49 389.15,400.49 389.50,400.49 389.85,400.49 390.20,395.73 390.55,395.73 390.90,395.73 391.25,395.73 391.60,395.73 391.95,395.73 392.30,395.73 392.65,395.73 393.00,395.73 393.35,395.73 393.70,395.73 394.05,390.97 394.40,390.97 394.75,390.97 395.10,390.97 395.45,390.97 395.80,390.97 396.15,390.97 396.50,390.97 396.85,390.97 397.20,386.21 397.55,386.21 397.90,386.21 398.25,386.21 398.60,386.21 398.95,386.21 399.30,386.21 399.65,390.97 400.00,390.97 400.35,390.97 400.70,390.97 401.05,390.97 401.40,390.97 401.75,390.97 402.10,390.97 402.45,390.97 402.80,395.73 403.15,400.49 403.50,400.49 403.85,395.73 404.20,395.73 404.55,395.73 404.90,395.73 405.25,395.73 405.60,400.49 405.95,400.49 406.30,395.73 406.65,395.73 407.00,395.73 407.35,395.73 407.70,395.73 408.05,395.73 408.40,395.73 408.75,395.73 409.10,395.73 409.45,395.73 409.80,395.73 410.15,400.49 410.50,400.49 410.85,400.49 411.20,400.49 411.55,400.49 411.90,395.73 412.25,395.73 412.60,395.73 412.95,395.73 413.30,390.97 413.65,386.21 414.00,386.21 414.35,381.45 414.70,371.93 415.05,371.93 415.40,367.17 415.75,367.17 416.10,367.17 416.45,367.17 416.80,367.17 417.15,367.17 417.50,367.17 417.85,367.17 418.20,367.17 418.55,367.17 418.90,367.17 419.25,367.17 419.60,371.93 419.95,371.93 420.30,367.17 420.65,367.17 421.00,367.17 421.35,367.17 421.70,367.17 422.05,367.17 422.40,367.17 422.75,362.40 423.10,362.40 423.45,362.40 423.80,362.40 424.15,362.40 424.50,362.40 424.85,362.40 425.20,357.64 425.55,357.64 425.90,357.64 426.25,357.64 426.60,357.64 426.95,357.64 427.30,362.40 427.65,362.40 428.00,352.88 428.35,352.88 428.70,357.64 429.05,357.64 429.40,357.64 429.75,357.64 430.10,357.64 430.45,357.64 430.80,357.64 431.15,352.88 431.50,348.12 431.85,348.12 432.20,343.36 432.55,343.36 432.90,343.36 433.25,338.60 433.60,338.60 433.95,338.60 434.30,338.60 434.65,338.60 435.00,338.60 435.35,333.84 435.70,333.84 436.05,333.84 436.40,333.84 436.75,333.84 437.10,333.84 437.45,333.84 437.80,338.60 438.15,338.60 438.50,338.60 438.85,338.60 439.20,338.60 439.55,338.60 439.90,333.84 440.25,333.84 440.60,333.84 440.95,333.84 441.30,333.84 441.65,333.84 442.00,333.84 442.35,333.84 442.70,329.08 443.05,333.84 443.40,333.84 443.75,333.84 444.10,333.84 444.45,333.84 444.80,343.36 445.15,338.60 445.50,338.60 445.85,338.60 446.20,343.36 446.55,343.36 446.90,333.84 447.25,343.36 447.60,348.12 447.95,348.12 448.30,348.12 448.65,348.12 449.00,348.12 449.35,348.12 449.70,343.36 450.05,343.36 450.40,343.36 450.75,348.12 451.10,348.12 451.45,348.12 451.80,348.12 452.15,348.12 452.50,348.12 452.85,348.12 453.20,348.12 453.55,348.12 453.90,348.12 454.25,343.36 454.60,338.60 454.95,338.60 455.30,338.60 455.65,333.84 456.00,329.08 456.35,329.08 456.70,329.08 457.05,324.32 457.40,324.32 457.75,324.32 458.10,324.32 458.45,319.56 458.80,319.56 459.15,310.04 459.50,305.27 459.85,305.27 460.20,305.27 460.55,305.27 460.90,310.04 461.25,319.56 461.60,319.56 461.95,329.08 462.30,329.08 462.65,324.32 463.00,324.32 463.35,324.32 463.70,324.32 464.05,324.32 464.40,324.32 464.75,324.32 465.10,324.32 465.45,324.32 465.80,319.56 466.15,319.56 466.50,319.56 466.85,319.56 467.20,319.56 467.55,320.99 467.90,320.99 468.25,316.22 468.60,316.22 468.95,311.46 469.30,311.46 469.65,316.22 470.00,316.22 470.35,306.70 470.70,297.18 471.05,301.94 471.40,301.94 471.75,301.94 472.10,301.94 472.45,301.94 472.80,297.18 473.15,292.42 473.50,292.42 473.85,292.42 474.20,292.42 474.55,292.42 474.90,292.42 475.25,292.42 475.60,292.42 475.95,292.42 476.30,292.42 476.65,292.42 477.00,292.42 477.35,292.42 477.70,287.66 478.05,287.66 478.40,287.66 478.75,287.66 479.10,273.38 479.45,273.38 479.80,273.38 480.15,268.62 480.50,268.62 480.85,263.86 481.20,268.62 481.55,268.62 481.90,273.38 482.25,268.62 482.60,268.62 482.95,268.62 483.30,268.62 483.65,268.62 484.00,268.62 484.35,273.38 484.70,278.14 485.05,282.90 485.40,282.90 485.75,268.62 486.10,268.62 486.45,268.62 486.80,263.86 487.15,254.33 487.50,249.57 487.85,249.57 488.20,249.57 488.55,249.57 488.90,244.81 489.25,244.81 489.60,244.81 489.95,240.05 490.30,240.05 490.65,240.05 491.00,240.05 491.35,240.05 491.70,240.05 492.05,240.05 492.40,240.05 492.75,240.05 493.10,240.05 493.45,240.05 493.80,240.05 494.15,240.05 494.50,240.05 494.85,240.05 495.20,240.05 495.55,240.05 495.90,240.05 496.25,240.05 496.60,240.05 496.95,240.05 497.30,240.05 497.65,240.05 498.00,240.05 498.35,235.29 498.70,235.29 499.05,235.29 499.40,235.29 499.75,240.05 500.10,240.05 500.45,235.29 500.80,240.05 501.15,240.05 501.50,240.05 501.85,240.05 502.20,240.05 502.55,240.05 502.90,240.05 503.25,240.05 503.60,240.05 503.95,240.05 504.30,240.05 504.65,240.05 505.00,240.05 505.35,240.05 505.70,240.05 506.05,240.05 506.40,240.05 506.75,240.05 507.10,240.05 507.45,240.05 507.80,240.05 508.15,244.81 508.50,249.57 508.85,249.57 509.20,249.57 509.55,249.57 509.90,254.33 510.25,254.33 510.60,259.09 510.95,263.86 511.30,263.86 511.65,263.86 512.00,263.86 512.35,263.86 512.70,263.86 513.05,263.86 513.40,263.86 513.75,263.86 514.10,263.86 514.45,263.86 514.80,263.86 515.15,263.86 515.50,263.86 515.85,254.33 516.20,254.33 516.55,254.33 516.90,259.09 517.25,259.09 517.60,259.09 517.95,259.09 518.30,259.09 518.65,259.09 519.00,259.09 519.35,254.33 519.70,254.33 520.05,254.33 520.40,254.33 520.75,254.33 521.10,254.33 521.45,254.33 521.80,254.33 522.15,254.33 522.50,254.33 522.85,254.33 523.20,254.33 523.55,259.09 523.90,259.09 524.25,263.86 524.60,263.86 524.95,263.86 525.30,259.09 525.65,259.09 526.00,254.33 526.35,249.57 526.70,249.57 527.05,249.57 527.40,249.57 527.75,249.57 528.10,249.57 528.45,249.57 528.80,249.57 529.15,249.57 529.50,249.57 529.85,249.57 530.20,249.57 530.55,254.33 530.90,254.33 531.25,249.57 531.60,249.57 531.95,249.57 532.30,249.57 532.65,254.33 533.00,254.33 533.35,254.33 533.70,254.33 534.05,249.57 534.40,249.57 534.75,249.57 535.10,249.57 535.45,249.57 535.80,249.57 536.15,249.57 536.50,249.57 536.85,249.57 537.20,249.57 537.55,254.33 537.90,249.57 538.25,249.57 538.60,249.57 538.95,249.57 539.30,249.57 539.65,254.33 540.00,259.09 540.35,259.09 540.70,259.09 541.05,259.09 541.40,259.09 541.75,259.09 542.10,254.33 542.45,254.33 542.80,254.33 543.15,254.33 543.50,259.09 543.85,259.09 544.20,259.09 544.55,259.09 544.90,259.09 545.25,259.09 545.60,259.09 545.95,259.09 546.30,259.09 546.65,259.09 547.00,259.09 547.35,254.33 547.70,249.57 548.05,249.57 548.40,249.57 548.75,249.57 549.10,249.57 549.45,249.57 549.80,249.57 550.15,254.33 550.50,254.33 550.85,254.33 551.20,254.33 551.55,254.33 551.90,259.09 552.25,254.33 552.60,249.57 552.95,244.81 553.30,244.81 553.65,244.81 554.00,244.81 554.35,244.81 554.70,244.81 555.05,244.81 555.40,244.81 555.75,244.81 556.10,244.81 556.45,244.81 556.80,244.81 557.15,249.57 557.50,249.57 557.85,249.57 558.20,249.57 558.55,249.57 558.90,249.57 559.25,249.57 559.60,249.57 559.95,254.33 560.30,259.09 560.65,254.33 561.00,254.33 561.35,254.33 561.70,259.09 562.05,259.09 562.40,259.09 562.75,259.09 563.10,259.09 563.45,259.09 563.80,259.09 564.15,259.09 564.50,259.09 564.85,259.09 565.20,259.09 565.55,259.09 565.90,259.09 566.25,259.09 566.60,263.86 566.95,263.86 567.30,263.86 567.65,263.86 568.00,263.86 568.35,263.86 568.70,268.62 569.05,268.62 569.40,263.86 569.75,263.86 570.10,263.86 570.45,263.86 570.80,263.86 571.15,263.86 571.50,263.86 571.85,263.86 572.20,268.62 572.55,268.62 572.90,268.62 573.25,268.62 573.60,273.38 573.95,273.38 574.30,273.38 574.65,273.38 575.00,273.38 575.35,273.38 575.70,273.38 576.05,273.38 576.40,273.38 576.75,273.38 577.10,278.14 577.45,282.90 577.80,268.62 578.15,263.86 578.50,263.86 578.85,263.86 579.20,263.86 579.55,263.86 579.90,259.09 580.25,259.09 580.60,259.09 580.95,259.09 581.30,259.09 581.65,259.09 582.00,259.09 582.35,259.09 582.70,259.09 583.05,259.09 583.40,259.09 583.75,259.09 584.10,259.09 584.45,259.09 584.80,259.09 585.15,259.09 585.50,259.09 585.85,259.09 586.20,259.09 586.55,254.33 586.90,254.33 587.25,254.33 587.60,254.33 587.95,254.33 588.30,254.33 588.65,249.57 589.00,249.57 589.35,249.57 589.70,249.57 590.05,249.57 590.40,249.57 590.75,249.57 591.10,249.57 591.45,244.81 591.80,240.05 592.15,240.05 592.50,240.05 592.85,240.05 593.20,240.05 593.55,240.05 593.90,240.05 594.25,240.05 594.60,240.05 594.95,240.05 595.30,240.05 595.65,240.05 596.00,240.05 596.35,240.05 596.70,240.05 597.05,240.05 597.40,240.05 597.75,235.29 598.10,230.53 598.45,230.53 598.80,230.53 599.15,230.53 599.50,225.77 599.85,225.77 600.20,225.77 600.55,221.01 600.90,221.01 601.25,221.01 601.60,221.01 601.95,221.01 602.30,221.01 602.65,221.01 603.00,221.01 603.35,221.01 603.70,221.01 604.05,221.01 604.40,221.01 604.75,221.01 605.10,221.01 605.45,221.01 605.80,221.01 606.15,221.01 606.50,221.01 606.85,221.01 607.20,221.01 607.55,221.01 607.90,221.01 608.25,221.01 608.60,221.01 608.95,221.01 609.30,221.01 609.65,221.01 610.00,221.01 610.35,216.25 610.70,216.25 611.05,216.25 611.40,216.25 611.75,216.25 612.10,216.25 612.45,216.25 612.80,221.01 613.15,211.49 613.50,211.49 613.85,211.49 614.20,211.49 614.55,206.73 614.90,206.73 615.25,201.96 615.60,201.96 615.95,201.96 616.30,201.96 616.65,206.73 617.00,206.73 617.35,206.73 617.70,211.49 618.05,211.49 618.40,211.49 618.75,216.25 619.10,216.25 619.45,221.01 619.80,221.01 620.15,221.01 620.50,221.01 620.85,221.01 621.20,221.01 621.55,221.01 621.90,221.01 622.25,221.01 622.60,221.01 622.95,211.49 623.30,211.49 623.65,211.49 624.00,211.49 624.35,211.49 624.70,211.49 625.05,211.49 625.40,211.49 625.75,211.49 626.10,211.49 626.45,216.25 626.80,216.25 627.15,216.25 627.50,221.01 627.85,221.01 628.20,221.01 628.55,221.01 628.90,225.77 629.25,221.01 629.60,221.01 629.95,216.25 630.30,216.25 630.65,216.25 631.00,221.01 631.35,221.01 631.70,221.01 632.05,221.01 632.40,221.01 632.75,221.01 633.10,225.77 633.45,225.77 633.80,225.77 634.15,225.77 634.50,225.77 634.85,225.77 635.20,225.77 635.55,225.77 635.90,221.01 636.25,211.49 636.60,211.49 636.95,206.73 637.30,197.20 637.65,197.20 638.00,197.20 638.35,192.44 638.70,192.44 639.05,192.44 639.40,192.44 639.75,192.44 640.10,197.20 640.45,197.20 640.80,197.20 641.15,197.20 641.50,197.20 641.85,197.20 642.20,192.44 642.55,192.44 642.90,192.44 643.25,201.01 643.60,205.77 643.95,205.77 644.30,201.01 644.65,201.01 645.00,201.01 645.35,196.25 645.70,196.25 646.05,181.97 646.40,181.97 646.75,181.97 647.10,181.97 647.45,177.21 647.80,177.21 648.15,181.97 648.50,181.97 648.85,177.21 649.20,177.21 649.55,177.21 649.90,177.21 650.25,177.21 650.60,177.21 650.95,177.21 651.30,172.45 651.65,172.45 652.00,172.45 652.35,172.45 652.70,167.69 653.05,167.69 653.40,167.69 653.75,172.45 654.10,167.69 654.45,167.69 654.80,172.45 655.15,167.69 655.50,162.93 655.85,158.16 656.20,158.16 656.55,158.16 656.90,162.93 657.25,162.93 657.60,162.93 657.95,158.16 658.30,158.16 658.65,158.16 659.00,158.16 659.35,158.16 659.70,158.16 660.05,158.16 660.40,158.16 660.75,158.16 661.10,158.16 661.45,158.16 661.80,158.16 662.15,158.16 662.50,158.16 662.85,158.16 663.20,148.64 663.55,148.64 663.90,143.88 664.25,143.88 664.60,143.88 664.95,143.88 665.30,143.88 665.65,143.88 666.00,143.88 666.35,143.88 666.70,143.88 667.05,148.64 667.40,148.64 667.75,148.64 668.10,148.64 668.45,148.64 668.80,148.64 669.15,148.64 669.50,148.64 669.85,153.40 670.20,153.40 670.55,153.40 670.90,153.40 671.25,148.64 671.60,148.64 671.95,148.64 672.30,148.64 672.65,148.64 673.00,148.64 673.35,148.64 673.70,148.64 674.05,148.64 674.40,153.40 674.75,153.40 675.10,153.40 675.45,153.40 675.80,153.40 676.15,153.40 676.50,153.40 676.85,153.40 677.20,153.40 677.55,148.64 677.90,148.64 678.25,153.40 678.60,153.40 678.95,153.40 679.30,148.64 679.65,148.64 680.00,148.64 680.35,148.64 680.70,148.64 681.05,143.88 681.40,143.88 681.75,143.88 682.10,143.88 682.45,143.88 682.80,143.88 683.15,143.88 683.50,143.88 683.85,143.88 684.20,139.12 684.55,139.12 684.90,139.12 685.25,139.12 685.60,143.88 685.95,148.64 686.30,139.12 686.65,134.36 687.00,134.36 687.35,129.60 687.70,134.36 688.05,134.36 688.40,124.84 688.75,124.84 689.10,124.84 689.45,129.60 689.80,129.60 690.15,129.60 690.50,129.60 690.85,129.60 691.20,129.60 691.55,129.60 691.90,129.60 692.25,129.60 692.60,129.60 692.95,139.12 693.30,139.12 693.65,139.12 694.00,139.12 694.35,139.12 694.70,139.12 695.05,139.12 695.40,139.12 695.75,139.12 696.10,143.88 696.45,143.88 696.80,148.64 697.15,148.64 697.50,148.64 697.85,148.64 698.20,148.64 698.55,148.64 698.90,148.64 699.25,148.64 699.60,148.64 699.95,148.64 700.30,148.64 700.65,143.88 701.00,143.88 701.35,143.88 701.70,143.88 702.05,143.88 702.40,143.88 702.75,143.88 703.10,143.88 703.45,143.88 703.80,143.88 704.15,143.88 704.50,143.88 704.85,143.88 705.20,143.88 705.55,143.88 705.90,143.88 706.25,143.88 706.60,143.88 706.95,143.88 707.30,143.88 707.65,143.88 708.00,143.88 708.35,143.88 708.70,143.88 709.05,148.64 709.40,148.64 709.75,148.64 710.10,148.64 710.45,148.64 710.80,143.88 711.15,134.36 711.50,134.36 711.85,134.36 712.20,134.36 712.55,134.36 712.90,134.36 713.25,134.36 713.60,143.88 713.95,143.88 714.30,143.88 714.65,139.12 715.00,134.36 715.35,134.36 715.70,134.36 716.05,134.36 716.40,134.36 716.75,134.36 717.10,134.36 717.45,134.36 717.80,134.36 718.15,134.36 718.50,134.36 718.85,134.36 719.20,134.36 719.55,134.36 719.90,134.36 720.25,134.36 720.60,124.84 720.95,124.84 721.30,124.84 721.65,124.84 722.00,124.84 722.35,124.84 722.70,124.84 723.05,129.60 723.40,129.60 723.75,129.60 724.10,124.84 724.45,124.84 724.80,124.84 725.15,124.84 725.50,124.84 725.85,124.84 726.20,124.84 726.55,124.84 726.90,124.84 727.25,124.84 727.60,124.84 727.95,120.08 728.30,120.08 728.65,120.08 729.00,120.08 729.35,120.08 729.70,120.08 730.05,120.08 730.40,115.32 730.75,110.56 731.10,105.80 731.45,101.03 731.80,91.51 732.15,91.51 732.50,86.75 732.85,86.75 733.20,86.75 733.55,86.75 733.90,86.75 734.25,81.99 734.60,81.99 734.95,81.99 735.30,81.99 735.65,81.99 736.00,81.99 736.35,81.99 736.70,81.99 737.05,81.99 737.40,81.99 737.75,81.99 738.10,81.99 738.45,81.99 738.80,81.99 739.15,81.99 739.50,81.99 739.85,81.99 740.20,86.75 740.55,86.75 740.90,86.75 741.25,86.75 741.60,91.51 741.95,91.51 742.30,91.51 742.65,91.51 743.00,91.51 743.35,91.51 743.70,91.51 744.05,96.27 744.40,101.03 744.75,101.03 745.10,101.03 745.45,101.03 745.80,105.80 746.15,105.80 746.50,105.80 746.85,105.80 747.20,105.80 747.55,105.80 747.90,105.80 748.25,105.80 748.60,105.80 748.95,105.80 749.30,105.80 749.65,105.80 750.00,105.80 750.35,105.80 750.70,105.80 751.05,105.80 751.40,110.56 751.75,110.56 752.10,110.56 752.45,110.56 752.80,110.56 753.15,105.80 753.50,105.80 753.85,105.80 754.20,105.80 754.55,110.56 754.90,110.56 755.25,110.56 755.60,110.56 755.95,115.32 756.30,115.32 756.65,115.32 757.00,115.32 757.35,115.32 757.70,115.32 758.05,115.32 758.40,110.56 758.75,110.56 759.10,110.56 759.45,110.56 759.80,110.56 760.15,110.56 760.50,110.56 760.85,110.56 761.20,110.56 761.55,110.56 761.90,110.56 762.25,110.56 762.60,101.03 762.95,101.03 763.30,105.80 763.65,105.80 764.00,105.80 764.35,105.80 764.70,101.03 765.05,101.03 765.40,101.03 765.75,101.03 766.10,101.03 766.45,101.03 766.80,96.27 767.15,96.27 767.50,101.03 767.85,105.80 768.20,110.56 768.55,110.56 768.90,110.56 769.25,110.56 769.60,110.56 769.95,110.56 770.30,110.56 770.65,110.56 771.00,110.56 771.35,110.56 771.70,110.56 772.05,110.56 772.40,110.56 772.75,110.56 773.10,110.56 773.45,110.56 773.80,101.03 774.15,101.03 774.50,101.03 774.85,101.03 775.20,101.03 775.55,105.80 775.90,101.03 776.25,101.03 776.60,101.03 776.95,101.03 777.30,96.27 777.65,96.27 778.00,96.27 778.35,96.27 778.70,96.27 779.05,96.27 779.40,96.27 779.75,101.03 780.10,101.03 780.45,101.03 780.80,101.03 781.15,96.27 781.50,96.27 781.85,96.27 782.20,96.27 782.55,96.27 782.90,96.27 783.25,86.75 783.60,86.75 783.95,86.75 784.30,86.75 784.65,91.51 785.00,91.51"/>
<line x1="813" y1="102" x2="839" y2="102" stroke="#059669" stroke-width="3"/>
<text x="847" y="106" font-family="Arial" font-size="13" fill="#111827">trending</text>
<text x="435.0" y="518" text-anchor="middle" font-family="Arial" font-size="14" fill="#111827">Event index</text>
<text x="22" y="256.0" text-anchor="middle" transform="rotate(-90 22 256.0)" font-family="Arial" font-size="14" fill="#111827">Inventory</text>
</svg>
