<svg xmlns="http://www.w3.org/2000/svg" width="940" height="540" viewBox="0 0 940 540">
<rect width="100%" height="100%" fill="#ffffff"/>
<text x="470.0" y="26" text-anchor="middle" font-family="Arial" font-size="18" fill="#111827">Naive Cumulative PnL After Fees By Regime</text>
<line x1="85" y1="470" x2="785" y2="470" stroke="#111827" stroke-width="1"/>
<line x1="85" y1="42" x2="85" y2="470" stroke="#111827" stroke-width="1"/>
<line x1="85.00" y1="42" x2="85.00" y2="470" stroke="#e5e7eb" stroke-width="1"/>
<text x="85.00" y="494" text-anchor="middle" font-family="Arial" font-size="12" fill="#374151">0</text>
<line x1="260.00" y1="42" x2="260.00" y2="470" stroke="#e5e7eb" stroke-width="1"/>
<text x="260.00" y="494" text-anchor="middle" font-family="Arial" font-size="12" fill="#374151">50000</text>
<line x1="435.00" y1="42" x2="435.00" y2="470" stroke="#e5e7eb" stroke-width="1"/>
<text x="435.00" y="494" text-anchor="middle" font-family="Arial" font-size="12" fill="#374151">100000</text>
<line x1="610.00" y1="42" x2="610.00" y2="470" stroke="#e5e7eb" stroke-width="1"/>
<text x="610.00" y="494" text-anchor="middle" font-family="Arial" font-size="12" fill="#374151">149999</text>
<line x1="785.00" y1="42" x2="785.00" y2="470" stroke="#e5e7eb" stroke-width="1"/>
<text x="785.00" y="494" text-anchor="middle" font-family="Arial" font-size="12" fill="#374151">199999</text>
<line x1="85" y1="470.00" x2="785" y2="470.00" stroke="#e5e7eb" stroke-width="1"/>
<text x="73" y="474.00" text-anchor="end" font-family="Arial" font-size="12" fill="#374151">-121621</text>
<line x1="85" y1="363.00" x2="785" y2="363.00" stroke="#e5e7eb" stroke-width="1"/>
<text x="73" y="367.00" text-anchor="end" font-family="Arial" font-size="12" fill="#374151">-44195</text>
<line x1="85" y1="256.00" x2="785" y2="256.00" stroke="#e5e7eb" stroke-width="1"/>
<text x="73" y="260.00" text-anchor="end" font-family="Arial" font-size="12" fill="#374151">33231</text>
<line x1="85" y1="149.00" x2="785" y2="149.00" stroke="#e5e7eb" stroke-width="1"/>
<text x="73" y="153.00" text-anchor="end" font-family="Arial" font-size="12" fill="#374151">110658</text>
<line x1="85" y1="42.00" x2="785" y2="42.00" stroke="#e5e7eb" stroke-width="1"/>
<text x="73" y="46.00" text-anchor="end" font-family="Arial" font-size="12" fill="#374151">188084</text>
<polyline fill="none" stroke="#2563eb" stroke-width="2" points="85.00,301.92 85.35,301.84 85.70,301.79 86.05,301.79 86.40,301.79 86.75,301.78 87.10,301.65 87.45,301.68 87.80,301.87 88.15,302.16 88.50,302.28 88.85,302.08 89.20,302.28 89.55,302.31 89.90,302.33 90.25,301.71 90.60,301.77 90.95,301.63 91.30,301.57 91.65,301.45 92.00,301.45 92.35,301.45 92.70,301.45 93.05,301.45 93.40,301.45 93.75,301.45 94.10,301.45 94.45,301.45 94.80,301.40 95.15,301.40 95.50,301.43 95.85,301.33 96.20,301.12 96.55,300.99 96.90,300.88 97.25,300.88 97.60,300.88 97.95,300.79 98.30,300.71 98.65,300.70 99.00,300.61 99.35,300.60 99.70,300.55 100.05,300.49 100.40,300.56 100.75,300.31 101.10,300.60 101.45,300.35 101.80,300.44 102.15,300.41 102.50,300.48 102.85,300.49 103.20,300.29 103.55,300.07 103.90,299.99 104.25,300.09 104.60,299.91 104.95,299.97 105.30,299.81 105.65,299.67 106.00,299.63 106.35,299.60 106.70,299.53 107.05,299.57 107.40,299.35 107.75,299.31 108.10,299.47 108.45,299.24 108.80,298.96 109.15,298.91 109.50,298.87 109.85,298.80 110.20,298.92 110.55,298.88 110.90,298.91 111.25,298.74 111.60,298.70 111.95,298.62 112.30,298.69 112.65,298.54 113.00,298.56 113.35,298.46 113.70,298.60 114.05,298.44 114.40,298.51 114.75,298.46 115.10,298.31 115.45,298.32 115.80,298.16 116.15,298.05 116.50,298.07 116.85,298.00 117.20,298.07 117.55,298.02 117.90,297.81 118.25,297.48 118.60,297.39 118.95,296.77 119.30,296.79 119.65,296.74 120.00,296.86 120.35,296.62 120.70,296.48 121.05,296.55 121.40,297.07 121.75,297.01 122.10,296.95 122.45,296.77 122.80,296.88 123.15,296.91 123.50,296.64 123.85,296.37 124.20,296.00 124.55,296.27 124.90,296.25 125.25,296.34 125.60,296.26 125.95,296.42 126.30,296.86 126.65,297.07 127.00,296.86 127.35,296.86 127.70,296.81 128.05,297.35 128.40,297.22 128.75,297.26 129.10,297.24 129.45,297.09 129.80,297.00 130.15,297.08 130.50,296.85 130.85,296.70 131.20,296.64 131.55,296.68 131.90,296.76 132.25,297.28 132.60,296.96 132.95,296.97 133.30,296.71 133.65,296.87 134.00,296.90 134.35,296.89 134.70,296.99 135.05,296.90 135.40,296.82 135.75,296.74 136.10,296.74 136.45,296.74 136.80,296.74 137.15,296.68 137.50,296.70 137.85,296.62 138.20,296.66 138.55,296.61 138.90,296.52 139.25,296.48 139.60,296.75 139.95,296.87 140.30,296.97 140.65,297.09 141.00,296.92 141.35,296.79 141.70,296.71 142.05,297.13 142.40,297.21 142.75,297.00 143.10,297.37 143.45,296.93 143.80,296.86 144.15,296.56 144.50,296.50 144.85,296.54 145.20,296.66 145.55,296.68 145.90,296.75 146.25,296.78 146.60,296.75 146.95,296.76 147.30,296.78 147.65,296.69 148.00,296.69 148.35,296.66 148.70,296.32 149.05,296.31 149.40,296.34 149.75,296.45 150.10,296.11 150.45,296.16 150.80,296.20 151.15,296.12 151.50,296.12 151.85,296.12 152.20,296.12 152.55,296.12 152.90,296.12 153.25,296.12 153.60,296.12 153.95,296.12 154.30,296.12 154.65,296.12 155.00,296.12 155.35,296.12 155.70,296.12 156.05,296.05 156.40,295.96 156.75,296.03 157.10,296.05 157.45,295.98 157.80,295.78 158.15,295.70 158.50,295.77 158.85,295.71 159.20,295.95 159.55,295.91 159.90,295.78 160.25,295.72 160.60,295.66 160.95,295.58 161.30,295.62 161.65,295.68 162.00,295.64 162.35,295.53 162.70,295.56 163.05,295.52 163.40,295.61 163.75,295.53 164.10,295.62 164.45,295.65 164.80,295.58 165.15,295.56 165.50,295.50 165.85,295.50 166.20,295.50 166.55,295.47 166.90,295.39 167.25,295.37 167.60,295.34 167.95,295.23 168.30,295.24 168.65,295.12 169.00,295.09 169.35,294.97 169.70,294.99 170.05,294.92 170.40,294.92 170.75,294.92 171.10,294.87 171.45,294.86 171.80,294.79 172.15,294.72 172.50,294.83 172.85,295.00 173.20,295.28 173.55,295.21 173.90,294.99 174.25,294.74 174.60,294.55 174.95,294.61 175.30,294.62 175.65,294.64 176.00,294.67 176.35,294.70 176.70,294.77 177.05,294.70 177.40,294.54 177.75,294.49 178.10,294.49 178.45,294.49 178.80,294.49 179.15,294.30 179.50,294.41 179.85,294.34 180.20,294.24 180.55,294.13 180.90,294.20 181.25,294.35 181.60,294.19 181.95,294.35 182.30,294.28 182.65,294.14 183.00,293.94 183.35,293.74 183.70,293.68 184.05,293.68 184.40,293.61 184.75,293.56 185.10,293.46 185.45,293.49 185.80,293.54 186.15,293.53 186.50,293.51 186.85,293.51 187.20,293.42 187.55,293.45 187.90,293.41 188.25,293.41 188.60,293.41 188.95,293.36 189.30,293.28 189.65,293.28 190.00,293.28 190.35,293.28 190.70,293.28 191.05,293.28 191.40,293.28 191.75,293.28 192.10,293.28 192.45,293.28 192.80,293.14 193.15,293.14 193.50,293.14 193.85,293.14 194.20,293.14 194.55,293.14 194.90,293.14 195.25,293.14 195.60,293.08 195.95,293.15 196.30,293.13 196.65,293.22 197.00,293.32 197.35,293.20 197.70,293.30 198.05,293.11 198.40,293.30 198.75,293.24 199.10,293.19 199.45,293.23 199.80,293.15 200.15,292.71 200.50,292.15 200.85,291.75 201.20,291.26 201.55,291.13 201.90,291.42 202.25,291.73 202.60,291.44 202.95,291.33 203.30,291.66 203.65,291.38 204.00,291.68 204.35,292.08 204.70,292.17 205.05,291.86 205.40,291.81 205.75,291.71 206.10,291.84 206.45,291.81 206.80,291.58 207.15,291.50 207.50,291.52 207.85,291.59 208.20,291.61 208.55,291.70 208.90,291.76 209.25,291.72 209.60,291.68 209.95,291.65 210.30,291.65 210.65,291.62 211.00,291.61 211.35,291.69 211.70,291.71 212.05,291.71 212.40,291.74 212.75,291.74 213.10,291.76 213.45,291.78 213.80,291.71 214.15,291.72 214.50,291.67 214.85,291.64 215.20,291.30 215.55,291.15 215.90,291.00 216.25,290.96 216.60,290.83 216.95,291.12 217.30,291.03 217.65,290.66 218.00,290.68 218.35,290.82 218.70,290.77 219.05,290.65 219.40,290.80 219.75,290.51 220.10,290.70 220.45,290.23 220.80,290.36 221.15,290.27 221.50,290.14 221.85,290.00 222.20,290.28 222.55,289.87 222.90,290.07 223.25,290.05 223.60,290.18 223.95,290.59 224.30,290.26 224.65,290.73 225.00,290.62 225.35,290.33 225.70,290.30 226.05,290.36 226.40,290.73 226.75,290.37 227.10,290.48 227.45,290.27 227.80,290.35 228.15,290.04 228.50,290.48 228.85,290.47 229.20,290.16 229.55,290.04 229.90,289.94 230.25,289.99 230.60,290.13 230.95,290.12 231.30,290.24 231.65,290.21 232.00,290.54 232.35,290.33 232.70,290.33 233.05,290.31 233.40,290.51 233.75,290.56 234.10,290.67 234.45,290.69 234.80,290.71 235.15,290.69 235.50,290.52 235.85,290.54 236.20,290.56 236.55,290.55 236.90,290.45 237.25,290.43 237.60,290.41 237.95,290.31 238.30,290.39 238.65,290.21 239.00,290.11 239.35,290.26 239.70,290.39 240.05,290.22 240.40,290.20 240.75,290.19 241.10,289.75 241.45,289.63 241.80,289.78 242.15,289.51 242.50,289.66 242.85,289.95 243.20,289.86 243.55,289.62 243.90,289.49 244.25,289.48 244.60,289.66 244.95,289.71 245.30,289.54 245.65,289.53 246.00,289.61 246.35,289.52 246.70,289.42 247.05,289.43 247.40,289.38 247.75,289.27 248.10,289.51 248.45,289.19 248.80,288.91 249.15,289.18 249.50,289.22 249.85,289.04 250.20,289.17 250.55,289.47 250.90,289.51 251.25,288.97 251.60,288.78 251.95,289.08 252.30,288.98 252.65,289.24 253.00,289.32 253.35,289.53 253.70,289.89 254.05,289.94 254.40,289.70 254.75,289.41 255.10,289.71 255.45,289.73 255.80,289.67 256.15,289.73 256.50,289.79 256.85,289.56 257.20,289.21 257.55,289.26 257.90,289.06 258.25,289.32 258.60,288.88 258.95,288.35 259.30,288.32 259.65,287.98 260.00,287.79 260.35,287.91 260.70,287.99 261.05,287.82 261.40,288.32 261.75,288.03 262.10,287.53 262.45,287.22 262.80,287.33 263.15,287.32 263.50,286.89 263.85,286.42 264.20,286.21 264.55,286.23 264.90,286.17 265.25,286.55 265.60,286.75 265.95,286.31 266.30,286.39 266.65,285.82 267.00,285.44 267.35,285.42 267.70,285.13 268.05,285.19 268.40,285.89 268.75,286.02 269.10,285.98 269.45,286.20 269.80,286.12 270.15,285.78 270.50,285.27 270.85,285.10 271.20,285.00 271.55,284.70 271.90,284.00 272.25,284.11 272.60,284.15 272.95,284.76 273.30,284.16 273.65,284.11 274.00,283.99 274.35,284.30 274.70,285.36 275.05,285.04 275.40,285.87 275.75,285.54 276.10,285.00 276.45,284.38 276.80,284.84 277.15,285.55 277.50,285.26 277.85,285.55 278.20,285.57 278.55,286.53 278.90,286.55 279.25,286.00 279.60,285.45 279.95,285.36 280.30,285.64 280.65,285.25 281.00,285.12 281.35,284.76 281.70,284.76 282.05,284.93 282.40,285.73 282.75,286.69 283.10,287.02 283.45,286.59 283.80,286.56 284.15,286.18 284.50,286.41 284.85,285.94 285.20,285.99 285.55,286.08 285.90,286.17 286.25,286.03 286.60,285.73 286.95,285.90 287.30,286.39 287.65,286.15 288.00,287.29 288.35,287.20 288.70,287.23 289.05,287.35 289.40,287.16 289.75,287.12 290.10,286.92 290.45,286.46 290.80,286.62 291.15,286.92 291.50,286.94 291.85,286.98 292.20,286.96 292.55,286.69 292.90,286.52 293.25,287.03 293.60,287.01 293.95,287.26 294.30,287.52 294.65,287.41 295.00,287.18 295.35,287.29 295.70,287.15 296.05,287.25 296.40,287.43 296.75,287.60 297.10,287.76 297.45,287.88 297.80,287.98 298.15,287.79 298.50,287.64 298.85,287.74 299.20,287.70 299.55,287.59 299.90,287.59 300.25,287.71 300.60,287.89 300.95,288.03 301.30,288.11 301.65,287.97 302.00,287.75 302.35,287.69 302.70,287.61 303.05,287.53 303.40,287.64 303.75,287.54 304.10,287.51 304.45,287.18 304.80,287.29 305.15,287.26 305.50,287.21 305.85,287.27 306.20,287.40 306.55,287.51 306.90,287.41 307.25,287.40 307.60,287.37 307.95,287.40 308.30,287.38 308.65,287.36 309.00,287.36 309.35,287.22 309.70,287.01 310.05,287.17 310.40,287.16 310.75,287.16 311.10,287.12 311.45,287.09 311.80,287.06 312.15,286.90 312.50,287.04 312.85,286.99 313.20,286.90 313.55,286.88 313.90,286.78 314.25,286.86 314.60,286.87 314.95,286.98 315.30,287.01 315.65,287.16 316.00,287.11 316.35,287.18 316.70,286.95 317.05,287.23 317.40,287.58 317.75,288.00 318.10,287.87 318.45,288.07 318.80,287.63 319.15,287.01 319.50,286.41 319.85,286.49 320.20,286.74 320.55,287.14 320.90,287.89 321.25,287.76 321.60,287.64 321.95,287.71 322.30,287.77 322.65,287.63 323.00,287.77 323.35,286.93 323.70,286.99 324.05,287.21 324.40,287.56 324.75,287.57 325.10,287.35 325.45,287.47 325.80,287.52 326.15,287.24 326.50,286.89 326.85,286.81 327.20,286.24 327.55,286.76 327.90,287.33 328.25,287.53 328.60,287.89 328.95,287.86 329.30,288.28 329.65,286.75 330.00,287.13 330.35,286.19 330.70,285.65 331.05,285.20 331.40,285.06 331.75,283.98 332.10,283.32 332.45,283.24 332.80,283.48 333.15,283.29 333.50,283.12 333.85,281.86 334.20,281.63 334.55,281.18 334.90,281.25 335.25,280.35 335.60,280.38 335.95,280.13 336.30,279.39 336.65,278.15 337.00,278.32 337.35,277.69 337.70,277.61 338.05,278.12 338.40,278.37 338.75,278.42 339.10,279.04 339.45,279.13 339.80,278.92 340.15,279.13 340.50,279.73 340.85,279.80 341.20,280.69 341.55,279.46 341.90,279.73 342.25,279.12 342.60,279.96 342.95,279.02 343.30,278.92 343.65,278.42 344.00,278.09 344.35,277.83 344.70,278.53 345.05,278.52 345.40,279.03 345.75,278.69 346.10,278.48 346.45,277.76 346.80,277.11 347.15,276.48 347.50,276.01 347.85,275.08 348.20,275.46 348.55,275.10 348.90,273.57 349.25,273.29 349.60,272.64 349.95,273.15 350.30,271.35 350.65,271.58 351.00,273.01 351.35,272.30 351.70,271.62 352.05,270.94 352.40,271.45 352.75,271.26 353.10,270.85 353.45,269.63 353.80,269.66 354.15,268.62 354.50,267.61 354.85,268.82 355.20,269.62 355.55,269.06 355.90,267.42 356.25,266.57 356.60,265.17 356.95,266.32 357.30,266.08 357.65,267.44 358.00,267.27 358.35,267.35 358.70,268.61 359.05,267.95 359.40,268.30 359.75,269.11 360.10,268.54 360.45,269.92 360.80,269.37 361.15,269.17 361.50,269.59 361.85,268.19 362.20,268.64 362.55,268.89 362.90,269.95 363.25,270.73 363.60,270.54 363.95,270.72 364.30,271.06 364.65,269.80 365.00,269.65 365.35,267.41 365.70,267.97 366.05,266.61 366.40,266.61 366.75,266.91 367.10,266.76 367.45,267.04 367.80,267.99 368.15,270.06 368.50,270.57 368.85,271.18 369.20,271.31 369.55,271.67 369.90,271.56 370.25,270.45 370.60,269.43 370.95,268.65 371.30,267.87 371.65,266.80 372.00,266.18 372.35,266.89 372.70,266.21 373.05,265.05 373.40,265.72 373.75,264.95 374.10,264.47 374.45,263.11 374.80,263.13 375.15,264.49 375.50,264.20 375.85,263.78 376.20,262.80 376.55,262.68 376.90,262.29 377.25,263.03 377.60,262.44 377.95,261.83 378.30,261.54 378.65,260.43 379.00,262.11 379.35,263.02 379.70,262.67 380.05,261.93 380.40,260.86 380.75,259.35 381.10,257.25 381.45,256.73 381.80,258.04 382.15,256.51 382.50,257.50 382.85,257.01 383.20,257.49 383.55,256.57 383.90,255.92 384.25,253.33 384.60,253.73 384.95,253.54 385.30,253.02 385.65,251.29 386.00,250.46 386.35,251.62 386.70,252.36 387.05,251.47 387.40,252.14 387.75,252.82 388.10,252.11 388.45,252.50 388.80,254.32 389.15,254.19 389.50,254.65 389.85,255.19 390.20,255.84 390.55,257.92 390.90,256.37 391.25,255.77 391.60,255.60 391.95,256.69 392.30,255.70 392.65,253.79 393.00,251.66 393.35,250.94 393.70,251.13 394.05,252.35 394.40,252.72 394.75,253.60 395.10,255.42 395.45,252.02 395.80,251.85 396.15,249.41 396.50,252.61 396.85,252.10 397.20,251.16 397.55,251.47 397.90,252.43 398.25,253.81 398.60,255.78 398.95,255.80 399.30,255.10 399.65,255.82 400.00,256.59 400.35,256.37 400.70,255.47 401.05,254.06 401.40,254.10 401.75,253.36 402.10,251.30 402.45,249.51 402.80,250.54 403.15,248.50 403.50,246.95 403.85,247.17 404.20,247.41 404.55,245.93 404.90,243.30 405.25,244.11 405.60,242.85 405.95,241.45 406.30,242.02 406.65,242.82 407.00,240.92 407.35,241.29 407.70,240.08 408.05,242.24 408.40,244.56 408.75,243.44 409.10,242.33 409.45,240.02 409.80,239.93 410.15,240.67 410.50,244.49 410.85,244.15 411.20,241.37 411.55,242.94 411.90,244.51 412.25,243.91 412.60,244.74 412.95,245.60 413.30,246.50 413.65,245.82 414.00,245.78 414.35,244.60 414.70,246.13 415.05,243.82 415.40,244.23 415.75,244.54 416.10,241.85 416.45,237.15 416.80,234.98 417.15,235.40 417.50,233.60 417.85,232.11 418.20,233.63 418.55,236.58 418.90,235.46 419.25,233.39 419.60,233.78 419.95,231.67 420.30,229.38 420.65,226.65 421.00,227.65 421.35,226.66 421.70,226.47 422.05,222.71 422.40,221.76 422.75,222.97 423.10,222.19 423.45,220.03 423.80,218.52 424.15,219.35 424.50,218.86 424.85,219.18 425.20,217.75 425.55,216.94 425.90,219.01 426.25,217.60 426.60,215.52 426.95,216.40 427.30,216.10 427.65,213.51 428.00,212.01 428.35,213.41 428.70,214.15 429.05,216.09 429.40,218.01 429.75,212.95 430.10,214.96 430.45,216.19 430.80,218.64 431.15,222.83 431.50,220.93 431.85,222.80 432.20,223.15 432.55,222.44 432.90,224.42 433.25,227.95 433.60,226.90 433.95,227.51 434.30,227.82 434.65,228.75 435.00,231.37 435.35,230.95 435.70,231.08 436.05,232.56 436.40,234.17 436.75,234.35 437.10,232.31 437.45,233.89 437.80,232.12 438.15,229.47 438.50,227.68 438.85,229.20 439.20,229.88 439.55,231.79 439.90,229.80 440.25,229.29 440.60,227.97 440.95,227.73 441.30,227.07 441.65,229.16 442.00,231.16 442.35,230.36 442.70,231.01 443.05,226.48 443.40,227.29 443.75,225.65 444.10,226.11 444.45,224.74 444.80,223.84 445.15,221.45 445.50,223.33 445.85,222.63 446.20,219.57 446.55,222.69 446.90,225.01 447.25,220.09 447.60,217.30 447.95,214.77 448.30,212.20 448.65,209.94 449.00,213.08 449.35,213.31 449.70,216.46 450.05,218.23 450.40,215.37 450.75,217.43 451.10,217.46 451.45,220.04 451.80,215.46 452.15,214.13 452.50,216.40 452.85,217.23 453.20,217.76 453.55,214.45 453.90,213.19 454.25,213.23 454.60,215.42 454.95,217.36 455.30,218.43 455.65,220.08 456.00,220.00 456.35,220.59 456.70,218.77 457.05,217.16 457.40,216.58 457.75,218.26 458.10,219.83 458.45,221.73 458.80,226.64 459.15,227.31 459.50,229.91 459.85,232.15 460.20,228.40 460.55,233.56 460.90,236.62 461.25,236.00 461.60,235.40 461.95,237.14 462.30,237.33 462.65,239.68 463.00,235.45 463.35,238.71 463.70,240.36 464.05,242.14 464.40,238.59 464.75,236.09 465.10,233.17 465.45,233.22 465.80,229.91 466.15,230.86 466.50,229.28 466.85,230.56 467.20,227.97 467.55,227.79 467.90,229.42 468.25,229.97 468.60,231.11 468.95,232.72 469.30,232.43 469.65,233.08 470.00,230.36 470.35,232.66 470.70,233.23 471.05,235.09 471.40,235.81 471.75,235.93 472.10,234.84 472.45,232.43 472.80,227.12 473.15,225.35 473.50,228.94 473.85,227.02 474.20,227.61 474.55,227.79 474.90,232.31 475.25,231.66 475.60,236.26 475.95,238.35 476.30,235.04 476.65,232.95 477.00,232.87 477.35,234.54 477.70,234.00 478.05,234.42 478.40,234.38 478.75,236.65 479.10,234.76 479.45,232.01 479.80,226.96 480.15,229.91 480.50,227.30 480.85,224.66 481.20,224.70 481.55,224.25 481.90,223.70 482.25,220.31 482.60,214.57 482.95,213.62 483.30,213.30 483.65,215.75 484.00,213.40 484.35,213.19 484.70,213.35 485.05,215.05 485.40,215.84 485.75,217.26 486.10,215.40 486.45,215.11 486.80,210.35 487.15,209.84 487.50,208.68 487.85,207.28 488.20,208.86 488.55,210.82 488.90,207.75 489.25,209.50 489.60,206.14 489.95,204.52 490.30,205.06 490.65,207.91 491.00,206.50 491.35,206.36 491.70,205.29 492.05,203.43 492.40,204.30 492.75,200.85 493.10,202.05 493.45,203.27 493.80,202.00 494.15,202.75 494.50,201.75 494.85,200.34 495.20,199.03 495.55,200.69 495.90,203.61 496.25,205.50 496.60,202.76 496.95,200.61 497.30,199.06 497.65,197.34 498.00,196.37 498.35,192.97 498.70,192.53 499.05,191.43 499.40,189.73 499.75,191.68 500.10,193.03 500.45,193.42 500.80,196.06 501.15,196.04 501.50,200.40 501.85,199.27 502.20,204.46 502.55,201.51 502.90,203.01 503.25,199.97 503.60,204.49 503.95,203.88 504.30,199.72 504.65,198.45 505.00,199.17 505.35,200.39 505.70,197.56 506.05,197.87 506.40,197.69 506.75,198.87 507.10,197.82 507.45,194.80 507.80,195.05 508.15,194.43 508.50,193.88 508.85,199.27 509.20,202.81 509.55,201.54 509.90,199.39 510.25,200.27 510.60,201.13 510.95,201.20 511.30,201.38 511.65,197.61 512.00,194.23 512.35,196.76 512.70,194.70 513.05,196.46 513.40,197.22 513.75,192.60 514.10,191.03 514.45,191.60 514.80,188.27 515.15,187.79 515.50,188.82 515.85,186.14 516.20,188.26 516.55,188.37 516.90,186.41 517.25,183.14 517.60,181.73 517.95,179.75 518.30,182.44 518.65,183.46 519.00,183.96 519.35,183.10 519.70,182.75 520.05,183.60 520.40,183.97 520.75,185.08 521.10,183.51 521.45,183.21 521.80,182.17 522.15,182.45 522.50,183.75 522.85,182.43 523.20,182.79 523.55,184.53 523.90,188.59 524.25,185.05 524.60,183.47 524.95,183.17 525.30,178.01 525.65,178.54 526.00,174.90 526.35,178.62 526.70,178.77 527.05,177.74 527.40,176.98 527.75,173.68 528.10,174.53 528.45,173.48 528.80,171.13 529.15,171.82 529.50,170.60 529.85,166.70 530.20,166.73 530.55,165.24 530.90,165.84 531.25,168.16 531.60,169.47 531.95,168.54 532.30,164.98 532.65,164.29 533.00,162.24 533.35,162.84 533.70,162.99 534.05,163.14 534.40,166.84 534.75,165.55 535.10,168.30 535.45,169.27 535.80,168.60 536.15,169.08 536.50,169.17 536.85,166.30 537.20,167.82 537.55,165.42 537.90,165.99 538.25,165.91 538.60,165.19 538.95,164.50 539.30,165.95 539.65,168.30 540.00,165.74 540.35,167.03 540.70,165.16 541.05,164.87 541.40,161.57 541.75,164.16 542.10,165.89 542.45,164.56 542.80,161.11 543.15,159.75 543.50,159.80 543.85,158.99 544.20,154.51 544.55,154.81 544.90,154.61 545.25,157.24 545.60,153.01 545.95,150.36 546.30,148.69 546.65,150.59 547.00,150.91 547.35,148.61 547.70,151.66 548.05,152.92 548.40,154.33 548.75,151.88 549.10,150.72 549.45,148.42 549.80,152.24 550.15,149.64 550.50,153.41 550.85,154.23 551.20,151.59 551.55,155.23 551.90,156.32 552.25,158.00 552.60,157.88 552.95,155.41 553.30,155.58 553.65,154.87 554.00,153.92 554.35,153.07 554.70,153.75 555.05,154.97 555.40,156.11 555.75,157.00 556.10,152.86 556.45,155.74 556.80,157.36 557.15,158.04 557.50,162.83 557.85,162.89 558.20,161.95 558.55,165.40 558.90,161.86 559.25,161.52 559.60,162.03 559.95,160.08 560.30,157.74 560.65,157.06 561.00,155.83 561.35,155.79 561.70,154.63 562.05,152.07 562.40,152.37 562.75,150.83 563.10,151.58 563.45,150.31 563.80,152.90 564.15,151.79 564.50,147.63 564.85,143.16 565.20,144.04 565.55,143.50 565.90,141.33 566.25,142.39 566.60,138.12 566.95,139.05 567.30,137.19 567.65,136.81 568.00,134.88 568.35,132.52 568.70,128.33 569.05,127.27 569.40,127.82 569.75,125.19 570.10,123.91 570.45,122.42 570.80,124.36 571.15,126.07 571.50,124.56 571.85,124.13 572.20,123.77 572.55,125.05 572.90,123.30 573.25,121.50 573.60,118.07 573.95,116.50 574.30,112.28 574.65,111.72 575.00,116.02 575.35,114.91 575.70,110.46 576.05,111.12 576.40,108.87 576.75,107.97 577.10,106.39 577.45,106.89 577.80,105.71 578.15,104.87 578.50,100.16 578.85,105.07 579.20,101.31 579.55,104.68 579.90,100.84 580.25,101.26 580.60,99.96 580.95,101.08 581.30,104.42 581.65,103.75 582.00,103.56 582.35,104.35 582.70,101.84 583.05,103.37 583.40,105.60 583.75,108.25 584.10,108.66 584.45,104.51 584.80,110.16 585.15,107.97 585.50,107.44 585.85,106.51 586.20,106.22 586.55,103.57 586.90,103.40 587.25,106.58 587.60,106.65 587.95,110.30 588.30,113.29 588.65,110.67 589.00,109.71 589.35,103.60 589.70,97.96 590.05,98.34 590.40,99.13 590.75,98.21 591.10,103.59 591.45,105.51 591.80,107.24 592.15,107.05 592.50,107.90 592.85,108.77 593.20,110.15 593.55,112.32 593.90,111.73 594.25,108.97 594.60,107.88 594.95,106.14 595.30,109.70 595.65,113.92 596.00,112.67 596.35,109.53 596.70,105.97 597.05,108.10 597.40,107.08 597.75,108.61 598.10,110.00 598.45,110.89 598.80,109.53 599.15,112.29 599.50,115.98 599.85,114.93 600.20,117.23 600.55,116.91 600.90,117.89 601.25,113.25 601.60,112.00 601.95,107.33 602.30,106.99 602.65,107.50 603.00,101.94 603.35,98.12 603.70,94.72 604.05,92.22 604.40,92.82 604.75,95.93 605.10,95.60 605.45,97.41 605.80,94.99 606.15,92.77 606.50,93.94 606.85,100.58 607.20,101.90 607.55,97.93 607.90,102.82 608.25,100.47 608.60,105.91 608.95,104.80 609.30,106.37 609.65,108.04 610.00,104.08 610.35,105.69 610.70,105.29 611.05,107.74 611.40,105.41 611.75,99.65 612.10,96.51 612.45,99.83 612.80,103.42 613.15,101.92 613.50,105.68 613.85,99.52 614.20,101.21 614.55,99.82 614.90,100.62 615.25,97.06 615.60,100.86 615.95,101.62 616.30,101.02 616.65,101.51 617.00,103.59 617.35,111.81 617.70,113.59 618.05,112.85 618.40,113.21 618.75,114.08 619.10,117.45 619.45,117.19 619.80,121.77 620.15,123.02 620.50,127.59 620.85,127.12 621.20,124.96 621.55,123.43 621.90,119.18 622.25,117.40 622.60,118.83 622.95,119.59 623.30,120.92 623.65,125.34 624.00,127.76 624.35,122.47 624.70,123.67 625.05,126.73 625.40,124.87 625.75,129.81 626.10,124.65 626.45,128.06 626.80,124.88 627.15,124.41 627.50,121.43 627.85,119.93 628.20,121.42 628.55,122.61 628.90,126.05 629.25,125.05 629.60,122.04 629.95,118.79 630.30,121.83 630.65,121.66 631.00,122.90 631.35,121.69 631.70,124.87 632.05,122.50 632.40,118.52 632.75,123.56 633.10,125.78 633.45,123.00 633.80,119.43 634.15,124.85 634.50,126.73 634.85,129.69 635.20,127.79 635.55,123.43 635.90,129.55 636.25,126.12 636.60,123.58 636.95,125.05 637.30,122.53 637.65,117.47 638.00,118.73 638.35,117.04 638.70,116.04 639.05,118.76 639.40,119.85 639.75,113.84 640.10,113.14 640.45,113.92 640.80,117.38 641.15,118.12 641.50,119.69 641.85,122.11 642.20,119.58 642.55,121.28 642.90,119.32 643.25,114.16 643.60,117.61 643.95,111.56 644.30,104.86 644.65,106.99 645.00,107.55 645.35,103.98 645.70,107.95 646.05,105.52 646.40,106.96 646.75,103.98 647.10,111.64 647.45,113.71 647.80,113.89 648.15,111.70 648.50,112.57 648.85,111.64 649.20,109.20 649.55,108.86 649.90,104.70 650.25,107.85 650.60,109.71 650.95,99.76 651.30,99.24 651.65,103.79 652.00,105.97 652.35,99.81 652.70,102.15 653.05,100.60 653.40,97.25 653.75,100.36 654.10,95.23 654.45,91.74 654.80,94.69 655.15,97.40 655.50,91.07 655.85,94.89 656.20,97.35 656.55,96.46 656.90,97.49 657.25,97.01 657.60,96.67 657.95,90.37 658.30,96.36 658.65,95.59 659.00,98.30 659.35,98.68 659.70,97.92 660.05,98.83 660.40,106.23 660.75,105.29 661.10,105.47 661.45,112.37 661.80,116.49 662.15,113.65 662.50,116.08 662.85,113.87 663.20,114.25 663.55,116.88 663.90,122.89 664.25,125.12 664.60,126.70 664.95,123.76 665.30,124.70 665.65,125.74 666.00,131.69 666.35,132.04 666.70,136.02 667.05,130.96 667.40,135.34 667.75,135.11 668.10,134.52 668.45,132.29 668.80,133.60 669.15,130.53 669.50,133.19 669.85,132.97 670.20,131.89 670.55,134.63 670.90,136.57 671.25,137.28 671.60,138.02 671.95,141.67 672.30,140.52 672.65,143.35 673.00,144.52 673.35,146.40 673.70,146.01 674.05,142.95 674.40,146.01 674.75,146.54 675.10,148.69 675.45,140.32 675.80,143.98 676.15,139.41 676.50,144.04 676.85,146.96 677.20,145.96 677.55,143.70 677.90,144.20 678.25,143.57 678.60,142.70 678.95,144.05 679.30,143.39 679.65,141.72 680.00,136.92 680.35,137.75 680.70,139.05 681.05,141.19 681.40,134.65 681.75,135.17 682.10,136.98 682.45,135.31 682.80,132.47 683.15,136.30 683.50,138.35 683.85,135.27 684.20,135.49 684.55,133.30 684.90,129.86 685.25,130.58 685.60,126.60 685.95,123.86 686.30,121.43 686.65,121.35 687.00,120.41 687.35,116.80 687.70,116.95 688.05,115.95 688.40,115.25 688.75,114.62 689.10,115.65 689.45,109.88 689.80,115.01 690.15,108.97 690.50,98.24 690.85,103.34 691.20,104.08 691.55,101.03 691.90,99.93 692.25,100.48 692.60,98.90 692.95,96.09 693.30,93.48 693.65,95.32 694.00,99.34 694.35,99.29 694.70,96.60 695.05,99.51 695.40,99.56 695.75,98.57 696.10,97.46 696.45,100.63 696.80,106.80 697.15,105.77 697.50,102.83 697.85,99.57 698.20,100.29 698.55,96.16 698.90,95.35 699.25,94.49 699.60,98.40 699.95,96.61 700.30,95.71 700.65,97.50 701.00,98.61 701.35,100.18 701.70,97.89 702.05,96.25 702.40,96.00 702.75,94.95 703.10,96.88 703.45,96.99 703.80,98.54 704.15,98.08 704.50,93.15 704.85,94.31 705.20,92.48 705.55,88.43 705.90,88.98 706.25,89.21 706.60,93.06 706.95,96.66 707.30,96.77 707.65,94.28 708.00,98.20 708.35,100.05 708.70,100.34 709.05,99.93 709.40,107.31 709.75,106.56 710.10,108.13 710.45,105.13 710.80,99.38 711.15,103.77 711.50,100.48 711.85,101.45 712.20,103.50 712.55,97.43 712.90,94.56 713.25,92.70 713.60,93.15 713.95,90.65 714.30,91.74 714.65,91.99 715.00,89.23 715.35,91.53 715.70,94.90 716.05,99.83 716.40,105.52 716.75,107.33 717.10,105.01 717.45,101.60 717.80,101.55 718.15,101.32 718.50,99.45 718.85,93.40 719.20,93.10 719.55,96.42 719.90,95.80 720.25,95.54 720.60,96.59 720.95,101.76 721.30,100.88 721.65,105.90 722.00,104.01 722.35,101.66 722.70,107.33 723.05,112.69 723.40,108.39 723.75,106.80 724.10,108.83 724.45,109.50 724.80,113.17 725.15,112.26 725.50,117.00 725.85,115.62 726.20,115.38 726.55,115.13 726.90,114.74 727.25,114.76 727.60,117.86 727.95,115.52 728.30,122.47 728.65,121.05 729.00,122.37 729.35,125.09 729.70,124.65 730.05,127.31 730.40,120.96 730.75,120.40 731.10,119.31 731.45,120.09 731.80,118.78 732.15,116.17 732.50,116.85 732.85,116.86 733.20,112.86 733.55,105.96 733.90,104.90 734.25,107.99 734.60,110.35 734.95,108.31 735.30,109.77 735.65,106.70 736.00,106.50 736.35,108.32 736.70,106.98 737.05,105.99 737.40,105.34 737.75,106.41 738.10,107.41 738.45,104.57 738.80,96.34 739.15,93.25 739.50,93.09 739.85,96.86 740.20,95.29 740.55,98.00 740.90,101.79 741.25,97.50 741.60,104.13 741.95,104.65 742.30,106.83 742.65,109.02 743.00,107.18 743.35,107.21 743.70,107.49 744.05,108.84 744.40,107.61 744.75,112.42 745.10,113.76 745.45,114.25 745.80,115.41 746.15,121.07 746.50,120.02 746.85,126.65 747.20,127.74 747.55,127.43 747.90,133.64 748.25,137.01 748.60,139.79 748.95,141.30 749.30,137.58 749.65,132.19 750.00,133.21 750.35,133.97 750.70,135.48 751.05,134.90 751.40,134.69 751.75,134.78 752.10,133.77 752.45,132.97 752.80,135.29 753.15,137.80 753.50,137.71 753.85,140.69 754.20,141.69 754.55,144.54 754.90,143.65 755.25,145.59 755.60,145.25 755.95,149.98 756.30,148.93 756.65,149.23 757.00,150.25 757.35,147.72 757.70,148.96 758.05,145.62 758.40,145.17 758.75,144.41 759.10,145.26 759.45,150.86 759.80,150.58 760.15,150.69 760.50,149.72 760.85,152.79 761.20,154.35 761.55,152.41 761.90,158.53 762.25,161.22 762.60,165.88 762.95,166.72 763.30,168.12 763.65,168.33 764.00,163.22 764.35,158.97 764.70,156.80 765.05,157.06 765.40,156.79 765.75,154.55 766.10,147.22 766.45,144.84 766.80,143.19 767.15,146.30 767.50,146.61 767.85,145.11 768.20,146.26 768.55,151.76 768.90,149.54 769.25,144.12 769.60,145.17 769.95,145.32 770.30,139.71 770.65,136.05 771.00,136.80 771.35,137.35 771.70,136.68 772.05,145.26 772.40,143.28 772.75,145.13 773.10,142.79 773.45,145.34 773.80,138.29 774.15,138.52 774.50,139.82 774.85,141.60 775.20,141.63 775.55,141.97 775.90,141.01 776.25,146.56 776.60,143.58 776.95,144.26 777.30,142.30 777.65,143.64 778.00,142.76 778.35,139.06 778.70,140.12 779.05,137.66 779.40,140.71 779.75,141.30 780.10,137.24 780.45,136.97 780.80,140.71 781.15,144.19 781.50,142.38 781.85,140.54 782.20,139.91 782.55,143.13 782.90,144.18 783.25,143.89 783.60,141.30 783.95,140.96 784.30,140.24 784.65,137.28 785.00,131.88"/>
<line x1="813" y1="54" x2="839" y2="54" stroke="#2563eb" stroke-width="3"/>
<text x="847" y="58" font-family="Arial" font-size="13" fill="#111827">low volatility</text>
<polyline fill="none" stroke="#dc2626" stroke-width="2" points="85.00,301.92 85.35,301.92 85.70,301.92 86.05,301.92 86.40,301.92 86.75,301.92 87.10,301.77 87.45,301.63 87.80,301.58 88.15,301.55 88.50,301.48 88.85,301.48 89.20,301.50 89.55,301.63 89.90,301.78 90.25,301.63 90.60,300.97 90.95,300.35 91.30,300.47 91.65,300.67 92.00,300.82 92.35,300.45 92.70,300.08 93.05,300.12 93.40,300.38 93.75,300.04 94.10,300.11 94.45,300.54 94.80,300.62 95.15,300.95 95.50,300.87 95.85,301.22 96.20,300.90 96.55,301.20 96.90,301.40 97.25,301.26 97.60,301.50 97.95,301.63 98.30,301.45 98.65,301.17 99.00,301.08 99.35,301.12 99.70,301.33 100.05,301.46 100.40,301.33 100.75,301.13 101.10,300.51 101.45,300.29 101.80,299.97 102.15,299.81 102.50,297.76 102.85,297.37 103.20,298.05 103.55,298.19 103.90,299.84 104.25,302.05 104.60,304.05 104.95,304.82 105.30,303.36 105.65,302.75 106.00,301.91 106.35,302.55 106.70,300.46 107.05,299.27 107.40,298.57 107.75,297.70 108.10,298.96 108.45,300.82 108.80,301.99 109.15,301.38 109.50,301.46 109.85,303.68 110.20,303.26 110.55,303.96 110.90,305.29 111.25,305.36 111.60,304.54 111.95,303.86 112.30,303.10 112.65,298.81 113.00,298.49 113.35,301.54 113.70,301.78 114.05,300.82 114.40,303.46 114.75,304.82 115.10,304.49 115.45,303.53 115.80,304.57 116.15,303.68 116.50,302.37 116.85,303.91 117.20,301.16 117.55,300.91 117.90,296.52 118.25,292.01 118.60,291.21 118.95,289.54 119.30,292.42 119.65,293.72 120.00,293.88 120.35,290.18 120.70,293.49 121.05,290.56 121.40,291.40 121.75,293.89 122.10,290.21 122.45,287.94 122.80,286.26 123.15,287.66 123.50,290.12 123.85,287.56 124.20,288.79 124.55,289.75 124.90,289.79 125.25,288.19 125.60,289.81 125.95,288.79 126.30,286.87 126.65,287.03 127.00,287.65 127.35,288.93 127.70,293.30 128.05,298.74 128.40,300.46 128.75,300.66 129.10,298.60 129.45,297.22 129.80,296.57 130.15,297.28 130.50,298.53 130.85,297.05 131.20,298.46 131.55,298.66 131.90,300.60 132.25,305.77 132.60,304.11 132.95,302.93 133.30,300.82 133.65,294.90 134.00,298.70 134.35,300.70 134.70,297.13 135.05,292.14 135.40,291.74 135.75,291.35 136.10,291.80 136.45,288.42 136.80,291.50 137.15,290.86 137.50,290.66 137.85,291.98 138.20,289.20 138.55,289.46 138.90,283.30 139.25,288.26 139.60,291.10 139.95,292.01 140.30,293.18 140.65,291.81 141.00,289.83 141.35,291.90 141.70,285.65 142.05,283.07 142.40,283.71 142.75,277.46 143.10,278.72 143.45,278.39 143.80,275.48 144.15,278.37 144.50,272.65 144.85,272.12 145.20,268.76 145.55,275.10 145.90,273.77 146.25,274.95 146.60,273.24 146.95,275.91 147.30,276.79 147.65,277.12 148.00,277.65 148.35,277.27 148.70,277.53 149.05,277.67 149.40,283.09 149.75,282.59 150.10,278.32 150.45,279.16 150.80,280.28 151.15,278.41 151.50,277.77 151.85,274.55 152.20,273.56 152.55,275.63 152.90,275.92 153.25,278.22 153.60,278.29 153.95,279.22 154.30,279.17 154.65,278.69 155.00,278.93 155.35,272.23 155.70,278.16 156.05,277.75 156.40,276.85 156.75,279.06 157.10,275.81 157.45,275.31 157.80,275.87 158.15,274.93 158.50,273.50 158.85,272.96 159.20,273.31 159.55,274.51 159.90,276.29 160.25,270.93 160.60,269.10 160.95,271.45 161.30,272.14 161.65,270.64 162.00,269.25 162.35,267.76 162.70,268.38 163.05,269.00 163.40,270.45 163.75,272.84 164.10,273.83 164.45,272.39 164.80,272.34 165.15,273.83 165.50,276.32 165.85,277.61 166.20,277.75 166.55,276.42 166.90,273.28 167.25,273.19 167.60,271.22 167.95,270.40 168.30,273.60 168.65,277.00 169.00,278.50 169.35,279.72 169.70,283.59 170.05,281.29 170.40,278.59 170.75,277.04 171.10,277.94 171.45,278.67 171.80,279.72 172.15,280.29 172.50,280.65 172.85,281.34 173.20,282.02 173.55,282.44 173.90,281.69 174.25,282.93 174.60,283.83 174.95,287.99 175.30,285.45 175.65,285.15 176.00,288.92 176.35,289.82 176.70,289.41 177.05,293.31 177.40,295.26 177.75,294.29 178.10,295.01 178.45,290.86 178.80,288.78 179.15,288.35 179.50,288.08 179.85,286.74 180.20,285.68 180.55,290.14 180.90,291.14 181.25,291.17 181.60,291.28 181.95,288.96 182.30,288.53 182.65,290.18 183.00,291.03 183.35,292.44 183.70,292.34 184.05,291.19 184.40,290.66 184.75,291.26 185.10,290.38 185.45,293.22 185.80,293.99 186.15,291.73 186.50,291.42 186.85,291.57 187.20,292.09 187.55,293.00 187.90,292.69 188.25,292.42 188.60,291.61 188.95,292.45 189.30,291.64 189.65,292.24 190.00,293.11 190.35,292.89 190.70,292.62 191.05,292.18 191.40,292.50 191.75,293.55 192.10,293.99 192.45,293.53 192.80,293.87 193.15,294.07 193.50,294.67 193.85,294.39 194.20,293.74 194.55,293.96 194.90,294.11 195.25,294.24 195.60,294.48 195.95,294.39 196.30,294.19 196.65,294.17 197.00,293.94 197.35,294.34 197.70,294.05 198.05,293.76 198.40,295.08 198.75,293.79 199.10,294.09 199.45,292.66 199.80,294.03 200.15,294.84 200.50,294.45 200.85,293.92 201.20,294.62 201.55,293.30 201.90,293.25 202.25,292.74 202.60,291.22 202.95,293.12 203.30,293.99 203.65,294.98 204.00,296.05 204.35,294.15 204.70,294.77 205.05,295.94 205.40,294.85 205.75,294.74 206.10,293.98 206.45,293.65 206.80,293.77 207.15,295.21 207.50,296.40 207.85,296.98 208.20,297.23 208.55,298.51 208.90,298.69 209.25,298.49 209.60,299.21 209.95,297.81 210.30,297.32 210.65,296.68 211.00,297.46 211.35,299.12 211.70,298.98 212.05,299.70 212.40,299.01 212.75,297.94 213.10,297.76 213.45,297.80 213.80,297.71 214.15,296.43 214.50,296.33 214.85,296.30 215.20,295.88 215.55,296.84 215.90,296.79 216.25,297.01 216.60,297.07 216.95,296.93 217.30,296.70 217.65,296.38 218.00,297.31 218.35,296.47 218.70,296.13 219.05,295.49 219.40,295.91 219.75,297.41 220.10,295.75 220.45,297.53 220.80,297.44 221.15,298.17 221.50,298.34 221.85,298.96 222.20,297.82 222.55,297.04 222.90,297.58 223.25,298.40 223.60,297.83 223.95,299.55 224.30,298.63 224.65,297.31 225.00,297.84 225.35,296.99 225.70,297.60 226.05,298.10 226.40,299.82 226.75,299.79 227.10,299.70 227.45,298.66 227.80,298.58 228.15,296.30 228.50,297.64 228.85,296.83 229.20,296.24 229.55,295.32 229.90,294.40 230.25,293.19 230.60,292.49 230.95,294.68 231.30,293.27 231.65,292.80 232.00,292.58 232.35,290.50 232.70,289.68 233.05,290.18 233.40,290.13 233.75,288.42 234.10,288.45 234.45,286.21 234.80,287.15 235.15,287.42 235.50,285.56 235.85,285.68 236.20,285.26 236.55,285.90 236.90,285.96 237.25,287.89 237.60,288.65 237.95,289.20 238.30,288.55 238.65,287.96 239.00,287.58 239.35,288.90 239.70,289.01 240.05,288.46 240.40,288.06 240.75,288.77 241.10,286.53 241.45,285.96 241.80,285.23 242.15,284.07 242.50,286.98 242.85,288.38 243.20,289.76 243.55,292.30 243.90,293.34 244.25,295.98 244.60,295.63 244.95,297.30 245.30,297.62 245.65,296.60 246.00,295.95 246.35,294.91 246.70,294.56 247.05,292.90 247.40,292.87 247.75,293.26 248.10,295.15 248.45,294.91 248.80,296.90 249.15,299.01 249.50,301.54 249.85,301.37 250.20,303.70 250.55,302.64 250.90,302.83 251.25,302.92 251.60,305.88 251.95,306.56 252.30,308.69 252.65,309.57 253.00,309.33 253.35,310.85 253.70,311.72 254.05,312.14 254.40,313.30 254.75,312.16 255.10,314.05 255.45,315.17 255.80,316.33 256.15,317.58 256.50,316.06 256.85,317.59 257.20,316.75 257.55,316.01 257.90,317.88 258.25,320.04 258.60,319.43 258.95,319.63 259.30,321.14 259.65,319.73 260.00,320.54 260.35,322.98 260.70,323.07 261.05,321.98 261.40,324.01 261.75,322.63 262.10,325.88 262.45,323.77 262.80,325.86 263.15,327.68 263.50,327.61 263.85,325.65 264.20,323.85 264.55,323.14 264.90,322.12 265.25,318.70 265.60,318.70 265.95,318.62 266.30,317.35 266.65,316.91 267.00,317.34 267.35,314.63 267.70,315.68 268.05,316.67 268.40,314.28 268.75,316.52 269.10,316.05 269.45,315.59 269.80,314.38 270.15,313.67 270.50,314.22 270.85,313.89 271.20,314.38 271.55,312.24 271.90,312.17 272.25,313.26 272.60,314.94 272.95,317.00 273.30,316.66 273.65,316.87 274.00,318.84 274.35,317.05 274.70,316.68 275.05,318.31 275.40,323.16 275.75,319.35 276.10,318.11 276.45,313.94 276.80,313.15 277.15,311.09 277.50,308.72 277.85,309.32 278.20,311.90 278.55,311.93 278.90,312.54 279.25,313.41 279.60,312.77 279.95,310.71 280.30,313.37 280.65,313.10 281.00,312.14 281.35,312.21 281.70,314.74 282.05,313.79 282.40,313.34 282.75,313.97 283.10,316.19 283.45,316.63 283.80,315.70 284.15,316.06 284.50,316.97 284.85,318.44 285.20,318.92 285.55,319.18 285.90,319.03 286.25,317.68 286.60,317.46 286.95,316.11 287.30,317.60 287.65,318.10 288.00,318.48 288.35,317.39 288.70,316.47 289.05,317.75 289.40,318.04 289.75,318.32 290.10,318.43 290.45,318.21 290.80,318.21 291.15,318.21 291.50,317.80 291.85,317.93 292.20,317.94 292.55,317.71 292.90,317.73 293.25,317.71 293.60,317.98 293.95,317.96 294.30,318.11 294.65,318.37 295.00,318.18 295.35,318.05 295.70,318.26 296.05,318.23 296.40,317.90 296.75,318.42 297.10,318.43 297.45,318.29 297.80,318.31 298.15,318.50 298.50,318.54 298.85,318.61 299.20,318.46 299.55,317.81 299.90,318.03 300.25,317.93 300.60,318.13 300.95,317.88 301.30,317.87 301.65,317.57 302.00,316.96 302.35,317.26 302.70,317.28 303.05,317.14 303.40,316.64 303.75,316.22 304.10,316.31 304.45,316.56 304.80,316.51 305.15,316.54 305.50,316.43 305.85,316.39 306.20,316.39 306.55,316.39 306.90,316.39 307.25,316.39 307.60,316.39 307.95,316.39 308.30,316.39 308.65,316.39 309.00,316.39 309.35,316.33 309.70,316.51 310.05,316.57 310.40,316.91 310.75,316.89 311.10,316.99 311.45,317.77 311.80,317.32 312.15,317.24 312.50,317.21 312.85,317.23 313.20,317.69 313.55,316.91 313.90,316.02 314.25,316.37 314.60,315.47 314.95,315.60 315.30,315.78 315.65,315.88 316.00,315.45 316.35,314.47 316.70,313.53 317.05,311.48 317.40,311.46 317.75,314.46 318.10,311.66 318.45,308.85 318.80,307.38 319.15,306.90 319.50,305.37 319.85,302.76 320.20,303.86 320.55,302.53 320.90,301.69 321.25,301.54 321.60,303.20 321.95,304.43 322.30,304.98 322.65,301.21 323.00,302.56 323.35,302.19 323.70,304.04 324.05,303.37 324.40,303.32 324.75,303.87 325.10,303.51 325.45,304.19 325.80,303.80 326.15,301.53 326.50,300.99 326.85,299.23 327.20,299.39 327.55,298.45 327.90,300.97 328.25,301.04 328.60,301.98 328.95,301.74 329.30,302.33 329.65,303.16 330.00,302.60 330.35,303.92 330.70,305.93 331.05,306.30 331.40,302.81 331.75,303.54 332.10,303.97 332.45,300.61 332.80,300.79 333.15,299.55 333.50,294.05 333.85,292.46 334.20,291.05 334.55,293.15 334.90,291.31 335.25,293.09 335.60,290.56 335.95,290.86 336.30,292.72 336.65,292.63 337.00,292.41 337.35,292.23 337.70,292.39 338.05,291.99 338.40,291.59 338.75,293.71 339.10,292.28 339.45,291.39 339.80,290.63 340.15,290.31 340.50,290.39 340.85,290.90 341.20,290.69 341.55,289.13 341.90,290.38 342.25,292.85 342.60,290.64 342.95,289.08 343.30,288.65 343.65,289.48 344.00,289.40 344.35,289.38 344.70,289.20 345.05,289.28 345.40,289.31 345.75,288.72 346.10,288.88 346.45,288.90 346.80,288.71 347.15,288.34 347.50,288.40 347.85,288.48 348.20,288.17 348.55,288.43 348.90,288.11 349.25,287.87 349.60,287.69 349.95,287.54 350.30,287.28 350.65,287.35 351.00,287.35 351.35,287.35 351.70,287.35 352.05,287.35 352.40,287.35 352.75,287.35 353.10,287.35 353.45,287.35 353.80,287.35 354.15,287.35 354.50,287.22 354.85,287.51 355.20,287.37 355.55,287.37 355.90,287.51 356.25,288.95 356.60,289.33 356.95,289.05 357.30,288.04 357.65,289.02 358.00,288.87 358.35,289.39 358.70,289.31 359.05,288.05 359.40,287.80 359.75,287.19 360.10,288.62 360.45,288.22 360.80,288.30 361.15,288.21 361.50,289.06 361.85,288.40 362.20,289.58 362.55,287.64 362.90,288.08 363.25,290.06 363.60,289.79 363.95,288.88 364.30,288.05 364.65,289.54 365.00,290.75 365.35,291.34 365.70,291.78 366.05,294.78 366.40,296.56 366.75,295.77 367.10,297.39 367.45,297.83 367.80,298.31 368.15,300.17 368.50,299.57 368.85,298.60 369.20,295.34 369.55,292.98 369.90,292.01 370.25,291.98 370.60,290.91 370.95,292.49 371.30,287.41 371.65,283.98 372.00,283.93 372.35,282.66 372.70,282.36 373.05,284.55 373.40,286.31 373.75,287.21 374.10,285.18 374.45,287.20 374.80,288.35 375.15,287.27 375.50,284.20 375.85,282.41 376.20,278.40 376.55,277.17 376.90,275.96 377.25,277.30 377.60,274.98 377.95,275.45 378.30,275.12 378.65,276.81 379.00,279.12 379.35,275.86 379.70,281.57 380.05,280.07 380.40,275.96 380.75,274.76 381.10,275.57 381.45,274.83 381.80,274.63 382.15,276.33 382.50,276.28 382.85,276.13 383.20,273.91 383.55,276.56 383.90,275.47 384.25,277.78 384.60,279.05 384.95,281.97 385.30,280.95 385.65,281.16 386.00,281.22 386.35,280.68 386.70,282.76 387.05,279.94 387.40,279.23 387.75,278.89 388.10,278.78 388.45,282.94 388.80,284.15 389.15,283.21 389.50,283.88 389.85,281.30 390.20,280.74 390.55,283.10 390.90,284.11 391.25,282.68 391.60,285.08 391.95,286.69 392.30,284.91 392.65,283.21 393.00,281.79 393.35,281.60 393.70,283.68 394.05,286.38 394.40,284.14 394.75,284.40 395.10,282.30 395.45,284.18 395.80,283.24 396.15,279.86 396.50,281.65 396.85,283.31 397.20,285.44 397.55,283.86 397.90,290.02 398.25,291.60 398.60,291.67 398.95,289.90 399.30,289.89 399.65,287.72 400.00,286.33 400.35,284.33 400.70,283.06 401.05,285.30 401.40,283.16 401.75,282.39 402.10,281.13 402.45,279.62 402.80,277.60 403.15,277.01 403.50,276.07 403.85,280.03 404.20,282.79 404.55,282.57 404.90,278.71 405.25,276.89 405.60,283.10 405.95,277.12 406.30,274.93 406.65,277.55 407.00,273.27 407.35,272.26 407.70,273.92 408.05,282.28 408.40,283.94 408.75,283.65 409.10,291.25 409.45,292.01 409.80,294.44 410.15,296.26 410.50,296.69 410.85,295.80 411.20,296.40 411.55,294.34 411.90,296.13 412.25,293.80 412.60,291.51 412.95,290.02 413.30,290.89 413.65,294.03 414.00,292.80 414.35,290.86 414.70,293.20 415.05,291.89 415.40,295.40 415.75,292.62 416.10,290.73 416.45,286.63 416.80,285.35 417.15,281.49 417.50,284.53 417.85,288.49 418.20,292.80 418.55,291.59 418.90,293.50 419.25,295.54 419.60,299.43 419.95,303.58 420.30,304.87 420.65,305.71 421.00,307.56 421.35,309.48 421.70,307.94 422.05,311.42 422.40,317.27 422.75,317.85 423.10,319.83 423.45,320.03 423.80,320.98 424.15,320.48 424.50,324.62 424.85,323.18 425.20,327.14 425.55,328.18 425.90,323.20 426.25,324.68 426.60,321.80 426.95,320.95 427.30,318.38 427.65,321.06 428.00,323.88 428.35,326.10 428.70,329.58 429.05,334.42 429.40,327.17 429.75,325.03 430.10,322.69 430.45,322.91 430.80,321.27 431.15,321.70 431.50,322.69 431.85,322.26 432.20,321.82 432.55,318.82 432.90,317.82 433.25,317.68 433.60,319.57 433.95,317.47 434.30,325.25 434.65,322.62 435.00,324.43 435.35,317.07 435.70,316.24 436.05,322.48 436.40,322.88 436.75,317.17 437.10,316.42 437.45,321.11 437.80,316.49 438.15,319.06 438.50,319.71 438.85,317.36 439.20,316.06 439.55,318.07 439.90,317.43 440.25,320.12 440.60,318.93 440.95,321.26 441.30,322.54 441.65,322.72 442.00,320.96 442.35,325.96 442.70,331.64 443.05,336.40 443.40,340.01 443.75,345.12 444.10,340.86 444.45,336.43 444.80,342.88 445.15,336.83 445.50,338.49 445.85,339.49 446.20,340.21 446.55,340.17 446.90,333.34 447.25,336.00 447.60,332.91 447.95,337.20 448.30,337.81 448.65,330.55 449.00,330.58 449.35,332.44 449.70,340.17 450.05,344.20 450.40,346.74 450.75,342.71 451.10,339.59 451.45,346.87 451.80,345.84 452.15,345.88 452.50,341.40 452.85,343.27 453.20,348.58 453.55,350.56 453.90,351.41 454.25,353.21 454.60,357.60 454.95,362.11 455.30,361.32 455.65,361.88 456.00,359.88 456.35,361.12 456.70,366.20 457.05,368.85 457.40,368.22 457.75,367.09 458.10,372.73 458.45,372.76 458.80,365.96 459.15,368.62 459.50,366.48 459.85,373.20 460.20,377.64 460.55,377.35 460.90,373.28 461.25,369.57 461.60,368.71 461.95,367.23 462.30,373.93 462.65,368.08 463.00,360.51 463.35,361.27 463.70,362.24 464.05,353.73 464.40,356.70 464.75,356.18 465.10,357.93 465.45,354.74 465.80,355.47 466.15,348.29 466.50,354.87 466.85,358.51 467.20,355.74 467.55,361.11 467.90,367.81 468.25,369.18 468.60,361.06 468.95,368.11 469.30,373.88 469.65,381.74 470.00,381.45 470.35,380.59 470.70,386.64 471.05,391.17 471.40,392.23 471.75,384.54 472.10,381.59 472.45,375.06 472.80,376.27 473.15,380.14 473.50,381.52 473.85,377.99 474.20,379.24 474.55,377.36 474.90,388.66 475.25,388.44 475.60,393.34 475.95,384.88 476.30,385.38 476.65,384.84 477.00,386.75 477.35,390.15 477.70,387.84 478.05,386.30 478.40,389.18 478.75,376.96 479.10,375.39 479.45,374.73 479.80,378.17 480.15,370.65 480.50,362.23 480.85,369.58 481.20,365.68 481.55,363.41 481.90,362.21 482.25,360.25 482.60,364.20 482.95,375.92 483.30,382.84 483.65,391.81 484.00,392.61 484.35,394.27 484.70,396.79 485.05,393.20 485.40,387.46 485.75,387.79 486.10,393.01 486.45,397.39 486.80,389.54 487.15,391.80 487.50,385.87 487.85,395.16 488.20,393.83 488.55,394.50 488.90,396.07 489.25,401.35 489.60,401.02 489.95,402.93 490.30,404.17 490.65,410.52 491.00,409.35 491.35,402.24 491.70,395.37 492.05,392.95 492.40,389.20 492.75,390.53 493.10,386.28 493.45,390.11 493.80,384.64 494.15,388.43 494.50,389.01 494.85,399.75 495.20,405.14 495.55,408.34 495.90,406.03 496.25,403.09 496.60,402.18 496.95,393.21 497.30,391.58 497.65,392.88 498.00,393.09 498.35,398.48 498.70,390.93 499.05,394.62 499.40,400.80 499.75,398.05 500.10,394.92 500.45,389.12 500.80,384.68 501.15,386.17 501.50,381.95 501.85,376.09 502.20,373.68 502.55,377.69 502.90,375.96 503.25,376.38 503.60,377.87 503.95,376.14 504.30,369.24 504.65,370.97 505.00,378.06 505.35,382.31 505.70,381.49 506.05,380.74 506.40,388.42 506.75,388.05 507.10,390.00 507.45,390.52 507.80,393.35 508.15,389.44 508.50,380.59 508.85,387.67 509.20,393.45 509.55,393.01 509.90,389.05 510.25,383.96 510.60,387.54 510.95,393.74 511.30,395.79 511.65,403.78 512.00,400.14 512.35,401.28 512.70,404.17 513.05,409.00 513.40,408.81 513.75,412.23 514.10,406.16 514.45,400.32 514.80,404.04 515.15,405.34 515.50,400.86 515.85,402.13 516.20,397.11 516.55,396.71 516.90,400.87 517.25,401.66 517.60,407.54 517.95,403.96 518.30,401.84 518.65,401.97 519.00,397.51 519.35,407.47 519.70,407.46 520.05,399.74 520.40,394.54 520.75,392.22 521.10,396.18 521.45,394.16 521.80,394.65 522.15,392.95 522.50,396.24 522.85,397.57 523.20,398.15 523.55,399.07 523.90,397.52 524.25,395.11 524.60,391.10 524.95,393.15 525.30,394.77 525.65,396.15 526.00,396.37 526.35,394.44 526.70,395.96 527.05,398.38 527.40,400.10 527.75,400.26 528.10,400.85 528.45,400.13 528.80,394.33 529.15,392.10 529.50,387.93 529.85,387.71 530.20,386.48 530.55,383.52 530.90,386.17 531.25,392.05 531.60,392.79 531.95,393.91 532.30,396.20 532.65,392.85 533.00,390.12 533.35,389.21 533.70,383.50 534.05,383.01 534.40,382.24 534.75,381.36 535.10,376.28 535.45,381.76 535.80,382.71 536.15,376.93 536.50,377.12 536.85,377.46 537.20,378.87 537.55,376.73 537.90,374.29 538.25,376.42 538.60,378.74 538.95,379.33 539.30,382.23 539.65,378.89 540.00,378.17 540.35,378.25 540.70,382.47 541.05,381.10 541.40,374.49 541.75,376.82 542.10,373.96 542.45,371.60 542.80,367.55 543.15,367.99 543.50,364.49 543.85,365.67 544.20,370.88 544.55,376.07 544.90,382.09 545.25,381.72 545.60,377.05 545.95,382.00 546.30,382.48 546.65,379.47 547.00,382.70 547.35,383.91 547.70,384.82 548.05,392.11 548.40,390.65 548.75,394.90 549.10,396.07 549.45,394.44 549.80,398.84 550.15,402.45 550.50,404.00 550.85,406.87 551.20,402.66 551.55,400.74 551.90,401.29 552.25,405.76 552.60,403.09 552.95,401.07 553.30,402.40 553.65,407.53 554.00,411.60 554.35,410.55 554.70,410.95 555.05,412.70 555.40,408.31 555.75,412.84 556.10,407.18 556.45,416.00 556.80,417.51 557.15,415.70 557.50,411.38 557.85,405.15 558.20,407.19 558.55,408.10 558.90,410.63 559.25,406.61 559.60,405.64 559.95,402.47 560.30,404.82 560.65,405.48 561.00,404.71 561.35,405.31 561.70,401.88 562.05,404.01 562.40,397.52 562.75,397.65 563.10,395.19 563.45,392.94 563.80,394.95 564.15,390.40 564.50,393.54 564.85,394.35 565.20,391.08 565.55,387.89 565.90,390.61 566.25,391.83 566.60,385.66 566.95,382.78 567.30,385.40 567.65,388.20 568.00,386.27 568.35,385.86 568.70,380.13 569.05,379.49 569.40,378.17 569.75,378.17 570.10,380.93 570.45,382.54 570.80,385.64 571.15,388.99 571.50,386.60 571.85,382.52 572.20,385.96 572.55,381.11 572.90,379.08 573.25,377.66 573.60,377.41 573.95,379.53 574.30,385.41 574.65,383.50 575.00,387.59 575.35,387.27 575.70,386.06 576.05,388.20 576.40,387.71 576.75,390.44 577.10,387.72 577.45,385.58 577.80,386.69 578.15,387.25 578.50,390.18 578.85,391.50 579.20,391.07 579.55,393.49 579.90,396.39 580.25,394.77 580.60,394.55 580.95,392.91 581.30,391.30 581.65,393.98 582.00,392.87 582.35,392.29 582.70,394.86 583.05,392.18 583.40,393.61 583.75,395.85 584.10,399.25 584.45,404.64 584.80,405.90 585.15,408.51 585.50,408.09 585.85,415.24 586.20,416.50 586.55,420.22 586.90,425.69 587.25,432.90 587.60,435.45 587.95,431.78 588.30,429.75 588.65,431.53 589.00,427.70 589.35,427.42 589.70,433.02 590.05,426.15 590.40,427.60 590.75,423.55 591.10,422.23 591.45,433.87 591.80,431.66 592.15,425.39 592.50,432.40 592.85,438.75 593.20,440.48 593.55,437.83 593.90,433.79 594.25,433.25 594.60,430.73 594.95,427.94 595.30,425.08 595.65,430.82 596.00,431.24 596.35,434.19 596.70,430.43 597.05,423.90 597.40,416.44 597.75,411.27 598.10,414.30 598.45,422.89 598.80,418.37 599.15,417.57 599.50,421.03 599.85,425.48 600.20,420.51 600.55,421.36 600.90,425.20 601.25,428.39 601.60,430.77 601.95,428.51 602.30,429.69 602.65,433.89 603.00,433.18 603.35,431.55 603.70,426.95 604.05,420.64 604.40,420.48 604.75,422.46 605.10,419.10 605.45,418.74 605.80,421.05 606.15,424.15 606.50,421.41 606.85,421.73 607.20,416.73 607.55,413.56 607.90,411.36 608.25,410.70 608.60,407.18 608.95,408.78 609.30,413.86 609.65,410.50 610.00,405.77 610.35,405.64 610.70,406.90 611.05,405.18 611.40,402.35 611.75,401.62 612.10,404.11 612.45,408.87 612.80,411.80 613.15,412.55 613.50,413.13 613.85,412.43 614.20,409.77 614.55,407.57 614.90,406.93 615.25,407.60 615.60,411.53 615.95,411.78 616.30,410.02 616.65,412.22 617.00,410.48 617.35,410.59 617.70,407.76 618.05,402.00 618.40,398.83 618.75,396.51 619.10,396.67 619.45,396.00 619.80,392.97 620.15,388.90 620.50,388.86 620.85,389.02 621.20,390.17 621.55,389.12 621.90,387.58 622.25,384.24 622.60,383.17 622.95,389.88 623.30,393.44 623.65,392.98 624.00,392.56 624.35,392.09 624.70,389.30 625.05,388.65 625.40,390.05 625.75,388.68 626.10,385.17 626.45,390.26 626.80,389.97 627.15,392.83 627.50,396.27 627.85,397.03 628.20,398.49 628.55,400.85 628.90,398.65 629.25,401.39 629.60,399.55 629.95,400.47 630.30,401.34 630.65,401.57 631.00,402.58 631.35,396.96 631.70,399.12 632.05,394.97 632.40,393.50 632.75,394.70 633.10,394.46 633.45,396.81 633.80,398.95 634.15,393.83 634.50,395.22 634.85,397.30 635.20,391.67 635.55,386.54 635.90,389.16 636.25,387.63 636.60,388.14 636.95,390.51 637.30,394.45 637.65,392.47 638.00,388.11 638.35,386.42 638.70,384.88 639.05,383.22 639.40,380.49 639.75,379.69 640.10,384.30 640.45,384.75 640.80,386.44 641.15,384.62 641.50,390.22 641.85,390.07 642.20,385.23 642.55,385.73 642.90,384.68 643.25,378.75 643.60,376.61 643.95,379.01 644.30,377.45 644.65,377.12 645.00,376.57 645.35,378.31 645.70,377.17 646.05,376.04 646.40,376.62 646.75,374.03 647.10,375.04 647.45,374.79 647.80,373.10 648.15,375.04 648.50,374.50 648.85,373.17 649.20,373.80 649.55,373.13 649.90,372.34 650.25,372.32 650.60,373.64 650.95,376.00 651.30,377.43 651.65,375.77 652.00,375.79 652.35,374.71 652.70,374.32 653.05,374.54 653.40,376.43 653.75,377.60 654.10,379.57 654.45,380.54 654.80,381.00 655.15,380.14 655.50,379.18 655.85,380.13 656.20,377.69 656.55,378.84 656.90,379.36 657.25,377.42 657.60,375.59 657.95,372.43 658.30,372.44 658.65,373.85 659.00,374.65 659.35,373.82 659.70,371.53 660.05,373.96 660.40,374.33 660.75,375.74 661.10,375.26 661.45,375.68 661.80,375.85 662.15,374.11 662.50,372.23 662.85,373.46 663.20,372.40 663.55,371.85 663.90,371.68 664.25,372.53 664.60,371.26 664.95,371.87 665.30,370.01 665.65,367.98 666.00,367.33 666.35,367.11 666.70,367.23 667.05,368.17 667.40,368.07 667.75,367.71 668.10,368.71 668.45,366.75 668.80,365.69 669.15,364.69 669.50,364.73 669.85,365.10 670.20,365.71 670.55,366.47 670.90,366.03 671.25,364.09 671.60,364.32 671.95,365.10 672.30,364.40 672.65,365.13 673.00,364.64 673.35,363.13 673.70,362.16 674.05,362.53 674.40,361.90 674.75,362.02 675.10,361.47 675.45,361.31 675.80,362.14 676.15,363.42 676.50,363.12 676.85,364.99 677.20,364.69 677.55,366.02 677.90,366.20 678.25,367.98 678.60,368.70 678.95,367.55 679.30,367.67 679.65,367.91 680.00,367.94 680.35,367.31 680.70,367.01 681.05,367.40 681.40,367.64 681.75,368.30 682.10,367.65 682.45,367.56 682.80,369.37 683.15,369.71 683.50,369.09 683.85,367.84 684.20,367.75 684.55,367.12 684.90,366.51 685.25,366.04 685.60,366.76 685.95,366.68 686.30,366.96 686.65,366.51 687.00,366.73 687.35,366.23 687.70,365.72 688.05,367.21 688.40,368.18 688.75,367.54 689.10,368.31 689.45,368.49 689.80,368.36 690.15,368.33 690.50,368.42 690.85,368.27 691.20,367.84 691.55,367.80 691.90,367.72 692.25,367.85 692.60,367.72 692.95,367.59 693.30,367.96 693.65,368.33 694.00,367.86 694.35,367.80 694.70,367.41 695.05,367.92 695.40,367.49 695.75,366.86 696.10,367.64 696.45,368.52 696.80,368.81 697.15,369.19 697.50,368.95 697.85,368.80 698.20,369.02 698.55,368.84 698.90,369.16 699.25,368.52 699.60,368.54 699.95,368.60 700.30,369.25 700.65,369.40 701.00,369.13 701.35,368.45 701.70,368.13 702.05,367.60 702.40,367.99 702.75,368.13 703.10,368.79 703.45,368.79 703.80,368.21 704.15,367.71 704.50,368.10 704.85,368.15 705.20,368.20 705.55,368.19 705.90,368.22 706.25,368.25 706.60,368.26 706.95,368.24 707.30,368.27 707.65,368.29 708.00,368.29 708.35,368.27 708.70,368.30 709.05,368.33 709.40,368.31 709.75,368.30 710.10,368.39 710.45,368.35 710.80,368.37 711.15,368.19 711.50,368.08 711.85,368.10 712.20,368.10 712.55,368.31 712.90,368.15 713.25,368.23 713.60,368.35 713.95,368.26 714.30,368.40 714.65,368.06 715.00,368.30 715.35,367.76 715.70,369.27 716.05,367.96 716.40,367.89 716.75,369.84 717.10,370.31 717.45,370.88 717.80,369.23 718.15,368.90 718.50,368.71 718.85,370.59 719.20,371.65 719.55,372.83 719.90,374.16 720.25,373.13 720.60,374.14 720.95,372.18 721.30,372.84 721.65,372.91 722.00,374.58 722.35,374.54 722.70,374.84 723.05,376.41 723.40,378.03 723.75,377.27 724.10,374.89 724.45,375.79 724.80,379.60 725.15,377.89 725.50,378.23 725.85,377.84 726.20,379.36 726.55,380.24 726.90,380.27 727.25,379.14 727.60,379.73 727.95,380.70 728.30,381.22 728.65,381.85 729.00,380.81 729.35,380.00 729.70,379.65 730.05,379.59 730.40,379.94 730.75,380.78 731.10,380.85 731.45,379.93 731.80,379.74 732.15,377.59 732.50,378.75 732.85,377.98 733.20,377.95 733.55,377.46 733.90,378.59 734.25,379.11 734.60,379.48 734.95,379.81 735.30,380.63 735.65,380.02 736.00,379.53 736.35,379.85 736.70,379.79 737.05,379.60 737.40,379.31 737.75,379.31 738.10,379.39 738.45,379.24 738.80,378.89 739.15,378.09 739.50,377.83 739.85,377.93 740.20,377.84 740.55,377.88 740.90,377.72 741.25,377.41 741.60,377.52 741.95,377.98 742.30,377.70 742.65,377.33 743.00,377.79 743.35,377.75 743.70,377.63 744.05,377.68 744.40,377.36 744.75,377.80 745.10,377.97 745.45,377.83 745.80,377.73 746.15,377.70 746.50,377.72 746.85,377.74 747.20,377.74 747.55,377.75 747.90,377.73 748.25,377.75 748.60,377.72 748.95,377.76 749.30,377.59 749.65,377.80 750.00,378.07 750.35,377.94 750.70,377.73 751.05,377.98 751.40,379.04 751.75,377.56 752.10,377.42 752.45,376.61 752.80,376.37 753.15,376.35 753.50,376.73 753.85,377.83 754.20,377.77 754.55,377.80 754.90,377.24 755.25,377.14 755.60,377.75 755.95,377.43 756.30,377.39 756.65,377.20 757.00,377.74 757.35,378.08 757.70,378.09 758.05,378.09 758.40,377.92 758.75,377.97 759.10,377.86 759.45,377.91 759.80,378.15 760.15,378.22 760.50,378.60 760.85,378.54 761.20,378.82 761.55,378.04 761.90,378.57 762.25,378.14 762.60,378.49 762.95,379.25 763.30,379.96 763.65,379.69 764.00,379.06 764.35,379.12 764.70,379.14 765.05,379.17 765.40,379.18 765.75,378.84 766.10,378.18 766.45,378.03 766.80,377.94 767.15,377.19 767.50,377.27 767.85,376.99 768.20,377.04 768.55,376.96 768.90,377.20 769.25,377.60 769.60,377.43 769.95,376.78 770.30,377.26 770.65,377.95 771.00,377.67 771.35,378.19 771.70,377.94 772.05,377.70 772.40,377.70 772.75,378.23 773.10,378.43 773.45,379.55 773.80,378.96 774.15,378.78 774.50,378.30 774.85,377.56 775.20,377.16 775.55,375.75 775.90,376.35 776.25,375.77 776.60,375.49 776.95,375.22 777.30,373.93 777.65,374.78 778.00,374.74 778.35,374.56 778.70,373.19 779.05,371.64 779.40,372.64 779.75,372.43 780.10,373.31 780.45,373.04 780.80,373.50 781.15,373.61 781.50,372.44 781.85,372.49 782.20,372.83 782.55,372.57 782.90,372.81 783.25,373.84 783.60,373.91 783.95,373.67 784.30,373.76 784.65,373.81 785.00,374.02"/>
<line x1="813" y1="78" x2="839" y2="78" stroke="#dc2626" stroke-width="3"/>
<text x="847" y="82" font-family="Arial" font-size="13" fill="#111827">high volatility</text>
<polyline fill="none" stroke="#059669" stroke-width="2" points="85.00,301.92 85.35,301.92 85.70,301.85 86.05,301.78 86.40,301.77 86.75,301.72 87.10,301.72 87.45,301.70 87.80,301.46 88.15,301.22 88.50,301.55 88.85,301.28 89.20,301.44 89.55,301.50 89.90,301.30 90.25,301.51 90.60,301.59 90.95,301.45 91.30,301.58 91.65,301.15 92.00,301.95 92.35,302.28 92.70,302.80 93.05,302.52 93.40,302.50 93.75,303.31 94.10,303.90 94.45,303.83 94.80,303.72 95.15,304.30 95.50,304.43 95.85,304.38 96.20,305.05 96.55,305.75 96.90,306.39 97.25,306.46 97.60,306.26 97.95,306.10 98.30,307.50 98.65,306.82 99.00,306.54 99.35,306.87 99.70,308.18 100.05,307.95 100.40,308.33 100.75,308.49 101.10,308.34 101.45,308.56 101.80,308.60 102.15,308.50 102.50,308.25 102.85,308.26 103.20,308.43 103.55,308.47 103.90,308.72 104.25,308.36 104.60,308.80 104.95,309.54 105.30,309.31 105.65,308.86 106.00,308.35 106.35,308.31 106.70,308.39 107.05,308.73 107.40,308.53 107.75,308.68 108.10,308.84 108.45,308.63 108.80,308.85 109.15,308.90 109.50,308.99 109.85,308.92 110.20,308.81 110.55,309.00 110.90,309.05 111.25,309.08 111.60,308.95 111.95,309.14 112.30,308.96 112.65,309.09 113.00,309.11 113.35,309.19 113.70,309.06 114.05,308.54 114.40,308.46 114.75,308.46 115.10,308.57 115.45,308.58 115.80,308.52 116.15,308.52 116.50,308.32 116.85,308.46 117.20,308.36 117.55,309.13 117.90,308.55 118.25,308.64 118.60,308.12 118.95,308.61 119.30,308.75 119.65,308.64 120.00,309.17 120.35,309.25 120.70,309.02 121.05,309.08 121.40,309.01 121.75,308.95 122.10,308.89 122.45,308.80 122.80,308.64 123.15,308.78 123.50,308.69 123.85,308.14 124.20,307.62 124.55,306.60 124.90,306.48 125.25,306.62 125.60,307.16 125.95,307.58 126.30,307.21 126.65,307.10 127.00,307.14 127.35,307.07 127.70,306.96 128.05,307.04 128.40,307.04 128.75,307.01 129.10,306.91 129.45,306.71 129.80,306.55 130.15,306.59 130.50,306.91 130.85,307.35 131.20,307.26 131.55,307.18 131.90,307.56 132.25,307.34 132.60,307.42 132.95,307.54 133.30,307.39 133.65,307.33 134.00,307.18 134.35,307.24 134.70,307.03 135.05,306.96 135.40,306.88 135.75,306.86 136.10,306.82 136.45,306.85 136.80,306.89 137.15,306.85 137.50,306.71 137.85,306.03 138.20,305.83 138.55,305.72 138.90,305.34 139.25,304.93 139.60,305.22 139.95,304.30 140.30,304.72 140.65,305.03 141.00,305.29 141.35,305.80 141.70,305.69 142.05,306.15 142.40,305.86 142.75,306.19 143.10,306.28 143.45,305.82 143.80,305.79 144.15,305.73 144.50,304.08 144.85,304.17 145.20,303.33 145.55,304.14 145.90,304.25 146.25,304.78 146.60,303.86 146.95,304.32 147.30,304.36 147.65,305.43 148.00,305.56 148.35,305.79 148.70,307.44 149.05,306.93 149.40,306.58 149.75,305.65 150.10,305.54 150.45,306.04 150.80,306.56 151.15,308.76 151.50,308.23 151.85,307.33 152.20,307.20 152.55,307.41 152.90,306.97 153.25,307.61 153.60,307.47 153.95,306.81 154.30,306.16 154.65,306.47 155.00,307.00 155.35,307.26 155.70,306.81 156.05,307.27 156.40,306.82 156.75,306.96 157.10,306.66 157.45,306.67 157.80,306.55 158.15,307.25 158.50,307.71 158.85,306.66 159.20,306.95 159.55,307.46 159.90,307.75 160.25,307.51 160.60,308.31 160.95,309.31 161.30,310.00 161.65,309.94 162.00,309.08 162.35,308.43 162.70,308.18 163.05,307.89 163.40,307.17 163.75,306.76 164.10,306.60 164.45,306.01 164.80,304.77 165.15,304.09 165.50,303.94 165.85,303.59 166.20,302.45 166.55,302.36 166.90,301.69 167.25,301.90 167.60,301.12 167.95,300.81 168.30,300.18 168.65,299.91 169.00,300.17 169.35,299.51 169.70,299.59 170.05,299.29 170.40,299.47 170.75,299.57 171.10,299.72 171.45,299.60 171.80,299.77 172.15,299.77 172.50,299.77 172.85,299.77 173.20,299.73 173.55,299.82 173.90,299.76 174.25,299.68 174.60,299.81 174.95,299.92 175.30,299.80 175.65,299.63 176.00,299.65 176.35,299.63 176.70,299.68 177.05,299.38 177.40,299.33 177.75,299.36 178.10,299.46 178.45,298.54 178.80,298.61 179.15,298.57 179.50,298.47 179.85,298.44 180.20,298.06 180.55,297.84 180.90,297.28 181.25,296.44 181.60,295.89 181.95,296.54 182.30,296.70 182.65,296.55 183.00,297.08 183.35,296.61 183.70,296.08 184.05,296.43 184.40,296.29 184.75,296.28 185.10,296.49 185.45,296.55 185.80,296.00 186.15,296.53 186.50,295.73 186.85,296.03 187.20,295.46 187.55,294.87 187.90,295.35 188.25,295.08 188.60,295.30 188.95,295.13 189.30,295.40 189.65,295.35 190.00,295.19 190.35,294.75 190.70,294.80 191.05,295.83 191.40,296.03 191.75,296.22 192.10,295.86 192.45,295.87 192.80,294.82 193.15,294.47 193.50,295.05 193.85,295.11 194.20,295.37 194.55,294.67 194.90,295.72 195.25,296.26 195.60,295.96 195.95,295.88 196.30,295.69 196.65,296.02 197.00,296.21 197.35,298.20 197.70,298.26 198.05,298.54 198.40,297.94 198.75,298.46 199.10,299.07 199.45,299.17 199.80,297.83 200.15,297.85 200.50,298.19 200.85,297.87 201.20,296.05 201.55,296.73 201.90,295.59 202.25,295.96 202.60,294.69 202.95,294.15 203.30,293.74 203.65,294.40 204.00,293.80 204.35,292.83 204.70,294.45 205.05,294.98 205.40,294.88 205.75,295.45 206.10,294.83 206.45,295.79 206.80,295.07 207.15,294.68 207.50,293.91 207.85,293.14 208.20,293.32 208.55,293.11 208.90,292.54 209.25,292.68 209.60,292.84 209.95,292.77 210.30,292.58 210.65,294.16 211.00,294.22 211.35,294.13 211.70,294.70 212.05,295.49 212.40,295.98 212.75,294.48 213.10,293.13 213.45,292.96 213.80,291.22 214.15,291.56 214.50,291.67 214.85,291.80 215.20,291.33 215.55,293.16 215.90,291.51 216.25,291.45 216.60,290.04 216.95,288.75 217.30,288.50 217.65,288.92 218.00,288.65 218.35,289.02 218.70,290.83 219.05,289.98 219.40,288.98 219.75,289.88 220.10,289.44 220.45,289.22 220.80,290.09 221.15,290.53 221.50,290.07 221.85,289.14 222.20,289.67 222.55,289.65 222.90,289.11 223.25,288.23 223.60,286.49 223.95,287.41 224.30,286.10 224.65,284.60 225.00,283.57 225.35,283.99 225.70,282.04 226.05,281.75 226.40,282.15 226.75,281.91 227.10,281.30 227.45,280.77 227.80,280.24 228.15,280.81 228.50,281.83 228.85,282.60 229.20,283.64 229.55,283.33 229.90,284.38 230.25,283.10 230.60,284.47 230.95,283.58 231.30,283.03 231.65,282.44 232.00,282.52 232.35,282.29 232.70,283.19 233.05,283.90 233.40,283.40 233.75,283.77 234.10,283.96 234.45,283.97 234.80,283.91 235.15,284.02 235.50,284.42 235.85,283.90 236.20,283.74 236.55,283.55 236.90,283.17 237.25,282.73 237.60,282.79 237.95,282.61 238.30,282.56 238.65,282.11 239.00,281.77 239.35,282.06 239.70,281.69 240.05,281.01 240.40,281.16 240.75,281.16 241.10,281.08 241.45,282.08 241.80,281.96 242.15,282.36 242.50,282.93 242.85,282.65 243.20,282.83 243.55,283.36 243.90,283.66 244.25,283.65 244.60,283.68 244.95,283.43 245.30,282.95 245.65,282.97 246.00,283.23 246.35,283.22 246.70,282.83 247.05,282.78 247.40,282.95 247.75,283.11 248.10,283.26 248.45,283.09 248.80,283.09 249.15,283.09 249.50,283.01 249.85,283.17 250.20,282.83 250.55,283.05 250.90,282.99 251.25,282.99 251.60,282.99 251.95,282.75 252.30,282.76 252.65,282.63 253.00,282.67 253.35,282.63 253.70,282.88 254.05,282.96 254.40,283.02 254.75,283.17 255.10,282.89 255.45,283.35 255.80,283.44 256.15,282.79 256.50,282.84 256.85,282.78 257.20,283.06 257.55,282.93 257.90,282.70 258.25,282.84 258.60,282.77 258.95,282.54 259.30,282.71 259.65,282.77 260.00,282.93 260.35,282.45 260.70,282.79 261.05,282.48 261.40,282.45 261.75,282.20 262.10,282.18 262.45,282.22 262.80,282.16 263.15,282.11 263.50,282.17 263.85,282.17 264.20,281.99 264.55,281.86 264.90,281.64 265.25,281.40 265.60,281.80 265.95,282.10 266.30,282.05 266.65,281.85 267.00,282.20 267.35,282.01 267.70,282.10 268.05,282.72 268.40,282.64 268.75,282.98 269.10,283.13 269.45,283.20 269.80,283.73 270.15,283.67 270.50,283.33 270.85,283.32 271.20,283.49 271.55,282.86 271.90,282.59 272.25,282.37 272.60,282.57 272.95,281.61 273.30,282.27 273.65,281.76 274.00,282.38 274.35,282.30 274.70,281.14 275.05,282.76 275.40,282.52 275.75,281.81 276.10,281.75 276.45,281.10 276.80,282.24 277.15,281.74 277.50,281.26 277.85,281.14 278.20,280.67 278.55,279.88 278.90,279.24 279.25,278.73 279.60,279.54 279.95,280.56 280.30,281.12 280.65,279.62 281.00,279.73 281.35,279.15 281.70,280.31 282.05,280.04 282.40,279.73 282.75,279.43 283.10,280.31 283.45,279.45 283.80,279.07 284.15,279.30 284.50,279.15 284.85,279.17 285.20,279.38 285.55,278.66 285.90,278.25 286.25,278.69 286.60,278.75 286.95,279.10 287.30,279.10 287.65,279.18 288.00,279.90 288.35,279.88 288.70,279.60 289.05,280.35 289.40,280.67 289.75,279.77 290.10,279.65 290.45,279.47 290.80,279.99 291.15,280.20 291.50,279.35 291.85,278.92 292.20,278.61 292.55,278.85 292.90,278.41 293.25,277.85 293.60,277.58 293.95,277.97 294.30,278.72 294.65,278.42 295.00,278.07 295.35,278.30 295.70,277.89 296.05,277.79 296.40,277.73 296.75,277.93 297.10,278.17 297.45,278.04 297.80,278.15 298.15,278.49 298.50,278.60 298.85,278.47 299.20,278.25 299.55,277.97 299.90,278.22 300.25,278.13 300.60,277.71 300.95,277.67 301.30,278.46 301.65,278.40 302.00,278.55 302.35,278.32 302.70,278.07 303.05,277.14 303.40,276.99 303.75,277.49 304.10,278.02 304.45,277.78 304.80,277.58 305.15,277.35 305.50,277.88 305.85,278.30 306.20,278.82 306.55,278.89 306.90,278.74 307.25,278.92 307.60,279.40 307.95,278.61 308.30,278.15 308.65,278.20 309.00,278.17 309.35,279.00 309.70,278.72 310.05,279.68 310.40,278.96 310.75,279.67 311.10,280.17 311.45,280.33 311.80,281.69 312.15,281.94 312.50,282.27 312.85,282.30 313.20,282.30 313.55,281.96 313.90,281.36 314.25,281.43 314.60,281.28 314.95,281.42 315.30,281.87 315.65,282.55 316.00,282.58 316.35,283.91 316.70,284.31 317.05,283.44 317.40,282.99 317.75,284.14 318.10,284.64 318.45,284.90 318.80,285.38 319.15,285.54 319.50,285.30 319.85,285.25 320.20,285.84 320.55,285.81 320.90,284.93 321.25,283.96 321.60,283.62 321.95,283.63 322.30,283.56 322.65,284.65 323.00,284.73 323.35,285.31 323.70,285.32 324.05,285.04 324.40,285.19 324.75,285.19 325.10,285.55 325.45,286.37 325.80,287.07 326.15,287.35 326.50,286.89 326.85,286.31 327.20,286.07 327.55,286.20 327.90,286.46 328.25,286.60 328.60,286.62 328.95,286.79 329.30,286.53 329.65,286.53 330.00,286.38 330.35,286.54 330.70,286.48 331.05,286.48 331.40,286.48 331.75,286.48 332.10,286.48 332.45,286.48 332.80,286.48 333.15,286.48 333.50,286.48 333.85,286.34 334.20,285.93 334.55,286.01 334.90,286.29 335.25,286.28 335.60,286.26 335.95,286.06 336.30,285.96 336.65,285.79 337.00,285.45 337.35,285.27 337.70,285.44 338.05,285.30 338.40,285.27 338.75,285.15 339.10,285.20 339.45,285.04 339.80,285.18 340.15,285.32 340.50,285.09 340.85,284.91 341.20,284.82 341.55,284.59 341.90,284.43 342.25,284.36 342.60,284.34 342.95,284.67 343.30,285.02 343.65,284.90 344.00,284.77 344.35,284.92 344.70,284.76 345.05,284.73 345.40,284.87 345.75,284.83 346.10,284.88 346.45,284.88 346.80,284.85 347.15,284.86 347.50,284.86 347.85,284.87 348.20,284.89 348.55,284.88 348.90,284.88 349.25,284.87 349.60,284.87 349.95,284.88 350.30,284.90 350.65,284.88 351.00,284.78 351.35,284.85 351.70,284.97 352.05,284.80 352.40,284.93 352.75,284.89 353.10,284.76 353.45,284.76 353.80,284.66 354.15,284.53 354.50,284.42 354.85,284.23 355.20,284.17 355.55,283.99 355.90,283.91 356.25,283.96 356.60,284.01 356.95,284.08 357.30,283.94 357.65,284.20 358.00,283.67 358.35,283.47 358.70,284.15 359.05,284.38 359.40,284.68 359.75,284.90 360.10,284.87 360.45,285.35 360.80,284.82 361.15,284.48 361.50,284.60 361.85,284.71 362.20,284.63 362.55,284.95 362.90,284.67 363.25,284.62 363.60,284.72 363.95,284.59 364.30,284.69 364.65,284.70 365.00,285.14 365.35,285.36 365.70,285.60 366.05,285.55 366.40,286.44 366.75,286.89 367.10,287.11 367.45,286.71 367.80,286.91 368.15,287.00 368.50,286.77 368.85,286.47 369.20,285.51 369.55,285.56 369.90,285.60 370.25,285.51 370.60,285.51 370.95,285.43 371.30,285.17 371.65,285.53 372.00,285.21 372.35,285.35 372.70,285.08 373.05,283.66 373.40,283.56 373.75,283.27 374.10,284.35 374.45,283.60 374.80,282.53 375.15,283.44 375.50,284.26 375.85,284.41 376.20,283.73 376.55,283.97 376.90,283.69 377.25,283.88 377.60,284.68 377.95,286.11 378.30,287.90 378.65,286.06 379.00,286.08 379.35,287.86 379.70,288.35 380.05,286.66 380.40,287.03 380.75,287.95 381.10,288.15 381.45,286.64 381.80,285.13 382.15,285.47 382.50,286.40 382.85,286.36 383.20,285.28 383.55,285.05 383.90,286.56 384.25,286.76 384.60,287.94 384.95,287.61 385.30,288.27 385.65,288.48 386.00,288.66 386.35,288.37 386.70,289.12 387.05,288.76 387.40,289.52 387.75,290.02 388.10,291.40 388.45,292.54 388.80,292.90 389.15,293.43 389.50,293.27 389.85,292.85 390.20,294.15 390.55,293.59 390.90,293.00 391.25,293.09 391.60,293.80 391.95,294.01 392.30,294.08 392.65,294.08 393.00,293.79 393.35,293.52 393.70,294.11 394.05,293.41 394.40,293.40 394.75,292.56 395.10,293.49 395.45,293.33 395.80,292.87 396.15,292.34 396.50,292.24 396.85,292.25 397.20,292.37 397.55,291.97 397.90,292.10 398.25,291.56 398.60,290.68 398.95,290.95 399.30,290.40 399.65,289.68 400.00,290.46 400.35,291.35 400.70,291.99 401.05,291.09 401.40,291.54 401.75,290.71 402.10,289.81 402.45,289.67 402.80,289.35 403.15,290.16 403.50,290.44 403.85,290.43 404.20,290.82 404.55,290.28 404.90,290.09 405.25,289.56 405.60,288.60 405.95,289.72 406.30,291.77 406.65,290.98 407.00,290.84 407.35,289.35 407.70,288.98 408.05,288.90 408.40,289.18 408.75,288.73 409.10,289.07 409.45,288.54 409.80,288.89 410.15,288.19 410.50,288.51 410.85,287.88 411.20,288.02 411.55,288.47 411.90,288.62 412.25,288.73 412.60,290.08 412.95,290.21 413.30,289.85 413.65,289.81 414.00,289.71 414.35,290.11 414.70,289.67 415.05,289.83 415.40,289.92 415.75,289.91 416.10,289.99 416.45,289.92 416.80,289.96 417.15,289.95 417.50,290.03 417.85,289.95 418.20,290.01 418.55,289.98 418.90,290.09 419.25,290.12 419.60,290.12 419.95,290.39 420.30,290.36 420.65,290.39 421.00,290.29 421.35,290.27 421.70,290.38 422.05,290.33 422.40,290.27 422.75,290.32 423.10,290.26 423.45,290.33 423.80,290.37 424.15,290.35 424.50,290.31 424.85,290.27 425.20,290.21 425.55,290.25 425.90,290.11 426.25,290.06 426.60,289.95 426.95,289.97 427.30,289.90 427.65,289.88 428.00,289.63 428.35,289.62 428.70,289.19 429.05,289.04 429.40,288.98 429.75,289.06 430.10,288.85 430.45,288.58 430.80,288.52 431.15,288.29 431.50,288.10 431.85,288.26 432.20,288.07 432.55,286.55 432.90,286.54 433.25,287.30 433.60,286.54 433.95,286.08 434.30,286.21 434.65,286.05 435.00,285.92 435.35,284.98 435.70,284.09 436.05,284.91 436.40,283.77 436.75,283.23 437.10,282.37 437.45,283.05 437.80,282.29 438.15,281.62 438.50,282.12 438.85,282.20 439.20,281.69 439.55,281.04 439.90,281.68 440.25,281.43 440.60,281.33 440.95,280.84 441.30,279.70 441.65,279.74 442.00,281.20 442.35,281.86 442.70,281.62 443.05,281.89 443.40,282.97 443.75,283.47 444.10,282.82 444.45,283.60 444.80,282.87 445.15,282.27 445.50,283.00 445.85,282.57 446.20,282.18 446.55,281.91 446.90,282.08 447.25,281.25 447.60,281.25 447.95,281.45 448.30,281.95 448.65,281.86 449.00,281.51 449.35,282.53 449.70,281.51 450.05,280.65 450.40,281.09 450.75,281.44 451.10,281.48 451.45,281.04 451.80,281.51 452.15,281.19 452.50,281.38 452.85,280.72 453.20,280.94 453.55,281.34 453.90,280.97 454.25,281.20 454.60,281.82 454.95,281.00 455.30,281.21 455.65,280.64 456.00,279.78 456.35,279.33 456.70,280.01 457.05,279.70 457.40,281.50 457.75,280.69 458.10,281.90 458.45,281.28 458.80,281.32 459.15,280.44 459.50,280.38 459.85,280.76 460.20,281.59 460.55,283.68 460.90,281.09 461.25,281.22 461.60,280.59 461.95,280.65 462.30,280.40 462.65,279.34 463.00,278.98 463.35,280.59 463.70,281.30 464.05,280.13 464.40,280.87 464.75,281.07 465.10,282.46 465.45,284.33 465.80,283.88 466.15,283.31 466.50,284.30 466.85,284.16 467.20,283.71 467.55,284.46 467.90,286.46 468.25,284.94 468.60,284.83 468.95,284.92 469.30,283.31 469.65,283.06 470.00,281.59 470.35,281.59 470.70,280.84 471.05,281.78 471.40,285.33 471.75,285.11 472.10,282.22 472.45,280.97 472.80,283.85 473.15,286.32 473.50,287.80 473.85,289.88 474.20,291.28 474.55,291.63 474.90,288.79 475.25,290.10 475.60,289.21 475.95,289.49 476.30,285.06 476.65,285.17 477.00,282.36 477.35,282.59 477.70,281.51 478.05,279.30 478.40,282.11 478.75,281.35 479.10,278.51 479.45,279.28 479.80,279.23 480.15,279.72 480.50,278.37 480.85,280.99 481.20,280.13 481.55,280.60 481.90,277.07 482.25,278.69 482.60,278.87 482.95,280.92 483.30,281.23 483.65,285.16 484.00,286.05 484.35,286.95 484.70,287.04 485.05,285.36 485.40,282.16 485.75,282.61 486.10,280.10 486.45,280.17 486.80,280.66 487.15,279.58 487.50,281.03 487.85,276.25 488.20,276.50 488.55,276.46 488.90,273.41 489.25,270.39 489.60,273.65 489.95,276.41 490.30,274.69 490.65,274.62 491.00,274.11 491.35,278.62 491.70,281.66 492.05,285.21 492.40,286.05 492.75,289.12 493.10,293.49 493.45,291.90 493.80,288.46 494.15,285.70 494.50,289.58 494.85,293.47 495.20,292.33 495.55,293.99 495.90,300.93 496.25,303.56 496.60,299.53 496.95,301.06 497.30,299.30 497.65,301.53 498.00,303.25 498.35,299.04 498.70,296.35 499.05,297.06 499.40,297.82 499.75,295.89 500.10,297.24 500.45,294.76 500.80,298.33 501.15,299.67 501.50,297.92 501.85,300.54 502.20,300.63 502.55,302.13 502.90,303.52 503.25,304.95 503.60,308.25 503.95,311.47 504.30,312.10 504.65,317.40 505.00,323.47 505.35,322.65 505.70,319.24 506.05,315.19 506.40,314.37 506.75,315.60 507.10,319.64 507.45,322.91 507.80,322.65 508.15,322.23 508.50,326.06 508.85,326.37 509.20,329.10 509.55,329.01 509.90,332.97 510.25,332.02 510.60,336.33 510.95,338.11 511.30,341.04 511.65,342.49 512.00,341.96 512.35,343.96 512.70,345.58 513.05,346.27 513.40,345.12 513.75,349.87 514.10,348.62 514.45,346.13 514.80,345.83 515.15,342.36 515.50,343.13 515.85,344.55 516.20,347.19 516.55,348.51 516.90,352.31 517.25,349.73 517.60,349.12 517.95,349.09 518.30,349.64 518.65,349.75 519.00,351.03 519.35,353.23 519.70,351.29 520.05,346.52 520.40,346.29 520.75,345.99 521.10,344.45 521.45,344.03 521.80,344.60 522.15,345.71 522.50,343.41 522.85,341.47 523.20,342.99 523.55,346.31 523.90,346.72 524.25,346.20 524.60,347.68 524.95,345.73 525.30,342.93 525.65,344.82 526.00,342.68 526.35,339.54 526.70,340.31 527.05,345.18 527.40,343.23 527.75,344.20 528.10,345.90 528.45,347.58 528.80,346.35 529.15,342.84 529.50,345.57 529.85,344.97 530.20,341.23 530.55,342.45 530.90,343.02 531.25,342.50 531.60,339.85 531.95,342.04 532.30,342.83 532.65,339.20 533.00,342.79 533.35,340.14 533.70,337.87 534.05,340.59 534.40,335.50 534.75,336.57 535.10,337.68 535.45,339.17 535.80,339.01 536.15,341.47 536.50,340.05 536.85,335.83 537.20,333.72 537.55,337.32 537.90,337.45 538.25,336.77 538.60,341.34 538.95,345.60 539.30,349.86 539.65,352.48 540.00,351.70 540.35,351.78 540.70,349.96 541.05,344.04 541.40,341.92 541.75,342.59 542.10,342.83 542.45,339.65 542.80,338.63 543.15,341.63 543.50,342.12 543.85,345.25 544.20,343.70 544.55,345.08 544.90,343.38 545.25,338.17 545.60,340.86 545.95,344.03 546.30,339.29 546.65,337.87 547.00,335.04 547.35,332.29 547.70,333.69 548.05,333.85 548.40,335.47 548.75,335.85 549.10,336.71 549.45,336.28 549.80,338.27 550.15,338.71 550.50,333.97 550.85,334.00 551.20,333.54 551.55,330.44 551.90,331.69 552.25,328.95 552.60,332.43 552.95,332.98 553.30,340.13 553.65,339.93 554.00,340.14 554.35,346.07 554.70,345.86 555.05,347.33 555.40,349.48 555.75,351.93 556.10,352.77 556.45,353.51 556.80,352.85 557.15,345.34 557.50,341.50 557.85,340.89 558.20,343.03 558.55,344.10 558.90,344.12 559.25,341.88 559.60,340.11 559.95,342.27 560.30,340.28 560.65,339.17 561.00,338.33 561.35,338.05 561.70,338.62 562.05,338.59 562.40,336.55 562.75,338.73 563.10,338.11 563.45,338.75 563.80,340.48 564.15,342.90 564.50,341.25 564.85,338.46 565.20,338.94 565.55,338.24 565.90,339.66 566.25,341.95 566.60,344.81 566.95,346.68 567.30,349.24 567.65,346.33 568.00,348.04 568.35,345.19 568.70,345.70 569.05,343.56 569.40,343.71 569.75,345.31 570.10,341.68 570.45,344.18 570.80,348.23 571.15,346.10 571.50,346.93 571.85,348.49 572.20,351.82 572.55,351.14 572.90,350.22 573.25,351.53 573.60,352.43 573.95,354.09 574.30,355.14 574.65,356.34 575.00,357.51 575.35,356.69 575.70,358.18 576.05,358.89 576.40,360.55 576.75,360.38 577.10,359.34 577.45,359.49 577.80,358.21 578.15,359.29 578.50,357.80 578.85,357.50 579.20,354.17 579.55,353.31 579.90,352.57 580.25,352.31 580.60,350.39 580.95,354.36 581.30,357.09 581.65,356.88 582.00,354.94 582.35,359.46 582.70,359.44 583.05,362.17 583.40,360.61 583.75,360.37 584.10,364.66 584.45,364.57 584.80,365.84 585.15,368.44 585.50,362.73 585.85,360.71 586.20,362.68 586.55,359.72 586.90,361.92 587.25,362.52 587.60,363.65 587.95,364.11 588.30,360.86 588.65,362.31 589.00,359.88 589.35,358.62 589.70,355.06 590.05,352.22 590.40,355.13 590.75,354.36 591.10,355.63 591.45,356.58 591.80,352.38 592.15,349.35 592.50,345.16 592.85,345.12 593.20,343.76 593.55,339.79 593.90,341.61 594.25,345.23 594.60,349.75 594.95,352.44 595.30,346.56 595.65,342.90 596.00,344.43 596.35,345.97 596.70,342.22 597.05,340.07 597.40,340.48 597.75,341.03 598.10,343.13 598.45,343.28 598.80,344.66 599.15,345.74 599.50,345.84 599.85,340.45 600.20,335.96 600.55,332.07 600.90,330.85 601.25,328.87 601.60,328.36 601.95,328.51 602.30,329.04 602.65,334.39 603.00,331.89 603.35,337.12 603.70,334.05 604.05,328.57 604.40,326.33 604.75,323.21 605.10,320.67 605.45,321.84 605.80,323.28 606.15,325.01 606.50,324.08 606.85,321.03 607.20,318.50 607.55,319.65 607.90,318.86 608.25,321.01 608.60,316.88 608.95,317.09 609.30,317.08 609.65,320.44 610.00,319.75 610.35,318.17 610.70,311.56 611.05,314.20 611.40,313.73 611.75,315.87 612.10,313.46 612.45,315.02 612.80,309.63 613.15,308.13 613.50,300.50 613.85,303.13 614.20,306.39 614.55,294.24 614.90,302.25 615.25,301.79 615.60,307.38 615.95,307.56 616.30,315.09 616.65,316.08 617.00,314.04 617.35,316.14 617.70,306.59 618.05,311.89 618.40,317.57 618.75,318.94 619.10,321.81 619.45,321.12 619.80,320.63 620.15,326.23 620.50,322.34 620.85,322.09 621.20,319.28 621.55,320.03 621.90,316.84 622.25,309.48 622.60,309.50 622.95,311.81 623.30,307.51 623.65,306.04 624.00,307.50 624.35,304.59 624.70,310.16 625.05,314.10 625.40,315.36 625.75,312.57 626.10,307.15 626.45,308.73 626.80,307.66 627.15,312.24 627.50,308.56 627.85,307.14 628.20,302.99 628.55,303.13 628.90,302.31 629.25,290.43 629.60,289.28 629.95,283.80 630.30,286.24 630.65,290.39 631.00,291.16 631.35,285.18 631.70,286.34 632.05,288.11 632.40,282.13 632.75,279.93 633.10,282.09 633.45,285.96 633.80,284.82 634.15,278.06 634.50,278.01 634.85,271.93 635.20,265.16 635.55,265.16 635.90,263.57 636.25,263.49 636.60,264.59 636.95,263.48 637.30,260.18 637.65,262.29 638.00,260.10 638.35,262.71 638.70,268.02 639.05,270.12 639.40,269.75 639.75,264.60 640.10,271.96 640.45,270.11 640.80,270.33 641.15,264.51 641.50,257.46 641.85,261.29 642.20,258.34 642.55,261.63 642.90,260.55 643.25,258.10 643.60,260.25 643.95,260.21 644.30,252.28 644.65,245.69 645.00,242.30 645.35,237.28 645.70,243.27 646.05,235.40 646.40,228.36 646.75,228.38 647.10,224.58 647.45,223.90 647.80,227.82 648.15,225.40 648.50,214.13 648.85,222.96 649.20,223.07 649.55,223.87 649.90,217.24 650.25,215.79 650.60,214.47 650.95,206.83 651.30,204.99 651.65,205.85 652.00,208.09 652.35,207.78 652.70,201.66 653.05,204.87 653.40,206.10 653.75,203.88 654.10,200.66 654.45,209.43 654.80,202.51 655.15,195.30 655.50,193.78 655.85,192.51 656.20,197.80 656.55,201.18 656.90,203.29 657.25,198.14 657.60,193.94 657.95,193.86 658.30,188.08 658.65,195.89 659.00,192.02 659.35,189.03 659.70,195.67 660.05,193.27 660.40,202.69 660.75,199.75 661.10,199.26 661.45,207.04 661.80,200.76 662.15,201.61 662.50,193.47 662.85,185.13 663.20,178.34 663.55,171.47 663.90,175.05 664.25,169.29 664.60,175.28 664.95,168.15 665.30,168.44 665.65,170.30 666.00,168.29 666.35,163.11 666.70,159.92 667.05,163.55 667.40,158.78 667.75,165.16 668.10,167.56 668.45,160.85 668.80,160.15 669.15,160.50 669.50,164.01 669.85,166.28 670.20,162.37 670.55,161.86 670.90,162.74 671.25,159.69 671.60,163.20 671.95,155.93 672.30,153.58 672.65,161.65 673.00,163.51 673.35,161.48 673.70,160.75 674.05,162.45 674.40,167.86 674.75,165.43 675.10,171.26 675.45,172.99 675.80,171.84 676.15,164.19 676.50,161.76 676.85,167.39 677.20,168.70 677.55,164.47 677.90,163.76 678.25,169.86 678.60,167.62 678.95,162.98 679.30,159.06 679.65,159.46 680.00,152.04 680.35,147.13 680.70,145.41 681.05,145.01 681.40,146.63 681.75,153.40 682.10,140.26 682.45,141.23 682.80,138.23 683.15,132.37 683.50,122.42 683.85,114.72 684.20,122.17 684.55,123.07 684.90,122.77 685.25,129.09 685.60,128.16 685.95,126.06 686.30,123.82 686.65,131.47 687.00,133.66 687.35,129.29 687.70,130.28 688.05,124.06 688.40,123.88 688.75,129.87 689.10,126.29 689.45,120.14 689.80,125.37 690.15,128.47 690.50,131.32 690.85,132.12 691.20,136.29 691.55,144.50 691.90,147.59 692.25,160.12 692.60,161.10 692.95,165.75 693.30,158.89 693.65,158.49 694.00,160.39 694.35,152.72 694.70,149.17 695.05,141.84 695.40,146.58 695.75,150.72 696.10,145.32 696.45,143.34 696.80,145.84 697.15,147.52 697.50,147.29 697.85,140.69 698.20,140.40 698.55,142.43 698.90,139.87 699.25,139.48 699.60,148.06 699.95,152.65 700.30,155.68 700.65,139.77 701.00,143.81 701.35,140.36 701.70,141.23 702.05,136.62 702.40,138.34 702.75,124.38 703.10,118.69 703.45,120.32 703.80,123.75 704.15,118.95 704.50,119.58 704.85,116.28 705.20,120.47 705.55,121.79 705.90,126.18 706.25,127.02 706.60,128.25 706.95,137.86 707.30,138.30 707.65,140.20 708.00,138.82 708.35,133.31 708.70,135.33 709.05,134.37 709.40,134.49 709.75,137.53 710.10,137.35 710.45,130.94 710.80,134.44 711.15,127.96 711.50,128.71 711.85,130.62 712.20,129.37 712.55,127.96 712.90,135.13 713.25,135.49 713.60,139.62 713.95,132.38 714.30,126.84 714.65,136.98 715.00,128.99 715.35,123.90 715.70,122.70 716.05,128.10 716.40,131.15 716.75,125.60 717.10,124.82 717.45,132.08 717.80,132.06 718.15,130.27 718.50,113.02 718.85,119.81 719.20,120.32 719.55,121.10 719.90,118.08 720.25,121.25 720.60,124.98 720.95,126.61 721.30,126.07 721.65,125.08 722.00,133.12 722.35,129.90 722.70,130.21 723.05,127.40 723.40,128.62 723.75,120.69 724.10,115.58 724.45,122.30 724.80,119.23 725.15,119.08 725.50,119.26 725.85,115.94 726.20,124.43 726.55,120.59 726.90,112.93 727.25,113.66 727.60,113.89 727.95,106.20 728.30,109.32 728.65,107.41 729.00,113.96 729.35,115.48 729.70,110.40 730.05,105.21 730.40,106.90 730.75,103.31 731.10,106.28 731.45,100.04 731.80,98.63 732.15,95.28 732.50,96.92 732.85,102.51 733.20,108.74 733.55,114.88 733.90,96.59 734.25,89.88 734.60,83.37 734.95,91.70 735.30,92.51 735.65,96.47 736.00,90.25 736.35,99.24 736.70,94.67 737.05,86.41 737.40,90.18 737.75,99.53 738.10,93.09 738.45,89.02 738.80,88.29 739.15,91.82 739.50,88.84 739.85,91.02 740.20,97.93 740.55,96.20 740.90,97.84 741.25,101.42 741.60,98.23 741.95,103.63 742.30,100.48 742.65,115.23 743.00,120.73 743.35,121.56 743.70,128.87 744.05,145.88 744.40,151.95 744.75,138.03 745.10,135.26 745.45,130.99 745.80,123.86 746.15,119.38 746.50,102.41 746.85,100.46 747.20,103.27 747.55,111.28 747.90,111.06 748.25,110.14 748.60,99.78 748.95,89.07 749.30,89.10 749.65,89.09 750.00,79.46 750.35,78.18 750.70,80.88 751.05,91.92 751.40,89.53 751.75,87.31 752.10,75.78 752.45,79.26 752.80,80.43 753.15,88.69 753.50,92.22 753.85,99.46 754.20,93.45 754.55,100.59 754.90,108.36 755.25,113.90 755.60,119.94 755.95,123.29 756.30,121.25 756.65,121.55 757.00,113.79 757.35,115.71 757.70,119.64 758.05,117.04 758.40,108.05 758.75,99.24 759.10,85.71 759.45,90.52 759.80,97.29 760.15,99.56 760.50,104.65 760.85,106.03 761.20,95.90 761.55,94.63 761.90,87.70 762.25,85.42 762.60,83.09 762.95,93.19 763.30,94.80 763.65,99.69 764.00,108.68 764.35,107.00 764.70,100.09 765.05,98.04 765.40,98.01 765.75,93.89 766.10,85.01 766.45,84.23 766.80,85.08 767.15,79.75 767.50,82.20 767.85,81.96 768.20,86.04 768.55,90.49 768.90,92.89 769.25,94.31 769.60,98.71 769.95,99.08 770.30,103.71 770.65,105.15 771.00,108.77 771.35,98.62 771.70,108.15 772.05,107.38 772.40,99.60 772.75,109.30 773.10,116.39 773.45,106.65 773.80,109.99 774.15,108.04 774.50,109.81 774.85,110.66 775.20,101.27 775.55,103.83 775.90,97.11 776.25,91.99 776.60,85.90 776.95,81.61 777.30,83.69 777.65,71.52 778.00,75.90 778.35,75.32 778.70,88.40 779.05,96.30 779.40,98.47 779.75,92.95 780.10,105.74 780.45,94.27 780.80,88.39 781.15,89.89 781.50,99.72 781.85,96.51 782.20,87.67 782.55,92.86 782.90,93.94 783.25,95.78 783.60,99.16 783.95,91.11 784.30,100.42 784.65,98.68 785.00,104.29"/>
<line x1="813" y1="102" x2="839" y2="102" stroke="#059669" stroke-width="3"/>
<text x="847" y="106" font-family="Arial" font-size="13" fill="#111827">trending</text>
<text x="435.0" y="518" text-anchor="middle" font-family="Arial" font-size="14" fill="#111827">Event index</text>
<text x="22" y="256.0" text-anchor="middle" transform="rotate(-90 22 256.0)" font-family="Arial" font-size="14" fill="#111827">Net PnL after fees</text>
</svg>
