<svg xmlns="http://www.w3.org/2000/svg" width="940" height="540" viewBox="0 0 940 540">
<rect width="100%" height="100%" fill="#ffffff"/>
<text x="470.0" y="26" text-anchor="middle" font-family="Arial" font-size="18" fill="#111827">Avellaneda Stoikov Inventory By Regime</text>
<line x1="85" y1="470" x2="785" y2="470" stroke="#111827" stroke-width="1"/>
<line x1="85" y1="42" x2="85" y2="470" stroke="#111827" stroke-width="1"/>
<line x1="85.00" y1="42" x2="85.00" y2="470" stroke="#e5e7eb" stroke-width="1"/>
<text x="85.00" y="494" text-anchor="middle" font-family="Arial" font-size="12" fill="#374151">0</text>
<line x1="260.00" y1="42" x2="260.00" y2="470" stroke="#e5e7eb" stroke-width="1"/>
<text x="260.00" y="494" text-anchor="middle" font-family="Arial" font-size="12" fill="#374151">50000</text>
<line x1="435.00" y1="42" x2="435.00" y2="470" stroke="#e5e7eb" stroke-width="1"/>
<text x="435.00" y="494" text-anchor="middle" font-family="Arial" font-size="12" fill="#374151">100000</text>
<line x1="610.00" y1="42" x2="610.00" y2="470" stroke="#e5e7eb" stroke-width="1"/>
<text x="610.00" y="494" text-anchor="middle" font-family="Arial" font-size="12" fill="#374151">149999</text>
<line x1="785.00" y1="42" x2="785.00" y2="470" stroke="#e5e7eb" stroke-width="1"/>
<text x="785.00" y="494" text-anchor="middle" font-family="Arial" font-size="12" fill="#374151">199999</text>
<line x1="85" y1="470.00" x2="785" y2="470.00" stroke="#e5e7eb" stroke-width="1"/>
<text x="73" y="474.00" text-anchor="end" font-family="Arial" font-size="12" fill="#374151">-221</text>
<line x1="85" y1="363.00" x2="785" y2="363.00" stroke="#e5e7eb" stroke-width="1"/>
<text x="73" y="367.00" text-anchor="end" font-family="Arial" font-size="12" fill="#374151">1</text>
<line x1="85" y1="256.00" x2="785" y2="256.00" stroke="#e5e7eb" stroke-width="1"/>
<text x="73" y="260.00" text-anchor="end" font-family="Arial" font-size="12" fill="#374151">223</text>
<line x1="85" y1="149.00" x2="785" y2="149.00" stroke="#e5e7eb" stroke-width="1"/>
<text x="73" y="153.00" text-anchor="end" font-family="Arial" font-size="12" fill="#374151">444</text>
<line x1="85" y1="42.00" x2="785" y2="42.00" stroke="#e5e7eb" stroke-width="1"/>
<text x="73" y="46.00" text-anchor="end" font-family="Arial" font-size="12" fill="#374151">666</text>
<polyline fill="none" stroke="#2563eb" stroke-width="2" points="85.00,363.31 85.35,368.14 85.70,372.96 86.05,377.78 86.40,377.78 86.75,382.61 87.10,382.61 87.45,377.78 87.80,377.78 88.15,377.78 88.50,377.78 88.85,372.96 89.20,372.96 89.55,377.78 89.90,377.78 90.25,372.96 90.60,372.96 90.95,368.14 91.30,368.14 91.65,363.31 92.00,363.31 92.35,363.31 92.70,363.31 93.05,363.31 93.40,363.31 93.75,363.31 94.10,363.31 94.45,363.31 94.80,368.14 95.15,368.14 95.50,368.14 95.85,372.96 96.20,372.96 96.55,363.31 96.90,363.31 97.25,363.31 97.60,363.31 97.95,358.49 98.30,353.67 98.65,353.67 99.00,353.67 99.35,353.67 99.70,348.84 100.05,348.84 100.40,348.84 100.75,348.84 101.10,348.84 101.45,348.84 101.80,348.84 102.15,348.84 102.50,353.67 102.85,348.84 103.20,348.84 103.55,348.84 103.90,353.67 104.25,353.67 104.60,353.67 104.95,353.67 105.30,353.67 105.65,353.67 106.00,353.67 106.35,353.67 106.70,353.67 107.05,353.67 107.40,353.67 107.75,348.84 108.10,348.84 108.45,348.84 108.80,353.67 109.15,353.67 109.50,353.67 109.85,353.67 110.20,348.84 110.55,348.84 110.90,344.02 111.25,344.02 111.60,353.67 111.95,353.67 112.30,353.67 112.65,348.84 113.00,344.02 113.35,344.02 113.70,344.02 114.05,344.02 114.40,344.02 114.75,344.02 115.10,344.02 115.45,344.02 115.80,339.20 116.15,339.20 116.50,339.20 116.85,339.20 117.20,344.02 117.55,344.02 117.90,344.02 118.25,339.20 118.60,344.02 118.95,339.20 119.30,344.02 119.65,344.02 120.00,344.02 120.35,344.02 120.70,348.84 121.05,344.02 121.40,344.02 121.75,344.02 122.10,339.20 122.45,339.20 122.80,334.38 123.15,334.38 123.50,334.38 123.85,329.55 124.20,329.55 124.55,329.55 124.90,329.55 125.25,329.55 125.60,329.55 125.95,329.55 126.30,334.38 126.65,334.38 127.00,339.20 127.35,334.38 127.70,334.38 128.05,334.38 128.40,334.38 128.75,339.20 129.10,334.38 129.45,334.38 129.80,334.38 130.15,334.38 130.50,339.20 130.85,334.38 131.20,334.38 131.55,334.38 131.90,329.55 132.25,339.20 132.60,344.02 132.95,344.02 133.30,344.02 133.65,339.20 134.00,339.20 134.35,344.02 134.70,344.02 135.05,353.67 135.40,353.67 135.75,358.49 136.10,358.49 136.45,358.49 136.80,358.49 137.15,363.31 137.50,363.31 137.85,363.31 138.20,363.31 138.55,358.49 138.90,363.31 139.25,368.14 139.60,368.14 139.95,368.14 140.30,368.14 140.65,368.14 141.00,368.14 141.35,372.96 141.70,377.78 142.05,382.61 142.40,382.61 142.75,382.61 143.10,382.61 143.45,387.43 143.80,382.61 144.15,377.78 144.50,372.96 144.85,368.14 145.20,363.31 145.55,363.31 145.90,363.31 146.25,363.31 146.60,363.31 146.95,363.31 147.30,363.31 147.65,363.31 148.00,363.31 148.35,368.14 148.70,372.96 149.05,372.96 149.40,372.96 149.75,372.96 150.10,363.31 150.45,363.31 150.80,363.31 151.15,358.49 151.50,358.49 151.85,358.49 152.20,358.49 152.55,358.49 152.90,358.49 153.25,358.49 153.60,358.49 153.95,358.49 154.30,358.49 154.65,358.49 155.00,358.49 155.35,358.49 155.70,358.49 156.05,363.31 156.40,363.31 156.75,363.31 157.10,363.31 157.45,368.14 157.80,372.96 158.15,372.96 158.50,368.14 158.85,368.14 159.20,368.14 159.55,368.14 159.90,368.14 160.25,363.31 160.60,363.31 160.95,368.14 161.30,368.14 161.65,368.14 162.00,368.14 162.35,368.14 162.70,368.14 163.05,368.14 163.40,368.14 163.75,363.31 164.10,363.31 164.45,363.31 164.80,363.31 165.15,363.31 165.50,358.49 165.85,358.49 166.20,358.49 166.55,363.31 166.90,358.49 167.25,363.31 167.60,363.31 167.95,363.31 168.30,363.31 168.65,368.14 169.00,368.14 169.35,368.14 169.70,363.31 170.05,358.49 170.40,358.49 170.75,358.49 171.10,353.67 171.45,348.84 171.80,348.84 172.15,348.84 172.50,344.02 172.85,339.20 173.20,339.20 173.55,339.20 173.90,339.20 174.25,339.20 174.60,344.02 174.95,348.84 175.30,348.84 175.65,348.84 176.00,348.84 176.35,348.84 176.70,348.84 177.05,353.67 177.40,353.67 177.75,358.49 178.10,358.49 178.45,358.49 178.80,358.49 179.15,353.67 179.50,353.67 179.85,348.84 180.20,344.02 180.55,348.84 180.90,348.84 181.25,348.84 181.60,348.84 181.95,348.84 182.30,348.84 182.65,348.84 183.00,348.84 183.35,353.67 183.70,358.49 184.05,358.49 184.40,363.31 184.75,363.31 185.10,363.31 185.45,363.31 185.80,363.31 186.15,363.31 186.50,363.31 186.85,363.31 187.20,358.49 187.55,358.49 187.90,353.67 188.25,353.67 188.60,353.67 188.95,358.49 189.30,353.67 189.65,353.67 190.00,353.67 190.35,353.67 190.70,353.67 191.05,353.67 191.40,353.67 191.75,348.84 192.10,348.84 192.45,348.84 192.80,348.84 193.15,348.84 193.50,348.84 193.85,348.84 194.20,348.84 194.55,348.84 194.90,348.84 195.25,348.84 195.60,344.02 195.95,344.02 196.30,344.02 196.65,344.02 197.00,344.02 197.35,339.20 197.70,339.20 198.05,339.20 198.40,339.20 198.75,339.20 199.10,339.20 199.45,334.38 199.80,334.38 200.15,329.55 200.50,324.73 200.85,324.73 201.20,324.73 201.55,324.73 201.90,324.73 202.25,324.73 202.60,324.73 202.95,329.55 203.30,329.55 203.65,324.73 204.00,322.80 204.35,327.62 204.70,332.45 205.05,337.27 205.40,337.27 205.75,337.27 206.10,337.27 206.45,342.09 206.80,342.09 207.15,337.27 207.50,337.27 207.85,337.27 208.20,342.09 208.55,342.09 208.90,342.09 209.25,346.92 209.60,346.92 209.95,346.92 210.30,346.92 210.65,342.09 211.00,342.09 211.35,342.09 211.70,346.92 212.05,346.92 212.40,346.92 212.75,346.92 213.10,346.92 213.45,346.92 213.80,351.74 214.15,351.74 214.50,351.74 214.85,351.74 215.20,361.38 215.55,366.21 215.90,371.03 216.25,371.03 216.60,371.03 216.95,371.03 217.30,371.03 217.65,366.21 218.00,366.21 218.35,366.21 218.70,366.21 219.05,366.21 219.40,366.21 219.75,371.03 220.10,371.03 220.45,371.03 220.80,371.03 221.15,371.03 221.50,371.03 221.85,371.03 222.20,371.03 222.55,371.03 222.90,371.03 223.25,375.85 223.60,385.50 223.95,385.50 224.30,385.50 224.65,385.50 225.00,385.50 225.35,385.50 225.70,385.50 226.05,380.68 226.40,380.68 226.75,380.68 227.10,385.50 227.45,385.50 227.80,380.68 228.15,380.68 228.50,380.68 228.85,371.03 229.20,371.03 229.55,371.03 229.90,366.21 230.25,366.21 230.60,366.21 230.95,371.03 231.30,366.21 231.65,361.38 232.00,361.38 232.35,356.56 232.70,356.56 233.05,356.56 233.40,356.56 233.75,356.56 234.10,356.56 234.45,356.56 234.80,356.56 235.15,356.56 235.50,356.56 235.85,356.56 236.20,351.74 236.55,351.74 236.90,346.92 237.25,346.92 237.60,346.92 237.95,337.27 238.30,332.45 238.65,337.27 239.00,337.27 239.35,337.27 239.70,337.27 240.05,346.92 240.40,346.92 240.75,342.09 241.10,332.45 241.45,332.45 241.80,332.45 242.15,332.45 242.50,332.45 242.85,332.45 243.20,332.45 243.55,337.27 243.90,337.27 244.25,337.27 244.60,337.27 244.95,337.27 245.30,342.09 245.65,342.09 246.00,342.09 246.35,337.27 246.70,337.27 247.05,327.62 247.40,332.45 247.75,332.45 248.10,332.45 248.45,337.27 248.80,332.45 249.15,332.45 249.50,332.45 249.85,332.45 250.20,327.62 250.55,332.45 250.90,332.45 251.25,332.45 251.60,327.62 251.95,327.62 252.30,327.62 252.65,327.62 253.00,327.62 253.35,327.62 253.70,327.62 254.05,322.80 254.40,322.80 254.75,327.62 255.10,327.62 255.45,327.62 255.80,332.45 256.15,332.45 256.50,332.45 256.85,337.27 257.20,337.27 257.55,337.27 257.90,332.45 258.25,332.45 258.60,322.80 258.95,317.98 259.30,317.98 259.65,317.98 260.00,317.98 260.35,322.80 260.70,322.80 261.05,322.80 261.40,322.80 261.75,327.62 262.10,332.45 262.45,332.45 262.80,332.45 263.15,332.45 263.50,332.45 263.85,327.62 264.20,327.62 264.55,327.62 264.90,327.62 265.25,327.62 265.60,327.62 265.95,322.80 266.30,322.80 266.65,322.80 267.00,322.80 267.35,322.80 267.70,317.98 268.05,317.98 268.40,317.98 268.75,322.80 269.10,327.62 269.45,327.62 269.80,327.62 270.15,332.45 270.50,332.45 270.85,327.62 271.20,322.80 271.55,322.80 271.90,322.80 272.25,322.80 272.60,322.80 272.95,322.80 273.30,322.80 273.65,322.80 274.00,322.80 274.35,322.80 274.70,322.80 275.05,322.80 275.40,322.80 275.75,322.80 276.10,322.80 276.45,322.80 276.80,322.80 277.15,322.80 277.50,322.80 277.85,322.80 278.20,322.80 278.55,322.80 278.90,322.80 279.25,322.80 279.60,322.80 279.95,322.80 280.30,322.80 280.65,322.80 281.00,322.80 281.35,322.80 281.70,322.80 282.05,322.80 282.40,322.80 282.75,322.80 283.10,322.80 283.45,322.80 283.80,322.80 284.15,322.80 284.50,322.80 284.85,327.62 285.20,332.45 285.55,332.45 285.90,327.62 286.25,327.62 286.60,322.80 286.95,322.80 287.30,322.80 287.65,322.80 288.00,322.80 288.35,322.80 288.70,327.62 289.05,327.62 289.40,327.62 289.75,332.45 290.10,337.27 290.45,337.27 290.80,337.27 291.15,337.27 291.50,337.27 291.85,337.27 292.20,337.27 292.55,342.09 292.90,332.45 293.25,332.45 293.60,332.45 293.95,332.45 294.30,342.09 294.65,342.09 295.00,342.09 295.35,342.09 295.70,342.09 296.05,342.09 296.40,342.09 296.75,342.09 297.10,346.92 297.45,346.92 297.80,346.92 298.15,346.92 298.50,346.92 298.85,346.92 299.20,346.92 299.55,346.92 299.90,346.92 300.25,346.92 300.60,346.92 300.95,342.09 301.30,342.09 301.65,342.09 302.00,346.92 302.35,346.92 302.70,346.92 303.05,346.92 303.40,342.09 303.75,342.09 304.10,342.09 304.45,342.09 304.80,342.09 305.15,351.74 305.50,351.74 305.85,351.74 306.20,351.74 306.55,351.74 306.90,351.74 307.25,351.74 307.60,356.56 307.95,356.56 308.30,356.56 308.65,356.56 309.00,356.56 309.35,351.74 309.70,351.74 310.05,346.92 310.40,351.74 310.75,351.74 311.10,356.56 311.45,356.56 311.80,351.74 312.15,346.92 312.50,346.92 312.85,346.92 313.20,351.74 313.55,351.74 313.90,351.74 314.25,351.74 314.60,351.74 314.95,351.74 315.30,351.74 315.65,346.92 316.00,342.09 316.35,342.09 316.70,332.45 317.05,332.45 317.40,332.45 317.75,332.45 318.10,332.45 318.45,332.45 318.80,327.62 319.15,327.62 319.50,332.45 319.85,332.45 320.20,327.62 320.55,322.80 320.90,327.62 321.25,327.62 321.60,327.62 321.95,327.62 322.30,327.62 322.65,327.62 323.00,327.62 323.35,327.62 323.70,327.62 324.05,327.62 324.40,327.62 324.75,322.80 325.10,317.98 325.45,322.80 325.80,322.80 326.15,322.80 326.50,322.80 326.85,317.98 327.20,313.15 327.55,313.15 327.90,313.15 328.25,308.33 328.60,308.33 328.95,308.33 329.30,303.51 329.65,303.51 330.00,303.51 330.35,303.51 330.70,303.51 331.05,303.51 331.40,303.51 331.75,308.33 332.10,303.51 332.45,303.51 332.80,308.33 333.15,303.51 333.50,303.51 333.85,303.51 334.20,303.51 334.55,303.51 334.90,303.51 335.25,303.51 335.60,303.51 335.95,303.51 336.30,303.51 336.65,308.33 337.00,303.51 337.35,303.51 337.70,303.51 338.05,303.51 338.40,303.51 338.75,298.68 339.10,293.86 339.45,303.51 339.80,303.51 340.15,303.51 340.50,303.51 340.85,298.68 341.20,303.51 341.55,303.51 341.90,303.51 342.25,298.68 342.60,303.51 342.95,303.51 343.30,303.51 343.65,298.68 344.00,303.51 344.35,308.33 344.70,308.33 345.05,308.33 345.40,308.33 345.75,308.33 346.10,308.33 346.45,308.33 346.80,308.33 347.15,308.33 347.50,308.33 347.85,303.51 348.20,303.51 348.55,303.51 348.90,303.51 349.25,303.51 349.60,303.51 349.95,293.86 350.30,289.04 350.65,289.04 351.00,284.22 351.35,284.22 351.70,284.22 352.05,284.22 352.40,279.39 352.75,279.39 353.10,274.57 353.45,274.57 353.80,279.39 354.15,284.22 354.50,284.22 354.85,284.22 355.20,289.04 355.55,293.86 355.90,293.86 356.25,293.86 356.60,289.04 356.95,289.04 357.30,284.22 357.65,289.04 358.00,293.86 358.35,293.86 358.70,293.86 359.05,293.86 359.40,298.68 359.75,298.68 360.10,298.68 360.45,298.68 360.80,298.68 361.15,298.68 361.50,298.68 361.85,298.68 362.20,298.68 362.55,298.68 362.90,293.86 363.25,293.86 363.60,293.86 363.95,293.86 364.30,293.86 364.65,293.86 365.00,293.86 365.35,289.04 365.70,284.22 366.05,289.04 366.40,289.04 366.75,289.04 367.10,289.04 367.45,289.04 367.80,289.04 368.15,289.04 368.50,293.86 368.85,293.86 369.20,293.86 369.55,298.68 369.90,298.68 370.25,303.51 370.60,303.51 370.95,303.51 371.30,303.51 371.65,303.51 372.00,303.51 372.35,303.51 372.70,303.51 373.05,293.86 373.40,293.86 373.75,293.86 374.10,293.86 374.45,289.04 374.80,289.04 375.15,289.04 375.50,289.04 375.85,289.04 376.20,289.04 376.55,289.04 376.90,289.04 377.25,284.22 377.60,284.22 377.95,284.22 378.30,279.39 378.65,279.39 379.00,274.57 379.35,279.39 379.70,279.39 380.05,274.57 380.40,274.57 380.75,264.92 381.10,264.92 381.45,264.92 381.80,264.92 382.15,269.75 382.50,269.75 382.85,269.75 383.20,264.92 383.55,260.10 383.90,260.10 384.25,260.10 384.60,260.10 384.95,255.28 385.30,255.28 385.65,250.45 386.00,250.45 386.35,250.45 386.70,245.63 387.05,245.63 387.40,245.63 387.75,245.63 388.10,245.63 388.45,245.63 388.80,245.63 389.15,245.63 389.50,245.63 389.85,240.81 390.20,240.81 390.55,245.63 390.90,245.63 391.25,240.81 391.60,240.81 391.95,250.45 392.30,250.45 392.65,250.45 393.00,250.45 393.35,250.45 393.70,250.45 394.05,245.63 394.40,245.63 394.75,245.63 395.10,245.63 395.45,245.63 395.80,240.81 396.15,240.81 396.50,240.81 396.85,240.81 397.20,235.98 397.55,235.98 397.90,235.98 398.25,235.98 398.60,235.98 398.95,235.98 399.30,235.98 399.65,235.98 400.00,235.98 400.35,235.98 400.70,240.81 401.05,240.81 401.40,240.81 401.75,240.81 402.10,240.81 402.45,235.98 402.80,235.98 403.15,235.98 403.50,235.98 403.85,235.98 404.20,235.98 404.55,235.98 404.90,235.98 405.25,235.98 405.60,235.98 405.95,235.98 406.30,235.98 406.65,226.34 407.00,231.16 407.35,231.16 407.70,231.16 408.05,231.16 408.40,231.16 408.75,235.98 409.10,231.16 409.45,231.16 409.80,226.34 410.15,221.51 410.50,231.16 410.85,231.16 411.20,226.34 411.55,226.34 411.90,221.51 412.25,221.51 412.60,221.51 412.95,221.51 413.30,221.51 413.65,221.51 414.00,221.51 414.35,221.51 414.70,221.51 415.05,221.51 415.40,221.51 415.75,226.34 416.10,221.51 416.45,216.69 416.80,207.05 417.15,207.05 417.50,207.05 417.85,207.05 418.20,207.05 418.55,207.05 418.90,211.87 419.25,211.87 419.60,207.05 419.95,202.22 420.30,202.22 420.65,197.40 421.00,197.40 421.35,197.40 421.70,197.40 422.05,197.40 422.40,197.40 422.75,197.40 423.10,197.40 423.45,197.40 423.80,192.58 424.15,192.58 424.50,192.58 424.85,192.58 425.20,192.58 425.55,192.58 425.90,192.58 426.25,202.22 426.60,202.22 426.95,202.22 427.30,202.22 427.65,202.22 428.00,197.40 428.35,192.58 428.70,192.58 429.05,192.58 429.40,192.58 429.75,192.58 430.10,192.58 430.45,197.40 430.80,197.40 431.15,197.40 431.50,197.40 431.85,197.40 432.20,197.40 432.55,197.40 432.90,197.40 433.25,197.40 433.60,197.40 433.95,197.40 434.30,197.40 434.65,197.40 435.00,197.40 435.35,197.40 435.70,197.40 436.05,197.40 436.40,197.40 436.75,197.40 437.10,197.40 437.45,192.58 437.80,192.58 438.15,187.75 438.50,182.93 438.85,182.93 439.20,182.93 439.55,182.93 439.90,182.93 440.25,182.93 440.60,178.11 440.95,178.11 441.30,178.11 441.65,182.93 442.00,187.75 442.35,192.58 442.70,192.58 443.05,187.75 443.40,187.75 443.75,182.93 444.10,187.75 444.45,187.75 444.80,187.75 445.15,187.75 445.50,187.75 445.85,187.75 446.20,182.93 446.55,182.93 446.90,178.11 447.25,178.11 447.60,178.11 447.95,178.11 448.30,178.11 448.65,178.11 449.00,178.11 449.35,178.11 449.70,178.11 450.05,178.11 450.40,173.28 450.75,173.28 451.10,173.28 451.45,173.28 451.80,173.28 452.15,173.28 452.50,173.28 452.85,173.28 453.20,173.28 453.55,168.46 453.90,168.46 454.25,168.46 454.60,168.46 454.95,168.46 455.30,168.46 455.65,163.64 456.00,163.64 456.35,163.64 456.70,168.46 457.05,163.64 457.40,163.64 457.75,163.64 458.10,163.64 458.45,163.64 458.80,163.64 459.15,163.64 459.50,163.64 459.85,163.64 460.20,163.64 460.55,163.64 460.90,163.64 461.25,163.64 461.60,158.81 461.95,153.99 462.30,153.99 462.65,153.99 463.00,153.99 463.35,153.99 463.70,153.99 464.05,153.99 464.40,153.99 464.75,153.99 465.10,153.99 465.45,153.99 465.80,153.99 466.15,149.17 466.50,149.17 466.85,153.99 467.20,153.99 467.55,158.81 467.90,158.81 468.25,158.81 468.60,158.81 468.95,158.81 469.30,158.81 469.65,153.99 470.00,158.81 470.35,153.99 470.70,149.17 471.05,153.99 471.40,158.81 471.75,158.81 472.10,158.81 472.45,158.81 472.80,149.17 473.15,153.99 473.50,153.99 473.85,153.99 474.20,158.81 474.55,158.81 474.90,158.81 475.25,158.81 475.60,153.99 475.95,153.99 476.30,149.17 476.65,149.17 477.00,149.17 477.35,149.17 477.70,149.17 478.05,149.17 478.40,149.17 478.75,149.17 479.10,144.35 479.45,144.35 479.80,144.35 480.15,144.35 480.50,139.52 480.85,134.70 481.20,134.70 481.55,134.70 481.90,134.70 482.25,134.70 482.60,134.70 482.95,129.88 483.30,129.88 483.65,129.88 484.00,129.88 484.35,129.88 484.70,129.88 485.05,129.88 485.40,129.88 485.75,134.70 486.10,129.88 486.45,129.88 486.80,129.88 487.15,129.88 487.50,129.88 487.85,129.88 488.20,134.70 488.55,139.52 488.90,139.52 489.25,139.52 489.60,144.35 489.95,144.35 490.30,144.35 490.65,149.17 491.00,149.17 491.35,149.17 491.70,149.17 492.05,153.51 492.40,153.51 492.75,158.33 493.10,158.33 493.45,158.33 493.80,158.33 494.15,158.33 494.50,153.51 494.85,153.51 495.20,153.51 495.55,153.51 495.90,153.51 496.25,153.51 496.60,153.51 496.95,153.51 497.30,153.51 497.65,148.69 498.00,148.69 498.35,143.86 498.70,143.86 499.05,143.86 499.40,143.86 499.75,148.69 500.10,143.86 500.45,143.86 500.80,143.86 501.15,143.86 501.50,143.86 501.85,143.86 502.20,143.86 502.55,143.86 502.90,143.86 503.25,143.86 503.60,143.86 503.95,143.86 504.30,148.69 504.65,148.69 505.00,148.69 505.35,148.69 505.70,153.51 506.05,153.51 506.40,158.33 506.75,158.33 507.10,158.33 507.45,163.16 507.80,163.16 508.15,153.51 508.50,153.51 508.85,153.51 509.20,153.51 509.55,158.33 509.90,163.16 510.25,163.16 510.60,163.16 510.95,163.16 511.30,167.98 511.65,167.98 512.00,167.98 512.35,172.80 512.70,172.80 513.05,172.80 513.40,172.80 513.75,172.80 514.10,172.80 514.45,172.80 514.80,172.80 515.15,172.80 515.50,177.62 515.85,177.62 516.20,177.62 516.55,172.80 516.90,177.62 517.25,177.62 517.60,177.62 517.95,172.80 518.30,167.98 518.65,167.98 519.00,158.33 519.35,158.33 519.70,158.33 520.05,158.33 520.40,158.33 520.75,158.33 521.10,153.51 521.45,153.51 521.80,153.51 522.15,153.51 522.50,153.51 522.85,153.51 523.20,153.51 523.55,153.51 523.90,153.51 524.25,158.33 524.60,153.51 524.95,153.51 525.30,163.16 525.65,163.16 526.00,163.16 526.35,163.16 526.70,163.16 527.05,163.16 527.40,163.16 527.75,167.98 528.10,172.80 528.45,172.80 528.80,177.62 529.15,177.62 529.50,177.62 529.85,172.80 530.20,172.80 530.55,172.80 530.90,172.80 531.25,167.98 531.60,167.98 531.95,172.80 532.30,172.80 532.65,172.80 533.00,177.62 533.35,177.62 533.70,177.62 534.05,177.62 534.40,177.62 534.75,177.62 535.10,182.45 535.45,187.27 535.80,187.27 536.15,187.27 536.50,187.27 536.85,187.27 537.20,187.27 537.55,187.27 537.90,187.27 538.25,187.27 538.60,177.62 538.95,182.45 539.30,187.27 539.65,187.27 540.00,192.09 540.35,192.09 540.70,192.09 541.05,187.27 541.40,187.27 541.75,187.27 542.10,187.27 542.45,196.92 542.80,196.92 543.15,192.09 543.50,182.45 543.85,182.45 544.20,182.45 544.55,182.45 544.90,182.45 545.25,182.45 545.60,182.45 545.95,182.45 546.30,182.45 546.65,182.45 547.00,182.45 547.35,187.27 547.70,172.80 548.05,167.98 548.40,167.98 548.75,167.98 549.10,167.98 549.45,167.98 549.80,167.98 550.15,163.16 550.50,163.16 550.85,163.16 551.20,153.51 551.55,153.51 551.90,153.51 552.25,153.51 552.60,153.51 552.95,158.33 553.30,158.33 553.65,153.51 554.00,153.51 554.35,148.69 554.70,143.86 555.05,148.69 555.40,158.33 555.75,153.51 556.10,153.51 556.45,153.51 556.80,153.51 557.15,153.51 557.50,153.51 557.85,153.51 558.20,158.33 558.55,163.16 558.90,163.16 559.25,167.98 559.60,167.98 559.95,167.98 560.30,167.98 560.65,167.98 561.00,172.80 561.35,167.98 561.70,163.16 562.05,163.16 562.40,163.16 562.75,158.33 563.10,167.98 563.45,167.98 563.80,167.98 564.15,163.16 564.50,163.16 564.85,163.16 565.20,158.33 565.55,158.33 565.90,158.33 566.25,163.16 566.60,163.16 566.95,158.33 567.30,158.33 567.65,158.33 568.00,158.33 568.35,158.33 568.70,158.33 569.05,158.33 569.40,158.33 569.75,148.69 570.10,148.69 570.45,148.69 570.80,148.69 571.15,143.86 571.50,143.86 571.85,143.86 572.20,143.86 572.55,148.69 572.90,143.86 573.25,143.86 573.60,143.86 573.95,143.86 574.30,139.04 574.65,139.04 575.00,139.04 575.35,143.86 575.70,143.86 576.05,143.86 576.40,143.86 576.75,139.04 577.10,134.22 577.45,134.22 577.80,134.22 578.15,129.39 578.50,129.39 578.85,129.39 579.20,129.39 579.55,134.22 579.90,134.22 580.25,129.39 580.60,124.57 580.95,124.57 581.30,124.57 581.65,129.39 582.00,129.39 582.35,129.39 582.70,129.39 583.05,129.39 583.40,124.57 583.75,124.57 584.10,124.57 584.45,124.57 584.80,124.57 585.15,124.57 585.50,124.57 585.85,124.57 586.20,129.39 586.55,129.39 586.90,124.57 587.25,124.57 587.60,124.57 587.95,124.57 588.30,124.57 588.65,124.57 589.00,129.39 589.35,129.39 589.70,129.39 590.05,129.39 590.40,129.39 590.75,124.57 591.10,124.57 591.45,124.57 591.80,124.57 592.15,124.57 592.50,124.57 592.85,124.57 593.20,124.57 593.55,119.75 593.90,114.92 594.25,110.10 594.60,110.10 594.95,110.10 595.30,110.10 595.65,110.10 596.00,110.10 596.35,110.10 596.70,105.28 597.05,100.46 597.40,95.63 597.75,100.46 598.10,100.46 598.45,100.46 598.80,100.46 599.15,100.46 599.50,100.46 599.85,100.46 600.20,95.63 600.55,95.63 600.90,100.46 601.25,100.46 601.60,100.46 601.95,100.46 602.30,105.28 602.65,105.28 603.00,105.28 603.35,105.28 603.70,100.46 604.05,100.46 604.40,100.46 604.75,100.46 605.10,100.46 605.45,100.46 605.80,100.46 606.15,100.46 606.50,100.46 606.85,100.46 607.20,100.46 607.55,100.46 607.90,90.81 608.25,85.99 608.60,90.81 608.95,85.99 609.30,85.99 609.65,76.34 610.00,71.52 610.35,71.52 610.70,76.34 611.05,76.34 611.40,81.16 611.75,81.16 612.10,76.34 612.45,76.34 612.80,76.34 613.15,76.34 613.50,76.34 613.85,76.34 614.20,76.34 614.55,76.34 614.90,76.34 615.25,81.16 615.60,85.99 615.95,85.99 616.30,90.81 616.65,90.81 617.00,90.81 617.35,90.81 617.70,90.81 618.05,100.46 618.40,105.28 618.75,105.28 619.10,105.28 619.45,105.28 619.80,105.28 620.15,105.28 620.50,110.10 620.85,114.92 621.20,114.92 621.55,114.92 621.90,95.63 622.25,95.63 622.60,90.81 622.95,90.81 623.30,95.63 623.65,95.63 624.00,95.63 624.35,95.63 624.70,90.81 625.05,90.81 625.40,90.81 625.75,90.81 626.10,85.99 626.45,85.99 626.80,90.81 627.15,90.81 627.50,85.99 627.85,85.99 628.20,85.99 628.55,90.81 628.90,90.81 629.25,90.81 629.60,90.81 629.95,85.99 630.30,90.81 630.65,85.99 631.00,85.99 631.35,85.99 631.70,81.16 632.05,76.34 632.40,81.16 632.75,76.34 633.10,76.34 633.45,85.99 633.80,85.99 634.15,85.99 634.50,90.81 634.85,90.81 635.20,90.81 635.55,90.81 635.90,90.81 636.25,90.81 636.60,90.81 636.95,90.81 637.30,85.99 637.65,85.99 638.00,85.99 638.35,85.99 638.70,81.16 639.05,81.16 639.40,81.16 639.75,81.16 640.10,81.16 640.45,81.16 640.80,81.16 641.15,81.16 641.50,81.16 641.85,81.16 642.20,81.16 642.55,81.16 642.90,81.16 643.25,81.16 643.60,81.16 643.95,81.16 644.30,81.16 644.65,76.34 645.00,76.34 645.35,76.34 645.70,76.34 646.05,76.34 646.40,76.34 646.75,76.34 647.10,76.34 647.45,85.99 647.80,85.99 648.15,85.99 648.50,85.99 648.85,85.99 649.20,90.81 649.55,90.81 649.90,85.99 650.25,85.99 650.60,85.99 650.95,85.99 651.30,85.99 651.65,85.99 652.00,90.81 652.35,85.99 652.70,85.99 653.05,85.99 653.40,85.99 653.75,85.99 654.10,85.99 654.45,85.99 654.80,81.16 655.15,81.16 655.50,81.16 655.85,81.16 656.20,81.16 656.55,81.16 656.90,81.16 657.25,76.34 657.60,76.34 657.95,76.34 658.30,76.34 658.65,76.34 659.00,71.52 659.35,76.34 659.70,71.52 660.05,71.52 660.40,76.34 660.75,76.34 661.10,76.34 661.45,76.34 661.80,76.34 662.15,76.34 662.50,81.16 662.85,81.16 663.20,81.16 663.55,81.16 663.90,81.16 664.25,81.16 664.60,81.16 664.95,81.16 665.30,81.16 665.65,85.99 666.00,85.99 666.35,85.99 666.70,85.99 667.05,85.99 667.40,85.99 667.75,85.99 668.10,85.99 668.45,85.99 668.80,90.81 669.15,90.81 669.50,90.81 669.85,90.81 670.20,90.81 670.55,90.81 670.90,90.81 671.25,90.81 671.60,90.81 671.95,90.81 672.30,90.81 672.65,90.81 673.00,95.63 673.35,100.46 673.70,100.46 674.05,100.46 674.40,100.46 674.75,100.46 675.10,100.46 675.45,105.28 675.80,105.28 676.15,105.28 676.50,105.28 676.85,110.10 677.20,110.10 677.55,110.10 677.90,114.92 678.25,119.75 678.60,119.75 678.95,124.57 679.30,124.57 679.65,124.57 680.00,124.57 680.35,124.57 680.70,124.57 681.05,124.57 681.40,124.57 681.75,124.57 682.10,119.75 682.45,119.75 682.80,119.75 683.15,119.75 683.50,119.75 683.85,114.92 684.20,114.92 684.55,114.92 684.90,110.10 685.25,110.10 685.60,110.10 685.95,110.10 686.30,105.28 686.65,105.28 687.00,105.28 687.35,105.28 687.70,100.46 688.05,100.46 688.40,100.46 688.75,100.46 689.10,100.46 689.45,100.46 689.80,100.46 690.15,100.46 690.50,100.46 690.85,100.46 691.20,100.46 691.55,95.63 691.90,95.63 692.25,95.63 692.60,95.63 692.95,95.63 693.30,90.81 693.65,90.81 694.00,90.81 694.35,90.81 694.70,90.81 695.05,90.81 695.40,90.81 695.75,100.46 696.10,95.63 696.45,95.63 696.80,100.46 697.15,100.46 697.50,105.28 697.85,105.28 698.20,105.28 698.55,105.28 698.90,105.28 699.25,105.28 699.60,105.28 699.95,100.46 700.30,95.63 700.65,100.46 701.00,100.46 701.35,100.46 701.70,100.46 702.05,105.28 702.40,105.28 702.75,105.28 703.10,105.28 703.45,110.10 703.80,110.10 704.15,105.28 704.50,100.46 704.85,100.46 705.20,95.63 705.55,90.81 705.90,85.99 706.25,81.16 706.60,81.16 706.95,81.16 707.30,81.16 707.65,81.16 708.00,81.16 708.35,81.16 708.70,81.16 709.05,81.16 709.40,81.16 709.75,81.16 710.10,81.16 710.45,81.16 710.80,81.16 711.15,81.16 711.50,81.16 711.85,81.16 712.20,81.16 712.55,81.16 712.90,81.16 713.25,81.16 713.60,81.16 713.95,76.34 714.30,76.34 714.65,76.34 715.00,76.34 715.35,76.34 715.70,76.34 716.05,76.34 716.40,76.34 716.75,76.34 717.10,76.34 717.45,76.34 717.80,76.34 718.15,76.34 718.50,76.34 718.85,76.34 719.20,76.34 719.55,76.34 719.90,76.34 720.25,76.34 720.60,81.16 720.95,81.16 721.30,81.16 721.65,81.16 722.00,81.16 722.35,81.16 722.70,81.16 723.05,81.16 723.40,85.99 723.75,85.99 724.10,85.99 724.45,95.63 724.80,95.63 725.15,95.63 725.50,100.46 725.85,100.46 726.20,105.28 726.55,105.28 726.90,105.28 727.25,105.28 727.60,105.28 727.95,105.28 728.30,105.28 728.65,105.28 729.00,105.28 729.35,105.28 729.70,105.28 730.05,105.28 730.40,110.10 730.75,110.10 731.10,105.28 731.45,110.10 731.80,110.10 732.15,105.28 732.50,105.28 732.85,105.28 733.20,95.63 733.55,95.63 733.90,95.63 734.25,95.63 734.60,100.46 734.95,100.46 735.30,100.46 735.65,100.46 736.00,105.28 736.35,105.28 736.70,105.28 737.05,100.46 737.40,100.46 737.75,100.46 738.10,95.63 738.45,95.63 738.80,95.63 739.15,95.63 739.50,95.63 739.85,95.63 740.20,95.63 740.55,95.63 740.90,95.63 741.25,95.63 741.60,95.63 741.95,95.63 742.30,100.46 742.65,100.46 743.00,100.46 743.35,100.46 743.70,100.46 744.05,100.46 744.40,100.46 744.75,105.28 745.10,105.28 745.45,105.28 745.80,105.28 746.15,105.28 746.50,105.28 746.85,105.28 747.20,110.10 747.55,114.92 747.90,114.92 748.25,114.92 748.60,114.92 748.95,114.92 749.30,114.92 749.65,114.92 750.00,114.92 750.35,114.92 750.70,119.75 751.05,119.75 751.40,124.57 751.75,124.57 752.10,124.57 752.45,124.57 752.80,124.57 753.15,124.57 753.50,124.57 753.85,119.75 754.20,124.57 754.55,124.57 754.90,124.57 755.25,124.57 755.60,124.57 755.95,124.57 756.30,124.57 756.65,124.57 757.00,124.57 757.35,124.57 757.70,119.75 758.05,119.75 758.40,119.75 758.75,119.75 759.10,119.75 759.45,123.61 759.80,123.61 760.15,123.61 760.50,123.61 760.85,123.61 761.20,123.61 761.55,123.61 761.90,128.43 762.25,128.43 762.60,128.43 762.95,128.43 763.30,128.43 763.65,128.43 764.00,128.43 764.35,128.43 764.70,128.43 765.05,123.61 765.40,118.78 765.75,118.78 766.10,118.78 766.45,118.78 766.80,118.78 767.15,118.78 767.50,118.78 767.85,118.78 768.20,118.78 768.55,113.96 768.90,113.96 769.25,113.96 769.60,113.96 769.95,113.96 770.30,113.96 770.65,113.96 771.00,113.96 771.35,109.14 771.70,109.14 772.05,113.96 772.40,113.96 772.75,113.96 773.10,113.96 773.45,113.96 773.80,113.96 774.15,104.31 774.50,104.31 774.85,104.31 775.20,104.31 775.55,99.49 775.90,99.49 776.25,99.49 776.60,104.31 776.95,104.31 777.30,104.31 777.65,104.31 778.00,109.14 778.35,109.14 778.70,109.14 779.05,113.96 779.40,113.96 779.75,113.96 780.10,113.96 780.45,113.96 780.80,113.96 781.15,118.78 781.50,118.78 781.85,118.78 782.20,118.78 782.55,118.78 782.90,118.78 783.25,118.78 783.60,123.61 783.95,123.61 784.30,123.61 784.65,123.61 785.00,123.61"/>
<line x1="813" y1="54" x2="839" y2="54" stroke="#2563eb" stroke-width="3"/>
<text x="847" y="58" font-family="Arial" font-size="13" fill="#111827">low volatility</text>
<polyline fill="none" stroke="#dc2626" stroke-width="2" points="85.00,363.31 85.35,363.31 85.70,363.31 86.05,363.31 86.40,363.31 86.75,363.31 87.10,368.14 87.45,368.14 87.80,368.14 88.15,368.14 88.50,363.31 88.85,363.31 89.20,368.14 89.55,368.14 89.90,368.14 90.25,368.14 90.60,377.78 90.95,377.78 91.30,377.78 91.65,372.96 92.00,372.96 92.35,368.14 92.70,368.14 93.05,368.14 93.40,368.14 93.75,368.14 94.10,372.96 94.45,372.96 94.80,372.96 95.15,372.96 95.50,372.96 95.85,368.14 96.20,368.14 96.55,368.14 96.90,368.14 97.25,368.14 97.60,368.14 97.95,368.14 98.30,372.96 98.65,368.14 99.00,368.14 99.35,368.14 99.70,368.14 100.05,368.14 100.40,368.14 100.75,368.14 101.10,372.96 101.45,372.96 101.80,372.96 102.15,372.96 102.50,382.61 102.85,382.61 103.20,382.61 103.55,382.61 103.90,387.43 104.25,387.43 104.60,387.43 104.95,387.43 105.30,387.43 105.65,387.43 106.00,387.43 106.35,387.43 106.70,382.61 107.05,387.43 107.40,392.25 107.75,392.25 108.10,392.25 108.45,392.25 108.80,392.25 109.15,392.25 109.50,392.25 109.85,392.25 110.20,392.25 110.55,397.08 110.90,397.08 111.25,397.08 111.60,397.08 111.95,401.90 112.30,406.72 112.65,406.72 113.00,406.72 113.35,406.72 113.70,406.72 114.05,406.72 114.40,406.72 114.75,406.72 115.10,401.90 115.45,401.90 115.80,401.90 116.15,401.90 116.50,406.72 116.85,406.72 117.20,411.54 117.55,411.54 117.90,421.19 118.25,426.01 118.60,430.84 118.95,435.66 119.30,435.66 119.65,435.66 120.00,430.84 120.35,426.01 120.70,421.19 121.05,421.19 121.40,421.19 121.75,416.37 122.10,416.37 122.45,416.37 122.80,416.37 123.15,416.37 123.50,416.37 123.85,416.37 124.20,416.37 124.55,411.54 124.90,411.54 125.25,411.54 125.60,416.37 125.95,416.37 126.30,416.37 126.65,416.37 127.00,411.54 127.35,411.54 127.70,411.54 128.05,411.54 128.40,406.72 128.75,406.72 129.10,406.72 129.45,411.54 129.80,411.54 130.15,411.54 130.50,411.54 130.85,411.54 131.20,411.54 131.55,416.37 131.90,416.37 132.25,416.37 132.60,416.37 132.95,416.37 133.30,421.19 133.65,421.19 134.00,426.01 134.35,426.01 134.70,426.01 135.05,426.01 135.40,435.66 135.75,440.48 136.10,440.48 136.45,435.66 136.80,435.66 137.15,435.66 137.50,430.84 137.85,426.01 138.20,421.19 138.55,421.19 138.90,426.01 139.25,426.01 139.60,426.01 139.95,421.19 140.30,421.19 140.65,421.19 141.00,421.19 141.35,421.19 141.70,421.19 142.05,421.19 142.40,426.01 142.75,426.01 143.10,430.84 143.45,430.84 143.80,426.01 144.15,426.01 144.50,426.01 144.85,421.19 145.20,421.19 145.55,421.19 145.90,426.01 146.25,426.01 146.60,426.01 146.95,426.01 147.30,426.01 147.65,426.01 148.00,426.01 148.35,430.84 148.70,430.84 149.05,430.84 149.40,426.01 149.75,426.01 150.10,435.66 150.45,435.66 150.80,435.66 151.15,440.48 151.50,430.84 151.85,430.84 152.20,426.01 152.55,421.19 152.90,421.19 153.25,426.01 153.60,426.01 153.95,426.01 154.30,426.01 154.65,426.01 155.00,426.01 155.35,426.01 155.70,426.01 156.05,426.01 156.40,426.01 156.75,426.01 157.10,416.37 157.45,411.54 157.80,411.54 158.15,411.54 158.50,411.54 158.85,401.90 159.20,401.90 159.55,411.54 159.90,411.54 160.25,416.37 160.60,411.54 160.95,411.54 161.30,411.54 161.65,411.54 162.00,411.54 162.35,401.90 162.70,401.90 163.05,401.90 163.40,401.90 163.75,401.90 164.10,401.90 164.45,401.90 164.80,401.90 165.15,401.90 165.50,401.90 165.85,401.90 166.20,401.90 166.55,401.90 166.90,401.90 167.25,401.90 167.60,401.90 167.95,401.90 168.30,401.90 168.65,401.90 169.00,401.90 169.35,401.90 169.70,401.90 170.05,401.90 170.40,406.72 170.75,406.72 171.10,406.72 171.45,401.90 171.80,401.90 172.15,397.08 172.50,397.08 172.85,401.90 173.20,406.72 173.55,406.72 173.90,406.72 174.25,411.54 174.60,416.37 174.95,416.37 175.30,416.37 175.65,421.19 176.00,416.37 176.35,416.37 176.70,416.37 177.05,411.54 177.40,411.54 177.75,416.37 178.10,416.37 178.45,411.54 178.80,411.54 179.15,411.54 179.50,406.72 179.85,401.90 180.20,401.90 180.55,401.90 180.90,401.90 181.25,397.08 181.60,397.08 181.95,392.25 182.30,392.25 182.65,387.43 183.00,387.43 183.35,382.61 183.70,377.78 184.05,377.78 184.40,377.78 184.75,382.61 185.10,387.43 185.45,382.61 185.80,382.61 186.15,382.61 186.50,382.61 186.85,382.61 187.20,382.61 187.55,382.61 187.90,377.78 188.25,382.61 188.60,382.61 188.95,382.61 189.30,382.61 189.65,382.61 190.00,377.78 190.35,382.61 190.70,382.61 191.05,382.61 191.40,377.78 191.75,377.78 192.10,377.78 192.45,372.96 192.80,372.96 193.15,372.96 193.50,372.96 193.85,372.96 194.20,377.78 194.55,377.78 194.90,377.78 195.25,377.78 195.60,377.78 195.95,377.78 196.30,377.78 196.65,377.78 197.00,377.78 197.35,377.78 197.70,377.78 198.05,377.78 198.40,377.78 198.75,382.61 199.10,387.43 199.45,392.25 199.80,387.43 200.15,387.43 200.50,382.61 200.85,382.61 201.20,382.61 201.55,382.61 201.90,387.43 202.25,387.43 202.60,387.43 202.95,387.43 203.30,382.61 203.65,382.61 204.00,387.43 204.35,387.43 204.70,387.43 205.05,387.43 205.40,387.43 205.75,387.43 206.10,387.43 206.45,387.43 206.80,387.43 207.15,382.61 207.50,382.61 207.85,382.61 208.20,377.78 208.55,377.78 208.90,377.78 209.25,377.78 209.60,377.78 209.95,377.78 210.30,377.78 210.65,382.61 211.00,382.61 211.35,382.61 211.70,382.61 212.05,382.61 212.40,382.61 212.75,382.61 213.10,382.61 213.45,382.61 213.80,377.78 214.15,382.61 214.50,382.61 214.85,382.61 215.20,382.61 215.55,377.78 215.90,377.78 216.25,382.61 216.60,377.78 216.95,372.96 217.30,372.96 217.65,377.78 218.00,377.78 218.35,382.61 218.70,382.61 219.05,382.61 219.40,382.61 219.75,382.61 220.10,382.61 220.45,382.61 220.80,382.61 221.15,382.61 221.50,382.61 221.85,382.61 222.20,382.61 222.55,382.61 222.90,392.25 223.25,387.43 223.60,387.43 223.95,387.43 224.30,387.43 224.65,387.43 225.00,387.43 225.35,387.43 225.70,392.25 226.05,392.25 226.40,392.25 226.75,392.25 227.10,392.25 227.45,392.25 227.80,392.25 228.15,392.25 228.50,392.25 228.85,387.43 229.20,392.25 229.55,392.25 229.90,387.43 230.25,387.43 230.60,392.25 230.95,392.25 231.30,392.25 231.65,387.43 232.00,387.43 232.35,387.43 232.70,387.43 233.05,387.43 233.40,382.61 233.75,382.61 234.10,382.61 234.45,382.61 234.80,382.61 235.15,382.61 235.50,382.61 235.85,382.61 236.20,382.61 236.55,387.43 236.90,387.43 237.25,387.43 237.60,387.43 237.95,387.43 238.30,387.43 238.65,387.43 239.00,387.43 239.35,387.43 239.70,387.43 240.05,387.43 240.40,392.25 240.75,392.25 241.10,392.25 241.45,392.25 241.80,392.25 242.15,392.25 242.50,392.25 242.85,392.25 243.20,392.25 243.55,392.25 243.90,392.25 244.25,392.25 244.60,387.43 244.95,382.61 245.30,382.61 245.65,382.61 246.00,387.43 246.35,387.43 246.70,387.43 247.05,392.25 247.40,401.90 247.75,401.90 248.10,401.90 248.45,401.90 248.80,401.90 249.15,401.90 249.50,397.08 249.85,397.08 250.20,397.08 250.55,397.08 250.90,397.08 251.25,397.08 251.60,397.08 251.95,397.08 252.30,397.08 252.65,397.08 253.00,397.08 253.35,397.08 253.70,397.08 254.05,397.08 254.40,397.08 254.75,397.08 255.10,401.90 255.45,406.72 255.80,406.72 256.15,406.72 256.50,397.08 256.85,392.25 257.20,392.25 257.55,392.25 257.90,392.25 258.25,392.25 258.60,392.25 258.95,397.08 259.30,397.08 259.65,401.90 260.00,397.08 260.35,397.08 260.70,392.25 261.05,392.25 261.40,392.25 261.75,392.25 262.10,392.25 262.45,392.25 262.80,392.25 263.15,397.08 263.50,397.08 263.85,397.08 264.20,397.08 264.55,397.08 264.90,397.08 265.25,397.08 265.60,397.08 265.95,392.25 266.30,392.25 266.65,392.25 267.00,392.25 267.35,392.25 267.70,392.25 268.05,392.25 268.40,392.25 268.75,392.25 269.10,392.25 269.45,392.25 269.80,392.25 270.15,392.25 270.50,392.25 270.85,392.25 271.20,392.25 271.55,392.25 271.90,392.25 272.25,392.25 272.60,392.25 272.95,392.25 273.30,397.08 273.65,397.08 274.00,397.08 274.35,401.90 274.70,406.72 275.05,406.72 275.40,406.72 275.75,401.90 276.10,406.72 276.45,406.72 276.80,406.72 277.15,406.72 277.50,406.72 277.85,406.72 278.20,406.72 278.55,406.72 278.90,406.72 279.25,397.08 279.60,397.08 279.95,397.08 280.30,397.08 280.65,401.90 281.00,401.90 281.35,401.90 281.70,401.90 282.05,401.90 282.40,401.90 282.75,401.90 283.10,397.08 283.45,397.08 283.80,392.25 284.15,392.25 284.50,392.25 284.85,387.43 285.20,387.43 285.55,392.25 285.90,392.25 286.25,392.25 286.60,387.43 286.95,387.43 287.30,387.43 287.65,382.61 288.00,382.61 288.35,382.61 288.70,382.61 289.05,382.61 289.40,377.78 289.75,372.96 290.10,368.14 290.45,363.31 290.80,363.31 291.15,363.31 291.50,358.49 291.85,358.49 292.20,358.49 292.55,358.49 292.90,358.49 293.25,358.49 293.60,358.49 293.95,358.49 294.30,358.49 294.65,358.49 295.00,363.31 295.35,358.49 295.70,358.49 296.05,358.49 296.40,358.49 296.75,358.49 297.10,358.49 297.45,358.49 297.80,358.49 298.15,358.49 298.50,358.49 298.85,358.49 299.20,358.49 299.55,358.49 299.90,358.49 300.25,358.49 300.60,358.49 300.95,358.49 301.30,358.49 301.65,353.67 302.00,353.67 302.35,353.67 302.70,353.67 303.05,353.67 303.40,353.67 303.75,353.67 304.10,353.67 304.45,358.49 304.80,368.14 305.15,368.14 305.50,368.14 305.85,363.31 306.20,363.31 306.55,363.31 306.90,363.31 307.25,363.31 307.60,363.31 307.95,363.31 308.30,363.31 308.65,363.31 309.00,363.31 309.35,358.49 309.70,358.49 310.05,358.49 310.40,358.49 310.75,353.67 311.10,353.67 311.45,353.67 311.80,353.67 312.15,358.49 312.50,353.67 312.85,353.67 313.20,353.67 313.55,348.84 313.90,353.67 314.25,353.67 314.60,358.49 314.95,358.49 315.30,358.49 315.65,358.49 316.00,358.49 316.35,344.02 316.70,334.38 317.05,334.38 317.40,334.38 317.75,334.38 318.10,334.38 318.45,329.55 318.80,329.55 319.15,329.55 319.50,324.73 319.85,324.73 320.20,329.55 320.55,329.55 320.90,329.55 321.25,329.55 321.60,329.55 321.95,329.55 322.30,334.38 322.65,329.55 323.00,329.55 323.35,334.38 323.70,329.55 324.05,334.38 324.40,334.38 324.75,334.38 325.10,329.55 325.45,329.55 325.80,324.73 326.15,324.73 326.50,324.73 326.85,324.73 327.20,324.73 327.55,324.73 327.90,319.91 328.25,319.91 328.60,324.73 328.95,324.73 329.30,319.91 329.65,319.91 330.00,319.91 330.35,319.91 330.70,319.91 331.05,319.91 331.40,319.91 331.75,319.91 332.10,319.91 332.45,319.91 332.80,319.91 333.15,319.91 333.50,319.91 333.85,319.91 334.20,319.91 334.55,319.91 334.90,319.91 335.25,319.91 335.60,319.91 335.95,319.91 336.30,319.91 336.65,329.55 337.00,334.38 337.35,339.20 337.70,339.20 338.05,339.20 338.40,339.20 338.75,339.20 339.10,339.20 339.45,339.20 339.80,339.20 340.15,339.20 340.50,339.20 340.85,334.38 341.20,334.38 341.55,334.38 341.90,334.38 342.25,334.38 342.60,344.02 342.95,344.02 343.30,344.02 343.65,348.84 344.00,348.84 344.35,348.84 344.70,358.49 345.05,358.49 345.40,358.49 345.75,353.67 346.10,358.49 346.45,358.49 346.80,358.49 347.15,358.49 347.50,358.49 347.85,358.49 348.20,358.49 348.55,358.49 348.90,358.49 349.25,358.49 349.60,358.49 349.95,358.49 350.30,358.49 350.65,363.31 351.00,363.31 351.35,363.31 351.70,363.31 352.05,363.31 352.40,363.31 352.75,363.31 353.10,363.31 353.45,363.31 353.80,363.31 354.15,363.31 354.50,368.14 354.85,368.14 355.20,363.31 355.55,363.31 355.90,353.67 356.25,353.67 356.60,353.67 356.95,353.67 357.30,348.84 357.65,344.02 358.00,344.02 358.35,344.02 358.70,344.02 359.05,344.02 359.40,344.02 359.75,344.02 360.10,339.20 360.45,339.20 360.80,339.20 361.15,334.38 361.50,334.38 361.85,334.38 362.20,334.38 362.55,334.38 362.90,334.38 363.25,339.20 363.60,339.20 363.95,339.20 364.30,339.20 364.65,339.20 365.00,334.38 365.35,329.55 365.70,329.55 366.05,329.55 366.40,339.20 366.75,339.20 367.10,339.20 367.45,339.20 367.80,339.20 368.15,334.38 368.50,334.38 368.85,334.38 369.20,334.38 369.55,334.38 369.90,334.38 370.25,329.55 370.60,324.73 370.95,324.73 371.30,324.73 371.65,324.73 372.00,324.73 372.35,324.73 372.70,319.91 373.05,319.91 373.40,319.91 373.75,310.26 374.10,310.26 374.45,305.44 374.80,305.44 375.15,305.44 375.50,300.61 375.85,300.61 376.20,305.44 376.55,300.61 376.90,300.61 377.25,300.61 377.60,300.61 377.95,295.79 378.30,300.61 378.65,300.61 379.00,300.61 379.35,300.61 379.70,300.61 380.05,300.61 380.40,305.44 380.75,310.26 381.10,310.26 381.45,310.26 381.80,310.26 382.15,315.08 382.50,315.08 382.85,315.08 383.20,310.26 383.55,310.26 383.90,310.26 384.25,305.44 384.60,305.44 384.95,305.44 385.30,305.44 385.65,310.26 386.00,310.26 386.35,305.44 386.70,305.44 387.05,310.26 387.40,310.26 387.75,315.08 388.10,315.08 388.45,315.08 388.80,315.08 389.15,319.91 389.50,319.91 389.85,319.91 390.20,315.08 390.55,319.91 390.90,319.91 391.25,319.91 391.60,324.73 391.95,324.73 392.30,324.73 392.65,319.91 393.00,329.55 393.35,329.55 393.70,329.55 394.05,344.02 394.40,339.20 394.75,329.55 395.10,334.38 395.45,321.35 395.80,321.35 396.15,316.53 396.50,316.53 396.85,316.53 397.20,306.88 397.55,302.06 397.90,302.06 398.25,302.06 398.60,302.06 398.95,306.88 399.30,311.71 399.65,311.71 400.00,311.71 400.35,311.71 400.70,311.71 401.05,316.53 401.40,316.53 401.75,316.53 402.10,316.53 402.45,311.71 402.80,306.88 403.15,302.06 403.50,302.06 403.85,306.88 404.20,306.88 404.55,306.88 404.90,306.88 405.25,302.06 405.60,297.24 405.95,297.24 406.30,292.41 406.65,292.41 407.00,292.41 407.35,287.59 407.70,287.59 408.05,287.59 408.40,292.41 408.75,292.41 409.10,297.24 409.45,297.24 409.80,302.06 410.15,302.06 410.50,302.06 410.85,302.06 411.20,302.06 411.55,302.06 411.90,297.24 412.25,306.88 412.60,306.88 412.95,297.24 413.30,297.24 413.65,297.24 414.00,292.41 414.35,292.41 414.70,302.06 415.05,302.06 415.40,302.06 415.75,302.06 416.10,302.06 416.45,297.24 416.80,292.41 417.15,292.41 417.50,292.41 417.85,292.41 418.20,292.41 418.55,292.41 418.90,292.41 419.25,292.41 419.60,292.41 419.95,292.41 420.30,292.41 420.65,292.41 421.00,292.41 421.35,292.41 421.70,297.24 422.05,297.24 422.40,297.24 422.75,297.24 423.10,297.24 423.45,297.24 423.80,297.24 424.15,297.24 424.50,292.41 424.85,292.41 425.20,292.41 425.55,292.41 425.90,292.41 426.25,292.41 426.60,292.41 426.95,292.41 427.30,287.59 427.65,287.59 428.00,287.59 428.35,287.59 428.70,292.41 429.05,292.41 429.40,292.41 429.75,292.41 430.10,292.41 430.45,292.41 430.80,292.41 431.15,287.59 431.50,292.41 431.85,287.59 432.20,287.59 432.55,292.41 432.90,292.41 433.25,292.41 433.60,292.41 433.95,287.59 434.30,287.59 434.65,287.59 435.00,292.41 435.35,292.41 435.70,292.41 436.05,292.41 436.40,292.41 436.75,292.41 437.10,292.41 437.45,292.41 437.80,292.41 438.15,292.41 438.50,297.24 438.85,297.24 439.20,297.24 439.55,297.24 439.90,297.24 440.25,297.24 440.60,292.41 440.95,292.41 441.30,297.24 441.65,292.41 442.00,292.41 442.35,292.41 442.70,292.41 443.05,292.41 443.40,292.41 443.75,292.41 444.10,297.24 444.45,287.59 444.80,287.59 445.15,287.59 445.50,287.59 445.85,287.59 446.20,282.77 446.55,287.59 446.90,287.59 447.25,287.59 447.60,292.41 447.95,297.24 448.30,297.24 448.65,297.24 449.00,297.24 449.35,297.24 449.70,292.41 450.05,292.41 450.40,292.41 450.75,292.41 451.10,297.24 451.45,297.24 451.80,292.41 452.15,292.41 452.50,297.24 452.85,297.24 453.20,297.24 453.55,292.41 453.90,292.41 454.25,287.59 454.60,287.59 454.95,287.59 455.30,287.59 455.65,282.77 456.00,282.77 456.35,282.77 456.70,282.77 457.05,282.77 457.40,277.95 457.75,277.95 458.10,277.95 458.45,277.95 458.80,277.95 459.15,277.95 459.50,277.95 459.85,277.95 460.20,277.95 460.55,277.95 460.90,277.95 461.25,273.12 461.60,273.12 461.95,273.12 462.30,268.30 462.65,263.48 463.00,258.65 463.35,258.65 463.70,258.65 464.05,258.65 464.40,249.01 464.75,249.01 465.10,249.01 465.45,249.01 465.80,253.83 466.15,253.83 466.50,253.83 466.85,253.83 467.20,253.83 467.55,253.83 467.90,253.83 468.25,258.65 468.60,263.48 468.95,263.48 469.30,268.30 469.65,268.30 470.00,268.30 470.35,268.30 470.70,273.12 471.05,268.30 471.40,268.30 471.75,268.30 472.10,263.48 472.45,263.48 472.80,268.30 473.15,268.30 473.50,263.48 473.85,258.65 474.20,263.48 474.55,268.30 474.90,268.30 475.25,273.12 475.60,273.12 475.95,268.30 476.30,268.30 476.65,263.48 477.00,263.48 477.35,268.30 477.70,268.30 478.05,263.48 478.40,258.65 478.75,249.01 479.10,249.01 479.45,244.18 479.80,239.36 480.15,244.18 480.50,244.18 480.85,244.18 481.20,244.18 481.55,244.18 481.90,244.18 482.25,244.18 482.60,244.18 482.95,244.18 483.30,244.18 483.65,244.18 484.00,249.01 484.35,253.83 484.70,253.83 485.05,253.83 485.40,253.83 485.75,253.83 486.10,253.83 486.45,253.83 486.80,253.83 487.15,253.83 487.50,253.83 487.85,253.83 488.20,253.83 488.55,263.48 488.90,263.48 489.25,263.48 489.60,263.48 489.95,263.48 490.30,263.48 490.65,273.12 491.00,273.12 491.35,268.30 491.70,268.30 492.05,268.30 492.40,268.30 492.75,268.30 493.10,268.30 493.45,268.30 493.80,268.30 494.15,268.30 494.50,268.30 494.85,268.30 495.20,268.30 495.55,268.30 495.90,268.30 496.25,268.30 496.60,263.48 496.95,263.48 497.30,263.48 497.65,263.48 498.00,268.30 498.35,268.30 498.70,273.12 499.05,277.95 499.40,282.77 499.75,287.59 500.10,292.41 500.45,292.41 500.80,292.41 501.15,292.41 501.50,292.41 501.85,297.24 502.20,297.24 502.55,292.41 502.90,287.59 503.25,287.59 503.60,287.59 503.95,287.59 504.30,287.59 504.65,287.59 505.00,282.77 505.35,277.95 505.70,273.12 506.05,273.12 506.40,273.12 506.75,273.12 507.10,273.12 507.45,273.12 507.80,273.12 508.15,273.12 508.50,273.12 508.85,273.12 509.20,282.77 509.55,287.59 509.90,287.59 510.25,287.59 510.60,287.59 510.95,287.59 511.30,287.59 511.65,287.59 512.00,287.59 512.35,287.59 512.70,287.59 513.05,287.59 513.40,287.59 513.75,287.59 514.10,287.59 514.45,287.59 514.80,287.59 515.15,287.59 515.50,287.59 515.85,287.59 516.20,287.59 516.55,287.59 516.90,282.77 517.25,282.77 517.60,282.77 517.95,282.77 518.30,287.59 518.65,292.41 519.00,292.41 519.35,292.41 519.70,292.41 520.05,292.41 520.40,292.41 520.75,292.41 521.10,287.59 521.45,287.59 521.80,292.41 522.15,297.24 522.50,297.24 522.85,297.24 523.20,302.06 523.55,306.88 523.90,306.88 524.25,306.88 524.60,306.88 524.95,306.88 525.30,306.88 525.65,306.88 526.00,306.88 526.35,311.71 526.70,311.71 527.05,311.71 527.40,306.88 527.75,306.88 528.10,306.88 528.45,306.88 528.80,311.71 529.15,311.71 529.50,311.71 529.85,311.71 530.20,311.71 530.55,306.88 530.90,306.88 531.25,306.88 531.60,306.88 531.95,306.88 532.30,306.88 532.65,311.71 533.00,311.71 533.35,311.71 533.70,311.71 534.05,306.88 534.40,302.06 534.75,297.24 535.10,297.24 535.45,297.24 535.80,297.24 536.15,297.24 536.50,297.24 536.85,292.41 537.20,292.41 537.55,292.41 537.90,292.41 538.25,292.41 538.60,287.59 538.95,287.59 539.30,287.59 539.65,282.77 540.00,277.95 540.35,282.77 540.70,287.59 541.05,292.41 541.40,292.41 541.75,292.41 542.10,292.41 542.45,287.59 542.80,292.41 543.15,287.59 543.50,287.59 543.85,287.59 544.20,282.77 544.55,282.77 544.90,282.77 545.25,287.59 545.60,292.41 545.95,292.41 546.30,292.41 546.65,292.41 547.00,292.41 547.35,292.41 547.70,297.24 548.05,297.24 548.40,297.24 548.75,297.24 549.10,297.24 549.45,292.41 549.80,292.41 550.15,287.59 550.50,287.59 550.85,287.59 551.20,282.77 551.55,282.77 551.90,282.77 552.25,282.77 552.60,282.77 552.95,282.77 553.30,287.59 553.65,287.59 554.00,287.59 554.35,287.59 554.70,287.59 555.05,287.59 555.40,287.59 555.75,287.59 556.10,287.59 556.45,292.41 556.80,292.41 557.15,292.41 557.50,297.24 557.85,297.24 558.20,297.24 558.55,302.06 558.90,306.88 559.25,306.88 559.60,302.06 559.95,302.06 560.30,306.88 560.65,311.71 561.00,311.71 561.35,311.71 561.70,311.71 562.05,311.71 562.40,311.71 562.75,311.71 563.10,306.88 563.45,311.71 563.80,306.88 564.15,306.88 564.50,306.88 564.85,306.88 565.20,306.88 565.55,306.88 565.90,306.88 566.25,306.88 566.60,306.88 566.95,306.88 567.30,311.71 567.65,311.71 568.00,311.71 568.35,311.71 568.70,306.88 569.05,306.88 569.40,306.88 569.75,306.88 570.10,311.71 570.45,311.71 570.80,311.71 571.15,311.71 571.50,306.88 571.85,306.88 572.20,306.88 572.55,306.88 572.90,311.71 573.25,306.88 573.60,306.88 573.95,306.88 574.30,311.71 574.65,311.71 575.00,311.71 575.35,311.71 575.70,311.71 576.05,311.71 576.40,311.71 576.75,311.71 577.10,311.71 577.45,311.71 577.80,311.71 578.15,311.71 578.50,306.88 578.85,311.71 579.20,311.71 579.55,306.88 579.90,306.88 580.25,302.06 580.60,306.88 580.95,302.06 581.30,292.41 581.65,292.41 582.00,287.59 582.35,287.59 582.70,287.59 583.05,287.59 583.40,292.41 583.75,292.41 584.10,292.41 584.45,292.41 584.80,292.41 585.15,292.41 585.50,287.59 585.85,287.59 586.20,287.59 586.55,287.59 586.90,287.59 587.25,292.41 587.60,297.24 587.95,292.41 588.30,285.66 588.65,280.84 589.00,280.84 589.35,280.84 589.70,280.84 590.05,276.02 590.40,276.02 590.75,276.02 591.10,276.02 591.45,276.02 591.80,276.02 592.15,276.02 592.50,271.19 592.85,266.37 593.20,266.37 593.55,266.37 593.90,261.55 594.25,266.37 594.60,266.37 594.95,266.37 595.30,266.37 595.65,271.19 596.00,271.19 596.35,271.19 596.70,276.02 597.05,276.02 597.40,276.02 597.75,271.19 598.10,276.02 598.45,280.84 598.80,280.84 599.15,285.66 599.50,290.49 599.85,300.13 600.20,300.13 600.55,300.13 600.90,295.31 601.25,300.13 601.60,300.13 601.95,300.13 602.30,300.13 602.65,295.31 603.00,295.31 603.35,300.13 603.70,300.13 604.05,300.13 604.40,300.13 604.75,300.13 605.10,300.13 605.45,300.13 605.80,300.13 606.15,300.13 606.50,300.13 606.85,300.13 607.20,300.13 607.55,304.95 607.90,304.95 608.25,304.95 608.60,304.95 608.95,304.95 609.30,304.95 609.65,304.95 610.00,304.95 610.35,309.78 610.70,309.78 611.05,309.78 611.40,314.60 611.75,314.60 612.10,314.60 612.45,314.60 612.80,314.60 613.15,319.42 613.50,319.42 613.85,324.25 614.20,324.25 614.55,319.42 614.90,319.42 615.25,319.42 615.60,314.60 615.95,314.60 616.30,314.60 616.65,314.60 617.00,319.42 617.35,319.42 617.70,314.60 618.05,314.60 618.40,314.60 618.75,314.60 619.10,314.60 619.45,314.60 619.80,314.60 620.15,309.78 620.50,314.60 620.85,314.60 621.20,314.60 621.55,314.60 621.90,314.60 622.25,309.78 622.60,309.78 622.95,309.78 623.30,309.78 623.65,314.60 624.00,309.78 624.35,309.78 624.70,309.78 625.05,309.78 625.40,309.78 625.75,314.60 626.10,314.60 626.45,314.60 626.80,314.60 627.15,314.60 627.50,314.60 627.85,314.60 628.20,314.60 628.55,314.60 628.90,309.78 629.25,314.60 629.60,314.60 629.95,314.60 630.30,314.60 630.65,314.60 631.00,314.60 631.35,314.60 631.70,319.42 632.05,314.60 632.40,314.60 632.75,319.42 633.10,324.25 633.45,324.25 633.80,324.25 634.15,319.42 634.50,319.42 634.85,319.42 635.20,319.42 635.55,314.60 635.90,314.60 636.25,314.60 636.60,309.78 636.95,304.95 637.30,304.95 637.65,304.95 638.00,304.95 638.35,309.78 638.70,309.78 639.05,309.78 639.40,309.78 639.75,309.78 640.10,309.78 640.45,314.60 640.80,319.42 641.15,319.42 641.50,314.60 641.85,314.60 642.20,314.60 642.55,314.60 642.90,314.60 643.25,314.60 643.60,314.60 643.95,319.42 644.30,319.42 644.65,329.07 645.00,329.07 645.35,329.07 645.70,329.07 646.05,329.07 646.40,333.89 646.75,338.72 647.10,338.72 647.45,338.72 647.80,338.72 648.15,338.72 648.50,338.72 648.85,338.72 649.20,333.89 649.55,329.07 649.90,329.07 650.25,329.07 650.60,333.89 650.95,333.89 651.30,338.72 651.65,338.72 652.00,338.72 652.35,338.72 652.70,333.89 653.05,333.89 653.40,329.07 653.75,329.07 654.10,329.07 654.45,329.07 654.80,333.89 655.15,333.89 655.50,333.89 655.85,333.89 656.20,333.89 656.55,333.89 656.90,333.89 657.25,333.89 657.60,333.89 657.95,333.89 658.30,333.89 658.65,333.89 659.00,338.72 659.35,338.72 659.70,333.89 660.05,333.89 660.40,333.89 660.75,333.89 661.10,338.72 661.45,338.72 661.80,338.72 662.15,338.72 662.50,338.72 662.85,338.72 663.20,338.72 663.55,333.89 663.90,333.89 664.25,333.89 664.60,333.89 664.95,333.89 665.30,333.89 665.65,333.89 666.00,329.07 666.35,329.07 666.70,329.07 667.05,329.07 667.40,329.07 667.75,338.72 668.10,338.72 668.45,338.72 668.80,338.72 669.15,338.72 669.50,338.72 669.85,338.72 670.20,333.89 670.55,333.89 670.90,333.89 671.25,338.72 671.60,338.72 671.95,338.72 672.30,338.72 672.65,348.36 673.00,348.36 673.35,343.54 673.70,343.54 674.05,343.54 674.40,343.54 674.75,343.54 675.10,343.54 675.45,343.54 675.80,343.54 676.15,338.72 676.50,338.72 676.85,338.72 677.20,338.72 677.55,333.89 677.90,338.72 678.25,338.72 678.60,343.54 678.95,343.54 679.30,343.54 679.65,343.54 680.00,343.54 680.35,348.36 680.70,348.36 681.05,348.36 681.40,348.36 681.75,348.36 682.10,343.54 682.45,343.54 682.80,343.54 683.15,348.36 683.50,348.36 683.85,348.36 684.20,348.36 684.55,348.36 684.90,348.36 685.25,348.36 685.60,348.36 685.95,348.36 686.30,343.54 686.65,343.54 687.00,343.54 687.35,343.54 687.70,343.54 688.05,348.36 688.40,348.36 688.75,353.19 689.10,353.19 689.45,358.01 689.80,362.83 690.15,362.83 690.50,358.01 690.85,358.01 691.20,362.83 691.55,358.01 691.90,358.01 692.25,358.01 692.60,358.01 692.95,358.01 693.30,358.01 693.65,358.01 694.00,358.01 694.35,353.19 694.70,353.19 695.05,353.19 695.40,353.19 695.75,348.36 696.10,353.19 696.45,353.19 696.80,353.19 697.15,353.19 697.50,353.19 697.85,358.01 698.20,358.01 698.55,358.01 698.90,358.01 699.25,353.19 699.60,353.19 699.95,353.19 700.30,353.19 700.65,353.19 701.00,353.19 701.35,353.19 701.70,353.19 702.05,353.19 702.40,353.19 702.75,353.19 703.10,353.19 703.45,358.01 703.80,358.01 704.15,358.01 704.50,358.01 704.85,362.83 705.20,362.83 705.55,362.83 705.90,362.83 706.25,362.83 706.60,362.83 706.95,362.83 707.30,362.83 707.65,362.83 708.00,362.83 708.35,362.83 708.70,362.83 709.05,362.83 709.40,362.83 709.75,362.83 710.10,358.01 710.45,362.83 710.80,362.83 711.15,367.65 711.50,362.83 711.85,362.83 712.20,362.83 712.55,358.01 712.90,362.83 713.25,372.48 713.60,372.48 713.95,372.48 714.30,372.48 714.65,372.48 715.00,377.30 715.35,377.30 715.70,382.12 716.05,382.12 716.40,386.95 716.75,391.77 717.10,391.77 717.45,391.77 717.80,391.77 718.15,391.77 718.50,391.77 718.85,396.59 719.20,401.42 719.55,401.42 719.90,396.59 720.25,396.59 720.60,396.59 720.95,391.77 721.30,391.77 721.65,391.77 722.00,386.95 722.35,386.95 722.70,386.95 723.05,386.95 723.40,386.95 723.75,386.95 724.10,391.77 724.45,396.59 724.80,396.59 725.15,396.59 725.50,391.77 725.85,391.77 726.20,391.77 726.55,391.77 726.90,386.95 727.25,382.12 727.60,382.12 727.95,377.30 728.30,377.30 728.65,377.30 729.00,377.30 729.35,377.30 729.70,377.30 730.05,377.30 730.40,377.30 730.75,377.30 731.10,377.30 731.45,382.12 731.80,382.12 732.15,382.12 732.50,377.30 732.85,377.30 733.20,382.12 733.55,382.12 733.90,377.30 734.25,372.48 734.60,372.48 734.95,372.48 735.30,372.48 735.65,372.48 736.00,372.48 736.35,372.48 736.70,372.48 737.05,372.48 737.40,372.48 737.75,372.48 738.10,372.48 738.45,372.48 738.80,372.48 739.15,372.48 739.50,372.48 739.85,367.65 740.20,367.65 740.55,367.65 740.90,372.48 741.25,372.48 741.60,372.48 741.95,377.30 742.30,377.30 742.65,377.30 743.00,377.30 743.35,377.30 743.70,377.30 744.05,372.48 744.40,372.48 744.75,367.65 745.10,367.65 745.45,367.65 745.80,362.83 746.15,362.83 746.50,362.83 746.85,362.83 747.20,362.83 747.55,362.83 747.90,362.83 748.25,362.83 748.60,362.83 748.95,353.19 749.30,353.19 749.65,353.19 750.00,353.19 750.35,353.19 750.70,348.36 751.05,348.36 751.40,348.36 751.75,348.36 752.10,348.36 752.45,343.54 752.80,343.54 753.15,343.54 753.50,343.54 753.85,348.36 754.20,348.36 754.55,348.36 754.90,353.19 755.25,353.19 755.60,358.01 755.95,362.83 756.30,362.83 756.65,358.01 757.00,358.01 757.35,362.83 757.70,362.83 758.05,362.83 758.40,367.65 758.75,367.65 759.10,362.83 759.45,362.83 759.80,367.65 760.15,367.65 760.50,367.65 760.85,372.48 761.20,372.48 761.55,372.48 761.90,377.30 762.25,377.30 762.60,372.48 762.95,377.30 763.30,377.30 763.65,377.30 764.00,377.30 764.35,372.48 764.70,372.48 765.05,372.48 765.40,372.48 765.75,372.48 766.10,367.65 766.45,367.65 766.80,367.65 767.15,372.48 767.50,372.48 767.85,367.65 768.20,362.83 768.55,358.01 768.90,358.01 769.25,358.01 769.60,353.19 769.95,353.19 770.30,353.19 770.65,353.19 771.00,353.19 771.35,353.19 771.70,353.19 772.05,348.36 772.40,348.36 772.75,348.36 773.10,348.36 773.45,348.36 773.80,353.19 774.15,353.19 774.50,353.19 774.85,353.19 775.20,348.36 775.55,348.36 775.90,348.36 776.25,348.36 776.60,343.54 776.95,338.72 777.30,338.72 777.65,343.54 778.00,343.54 778.35,343.54 778.70,343.54 779.05,343.54 779.40,343.54 779.75,348.36 780.10,348.36 780.45,353.19 780.80,353.19 781.15,353.19 781.50,353.19 781.85,353.19 782.20,353.19 782.55,353.19 782.90,348.36 783.25,353.19 783.60,353.19 783.95,353.19 784.30,358.01 784.65,358.01 785.00,358.01"/>
<line x1="813" y1="78" x2="839" y2="78" stroke="#dc2626" stroke-width="3"/>
<text x="847" y="82" font-family="Arial" font-size="13" fill="#111827">high volatility</text>
<polyline fill="none" stroke="#059669" stroke-width="2" points="85.00,363.31 85.35,363.31 85.70,368.14 86.05,368.14 86.40,368.14 86.75,363.31 87.10,363.31 87.45,372.96 87.80,372.96 88.15,372.96 88.50,372.96 88.85,372.96 89.20,372.96 89.55,372.96 89.90,368.14 90.25,368.14 90.60,368.14 90.95,372.96 91.30,377.78 91.65,387.43 92.00,387.43 92.35,387.43 92.70,387.43 93.05,387.43 93.40,387.43 93.75,387.43 94.10,387.43 94.45,387.43 94.80,382.61 95.15,382.61 95.50,382.61 95.85,387.43 96.20,387.43 96.55,387.43 96.90,387.43 97.25,392.25 97.60,392.25 97.95,392.25 98.30,392.25 98.65,392.25 99.00,392.25 99.35,392.25 99.70,392.25 100.05,387.43 100.40,382.61 100.75,382.61 101.10,377.78 101.45,372.96 101.80,377.78 102.15,377.78 102.50,377.78 102.85,382.61 103.20,382.61 103.55,382.61 103.90,382.61 104.25,387.43 104.60,387.43 104.95,387.43 105.30,382.61 105.65,382.61 106.00,377.78 106.35,377.78 106.70,377.78 107.05,377.78 107.40,372.96 107.75,372.96 108.10,372.96 108.45,372.96 108.80,368.14 109.15,368.14 109.50,368.14 109.85,368.14 110.20,358.49 110.55,358.49 110.90,358.49 111.25,358.49 111.60,358.49 111.95,358.49 112.30,358.49 112.65,358.49 113.00,358.49 113.35,358.49 113.70,368.14 114.05,372.96 114.40,368.14 114.75,368.14 115.10,368.14 115.45,368.14 115.80,363.31 116.15,363.31 116.50,368.14 116.85,368.14 117.20,372.96 117.55,372.96 117.90,372.96 118.25,372.96 118.60,377.78 118.95,377.78 119.30,377.78 119.65,377.78 120.00,372.96 120.35,368.14 120.70,368.14 121.05,368.14 121.40,368.14 121.75,368.14 122.10,368.14 122.45,368.14 122.80,377.78 123.15,377.78 123.50,377.78 123.85,380.68 124.20,380.68 124.55,380.68 124.90,380.68 125.25,380.68 125.60,380.68 125.95,375.85 126.30,371.03 126.65,371.03 127.00,371.03 127.35,371.03 127.70,366.21 128.05,366.21 128.40,366.21 128.75,366.21 129.10,371.03 129.45,371.03 129.80,375.85 130.15,375.85 130.50,375.85 130.85,375.85 131.20,375.85 131.55,371.03 131.90,371.03 132.25,371.03 132.60,371.03 132.95,371.03 133.30,371.03 133.65,366.21 134.00,371.03 134.35,371.03 134.70,371.03 135.05,371.03 135.40,371.03 135.75,366.21 136.10,366.21 136.45,366.21 136.80,371.03 137.15,380.68 137.50,380.68 137.85,385.50 138.20,385.50 138.55,380.68 138.90,380.68 139.25,380.68 139.60,380.68 139.95,380.68 140.30,380.68 140.65,380.68 141.00,380.68 141.35,375.85 141.70,385.50 142.05,385.50 142.40,382.61 142.75,382.61 143.10,382.61 143.45,392.25 143.80,392.25 144.15,401.90 144.50,401.90 144.85,397.08 145.20,397.08 145.55,397.08 145.90,401.90 146.25,401.90 146.60,401.90 146.95,401.90 147.30,397.08 147.65,397.08 148.00,397.08 148.35,397.08 148.70,397.08 149.05,397.08 149.40,397.08 149.75,397.08 150.10,397.08 150.45,397.08 150.80,397.08 151.15,397.08 151.50,397.08 151.85,401.90 152.20,401.90 152.55,401.90 152.90,401.90 153.25,397.08 153.60,397.08 153.95,397.08 154.30,397.08 154.65,392.25 155.00,387.43 155.35,387.43 155.70,387.43 156.05,382.61 156.40,382.61 156.75,382.61 157.10,382.61 157.45,382.61 157.80,382.61 158.15,382.61 158.50,382.61 158.85,382.61 159.20,382.61 159.55,387.43 159.90,387.43 160.25,387.43 160.60,387.43 160.95,387.43 161.30,387.43 161.65,382.61 162.00,392.25 162.35,392.25 162.70,392.25 163.05,392.25 163.40,392.25 163.75,392.25 164.10,392.25 164.45,392.25 164.80,392.25 165.15,397.08 165.50,397.08 165.85,392.25 166.20,392.25 166.55,392.25 166.90,392.25 167.25,392.25 167.60,392.25 167.95,392.25 168.30,387.43 168.65,387.43 169.00,387.43 169.35,382.61 169.70,377.78 170.05,372.96 170.40,372.96 170.75,368.14 171.10,368.14 171.45,368.14 171.80,368.14 172.15,363.31 172.50,363.31 172.85,363.31 173.20,368.14 173.55,368.14 173.90,368.14 174.25,368.14 174.60,368.14 174.95,372.96 175.30,368.14 175.65,368.14 176.00,368.14 176.35,368.14 176.70,368.14 177.05,372.96 177.40,368.14 177.75,372.96 178.10,372.96 178.45,372.96 178.80,372.96 179.15,363.31 179.50,372.96 179.85,372.96 180.20,372.96 180.55,377.78 180.90,382.61 181.25,382.61 181.60,382.61 181.95,382.61 182.30,382.61 182.65,387.43 183.00,387.43 183.35,382.61 183.70,382.61 184.05,382.61 184.40,382.61 184.75,382.61 185.10,382.61 185.45,382.61 185.80,382.61 186.15,382.61 186.50,382.61 186.85,382.61 187.20,377.78 187.55,377.78 187.90,372.96 188.25,372.96 188.60,372.96 188.95,372.96 189.30,372.96 189.65,377.78 190.00,377.78 190.35,382.61 190.70,377.78 191.05,377.78 191.40,377.78 191.75,382.61 192.10,382.61 192.45,382.61 192.80,382.61 193.15,387.43 193.50,387.43 193.85,392.25 194.20,387.43 194.55,387.43 194.90,392.25 195.25,387.43 195.60,392.25 195.95,392.25 196.30,392.25 196.65,392.25 197.00,392.25 197.35,387.43 197.70,387.43 198.05,387.43 198.40,392.25 198.75,392.25 199.10,392.25 199.45,397.08 199.80,397.08 200.15,397.08 200.50,397.08 200.85,397.08 201.20,401.90 201.55,401.90 201.90,401.90 202.25,401.90 202.60,401.90 202.95,401.90 203.30,401.90 203.65,401.90 204.00,401.90 204.35,401.90 204.70,401.90 205.05,397.08 205.40,387.43 205.75,387.43 206.10,387.43 206.45,387.43 206.80,387.43 207.15,392.25 207.50,397.08 207.85,397.08 208.20,397.08 208.55,397.08 208.90,397.08 209.25,397.08 209.60,392.25 209.95,397.08 210.30,401.90 210.65,401.90 211.00,392.25 211.35,392.25 211.70,392.25 212.05,392.25 212.40,397.08 212.75,397.08 213.10,401.90 213.45,401.90 213.80,401.90 214.15,401.90 214.50,406.72 214.85,406.72 215.20,406.72 215.55,406.72 215.90,406.72 216.25,406.72 216.60,406.72 216.95,401.90 217.30,401.90 217.65,401.90 218.00,401.90 218.35,406.72 218.70,406.72 219.05,401.90 219.40,401.90 219.75,397.08 220.10,397.08 220.45,397.08 220.80,397.08 221.15,401.90 221.50,406.72 221.85,406.72 222.20,411.54 222.55,411.54 222.90,411.54 223.25,411.54 223.60,411.54 223.95,411.54 224.30,411.54 224.65,411.54 225.00,411.54 225.35,406.72 225.70,406.72 226.05,406.72 226.40,406.72 226.75,406.72 227.10,406.72 227.45,406.72 227.80,401.90 228.15,401.90 228.50,401.90 228.85,401.90 229.20,401.90 229.55,401.90 229.90,401.90 230.25,401.90 230.60,401.90 230.95,406.72 231.30,397.08 231.65,397.08 232.00,401.90 232.35,401.90 232.70,397.08 233.05,397.08 233.40,392.25 233.75,387.43 234.10,377.78 234.45,377.78 234.80,377.78 235.15,377.78 235.50,377.78 235.85,377.78 236.20,377.78 236.55,377.78 236.90,377.78 237.25,377.78 237.60,382.61 237.95,382.61 238.30,382.61 238.65,387.43 239.00,387.43 239.35,382.61 239.70,382.61 240.05,382.61 240.40,382.61 240.75,387.43 241.10,387.43 241.45,387.43 241.80,382.61 242.15,382.61 242.50,382.61 242.85,382.61 243.20,387.43 243.55,382.61 243.90,377.78 244.25,377.78 244.60,372.96 244.95,372.96 245.30,372.96 245.65,372.96 246.00,372.96 246.35,372.96 246.70,372.96 247.05,372.96 247.40,368.14 247.75,368.14 248.10,368.14 248.45,363.31 248.80,363.31 249.15,363.31 249.50,358.49 249.85,358.49 250.20,353.67 250.55,358.49 250.90,363.31 251.25,363.31 251.60,363.31 251.95,372.96 252.30,372.96 252.65,372.96 253.00,372.96 253.35,377.78 253.70,377.78 254.05,377.78 254.40,377.78 254.75,377.78 255.10,377.78 255.45,372.96 255.80,372.96 256.15,368.14 256.50,368.14 256.85,368.14 257.20,372.96 257.55,372.96 257.90,372.96 258.25,372.96 258.60,372.96 258.95,372.96 259.30,372.96 259.65,372.96 260.00,372.96 260.35,372.96 260.70,372.96 261.05,372.96 261.40,372.96 261.75,372.96 262.10,372.96 262.45,372.96 262.80,372.96 263.15,372.96 263.50,368.14 263.85,368.14 264.20,368.14 264.55,368.14 264.90,372.96 265.25,372.96 265.60,372.96 265.95,372.96 266.30,372.96 266.65,377.78 267.00,377.78 267.35,377.78 267.70,377.78 268.05,377.78 268.40,377.78 268.75,377.78 269.10,377.78 269.45,377.78 269.80,377.78 270.15,372.96 270.50,377.78 270.85,382.61 271.20,382.61 271.55,382.61 271.90,387.43 272.25,387.43 272.60,387.43 272.95,387.43 273.30,387.43 273.65,387.43 274.00,392.25 274.35,392.25 274.70,392.25 275.05,392.25 275.40,392.25 275.75,397.08 276.10,397.08 276.45,397.08 276.80,401.90 277.15,392.25 277.50,387.43 277.85,387.43 278.20,387.43 278.55,392.25 278.90,406.72 279.25,406.72 279.60,401.90 279.95,397.08 280.30,397.08 280.65,397.08 281.00,392.25 281.35,392.25 281.70,392.25 282.05,392.25 282.40,392.25 282.75,392.25 283.10,387.43 283.45,387.43 283.80,387.43 284.15,387.43 284.50,382.61 284.85,377.78 285.20,377.78 285.55,372.96 285.90,377.78 286.25,377.78 286.60,377.78 286.95,377.78 287.30,377.78 287.65,382.61 288.00,382.61 288.35,387.43 288.70,387.43 289.05,387.43 289.40,387.43 289.75,387.43 290.10,392.25 290.45,392.25 290.80,392.25 291.15,392.25 291.50,387.43 291.85,387.43 292.20,387.43 292.55,382.61 292.90,382.61 293.25,382.61 293.60,382.61 293.95,382.61 294.30,382.61 294.65,387.43 295.00,382.61 295.35,382.61 295.70,372.96 296.05,368.14 296.40,372.96 296.75,372.96 297.10,372.96 297.45,372.96 297.80,372.96 298.15,372.96 298.50,372.96 298.85,372.96 299.20,372.96 299.55,372.96 299.90,372.96 300.25,372.96 300.60,382.61 300.95,382.61 301.30,382.61 301.65,382.61 302.00,382.61 302.35,382.61 302.70,382.61 303.05,382.61 303.40,382.61 303.75,382.61 304.10,387.43 304.45,387.43 304.80,382.61 305.15,382.61 305.50,382.61 305.85,382.61 306.20,377.78 306.55,377.78 306.90,377.78 307.25,377.78 307.60,377.78 307.95,377.78 308.30,382.61 308.65,382.61 309.00,382.61 309.35,382.61 309.70,382.61 310.05,382.61 310.40,382.61 310.75,382.61 311.10,387.43 311.45,387.43 311.80,387.43 312.15,387.43 312.50,387.43 312.85,387.43 313.20,387.43 313.55,387.43 313.90,387.43 314.25,387.43 314.60,387.43 314.95,387.43 315.30,392.25 315.65,392.25 316.00,392.25 316.35,392.25 316.70,387.43 317.05,387.43 317.40,387.43 317.75,387.43 318.10,387.43 318.45,387.43 318.80,387.43 319.15,387.43 319.50,387.43 319.85,387.43 320.20,387.43 320.55,382.61 320.90,382.61 321.25,387.43 321.60,387.43 321.95,387.43 322.30,387.43 322.65,387.43 323.00,382.61 323.35,382.61 323.70,382.61 324.05,382.61 324.40,382.61 324.75,382.61 325.10,382.61 325.45,382.61 325.80,382.61 326.15,382.61 326.50,372.96 326.85,368.14 327.20,368.14 327.55,368.14 327.90,368.14 328.25,368.14 328.60,368.14 328.95,368.14 329.30,363.31 329.65,363.31 330.00,358.49 330.35,358.49 330.70,363.31 331.05,363.31 331.40,363.31 331.75,363.31 332.10,363.31 332.45,363.31 332.80,363.31 333.15,363.31 333.50,363.31 333.85,358.49 334.20,353.67 334.55,353.67 334.90,353.67 335.25,358.49 335.60,358.49 335.95,367.17 336.30,367.17 336.65,372.00 337.00,372.00 337.35,372.00 337.70,372.00 338.05,372.00 338.40,372.00 338.75,372.00 339.10,372.00 339.45,372.00 339.80,372.00 340.15,372.00 340.50,372.00 340.85,372.00 341.20,372.00 341.55,372.00 341.90,372.00 342.25,372.00 342.60,372.00 342.95,372.00 343.30,372.00 343.65,372.00 344.00,372.00 344.35,367.17 344.70,367.17 345.05,367.17 345.40,367.17 345.75,367.17 346.10,362.35 346.45,362.35 346.80,362.35 347.15,362.35 347.50,362.35 347.85,362.35 348.20,362.35 348.55,362.35 348.90,362.35 349.25,362.35 349.60,362.35 349.95,362.35 350.30,362.35 350.65,367.17 351.00,367.17 351.35,367.17 351.70,372.00 352.05,376.82 352.40,376.82 352.75,372.00 353.10,372.00 353.45,372.00 353.80,372.00 354.15,372.00 354.50,372.00 354.85,372.00 355.20,372.00 355.55,376.82 355.90,376.82 356.25,376.82 356.60,381.64 356.95,376.82 357.30,376.82 357.65,381.64 358.00,381.64 358.35,386.46 358.70,386.46 359.05,386.46 359.40,386.46 359.75,381.64 360.10,381.64 360.45,381.64 360.80,381.64 361.15,381.64 361.50,381.64 361.85,381.64 362.20,381.64 362.55,385.50 362.90,380.68 363.25,380.68 363.60,380.68 363.95,380.68 364.30,380.68 364.65,385.50 365.00,385.50 365.35,385.50 365.70,385.50 366.05,385.50 366.40,385.50 366.75,385.50 367.10,385.50 367.45,385.50 367.80,385.50 368.15,385.50 368.50,390.32 368.85,390.32 369.20,390.32 369.55,390.32 369.90,390.32 370.25,390.32 370.60,390.32 370.95,390.32 371.30,395.15 371.65,395.15 372.00,395.15 372.35,399.97 372.70,399.97 373.05,399.97 373.40,409.62 373.75,409.62 374.10,409.62 374.45,409.62 374.80,409.62 375.15,409.62 375.50,414.44 375.85,414.44 376.20,414.44 376.55,414.44 376.90,414.44 377.25,414.44 377.60,414.44 377.95,414.44 378.30,414.44 378.65,414.44 379.00,414.44 379.35,414.44 379.70,419.26 380.05,419.26 380.40,419.26 380.75,419.26 381.10,419.26 381.45,419.26 381.80,419.26 382.15,419.26 382.50,419.26 382.85,419.26 383.20,419.26 383.55,419.26 383.90,419.26 384.25,419.26 384.60,419.26 384.95,414.44 385.30,414.44 385.65,414.44 386.00,414.44 386.35,414.44 386.70,414.44 387.05,414.44 387.40,409.62 387.75,409.62 388.10,409.62 388.45,409.62 388.80,404.79 389.15,404.79 389.50,404.79 389.85,404.79 390.20,399.97 390.55,399.97 390.90,399.97 391.25,399.97 391.60,399.97 391.95,399.97 392.30,399.97 392.65,399.97 393.00,399.97 393.35,404.79 393.70,404.79 394.05,399.97 394.40,399.97 394.75,399.97 395.10,399.97 395.45,399.97 395.80,399.97 396.15,399.97 396.50,399.97 396.85,399.97 397.20,395.15 397.55,395.15 397.90,395.15 398.25,399.97 398.60,399.97 398.95,399.97 399.30,399.97 399.65,404.79 400.00,404.79 400.35,404.79 400.70,404.79 401.05,404.79 401.40,404.79 401.75,404.79 402.10,404.79 402.45,404.79 402.80,409.62 403.15,414.44 403.50,414.44 403.85,409.62 404.20,409.62 404.55,409.62 404.90,409.62 405.25,409.62 405.60,414.44 405.95,414.44 406.30,409.62 406.65,409.62 407.00,409.62 407.35,409.62 407.70,409.62 408.05,409.62 408.40,409.62 408.75,409.62 409.10,409.62 409.45,409.62 409.80,409.62 410.15,414.44 410.50,414.44 410.85,414.44 411.20,414.44 411.55,414.44 411.90,409.62 412.25,409.62 412.60,409.62 412.95,409.62 413.30,404.79 413.65,399.97 414.00,399.97 414.35,395.15 414.70,385.50 415.05,385.50 415.40,380.68 415.75,380.68 416.10,380.68 416.45,380.68 416.80,380.68 417.15,380.68 417.50,380.68 417.85,380.68 418.20,380.68 418.55,380.68 418.90,380.68 419.25,380.68 419.60,385.50 419.95,385.50 420.30,380.68 420.65,380.68 421.00,380.68 421.35,380.68 421.70,380.68 422.05,380.68 422.40,380.68 422.75,375.85 423.10,375.85 423.45,375.85 423.80,371.03 424.15,371.03 424.50,371.03 424.85,371.03 425.20,366.21 425.55,366.21 425.90,366.21 426.25,366.21 426.60,366.21 426.95,366.21 427.30,371.03 427.65,371.03 428.00,361.38 428.35,361.38 428.70,366.21 429.05,366.21 429.40,366.21 429.75,366.21 430.10,366.21 430.45,366.21 430.80,366.21 431.15,361.38 431.50,356.56 431.85,356.56 432.20,351.74 432.55,351.74 432.90,351.74 433.25,346.92 433.60,346.92 433.95,346.92 434.30,346.92 434.65,346.92 435.00,346.92 435.35,342.09 435.70,342.09 436.05,342.09 436.40,342.09 436.75,342.09 437.10,342.09 437.45,342.09 437.80,346.92 438.15,346.92 438.50,346.92 438.85,346.92 439.20,346.92 439.55,346.92 439.90,342.09 440.25,342.09 440.60,342.09 440.95,342.09 441.30,342.09 441.65,342.09 442.00,342.09 442.35,342.09 442.70,337.27 443.05,342.09 443.40,342.09 443.75,342.09 444.10,342.09 444.45,342.09 444.80,351.74 445.15,346.92 445.50,346.92 445.85,346.92 446.20,351.74 446.55,351.74 446.90,342.09 447.25,351.74 447.60,356.56 447.95,356.56 448.30,356.56 448.65,356.56 449.00,356.56 449.35,356.56 449.70,351.74 450.05,351.74 450.40,351.74 450.75,356.56 451.10,356.56 451.45,356.56 451.80,356.56 452.15,356.56 452.50,356.56 452.85,356.56 453.20,356.56 453.55,356.56 453.90,356.56 454.25,351.74 454.60,346.92 454.95,346.92 455.30,346.92 455.65,342.09 456.00,337.27 456.35,337.27 456.70,337.27 457.05,332.45 457.40,332.45 457.75,332.45 458.10,332.45 458.45,327.62 458.80,327.62 459.15,317.98 459.50,313.15 459.85,313.15 460.20,313.15 460.55,313.15 460.90,317.98 461.25,327.62 461.60,327.62 461.95,337.27 462.30,337.27 462.65,332.45 463.00,332.45 463.35,332.45 463.70,332.45 464.05,332.45 464.40,332.45 464.75,332.45 465.10,332.45 465.45,332.45 465.80,327.62 466.15,327.62 466.50,327.62 466.85,327.62 467.20,327.62 467.55,329.07 467.90,329.07 468.25,324.25 468.60,324.25 468.95,319.42 469.30,319.42 469.65,324.25 470.00,324.25 470.35,314.60 470.70,304.95 471.05,309.78 471.40,309.78 471.75,309.78 472.10,309.78 472.45,309.78 472.80,304.95 473.15,300.13 473.50,300.13 473.85,300.13 474.20,300.13 474.55,300.13 474.90,300.13 475.25,300.13 475.60,300.13 475.95,300.13 476.30,300.13 476.65,300.13 477.00,300.13 477.35,300.13 477.70,295.31 478.05,295.31 478.40,295.31 478.75,295.31 479.10,280.84 479.45,280.84 479.80,280.84 480.15,276.02 480.50,276.02 480.85,271.19 481.20,276.02 481.55,276.02 481.90,280.84 482.25,276.02 482.60,276.02 482.95,276.02 483.30,276.02 483.65,276.02 484.00,276.02 484.35,280.84 484.70,285.66 485.05,290.49 485.40,290.49 485.75,276.02 486.10,276.02 486.45,276.02 486.80,271.19 487.15,261.55 487.50,256.72 487.85,256.72 488.20,256.72 488.55,256.72 488.90,251.90 489.25,251.90 489.60,251.90 489.95,247.08 490.30,247.08 490.65,247.08 491.00,247.08 491.35,247.08 491.70,247.08 492.05,247.08 492.40,247.08 492.75,247.08 493.10,247.08 493.45,247.08 493.80,247.08 494.15,247.08 494.50,247.08 494.85,247.08 495.20,247.08 495.55,247.08 495.90,247.08 496.25,247.08 496.60,247.08 496.95,247.08 497.30,247.08 497.65,247.08 498.00,247.08 498.35,242.25 498.70,242.25 499.05,242.25 499.40,242.25 499.75,247.08 500.10,247.08 500.45,242.25 500.80,247.08 501.15,247.08 501.50,247.08 501.85,247.08 502.20,247.08 502.55,247.08 502.90,247.08 503.25,247.08 503.60,247.08 503.95,247.08 504.30,247.08 504.65,247.08 505.00,247.08 505.35,247.08 505.70,247.08 506.05,247.08 506.40,247.08 506.75,247.08 507.10,247.08 507.45,247.08 507.80,247.08 508.15,251.90 508.50,256.72 508.85,256.72 509.20,256.72 509.55,256.72 509.90,261.55 510.25,261.55 510.60,266.37 510.95,271.19 511.30,271.19 511.65,271.19 512.00,271.19 512.35,271.19 512.70,271.19 513.05,271.19 513.40,271.19 513.75,271.19 514.10,271.19 514.45,271.19 514.80,271.19 515.15,271.19 515.50,271.19 515.85,261.55 516.20,261.55 516.55,261.55 516.90,266.37 517.25,266.37 517.60,266.37 517.95,266.37 518.30,266.37 518.65,266.37 519.00,266.37 519.35,261.55 519.70,261.55 520.05,261.55 520.40,261.55 520.75,261.55 521.10,261.55 521.45,261.55 521.80,261.55 522.15,261.55 522.50,261.55 522.85,261.55 523.20,261.55 523.55,266.37 523.90,266.37 524.25,271.19 524.60,271.19 524.95,271.19 525.30,266.37 525.65,266.37 526.00,261.55 526.35,256.72 526.70,256.72 527.05,256.72 527.40,256.72 527.75,256.72 528.10,256.72 528.45,256.72 528.80,256.72 529.15,256.72 529.50,256.72 529.85,256.72 530.20,256.72 530.55,261.55 530.90,261.55 531.25,256.72 531.60,256.72 531.95,256.72 532.30,256.72 532.65,261.55 533.00,261.55 533.35,261.55 533.70,261.55 534.05,256.72 534.40,256.72 534.75,256.72 535.10,256.72 535.45,256.72 535.80,256.72 536.15,256.72 536.50,256.72 536.85,256.72 537.20,256.72 537.55,261.55 537.90,256.72 538.25,256.72 538.60,256.72 538.95,256.72 539.30,256.72 539.65,261.55 540.00,266.37 540.35,266.37 540.70,266.37 541.05,266.37 541.40,266.37 541.75,266.37 542.10,261.55 542.45,261.55 542.80,261.55 543.15,261.55 543.50,266.37 543.85,266.37 544.20,266.37 544.55,266.37 544.90,266.37 545.25,266.37 545.60,266.37 545.95,266.37 546.30,266.37 546.65,266.37 547.00,266.37 547.35,261.55 547.70,256.72 548.05,256.72 548.40,256.72 548.75,256.72 549.10,256.72 549.45,256.72 549.80,256.72 550.15,261.55 550.50,261.55 550.85,261.55 551.20,261.55 551.55,261.55 551.90,266.37 552.25,261.55 552.60,256.72 552.95,251.90 553.30,251.90 553.65,251.90 554.00,251.90 554.35,251.90 554.70,251.90 555.05,251.90 555.40,251.90 555.75,251.90 556.10,251.90 556.45,251.90 556.80,251.90 557.15,256.72 557.50,256.72 557.85,256.72 558.20,256.72 558.55,256.72 558.90,256.72 559.25,256.72 559.60,256.72 559.95,261.55 560.30,266.37 560.65,261.55 561.00,261.55 561.35,261.55 561.70,266.37 562.05,266.37 562.40,261.55 562.75,261.55 563.10,261.55 563.45,261.55 563.80,256.72 564.15,256.72 564.50,256.72 564.85,256.72 565.20,256.72 565.55,256.72 565.90,256.72 566.25,256.72 566.60,261.55 566.95,261.55 567.30,261.55 567.65,261.55 568.00,261.55 568.35,261.55 568.70,266.37 569.05,266.37 569.40,261.55 569.75,261.55 570.10,261.55 570.45,266.37 570.80,266.37 571.15,266.37 571.50,266.37 571.85,266.37 572.20,271.19 572.55,271.19 572.90,271.19 573.25,271.19 573.60,276.02 573.95,276.02 574.30,276.02 574.65,276.02 575.00,276.02 575.35,276.02 575.70,276.02 576.05,276.02 576.40,276.02 576.75,276.02 577.10,280.84 577.45,285.66 577.80,271.19 578.15,266.37 578.50,266.37 578.85,266.37 579.20,266.37 579.55,266.37 579.90,261.55 580.25,261.55 580.60,261.55 580.95,261.55 581.30,261.55 581.65,261.55 582.00,261.55 582.35,261.55 582.70,261.55 583.05,261.55 583.40,261.55 583.75,261.55 584.10,261.55 584.45,261.55 584.80,261.55 585.15,261.55 585.50,261.55 585.85,261.55 586.20,261.55 586.55,256.72 586.90,256.72 587.25,256.72 587.60,256.72 587.95,256.72 588.30,256.72 588.65,251.90 589.00,251.90 589.35,251.90 589.70,251.90 590.05,251.90 590.40,251.90 590.75,251.90 591.10,251.90 591.45,247.08 591.80,242.25 592.15,242.25 592.50,242.25 592.85,242.25 593.20,242.25 593.55,242.25 593.90,242.25 594.25,242.25 594.60,242.25 594.95,242.25 595.30,242.25 595.65,242.25 596.00,242.25 596.35,242.25 596.70,242.25 597.05,242.25 597.40,242.25 597.75,237.43 598.10,232.61 598.45,232.61 598.80,232.61 599.15,232.61 599.50,227.78 599.85,227.78 600.20,227.78 600.55,222.96 600.90,222.96 601.25,222.96 601.60,222.96 601.95,222.96 602.30,222.96 602.65,222.96 603.00,222.96 603.35,222.96 603.70,222.96 604.05,222.96 604.40,222.96 604.75,222.96 605.10,222.96 605.45,222.96 605.80,222.96 606.15,222.96 606.50,222.96 606.85,222.96 607.20,222.96 607.55,222.96 607.90,222.96 608.25,222.96 608.60,222.96 608.95,222.96 609.30,222.96 609.65,222.96 610.00,222.96 610.35,218.14 610.70,218.14 611.05,218.14 611.40,218.14 611.75,218.14 612.10,218.14 612.45,218.14 612.80,222.96 613.15,213.32 613.50,213.32 613.85,213.32 614.20,213.32 614.55,208.49 614.90,208.49 615.25,203.67 615.60,203.67 615.95,203.67 616.30,203.67 616.65,208.49 617.00,208.49 617.35,208.49 617.70,208.49 618.05,208.49 618.40,208.49 618.75,213.32 619.10,213.32 619.45,218.14 619.80,218.14 620.15,218.14 620.50,218.14 620.85,218.14 621.20,218.14 621.55,218.14 621.90,218.14 622.25,218.14 622.60,218.14 622.95,208.49 623.30,208.49 623.65,208.49 624.00,203.67 624.35,203.67 624.70,203.67 625.05,203.67 625.40,203.67 625.75,203.67 626.10,203.67 626.45,208.49 626.80,208.49 627.15,208.49 627.50,213.32 627.85,213.32 628.20,213.32 628.55,213.32 628.90,218.14 629.25,213.32 629.60,213.32 629.95,208.49 630.30,208.49 630.65,208.49 631.00,213.32 631.35,213.32 631.70,213.32 632.05,213.32 632.40,213.32 632.75,213.32 633.10,218.14 633.45,218.14 633.80,218.14 634.15,218.14 634.50,218.14 634.85,218.14 635.20,218.14 635.55,218.14 635.90,213.32 636.25,203.67 636.60,203.67 636.95,198.85 637.30,189.20 637.65,189.20 638.00,189.20 638.35,184.38 638.70,184.38 639.05,184.38 639.40,184.38 639.75,184.38 640.10,189.20 640.45,189.20 640.80,189.20 641.15,189.20 641.50,189.20 641.85,189.20 642.20,184.38 642.55,184.38 642.90,184.38 643.25,193.06 643.60,197.88 643.95,197.88 644.30,193.06 644.65,193.06 645.00,193.06 645.35,188.24 645.70,188.24 646.05,173.77 646.40,173.77 646.75,173.77 647.10,173.77 647.45,168.94 647.80,168.94 648.15,173.77 648.50,173.77 648.85,168.94 649.20,168.94 649.55,168.94 649.90,168.94 650.25,168.94 650.60,168.94 650.95,168.94 651.30,164.12 651.65,164.12 652.00,164.12 652.35,164.12 652.70,159.30 653.05,159.30 653.40,159.30 653.75,164.12 654.10,159.30 654.45,159.30 654.80,164.12 655.15,159.30 655.50,154.47 655.85,149.65 656.20,149.65 656.55,149.65 656.90,154.47 657.25,154.47 657.60,154.47 657.95,149.65 658.30,149.65 658.65,149.65 659.00,149.65 659.35,149.65 659.70,149.65 660.05,149.65 660.40,149.65 660.75,149.65 661.10,149.65 661.45,149.65 661.80,149.65 662.15,149.65 662.50,149.65 662.85,149.65 663.20,140.00 663.55,140.00 663.90,135.18 664.25,135.18 664.60,135.18 664.95,135.18 665.30,135.18 665.65,135.18 666.00,135.18 666.35,135.18 666.70,135.18 667.05,140.00 667.40,140.00 667.75,140.00 668.10,140.00 668.45,140.00 668.80,140.00 669.15,140.00 669.50,140.00 669.85,144.83 670.20,144.83 670.55,144.83 670.90,144.83 671.25,140.00 671.60,140.00 671.95,140.00 672.30,140.00 672.65,140.00 673.00,140.00 673.35,140.00 673.70,140.00 674.05,140.00 674.40,144.83 674.75,144.83 675.10,144.83 675.45,144.83 675.80,144.83 676.15,144.83 676.50,144.83 676.85,144.83 677.20,144.83 677.55,140.00 677.90,140.00 678.25,144.83 678.60,144.83 678.95,144.83 679.30,140.00 679.65,140.00 680.00,140.00 680.35,140.00 680.70,140.00 681.05,135.18 681.40,135.18 681.75,135.18 682.10,135.18 682.45,135.18 682.80,135.18 683.15,135.18 683.50,135.18 683.85,135.18 684.20,130.36 684.55,130.36 684.90,130.36 685.25,130.36 685.60,135.18 685.95,140.00 686.30,130.36 686.65,125.54 687.00,125.54 687.35,120.71 687.70,125.54 688.05,125.54 688.40,115.89 688.75,115.89 689.10,115.89 689.45,120.71 689.80,120.71 690.15,120.71 690.50,120.71 690.85,120.71 691.20,120.71 691.55,120.71 691.90,120.71 692.25,120.71 692.60,120.71 692.95,130.36 693.30,130.36 693.65,130.36 694.00,130.36 694.35,130.36 694.70,130.36 695.05,130.36 695.40,130.36 695.75,130.36 696.10,135.18 696.45,135.18 696.80,140.00 697.15,140.00 697.50,140.00 697.85,140.00 698.20,140.00 698.55,140.00 698.90,140.00 699.25,140.00 699.60,140.00 699.95,140.00 700.30,140.00 700.65,135.18 701.00,135.18 701.35,135.18 701.70,135.18 702.05,135.18 702.40,135.18 702.75,135.18 703.10,135.18 703.45,135.18 703.80,135.18 704.15,135.18 704.50,135.18 704.85,135.18 705.20,135.18 705.55,135.18 705.90,135.18 706.25,135.18 706.60,135.18 706.95,135.18 707.30,135.18 707.65,135.18 708.00,135.18 708.35,135.18 708.70,135.18 709.05,140.00 709.40,140.00 709.75,140.00 710.10,140.00 710.45,140.00 710.80,135.18 711.15,125.54 711.50,125.54 711.85,125.54 712.20,125.54 712.55,125.54 712.90,125.54 713.25,125.54 713.60,135.18 713.95,135.18 714.30,135.18 714.65,130.36 715.00,125.54 715.35,125.54 715.70,125.54 716.05,125.54 716.40,125.54 716.75,125.54 717.10,125.54 717.45,125.54 717.80,125.54 718.15,125.54 718.50,125.54 718.85,125.54 719.20,125.54 719.55,125.54 719.90,125.54 720.25,125.54 720.60,115.89 720.95,115.89 721.30,115.89 721.65,115.89 722.00,115.89 722.35,115.89 722.70,115.89 723.05,120.71 723.40,120.71 723.75,120.71 724.10,115.89 724.45,115.89 724.80,115.89 725.15,115.89 725.50,115.89 725.85,115.89 726.20,115.89 726.55,115.89 726.90,115.89 727.25,115.89 727.60,115.89 727.95,111.07 728.30,111.07 728.65,111.07 729.00,111.07 729.35,111.07 729.70,111.07 730.05,111.07 730.40,106.24 730.75,101.42 731.10,96.60 731.45,91.77 731.80,82.13 732.15,82.13 732.50,77.30 732.85,77.30 733.20,77.30 733.55,77.30 733.90,77.30 734.25,72.48 734.60,72.48 734.95,72.48 735.30,72.48 735.65,72.48 736.00,72.48 736.35,72.48 736.70,72.48 737.05,72.48 737.40,72.48 737.75,72.48 738.10,72.48 738.45,72.48 738.80,72.48 739.15,72.48 739.50,72.48 739.85,72.48 740.20,77.30 740.55,77.30 740.90,77.30 741.25,77.30 741.60,82.13 741.95,82.13 742.30,82.13 742.65,82.13 743.00,82.13 743.35,82.13 743.70,82.13 744.05,86.95 744.40,91.77 744.75,91.77 745.10,91.77 745.45,91.77 745.80,96.60 746.15,96.60 746.50,96.60 746.85,96.60 747.20,96.60 747.55,96.60 747.90,96.60 748.25,96.60 748.60,96.60 748.95,96.60 749.30,96.60 749.65,96.60 750.00,96.60 750.35,96.60 750.70,96.60 751.05,96.60 751.40,101.42 751.75,101.42 752.10,101.42 752.45,101.42 752.80,101.42 753.15,96.60 753.50,96.60 753.85,96.60 754.20,96.60 754.55,101.42 754.90,101.42 755.25,101.42 755.60,101.42 755.95,106.24 756.30,106.24 756.65,106.24 757.00,106.24 757.35,106.24 757.70,106.24 758.05,106.24 758.40,101.42 758.75,101.42 759.10,101.42 759.45,101.42 759.80,101.42 760.15,101.42 760.50,101.42 760.85,101.42 761.20,101.42 761.55,101.42 761.90,101.42 762.25,101.42 762.60,91.77 762.95,91.77 763.30,96.60 763.65,96.60 764.00,96.60 764.35,96.60 764.70,91.77 765.05,91.77 765.40,91.77 765.75,91.77 766.10,91.77 766.45,91.77 766.80,86.95 767.15,86.95 767.50,91.77 767.85,96.60 768.20,101.42 768.55,101.42 768.90,101.42 769.25,101.42 769.60,101.42 769.95,101.42 770.30,101.42 770.65,101.42 771.00,101.42 771.35,101.42 771.70,101.42 772.05,101.42 772.40,101.42 772.75,101.42 773.10,101.42 773.45,101.42 773.80,91.77 774.15,91.77 774.50,91.77 774.85,91.77 775.20,91.77 775.55,96.60 775.90,91.77 776.25,91.77 776.60,91.77 776.95,91.77 777.30,86.95 777.65,86.95 778.00,86.95 778.35,86.95 778.70,86.95 779.05,86.95 779.40,86.95 779.75,91.77 780.10,91.77 780.45,91.77 780.80,91.77 781.15,86.95 781.50,86.95 781.85,86.95 782.20,86.95 782.55,86.95 782.90,86.95 783.25,77.30 783.60,77.30 783.95,77.30 784.30,77.30 784.65,82.13 785.00,82.13"/>
<line x1="813" y1="102" x2="839" y2="102" stroke="#059669" stroke-width="3"/>
<text x="847" y="106" font-family="Arial" font-size="13" fill="#111827">trending</text>
<text x="435.0" y="518" text-anchor="middle" font-family="Arial" font-size="14" fill="#111827">Event index</text>
<text x="22" y="256.0" text-anchor="middle" transform="rotate(-90 22 256.0)" font-family="Arial" font-size="14" fill="#111827">Inventory</text>
</svg>
