<svg xmlns="http://www.w3.org/2000/svg" width="940" height="720" viewBox="0 0 940 720">
<rect width="100%" height="100%" fill="#ffffff"/>
<text x="470.0" y="26" text-anchor="middle" font-family="Arial" font-size="18" fill="#111827">Avellaneda Stoikov Trending Inventory And Reservation Skew</text>
<line x1="85" y1="228.67" x2="900" y2="228.67" stroke="#111827" stroke-width="1"/>
<line x1="85" y1="46.00" x2="85" y2="228.67" stroke="#111827" stroke-width="1"/>
<text x="73" y="60.00" text-anchor="end" font-family="Arial" font-size="12" fill="#111827">Inventory</text>
<line x1="85" y1="228.67" x2="900" y2="228.67" stroke="#e5e7eb" stroke-width="1"/>
<text x="73" y="232.67" text-anchor="end" font-family="Arial" font-size="11" fill="#374151">-174</text>
<line x1="85" y1="137.33" x2="900" y2="137.33" stroke="#e5e7eb" stroke-width="1"/>
<text x="73" y="141.33" text-anchor="end" font-family="Arial" font-size="11" fill="#374151">243</text>
<line x1="85" y1="46.00" x2="900" y2="46.00" stroke="#e5e7eb" stroke-width="1"/>
<text x="73" y="50.00" text-anchor="end" font-family="Arial" font-size="11" fill="#374151">661</text>
<polyline fill="none" stroke="#2563eb" stroke-width="2" points="85.00,190.66 85.41,190.66 85.82,192.85 86.22,192.85 86.63,192.85 87.04,190.66 87.45,190.66 87.85,195.04 88.26,195.04 88.67,195.04 89.08,195.04 89.48,195.04 89.89,195.04 90.30,195.04 90.71,192.85 91.11,192.85 91.52,192.85 91.93,195.04 92.34,197.23 92.74,201.61 93.15,201.61 93.56,201.61 93.97,201.61 94.37,201.61 94.78,201.61 95.19,201.61 95.60,201.61 96.00,201.61 96.41,199.42 96.82,199.42 97.23,199.42 97.63,201.61 98.04,201.61 98.45,201.61 98.86,201.61 99.26,203.80 99.67,203.80 100.08,203.80 100.49,203.80 100.89,203.80 101.30,203.80 101.71,203.80 102.12,203.80 102.52,201.61 102.93,199.42 103.34,199.42 103.75,197.23 104.15,195.04 104.56,197.23 104.97,197.23 105.38,197.23 105.78,199.42 106.19,199.42 106.60,199.42 107.01,199.42 107.41,201.61 107.82,201.61 108.23,201.61 108.64,199.42 109.04,199.42 109.45,197.23 109.86,197.23 110.27,197.23 110.67,197.23 111.08,195.04 111.49,195.04 111.90,195.04 112.30,195.04 112.71,192.85 113.12,192.85 113.53,192.85 113.93,192.85 114.34,188.47 114.75,188.47 115.16,188.47 115.56,188.47 115.97,188.47 116.38,188.47 116.79,188.47 117.19,188.47 117.60,188.47 118.01,188.47 118.42,192.85 118.82,195.04 119.23,192.85 119.64,192.85 120.05,192.85 120.45,192.85 120.86,190.66 121.27,190.66 121.68,192.85 122.08,192.85 122.49,195.04 122.90,195.04 123.31,195.04 123.71,195.04 124.12,197.23 124.53,197.23 124.94,197.23 125.34,197.23 125.75,195.04 126.16,192.85 126.57,192.85 126.97,192.85 127.38,192.85 127.79,192.85 128.20,192.85 128.60,192.85 129.01,197.23 129.42,197.23 129.83,197.23 130.23,198.55 130.64,198.55 131.05,198.55 131.46,198.55 131.86,198.55 132.27,198.55 132.68,196.36 133.09,194.17 133.49,194.17 133.90,194.17 134.31,194.17 134.72,191.98 135.12,191.98 135.53,191.98 135.94,191.98 136.35,194.17 136.75,194.17 137.16,196.36 137.57,196.36 137.98,196.36 138.38,196.36 138.79,196.36 139.20,194.17 139.61,194.17 140.01,194.17 140.42,194.17 140.83,194.17 141.24,194.17 141.64,191.98 142.05,194.17 142.46,194.17 142.87,194.17 143.27,194.17 143.68,194.17 144.09,191.98 144.50,191.98 144.90,191.98 145.31,194.17 145.72,198.55 146.13,198.55 146.53,200.74 146.94,200.74 147.35,198.55 147.76,198.55 148.16,198.55 148.57,198.55 148.98,198.55 149.39,198.55 149.79,198.55 150.20,198.55 150.61,196.36 151.02,200.74 151.42,200.74 151.83,199.42 152.24,199.42 152.65,199.42 153.05,203.80 153.46,203.80 153.87,208.18 154.28,208.18 154.68,205.99 155.09,205.99 155.50,205.99 155.91,208.18 156.31,208.18 156.72,208.18 157.13,208.18 157.54,205.99 157.94,205.99 158.35,205.99 158.76,205.99 159.17,205.99 159.57,205.99 159.98,205.99 160.39,205.99 160.80,205.99 161.20,205.99 161.61,205.99 162.02,205.99 162.43,205.99 162.83,208.18 163.24,208.18 163.65,208.18 164.06,208.18 164.46,205.99 164.87,205.99 165.28,205.99 165.69,205.99 166.09,203.80 166.50,201.61 166.91,201.61 167.32,201.61 167.72,199.42 168.13,199.42 168.54,199.42 168.95,199.42 169.35,199.42 169.76,199.42 170.17,199.42 170.58,199.42 170.98,199.42 171.39,199.42 171.80,201.61 172.21,201.61 172.61,201.61 173.02,201.61 173.43,201.61 173.84,201.61 174.24,199.42 174.65,203.80 175.06,203.80 175.47,203.80 175.87,203.80 176.28,203.80 176.69,203.80 177.10,203.80 177.50,203.80 177.91,203.80 178.32,205.99 178.73,205.99 179.13,203.80 179.54,203.80 179.95,203.80 180.36,203.80 180.76,203.80 181.17,203.80 181.58,203.80 181.99,201.61 182.39,201.61 182.80,201.61 183.21,199.42 183.62,197.23 184.02,195.04 184.43,195.04 184.84,192.85 185.25,192.85 185.65,192.85 186.06,192.85 186.47,190.66 186.88,190.66 187.28,190.66 187.69,192.85 188.10,192.85 188.51,192.85 188.91,192.85 189.32,192.85 189.73,195.04 190.14,192.85 190.54,192.85 190.95,192.85 191.36,192.85 191.77,192.85 192.17,195.04 192.58,192.85 192.99,195.04 193.40,195.04 193.80,195.04 194.21,195.04 194.62,190.66 195.03,195.04 195.43,195.04 195.84,195.04 196.25,197.23 196.66,199.42 197.06,199.42 197.47,199.42 197.88,199.42 198.29,199.42 198.69,201.61 199.10,201.61 199.51,199.42 199.92,199.42 200.32,199.42 200.73,199.42 201.14,199.42 201.55,199.42 201.95,199.42 202.36,199.42 202.77,199.42 203.18,199.42 203.58,199.42 203.99,197.23 204.40,197.23 204.81,195.04 205.21,195.04 205.62,195.04 206.03,195.04 206.44,195.04 206.84,197.23 207.25,197.23 207.66,199.42 208.07,197.23 208.47,197.23 208.88,197.23 209.29,199.42 209.70,199.42 210.10,199.42 210.51,199.42 210.92,201.61 211.33,201.61 211.73,203.80 212.14,201.61 212.55,201.61 212.96,203.80 213.36,201.61 213.77,203.80 214.18,203.80 214.59,203.80 214.99,203.80 215.40,203.80 215.81,201.61 216.22,201.61 216.62,201.61 217.03,203.80 217.44,203.80 217.85,203.80 218.25,205.99 218.66,205.99 219.07,205.99 219.48,205.99 219.88,205.99 220.29,208.18 220.70,208.18 221.11,208.18 221.51,208.18 221.92,208.18 222.33,208.18 222.74,208.18 223.14,208.18 223.55,208.18 223.96,208.18 224.37,208.18 224.77,205.99 225.18,201.61 225.59,201.61 226.00,201.61 226.40,201.61 226.81,201.61 227.22,203.80 227.63,205.99 228.03,205.99 228.44,205.99 228.85,205.99 229.26,205.99 229.66,205.99 230.07,203.80 230.48,205.99 230.89,208.18 231.29,208.18 231.70,203.80 232.11,203.80 232.52,203.80 232.92,203.80 233.33,205.99 233.74,205.99 234.15,208.18 234.55,208.18 234.96,208.18 235.37,208.18 235.78,210.37 236.18,210.37 236.59,210.37 237.00,210.37 237.41,210.37 237.81,210.37 238.22,210.37 238.63,208.18 239.04,208.18 239.44,208.18 239.85,208.18 240.26,210.37 240.67,210.37 241.07,208.18 241.48,208.18 241.89,205.99 242.30,205.99 242.70,205.99 243.11,205.99 243.52,208.18 243.93,210.37 244.33,210.37 244.74,212.56 245.15,212.56 245.56,212.56 245.96,212.56 246.37,212.56 246.78,212.56 247.19,212.56 247.59,212.56 248.00,212.56 248.41,210.37 248.82,210.37 249.22,210.37 249.63,210.37 250.04,210.37 250.45,210.37 250.85,210.37 251.26,208.18 251.67,208.18 252.08,208.18 252.48,208.18 252.89,208.18 253.30,208.18 253.71,208.18 254.11,208.18 254.52,208.18 254.93,210.37 255.34,205.99 255.74,205.99 256.15,208.18 256.56,208.18 256.97,205.99 257.37,205.99 257.78,203.80 258.19,201.61 258.60,197.23 259.00,197.23 259.41,197.23 259.82,197.23 260.23,197.23 260.63,197.23 261.04,197.23 261.45,197.23 261.86,197.23 262.26,197.23 262.67,199.42 263.08,199.42 263.49,199.42 263.89,201.61 264.30,201.61 264.71,199.42 265.12,199.42 265.52,199.42 265.93,199.42 266.34,201.61 266.75,201.61 267.15,201.61 267.56,199.42 267.97,199.42 268.38,199.42 268.78,199.42 269.19,201.61 269.60,199.42 270.01,197.23 270.41,197.23 270.82,195.04 271.23,195.04 271.64,195.04 272.04,195.04 272.45,195.04 272.86,195.04 273.27,195.04 273.67,195.04 274.08,192.85 274.49,192.85 274.90,192.85 275.30,190.66 275.71,190.66 276.12,190.66 276.53,188.47 276.93,188.47 277.34,186.28 277.75,188.47 278.16,190.66 278.56,190.66 278.97,190.66 279.38,195.04 279.79,195.04 280.19,195.04 280.60,195.04 281.01,197.23 281.42,197.23 281.82,197.23 282.23,197.23 282.64,197.23 283.05,197.23 283.45,195.04 283.86,195.04 284.27,192.85 284.68,192.85 285.08,192.85 285.49,195.04 285.90,195.04 286.31,195.04 286.71,195.04 287.12,195.04 287.53,195.04 287.94,195.04 288.34,195.04 288.75,195.04 289.16,195.04 289.57,195.04 289.97,195.04 290.38,195.04 290.79,195.04 291.20,195.04 291.60,195.04 292.01,195.04 292.42,195.04 292.83,192.85 293.23,192.85 293.64,192.85 294.05,192.85 294.46,195.04 294.86,195.04 295.27,195.04 295.68,195.04 296.09,195.04 296.49,197.23 296.90,197.23 297.31,197.23 297.72,197.23 298.12,197.23 298.53,197.23 298.94,197.23 299.35,197.23 299.75,197.23 300.16,197.23 300.57,195.04 300.98,197.23 301.38,199.42 301.79,199.42 302.20,199.42 302.61,201.61 303.01,201.61 303.42,201.61 303.83,201.61 304.24,201.61 304.64,201.61 305.05,203.80 305.46,203.80 305.87,203.80 306.27,203.80 306.68,203.80 307.09,205.99 307.50,205.99 307.90,205.99 308.31,208.18 308.72,203.80 309.13,201.61 309.53,201.61 309.94,201.61 310.35,203.80 310.76,210.37 311.16,210.37 311.57,208.18 311.98,205.99 312.39,205.99 312.79,205.99 313.20,203.80 313.61,203.80 314.02,203.80 314.42,203.80 314.83,203.80 315.24,203.80 315.65,201.61 316.05,201.61 316.46,201.61 316.87,201.61 317.28,199.42 317.68,197.23 318.09,197.23 318.50,195.04 318.91,197.23 319.31,197.23 319.72,197.23 320.13,197.23 320.54,197.23 320.94,199.42 321.35,199.42 321.76,201.61 322.17,201.61 322.57,201.61 322.98,201.61 323.39,201.61 323.80,203.80 324.20,203.80 324.61,203.80 325.02,203.80 325.43,201.61 325.83,201.61 326.24,201.61 326.65,199.42 327.06,199.42 327.46,199.42 327.87,199.42 328.28,199.42 328.69,199.42 329.09,201.61 329.50,199.42 329.91,199.42 330.32,195.04 330.72,192.85 331.13,195.04 331.54,195.04 331.95,195.04 332.35,195.04 332.76,195.04 333.17,195.04 333.58,195.04 333.98,195.04 334.39,195.04 334.80,195.04 335.21,195.04 335.61,195.04 336.02,199.42 336.43,199.42 336.84,199.42 337.24,199.42 337.65,199.42 338.06,199.42 338.47,199.42 338.87,199.42 339.28,199.42 339.69,199.42 340.10,201.61 340.50,201.61 340.91,199.42 341.32,199.42 341.73,199.42 342.13,199.42 342.54,197.23 342.95,197.23 343.36,197.23 343.76,197.23 344.17,197.23 344.58,197.23 344.99,199.42 345.39,199.42 345.80,199.42 346.21,199.42 346.62,199.42 347.02,199.42 347.43,199.42 347.84,199.42 348.25,201.61 348.65,201.61 349.06,201.61 349.47,201.61 349.88,201.61 350.28,201.61 350.69,201.61 351.10,201.61 351.51,201.61 351.91,201.61 352.32,201.61 352.73,201.61 353.14,203.80 353.54,203.80 353.95,203.80 354.36,203.80 354.77,201.61 355.17,201.61 355.58,201.61 355.99,201.61 356.40,201.61 356.80,201.61 357.21,201.61 357.62,201.61 358.03,201.61 358.43,201.61 358.84,201.61 359.25,199.42 359.66,199.42 360.06,201.61 360.47,201.61 360.88,201.61 361.29,201.61 361.69,201.61 362.10,199.42 362.51,199.42 362.92,199.42 363.32,199.42 363.73,199.42 364.14,199.42 364.55,199.42 364.95,199.42 365.36,199.42 365.77,199.42 366.18,195.04 366.58,192.85 366.99,192.85 367.40,192.85 367.81,192.85 368.21,192.85 368.62,192.85 369.03,192.85 369.44,190.66 369.84,190.66 370.25,188.47 370.66,188.47 371.07,190.66 371.47,190.66 371.88,190.66 372.29,190.66 372.70,190.66 373.10,190.66 373.51,190.66 373.92,190.66 374.33,190.66 374.73,188.47 375.14,186.28 375.55,186.28 375.96,186.28 376.36,188.47 376.77,188.47 377.18,192.42 377.59,192.42 377.99,194.61 378.40,194.61 378.81,194.61 379.22,194.61 379.62,194.61 380.03,194.61 380.44,194.61 380.85,194.61 381.25,194.61 381.66,194.61 382.07,194.61 382.48,194.61 382.88,194.61 383.29,194.61 383.70,194.61 384.11,194.61 384.51,194.61 384.92,194.61 385.33,194.61 385.74,194.61 386.14,194.61 386.55,194.61 386.96,192.42 387.37,192.42 387.77,192.42 388.18,192.42 388.59,192.42 389.00,190.23 389.40,190.23 389.81,190.23 390.22,190.23 390.63,190.23 391.03,190.23 391.44,190.23 391.85,190.23 392.26,190.23 392.66,190.23 393.07,190.23 393.48,190.23 393.89,190.23 394.29,192.42 394.70,192.42 395.11,192.42 395.52,194.61 395.92,196.80 396.33,196.80 396.74,194.61 397.15,194.61 397.55,194.61 397.96,194.61 398.37,194.61 398.78,194.61 399.18,194.61 399.59,194.61 400.00,196.80 400.41,196.80 400.81,196.80 401.22,198.99 401.63,196.80 402.04,196.80 402.44,198.99 402.85,198.99 403.26,201.18 403.67,201.18 404.07,201.18 404.48,201.18 404.89,198.99 405.30,198.99 405.70,198.99 406.11,198.99 406.52,198.99 406.93,198.99 407.33,198.99 407.74,198.99 408.15,200.74 408.56,198.55 408.96,198.55 409.37,198.55 409.78,198.55 410.19,198.55 410.59,200.74 411.00,200.74 411.41,200.74 411.82,200.74 412.22,200.74 412.63,200.74 413.04,200.74 413.45,200.74 413.85,200.74 414.26,200.74 414.67,200.74 415.08,202.93 415.48,202.93 415.89,202.93 416.30,202.93 416.71,202.93 417.11,202.93 417.52,202.93 417.93,202.93 418.34,205.12 418.74,205.12 419.15,205.12 419.56,207.31 419.97,207.31 420.37,207.31 420.78,211.69 421.19,211.69 421.60,211.69 422.00,211.69 422.41,211.69 422.82,211.69 423.23,213.88 423.63,213.88 424.04,213.88 424.45,213.88 424.86,213.88 425.26,213.88 425.67,213.88 426.08,213.88 426.49,213.88 426.89,213.88 427.30,213.88 427.71,213.88 428.12,216.07 428.52,216.07 428.93,216.07 429.34,216.07 429.75,216.07 430.15,216.07 430.56,216.07 430.97,216.07 431.38,216.07 431.78,216.07 432.19,216.07 432.60,216.07 433.01,216.07 433.41,216.07 433.82,216.07 434.23,213.88 434.64,213.88 435.04,213.88 435.45,213.88 435.86,213.88 436.27,213.88 436.67,213.88 437.08,211.69 437.49,211.69 437.90,211.69 438.30,211.69 438.71,209.50 439.12,209.50 439.53,209.50 439.93,209.50 440.34,207.31 440.75,207.31 441.16,207.31 441.56,207.31 441.97,207.31 442.38,207.31 442.79,207.31 443.19,207.31 443.60,207.31 444.01,209.50 444.42,209.50 444.82,207.31 445.23,207.31 445.64,207.31 446.05,207.31 446.45,207.31 446.86,207.31 447.27,207.31 447.68,207.31 448.08,207.31 448.49,205.12 448.90,205.12 449.31,205.12 449.71,207.31 450.12,207.31 450.53,207.31 450.94,207.31 451.34,209.50 451.75,209.50 452.16,209.50 452.57,209.50 452.97,209.50 453.38,209.50 453.79,209.50 454.20,209.50 454.60,209.50 455.01,211.69 455.42,213.88 455.83,213.88 456.23,211.69 456.64,211.69 457.05,211.69 457.46,211.69 457.86,211.69 458.27,213.88 458.68,213.88 459.09,211.69 459.49,211.69 459.90,211.69 460.31,211.69 460.72,211.69 461.12,211.69 461.53,211.69 461.94,211.69 462.35,211.69 462.75,211.69 463.16,211.69 463.57,213.88 463.98,213.88 464.38,213.88 464.79,213.88 465.20,213.88 465.61,211.69 466.01,211.69 466.42,211.69 466.83,211.69 467.24,209.50 467.64,207.31 468.05,207.31 468.46,205.12 468.87,200.74 469.27,200.74 469.68,198.55 470.09,198.55 470.50,198.55 470.90,198.55 471.31,198.55 471.72,198.55 472.13,198.55 472.53,198.55 472.94,198.55 473.35,198.55 473.76,198.55 474.16,198.55 474.57,200.74 474.98,200.74 475.39,198.55 475.79,198.55 476.20,198.55 476.61,198.55 477.02,198.55 477.42,198.55 477.83,198.55 478.24,196.36 478.65,196.36 479.05,196.36 479.46,194.17 479.87,194.17 480.28,194.17 480.68,194.17 481.09,191.98 481.50,191.98 481.91,191.98 482.31,191.98 482.72,191.98 483.13,191.98 483.54,194.17 483.94,194.17 484.35,189.79 484.76,189.79 485.17,191.98 485.57,191.98 485.98,191.98 486.39,191.98 486.80,191.98 487.20,191.98 487.61,191.98 488.02,189.79 488.43,187.60 488.83,187.60 489.24,185.41 489.65,185.41 490.06,185.41 490.46,183.22 490.87,183.22 491.28,183.22 491.69,183.22 492.09,183.22 492.50,183.22 492.91,181.03 493.32,181.03 493.72,181.03 494.13,181.03 494.54,181.03 494.95,181.03 495.35,181.03 495.76,183.22 496.17,183.22 496.58,183.22 496.98,183.22 497.39,183.22 497.80,183.22 498.21,181.03 498.61,181.03 499.02,181.03 499.43,181.03 499.84,181.03 500.24,181.03 500.65,181.03 501.06,181.03 501.47,178.84 501.87,181.03 502.28,181.03 502.69,181.03 503.10,181.03 503.50,181.03 503.91,185.41 504.32,183.22 504.73,183.22 505.13,183.22 505.54,185.41 505.95,185.41 506.36,181.03 506.76,185.41 507.17,187.60 507.58,187.60 507.99,187.60 508.39,187.60 508.80,187.60 509.21,187.60 509.62,185.41 510.02,185.41 510.43,185.41 510.84,187.60 511.25,187.60 511.65,187.60 512.06,187.60 512.47,187.60 512.88,187.60 513.28,187.60 513.69,187.60 514.10,187.60 514.51,187.60 514.91,185.41 515.32,183.22 515.73,183.22 516.14,183.22 516.54,181.03 516.95,178.84 517.36,178.84 517.77,178.84 518.17,176.65 518.58,176.65 518.99,176.65 519.40,176.65 519.80,174.46 520.21,174.46 520.62,170.08 521.03,167.89 521.43,167.89 521.84,167.89 522.25,167.89 522.66,170.08 523.06,174.46 523.47,174.46 523.88,178.84 524.29,178.84 524.69,176.65 525.10,176.65 525.51,176.65 525.92,176.65 526.32,176.65 526.73,176.65 527.14,176.65 527.55,176.65 527.95,176.65 528.36,174.46 528.77,174.46 529.18,174.46 529.58,174.46 529.99,174.46 530.40,175.11 530.81,175.11 531.21,172.92 531.62,172.92 532.03,170.73 532.44,170.73 532.84,172.92 533.25,172.92 533.66,168.54 534.07,164.16 534.47,166.35 534.88,166.35 535.29,166.35 535.70,166.35 536.10,166.35 536.51,164.16 536.92,161.97 537.33,161.97 537.73,161.97 538.14,161.97 538.55,161.97 538.96,161.97 539.36,161.97 539.77,161.97 540.18,161.97 540.59,161.97 540.99,161.97 541.40,161.97 541.81,161.97 542.22,159.78 542.62,159.78 543.03,159.78 543.44,159.78 543.85,153.21 544.25,153.21 544.66,153.21 545.07,151.02 545.48,151.02 545.88,148.83 546.29,151.02 546.70,151.02 547.11,153.21 547.51,151.02 547.92,151.02 548.33,151.02 548.74,151.02 549.14,151.02 549.55,151.02 549.96,153.21 550.37,155.40 550.77,157.59 551.18,157.59 551.59,151.02 552.00,151.02 552.40,151.02 552.81,148.83 553.22,144.45 553.63,142.26 554.03,142.26 554.44,142.26 554.85,142.26 555.26,140.07 555.66,140.07 556.07,140.07 556.48,137.88 556.89,137.88 557.29,137.88 557.70,137.88 558.11,137.88 558.52,137.88 558.92,137.88 559.33,137.88 559.74,137.88 560.15,137.88 560.55,137.88 560.96,137.88 561.37,137.88 561.78,137.88 562.18,137.88 562.59,137.88 563.00,137.88 563.41,137.88 563.81,137.88 564.22,137.88 564.63,137.88 565.04,137.88 565.44,137.88 565.85,137.88 566.26,135.69 566.67,135.69 567.07,135.69 567.48,135.69 567.89,137.88 568.30,137.88 568.70,135.69 569.11,137.88 569.52,137.88 569.93,137.88 570.33,137.88 570.74,137.88 571.15,137.88 571.56,137.88 571.96,137.88 572.37,137.88 572.78,137.88 573.19,137.88 573.59,137.88 574.00,137.88 574.41,137.88 574.82,137.88 575.22,137.88 575.63,137.88 576.04,137.88 576.45,137.88 576.85,137.88 577.26,137.88 577.67,140.07 578.08,142.26 578.48,142.26 578.89,142.26 579.30,142.26 579.71,144.45 580.11,144.45 580.52,146.64 580.93,148.83 581.34,148.83 581.74,148.83 582.15,148.83 582.56,148.83 582.97,148.83 583.37,148.83 583.78,148.83 584.19,148.83 584.60,148.83 585.01,148.83 585.41,148.83 585.82,148.83 586.23,148.83 586.64,144.45 587.04,144.45 587.45,144.45 587.86,146.64 588.27,146.64 588.67,146.64 589.08,146.64 589.49,146.64 589.90,146.64 590.30,146.64 590.71,144.45 591.12,144.45 591.53,144.45 591.93,144.45 592.34,144.45 592.75,144.45 593.16,144.45 593.56,144.45 593.97,144.45 594.38,144.45 594.79,144.45 595.19,144.45 595.60,146.64 596.01,146.64 596.42,148.83 596.82,148.83 597.23,148.83 597.64,146.64 598.05,146.64 598.45,144.45 598.86,142.26 599.27,142.26 599.68,142.26 600.08,142.26 600.49,142.26 600.90,142.26 601.31,142.26 601.71,142.26 602.12,142.26 602.53,142.26 602.94,142.26 603.34,142.26 603.75,144.45 604.16,144.45 604.57,142.26 604.97,142.26 605.38,142.26 605.79,142.26 606.20,144.45 606.60,144.45 607.01,144.45 607.42,144.45 607.83,142.26 608.23,142.26 608.64,142.26 609.05,142.26 609.46,142.26 609.86,142.26 610.27,142.26 610.68,142.26 611.09,142.26 611.49,142.26 611.90,144.45 612.31,142.26 612.72,142.26 613.12,142.26 613.53,142.26 613.94,142.26 614.35,144.45 614.75,146.64 615.16,146.64 615.57,146.64 615.98,146.64 616.38,146.64 616.79,146.64 617.20,144.45 617.61,144.45 618.01,144.45 618.42,144.45 618.83,146.64 619.24,146.64 619.64,146.64 620.05,146.64 620.46,146.64 620.87,146.64 621.27,146.64 621.68,146.64 622.09,146.64 622.50,146.64 622.90,146.64 623.31,144.45 623.72,142.26 624.13,142.26 624.53,142.26 624.94,142.26 625.35,142.26 625.76,142.26 626.16,142.26 626.57,144.45 626.98,144.45 627.39,144.45 627.79,144.45 628.20,144.45 628.61,146.64 629.02,144.45 629.42,142.26 629.83,140.07 630.24,140.07 630.65,140.07 631.05,140.07 631.46,140.07 631.87,140.07 632.28,140.07 632.68,140.07 633.09,140.07 633.50,140.07 633.91,140.07 634.31,140.07 634.72,142.26 635.13,142.26 635.54,142.26 635.94,142.26 636.35,142.26 636.76,142.26 637.17,142.26 637.57,142.26 637.98,144.45 638.39,146.64 638.80,144.45 639.20,144.45 639.61,144.45 640.02,146.64 640.43,146.64 640.83,144.45 641.24,144.45 641.65,144.45 642.06,144.45 642.46,142.26 642.87,142.26 643.28,142.26 643.69,142.26 644.09,142.26 644.50,142.26 644.91,142.26 645.32,142.26 645.72,144.45 646.13,144.45 646.54,144.45 646.95,144.45 647.35,144.45 647.76,144.45 648.17,146.64 648.58,146.64 648.98,144.45 649.39,144.45 649.80,144.45 650.21,146.64 650.61,146.64 651.02,146.64 651.43,146.64 651.84,146.64 652.24,148.83 652.65,148.83 653.06,148.83 653.47,148.83 653.87,151.02 654.28,151.02 654.69,151.02 655.10,151.02 655.50,151.02 655.91,151.02 656.32,151.02 656.73,151.02 657.13,151.02 657.54,151.02 657.95,153.21 658.36,155.40 658.76,148.83 659.17,146.64 659.58,146.64 659.99,146.64 660.39,146.64 660.80,146.64 661.21,144.45 661.62,144.45 662.02,144.45 662.43,144.45 662.84,144.45 663.25,144.45 663.65,144.45 664.06,144.45 664.47,144.45 664.88,144.45 665.28,144.45 665.69,144.45 666.10,144.45 666.51,144.45 666.91,144.45 667.32,144.45 667.73,144.45 668.14,144.45 668.54,144.45 668.95,142.26 669.36,142.26 669.77,142.26 670.17,142.26 670.58,142.26 670.99,142.26 671.40,140.07 671.80,140.07 672.21,140.07 672.62,140.07 673.03,140.07 673.43,140.07 673.84,140.07 674.25,140.07 674.66,137.88 675.06,135.69 675.47,135.69 675.88,135.69 676.29,135.69 676.69,135.69 677.10,135.69 677.51,135.69 677.92,135.69 678.32,135.69 678.73,135.69 679.14,135.69 679.55,135.69 679.95,135.69 680.36,135.69 680.77,135.69 681.18,135.69 681.58,135.69 681.99,133.50 682.40,131.31 682.81,131.31 683.21,131.31 683.62,131.31 684.03,129.12 684.44,129.12 684.84,129.12 685.25,126.93 685.66,126.93 686.07,126.93 686.47,126.93 686.88,126.93 687.29,126.93 687.70,126.93 688.10,126.93 688.51,126.93 688.92,126.93 689.33,126.93 689.73,126.93 690.14,126.93 690.55,126.93 690.96,126.93 691.36,126.93 691.77,126.93 692.18,126.93 692.59,126.93 692.99,126.93 693.40,126.93 693.81,126.93 694.22,126.93 694.62,126.93 695.03,126.93 695.44,126.93 695.85,126.93 696.25,126.93 696.66,124.74 697.07,124.74 697.48,124.74 697.88,124.74 698.29,124.74 698.70,124.74 699.11,124.74 699.51,126.93 699.92,122.55 700.33,122.55 700.74,122.55 701.14,122.55 701.55,120.36 701.96,120.36 702.37,118.17 702.77,118.17 703.18,118.17 703.59,118.17 704.00,120.36 704.40,120.36 704.81,120.36 705.22,120.36 705.63,120.36 706.03,120.36 706.44,122.55 706.85,122.55 707.26,124.74 707.66,124.74 708.07,124.74 708.48,124.74 708.89,124.74 709.29,124.74 709.70,124.74 710.11,124.74 710.52,124.74 710.92,124.74 711.33,120.36 711.74,120.36 712.15,120.36 712.55,118.17 712.96,118.17 713.37,118.17 713.78,118.17 714.18,118.17 714.59,118.17 715.00,118.17 715.41,120.36 715.81,120.36 716.22,120.36 716.63,122.55 717.04,122.55 717.44,122.55 717.85,122.55 718.26,124.74 718.67,122.55 719.07,122.55 719.48,120.36 719.89,120.36 720.30,120.36 720.70,122.55 721.11,122.55 721.52,122.55 721.93,122.55 722.33,122.55 722.74,122.55 723.15,124.74 723.56,124.74 723.96,124.74 724.37,124.74 724.78,124.74 725.19,124.74 725.59,124.74 726.00,124.74 726.41,122.55 726.82,118.17 727.22,118.17 727.63,115.98 728.04,111.60 728.45,111.60 728.85,111.60 729.26,109.41 729.67,109.41 730.08,109.41 730.48,109.41 730.89,109.41 731.30,111.60 731.71,111.60 732.11,111.60 732.52,111.60 732.93,111.60 733.34,111.60 733.74,109.41 734.15,109.41 734.56,109.41 734.97,113.35 735.37,115.54 735.78,115.54 736.19,113.35 736.60,113.35 737.00,113.35 737.41,111.16 737.82,111.16 738.23,104.59 738.63,104.59 739.04,104.59 739.45,104.59 739.86,102.40 740.26,102.40 740.67,104.59 741.08,104.59 741.49,102.40 741.89,102.40 742.30,102.40 742.71,102.40 743.12,102.40 743.52,102.40 743.93,102.40 744.34,100.21 744.75,100.21 745.15,100.21 745.56,100.21 745.97,98.02 746.38,98.02 746.78,98.02 747.19,100.21 747.60,98.02 748.01,98.02 748.41,100.21 748.82,98.02 749.23,95.83 749.64,93.64 750.04,93.64 750.45,93.64 750.86,95.83 751.27,95.83 751.67,95.83 752.08,93.64 752.49,93.64 752.90,93.64 753.30,93.64 753.71,93.64 754.12,93.64 754.53,93.64 754.93,93.64 755.34,93.64 755.75,93.64 756.16,93.64 756.56,93.64 756.97,93.64 757.38,93.64 757.79,93.64 758.19,89.26 758.60,89.26 759.01,87.07 759.42,87.07 759.82,87.07 760.23,87.07 760.64,87.07 761.05,87.07 761.45,87.07 761.86,87.07 762.27,87.07 762.68,89.26 763.08,89.26 763.49,89.26 763.90,89.26 764.31,89.26 764.71,89.26 765.12,89.26 765.53,89.26 765.94,91.45 766.34,91.45 766.75,91.45 767.16,91.45 767.57,89.26 767.97,89.26 768.38,89.26 768.79,89.26 769.20,89.26 769.60,89.26 770.01,89.26 770.42,89.26 770.83,89.26 771.23,91.45 771.64,91.45 772.05,91.45 772.46,91.45 772.86,91.45 773.27,91.45 773.68,91.45 774.09,91.45 774.49,91.45 774.90,89.26 775.31,89.26 775.72,91.45 776.12,91.45 776.53,91.45 776.94,89.26 777.35,89.26 777.75,89.26 778.16,89.26 778.57,89.26 778.98,87.07 779.38,87.07 779.79,87.07 780.20,87.07 780.61,87.07 781.01,87.07 781.42,87.07 781.83,87.07 782.24,87.07 782.64,84.88 783.05,84.88 783.46,84.88 783.87,84.88 784.27,87.07 784.68,89.26 785.09,84.88 785.50,82.69 785.90,82.69 786.31,80.50 786.72,82.69 787.13,82.69 787.53,78.31 787.94,78.31 788.35,78.31 788.76,80.50 789.16,80.50 789.57,80.50 789.98,80.50 790.39,80.50 790.79,80.50 791.20,80.50 791.61,80.50 792.02,80.50 792.42,80.50 792.83,84.88 793.24,84.88 793.65,84.88 794.05,84.88 794.46,84.88 794.87,84.88 795.28,84.88 795.68,84.88 796.09,84.88 796.50,87.07 796.91,87.07 797.31,89.26 797.72,89.26 798.13,89.26 798.54,89.26 798.94,89.26 799.35,89.26 799.76,89.26 800.17,89.26 800.57,89.26 800.98,89.26 801.39,89.26 801.80,87.07 802.20,87.07 802.61,87.07 803.02,87.07 803.43,87.07 803.83,87.07 804.24,87.07 804.65,87.07 805.06,87.07 805.46,87.07 805.87,87.07 806.28,87.07 806.69,87.07 807.09,87.07 807.50,87.07 807.91,87.07 808.32,87.07 808.72,87.07 809.13,87.07 809.54,87.07 809.95,87.07 810.35,87.07 810.76,87.07 811.17,87.07 811.58,89.26 811.98,89.26 812.39,89.26 812.80,89.26 813.21,89.26 813.61,87.07 814.02,82.69 814.43,82.69 814.84,82.69 815.24,82.69 815.65,82.69 816.06,82.69 816.47,82.69 816.87,87.07 817.28,87.07 817.69,87.07 818.10,84.88 818.50,82.69 818.91,82.69 819.32,82.69 819.73,82.69 820.13,82.69 820.54,82.69 820.95,82.69 821.36,82.69 821.76,82.69 822.17,82.69 822.58,82.69 822.99,82.69 823.39,82.69 823.80,82.69 824.21,82.69 824.62,82.69 825.02,78.31 825.43,78.31 825.84,78.31 826.25,78.31 826.65,78.31 827.06,78.31 827.47,78.31 827.88,80.50 828.28,80.50 828.69,80.50 829.10,78.31 829.51,78.31 829.91,78.31 830.32,78.31 830.73,78.31 831.14,78.31 831.54,78.31 831.95,78.31 832.36,78.31 832.77,78.31 833.17,78.31 833.58,76.12 833.99,76.12 834.40,76.12 834.80,76.12 835.21,76.12 835.62,76.12 836.03,76.12 836.43,73.93 836.84,71.74 837.25,69.55 837.66,67.36 838.06,62.98 838.47,62.98 838.88,60.79 839.29,60.79 839.69,60.79 840.10,60.79 840.51,60.79 840.92,58.60 841.32,58.60 841.73,58.60 842.14,58.60 842.55,58.60 842.95,58.60 843.36,58.60 843.77,58.60 844.18,58.60 844.58,58.60 844.99,58.60 845.40,58.60 845.81,58.60 846.21,58.60 846.62,58.60 847.03,58.60 847.44,58.60 847.84,60.79 848.25,60.79 848.66,60.79 849.07,60.79 849.47,62.98 849.88,62.98 850.29,62.98 850.70,62.98 851.10,62.98 851.51,62.98 851.92,62.98 852.33,65.17 852.73,67.36 853.14,67.36 853.55,67.36 853.96,67.36 854.36,69.55 854.77,69.55 855.18,69.55 855.59,69.55 855.99,69.55 856.40,69.55 856.81,69.55 857.22,69.55 857.62,69.55 858.03,69.55 858.44,69.55 858.85,69.55 859.25,69.55 859.66,69.55 860.07,69.55 860.48,69.55 860.88,71.74 861.29,71.74 861.70,71.74 862.11,71.74 862.51,71.74 862.92,69.55 863.33,69.55 863.74,69.55 864.14,69.55 864.55,71.74 864.96,71.74 865.37,71.74 865.77,71.74 866.18,73.93 866.59,73.93 867.00,73.93 867.40,73.93 867.81,73.93 868.22,73.93 868.63,73.93 869.03,71.74 869.44,71.74 869.85,71.74 870.26,71.74 870.66,71.74 871.07,71.74 871.48,71.74 871.89,71.74 872.29,71.74 872.70,71.74 873.11,71.74 873.52,71.74 873.92,67.36 874.33,67.36 874.74,69.55 875.15,69.55 875.55,69.55 875.96,69.55 876.37,67.36 876.78,67.36 877.18,67.36 877.59,67.36 878.00,67.36 878.41,67.36 878.81,65.17 879.22,65.17 879.63,67.36 880.04,69.55 880.44,71.74 880.85,71.74 881.26,71.74 881.67,71.74 882.07,71.74 882.48,71.74 882.89,71.74 883.30,71.74 883.70,71.74 884.11,71.74 884.52,71.74 884.93,71.74 885.33,71.74 885.74,71.74 886.15,71.74 886.56,71.74 886.96,67.36 887.37,67.36 887.78,67.36 888.19,67.36 888.59,67.36 889.00,69.55 889.41,67.36 889.82,67.36 890.22,67.36 890.63,67.36 891.04,65.17 891.45,65.17 891.85,65.17 892.26,65.17 892.67,65.17 893.08,65.17 893.48,65.17 893.89,67.36 894.30,67.36 894.71,67.36 895.11,67.36 895.52,65.17 895.93,65.17 896.34,65.17 896.74,65.17 897.15,65.17 897.56,65.17 897.97,60.79 898.37,60.79 898.78,60.79 899.19,60.79 899.60,62.98 900.00,62.98"/>
<line x1="85" y1="445.33" x2="900" y2="445.33" stroke="#111827" stroke-width="1"/>
<line x1="85" y1="262.67" x2="85" y2="445.33" stroke="#111827" stroke-width="1"/>
<text x="73" y="276.67" text-anchor="end" font-family="Arial" font-size="12" fill="#111827">Reservation skew ticks</text>
<line x1="85" y1="445.33" x2="900" y2="445.33" stroke="#e5e7eb" stroke-width="1"/>
<text x="73" y="449.33" text-anchor="end" font-family="Arial" font-size="11" fill="#374151">-1</text>
<line x1="85" y1="354.00" x2="900" y2="354.00" stroke="#e5e7eb" stroke-width="1"/>
<text x="73" y="358.00" text-anchor="end" font-family="Arial" font-size="11" fill="#374151">0</text>
<line x1="85" y1="262.67" x2="900" y2="262.67" stroke="#e5e7eb" stroke-width="1"/>
<text x="73" y="266.67" text-anchor="end" font-family="Arial" font-size="11" fill="#374151">1</text>
<polyline fill="none" stroke="#dc2626" stroke-width="2" points="85.00,355.17 85.41,355.17 85.82,356.22 86.22,356.22 86.63,356.22 87.04,355.17 87.45,355.17 87.85,357.26 88.26,357.26 88.67,357.25 89.08,357.25 89.48,357.25 89.89,357.25 90.30,357.25 90.71,356.21 91.11,356.21 91.52,356.21 91.93,357.25 92.34,358.28 92.74,360.35 93.15,360.35 93.56,360.35 93.97,360.35 94.37,360.34 94.78,360.34 95.19,360.34 95.60,360.34 96.00,360.33 96.41,359.30 96.82,359.30 97.23,359.29 97.63,360.32 98.04,360.32 98.45,360.32 98.86,360.31 99.26,361.34 99.67,361.34 100.08,361.33 100.49,361.33 100.89,361.33 101.30,361.32 101.71,361.32 102.12,361.32 102.52,360.29 102.93,359.26 103.34,359.26 103.75,358.24 104.15,357.21 104.56,358.23 104.97,358.23 105.38,358.23 105.78,359.25 106.19,359.25 106.60,359.25 107.01,359.24 107.41,360.26 107.82,360.26 108.23,360.25 108.64,359.24 109.04,359.23 109.45,358.22 109.86,358.21 110.27,358.21 110.67,358.21 111.08,357.20 111.49,357.20 111.90,357.19 112.30,357.19 112.71,356.18 113.12,356.18 113.53,356.18 113.93,356.18 114.34,354.16 114.75,354.16 115.16,354.16 115.56,354.16 115.97,354.16 116.38,354.17 116.79,354.17 117.19,354.17 117.60,354.17 118.01,354.17 118.42,356.17 118.82,357.18 119.23,356.17 119.64,356.17 120.05,356.17 120.45,356.17 120.86,355.17 121.27,355.17 121.68,356.17 122.08,356.17 122.49,357.17 122.90,357.17 123.31,357.17 123.71,357.16 124.12,358.16 124.53,358.16 124.94,358.16 125.34,358.15 125.75,357.16 126.16,356.16 126.57,356.16 126.97,356.16 127.38,356.16 127.79,356.16 128.20,356.16 128.60,356.16 129.01,358.14 129.42,358.14 129.83,358.14 130.23,358.73 130.64,358.73 131.05,358.73 131.46,358.72 131.86,358.72 132.27,358.72 132.68,357.73 133.09,356.75 133.49,356.75 133.90,356.74 134.31,356.74 134.72,355.76 135.12,355.76 135.53,355.76 135.94,355.76 136.35,356.74 136.75,356.74 137.16,357.72 137.57,357.72 137.98,357.71 138.38,357.71 138.79,357.71 139.20,356.73 139.61,356.73 140.01,356.73 140.42,356.73 140.83,356.73 141.24,356.73 141.64,355.76 142.05,356.73 142.46,356.73 142.87,356.73 143.27,356.73 143.68,356.72 144.09,355.75 144.50,355.75 144.90,355.75 145.31,356.72 145.72,358.66 146.13,358.66 146.53,359.62 146.94,359.62 147.35,358.65 147.76,358.65 148.16,358.65 148.57,358.64 148.98,358.64 149.39,358.64 149.79,358.64 150.20,358.64 150.61,357.67 151.02,359.59 151.42,359.59 151.83,359.01 152.24,359.01 152.65,359.01 153.05,360.93 153.46,360.92 153.87,362.83 154.28,362.83 154.68,361.87 155.09,361.87 155.50,361.86 155.91,362.81 156.31,362.81 156.72,362.81 157.13,362.80 157.54,361.84 157.94,361.84 158.35,361.84 158.76,361.83 159.17,361.83 159.57,361.83 159.98,361.82 160.39,361.82 160.80,361.81 161.20,361.81 161.61,361.81 162.02,361.80 162.43,361.80 162.83,362.74 163.24,362.74 163.65,362.73 164.06,362.73 164.46,361.78 164.87,361.78 165.28,361.77 165.69,361.77 166.09,360.82 166.50,359.88 166.91,359.88 167.32,359.87 167.72,358.93 168.13,358.93 168.54,358.93 168.95,358.93 169.35,358.92 169.76,358.92 170.17,358.92 170.58,358.92 170.98,358.92 171.39,358.91 171.80,359.85 172.21,359.84 172.61,359.84 173.02,359.84 173.43,359.84 173.84,359.83 174.24,358.90 174.65,360.76 175.06,360.76 175.47,360.75 175.87,360.75 176.28,360.75 176.69,360.74 177.10,360.74 177.50,360.74 177.91,360.73 178.32,361.66 178.73,361.65 179.13,360.72 179.54,360.72 179.95,360.72 180.36,360.71 180.76,360.71 181.17,360.71 181.58,360.71 181.99,359.78 182.39,359.78 182.80,359.78 183.21,358.85 183.62,357.93 184.02,357.01 184.43,357.01 184.84,356.09 185.25,356.09 185.65,356.09 186.06,356.09 186.47,355.17 186.88,355.17 187.28,355.17 187.69,356.09 188.10,356.09 188.51,356.08 188.91,356.08 189.32,356.08 189.73,356.99 190.14,356.08 190.54,356.08 190.95,356.08 191.36,356.08 191.77,356.08 192.17,356.99 192.58,356.08 192.99,356.99 193.40,356.99 193.80,356.98 194.21,356.98 194.62,355.17 195.03,356.98 195.43,356.98 195.84,356.98 196.25,357.88 196.66,358.78 197.06,358.78 197.47,358.78 197.88,358.78 198.29,358.77 198.69,359.67 199.10,359.67 199.51,358.77 199.92,358.77 200.32,358.76 200.73,358.76 201.14,358.76 201.55,358.76 201.95,358.76 202.36,358.75 202.77,358.75 203.18,358.75 203.58,358.75 203.99,357.85 204.40,357.85 204.81,356.96 205.21,356.96 205.62,356.95 206.03,356.95 206.44,356.95 206.84,357.84 207.25,357.84 207.66,358.73 208.07,357.84 208.47,357.83 208.88,357.83 209.29,358.72 209.70,358.72 210.10,358.71 210.51,358.71 210.92,359.59 211.33,359.59 211.73,360.47 212.14,359.59 212.55,359.58 212.96,360.46 213.36,359.58 213.77,360.46 214.18,360.45 214.59,360.45 214.99,360.45 215.40,360.44 215.81,359.56 216.22,359.56 216.62,359.56 217.03,360.43 217.44,360.43 217.85,360.43 218.25,361.30 218.66,361.29 219.07,361.29 219.48,361.29 219.88,361.28 220.29,362.15 220.70,362.15 221.11,362.14 221.51,362.14 221.92,362.14 222.33,362.13 222.74,362.13 223.14,362.12 223.55,362.12 223.96,362.11 224.37,362.11 224.77,361.24 225.18,359.50 225.59,359.50 226.00,359.50 226.40,359.50 226.81,359.49 227.22,360.35 227.63,361.21 228.03,361.21 228.44,361.21 228.85,361.20 229.26,361.20 229.66,361.20 230.07,360.33 230.48,361.19 230.89,362.04 231.29,362.04 231.70,360.32 232.11,360.32 232.52,360.31 232.92,360.31 233.33,361.16 233.74,361.16 234.15,362.01 234.55,362.01 234.96,362.00 235.37,362.00 235.78,362.85 236.18,362.84 236.59,362.84 237.00,362.83 237.41,362.83 237.81,362.82 238.22,362.82 238.63,361.96 239.04,361.96 239.44,361.96 239.85,361.95 240.26,362.79 240.67,362.79 241.07,361.94 241.48,361.93 241.89,361.09 242.30,361.08 242.70,361.08 243.11,361.07 243.52,361.91 243.93,362.75 244.33,362.75 244.74,363.58 245.15,363.58 245.56,363.57 245.96,363.57 246.37,363.56 246.78,363.56 247.19,363.55 247.59,363.55 248.00,363.54 248.41,362.70 248.82,362.70 249.22,362.69 249.63,362.69 250.04,362.68 250.45,362.68 250.85,362.67 251.26,361.83 251.67,361.83 252.08,361.83 252.48,361.82 252.89,361.82 253.30,361.81 253.71,361.81 254.11,361.81 254.52,361.80 254.93,362.63 255.34,360.96 255.74,360.96 256.15,361.78 256.56,361.78 256.97,360.95 257.37,360.95 257.78,360.12 258.19,359.29 258.60,357.64 259.00,357.64 259.41,357.64 259.82,357.64 260.23,357.64 260.63,357.63 261.04,357.63 261.45,357.63 261.86,357.63 262.26,357.63 262.67,358.44 263.08,358.44 263.49,358.44 263.89,359.25 264.30,359.25 264.71,358.43 265.12,358.43 265.52,358.43 265.93,358.43 266.34,359.24 266.75,359.24 267.15,359.23 267.56,358.42 267.97,358.42 268.38,358.41 268.78,358.41 269.19,359.22 269.60,358.41 270.01,357.60 270.41,357.60 270.82,356.79 271.23,356.79 271.64,356.78 272.04,356.78 272.45,356.78 272.86,356.78 273.27,356.78 273.67,356.78 274.08,355.97 274.49,355.97 274.90,355.97 275.30,355.17 275.71,355.17 276.12,355.17 276.53,354.37 276.93,354.37 277.34,353.57 277.75,354.37 278.16,355.17 278.56,355.17 278.97,355.17 279.38,356.76 279.79,356.76 280.19,356.76 280.60,356.76 281.01,357.56 281.42,357.55 281.82,357.55 282.23,357.55 282.64,357.55 283.05,357.55 283.45,356.75 283.86,356.75 284.27,355.96 284.68,355.96 285.08,355.96 285.49,356.75 285.90,356.75 286.31,356.75 286.71,356.75 287.12,356.74 287.53,356.74 287.94,356.74 288.34,356.74 288.75,356.74 289.16,356.74 289.57,356.74 289.97,356.74 290.38,356.74 290.79,356.74 291.20,356.73 291.60,356.73 292.01,356.73 292.42,356.73 292.83,355.95 293.23,355.95 293.64,355.95 294.05,355.95 294.46,356.73 294.86,356.72 295.27,356.72 295.68,356.72 296.09,356.72 296.49,357.50 296.90,357.49 297.31,357.49 297.72,357.49 298.12,357.49 298.53,357.49 298.94,357.49 299.35,357.48 299.75,357.48 300.16,357.48 300.57,356.71 300.98,357.48 301.38,358.25 301.79,358.24 302.20,358.24 302.61,359.01 303.01,359.00 303.42,359.00 303.83,359.00 304.24,359.00 304.64,358.99 305.05,359.75 305.46,359.75 305.87,359.75 306.27,359.74 306.68,359.74 307.09,360.50 307.50,360.50 307.90,360.49 308.31,361.25 308.72,359.73 309.13,358.96 309.53,358.96 309.94,358.96 310.35,359.71 310.76,361.98 311.16,361.98 311.57,361.22 311.98,360.46 312.39,360.45 312.79,360.45 313.20,359.69 313.61,359.69 314.02,359.69 314.42,359.68 314.83,359.68 315.24,359.68 315.65,358.92 316.05,358.92 316.46,358.92 316.87,358.91 317.28,358.16 317.68,357.41 318.09,357.41 318.50,356.66 318.91,357.41 319.31,357.41 319.72,357.41 320.13,357.40 320.54,357.40 320.94,358.14 321.35,358.14 321.76,358.88 322.17,358.88 322.57,358.88 322.98,358.88 323.39,358.87 323.80,359.61 324.20,359.61 324.61,359.60 325.02,359.60 325.43,358.86 325.83,358.86 326.24,358.85 326.65,358.12 327.06,358.11 327.46,358.11 327.87,358.11 328.28,358.11 328.69,358.11 329.09,358.84 329.50,358.10 329.91,358.10 330.32,356.63 330.72,355.90 331.13,356.63 331.54,356.63 331.95,356.63 332.35,356.63 332.76,356.63 333.17,356.63 333.58,356.63 333.98,356.62 334.39,356.62 334.80,356.62 335.21,356.62 335.61,356.62 336.02,358.07 336.43,358.07 336.84,358.06 337.24,358.06 337.65,358.06 338.06,358.06 338.47,358.05 338.87,358.05 339.28,358.05 339.69,358.05 340.10,358.77 340.50,358.76 340.91,358.04 341.32,358.04 341.73,358.04 342.13,358.04 342.54,357.32 342.95,357.32 343.36,357.32 343.76,357.31 344.17,357.31 344.58,357.31 344.99,358.02 345.39,358.02 345.80,358.02 346.21,358.02 346.62,358.01 347.02,358.01 347.43,358.01 347.84,358.01 348.25,358.71 348.65,358.71 349.06,358.71 349.47,358.71 349.88,358.70 350.28,358.70 350.69,358.70 351.10,358.69 351.51,358.69 351.91,358.69 352.32,358.69 352.73,358.68 353.14,359.38 353.54,359.38 353.95,359.38 354.36,359.37 354.77,358.67 355.17,358.67 355.58,358.67 355.99,358.66 356.40,358.66 356.80,358.66 357.21,358.66 357.62,358.65 358.03,358.65 358.43,358.65 358.84,358.65 359.25,357.95 359.66,357.95 360.06,358.64 360.47,358.63 360.88,358.63 361.29,358.63 361.69,358.63 362.10,357.93 362.51,357.93 362.92,357.93 363.32,357.93 363.73,357.93 364.14,357.92 364.55,357.92 364.95,357.92 365.36,357.92 365.77,357.91 366.18,356.54 366.58,355.86 366.99,355.86 367.40,355.85 367.81,355.85 368.21,355.85 368.62,355.85 369.03,355.85 369.44,355.17 369.84,355.17 370.25,354.49 370.66,354.49 371.07,355.17 371.47,355.17 371.88,355.17 372.29,355.17 372.70,355.17 373.10,355.17 373.51,355.17 373.92,355.17 374.33,355.17 374.73,354.50 375.14,353.82 375.55,353.82 375.96,353.83 376.36,354.50 376.77,354.50 377.18,355.71 377.59,355.71 377.99,356.38 378.40,356.38 378.81,356.38 379.22,356.37 379.62,356.37 380.03,356.37 380.44,356.37 380.85,356.37 381.25,356.37 381.66,356.37 382.07,356.37 382.48,356.37 382.88,356.37 383.29,356.37 383.70,356.36 384.11,356.36 384.51,356.36 384.92,356.36 385.33,356.36 385.74,356.36 386.14,356.36 386.55,356.36 386.96,355.70 387.37,355.70 387.77,355.70 388.18,355.70 388.59,355.70 389.00,355.04 389.40,355.04 389.81,355.04 390.22,355.04 390.63,355.04 391.03,355.04 391.44,355.04 391.85,355.04 392.26,355.04 392.66,355.04 393.07,355.04 393.48,355.04 393.89,355.04 394.29,355.69 394.70,355.69 395.11,355.69 395.52,356.34 395.92,356.98 396.33,356.98 396.74,356.33 397.15,356.33 397.55,356.33 397.96,356.33 398.37,356.33 398.78,356.33 399.18,356.33 399.59,356.33 400.00,356.97 400.41,356.97 400.81,356.97 401.22,357.60 401.63,356.96 402.04,356.96 402.44,357.60 402.85,357.60 403.26,358.23 403.67,358.23 404.07,358.23 404.48,358.22 404.89,357.59 405.30,357.58 405.70,357.58 406.11,357.58 406.52,357.58 406.93,357.58 407.33,357.57 407.74,357.57 408.15,358.08 408.56,357.44 408.96,357.44 409.37,357.44 409.78,357.44 410.19,357.44 410.59,358.06 411.00,358.06 411.41,358.06 411.82,358.05 412.22,358.05 412.63,358.05 413.04,358.05 413.45,358.04 413.85,358.04 414.26,358.04 414.67,358.04 415.08,358.66 415.48,358.65 415.89,358.65 416.30,358.65 416.71,358.65 417.11,358.64 417.52,358.64 417.93,358.64 418.34,359.25 418.74,359.25 419.15,359.25 419.56,359.86 419.97,359.86 420.37,359.85 420.78,361.08 421.19,361.07 421.60,361.07 422.00,361.06 422.41,361.06 422.82,361.05 423.23,361.66 423.63,361.65 424.04,361.65 424.45,361.64 424.86,361.64 425.26,361.63 425.67,361.63 426.08,361.62 426.49,361.62 426.89,361.61 427.30,361.60 427.71,361.60 428.12,362.20 428.52,362.19 428.93,362.19 429.34,362.18 429.75,362.17 430.15,362.17 430.56,362.16 430.97,362.16 431.38,362.15 431.78,362.14 432.19,362.14 432.60,362.13 433.01,362.13 433.41,362.12 433.82,362.11 434.23,361.51 434.64,361.50 435.04,361.50 435.45,361.49 435.86,361.49 436.27,361.48 436.67,361.48 437.08,360.88 437.49,360.87 437.90,360.87 438.30,360.86 438.71,360.26 439.12,360.26 439.53,360.26 439.93,360.25 440.34,359.66 440.75,359.65 441.16,359.65 441.56,359.64 441.97,359.64 442.38,359.64 442.79,359.63 443.19,359.63 443.60,359.62 444.01,360.21 444.42,360.20 444.82,359.61 445.23,359.61 445.64,359.60 446.05,359.60 446.45,359.60 446.86,359.59 447.27,359.59 447.68,359.58 448.08,359.58 448.49,359.00 448.90,358.99 449.31,358.99 449.71,359.56 450.12,359.56 450.53,359.56 450.94,359.55 451.34,360.12 451.75,360.12 452.16,360.12 452.57,360.11 452.97,360.11 453.38,360.10 453.79,360.10 454.20,360.09 454.60,360.09 455.01,360.66 455.42,361.22 455.83,361.22 456.23,360.64 456.64,360.64 457.05,360.63 457.46,360.63 457.86,360.62 458.27,361.18 458.68,361.18 459.09,360.61 459.49,360.60 459.90,360.60 460.31,360.59 460.72,360.59 461.12,360.58 461.53,360.58 461.94,360.57 462.35,360.57 462.75,360.56 463.16,360.56 463.57,361.11 463.98,361.11 464.38,361.10 464.79,361.09 465.20,361.09 465.61,360.53 466.01,360.52 466.42,360.52 466.83,360.51 467.24,359.95 467.64,359.39 468.05,359.39 468.46,358.83 468.87,357.72 469.27,357.71 469.68,357.16 470.09,357.16 470.50,357.16 470.90,357.15 471.31,357.15 471.72,357.15 472.13,357.15 472.53,357.15 472.94,357.15 473.35,357.14 473.76,357.14 474.16,357.14 474.57,357.68 474.98,357.68 475.39,357.13 475.79,357.13 476.20,357.13 476.61,357.13 477.02,357.13 477.42,357.12 477.83,357.12 478.24,356.58 478.65,356.58 479.05,356.58 479.46,356.03 479.87,356.03 480.28,356.03 480.68,356.03 481.09,355.49 481.50,355.49 481.91,355.49 482.31,355.49 482.72,355.49 483.13,355.49 483.54,356.03 483.94,356.03 484.35,354.96 484.76,354.96 485.17,355.49 485.57,355.49 485.98,355.49 486.39,355.49 486.80,355.49 487.20,355.49 487.61,355.49 488.02,354.96 488.43,354.43 488.83,354.43 489.24,353.91 489.65,353.91 490.06,353.91 490.46,353.38 490.87,353.39 491.28,353.39 491.69,353.39 492.09,353.39 492.50,353.39 492.91,352.87 493.32,352.87 493.72,352.88 494.13,352.88 494.54,352.88 494.95,352.88 495.35,352.89 495.76,353.41 496.17,353.41 496.58,353.41 496.98,353.41 497.39,353.41 497.80,353.42 498.21,352.90 498.61,352.90 499.02,352.91 499.43,352.91 499.84,352.91 500.24,352.91 500.65,352.92 501.06,352.92 501.47,352.41 501.87,352.92 502.28,352.92 502.69,352.93 503.10,352.93 503.50,352.93 503.91,353.95 504.32,353.44 504.73,353.45 505.13,353.45 505.54,353.96 505.95,353.96 506.36,352.95 506.76,353.96 507.17,354.47 507.58,354.47 507.99,354.47 508.39,354.47 508.80,354.47 509.21,354.47 509.62,353.97 510.02,353.97 510.43,353.97 510.84,354.47 511.25,354.47 511.65,354.47 512.06,354.47 512.47,354.47 512.88,354.48 513.28,354.48 513.69,354.48 514.10,354.48 514.51,354.48 514.91,353.98 515.32,353.49 515.73,353.49 516.14,353.50 516.54,353.00 516.95,352.52 517.36,352.52 517.77,352.52 518.17,352.03 518.58,352.04 518.99,352.04 519.40,352.04 519.80,351.56 520.21,351.56 520.62,350.59 521.03,350.11 521.43,350.12 521.84,350.12 522.25,350.13 522.66,350.62 523.06,351.59 523.47,351.59 523.88,352.56 524.29,352.57 524.69,352.09 525.10,352.09 525.51,352.09 525.92,352.10 526.32,352.10 526.73,352.10 527.14,352.11 527.55,352.11 527.95,352.11 528.36,351.64 528.77,351.64 529.18,351.65 529.58,351.65 529.99,351.66 530.40,351.80 530.81,351.81 531.21,351.34 531.62,351.34 532.03,350.87 532.44,350.88 532.84,351.35 533.25,351.36 533.66,350.42 534.07,349.49 534.47,349.96 534.88,349.97 535.29,349.97 535.70,349.98 536.10,349.99 536.51,349.52 536.92,349.06 537.33,349.07 537.73,349.08 538.14,349.08 538.55,349.09 538.96,349.10 539.36,349.11 539.77,349.11 540.18,349.12 540.59,349.13 540.99,349.13 541.40,349.14 541.81,349.15 542.22,348.69 542.62,348.70 543.03,348.71 543.44,348.72 543.85,347.35 544.25,347.36 544.66,347.37 545.07,346.92 545.48,346.93 545.88,346.49 546.29,346.95 546.70,346.96 547.11,347.42 547.51,346.98 547.92,346.99 548.33,347.00 548.74,347.01 549.14,347.02 549.55,347.03 549.96,347.49 550.37,347.94 550.77,348.40 551.18,348.41 551.59,347.07 552.00,347.08 552.40,347.09 552.81,346.66 553.22,345.78 553.63,345.34 554.03,345.35 554.44,345.37 554.85,345.38 555.26,344.95 555.66,344.96 556.07,344.97 556.48,344.54 556.89,344.55 557.29,344.57 557.70,344.58 558.11,344.59 558.52,344.60 558.92,344.62 559.33,344.63 559.74,344.64 560.15,344.66 560.55,344.67 560.96,344.68 561.37,344.69 561.78,344.71 562.18,344.72 562.59,344.73 563.00,344.74 563.41,344.76 563.81,344.77 564.22,344.78 564.63,344.79 565.04,344.81 565.44,344.82 565.85,344.83 566.26,344.42 566.67,344.43 567.07,344.44 567.48,344.46 567.89,344.89 568.30,344.91 568.70,344.49 569.11,344.93 569.52,344.95 569.93,344.96 570.33,344.97 570.74,344.98 571.15,345.00 571.56,345.01 571.96,345.02 572.37,345.03 572.78,345.05 573.19,345.06 573.59,345.07 574.00,345.08 574.41,345.10 574.82,345.11 575.22,345.12 575.63,345.13 576.04,345.15 576.45,345.16 576.85,345.17 577.26,345.18 577.67,345.61 578.08,346.04 578.48,346.05 578.89,346.06 579.30,346.07 579.71,346.49 580.11,346.51 580.52,346.93 580.93,347.35 581.34,347.36 581.74,347.37 582.15,347.38 582.56,347.39 582.97,347.40 583.37,347.41 583.78,347.42 584.19,347.43 584.60,347.44 585.01,347.45 585.41,347.46 585.82,347.47 586.23,347.48 586.64,346.68 587.04,346.69 587.45,346.70 587.86,347.12 588.27,347.13 588.67,347.14 589.08,347.15 589.49,347.16 589.90,347.17 590.30,347.18 590.71,346.79 591.12,346.80 591.53,346.81 591.93,346.83 592.34,346.84 592.75,346.85 593.16,346.86 593.56,346.87 593.97,346.88 594.38,346.89 594.79,346.90 595.19,346.91 595.60,347.32 596.01,347.33 596.42,347.73 596.82,347.74 597.23,347.75 597.64,347.37 598.05,347.38 598.45,347.00 598.86,346.63 599.27,346.64 599.68,346.65 600.08,346.66 600.49,346.67 600.90,346.68 601.31,346.70 601.71,346.71 602.12,346.72 602.53,346.73 602.94,346.74 603.34,346.75 603.75,347.15 604.16,347.16 604.57,346.79 604.97,346.80 605.38,346.81 605.79,346.82 606.20,347.21 606.60,347.22 607.01,347.23 607.42,347.24 607.83,346.88 608.23,346.89 608.64,346.90 609.05,346.92 609.46,346.93 609.86,346.94 610.27,346.95 610.68,346.96 611.09,346.97 611.49,346.98 611.90,347.37 612.31,347.01 612.72,347.02 613.12,347.03 613.53,347.04 613.94,347.05 614.35,347.43 614.75,347.81 615.16,347.82 615.57,347.83 615.98,347.84 616.38,347.85 616.79,347.86 617.20,347.51 617.61,347.52 618.01,347.53 618.42,347.54 618.83,347.92 619.24,347.93 619.64,347.94 620.05,347.95 620.46,347.96 620.87,347.97 621.27,347.98 621.68,347.99 622.09,348.00 622.50,348.01 622.90,348.02 623.31,347.68 623.72,347.33 624.13,347.34 624.53,347.35 624.94,347.37 625.35,347.38 625.76,347.39 626.16,347.40 626.57,347.76 626.98,347.77 627.39,347.79 627.79,347.80 628.20,347.81 628.61,348.17 629.02,347.83 629.42,347.49 629.83,347.16 630.24,347.17 630.65,347.18 631.05,347.19 631.46,347.21 631.87,347.22 632.28,347.23 632.68,347.24 633.09,347.26 633.50,347.27 633.91,347.28 634.31,347.29 634.72,347.64 635.13,347.66 635.54,347.67 635.94,347.68 636.35,347.69 636.76,347.70 637.17,347.71 637.57,347.72 637.98,348.07 638.39,348.42 638.80,348.09 639.20,348.11 639.61,348.12 640.02,348.46 640.43,348.47 640.83,348.15 641.24,348.16 641.65,348.17 642.06,348.18 642.46,347.86 642.87,347.88 643.28,347.89 643.69,347.90 644.09,347.91 644.50,347.92 644.91,347.93 645.32,347.94 645.72,348.28 646.13,348.29 646.54,348.30 646.95,348.32 647.35,348.33 647.76,348.34 648.17,348.67 648.58,348.68 648.98,348.37 649.39,348.38 649.80,348.39 650.21,348.72 650.61,348.74 651.02,348.75 651.43,348.76 651.84,348.77 652.24,349.10 652.65,349.11 653.06,349.12 653.47,349.13 653.87,349.45 654.28,349.46 654.69,349.47 655.10,349.48 655.50,349.49 655.91,349.50 656.32,349.51 656.73,349.52 657.13,349.53 657.54,349.54 657.95,349.86 658.36,350.18 658.76,349.26 659.17,348.96 659.58,348.97 659.99,348.98 660.39,348.99 660.80,349.00 661.21,348.70 661.62,348.71 662.02,348.72 662.43,348.74 662.84,348.75 663.25,348.76 663.65,348.77 664.06,348.78 664.47,348.79 664.88,348.80 665.28,348.81 665.69,348.82 666.10,348.83 666.51,348.85 666.91,348.86 667.32,348.87 667.73,348.88 668.14,348.89 668.54,348.90 668.95,348.62 669.36,348.63 669.77,348.64 670.17,348.65 670.58,348.66 670.99,348.67 671.40,348.39 671.80,348.40 672.21,348.42 672.62,348.43 673.03,348.44 673.43,348.45 673.84,348.46 674.25,348.48 674.66,348.20 675.06,347.92 675.47,347.94 675.88,347.95 676.29,347.96 676.69,347.97 677.10,347.99 677.51,348.00 677.92,348.01 678.32,348.03 678.73,348.04 679.14,348.05 679.55,348.07 679.95,348.08 680.36,348.09 680.77,348.11 681.18,348.12 681.58,348.13 681.99,347.87 682.40,347.60 682.81,347.61 683.21,347.63 683.62,347.64 684.03,347.38 684.44,347.39 684.84,347.41 685.25,347.15 685.66,347.16 686.07,347.18 686.47,347.19 686.88,347.21 687.29,347.22 687.70,347.24 688.10,347.25 688.51,347.27 688.92,347.28 689.33,347.30 689.73,347.32 690.14,347.33 690.55,347.35 690.96,347.36 691.36,347.38 691.77,347.39 692.18,347.41 692.59,347.42 692.99,347.44 693.40,347.45 693.81,347.47 694.22,347.48 694.62,347.50 695.03,347.51 695.44,347.53 695.85,347.54 696.25,347.56 696.66,347.31 697.07,347.33 697.48,347.34 697.88,347.36 698.29,347.38 698.70,347.39 699.11,347.41 699.51,347.68 699.92,347.18 700.33,347.20 700.74,347.21 701.14,347.23 701.55,346.99 701.96,347.01 702.37,346.77 702.77,346.79 703.18,346.81 703.59,346.82 704.00,347.09 704.40,347.11 704.81,347.13 705.22,347.14 705.63,347.16 706.03,347.18 706.44,347.44 706.85,347.46 707.26,347.72 707.66,347.74 708.07,347.75 708.48,347.77 708.89,347.79 709.29,347.80 709.70,347.82 710.11,347.83 710.52,347.85 710.92,347.86 711.33,347.40 711.74,347.41 712.15,347.43 712.55,347.21 712.96,347.22 713.37,347.24 713.78,347.26 714.18,347.27 714.59,347.29 715.00,347.31 715.41,347.56 715.81,347.58 716.22,347.60 716.63,347.85 717.04,347.87 717.44,347.88 717.85,347.90 718.26,348.15 718.67,347.93 719.07,347.95 719.48,347.73 719.89,347.75 720.30,347.76 720.70,348.01 721.11,348.03 721.52,348.04 721.93,348.06 722.33,348.08 722.74,348.09 723.15,348.34 723.56,348.35 723.96,348.37 724.37,348.38 724.78,348.40 725.19,348.42 725.59,348.43 726.00,348.45 726.41,348.24 726.82,347.81 727.22,347.83 727.63,347.62 728.04,347.20 728.45,347.22 728.85,347.24 729.26,347.04 729.67,347.06 730.08,347.08 730.48,347.10 730.89,347.12 731.30,347.35 731.71,347.37 732.11,347.39 732.52,347.41 732.93,347.43 733.34,347.45 733.74,347.25 734.15,347.27 734.56,347.29 734.97,347.69 735.37,347.92 735.78,347.94 736.19,347.75 736.60,347.77 737.00,347.78 737.41,347.59 737.82,347.61 738.23,347.01 738.63,347.03 739.04,347.05 739.45,347.07 739.86,346.89 740.26,346.91 740.67,347.13 741.08,347.15 741.49,346.97 741.89,346.99 742.30,347.01 742.71,347.03 743.12,347.05 743.52,347.07 743.93,347.10 744.34,346.92 744.75,346.94 745.15,346.96 745.56,346.98 745.97,346.81 746.38,346.83 746.78,346.85 747.19,347.07 747.60,346.89 748.01,346.92 748.41,347.13 748.82,346.96 749.23,346.79 749.64,346.62 750.04,346.64 750.45,346.67 750.86,346.88 751.27,346.90 751.67,346.93 752.08,346.76 752.49,346.78 752.90,346.80 753.30,346.83 753.71,346.85 754.12,346.87 754.53,346.90 754.93,346.92 755.34,346.94 755.75,346.97 756.16,346.99 756.56,347.01 756.97,347.04 757.38,347.06 757.79,347.08 758.19,346.74 758.60,346.77 759.01,346.61 759.42,346.63 759.82,346.66 760.23,346.68 760.64,346.71 761.05,346.73 761.45,346.76 761.86,346.78 762.27,346.81 762.68,347.01 763.08,347.03 763.49,347.06 763.90,347.08 764.31,347.10 764.71,347.13 765.12,347.15 765.53,347.18 765.94,347.37 766.34,347.40 766.75,347.42 767.16,347.44 767.57,347.30 767.97,347.32 768.38,347.35 768.79,347.37 769.20,347.40 769.60,347.42 770.01,347.44 770.42,347.47 770.83,347.49 771.23,347.68 771.64,347.71 772.05,347.73 772.46,347.75 772.86,347.78 773.27,347.80 773.68,347.82 774.09,347.85 774.49,347.87 774.90,347.73 775.31,347.76 775.72,347.94 776.12,347.97 776.53,347.99 776.94,347.86 777.35,347.88 777.75,347.90 778.16,347.93 778.57,347.95 778.98,347.82 779.38,347.85 779.79,347.87 780.20,347.90 780.61,347.92 781.01,347.95 781.42,347.97 781.83,347.99 782.24,348.02 782.64,347.89 783.05,347.92 783.46,347.94 783.87,347.97 784.27,348.14 784.68,348.32 785.09,348.05 785.50,347.92 785.90,347.95 786.31,347.83 786.72,348.00 787.13,348.03 787.53,347.76 787.94,347.79 788.35,347.82 788.76,347.99 789.16,348.01 789.57,348.04 789.98,348.07 790.39,348.09 790.79,348.12 791.20,348.14 791.61,348.17 792.02,348.20 792.42,348.22 792.83,348.53 793.24,348.55 793.65,348.58 794.05,348.60 794.46,348.63 794.87,348.65 795.28,348.68 795.68,348.70 796.09,348.73 796.50,348.89 796.91,348.91 797.31,349.07 797.72,349.09 798.13,349.12 798.54,349.14 798.94,349.16 799.35,349.19 799.76,349.21 800.17,349.24 800.57,349.26 800.98,349.28 801.39,349.31 801.80,349.21 802.20,349.23 802.61,349.26 803.02,349.28 803.43,349.31 803.83,349.33 804.24,349.36 804.65,349.38 805.06,349.41 805.46,349.43 805.87,349.45 806.28,349.48 806.69,349.50 807.09,349.53 807.50,349.55 807.91,349.58 808.32,349.60 808.72,349.63 809.13,349.65 809.54,349.68 809.95,349.70 810.35,349.73 810.76,349.75 811.17,349.78 811.58,349.91 811.98,349.94 812.39,349.96 812.80,349.99 813.21,350.01 813.61,349.92 814.02,349.73 814.43,349.75 814.84,349.78 815.24,349.81 815.65,349.83 816.06,349.86 816.47,349.88 816.87,350.12 817.28,350.15 817.69,350.17 818.10,350.09 818.50,350.01 818.91,350.04 819.32,350.06 819.73,350.09 820.13,350.12 820.54,350.14 820.95,350.17 821.36,350.19 821.76,350.22 822.17,350.24 822.58,350.27 822.99,350.30 823.39,350.32 823.80,350.35 824.21,350.37 824.62,350.40 825.02,350.23 825.43,350.26 825.84,350.29 826.25,350.31 826.65,350.34 827.06,350.37 827.47,350.39 827.88,350.51 828.28,350.54 828.69,350.57 829.10,350.50 829.51,350.53 829.91,350.55 830.32,350.58 830.73,350.61 831.14,350.64 831.54,350.66 831.95,350.69 832.36,350.72 832.77,350.74 833.17,350.77 833.58,350.71 833.99,350.74 834.40,350.77 834.80,350.79 835.21,350.82 835.62,350.85 836.03,350.88 836.43,350.82 836.84,350.77 837.25,350.72 837.66,350.66 838.06,350.54 838.47,350.57 838.88,350.52 839.29,350.55 839.69,350.58 840.10,350.61 840.51,350.64 840.92,350.60 841.32,350.63 841.73,350.66 842.14,350.69 842.55,350.72 842.95,350.75 843.36,350.79 843.77,350.82 844.18,350.85 844.58,350.88 844.99,350.91 845.40,350.94 845.81,350.98 846.21,351.01 846.62,351.04 847.03,351.07 847.44,351.10 847.84,351.20 848.25,351.23 848.66,351.26 849.07,351.29 849.47,351.39 849.88,351.42 850.29,351.45 850.70,351.48 851.10,351.51 851.51,351.54 851.92,351.57 852.33,351.66 852.73,351.75 853.14,351.78 853.55,351.81 853.96,351.84 854.36,351.93 854.77,351.96 855.18,351.99 855.59,352.02 855.99,352.05 856.40,352.08 856.81,352.10 857.22,352.13 857.62,352.16 858.03,352.19 858.44,352.22 858.85,352.25 859.25,352.28 859.66,352.31 860.07,352.34 860.48,352.36 860.88,352.44 861.29,352.47 861.70,352.50 862.11,352.53 862.51,352.56 862.92,352.54 863.33,352.57 863.74,352.60 864.14,352.63 864.55,352.70 864.96,352.73 865.37,352.76 865.77,352.78 866.18,352.86 866.59,352.88 867.00,352.91 867.40,352.94 867.81,352.97 868.22,353.00 868.63,353.02 869.03,353.01 869.44,353.04 869.85,353.07 870.26,353.10 870.66,353.13 871.07,353.15 871.48,353.18 871.89,353.21 872.29,353.24 872.70,353.27 873.11,353.30 873.52,353.32 873.92,353.29 874.33,353.32 874.74,353.38 875.15,353.41 875.55,353.44 875.96,353.46 876.37,353.46 876.78,353.49 877.18,353.52 877.59,353.55 878.00,353.58 878.41,353.61 878.81,353.61 879.22,353.64 879.63,353.70 880.04,353.75 880.44,353.81 880.85,353.84 881.26,353.86 881.67,353.89 882.07,353.92 882.48,353.95 882.89,353.98 883.30,354.01 883.70,354.04 884.11,354.06 884.52,354.09 884.93,354.12 885.33,354.15 885.74,354.18 886.15,354.21 886.56,354.23 886.96,354.23 887.37,354.26 887.78,354.29 888.19,354.32 888.59,354.35 889.00,354.39 889.41,354.41 889.82,354.44 890.22,354.46 890.63,354.49 891.04,354.51 891.45,354.54 891.85,354.57 892.26,354.60 892.67,354.63 893.08,354.66 893.48,354.69 893.89,354.73 894.30,354.76 894.71,354.79 895.11,354.82 895.52,354.84 895.93,354.87 896.34,354.90 896.74,354.93 897.15,354.96 897.56,354.99 897.97,355.02 898.37,355.05 898.78,355.08 899.19,355.11 899.60,355.14 900.00,355.17"/>
<line x1="85" y1="662.00" x2="900" y2="662.00" stroke="#111827" stroke-width="1"/>
<line x1="85" y1="479.33" x2="85" y2="662.00" stroke="#111827" stroke-width="1"/>
<text x="73" y="493.33" text-anchor="end" font-family="Arial" font-size="12" fill="#111827">Reference mid</text>
<line x1="85" y1="662.00" x2="900" y2="662.00" stroke="#e5e7eb" stroke-width="1"/>
<text x="73" y="666.00" text-anchor="end" font-family="Arial" font-size="11" fill="#374151">99822</text>
<line x1="85" y1="570.67" x2="900" y2="570.67" stroke="#e5e7eb" stroke-width="1"/>
<text x="73" y="574.67" text-anchor="end" font-family="Arial" font-size="11" fill="#374151">100250</text>
<line x1="85" y1="479.33" x2="900" y2="479.33" stroke="#e5e7eb" stroke-width="1"/>
<text x="73" y="483.33" text-anchor="end" font-family="Arial" font-size="11" fill="#374151">100679</text>
<polyline fill="none" stroke="#059669" stroke-width="2" points="85.00,623.99 85.41,624.59 85.82,626.03 86.22,627.02 86.63,627.24 87.04,625.59 87.45,624.03 87.85,623.54 88.26,625.45 88.67,626.11 89.08,623.53 89.48,625.63 89.89,624.41 90.30,623.90 90.71,625.24 91.11,622.06 91.52,620.85 91.93,621.61 92.34,619.91 92.74,621.16 93.15,618.68 93.56,617.66 93.97,615.94 94.37,616.79 94.78,616.87 95.19,614.34 95.60,612.53 96.00,612.77 96.41,612.86 96.82,610.65 97.23,610.15 97.63,610.47 98.04,608.39 98.45,606.24 98.86,604.27 99.26,603.99 99.67,604.50 100.08,604.91 100.49,601.31 100.89,603.05 101.30,603.79 101.71,602.94 102.12,599.57 102.52,600.03 102.93,598.68 103.34,598.06 103.75,598.55 104.15,596.33 104.56,595.29 104.97,595.80 105.38,596.30 105.78,596.01 106.19,595.33 106.60,595.19 107.01,594.23 107.41,595.32 107.82,593.95 108.23,591.68 108.64,592.23 109.04,593.31 109.45,595.17 109.86,595.36 110.27,594.94 110.67,593.21 111.08,594.19 111.49,593.01 111.90,591.78 112.30,593.41 112.71,591.40 113.12,590.69 113.53,589.19 113.93,590.38 114.34,589.39 114.75,592.42 115.16,593.06 115.56,593.55 115.97,591.62 116.38,594.49 116.79,591.75 117.19,593.74 117.60,594.01 118.01,595.24 118.42,593.64 118.82,597.68 119.23,598.41 119.64,598.46 120.05,596.75 120.45,596.60 120.86,598.02 121.27,598.11 121.68,600.65 122.08,598.49 122.49,599.18 122.90,593.25 123.31,597.71 123.71,597.03 124.12,599.66 124.53,597.17 124.94,596.42 125.34,597.00 125.75,593.80 126.16,592.05 126.57,595.52 126.97,594.69 127.38,595.70 127.79,596.65 128.20,597.55 128.60,598.89 129.01,599.42 129.42,598.68 129.83,599.12 130.23,601.36 130.64,603.59 131.05,607.99 131.46,608.50 131.86,607.87 132.27,605.58 132.68,603.31 133.09,604.87 133.49,605.89 133.90,605.56 134.31,606.17 134.72,606.68 135.12,604.67 135.53,604.65 135.94,605.46 136.35,605.66 136.75,607.58 137.16,608.16 137.57,607.92 137.98,606.03 138.38,603.41 138.79,603.95 139.20,603.82 139.61,600.16 140.01,602.29 140.42,601.44 140.83,600.33 141.24,601.82 141.64,601.59 142.05,602.48 142.46,601.88 142.87,603.92 143.27,603.41 143.68,604.16 144.09,604.38 144.50,605.22 144.90,604.52 145.31,603.36 145.72,602.86 146.13,603.45 146.53,605.52 146.94,606.19 147.35,605.97 147.76,607.61 148.16,609.37 148.57,608.12 148.98,612.05 149.39,610.24 149.79,608.93 150.20,607.83 150.61,605.21 151.02,605.36 151.42,603.82 151.83,604.82 152.24,603.55 152.65,603.20 153.05,604.16 153.46,604.23 153.87,604.04 154.28,607.22 154.68,606.90 155.09,608.76 155.50,606.98 155.91,606.64 156.31,605.63 156.72,607.40 157.13,606.52 157.54,606.31 157.94,603.95 158.35,603.65 158.76,603.16 159.17,599.52 159.57,600.64 159.98,601.42 160.39,603.46 160.80,603.70 161.20,602.59 161.61,601.46 162.02,596.61 162.43,597.79 162.83,599.51 163.24,599.76 163.65,599.35 164.06,600.20 164.46,598.87 164.87,599.19 165.28,600.63 165.69,602.06 166.09,601.20 166.50,599.33 166.91,598.53 167.32,599.90 167.72,598.07 168.13,599.83 168.54,599.27 168.95,600.42 169.35,600.40 169.76,600.87 170.17,598.16 170.58,596.38 170.98,600.43 171.39,599.31 171.80,597.47 172.21,596.58 172.61,597.32 173.02,594.86 173.43,591.77 173.84,589.64 174.24,589.60 174.65,591.55 175.06,593.22 175.47,593.86 175.87,594.61 176.28,596.44 176.69,597.50 177.10,597.92 177.50,599.43 177.91,602.62 178.32,603.83 178.73,604.16 179.13,604.74 179.54,607.66 179.95,607.89 180.36,609.61 180.76,609.08 181.17,611.07 181.58,611.87 181.99,613.45 182.39,614.27 182.80,613.46 183.21,615.70 183.62,615.17 184.02,616.65 184.43,615.27 184.84,613.81 185.25,611.39 185.65,613.32 186.06,610.62 186.47,609.80 186.88,610.83 187.28,611.00 187.69,612.29 188.10,610.91 188.51,611.86 188.91,613.13 189.32,611.06 189.73,610.07 190.14,610.63 190.54,613.19 190.95,613.02 191.36,613.27 191.77,612.46 192.17,614.35 192.58,614.48 192.99,613.62 193.40,612.85 193.80,617.02 194.21,616.47 194.62,614.40 195.03,615.91 195.43,616.13 195.84,619.12 196.25,619.33 196.66,621.51 197.06,624.73 197.47,626.87 197.88,624.34 198.29,623.73 198.69,623.98 199.10,622.34 199.51,623.70 199.92,625.77 200.32,624.39 200.73,624.94 201.14,624.96 201.55,624.17 201.95,623.93 202.36,626.04 202.77,624.02 203.18,627.12 203.58,625.96 203.99,627.87 204.40,630.92 204.81,627.18 205.21,629.23 205.62,627.56 206.03,628.86 206.44,626.83 206.84,627.40 207.25,627.71 207.66,629.10 208.07,628.49 208.47,623.23 208.88,622.20 209.29,620.72 209.70,622.13 210.10,622.06 210.51,626.11 210.92,626.83 211.33,625.02 211.73,624.67 212.14,623.70 212.55,625.85 212.96,623.02 213.36,621.34 213.77,621.85 214.18,622.08 214.59,622.55 214.99,621.72 215.40,620.64 215.81,615.25 216.22,615.06 216.62,614.21 217.03,615.75 217.44,614.40 217.85,612.84 218.25,612.56 218.66,615.52 219.07,615.48 219.48,614.71 219.88,615.43 220.29,618.94 220.70,617.62 221.11,619.82 221.51,619.12 221.92,621.56 222.33,622.60 222.74,623.39 223.14,622.12 223.55,623.27 223.96,625.15 224.37,622.03 224.77,620.71 225.18,620.29 225.59,618.54 226.00,620.46 226.40,617.48 226.81,619.70 227.22,620.57 227.63,621.62 228.03,623.32 228.44,622.93 228.85,623.38 229.26,624.64 229.66,624.34 230.07,623.77 230.48,623.73 230.89,623.98 231.29,620.93 231.70,620.61 232.11,620.85 232.52,619.38 232.92,617.33 233.33,616.24 233.74,619.54 234.15,621.94 234.55,622.27 234.96,625.63 235.37,624.98 235.78,624.66 236.18,624.24 236.59,625.04 237.00,621.91 237.41,624.73 237.81,624.84 238.22,627.25 238.63,629.40 239.04,629.89 239.44,629.08 239.85,629.61 240.26,628.83 240.67,625.74 241.07,626.61 241.48,628.15 241.89,626.05 242.30,627.02 242.70,627.49 243.11,625.57 243.52,624.78 243.93,625.47 244.33,627.06 244.74,626.16 245.15,626.18 245.56,627.01 245.96,628.37 246.37,631.05 246.78,629.63 247.19,631.65 247.59,633.97 248.00,635.46 248.41,634.68 248.82,638.01 249.22,638.51 249.63,637.84 250.04,638.24 250.45,639.28 250.85,640.21 251.26,641.14 251.67,640.05 252.08,638.07 252.48,636.60 252.89,634.59 253.30,635.18 253.71,633.15 254.11,635.30 254.52,632.67 254.93,634.26 255.34,635.08 255.74,636.38 256.15,636.08 256.56,636.51 256.97,634.61 257.37,633.06 257.78,634.18 258.19,633.08 258.60,631.52 259.00,631.46 259.41,631.74 259.82,631.20 260.23,629.13 260.63,631.84 261.04,632.65 261.45,633.62 261.86,635.56 262.26,637.83 262.67,637.47 263.08,638.18 263.49,638.40 263.89,639.77 264.30,640.84 264.71,639.61 265.12,641.04 265.52,643.06 265.93,642.51 266.34,642.28 266.75,642.53 267.15,639.45 267.56,639.57 267.97,638.01 268.38,635.82 268.78,636.90 269.19,635.80 269.60,633.99 270.01,632.40 270.41,632.47 270.82,631.88 271.23,633.78 271.64,637.48 272.04,637.35 272.45,635.36 272.86,635.45 273.27,638.44 273.67,638.82 274.08,636.99 274.49,634.50 274.90,632.14 275.30,634.09 275.71,633.59 276.12,631.61 276.53,631.98 276.93,634.42 277.34,631.14 277.75,635.54 278.16,635.53 278.56,637.64 278.97,639.15 279.38,641.24 279.79,641.20 280.19,640.82 280.60,640.48 281.01,639.59 281.42,638.32 281.82,637.88 282.23,637.57 282.64,636.81 283.05,638.25 283.45,634.57 283.86,633.89 284.27,638.97 284.68,638.23 285.08,639.14 285.49,635.37 285.90,636.32 286.31,638.09 286.71,637.06 287.12,637.58 287.53,639.35 287.94,638.05 288.34,636.69 288.75,635.47 289.16,639.18 289.57,636.54 289.97,638.97 290.38,639.16 290.79,641.09 291.20,641.28 291.60,640.93 292.01,641.42 292.42,641.83 292.83,640.56 293.23,640.55 293.64,643.45 294.05,645.46 294.46,645.78 294.86,647.60 295.27,644.49 295.68,642.20 296.09,642.56 296.49,643.58 296.90,641.77 297.31,642.78 297.72,642.29 298.12,639.10 298.53,639.51 298.94,637.77 299.35,637.02 299.75,636.63 300.16,633.95 300.57,633.33 300.98,635.27 301.38,634.95 301.79,634.29 302.20,636.72 302.61,637.59 303.01,638.27 303.42,637.66 303.83,640.61 304.24,638.59 304.64,640.16 305.05,638.38 305.46,638.60 305.87,641.56 306.27,637.42 306.68,638.03 307.09,639.50 307.50,639.62 307.90,641.07 308.31,638.42 308.72,639.24 309.13,640.41 309.53,640.77 309.94,642.24 310.35,644.38 310.76,645.00 311.16,645.88 311.57,644.33 311.98,642.13 312.39,640.89 312.79,644.20 313.20,643.86 313.61,645.37 314.02,642.39 314.42,643.08 314.83,643.88 315.24,644.43 315.65,641.81 316.05,644.44 316.46,645.61 316.87,644.91 317.28,645.17 317.68,644.74 318.09,643.68 318.50,647.79 318.91,649.40 319.31,647.14 319.72,646.84 320.13,645.06 320.54,645.04 320.94,644.43 321.35,641.64 321.76,641.47 322.17,642.33 322.57,640.00 322.98,639.02 323.39,641.79 323.80,642.08 324.20,642.54 324.61,641.20 325.02,640.68 325.43,642.67 325.83,644.00 326.24,644.96 326.65,643.76 327.06,645.45 327.46,647.62 327.87,648.67 328.28,647.17 328.69,644.28 329.09,645.06 329.50,645.94 329.91,645.05 330.32,646.49 330.72,646.69 331.13,646.74 331.54,645.20 331.95,643.34 332.35,644.38 332.76,643.18 333.17,640.57 333.58,639.71 333.98,640.74 334.39,641.05 334.80,643.18 335.21,641.22 335.61,641.94 336.02,643.32 336.43,643.48 336.84,640.41 337.24,640.63 337.65,639.43 338.06,640.31 338.47,641.27 338.87,644.86 339.28,645.46 339.69,643.53 340.10,641.56 340.50,642.30 340.91,642.43 341.32,643.31 341.73,641.28 342.13,639.66 342.54,636.45 342.95,636.10 343.36,636.83 343.76,635.94 344.17,633.48 344.58,637.54 344.99,638.94 345.39,638.74 345.80,638.87 346.21,635.66 346.62,636.05 347.02,632.36 347.43,635.12 347.84,632.37 348.25,630.47 348.65,629.98 349.06,625.80 349.47,625.01 349.88,624.02 350.28,623.92 350.69,623.90 351.10,624.96 351.51,626.82 351.91,626.60 352.32,627.06 352.73,626.61 353.14,625.32 353.54,623.56 353.95,623.49 354.36,620.06 354.77,618.14 355.17,620.81 355.58,622.20 355.99,618.66 356.40,617.11 356.80,616.32 357.21,614.83 357.62,614.33 358.03,615.10 358.43,614.93 358.84,613.12 359.25,612.92 359.66,616.32 360.06,619.01 360.47,620.04 360.88,620.02 361.29,620.24 361.69,616.88 362.10,616.40 362.51,614.16 362.92,614.12 363.32,615.18 363.73,614.63 364.14,614.63 364.55,613.23 364.95,610.08 365.36,607.37 365.77,606.27 366.18,604.95 366.58,608.55 366.99,612.21 367.40,610.09 367.81,606.19 368.21,603.97 368.62,603.68 369.03,601.11 369.44,602.11 369.84,603.77 370.25,601.37 370.66,603.77 371.07,603.39 371.47,605.37 371.88,600.40 372.29,601.72 372.70,597.21 373.10,594.03 373.51,593.67 373.92,591.23 374.33,593.32 374.73,592.90 375.14,590.78 375.55,591.39 375.96,593.50 376.36,594.47 376.77,594.21 377.18,592.88 377.59,594.86 377.99,595.98 378.40,598.92 378.81,600.48 379.22,598.98 379.62,600.16 380.03,600.47 380.44,601.45 380.85,601.03 381.25,602.41 381.66,601.19 382.07,600.02 382.48,602.01 382.88,603.51 383.29,604.29 383.70,606.25 384.11,607.63 384.51,608.21 384.92,608.39 385.33,605.59 385.74,602.57 386.14,603.61 386.55,604.76 386.96,601.76 387.37,604.76 387.77,605.35 388.18,602.72 388.59,603.59 389.00,601.78 389.40,602.13 389.81,599.84 390.22,600.48 390.63,600.66 391.03,601.18 391.44,602.87 391.85,601.82 392.26,601.83 392.66,601.24 393.07,601.03 393.48,602.29 393.89,603.32 394.29,602.86 394.70,604.68 395.11,603.31 395.52,602.15 395.92,603.65 396.33,602.49 396.74,602.60 397.15,605.16 397.55,605.15 397.96,607.07 398.37,609.59 398.78,611.59 399.18,615.29 399.59,616.53 400.00,614.38 400.41,615.02 400.81,614.64 401.22,613.87 401.63,613.14 402.04,614.34 402.44,612.46 402.85,615.35 403.26,615.92 403.67,613.17 404.07,612.22 404.48,611.01 404.89,608.82 405.30,608.98 405.70,606.32 406.11,609.24 406.52,611.14 406.93,610.44 407.33,609.88 407.74,610.28 408.15,608.73 408.56,610.13 408.96,610.40 409.37,609.81 409.78,610.60 410.19,610.02 410.59,609.71 411.00,607.80 411.41,606.88 411.82,605.82 412.22,606.04 412.63,602.23 413.04,600.30 413.45,599.37 413.85,601.07 414.26,600.22 414.67,599.84 415.08,600.57 415.48,601.57 415.89,604.79 416.30,604.63 416.71,604.51 417.11,604.78 417.52,604.79 417.93,605.08 418.34,605.54 418.74,604.55 419.15,605.44 419.56,604.88 419.97,605.50 420.37,608.83 420.78,608.57 421.19,609.08 421.60,607.14 422.00,608.49 422.41,610.41 422.82,608.78 423.23,607.26 423.63,607.03 424.04,608.12 424.45,607.73 424.86,608.18 425.26,607.88 425.67,606.59 426.08,604.29 426.49,601.41 426.89,604.37 427.30,604.34 427.71,601.48 428.12,600.66 428.52,603.11 428.93,602.57 429.34,601.24 429.75,600.94 430.15,603.15 430.56,605.34 430.97,604.85 431.38,603.49 431.78,603.55 432.19,605.12 432.60,605.46 433.01,603.26 433.41,602.97 433.82,601.25 434.23,601.61 434.64,600.55 435.04,600.22 435.45,599.92 435.86,600.40 436.27,599.19 436.67,599.76 437.08,598.29 437.49,597.39 437.90,594.93 438.30,592.87 438.71,591.61 439.12,590.55 439.53,590.87 439.93,591.71 440.34,588.59 440.75,589.90 441.16,591.30 441.56,591.09 441.97,589.42 442.38,588.92 442.79,588.76 443.19,588.78 443.60,589.45 444.01,590.07 444.42,588.69 444.82,590.48 445.23,590.51 445.64,592.84 446.05,590.26 446.45,590.70 446.86,591.99 447.27,593.44 447.68,593.72 448.08,593.70 448.49,593.17 448.90,594.54 449.31,594.10 449.71,595.90 450.12,598.85 450.53,597.93 450.94,599.78 451.34,601.13 451.75,598.98 452.16,596.55 452.57,594.77 452.97,597.25 453.38,596.02 453.79,598.31 454.20,600.77 454.60,601.17 455.01,601.48 455.42,599.51 455.83,598.93 456.23,598.79 456.64,597.88 457.05,599.13 457.46,599.57 457.86,600.82 458.27,602.85 458.68,600.59 459.09,595.90 459.49,597.74 459.90,598.07 460.31,601.55 460.72,602.42 461.12,602.60 461.53,601.97 461.94,603.01 462.35,602.22 462.75,603.44 463.16,602.65 463.57,603.92 463.98,603.27 464.38,604.55 464.79,604.25 465.20,603.35 465.61,602.97 466.01,602.71 466.42,599.57 466.83,599.25 467.24,599.98 467.64,599.86 468.05,600.19 468.46,598.40 468.87,599.98 469.27,598.46 469.68,594.95 470.09,595.38 470.50,593.27 470.90,594.96 471.31,594.12 471.72,594.22 472.13,592.28 472.53,594.22 472.94,592.83 473.35,593.56 473.76,590.73 474.16,589.94 474.57,589.79 474.98,587.18 475.39,585.46 475.79,584.88 476.20,587.43 476.61,587.83 477.02,585.03 477.42,586.41 477.83,587.72 478.24,585.91 478.65,583.34 479.05,586.25 479.46,587.68 479.87,586.90 480.28,585.56 480.68,584.01 481.09,584.92 481.50,585.40 481.91,583.84 482.31,583.28 482.72,582.08 483.13,582.30 483.54,582.80 483.94,582.22 484.35,580.50 484.76,580.43 485.17,576.99 485.57,575.33 485.98,574.75 486.39,575.64 486.80,573.33 487.20,570.33 487.61,569.67 488.02,568.08 488.43,567.54 488.83,568.25 489.24,567.71 489.65,562.38 490.06,562.37 490.46,565.04 490.87,562.86 491.28,561.57 491.69,561.92 492.09,561.47 492.50,561.09 492.91,558.93 493.32,556.78 493.72,558.78 494.13,556.02 494.54,554.71 494.95,552.64 495.35,554.29 495.76,552.31 496.17,550.41 496.58,551.82 496.98,552.04 497.39,550.59 497.80,548.74 498.21,550.42 498.61,549.80 499.02,549.57 499.43,548.40 499.84,545.64 500.24,545.73 500.65,549.27 501.06,550.85 501.47,550.53 501.87,551.18 502.28,553.80 502.69,555.00 503.10,553.44 503.50,555.32 503.91,553.23 504.32,551.76 504.73,553.82 505.13,552.59 505.54,551.33 505.95,550.40 506.36,551.35 506.76,549.39 507.17,549.85 507.58,550.76 507.99,553.03 508.39,552.59 508.80,551.01 509.21,555.65 509.62,551.47 510.02,548.44 510.43,550.00 510.84,551.69 511.25,551.89 511.65,549.88 512.06,552.03 512.47,550.59 512.88,551.45 513.28,548.44 513.69,549.43 514.10,551.24 514.51,549.55 514.91,550.90 515.32,553.40 515.73,551.05 516.14,551.65 516.54,550.46 516.95,548.69 517.36,547.75 517.77,549.17 518.17,548.63 518.58,551.93 518.99,550.44 519.40,552.74 519.80,551.67 520.21,551.74 520.62,550.51 521.03,550.53 521.43,551.01 521.84,552.04 522.25,554.64 522.66,551.30 523.06,551.58 523.47,550.55 523.88,550.79 524.29,550.27 524.69,548.35 525.10,547.68 525.51,550.63 525.92,551.95 526.32,549.80 526.73,551.16 527.14,551.52 527.55,554.32 527.95,557.77 528.36,557.22 528.77,556.29 529.18,557.90 529.58,557.69 529.99,556.94 530.40,558.20 530.81,561.60 531.21,559.19 531.62,559.02 532.03,559.27 532.44,557.03 532.84,556.74 533.25,554.49 533.66,554.69 534.07,553.85 534.47,555.05 534.88,559.24 535.29,558.98 535.70,555.58 536.10,554.10 536.51,557.63 536.92,560.44 537.33,561.95 537.73,564.07 538.14,565.50 538.55,565.86 538.96,563.16 539.36,564.49 539.77,563.59 540.18,563.87 540.59,559.35 540.99,559.46 541.40,556.60 541.81,556.82 542.22,555.77 542.62,553.78 543.03,556.48 543.44,555.75 543.85,553.60 544.25,554.22 544.66,554.18 545.07,554.62 545.48,553.59 545.88,555.58 546.29,554.98 546.70,555.34 547.11,552.63 547.51,554.07 547.92,554.21 548.33,555.78 548.74,556.02 549.14,559.04 549.55,559.72 549.96,560.47 550.37,560.61 550.77,559.20 551.18,556.32 551.59,556.93 552.00,555.01 552.40,555.06 552.81,555.43 553.22,554.76 553.63,555.78 554.03,552.72 554.44,552.88 554.85,552.85 555.26,550.95 555.66,549.10 556.07,551.10 556.48,552.74 556.89,551.72 557.29,551.68 557.70,551.42 558.11,554.09 558.52,555.88 558.92,557.98 559.33,558.48 559.74,560.29 560.15,562.87 560.55,561.93 560.96,559.90 561.37,558.27 561.78,560.56 562.18,562.86 562.59,562.19 563.00,563.17 563.41,567.27 563.81,568.82 564.22,566.44 564.63,567.34 565.04,566.39 565.44,567.71 565.85,568.72 566.26,566.35 566.67,564.82 567.07,565.23 567.48,565.66 567.89,564.60 568.30,565.40 568.70,564.00 569.11,566.15 569.52,566.94 569.93,565.91 570.33,567.46 570.74,567.51 571.15,568.40 571.56,569.22 571.96,570.06 572.37,572.02 572.78,573.92 573.19,574.29 573.59,577.42 574.00,581.01 574.41,580.52 574.82,578.51 575.22,576.11 575.63,575.63 576.04,576.36 576.45,578.75 576.85,580.68 577.26,580.52 577.67,580.36 578.08,582.89 578.48,583.08 578.89,584.83 579.30,584.77 579.71,587.42 580.11,586.78 580.52,589.79 580.93,591.19 581.34,593.33 581.74,594.40 582.15,594.01 582.56,595.47 582.97,596.66 583.37,597.16 583.78,596.32 584.19,599.79 584.60,598.88 585.01,597.06 585.41,596.84 585.82,594.30 586.23,594.86 586.64,595.93 587.04,597.70 587.45,598.58 587.86,601.23 588.27,599.43 588.67,599.01 589.08,598.98 589.49,599.36 589.90,599.44 590.30,600.34 590.71,601.85 591.12,600.55 591.53,597.37 591.93,597.22 592.34,597.02 592.75,595.99 593.16,595.70 593.56,596.09 593.97,596.83 594.38,595.30 594.79,594.00 595.19,595.01 595.60,597.33 596.01,597.62 596.42,597.30 596.82,598.39 597.23,596.96 597.64,594.98 598.05,596.30 598.45,594.91 598.86,592.87 599.27,593.37 599.68,596.48 600.08,595.23 600.49,595.93 600.90,597.02 601.31,598.09 601.71,597.31 602.12,595.06 602.53,596.80 602.94,596.42 603.34,594.03 603.75,594.84 604.16,595.23 604.57,594.93 604.97,593.23 605.38,594.64 605.79,595.14 606.20,592.85 606.60,595.24 607.01,593.47 607.42,591.96 607.83,593.75 608.23,590.49 608.64,591.18 609.05,591.89 609.46,592.84 609.86,592.74 610.27,594.32 610.68,593.41 611.09,590.71 611.49,589.36 611.90,591.70 612.31,591.84 612.72,591.40 613.12,594.33 613.53,597.05 613.94,599.78 614.35,601.68 614.75,601.32 615.16,601.37 615.57,600.10 615.98,595.97 616.38,594.49 616.79,594.96 617.20,595.20 617.61,593.08 618.01,592.40 618.42,594.40 618.83,594.75 619.24,596.93 619.64,595.85 620.05,596.81 620.46,595.62 620.87,591.99 621.27,593.87 621.68,596.08 622.09,592.77 622.50,591.78 622.90,589.81 623.31,588.07 623.72,589.09 624.13,589.19 624.53,590.23 624.94,590.47 625.35,591.02 625.76,590.75 626.16,592.02 626.57,592.35 626.98,589.19 627.39,589.21 627.79,588.90 628.20,586.83 628.61,587.70 629.02,585.91 629.42,588.17 629.83,588.51 630.24,592.91 630.65,592.78 631.05,592.92 631.46,596.56 631.87,596.43 632.28,597.34 632.68,598.66 633.09,600.16 633.50,600.67 633.91,601.13 634.31,600.73 634.72,595.97 635.13,593.51 635.54,593.13 635.94,594.49 636.35,595.18 636.76,595.19 637.17,593.76 637.57,592.63 637.98,594.09 638.39,592.74 638.80,592.04 639.20,591.49 639.61,591.30 640.02,591.72 640.43,591.70 640.83,590.28 641.24,591.80 641.65,591.36 642.06,591.81 642.46,593.02 642.87,594.70 643.28,593.56 643.69,591.61 644.09,591.94 644.50,591.54 644.91,592.54 645.32,594.13 645.72,596.27 646.13,597.64 646.54,599.51 646.95,597.38 647.35,598.63 647.76,596.55 648.17,596.92 648.58,595.28 648.98,595.45 649.39,596.62 649.80,593.96 650.21,595.79 650.61,598.75 651.02,597.20 651.43,597.80 651.84,598.94 652.24,601.59 652.65,601.06 653.06,600.36 653.47,601.37 653.87,602.06 654.28,603.40 654.69,604.24 655.10,605.21 655.50,606.16 655.91,605.50 656.32,606.70 656.73,607.28 657.13,608.62 657.54,608.48 657.95,607.64 658.36,607.81 658.76,607.00 659.17,607.85 659.58,606.76 659.99,606.54 660.39,604.11 660.80,603.48 661.21,603.04 661.62,602.86 662.02,601.52 662.43,604.29 662.84,606.19 663.25,606.05 663.65,604.69 664.06,607.85 664.47,607.83 664.88,609.74 665.28,608.65 665.69,608.48 666.10,611.47 666.51,611.41 666.91,612.30 667.32,614.11 667.73,610.13 668.14,608.72 668.54,610.10 668.95,608.06 669.36,609.53 669.77,609.93 670.17,610.69 670.58,611.00 670.99,608.82 671.40,609.80 671.80,608.24 672.21,607.44 672.62,605.16 673.03,603.34 673.43,605.20 673.84,604.71 674.25,605.52 674.66,606.12 675.06,603.65 675.47,601.85 675.88,599.38 676.29,599.35 676.69,598.55 677.10,596.20 677.51,597.28 677.92,599.42 678.32,602.09 678.73,603.68 679.14,600.21 679.55,598.04 679.95,598.95 680.36,599.86 680.77,597.64 681.18,596.37 681.58,596.61 681.99,596.98 682.40,598.21 682.81,598.29 683.21,599.05 683.62,599.64 684.03,599.69 684.44,596.88 684.84,594.51 685.25,592.58 685.66,591.96 686.07,590.94 686.47,590.68 686.88,590.76 687.29,591.03 687.70,593.77 688.10,592.49 688.51,595.17 688.92,593.60 689.33,590.79 689.73,589.64 690.14,588.04 690.55,586.74 690.96,587.34 691.36,588.08 691.77,588.97 692.18,588.49 692.59,586.93 692.99,585.63 693.40,586.22 693.81,585.81 694.22,586.92 694.62,584.80 695.03,584.91 695.44,584.90 695.85,586.62 696.25,586.27 696.66,585.47 697.07,582.19 697.48,583.50 697.88,583.27 698.29,584.33 698.70,583.14 699.11,583.91 699.51,581.23 699.92,580.64 700.33,576.97 700.74,578.24 701.14,579.81 701.55,574.17 701.96,577.90 702.37,577.70 702.77,580.27 703.18,580.36 703.59,583.76 704.00,584.25 704.40,583.31 704.81,584.28 705.22,579.75 705.63,582.30 706.03,585.02 706.44,585.76 706.85,587.18 707.26,586.91 707.66,586.66 708.07,589.53 708.48,587.53 708.89,587.41 709.29,585.97 709.70,586.35 710.11,584.72 710.52,580.94 710.92,580.96 711.33,582.16 711.74,580.09 712.15,579.39 712.55,580.08 712.96,578.69 713.37,581.36 713.78,583.26 714.18,583.86 714.59,582.52 715.00,579.92 715.41,580.71 715.81,580.18 716.22,582.45 716.63,580.67 717.04,579.95 717.44,577.82 717.85,577.89 718.26,577.49 718.67,571.44 719.07,570.84 719.48,568.23 719.89,569.44 720.30,571.50 720.70,571.94 721.11,568.87 721.52,569.47 721.93,570.37 722.33,567.31 722.74,566.18 723.15,567.32 723.56,569.37 723.96,568.77 724.37,565.18 724.78,565.16 725.19,561.93 725.59,558.35 726.00,558.35 726.41,557.62 726.82,557.78 727.22,558.31 727.63,557.82 728.04,556.37 728.45,557.29 728.85,556.33 729.26,557.47 729.67,559.74 730.08,560.64 730.48,560.48 730.89,558.28 731.30,561.50 731.71,560.69 732.11,560.79 732.52,558.23 732.93,555.13 733.34,556.82 733.74,555.58 734.15,556.99 734.56,556.53 734.97,555.46 735.37,556.51 735.78,556.49 736.19,552.93 736.60,549.96 737.00,548.44 737.41,546.32 737.82,548.93 738.23,545.82 738.63,542.98 739.04,542.99 739.45,541.46 739.86,541.25 740.26,542.78 740.67,541.90 741.08,537.36 741.49,540.92 741.89,540.96 742.30,541.28 742.71,538.68 743.12,538.10 743.52,537.59 743.93,534.59 744.34,533.97 744.75,534.29 745.15,535.15 745.56,535.03 745.97,532.73 746.38,533.92 746.78,534.38 747.19,533.57 747.60,532.39 748.01,535.66 748.41,533.04 748.82,530.35 749.23,529.82 749.64,529.44 750.04,531.32 750.45,532.53 750.86,533.31 751.27,531.43 751.67,529.90 752.08,529.89 752.49,527.83 752.90,530.62 753.30,529.24 753.71,528.17 754.12,530.54 754.53,529.68 754.93,533.04 755.34,531.99 755.75,531.82 756.16,534.59 756.56,532.35 756.97,532.65 757.38,529.75 757.79,526.79 758.19,524.68 758.60,522.34 759.01,523.68 759.42,521.76 759.82,523.76 760.23,521.38 760.64,521.48 761.05,522.10 761.45,521.43 761.86,519.70 762.27,518.64 762.68,519.86 763.08,518.24 763.49,520.41 763.90,521.23 764.31,518.95 764.71,518.71 765.12,518.83 765.53,520.02 765.94,520.82 766.34,519.45 766.75,519.28 767.16,519.58 767.57,518.54 767.97,519.74 768.38,517.26 768.79,516.46 769.20,519.21 769.60,519.84 770.01,519.15 770.42,518.90 770.83,519.48 771.23,521.39 771.64,520.55 772.05,522.58 772.46,523.18 772.86,522.78 773.27,520.11 773.68,519.27 774.09,521.23 774.49,521.68 774.90,520.25 775.31,520.01 775.72,522.15 776.12,521.37 776.53,519.75 776.94,518.40 777.35,518.54 777.75,516.01 778.16,514.34 778.57,513.76 778.98,513.67 779.38,514.20 779.79,516.46 780.20,512.08 780.61,512.41 781.01,511.40 781.42,509.45 781.83,506.14 782.24,503.58 782.64,506.11 783.05,506.40 783.46,506.31 783.87,508.37 784.27,508.10 784.68,507.43 785.09,506.70 785.50,509.18 785.90,509.88 786.31,508.49 786.72,508.80 787.13,506.82 787.53,506.79 787.94,508.62 788.35,507.53 788.76,505.63 789.16,507.27 789.57,508.24 789.98,509.13 790.39,509.38 790.79,510.68 791.20,513.25 791.61,514.22 792.02,518.14 792.42,518.44 792.83,519.99 793.24,517.76 793.65,517.62 794.05,518.25 794.46,515.74 794.87,514.59 795.28,512.20 795.68,513.74 796.09,515.09 796.50,513.35 796.91,512.68 797.31,513.51 797.72,514.08 798.13,514.00 798.54,511.75 798.94,511.66 799.35,512.35 799.76,511.48 800.17,511.34 800.57,514.26 800.98,515.83 801.39,516.86 801.80,511.57 802.20,512.92 802.61,511.77 803.02,512.06 803.43,510.52 803.83,511.09 804.24,506.44 804.65,504.55 805.06,505.09 805.46,506.24 805.87,504.63 806.28,504.84 806.69,503.75 807.09,505.14 807.50,505.63 807.91,507.09 808.32,507.37 808.72,507.78 809.13,510.98 809.54,511.13 809.95,511.76 810.35,511.30 810.76,509.46 811.17,510.14 811.58,509.82 811.98,509.86 812.39,510.90 812.80,510.84 813.21,508.66 813.61,509.88 814.02,507.78 814.43,508.02 814.84,508.63 815.24,508.23 815.65,507.77 816.06,510.07 816.47,510.18 816.87,511.59 817.28,509.18 817.69,507.33 818.10,510.68 818.50,508.11 818.91,506.48 819.32,506.10 819.73,507.82 820.13,508.79 820.54,507.02 820.95,506.77 821.36,509.09 821.76,509.09 822.17,508.51 822.58,503.01 822.99,505.17 823.39,505.34 823.80,505.59 824.21,504.62 824.62,505.63 825.02,506.78 825.43,507.28 825.84,507.11 826.25,506.81 826.65,509.28 827.06,508.29 827.47,508.38 827.88,507.53 828.28,507.91 828.69,505.43 829.10,503.90 829.51,505.96 829.91,505.02 830.32,504.97 830.73,505.03 831.14,504.01 831.54,506.61 831.95,505.43 832.36,503.08 832.77,503.31 833.17,503.38 833.58,501.09 833.99,502.03 834.40,501.46 834.80,503.43 835.21,503.89 835.62,502.36 836.03,500.80 836.43,501.33 836.84,500.31 837.25,501.20 837.66,499.48 838.06,499.15 838.47,498.25 838.88,498.72 839.29,500.20 839.69,501.85 840.10,503.47 840.51,498.63 840.92,496.92 841.32,495.22 841.73,497.39 842.14,497.60 842.55,498.63 842.95,497.02 843.36,499.35 843.77,498.17 844.18,496.02 844.58,497.00 844.99,499.43 845.40,497.75 845.81,496.70 846.21,496.51 846.62,497.42 847.03,496.65 847.44,497.22 847.84,499.05 848.25,498.59 848.66,499.02 849.07,499.97 849.47,499.15 849.88,500.61 850.29,499.76 850.70,503.73 851.10,505.21 851.51,505.43 851.92,507.40 852.33,512.12 852.73,513.95 853.14,510.07 853.55,509.29 853.96,508.10 854.36,506.09 854.77,504.82 855.18,500.00 855.59,499.45 855.99,500.25 856.40,502.52 856.81,502.46 857.22,502.20 857.62,499.25 858.03,496.21 858.44,496.22 858.85,496.22 859.25,493.48 859.66,493.12 860.07,493.89 860.48,497.02 860.88,496.37 861.29,495.73 861.70,492.40 862.11,493.40 862.51,493.74 862.92,496.10 863.33,497.10 863.74,499.16 864.14,497.45 864.55,499.54 864.96,501.79 865.37,503.40 865.77,505.14 866.18,506.15 866.59,505.54 867.00,505.63 867.40,503.34 867.81,503.91 868.22,505.07 868.63,504.30 869.03,501.69 869.44,499.14 869.85,495.22 870.26,496.62 870.66,498.57 871.07,499.23 871.48,500.70 871.89,501.10 872.29,498.17 872.70,497.81 873.11,495.80 873.52,495.14 873.92,494.54 874.33,497.36 874.74,497.85 875.15,499.23 875.55,501.79 875.96,501.31 876.37,499.41 876.78,498.83 877.18,498.82 877.59,497.67 878.00,495.20 878.41,494.98 878.81,495.24 879.22,493.78 879.63,494.48 880.04,494.43 880.44,495.60 880.85,496.89 881.26,497.58 881.67,497.99 882.07,499.27 882.48,499.37 882.89,500.71 883.30,501.13 883.70,502.18 884.11,499.24 884.52,502.00 884.93,501.77 885.33,499.52 885.74,502.33 886.15,504.38 886.56,501.56 886.96,502.55 887.37,502.01 887.78,502.50 888.19,502.74 888.59,500.12 889.00,500.85 889.41,498.98 889.82,497.55 890.22,495.86 890.63,494.66 891.04,495.27 891.45,491.93 891.85,493.13 892.26,492.97 892.67,496.56 893.08,498.72 893.48,499.31 893.89,497.80 894.30,501.37 894.71,498.17 895.11,496.53 895.52,496.98 895.93,499.67 896.34,498.79 896.74,496.37 897.15,497.79 897.56,498.09 897.97,498.60 898.37,499.52 898.78,497.40 899.19,499.87 899.60,499.41 900.00,500.92"/>
<text x="85.00" y="696" text-anchor="middle" font-family="Arial" font-size="12" fill="#374151">0</text>
<text x="288.75" y="696" text-anchor="middle" font-family="Arial" font-size="12" fill="#374151">50000</text>
<text x="492.50" y="696" text-anchor="middle" font-family="Arial" font-size="12" fill="#374151">100000</text>
<text x="696.25" y="696" text-anchor="middle" font-family="Arial" font-size="12" fill="#374151">149999</text>
<text x="900.00" y="696" text-anchor="middle" font-family="Arial" font-size="12" fill="#374151">199999</text>
<text x="492.5" y="716" text-anchor="middle" font-family="Arial" font-size="14" fill="#111827">Event index</text>
</svg>
