<svg xmlns="http://www.w3.org/2000/svg" width="940" height="540" viewBox="0 0 940 540">
<rect width="100%" height="100%" fill="#ffffff"/>
<text x="470.0" y="26" text-anchor="middle" font-family="Arial" font-size="18" fill="#111827">Avellaneda Stoikov Cumulative PnL After Fees By Regime</text>
<line x1="85" y1="470" x2="785" y2="470" stroke="#111827" stroke-width="1"/>
<line x1="85" y1="42" x2="85" y2="470" stroke="#111827" stroke-width="1"/>
<line x1="85.00" y1="42" x2="85.00" y2="470" stroke="#e5e7eb" stroke-width="1"/>
<text x="85.00" y="494" text-anchor="middle" font-family="Arial" font-size="12" fill="#374151">0</text>
<line x1="260.00" y1="42" x2="260.00" y2="470" stroke="#e5e7eb" stroke-width="1"/>
<text x="260.00" y="494" text-anchor="middle" font-family="Arial" font-size="12" fill="#374151">50000</text>
<line x1="435.00" y1="42" x2="435.00" y2="470" stroke="#e5e7eb" stroke-width="1"/>
<text x="435.00" y="494" text-anchor="middle" font-family="Arial" font-size="12" fill="#374151">100000</text>
<line x1="610.00" y1="42" x2="610.00" y2="470" stroke="#e5e7eb" stroke-width="1"/>
<text x="610.00" y="494" text-anchor="middle" font-family="Arial" font-size="12" fill="#374151">149999</text>
<line x1="785.00" y1="42" x2="785.00" y2="470" stroke="#e5e7eb" stroke-width="1"/>
<text x="785.00" y="494" text-anchor="middle" font-family="Arial" font-size="12" fill="#374151">199999</text>
<line x1="85" y1="470.00" x2="785" y2="470.00" stroke="#e5e7eb" stroke-width="1"/>
<text x="73" y="474.00" text-anchor="end" font-family="Arial" font-size="12" fill="#374151">-119332</text>
<line x1="85" y1="363.00" x2="785" y2="363.00" stroke="#e5e7eb" stroke-width="1"/>
<text x="73" y="367.00" text-anchor="end" font-family="Arial" font-size="12" fill="#374151">-42335</text>
<line x1="85" y1="256.00" x2="785" y2="256.00" stroke="#e5e7eb" stroke-width="1"/>
<text x="73" y="260.00" text-anchor="end" font-family="Arial" font-size="12" fill="#374151">34662</text>
<line x1="85" y1="149.00" x2="785" y2="149.00" stroke="#e5e7eb" stroke-width="1"/>
<text x="73" y="153.00" text-anchor="end" font-family="Arial" font-size="12" fill="#374151">111659</text>
<line x1="85" y1="42.00" x2="785" y2="42.00" stroke="#e5e7eb" stroke-width="1"/>
<text x="73" y="46.00" text-anchor="end" font-family="Arial" font-size="12" fill="#374151">188655</text>
<polyline fill="none" stroke="#2563eb" stroke-width="2" points="85.00,304.17 85.35,304.09 85.70,304.05 86.05,304.06 86.40,304.06 86.75,304.05 87.10,303.92 87.45,303.96 87.80,304.15 88.15,304.45 88.50,304.56 88.85,304.38 89.20,304.58 89.55,304.63 89.90,304.64 90.25,304.02 90.60,304.08 90.95,303.95 91.30,303.90 91.65,303.79 92.00,303.79 92.35,303.79 92.70,303.79 93.05,303.79 93.40,303.79 93.75,303.79 94.10,303.79 94.45,303.79 94.80,303.73 95.15,303.73 95.50,303.76 95.85,303.68 96.20,303.47 96.55,303.34 96.90,303.23 97.25,303.23 97.60,303.23 97.95,303.13 98.30,303.06 98.65,303.05 99.00,302.96 99.35,302.95 99.70,302.91 100.05,302.85 100.40,302.92 100.75,302.67 101.10,302.96 101.45,302.71 101.80,302.80 102.15,302.77 102.50,302.84 102.85,302.85 103.20,302.65 103.55,302.45 103.90,302.39 104.25,302.49 104.60,302.31 104.95,302.37 105.30,302.21 105.65,302.07 106.00,302.03 106.35,301.99 106.70,301.93 107.05,301.97 107.40,301.76 107.75,301.72 108.10,301.88 108.45,301.65 108.80,301.37 109.15,301.32 109.50,301.28 109.85,301.21 110.20,301.34 110.55,301.30 110.90,301.34 111.25,301.18 111.60,301.16 111.95,301.08 112.30,301.15 112.65,301.01 113.00,301.04 113.35,300.94 113.70,301.07 114.05,300.92 114.40,300.99 114.75,300.94 115.10,300.79 115.45,300.80 115.80,300.63 116.15,300.53 116.50,300.55 116.85,300.47 117.20,300.56 117.55,300.51 117.90,300.29 118.25,299.97 118.60,299.83 118.95,299.32 119.30,299.34 119.65,299.29 120.00,299.39 120.35,299.20 120.70,299.07 121.05,299.07 121.40,299.59 121.75,299.53 122.10,299.45 122.45,299.23 122.80,299.39 123.15,299.46 123.50,299.14 123.85,298.85 124.20,298.42 124.55,298.73 124.90,298.71 125.25,298.82 125.60,298.72 125.95,298.91 126.30,299.42 126.65,299.68 127.00,299.47 127.35,299.48 127.70,299.42 128.05,300.07 128.40,299.92 128.75,299.97 129.10,299.96 129.45,299.78 129.80,299.72 130.15,299.81 130.50,299.54 130.85,299.38 131.20,299.30 131.55,299.35 131.90,299.47 132.25,300.13 132.60,299.76 132.95,299.78 133.30,299.43 133.65,299.64 134.00,299.69 134.35,299.75 134.70,299.88 135.05,299.86 135.40,299.69 135.75,299.61 136.10,299.67 136.45,299.70 136.80,299.64 137.15,299.55 137.50,299.55 137.85,299.55 138.20,299.55 138.55,299.43 138.90,299.37 139.25,299.31 139.60,299.45 139.95,299.51 140.30,299.56 140.65,299.62 141.00,299.53 141.35,299.43 141.70,299.34 142.05,299.67 142.40,299.73 142.75,299.56 143.10,299.86 143.45,299.49 143.80,299.43 144.15,299.19 144.50,299.13 144.85,299.13 145.20,299.16 145.55,299.16 145.90,299.16 146.25,299.16 146.60,299.16 146.95,299.16 147.30,299.16 147.65,299.16 148.00,299.16 148.35,299.13 148.70,298.90 149.05,298.90 149.40,298.91 149.75,298.99 150.10,298.75 150.45,298.75 150.80,298.75 151.15,298.62 151.50,298.59 151.85,298.52 152.20,298.42 152.55,298.46 152.90,298.47 153.25,298.51 153.60,298.52 153.95,298.56 154.30,298.49 154.65,298.46 155.00,298.49 155.35,298.50 155.70,298.55 156.05,298.50 156.40,298.50 156.75,298.50 157.10,298.50 157.45,298.43 157.80,298.29 158.15,298.24 158.50,298.27 158.85,298.24 159.20,298.36 159.55,298.34 159.90,298.21 160.25,298.17 160.60,298.17 160.95,298.09 161.30,298.11 161.65,298.14 162.00,298.12 162.35,298.06 162.70,298.08 163.05,298.06 163.40,298.10 163.75,298.04 164.10,298.04 164.45,298.04 164.80,298.04 165.15,298.04 165.50,297.96 165.85,297.99 166.20,297.99 166.55,297.93 166.90,297.82 167.25,297.76 167.60,297.76 167.95,297.76 168.30,297.76 168.65,297.69 169.00,297.68 169.35,297.62 169.70,297.59 170.05,297.58 170.40,297.57 170.75,297.46 171.10,297.36 171.45,297.42 171.80,297.30 172.15,297.19 172.50,297.39 172.85,297.63 173.20,297.98 173.55,297.89 173.90,297.61 174.25,297.30 174.60,297.08 174.95,297.21 175.30,297.23 175.65,297.26 176.00,297.31 176.35,297.35 176.70,297.45 177.05,297.37 177.40,297.17 177.75,297.09 178.10,297.07 178.45,297.09 178.80,297.09 179.15,296.79 179.50,297.00 179.85,296.93 180.20,296.82 180.55,296.71 180.90,296.81 181.25,297.04 181.60,296.81 181.95,297.05 182.30,296.94 182.65,296.73 183.00,296.51 183.35,296.26 183.70,296.13 184.05,296.03 184.40,295.94 184.75,295.94 185.10,295.94 185.45,295.94 185.80,295.94 186.15,295.94 186.50,295.94 186.85,295.94 187.20,295.93 187.55,295.89 187.90,295.76 188.25,295.78 188.60,295.69 188.95,295.53 189.30,295.41 189.65,295.36 190.00,295.31 190.35,295.42 190.70,295.48 191.05,295.57 191.40,295.59 191.75,295.43 192.10,295.57 192.45,295.31 192.80,295.21 193.15,295.02 193.50,294.68 193.85,294.81 194.20,294.88 194.55,294.74 194.90,294.50 195.25,294.16 195.60,294.11 195.95,294.39 196.30,294.30 196.65,294.66 197.00,295.08 197.35,294.75 197.70,295.02 198.05,294.53 198.40,295.01 198.75,294.85 199.10,294.74 199.45,294.83 199.80,294.66 200.15,293.90 200.50,293.02 200.85,292.38 201.20,291.58 201.55,291.38 201.90,291.85 202.25,292.35 202.60,291.87 202.95,291.75 203.30,292.32 203.65,291.93 204.00,292.44 204.35,293.09 204.70,293.30 205.05,292.80 205.40,292.68 205.75,292.45 206.10,292.74 206.45,292.77 206.80,292.45 207.15,292.37 207.50,292.41 207.85,292.57 208.20,292.70 208.55,292.96 208.90,293.16 209.25,293.23 209.60,292.89 209.95,292.66 210.30,292.62 210.65,292.70 211.00,292.65 211.35,292.91 211.70,293.30 212.05,293.34 212.40,293.60 212.75,293.58 213.10,293.73 213.45,293.95 213.80,293.69 214.15,293.63 214.50,293.82 214.85,293.96 215.20,293.97 215.55,293.90 215.90,293.84 216.25,293.83 216.60,293.78 216.95,293.88 217.30,293.85 217.65,293.73 218.00,293.73 218.35,293.75 218.70,293.74 219.05,293.73 219.40,293.75 219.75,293.63 220.10,293.70 220.45,293.54 220.80,293.58 221.15,293.37 221.50,293.33 221.85,293.28 222.20,293.38 222.55,293.23 222.90,293.30 223.25,293.26 223.60,293.29 223.95,293.54 224.30,293.34 224.65,293.63 225.00,293.56 225.35,293.39 225.70,293.36 226.05,293.38 226.40,293.58 226.75,293.39 227.10,293.43 227.45,293.26 227.80,293.27 228.15,293.10 228.50,293.34 228.85,293.28 229.20,293.17 229.55,293.13 229.90,293.09 230.25,293.10 230.60,293.12 230.95,293.08 231.30,293.05 231.65,292.99 232.00,292.94 232.35,292.88 232.70,292.87 233.05,292.90 233.40,292.72 233.75,292.67 234.10,292.58 234.45,292.56 234.80,292.54 235.15,292.56 235.50,292.71 235.85,292.69 236.20,292.54 236.55,292.57 236.90,292.81 237.25,292.61 237.60,292.43 237.95,292.51 238.30,292.76 238.65,292.45 239.00,292.22 239.35,292.56 239.70,292.86 240.05,292.57 240.40,292.41 240.75,292.55 241.10,291.72 241.45,291.50 241.80,291.77 242.15,291.26 242.50,291.56 242.85,292.09 243.20,291.93 243.55,291.46 243.90,291.16 244.25,291.14 244.60,291.56 244.95,291.66 245.30,291.23 245.65,291.21 246.00,291.36 246.35,291.28 246.70,291.11 247.05,291.25 247.40,291.21 247.75,291.04 248.10,291.40 248.45,290.97 248.80,290.59 249.15,290.99 249.50,291.04 249.85,290.77 250.20,291.01 250.55,291.46 250.90,291.52 251.25,290.81 251.60,290.59 251.95,290.99 252.30,290.85 252.65,291.21 253.00,291.29 253.35,291.64 253.70,292.25 254.05,292.38 254.40,292.02 254.75,291.61 255.10,292.11 255.45,292.15 255.80,292.11 256.15,292.22 256.50,292.34 256.85,291.95 257.20,291.15 257.55,291.27 257.90,290.91 258.25,291.39 258.60,290.74 258.95,290.00 259.30,289.97 259.65,289.46 260.00,289.18 260.35,289.28 260.70,289.39 261.05,289.16 261.40,289.82 261.75,289.38 262.10,288.53 262.45,288.08 262.80,288.22 263.15,288.22 263.50,287.59 263.85,286.98 264.20,286.69 264.55,286.73 264.90,286.64 265.25,287.16 265.60,287.44 265.95,286.86 266.30,286.96 266.65,286.24 267.00,285.81 267.35,285.79 267.70,285.47 268.05,285.54 268.40,286.33 268.75,286.49 269.10,286.45 269.45,286.70 269.80,286.61 270.15,286.24 270.50,285.63 270.85,285.43 271.20,285.35 271.55,285.01 271.90,284.21 272.25,284.33 272.60,284.37 272.95,285.07 273.30,284.39 273.65,284.33 274.00,284.20 274.35,284.55 274.70,285.76 275.05,285.39 275.40,286.34 275.75,285.97 276.10,285.35 276.45,284.65 276.80,285.16 277.15,285.98 277.50,285.65 277.85,285.98 278.20,286.00 278.55,287.10 278.90,287.12 279.25,286.49 279.60,285.86 279.95,285.76 280.30,286.08 280.65,285.63 281.00,285.49 281.35,285.07 281.70,285.08 282.05,285.28 282.40,286.19 282.75,287.28 283.10,287.66 283.45,287.17 283.80,287.13 284.15,286.70 284.50,286.96 284.85,286.44 285.20,286.50 285.55,286.62 285.90,286.72 286.25,286.56 286.60,286.21 286.95,286.41 287.30,286.96 287.65,286.69 288.00,287.99 288.35,287.90 288.70,287.95 289.05,288.09 289.40,287.88 289.75,287.85 290.10,287.62 290.45,287.06 290.80,287.25 291.15,287.62 291.50,287.65 291.85,287.70 292.20,287.67 292.55,287.35 292.90,287.19 293.25,287.81 293.60,287.79 293.95,288.08 294.30,288.46 294.65,288.31 295.00,288.02 295.35,288.16 295.70,287.98 296.05,288.10 296.40,288.35 296.75,288.57 297.10,288.81 297.45,288.98 297.80,289.12 298.15,288.86 298.50,288.64 298.85,288.79 299.20,288.73 299.55,288.57 299.90,288.57 300.25,288.74 300.60,289.00 300.95,289.16 301.30,289.31 301.65,289.06 302.00,288.71 302.35,288.56 302.70,288.37 303.05,288.41 303.40,288.67 303.75,288.48 304.10,288.42 304.45,287.82 304.80,288.03 305.15,287.97 305.50,287.89 305.85,287.99 306.20,288.20 306.55,288.39 306.90,288.22 307.25,288.20 307.60,288.23 307.95,288.33 308.30,288.26 308.65,288.17 309.00,288.18 309.35,287.99 309.70,287.63 310.05,287.90 310.40,287.93 310.75,287.95 311.10,287.95 311.45,287.88 311.80,287.86 312.15,287.66 312.50,287.86 312.85,287.79 313.20,287.68 313.55,287.63 313.90,287.46 314.25,287.60 314.60,287.62 314.95,287.81 315.30,287.87 315.65,288.12 316.00,288.09 316.35,288.18 316.70,287.93 317.05,288.26 317.40,288.67 317.75,289.17 318.10,289.03 318.45,289.26 318.80,288.77 319.15,288.05 319.50,287.36 319.85,287.46 320.20,287.79 320.55,288.28 320.90,289.15 321.25,289.00 321.60,288.86 321.95,288.94 322.30,289.01 322.65,288.85 323.00,289.01 323.35,288.03 323.70,288.11 324.05,288.36 324.40,288.76 324.75,288.81 325.10,288.58 325.45,288.73 325.80,288.77 326.15,288.46 326.50,288.06 326.85,288.02 327.20,287.39 327.55,287.97 327.90,288.61 328.25,288.84 328.60,289.24 328.95,289.21 329.30,289.69 329.65,288.01 330.00,288.43 330.35,287.40 330.70,286.84 331.05,286.35 331.40,286.19 331.75,285.01 332.10,284.29 332.45,284.20 332.80,284.49 333.15,284.31 333.50,284.13 333.85,282.74 334.20,282.49 334.55,282.00 334.90,282.08 335.25,281.09 335.60,281.13 335.95,280.86 336.30,280.04 336.65,278.71 337.00,278.88 337.35,278.24 337.70,278.18 338.05,278.69 338.40,278.94 338.75,278.99 339.10,279.62 339.45,279.72 339.80,279.50 340.15,279.72 340.50,280.33 340.85,280.39 341.20,281.28 341.55,280.05 341.90,280.32 342.25,279.71 342.60,280.60 342.95,279.65 343.30,279.55 343.65,279.06 344.00,278.74 344.35,278.48 344.70,279.18 345.05,279.18 345.40,279.69 345.75,279.35 346.10,279.14 346.45,278.41 346.80,277.76 347.15,277.12 347.50,276.65 347.85,275.72 348.20,276.10 348.55,275.73 348.90,274.20 349.25,273.92 349.60,273.26 349.95,273.78 350.30,271.97 350.65,272.20 351.00,273.65 351.35,272.93 351.70,272.25 352.05,271.56 352.40,272.08 352.75,271.88 353.10,271.48 353.45,270.27 353.80,270.29 354.15,269.26 354.50,268.24 354.85,269.46 355.20,270.27 355.55,269.72 355.90,268.07 356.25,267.21 356.60,265.80 356.95,266.96 357.30,266.72 357.65,268.10 358.00,267.95 358.35,268.02 358.70,269.29 359.05,268.63 359.40,268.98 359.75,269.80 360.10,269.23 360.45,270.62 360.80,270.06 361.15,269.85 361.50,270.28 361.85,268.87 362.20,269.32 362.55,269.58 362.90,270.65 363.25,271.44 363.60,271.25 363.95,271.43 364.30,271.77 364.65,270.51 365.00,270.35 365.35,268.11 365.70,268.70 366.05,267.33 366.40,267.32 366.75,267.63 367.10,267.47 367.45,267.75 367.80,268.72 368.15,270.79 368.50,271.30 368.85,271.92 369.20,272.05 369.55,272.41 369.90,272.30 370.25,271.15 370.60,270.20 370.95,269.47 371.30,268.74 371.65,267.76 372.00,267.18 372.35,267.84 372.70,267.21 373.05,266.14 373.40,266.77 373.75,266.04 374.10,265.59 374.45,264.30 374.80,264.32 375.15,265.60 375.50,265.33 375.85,264.93 376.20,264.00 376.55,263.89 376.90,263.53 377.25,264.18 377.60,263.59 377.95,262.98 378.30,262.68 378.65,261.57 379.00,263.26 379.35,264.18 379.70,263.83 380.05,263.09 380.40,262.01 380.75,260.49 381.10,258.39 381.45,257.86 381.80,259.18 382.15,257.66 382.50,258.65 382.85,258.16 383.20,258.66 383.55,257.74 383.90,257.09 384.25,254.49 384.60,254.88 384.95,254.69 385.30,254.17 385.65,252.44 386.00,251.60 386.35,252.77 386.70,253.52 387.05,252.63 387.40,253.30 387.75,253.98 388.10,253.27 388.45,253.66 388.80,255.49 389.15,255.36 389.50,255.83 389.85,256.38 390.20,257.04 390.55,259.14 390.90,257.58 391.25,256.98 391.60,256.81 391.95,257.91 392.30,256.90 392.65,254.99 393.00,252.84 393.35,252.12 393.70,252.32 394.05,253.54 394.40,253.91 394.75,254.79 395.10,256.62 395.45,253.21 395.80,253.04 396.15,250.58 396.50,253.81 396.85,253.29 397.20,252.36 397.55,252.67 397.90,253.63 398.25,255.02 398.60,257.00 398.95,257.03 399.30,256.32 399.65,257.04 400.00,257.82 400.35,257.59 400.70,256.69 401.05,255.27 401.40,255.32 401.75,254.57 402.10,252.50 402.45,250.70 402.80,251.73 403.15,249.68 403.50,248.12 403.85,248.34 404.20,248.59 404.55,247.10 404.90,244.45 405.25,245.27 405.60,244.00 405.95,242.59 406.30,243.17 406.65,243.97 407.00,242.07 407.35,242.45 407.70,241.23 408.05,243.40 408.40,245.73 408.75,244.61 409.10,243.51 409.45,241.18 409.80,241.09 410.15,241.84 410.50,245.70 410.85,245.37 411.20,242.57 411.55,244.15 411.90,245.74 412.25,245.13 412.60,245.98 412.95,246.83 413.30,247.74 413.65,247.06 414.00,247.02 414.35,245.83 414.70,247.37 415.05,245.05 415.40,245.46 415.75,245.78 416.10,243.09 416.45,238.38 416.80,236.19 417.15,236.62 417.50,234.81 417.85,233.31 418.20,234.84 418.55,237.81 418.90,236.69 419.25,234.60 419.60,235.00 419.95,232.87 420.30,230.57 420.65,227.84 421.00,228.84 421.35,227.84 421.70,227.65 422.05,223.88 422.40,222.92 422.75,224.14 423.10,223.35 423.45,221.18 423.80,219.66 424.15,220.50 424.50,220.00 424.85,220.33 425.20,218.88 425.55,218.07 425.90,220.16 426.25,218.75 426.60,216.66 426.95,217.55 427.30,217.24 427.65,214.64 428.00,213.14 428.35,214.55 428.70,215.29 429.05,217.24 429.40,219.18 429.75,214.09 430.10,216.10 430.45,217.34 430.80,219.80 431.15,224.03 431.50,222.11 431.85,223.99 432.20,224.34 432.55,223.63 432.90,225.62 433.25,229.17 433.60,228.12 433.95,228.72 434.30,229.04 434.65,229.98 435.00,232.61 435.35,232.19 435.70,232.32 436.05,233.81 436.40,235.43 436.75,235.60 437.10,233.55 437.45,235.14 437.80,233.37 438.15,230.70 438.50,228.91 438.85,230.44 439.20,231.12 439.55,233.05 439.90,231.05 440.25,230.54 440.60,229.22 440.95,228.97 441.30,228.32 441.65,230.43 442.00,232.44 442.35,231.63 442.70,232.29 443.05,227.74 443.40,228.54 443.75,226.91 444.10,227.30 444.45,225.96 444.80,225.08 445.15,222.75 445.50,224.58 445.85,223.91 446.20,220.91 446.55,223.96 446.90,226.23 447.25,221.41 447.60,218.68 447.95,216.19 448.30,213.68 448.65,211.46 449.00,214.54 449.35,214.76 449.70,217.86 450.05,219.58 450.40,216.71 450.75,218.79 451.10,218.81 451.45,221.41 451.80,216.80 452.15,215.46 452.50,217.76 452.85,218.59 453.20,219.12 453.55,215.80 453.90,214.53 454.25,214.58 454.60,216.78 454.95,218.73 455.30,219.81 455.65,221.48 456.00,221.40 456.35,221.99 456.70,220.18 457.05,218.57 457.40,217.98 457.75,219.68 458.10,221.25 458.45,223.17 458.80,228.10 459.15,228.78 459.50,231.39 459.85,233.64 460.20,229.87 460.55,235.06 460.90,238.14 461.25,237.52 461.60,236.91 461.95,238.66 462.30,238.85 462.65,241.22 463.00,236.96 463.35,240.24 463.70,241.90 464.05,243.69 464.40,240.12 464.75,237.61 465.10,234.67 465.45,234.72 465.80,231.39 466.15,232.34 466.50,230.76 466.85,232.04 467.20,229.44 467.55,229.26 467.90,230.90 468.25,231.45 468.60,232.59 468.95,234.22 469.30,233.93 469.65,234.58 470.00,231.86 470.35,234.19 470.70,234.76 471.05,236.63 471.40,237.36 471.75,237.49 472.10,236.39 472.45,233.97 472.80,228.62 473.15,226.86 473.50,230.47 473.85,228.55 474.20,229.13 474.55,229.32 474.90,233.86 475.25,233.21 475.60,237.84 475.95,239.95 476.30,236.62 476.65,234.52 477.00,234.44 477.35,236.12 477.70,235.57 478.05,236.00 478.40,235.96 478.75,238.24 479.10,236.35 479.45,233.59 479.80,228.51 480.15,231.48 480.50,228.87 480.85,226.22 481.20,226.26 481.55,225.81 481.90,225.26 482.25,221.85 482.60,216.07 482.95,215.14 483.30,214.82 483.65,217.27 484.00,214.93 484.35,214.71 484.70,214.88 485.05,216.59 485.40,217.38 485.75,218.81 486.10,216.94 486.45,216.65 486.80,211.86 487.15,211.34 487.50,210.18 487.85,208.77 488.20,210.37 488.55,212.34 488.90,209.26 489.25,211.02 489.60,207.64 489.95,206.01 490.30,206.55 490.65,209.42 491.00,208.00 491.35,207.86 491.70,206.82 492.05,204.95 492.40,205.83 492.75,202.38 493.10,203.58 493.45,204.81 493.80,203.53 494.15,204.29 494.50,203.29 494.85,201.87 495.20,200.56 495.55,202.23 495.90,205.17 496.25,207.07 496.60,204.31 496.95,202.15 497.30,200.59 497.65,198.87 498.00,197.90 498.35,194.50 498.70,194.06 499.05,192.94 499.40,191.24 499.75,193.21 500.10,194.57 500.45,194.96 500.80,197.62 501.15,197.60 501.50,201.98 501.85,200.84 502.20,206.06 502.55,203.10 502.90,204.60 503.25,201.55 503.60,206.09 503.95,205.48 504.30,201.29 504.65,200.02 505.00,200.75 505.35,201.97 505.70,199.12 506.05,199.43 506.40,199.27 506.75,200.46 507.10,199.40 507.45,196.36 507.80,196.61 508.15,196.00 508.50,195.45 508.85,200.88 509.20,204.43 509.55,203.17 509.90,201.00 510.25,201.89 510.60,202.77 510.95,202.84 511.30,203.02 511.65,199.23 512.00,195.83 512.35,198.38 512.70,196.30 513.05,198.08 513.40,198.85 513.75,194.21 514.10,192.62 514.45,193.20 514.80,189.85 515.15,189.37 515.50,190.42 515.85,187.72 516.20,189.86 516.55,189.96 516.90,188.00 517.25,184.71 517.60,183.29 517.95,181.31 518.30,184.02 518.65,185.04 519.00,185.57 519.35,184.71 519.70,184.35 520.05,185.21 520.40,185.58 520.75,186.70 521.10,185.12 521.45,184.82 521.80,183.78 522.15,184.06 522.50,185.36 522.85,184.05 523.20,184.41 523.55,186.16 523.90,190.24 524.25,186.70 524.60,185.11 524.95,184.80 525.30,179.61 525.65,180.15 526.00,176.49 526.35,180.23 526.70,180.39 527.05,179.34 527.40,178.58 527.75,175.26 528.10,176.12 528.45,175.06 528.80,172.71 529.15,173.40 529.50,172.18 529.85,168.25 530.20,168.29 530.55,166.79 530.90,167.40 531.25,169.72 531.60,171.04 531.95,170.12 532.30,166.54 532.65,165.85 533.00,163.79 533.35,164.39 533.70,164.54 534.05,164.69 534.40,168.41 534.75,167.12 535.10,169.89 535.45,170.87 535.80,170.19 536.15,170.68 536.50,170.77 536.85,167.89 537.20,169.42 537.55,167.00 537.90,167.57 538.25,167.49 538.60,166.79 538.95,166.10 539.30,167.56 539.65,169.92 540.00,167.35 540.35,168.65 540.70,166.76 541.05,166.48 541.40,163.17 541.75,165.77 542.10,167.51 542.45,166.19 542.80,162.72 543.15,161.35 543.50,161.42 543.85,160.60 544.20,156.09 544.55,156.40 544.90,156.20 545.25,158.84 545.60,154.59 545.95,151.93 546.30,150.24 546.65,152.15 547.00,152.48 547.35,150.19 547.70,153.28 548.05,154.56 548.40,155.98 548.75,153.52 549.10,152.35 549.45,150.05 549.80,153.89 550.15,151.27 550.50,155.06 550.85,155.89 551.20,153.25 551.55,156.91 551.90,158.00 552.25,159.69 552.60,159.57 552.95,157.09 553.30,157.26 553.65,156.55 554.00,155.59 554.35,154.73 554.70,155.43 555.05,156.65 555.40,157.83 555.75,158.72 556.10,154.59 556.45,157.48 556.80,159.12 557.15,159.80 557.50,164.62 557.85,164.67 558.20,163.75 558.55,167.22 558.90,163.66 559.25,163.33 559.60,163.84 559.95,161.88 560.30,159.53 560.65,158.84 561.00,157.61 561.35,157.58 561.70,156.43 562.05,153.85 562.40,154.15 562.75,152.61 563.10,153.39 563.45,152.11 563.80,154.72 564.15,153.60 564.50,149.41 564.85,144.92 565.20,145.81 565.55,145.26 565.90,143.08 566.25,144.14 566.60,139.85 566.95,140.78 567.30,138.91 567.65,138.53 568.00,136.59 568.35,134.22 568.70,130.01 569.05,128.94 569.40,129.49 569.75,126.85 570.10,125.56 570.45,124.07 570.80,126.02 571.15,127.73 571.50,126.21 571.85,125.78 572.20,125.43 572.55,126.71 572.90,124.95 573.25,123.13 573.60,119.69 573.95,118.11 574.30,113.87 574.65,113.31 575.00,117.63 575.35,116.52 575.70,112.03 576.05,112.71 576.40,110.44 576.75,109.55 577.10,107.97 577.45,108.47 577.80,107.29 578.15,106.46 578.50,101.72 578.85,106.66 579.20,102.87 579.55,106.26 579.90,102.40 580.25,102.82 580.60,101.53 580.95,102.66 581.30,106.02 581.65,105.34 582.00,105.15 582.35,105.95 582.70,103.42 583.05,104.96 583.40,107.22 583.75,109.89 584.10,110.29 584.45,106.12 584.80,111.80 585.15,109.60 585.50,109.07 585.85,108.14 586.20,107.84 586.55,105.18 586.90,105.01 587.25,108.20 587.60,108.27 587.95,111.94 588.30,114.95 588.65,112.31 589.00,111.37 589.35,105.23 589.70,99.55 590.05,99.93 590.40,100.73 590.75,99.82 591.10,105.23 591.45,107.16 591.80,108.90 592.15,108.71 592.50,109.56 592.85,110.44 593.20,111.82 593.55,114.01 593.90,113.42 594.25,110.65 594.60,109.55 594.95,107.81 595.30,111.38 595.65,115.63 596.00,114.37 596.35,111.22 596.70,107.63 597.05,109.77 597.40,108.76 597.75,110.32 598.10,111.71 598.45,112.60 598.80,111.24 599.15,114.02 599.50,117.73 599.85,116.67 600.20,119.01 600.55,118.69 600.90,119.68 601.25,115.01 601.60,113.75 601.95,109.05 602.30,108.66 602.65,109.17 603.00,103.69 603.35,99.91 603.70,96.56 604.05,94.09 604.40,94.68 604.75,97.74 605.10,97.42 605.45,99.21 605.80,96.82 606.15,94.63 606.50,95.78 606.85,102.34 607.20,103.64 607.55,99.72 607.90,104.58 608.25,102.27 608.60,107.65 608.95,106.57 609.30,108.12 609.65,109.80 610.00,105.89 610.35,107.48 610.70,107.10 611.05,109.53 611.40,107.22 611.75,101.53 612.10,98.42 612.45,101.70 612.80,105.25 613.15,103.77 613.50,107.49 613.85,101.40 614.20,103.07 614.55,101.69 614.90,102.48 615.25,98.97 615.60,102.74 615.95,103.48 616.30,102.90 616.65,103.39 617.00,105.45 617.35,113.56 617.70,115.32 618.05,114.59 618.40,114.94 618.75,115.81 619.10,119.13 619.45,118.87 619.80,123.39 620.15,124.63 620.50,129.13 620.85,128.67 621.20,126.54 621.55,125.03 621.90,120.85 622.25,119.10 622.60,120.52 622.95,121.27 623.30,122.58 623.65,126.95 624.00,129.34 624.35,124.12 624.70,125.27 625.05,128.35 625.40,126.47 625.75,131.44 626.10,126.26 626.45,129.70 626.80,126.50 627.15,126.02 627.50,123.03 627.85,121.52 628.20,123.01 628.55,124.23 628.90,127.69 629.25,126.68 629.60,123.66 629.95,120.38 630.30,123.44 630.65,123.28 631.00,124.54 631.35,123.32 631.70,126.52 632.05,124.16 632.40,120.09 632.75,125.09 633.10,127.28 633.45,124.56 633.80,121.03 634.15,126.39 634.50,128.25 634.85,131.17 635.20,129.29 635.55,124.99 635.90,131.03 636.25,127.64 636.60,125.13 636.95,126.58 637.30,124.09 637.65,119.09 638.00,120.34 638.35,118.66 638.70,117.67 639.05,120.36 639.40,121.44 639.75,115.50 640.10,114.81 640.45,115.58 640.80,119.00 641.15,119.73 641.50,121.29 641.85,123.68 642.20,121.17 642.55,122.85 642.90,120.92 643.25,115.82 643.60,119.23 643.95,113.24 644.30,106.62 644.65,108.73 645.00,109.28 645.35,105.75 645.70,109.68 646.05,107.28 646.40,108.69 646.75,105.75 647.10,113.32 647.45,115.38 647.80,115.56 648.15,113.40 648.50,114.26 648.85,113.34 649.20,110.93 649.55,110.59 649.90,106.47 650.25,109.59 650.60,111.43 650.95,101.59 651.30,101.08 651.65,105.58 652.00,107.73 652.35,101.64 652.70,103.96 653.05,102.43 653.40,99.12 653.75,102.19 654.10,97.11 654.45,93.67 654.80,96.58 655.15,99.26 655.50,93.00 655.85,96.77 656.20,99.21 656.55,98.33 656.90,99.34 657.25,98.87 657.60,98.56 657.95,92.34 658.30,98.25 658.65,97.49 659.00,100.19 659.35,100.56 659.70,99.83 660.05,100.72 660.40,108.06 660.75,107.13 661.10,107.30 661.45,114.12 661.80,118.20 662.15,115.40 662.50,117.79 662.85,115.60 663.20,115.98 663.55,118.58 663.90,124.52 664.25,126.73 664.60,128.29 664.95,125.39 665.30,126.31 665.65,127.34 666.00,133.22 666.35,133.57 666.70,137.50 667.05,132.50 667.40,136.83 667.75,136.60 668.10,136.02 668.45,133.82 668.80,135.11 669.15,132.07 669.50,134.70 669.85,134.48 670.20,133.42 670.55,136.13 670.90,138.04 671.25,138.75 671.60,139.48 671.95,143.09 672.30,141.94 672.65,144.75 673.00,145.90 673.35,147.75 673.70,147.37 674.05,144.34 674.40,147.37 674.75,147.89 675.10,150.02 675.45,141.75 675.80,145.36 676.15,140.85 676.50,145.42 676.85,148.30 677.20,147.32 677.55,145.08 677.90,145.59 678.25,144.99 678.60,144.13 678.95,145.45 679.30,144.81 679.65,143.16 680.00,138.42 680.35,139.24 680.70,140.52 681.05,142.63 681.40,136.19 681.75,136.70 682.10,138.49 682.45,136.83 682.80,134.04 683.15,137.81 683.50,139.84 683.85,136.71 684.20,136.93 684.55,134.72 684.90,131.26 685.25,131.99 685.60,127.99 685.95,125.23 686.30,122.79 686.65,122.71 687.00,121.76 687.35,118.13 687.70,118.28 688.05,117.28 688.40,116.58 688.75,115.94 689.10,116.98 689.45,111.18 689.80,116.34 690.15,110.26 690.50,99.47 690.85,104.60 691.20,105.34 691.55,102.28 691.90,101.17 692.25,101.73 692.60,100.14 692.95,97.31 693.30,94.68 693.65,96.54 694.00,100.57 694.35,100.53 694.70,97.83 695.05,100.75 695.40,100.80 695.75,99.83 696.10,98.72 696.45,101.92 696.80,108.14 697.15,107.10 697.50,104.16 697.85,100.87 698.20,101.61 698.55,97.44 698.90,96.64 699.25,95.77 699.60,99.70 699.95,97.92 700.30,97.01 700.65,98.81 701.00,99.92 701.35,101.50 701.70,99.21 702.05,97.55 702.40,97.30 702.75,96.24 703.10,98.19 703.45,98.30 703.80,99.86 704.15,99.41 704.50,94.46 704.85,95.63 705.20,93.79 705.55,89.71 705.90,90.28 706.25,90.52 706.60,94.39 706.95,98.01 707.30,98.12 707.65,95.61 708.00,99.56 708.35,101.42 708.70,101.70 709.05,101.29 709.40,108.72 709.75,107.97 710.10,109.54 710.45,106.52 710.80,100.74 711.15,105.16 711.50,101.85 711.85,102.82 712.20,104.89 712.55,98.78 712.90,95.90 713.25,94.03 713.60,94.48 713.95,91.96 714.30,93.05 714.65,93.31 715.00,90.54 715.35,92.85 715.70,96.24 716.05,101.19 716.40,106.91 716.75,108.74 717.10,106.40 717.45,102.97 717.80,102.92 718.15,102.70 718.50,100.81 718.85,94.73 719.20,94.42 719.55,97.76 719.90,97.14 720.25,96.88 720.60,97.93 720.95,103.13 721.30,102.26 721.65,107.30 722.00,105.40 722.35,103.03 722.70,108.73 723.05,114.13 723.40,109.80 723.75,108.20 724.10,110.25 724.45,110.93 724.80,114.62 725.15,113.71 725.50,118.49 725.85,117.10 726.20,116.87 726.55,116.62 726.90,116.23 727.25,116.25 727.60,119.37 727.95,117.02 728.30,124.01 728.65,122.57 729.00,123.91 729.35,126.64 729.70,126.20 730.05,128.87 730.40,122.48 730.75,121.92 731.10,120.82 731.45,121.60 731.80,120.29 732.15,117.68 732.50,118.37 732.85,118.37 733.20,114.37 733.55,107.43 733.90,106.37 734.25,109.47 734.60,111.86 734.95,109.81 735.30,111.28 735.65,108.19 736.00,108.00 736.35,109.83 736.70,108.48 737.05,107.50 737.40,106.84 737.75,107.93 738.10,108.92 738.45,106.07 738.80,97.80 739.15,94.69 739.50,94.53 739.85,98.32 740.20,96.74 740.55,99.47 740.90,103.27 741.25,98.97 741.60,105.63 741.95,106.15 742.30,108.34 742.65,110.55 743.00,108.70 743.35,108.72 743.70,109.01 744.05,110.36 744.40,109.12 744.75,113.97 745.10,115.31 745.45,115.81 745.80,116.98 746.15,122.67 746.50,121.61 746.85,128.27 747.20,129.37 747.55,129.06 747.90,135.30 748.25,138.69 748.60,141.48 748.95,143.01 749.30,139.27 749.65,133.85 750.00,134.87 750.35,135.64 750.70,137.15 751.05,136.57 751.40,136.36 751.75,136.45 752.10,135.43 752.45,134.63 752.80,136.97 753.15,139.49 753.50,139.40 753.85,142.39 754.20,143.41 754.55,146.28 754.90,145.38 755.25,147.33 755.60,146.99 755.95,151.75 756.30,150.69 756.65,150.99 757.00,152.02 757.35,149.48 757.70,150.64 758.05,147.22 758.40,146.76 758.75,145.98 759.10,146.85 759.45,152.60 759.80,152.32 760.15,152.43 760.50,151.44 760.85,154.59 761.20,156.19 761.55,154.20 761.90,160.48 762.25,163.24 762.60,168.03 762.95,168.88 763.30,170.33 763.65,170.54 764.00,165.30 764.35,160.93 764.70,158.71 765.05,158.97 765.40,158.69 765.75,156.39 766.10,148.88 766.45,146.44 766.80,144.75 767.15,147.94 767.50,148.25 767.85,146.71 768.20,147.89 768.55,153.54 768.90,151.26 769.25,145.70 769.60,146.78 769.95,146.93 770.30,141.18 770.65,137.43 771.00,138.20 771.35,138.78 771.70,138.09 772.05,146.90 772.40,144.87 772.75,146.77 773.10,144.37 773.45,146.98 773.80,139.75 774.15,140.00 774.50,141.33 774.85,143.16 775.20,143.20 775.55,143.55 775.90,142.57 776.25,148.26 776.60,145.22 776.95,145.92 777.30,143.92 777.65,145.29 778.00,144.42 778.35,140.62 778.70,141.71 779.05,139.20 779.40,142.33 779.75,142.94 780.10,138.77 780.45,138.49 780.80,142.36 781.15,145.93 781.50,144.07 781.85,142.18 782.20,141.53 782.55,144.84 782.90,145.91 783.25,145.62 783.60,142.98 783.95,142.63 784.30,141.89 784.65,138.86 785.00,133.31"/>
<line x1="813" y1="54" x2="839" y2="54" stroke="#2563eb" stroke-width="3"/>
<text x="847" y="58" font-family="Arial" font-size="13" fill="#111827">low volatility</text>
<polyline fill="none" stroke="#dc2626" stroke-width="2" points="85.00,304.17 85.35,304.17 85.70,304.17 86.05,304.17 86.40,304.17 86.75,304.17 87.10,304.01 87.45,303.87 87.80,303.82 88.15,303.80 88.50,303.74 88.85,303.74 89.20,303.77 89.55,303.90 89.90,304.05 90.25,303.90 90.60,303.26 90.95,302.64 91.30,302.77 91.65,302.97 92.00,303.13 92.35,302.76 92.70,302.43 93.05,302.46 93.40,302.73 93.75,302.38 94.10,302.45 94.45,302.88 94.80,302.97 95.15,303.30 95.50,303.22 95.85,303.58 96.20,303.26 96.55,303.56 96.90,303.77 97.25,303.63 97.60,303.87 97.95,303.99 98.30,303.82 98.65,303.55 99.00,303.46 99.35,303.50 99.70,303.70 100.05,303.84 100.40,303.71 100.75,303.51 101.10,302.90 101.45,302.68 101.80,302.35 102.15,302.21 102.50,300.14 102.85,299.76 103.20,300.44 103.55,300.58 103.90,302.25 104.25,304.48 104.60,306.49 104.95,307.26 105.30,305.79 105.65,305.18 106.00,304.34 106.35,304.97 106.70,302.89 107.05,301.69 107.40,300.99 107.75,300.12 108.10,301.38 108.45,303.25 108.80,304.43 109.15,303.82 109.50,303.90 109.85,306.13 110.20,305.71 110.55,306.41 110.90,307.75 111.25,307.82 111.60,307.00 111.95,306.31 112.30,305.54 112.65,301.23 113.00,300.91 113.35,303.98 113.70,304.21 114.05,303.26 114.40,305.91 114.75,307.27 115.10,306.96 115.45,305.99 115.80,307.04 116.15,306.14 116.50,304.82 116.85,306.38 117.20,303.61 117.55,303.35 117.90,298.94 118.25,294.40 118.60,293.60 118.95,291.92 119.30,294.82 119.65,296.12 120.00,296.30 120.35,292.58 120.70,295.92 121.05,292.97 121.40,293.82 121.75,296.33 122.10,292.62 122.45,290.34 122.80,288.66 123.15,290.06 123.50,292.53 123.85,289.96 124.20,291.20 124.55,292.16 124.90,292.20 125.25,290.60 125.60,292.22 125.95,291.19 126.30,289.27 126.65,289.42 127.00,290.07 127.35,291.35 127.70,295.75 128.05,301.22 128.40,302.94 128.75,303.15 129.10,301.08 129.45,299.69 129.80,299.03 130.15,299.75 130.50,301.00 130.85,299.52 131.20,300.94 131.55,301.13 131.90,303.09 132.25,308.29 132.60,306.62 132.95,305.43 133.30,303.31 133.65,297.36 134.00,301.18 134.35,303.19 134.70,299.60 135.05,294.58 135.40,294.17 135.75,293.79 136.10,294.23 136.45,290.85 136.80,293.95 137.15,293.30 137.50,293.12 137.85,294.46 138.20,291.68 138.55,291.94 138.90,285.75 139.25,290.74 139.60,293.59 139.95,294.50 140.30,295.68 140.65,294.30 141.00,292.31 141.35,294.39 141.70,288.11 142.05,285.51 142.40,286.15 142.75,279.88 143.10,281.14 143.45,280.81 143.80,277.91 144.15,280.81 144.50,275.06 144.85,274.55 145.20,271.16 145.55,277.54 145.90,276.21 146.25,277.39 146.60,275.67 146.95,278.36 147.30,279.25 147.65,279.57 148.00,280.11 148.35,279.73 148.70,279.99 149.05,280.13 149.40,285.58 149.75,285.07 150.10,280.78 150.45,281.62 150.80,282.75 151.15,280.87 151.50,280.27 151.85,277.03 152.20,276.05 152.55,278.14 152.90,278.43 153.25,280.75 153.60,280.81 153.95,281.75 154.30,281.70 154.65,281.22 155.00,281.46 155.35,274.72 155.70,280.69 156.05,280.28 156.40,279.37 156.75,281.59 157.10,278.34 157.45,277.85 157.80,278.43 158.15,277.48 158.50,276.04 158.85,275.53 159.20,275.88 159.55,277.09 159.90,278.87 160.25,273.49 160.60,271.67 160.95,274.03 161.30,274.72 161.65,273.21 162.00,271.82 162.35,270.35 162.70,270.96 163.05,271.59 163.40,273.04 163.75,275.45 164.10,276.45 164.45,275.00 164.80,274.94 165.15,276.44 165.50,278.95 165.85,280.24 166.20,280.39 166.55,279.05 166.90,275.89 167.25,275.80 167.60,273.82 167.95,273.00 168.30,276.21 168.65,279.63 169.00,281.14 169.35,282.37 169.70,286.26 170.05,283.96 170.40,281.25 170.75,279.69 171.10,280.60 171.45,281.33 171.80,282.38 172.15,282.96 172.50,283.32 172.85,284.01 173.20,284.71 173.55,285.13 173.90,284.38 174.25,285.63 174.60,286.53 174.95,290.71 175.30,288.16 175.65,287.85 176.00,291.66 176.35,292.56 176.70,292.16 177.05,296.09 177.40,298.05 177.75,297.07 178.10,297.80 178.45,293.64 178.80,291.55 179.15,291.12 179.50,290.86 179.85,289.52 180.20,288.49 180.55,292.97 180.90,293.98 181.25,294.02 181.60,294.13 181.95,291.81 182.30,291.38 182.65,293.06 183.00,293.91 183.35,295.32 183.70,295.24 184.05,294.08 184.40,293.55 184.75,294.15 185.10,293.27 185.45,296.13 185.80,296.90 186.15,294.63 186.50,294.31 186.85,294.47 187.20,294.99 187.55,295.90 187.90,295.60 188.25,295.34 188.60,294.52 188.95,295.36 189.30,294.55 189.65,295.15 190.00,296.03 190.35,295.82 190.70,295.55 191.05,295.10 191.40,295.45 191.75,296.49 192.10,296.94 192.45,296.49 192.80,296.83 193.15,297.03 193.50,297.64 193.85,297.36 194.20,296.71 194.55,296.92 194.90,297.08 195.25,297.20 195.60,297.45 195.95,297.36 196.30,297.16 196.65,297.13 197.00,296.91 197.35,297.30 197.70,297.02 198.05,296.72 198.40,298.05 198.75,296.76 199.10,297.05 199.45,295.62 199.80,297.01 200.15,297.82 200.50,297.44 200.85,296.91 201.20,297.62 201.55,296.29 201.90,296.23 202.25,295.73 202.60,294.20 202.95,296.11 203.30,296.99 203.65,297.99 204.00,299.07 204.35,297.16 204.70,297.78 205.05,298.96 205.40,297.86 205.75,297.75 206.10,296.98 206.45,296.66 206.80,296.78 207.15,298.22 207.50,299.42 207.85,300.00 208.20,300.26 208.55,301.54 208.90,301.72 209.25,301.52 209.60,302.24 209.95,300.84 210.30,300.34 210.65,299.70 211.00,300.49 211.35,302.16 211.70,302.01 212.05,302.74 212.40,302.04 212.75,300.97 213.10,300.79 213.45,300.82 213.80,300.75 214.15,299.47 214.50,299.38 214.85,299.34 215.20,298.93 215.55,299.89 215.90,299.84 216.25,300.06 216.60,300.12 216.95,299.98 217.30,299.75 217.65,299.43 218.00,300.36 218.35,299.53 218.70,299.19 219.05,298.54 219.40,298.97 219.75,300.48 220.10,298.80 220.45,300.60 220.80,300.50 221.15,301.24 221.50,301.41 221.85,302.04 222.20,300.89 222.55,300.10 222.90,300.66 223.25,301.50 223.60,300.92 223.95,302.66 224.30,301.73 224.65,300.40 225.00,300.94 225.35,300.09 225.70,300.70 226.05,301.19 226.40,302.93 226.75,302.89 227.10,302.81 227.45,301.76 227.80,301.68 228.15,299.39 228.50,300.73 228.85,299.92 229.20,299.33 229.55,298.40 229.90,297.50 230.25,296.28 230.60,295.58 230.95,297.77 231.30,296.36 231.65,295.88 232.00,295.66 232.35,293.57 232.70,292.74 233.05,293.25 233.40,293.21 233.75,291.49 234.10,291.53 234.45,289.26 234.80,290.21 235.15,290.48 235.50,288.62 235.85,288.74 236.20,288.31 236.55,288.96 236.90,289.02 237.25,290.96 237.60,291.72 237.95,292.28 238.30,291.62 238.65,291.03 239.00,290.65 239.35,291.98 239.70,292.09 240.05,291.53 240.40,291.13 240.75,291.84 241.10,289.59 241.45,289.01 241.80,288.28 242.15,287.12 242.50,290.04 242.85,291.46 243.20,292.83 243.55,295.39 243.90,296.44 244.25,299.10 244.60,298.76 244.95,300.45 245.30,300.78 245.65,299.75 246.00,299.11 246.35,298.06 246.70,297.71 247.05,296.04 247.40,296.01 247.75,296.40 248.10,298.30 248.45,298.06 248.80,300.06 249.15,302.18 249.50,304.73 249.85,304.56 250.20,306.90 250.55,305.83 250.90,306.03 251.25,306.12 251.60,309.09 251.95,309.77 252.30,311.93 252.65,312.82 253.00,312.58 253.35,314.12 253.70,314.99 254.05,315.41 254.40,316.58 254.75,315.44 255.10,317.34 255.45,318.46 255.80,319.62 256.15,320.88 256.50,319.37 256.85,320.91 257.20,320.06 257.55,319.32 257.90,321.20 258.25,323.37 258.60,322.76 258.95,322.96 259.30,324.48 259.65,323.06 260.00,323.88 260.35,326.32 260.70,326.41 261.05,325.32 261.40,327.36 261.75,325.98 262.10,329.25 262.45,327.12 262.80,329.22 263.15,331.07 263.50,330.99 263.85,329.03 264.20,327.22 264.55,326.51 264.90,325.48 265.25,322.04 265.60,322.03 265.95,321.97 266.30,320.70 266.65,320.25 267.00,320.69 267.35,317.95 267.70,319.02 268.05,320.01 268.40,317.61 268.75,319.86 269.10,319.38 269.45,318.92 269.80,317.71 270.15,317.00 270.50,317.55 270.85,317.21 271.20,317.70 271.55,315.55 271.90,315.49 272.25,316.58 272.60,318.27 272.95,320.35 273.30,320.01 273.65,320.22 274.00,322.21 274.35,320.41 274.70,320.04 275.05,321.67 275.40,326.55 275.75,322.74 276.10,321.48 276.45,317.32 276.80,316.53 277.15,314.45 277.50,312.07 277.85,312.67 278.20,315.27 278.55,315.30 278.90,315.91 279.25,316.80 279.60,316.16 279.95,314.08 280.30,316.76 280.65,316.49 281.00,315.53 281.35,315.59 281.70,318.14 282.05,317.18 282.40,316.73 282.75,317.37 283.10,319.59 283.45,320.04 283.80,319.11 284.15,319.48 284.50,320.40 284.85,321.88 285.20,322.37 285.55,322.65 285.90,322.50 286.25,321.14 286.60,320.93 286.95,319.57 287.30,321.07 287.65,321.57 288.00,321.96 288.35,320.86 288.70,319.94 289.05,321.23 289.40,321.51 289.75,321.79 290.10,321.91 290.45,321.68 290.80,321.68 291.15,321.68 291.50,321.28 291.85,321.40 292.20,321.42 292.55,321.18 292.90,321.20 293.25,321.19 293.60,321.45 293.95,321.43 294.30,321.59 294.65,321.84 295.00,321.67 295.35,321.54 295.70,321.75 296.05,321.73 296.40,321.40 296.75,321.92 297.10,321.94 297.45,321.80 297.80,321.84 298.15,322.04 298.50,322.07 298.85,322.14 299.20,321.99 299.55,321.34 299.90,321.56 300.25,321.45 300.60,321.66 300.95,321.41 301.30,321.39 301.65,321.11 302.00,320.50 302.35,320.80 302.70,320.82 303.05,320.67 303.40,320.18 303.75,319.75 304.10,319.84 304.45,320.10 304.80,320.06 305.15,320.08 305.50,319.98 305.85,319.95 306.20,319.95 306.55,319.95 306.90,319.95 307.25,319.95 307.60,319.95 307.95,319.95 308.30,319.95 308.65,319.95 309.00,319.95 309.35,319.89 309.70,320.07 310.05,320.13 310.40,320.47 310.75,320.46 311.10,320.56 311.45,321.34 311.80,320.89 312.15,320.82 312.50,320.80 312.85,320.83 313.20,321.29 313.55,320.52 313.90,319.64 314.25,320.00 314.60,319.11 314.95,319.24 315.30,319.42 315.65,319.52 316.00,319.09 316.35,318.12 316.70,317.17 317.05,315.11 317.40,315.09 317.75,318.11 318.10,315.30 318.45,312.47 318.80,310.99 319.15,310.51 319.50,308.97 319.85,306.34 320.20,307.45 320.55,306.12 320.90,305.27 321.25,305.12 321.60,306.78 321.95,308.02 322.30,308.58 322.65,304.78 323.00,306.14 323.35,305.78 323.70,307.65 324.05,306.99 324.40,306.94 324.75,307.49 325.10,307.13 325.45,307.81 325.80,307.43 326.15,305.15 326.50,304.61 326.85,302.83 327.20,303.00 327.55,302.05 327.90,304.58 328.25,304.66 328.60,305.60 328.95,305.36 329.30,305.95 329.65,306.79 330.00,306.22 330.35,307.55 330.70,309.58 331.05,309.95 331.40,306.43 331.75,307.17 332.10,307.60 332.45,304.22 332.80,304.40 333.15,303.15 333.50,297.63 333.85,296.03 334.20,294.61 334.55,296.72 334.90,294.60 335.25,296.61 335.60,293.75 335.95,294.10 336.30,296.19 336.65,296.16 337.00,295.94 337.35,295.69 337.70,295.85 338.05,295.44 338.40,295.04 338.75,297.18 339.10,295.74 339.45,294.84 339.80,294.08 340.15,293.75 340.50,293.84 340.85,294.34 341.20,294.14 341.55,292.56 341.90,293.82 342.25,296.31 342.60,294.09 342.95,292.52 343.30,292.09 343.65,292.92 344.00,292.84 344.35,292.81 344.70,292.66 345.05,292.75 345.40,292.78 345.75,292.18 346.10,292.36 346.45,292.38 346.80,292.19 347.15,291.81 347.50,291.87 347.85,291.96 348.20,291.64 348.55,291.91 348.90,291.59 349.25,291.34 349.60,291.16 349.95,291.01 350.30,290.75 350.65,290.81 351.00,290.81 351.35,290.81 351.70,290.81 352.05,290.81 352.40,290.81 352.75,290.81 353.10,290.81 353.45,290.81 353.80,290.81 354.15,290.81 354.50,290.69 354.85,290.98 355.20,290.84 355.55,290.84 355.90,290.99 356.25,292.44 356.60,292.83 356.95,292.55 357.30,291.53 357.65,292.52 358.00,292.38 358.35,292.90 358.70,292.81 359.05,291.55 359.40,291.30 359.75,290.68 360.10,292.12 360.45,291.72 360.80,291.80 361.15,291.73 361.50,292.58 361.85,291.92 362.20,293.10 362.55,291.15 362.90,291.59 363.25,293.58 363.60,293.31 363.95,292.40 364.30,291.57 364.65,293.09 365.00,294.30 365.35,294.90 365.70,295.35 366.05,298.36 366.40,300.17 366.75,299.36 367.10,301.00 367.45,301.44 367.80,301.92 368.15,303.80 368.50,303.19 368.85,302.21 369.20,298.93 369.55,296.56 369.90,295.59 370.25,295.57 370.60,294.51 370.95,296.10 371.30,290.99 371.65,287.54 372.00,287.49 372.35,286.21 372.70,285.91 373.05,288.11 373.40,289.88 373.75,290.79 374.10,288.75 374.45,290.78 374.80,291.94 375.15,290.85 375.50,287.76 375.85,285.96 376.20,281.95 376.55,280.71 376.90,279.49 377.25,280.83 377.60,278.50 377.95,278.98 378.30,278.66 378.65,280.36 379.00,282.68 379.35,279.40 379.70,285.14 380.05,283.64 380.40,279.52 380.75,278.32 381.10,279.14 381.45,278.40 381.80,278.20 382.15,279.92 382.50,279.87 382.85,279.71 383.20,277.49 383.55,280.17 383.90,279.07 384.25,281.40 384.60,282.68 384.95,285.61 385.30,284.59 385.65,284.82 386.00,284.88 386.35,284.35 386.70,286.44 387.05,283.62 387.40,282.90 387.75,282.58 388.10,282.47 388.45,286.65 388.80,287.86 389.15,286.94 389.50,287.61 389.85,285.02 390.20,284.46 390.55,286.85 390.90,287.86 391.25,286.44 391.60,288.87 391.95,290.49 392.30,288.70 392.65,287.00 393.00,285.61 393.35,285.41 393.70,287.50 394.05,290.26 394.40,288.02 394.75,288.31 395.10,286.20 395.45,288.08 395.80,287.14 396.15,283.75 396.50,285.55 396.85,287.21 397.20,289.36 397.55,287.76 397.90,293.96 398.25,295.55 398.60,295.62 398.95,293.86 399.30,293.86 399.65,291.68 400.00,290.27 400.35,288.27 400.70,286.99 401.05,289.26 401.40,287.10 401.75,286.33 402.10,285.06 402.45,283.56 402.80,281.52 403.15,280.93 403.50,279.99 403.85,283.97 404.20,286.75 404.55,286.53 404.90,282.64 405.25,280.81 405.60,287.06 405.95,281.04 406.30,278.85 406.65,281.48 407.00,277.18 407.35,276.16 407.70,277.83 408.05,286.23 408.40,287.91 408.75,287.61 409.10,295.25 409.45,296.02 409.80,298.46 410.15,300.29 410.50,300.72 410.85,299.83 411.20,300.43 411.55,298.37 411.90,300.18 412.25,297.86 412.60,295.56 412.95,294.06 413.30,294.93 413.65,298.10 414.00,296.87 414.35,294.92 414.70,297.30 415.05,295.98 415.40,299.51 415.75,296.71 416.10,294.81 416.45,290.69 416.80,289.41 417.15,285.53 417.50,288.58 417.85,292.56 418.20,296.90 418.55,295.68 418.90,297.60 419.25,299.65 419.60,303.57 419.95,307.74 420.30,309.03 420.65,309.88 421.00,311.74 421.35,313.67 421.70,312.12 422.05,315.62 422.40,321.51 422.75,322.09 423.10,324.08 423.45,324.27 423.80,325.23 424.15,324.73 424.50,328.89 424.85,327.45 425.20,331.43 425.55,332.47 425.90,327.47 426.25,328.96 426.60,326.06 426.95,325.20 427.30,322.63 427.65,325.32 428.00,328.17 428.35,330.40 428.70,333.90 429.05,338.76 429.40,331.47 429.75,329.32 430.10,326.97 430.45,327.19 430.80,325.54 431.15,325.98 431.50,326.97 431.85,326.53 432.20,326.10 432.55,323.08 432.90,322.08 433.25,321.94 433.60,323.84 433.95,321.73 434.30,329.56 434.65,326.91 435.00,328.75 435.35,321.34 435.70,320.51 436.05,326.78 436.40,327.19 436.75,321.45 437.10,320.69 437.45,325.41 437.80,320.76 438.15,323.34 438.50,324.01 438.85,321.65 439.20,320.35 439.55,322.36 439.90,321.74 440.25,324.44 440.60,323.26 440.95,325.60 441.30,326.89 441.65,327.07 442.00,325.30 442.35,330.32 442.70,336.04 443.05,340.82 443.40,344.46 443.75,349.59 444.10,345.32 444.45,340.88 444.80,347.37 445.15,341.28 445.50,342.95 445.85,343.96 446.20,344.68 446.55,344.66 446.90,337.79 447.25,340.46 447.60,337.37 447.95,341.70 448.30,342.31 448.65,335.01 449.00,335.04 449.35,336.91 449.70,344.69 450.05,348.74 450.40,351.29 450.75,347.25 451.10,344.13 451.45,351.45 451.80,350.41 452.15,350.45 452.50,345.99 452.85,347.75 453.20,352.72 453.55,354.58 453.90,355.39 454.25,357.09 454.60,361.24 454.95,365.50 455.30,364.76 455.65,365.28 456.00,363.39 456.35,364.56 456.70,369.38 457.05,371.90 457.40,371.31 457.75,370.23 458.10,375.60 458.45,375.63 458.80,369.16 459.15,371.69 459.50,369.65 459.85,376.05 460.20,380.28 460.55,380.00 460.90,376.12 461.25,372.58 461.60,371.76 461.95,370.35 462.30,376.76 462.65,371.16 463.00,363.87 463.35,364.60 463.70,365.53 464.05,357.36 464.40,360.21 464.75,359.71 465.10,361.40 465.45,358.31 465.80,359.05 466.15,352.13 466.50,358.46 466.85,361.97 467.20,359.30 467.55,364.47 467.90,370.93 468.25,372.26 468.60,364.42 468.95,370.88 469.30,376.17 469.65,383.35 470.00,383.09 470.35,382.30 470.70,387.82 471.05,391.94 471.40,392.91 471.75,385.88 472.10,383.20 472.45,377.21 472.80,378.33 473.15,381.86 473.50,383.12 473.85,379.86 474.20,381.03 474.55,379.31 474.90,389.63 475.25,389.40 475.60,393.85 475.95,386.14 476.30,386.60 476.65,386.10 477.00,387.85 477.35,390.96 477.70,388.85 478.05,387.43 478.40,390.06 478.75,378.74 479.10,377.28 479.45,376.65 479.80,379.85 480.15,372.85 480.50,365.03 480.85,371.86 481.20,368.23 481.55,366.12 481.90,365.01 482.25,363.18 482.60,366.85 482.95,377.75 483.30,384.19 483.65,392.54 484.00,393.29 484.35,394.84 484.70,397.16 485.05,393.84 485.40,388.54 485.75,388.84 486.10,393.67 486.45,397.72 486.80,390.46 487.15,392.55 487.50,387.08 487.85,395.66 488.20,394.43 488.55,395.05 488.90,396.49 489.25,401.33 489.60,401.03 489.95,402.79 490.30,403.92 490.65,409.74 491.00,408.68 491.35,402.18 491.70,395.91 492.05,393.70 492.40,390.28 492.75,391.50 493.10,387.62 493.45,391.12 493.80,386.11 494.15,389.57 494.50,390.10 494.85,399.90 495.20,404.82 495.55,407.74 495.90,405.63 496.25,402.96 496.60,402.11 496.95,393.88 497.30,392.38 497.65,393.58 498.00,393.77 498.35,398.70 498.70,391.83 499.05,395.18 499.40,400.77 499.75,398.33 500.10,395.53 500.45,390.40 500.80,386.47 501.15,387.79 501.50,384.06 501.85,378.90 502.20,376.79 502.55,380.32 502.90,378.79 503.25,379.17 503.60,380.49 503.95,378.95 504.30,372.79 504.65,374.34 505.00,380.69 505.35,384.57 505.70,383.80 506.05,383.09 506.40,390.42 506.75,390.07 507.10,391.93 507.45,392.42 507.80,395.12 508.15,391.39 508.50,382.94 508.85,389.71 509.20,395.18 509.55,394.76 509.90,391.01 510.25,386.20 510.60,389.58 510.95,395.44 511.30,397.38 511.65,404.94 512.00,401.49 512.35,402.57 512.70,405.30 513.05,409.87 513.40,409.69 513.75,412.92 514.10,407.19 514.45,401.66 514.80,405.18 515.15,406.41 515.50,402.17 515.85,403.37 516.20,398.63 516.55,398.25 516.90,402.18 517.25,402.93 517.60,408.51 517.95,405.11 518.30,403.12 518.65,403.25 519.00,399.06 519.35,408.43 519.70,408.42 520.05,401.15 520.40,396.26 520.75,394.07 521.10,397.80 521.45,395.89 521.80,396.37 522.15,394.78 522.50,397.86 522.85,399.11 523.20,399.66 523.55,400.52 523.90,399.08 524.25,396.85 524.60,393.14 524.95,395.03 525.30,396.54 525.65,397.82 526.00,398.02 526.35,396.24 526.70,397.64 527.05,399.86 527.40,401.46 527.75,401.60 528.10,402.15 528.45,401.48 528.80,396.15 529.15,394.10 529.50,390.27 529.85,390.06 530.20,388.93 530.55,386.19 530.90,388.64 531.25,394.09 531.60,394.78 531.95,395.82 532.30,397.94 532.65,394.86 533.00,392.34 533.35,391.51 533.70,386.25 534.05,385.78 534.40,385.07 534.75,384.24 535.10,379.48 535.45,384.62 535.80,385.51 536.15,380.09 536.50,380.27 536.85,380.60 537.20,381.93 537.55,379.91 537.90,377.62 538.25,379.63 538.60,381.80 538.95,382.36 539.30,385.10 539.65,381.93 540.00,381.23 540.35,381.30 540.70,385.30 541.05,384.02 541.40,377.79 541.75,379.98 542.10,377.29 542.45,375.05 542.80,371.26 543.15,371.68 543.50,368.37 543.85,369.48 544.20,374.43 544.55,379.36 544.90,385.07 545.25,384.72 545.60,380.32 545.95,384.97 546.30,385.43 546.65,382.60 547.00,385.64 547.35,386.78 547.70,387.63 548.05,394.46 548.40,393.09 548.75,397.07 549.10,398.17 549.45,396.63 549.80,400.77 550.15,404.16 550.50,405.64 550.85,408.34 551.20,404.34 551.55,402.52 551.90,403.05 552.25,407.29 552.60,404.76 552.95,402.84 553.30,404.12 553.65,408.97 554.00,412.81 554.35,411.82 554.70,412.20 555.05,413.85 555.40,409.71 555.75,413.99 556.10,408.64 556.45,416.96 556.80,418.37 557.15,416.67 557.50,412.63 557.85,406.79 558.20,408.71 558.55,409.56 558.90,411.91 559.25,408.19 559.60,407.27 559.95,404.32 560.30,406.51 560.65,407.11 561.00,406.40 561.35,406.95 561.70,403.80 562.05,405.76 562.40,399.81 562.75,399.93 563.10,397.65 563.45,395.60 563.80,397.45 564.15,393.23 564.50,396.14 564.85,396.89 565.20,393.86 565.55,390.91 565.90,393.43 566.25,394.56 566.60,388.84 566.95,386.17 567.30,388.60 567.65,391.17 568.00,389.40 568.35,389.02 568.70,383.72 569.05,383.14 569.40,381.91 569.75,381.91 570.10,384.44 570.45,385.92 570.80,388.77 571.15,391.84 571.50,389.63 571.85,385.84 572.20,389.03 572.55,384.54 572.90,382.68 573.25,381.36 573.60,381.13 573.95,383.09 574.30,388.51 574.65,386.75 575.00,390.52 575.35,390.22 575.70,389.11 576.05,391.07 576.40,390.63 576.75,393.14 577.10,390.63 577.45,388.66 577.80,389.69 578.15,390.21 578.50,392.92 578.85,394.13 579.20,393.73 579.55,395.97 579.90,398.66 580.25,397.13 580.60,396.93 580.95,395.40 581.30,393.88 581.65,396.41 582.00,395.35 582.35,394.80 582.70,397.23 583.05,394.70 583.40,396.05 583.75,398.15 584.10,401.36 584.45,406.43 584.80,407.62 585.15,410.07 585.50,409.69 585.85,416.45 586.20,417.64 586.55,421.15 586.90,426.33 587.25,433.14 587.60,435.56 587.95,432.10 588.30,430.18 588.65,431.86 589.00,428.22 589.35,427.95 589.70,433.27 590.05,426.74 590.40,428.12 590.75,424.26 591.10,423.00 591.45,434.13 591.80,432.03 592.15,426.05 592.50,432.75 592.85,438.83 593.20,440.48 593.55,437.95 593.90,434.05 594.25,433.56 594.60,431.14 594.95,428.46 595.30,425.72 595.65,431.24 596.00,431.65 596.35,434.46 596.70,430.87 597.05,424.65 597.40,417.55 597.75,412.59 598.10,415.50 598.45,423.67 598.80,419.38 599.15,418.63 599.50,421.91 599.85,426.08 600.20,421.43 600.55,422.23 600.90,425.85 601.25,428.84 601.60,431.06 601.95,428.95 602.30,430.05 602.65,433.96 603.00,433.30 603.35,431.77 603.70,427.48 604.05,421.58 604.40,421.44 604.75,423.29 605.10,420.15 605.45,419.82 605.80,421.98 606.15,424.87 606.50,422.32 606.85,422.61 607.20,417.94 607.55,415.00 607.90,412.97 608.25,412.35 608.60,409.08 608.95,410.57 609.30,415.29 609.65,412.17 610.00,407.78 610.35,407.67 610.70,408.83 611.05,407.25 611.40,404.64 611.75,403.97 612.10,406.26 612.45,410.61 612.80,413.28 613.15,413.98 613.50,414.49 613.85,413.86 614.20,411.47 614.55,409.47 614.90,408.89 615.25,409.50 615.60,413.10 615.95,413.32 616.30,411.71 616.65,413.73 617.00,412.16 617.35,412.25 617.70,409.67 618.05,404.41 618.40,401.50 618.75,399.39 619.10,399.53 619.45,398.91 619.80,396.15 620.15,392.40 620.50,392.34 620.85,392.49 621.20,393.54 621.55,392.58 621.90,391.17 622.25,388.11 622.60,387.12 622.95,393.32 623.30,396.59 623.65,396.17 624.00,395.80 624.35,395.36 624.70,392.81 625.05,392.21 625.40,393.49 625.75,392.24 626.10,389.03 626.45,393.68 626.80,393.42 627.15,396.03 627.50,399.18 627.85,399.88 628.20,401.22 628.55,403.37 628.90,401.38 629.25,403.90 629.60,402.21 629.95,403.05 630.30,403.85 630.65,404.06 631.00,404.99 631.35,399.84 631.70,401.82 632.05,398.03 632.40,396.69 632.75,397.79 633.10,397.57 633.45,399.67 633.80,401.59 634.15,396.94 634.50,398.21 634.85,400.08 635.20,394.98 635.55,390.30 635.90,392.70 636.25,391.29 636.60,391.75 636.95,393.95 637.30,397.61 637.65,395.77 638.00,391.72 638.35,390.15 638.70,388.73 639.05,387.20 639.40,384.68 639.75,383.95 640.10,388.20 640.45,388.59 640.80,390.14 641.15,388.49 641.50,393.61 641.85,393.46 642.20,389.04 642.55,389.49 642.90,388.53 643.25,383.11 643.60,381.15 643.95,383.34 644.30,381.92 644.65,381.63 645.00,381.15 645.35,382.67 645.70,381.67 646.05,380.68 646.40,381.19 646.75,378.96 647.10,379.81 647.45,379.60 647.80,378.17 648.15,379.81 648.50,379.35 648.85,378.24 649.20,378.78 649.55,378.17 649.90,377.47 650.25,377.46 650.60,378.61 650.95,380.65 651.30,381.88 651.65,380.48 652.00,380.50 652.35,379.59 652.70,379.24 653.05,379.43 653.40,381.08 653.75,382.11 654.10,383.92 654.45,384.89 654.80,385.36 655.15,384.49 655.50,383.52 655.85,384.48 656.20,382.02 656.55,383.18 656.90,383.70 657.25,381.75 657.60,379.91 657.95,376.73 658.30,376.74 658.65,378.17 659.00,378.97 659.35,378.13 659.70,375.83 660.05,378.27 660.40,378.64 660.75,380.06 661.10,379.58 661.45,380.00 661.80,380.17 662.15,378.43 662.50,376.53 662.85,377.77 663.20,376.71 663.55,376.15 663.90,375.98 664.25,376.83 664.60,375.56 664.95,376.17 665.30,374.30 665.65,372.26 666.00,371.62 666.35,371.40 666.70,371.52 667.05,372.47 667.40,372.36 667.75,372.02 668.10,373.02 668.45,371.05 668.80,369.98 669.15,368.97 669.50,369.02 669.85,369.39 670.20,370.00 670.55,370.76 670.90,370.32 671.25,368.39 671.60,368.62 671.95,369.40 672.30,368.70 672.65,369.44 673.00,368.95 673.35,367.44 673.70,366.47 674.05,366.83 674.40,366.20 674.75,366.32 675.10,365.77 675.45,365.61 675.80,366.44 676.15,367.74 676.50,367.44 676.85,369.32 677.20,369.02 677.55,370.36 677.90,370.54 678.25,372.32 678.60,373.05 678.95,371.89 679.30,372.01 679.65,372.25 680.00,372.28 680.35,371.67 680.70,371.37 681.05,371.76 681.40,372.00 681.75,372.66 682.10,372.01 682.45,371.92 682.80,373.74 683.15,374.08 683.50,373.46 683.85,372.20 684.20,372.12 684.55,371.48 684.90,370.86 685.25,370.39 685.60,371.11 685.95,371.04 686.30,371.32 686.65,370.86 687.00,371.08 687.35,370.58 687.70,370.07 688.05,371.59 688.40,372.56 688.75,371.91 689.10,372.69 689.45,372.86 689.80,372.74 690.15,372.71 690.50,372.81 690.85,372.66 691.20,372.24 691.55,372.20 691.90,372.12 692.25,372.26 692.60,372.12 692.95,371.99 693.30,372.36 693.65,372.74 694.00,372.27 694.35,372.21 694.70,371.81 695.05,372.32 695.40,371.89 695.75,371.27 696.10,372.07 696.45,372.95 696.80,373.25 697.15,373.63 697.50,373.39 697.85,373.23 698.20,373.45 698.55,373.27 698.90,373.59 699.25,372.95 699.60,372.98 699.95,373.03 700.30,373.69 700.65,373.84 701.00,373.56 701.35,372.88 701.70,372.57 702.05,372.03 702.40,372.42 702.75,372.57 703.10,373.22 703.45,373.23 703.80,372.65 704.15,372.14 704.50,372.54 704.85,372.59 705.20,372.64 705.55,372.64 705.90,372.67 706.25,372.69 706.60,372.70 706.95,372.69 707.30,372.72 707.65,372.73 708.00,372.74 708.35,372.72 708.70,372.74 709.05,372.78 709.40,372.76 709.75,372.74 710.10,372.86 710.45,372.83 710.80,372.85 711.15,372.68 711.50,372.57 711.85,372.58 712.20,372.59 712.55,372.81 712.90,372.65 713.25,372.74 713.60,372.87 713.95,372.78 714.30,372.92 714.65,372.57 715.00,372.83 715.35,372.28 715.70,373.81 716.05,372.49 716.40,372.42 716.75,374.38 717.10,374.85 717.45,375.42 717.80,373.76 718.15,373.43 718.50,373.25 718.85,375.13 719.20,376.21 719.55,377.40 719.90,378.73 720.25,377.70 720.60,378.72 720.95,376.75 721.30,377.42 721.65,377.49 722.00,379.19 722.35,379.15 722.70,379.45 723.05,381.03 723.40,382.65 723.75,381.89 724.10,379.50 724.45,380.41 724.80,384.24 725.15,382.52 725.50,382.86 725.85,382.46 726.20,384.00 726.55,384.88 726.90,384.91 727.25,383.77 727.60,384.36 727.95,385.34 728.30,385.87 728.65,386.50 729.00,385.45 729.35,384.63 729.70,384.29 730.05,384.23 730.40,384.58 730.75,385.42 731.10,385.50 731.45,384.58 731.80,384.39 732.15,382.23 732.50,383.39 732.85,382.62 733.20,382.61 733.55,382.11 733.90,383.25 734.25,383.77 734.60,384.14 734.95,384.48 735.30,385.30 735.65,384.68 736.00,384.19 736.35,384.51 736.70,384.45 737.05,384.26 737.40,383.97 737.75,383.98 738.10,384.05 738.45,383.90 738.80,383.55 739.15,382.75 739.50,382.48 739.85,382.59 740.20,382.49 740.55,382.53 740.90,382.38 741.25,382.07 741.60,382.19 741.95,382.66 742.30,382.38 742.65,382.01 743.00,382.47 743.35,382.43 743.70,382.31 744.05,382.36 744.40,382.03 744.75,382.48 745.10,382.65 745.45,382.51 745.80,382.42 746.15,382.40 746.50,382.41 746.85,382.44 747.20,382.44 747.55,382.44 747.90,382.42 748.25,382.44 748.60,382.41 748.95,382.46 749.30,382.29 749.65,382.50 750.00,382.77 750.35,382.63 750.70,382.43 751.05,382.69 751.40,383.75 751.75,382.27 752.10,382.13 752.45,381.31 752.80,381.07 753.15,381.05 753.50,381.44 753.85,382.54 754.20,382.48 754.55,382.51 754.90,381.94 755.25,381.84 755.60,382.46 755.95,382.15 756.30,382.11 756.65,381.93 757.00,382.48 757.35,382.82 757.70,382.83 758.05,382.83 758.40,382.67 758.75,382.72 759.10,382.61 759.45,382.66 759.80,382.91 760.15,383.01 760.50,383.40 760.85,383.35 761.20,383.63 761.55,382.87 761.90,383.42 762.25,382.98 762.60,383.35 762.95,384.13 763.30,384.84 763.65,384.57 764.00,383.94 764.35,384.01 764.70,384.02 765.05,384.05 765.40,384.06 765.75,383.72 766.10,383.06 766.45,382.93 766.80,382.84 767.15,382.09 767.50,382.17 767.85,381.90 768.20,381.95 768.55,381.88 768.90,382.12 769.25,382.53 769.60,382.36 769.95,381.70 770.30,382.19 770.65,382.88 771.00,382.60 771.35,383.13 771.70,382.87 772.05,382.65 772.40,382.67 772.75,383.21 773.10,383.41 773.45,384.53 773.80,383.96 774.15,383.77 774.50,383.29 774.85,382.55 775.20,382.15 775.55,380.73 775.90,381.33 776.25,380.75 776.60,380.46 776.95,380.19 777.30,378.89 777.65,379.75 778.00,379.71 778.35,379.53 778.70,378.15 779.05,376.59 779.40,377.60 779.75,377.40 780.10,378.29 780.45,378.01 780.80,378.48 781.15,378.59 781.50,377.41 781.85,377.46 782.20,377.80 782.55,377.55 782.90,377.79 783.25,378.82 783.60,378.89 783.95,378.65 784.30,378.73 784.65,378.79 785.00,379.00"/>
<line x1="813" y1="78" x2="839" y2="78" stroke="#dc2626" stroke-width="3"/>
<text x="847" y="82" font-family="Arial" font-size="13" fill="#111827">high volatility</text>
<polyline fill="none" stroke="#059669" stroke-width="2" points="85.00,304.17 85.35,304.17 85.70,304.09 86.05,304.02 86.40,304.01 86.75,303.97 87.10,303.97 87.45,303.96 87.80,303.71 88.15,303.48 88.50,303.82 88.85,303.55 89.20,303.71 89.55,303.77 89.90,303.57 90.25,303.78 90.60,303.86 90.95,303.72 91.30,303.85 91.65,303.44 92.00,304.25 92.35,304.58 92.70,305.11 93.05,304.84 93.40,304.81 93.75,305.64 94.10,306.23 94.45,306.15 94.80,306.06 95.15,306.64 95.50,306.77 95.85,306.73 96.20,307.41 96.55,308.11 96.90,308.75 97.25,308.84 97.60,308.64 97.95,308.48 98.30,309.89 98.65,309.21 99.00,308.92 99.35,309.25 99.70,310.57 100.05,310.35 100.40,310.73 100.75,310.89 101.10,310.75 101.45,310.98 101.80,311.04 102.15,310.94 102.50,310.70 102.85,310.72 103.20,310.89 103.55,310.93 103.90,311.18 104.25,310.83 104.60,311.28 104.95,312.02 105.30,311.80 105.65,311.38 106.00,310.86 106.35,310.83 106.70,310.91 107.05,311.25 107.40,311.04 107.75,311.20 108.10,311.36 108.45,311.15 108.80,311.37 109.15,311.42 109.50,311.51 109.85,311.44 110.20,311.34 110.55,311.54 110.90,311.58 111.25,311.61 111.60,311.49 111.95,311.67 112.30,311.49 112.65,311.62 113.00,311.64 113.35,311.72 113.70,311.60 114.05,311.07 114.40,310.99 114.75,310.99 115.10,311.10 115.45,311.11 115.80,311.05 116.15,311.05 116.50,310.85 116.85,310.99 117.20,310.89 117.55,311.66 117.90,311.08 118.25,311.17 118.60,310.65 118.95,311.14 119.30,311.28 119.65,311.17 120.00,311.70 120.35,311.78 120.70,311.56 121.05,311.61 121.40,311.54 121.75,311.48 122.10,311.42 122.45,311.34 122.80,311.17 123.15,311.31 123.50,311.23 123.85,310.67 124.20,310.15 124.55,309.12 124.90,309.00 125.25,309.14 125.60,309.68 125.95,310.10 126.30,309.76 126.65,309.65 127.00,309.69 127.35,309.62 127.70,309.53 128.05,309.61 128.40,309.61 128.75,309.58 129.10,309.48 129.45,309.28 129.80,309.13 130.15,309.17 130.50,309.49 130.85,309.93 131.20,309.84 131.55,309.77 131.90,310.15 132.25,309.93 132.60,310.02 132.95,310.13 133.30,309.98 133.65,309.93 134.00,309.79 134.35,309.85 134.70,309.63 135.05,309.58 135.40,309.50 135.75,309.49 136.10,309.46 136.45,309.48 136.80,309.54 137.15,309.51 137.50,309.37 137.85,308.68 138.20,308.48 138.55,308.39 138.90,308.01 139.25,307.59 139.60,307.88 139.95,306.96 140.30,307.39 140.65,307.69 141.00,307.95 141.35,308.47 141.70,308.35 142.05,308.82 142.40,308.54 142.75,308.87 143.10,308.96 143.45,308.53 143.80,308.50 144.15,308.45 144.50,306.79 144.85,306.90 145.20,306.05 145.55,306.86 145.90,306.99 146.25,307.52 146.60,306.60 146.95,307.05 147.30,307.11 147.65,308.19 148.00,308.32 148.35,308.55 148.70,310.21 149.05,309.70 149.40,309.34 149.75,308.41 150.10,308.30 150.45,308.81 150.80,309.32 151.15,311.54 151.50,311.00 151.85,310.11 152.20,309.98 152.55,310.20 152.90,309.75 153.25,310.41 153.60,310.26 153.95,309.61 154.30,308.95 154.65,309.28 155.00,309.82 155.35,310.08 155.70,309.63 156.05,310.10 156.40,309.64 156.75,309.78 157.10,309.48 157.45,309.49 157.80,309.37 158.15,310.07 158.50,310.54 158.85,309.48 159.20,309.77 159.55,310.29 159.90,310.58 160.25,310.34 160.60,311.14 160.95,312.15 161.30,312.84 161.65,312.78 162.00,311.91 162.35,311.26 162.70,311.01 163.05,310.71 163.40,310.00 163.75,309.58 164.10,309.42 164.45,308.83 164.80,307.58 165.15,306.89 165.50,306.74 165.85,306.40 166.20,305.26 166.55,305.17 166.90,304.50 167.25,304.70 167.60,303.93 167.95,303.61 168.30,302.99 168.65,302.72 169.00,302.99 169.35,302.33 169.70,302.42 170.05,302.14 170.40,302.32 170.75,302.42 171.10,302.58 171.45,302.45 171.80,302.63 172.15,302.63 172.50,302.63 172.85,302.63 173.20,302.61 173.55,302.70 173.90,302.64 174.25,302.56 174.60,302.69 174.95,302.82 175.30,302.71 175.65,302.54 176.00,302.55 176.35,302.54 176.70,302.59 177.05,302.30 177.40,302.25 177.75,302.28 178.10,302.38 178.45,301.48 178.80,301.55 179.15,301.53 179.50,301.46 179.85,301.43 180.20,301.04 180.55,300.84 180.90,300.27 181.25,299.43 181.60,298.87 181.95,299.53 182.30,299.69 182.65,299.55 183.00,300.09 183.35,299.61 183.70,299.07 184.05,299.43 184.40,299.29 184.75,299.28 185.10,299.49 185.45,299.55 185.80,299.00 186.15,299.53 186.50,298.72 186.85,299.02 187.20,298.46 187.55,297.86 187.90,298.34 188.25,298.08 188.60,298.29 188.95,298.12 189.30,298.39 189.65,298.34 190.00,298.20 190.35,297.76 190.70,297.82 191.05,298.85 191.40,299.05 191.75,299.26 192.10,298.89 192.45,298.91 192.80,297.85 193.15,297.51 193.50,298.10 193.85,298.15 194.20,298.42 194.55,297.72 194.90,298.77 195.25,299.31 195.60,299.03 195.95,298.94 196.30,298.76 196.65,299.09 197.00,299.30 197.35,301.30 197.70,301.36 198.05,301.63 198.40,301.03 198.75,301.56 199.10,302.17 199.45,302.27 199.80,300.92 200.15,300.94 200.50,301.29 200.85,300.96 201.20,299.13 201.55,299.82 201.90,298.67 202.25,299.04 202.60,297.76 202.95,297.22 203.30,296.81 203.65,297.47 204.00,296.87 204.35,295.89 204.70,297.52 205.05,298.07 205.40,297.97 205.75,298.54 206.10,297.91 206.45,298.89 206.80,298.16 207.15,297.76 207.50,297.01 207.85,296.23 208.20,296.41 208.55,296.21 208.90,295.63 209.25,295.77 209.60,295.94 209.95,295.88 210.30,295.69 210.65,297.28 211.00,297.34 211.35,297.25 211.70,297.82 212.05,298.63 212.40,299.11 212.75,297.61 213.10,296.27 213.45,296.10 213.80,294.34 214.15,294.68 214.50,294.81 214.85,294.97 215.20,294.50 215.55,296.33 215.90,294.68 216.25,294.61 216.60,293.20 216.95,291.92 217.30,291.66 217.65,292.08 218.00,291.81 218.35,292.20 218.70,294.02 219.05,293.19 219.40,292.21 219.75,293.12 220.10,292.68 220.45,292.46 220.80,293.34 221.15,293.77 221.50,293.31 221.85,292.38 222.20,292.91 222.55,292.89 222.90,292.35 223.25,291.46 223.60,289.72 223.95,290.64 224.30,289.32 224.65,287.81 225.00,286.80 225.35,287.23 225.70,285.27 226.05,284.98 226.40,285.37 226.75,285.14 227.10,284.52 227.45,283.98 227.80,283.46 228.15,284.03 228.50,285.06 228.85,285.82 229.20,286.87 229.55,286.56 229.90,287.62 230.25,286.33 230.60,287.70 230.95,286.83 231.30,286.30 231.65,285.71 232.00,285.79 232.35,285.56 232.70,286.48 233.05,287.19 233.40,286.70 233.75,287.08 234.10,287.28 234.45,287.29 234.80,287.23 235.15,287.34 235.50,287.74 235.85,287.21 236.20,287.06 236.55,286.87 236.90,286.49 237.25,286.04 237.60,286.11 237.95,285.92 238.30,285.87 238.65,285.42 239.00,285.07 239.35,285.38 239.70,285.01 240.05,284.34 240.40,284.49 240.75,284.49 241.10,284.41 241.45,285.42 241.80,285.31 242.15,285.72 242.50,286.29 242.85,286.01 243.20,286.20 243.55,286.75 243.90,287.06 244.25,287.05 244.60,287.09 244.95,286.85 245.30,286.36 245.65,286.38 246.00,286.64 246.35,286.63 246.70,286.24 247.05,286.19 247.40,286.37 247.75,286.54 248.10,286.69 248.45,286.51 248.80,286.51 249.15,286.51 249.50,286.44 249.85,286.60 250.20,286.27 250.55,286.50 250.90,286.44 251.25,286.44 251.60,286.44 251.95,286.20 252.30,286.21 252.65,286.08 253.00,286.12 253.35,286.10 253.70,286.34 254.05,286.43 254.40,286.49 254.75,286.64 255.10,286.36 255.45,286.84 255.80,286.93 256.15,286.27 256.50,286.32 256.85,286.26 257.20,286.54 257.55,286.41 257.90,286.18 258.25,286.32 258.60,286.25 258.95,286.02 259.30,286.19 259.65,286.27 260.00,286.43 260.35,285.94 260.70,286.29 261.05,285.97 261.40,285.95 261.75,285.69 262.10,285.67 262.45,285.71 262.80,285.65 263.15,285.60 263.50,285.66 263.85,285.66 264.20,285.48 264.55,285.34 264.90,285.12 265.25,284.89 265.60,285.29 265.95,285.59 266.30,285.54 266.65,285.34 267.00,285.69 267.35,285.50 267.70,285.59 268.05,286.22 268.40,286.14 268.75,286.48 269.10,286.62 269.45,286.70 269.80,287.23 270.15,287.16 270.50,286.84 270.85,286.84 271.20,287.01 271.55,286.38 271.90,286.11 272.25,285.89 272.60,286.09 272.95,285.13 273.30,285.79 273.65,285.27 274.00,285.92 274.35,285.83 274.70,284.67 275.05,286.29 275.40,286.05 275.75,285.34 276.10,285.28 276.45,284.62 276.80,285.77 277.15,285.28 277.50,284.80 277.85,284.68 278.20,284.20 278.55,283.41 278.90,282.78 279.25,282.27 279.60,283.08 279.95,284.11 280.30,284.67 280.65,283.16 281.00,283.28 281.35,282.69 281.70,283.86 282.05,283.59 282.40,283.27 282.75,282.99 283.10,283.88 283.45,283.02 283.80,282.64 284.15,282.87 284.50,282.72 284.85,282.76 285.20,282.97 285.55,282.26 285.90,281.86 286.25,282.30 286.60,282.36 286.95,282.71 287.30,282.71 287.65,282.79 288.00,283.52 288.35,283.51 288.70,283.23 289.05,283.98 289.40,284.31 289.75,283.40 290.10,283.29 290.45,283.11 290.80,283.64 291.15,283.84 291.50,282.99 291.85,282.56 292.20,282.24 292.55,282.49 292.90,282.05 293.25,281.49 293.60,281.21 293.95,281.60 294.30,282.36 294.65,282.06 295.00,281.70 295.35,281.93 295.70,281.52 296.05,281.43 296.40,281.38 296.75,281.58 297.10,281.82 297.45,281.68 297.80,281.81 298.15,282.15 298.50,282.26 298.85,282.13 299.20,281.94 299.55,281.66 299.90,281.91 300.25,281.82 300.60,281.42 300.95,281.38 301.30,282.18 301.65,282.12 302.00,282.28 302.35,282.05 302.70,281.80 303.05,280.87 303.40,280.71 303.75,281.21 304.10,281.75 304.45,281.51 304.80,281.32 305.15,281.09 305.50,281.62 305.85,282.04 306.20,282.58 306.55,282.65 306.90,282.51 307.25,282.68 307.60,283.16 307.95,282.37 308.30,281.92 308.65,281.98 309.00,281.94 309.35,282.78 309.70,282.52 310.05,283.49 310.40,282.77 310.75,283.48 311.10,283.99 311.45,284.15 311.80,285.51 312.15,285.77 312.50,286.09 312.85,286.12 313.20,286.13 313.55,285.78 313.90,285.18 314.25,285.25 314.60,285.10 314.95,285.24 315.30,285.69 315.65,286.38 316.00,286.40 316.35,287.75 316.70,288.15 317.05,287.27 317.40,286.82 317.75,287.98 318.10,288.48 318.45,288.74 318.80,289.22 319.15,289.38 319.50,289.14 319.85,289.11 320.20,289.70 320.55,289.68 320.90,288.79 321.25,287.82 321.60,287.48 321.95,287.49 322.30,287.42 322.65,288.51 323.00,288.61 323.35,289.19 323.70,289.20 324.05,288.92 324.40,289.07 324.75,289.07 325.10,289.43 325.45,290.25 325.80,290.96 326.15,291.25 326.50,290.78 326.85,290.19 327.20,289.95 327.55,290.09 327.90,290.35 328.25,290.49 328.60,290.51 328.95,290.68 329.30,290.42 329.65,290.42 330.00,290.27 330.35,290.43 330.70,290.38 331.05,290.38 331.40,290.38 331.75,290.38 332.10,290.38 332.45,290.38 332.80,290.38 333.15,290.38 333.50,290.38 333.85,290.25 334.20,289.83 334.55,289.91 334.90,290.19 335.25,290.18 335.60,290.16 335.95,289.99 336.30,289.88 336.65,289.72 337.00,289.37 337.35,289.19 337.70,289.37 338.05,289.23 338.40,289.19 338.75,289.08 339.10,289.13 339.45,288.96 339.80,289.11 340.15,289.24 340.50,289.01 340.85,288.83 341.20,288.74 341.55,288.51 341.90,288.35 342.25,288.28 342.60,288.26 342.95,288.59 343.30,288.95 343.65,288.82 344.00,288.69 344.35,288.84 344.70,288.69 345.05,288.66 345.40,288.79 345.75,288.75 346.10,288.80 346.45,288.80 346.80,288.77 347.15,288.78 347.50,288.78 347.85,288.79 348.20,288.81 348.55,288.80 348.90,288.80 349.25,288.79 349.60,288.79 349.95,288.80 350.30,288.82 350.65,288.80 351.00,288.70 351.35,288.77 351.70,288.90 352.05,288.64 352.40,288.85 352.75,288.82 353.10,288.51 353.45,288.52 353.80,288.29 354.15,287.99 354.50,287.76 354.85,287.33 355.20,287.18 355.55,287.14 355.90,287.02 356.25,287.09 356.60,287.20 356.95,287.31 357.30,287.09 357.65,287.49 358.00,286.77 358.35,286.53 358.70,287.39 359.05,287.69 359.40,288.07 359.75,288.43 360.10,288.39 360.45,289.05 360.80,288.33 361.15,287.86 361.50,288.03 361.85,288.17 362.20,288.07 362.55,288.49 362.90,288.12 363.25,288.05 363.60,288.19 363.95,288.01 364.30,288.14 364.65,288.17 365.00,288.74 365.35,289.02 365.70,289.34 366.05,289.27 366.40,290.41 366.75,290.99 367.10,291.27 367.45,290.76 367.80,291.02 368.15,291.13 368.50,290.85 368.85,290.49 369.20,289.31 369.55,289.37 369.90,289.42 370.25,289.31 370.60,289.31 370.95,289.21 371.30,288.92 371.65,289.35 372.00,288.96 372.35,289.14 372.70,288.84 373.05,287.18 373.40,287.10 373.75,286.78 374.10,288.00 374.45,287.15 374.80,285.95 375.15,286.97 375.50,287.89 375.85,288.05 376.20,287.30 376.55,287.57 376.90,287.26 377.25,287.47 377.60,288.36 377.95,289.94 378.30,291.94 378.65,289.89 379.00,289.92 379.35,291.89 379.70,292.45 380.05,290.59 380.40,291.00 380.75,292.01 381.10,292.23 381.45,290.57 381.80,288.91 382.15,289.28 382.50,290.30 382.85,290.26 383.20,289.07 383.55,288.82 383.90,290.48 384.25,290.70 384.60,292.00 384.95,291.64 385.30,292.38 385.65,292.61 386.00,292.81 386.35,292.48 386.70,293.32 387.05,292.92 387.40,293.78 387.75,294.34 388.10,295.89 388.45,297.17 388.80,297.62 389.15,298.21 389.50,298.03 389.85,297.56 390.20,299.07 390.55,298.42 390.90,297.73 391.25,297.83 391.60,298.66 391.95,298.91 392.30,298.99 392.65,298.98 393.00,298.65 393.35,298.19 393.70,298.96 394.05,298.04 394.40,298.03 394.75,296.87 395.10,298.15 395.45,297.93 395.80,297.29 396.15,296.57 396.50,296.43 396.85,296.44 397.20,296.64 397.55,296.05 397.90,296.24 398.25,295.32 398.60,293.86 398.95,294.32 399.30,293.40 399.65,292.42 400.00,293.62 400.35,294.98 400.70,295.98 401.05,294.59 401.40,295.28 401.75,294.00 402.10,292.62 402.45,292.39 402.80,292.01 403.15,293.21 403.50,293.61 403.85,293.62 404.20,294.19 404.55,293.41 404.90,293.13 405.25,292.35 405.60,290.99 405.95,292.56 406.30,295.54 406.65,294.39 407.00,294.18 407.35,292.00 407.70,291.46 408.05,291.34 408.40,291.74 408.75,291.08 409.10,291.58 409.45,290.82 409.80,291.32 410.15,290.38 410.50,290.83 410.85,289.94 411.20,290.15 411.55,290.77 411.90,291.01 412.25,291.18 412.60,293.14 412.95,293.34 413.30,292.84 413.65,292.83 414.00,292.67 414.35,293.42 414.70,292.67 415.05,293.12 415.40,293.91 415.75,293.81 416.10,294.30 416.45,293.90 416.80,294.10 417.15,294.08 417.50,294.53 417.85,294.08 418.20,294.41 418.55,294.23 418.90,294.90 419.25,295.08 419.60,295.12 419.95,295.91 420.30,296.22 420.65,296.36 421.00,295.76 421.35,295.66 421.70,296.32 422.05,296.00 422.40,295.69 422.75,296.11 423.10,296.54 423.45,296.05 423.80,295.82 424.15,295.90 424.50,296.04 424.85,296.20 425.20,296.03 425.55,296.01 425.90,296.07 426.25,296.09 426.60,296.14 426.95,296.13 427.30,296.00 427.65,296.06 428.00,296.04 428.35,296.03 428.70,296.05 429.05,296.11 429.40,296.13 429.75,296.10 430.10,296.19 430.45,296.31 430.80,296.33 431.15,296.31 431.50,296.20 431.85,296.26 432.20,296.15 432.55,295.31 432.90,295.31 433.25,295.72 433.60,295.24 433.95,294.95 434.30,295.03 434.65,294.93 435.00,294.85 435.35,294.20 435.70,293.58 436.05,294.15 436.40,293.36 436.75,292.99 437.10,292.39 437.45,292.87 437.80,292.37 438.15,291.95 438.50,292.26 438.85,292.31 439.20,291.99 439.55,291.58 439.90,292.02 440.25,291.84 440.60,291.78 440.95,291.44 441.30,290.65 441.65,290.68 442.00,291.69 442.35,292.15 442.70,291.96 443.05,292.14 443.40,292.89 443.75,293.24 444.10,292.79 444.45,293.33 444.80,292.88 445.15,292.47 445.50,292.93 445.85,292.65 446.20,292.44 446.55,292.30 446.90,292.37 447.25,291.82 447.60,291.77 447.95,291.86 448.30,292.06 448.65,292.02 449.00,291.88 449.35,292.30 449.70,291.84 450.05,291.36 450.40,291.61 450.75,291.75 451.10,291.77 451.45,291.58 451.80,291.78 452.15,291.65 452.50,291.73 452.85,291.45 453.20,291.54 453.55,291.71 453.90,291.55 454.25,291.61 454.60,291.93 454.95,291.41 455.30,291.54 455.65,291.14 456.00,290.52 456.35,290.19 456.70,290.69 457.05,290.45 457.40,291.82 457.75,291.20 458.10,292.12 458.45,291.64 458.80,291.68 459.15,290.98 459.50,290.92 459.85,291.24 460.20,291.94 460.55,293.70 460.90,291.53 461.25,291.64 461.60,291.14 461.95,291.18 462.30,291.00 462.65,290.20 463.00,289.92 463.35,291.16 463.70,291.70 464.05,290.81 464.40,291.37 464.75,291.52 465.10,292.55 465.45,293.99 465.80,293.61 466.15,293.16 466.50,293.94 466.85,293.83 467.20,293.47 467.55,294.06 467.90,295.64 468.25,294.44 468.60,294.35 468.95,294.41 469.30,293.07 469.65,292.86 470.00,291.68 470.35,291.67 470.70,291.03 471.05,291.83 471.40,294.87 471.75,294.68 472.10,292.22 472.45,291.14 472.80,293.59 473.15,295.72 473.50,297.01 473.85,298.82 474.20,300.04 474.55,300.35 474.90,297.86 475.25,299.00 475.60,298.23 475.95,298.47 476.30,294.60 476.65,294.70 477.00,292.25 477.35,292.45 477.70,291.50 478.05,289.55 478.40,292.03 478.75,291.36 479.10,288.80 479.45,289.49 479.80,289.45 480.15,289.87 480.50,288.66 480.85,291.03 481.20,290.26 481.55,290.68 481.90,287.49 482.25,288.94 482.60,289.11 482.95,290.97 483.30,291.25 483.65,294.80 484.00,295.61 484.35,296.43 484.70,296.50 485.05,295.01 485.40,292.17 485.75,292.59 486.10,290.31 486.45,290.38 486.80,290.82 487.15,289.81 487.50,291.15 487.85,286.74 488.20,286.97 488.55,286.93 488.90,284.11 489.25,281.32 489.60,284.33 489.95,286.91 490.30,285.31 490.65,285.25 491.00,284.78 491.35,288.97 491.70,291.79 492.05,295.09 492.40,295.87 492.75,298.72 493.10,302.78 493.45,301.30 493.80,298.11 494.15,295.54 494.50,299.14 494.85,302.76 495.20,301.70 495.55,303.24 495.90,309.68 496.25,312.13 496.60,308.38 496.95,309.80 497.30,308.17 497.65,310.24 498.00,311.84 498.35,307.92 498.70,305.41 499.05,306.08 499.40,306.78 499.75,304.99 500.10,306.24 500.45,303.94 500.80,307.24 501.15,308.49 501.50,306.87 501.85,309.29 502.20,309.37 502.55,310.77 502.90,312.07 503.25,313.39 503.60,316.46 503.95,319.45 504.30,320.03 504.65,324.95 505.00,330.59 505.35,329.83 505.70,326.66 506.05,322.90 506.40,322.14 506.75,323.28 507.10,327.03 507.45,330.07 507.80,329.82 508.15,329.42 508.50,332.95 508.85,333.23 509.20,335.75 509.55,335.67 509.90,339.31 510.25,338.43 510.60,342.38 510.95,343.98 511.30,346.64 511.65,347.97 512.00,347.49 512.35,349.31 512.70,350.78 513.05,351.41 513.40,350.36 513.75,354.69 514.10,353.55 514.45,351.28 514.80,351.01 515.15,347.85 515.50,348.54 515.85,349.83 516.20,352.26 516.55,353.48 516.90,356.95 517.25,354.59 517.60,354.04 517.95,354.01 518.30,354.50 518.65,354.61 519.00,355.78 519.35,357.80 519.70,356.01 520.05,351.63 520.40,351.42 520.75,351.15 521.10,349.73 521.45,349.34 521.80,349.87 522.15,350.89 522.50,348.78 522.85,346.99 523.20,348.39 523.55,351.44 523.90,351.82 524.25,351.34 524.60,352.70 524.95,350.91 525.30,348.36 525.65,350.09 526.00,348.12 526.35,345.22 526.70,345.93 527.05,350.43 527.40,348.62 527.75,349.53 528.10,351.09 528.45,352.64 528.80,351.51 529.15,348.27 529.50,350.79 529.85,350.24 530.20,346.79 530.55,347.90 530.90,348.43 531.25,347.96 531.60,345.52 531.95,347.54 532.30,348.27 532.65,344.93 533.00,348.23 533.35,345.79 533.70,343.71 534.05,346.21 534.40,341.51 534.75,342.51 535.10,343.53 535.45,344.90 535.80,344.76 536.15,347.02 536.50,345.71 536.85,341.82 537.20,339.88 537.55,343.20 537.90,343.32 538.25,342.68 538.60,346.90 538.95,350.83 539.30,354.76 539.65,357.15 540.00,356.41 540.35,356.48 540.70,354.81 541.05,349.40 541.40,347.47 541.75,348.08 542.10,348.28 542.45,345.37 542.80,344.43 543.15,347.18 543.50,347.63 543.85,350.49 544.20,349.08 544.55,350.34 544.90,348.78 545.25,344.02 545.60,346.48 545.95,349.38 546.30,345.04 546.65,343.75 547.00,341.16 547.35,338.62 547.70,339.89 548.05,340.04 548.40,341.54 548.75,341.89 549.10,342.68 549.45,342.28 549.80,344.12 550.15,344.53 550.50,340.18 550.85,340.20 551.20,339.78 551.55,336.94 551.90,338.07 552.25,335.57 552.60,338.78 552.95,339.28 553.30,345.90 553.65,345.71 554.00,345.91 554.35,351.39 554.70,351.20 555.05,352.56 555.40,354.55 555.75,356.81 556.10,357.59 556.45,358.28 556.80,357.67 557.15,350.74 557.50,347.20 557.85,346.64 558.20,348.60 558.55,349.59 558.90,349.62 559.25,347.55 559.60,345.92 559.95,347.91 560.30,346.10 560.65,345.08 561.00,344.32 561.35,344.06 561.70,344.59 562.05,344.56 562.40,342.54 562.75,344.64 563.10,344.04 563.45,344.66 563.80,346.34 564.15,348.77 564.50,347.12 564.85,344.31 565.20,344.80 565.55,344.11 565.90,345.55 566.25,347.84 566.60,350.73 566.95,352.62 567.30,355.19 567.65,352.27 568.00,353.99 568.35,351.12 568.70,351.64 569.05,349.49 569.40,349.65 569.75,351.25 570.10,347.60 570.45,350.04 570.80,353.92 571.15,351.88 571.50,352.67 571.85,354.16 572.20,357.34 572.55,356.69 572.90,355.81 573.25,357.06 573.60,357.92 573.95,359.50 574.30,360.50 574.65,361.65 575.00,362.76 575.35,361.98 575.70,363.40 576.05,364.08 576.40,365.67 576.75,365.50 577.10,364.51 577.45,364.65 577.80,363.44 578.15,364.48 578.50,363.05 578.85,362.76 579.20,359.57 579.55,358.74 579.90,358.03 580.25,357.78 580.60,355.93 580.95,359.75 581.30,362.37 581.65,362.17 582.00,360.30 582.35,364.64 582.70,364.62 583.05,367.25 583.40,365.75 583.75,365.51 584.10,369.63 584.45,369.54 584.80,370.77 585.15,373.26 585.50,367.78 585.85,365.85 586.20,367.74 586.55,364.89 586.90,367.01 587.25,367.58 587.60,368.67 587.95,369.12 588.30,365.99 588.65,367.38 589.00,365.04 589.35,363.83 589.70,360.40 590.05,357.65 590.40,360.46 590.75,359.72 591.10,360.94 591.45,361.86 591.80,357.81 592.15,354.88 592.50,350.83 592.85,350.79 593.20,349.47 593.55,345.63 593.90,347.40 594.25,350.89 594.60,355.27 594.95,357.87 595.30,352.19 595.65,348.65 596.00,350.12 596.35,351.62 596.70,347.98 597.05,345.91 597.40,346.31 597.75,346.83 598.10,348.88 598.45,349.02 598.80,350.37 599.15,351.41 599.50,351.52 599.85,346.31 600.20,341.96 600.55,338.17 600.90,336.98 601.25,335.05 601.60,334.56 601.95,334.70 602.30,335.22 602.65,340.42 603.00,337.99 603.35,343.08 603.70,340.09 604.05,334.76 604.40,332.59 604.75,329.55 605.10,327.09 605.45,328.22 605.80,329.62 606.15,331.30 606.50,330.39 606.85,327.43 607.20,324.97 607.55,326.09 607.90,325.32 608.25,327.41 608.60,323.39 608.95,323.60 609.30,323.60 609.65,326.86 610.00,326.19 610.35,324.67 610.70,318.23 611.05,320.80 611.40,320.35 611.75,322.43 612.10,320.08 612.45,321.60 612.80,316.35 613.15,314.91 613.50,307.48 613.85,310.05 614.20,313.22 614.55,301.36 614.90,309.18 615.25,308.73 615.60,314.20 615.95,314.38 616.30,321.72 616.65,322.68 617.00,320.70 617.35,322.74 617.70,313.20 618.05,318.54 618.40,324.25 618.75,325.62 619.10,328.51 619.45,327.82 619.80,327.32 620.15,332.95 620.50,329.04 620.85,328.80 621.20,325.97 621.55,326.72 621.90,323.51 622.25,316.11 622.60,316.13 622.95,318.48 623.30,314.16 623.65,312.68 624.00,314.09 624.35,311.07 624.70,316.85 625.05,320.93 625.40,322.25 625.75,319.35 626.10,313.73 626.45,315.37 626.80,314.27 627.15,319.02 627.50,315.20 627.85,313.72 628.20,309.41 628.55,309.55 628.90,308.72 629.25,296.38 629.60,295.19 629.95,289.51 630.30,292.04 630.65,296.34 631.00,297.16 631.35,290.95 631.70,292.15 632.05,293.99 632.40,287.78 632.75,285.49 633.10,287.73 633.45,291.76 633.80,290.58 634.15,283.55 634.50,283.50 634.85,277.17 635.20,270.13 635.55,270.13 635.90,268.49 636.25,268.41 636.60,269.55 636.95,268.40 637.30,265.01 637.65,267.18 638.00,264.92 638.35,267.62 638.70,273.11 639.05,275.28 639.40,274.90 639.75,269.57 640.10,277.18 640.45,275.28 640.80,275.50 641.15,269.48 641.50,262.19 641.85,266.15 642.20,263.10 642.55,266.51 642.90,265.39 643.25,262.88 643.60,265.13 643.95,265.08 644.30,256.88 644.65,250.05 645.00,246.54 645.35,241.37 645.70,247.56 646.05,239.44 646.40,232.17 646.75,232.20 647.10,228.28 647.45,227.59 647.80,231.63 648.15,229.17 648.50,217.54 648.85,226.66 649.20,226.78 649.55,227.60 649.90,220.77 650.25,219.27 650.60,217.91 650.95,210.03 651.30,208.14 651.65,209.02 652.00,211.34 652.35,211.01 652.70,204.71 653.05,208.02 653.40,209.29 653.75,207.01 654.10,203.70 654.45,212.73 654.80,205.60 655.15,198.17 655.50,196.61 655.85,195.33 656.20,200.76 656.55,204.25 656.90,206.44 657.25,201.13 657.60,196.80 657.95,196.74 658.30,190.79 658.65,198.82 659.00,194.84 659.35,191.77 659.70,198.60 660.05,196.13 660.40,205.83 660.75,202.80 661.10,202.30 661.45,210.30 661.80,203.84 662.15,204.71 662.50,196.34 662.85,187.76 663.20,180.79 663.55,173.73 663.90,177.42 664.25,171.50 664.60,177.66 664.95,170.34 665.30,170.63 665.65,172.54 666.00,170.48 666.35,165.15 666.70,161.88 667.05,165.62 667.40,160.72 667.75,167.27 668.10,169.74 668.45,162.85 668.80,162.12 669.15,162.49 669.50,166.09 669.85,168.43 670.20,164.41 670.55,163.89 670.90,164.78 671.25,161.65 671.60,165.26 671.95,157.79 672.30,155.37 672.65,163.66 673.00,165.58 673.35,163.50 673.70,162.74 674.05,164.49 674.40,170.05 674.75,167.56 675.10,173.55 675.45,175.33 675.80,174.15 676.15,166.28 676.50,163.78 676.85,169.57 677.20,170.91 677.55,166.58 677.90,165.86 678.25,172.13 678.60,169.83 678.95,165.06 679.30,161.03 679.65,161.45 680.00,153.83 680.35,148.78 680.70,147.01 681.05,146.60 681.40,148.26 681.75,155.22 682.10,141.72 682.45,142.72 682.80,139.63 683.15,133.61 683.50,123.39 683.85,115.49 684.20,123.14 684.55,124.06 684.90,123.76 685.25,130.25 685.60,129.31 685.95,127.17 686.30,124.86 686.65,132.73 687.00,134.98 687.35,130.50 687.70,131.51 688.05,125.13 688.40,124.94 688.75,131.09 689.10,127.42 689.45,121.11 689.80,126.47 690.15,129.66 690.50,132.58 690.85,133.40 691.20,137.68 691.55,146.10 691.90,149.28 692.25,162.13 692.60,163.13 692.95,167.94 693.30,160.90 693.65,160.48 694.00,162.44 694.35,154.56 694.70,150.92 695.05,143.39 695.40,148.25 695.75,152.50 696.10,146.96 696.45,144.92 696.80,147.49 697.15,149.22 697.50,148.98 697.85,142.20 698.20,141.91 698.55,143.98 698.90,141.36 699.25,140.95 699.60,149.78 699.95,154.49 700.30,157.61 700.65,141.27 701.00,145.42 701.35,141.87 701.70,142.76 702.05,138.03 702.40,139.79 702.75,125.46 703.10,119.61 703.45,121.29 703.80,124.81 704.15,119.87 704.50,120.52 704.85,117.14 705.20,121.44 705.55,122.80 705.90,127.31 706.25,128.17 706.60,129.43 706.95,139.31 707.30,139.76 707.65,141.71 708.00,140.29 708.35,134.63 708.70,136.71 709.05,135.72 709.40,135.84 709.75,138.97 710.10,138.78 710.45,132.20 710.80,135.81 711.15,129.16 711.50,129.93 711.85,131.89 712.20,130.60 712.55,129.15 712.90,136.52 713.25,136.88 713.60,141.14 713.95,133.70 714.30,128.01 714.65,138.44 715.00,130.26 715.35,125.03 715.70,123.80 716.05,129.34 716.40,132.47 716.75,126.77 717.10,125.97 717.45,133.42 717.80,133.41 718.15,131.57 718.50,113.86 718.85,120.83 719.20,121.36 719.55,122.15 719.90,119.05 720.25,122.31 720.60,126.13 720.95,127.80 721.30,127.26 721.65,126.24 722.00,134.48 722.35,131.18 722.70,131.50 723.05,128.62 723.40,129.87 723.75,121.73 724.10,116.50 724.45,123.39 724.80,120.24 725.15,120.09 725.50,120.27 725.85,116.86 726.20,125.57 726.55,121.63 726.90,113.77 727.25,114.52 727.60,114.76 727.95,106.88 728.30,110.08 728.65,108.12 729.00,114.84 729.35,116.39 729.70,111.18 730.05,105.86 730.40,107.60 730.75,103.93 731.10,106.97 731.45,100.58 731.80,99.15 732.15,95.71 732.50,97.39 732.85,103.12 733.20,109.48 733.55,115.76 733.90,97.06 734.25,90.20 734.60,83.54 734.95,92.06 735.30,92.88 735.65,96.93 736.00,90.58 736.35,99.77 736.70,95.10 737.05,86.65 737.40,90.51 737.75,100.06 738.10,93.48 738.45,89.32 738.80,88.57 739.15,92.19 739.50,89.14 739.85,91.36 740.20,98.43 740.55,96.66 740.90,98.33 741.25,101.99 741.60,98.73 741.95,104.27 742.30,101.04 742.65,116.13 743.00,121.76 743.35,122.61 743.70,130.09 744.05,147.50 744.40,153.72 744.75,139.47 745.10,136.64 745.45,132.26 745.80,124.98 746.15,120.39 746.50,103.02 746.85,101.02 747.20,103.89 747.55,112.09 747.90,111.87 748.25,110.93 748.60,100.31 748.95,89.35 749.30,89.38 749.65,89.37 750.00,79.51 750.35,78.20 750.70,80.96 751.05,92.27 751.40,89.84 751.75,87.56 752.10,75.76 752.45,79.32 752.80,80.52 753.15,88.98 753.50,92.59 753.85,100.01 754.20,93.84 754.55,101.16 754.90,109.12 755.25,114.80 755.60,120.98 755.95,124.42 756.30,122.33 756.65,122.63 757.00,114.68 757.35,116.65 757.70,120.69 758.05,118.02 758.40,108.80 758.75,99.78 759.10,85.92 759.45,90.85 759.80,97.78 760.15,100.11 760.50,105.33 760.85,106.74 761.20,96.36 761.55,95.06 761.90,87.96 762.25,85.62 762.60,83.24 762.95,93.58 763.30,95.25 763.65,100.25 764.00,109.46 764.35,107.74 764.70,100.67 765.05,98.57 765.40,98.54 765.75,94.32 766.10,85.23 766.45,84.43 766.80,85.32 767.15,79.86 767.50,82.38 767.85,82.14 768.20,86.32 768.55,90.88 768.90,93.33 769.25,94.79 769.60,99.30 769.95,99.67 770.30,104.42 770.65,105.90 771.00,109.61 771.35,99.20 771.70,108.96 772.05,108.18 772.40,100.21 772.75,110.14 773.10,117.41 773.45,107.43 773.80,110.87 774.15,108.88 774.50,110.68 774.85,111.56 775.20,101.94 775.55,104.57 775.90,97.72 776.25,92.47 776.60,86.24 776.95,81.85 777.30,83.98 777.65,71.52 778.00,76.01 778.35,75.41 778.70,88.80 779.05,96.88 779.40,99.10 779.75,93.46 780.10,106.54 780.45,94.81 780.80,88.78 781.15,90.32 781.50,100.38 781.85,97.10 782.20,88.05 782.55,93.37 782.90,94.46 783.25,96.37 783.60,99.82 783.95,91.59 784.30,101.12 784.65,99.34 785.00,105.07"/>
<line x1="813" y1="102" x2="839" y2="102" stroke="#059669" stroke-width="3"/>
<text x="847" y="106" font-family="Arial" font-size="13" fill="#111827">trending</text>
<text x="435.0" y="518" text-anchor="middle" font-family="Arial" font-size="14" fill="#111827">Event index</text>
<text x="22" y="256.0" text-anchor="middle" transform="rotate(-90 22 256.0)" font-family="Arial" font-size="14" fill="#111827">Net PnL after fees</text>
</svg>
