<svg xmlns="http://www.w3.org/2000/svg" width="940" height="540" viewBox="0 0 940 540">
<rect width="100%" height="100%" fill="#ffffff"/>
<text x="470.0" y="26" text-anchor="middle" font-family="Arial" font-size="18" fill="#111827">Calibrated Avellaneda Stoikov Cumulative PnL After Fees By Regime</text>
<line x1="85" y1="470" x2="785" y2="470" stroke="#111827" stroke-width="1"/>
<line x1="85" y1="42" x2="85" y2="470" stroke="#111827" stroke-width="1"/>
<line x1="85.00" y1="42" x2="85.00" y2="470" stroke="#e5e7eb" stroke-width="1"/>
<text x="85.00" y="494" text-anchor="middle" font-family="Arial" font-size="12" fill="#374151">0</text>
<line x1="260.00" y1="42" x2="260.00" y2="470" stroke="#e5e7eb" stroke-width="1"/>
<text x="260.00" y="494" text-anchor="middle" font-family="Arial" font-size="12" fill="#374151">50000</text>
<line x1="435.00" y1="42" x2="435.00" y2="470" stroke="#e5e7eb" stroke-width="1"/>
<text x="435.00" y="494" text-anchor="middle" font-family="Arial" font-size="12" fill="#374151">100000</text>
<line x1="610.00" y1="42" x2="610.00" y2="470" stroke="#e5e7eb" stroke-width="1"/>
<text x="610.00" y="494" text-anchor="middle" font-family="Arial" font-size="12" fill="#374151">149999</text>
<line x1="785.00" y1="42" x2="785.00" y2="470" stroke="#e5e7eb" stroke-width="1"/>
<text x="785.00" y="494" text-anchor="middle" font-family="Arial" font-size="12" fill="#374151">199999</text>
<line x1="85" y1="470.00" x2="785" y2="470.00" stroke="#e5e7eb" stroke-width="1"/>
<text x="73" y="474.00" text-anchor="end" font-family="Arial" font-size="12" fill="#374151">-2377491</text>
<line x1="85" y1="363.00" x2="785" y2="363.00" stroke="#e5e7eb" stroke-width="1"/>
<text x="73" y="367.00" text-anchor="end" font-family="Arial" font-size="12" fill="#374151">2191040</text>
<line x1="85" y1="256.00" x2="785" y2="256.00" stroke="#e5e7eb" stroke-width="1"/>
<text x="73" y="260.00" text-anchor="end" font-family="Arial" font-size="12" fill="#374151">6759571</text>
<line x1="85" y1="149.00" x2="785" y2="149.00" stroke="#e5e7eb" stroke-width="1"/>
<text x="73" y="153.00" text-anchor="end" font-family="Arial" font-size="12" fill="#374151">11328102</text>
<line x1="85" y1="42.00" x2="785" y2="42.00" stroke="#e5e7eb" stroke-width="1"/>
<text x="73" y="46.00" text-anchor="end" font-family="Arial" font-size="12" fill="#374151">15896633</text>
<polyline fill="none" stroke="#2563eb" stroke-width="2" points="85.00,414.32 85.35,414.31 85.70,414.30 86.05,414.30 86.40,414.29 86.75,414.29 87.10,414.28 87.45,414.27 87.80,414.26 88.15,414.25 88.50,414.25 88.85,414.24 89.20,414.23 89.55,414.23 89.90,414.22 90.25,414.19 90.60,414.19 90.95,414.17 91.30,414.15 91.65,414.14 92.00,414.15 92.35,414.13 92.70,414.13 93.05,414.14 93.40,414.15 93.75,414.14 94.10,414.13 94.45,414.16 94.80,414.15 95.15,414.14 95.50,414.15 95.85,414.14 96.20,414.09 96.55,414.10 96.90,414.09 97.25,414.06 97.60,414.11 97.95,414.12 98.30,414.12 98.65,414.12 99.00,414.13 99.35,414.13 99.70,414.12 100.05,414.12 100.40,414.10 100.75,414.13 101.10,414.08 101.45,414.11 101.80,414.09 102.15,414.09 102.50,414.05 102.85,414.03 103.20,414.06 103.55,414.07 103.90,414.05 104.25,414.02 104.60,414.06 104.95,414.04 105.30,414.07 105.65,414.11 106.00,414.12 106.35,414.12 106.70,414.13 107.05,414.11 107.40,414.13 107.75,414.11 108.10,414.07 108.45,414.11 108.80,414.14 109.15,414.15 109.50,414.16 109.85,414.17 110.20,414.14 110.55,414.14 110.90,414.11 111.25,414.13 111.60,414.09 111.95,414.11 112.30,414.08 112.65,414.09 113.00,414.07 113.35,414.07 113.70,414.05 114.05,414.06 114.40,414.05 114.75,414.05 115.10,414.06 115.45,414.06 115.80,414.06 116.15,414.06 116.50,414.05 116.85,414.05 117.20,414.03 117.55,414.02 117.90,414.05 118.25,414.07 118.60,414.07 118.95,414.12 119.30,414.11 119.65,414.11 120.00,414.10 120.35,414.11 120.70,414.11 121.05,414.11 121.40,414.09 121.75,414.08 122.10,414.07 122.45,414.06 122.80,414.06 123.15,414.05 123.50,414.04 123.85,414.03 124.20,414.03 124.55,414.02 124.90,414.02 125.25,414.01 125.60,414.00 125.95,413.99 126.30,413.99 126.65,413.99 127.00,413.98 127.35,413.98 127.70,413.97 128.05,413.97 128.40,413.96 128.75,413.95 129.10,413.95 129.45,413.94 129.80,413.93 130.15,413.93 130.50,413.92 130.85,413.91 131.20,413.90 131.55,413.90 131.90,413.89 132.25,413.91 132.60,413.89 132.95,413.88 133.30,413.85 133.65,413.86 134.00,413.85 134.35,413.86 134.70,413.86 135.05,413.87 135.40,413.84 135.75,413.83 136.10,413.84 136.45,413.84 136.80,413.82 137.15,413.79 137.50,413.79 137.85,413.79 138.20,413.78 138.55,413.75 138.90,413.75 139.25,413.74 139.60,413.70 139.95,413.68 140.30,413.66 140.65,413.63 141.00,413.65 141.35,413.66 141.70,413.65 142.05,413.60 142.40,413.59 142.75,413.60 143.10,413.55 143.45,413.58 143.80,413.57 144.15,413.59 144.50,413.59 144.85,413.56 145.20,413.51 145.55,413.48 145.90,413.45 146.25,413.42 146.60,413.44 146.95,413.43 147.30,413.41 147.65,413.48 148.00,413.48 148.35,413.47 148.70,413.55 149.05,413.54 149.40,413.53 149.75,413.49 150.10,413.56 150.45,413.52 150.80,413.49 151.15,413.43 151.50,413.41 151.85,413.36 152.20,413.29 152.55,413.32 152.90,413.32 153.25,413.35 153.60,413.35 153.95,413.39 154.30,413.32 154.65,413.29 155.00,413.31 155.35,413.32 155.70,413.38 156.05,413.39 156.40,413.49 156.75,413.39 157.10,413.36 157.45,413.34 157.80,413.39 158.15,413.42 158.50,413.35 158.85,413.38 159.20,413.22 159.55,413.24 159.90,413.20 160.25,413.20 160.60,413.27 160.95,413.24 161.30,413.21 161.65,413.17 162.00,413.18 162.35,413.24 162.70,413.21 163.05,413.23 163.40,413.17 163.75,413.16 164.10,413.06 164.45,413.02 164.80,413.09 165.15,413.12 165.50,413.06 165.85,413.09 166.20,413.08 166.55,413.01 166.90,412.96 167.25,412.90 167.60,412.94 167.95,413.09 168.30,413.06 168.65,413.13 169.00,413.14 169.35,413.21 169.70,413.14 170.05,413.18 170.40,413.16 170.75,413.02 171.10,412.93 171.45,412.99 171.80,412.93 172.15,412.88 172.50,412.96 172.85,413.03 173.20,413.11 173.55,413.08 173.90,413.00 174.25,412.92 174.60,412.87 174.95,412.93 175.30,412.93 175.65,412.93 176.00,412.94 176.35,412.95 176.70,412.98 177.05,412.96 177.40,412.89 177.75,412.86 178.10,412.83 178.45,412.84 178.80,412.84 179.15,412.70 179.50,412.81 179.85,412.79 180.20,412.77 180.55,412.75 180.90,412.78 181.25,412.85 181.60,412.77 181.95,412.84 182.30,412.80 182.65,412.73 183.00,412.69 183.35,412.61 183.70,412.54 184.05,412.44 184.40,412.38 184.75,412.43 185.10,412.56 185.45,412.51 185.80,412.43 186.15,412.44 186.50,412.48 186.85,412.46 187.20,412.65 187.55,412.57 187.90,412.48 188.25,412.49 188.60,412.40 188.95,412.25 189.30,412.18 189.65,412.11 190.00,412.01 190.35,412.14 190.70,412.23 191.05,412.36 191.40,412.40 191.75,412.27 192.10,412.42 192.45,412.12 192.80,412.14 193.15,411.91 193.50,411.46 193.85,411.60 194.20,411.68 194.55,411.47 194.90,411.11 195.25,410.59 195.60,410.54 195.95,410.82 196.30,410.68 196.65,411.08 197.00,411.58 197.35,411.21 197.70,411.47 198.05,410.94 198.40,411.43 198.75,411.24 199.10,411.10 199.45,411.18 199.80,411.01 200.15,410.30 200.50,409.61 200.85,409.07 201.20,408.40 201.55,408.15 201.90,408.51 202.25,408.85 202.60,408.40 202.95,408.27 203.30,408.79 203.65,408.43 204.00,408.87 204.35,409.43 204.70,409.71 205.05,409.16 205.40,408.96 205.75,408.58 206.10,408.97 206.45,409.05 206.80,408.69 207.15,408.61 207.50,408.62 207.85,408.86 208.20,409.09 208.55,409.58 208.90,409.96 209.25,410.26 209.60,409.32 209.95,408.69 210.30,408.53 210.65,408.79 211.00,408.65 211.35,409.21 211.70,410.36 212.05,410.46 212.40,411.22 212.75,411.16 213.10,411.59 213.45,412.23 213.80,411.63 214.15,411.36 214.50,412.16 214.85,412.73 215.20,413.82 215.55,414.05 215.90,414.32 216.25,414.40 216.60,414.67 216.95,414.04 217.30,414.24 217.65,414.99 218.00,414.94 218.35,414.55 218.70,414.69 219.05,415.00 219.40,414.59 219.75,415.10 220.10,414.69 220.45,415.69 220.80,415.42 221.15,415.00 221.50,415.25 221.85,415.55 222.20,414.95 222.55,415.79 222.90,415.39 223.25,415.33 223.60,414.91 223.95,414.38 224.30,414.79 224.65,414.18 225.00,414.32 225.35,414.68 225.70,414.71 226.05,414.55 226.40,414.00 226.75,414.51 227.10,414.25 227.45,414.34 227.80,414.10 228.15,414.55 228.50,413.89 228.85,413.69 229.20,414.33 229.55,414.60 229.90,414.72 230.25,414.58 230.60,414.20 230.95,414.05 231.30,413.55 231.65,413.46 232.00,412.21 232.35,412.64 232.70,412.62 233.05,412.79 233.40,411.53 233.75,411.21 234.10,410.60 234.45,410.45 234.80,410.31 235.15,410.42 235.50,411.42 235.85,411.29 236.20,410.76 236.55,410.88 236.90,411.90 237.25,411.34 237.60,410.81 237.95,411.31 238.30,411.83 238.65,411.40 239.00,410.98 239.35,411.58 239.70,412.11 240.05,411.63 240.40,411.18 240.75,411.67 241.10,410.40 241.45,410.05 241.80,410.46 242.15,409.67 242.50,410.12 242.85,410.92 243.20,410.67 243.55,409.92 243.90,409.36 244.25,409.33 244.60,410.09 244.95,410.27 245.30,409.56 245.65,409.51 246.00,409.85 246.35,409.81 246.70,409.48 247.05,409.98 247.40,410.00 247.75,409.73 248.10,410.29 248.45,409.65 248.80,409.09 249.15,409.73 249.50,409.81 249.85,409.37 250.20,409.81 250.55,410.51 250.90,410.60 251.25,409.70 251.60,409.47 251.95,410.03 252.30,409.83 252.65,410.32 253.00,410.59 253.35,411.08 253.70,411.92 254.05,412.19 254.40,411.74 254.75,411.33 255.10,412.02 255.45,412.07 255.80,412.09 256.15,412.26 256.50,412.45 256.85,411.88 257.20,410.34 257.55,410.56 257.90,409.97 258.25,410.74 258.60,410.00 258.95,409.24 259.30,409.19 259.65,408.63 260.00,408.31 260.35,408.50 260.70,408.64 261.05,408.34 261.40,409.16 261.75,408.80 262.10,407.59 262.45,406.82 262.80,407.06 263.15,407.03 263.50,405.94 263.85,405.17 264.20,404.71 264.55,404.72 264.90,404.54 265.25,405.32 265.60,405.73 265.95,404.88 266.30,405.00 266.65,404.13 267.00,403.46 267.35,403.39 267.70,402.99 268.05,403.03 268.40,404.06 268.75,404.27 269.10,404.23 269.45,404.66 269.80,404.49 270.15,403.82 270.50,402.51 270.85,402.19 271.20,402.11 271.55,401.51 271.90,400.15 272.25,400.28 272.60,400.27 272.95,401.40 273.30,400.18 273.65,400.03 274.00,399.73 274.35,400.28 274.70,402.38 275.05,401.68 275.40,403.36 275.75,402.65 276.10,401.47 276.45,400.13 276.80,401.05 277.15,402.54 277.50,401.89 277.85,402.49 278.20,402.52 278.55,404.60 278.90,404.64 279.25,403.38 279.60,402.13 279.95,401.91 280.30,402.50 280.65,401.58 281.00,401.27 281.35,400.39 281.70,400.37 282.05,400.72 282.40,402.59 282.75,404.84 283.10,405.63 283.45,404.59 283.80,404.50 284.15,403.56 284.50,404.11 284.85,402.93 285.20,403.23 285.55,403.55 285.90,403.86 286.25,403.46 286.60,402.67 286.95,403.09 287.30,404.34 287.65,403.71 288.00,406.68 288.35,406.46 288.70,406.69 289.05,407.05 289.40,406.49 289.75,406.61 290.10,406.06 290.45,404.08 290.80,404.76 291.15,406.06 291.50,406.14 291.85,406.34 292.20,406.22 292.55,405.28 292.90,405.29 293.25,407.12 293.60,407.06 293.95,407.95 294.30,409.96 294.65,409.31 295.00,408.04 295.35,408.63 295.70,407.84 296.05,408.38 296.40,409.43 296.75,410.37 297.10,412.04 297.45,412.97 297.80,413.77 298.15,412.30 298.50,411.06 298.85,411.90 299.20,411.55 299.55,410.67 299.90,410.66 300.25,411.60 300.60,413.05 300.95,414.10 301.30,414.76 301.65,413.66 302.00,412.35 302.35,411.51 302.70,410.44 303.05,411.27 303.40,412.70 303.75,411.86 304.10,411.61 304.45,409.02 304.80,409.91 305.15,410.20 305.50,409.56 305.85,410.39 306.20,412.02 306.55,413.47 306.90,412.16 307.25,412.00 307.60,412.90 307.95,414.24 308.30,413.31 308.65,412.16 309.00,412.22 309.35,411.30 309.70,408.43 310.05,410.48 310.40,411.14 310.75,411.24 311.10,411.89 311.45,410.93 311.80,411.27 312.15,410.57 312.50,411.69 312.85,411.26 313.20,410.86 313.55,410.46 313.90,409.13 314.25,410.21 314.60,410.31 314.95,411.83 315.30,412.29 315.65,414.42 316.00,414.68 316.35,415.08 316.70,414.57 317.05,415.54 317.40,416.76 317.75,418.20 318.10,417.78 318.45,418.43 318.80,417.32 319.15,415.55 319.50,414.00 319.85,414.28 320.20,415.45 320.55,416.81 320.90,418.86 321.25,418.48 321.60,418.14 321.95,418.33 322.30,418.49 322.65,418.09 323.00,418.45 323.35,416.18 323.70,416.35 324.05,416.94 324.40,417.85 324.75,418.17 325.10,417.92 325.45,418.19 325.80,418.27 326.15,417.66 326.50,416.89 326.85,417.23 327.20,416.33 327.55,417.21 327.90,418.19 328.25,418.62 328.60,419.16 328.95,419.11 329.30,419.81 329.65,417.74 330.00,418.26 330.35,417.01 330.70,416.48 331.05,415.88 331.40,415.68 331.75,414.18 332.10,413.34 332.45,413.22 332.80,413.63 333.15,413.63 333.50,413.40 333.85,411.70 334.20,411.39 334.55,410.78 334.90,410.88 335.25,409.66 335.60,409.70 335.95,409.36 336.30,408.34 336.65,406.63 337.00,406.92 337.35,406.09 337.70,406.15 338.05,406.79 338.40,407.10 338.75,407.24 339.10,408.03 339.45,408.31 339.80,408.02 340.15,408.30 340.50,409.10 340.85,409.27 341.20,410.48 341.55,408.81 341.90,409.17 342.25,408.47 342.60,409.79 342.95,408.51 343.30,408.37 343.65,407.82 344.00,407.50 344.35,407.18 344.70,408.20 345.05,408.18 345.40,408.93 345.75,408.42 346.10,408.26 346.45,407.18 346.80,406.22 347.15,405.27 347.50,404.57 347.85,403.35 348.20,403.86 348.55,403.33 348.90,401.15 349.25,400.73 349.60,399.77 349.95,400.66 350.30,398.57 350.65,398.80 351.00,400.40 351.35,399.57 351.70,398.76 352.05,397.97 352.40,398.51 352.75,398.26 353.10,397.85 353.45,396.68 353.80,396.73 354.15,395.53 354.50,394.29 354.85,395.66 355.20,396.71 355.55,396.01 355.90,393.73 356.25,392.50 356.60,390.57 356.95,391.97 357.30,391.73 357.65,393.48 358.00,393.28 358.35,393.30 358.70,395.04 359.05,394.05 359.40,394.63 359.75,395.86 360.10,394.91 360.45,397.04 360.80,396.11 361.15,395.75 361.50,396.36 361.85,394.05 362.20,394.73 362.55,395.10 362.90,396.83 363.25,398.00 363.60,397.66 363.95,397.91 364.30,398.41 364.65,396.39 365.00,396.11 365.35,392.82 365.70,393.79 366.05,391.76 366.40,391.67 366.75,392.08 367.10,391.78 367.45,392.12 367.80,393.56 368.15,396.73 368.50,397.70 368.85,398.70 369.20,398.90 369.55,399.71 369.90,399.49 370.25,397.42 370.60,395.49 370.95,393.99 371.30,392.49 371.65,390.44 372.00,389.20 372.35,390.53 372.70,389.16 373.05,387.38 373.40,388.43 373.75,387.09 374.10,386.20 374.45,384.13 374.80,384.08 375.15,386.20 375.50,385.67 375.85,384.88 376.20,383.22 376.55,382.93 376.90,382.23 377.25,383.36 377.60,382.31 377.95,381.23 378.30,380.84 378.65,378.99 379.00,381.63 379.35,383.03 379.70,382.40 380.05,381.27 380.40,379.58 380.75,377.60 381.10,374.62 381.45,373.76 381.80,375.47 382.15,373.25 382.50,374.57 382.85,373.72 383.20,374.39 383.55,373.08 383.90,372.11 384.25,368.42 384.60,368.77 384.95,368.48 385.30,367.64 385.65,365.37 386.00,364.16 386.35,365.55 386.70,366.44 387.05,365.23 387.40,365.90 387.75,366.63 388.10,365.59 388.45,366.02 388.80,368.21 389.15,367.91 389.50,368.37 389.85,369.01 390.20,369.73 390.55,372.35 390.90,370.24 391.25,369.50 391.60,369.19 391.95,370.74 392.30,369.30 392.65,366.53 393.00,363.47 393.35,362.33 393.70,362.49 394.05,364.16 394.40,364.55 394.75,365.62 395.10,367.99 395.45,363.28 395.80,362.98 396.15,359.69 396.50,363.81 396.85,363.00 397.20,361.72 397.55,361.98 397.90,363.13 398.25,364.86 398.60,367.31 398.95,367.25 399.30,366.26 399.65,367.12 400.00,368.07 400.35,367.67 400.70,366.42 401.05,364.38 401.40,364.37 401.75,363.27 402.10,360.29 402.45,357.92 402.80,359.23 403.15,356.38 403.50,354.13 403.85,354.34 404.20,354.54 404.55,352.38 404.90,348.61 405.25,349.55 405.60,347.66 405.95,345.57 406.30,346.20 406.65,347.32 407.00,344.81 407.35,345.20 407.70,343.44 408.05,346.27 408.40,349.30 408.75,347.74 409.10,346.17 409.45,342.81 409.80,342.71 410.15,343.63 410.50,348.92 410.85,348.34 411.20,344.54 411.55,346.56 411.90,348.62 412.25,347.73 412.60,348.74 412.95,349.74 413.30,350.83 413.65,349.77 414.00,349.62 414.35,347.89 414.70,349.88 415.05,346.63 415.40,347.11 415.75,347.53 416.10,343.72 416.45,337.43 416.80,334.86 417.15,335.26 417.50,332.90 417.85,330.92 418.20,332.72 418.55,336.33 418.90,334.81 419.25,331.97 419.60,332.36 419.95,329.63 420.30,326.62 420.65,323.18 421.00,324.23 421.35,322.85 421.70,322.47 422.05,317.67 422.40,316.30 422.75,317.61 423.10,316.46 423.45,313.61 423.80,311.84 424.15,312.64 424.50,311.86 424.85,312.08 425.20,310.16 425.55,309.00 425.90,311.47 426.25,309.69 426.60,306.79 426.95,307.78 427.30,307.24 427.65,303.70 428.00,301.66 428.35,303.31 428.70,304.05 429.05,306.37 429.40,308.64 429.75,302.06 430.10,304.50 430.45,305.99 430.80,309.08 431.15,314.51 431.50,311.87 431.85,314.21 432.20,314.58 432.55,313.53 432.90,316.08 433.25,320.69 433.60,319.19 433.95,319.94 434.30,320.25 434.65,321.39 435.00,324.88 435.35,324.27 435.70,324.37 436.05,326.32 436.40,328.47 436.75,328.64 437.10,325.79 437.45,327.97 437.80,325.51 438.15,322.07 438.50,319.79 438.85,321.68 439.20,322.48 439.55,324.88 439.90,322.25 440.25,321.53 440.60,319.82 440.95,319.46 441.30,318.60 441.65,321.31 442.00,324.07 442.35,323.07 442.70,323.93 443.05,317.77 443.40,318.80 443.75,316.57 444.10,317.11 444.45,315.22 444.80,313.96 445.15,310.71 445.50,313.17 445.85,312.18 446.20,308.07 446.55,312.10 446.90,315.14 447.25,308.71 447.60,305.05 447.95,301.66 448.30,298.24 448.65,295.18 449.00,299.18 449.35,299.42 449.70,303.46 450.05,305.71 450.40,301.87 450.75,304.53 451.10,304.48 451.45,307.85 451.80,301.65 452.15,299.79 452.50,302.78 452.85,303.83 453.20,304.48 453.55,300.11 453.90,298.36 454.25,298.36 454.60,301.20 454.95,303.75 455.30,305.12 455.65,307.39 456.00,307.25 456.35,307.97 456.70,305.59 457.05,303.67 457.40,302.86 457.75,305.04 458.10,307.08 458.45,309.57 458.80,316.09 459.15,316.98 459.50,320.45 459.85,323.44 460.20,318.41 460.55,325.32 460.90,329.41 461.25,328.58 461.60,327.82 461.95,330.14 462.30,330.38 462.65,333.37 463.00,327.96 463.35,332.11 463.70,334.21 464.05,336.47 464.40,331.93 464.75,328.73 465.10,324.99 465.45,325.04 465.80,320.79 466.15,322.08 466.50,320.10 466.85,321.85 467.20,318.53 467.55,318.36 467.90,320.48 468.25,321.20 468.60,322.69 468.95,324.80 469.30,324.41 469.65,325.36 470.00,321.93 470.35,324.99 470.70,325.73 471.05,328.19 471.40,329.18 471.75,329.33 472.10,327.89 472.45,324.73 472.80,318.22 473.15,316.24 473.50,320.83 473.85,318.37 474.20,319.19 474.55,319.43 474.90,325.35 475.25,324.49 475.60,330.49 475.95,333.16 476.30,329.03 476.65,326.42 477.00,326.31 477.35,328.39 477.70,327.71 478.05,328.23 478.40,328.17 478.75,331.00 479.10,328.76 479.45,325.40 479.80,319.23 480.15,322.82 480.50,319.77 480.85,316.70 481.20,316.74 481.55,316.21 481.90,315.57 482.25,311.60 482.60,304.89 482.95,303.86 483.30,303.47 483.65,306.27 484.00,303.71 484.35,303.45 484.70,303.63 485.05,305.58 485.40,306.48 485.75,308.22 486.10,306.14 486.45,305.79 486.80,300.20 487.15,299.58 487.50,298.19 487.85,296.52 488.20,298.46 488.55,300.94 488.90,297.12 489.25,299.28 489.60,295.13 489.95,293.04 490.30,293.69 490.65,297.38 491.00,295.50 491.35,295.29 491.70,294.00 492.05,291.57 492.40,292.72 492.75,288.05 493.10,289.68 493.45,291.35 493.80,289.54 494.15,290.54 494.50,289.19 494.85,287.24 495.20,285.42 495.55,287.65 495.90,291.64 496.25,294.21 496.60,290.42 496.95,287.43 497.30,285.25 497.65,282.97 498.00,281.61 498.35,277.06 498.70,276.44 499.05,274.93 499.40,272.59 499.75,275.25 500.10,277.10 500.45,277.58 500.80,281.09 501.15,281.03 501.50,286.89 501.85,285.34 502.20,292.35 502.55,288.32 502.90,290.35 503.25,286.19 503.60,292.35 503.95,291.50 504.30,285.76 504.65,283.94 505.00,284.93 505.35,286.62 505.70,282.65 506.05,283.07 506.40,282.89 506.75,284.60 507.10,283.01 507.45,278.48 507.80,278.81 508.15,278.08 508.50,277.23 508.85,285.13 509.20,290.33 509.55,288.49 509.90,285.31 510.25,286.66 510.60,288.21 510.95,288.30 511.30,288.66 511.65,282.60 512.00,277.14 512.35,281.40 512.70,277.96 513.05,281.07 513.40,282.31 513.75,274.63 514.10,271.98 514.45,272.90 514.80,267.31 515.15,266.48 515.50,268.25 515.85,263.59 516.20,267.19 516.55,267.36 516.90,264.07 517.25,258.34 517.60,255.83 517.95,252.48 518.30,256.99 518.65,258.63 519.00,259.66 519.35,258.23 519.70,257.87 520.05,259.18 520.40,259.73 520.75,261.47 521.10,259.03 521.45,258.50 521.80,256.82 522.15,257.21 522.50,259.22 522.85,257.29 523.20,258.02 523.55,260.73 523.90,267.12 524.25,261.50 524.60,258.96 524.95,258.42 525.30,249.92 525.65,250.74 526.00,244.58 526.35,250.75 526.70,250.96 527.05,249.14 527.40,247.81 527.75,242.24 528.10,243.80 528.45,241.84 528.80,237.60 529.15,238.79 529.50,236.46 529.85,229.50 530.20,229.52 530.55,226.72 530.90,227.70 531.25,231.86 531.60,234.11 531.95,232.53 532.30,225.98 532.65,224.63 533.00,220.86 533.35,221.92 533.70,222.13 534.05,222.31 534.40,229.20 534.75,226.71 535.10,231.98 535.45,233.98 535.80,232.58 536.15,233.47 536.50,233.58 536.85,227.76 537.20,230.76 537.55,225.85 537.90,227.16 538.25,226.92 538.60,225.76 538.95,224.45 539.30,227.41 539.65,232.13 540.00,226.91 540.35,229.55 540.70,225.53 541.05,225.17 541.40,218.32 541.75,223.56 542.10,227.07 542.45,224.62 542.80,217.03 543.15,214.23 543.50,214.63 543.85,212.90 544.20,203.71 544.55,204.21 544.90,203.67 545.25,208.95 545.60,200.21 545.95,194.72 546.30,191.18 546.65,194.99 547.00,195.54 547.35,190.89 547.70,197.32 548.05,199.79 548.40,202.38 548.75,197.61 549.10,195.29 549.45,190.74 549.80,197.97 550.15,193.07 550.50,200.07 550.85,201.54 551.20,196.89 551.55,203.40 551.90,205.26 552.25,208.24 552.60,207.95 552.95,203.51 553.30,203.73 553.65,202.54 554.00,200.74 554.35,199.25 554.70,200.49 555.05,202.78 555.40,205.03 555.75,206.76 556.10,199.41 556.45,204.63 556.80,207.55 557.15,208.74 557.50,217.58 557.85,217.63 558.20,215.92 558.55,222.67 558.90,215.71 559.25,215.10 559.60,216.07 559.95,212.10 560.30,207.33 560.65,205.94 561.00,203.55 561.35,203.52 561.70,201.33 562.05,196.23 562.40,196.73 562.75,193.88 563.10,195.60 563.45,192.97 563.80,198.18 564.15,195.98 564.50,187.61 564.85,178.62 565.20,180.39 565.55,179.25 565.90,174.92 566.25,177.09 566.60,168.44 566.95,170.39 567.30,166.64 567.65,165.81 568.00,161.86 568.35,157.12 568.70,148.67 569.05,146.44 569.40,147.37 569.75,142.53 570.10,139.94 570.45,136.94 570.80,140.52 571.15,143.78 571.50,140.85 571.85,139.97 572.20,139.19 572.55,141.70 572.90,138.42 573.25,134.90 573.60,128.34 573.95,125.20 574.30,117.35 574.65,116.13 575.00,123.98 575.35,121.85 575.70,113.25 576.05,114.35 576.40,109.87 576.75,108.14 577.10,105.18 577.45,105.97 577.80,103.67 578.15,102.10 578.50,93.41 578.85,102.10 579.20,95.16 579.55,101.29 579.90,93.99 580.25,94.73 580.60,92.29 580.95,94.18 581.30,100.03 581.65,98.76 582.00,98.27 582.35,99.60 582.70,94.87 583.05,97.59 583.40,101.60 583.75,106.33 584.10,106.96 584.45,99.33 584.80,109.54 585.15,105.46 585.50,104.39 585.85,102.59 586.20,102.08 586.55,97.06 586.90,96.70 587.25,102.42 587.60,102.47 587.95,109.08 588.30,114.51 588.65,109.58 589.00,107.84 589.35,96.21 589.70,85.45 590.05,86.10 590.40,87.63 590.75,85.93 591.10,95.84 591.45,99.32 591.80,102.45 592.15,102.02 592.50,103.50 592.85,105.07 593.20,107.57 593.55,111.70 593.90,110.63 594.25,105.78 594.60,103.78 594.95,100.61 595.30,106.88 595.65,114.35 596.00,112.05 596.35,106.39 596.70,100.18 597.05,103.92 597.40,102.25 597.75,104.95 598.10,107.31 598.45,108.79 598.80,106.36 599.15,111.39 599.50,117.79 599.85,115.91 600.20,120.16 600.55,119.59 600.90,121.33 601.25,113.14 601.60,110.89 601.95,102.64 602.30,101.98 602.65,102.82 603.00,92.95 603.35,86.15 603.70,80.34 604.05,75.90 604.40,76.88 604.75,82.21 605.10,81.59 605.45,84.69 605.80,80.39 606.15,76.42 606.50,78.39 606.85,90.05 607.20,92.33 607.55,85.29 607.90,93.93 608.25,90.00 608.60,99.39 608.95,97.79 609.30,100.39 609.65,103.39 610.00,97.14 610.35,99.70 610.70,99.16 611.05,103.15 611.40,99.38 611.75,89.73 612.10,84.66 612.45,90.07 612.80,95.96 613.15,93.47 613.50,99.66 613.85,89.45 614.20,92.22 614.55,89.89 614.90,91.19 615.25,85.26 615.60,91.85 615.95,93.13 616.30,92.22 616.65,93.08 617.00,96.72 617.35,111.18 617.70,114.30 618.05,113.31 618.40,114.13 618.75,115.75 619.10,122.00 619.45,121.51 619.80,130.01 620.15,132.33 620.50,141.11 620.85,140.38 621.20,136.24 621.55,133.27 621.90,126.10 622.25,122.92 622.60,125.60 622.95,126.92 623.30,129.41 623.65,137.31 624.00,141.62 624.35,132.17 624.70,134.30 625.05,139.77 625.40,136.42 625.75,145.25 626.10,136.24 626.45,142.24 626.80,136.81 627.15,135.95 627.50,130.73 627.85,128.09 628.20,130.69 628.55,132.86 628.90,139.01 629.25,137.20 629.60,131.82 629.95,126.10 630.30,131.56 630.65,131.37 631.00,133.55 631.35,131.41 631.70,136.95 632.05,133.04 632.40,126.27 632.75,134.94 633.10,138.64 633.45,134.08 633.80,127.92 634.15,137.25 634.50,140.62 634.85,145.80 635.20,142.46 635.55,134.81 635.90,145.54 636.25,139.51 636.60,135.05 636.95,137.62 637.30,133.30 637.65,124.57 638.00,126.74 638.35,123.81 638.70,122.26 639.05,126.87 639.40,128.72 639.75,118.51 640.10,117.32 640.45,118.63 640.80,124.50 641.15,125.74 641.50,128.40 641.85,132.51 642.20,128.20 642.55,131.08 642.90,127.74 643.25,118.99 643.60,124.83 643.95,114.56 644.30,103.19 644.65,106.99 645.00,107.91 645.35,101.94 645.70,108.56 646.05,104.50 646.40,106.89 646.75,101.91 647.10,114.69 647.45,118.46 647.80,118.77 648.15,114.97 648.50,116.47 648.85,114.86 649.20,110.66 649.55,110.05 649.90,102.96 650.25,108.41 650.60,111.62 650.95,94.40 651.30,93.48 651.65,101.35 652.00,105.22 652.35,94.61 652.70,98.65 653.05,95.97 653.40,90.18 653.75,95.54 654.10,86.67 654.45,80.64 654.80,85.88 655.15,90.47 655.50,79.72 655.85,86.19 656.20,90.38 656.55,88.86 656.90,90.59 657.25,89.90 657.60,89.52 657.95,78.98 658.30,88.99 658.65,87.70 659.00,92.35 659.35,93.06 659.70,91.94 660.05,93.42 660.40,105.91 660.75,104.33 661.10,104.61 661.45,116.15 661.80,123.04 662.15,118.29 662.50,122.58 662.85,118.81 663.20,119.45 663.55,123.93 663.90,134.16 664.25,137.97 664.60,140.65 664.95,135.65 665.30,137.23 665.65,139.23 666.00,149.54 666.35,150.16 666.70,157.03 667.05,148.30 667.40,155.85 667.75,155.45 668.10,154.43 668.45,150.61 668.80,152.98 669.15,147.62 669.50,152.25 669.85,151.87 670.20,149.99 670.55,154.76 670.90,158.13 671.25,159.36 671.60,160.64 671.95,166.96 672.30,164.95 672.65,169.85 673.00,171.99 673.35,175.44 673.70,174.74 674.05,169.27 674.40,174.71 674.75,175.65 675.10,179.45 675.45,164.49 675.80,171.09 676.15,162.85 676.50,171.18 676.85,176.55 677.20,174.71 677.55,170.57 677.90,171.63 678.25,170.60 678.60,168.95 678.95,171.69 679.30,170.44 679.65,167.23 680.00,158.00 680.35,159.59 680.70,162.07 681.05,166.18 681.40,153.63 681.75,154.62 682.10,158.17 682.45,155.01 682.80,149.66 683.15,156.86 683.50,160.72 683.85,154.91 684.20,155.32 684.55,151.18 684.90,144.93 685.25,146.26 685.60,138.91 685.95,133.83 686.30,129.68 686.65,129.52 687.00,127.81 687.35,121.25 687.70,121.74 688.05,119.95 688.40,118.71 688.75,117.56 689.10,119.40 689.45,109.11 689.80,118.26 690.15,107.48 690.50,88.33 690.85,97.42 691.20,98.72 691.55,93.52 691.90,91.57 692.25,92.52 692.60,89.71 692.95,84.71 693.30,80.45 693.65,83.62 694.00,90.59 694.35,90.50 694.70,85.78 695.05,90.87 695.40,90.93 695.75,89.37 696.10,87.46 696.45,93.15 696.80,104.37 697.15,102.48 697.50,97.20 697.85,91.11 698.20,92.46 698.55,84.73 698.90,83.22 699.25,81.60 699.60,88.89 699.95,85.72 700.30,84.14 700.65,87.49 701.00,89.53 701.35,92.42 701.70,88.20 702.05,85.25 702.40,84.77 702.75,82.79 703.10,86.44 703.45,86.75 703.80,89.73 704.15,88.95 704.50,79.80 704.85,81.95 705.20,78.70 705.55,71.52 705.90,72.61 706.25,73.15 706.60,79.84 706.95,86.10 707.30,86.29 707.65,81.93 708.00,88.76 708.35,91.97 708.70,92.46 709.05,91.74 709.40,104.60 709.75,103.29 710.10,106.00 710.45,100.77 710.80,90.72 711.15,98.38 711.50,92.64 711.85,94.32 712.20,97.89 712.55,87.30 712.90,82.28 713.25,79.03 713.60,79.82 713.95,75.63 714.30,77.50 714.65,77.92 715.00,73.17 715.35,77.12 715.70,82.94 716.05,91.44 716.40,101.25 716.75,104.38 717.10,100.36 717.45,94.46 717.80,94.37 718.15,93.97 718.50,90.73 718.85,80.28 719.20,79.74 719.55,85.47 719.90,84.40 720.25,83.94 720.60,85.85 720.95,94.93 721.30,93.39 721.65,102.21 722.00,98.88 722.35,94.74 722.70,104.69 723.05,114.12 723.40,106.56 723.75,103.71 724.10,107.33 724.45,108.72 724.80,115.51 725.15,113.83 725.50,122.88 725.85,120.27 726.20,119.95 726.55,119.46 726.90,118.72 727.25,118.75 727.60,124.70 727.95,120.19 728.30,133.57 728.65,130.82 729.00,133.60 729.35,138.82 729.70,137.98 730.05,143.07 730.40,130.97 730.75,129.87 731.10,127.86 731.45,129.43 731.80,126.88 732.15,122.04 732.50,123.34 732.85,123.34 733.20,115.99 733.55,103.25 733.90,101.28 734.25,106.98 734.60,111.48 734.95,107.65 735.30,110.39 735.65,104.61 736.00,104.29 736.35,107.77 736.70,105.20 737.05,103.51 737.40,102.27 737.75,104.29 738.10,106.24 738.45,101.00 738.80,85.84 739.15,80.13 739.50,79.82 739.85,86.76 740.20,83.86 740.55,88.86 740.90,95.82 741.25,87.92 741.60,100.12 741.95,101.08 742.30,105.30 742.65,109.41 743.00,105.96 743.35,106.00 743.70,106.52 744.05,109.04 744.40,106.72 744.75,115.99 745.10,118.54 745.45,119.48 745.80,121.69 746.15,132.49 746.50,130.49 746.85,143.13 747.20,145.66 747.55,145.39 747.90,157.64 748.25,164.29 748.60,169.74 748.95,172.69 749.30,165.34 749.65,154.74 750.00,156.73 750.35,158.21 750.70,161.31 751.05,160.15 751.40,159.80 751.75,159.96 752.10,157.90 752.45,156.29 752.80,160.97 753.15,166.02 753.50,165.81 753.85,171.78 754.20,173.91 754.55,179.60 754.90,177.78 755.25,181.64 755.60,180.92 755.95,190.35 756.30,188.24 756.65,188.80 757.00,190.79 757.35,185.72 757.70,188.14 758.05,181.48 758.40,180.56 758.75,179.03 759.10,180.69 759.45,191.83 759.80,191.23 760.15,191.41 760.50,189.44 760.85,195.51 761.20,198.58 761.55,194.67 761.90,207.08 762.25,212.47 762.60,221.84 762.95,223.44 763.30,226.28 763.65,226.62 764.00,216.25 764.35,207.60 764.70,203.18 765.05,203.81 765.40,203.38 765.75,199.01 766.10,184.88 766.45,180.31 766.80,177.14 767.15,183.07 767.50,183.64 767.85,180.76 768.20,182.94 768.55,193.33 768.90,189.15 769.25,179.03 769.60,180.96 769.95,181.24 770.30,170.80 770.65,164.00 771.00,165.39 771.35,166.59 771.70,165.36 772.05,181.16 772.40,177.49 772.75,180.91 773.10,176.57 773.45,181.27 773.80,168.26 774.15,168.91 774.50,171.22 774.85,174.37 775.20,174.43 775.55,175.10 775.90,173.43 776.25,183.04 776.60,177.91 776.95,179.10 777.30,175.80 777.65,178.36 778.00,177.01 778.35,170.41 778.70,172.28 779.05,167.98 779.40,173.52 779.75,174.60 780.10,167.23 780.45,166.72 780.80,173.69 781.15,180.11 781.50,176.76 781.85,173.36 782.20,172.20 782.55,178.12 782.90,180.03 783.25,179.49 783.60,174.80 783.95,174.17 784.30,172.82 784.65,167.29 785.00,157.20"/>
<line x1="813" y1="54" x2="839" y2="54" stroke="#2563eb" stroke-width="3"/>
<text x="847" y="58" font-family="Arial" font-size="13" fill="#111827">low volatility</text>
<polyline fill="none" stroke="#dc2626" stroke-width="2" points="85.00,414.32 85.35,414.31 85.70,414.30 86.05,414.29 86.40,414.24 86.75,414.16 87.10,414.00 87.45,413.90 87.80,413.86 88.15,413.83 88.50,413.94 88.85,414.09 89.20,414.22 89.55,414.32 89.90,414.43 90.25,414.33 90.60,414.21 90.95,414.08 91.30,414.09 91.65,414.15 92.00,414.20 92.35,414.09 92.70,414.06 93.05,414.07 93.40,414.21 93.75,414.02 94.10,414.10 94.45,414.22 94.80,414.24 95.15,414.31 95.50,414.29 95.85,414.35 96.20,414.31 96.55,414.30 96.90,414.24 97.25,414.26 97.60,414.14 97.95,414.04 98.30,414.04 98.65,414.13 99.00,414.20 99.35,414.15 99.70,413.93 100.05,413.73 100.40,413.87 100.75,414.14 101.10,414.67 101.45,414.79 101.80,414.95 102.15,414.99 102.50,415.44 102.85,415.47 103.20,415.28 103.55,415.20 103.90,415.06 104.25,414.92 104.60,414.72 104.95,414.62 105.30,414.77 105.65,414.84 106.00,414.94 106.35,414.85 106.70,415.15 107.05,415.24 107.40,415.26 107.75,415.28 108.10,415.22 108.45,415.18 108.80,415.13 109.15,415.15 109.50,415.14 109.85,415.03 110.20,415.05 110.55,415.00 110.90,414.88 111.25,414.85 111.60,414.93 111.95,414.97 112.30,415.03 112.65,415.37 113.00,415.38 113.35,415.16 113.70,415.14 114.05,415.21 114.40,415.04 114.75,414.95 115.10,414.96 115.45,415.02 115.80,414.95 116.15,415.00 116.50,415.07 116.85,414.98 117.20,415.11 117.55,415.11 117.90,415.27 118.25,415.34 118.60,415.30 118.95,415.26 119.30,415.24 119.65,415.23 120.00,415.23 120.35,415.06 120.70,415.19 121.05,415.00 121.40,415.03 121.75,415.23 122.10,414.87 122.45,414.59 122.80,414.34 123.15,414.46 123.50,414.74 123.85,414.33 124.20,414.48 124.55,414.64 124.90,414.63 125.25,414.28 125.60,414.60 125.95,414.36 126.30,413.93 126.65,413.91 127.00,414.06 127.35,414.39 127.70,415.58 128.05,417.02 128.40,417.43 128.75,417.42 129.10,416.85 129.45,416.52 129.80,416.38 130.15,416.53 130.50,416.78 130.85,416.50 131.20,416.76 131.55,416.80 131.90,417.09 132.25,417.76 132.60,417.47 132.95,417.29 133.30,417.08 133.65,416.60 134.00,416.90 134.35,417.04 134.70,416.79 135.05,416.41 135.40,416.37 135.75,416.34 136.10,416.37 136.45,416.10 136.80,416.35 137.15,416.29 137.50,416.26 137.85,416.37 138.20,416.08 138.55,416.10 138.90,415.48 139.25,415.98 139.60,416.28 139.95,416.38 140.30,416.52 140.65,416.37 141.00,416.15 141.35,416.36 141.70,415.68 142.05,415.37 142.40,415.46 142.75,414.69 143.10,414.74 143.45,414.62 143.80,414.16 144.15,414.50 144.50,413.45 144.85,413.29 145.20,412.50 145.55,413.68 145.90,413.34 146.25,413.50 146.60,413.06 146.95,413.59 147.30,413.76 147.65,413.80 148.00,413.92 148.35,413.80 148.70,413.82 149.05,413.82 149.40,415.27 149.75,415.15 150.10,414.16 150.45,414.36 150.80,414.63 151.15,414.23 151.50,414.06 151.85,413.21 152.20,412.96 152.55,413.59 152.90,413.65 153.25,414.40 153.60,414.43 153.95,414.71 154.30,414.69 154.65,414.53 155.00,414.60 155.35,412.51 155.70,414.37 156.05,414.23 156.40,413.95 156.75,414.64 157.10,413.53 157.45,413.42 157.80,413.71 158.15,413.31 158.50,412.70 158.85,412.48 159.20,412.64 159.55,413.24 159.90,414.04 160.25,411.74 160.60,410.85 160.95,411.93 161.30,412.25 161.65,411.46 162.00,410.72 162.35,409.85 162.70,410.18 163.05,410.56 163.40,411.53 163.75,413.20 164.10,413.89 164.45,412.89 164.80,412.85 165.15,413.86 165.50,415.54 165.85,416.36 166.20,416.44 166.55,415.61 166.90,413.75 167.25,413.69 167.60,412.50 167.95,412.02 168.30,413.90 168.65,415.90 169.00,416.75 169.35,417.41 169.70,419.44 170.05,418.26 170.40,417.05 170.75,416.36 171.10,416.74 171.45,417.03 171.80,417.48 172.15,417.66 172.50,417.80 172.85,418.11 173.20,418.36 173.55,418.44 173.90,418.15 174.25,418.45 174.60,418.60 174.95,419.46 175.30,418.85 175.65,418.73 176.00,419.37 176.35,419.43 176.70,419.23 177.05,419.79 177.40,419.94 177.75,419.64 178.10,419.61 178.45,418.99 178.80,418.66 179.15,418.53 179.50,418.45 179.85,418.26 180.20,418.15 180.55,418.45 180.90,418.41 181.25,418.34 181.60,418.23 181.95,418.12 182.30,418.07 182.65,418.00 183.00,417.91 183.35,417.74 183.70,417.63 184.05,417.75 184.40,417.80 184.75,417.58 185.10,417.69 185.45,416.99 185.80,416.69 186.15,417.29 186.50,417.35 186.85,417.25 187.20,417.00 187.55,416.54 187.90,416.69 188.25,416.74 188.60,417.14 188.95,416.64 189.30,417.08 189.65,416.70 190.00,415.94 190.35,415.93 190.70,416.07 191.05,416.35 191.40,416.00 191.75,414.82 192.10,414.23 192.45,415.08 192.80,414.42 193.15,413.97 193.50,412.76 193.85,413.21 194.20,413.98 194.55,413.60 194.90,413.31 195.25,413.10 195.60,412.63 195.95,412.69 196.30,412.90 196.65,412.84 197.00,413.14 197.35,412.42 197.70,412.84 198.05,413.32 198.40,410.89 198.75,412.47 199.10,411.97 199.45,413.54 199.80,411.94 200.15,410.90 200.50,411.31 200.85,412.09 201.20,410.98 201.55,413.09 201.90,413.12 202.25,413.77 202.60,415.71 202.95,413.32 203.30,411.86 203.65,410.25 204.00,408.99 204.35,411.41 204.70,410.55 205.05,408.92 205.40,410.37 205.75,410.49 206.10,411.55 206.45,412.01 206.80,411.84 207.15,409.31 207.50,407.14 207.85,406.04 208.20,404.71 208.55,401.43 208.90,400.80 209.25,401.16 209.60,399.12 209.95,402.63 210.30,403.80 210.65,404.47 211.00,402.76 211.35,399.16 211.70,399.30 212.05,397.58 212.40,398.99 212.75,401.21 213.10,401.51 213.45,401.34 213.80,401.49 214.15,404.40 214.50,404.63 214.85,404.70 215.20,405.70 215.55,403.08 215.90,403.18 216.25,402.84 216.60,402.37 216.95,402.35 217.30,403.42 217.65,404.07 218.00,401.09 218.35,403.24 218.70,404.06 219.05,405.63 219.40,404.63 219.75,401.12 220.10,405.02 220.45,400.83 220.80,401.05 221.15,399.34 221.50,398.88 221.85,397.35 222.20,400.06 222.55,401.93 222.90,400.31 223.25,398.46 223.60,399.52 223.95,396.13 224.30,397.90 224.65,400.54 225.00,399.49 225.35,401.17 225.70,400.03 226.05,399.22 226.40,396.39 226.75,396.40 227.10,396.50 227.45,398.21 227.80,398.34 228.15,402.18 228.50,399.99 228.85,401.37 229.20,402.13 229.55,403.61 229.90,405.33 230.25,407.59 230.60,408.55 230.95,405.20 231.30,407.32 231.65,408.31 232.00,408.65 232.35,412.21 232.70,413.54 233.05,412.61 233.40,412.49 233.75,415.89 234.10,415.72 234.45,420.02 234.80,418.09 235.15,417.39 235.50,420.76 235.85,420.44 236.20,421.10 236.55,419.99 236.90,419.76 237.25,416.91 237.60,415.79 237.95,415.00 238.30,415.82 238.65,416.53 239.00,416.98 239.35,415.28 239.70,415.14 240.05,415.81 240.40,416.18 240.75,415.50 241.10,417.64 241.45,418.14 241.80,418.77 242.15,419.74 242.50,417.16 242.85,415.95 243.20,414.78 243.55,412.58 243.90,411.61 244.25,409.17 244.60,409.31 244.95,406.75 245.30,405.94 245.65,407.35 246.00,408.00 246.35,409.26 246.70,409.69 247.05,411.43 247.40,411.14 247.75,410.84 248.10,409.43 248.45,409.62 248.80,408.18 249.15,406.61 249.50,404.33 249.85,404.41 250.20,402.30 250.55,403.17 250.90,402.94 251.25,402.80 251.60,399.95 251.95,399.22 252.30,396.91 252.65,395.97 253.00,396.07 253.35,394.23 253.70,393.11 254.05,392.60 254.40,391.24 254.75,392.27 255.10,389.89 255.45,388.65 255.80,387.39 256.15,386.04 256.50,387.27 256.85,385.07 257.20,386.08 257.55,386.92 257.90,383.94 258.25,380.66 258.60,381.34 258.95,380.71 259.30,378.44 259.65,379.91 260.00,378.52 260.35,375.01 260.70,374.40 261.05,375.98 261.40,372.40 261.75,374.39 262.10,368.70 262.45,372.16 262.80,368.35 263.15,365.18 263.50,365.07 263.85,367.85 264.20,370.52 264.55,371.54 264.90,373.08 265.25,378.46 265.60,378.50 265.95,378.51 266.30,380.81 266.65,381.62 267.00,380.89 267.35,385.58 267.70,383.77 268.05,382.14 268.40,386.15 268.75,382.46 269.10,383.24 269.45,384.00 269.80,385.98 270.15,387.12 270.50,386.26 270.85,386.81 271.20,386.07 271.55,389.34 271.90,389.43 272.25,387.83 272.60,385.40 272.95,382.43 273.30,382.84 273.65,382.59 274.00,380.19 274.35,382.38 274.70,382.62 275.05,381.10 275.40,376.50 275.75,380.04 276.10,381.29 276.45,385.20 276.80,385.94 277.15,387.84 277.50,389.96 277.85,389.40 278.20,387.12 278.55,387.12 278.90,386.61 279.25,385.58 279.60,386.27 279.95,388.52 280.30,385.67 280.65,385.93 281.00,386.85 281.35,386.79 281.70,384.46 282.05,385.34 282.40,385.75 282.75,385.17 283.10,382.93 283.45,382.47 283.80,383.31 284.15,382.91 284.50,381.81 284.85,379.63 285.20,378.86 285.55,378.38 285.90,378.52 286.25,380.21 286.60,380.72 286.95,382.80 287.30,380.53 287.65,379.43 288.00,378.67 288.35,380.78 288.70,382.59 289.05,380.08 289.40,379.26 289.75,377.90 290.10,376.51 290.45,377.85 290.80,379.26 291.15,374.63 291.50,370.77 291.85,371.72 292.20,371.77 292.55,369.62 292.90,369.69 293.25,369.45 293.60,371.63 293.95,371.41 294.30,372.68 294.65,374.94 295.00,375.34 295.35,371.38 295.70,373.33 296.05,375.63 296.40,372.45 296.75,377.46 297.10,377.62 297.45,376.32 297.80,377.89 298.15,379.71 298.50,380.06 298.85,380.65 299.20,379.36 299.55,373.55 299.90,375.50 300.25,374.57 300.60,376.40 300.95,374.13 301.30,374.35 301.65,373.38 302.00,370.52 302.35,371.87 302.70,371.91 303.05,371.20 303.40,368.73 303.75,366.57 304.10,366.90 304.45,370.03 304.80,371.40 305.15,371.15 305.50,372.16 305.85,372.33 306.20,373.91 306.55,370.11 306.90,370.75 307.25,374.41 307.60,373.31 307.95,376.14 308.30,376.39 308.65,378.43 309.00,379.03 309.35,378.68 309.70,380.34 310.05,380.87 310.40,383.83 310.75,382.78 311.10,383.18 311.45,386.46 311.80,384.50 312.15,384.40 312.50,385.43 312.85,385.49 313.20,387.27 313.55,385.02 313.90,382.78 314.25,384.28 314.60,380.45 314.95,381.46 315.30,382.77 315.65,383.50 316.00,380.45 316.35,379.42 316.70,378.50 317.05,376.06 317.40,375.99 317.75,379.60 318.10,376.30 318.45,373.64 318.80,372.00 319.15,371.42 319.50,369.81 319.85,367.19 320.20,368.28 320.55,366.68 320.90,365.57 321.25,365.26 321.60,367.05 321.95,368.46 322.30,369.57 322.65,364.77 323.00,366.38 323.35,365.85 323.70,368.27 324.05,367.35 324.40,367.18 324.75,367.98 325.10,367.53 325.45,368.42 325.80,367.99 326.15,365.11 326.50,364.39 326.85,362.07 327.20,362.18 327.55,360.90 327.90,363.92 328.25,363.94 328.60,365.21 328.95,364.83 329.30,365.58 329.65,366.54 330.00,365.86 330.35,367.43 330.70,369.89 331.05,370.35 331.40,366.19 331.75,367.04 332.10,367.58 332.45,363.58 332.80,363.73 333.15,362.18 333.50,355.38 333.85,353.26 334.20,351.32 334.55,353.82 334.90,351.15 335.25,353.57 335.60,349.75 335.95,350.00 336.30,352.67 336.65,353.02 337.00,352.78 337.35,352.23 337.70,352.49 338.05,351.40 338.40,350.29 338.75,355.67 339.10,351.90 339.45,349.47 339.80,347.38 340.15,346.37 340.50,346.46 340.85,347.84 341.20,347.30 341.55,343.56 341.90,346.38 342.25,352.07 342.60,345.69 342.95,340.04 343.30,338.38 343.65,342.33 344.00,341.90 344.35,341.62 344.70,342.16 345.05,343.28 345.40,343.75 345.75,339.07 346.10,339.99 346.45,340.23 346.80,337.19 347.15,331.29 347.50,331.99 347.85,333.26 348.20,328.16 348.55,332.26 348.90,326.99 349.25,322.85 349.60,319.67 349.95,317.05 350.30,312.64 350.65,310.14 351.00,310.35 351.35,309.63 351.70,306.93 352.05,300.12 352.40,298.33 352.75,298.19 353.10,294.79 353.45,295.39 353.80,291.62 354.15,296.52 354.50,290.41 354.85,284.83 355.20,285.23 355.55,287.86 355.90,289.75 356.25,303.37 356.60,307.00 356.95,304.40 357.30,299.03 357.65,304.41 358.00,303.77 358.35,306.16 358.70,305.84 359.05,300.20 359.40,299.12 359.75,296.45 360.10,301.48 360.45,300.11 360.80,300.43 361.15,300.49 361.50,302.92 361.85,301.08 362.20,304.41 362.55,299.04 362.90,300.27 363.25,305.98 363.60,305.09 363.95,302.17 364.30,299.53 364.65,304.37 365.00,308.46 365.35,309.92 365.70,310.90 366.05,317.50 366.40,321.71 366.75,319.19 367.10,324.08 367.45,325.28 367.80,326.62 368.15,331.98 368.50,330.38 368.85,327.87 369.20,319.99 369.55,314.36 369.90,312.10 370.25,312.17 370.60,310.47 370.95,313.22 371.30,304.51 371.65,298.59 372.00,298.45 372.35,296.17 372.70,295.84 373.05,299.26 373.40,302.03 373.75,303.31 374.10,300.82 374.45,303.46 374.80,304.78 375.15,303.59 375.50,300.40 375.85,298.59 376.20,294.30 376.55,293.07 376.90,291.77 377.25,293.10 377.60,290.63 377.95,290.98 378.30,290.65 378.65,292.41 379.00,294.86 379.35,291.39 379.70,297.45 380.05,295.88 380.40,291.57 380.75,290.26 381.10,291.25 381.45,290.34 381.80,290.06 382.15,292.60 382.50,292.55 382.85,292.37 383.20,289.61 383.55,292.89 383.90,291.56 384.25,294.19 384.60,295.62 384.95,298.86 385.30,297.76 385.65,298.15 386.00,298.24 386.35,297.84 386.70,300.04 387.05,296.96 387.40,296.16 387.75,296.12 388.10,295.99 388.45,301.07 388.80,302.51 389.15,301.46 389.50,302.34 389.85,298.98 390.20,298.47 390.55,301.50 390.90,302.77 391.25,301.15 391.60,304.51 391.95,306.71 392.30,304.24 392.65,302.24 393.00,300.64 393.35,300.38 393.70,303.51 394.05,308.84 394.40,303.25 394.75,304.26 395.10,301.22 395.45,304.03 395.80,302.97 396.15,299.58 396.50,301.36 396.85,303.00 397.20,304.84 397.55,303.69 397.90,308.13 398.25,309.20 398.60,309.18 398.95,307.98 399.30,307.97 399.65,306.21 400.00,305.10 400.35,303.56 400.70,302.60 401.05,304.44 401.40,302.67 401.75,302.04 402.10,301.00 402.45,299.93 402.80,298.62 403.15,298.30 403.50,297.68 403.85,300.26 404.20,302.18 404.55,302.03 404.90,299.40 405.25,298.37 405.60,302.02 405.95,298.58 406.30,297.40 406.65,298.81 407.00,296.49 407.35,296.07 407.70,296.89 408.05,301.26 408.40,302.28 408.75,302.12 409.10,306.53 409.45,306.92 409.80,308.23 410.15,309.25 410.50,309.43 410.85,308.88 411.20,309.16 411.55,308.07 411.90,309.00 412.25,307.70 412.60,306.36 412.95,305.65 413.30,306.06 413.65,307.53 414.00,307.02 414.35,306.19 414.70,307.39 415.05,306.76 415.40,308.33 415.75,307.06 416.10,306.23 416.45,304.60 416.80,304.23 417.15,302.74 417.50,303.91 417.85,305.43 418.20,307.09 418.55,306.62 418.90,307.33 419.25,308.05 419.60,309.42 419.95,310.80 420.30,311.16 420.65,311.35 421.00,311.84 421.35,312.33 421.70,311.76 422.05,312.78 422.40,314.39 422.75,314.33 423.10,314.67 423.45,314.53 423.80,314.53 424.15,314.22 424.50,315.00 424.85,314.45 425.20,314.95 425.55,314.99 425.90,313.75 426.25,313.91 426.60,313.16 426.95,312.80 427.30,312.24 427.65,312.47 428.00,312.68 428.35,312.82 428.70,313.07 429.05,313.46 429.40,312.31 429.75,311.93 430.10,311.45 430.45,311.28 430.80,310.97 431.15,310.92 431.50,310.88 431.85,310.75 432.20,310.61 432.55,310.36 432.90,310.26 433.25,310.20 433.60,310.20 433.95,310.09 434.30,310.13 434.65,310.04 435.00,309.99 435.35,310.06 435.70,310.07 436.05,309.96 436.40,309.93 436.75,310.08 437.10,310.10 437.45,309.98 437.80,310.09 438.15,310.02 438.50,310.01 438.85,310.06 439.20,310.09 439.55,310.03 439.90,310.04 440.25,309.95 440.60,309.97 440.95,309.90 441.30,309.86 441.65,309.84 442.00,309.91 442.35,309.71 442.70,309.40 443.05,309.07 443.40,308.74 443.75,308.29 444.10,308.47 444.45,308.72 444.80,308.06 445.15,308.51 445.50,308.26 445.85,308.04 446.20,307.84 446.55,307.73 446.90,308.53 447.25,308.07 447.60,308.47 447.95,307.68 448.30,307.52 448.65,308.83 449.00,308.81 449.35,308.40 449.70,306.75 450.05,305.74 450.40,305.03 450.75,305.84 451.10,306.50 451.45,304.50 451.80,304.64 452.15,304.50 452.50,305.63 452.85,305.04 453.20,303.40 453.55,302.71 453.90,302.31 454.25,301.70 454.60,300.32 454.95,298.82 455.30,298.86 455.65,298.50 456.00,298.95 456.35,298.50 456.70,296.81 457.05,295.79 457.40,295.76 457.75,295.99 458.10,294.06 458.45,293.83 458.80,295.92 459.15,294.88 459.50,295.54 459.85,293.05 460.20,291.30 460.55,291.23 460.90,292.65 461.25,293.86 461.60,294.09 461.95,294.60 462.30,292.08 462.65,294.07 463.00,296.58 463.35,296.32 463.70,295.99 464.05,298.80 464.40,297.82 464.75,297.98 465.10,297.45 465.45,298.40 465.80,298.14 466.15,300.33 466.50,298.33 466.85,297.23 467.20,298.05 467.55,296.43 467.90,294.40 468.25,293.97 468.60,296.56 468.95,294.33 469.30,292.44 469.65,289.73 470.00,289.75 470.35,290.00 470.70,287.73 471.05,285.91 471.40,285.41 471.75,288.20 472.10,289.16 472.45,291.52 472.80,291.06 473.15,289.56 473.50,288.99 473.85,290.20 474.20,289.72 474.55,290.41 474.90,285.88 475.25,285.75 475.60,283.57 475.95,287.08 476.30,286.85 476.65,286.99 477.00,286.16 477.35,284.60 477.70,285.58 478.05,286.17 478.40,284.86 478.75,289.55 479.10,290.15 479.45,290.38 479.80,289.11 480.15,291.82 480.50,294.90 480.85,292.26 481.20,293.66 481.55,294.48 481.90,294.89 482.25,295.58 482.60,294.23 482.95,290.23 483.30,287.88 483.65,284.79 484.00,284.43 484.35,283.74 484.70,282.70 485.05,284.03 485.40,286.26 485.75,286.11 486.10,284.04 486.45,282.22 486.80,285.37 487.15,284.44 487.50,286.80 487.85,282.98 488.20,283.50 488.55,283.11 488.90,282.36 489.25,279.89 489.60,279.99 489.95,279.00 490.30,278.34 490.65,275.02 491.00,275.55 491.35,279.12 491.70,282.66 492.05,283.90 492.40,285.83 492.75,285.12 493.10,287.31 493.45,285.37 493.80,287.97 494.15,286.08 494.50,285.79 494.85,280.47 495.20,277.67 495.55,275.98 495.90,277.07 496.25,278.53 496.60,278.89 496.95,283.40 497.30,284.21 497.65,283.58 498.00,283.44 498.35,280.67 498.70,284.68 499.05,282.65 499.40,279.09 499.75,280.76 500.10,282.68 500.45,286.53 500.80,289.42 501.15,288.44 501.50,291.12 501.85,294.87 502.20,296.42 502.55,293.83 502.90,294.74 503.25,294.45 503.60,293.58 503.95,294.50 504.30,298.23 504.65,297.19 505.00,293.41 505.35,291.28 505.70,291.69 506.05,292.04 506.40,288.49 506.75,288.66 507.10,287.77 507.45,287.53 507.80,286.24 508.15,288.01 508.50,292.02 508.85,288.85 509.20,285.95 509.55,286.04 509.90,288.11 510.25,290.76 510.60,288.91 510.95,285.71 511.30,284.65 511.65,280.47 512.00,282.33 512.35,281.69 512.70,280.09 513.05,277.36 513.40,277.37 513.75,275.36 514.10,278.73 514.45,282.07 514.80,279.91 515.15,279.09 515.50,281.74 515.85,280.97 516.20,283.95 516.55,284.20 516.90,281.77 517.25,281.31 517.60,278.00 517.95,279.98 518.30,281.22 518.65,281.06 519.00,283.94 519.35,277.45 519.70,277.40 520.05,282.51 520.40,285.93 520.75,287.46 521.10,284.87 521.45,286.09 521.80,285.82 522.15,286.87 522.50,284.65 522.85,283.75 523.20,283.28 523.55,282.52 523.90,283.72 524.25,285.57 524.60,288.66 524.95,287.10 525.30,285.72 525.65,284.69 526.00,284.54 526.35,285.96 526.70,284.76 527.05,282.82 527.40,281.53 527.75,281.41 528.10,280.97 528.45,281.51 528.80,285.95 529.15,287.69 529.50,290.86 529.85,290.99 530.20,291.88 530.55,293.82 530.90,291.99 531.25,288.08 531.60,287.59 531.95,286.86 532.30,285.36 532.65,287.60 533.00,289.53 533.35,290.15 533.70,294.03 534.05,294.07 534.40,294.43 534.75,294.81 535.10,297.30 535.45,294.43 535.80,293.90 536.15,296.62 536.50,296.43 536.85,296.10 537.20,295.40 537.55,296.21 537.90,297.05 538.25,296.11 538.60,295.11 538.95,294.86 539.30,293.77 539.65,294.81 540.00,294.95 540.35,294.84 540.70,293.38 541.05,293.82 541.40,296.00 541.75,295.16 542.10,296.01 542.45,296.62 542.80,297.70 543.15,297.45 543.50,298.26 543.85,297.84 544.20,296.42 544.55,295.15 544.90,293.75 545.25,293.80 545.60,294.91 545.95,293.72 546.30,293.59 546.65,294.28 547.00,293.55 547.35,293.26 547.70,293.01 548.05,291.16 548.40,291.52 548.75,290.35 549.10,289.99 549.45,290.38 549.80,289.12 550.15,287.88 550.50,287.38 550.85,286.48 551.20,287.55 551.55,288.02 551.90,287.82 552.25,286.45 552.60,287.20 552.95,287.65 553.30,287.21 553.65,285.42 554.00,283.97 554.35,284.25 554.70,284.06 555.05,283.33 555.40,284.91 555.75,283.14 556.10,285.29 556.45,281.53 556.80,280.78 557.15,281.47 557.50,283.42 557.85,286.41 558.20,285.41 558.55,284.92 558.90,283.44 559.25,285.79 559.60,286.26 559.95,287.97 560.30,286.57 560.65,286.11 561.00,286.59 561.35,286.21 561.70,288.34 562.05,287.02 562.40,290.99 562.75,290.88 563.10,292.22 563.45,293.34 563.80,292.10 564.15,294.45 564.50,292.79 564.85,292.35 565.20,293.91 565.55,295.38 565.90,294.04 566.25,293.44 566.60,296.18 566.95,297.38 567.30,296.20 567.65,294.86 568.00,295.69 568.35,295.84 568.70,298.13 569.05,298.28 569.40,298.69 569.75,298.63 570.10,297.38 570.45,296.70 570.80,295.53 571.15,294.27 571.50,295.04 571.85,296.45 572.20,295.28 572.55,296.89 572.90,297.55 573.25,297.92 573.60,297.94 573.95,297.29 574.30,295.51 574.65,296.10 575.00,294.85 575.35,294.94 575.70,295.30 576.05,294.65 576.40,294.79 576.75,293.95 577.10,294.78 577.45,295.42 577.80,295.08 578.15,294.91 578.50,294.08 578.85,293.65 579.20,293.77 579.55,292.97 579.90,292.04 580.25,292.46 580.60,292.45 580.95,292.93 581.30,293.35 581.65,292.59 582.00,292.87 582.35,293.02 582.70,292.33 583.05,293.05 583.40,292.65 583.75,292.01 584.10,290.97 584.45,289.29 584.80,288.84 585.15,287.94 585.50,287.96 585.85,285.56 586.20,285.04 586.55,283.70 586.90,281.65 587.25,278.98 587.60,277.93 587.95,279.07 588.30,279.59 588.65,278.66 589.00,279.79 589.35,279.68 589.70,277.46 590.05,279.71 590.40,279.03 590.75,280.40 591.10,280.74 591.45,276.37 591.80,277.05 592.15,279.27 592.50,276.38 592.85,273.83 593.20,273.08 593.55,273.95 593.90,275.22 594.25,275.28 594.60,276.11 594.95,277.08 595.30,278.14 595.65,275.62 596.00,275.32 596.35,273.92 596.70,275.41 597.05,278.30 597.40,281.72 597.75,283.97 598.10,282.55 598.45,278.18 598.80,280.42 599.15,280.78 599.50,278.70 599.85,275.67 600.20,279.05 600.55,278.40 600.90,275.71 601.25,273.35 601.60,271.55 601.95,273.10 602.30,272.09 602.65,268.77 603.00,269.17 603.35,270.14 603.70,273.59 604.05,278.46 604.40,278.41 604.75,276.83 605.10,279.48 605.45,279.78 605.80,277.96 606.15,275.52 606.50,277.66 606.85,277.43 607.20,281.35 607.55,283.99 607.90,285.80 608.25,286.34 608.60,289.20 608.95,287.73 609.30,283.66 609.65,286.34 610.00,290.02 610.35,290.13 610.70,289.07 611.05,290.46 611.40,292.68 611.75,293.28 612.10,291.09 612.45,287.02 612.80,284.42 613.15,283.68 613.50,283.13 613.85,283.73 614.20,286.50 614.55,288.50 614.90,289.09 615.25,288.47 615.60,285.15 615.95,284.93 616.30,286.39 616.65,284.55 617.00,286.18 617.35,286.07 617.70,288.41 618.05,293.08 618.40,295.56 618.75,297.27 619.10,297.06 619.45,297.48 619.80,299.64 620.15,302.15 620.50,301.88 620.85,301.56 621.20,300.62 621.55,301.16 621.90,302.07 622.25,304.01 622.60,304.43 622.95,300.35 623.30,298.22 623.65,298.36 624.00,298.51 624.35,298.73 624.70,300.18 625.05,300.46 625.40,299.69 625.75,300.38 626.10,302.24 626.45,299.50 626.80,299.65 627.15,298.14 627.50,296.34 627.85,295.94 628.20,295.15 628.55,293.87 628.90,295.06 629.25,293.54 629.60,294.56 629.95,294.04 630.30,293.55 630.65,293.40 631.00,292.81 631.35,296.07 631.70,294.75 632.05,297.18 632.40,298.00 632.75,297.34 633.10,297.38 633.45,295.81 633.80,294.37 634.15,297.35 634.50,296.52 634.85,295.17 635.20,298.59 635.55,301.36 635.90,299.92 636.25,300.67 636.60,300.28 636.95,299.27 637.30,297.64 637.65,298.45 638.00,300.23 638.35,300.90 638.70,301.52 639.05,302.18 639.40,303.21 639.75,303.45 640.10,301.59 640.45,301.28 640.80,300.53 641.15,301.29 641.50,299.13 641.85,299.19 642.20,300.98 642.55,300.78 642.90,301.14 643.25,303.11 643.60,303.73 643.95,302.84 644.30,303.31 644.65,303.33 645.00,303.45 645.35,302.69 645.70,303.06 646.05,303.39 646.40,303.11 646.75,303.98 647.10,303.46 647.45,303.48 647.80,304.01 648.15,303.22 648.50,303.32 648.85,303.66 649.20,303.37 649.55,303.39 649.90,303.45 650.25,303.34 650.60,302.97 650.95,302.46 651.30,302.13 651.65,302.41 652.00,302.36 652.35,302.48 652.70,302.40 653.05,302.30 653.40,302.11 653.75,302.01 654.10,301.90 654.45,301.86 654.80,301.82 655.15,301.86 655.50,301.91 655.85,301.88 656.20,301.95 656.55,301.91 656.90,301.92 657.25,301.90 657.60,301.81 657.95,301.57 658.30,301.44 658.65,301.49 659.00,301.53 659.35,301.36 659.70,300.96 660.05,301.21 660.40,301.19 660.75,301.38 661.10,301.27 661.45,301.34 661.80,301.36 662.15,300.76 662.50,300.02 662.85,300.37 663.20,299.85 663.55,299.67 663.90,299.49 664.25,299.71 664.60,299.12 664.95,299.29 665.30,298.42 665.65,297.37 666.00,296.94 666.35,296.63 666.70,296.49 667.05,296.78 667.40,296.59 667.75,296.35 668.10,296.95 668.45,295.42 668.80,294.43 669.15,293.48 669.50,293.30 669.85,293.40 670.20,293.85 670.55,294.20 670.90,293.78 671.25,292.14 671.60,292.22 671.95,292.81 672.30,291.95 672.65,292.78 673.00,291.81 673.35,289.64 673.70,288.09 674.05,288.33 674.40,287.32 674.75,287.20 675.10,286.15 675.45,285.70 675.80,286.79 676.15,288.10 676.50,287.53 676.85,289.91 677.20,289.46 677.55,290.87 677.90,290.96 678.25,293.49 678.60,294.62 678.95,292.53 679.30,292.74 679.65,293.17 680.00,293.22 680.35,291.84 680.70,291.13 681.05,292.04 681.40,292.63 681.75,294.25 682.10,293.19 682.45,293.03 682.80,296.33 683.15,298.00 683.50,296.52 683.85,293.54 684.20,293.34 684.55,291.83 684.90,290.36 685.25,289.19 685.60,290.93 685.95,290.74 686.30,291.61 686.65,290.74 687.00,291.15 687.35,290.21 687.70,289.24 688.05,292.42 688.40,294.86 688.75,292.73 689.10,295.57 689.45,297.92 689.80,297.05 690.15,295.01 690.50,297.14 690.85,296.14 691.20,293.38 691.55,293.56 691.90,293.03 692.25,293.91 692.60,293.00 692.95,292.16 693.30,294.61 693.65,297.07 694.00,293.97 694.35,294.69 694.70,293.33 695.05,295.07 695.40,293.58 695.75,292.24 696.10,294.02 696.45,297.10 696.80,298.11 697.15,299.39 697.50,298.56 697.85,297.89 698.20,299.25 698.55,298.11 698.90,299.99 699.25,297.22 699.60,297.29 699.95,297.46 700.30,299.36 700.65,299.75 701.00,298.96 701.35,297.08 701.70,296.21 702.05,294.72 702.40,295.81 702.75,296.22 703.10,298.04 703.45,298.44 703.80,295.38 704.15,292.69 704.50,294.80 704.85,293.79 705.20,296.86 705.55,296.36 705.90,298.26 706.25,299.72 706.60,300.18 706.95,299.51 707.30,301.02 707.65,301.66 708.00,301.89 708.35,300.63 708.70,301.92 709.05,303.57 709.40,302.47 709.75,301.82 710.10,302.73 710.45,302.14 710.80,302.93 711.15,303.86 711.50,304.44 711.85,304.77 712.20,304.68 712.55,305.44 712.90,305.67 713.25,305.07 713.60,304.64 713.95,304.72 714.30,304.28 714.65,304.61 715.00,304.14 715.35,304.45 715.70,303.22 716.05,303.89 716.40,303.69 716.75,302.81 717.10,302.55 717.45,302.29 717.80,302.71 718.15,302.71 718.50,302.68 718.85,302.18 719.20,301.93 719.55,301.72 719.90,301.47 720.25,301.64 720.60,301.48 720.95,301.79 721.30,301.66 721.65,301.64 722.00,301.24 722.35,301.24 722.70,301.17 723.05,300.76 723.40,300.29 723.75,300.47 724.10,301.15 724.45,300.89 724.80,299.98 725.15,300.37 725.50,300.31 725.85,300.43 726.20,299.87 726.55,299.50 726.90,299.38 727.25,299.93 727.60,299.54 727.95,298.57 728.30,298.00 728.65,297.29 729.00,298.33 729.35,299.18 729.70,299.56 730.05,299.62 730.40,299.23 730.75,298.31 731.10,298.21 731.45,299.16 731.80,299.32 732.15,301.12 732.50,300.08 732.85,300.94 733.20,300.85 733.55,301.24 733.90,300.07 734.25,299.27 734.60,298.66 734.95,298.07 735.30,296.57 735.65,297.65 736.00,298.56 736.35,297.94 736.70,298.05 737.05,298.43 737.40,299.01 737.75,299.00 738.10,298.85 738.45,299.14 738.80,299.85 739.15,301.48 739.50,301.96 739.85,301.72 740.20,302.04 740.55,301.89 740.90,301.93 741.25,302.40 741.60,302.17 741.95,301.65 742.30,301.91 742.65,302.23 743.00,301.81 743.35,301.83 743.70,301.92 744.05,301.81 744.40,302.17 744.75,301.52 745.10,301.13 745.45,301.45 745.80,301.58 746.15,301.07 746.50,301.44 746.85,301.86 747.20,301.86 747.55,301.97 747.90,301.63 748.25,301.98 748.60,301.48 748.95,301.39 749.30,301.25 749.65,301.43 750.00,301.63 750.35,301.52 750.70,301.43 751.05,301.57 751.40,302.18 751.75,301.33 752.10,301.23 752.45,300.95 752.80,300.83 753.15,300.81 753.50,301.01 753.85,301.64 754.20,301.58 754.55,301.60 754.90,301.19 755.25,301.08 755.60,301.97 755.95,301.21 756.30,300.32 756.65,299.87 757.00,301.03 757.35,302.02 757.70,302.23 758.05,302.29 758.40,302.66 758.75,302.51 759.10,302.03 759.45,303.00 759.80,302.30 760.15,302.20 760.50,301.38 760.85,301.64 761.20,301.34 761.55,302.08 761.90,301.57 762.25,301.86 762.60,301.50 762.95,300.76 763.30,300.23 763.65,300.41 764.00,300.90 764.35,300.71 764.70,300.69 765.05,300.65 765.40,300.63 765.75,301.08 766.10,302.03 766.45,302.32 766.80,302.54 767.15,303.20 767.50,302.75 767.85,303.05 768.20,302.60 768.55,302.20 768.90,302.58 769.25,303.18 769.60,303.01 769.95,302.55 770.30,302.87 770.65,303.28 771.00,303.06 771.35,303.28 771.70,303.09 772.05,302.98 772.40,302.94 772.75,302.97 773.10,302.93 773.45,302.92 773.80,302.86 774.15,302.81 774.50,302.77 774.85,302.81 775.20,302.84 775.55,302.94 775.90,302.90 776.25,302.91 776.60,302.90 776.95,302.87 777.30,302.78 777.65,302.83 778.00,302.82 778.35,302.78 778.70,302.51 779.05,302.13 779.40,302.29 779.75,302.25 780.10,302.56 780.45,302.48 780.80,302.78 781.15,302.85 781.50,302.06 781.85,302.05 782.20,302.29 782.55,302.06 782.90,302.19 783.25,303.18 783.60,303.24 783.95,303.02 784.30,303.40 784.65,303.50 785.00,303.83"/>
<line x1="813" y1="78" x2="839" y2="78" stroke="#dc2626" stroke-width="3"/>
<text x="847" y="82" font-family="Arial" font-size="13" fill="#111827">high volatility</text>
<polyline fill="none" stroke="#059669" stroke-width="2" points="85.00,414.32 85.35,414.31 85.70,414.30 86.05,414.29 86.40,414.28 86.75,414.28 87.10,414.28 87.45,414.28 87.80,414.27 88.15,414.26 88.50,414.26 88.85,414.24 89.20,414.25 89.55,414.24 89.90,414.23 90.25,414.23 90.60,414.23 90.95,414.22 91.30,414.21 91.65,414.20 92.00,414.19 92.35,414.19 92.70,414.18 93.05,414.18 93.40,414.17 93.75,414.16 94.10,414.14 94.45,414.14 94.80,414.14 95.15,414.09 95.50,414.06 95.85,414.06 96.20,413.96 96.55,413.82 96.90,413.68 97.25,413.61 97.60,413.62 97.95,413.62 98.30,413.25 98.65,413.39 99.00,413.45 99.35,413.32 99.70,412.86 100.05,412.90 100.40,412.68 100.75,412.55 101.10,412.61 101.45,412.23 101.80,412.02 102.15,412.09 102.50,412.17 102.85,412.11 103.20,411.96 103.55,411.92 103.90,411.71 104.25,411.94 104.60,411.63 104.95,411.12 105.30,411.23 105.65,411.48 106.00,411.91 106.35,411.95 106.70,411.84 107.05,411.43 107.40,411.65 107.75,411.36 108.10,411.06 108.45,411.45 108.80,410.96 109.15,410.78 109.50,410.41 109.85,410.70 110.20,410.44 110.55,411.23 110.90,411.39 111.25,411.51 111.60,410.99 111.95,411.76 112.30,411.02 112.65,411.55 113.00,411.61 113.35,411.93 113.70,411.51 114.05,412.57 114.40,412.76 114.75,412.76 115.10,412.30 115.45,412.26 115.80,412.62 116.15,412.64 116.50,413.31 116.85,412.75 117.20,412.92 117.55,411.39 117.90,412.53 118.25,412.35 118.60,413.01 118.95,412.37 119.30,412.18 119.65,412.32 120.00,411.51 120.35,411.07 120.70,411.93 121.05,411.72 121.40,411.96 121.75,412.19 122.10,412.41 122.45,412.74 122.80,412.88 123.15,412.68 123.50,412.79 123.85,413.34 124.20,413.89 124.55,414.92 124.90,415.00 125.25,414.81 125.60,414.29 125.95,413.82 126.30,414.12 126.65,414.30 127.00,414.22 127.35,414.32 127.70,414.39 128.05,414.06 128.40,414.05 128.75,414.17 129.10,414.19 129.45,414.45 129.80,414.50 130.15,414.45 130.50,414.22 130.85,413.93 131.20,413.98 131.55,413.96 131.90,413.54 132.25,413.78 132.60,413.68 132.95,413.56 133.30,413.70 133.65,413.67 134.00,413.76 134.35,413.69 134.70,413.89 135.05,413.83 135.40,413.90 135.75,413.91 136.10,413.99 136.45,413.92 136.80,413.80 137.15,413.75 137.50,413.79 137.85,413.97 138.20,414.03 138.55,414.01 138.90,414.14 139.25,414.27 139.60,414.17 139.95,414.39 140.30,414.26 140.65,414.19 141.00,414.14 141.35,414.05 141.70,414.05 142.05,413.99 142.40,414.01 142.75,413.96 143.10,413.95 143.45,413.97 143.80,413.96 144.15,413.95 144.50,414.06 144.85,414.04 145.20,414.10 145.55,414.04 145.90,414.03 146.25,413.99 146.60,414.03 146.95,414.00 147.30,413.99 147.65,413.91 148.00,413.90 148.35,413.88 148.70,413.77 149.05,413.80 149.40,413.81 149.75,413.86 150.10,413.85 150.45,413.82 150.80,413.79 151.15,413.67 151.50,413.70 151.85,413.75 152.20,413.75 152.55,413.73 152.90,413.75 153.25,413.71 153.60,413.71 153.95,413.74 154.30,413.77 154.65,413.74 155.00,413.68 155.35,413.65 155.70,413.68 156.05,413.62 156.40,413.66 156.75,413.64 157.10,413.67 157.45,413.66 157.80,413.66 158.15,413.59 158.50,413.56 158.85,413.62 159.20,413.60 159.55,413.56 159.90,413.54 160.25,413.55 160.60,413.51 160.95,413.42 161.30,413.31 161.65,413.28 162.00,413.32 162.35,413.39 162.70,413.41 163.05,413.46 163.40,413.58 163.75,413.66 164.10,413.68 164.45,413.79 164.80,414.04 165.15,414.11 165.50,414.13 165.85,414.15 166.20,414.30 166.55,414.28 166.90,414.32 167.25,414.27 167.60,414.28 167.95,414.24 168.30,414.22 168.65,414.19 169.00,414.13 169.35,414.04 169.70,413.99 170.05,413.87 170.40,413.88 170.75,413.91 171.10,413.99 171.45,413.86 171.80,414.00 172.15,414.05 172.50,413.95 172.85,413.92 173.20,413.76 173.55,413.90 173.90,413.77 174.25,413.58 174.60,413.83 174.95,413.97 175.30,413.88 175.65,413.45 176.00,413.46 176.35,413.39 176.70,413.51 177.05,413.13 177.40,413.07 177.75,413.22 178.10,413.36 178.45,412.41 178.80,412.48 179.15,412.93 179.50,412.53 179.85,412.43 180.20,411.61 180.55,411.48 180.90,410.79 181.25,409.77 181.60,409.06 181.95,409.72 182.30,409.78 182.65,409.60 183.00,410.04 183.35,409.51 183.70,408.72 184.05,409.12 184.40,408.83 184.75,408.69 185.10,408.94 185.45,408.94 185.80,408.06 186.15,408.74 186.50,407.43 186.85,407.81 187.20,406.89 187.55,405.46 187.90,407.00 188.25,405.98 188.60,406.65 188.95,405.95 189.30,406.76 189.65,406.39 190.00,406.13 190.35,405.34 190.70,405.54 191.05,408.13 191.40,408.62 191.75,409.36 192.10,408.55 192.45,408.57 192.80,406.32 193.15,405.86 193.50,406.80 193.85,406.96 194.20,407.47 194.55,406.18 194.90,407.80 195.25,408.78 195.60,408.43 195.95,408.27 196.30,407.94 196.65,408.46 197.00,409.13 197.35,412.61 197.70,412.73 198.05,413.27 198.40,412.27 198.75,413.14 199.10,414.14 199.45,414.31 199.80,412.41 200.15,412.43 200.50,412.92 200.85,412.45 201.20,410.19 201.55,411.03 201.90,409.62 202.25,410.06 202.60,408.47 202.95,407.78 203.30,407.24 203.65,408.06 204.00,407.27 204.35,405.96 204.70,408.08 205.05,408.99 205.40,409.27 205.75,410.48 206.10,409.14 206.45,411.21 206.80,409.65 207.15,409.04 207.50,408.31 207.85,407.11 208.20,407.38 208.55,407.04 208.90,406.11 209.25,406.31 209.60,406.70 209.95,406.71 210.30,406.51 210.65,408.80 211.00,409.04 211.35,408.85 211.70,409.95 212.05,411.51 212.40,412.34 212.75,409.84 213.10,408.03 213.45,407.77 213.80,405.21 214.15,405.69 214.50,405.92 214.85,406.24 215.20,405.60 215.55,408.05 215.90,405.81 216.25,405.71 216.60,403.77 216.95,402.00 217.30,401.54 217.65,402.16 218.00,401.70 218.35,402.32 218.70,404.89 219.05,404.13 219.40,402.78 219.75,404.58 220.10,403.72 220.45,403.28 220.80,404.97 221.15,405.67 221.50,405.06 221.85,403.63 222.20,404.43 222.55,404.40 222.90,403.65 223.25,402.40 223.60,399.92 223.95,401.18 224.30,399.25 224.65,397.02 225.00,395.52 225.35,396.22 225.70,392.93 226.05,392.35 226.40,392.95 226.75,392.50 227.10,391.39 227.45,390.36 227.80,389.32 228.15,390.34 228.50,392.24 228.85,393.66 229.20,395.68 229.55,395.02 229.90,397.10 230.25,394.78 230.60,397.53 230.95,395.78 231.30,394.84 231.65,393.39 232.00,393.64 232.35,393.11 232.70,395.18 233.05,396.89 233.40,395.58 233.75,396.81 234.10,398.57 234.45,398.62 234.80,398.27 235.15,398.89 235.50,401.30 235.85,398.11 236.20,397.15 236.55,395.97 236.90,393.65 237.25,390.88 237.60,391.25 237.95,390.34 238.30,390.00 238.65,388.26 239.00,386.88 239.35,388.34 239.70,386.46 240.05,383.82 240.40,384.42 240.75,384.62 241.10,384.21 241.45,388.11 241.80,387.88 242.15,389.86 242.50,392.70 242.85,391.25 243.20,392.69 243.55,395.10 243.90,397.23 244.25,397.11 244.60,397.90 244.95,395.35 245.30,390.37 245.65,390.51 246.00,393.17 246.35,393.04 246.70,388.93 247.05,388.36 247.40,390.85 247.75,394.31 248.10,397.56 248.45,394.88 248.80,395.55 249.15,398.26 249.50,397.76 249.85,394.39 250.20,398.90 250.55,392.86 250.90,392.89 251.25,389.98 251.60,387.86 251.95,384.91 252.30,384.91 252.65,385.39 253.00,385.83 253.35,387.05 253.70,388.82 254.05,389.44 254.40,389.85 254.75,390.95 255.10,388.86 255.45,394.19 255.80,395.18 256.15,387.84 256.50,388.89 256.85,387.55 257.20,393.04 257.55,391.64 257.90,389.07 258.25,390.56 258.60,389.79 258.95,387.19 259.30,389.07 259.65,391.06 260.00,392.87 260.35,387.43 260.70,391.30 261.05,387.74 261.40,387.44 261.75,384.57 262.10,384.27 262.45,384.74 262.80,383.99 263.15,383.32 263.50,385.22 263.85,385.20 264.20,380.74 264.55,377.61 264.90,377.05 265.25,374.15 265.60,378.93 265.95,382.48 266.30,381.89 266.65,380.23 267.00,383.07 267.35,381.46 267.70,382.22 268.05,387.31 268.40,386.64 268.75,389.41 269.10,390.62 269.45,391.26 269.80,395.53 270.15,396.51 270.50,393.48 270.85,393.98 271.20,395.01 271.55,391.23 271.90,389.89 272.25,388.82 272.60,389.77 272.95,385.20 273.30,388.33 273.65,385.90 274.00,388.66 274.35,388.31 274.70,383.73 275.05,390.11 275.40,389.17 275.75,386.89 276.10,386.70 276.45,384.47 276.80,388.54 277.15,387.28 277.50,385.49 277.85,384.94 278.20,382.68 278.55,379.38 278.90,378.40 279.25,377.00 279.60,379.35 279.95,382.79 280.30,384.72 280.65,379.56 281.00,380.07 281.35,377.67 281.70,382.35 282.05,381.28 282.40,380.00 282.75,379.11 283.10,383.24 283.45,379.05 283.80,377.14 284.15,378.25 284.50,377.79 284.85,378.45 285.20,380.15 285.55,373.45 285.90,370.77 286.25,374.42 286.60,374.88 286.95,377.80 287.30,377.82 287.65,378.81 288.00,383.44 288.35,383.74 288.70,382.32 289.05,386.17 289.40,387.82 289.75,383.27 290.10,382.78 290.45,382.05 290.80,384.22 291.15,385.08 291.50,381.83 291.85,379.68 292.20,378.11 292.55,380.05 292.90,377.28 293.25,373.72 293.60,371.96 293.95,374.40 294.30,379.16 294.65,377.84 295.00,376.37 295.35,377.85 295.70,375.43 296.05,375.05 296.40,374.96 296.75,377.53 297.10,380.68 297.45,378.93 297.80,380.96 298.15,385.36 298.50,386.81 298.85,385.12 299.20,384.60 299.55,381.05 299.90,384.31 300.25,383.12 300.60,380.84 300.95,380.57 301.30,385.63 301.65,385.27 302.00,387.27 302.35,385.84 302.70,384.27 303.05,378.42 303.40,377.44 303.75,380.58 304.10,383.77 304.45,382.58 304.80,382.36 305.15,380.94 305.50,384.21 305.85,386.84 306.20,392.00 306.55,392.56 306.90,391.41 307.25,392.82 307.60,396.69 307.95,390.33 308.30,388.16 308.65,388.49 309.00,388.30 309.35,393.25 309.70,392.66 310.05,398.29 310.40,394.08 310.75,398.25 311.10,401.09 311.45,401.78 311.80,407.96 312.15,409.06 312.50,410.41 312.85,410.47 313.20,410.41 313.55,408.82 313.90,406.09 314.25,406.36 314.60,405.66 314.95,406.24 315.30,407.99 315.65,410.40 316.00,410.43 316.35,415.11 316.70,417.69 317.05,413.91 317.40,411.94 317.75,416.67 318.10,418.65 318.45,419.59 318.80,421.44 319.15,422.07 319.50,420.91 319.85,421.00 320.20,423.22 320.55,423.35 320.90,418.88 321.25,415.35 321.60,413.92 321.95,413.86 322.30,413.53 322.65,417.60 323.00,418.11 323.35,420.75 323.70,420.71 324.05,419.27 324.40,419.78 324.75,419.70 325.10,421.24 325.45,424.83 325.80,427.81 326.15,428.94 326.50,430.26 326.85,425.97 327.20,421.65 327.55,423.92 327.90,428.10 328.25,430.31 328.60,430.43 328.95,433.00 329.30,431.70 329.65,429.80 330.00,432.15 330.35,429.42 330.70,429.63 331.05,427.38 331.40,432.25 331.75,430.77 332.10,435.18 332.45,438.16 332.80,438.26 333.15,440.48 333.50,438.16 333.85,438.32 334.20,440.13 334.55,439.24 334.90,437.02 335.25,435.86 335.60,435.87 335.95,436.85 336.30,434.83 336.65,433.65 337.00,430.80 337.35,429.22 337.70,430.43 338.05,429.28 338.40,428.89 338.75,427.89 339.10,428.12 339.45,426.85 339.80,427.76 340.15,428.62 340.50,426.88 340.85,425.55 341.20,424.85 341.55,423.24 341.90,422.08 342.25,421.59 342.60,421.42 342.95,423.55 343.30,425.79 343.65,424.92 344.00,423.98 344.35,426.11 344.70,423.85 345.05,423.38 345.40,425.21 345.75,424.53 346.10,425.73 346.45,425.42 346.80,426.91 347.15,426.43 347.50,426.24 347.85,425.82 348.20,424.66 348.55,425.31 348.90,425.25 349.25,425.55 349.60,425.62 349.95,424.77 350.30,424.08 350.65,424.31 351.00,423.19 351.35,423.97 351.70,424.58 352.05,423.68 352.40,424.30 352.75,424.19 353.10,422.77 353.45,422.77 353.80,421.73 354.15,420.40 354.50,419.34 354.85,417.36 355.20,416.68 355.55,417.85 355.90,417.49 356.25,417.70 356.60,418.12 356.95,418.50 357.30,417.84 357.65,418.85 358.00,417.28 358.35,416.97 358.70,418.44 359.05,418.94 359.40,419.59 359.75,420.76 360.10,420.67 360.45,422.09 360.80,420.55 361.15,419.53 361.50,419.89 361.85,420.18 362.20,419.96 362.55,420.77 362.90,420.02 363.25,419.88 363.60,420.18 363.95,419.77 364.30,420.06 364.65,420.22 365.00,421.20 365.35,421.67 365.70,422.22 366.05,422.11 366.40,424.00 366.75,424.91 367.10,425.35 367.45,424.49 367.80,424.88 368.15,425.02 368.50,424.65 368.85,424.17 369.20,422.71 369.55,422.78 369.90,422.83 370.25,422.72 370.60,422.72 370.95,422.60 371.30,422.42 371.65,422.81 372.00,422.46 372.35,422.67 372.70,422.44 373.05,421.21 373.40,421.30 373.75,421.10 374.10,421.81 374.45,421.30 374.80,420.58 375.15,421.18 375.50,421.73 375.85,421.81 376.20,421.40 376.55,421.54 376.90,421.36 377.25,421.46 377.60,421.94 377.95,422.80 378.30,423.85 378.65,422.78 379.00,422.78 379.35,423.78 379.70,424.05 380.05,423.21 380.40,423.39 380.75,423.81 381.10,423.88 381.45,423.20 381.80,422.55 382.15,422.69 382.50,423.08 382.85,423.07 383.20,422.62 383.55,422.52 383.90,423.12 384.25,423.20 384.60,423.67 384.95,423.57 385.30,423.84 385.65,423.91 386.00,423.97 386.35,423.84 386.70,424.10 387.05,423.96 387.40,424.26 387.75,424.41 388.10,424.87 388.45,425.21 388.80,425.34 389.15,425.45 389.50,425.34 389.85,425.12 390.20,425.51 390.55,425.22 390.90,424.95 391.25,424.93 391.60,425.08 391.95,425.06 392.30,424.98 392.65,424.92 393.00,424.77 393.35,424.62 393.70,424.64 394.05,424.43 394.40,424.37 394.75,424.19 395.10,424.28 395.45,424.19 395.80,424.12 396.15,424.00 396.50,423.96 396.85,423.92 397.20,423.87 397.55,423.84 397.90,423.81 398.25,423.82 398.60,423.89 398.95,423.85 399.30,423.92 399.65,423.96 400.00,423.87 400.35,423.77 400.70,423.67 401.05,423.78 401.40,423.70 401.75,423.85 402.10,424.02 402.45,424.04 402.80,424.06 403.15,423.92 403.50,423.88 403.85,423.86 404.20,423.79 404.55,423.88 404.90,423.90 405.25,423.99 405.60,424.12 405.95,423.95 406.30,423.58 406.65,423.73 407.00,423.75 407.35,424.05 407.70,424.12 408.05,424.13 408.40,424.06 408.75,424.15 409.10,424.07 409.45,424.17 409.80,424.09 410.15,424.20 410.50,424.14 410.85,424.24 411.20,424.21 411.55,424.14 411.90,424.10 412.25,424.07 412.60,423.79 412.95,423.75 413.30,423.81 413.65,423.79 414.00,423.81 414.35,423.65 414.70,423.78 415.05,423.65 415.40,423.34 415.75,423.37 416.10,423.15 416.45,423.30 416.80,423.19 417.15,423.18 417.50,422.91 417.85,423.15 418.20,422.93 418.55,423.01 418.90,422.55 419.25,422.37 419.60,422.27 419.95,421.75 420.30,421.32 420.65,421.11 421.00,421.55 421.35,421.57 421.70,420.88 422.05,421.11 422.40,421.36 422.75,420.84 423.10,420.09 423.45,420.75 423.80,421.10 424.15,420.82 424.50,420.36 424.85,419.81 425.20,420.00 425.55,420.07 425.90,419.48 426.25,419.19 426.60,418.70 426.95,418.70 427.30,418.77 427.65,418.45 428.00,417.70 428.35,417.56 428.70,416.14 429.05,415.36 429.40,414.95 429.75,415.17 430.10,414.04 430.45,412.63 430.80,412.24 431.15,411.38 431.50,410.92 431.85,411.04 432.20,410.63 432.55,407.93 432.90,407.76 433.25,408.76 433.60,407.48 433.95,406.70 434.30,406.58 434.65,406.15 435.00,405.69 435.35,404.27 435.70,402.90 436.05,403.77 436.40,401.96 436.75,400.88 437.10,399.38 437.45,400.12 437.80,398.64 438.15,397.17 438.50,397.67 438.85,397.51 439.20,396.31 439.55,394.90 439.90,395.60 440.25,394.87 440.60,394.45 440.95,393.38 441.30,391.23 441.65,390.96 442.00,393.03 442.35,393.84 442.70,393.30 443.05,393.50 443.40,395.10 443.75,395.70 444.10,394.43 444.45,395.56 444.80,393.69 445.15,392.37 445.50,393.54 445.85,392.34 446.20,391.06 446.55,390.15 446.90,390.65 447.25,388.92 447.60,389.03 447.95,389.44 448.30,390.97 448.65,390.34 449.00,388.74 449.35,392.38 449.70,388.66 450.05,385.87 450.40,386.93 450.75,388.05 451.10,387.98 451.45,385.95 451.80,387.68 452.15,386.18 452.50,386.63 452.85,383.52 453.20,384.14 453.55,385.54 453.90,383.71 454.25,384.73 454.60,386.81 454.95,384.42 455.30,384.79 455.65,383.42 456.00,381.52 456.35,380.27 456.70,381.51 457.05,380.70 457.40,383.82 457.75,382.09 458.10,384.25 458.45,382.90 458.80,382.83 459.15,381.37 459.50,381.14 459.85,381.46 460.20,382.38 460.55,385.01 460.90,381.18 461.25,381.40 461.60,380.13 461.95,380.26 462.30,379.49 462.65,377.13 463.00,376.24 463.35,379.54 463.70,380.94 464.05,378.40 464.40,379.89 464.75,380.24 465.10,383.50 465.45,387.59 465.80,386.93 466.15,385.81 466.50,387.73 466.85,387.46 467.20,386.57 467.55,388.06 467.90,392.09 468.25,389.21 468.60,389.01 468.95,389.30 469.30,386.61 469.65,386.24 470.00,383.54 470.35,383.77 470.70,382.77 471.05,384.20 471.40,389.19 471.75,388.88 472.10,384.84 472.45,383.07 472.80,387.27 473.15,390.59 473.50,392.37 473.85,394.83 474.20,396.48 474.55,396.88 474.90,393.81 475.25,395.31 475.60,394.28 475.95,394.60 476.30,389.45 476.65,389.57 477.00,386.31 477.35,386.56 477.70,385.36 478.05,383.09 478.40,386.15 478.75,385.31 479.10,382.87 479.45,383.57 479.80,383.52 480.15,384.01 480.50,382.84 480.85,385.08 481.20,384.39 481.55,384.79 481.90,381.69 482.25,383.32 482.60,383.47 482.95,385.26 483.30,385.52 483.65,388.96 484.00,389.73 484.35,390.59 484.70,390.75 485.05,389.14 485.40,385.85 485.75,386.55 486.10,384.34 486.45,384.39 486.80,384.81 487.15,384.04 487.50,385.20 487.85,381.72 488.20,381.89 488.55,381.85 488.90,379.70 489.25,377.57 489.60,379.86 489.95,381.72 490.30,380.55 490.65,380.50 491.00,380.20 491.35,383.24 491.70,385.27 492.05,387.66 492.40,388.22 492.75,390.30 493.10,393.22 493.45,392.15 493.80,389.88 494.15,388.05 494.50,390.60 494.85,393.17 495.20,392.42 495.55,393.51 495.90,398.00 496.25,399.67 496.60,397.05 496.95,398.00 497.30,396.96 497.65,398.34 498.00,399.37 498.35,396.88 498.70,395.29 499.05,395.71 499.40,396.14 499.75,395.08 500.10,395.88 500.45,394.49 500.80,396.61 501.15,397.38 501.50,396.37 501.85,397.85 502.20,397.89 502.55,398.72 502.90,399.48 503.25,400.24 503.60,402.01 503.95,403.70 504.30,403.98 504.65,406.72 505.00,409.83 505.35,409.29 505.70,407.42 506.05,405.26 506.40,404.77 506.75,405.32 507.10,407.23 507.45,408.74 507.80,408.51 508.15,408.28 508.50,410.24 508.85,410.29 509.20,411.54 509.55,411.38 509.90,413.31 510.25,412.68 510.60,414.86 510.95,415.73 511.30,417.11 511.65,417.72 512.00,417.24 512.35,418.09 512.70,418.74 513.05,418.91 513.40,418.14 513.75,420.30 514.10,419.48 514.45,418.04 514.80,417.77 515.15,415.95 515.50,416.25 515.85,416.79 516.20,417.72 516.55,418.09 516.90,419.58 517.25,418.24 517.60,417.81 517.95,417.64 518.30,417.70 518.65,417.60 519.00,417.97 519.35,418.72 519.70,417.84 520.05,416.01 520.40,415.86 520.75,415.65 521.10,415.01 521.45,414.79 521.80,414.91 522.15,415.23 522.50,414.43 522.85,413.77 523.20,414.22 523.55,415.25 523.90,415.33 524.25,415.15 524.60,415.57 524.95,414.94 525.30,414.10 525.65,414.63 526.00,414.06 526.35,413.25 526.70,413.44 527.05,414.65 527.40,414.16 527.75,414.42 528.10,414.84 528.45,415.23 528.80,414.94 529.15,414.13 529.50,414.75 529.85,414.61 530.20,413.76 530.55,414.04 530.90,414.17 531.25,414.06 531.60,413.46 531.95,413.94 532.30,414.10 532.65,413.30 533.00,414.12 533.35,413.50 533.70,412.98 534.05,413.59 534.40,412.46 534.75,412.69 535.10,412.93 535.45,413.25 535.80,413.20 536.15,413.75 536.50,413.42 536.85,412.46 537.20,411.98 537.55,412.80 537.90,412.84 538.25,412.68 538.60,413.70 538.95,414.66 539.30,415.59 539.65,416.20 540.00,416.06 540.35,416.07 540.70,415.66 541.05,414.38 541.40,413.92 541.75,414.05 542.10,414.12 542.45,413.47 542.80,413.26 543.15,413.86 543.50,413.96 543.85,414.63 544.20,414.28 544.55,414.57 544.90,414.20 545.25,413.08 545.60,413.64 545.95,414.31 546.30,413.30 546.65,412.99 547.00,412.39 547.35,411.85 547.70,412.16 548.05,412.18 548.40,412.50 548.75,412.57 549.10,412.73 549.45,412.64 549.80,413.03 550.15,413.12 550.50,412.16 550.85,412.15 551.20,412.06 551.55,411.43 551.90,411.68 552.25,411.13 552.60,411.83 552.95,411.93 553.30,413.31 553.65,413.27 554.00,413.30 554.35,414.46 554.70,414.41 555.05,414.69 555.40,415.09 555.75,415.52 556.10,415.64 556.45,415.75 556.80,415.63 557.15,414.35 557.50,413.70 557.85,413.59 558.20,413.94 558.55,414.11 558.90,414.11 559.25,413.72 559.60,413.41 559.95,413.79 560.30,413.43 560.65,413.24 561.00,413.08 561.35,413.03 561.70,413.13 562.05,413.12 562.40,412.73 562.75,413.13 563.10,413.01 563.45,413.12 563.80,413.44 564.15,413.90 564.50,413.58 564.85,413.05 565.20,413.14 565.55,413.03 565.90,413.28 566.25,413.68 566.60,414.23 566.95,414.59 567.30,415.08 567.65,414.52 568.00,414.84 568.35,414.28 568.70,414.37 569.05,413.93 569.40,413.97 569.75,414.27 570.10,413.56 570.45,414.04 570.80,414.82 571.15,414.41 571.50,414.56 571.85,414.84 572.20,415.52 572.55,415.38 572.90,415.20 573.25,415.43 573.60,415.58 573.95,415.87 574.30,416.03 574.65,416.21 575.00,416.35 575.35,416.18 575.70,416.36 576.05,416.41 576.40,416.57 576.75,416.52 577.10,416.36 577.45,416.33 577.80,416.19 578.15,416.26 578.50,416.07 578.85,416.00 579.20,415.69 579.55,415.61 579.90,415.55 580.25,415.53 580.60,415.41 580.95,415.62 581.30,415.74 581.65,415.69 582.00,415.59 582.35,415.72 582.70,415.67 583.05,415.69 583.40,415.59 583.75,415.54 584.10,415.50 584.45,415.43 584.80,415.35 585.15,415.23 585.50,415.25 585.85,415.24 586.20,415.12 586.55,415.19 586.90,415.07 587.25,414.98 587.60,414.87 587.95,414.80 588.30,414.92 588.65,414.78 589.00,414.92 589.35,414.97 589.70,415.24 590.05,415.47 590.40,415.21 590.75,415.27 591.10,415.15 591.45,415.04 591.80,415.44 592.15,415.73 592.50,416.13 592.85,416.13 593.20,416.26 593.55,416.66 593.90,416.49 594.25,416.13 594.60,415.70 594.95,415.44 595.30,415.99 595.65,416.33 596.00,416.18 596.35,416.03 596.70,416.37 597.05,416.56 597.40,416.52 597.75,416.45 598.10,416.26 598.45,416.24 598.80,416.11 599.15,416.02 599.50,416.00 599.85,416.43 600.20,416.79 600.55,417.06 600.90,417.13 601.25,417.24 601.60,417.24 601.95,417.19 602.30,417.14 602.65,416.85 603.00,416.95 603.35,416.72 603.70,416.84 604.05,417.03 604.40,417.07 604.75,417.11 605.10,417.13 605.45,417.06 605.80,417.01 606.15,416.94 606.50,416.92 606.85,416.89 607.20,416.84 607.55,416.80 607.90,416.76 608.25,416.73 608.60,416.62 608.95,416.55 609.30,416.51 609.65,416.58 610.00,416.51 610.35,416.41 610.70,416.11 611.05,416.14 611.40,416.06 611.75,416.13 612.10,415.96 612.45,415.99 612.80,415.60 613.15,415.45 613.50,414.86 613.85,414.95 614.20,415.12 614.55,414.10 614.90,414.65 615.25,414.50 615.60,414.90 615.95,414.86 616.30,415.52 616.65,415.60 617.00,415.35 617.35,415.56 617.70,414.40 618.05,415.00 618.40,415.68 618.75,415.87 619.10,416.26 619.45,416.19 619.80,416.11 620.15,416.93 620.50,416.36 620.85,416.32 621.20,415.90 621.55,416.01 621.90,415.52 622.25,414.35 622.60,414.32 622.95,414.66 623.30,413.94 623.65,413.68 624.00,413.86 624.35,413.32 624.70,414.23 625.05,414.90 625.40,415.11 625.75,414.59 626.10,413.56 626.45,413.83 626.80,413.57 627.15,414.47 627.50,413.70 627.85,413.34 628.20,412.37 628.55,412.36 628.90,412.12 629.25,409.26 629.60,408.88 629.95,407.49 630.30,407.99 630.65,408.86 631.00,409.00 631.35,407.33 631.70,407.54 632.05,407.90 632.40,406.18 632.75,405.44 633.10,405.95 633.45,406.91 633.80,406.44 634.15,404.29 634.50,404.18 634.85,402.13 635.20,399.89 635.55,399.65 635.90,398.97 636.25,398.84 636.60,398.96 636.95,398.47 637.30,397.32 637.65,397.67 638.00,396.87 638.35,397.51 638.70,398.87 639.05,399.29 639.40,398.99 639.75,397.29 640.10,399.46 640.45,398.78 640.80,398.71 641.15,396.67 641.50,394.21 641.85,395.29 642.20,394.16 642.55,395.07 642.90,394.56 643.25,393.56 643.60,394.19 643.95,393.94 644.30,390.82 644.65,388.23 645.00,386.78 645.35,384.76 645.70,386.82 646.05,384.01 646.40,381.32 646.75,381.11 647.10,379.57 647.45,379.08 647.80,380.18 648.15,379.07 648.50,374.76 648.85,377.70 649.20,377.45 649.55,377.47 649.90,374.85 650.25,374.01 650.60,373.25 650.95,370.11 651.30,369.18 651.65,369.16 652.00,369.65 652.35,369.20 652.70,366.53 653.05,367.45 653.40,367.55 653.75,366.40 654.10,365.01 654.45,368.17 654.80,365.28 655.15,362.12 655.50,361.31 655.85,360.53 656.20,362.32 656.55,363.36 656.90,364.01 657.25,361.68 657.60,359.71 657.95,359.43 658.30,356.95 658.65,359.84 659.00,358.09 659.35,356.62 659.70,359.15 660.05,357.99 660.40,361.74 660.75,360.27 661.10,359.93 661.45,363.05 661.80,360.24 662.15,360.47 662.50,356.81 662.85,353.00 663.20,350.22 663.55,347.26 663.90,348.65 664.25,345.99 664.60,348.35 664.95,345.16 665.30,345.21 665.65,345.85 666.00,344.71 666.35,342.30 666.70,340.67 667.05,342.07 667.40,339.63 667.75,342.26 668.10,343.16 668.45,339.88 668.80,339.31 669.15,339.17 669.50,340.57 669.85,341.38 670.20,339.33 670.55,338.86 670.90,339.04 671.25,337.36 671.60,338.81 671.95,335.02 672.30,333.73 672.65,337.47 673.00,338.17 673.35,336.98 673.70,336.36 674.05,337.14 674.40,339.77 674.75,338.36 675.10,341.24 675.45,341.99 675.80,341.24 676.15,337.08 676.50,335.68 676.85,338.55 677.20,339.14 677.55,336.78 677.90,336.32 678.25,339.54 678.60,338.21 678.95,335.55 679.30,333.28 679.65,333.42 680.00,329.22 680.35,326.40 680.70,325.34 681.05,325.06 681.40,325.82 681.75,329.44 682.10,322.09 682.45,322.52 682.80,320.74 683.15,317.37 683.50,311.62 683.85,307.09 684.20,311.26 684.55,311.68 684.90,311.39 685.25,314.84 685.60,314.24 685.95,312.98 686.30,311.59 686.65,315.87 687.00,317.02 687.35,314.48 687.70,314.94 688.05,311.27 688.40,311.15 688.75,314.38 689.10,312.34 689.45,308.81 689.80,311.73 690.15,313.44 690.50,315.05 690.85,315.46 691.20,317.85 691.55,322.61 691.90,324.40 692.25,331.76 692.60,332.32 692.95,335.22 693.30,331.01 693.65,330.75 694.00,331.91 694.35,327.20 694.70,325.03 695.05,320.53 695.40,323.43 695.75,325.97 696.10,322.67 696.45,321.40 696.80,322.96 697.15,324.04 697.50,323.89 697.85,319.58 698.20,319.38 698.55,320.70 698.90,319.00 699.25,318.73 699.60,324.41 699.95,327.45 700.30,329.44 700.65,319.16 701.00,321.77 701.35,319.53 701.70,320.08 702.05,317.06 702.40,318.18 702.75,308.97 703.10,305.16 703.45,306.20 703.80,308.43 704.15,305.17 704.50,305.54 704.85,303.28 705.20,306.06 705.55,307.02 705.90,309.98 706.25,310.53 706.60,311.36 706.95,317.95 707.30,318.25 707.65,319.55 708.00,318.59 708.35,314.79 708.70,316.18 709.05,315.53 709.40,315.61 709.75,317.74 710.10,317.61 710.45,313.10 710.80,315.61 711.15,311.27 711.50,311.75 711.85,313.01 712.20,312.17 712.55,311.22 712.90,316.02 713.25,316.25 713.60,319.19 713.95,314.15 714.30,310.28 714.65,317.30 715.00,311.89 715.35,308.47 715.70,307.66 716.05,311.29 716.40,313.35 716.75,309.59 717.10,309.05 717.45,313.97 717.80,313.95 718.15,312.73 718.50,300.97 718.85,305.58 719.20,305.91 719.55,306.43 719.90,304.32 720.25,306.51 720.60,309.01 720.95,310.10 721.30,309.74 721.65,309.07 722.00,314.46 722.35,312.29 722.70,312.49 723.05,310.61 723.40,311.44 723.75,306.00 724.10,302.62 724.45,307.15 724.80,305.06 725.15,304.95 725.50,305.06 725.85,302.77 726.20,308.59 726.55,305.95 726.90,300.66 727.25,301.14 727.60,301.27 727.95,296.06 728.30,298.16 728.65,296.83 729.00,301.32 729.35,302.36 729.70,298.80 730.05,295.14 730.40,296.35 730.75,293.94 731.10,295.98 731.45,291.93 731.80,291.10 732.15,288.93 732.50,290.02 732.85,293.50 733.20,297.40 733.55,301.27 733.90,289.63 734.25,285.44 734.60,281.31 734.95,286.50 735.30,286.98 735.65,289.46 736.00,285.48 736.35,291.18 736.70,288.24 737.05,282.92 737.40,285.30 737.75,291.26 738.10,287.08 738.45,284.43 738.80,283.91 739.15,286.15 739.50,284.15 739.85,285.53 740.20,290.13 740.55,288.95 740.90,290.02 741.25,292.42 741.60,290.30 741.95,294.01 742.30,291.81 742.65,302.03 743.00,305.83 743.35,306.41 743.70,311.48 744.05,323.62 744.40,328.27 744.75,318.31 745.10,316.34 745.45,313.31 745.80,308.21 746.15,304.97 746.50,292.74 746.85,291.32 747.20,293.33 747.55,299.16 747.90,298.99 748.25,298.31 748.60,290.78 748.95,282.94 749.30,282.91 749.65,282.87 750.00,275.74 750.35,274.72 750.70,276.67 751.05,284.84 751.40,283.12 751.75,281.39 752.10,272.59 752.45,275.19 752.80,276.04 753.15,282.25 753.50,284.90 753.85,290.37 754.20,285.79 754.55,291.40 754.90,297.43 755.25,301.74 755.60,306.42 755.95,309.11 756.30,307.50 756.65,307.73 757.00,301.62 757.35,303.12 757.70,306.22 758.05,304.16 758.40,297.16 758.75,290.34 759.10,279.87 759.45,283.57 759.80,288.82 760.15,290.58 760.50,294.57 760.85,295.64 761.20,287.69 761.55,286.68 761.90,281.19 762.25,279.35 762.60,277.68 762.95,285.40 763.30,286.75 763.65,290.58 764.00,297.64 764.35,296.31 764.70,291.03 765.05,289.43 765.40,289.41 765.75,286.21 766.10,279.32 766.45,278.69 766.80,279.39 767.15,275.27 767.50,277.21 767.85,277.02 768.20,280.32 768.55,283.96 768.90,285.93 769.25,287.09 769.60,290.71 769.95,291.00 770.30,294.80 770.65,295.98 771.00,298.95 771.35,290.59 771.70,298.42 772.05,297.78 772.40,291.37 772.75,299.35 773.10,305.18 773.45,297.15 773.80,299.97 774.15,298.42 774.50,299.81 774.85,300.48 775.20,293.02 775.55,295.09 775.90,289.77 776.25,285.69 776.60,280.86 776.95,277.43 777.30,279.15 777.65,269.53 778.00,272.96 778.35,272.47 778.70,282.84 779.05,289.13 779.40,290.85 779.75,286.44 780.10,296.82 780.45,287.49 780.80,282.70 781.15,284.01 781.50,291.86 781.85,289.29 782.20,282.21 782.55,286.38 782.90,287.23 783.25,288.71 783.60,291.42 783.95,285.19 784.30,292.40 784.65,291.05 785.00,295.44"/>
<line x1="813" y1="102" x2="839" y2="102" stroke="#059669" stroke-width="3"/>
<text x="847" y="106" font-family="Arial" font-size="13" fill="#111827">trending</text>
<text x="435.0" y="518" text-anchor="middle" font-family="Arial" font-size="14" fill="#111827">Event index</text>
<text x="22" y="256.0" text-anchor="middle" transform="rotate(-90 22 256.0)" font-family="Arial" font-size="14" fill="#111827">Net PnL after fees</text>
</svg>
