<svg xmlns="http://www.w3.org/2000/svg" width="940" height="540" viewBox="0 0 940 540">
<rect width="100%" height="100%" fill="#ffffff"/>
<text x="470.0" y="26" text-anchor="middle" font-family="Arial" font-size="18" fill="#111827">Calibrated Avellaneda Stoikov Inventory By Regime</text>
<line x1="85" y1="470" x2="785" y2="470" stroke="#111827" stroke-width="1"/>
<line x1="85" y1="42" x2="85" y2="470" stroke="#111827" stroke-width="1"/>
<line x1="85.00" y1="42" x2="85.00" y2="470" stroke="#e5e7eb" stroke-width="1"/>
<text x="85.00" y="494" text-anchor="middle" font-family="Arial" font-size="12" fill="#374151">0</text>
<line x1="260.00" y1="42" x2="260.00" y2="470" stroke="#e5e7eb" stroke-width="1"/>
<text x="260.00" y="494" text-anchor="middle" font-family="Arial" font-size="12" fill="#374151">50000</text>
<line x1="435.00" y1="42" x2="435.00" y2="470" stroke="#e5e7eb" stroke-width="1"/>
<text x="435.00" y="494" text-anchor="middle" font-family="Arial" font-size="12" fill="#374151">100000</text>
<line x1="610.00" y1="42" x2="610.00" y2="470" stroke="#e5e7eb" stroke-width="1"/>
<text x="610.00" y="494" text-anchor="middle" font-family="Arial" font-size="12" fill="#374151">149999</text>
<line x1="785.00" y1="42" x2="785.00" y2="470" stroke="#e5e7eb" stroke-width="1"/>
<text x="785.00" y="494" text-anchor="middle" font-family="Arial" font-size="12" fill="#374151">199999</text>
<line x1="85" y1="470.00" x2="785" y2="470.00" stroke="#e5e7eb" stroke-width="1"/>
<text x="73" y="474.00" text-anchor="end" font-family="Arial" font-size="12" fill="#374151">-21494</text>
<line x1="85" y1="363.00" x2="785" y2="363.00" stroke="#e5e7eb" stroke-width="1"/>
<text x="73" y="367.00" text-anchor="end" font-family="Arial" font-size="12" fill="#374151">593</text>
<line x1="85" y1="256.00" x2="785" y2="256.00" stroke="#e5e7eb" stroke-width="1"/>
<text x="73" y="260.00" text-anchor="end" font-family="Arial" font-size="12" fill="#374151">22681</text>
<line x1="85" y1="149.00" x2="785" y2="149.00" stroke="#e5e7eb" stroke-width="1"/>
<text x="73" y="153.00" text-anchor="end" font-family="Arial" font-size="12" fill="#374151">44769</text>
<line x1="85" y1="42.00" x2="785" y2="42.00" stroke="#e5e7eb" stroke-width="1"/>
<text x="73" y="46.00" text-anchor="end" font-family="Arial" font-size="12" fill="#374151">66856</text>
<polyline fill="none" stroke="#2563eb" stroke-width="2" points="85.00,365.87 85.35,365.91 85.70,365.81 86.05,365.90 86.40,366.07 86.75,365.94 87.10,365.87 87.45,365.89 87.80,365.80 88.15,365.91 88.50,365.88 88.85,365.98 89.20,366.18 89.55,366.28 89.90,366.33 90.25,366.18 90.60,366.21 90.95,366.49 91.30,366.53 91.65,366.78 92.00,366.73 92.35,366.87 92.70,367.02 93.05,366.92 93.40,366.98 93.75,367.03 94.10,367.09 94.45,367.24 94.80,367.22 95.15,367.13 95.50,367.02 95.85,367.09 96.20,366.89 96.55,366.94 96.90,367.06 97.25,367.21 97.60,367.22 97.95,367.36 98.30,367.40 98.65,367.31 99.00,367.16 99.35,367.16 99.70,367.19 100.05,367.24 100.40,367.30 100.75,367.20 101.10,367.36 101.45,367.21 101.80,367.20 102.15,367.10 102.50,367.16 102.85,367.30 103.20,367.43 103.55,367.48 103.90,367.45 104.25,367.50 104.60,367.52 104.95,367.49 105.30,367.49 105.65,367.59 106.00,367.65 106.35,367.59 106.70,367.46 107.05,367.51 107.40,367.46 107.75,367.47 108.10,367.37 108.45,367.52 108.80,367.50 109.15,367.60 109.50,367.45 109.85,367.11 110.20,367.16 110.55,367.31 110.90,367.36 111.25,367.54 111.60,367.49 111.95,367.44 112.30,367.52 112.65,367.42 113.00,367.57 113.35,367.52 113.70,367.66 114.05,367.61 114.40,367.68 114.75,367.74 115.10,367.70 115.45,367.65 115.80,367.56 116.15,367.56 116.50,367.80 116.85,367.70 117.20,367.62 117.55,367.60 117.90,367.46 118.25,367.41 118.60,367.37 118.95,367.43 119.30,367.14 119.65,366.80 120.00,366.75 120.35,366.51 120.70,366.22 121.05,366.03 121.40,365.99 121.75,365.99 122.10,365.79 122.45,365.81 122.80,365.79 123.15,365.79 123.50,365.79 123.85,365.82 124.20,365.92 124.55,365.89 124.90,365.89 125.25,365.84 125.60,365.65 125.95,365.50 126.30,365.57 126.65,365.67 127.00,365.71 127.35,365.76 127.70,365.95 128.05,365.73 128.40,365.88 128.75,365.83 129.10,365.81 129.45,365.62 129.80,365.70 130.15,365.71 130.50,365.77 130.85,365.82 131.20,365.82 131.55,365.67 131.90,365.55 132.25,365.40 132.60,365.31 132.95,365.26 133.30,365.19 133.65,365.23 134.00,365.19 134.35,364.99 134.70,365.11 135.05,365.16 135.40,365.16 135.75,365.33 136.10,365.25 136.45,365.34 136.80,365.29 137.15,365.15 137.50,365.15 137.85,365.16 138.20,365.16 138.55,365.27 138.90,365.18 139.25,365.15 139.60,365.15 139.95,365.04 140.30,364.95 140.65,364.94 141.00,364.75 141.35,364.70 141.70,364.68 142.05,364.61 142.40,364.53 142.75,364.37 143.10,364.37 143.45,364.27 143.80,364.24 144.15,364.30 144.50,364.34 144.85,364.46 145.20,364.46 145.55,364.41 145.90,364.32 146.25,364.12 146.60,364.02 146.95,363.63 147.30,363.49 147.65,363.38 148.00,363.33 148.35,363.52 148.70,363.59 149.05,363.65 149.40,363.59 149.75,363.59 150.10,363.84 150.45,363.93 150.80,363.92 151.15,364.01 151.50,364.26 151.85,364.16 152.20,363.87 152.55,363.63 152.90,363.34 153.25,363.15 153.60,363.10 153.95,363.16 154.30,363.30 154.65,362.91 155.00,362.60 155.35,362.40 155.70,362.45 156.05,362.26 156.40,362.30 156.75,362.35 157.10,362.35 157.45,362.22 157.80,362.24 158.15,362.38 158.50,362.29 158.85,362.33 159.20,362.38 159.55,362.33 159.90,362.38 160.25,362.47 160.60,362.41 160.95,362.51 161.30,362.60 161.65,362.50 162.00,362.50 162.35,362.53 162.70,362.52 163.05,362.57 163.40,362.38 163.75,362.41 164.10,362.57 164.45,362.33 164.80,362.09 165.15,361.95 165.50,362.00 165.85,362.18 166.20,362.18 166.55,362.23 166.90,362.06 167.25,362.06 167.60,361.79 167.95,361.75 168.30,361.68 168.65,361.82 169.00,361.95 169.35,362.14 169.70,362.17 170.05,362.17 170.40,362.09 170.75,361.99 171.10,361.99 171.45,362.18 171.80,362.18 172.15,362.18 172.50,362.18 172.85,362.47 173.20,362.42 173.55,362.32 173.90,362.42 174.25,362.28 174.60,362.36 174.95,362.36 175.30,362.45 175.65,362.45 176.00,362.68 176.35,362.60 176.70,362.72 177.05,362.71 177.40,362.71 177.75,362.76 178.10,362.57 178.45,362.45 178.80,362.56 179.15,362.51 179.50,362.55 179.85,362.59 180.20,362.64 180.55,362.57 180.90,362.81 181.25,362.81 181.60,362.91 181.95,362.96 182.30,363.01 182.65,362.89 183.00,362.91 183.35,363.01 183.70,363.21 184.05,362.91 184.40,362.53 184.75,362.14 185.10,361.85 185.45,361.53 185.80,361.26 186.15,360.95 186.50,360.58 186.85,360.17 187.20,359.95 187.55,359.96 187.90,359.96 188.25,359.72 188.60,359.54 188.95,359.17 189.30,358.81 189.65,358.38 190.00,357.93 190.35,357.50 190.70,357.04 191.05,356.75 191.40,356.46 191.75,356.36 192.10,356.12 192.45,355.88 192.80,355.59 193.15,355.30 193.50,354.93 193.85,354.64 194.20,354.27 194.55,354.03 194.90,353.68 195.25,353.32 195.60,352.88 195.95,352.49 196.30,352.16 196.65,351.77 197.00,351.38 197.35,351.14 197.70,350.94 198.05,350.65 198.40,350.22 198.75,349.79 199.10,349.48 199.45,349.19 199.80,348.93 200.15,348.55 200.50,348.16 200.85,347.88 201.20,347.62 201.55,347.18 201.90,347.04 202.25,346.64 202.60,346.31 202.95,345.92 203.30,345.58 203.65,345.15 204.00,344.90 204.35,344.66 204.70,344.47 205.05,344.15 205.40,343.91 205.75,343.48 206.10,343.15 206.45,342.71 206.80,342.37 207.15,341.96 207.50,341.57 207.85,341.34 208.20,341.00 208.55,340.66 208.90,340.27 209.25,340.01 209.60,339.72 209.95,339.33 210.30,338.90 210.65,338.56 211.00,338.22 211.35,338.02 211.70,337.59 212.05,337.36 212.40,336.97 212.75,337.16 213.10,337.32 213.45,337.41 213.80,337.37 214.15,337.33 214.50,337.52 214.85,337.67 215.20,337.57 215.55,337.56 215.90,337.51 216.25,337.46 216.60,337.61 216.95,337.66 217.30,337.71 217.65,337.70 218.00,337.99 218.35,338.03 218.70,337.94 219.05,337.97 219.40,337.89 219.75,337.87 220.10,338.01 220.45,338.21 220.80,338.65 221.15,338.60 221.50,338.57 221.85,338.60 222.20,338.60 222.55,338.60 222.90,338.64 223.25,338.48 223.60,338.37 223.95,338.33 224.30,338.24 224.65,338.22 225.00,338.32 225.35,338.35 225.70,338.36 226.05,338.30 226.40,338.30 226.75,338.22 227.10,338.31 227.45,338.17 227.80,338.07 228.15,338.12 228.50,337.88 228.85,337.88 229.20,337.93 229.55,338.08 229.90,338.04 230.25,338.27 230.60,338.09 230.95,337.99 231.30,338.14 231.65,338.23 232.00,338.14 232.35,337.95 232.70,337.99 233.05,338.27 233.40,338.22 233.75,338.28 234.10,338.39 234.45,338.25 234.80,338.21 235.15,338.31 235.50,338.12 235.85,338.07 236.20,338.07 236.55,338.17 236.90,338.27 237.25,338.20 237.60,338.10 237.95,338.21 238.30,338.16 238.65,337.99 239.00,338.04 239.35,338.05 239.70,338.00 240.05,338.04 240.40,338.00 240.75,337.83 241.10,337.92 241.45,337.84 241.80,337.85 242.15,337.94 242.50,337.89 242.85,337.89 243.20,337.89 243.55,337.79 243.90,337.65 244.25,337.37 244.60,337.18 244.95,337.23 245.30,337.27 245.65,337.08 246.00,336.98 246.35,336.91 246.70,336.79 247.05,336.93 247.40,336.84 247.75,336.74 248.10,336.64 248.45,336.64 248.80,336.33 249.15,336.11 249.50,336.21 249.85,336.22 250.20,336.46 250.55,336.30 250.90,336.30 251.25,336.35 251.60,336.38 251.95,336.25 252.30,336.24 252.65,336.24 253.00,336.19 253.35,336.36 253.70,336.35 254.05,336.40 254.40,336.45 254.75,336.45 255.10,336.45 255.45,336.31 255.80,336.37 256.15,336.37 256.50,336.18 256.85,336.10 257.20,335.90 257.55,335.90 257.90,335.90 258.25,336.07 258.60,336.07 258.95,335.98 259.30,336.09 259.65,336.33 260.00,336.24 260.35,336.12 260.70,336.04 261.05,335.73 261.40,335.66 261.75,335.58 262.10,335.41 262.45,335.03 262.80,334.69 263.15,334.30 263.50,334.06 263.85,333.80 264.20,333.53 264.55,333.12 264.90,332.68 265.25,332.34 265.60,331.92 265.95,331.53 266.30,331.09 266.65,330.85 267.00,330.41 267.35,330.12 267.70,329.75 268.05,329.27 268.40,328.93 268.75,328.50 269.10,328.21 269.45,328.01 269.80,327.76 270.15,327.38 270.50,327.04 270.85,326.60 271.20,326.31 271.55,326.02 271.90,325.80 272.25,325.37 272.60,324.94 272.95,324.50 273.30,324.26 273.65,323.97 274.00,323.58 274.35,323.10 274.70,322.81 275.05,322.45 275.40,322.06 275.75,321.77 276.10,321.42 276.45,321.03 276.80,320.74 277.15,320.45 277.50,320.06 277.85,319.87 278.20,319.60 278.55,319.36 278.90,319.07 279.25,318.68 279.60,318.40 279.95,318.07 280.30,317.68 280.65,317.39 281.00,317.13 281.35,316.79 281.70,316.51 282.05,316.09 282.40,315.80 282.75,315.42 283.10,315.09 283.45,314.83 283.80,314.46 284.15,314.15 284.50,313.91 284.85,313.53 285.20,313.09 285.55,312.85 285.90,312.56 286.25,312.22 286.60,311.93 286.95,311.54 287.30,311.27 287.65,310.88 288.00,310.64 288.35,310.78 288.70,310.90 289.05,310.90 289.40,310.90 289.75,311.04 290.10,311.02 290.45,310.90 290.80,310.61 291.15,310.51 291.50,310.42 291.85,310.41 292.20,310.51 292.55,310.56 292.90,310.56 293.25,310.62 293.60,310.68 293.95,310.84 294.30,310.99 294.65,310.99 295.00,310.94 295.35,311.01 295.70,310.98 296.05,310.91 296.40,310.91 296.75,310.77 297.10,310.79 297.45,310.89 297.80,311.18 298.15,311.28 298.50,311.26 298.85,311.21 299.20,311.16 299.55,311.26 299.90,311.23 300.25,311.22 300.60,311.26 300.95,311.31 301.30,311.60 301.65,311.84 302.00,311.89 302.35,311.89 302.70,311.94 303.05,311.94 303.40,312.00 303.75,312.01 304.10,312.06 304.45,312.00 304.80,312.05 305.15,311.95 305.50,312.05 305.85,312.15 306.20,312.29 306.55,312.34 306.90,312.39 307.25,312.44 307.60,312.25 307.95,312.20 308.30,312.15 308.65,312.22 309.00,312.22 309.35,312.07 309.70,312.26 310.05,312.09 310.40,311.90 310.75,311.78 311.10,311.88 311.45,311.64 311.80,311.54 312.15,311.55 312.50,311.64 312.85,311.64 313.20,311.62 313.55,311.48 313.90,311.48 314.25,311.45 314.60,311.47 314.95,311.37 315.30,311.27 315.65,311.13 316.00,311.25 316.35,311.33 316.70,311.42 317.05,311.61 317.40,312.00 317.75,312.39 318.10,312.70 318.45,313.04 318.80,313.38 319.15,313.72 319.50,313.64 319.85,313.64 320.20,313.59 320.55,313.89 320.90,314.22 321.25,314.54 321.60,314.93 321.95,315.22 322.30,315.46 322.65,315.85 323.00,316.14 323.35,316.43 323.70,316.78 324.05,316.97 324.40,317.16 324.75,317.60 325.10,317.98 325.45,318.32 325.80,318.76 326.15,319.05 326.50,319.34 326.85,319.66 327.20,319.88 327.55,320.08 327.90,320.45 328.25,320.77 328.60,321.24 328.95,321.53 329.30,321.87 329.65,322.26 330.00,322.50 330.35,322.69 330.70,322.54 331.05,322.54 331.40,322.59 331.75,322.64 332.10,322.45 332.45,322.49 332.80,322.45 333.15,322.33 333.50,322.43 333.85,322.38 334.20,322.31 334.55,322.31 334.90,322.29 335.25,322.39 335.60,322.10 335.95,321.76 336.30,321.37 336.65,321.08 337.00,320.74 337.35,320.30 337.70,319.92 338.05,319.53 338.40,319.22 338.75,318.79 339.10,318.40 339.45,318.16 339.80,318.16 340.15,317.96 340.50,317.96 340.85,317.72 341.20,317.77 341.55,317.63 341.90,317.76 342.25,317.81 342.60,317.90 342.95,318.05 343.30,317.95 343.65,317.90 344.00,317.98 344.35,317.94 344.70,317.98 345.05,317.85 345.40,317.77 345.75,317.72 346.10,317.63 346.45,317.69 346.80,317.61 347.15,317.40 347.50,317.06 347.85,316.87 348.20,316.38 348.55,316.05 348.90,315.71 349.25,315.51 349.60,315.17 349.95,315.03 350.30,314.81 350.65,314.51 351.00,314.23 351.35,313.89 351.70,313.50 352.05,313.26 352.40,312.92 352.75,312.53 353.10,312.05 353.45,311.76 353.80,311.42 354.15,310.98 354.50,310.69 354.85,310.35 355.20,310.11 355.55,309.82 355.90,309.58 356.25,309.29 356.60,308.90 356.95,308.51 357.30,308.22 357.65,307.83 358.00,307.57 358.35,307.13 358.70,306.79 359.05,306.50 359.40,306.11 359.75,305.78 360.10,305.44 360.45,305.01 360.80,304.67 361.15,304.44 361.50,303.95 361.85,303.62 362.20,303.28 362.55,302.92 362.90,302.63 363.25,302.24 363.60,301.84 363.95,301.45 364.30,301.15 364.65,300.73 365.00,300.49 365.35,300.11 365.70,299.74 366.05,299.37 366.40,298.93 366.75,298.60 367.10,298.21 367.45,297.72 367.80,297.43 368.15,297.00 368.50,296.63 368.85,296.19 369.20,295.95 369.55,295.53 369.90,295.14 370.25,294.80 370.60,294.55 370.95,294.21 371.30,293.97 371.65,293.63 372.00,293.28 372.35,293.14 372.70,292.74 373.05,292.45 373.40,292.11 373.75,291.89 374.10,291.50 374.45,291.26 374.80,290.87 375.15,290.68 375.50,290.29 375.85,289.85 376.20,289.57 376.55,289.13 376.90,288.89 377.25,288.57 377.60,288.19 377.95,287.93 378.30,287.62 378.65,287.21 379.00,287.02 379.35,286.73 379.70,286.39 380.05,286.05 380.40,285.85 380.75,285.54 381.10,285.25 381.45,284.81 381.80,284.48 382.15,284.18 382.50,283.75 382.85,283.37 383.20,283.00 383.55,282.61 383.90,282.37 384.25,281.93 384.60,281.40 384.95,281.06 385.30,280.65 385.65,280.22 386.00,279.88 386.35,279.59 386.70,279.32 387.05,279.03 387.40,278.60 387.75,278.24 388.10,277.85 388.45,277.66 388.80,277.33 389.15,276.90 389.50,276.52 389.85,276.14 390.20,275.85 390.55,275.36 390.90,275.02 391.25,274.74 391.60,274.40 391.95,274.11 392.30,273.87 392.65,273.38 393.00,273.09 393.35,272.68 393.70,272.35 394.05,272.04 394.40,271.71 394.75,271.35 395.10,271.01 395.45,270.72 395.80,270.19 396.15,270.00 396.50,269.65 396.85,269.26 397.20,268.92 397.55,268.53 397.90,268.24 398.25,268.03 398.60,267.65 398.95,267.26 399.30,267.02 399.65,266.68 400.00,266.40 400.35,265.99 400.70,265.55 401.05,265.23 401.40,264.94 401.75,264.71 402.10,264.37 402.45,264.13 402.80,263.89 403.15,263.60 403.50,263.21 403.85,262.92 404.20,262.54 404.55,262.16 404.90,261.79 405.25,261.30 405.60,260.96 405.95,260.62 406.30,260.19 406.65,259.89 407.00,259.36 407.35,259.07 407.70,258.83 408.05,258.50 408.40,258.07 408.75,257.83 409.10,257.49 409.45,257.10 409.80,256.81 410.15,256.42 410.50,256.21 410.85,255.87 411.20,255.63 411.55,255.29 411.90,254.91 412.25,254.63 412.60,254.31 412.95,253.88 413.30,253.49 413.65,253.02 414.00,252.68 414.35,252.25 414.70,251.95 415.05,251.58 415.40,251.34 415.75,251.02 416.10,250.69 416.45,250.41 416.80,250.04 417.15,249.70 417.50,249.46 417.85,249.21 418.20,248.92 418.55,248.60 418.90,248.17 419.25,247.87 419.60,247.36 419.95,247.02 420.30,246.64 420.65,246.31 421.00,245.93 421.35,245.55 421.70,245.21 422.05,244.82 422.40,244.38 422.75,244.00 423.10,243.61 423.45,243.27 423.80,243.03 424.15,242.59 424.50,242.23 424.85,241.84 425.20,241.53 425.55,241.17 425.90,241.00 426.25,240.54 426.60,240.20 426.95,239.84 427.30,239.55 427.65,239.31 428.00,238.97 428.35,238.53 428.70,238.15 429.05,237.88 429.40,237.49 429.75,237.15 430.10,236.91 430.45,236.47 430.80,236.13 431.15,235.84 431.50,235.50 431.85,235.11 432.20,234.82 432.55,234.48 432.90,234.19 433.25,233.75 433.60,233.42 433.95,233.17 434.30,232.74 434.65,232.25 435.00,231.96 435.35,231.79 435.70,231.39 436.05,231.00 436.40,230.66 436.75,230.27 437.10,230.02 437.45,229.73 437.80,229.30 438.15,229.01 438.50,228.77 438.85,228.37 439.20,228.03 439.55,227.62 439.90,227.33 440.25,226.99 440.60,226.64 440.95,226.40 441.30,226.20 441.65,225.77 442.00,225.62 442.35,225.28 442.70,224.94 443.05,224.52 443.40,224.18 443.75,223.78 444.10,223.35 444.45,223.01 444.80,222.68 445.15,222.39 445.50,222.11 445.85,221.82 446.20,221.39 446.55,221.00 446.90,220.61 447.25,220.21 447.60,219.95 447.95,219.51 448.30,219.16 448.65,218.77 449.00,218.32 449.35,218.07 449.70,217.59 450.05,217.19 450.40,216.89 450.75,216.50 451.10,216.07 451.45,215.63 451.80,215.15 452.15,214.76 452.50,214.37 452.85,213.98 453.20,213.57 453.55,213.23 453.90,212.83 454.25,212.54 454.60,212.15 454.95,211.86 455.30,211.47 455.65,211.18 456.00,210.84 456.35,210.47 456.70,210.23 457.05,209.79 457.40,209.40 457.75,209.05 458.10,208.66 458.45,208.25 458.80,207.82 459.15,207.44 459.50,207.19 459.85,207.24 460.20,207.41 460.55,207.41 460.90,207.41 461.25,207.45 461.60,207.43 461.95,207.52 462.30,207.39 462.65,207.48 463.00,207.53 463.35,207.53 463.70,207.43 464.05,207.43 464.40,207.38 464.75,207.37 465.10,207.27 465.45,207.13 465.80,207.08 466.15,206.93 466.50,206.95 466.85,207.05 467.20,207.00 467.55,207.08 467.90,206.79 468.25,206.82 468.60,206.96 468.95,207.11 469.30,207.15 469.65,207.11 470.00,207.01 470.35,206.98 470.70,206.93 471.05,206.88 471.40,207.01 471.75,207.15 472.10,207.07 472.45,206.88 472.80,207.04 473.15,206.98 473.50,206.93 473.85,206.81 474.20,206.86 474.55,206.97 474.90,207.06 475.25,207.21 475.60,207.19 475.95,207.14 476.30,207.39 476.65,207.63 477.00,207.64 477.35,207.54 477.70,207.54 478.05,207.59 478.40,207.51 478.75,207.49 479.10,207.59 479.45,207.73 479.80,207.66 480.15,207.59 480.50,207.54 480.85,207.60 481.20,207.68 481.55,207.76 481.90,207.87 482.25,207.77 482.60,207.64 482.95,207.23 483.30,206.84 483.65,206.46 484.00,206.25 484.35,205.81 484.70,205.58 485.05,205.15 485.40,204.76 485.75,204.52 486.10,204.57 486.45,204.23 486.80,203.92 487.15,203.58 487.50,203.19 487.85,202.90 488.20,202.47 488.55,202.18 488.90,201.80 489.25,201.51 489.60,201.17 489.95,200.88 490.30,200.49 490.65,200.25 491.00,199.86 491.35,199.52 491.70,199.13 492.05,198.74 492.40,198.36 492.75,198.02 493.10,197.78 493.45,197.44 493.80,197.05 494.15,196.66 494.50,196.32 494.85,196.03 495.20,195.73 495.55,195.39 495.90,195.15 496.25,194.84 496.60,194.50 496.95,194.26 497.30,193.92 497.65,193.63 498.00,193.24 498.35,192.85 498.70,192.56 499.05,192.35 499.40,191.91 499.75,191.59 500.10,191.20 500.45,190.86 500.80,190.52 501.15,190.19 501.50,189.83 501.85,189.58 502.20,189.24 502.55,188.85 502.90,188.66 503.25,188.42 503.60,188.27 503.95,187.88 504.30,187.61 504.65,187.14 505.00,186.80 505.35,186.48 505.70,186.10 506.05,185.72 506.40,185.48 506.75,185.02 507.10,184.72 507.45,184.34 507.80,183.87 508.15,183.63 508.50,183.24 508.85,182.86 509.20,182.53 509.55,182.07 509.90,181.73 510.25,181.39 510.60,181.10 510.95,180.72 511.30,180.43 511.65,180.05 512.00,179.75 512.35,179.42 512.70,179.05 513.05,178.71 513.40,178.37 513.75,178.13 514.10,177.89 514.45,177.65 514.80,177.31 515.15,177.21 515.50,176.78 515.85,176.44 516.20,175.95 516.55,175.47 516.90,175.16 517.25,174.87 517.60,174.53 517.95,174.14 518.30,173.70 518.65,173.41 519.00,173.12 519.35,172.74 519.70,172.36 520.05,172.07 520.40,171.78 520.75,171.52 521.10,171.14 521.45,170.79 521.80,170.41 522.15,170.11 522.50,169.82 522.85,169.58 523.20,169.24 523.55,168.95 523.90,168.71 524.25,168.37 524.60,167.97 524.95,167.59 525.30,167.25 525.65,166.82 526.00,166.48 526.35,166.06 526.70,165.77 527.05,165.34 527.40,165.05 527.75,164.84 528.10,164.50 528.45,164.16 528.80,163.68 529.15,163.34 529.50,162.91 529.85,162.62 530.20,162.42 530.55,161.99 530.90,161.55 531.25,161.33 531.60,161.04 531.95,160.70 532.30,160.36 532.65,159.97 533.00,159.58 533.35,159.30 533.70,159.06 534.05,158.68 534.40,158.36 534.75,158.07 535.10,157.68 535.45,157.34 535.80,157.05 536.15,156.70 536.50,156.31 536.85,156.02 537.20,155.72 537.55,155.43 537.90,155.04 538.25,154.61 538.60,154.27 538.95,153.93 539.30,153.64 539.65,153.30 540.00,152.96 540.35,152.67 540.70,152.23 541.05,151.78 541.40,151.44 541.75,151.07 542.10,150.78 542.45,150.49 542.80,150.24 543.15,149.94 543.50,149.60 543.85,149.22 544.20,148.78 544.55,148.35 544.90,147.91 545.25,147.65 545.60,147.22 545.95,146.90 546.30,146.51 546.65,146.27 547.00,145.88 547.35,145.53 547.70,145.15 548.05,144.76 548.40,144.35 548.75,144.01 549.10,143.69 549.45,143.20 549.80,142.75 550.15,142.52 550.50,142.13 550.85,141.82 551.20,141.58 551.55,141.33 551.90,140.86 552.25,140.55 552.60,140.22 552.95,139.75 553.30,139.32 553.65,139.03 554.00,138.76 554.35,138.47 554.70,138.13 555.05,137.84 555.40,137.50 555.75,137.11 556.10,136.78 556.45,136.39 556.80,135.94 557.15,135.55 557.50,135.26 557.85,134.87 558.20,134.58 558.55,134.19 558.90,133.85 559.25,133.51 559.60,133.17 559.95,132.74 560.30,132.35 560.65,132.25 561.00,131.96 561.35,131.62 561.70,131.38 562.05,131.23 562.40,130.80 562.75,130.51 563.10,130.26 563.45,130.01 563.80,129.67 564.15,129.48 564.50,129.19 564.85,128.90 565.20,128.46 565.55,128.12 565.90,127.78 566.25,127.40 566.60,127.15 566.95,126.72 567.30,126.40 567.65,126.11 568.00,125.67 568.35,125.38 568.70,124.95 569.05,124.61 569.40,124.13 569.75,123.74 570.10,123.35 570.45,122.92 570.80,122.58 571.15,122.23 571.50,121.94 571.85,121.71 572.20,121.39 572.55,120.95 572.90,120.59 573.25,120.25 573.60,119.99 573.95,119.55 574.30,119.21 574.65,118.77 575.00,118.40 575.35,117.94 575.70,117.67 576.05,117.24 576.40,116.81 576.75,116.52 577.10,116.23 577.45,115.94 577.80,115.60 578.15,115.16 578.50,114.77 578.85,114.26 579.20,114.02 579.55,113.68 579.90,113.29 580.25,112.95 580.60,112.56 580.95,112.27 581.30,111.92 581.65,111.49 582.00,111.10 582.35,110.76 582.70,110.49 583.05,110.22 583.40,109.79 583.75,109.57 584.10,109.25 584.45,108.93 584.80,108.78 585.15,108.40 585.50,108.03 585.85,107.69 586.20,107.25 586.55,106.96 586.90,106.58 587.25,106.21 587.60,105.97 587.95,105.57 588.30,105.24 588.65,104.87 589.00,104.54 589.35,104.13 589.70,103.84 590.05,103.62 590.40,103.27 590.75,102.85 591.10,102.51 591.45,102.12 591.80,101.77 592.15,101.40 592.50,100.99 592.85,100.65 593.20,100.21 593.55,99.87 593.90,99.48 594.25,99.17 594.60,98.93 594.95,98.54 595.30,98.16 595.65,97.77 596.00,97.44 596.35,97.13 596.70,96.80 597.05,96.50 597.40,96.17 597.75,95.78 598.10,95.49 598.45,95.05 598.80,94.66 599.15,94.28 599.50,94.02 599.85,93.61 600.20,93.32 600.55,93.03 600.90,92.69 601.25,92.30 601.60,91.86 601.95,91.62 602.30,91.19 602.65,90.70 603.00,90.41 603.35,90.17 603.70,89.78 604.05,89.39 604.40,89.05 604.75,88.67 605.10,88.38 605.45,88.04 605.80,87.65 606.15,87.26 606.50,86.91 606.85,86.72 607.20,86.43 607.55,86.04 607.90,85.65 608.25,85.31 608.60,85.12 608.95,84.64 609.30,84.20 609.65,83.87 610.00,83.53 610.35,83.24 610.70,82.85 611.05,82.47 611.40,82.22 611.75,81.79 612.10,81.55 612.45,81.17 612.80,80.87 613.15,80.48 613.50,80.19 613.85,79.80 614.20,79.46 614.55,79.16 614.90,78.77 615.25,78.43 615.60,78.04 615.95,77.70 616.30,77.32 616.65,76.93 617.00,76.59 617.35,76.59 617.70,76.49 618.05,76.46 618.40,76.51 618.75,76.38 619.10,76.54 619.45,76.63 619.80,76.64 620.15,76.59 620.50,76.91 620.85,77.20 621.20,77.39 621.55,77.39 621.90,77.35 622.25,77.27 622.60,77.35 622.95,77.34 623.30,77.19 623.65,77.24 624.00,77.24 624.35,77.34 624.70,77.32 625.05,77.17 625.40,77.17 625.75,77.17 626.10,77.22 626.45,77.25 626.80,77.33 627.15,77.43 627.50,77.38 627.85,77.36 628.20,77.27 628.55,77.31 628.90,77.26 629.25,77.11 629.60,77.09 629.95,77.19 630.30,77.05 630.65,76.95 631.00,77.00 631.35,76.91 631.70,76.95 632.05,77.00 632.40,77.09 632.75,77.13 633.10,77.05 633.45,77.03 633.80,77.27 634.15,77.27 634.50,77.32 634.85,77.22 635.20,77.32 635.55,77.42 635.90,77.51 636.25,77.51 636.60,77.53 636.95,77.39 637.30,77.22 637.65,77.22 638.00,77.18 638.35,77.27 638.70,77.21 639.05,77.30 639.40,77.33 639.75,77.24 640.10,77.30 640.45,77.30 640.80,77.41 641.15,77.41 641.50,77.39 641.85,77.53 642.20,77.49 642.55,77.58 642.90,77.39 643.25,77.55 643.60,77.50 643.95,77.47 644.30,77.48 644.65,77.28 645.00,77.29 645.35,77.19 645.70,77.28 646.05,77.19 646.40,77.19 646.75,77.19 647.10,77.09 647.45,77.14 647.80,77.03 648.15,76.87 648.50,76.77 648.85,76.80 649.20,76.80 649.55,76.94 649.90,76.94 650.25,76.85 650.60,76.89 650.95,76.77 651.30,76.76 651.65,76.82 652.00,76.91 652.35,77.01 652.70,77.18 653.05,77.27 653.40,77.12 653.75,77.32 654.10,77.26 654.45,77.21 654.80,77.12 655.15,77.19 655.50,77.00 655.85,76.75 656.20,76.61 656.55,76.61 656.90,76.66 657.25,76.75 657.60,76.64 657.95,76.53 658.30,76.49 658.65,76.57 659.00,76.63 659.35,76.63 659.70,76.60 660.05,76.56 660.40,76.70 660.75,76.60 661.10,76.43 661.45,76.36 661.80,76.40 662.15,76.33 662.50,76.33 662.85,76.15 663.20,76.16 663.55,76.05 663.90,76.02 664.25,76.15 664.60,76.39 664.95,76.41 665.30,76.48 665.65,76.22 666.00,76.31 666.35,76.65 666.70,76.93 667.05,77.41 667.40,77.61 667.75,77.85 668.10,78.25 668.45,78.74 668.80,79.03 669.15,79.24 669.50,79.41 669.85,79.61 670.20,79.77 670.55,80.15 670.90,80.49 671.25,80.89 671.60,81.28 671.95,81.52 672.30,81.91 672.65,82.25 673.00,82.64 673.35,82.88 673.70,83.12 674.05,83.37 674.40,83.66 674.75,83.97 675.10,84.29 675.45,84.64 675.80,84.80 676.15,85.18 676.50,85.47 676.85,85.81 677.20,86.20 677.55,86.53 677.90,87.01 678.25,87.45 678.60,87.64 678.95,88.07 679.30,88.40 679.65,88.79 680.00,88.74 680.35,88.89 680.70,88.75 681.05,88.94 681.40,88.80 681.75,88.70 682.10,88.62 682.45,88.64 682.80,88.59 683.15,88.64 683.50,88.74 683.85,88.79 684.20,88.65 684.55,88.65 684.90,88.74 685.25,88.74 685.60,88.78 685.95,88.61 686.30,88.55 686.65,88.40 687.00,88.47 687.35,88.27 687.70,88.32 688.05,88.13 688.40,88.23 688.75,88.18 689.10,88.13 689.45,88.10 689.80,88.10 690.15,88.06 690.50,87.86 690.85,87.57 691.20,87.15 691.55,86.74 691.90,86.40 692.25,86.01 692.60,85.67 692.95,85.28 693.30,84.90 693.65,84.41 694.00,84.04 694.35,83.60 694.70,83.26 695.05,83.07 695.40,82.73 695.75,82.35 696.10,81.92 696.45,81.63 696.80,81.39 697.15,81.39 697.50,81.43 697.85,81.25 698.20,80.96 698.55,80.58 698.90,80.14 699.25,79.80 699.60,79.51 699.95,79.17 700.30,78.93 700.65,78.49 701.00,78.32 701.35,78.13 701.70,77.89 702.05,77.62 702.40,77.33 702.75,77.09 703.10,76.99 703.45,76.94 703.80,77.03 704.15,77.07 704.50,76.92 704.85,76.59 705.20,76.35 705.55,75.87 705.90,75.57 706.25,75.28 706.60,75.04 706.95,74.92 707.30,74.79 707.65,74.84 708.00,74.68 708.35,74.68 708.70,74.68 709.05,74.50 709.40,74.45 709.75,74.32 710.10,74.27 710.45,74.22 710.80,73.94 711.15,73.99 711.50,74.09 711.85,73.99 712.20,74.14 712.55,74.09 712.90,74.04 713.25,73.76 713.60,73.42 713.95,73.39 714.30,73.14 714.65,72.85 715.00,72.61 715.35,72.36 715.70,72.26 716.05,72.29 716.40,72.24 716.75,72.23 717.10,72.28 717.45,72.12 717.80,72.08 718.15,72.02 718.50,72.02 718.85,72.07 719.20,71.97 719.55,71.95 719.90,71.76 720.25,71.78 720.60,71.86 720.95,71.90 721.30,71.83 721.65,71.99 722.00,71.84 722.35,71.99 722.70,71.96 723.05,72.01 723.40,72.11 723.75,71.87 724.10,71.67 724.45,71.81 724.80,71.70 725.15,71.85 725.50,71.99 725.85,71.97 726.20,71.92 726.55,71.87 726.90,71.84 727.25,71.77 727.60,71.68 727.95,71.54 728.30,71.52 728.65,71.79 729.00,71.89 729.35,72.27 729.70,72.66 730.05,72.91 730.40,73.05 730.75,73.00 731.10,73.00 731.45,72.95 731.80,72.95 732.15,73.05 732.50,73.05 732.85,72.85 733.20,72.76 733.55,72.88 733.90,72.84 734.25,72.74 734.60,72.90 734.95,73.09 735.30,73.23 735.65,73.21 736.00,73.30 736.35,73.10 736.70,73.08 737.05,73.15 737.40,73.35 737.75,73.32 738.10,73.39 738.45,73.44 738.80,73.42 739.15,73.32 739.50,73.27 739.85,73.37 740.20,73.56 740.55,73.61 740.90,73.48 741.25,73.53 741.60,73.63 741.95,73.55 742.30,73.52 742.65,73.38 743.00,73.43 743.35,73.60 743.70,73.72 744.05,73.64 744.40,73.61 744.75,73.57 745.10,73.57 745.45,73.52 745.80,73.65 746.15,73.84 746.50,73.79 746.85,73.98 747.20,74.37 747.55,74.71 747.90,75.10 748.25,75.31 748.60,75.79 748.95,76.23 749.30,76.57 749.65,76.94 750.00,77.33 750.35,77.76 750.70,78.10 751.05,78.34 751.40,78.59 751.75,79.02 752.10,79.41 752.45,79.74 752.80,79.93 753.15,80.37 753.50,80.76 753.85,81.19 754.20,81.58 754.55,81.92 754.90,82.21 755.25,82.50 755.60,82.89 755.95,83.18 756.30,83.32 756.65,83.57 757.00,83.95 757.35,84.25 757.70,84.71 758.05,84.96 758.40,85.36 758.75,85.61 759.10,85.95 759.45,86.39 759.80,86.78 760.15,87.14 760.50,87.47 760.85,87.91 761.20,88.28 761.55,88.59 761.90,88.88 762.25,89.27 762.60,89.65 762.95,90.09 763.30,90.13 763.65,90.47 764.00,90.73 764.35,91.13 764.70,91.51 765.05,91.81 765.40,92.10 765.75,92.53 766.10,92.94 766.45,93.19 766.80,93.48 767.15,93.80 767.50,94.15 767.85,94.44 768.20,94.68 768.55,95.08 768.90,95.41 769.25,95.71 769.60,96.14 769.95,96.33 770.30,96.67 770.65,96.72 771.00,96.67 771.35,96.91 771.70,97.01 772.05,97.22 772.40,97.56 772.75,98.00 773.10,98.30 773.45,98.60 773.80,98.89 774.15,98.60 774.50,98.84 774.85,99.23 775.20,99.57 775.55,100.02 775.90,100.21 776.25,100.68 776.60,100.97 776.95,101.33 777.30,101.58 777.65,101.92 778.00,102.36 778.35,102.55 778.70,102.65 779.05,102.67 779.40,103.01 779.75,103.23 780.10,103.33 780.45,103.23 780.80,103.37 781.15,103.62 781.50,104.10 781.85,104.34 782.20,104.62 782.55,104.96 782.90,105.30 783.25,105.74 783.60,106.06 783.95,106.07 784.30,106.12 784.65,106.12 785.00,106.04"/>
<line x1="813" y1="54" x2="839" y2="54" stroke="#2563eb" stroke-width="3"/>
<text x="847" y="58" font-family="Arial" font-size="13" fill="#111827">low volatility</text>
<polyline fill="none" stroke="#dc2626" stroke-width="2" points="85.00,365.87 85.35,365.87 85.70,365.71 86.05,365.84 86.40,366.22 86.75,366.59 87.10,366.97 87.45,367.31 87.80,367.60 88.15,367.90 88.50,368.00 88.85,368.09 89.20,368.14 89.55,368.09 89.90,367.85 90.25,367.65 90.60,367.53 90.95,367.49 91.30,367.64 91.65,367.54 92.00,367.44 92.35,367.25 92.70,367.57 93.05,367.66 93.40,367.52 93.75,367.49 94.10,367.65 94.45,367.41 94.80,367.14 95.15,367.06 95.50,366.77 95.85,366.43 96.20,365.99 96.55,365.70 96.90,365.25 97.25,365.01 97.60,364.67 97.95,364.31 98.30,364.12 98.65,363.73 99.00,363.35 99.35,363.15 99.70,362.81 100.05,362.38 100.40,361.94 100.75,361.93 101.10,362.28 101.45,362.61 101.80,362.99 102.15,363.33 102.50,363.72 102.85,363.92 103.20,364.35 103.55,364.74 103.90,365.12 104.25,364.75 104.60,364.51 104.95,364.33 105.30,364.12 105.65,364.07 106.00,363.93 106.35,364.02 106.70,364.27 107.05,364.56 107.40,364.88 107.75,365.12 108.10,365.56 108.45,365.48 108.80,365.19 109.15,365.24 109.50,365.13 109.85,364.99 110.20,364.65 110.55,364.61 110.90,364.28 111.25,363.93 111.60,363.74 111.95,363.74 112.30,363.74 112.65,363.90 113.00,364.00 113.35,363.98 113.70,364.04 114.05,364.19 114.40,364.29 114.75,364.27 115.10,364.35 115.45,364.45 115.80,364.55 116.15,364.64 116.50,364.57 116.85,364.52 117.20,364.51 117.55,364.51 117.90,364.80 118.25,365.19 118.60,365.58 118.95,365.92 119.30,366.26 119.65,366.65 120.00,366.99 120.35,367.38 120.70,367.72 121.05,368.01 121.40,368.26 121.75,368.60 122.10,368.89 122.45,369.25 122.80,369.59 123.15,369.89 123.50,370.27 123.85,370.60 124.20,370.94 124.55,371.22 124.90,371.42 125.25,371.73 125.60,371.97 125.95,372.36 126.30,372.65 126.65,373.07 127.00,373.36 127.35,373.52 127.70,373.72 128.05,373.38 128.40,373.09 128.75,372.70 129.10,372.36 129.45,372.17 129.80,372.02 130.15,371.78 130.50,371.34 130.85,371.16 131.20,371.07 131.55,370.78 131.90,370.45 132.25,370.06 132.60,369.58 132.95,369.19 133.30,368.70 133.65,368.70 134.00,368.51 134.35,368.59 134.70,368.50 135.05,368.70 135.40,369.04 135.75,369.38 136.10,369.28 136.45,369.34 136.80,369.39 137.15,369.54 137.50,369.46 137.85,369.71 138.20,369.71 138.55,369.64 138.90,369.69 139.25,369.89 139.60,369.83 139.95,369.83 140.30,369.45 140.65,369.57 141.00,369.52 141.35,369.59 141.70,369.59 142.05,369.85 142.40,370.09 142.75,370.34 143.10,370.75 143.45,371.09 143.80,371.33 144.15,371.72 144.50,372.15 144.85,372.44 145.20,372.78 145.55,373.17 145.90,373.46 146.25,373.80 146.60,374.09 146.95,374.43 147.30,374.64 147.65,374.93 148.00,374.98 148.35,375.42 148.70,375.81 149.05,376.19 149.40,376.44 149.75,376.16 150.10,376.26 150.45,376.45 150.80,376.45 151.15,376.41 151.50,376.24 151.85,376.41 152.20,376.51 152.55,376.85 152.90,377.28 153.25,377.45 153.60,377.16 153.95,377.20 154.30,377.10 154.65,377.25 155.00,377.15 155.35,377.49 155.70,377.73 156.05,377.69 156.40,377.47 156.75,377.42 157.10,377.47 157.45,377.74 157.80,377.70 158.15,377.80 158.50,377.94 158.85,378.43 159.20,378.77 159.55,379.06 159.90,379.13 160.25,379.10 160.60,379.39 160.95,379.72 161.30,379.94 161.65,380.33 162.00,380.62 162.35,380.81 162.70,381.20 163.05,381.47 163.40,381.86 163.75,381.75 164.10,381.80 164.45,381.74 164.80,381.50 165.15,381.20 165.50,380.96 165.85,380.57 166.20,380.09 166.55,379.77 166.90,379.43 167.25,379.48 167.60,379.57 167.95,379.43 168.30,379.41 168.65,379.14 169.00,378.80 169.35,378.46 169.70,378.07 170.05,377.69 170.40,377.44 170.75,377.06 171.10,376.67 171.45,376.28 171.80,375.96 172.15,375.62 172.50,375.23 172.85,374.84 173.20,374.50 173.55,374.15 173.90,373.81 174.25,373.40 174.60,373.11 174.95,372.82 175.30,372.63 175.65,372.29 176.00,371.96 176.35,371.63 176.70,371.24 177.05,370.95 177.40,370.56 177.75,370.18 178.10,369.89 178.45,369.60 178.80,369.35 179.15,368.97 179.50,368.62 179.85,368.23 180.20,367.85 180.55,367.53 180.90,367.14 181.25,366.85 181.60,366.43 181.95,366.17 182.30,365.83 182.65,365.47 183.00,365.22 183.35,364.97 183.70,364.63 184.05,364.39 184.40,364.00 184.75,363.61 185.10,363.22 185.45,362.84 185.80,362.58 186.15,362.24 186.50,361.90 186.85,361.52 187.20,361.18 187.55,360.80 187.90,360.56 188.25,360.12 188.60,359.82 188.95,359.45 189.30,359.18 189.65,358.85 190.00,358.46 190.35,358.02 190.70,357.73 191.05,357.41 191.40,357.05 191.75,356.61 192.10,356.23 192.45,355.94 192.80,355.66 193.15,355.32 193.50,355.03 193.85,354.79 194.20,354.40 194.55,354.02 194.90,353.71 195.25,353.57 195.60,353.13 195.95,352.84 196.30,352.40 196.65,351.97 197.00,351.58 197.35,351.25 197.70,350.91 198.05,350.67 198.40,350.33 198.75,349.95 199.10,349.61 199.45,349.37 199.80,349.13 200.15,348.68 200.50,348.20 200.85,347.86 201.20,347.52 201.55,347.33 201.90,347.46 202.25,347.62 202.60,347.86 202.95,347.96 203.30,348.10 203.65,347.71 204.00,347.47 204.35,347.13 204.70,346.76 205.05,346.47 205.40,346.18 205.75,345.94 206.10,345.89 206.45,346.08 206.80,346.13 207.15,345.98 207.50,345.64 207.85,345.35 208.20,345.16 208.55,344.72 208.90,344.39 209.25,344.05 209.60,343.66 209.95,343.32 210.30,342.88 210.65,342.50 211.00,342.11 211.35,341.76 211.70,341.37 212.05,340.98 212.40,340.69 212.75,340.21 213.10,339.77 213.45,339.43 213.80,339.04 214.15,338.65 214.50,338.79 214.85,338.65 215.20,338.79 215.55,339.03 215.90,338.64 216.25,338.81 216.60,338.74 216.95,338.59 217.30,338.49 217.65,338.45 218.00,338.33 218.35,338.37 218.70,338.42 219.05,338.85 219.40,338.98 219.75,339.03 220.10,339.08 220.45,338.98 220.80,339.08 221.15,339.12 221.50,338.74 221.85,338.48 222.20,338.33 222.55,338.33 222.90,338.33 223.25,338.43 223.60,338.05 223.95,337.91 224.30,337.57 224.65,337.83 225.00,337.86 225.35,338.10 225.70,338.13 226.05,338.14 226.40,337.91 226.75,337.58 227.10,337.27 227.45,336.93 227.80,337.03 228.15,337.40 228.50,337.70 228.85,338.03 229.20,338.13 229.55,338.34 229.90,338.73 230.25,339.22 230.60,339.52 230.95,339.86 231.30,340.20 231.65,340.57 232.00,341.01 232.35,341.33 232.70,341.63 233.05,341.97 233.40,342.35 233.75,342.69 234.10,343.03 234.45,343.42 234.80,343.61 235.15,344.12 235.50,344.44 235.85,344.63 236.20,344.87 236.55,345.19 236.90,345.53 237.25,345.96 237.60,346.31 237.95,346.65 238.30,347.05 238.65,347.44 239.00,347.71 239.35,348.05 239.70,348.34 240.05,348.69 240.40,348.93 240.75,349.24 241.10,349.53 241.45,349.97 241.80,350.26 242.15,350.69 242.50,350.98 242.85,351.13 243.20,351.37 243.55,351.08 243.90,350.69 244.25,350.35 244.60,350.01 244.95,349.62 245.30,349.14 245.65,348.75 246.00,348.41 246.35,348.27 246.70,348.42 247.05,348.54 247.40,348.93 247.75,348.86 248.10,348.91 248.45,349.01 248.80,349.28 249.15,348.99 249.50,348.65 249.85,348.31 250.20,348.08 250.55,347.75 250.90,347.46 251.25,347.17 251.60,346.88 251.95,346.58 252.30,346.17 252.65,345.97 253.00,345.62 253.35,345.26 253.70,344.78 254.05,344.63 254.40,344.39 254.75,344.00 255.10,343.52 255.45,343.23 255.80,342.84 256.15,342.49 256.50,342.06 256.85,341.82 257.20,341.54 257.55,341.13 257.90,340.70 258.25,340.53 258.60,340.21 258.95,339.77 259.30,339.39 259.65,339.10 260.00,338.80 260.35,338.52 260.70,338.08 261.05,337.82 261.40,337.48 261.75,337.06 262.10,336.77 262.45,336.55 262.80,336.20 263.15,335.96 263.50,335.62 263.85,335.23 264.20,334.99 264.55,334.70 264.90,334.41 265.25,334.51 265.60,334.85 265.95,335.16 266.30,335.56 266.65,335.94 267.00,336.27 267.35,336.42 267.70,336.71 268.05,337.09 268.40,337.30 268.75,337.59 269.10,337.80 269.45,337.97 269.80,338.24 270.15,338.63 270.50,338.95 270.85,339.26 271.20,339.55 271.55,339.84 271.90,340.28 272.25,340.76 272.60,341.05 272.95,341.15 273.30,341.16 273.65,341.41 274.00,341.45 274.35,341.44 274.70,341.53 275.05,341.76 275.40,341.52 275.75,341.33 276.10,341.51 276.45,341.66 276.80,341.96 277.15,342.37 277.50,342.67 277.85,343.00 278.20,343.30 278.55,343.73 278.90,343.88 279.25,344.02 279.60,344.07 279.95,344.36 280.30,344.48 280.65,344.55 281.00,344.84 281.35,344.85 281.70,344.95 282.05,345.15 282.40,345.22 282.75,345.27 283.10,345.27 283.45,345.07 283.80,345.26 284.15,345.55 284.50,345.48 284.85,345.16 285.20,344.81 285.55,344.47 285.90,344.18 286.25,343.93 286.60,343.84 286.95,344.08 287.30,344.19 287.65,343.85 288.00,343.71 288.35,343.46 288.70,343.39 289.05,343.63 289.40,343.78 289.75,343.49 290.10,343.15 290.45,342.90 290.80,342.90 291.15,342.95 291.50,342.51 291.85,342.22 292.20,342.07 292.55,341.63 292.90,341.30 293.25,341.01 293.60,340.62 293.95,340.33 294.30,339.99 294.65,339.65 295.00,339.31 295.35,339.02 295.70,338.68 296.05,338.44 296.40,338.18 296.75,338.33 297.10,338.67 297.45,339.02 297.80,339.28 298.15,339.53 298.50,339.81 298.85,340.10 299.20,340.43 299.55,340.33 299.90,340.07 300.25,340.07 300.60,340.09 300.95,339.95 301.30,339.76 301.65,339.77 302.00,339.33 302.35,338.95 302.70,338.72 303.05,338.43 303.40,338.05 303.75,337.71 304.10,337.33 304.45,337.02 304.80,336.77 305.15,336.86 305.50,336.77 305.85,336.69 306.20,336.93 306.55,337.13 306.90,337.18 307.25,337.27 307.60,337.61 307.95,338.07 308.30,338.36 308.65,338.69 309.00,339.08 309.35,339.52 309.70,339.86 310.05,340.15 310.40,340.58 310.75,340.87 311.10,341.26 311.45,341.57 311.80,341.81 312.15,342.16 312.50,342.43 312.85,342.63 313.20,342.92 313.55,343.36 313.90,343.55 314.25,343.94 314.60,344.19 314.95,344.60 315.30,344.99 315.65,345.28 316.00,345.64 316.35,345.74 316.70,345.76 317.05,345.57 317.40,345.23 317.75,345.37 318.10,345.57 318.45,345.11 318.80,344.68 319.15,344.45 319.50,344.11 319.85,343.77 320.20,343.33 320.55,343.07 320.90,342.68 321.25,342.34 321.60,341.86 321.95,341.54 322.30,341.36 322.65,340.97 323.00,340.72 323.35,340.35 323.70,340.01 324.05,339.63 324.40,339.20 324.75,338.86 325.10,338.52 325.45,338.23 325.80,338.08 326.15,337.63 326.50,337.44 326.85,337.05 327.20,336.76 327.55,336.52 327.90,336.18 328.25,335.89 328.60,335.68 328.95,335.34 329.30,334.95 329.65,334.66 330.00,334.75 330.35,334.51 330.70,334.64 331.05,334.88 331.40,335.21 331.75,334.97 332.10,335.40 332.45,335.26 332.80,334.86 333.15,334.56 333.50,334.27 333.85,333.90 334.20,333.53 334.55,333.14 334.90,332.90 335.25,332.51 335.60,332.19 335.95,331.76 336.30,331.47 336.65,331.13 337.00,330.74 337.35,330.40 337.70,329.96 338.05,329.71 338.40,329.42 338.75,329.17 339.10,328.79 339.45,328.45 339.80,328.12 340.15,327.71 340.50,327.32 340.85,327.03 341.20,326.74 341.55,326.30 341.90,326.06 342.25,325.72 342.60,325.40 342.95,325.06 343.30,324.77 343.65,324.48 344.00,324.24 344.35,323.76 344.70,323.33 345.05,322.94 345.40,322.70 345.75,322.27 346.10,322.02 346.45,321.73 346.80,321.44 347.15,321.10 347.50,320.62 347.85,320.23 348.20,319.99 348.55,319.55 348.90,319.23 349.25,318.89 349.60,318.50 349.95,318.21 350.30,317.85 350.65,317.56 351.00,317.17 351.35,316.90 351.70,316.52 352.05,316.08 352.40,315.64 352.75,315.30 353.10,314.82 353.45,314.53 353.80,314.30 354.15,313.87 354.50,313.53 354.85,313.14 355.20,312.80 355.55,312.32 355.90,311.93 356.25,311.69 356.60,312.02 356.95,312.45 357.30,312.79 357.65,313.14 358.00,313.45 358.35,313.84 358.70,314.27 359.05,314.67 359.40,315.05 359.75,315.44 360.10,315.60 360.45,316.03 360.80,316.38 361.15,316.72 361.50,317.11 361.85,317.45 362.20,317.88 362.55,318.18 362.90,318.43 363.25,318.87 363.60,319.21 363.95,319.59 364.30,319.81 364.65,320.25 365.00,320.68 365.35,320.95 365.70,321.36 366.05,321.70 366.40,321.99 366.75,322.38 367.10,322.62 367.45,323.01 367.80,323.35 368.15,323.68 368.50,324.02 368.85,324.46 369.20,324.70 369.55,325.12 369.90,325.52 370.25,325.89 370.60,326.22 370.95,326.51 371.30,326.73 371.65,326.59 372.00,326.20 372.35,325.76 372.70,325.76 373.05,326.01 373.40,326.39 373.75,326.78 374.10,327.17 374.45,327.39 374.80,327.68 375.15,327.90 375.50,328.21 375.85,328.26 376.20,328.40 376.55,328.16 376.90,327.82 377.25,327.50 377.60,327.13 377.95,326.92 378.30,326.58 378.65,326.38 379.00,326.43 379.35,326.41 379.70,326.46 380.05,326.66 380.40,326.62 380.75,326.41 381.10,326.21 381.45,326.36 381.80,326.21 382.15,326.41 382.50,326.70 382.85,327.04 383.20,327.28 383.55,327.36 383.90,327.45 384.25,327.47 384.60,327.85 384.95,328.14 385.30,328.58 385.65,328.93 386.00,329.22 386.35,329.65 386.70,330.04 387.05,330.48 387.40,330.52 387.75,330.66 388.10,330.92 388.45,331.20 388.80,331.57 389.15,331.80 389.50,332.10 389.85,332.43 390.20,332.77 390.55,333.01 390.90,333.37 391.25,333.66 391.60,333.91 391.95,334.34 392.30,334.73 392.65,335.11 393.00,335.42 393.35,335.67 393.70,335.96 394.05,336.34 394.40,336.63 394.75,337.02 395.10,337.27 395.45,337.61 395.80,337.91 396.15,338.29 396.50,338.32 396.85,338.75 397.20,339.04 397.55,339.36 397.90,339.75 398.25,340.14 398.60,340.51 398.95,340.76 399.30,341.19 399.65,341.47 400.00,341.81 400.35,342.24 400.70,342.49 401.05,342.65 401.40,342.94 401.75,343.07 402.10,343.12 402.45,343.02 402.80,343.24 403.15,343.20 403.50,342.81 403.85,342.67 404.20,342.81 404.55,342.85 404.90,343.10 405.25,343.24 405.60,343.29 405.95,343.35 406.30,343.35 406.65,343.45 407.00,343.12 407.35,342.83 407.70,342.46 408.05,342.41 408.40,342.85 408.75,343.11 409.10,343.35 409.45,343.73 409.80,344.16 410.15,344.50 410.50,344.84 410.85,345.08 411.20,345.42 411.55,345.76 411.90,346.10 412.25,346.34 412.60,346.68 412.95,347.07 413.30,347.41 413.65,347.67 414.00,347.92 414.35,348.21 414.70,348.64 415.05,349.08 415.40,349.52 415.75,349.78 416.10,350.08 416.45,350.03 416.80,349.97 417.15,349.70 417.50,349.55 417.85,349.64 418.20,349.78 418.55,350.17 418.90,350.46 419.25,350.75 419.60,350.96 419.95,351.30 420.30,351.59 420.65,351.93 421.00,352.28 421.35,352.63 421.70,353.01 422.05,353.30 422.40,353.79 422.75,354.22 423.10,354.62 423.45,354.96 423.80,355.39 424.15,355.68 424.50,356.02 424.85,356.36 425.20,356.89 425.55,357.13 425.90,357.47 426.25,357.68 426.60,358.02 426.95,358.40 427.30,358.74 427.65,359.11 428.00,359.50 428.35,359.79 428.70,360.18 429.05,360.52 429.40,360.89 429.75,361.13 430.10,361.59 430.45,362.03 430.80,362.42 431.15,362.66 431.50,362.91 431.85,363.22 432.20,363.55 432.55,363.89 432.90,364.18 433.25,364.47 433.60,364.81 433.95,365.20 434.30,365.49 434.65,365.88 435.00,366.22 435.35,366.61 435.70,366.56 436.05,366.56 436.40,366.95 436.75,367.09 437.10,366.90 437.45,366.90 437.80,366.87 438.15,366.73 438.50,366.92 438.85,366.87 439.20,366.87 439.55,366.97 439.90,366.92 440.25,367.09 440.60,367.08 440.95,367.00 441.30,367.17 441.65,367.51 442.00,367.52 442.35,367.59 442.70,367.93 443.05,368.23 443.40,368.57 443.75,368.81 444.10,369.05 444.45,369.34 444.80,369.74 445.15,369.98 445.50,370.30 445.85,370.69 446.20,371.08 446.55,371.43 446.90,371.77 447.25,372.30 447.60,372.45 447.95,372.84 448.30,373.08 448.65,373.56 449.00,373.90 449.35,374.23 449.70,374.61 450.05,375.10 450.40,375.49 450.75,375.73 451.10,376.07 451.45,376.35 451.80,376.69 452.15,377.07 452.50,377.37 452.85,377.70 453.20,378.09 453.55,378.43 453.90,378.82 454.25,379.16 454.60,379.49 454.95,379.88 455.30,380.26 455.65,380.60 456.00,380.94 456.35,381.12 456.70,381.46 457.05,381.85 457.40,382.34 457.75,382.61 458.10,382.92 458.45,383.36 458.80,383.75 459.15,384.13 459.50,384.38 459.85,384.76 460.20,385.15 460.55,385.54 460.90,385.80 461.25,386.18 461.60,386.66 461.95,387.04 462.30,387.43 462.65,387.72 463.00,387.57 463.35,387.42 463.70,387.33 464.05,387.13 464.40,386.94 464.75,386.82 465.10,386.73 465.45,386.49 465.80,386.51 466.15,386.61 466.50,386.42 466.85,386.27 467.20,386.37 467.55,386.27 467.90,386.37 468.25,386.65 468.60,386.49 468.95,386.40 469.30,386.57 469.65,386.96 470.00,387.39 470.35,387.68 470.70,388.01 471.05,388.44 471.40,388.78 471.75,389.08 472.10,389.37 472.45,389.52 472.80,389.57 473.15,389.77 473.50,390.06 473.85,390.30 474.20,390.45 474.55,390.49 474.90,390.70 475.25,391.09 475.60,391.43 475.95,391.87 476.30,392.06 476.65,392.45 477.00,392.84 477.35,393.18 477.70,393.47 478.05,393.76 478.40,394.00 478.75,394.15 479.10,394.05 479.45,393.90 479.80,393.81 480.15,393.89 480.50,393.52 480.85,393.23 481.20,393.08 481.55,392.69 481.90,392.50 482.25,392.26 482.60,391.94 482.95,391.94 483.30,391.79 483.65,392.08 484.00,392.33 484.35,392.71 484.70,393.13 485.05,393.52 485.40,394.00 485.75,394.14 486.10,394.02 486.45,394.40 486.80,394.80 487.15,394.85 487.50,394.89 487.85,394.90 488.20,395.14 488.55,395.09 488.90,395.43 489.25,395.77 489.60,396.06 489.95,396.50 490.30,396.85 490.65,397.21 491.00,397.55 491.35,397.89 491.70,397.98 492.05,397.99 492.40,397.90 492.75,397.83 493.10,397.44 493.45,397.30 493.80,396.91 494.15,396.76 494.50,396.52 494.85,396.57 495.20,396.95 495.55,397.31 495.90,397.80 496.25,398.19 496.60,398.48 496.95,398.58 497.30,398.54 497.65,398.25 498.00,398.15 498.35,397.81 498.70,397.81 499.05,397.51 499.40,397.56 499.75,397.84 500.10,397.69 500.45,397.21 500.80,396.87 501.15,396.43 501.50,396.24 501.85,395.85 502.20,395.61 502.55,395.27 502.90,394.93 503.25,394.58 503.60,394.33 503.95,393.94 504.30,393.55 504.65,393.14 505.00,392.79 505.35,392.50 505.70,392.21 506.05,391.92 506.40,391.87 506.75,391.77 507.10,391.70 507.45,391.55 507.80,391.46 508.15,391.48 508.50,391.32 508.85,391.03 509.20,390.88 509.55,390.78 509.90,390.69 510.25,390.66 510.60,390.51 510.95,390.49 511.30,390.54 511.65,390.78 512.00,391.12 512.35,391.41 512.70,391.79 513.05,392.17 513.40,392.56 513.75,392.90 514.10,393.27 514.45,393.65 514.80,393.64 515.15,394.08 515.50,394.19 515.85,394.33 516.20,394.48 516.55,394.28 516.90,393.99 517.25,394.09 517.60,394.33 517.95,394.80 518.30,394.89 518.65,394.94 519.00,395.04 519.35,395.13 519.70,395.57 520.05,395.62 520.40,395.43 520.75,395.18 521.10,394.90 521.45,394.70 521.80,394.53 522.15,394.38 522.50,394.24 522.85,394.08 523.20,393.98 523.55,393.93 523.90,393.98 524.25,393.84 524.60,393.70 524.95,393.31 525.30,393.31 525.65,393.11 526.00,392.94 526.35,392.91 526.70,392.62 527.05,392.56 527.40,392.41 527.75,392.38 528.10,392.32 528.45,392.13 528.80,392.08 529.15,391.85 529.50,391.37 529.85,391.03 530.20,390.72 530.55,390.43 530.90,390.09 531.25,389.83 531.60,389.62 531.95,389.54 532.30,389.59 532.65,389.51 533.00,389.22 533.35,388.91 533.70,388.62 534.05,388.28 534.40,388.01 534.75,387.62 535.10,387.19 535.45,386.75 535.80,386.36 536.15,386.05 536.50,385.70 536.85,385.21 537.20,384.78 537.55,384.44 537.90,384.08 538.25,383.76 538.60,383.51 538.95,383.31 539.30,382.93 539.65,382.69 540.00,382.31 540.35,382.02 540.70,381.62 541.05,381.24 541.40,380.88 541.75,380.50 542.10,380.08 542.45,379.72 542.80,379.28 543.15,378.97 543.50,378.59 543.85,378.28 544.20,377.99 544.55,377.74 544.90,377.40 545.25,377.04 545.60,376.80 545.95,376.56 546.30,376.41 546.65,376.17 547.00,376.05 547.35,376.15 547.70,376.43 548.05,376.63 548.40,377.07 548.75,377.36 549.10,377.67 549.45,378.15 549.80,378.54 550.15,379.02 550.50,379.31 550.85,379.60 551.20,379.89 551.55,380.33 551.90,380.65 552.25,380.94 552.60,381.28 552.95,381.57 553.30,381.86 553.65,382.20 554.00,382.44 554.35,382.83 554.70,383.08 555.05,383.53 555.40,383.87 555.75,384.21 556.10,384.55 556.45,384.94 556.80,385.33 557.15,385.72 557.50,386.03 557.85,386.26 558.20,386.38 558.55,386.67 558.90,387.10 559.25,387.16 559.60,387.11 559.95,387.06 560.30,386.85 560.65,386.67 561.00,386.66 561.35,386.71 561.70,386.61 562.05,386.64 562.40,386.48 562.75,386.04 563.10,385.75 563.45,385.32 563.80,384.98 564.15,384.75 564.50,384.46 564.85,384.04 565.20,383.56 565.55,383.18 565.90,382.80 566.25,382.41 566.60,382.12 566.95,381.79 567.30,381.52 567.65,381.22 568.00,380.83 568.35,380.54 568.70,380.30 569.05,379.96 569.40,379.61 569.75,379.37 570.10,378.93 570.45,378.49 570.80,378.46 571.15,378.41 571.50,378.41 571.85,378.41 572.20,378.16 572.55,377.78 572.90,377.39 573.25,376.95 573.60,376.62 573.95,376.33 574.30,376.10 574.65,375.96 575.00,375.96 575.35,375.96 575.70,375.91 576.05,375.92 576.40,376.06 576.75,376.00 577.10,376.08 577.45,376.03 577.80,375.95 578.15,375.93 578.50,376.02 578.85,376.22 579.20,376.65 579.55,376.94 579.90,377.23 580.25,377.52 580.60,377.82 580.95,378.21 581.30,378.24 581.65,378.63 582.00,378.67 582.35,378.69 582.70,378.71 583.05,378.60 583.40,378.60 583.75,378.89 584.10,379.32 584.45,379.64 584.80,379.90 585.15,380.24 585.50,380.58 585.85,381.06 586.20,381.35 586.55,381.64 586.90,382.08 587.25,382.25 587.60,382.45 587.95,382.79 588.30,383.08 588.65,383.46 589.00,383.81 589.35,384.25 589.70,384.65 590.05,385.09 590.40,385.48 590.75,385.72 591.10,386.15 591.45,386.40 591.80,386.71 592.15,387.19 592.50,387.53 592.85,387.88 593.20,388.08 593.55,388.28 593.90,388.54 594.25,388.78 594.60,389.10 594.95,389.39 595.30,389.56 595.65,389.95 596.00,390.26 596.35,390.60 596.70,390.79 597.05,391.18 597.40,391.50 597.75,391.75 598.10,391.95 598.45,392.09 598.80,392.45 599.15,392.88 599.50,393.23 599.85,393.61 600.20,393.90 600.55,394.29 600.90,394.68 601.25,394.97 601.60,395.22 601.95,395.54 602.30,395.98 602.65,396.20 603.00,396.44 603.35,396.75 603.70,397.04 604.05,397.45 604.40,397.46 604.75,397.71 605.10,397.83 605.45,397.49 605.80,397.46 606.15,397.60 606.50,397.79 606.85,397.55 607.20,397.50 607.55,397.36 607.90,396.97 608.25,396.73 608.60,396.44 608.95,396.10 609.30,395.76 609.65,395.42 610.00,394.98 610.35,394.74 610.70,394.40 611.05,394.06 611.40,393.73 611.75,393.43 612.10,393.11 612.45,393.05 612.80,393.20 613.15,393.03 613.50,393.03 613.85,392.97 614.20,392.83 614.55,392.55 614.90,392.17 615.25,392.17 615.60,392.07 615.95,392.21 616.30,392.05 616.65,392.22 617.00,392.40 617.35,392.21 617.70,391.99 618.05,391.55 618.40,391.12 618.75,390.66 619.10,390.32 619.45,389.98 619.80,389.59 620.15,389.16 620.50,388.77 620.85,388.28 621.20,387.95 621.55,387.46 621.90,387.14 622.25,386.80 622.60,386.36 622.95,386.02 623.30,385.68 623.65,385.39 624.00,385.05 624.35,384.76 624.70,384.33 625.05,383.99 625.40,383.65 625.75,383.35 626.10,382.98 626.45,382.68 626.80,382.44 627.15,382.42 627.50,382.65 627.85,382.55 628.20,382.64 628.55,382.98 628.90,383.12 629.25,383.32 629.60,383.37 629.95,383.37 630.30,383.53 630.65,383.90 631.00,384.19 631.35,384.13 631.70,384.08 632.05,383.91 632.40,383.67 632.75,383.45 633.10,383.16 633.45,383.16 633.80,383.30 634.15,383.26 634.50,383.16 634.85,383.38 635.20,383.43 635.55,382.95 635.90,382.61 636.25,382.17 636.60,381.78 636.95,381.46 637.30,381.27 637.65,381.27 638.00,381.08 638.35,380.74 638.70,380.50 639.05,380.26 639.40,379.82 639.75,379.52 640.10,379.18 640.45,378.77 640.80,378.38 641.15,378.01 641.50,377.72 641.85,377.67 642.20,377.53 642.55,377.19 642.90,376.90 643.25,376.51 643.60,376.17 643.95,375.85 644.30,375.56 644.65,375.28 645.00,374.90 645.35,374.41 645.70,374.17 646.05,373.86 646.40,373.52 646.75,373.18 647.10,372.84 647.45,372.55 647.80,372.25 648.15,371.96 648.50,371.67 648.85,371.38 649.20,371.14 649.55,370.85 649.90,370.56 650.25,370.23 650.60,369.92 650.95,369.69 651.30,369.33 651.65,369.06 652.00,368.82 652.35,368.52 652.70,368.03 653.05,367.69 653.40,367.40 653.75,367.11 654.10,366.77 654.45,366.74 654.80,366.77 655.15,366.92 655.50,366.62 655.85,366.47 656.20,366.32 656.55,365.94 656.90,365.65 657.25,365.77 657.60,365.34 657.95,364.95 658.30,364.61 658.65,364.40 659.00,364.21 659.35,363.93 659.70,363.58 660.05,363.30 660.40,362.91 660.75,362.53 661.10,362.23 661.45,361.80 661.80,361.51 662.15,361.13 662.50,360.74 662.85,360.36 663.20,359.97 663.55,359.77 663.90,359.38 664.25,359.03 664.60,358.73 664.95,358.44 665.30,358.24 665.65,357.91 666.00,357.52 666.35,357.08 666.70,356.69 667.05,356.37 667.40,356.03 667.75,355.69 668.10,355.42 668.45,355.13 668.80,354.74 669.15,354.43 669.50,354.04 669.85,353.65 670.20,353.26 670.55,352.78 670.90,352.59 671.25,352.31 671.60,352.02 671.95,351.66 672.30,351.28 672.65,350.84 673.00,350.50 673.35,350.09 673.70,349.66 674.05,349.17 674.40,348.98 674.75,348.44 675.10,348.06 675.45,347.72 675.80,347.33 676.15,346.99 676.50,346.56 676.85,346.09 677.20,345.90 677.55,345.56 677.90,345.10 678.25,345.02 678.60,344.81 678.95,344.67 679.30,344.67 679.65,344.67 680.00,344.71 680.35,344.78 680.70,344.51 681.05,344.12 681.40,344.09 681.75,344.05 682.10,344.14 682.45,344.34 682.80,344.48 683.15,344.58 683.50,344.94 683.85,344.87 684.20,344.92 684.55,344.86 684.90,344.62 685.25,344.38 685.60,343.99 685.95,343.84 686.30,343.66 686.65,343.46 687.00,343.76 687.35,343.56 687.70,343.47 688.05,343.43 688.40,343.59 688.75,343.68 689.10,343.90 689.45,344.24 689.80,344.62 690.15,344.77 690.50,344.91 690.85,345.20 691.20,345.23 691.55,345.20 691.90,345.05 692.25,345.13 692.60,345.13 692.95,345.08 693.30,344.90 693.65,345.04 694.00,345.14 694.35,345.01 694.70,344.95 695.05,345.00 695.40,344.86 695.75,345.01 696.10,344.96 696.45,344.77 696.80,345.06 697.15,345.31 697.50,345.70 697.85,346.06 698.20,346.35 698.55,346.74 698.90,347.18 699.25,347.65 699.60,347.94 699.95,348.32 700.30,348.52 700.65,348.87 701.00,349.06 701.35,349.44 701.70,349.15 702.05,349.20 702.40,348.96 702.75,348.96 703.10,349.03 703.45,349.19 703.80,349.19 704.15,348.99 704.50,348.80 704.85,348.94 705.20,348.87 705.55,348.96 705.90,349.06 706.25,349.40 706.60,349.88 706.95,350.14 707.30,350.43 707.65,350.81 708.00,351.16 708.35,351.54 708.70,351.69 709.05,351.93 709.40,352.31 709.75,352.64 710.10,353.08 710.45,353.58 710.80,353.90 711.15,354.19 711.50,354.63 711.85,354.92 712.20,355.30 712.55,355.75 712.90,356.08 713.25,356.38 713.60,356.75 713.95,356.90 714.30,357.33 714.65,357.72 715.00,357.96 715.35,358.35 715.70,358.64 716.05,359.02 716.40,359.48 716.75,359.77 717.10,360.11 717.45,360.40 717.80,360.78 718.15,361.12 718.50,361.41 718.85,361.69 719.20,361.94 719.55,362.37 719.90,362.41 720.25,362.45 720.60,362.75 720.95,362.65 721.30,362.45 721.65,362.39 722.00,362.61 722.35,362.51 722.70,362.48 723.05,362.16 723.40,361.89 723.75,361.55 724.10,361.36 724.45,361.26 724.80,361.18 725.15,360.74 725.50,360.26 725.85,360.04 726.20,359.75 726.55,359.36 726.90,359.08 727.25,358.74 727.60,358.53 727.95,358.09 728.30,357.72 728.65,357.37 729.00,357.13 729.35,356.85 729.70,356.76 730.05,356.92 730.40,356.97 730.75,356.72 731.10,356.47 731.45,356.29 731.80,356.38 732.15,356.56 732.50,356.46 732.85,356.85 733.20,356.95 733.55,357.12 733.90,357.02 734.25,357.02 734.60,356.70 734.95,356.49 735.30,356.06 735.65,355.69 736.00,355.33 736.35,355.28 736.70,354.89 737.05,354.72 737.40,354.87 737.75,354.87 738.10,354.80 738.45,354.79 738.80,354.59 739.15,354.88 739.50,355.32 739.85,355.80 740.20,356.19 740.55,356.26 740.90,356.60 741.25,357.02 741.60,357.46 741.95,357.70 742.30,357.94 742.65,358.33 743.00,358.57 743.35,358.76 743.70,359.01 744.05,359.23 744.40,359.64 744.75,359.88 745.10,360.00 745.45,360.08 745.80,360.13 746.15,360.13 746.50,360.23 746.85,360.23 747.20,360.42 747.55,360.76 747.90,361.15 748.25,361.29 748.60,361.07 748.95,360.91 749.30,360.68 749.65,360.90 750.00,360.95 750.35,360.84 750.70,360.81 751.05,360.71 751.40,360.76 751.75,360.71 752.10,360.53 752.45,360.25 752.80,359.81 753.15,359.92 753.50,359.78 753.85,359.97 754.20,359.97 754.55,359.87 754.90,359.97 755.25,359.92 755.60,360.05 755.95,359.80 756.30,359.70 756.65,359.32 757.00,359.02 757.35,359.15 757.70,359.34 758.05,359.30 758.40,359.49 758.75,359.73 759.10,359.88 759.45,360.07 759.80,360.50 760.15,360.39 760.50,360.34 760.85,360.27 761.20,360.29 761.55,360.19 761.90,360.25 762.25,360.23 762.60,360.23 762.95,360.08 763.30,359.78 763.65,359.49 764.00,359.20 764.35,359.15 764.70,359.05 765.05,358.96 765.40,358.62 765.75,358.62 766.10,358.73 766.45,359.12 766.80,359.50 767.15,359.89 767.50,360.18 767.85,360.62 768.20,360.89 768.55,360.81 768.90,360.96 769.25,361.20 769.60,361.64 769.95,361.68 770.30,361.92 770.65,362.26 771.00,362.74 771.35,363.03 771.70,363.52 772.05,363.86 772.40,364.25 772.75,364.66 773.10,365.05 773.45,365.44 773.80,365.59 774.15,365.78 774.50,366.12 774.85,366.59 775.20,366.69 775.55,366.41 775.90,366.07 776.25,365.87 776.60,365.54 776.95,365.17 777.30,364.88 777.65,364.63 778.00,364.34 778.35,363.97 778.70,363.65 779.05,363.31 779.40,362.97 779.75,362.73 780.10,362.39 780.45,362.13 780.80,361.90 781.15,361.95 781.50,361.79 781.85,361.40 782.20,361.11 782.55,360.77 782.90,360.31 783.25,360.21 783.60,360.16 783.95,360.19 784.30,360.16 784.65,360.47 785.00,360.76"/>
<line x1="813" y1="78" x2="839" y2="78" stroke="#dc2626" stroke-width="3"/>
<text x="847" y="82" font-family="Arial" font-size="13" fill="#111827">high volatility</text>
<polyline fill="none" stroke="#059669" stroke-width="2" points="85.00,365.87 85.35,365.97 85.70,365.95 86.05,365.95 86.40,366.09 86.75,366.09 87.10,365.99 87.45,365.82 87.80,365.82 88.15,365.89 88.50,365.91 88.85,366.10 89.20,366.10 89.55,366.00 89.90,366.02 90.25,365.92 90.60,365.91 90.95,365.82 91.30,365.83 91.65,365.91 92.00,365.90 92.35,365.95 92.70,366.14 93.05,366.12 93.40,365.93 93.75,365.69 94.10,365.69 94.45,365.41 94.80,365.17 95.15,364.88 95.50,364.44 95.85,364.11 96.20,363.87 96.55,363.54 96.90,363.21 97.25,362.77 97.60,362.42 97.95,362.03 98.30,361.58 98.65,361.25 99.00,360.91 99.35,360.42 99.70,360.09 100.05,359.84 100.40,359.50 100.75,359.17 101.10,358.83 101.45,358.53 101.80,358.14 102.15,357.84 102.50,357.51 102.85,357.20 103.20,356.79 103.55,356.54 103.90,356.46 104.25,356.26 104.60,356.22 104.95,355.92 105.30,355.63 105.65,355.49 106.00,355.68 106.35,355.53 106.70,355.60 107.05,355.35 107.40,355.45 107.75,355.50 108.10,355.35 108.45,355.30 108.80,355.25 109.15,355.23 109.50,355.01 109.85,354.62 110.20,354.38 110.55,354.23 110.90,354.14 111.25,354.06 111.60,354.11 111.95,354.23 112.30,354.14 112.65,354.14 113.00,354.08 113.35,354.13 113.70,354.28 114.05,354.13 114.40,354.18 114.75,354.19 115.10,354.23 115.45,354.23 115.80,354.13 116.15,354.07 116.50,354.17 116.85,354.36 117.20,354.46 117.55,354.51 117.90,354.51 118.25,354.51 118.60,354.70 118.95,354.74 119.30,354.94 119.65,354.88 120.00,354.79 120.35,354.79 120.70,355.10 121.05,355.07 121.40,355.03 121.75,354.74 122.10,354.62 122.45,354.52 122.80,354.62 123.15,354.62 123.50,354.86 123.85,354.91 124.20,355.19 124.55,355.46 124.90,355.80 125.25,356.29 125.60,356.65 125.95,356.99 126.30,357.33 126.65,357.61 127.00,358.09 127.35,358.42 127.70,358.67 128.05,359.03 128.40,359.18 128.75,359.27 129.10,359.54 129.45,359.88 129.80,360.27 130.15,360.57 130.50,360.81 130.85,360.98 131.20,361.02 131.55,360.92 131.90,360.82 132.25,360.90 132.60,361.13 132.95,361.30 133.30,361.27 133.65,361.32 134.00,361.41 134.35,361.48 134.70,361.48 135.05,361.34 135.40,361.40 135.75,361.50 136.10,361.64 136.45,361.73 136.80,361.68 137.15,361.82 137.50,361.84 137.85,361.93 138.20,361.81 138.55,362.14 138.90,362.26 139.25,362.55 139.60,362.90 139.95,363.34 140.30,363.68 140.65,363.92 141.00,364.27 141.35,364.45 141.70,364.35 142.05,364.45 142.40,364.48 142.75,364.45 143.10,364.52 143.45,364.47 143.80,364.33 144.15,364.38 144.50,364.26 144.85,364.21 145.20,364.45 145.55,364.45 145.90,364.59 146.25,364.74 146.60,364.74 146.95,364.62 147.30,364.52 147.65,364.52 148.00,364.66 148.35,364.62 148.70,364.71 149.05,364.63 149.40,364.73 149.75,364.87 150.10,364.87 150.45,364.78 150.80,364.92 151.15,364.87 151.50,364.58 151.85,364.40 152.20,364.49 152.55,364.54 152.90,364.63 153.25,364.72 153.60,364.72 153.95,364.72 154.30,364.58 154.65,364.48 155.00,364.66 155.35,364.71 155.70,364.61 156.05,364.64 156.40,364.70 156.75,364.67 157.10,364.58 157.45,364.72 157.80,364.92 158.15,364.86 158.50,365.10 158.85,365.00 159.20,365.05 159.55,365.37 159.90,365.29 160.25,365.42 160.60,364.98 160.95,364.69 161.30,364.35 161.65,364.11 162.00,363.73 162.35,363.45 162.70,363.15 163.05,362.86 163.40,362.62 163.75,362.57 164.10,362.38 164.45,362.43 164.80,362.57 165.15,362.76 165.50,363.02 165.85,363.26 166.20,363.46 166.55,363.87 166.90,364.14 167.25,364.43 167.60,364.82 167.95,365.21 168.30,365.50 168.65,365.76 169.00,366.15 169.35,366.54 169.70,366.88 170.05,367.31 170.40,367.56 170.75,367.80 171.10,368.20 171.45,368.50 171.80,368.88 172.15,369.27 172.50,369.71 172.85,370.09 173.20,370.52 173.55,370.86 173.90,371.20 174.25,371.59 174.60,372.02 174.95,372.22 175.30,372.55 175.65,373.02 176.00,373.31 176.35,373.67 176.70,374.06 177.05,374.35 177.40,374.64 177.75,374.91 178.10,375.25 178.45,375.64 178.80,376.02 179.15,376.34 179.50,376.68 179.85,377.07 180.20,377.40 180.55,377.79 180.90,378.21 181.25,378.60 181.60,378.87 181.95,379.16 182.30,379.60 182.65,379.99 183.00,380.33 183.35,380.66 183.70,381.00 184.05,381.28 184.40,381.61 184.75,382.12 185.10,382.27 185.45,382.66 185.80,382.95 186.15,383.38 186.50,383.65 186.85,383.99 187.20,384.42 187.55,384.81 187.90,385.05 188.25,385.46 188.60,385.71 188.95,386.08 189.30,386.56 189.65,386.95 190.00,387.38 190.35,387.76 190.70,388.15 191.05,388.59 191.40,388.92 191.75,389.34 192.10,389.83 192.45,390.02 192.80,390.15 193.15,390.49 193.50,390.87 193.85,391.16 194.20,391.50 194.55,391.71 194.90,392.10 195.25,392.50 195.60,392.98 195.95,393.32 196.30,393.71 196.65,393.90 197.00,394.39 197.35,394.44 197.70,394.35 198.05,394.37 198.40,394.32 198.75,394.32 199.10,394.20 199.45,394.11 199.80,394.11 200.15,394.10 200.50,394.01 200.85,394.10 201.20,394.19 201.55,394.20 201.90,394.15 202.25,394.18 202.60,394.32 202.95,394.64 203.30,394.88 203.65,395.32 204.00,395.63 204.35,396.02 204.70,396.26 205.05,396.55 205.40,396.49 205.75,396.73 206.10,396.69 206.45,396.69 206.80,396.78 207.15,396.63 207.50,396.49 207.85,396.72 208.20,396.96 208.55,397.30 208.90,397.64 209.25,398.05 209.60,398.49 209.95,398.78 210.30,399.02 210.65,399.28 211.00,399.13 211.35,399.37 211.70,399.40 212.05,399.40 212.40,399.20 212.75,399.16 213.10,399.03 213.45,399.08 213.80,399.37 214.15,399.71 214.50,400.05 214.85,400.15 215.20,400.54 215.55,400.73 215.90,400.88 216.25,401.03 216.60,401.31 216.95,401.60 217.30,401.99 217.65,402.28 218.00,402.53 218.35,402.77 218.70,403.15 219.05,403.49 219.40,403.87 219.75,404.21 220.10,404.49 220.45,404.83 220.80,404.94 221.15,405.12 221.50,404.88 221.85,405.13 222.20,405.40 222.55,405.50 222.90,405.59 223.25,405.92 223.60,406.31 223.95,406.69 224.30,407.08 224.65,407.43 225.00,407.86 225.35,408.10 225.70,408.44 226.05,408.79 226.40,409.03 226.75,409.22 227.10,409.51 227.45,409.90 227.80,410.24 228.15,410.53 228.50,410.97 228.85,411.35 229.20,411.74 229.55,412.01 229.90,412.35 230.25,412.69 230.60,413.12 230.95,413.50 231.30,413.84 231.65,414.08 232.00,414.52 232.35,414.81 232.70,415.16 233.05,415.45 233.40,415.79 233.75,416.11 234.10,416.49 234.45,416.88 234.80,417.06 235.15,417.35 235.50,417.49 235.85,417.52 236.20,417.76 236.55,418.15 236.90,418.37 237.25,418.71 237.60,419.05 237.95,419.39 238.30,419.77 238.65,420.06 239.00,420.32 239.35,420.66 239.70,421.11 240.05,421.51 240.40,421.90 240.75,422.24 241.10,422.63 241.45,423.01 241.80,423.40 242.15,423.84 242.50,424.23 242.85,424.47 243.20,424.80 243.55,424.90 243.90,424.93 244.25,424.98 244.60,425.02 244.95,424.88 245.30,425.13 245.65,425.39 246.00,425.73 246.35,425.93 246.70,426.22 247.05,426.56 247.40,426.85 247.75,426.94 248.10,426.65 248.45,426.70 248.80,426.85 249.15,426.94 249.50,426.85 249.85,426.65 250.20,426.36 250.55,426.31 250.90,426.13 251.25,426.38 251.60,426.82 251.95,427.16 252.30,427.50 252.65,427.88 253.00,428.22 253.35,428.58 253.70,428.91 254.05,429.24 254.40,429.68 254.75,429.70 255.10,429.84 255.45,429.55 255.80,429.40 256.15,429.58 256.50,429.83 256.85,429.97 257.20,429.97 257.55,429.97 257.90,430.02 258.25,430.12 258.60,430.12 258.95,430.37 259.30,430.71 259.65,430.70 260.00,430.43 260.35,430.38 260.70,430.43 261.05,430.53 261.40,430.78 261.75,430.97 262.10,431.24 262.45,431.58 262.80,431.94 263.15,432.42 263.50,432.62 263.85,432.95 264.20,433.29 264.55,433.63 264.90,433.99 265.25,434.38 265.60,434.67 265.95,434.96 266.30,435.20 266.65,435.64 267.00,435.98 267.35,436.03 267.70,436.37 268.05,436.41 268.40,436.46 268.75,436.50 269.10,436.24 269.45,436.00 269.80,435.72 270.15,435.38 270.50,434.99 270.85,434.81 271.20,434.58 271.55,434.41 271.90,434.36 272.25,434.45 272.60,434.25 272.95,434.20 273.30,434.06 273.65,433.87 274.00,433.58 274.35,433.63 274.70,433.68 275.05,433.59 275.40,433.51 275.75,433.61 276.10,433.59 276.45,433.56 276.80,433.51 277.15,433.26 277.50,433.26 277.85,433.17 278.20,433.18 278.55,433.42 278.90,433.81 279.25,434.20 279.60,434.68 279.95,434.58 280.30,434.41 280.65,434.50 281.00,434.81 281.35,435.24 281.70,435.24 282.05,435.01 282.40,435.30 282.75,435.64 283.10,435.80 283.45,435.88 283.80,436.32 284.15,436.55 284.50,436.99 284.85,437.28 285.20,437.57 285.55,437.73 285.90,438.02 286.25,438.36 286.60,438.66 286.95,439.00 287.30,439.05 287.65,439.30 288.00,439.26 288.35,439.11 288.70,438.97 289.05,438.63 289.40,438.29 289.75,438.12 290.10,438.22 290.45,437.95 290.80,437.95 291.15,437.86 291.50,437.76 291.85,437.57 292.20,437.57 292.55,437.77 292.90,437.86 293.25,438.05 293.60,438.37 293.95,438.60 294.30,438.89 294.65,439.08 295.00,439.17 295.35,439.27 295.70,439.42 296.05,439.90 296.40,440.10 296.75,440.48 297.10,440.48 297.45,440.19 297.80,440.02 298.15,439.73 298.50,439.37 298.85,439.05 299.20,438.90 299.55,439.00 299.90,438.86 300.25,438.77 300.60,438.62 300.95,438.72 301.30,438.64 301.65,438.40 302.00,438.04 302.35,437.84 302.70,437.76 303.05,437.66 303.40,437.69 303.75,437.57 304.10,437.47 304.45,437.28 304.80,437.15 305.15,437.06 305.50,437.04 305.85,436.82 306.20,436.46 306.55,436.18 306.90,435.79 307.25,435.45 307.60,435.15 307.95,434.67 308.30,434.52 308.65,434.19 309.00,433.99 309.35,433.75 309.70,433.51 310.05,433.14 310.40,432.85 310.75,432.47 311.10,432.13 311.45,431.70 311.80,431.34 312.15,430.97 312.50,430.49 312.85,430.10 313.20,429.71 313.55,429.42 313.90,429.04 314.25,428.77 314.60,428.38 314.95,427.99 315.30,427.61 315.65,427.32 316.00,426.98 316.35,426.73 316.70,426.49 317.05,426.05 317.40,425.75 317.75,425.46 318.10,425.12 318.45,424.74 318.80,424.38 319.15,424.30 319.50,423.87 319.85,423.51 320.20,423.12 320.55,422.78 320.90,422.53 321.25,422.19 321.60,421.71 321.95,421.32 322.30,421.03 322.65,420.60 323.00,420.26 323.35,419.93 323.70,419.66 324.05,419.17 324.40,418.69 324.75,418.42 325.10,418.08 325.45,417.69 325.80,417.28 326.15,416.94 326.50,416.56 326.85,416.17 327.20,415.73 327.55,415.42 327.90,414.99 328.25,414.46 328.60,414.08 328.95,413.64 329.30,413.25 329.65,413.00 330.00,412.62 330.35,412.23 330.70,411.83 331.05,411.40 331.40,410.92 331.75,410.68 332.10,410.38 332.45,410.05 332.80,409.66 333.15,409.39 333.50,409.00 333.85,408.62 334.20,408.29 334.55,407.86 334.90,407.52 335.25,407.12 335.60,406.74 335.95,406.35 336.30,406.00 336.65,405.71 337.00,405.29 337.35,404.86 337.70,404.62 338.05,404.32 338.40,404.03 338.75,403.65 339.10,403.26 339.45,402.97 339.80,402.63 340.15,402.30 340.50,402.01 340.85,401.63 341.20,401.32 341.55,401.13 341.90,400.84 342.25,400.52 342.60,400.27 342.95,399.94 343.30,399.55 343.65,399.24 344.00,398.80 344.35,398.32 344.70,398.02 345.05,397.73 345.40,397.39 345.75,397.06 346.10,396.68 346.45,396.34 346.80,395.93 347.15,395.74 347.50,395.40 347.85,395.06 348.20,394.82 348.55,394.58 348.90,394.24 349.25,393.80 349.60,393.46 349.95,393.03 350.30,392.64 350.65,392.26 351.00,391.92 351.35,391.63 351.70,391.19 352.05,390.80 352.40,390.46 352.75,390.08 353.10,389.79 353.45,389.59 353.80,389.40 354.15,389.11 354.50,389.16 354.85,389.34 355.20,389.74 355.55,390.05 355.90,390.00 356.25,389.85 356.60,389.52 356.95,389.63 357.30,389.68 357.65,389.68 358.00,389.63 358.35,389.60 358.70,389.55 359.05,389.57 359.40,389.58 359.75,389.56 360.10,389.41 360.45,389.21 360.80,389.06 361.15,389.06 361.50,389.11 361.85,389.11 362.20,389.20 362.55,389.12 362.90,389.07 363.25,389.03 363.60,388.93 363.95,388.89 364.30,388.89 364.65,388.79 365.00,388.69 365.35,388.62 365.70,388.45 366.05,388.16 366.40,387.78 366.75,387.31 367.10,387.20 367.45,386.87 367.80,386.72 368.15,386.43 368.50,386.09 368.85,385.75 369.20,385.30 369.55,384.86 369.90,384.42 370.25,384.08 370.60,383.60 370.95,383.26 371.30,383.07 371.65,382.97 372.00,382.78 372.35,382.53 372.70,382.20 373.05,382.15 373.40,382.17 373.75,382.17 374.10,382.22 374.45,382.22 374.80,382.16 375.15,382.11 375.50,382.21 375.85,382.31 376.20,382.31 376.55,382.29 376.90,382.34 377.25,382.29 377.60,382.35 377.95,382.16 378.30,381.90 378.65,381.59 379.00,381.50 379.35,381.11 379.70,380.87 380.05,380.67 380.40,380.38 380.75,379.97 381.10,379.55 381.45,379.19 381.80,379.00 382.15,378.86 382.50,378.91 382.85,378.47 383.20,378.26 383.55,378.24 383.90,378.05 384.25,378.15 384.60,377.81 384.95,377.60 385.30,377.32 385.65,376.98 386.00,376.60 386.35,376.35 386.70,375.92 387.05,375.63 387.40,375.38 387.75,374.95 388.10,374.61 388.45,374.27 388.80,373.80 389.15,373.46 389.50,373.20 389.85,372.86 390.20,372.47 390.55,372.09 390.90,371.71 391.25,371.52 391.60,371.23 391.95,370.95 392.30,370.54 392.65,370.30 393.00,369.99 393.35,369.56 393.70,369.17 394.05,368.78 394.40,368.49 394.75,368.19 395.10,367.97 395.45,367.58 395.80,367.44 396.15,366.96 396.50,366.60 396.85,366.23 397.20,365.85 397.55,365.45 397.90,365.16 398.25,364.92 398.60,364.62 398.95,364.29 399.30,364.27 399.65,364.25 400.00,364.18 400.35,364.19 400.70,363.80 401.05,363.37 401.40,363.01 401.75,362.76 402.10,362.84 402.45,362.79 402.80,362.95 403.15,363.05 403.50,362.90 403.85,362.85 404.20,362.66 404.55,362.56 404.90,362.61 405.25,362.73 405.60,362.63 405.95,362.53 406.30,362.34 406.65,361.90 407.00,361.95 407.35,361.95 407.70,362.00 408.05,361.99 408.40,361.96 408.75,362.00 409.10,362.11 409.45,362.08 409.80,361.98 410.15,361.96 410.50,362.03 410.85,361.90 411.20,361.90 411.55,362.13 411.90,362.08 412.25,362.03 412.60,362.03 412.95,361.99 413.30,362.01 413.65,362.09 414.00,362.03 414.35,362.04 414.70,362.01 415.05,362.26 415.40,362.06 415.75,361.67 416.10,361.43 416.45,361.09 416.80,360.80 417.15,360.37 417.50,360.17 417.85,359.86 418.20,359.54 418.55,359.25 418.90,358.96 419.25,358.57 419.60,358.14 419.95,357.80 420.30,357.36 420.65,356.98 421.00,356.59 421.35,356.25 421.70,355.93 422.05,355.54 422.40,355.25 422.75,354.86 423.10,354.46 423.45,354.05 423.80,353.86 424.15,353.52 424.50,353.13 424.85,352.69 425.20,352.35 425.55,352.02 425.90,351.58 426.25,351.18 426.60,350.89 426.95,350.60 427.30,350.21 427.65,349.82 428.00,349.43 428.35,349.08 428.70,348.79 429.05,348.45 429.40,348.07 429.75,347.73 430.10,347.34 430.45,347.05 430.80,346.86 431.15,346.56 431.50,346.17 431.85,345.83 432.20,345.53 432.55,345.19 432.90,344.95 433.25,344.52 433.60,344.18 433.95,343.98 434.30,343.55 434.65,343.26 435.00,342.87 435.35,342.48 435.70,342.19 436.05,341.92 436.40,341.53 436.75,341.10 437.10,340.71 437.45,340.47 437.80,340.07 438.15,339.68 438.50,339.29 438.85,338.95 439.20,338.60 439.55,338.31 439.90,337.92 440.25,337.55 440.60,337.25 440.95,336.92 441.30,336.58 441.65,336.24 442.00,335.90 442.35,335.58 442.70,335.21 443.05,334.92 443.40,334.61 443.75,334.27 444.10,334.08 444.45,333.78 444.80,333.34 445.15,333.05 445.50,332.57 445.85,332.23 446.20,331.84 446.55,331.60 446.90,331.31 447.25,331.07 447.60,330.77 447.95,330.39 448.30,330.00 448.65,329.63 449.00,329.25 449.35,328.95 449.70,328.66 450.05,328.37 450.40,328.03 450.75,327.59 451.10,327.27 451.45,326.93 451.80,326.68 452.15,326.39 452.50,325.96 452.85,325.47 453.20,325.09 453.55,324.69 453.90,324.36 454.25,324.00 454.60,323.56 454.95,323.37 455.30,323.03 455.65,322.74 456.00,322.49 456.35,322.06 456.70,321.81 457.05,321.42 457.40,321.08 457.75,320.74 458.10,320.41 458.45,319.97 458.80,319.73 459.15,319.44 459.50,319.00 459.85,318.66 460.20,318.32 460.55,317.94 460.90,317.55 461.25,317.36 461.60,317.09 461.95,316.80 462.30,316.37 462.65,315.93 463.00,315.64 463.35,315.45 463.70,315.06 464.05,314.77 464.40,314.39 464.75,314.02 465.10,313.63 465.45,313.43 465.80,313.48 466.15,313.46 466.50,313.42 466.85,313.47 467.20,313.40 467.55,313.43 467.90,313.52 468.25,313.23 468.60,313.39 468.95,313.20 469.30,313.24 469.65,313.14 470.00,312.99 470.35,312.93 470.70,313.27 471.05,313.22 471.40,313.44 471.75,313.54 472.10,313.59 472.45,313.40 472.80,313.74 473.15,313.98 473.50,314.42 473.85,314.81 474.20,315.07 474.55,315.45 474.90,315.75 475.25,315.79 475.60,315.84 475.95,315.79 476.30,315.84 476.65,315.84 477.00,315.81 477.35,315.81 477.70,315.81 478.05,315.68 478.40,315.70 478.75,315.76 479.10,315.80 479.45,315.85 479.80,315.85 480.15,315.85 480.50,316.04 480.85,315.99 481.20,315.76 481.55,315.76 481.90,315.61 482.25,315.62 482.60,315.51 482.95,315.56 483.30,315.41 483.65,315.51 484.00,315.51 484.35,315.56 484.70,315.73 485.05,315.76 485.40,315.72 485.75,315.72 486.10,315.62 486.45,315.53 486.80,315.62 487.15,315.71 487.50,315.75 487.85,315.90 488.20,315.90 488.55,315.85 488.90,315.90 489.25,315.56 489.60,315.56 489.95,315.46 490.30,315.46 490.65,315.46 491.00,315.52 491.35,315.57 491.70,315.48 492.05,315.45 492.40,315.50 492.75,315.75 493.10,316.08 493.45,316.47 493.80,316.66 494.15,316.61 494.50,316.56 494.85,316.59 495.20,316.96 495.55,317.20 495.90,317.59 496.25,317.93 496.60,318.26 496.95,318.70 497.30,319.10 497.65,319.34 498.00,319.73 498.35,320.16 498.70,320.55 499.05,321.03 499.40,321.47 499.75,321.72 500.10,322.15 500.45,322.29 500.80,322.58 501.15,322.97 501.50,323.31 501.85,323.60 502.20,324.06 502.55,324.35 502.90,324.52 503.25,324.95 503.60,325.29 503.95,325.68 504.30,326.02 504.65,326.37 505.00,326.71 505.35,327.10 505.70,327.49 506.05,327.92 506.40,328.36 506.75,328.76 507.10,329.18 507.45,329.51 507.80,329.90 508.15,330.29 508.50,330.56 508.85,330.90 509.20,331.29 509.55,331.62 509.90,331.94 510.25,332.33 510.60,332.56 510.95,332.97 511.30,333.41 511.65,333.74 512.00,334.12 512.35,334.51 512.70,334.85 513.05,335.20 513.40,335.53 513.75,335.92 514.10,336.26 514.45,336.70 514.80,336.94 515.15,337.28 515.50,337.43 515.85,337.77 516.20,338.16 516.55,338.54 516.90,338.83 517.25,339.32 517.60,339.70 517.95,340.04 518.30,340.43 518.65,340.79 519.00,341.12 519.35,341.34 519.70,341.73 520.05,342.02 520.40,342.25 520.75,342.64 521.10,343.13 521.45,343.51 521.80,343.95 522.15,344.23 522.50,344.61 522.85,344.95 523.20,345.34 523.55,345.73 523.90,346.11 524.25,346.50 524.60,346.92 524.95,347.21 525.30,347.41 525.65,347.83 526.00,348.17 526.35,348.51 526.70,348.71 527.05,348.74 527.40,348.80 527.75,348.99 528.10,349.19 528.45,349.48 528.80,349.77 529.15,350.11 529.50,350.30 529.85,350.30 530.20,350.37 530.55,350.32 530.90,350.47 531.25,350.33 531.60,350.47 531.95,350.68 532.30,350.77 532.65,350.69 533.00,350.75 533.35,350.74 533.70,350.64 534.05,350.69 534.40,350.84 534.75,350.73 535.10,350.68 535.45,350.49 535.80,350.34 536.15,350.34 536.50,350.39 536.85,350.20 537.20,350.30 537.55,350.46 537.90,350.41 538.25,350.41 538.60,350.31 538.95,350.51 539.30,350.90 539.65,351.26 540.00,351.55 540.35,351.88 540.70,352.22 541.05,352.34 541.40,352.43 541.75,352.49 542.10,352.59 542.45,352.50 542.80,352.43 543.15,352.28 543.50,352.30 543.85,352.30 544.20,352.25 544.55,352.36 544.90,352.29 545.25,352.49 545.60,352.44 545.95,352.51 546.30,352.53 546.65,352.43 547.00,352.63 547.35,352.45 547.70,352.20 548.05,352.25 548.40,352.20 548.75,352.23 549.10,352.35 549.45,352.30 549.80,352.33 550.15,352.38 550.50,352.57 550.85,352.43 551.20,352.48 551.55,352.56 551.90,352.52 552.25,352.23 552.60,351.99 552.95,352.02 553.30,351.87 553.65,351.93 554.00,351.73 554.35,351.69 554.70,351.95 555.05,352.24 555.40,352.54 555.75,352.98 556.10,353.31 556.45,353.70 556.80,353.94 557.15,354.19 557.50,354.28 557.85,354.43 558.20,354.38 558.55,354.33 558.90,354.19 559.25,354.10 559.60,354.20 559.95,354.14 560.30,354.24 560.65,354.19 561.00,354.28 561.35,354.09 561.70,354.20 562.05,354.10 562.40,354.05 562.75,354.17 563.10,354.00 563.45,353.86 563.80,353.74 564.15,353.82 564.50,354.06 564.85,354.23 565.20,354.38 565.55,354.57 565.90,354.47 566.25,354.33 566.60,354.28 566.95,354.24 567.30,354.32 567.65,354.24 568.00,354.27 568.35,354.27 568.70,354.13 569.05,354.18 569.40,354.28 569.75,354.18 570.10,354.13 570.45,354.08 570.80,354.23 571.15,354.43 571.50,354.48 571.85,354.53 572.20,354.63 572.55,354.97 572.90,355.30 573.25,355.74 573.60,355.98 573.95,356.27 574.30,356.56 574.65,356.76 575.00,357.19 575.35,357.63 575.70,357.97 576.05,358.31 576.40,358.70 576.75,358.89 577.10,359.08 577.45,359.42 577.80,359.62 578.15,359.93 578.50,360.29 578.85,360.68 579.20,361.06 579.55,361.46 579.90,361.70 580.25,362.04 580.60,362.33 580.95,362.53 581.30,362.87 581.65,363.22 582.00,363.50 582.35,363.84 582.70,364.23 583.05,364.52 583.40,364.95 583.75,365.29 584.10,365.68 584.45,366.02 584.80,366.38 585.15,366.77 585.50,367.15 585.85,367.54 586.20,367.98 586.55,368.27 586.90,368.56 587.25,368.99 587.60,369.33 587.95,369.62 588.30,370.11 588.65,370.50 589.00,370.71 589.35,371.10 589.70,371.29 590.05,371.60 590.40,371.71 590.75,372.05 591.10,372.44 591.45,372.87 591.80,373.30 592.15,373.25 592.50,373.39 592.85,373.28 593.20,373.47 593.55,373.38 593.90,373.08 594.25,372.91 594.60,372.87 594.95,372.93 595.30,372.93 595.65,372.94 596.00,373.03 596.35,372.89 596.70,372.76 597.05,372.72 597.40,372.66 597.75,372.66 598.10,372.72 598.45,372.69 598.80,372.72 599.15,372.62 599.50,372.59 599.85,372.69 600.20,372.47 600.55,372.18 600.90,371.79 601.25,371.54 601.60,371.15 601.95,370.71 602.30,370.42 602.65,370.00 603.00,369.63 603.35,369.44 603.70,369.18 604.05,368.84 604.40,368.47 604.75,368.08 605.10,367.74 605.45,367.45 605.80,367.21 606.15,366.78 606.50,366.44 606.85,366.08 607.20,365.74 607.55,365.40 607.90,365.16 608.25,364.77 608.60,364.43 608.95,363.95 609.30,363.66 609.65,363.56 610.00,363.07 610.35,362.69 610.70,362.35 611.05,361.86 611.40,361.48 611.75,361.22 612.10,360.95 612.45,360.54 612.80,360.20 613.15,359.81 613.50,359.52 613.85,359.13 614.20,358.79 614.55,358.45 614.90,358.11 615.25,357.65 615.60,357.16 615.95,356.87 616.30,356.44 616.65,356.10 617.00,355.66 617.35,355.32 617.70,354.92 618.05,354.53 618.40,354.15 618.75,353.84 619.10,353.63 619.45,353.25 619.80,353.19 620.15,353.28 620.50,353.33 620.85,353.45 621.20,353.36 621.55,352.99 621.90,352.78 622.25,352.39 622.60,352.07 622.95,351.63 623.30,351.29 623.65,351.08 624.00,350.69 624.35,350.30 624.70,349.98 625.05,349.79 625.40,349.51 625.75,349.22 626.10,348.83 626.45,348.44 626.80,348.05 627.15,347.66 627.50,347.33 627.85,346.94 628.20,346.60 628.55,346.29 628.90,345.96 629.25,345.53 629.60,345.19 629.95,344.75 630.30,344.51 630.65,344.08 631.00,343.78 631.35,343.40 631.70,343.11 632.05,342.75 632.40,342.44 632.75,342.09 633.10,341.81 633.45,341.28 633.80,340.85 634.15,340.56 634.50,340.32 634.85,339.93 635.20,339.69 635.55,339.25 635.90,338.81 636.25,338.38 636.60,337.99 636.95,337.65 637.30,337.26 637.65,336.78 638.00,336.49 638.35,336.26 638.70,335.90 639.05,335.48 639.40,335.04 639.75,334.70 640.10,334.44 640.45,334.20 640.80,333.86 641.15,333.48 641.50,333.14 641.85,332.80 642.20,332.41 642.55,332.07 642.90,331.75 643.25,331.40 643.60,331.01 643.95,330.53 644.30,330.04 644.65,329.75 645.00,329.45 645.35,329.06 645.70,328.86 646.05,328.57 646.40,328.19 646.75,327.90 647.10,327.60 647.45,327.22 647.80,326.88 648.15,326.44 648.50,326.14 648.85,325.79 649.20,325.40 649.55,325.04 649.90,324.79 650.25,324.40 650.60,324.06 650.95,323.72 651.30,323.33 651.65,322.94 652.00,322.52 652.35,322.12 652.70,321.68 653.05,321.35 653.40,320.91 653.75,320.52 654.10,320.31 654.45,320.02 654.80,319.82 655.15,319.41 655.50,319.12 655.85,318.68 656.20,318.39 656.55,318.05 656.90,317.76 657.25,317.39 657.60,317.02 657.95,316.65 658.30,316.40 658.65,316.07 659.00,315.77 659.35,315.39 659.70,315.08 660.05,314.79 660.40,314.51 660.75,314.03 661.10,313.74 661.45,313.39 661.80,313.04 662.15,312.75 662.50,312.41 662.85,312.02 663.20,311.69 663.55,311.54 663.90,311.10 664.25,310.68 664.60,310.45 664.95,310.13 665.30,310.02 665.65,309.79 666.00,309.32 666.35,309.03 666.70,308.64 667.05,308.35 667.40,307.87 667.75,307.51 668.10,307.19 668.45,306.80 668.80,306.42 669.15,305.93 669.50,305.54 669.85,305.06 670.20,304.77 670.55,304.38 670.90,303.95 671.25,303.56 671.60,303.13 671.95,302.69 672.30,302.45 672.65,302.06 673.00,301.62 673.35,301.29 673.70,300.80 674.05,300.66 674.40,300.22 674.75,299.87 675.10,299.48 675.45,299.08 675.80,298.69 676.15,298.45 676.50,298.20 676.85,297.81 677.20,297.52 677.55,297.13 677.90,296.89 678.25,296.50 678.60,296.16 678.95,295.83 679.30,295.47 679.65,295.23 680.00,294.79 680.35,294.45 680.70,294.16 681.05,293.78 681.40,293.44 681.75,293.10 682.10,292.76 682.45,292.42 682.80,292.10 683.15,291.80 683.50,291.39 683.85,290.96 684.20,290.62 684.55,290.39 684.90,290.06 685.25,289.72 685.60,289.28 685.95,288.94 686.30,288.55 686.65,288.21 687.00,287.82 687.35,287.48 687.70,287.09 688.05,286.61 688.40,286.32 688.75,285.93 689.10,285.71 689.45,285.38 689.80,285.09 690.15,284.70 690.50,284.50 690.85,284.17 691.20,283.90 691.55,283.56 691.90,283.18 692.25,283.08 692.60,282.98 692.95,282.93 693.30,282.98 693.65,282.84 694.00,282.89 694.35,283.08 694.70,283.20 695.05,282.93 695.40,282.64 695.75,282.52 696.10,282.42 696.45,282.03 696.80,281.88 697.15,281.74 697.50,281.79 697.85,281.44 698.20,281.05 698.55,280.71 698.90,280.42 699.25,280.13 699.60,279.98 699.95,280.08 700.30,280.00 700.65,280.20 701.00,279.85 701.35,279.65 701.70,279.47 702.05,279.30 702.40,279.01 702.75,278.57 703.10,278.28 703.45,277.99 703.80,277.56 704.15,277.22 704.50,276.88 704.85,276.57 705.20,276.28 705.55,275.97 705.90,275.73 706.25,275.35 706.60,275.13 706.95,274.87 707.30,274.87 707.65,274.79 708.00,274.89 708.35,274.67 708.70,274.82 709.05,274.70 709.40,274.66 709.75,274.78 710.10,274.86 710.45,274.87 710.80,274.85 711.15,274.70 711.50,274.32 711.85,274.03 712.20,273.81 712.55,273.61 712.90,273.32 713.25,273.55 713.60,273.69 713.95,273.71 714.30,273.67 714.65,273.48 715.00,273.53 715.35,273.33 715.70,272.96 716.05,272.63 716.40,272.48 716.75,272.51 717.10,272.19 717.45,272.06 717.80,272.06 718.15,272.01 718.50,271.74 718.85,271.35 719.20,270.88 719.55,270.54 719.90,270.10 720.25,269.63 720.60,269.24 720.95,269.38 721.30,269.53 721.65,269.31 722.00,269.21 722.35,269.21 722.70,269.33 723.05,269.24 723.40,269.38 723.75,269.17 724.10,268.83 724.45,268.54 724.80,268.24 725.15,267.96 725.50,267.64 725.85,267.30 726.20,267.11 726.55,267.00 726.90,266.66 727.25,266.27 727.60,265.88 727.95,265.49 728.30,265.11 728.65,264.87 729.00,264.56 729.35,264.13 729.70,263.64 730.05,263.30 730.40,263.01 730.75,262.67 731.10,262.37 731.45,262.18 731.80,261.79 732.15,261.50 732.50,261.26 732.85,260.97 733.20,260.58 733.55,260.19 733.90,259.85 734.25,259.42 734.60,259.17 734.95,258.79 735.30,258.59 735.65,258.35 736.00,258.11 736.35,257.94 736.70,257.70 737.05,257.39 737.40,257.16 737.75,256.74 738.10,256.40 738.45,256.26 738.80,255.92 739.15,255.49 739.50,255.10 739.85,254.71 740.20,254.42 740.55,254.13 740.90,253.83 741.25,253.59 741.60,253.25 741.95,253.01 742.30,252.58 742.65,252.19 743.00,252.14 743.35,252.19 743.70,252.30 744.05,252.55 744.40,252.89 744.75,253.22 745.10,253.61 745.45,253.87 745.80,253.97 746.15,254.12 746.50,253.89 746.85,253.50 747.20,253.07 747.55,252.97 747.90,252.95 748.25,253.02 748.60,253.02 748.95,252.54 749.30,252.14 749.65,251.84 750.00,251.50 750.35,251.07 750.70,250.75 751.05,250.51 751.40,250.26 751.75,249.93 752.10,249.78 752.45,249.44 752.80,249.15 753.15,248.76 753.50,248.55 753.85,248.21 754.20,247.97 754.55,247.53 754.90,247.48 755.25,247.39 755.60,247.54 755.95,247.95 756.30,248.24 756.65,248.21 757.00,248.26 757.35,248.16 757.70,248.08 758.05,247.99 758.40,248.09 758.75,248.22 759.10,247.92 759.45,247.48 759.80,247.10 760.15,246.81 760.50,246.58 760.85,246.38 761.20,246.25 761.55,245.85 761.90,245.44 762.25,245.07 762.60,244.73 762.95,244.34 763.30,244.18 763.65,243.89 764.00,243.84 764.35,243.58 764.70,243.75 765.05,243.75 765.40,243.47 765.75,243.32 766.10,243.14 766.45,242.90 766.80,242.46 767.15,242.15 767.50,241.84 767.85,241.40 768.20,241.14 768.55,240.87 768.90,240.73 769.25,240.57 769.60,240.42 769.95,240.55 770.30,240.61 770.65,240.71 771.00,240.52 771.35,240.61 771.70,240.58 772.05,240.53 772.40,240.44 772.75,240.39 773.10,240.39 773.45,240.38 773.80,240.43 774.15,240.26 774.50,240.45 774.85,240.39 775.20,240.48 775.55,240.58 775.90,240.56 776.25,240.43 776.60,240.24 776.95,239.75 777.30,239.41 777.65,238.98 778.00,238.60 778.35,238.26 778.70,237.83 779.05,237.64 779.40,237.54 779.75,237.45 780.10,237.45 780.45,237.42 780.80,237.42 781.15,237.13 781.50,237.15 781.85,237.13 782.20,237.17 782.55,236.84 782.90,237.03 783.25,236.89 783.60,236.94 783.95,237.14 784.30,237.18 784.65,237.18 785.00,237.37"/>
<line x1="813" y1="102" x2="839" y2="102" stroke="#059669" stroke-width="3"/>
<text x="847" y="106" font-family="Arial" font-size="13" fill="#111827">trending</text>
<text x="435.0" y="518" text-anchor="middle" font-family="Arial" font-size="14" fill="#111827">Event index</text>
<text x="22" y="256.0" text-anchor="middle" transform="rotate(-90 22 256.0)" font-family="Arial" font-size="14" fill="#111827">Inventory</text>
</svg>
