<svg xmlns="http://www.w3.org/2000/svg" width="940" height="720" viewBox="0 0 940 720">
<rect width="100%" height="100%" fill="#ffffff"/>
<text x="470.0" y="26" text-anchor="middle" font-family="Arial" font-size="18" fill="#111827">Avellaneda Stoikov Trending Inventory And Reservation Skew</text>
<line x1="85" y1="228.67" x2="900" y2="228.67" stroke="#111827" stroke-width="1"/>
<line x1="85" y1="46.00" x2="85" y2="228.67" stroke="#111827" stroke-width="1"/>
<text x="73" y="60.00" text-anchor="end" font-family="Arial" font-size="12" fill="#111827">Inventory</text>
<line x1="85" y1="228.67" x2="900" y2="228.67" stroke="#e5e7eb" stroke-width="1"/>
<text x="73" y="232.67" text-anchor="end" font-family="Arial" font-size="11" fill="#374151">-18764</text>
<line x1="85" y1="137.33" x2="900" y2="137.33" stroke="#e5e7eb" stroke-width="1"/>
<text x="73" y="141.33" text-anchor="end" font-family="Arial" font-size="11" fill="#374151">5618</text>
<line x1="85" y1="46.00" x2="900" y2="46.00" stroke="#e5e7eb" stroke-width="1"/>
<text x="73" y="50.00" text-anchor="end" font-family="Arial" font-size="11" fill="#374151">30000</text>
<polyline fill="none" stroke="#2563eb" stroke-width="2" points="85.00,158.38 85.41,158.45 85.82,158.43 86.22,158.43 86.63,158.55 87.04,158.55 87.45,158.46 87.85,158.34 88.26,158.34 88.67,158.39 89.08,158.41 89.48,158.55 89.89,158.55 90.30,158.48 90.71,158.49 91.11,158.42 91.52,158.41 91.93,158.33 92.34,158.34 92.74,158.40 93.15,158.40 93.56,158.43 93.97,158.58 94.37,158.57 94.78,158.42 95.19,158.23 95.60,158.23 96.00,158.02 96.41,157.83 96.82,157.61 97.23,157.27 97.63,157.01 98.04,156.83 98.45,156.57 98.86,156.32 99.26,155.98 99.67,155.71 100.08,155.41 100.49,155.06 100.89,154.80 101.30,154.54 101.71,154.16 102.12,153.90 102.52,153.71 102.93,153.45 103.34,153.19 103.75,152.93 104.15,152.70 104.56,152.40 104.97,152.17 105.38,151.91 105.78,151.67 106.19,151.35 106.60,151.16 107.01,151.10 107.41,150.95 107.82,150.91 108.23,150.68 108.64,150.46 109.04,150.35 109.45,150.49 109.86,150.38 110.27,150.43 110.67,150.24 111.08,150.32 111.49,150.35 111.90,150.24 112.30,150.20 112.71,150.16 113.12,150.14 113.53,149.98 113.93,149.68 114.34,149.49 114.75,149.38 115.16,149.31 115.56,149.25 115.97,149.28 116.38,149.38 116.79,149.30 117.19,149.31 117.60,149.26 118.01,149.30 118.42,149.41 118.82,149.29 119.23,149.33 119.64,149.34 120.05,149.38 120.45,149.38 120.86,149.29 121.27,149.25 121.68,149.32 122.08,149.47 122.49,149.55 122.90,149.59 123.31,149.59 123.71,149.59 124.12,149.74 124.53,149.77 124.94,149.92 125.34,149.87 125.75,149.81 126.16,149.81 126.57,150.04 126.97,150.02 127.38,149.99 127.79,149.77 128.20,149.67 128.60,149.60 129.01,149.67 129.42,149.67 129.83,149.86 130.23,149.90 130.64,150.11 131.05,150.33 131.46,150.59 131.86,150.96 132.27,151.25 132.68,151.51 133.09,151.77 133.49,151.98 133.90,152.35 134.31,152.62 134.72,152.80 135.12,153.08 135.53,153.20 135.94,153.27 136.35,153.48 136.75,153.74 137.16,154.04 137.57,154.27 137.98,154.46 138.38,154.59 138.79,154.62 139.20,154.55 139.61,154.47 140.01,154.53 140.42,154.71 140.83,154.84 141.24,154.82 141.64,154.85 142.05,154.92 142.46,154.98 142.87,154.98 143.27,154.87 143.68,154.92 144.09,154.99 144.50,155.10 144.90,155.17 145.31,155.13 145.72,155.25 146.13,155.26 146.53,155.33 146.94,155.24 147.35,155.49 147.76,155.58 148.16,155.81 148.57,156.08 148.98,156.42 149.39,156.68 149.79,156.87 150.20,157.13 150.61,157.27 151.02,157.20 151.42,157.27 151.83,157.30 152.24,157.27 152.65,157.33 153.05,157.30 153.46,157.18 153.87,157.22 154.28,157.13 154.68,157.09 155.09,157.27 155.50,157.27 155.91,157.39 156.31,157.50 156.72,157.50 157.13,157.40 157.54,157.33 157.94,157.33 158.35,157.44 158.76,157.40 159.17,157.48 159.57,157.42 159.98,157.49 160.39,157.60 160.80,157.60 161.20,157.53 161.61,157.64 162.02,157.60 162.43,157.38 162.83,157.24 163.24,157.31 163.65,157.34 164.06,157.42 164.46,157.49 164.87,157.49 165.28,157.49 165.69,157.37 166.09,157.30 166.50,157.44 166.91,157.48 167.32,157.40 167.72,157.43 168.13,157.47 168.54,157.45 168.95,157.37 169.35,157.49 169.76,157.64 170.17,157.59 170.58,157.78 170.98,157.70 171.39,157.74 171.80,157.98 172.21,157.93 172.61,158.03 173.02,157.69 173.43,157.46 173.84,157.20 174.24,157.01 174.65,156.72 175.06,156.50 175.47,156.27 175.87,156.05 176.28,155.86 176.69,155.82 177.10,155.67 177.50,155.71 177.91,155.82 178.32,155.97 178.73,156.17 179.13,156.36 179.54,156.51 179.95,156.83 180.36,157.04 180.76,157.26 181.17,157.56 181.58,157.86 181.99,158.09 182.39,158.29 182.80,158.59 183.21,158.89 183.62,159.15 184.02,159.49 184.43,159.68 184.84,159.87 185.25,160.18 185.65,160.40 186.06,160.70 186.47,161.00 186.88,161.34 187.28,161.64 187.69,161.97 188.10,162.23 188.51,162.49 188.91,162.79 189.32,163.13 189.73,163.28 190.14,163.54 190.54,163.90 190.95,164.12 191.36,164.41 191.77,164.70 192.17,164.93 192.58,165.16 192.99,165.36 193.40,165.63 193.80,165.93 194.21,166.23 194.62,166.47 195.03,166.73 195.43,167.03 195.84,167.29 196.25,167.59 196.66,167.92 197.06,168.21 197.47,168.43 197.88,168.65 198.29,168.99 198.69,169.29 199.10,169.55 199.51,169.81 199.92,170.08 200.32,170.29 200.73,170.55 201.14,170.94 201.55,171.05 201.95,171.35 202.36,171.58 202.77,171.92 203.18,172.12 203.58,172.38 203.99,172.72 204.40,173.02 204.81,173.21 205.21,173.52 205.62,173.71 206.03,174.00 206.44,174.37 206.84,174.67 207.25,175.01 207.66,175.30 208.07,175.60 208.47,175.94 208.88,176.20 209.29,176.52 209.70,176.90 210.10,177.05 210.51,177.15 210.92,177.41 211.33,177.70 211.73,177.93 212.14,178.19 212.55,178.36 212.96,178.66 213.36,178.97 213.77,179.34 214.18,179.60 214.59,179.90 214.99,180.05 215.40,180.43 215.81,180.46 216.22,180.39 216.62,180.41 217.03,180.37 217.44,180.37 217.85,180.28 218.25,180.21 218.66,180.21 219.07,180.21 219.48,180.13 219.88,180.21 220.29,180.28 220.70,180.28 221.11,180.24 221.51,180.26 221.92,180.37 222.33,180.62 222.74,180.81 223.14,181.15 223.55,181.39 223.96,181.69 224.37,181.88 224.77,182.10 225.18,182.05 225.59,182.24 226.00,182.21 226.40,182.21 226.81,182.27 227.22,182.16 227.63,182.05 228.03,182.23 228.44,182.42 228.85,182.68 229.26,182.94 229.66,183.26 230.07,183.60 230.48,183.82 230.89,184.01 231.29,184.21 231.70,184.09 232.11,184.28 232.52,184.30 232.92,184.30 233.33,184.15 233.74,184.11 234.15,184.02 234.55,184.06 234.96,184.28 235.37,184.54 235.78,184.81 236.18,184.88 236.59,185.18 237.00,185.33 237.41,185.44 237.81,185.56 238.22,185.78 238.63,186.00 239.04,186.30 239.44,186.53 239.85,186.72 240.26,186.91 240.67,187.20 241.07,187.46 241.48,187.76 241.89,188.02 242.30,188.24 242.70,188.50 243.11,188.59 243.52,188.72 243.93,188.54 244.33,188.73 244.74,188.94 245.15,189.02 245.56,189.09 245.96,189.34 246.37,189.64 246.78,189.94 247.19,190.24 247.59,190.51 248.00,190.84 248.41,191.03 248.82,191.29 249.22,191.56 249.63,191.75 250.04,191.90 250.45,192.12 250.85,192.42 251.26,192.68 251.67,192.91 252.08,193.25 252.48,193.54 252.89,193.84 253.30,194.05 253.71,194.31 254.11,194.57 254.52,194.91 254.93,195.20 255.34,195.47 255.74,195.65 256.15,195.99 256.56,196.22 256.97,196.49 257.37,196.71 257.78,196.97 258.19,197.22 258.60,197.52 259.00,197.82 259.41,197.96 259.82,198.18 260.23,198.29 260.63,198.31 261.04,198.50 261.45,198.80 261.86,198.97 262.26,199.23 262.67,199.49 263.08,199.76 263.49,200.06 263.89,200.28 264.30,200.48 264.71,200.74 265.12,201.09 265.52,201.40 265.93,201.70 266.34,201.96 266.75,202.26 267.15,202.56 267.56,202.86 267.97,203.20 268.38,203.50 268.78,203.68 269.19,203.94 269.60,204.02 270.01,204.04 270.41,204.08 270.82,204.12 271.23,204.00 271.64,204.20 272.04,204.40 272.45,204.66 272.86,204.81 273.27,205.04 273.67,205.30 274.08,205.52 274.49,205.60 274.90,205.37 275.30,205.41 275.71,205.52 276.12,205.60 276.53,205.52 276.93,205.37 277.34,205.15 277.75,205.11 278.16,204.97 278.56,205.16 278.97,205.50 279.38,205.76 279.79,206.03 280.19,206.33 280.60,206.59 281.01,206.86 281.42,207.12 281.82,207.38 282.23,207.72 282.64,207.73 283.05,207.84 283.45,207.62 283.86,207.50 284.27,207.64 284.68,207.83 285.08,207.94 285.49,207.94 285.90,207.94 286.31,207.98 286.71,208.05 287.12,208.05 287.53,208.25 287.94,208.51 288.34,208.50 288.75,208.29 289.16,208.25 289.57,208.29 289.97,208.37 290.38,208.57 290.79,208.72 291.20,208.93 291.60,209.19 292.01,209.46 292.42,209.84 292.83,209.99 293.23,210.25 293.64,210.51 294.05,210.77 294.46,211.05 294.86,211.35 295.27,211.57 295.68,211.80 296.09,211.99 296.49,212.32 296.90,212.59 297.31,212.62 297.72,212.88 298.12,212.92 298.53,212.96 298.94,212.99 299.35,212.79 299.75,212.60 300.16,212.38 300.57,212.12 300.98,211.82 301.38,211.68 301.79,211.50 302.20,211.38 302.61,211.34 303.01,211.40 303.42,211.25 303.83,211.21 304.24,211.11 304.64,210.96 305.05,210.73 305.46,210.77 305.87,210.81 306.27,210.74 306.68,210.68 307.09,210.75 307.50,210.74 307.90,210.71 308.31,210.67 308.72,210.49 309.13,210.49 309.53,210.42 309.94,210.42 310.35,210.61 310.76,210.91 311.16,211.21 311.57,211.59 311.98,211.50 312.39,211.37 312.79,211.44 313.20,211.68 313.61,212.02 314.02,212.01 314.42,211.84 314.83,212.06 315.24,212.32 315.65,212.45 316.05,212.51 316.46,212.85 316.87,213.03 317.28,213.36 317.68,213.59 318.09,213.81 318.50,213.94 318.91,214.16 319.31,214.43 319.72,214.66 320.13,214.92 320.54,214.96 320.94,215.15 321.35,215.12 321.76,215.01 322.17,214.90 322.57,214.63 322.98,214.37 323.39,214.24 323.80,214.32 324.20,214.11 324.61,214.11 325.02,214.04 325.43,213.96 325.83,213.81 326.24,213.82 326.65,213.97 327.06,214.04 327.46,214.18 327.87,214.44 328.28,214.61 328.69,214.84 329.09,214.99 329.50,215.06 329.91,215.13 330.32,215.24 330.72,215.62 331.13,215.77 331.54,216.07 331.95,216.07 332.35,215.84 332.76,215.71 333.17,215.49 333.58,215.21 333.98,214.96 334.39,214.84 334.80,214.92 335.21,214.82 335.61,214.74 336.02,214.63 336.43,214.71 336.84,214.65 337.24,214.46 337.65,214.18 338.06,214.03 338.47,213.96 338.87,213.89 339.28,213.91 339.69,213.81 340.10,213.74 340.50,213.59 340.91,213.50 341.32,213.42 341.73,213.41 342.13,213.23 342.54,212.96 342.95,212.74 343.36,212.44 343.76,212.18 344.17,211.94 344.58,211.58 344.99,211.46 345.39,211.20 345.80,211.05 346.21,210.86 346.62,210.67 347.02,210.39 347.43,210.17 347.84,209.87 348.25,209.61 348.65,209.27 349.06,209.00 349.47,208.71 349.88,208.34 350.28,208.04 350.69,207.74 351.10,207.52 351.51,207.22 351.91,207.02 352.32,206.71 352.73,206.41 353.14,206.11 353.54,205.89 353.95,205.63 354.36,205.43 354.77,205.25 355.17,204.91 355.58,204.68 355.99,204.45 356.40,204.19 356.80,203.89 357.21,203.62 357.62,203.56 358.03,203.22 358.43,202.94 358.84,202.64 359.25,202.38 359.66,202.19 360.06,201.92 360.47,201.55 360.88,201.25 361.29,201.03 361.69,200.69 362.10,200.43 362.51,200.17 362.92,199.97 363.32,199.59 363.73,199.22 364.14,199.01 364.55,198.74 364.95,198.44 365.36,198.13 365.77,197.87 366.18,197.57 366.58,197.27 366.99,196.93 367.40,196.69 367.81,196.35 368.21,195.95 368.62,195.65 369.03,195.31 369.44,195.01 369.84,194.82 370.25,194.52 370.66,194.22 371.07,193.92 371.47,193.58 371.88,193.21 372.29,193.02 372.70,192.80 373.10,192.53 373.51,192.23 373.92,192.03 374.33,191.73 374.73,191.43 375.14,191.18 375.55,190.84 375.96,190.58 376.36,190.27 376.77,189.97 377.18,189.68 377.59,189.41 377.99,189.18 378.40,188.86 378.81,188.52 379.22,188.33 379.62,188.11 380.03,187.88 380.44,187.58 380.85,187.29 381.25,187.06 381.66,186.80 382.07,186.55 382.48,186.32 382.88,186.02 383.29,185.79 383.70,185.64 384.11,185.41 384.51,185.17 384.92,184.98 385.33,184.72 385.74,184.42 386.14,184.18 386.55,183.84 386.96,183.46 387.37,183.24 387.77,183.01 388.18,182.75 388.59,182.49 389.00,182.19 389.40,181.93 389.81,181.62 390.22,181.47 390.63,181.21 391.03,180.94 391.44,180.76 391.85,180.57 392.26,180.31 392.66,179.97 393.07,179.71 393.48,179.37 393.89,179.07 394.29,178.78 394.70,178.52 395.11,178.29 395.52,177.95 395.92,177.65 396.33,177.39 396.74,177.09 397.15,176.87 397.55,176.72 397.96,176.57 398.37,176.34 398.78,176.38 399.18,176.52 399.59,176.83 400.00,177.07 400.41,177.03 400.81,176.92 401.22,176.66 401.63,176.74 402.04,176.78 402.44,176.78 402.85,176.74 403.26,176.73 403.67,176.69 404.07,176.70 404.48,176.71 404.89,176.69 405.30,176.58 405.70,176.42 406.11,176.31 406.52,176.31 406.93,176.35 407.33,176.35 407.74,176.41 408.15,176.35 408.56,176.32 408.96,176.28 409.37,176.21 409.78,176.17 410.19,176.17 410.59,176.10 411.00,176.02 411.41,175.97 411.82,175.84 412.22,175.61 412.63,175.31 413.04,174.95 413.45,174.87 413.85,174.61 414.26,174.50 414.67,174.27 415.08,174.01 415.48,173.75 415.89,173.40 416.30,173.06 416.71,172.72 417.11,172.46 417.52,172.08 417.93,171.82 418.34,171.67 418.74,171.60 419.15,171.45 419.56,171.26 419.97,171.00 420.37,170.96 420.78,170.98 421.19,170.98 421.60,171.02 422.00,171.02 422.41,170.97 422.82,170.93 423.23,171.01 423.63,171.08 424.04,171.08 424.45,171.07 424.86,171.11 425.26,171.07 425.67,171.12 426.08,170.97 426.49,170.77 426.89,170.53 427.30,170.46 427.71,170.16 428.12,169.97 428.52,169.82 428.93,169.60 429.34,169.28 429.75,168.95 430.15,168.68 430.56,168.53 430.97,168.42 431.38,168.45 431.78,168.12 432.19,167.95 432.60,167.94 433.01,167.79 433.41,167.87 433.82,167.60 434.23,167.44 434.64,167.23 435.04,166.97 435.45,166.67 435.86,166.48 436.27,166.14 436.67,165.92 437.08,165.73 437.49,165.39 437.90,165.13 438.30,164.87 438.71,164.50 439.12,164.24 439.53,164.04 439.93,163.78 440.34,163.48 440.75,163.18 441.16,162.89 441.56,162.74 441.97,162.52 442.38,162.30 442.79,161.99 443.19,161.80 443.60,161.56 444.01,161.22 444.42,160.93 444.82,160.63 445.23,160.40 445.64,160.16 446.05,160.00 446.45,159.70 446.86,159.59 447.27,159.21 447.68,158.94 448.08,158.66 448.49,158.36 448.90,158.05 449.31,157.82 449.71,157.64 450.12,157.41 450.53,157.15 450.94,157.13 451.34,157.12 451.75,157.07 452.16,157.07 452.57,156.77 452.97,156.44 453.38,156.16 453.79,155.97 454.20,156.03 454.60,156.00 455.01,156.12 455.42,156.19 455.83,156.08 456.23,156.04 456.64,155.89 457.05,155.82 457.46,155.85 457.86,155.95 458.27,155.87 458.68,155.79 459.09,155.64 459.49,155.31 459.90,155.34 460.31,155.34 460.72,155.38 461.12,155.37 461.53,155.35 461.94,155.38 462.35,155.47 462.75,155.44 463.16,155.37 463.57,155.35 463.98,155.41 464.38,155.30 464.79,155.30 465.20,155.48 465.61,155.44 466.01,155.40 466.42,155.40 466.83,155.37 467.24,155.39 467.64,155.45 468.05,155.41 468.46,155.41 468.87,155.39 469.27,155.58 469.68,155.43 470.09,155.13 470.50,154.94 470.90,154.68 471.31,154.46 471.72,154.12 472.13,153.97 472.53,153.73 472.94,153.48 473.35,153.26 473.76,153.03 474.16,152.73 474.57,152.40 474.98,152.13 475.39,151.80 475.79,151.50 476.20,151.20 476.61,150.93 477.02,150.69 477.42,150.39 477.83,150.16 478.24,149.86 478.65,149.55 479.05,149.23 479.46,149.08 479.87,148.82 480.28,148.52 480.68,148.19 481.09,147.92 481.50,147.66 481.91,147.32 482.31,147.02 482.72,146.79 483.13,146.56 483.54,146.26 483.94,145.96 484.35,145.66 484.76,145.39 485.17,145.17 485.57,144.91 485.98,144.61 486.39,144.35 486.80,144.05 487.20,143.82 487.61,143.67 488.02,143.44 488.43,143.14 488.83,142.88 489.24,142.65 489.65,142.39 490.06,142.20 490.46,141.86 490.87,141.60 491.28,141.45 491.69,141.11 492.09,140.89 492.50,140.59 492.91,140.29 493.32,140.06 493.72,139.85 494.13,139.55 494.54,139.22 494.95,138.92 495.35,138.73 495.76,138.42 496.17,138.12 496.58,137.82 496.98,137.56 497.39,137.29 497.80,137.06 498.21,136.76 498.61,136.47 499.02,136.25 499.43,135.98 499.84,135.72 500.24,135.46 500.65,135.20 501.06,134.95 501.47,134.67 501.87,134.44 502.28,134.20 502.69,133.94 503.10,133.79 503.50,133.56 503.91,133.22 504.32,133.00 504.73,132.62 505.13,132.36 505.54,132.06 505.95,131.87 506.36,131.65 506.76,131.47 507.17,131.23 507.58,130.94 507.99,130.64 508.39,130.35 508.80,130.05 509.21,129.82 509.62,129.60 510.02,129.38 510.43,129.11 510.84,128.78 511.25,128.52 511.65,128.26 512.06,128.07 512.47,127.85 512.88,127.51 513.28,127.14 513.69,126.84 514.10,126.53 514.51,126.28 514.91,125.99 515.32,125.66 515.73,125.51 516.14,125.25 516.54,125.02 516.95,124.83 517.36,124.50 517.77,124.31 518.17,124.01 518.58,123.74 518.99,123.48 519.40,123.22 519.80,122.88 520.21,122.69 520.62,122.47 521.03,122.13 521.43,121.87 521.84,121.61 522.25,121.31 522.66,121.01 523.06,120.86 523.47,120.65 523.88,120.43 524.29,120.09 524.69,119.76 525.10,119.53 525.51,119.38 525.92,119.09 526.32,118.86 526.73,118.57 527.14,118.28 527.55,117.98 527.95,117.83 528.36,117.86 528.77,117.85 529.18,117.82 529.58,117.86 529.99,117.80 530.40,117.82 530.81,117.89 531.21,117.67 531.62,117.79 532.03,117.64 532.44,117.68 532.84,117.60 533.25,117.48 533.66,117.43 534.07,117.70 534.47,117.66 534.88,117.84 535.29,117.91 535.70,117.95 536.10,117.80 536.51,118.06 536.92,118.25 537.33,118.59 537.73,118.89 538.14,119.09 538.55,119.39 538.96,119.62 539.36,119.65 539.77,119.69 540.18,119.65 540.59,119.69 540.99,119.69 541.40,119.66 541.81,119.66 542.22,119.66 542.62,119.57 543.03,119.58 543.44,119.63 543.85,119.66 544.25,119.69 544.66,119.69 545.07,119.69 545.48,119.84 545.88,119.81 546.29,119.62 546.70,119.62 547.11,119.51 547.51,119.52 547.92,119.43 548.33,119.47 548.74,119.36 549.14,119.44 549.55,119.44 549.96,119.47 550.37,119.60 550.77,119.63 551.18,119.59 551.59,119.59 552.00,119.52 552.40,119.45 552.81,119.52 553.22,119.59 553.63,119.62 554.03,119.73 554.44,119.73 554.85,119.69 555.26,119.73 555.66,119.47 556.07,119.47 556.48,119.39 556.89,119.39 557.29,119.39 557.70,119.44 558.11,119.48 558.52,119.41 558.92,119.39 559.33,119.42 559.74,119.62 560.15,119.87 560.55,120.17 560.96,120.32 561.37,120.28 561.78,120.24 562.18,120.27 562.59,120.55 563.00,120.74 563.41,121.04 563.81,121.30 564.22,121.56 564.63,121.90 565.04,122.21 565.44,122.40 565.85,122.70 566.26,123.03 566.67,123.33 567.07,123.70 567.48,124.04 567.89,124.23 568.30,124.57 568.70,124.68 569.11,124.90 569.52,125.20 569.93,125.46 570.33,125.69 570.74,126.04 571.15,126.27 571.56,126.40 571.96,126.74 572.37,127.00 572.78,127.30 573.19,127.56 573.59,127.83 574.00,128.10 574.41,128.40 574.82,128.70 575.22,129.03 575.63,129.37 576.04,129.68 576.45,130.00 576.85,130.26 577.26,130.56 577.67,130.86 578.08,131.07 578.48,131.34 578.89,131.64 579.30,131.89 579.71,132.14 580.11,132.44 580.52,132.62 580.93,132.94 581.34,133.27 581.74,133.53 582.15,133.83 582.56,134.13 582.97,134.39 583.37,134.65 583.78,134.92 584.19,135.22 584.60,135.48 585.01,135.82 585.41,136.00 585.82,136.27 586.23,136.38 586.64,136.64 587.04,136.94 587.45,137.24 587.86,137.47 588.27,137.84 588.67,138.13 589.08,138.40 589.49,138.70 589.90,138.98 590.30,139.23 590.71,139.41 591.12,139.71 591.53,139.93 591.93,140.11 592.34,140.41 592.75,140.79 593.16,141.09 593.56,141.42 593.97,141.64 594.38,141.94 594.79,142.20 595.19,142.50 595.60,142.80 596.01,143.10 596.42,143.40 596.82,143.72 597.23,143.94 597.64,144.10 598.05,144.43 598.45,144.69 598.86,144.95 599.27,145.10 599.68,145.12 600.08,145.17 600.49,145.32 600.90,145.47 601.31,145.70 601.71,145.92 602.12,146.18 602.53,146.33 602.94,146.33 603.34,146.39 603.75,146.35 604.16,146.47 604.57,146.36 604.97,146.47 605.38,146.63 605.79,146.70 606.20,146.64 606.60,146.68 607.01,146.67 607.42,146.60 607.83,146.64 608.23,146.75 608.64,146.67 609.05,146.63 609.46,146.48 609.86,146.37 610.27,146.37 610.68,146.41 611.09,146.26 611.49,146.33 611.90,146.46 612.31,146.42 612.72,146.42 613.12,146.35 613.53,146.50 613.94,146.80 614.35,147.08 614.75,147.30 615.16,147.56 615.57,147.82 615.98,147.91 616.38,147.98 616.79,148.03 617.20,148.11 617.61,148.04 618.01,147.98 618.42,147.87 618.83,147.88 619.24,147.88 619.64,147.84 620.05,147.93 620.46,147.87 620.87,148.03 621.27,147.99 621.68,148.05 622.09,148.06 622.50,147.98 622.90,148.13 623.31,148.00 623.72,147.80 624.13,147.84 624.53,147.81 624.94,147.83 625.35,147.92 625.76,147.88 626.16,147.90 626.57,147.94 626.98,148.09 627.39,147.98 627.79,148.02 628.20,148.08 628.61,148.05 629.02,147.83 629.42,147.64 629.83,147.66 630.24,147.55 630.65,147.59 631.05,147.44 631.46,147.41 631.87,147.61 632.28,147.83 632.68,148.07 633.09,148.41 633.50,148.66 633.91,148.96 634.31,149.15 634.72,149.34 635.13,149.41 635.54,149.53 635.94,149.49 636.35,149.45 636.76,149.34 637.17,149.27 637.57,149.35 637.98,149.30 638.39,149.38 638.80,149.34 639.20,149.41 639.61,149.26 640.02,149.35 640.43,149.27 640.83,149.23 641.24,149.33 641.65,149.20 642.06,149.08 642.46,148.99 642.87,149.06 643.28,149.25 643.69,149.38 644.09,149.49 644.50,149.63 644.91,149.56 645.32,149.45 645.72,149.41 646.13,149.38 646.54,149.44 646.95,149.38 647.35,149.40 647.76,149.41 648.17,149.29 648.58,149.33 648.98,149.41 649.39,149.34 649.80,149.30 650.21,149.26 650.61,149.37 651.02,149.53 651.43,149.57 651.84,149.60 652.24,149.68 652.65,149.94 653.06,150.20 653.47,150.54 653.87,150.73 654.28,150.95 654.69,151.18 655.10,151.33 655.50,151.67 655.91,152.00 656.32,152.26 656.73,152.53 657.13,152.83 657.54,152.98 657.95,153.13 658.36,153.39 658.76,153.54 659.17,153.78 659.58,154.06 659.99,154.36 660.39,154.65 660.80,154.97 661.21,155.15 661.62,155.41 662.02,155.64 662.43,155.79 662.84,156.05 663.25,156.32 663.65,156.54 664.06,156.80 664.47,157.10 664.88,157.33 665.28,157.67 665.69,157.93 666.10,158.23 666.51,158.49 666.91,158.77 667.32,159.07 667.73,159.37 668.14,159.67 668.54,160.00 668.95,160.23 669.36,160.45 669.77,160.79 670.17,161.05 670.58,161.28 670.99,161.65 671.40,161.95 671.80,162.12 672.21,162.42 672.62,162.57 673.03,162.81 673.43,162.89 673.84,163.15 674.25,163.45 674.66,163.79 675.06,164.12 675.47,164.08 675.88,164.19 676.29,164.10 676.69,164.25 677.10,164.18 677.51,163.95 677.92,163.82 678.32,163.79 678.73,163.84 679.14,163.84 679.55,163.84 679.95,163.91 680.36,163.80 680.77,163.70 681.18,163.67 681.58,163.62 681.99,163.62 682.40,163.67 682.81,163.65 683.21,163.67 683.62,163.60 684.03,163.57 684.44,163.65 684.84,163.48 685.25,163.26 685.66,162.95 686.07,162.76 686.47,162.46 686.88,162.12 687.29,161.90 687.70,161.57 688.10,161.28 688.51,161.13 688.92,160.94 689.33,160.67 689.73,160.38 690.14,160.08 690.55,159.82 690.96,159.60 691.36,159.41 691.77,159.07 692.18,158.81 692.59,158.54 692.99,158.27 693.40,158.01 693.81,157.82 694.22,157.52 694.62,157.26 695.03,156.89 695.44,156.66 695.85,156.59 696.25,156.21 696.66,155.91 697.07,155.65 697.48,155.28 697.88,154.98 698.29,154.78 698.70,154.57 699.11,154.25 699.51,153.99 699.92,153.69 700.33,153.46 700.74,153.16 701.14,152.90 701.55,152.64 701.96,152.38 702.37,152.02 702.77,151.64 703.18,151.42 703.59,151.08 704.00,150.82 704.40,150.48 704.81,150.22 705.22,149.91 705.63,149.61 706.03,149.31 706.44,149.07 706.85,148.91 707.26,148.61 707.66,148.57 708.07,148.64 708.48,148.68 708.89,148.77 709.29,148.70 709.70,148.42 710.11,148.25 710.52,147.95 710.92,147.70 711.33,147.36 711.74,147.10 712.15,146.93 712.55,146.63 712.96,146.33 713.37,146.09 713.78,145.94 714.18,145.72 714.59,145.50 715.00,145.20 715.41,144.90 715.81,144.60 716.22,144.30 716.63,144.03 717.04,143.74 717.44,143.47 717.85,143.23 718.26,142.98 718.67,142.65 719.07,142.38 719.48,142.05 719.89,141.86 720.30,141.52 720.70,141.30 721.11,141.00 721.52,140.78 721.93,140.50 722.33,140.26 722.74,139.99 723.15,139.77 723.56,139.36 723.96,139.03 724.37,138.80 724.78,138.61 725.19,138.31 725.59,138.13 726.00,137.79 726.41,137.45 726.82,137.12 727.22,136.82 727.63,136.55 728.04,136.25 728.45,135.88 728.85,135.66 729.26,135.48 729.67,135.20 730.08,134.87 730.48,134.54 730.89,134.27 731.30,134.07 731.71,133.89 732.11,133.62 732.52,133.33 732.93,133.06 733.34,132.80 733.74,132.50 734.15,132.24 734.56,131.99 734.97,131.72 735.37,131.42 735.78,131.04 736.19,130.67 736.60,130.44 737.00,130.21 737.41,129.91 737.82,129.76 738.23,129.53 738.63,129.23 739.04,129.01 739.45,128.79 739.86,128.49 740.26,128.22 740.67,127.89 741.08,127.65 741.49,127.38 741.89,127.08 742.30,126.80 742.71,126.60 743.12,126.31 743.52,126.04 743.93,125.78 744.34,125.48 744.75,125.18 745.15,124.86 745.56,124.54 745.97,124.21 746.38,123.95 746.78,123.61 747.19,123.31 747.60,123.15 748.01,122.92 748.41,122.77 748.82,122.45 749.23,122.22 749.64,121.89 750.04,121.66 750.45,121.40 750.86,121.17 751.27,120.89 751.67,120.60 752.08,120.31 752.49,120.12 752.90,119.86 753.30,119.64 753.71,119.34 754.12,119.10 754.53,118.88 754.93,118.66 755.34,118.29 755.75,118.06 756.16,117.79 756.56,117.52 756.97,117.30 757.38,117.04 757.79,116.74 758.19,116.48 758.60,116.36 759.01,116.03 759.42,115.70 759.82,115.52 760.23,115.27 760.64,115.19 761.05,115.01 761.45,114.65 761.86,114.42 762.27,114.12 762.68,113.90 763.08,113.52 763.49,113.24 763.90,113.00 764.31,112.70 764.71,112.40 765.12,112.03 765.53,111.73 765.94,111.35 766.34,111.13 766.75,110.83 767.16,110.49 767.57,110.19 767.97,109.86 768.38,109.52 768.79,109.33 769.20,109.03 769.60,108.70 770.01,108.43 770.42,108.06 770.83,107.95 771.23,107.61 771.64,107.34 772.05,107.04 772.46,106.73 772.86,106.43 773.27,106.24 773.68,106.05 774.09,105.75 774.49,105.52 774.90,105.22 775.31,105.04 775.72,104.74 776.12,104.47 776.53,104.21 776.94,103.94 777.35,103.75 777.75,103.41 778.16,103.15 778.57,102.93 778.98,102.63 779.38,102.37 779.79,102.10 780.20,101.84 780.61,101.58 781.01,101.33 781.42,101.10 781.83,100.78 782.24,100.45 782.64,100.18 783.05,100.01 783.46,99.75 783.87,99.49 784.27,99.15 784.68,98.89 785.09,98.59 785.50,98.32 785.90,98.02 786.31,97.76 786.72,97.46 787.13,97.09 787.53,96.86 787.94,96.56 788.35,96.39 788.76,96.13 789.16,95.91 789.57,95.61 789.98,95.46 790.39,95.20 790.79,94.99 791.20,94.73 791.61,94.43 792.02,94.36 792.42,94.28 792.83,94.24 793.24,94.28 793.65,94.17 794.05,94.21 794.46,94.36 794.87,94.45 795.28,94.24 795.68,94.02 796.09,93.92 796.50,93.85 796.91,93.55 797.31,93.43 797.72,93.32 798.13,93.36 798.54,93.09 798.94,92.79 799.35,92.52 799.76,92.30 800.17,92.08 800.57,91.96 800.98,92.04 801.39,91.97 801.80,92.13 802.20,91.86 802.61,91.71 803.02,91.56 803.43,91.43 803.83,91.21 804.24,90.87 804.65,90.65 805.06,90.42 805.46,90.09 805.87,89.83 806.28,89.57 806.69,89.33 807.09,89.10 807.50,88.86 807.91,88.67 808.32,88.38 808.72,88.21 809.13,88.01 809.54,88.01 809.95,87.95 810.35,88.02 810.76,87.85 811.17,87.97 811.58,87.88 811.98,87.84 812.39,87.94 812.80,88.00 813.21,88.01 813.61,87.99 814.02,87.88 814.43,87.58 814.84,87.36 815.24,87.19 815.65,87.03 816.06,86.81 816.47,86.98 816.87,87.10 817.28,87.11 817.69,87.08 818.10,86.93 818.50,86.97 818.91,86.82 819.32,86.53 819.73,86.27 820.13,86.16 820.54,86.19 820.95,85.94 821.36,85.83 821.76,85.83 822.17,85.80 822.58,85.59 822.99,85.29 823.39,84.92 823.80,84.66 824.21,84.32 824.62,83.95 825.02,83.65 825.43,83.77 825.84,83.88 826.25,83.71 826.65,83.63 827.06,83.63 827.47,83.73 827.88,83.65 828.28,83.76 828.69,83.60 829.10,83.34 829.51,83.11 829.91,82.88 830.32,82.66 830.73,82.42 831.14,82.16 831.54,82.01 831.95,81.92 832.36,81.66 832.77,81.36 833.17,81.06 833.58,80.76 833.99,80.46 834.40,80.27 834.80,80.04 835.21,79.70 835.62,79.33 836.03,79.06 836.43,78.84 836.84,78.57 837.25,78.34 837.66,78.19 838.06,77.89 838.47,77.67 838.88,77.48 839.29,77.26 839.69,76.96 840.10,76.66 840.51,76.39 840.92,76.06 841.32,75.87 841.73,75.57 842.14,75.42 842.55,75.23 842.95,75.05 843.36,74.91 843.77,74.73 844.18,74.49 844.58,74.31 844.99,73.99 845.40,73.73 845.81,73.62 846.21,73.36 846.62,73.02 847.03,72.72 847.44,72.42 847.84,72.20 848.25,71.97 848.66,71.74 849.07,71.55 849.47,71.29 849.88,71.11 850.29,70.77 850.70,70.47 851.10,70.43 851.51,70.47 851.92,70.56 852.33,70.75 852.73,71.01 853.14,71.27 853.55,71.57 853.96,71.77 854.36,71.85 854.77,71.96 855.18,71.78 855.59,71.48 855.99,71.15 856.40,71.08 856.81,71.06 857.22,71.11 857.62,71.11 858.03,70.74 858.44,70.43 858.85,70.20 859.25,69.94 859.66,69.60 860.07,69.36 860.48,69.17 860.88,68.98 861.29,68.72 861.70,68.61 862.11,68.34 862.51,68.12 862.92,67.82 863.33,67.66 863.74,67.39 864.14,67.21 864.55,66.87 864.96,66.83 865.37,66.76 865.77,66.87 866.18,67.19 866.59,67.42 867.00,67.39 867.40,67.43 867.81,67.36 868.22,67.29 868.63,67.22 869.03,67.30 869.44,67.40 869.85,67.17 870.26,66.83 870.66,66.53 871.07,66.31 871.48,66.13 871.89,65.98 872.29,65.88 872.70,65.57 873.11,65.25 873.52,64.96 873.92,64.70 874.33,64.40 874.74,64.28 875.15,64.05 875.55,64.01 875.96,63.81 876.37,63.95 876.78,63.95 877.18,63.73 877.59,63.61 878.00,63.47 878.41,63.29 878.81,62.95 879.22,62.71 879.63,62.46 880.04,62.13 880.44,61.93 880.85,61.71 881.26,61.61 881.67,61.48 882.07,61.37 882.48,61.47 882.89,61.52 883.30,61.59 883.70,61.44 884.11,61.52 884.52,61.49 884.93,61.46 885.33,61.38 885.74,61.34 886.15,61.34 886.56,61.34 886.96,61.38 887.37,61.24 887.78,61.39 888.19,61.35 888.59,61.42 889.00,61.49 889.41,61.47 889.82,61.38 890.22,61.23 890.63,60.85 891.04,60.59 891.45,60.25 891.85,59.96 892.26,59.70 892.67,59.37 893.08,59.22 893.48,59.14 893.89,59.07 894.30,59.07 894.71,59.05 895.11,59.05 895.52,58.83 895.93,58.84 896.34,58.82 896.74,58.86 897.15,58.60 897.56,58.75 897.97,58.64 898.37,58.68 898.78,58.83 899.19,58.87 899.60,58.87 900.00,59.01"/>
<line x1="85" y1="445.33" x2="900" y2="445.33" stroke="#111827" stroke-width="1"/>
<line x1="85" y1="262.67" x2="85" y2="445.33" stroke="#111827" stroke-width="1"/>
<text x="73" y="276.67" text-anchor="end" font-family="Arial" font-size="12" fill="#111827">Reservation skew ticks</text>
<line x1="85" y1="445.33" x2="900" y2="445.33" stroke="#e5e7eb" stroke-width="1"/>
<text x="73" y="449.33" text-anchor="end" font-family="Arial" font-size="11" fill="#374151">-15</text>
<line x1="85" y1="354.00" x2="900" y2="354.00" stroke="#e5e7eb" stroke-width="1"/>
<text x="73" y="358.00" text-anchor="end" font-family="Arial" font-size="11" fill="#374151">-4</text>
<line x1="85" y1="262.67" x2="900" y2="262.67" stroke="#e5e7eb" stroke-width="1"/>
<text x="73" y="266.67" text-anchor="end" font-family="Arial" font-size="11" fill="#374151">8</text>
<polyline fill="none" stroke="#dc2626" stroke-width="2" points="85.00,324.80 85.41,325.00 85.82,324.95 86.22,324.95 86.63,325.25 87.04,325.25 87.45,325.03 87.85,324.69 88.26,324.69 88.67,324.83 89.08,324.88 89.48,325.26 89.89,325.26 90.30,325.06 90.71,325.10 91.11,324.90 91.52,324.88 91.93,324.68 92.34,324.70 92.74,324.87 93.15,324.85 93.56,324.95 93.97,325.34 94.37,325.29 94.78,324.91 95.19,324.41 95.60,324.41 96.00,323.85 96.41,323.35 96.82,322.76 97.23,321.87 97.63,321.21 98.04,320.72 98.45,320.05 98.86,319.38 99.26,318.49 99.67,317.78 100.08,317.00 100.49,316.09 100.89,315.41 101.30,314.73 101.71,313.75 102.12,313.07 102.52,312.59 102.93,311.91 103.34,311.23 103.75,310.55 104.15,309.96 104.56,309.18 104.97,308.59 105.38,307.92 105.78,307.30 106.19,306.48 106.60,306.00 107.01,305.84 107.41,305.46 107.82,305.37 108.23,304.80 108.64,304.22 109.04,303.94 109.45,304.33 109.86,304.05 110.27,304.19 110.67,303.71 111.08,303.92 111.49,304.02 111.90,303.74 112.30,303.65 112.71,303.56 113.12,303.53 113.53,303.10 113.93,302.34 114.34,301.87 114.75,301.59 115.16,301.42 115.56,301.28 115.97,301.38 116.38,301.64 116.79,301.46 117.19,301.48 117.60,301.38 118.01,301.48 118.42,301.78 118.82,301.50 119.23,301.61 119.64,301.64 120.05,301.75 120.45,301.76 120.86,301.56 121.27,301.46 121.68,301.66 122.08,302.06 122.49,302.26 122.90,302.37 123.31,302.38 123.71,302.39 124.12,302.78 124.53,302.88 124.94,303.27 125.34,303.17 125.75,303.01 126.16,303.02 126.57,303.63 126.97,303.59 127.38,303.52 127.79,302.97 128.20,302.74 128.60,302.56 129.01,302.76 129.42,302.77 129.83,303.26 130.23,303.36 130.64,303.92 131.05,304.47 131.46,305.15 131.86,306.10 132.27,306.82 132.68,307.49 133.09,308.16 133.49,308.70 133.90,309.65 134.31,310.31 134.72,310.79 135.12,311.50 135.53,311.79 135.94,311.99 136.35,312.52 136.75,313.19 137.16,313.94 137.57,314.52 137.98,314.99 138.38,315.34 138.79,315.41 139.20,315.22 139.61,315.04 140.01,315.20 140.42,315.64 140.83,315.97 141.24,315.92 141.64,316.02 142.05,316.20 142.46,316.35 142.87,316.35 143.27,316.08 143.68,316.20 144.09,316.39 144.50,316.68 144.90,316.85 145.31,316.76 145.72,317.04 146.13,317.08 146.53,317.25 146.94,317.03 147.35,317.66 147.76,317.90 148.16,318.45 148.57,319.12 148.98,319.96 149.39,320.62 149.79,321.08 150.20,321.74 150.61,322.08 151.02,321.90 151.42,322.08 151.83,322.15 152.24,322.08 152.65,322.23 153.05,322.14 153.46,321.87 153.87,321.96 154.28,321.74 154.68,321.65 155.09,322.09 155.50,322.10 155.91,322.37 156.31,322.65 156.72,322.65 157.13,322.42 157.54,322.24 157.94,322.24 158.35,322.52 158.76,322.43 159.17,322.61 159.57,322.46 159.98,322.64 160.39,322.91 160.80,322.92 161.20,322.73 161.61,323.01 162.02,322.92 162.43,322.38 162.83,322.04 163.24,322.21 163.65,322.30 164.06,322.47 164.46,322.64 164.87,322.65 165.28,322.65 165.69,322.38 166.09,322.20 166.50,322.53 166.91,322.62 167.32,322.45 167.72,322.51 168.13,322.62 168.54,322.57 168.95,322.39 169.35,322.66 169.76,323.02 170.17,322.91 170.58,323.36 170.98,323.18 171.39,323.27 171.80,323.86 172.21,323.72 172.61,323.96 173.02,323.15 173.43,322.62 173.84,321.99 174.24,321.55 174.65,320.85 175.06,320.34 175.47,319.79 175.87,319.26 176.28,318.82 176.69,318.73 177.10,318.38 177.50,318.47 177.91,318.74 178.32,319.10 178.73,319.56 179.13,320.02 179.54,320.38 179.95,321.14 180.36,321.63 180.76,322.16 181.17,322.87 181.58,323.58 181.99,324.11 182.39,324.59 182.80,325.30 183.21,326.01 183.62,326.62 184.02,327.41 184.43,327.85 184.84,328.29 185.25,329.03 185.65,329.55 186.06,330.25 186.47,330.95 186.88,331.73 187.28,332.43 187.69,333.20 188.10,333.81 188.51,334.41 188.91,335.11 189.32,335.89 189.73,336.23 190.14,336.83 190.54,337.66 190.95,338.17 191.36,338.82 191.77,339.51 192.17,340.02 192.58,340.55 192.99,341.01 193.40,341.61 193.80,342.30 194.21,342.98 194.62,343.54 195.03,344.13 195.43,344.81 195.84,345.41 196.25,346.09 196.66,346.82 197.06,347.50 197.47,347.98 197.88,348.48 198.29,349.25 198.69,349.92 199.10,350.51 199.51,351.10 199.92,351.69 200.32,352.15 200.73,352.74 201.14,353.62 201.55,353.87 201.95,354.54 202.36,355.03 202.77,355.79 203.18,356.24 203.58,356.82 203.99,357.57 204.40,358.24 204.81,358.65 205.21,359.35 205.62,359.76 206.03,360.39 206.44,361.22 206.84,361.88 207.25,362.63 207.66,363.27 208.07,363.93 208.47,364.67 208.88,365.24 209.29,365.95 209.70,366.77 210.10,367.09 210.51,367.29 210.92,367.86 211.33,368.49 211.73,368.98 212.14,369.54 212.55,369.90 212.96,370.55 213.36,371.21 213.77,372.03 214.18,372.59 214.59,373.24 214.99,373.54 215.40,374.36 215.81,374.41 216.22,374.22 216.62,374.23 217.03,374.12 217.44,374.09 217.85,373.86 218.25,373.66 218.66,373.63 219.07,373.60 219.48,373.40 219.88,373.54 220.29,373.67 220.70,373.66 221.11,373.53 221.51,373.55 221.92,373.77 222.33,374.29 222.74,374.68 223.14,375.39 223.55,375.90 223.96,376.54 224.37,376.92 224.77,377.39 225.18,377.24 225.59,377.63 226.00,377.53 226.40,377.50 226.81,377.61 227.22,377.33 227.63,377.06 228.03,377.42 228.44,377.80 228.85,378.34 229.26,378.89 229.66,379.56 230.07,380.27 230.48,380.73 230.89,381.10 231.29,381.50 231.70,381.22 232.11,381.59 232.52,381.61 232.92,381.58 233.33,381.21 233.74,381.09 234.15,380.85 234.55,380.90 234.96,381.36 235.37,381.89 235.78,382.43 236.18,382.56 236.59,383.18 237.00,383.47 237.41,383.68 237.81,383.90 238.22,384.34 238.63,384.79 239.04,385.40 239.44,385.85 239.85,386.23 240.26,386.59 240.67,387.19 241.07,387.72 241.48,388.33 241.89,388.85 242.30,389.28 242.70,389.80 243.11,389.95 243.52,390.21 243.93,389.76 244.33,390.15 244.74,390.55 245.15,390.67 245.56,390.79 245.96,391.29 246.37,391.89 246.78,392.49 247.19,393.09 247.59,393.63 248.00,394.30 248.41,394.65 248.82,395.17 249.22,395.70 249.63,396.06 250.04,396.33 250.45,396.76 250.85,397.35 251.26,397.87 251.67,398.30 252.08,398.97 252.48,399.56 252.89,400.15 253.30,400.54 253.71,401.05 254.11,401.56 254.52,402.22 254.93,402.79 255.34,403.30 255.74,403.65 256.15,404.31 256.56,404.73 256.97,405.25 257.37,405.68 257.78,406.18 258.19,406.65 258.60,407.23 259.00,407.80 259.41,408.04 259.82,408.46 260.23,408.63 260.63,408.63 261.04,408.97 261.45,409.55 261.86,409.84 262.26,410.34 262.67,410.83 263.08,411.33 263.49,411.90 263.89,412.31 264.30,412.67 264.71,413.16 265.12,413.82 265.52,414.42 265.93,414.99 266.34,415.47 266.75,416.04 267.15,416.60 267.56,417.17 267.97,417.81 268.38,418.37 268.78,418.69 269.19,419.17 269.60,419.26 270.01,419.25 270.41,419.27 270.82,419.28 271.23,418.99 271.64,419.33 272.04,419.68 272.45,420.16 272.86,420.41 273.27,420.81 273.67,421.29 274.08,421.69 274.49,421.78 274.90,421.25 275.30,421.27 275.71,421.43 276.12,421.52 276.53,421.31 276.93,420.94 277.34,420.42 277.75,420.28 278.16,419.93 278.56,420.25 278.97,420.88 279.38,421.36 279.79,421.83 280.19,422.37 280.60,422.84 281.01,423.33 281.42,423.80 281.82,424.25 282.23,424.87 282.64,424.83 283.05,425.00 283.45,424.47 283.86,424.17 284.27,424.39 284.68,424.70 285.08,424.86 285.49,424.80 285.90,424.73 286.31,424.74 286.71,424.82 287.12,424.76 287.53,425.08 287.94,425.54 288.34,425.46 288.75,424.97 289.16,424.83 289.57,424.84 289.97,424.93 290.38,425.25 290.79,425.48 291.20,425.84 291.60,426.29 292.01,426.77 292.42,427.45 292.83,427.68 293.23,428.13 293.64,428.58 294.05,429.04 294.46,429.52 294.86,430.04 295.27,430.42 295.68,430.79 296.09,431.09 296.49,431.69 296.90,432.14 297.31,432.14 297.72,432.58 298.12,432.58 298.53,432.58 298.94,432.57 299.35,432.11 299.75,431.67 300.16,431.16 300.57,430.57 300.98,429.91 301.38,429.56 301.79,429.14 302.20,428.82 302.61,428.67 303.01,428.73 303.42,428.36 303.83,428.21 304.24,427.94 304.64,427.57 305.05,427.06 305.46,427.07 305.87,427.07 306.27,426.88 306.68,426.68 307.09,426.76 307.50,426.66 307.90,426.54 308.31,426.39 308.72,425.96 309.13,425.89 309.53,425.68 309.94,425.63 310.35,425.92 310.76,426.43 311.16,426.94 311.57,427.59 311.98,427.36 312.39,427.04 312.79,427.10 313.20,427.49 313.61,428.07 314.02,427.99 314.42,427.58 314.83,427.94 315.24,428.37 315.65,428.53 316.05,428.58 316.46,429.16 316.87,429.43 317.28,430.00 317.68,430.36 318.09,430.71 318.50,430.87 318.91,431.23 319.31,431.66 319.72,432.02 320.13,432.45 320.54,432.46 320.94,432.74 321.35,432.60 321.76,432.31 322.17,432.02 322.57,431.45 322.98,430.88 323.39,430.56 323.80,430.62 324.20,430.17 324.61,430.09 325.02,429.88 325.43,429.66 325.83,429.30 326.24,429.24 326.65,429.44 327.06,429.51 327.46,429.70 327.87,430.10 328.28,430.36 328.69,430.70 329.09,430.91 329.50,430.97 329.91,431.03 330.32,431.16 330.72,431.79 331.13,431.99 331.54,432.47 331.95,432.40 332.35,431.89 332.76,431.58 333.17,431.08 333.58,430.49 333.98,429.95 334.39,429.66 334.80,429.72 335.21,429.46 335.61,429.24 336.02,428.96 336.43,429.02 336.84,428.84 337.24,428.42 337.65,427.82 338.06,427.47 338.47,427.28 338.87,427.07 339.28,427.03 339.69,426.78 340.10,426.57 340.50,426.22 340.91,425.97 341.32,425.76 341.73,425.66 342.13,425.27 342.54,424.69 342.95,424.22 343.36,423.60 343.76,423.05 344.17,422.55 344.58,421.81 344.99,421.53 345.39,420.98 345.80,420.64 346.21,420.23 346.62,419.82 347.02,419.24 347.43,418.76 347.84,418.15 348.25,417.61 348.65,416.93 349.06,416.37 349.47,415.78 349.88,415.04 350.28,414.43 350.69,413.83 351.10,413.36 351.51,412.75 351.91,412.32 352.32,411.71 352.73,411.11 353.14,410.51 353.54,410.04 353.95,409.51 354.36,409.10 354.77,408.70 355.17,408.03 355.58,407.56 355.99,407.09 356.40,406.56 356.80,405.98 357.21,405.42 357.62,405.25 358.03,404.59 358.43,404.04 358.84,403.45 359.25,402.92 359.66,402.52 360.06,402.00 360.47,401.27 360.88,400.69 361.29,400.24 361.69,399.58 362.10,399.06 362.51,398.56 362.92,398.13 363.32,397.42 363.73,396.70 364.14,396.28 364.55,395.76 364.95,395.18 365.36,394.58 365.77,394.06 366.18,393.49 366.58,392.91 366.99,392.27 367.40,391.80 367.81,391.16 368.21,390.40 368.62,389.82 369.03,389.19 369.44,388.62 369.84,388.23 370.25,387.66 370.66,387.10 371.07,386.51 371.47,385.88 371.88,385.20 372.29,384.83 372.70,384.38 373.10,383.88 373.51,383.32 373.92,382.92 374.33,382.36 374.73,381.80 375.14,381.32 375.55,380.69 375.96,380.21 376.36,379.64 376.77,379.08 377.18,378.52 377.59,378.02 377.99,377.59 378.40,377.00 378.81,376.38 379.22,376.02 379.62,375.59 380.03,375.17 380.44,374.62 380.85,374.07 381.25,373.65 381.66,373.17 382.07,372.70 382.48,372.28 382.88,371.73 383.29,371.30 383.70,371.01 384.11,370.59 384.51,370.13 384.92,369.78 385.33,369.30 385.74,368.76 386.14,368.32 386.55,367.72 386.96,367.05 387.37,366.64 387.77,366.23 388.18,365.75 388.59,365.29 389.00,364.76 389.40,364.28 389.81,363.73 390.22,363.44 390.63,362.97 391.03,362.51 391.44,362.16 391.85,361.83 392.26,361.36 392.66,360.77 393.07,360.30 393.48,359.71 393.89,359.19 394.29,358.67 394.70,358.21 395.11,357.81 395.52,357.22 395.92,356.70 396.33,356.24 396.74,355.72 397.15,355.32 397.55,355.05 397.96,354.78 398.37,354.39 398.78,354.43 399.18,354.63 399.59,355.12 400.00,355.49 400.41,355.40 400.81,355.19 401.22,354.73 401.63,354.85 402.04,354.89 402.44,354.86 402.85,354.78 403.26,354.72 403.67,354.64 404.07,354.64 404.48,354.62 404.89,354.57 405.30,354.36 405.70,354.08 406.11,353.88 406.52,353.85 406.93,353.89 407.33,353.86 407.74,353.95 408.15,353.83 408.56,353.74 408.96,353.66 409.37,353.52 409.78,353.44 410.19,353.41 410.59,353.27 411.00,353.12 411.41,353.02 411.82,352.78 412.22,352.40 412.63,351.90 413.04,351.30 413.45,351.15 413.85,350.70 414.26,350.50 414.67,350.12 415.08,349.69 415.48,349.25 415.89,348.67 416.30,348.11 416.71,347.56 417.11,347.12 417.52,346.51 417.93,346.08 418.34,345.82 418.74,345.69 419.15,345.43 419.56,345.12 419.97,344.69 420.37,344.62 420.78,344.62 421.19,344.61 421.60,344.65 422.00,344.63 422.41,344.54 422.82,344.46 423.23,344.56 423.63,344.67 424.04,344.65 424.45,344.61 424.86,344.65 425.26,344.58 425.67,344.64 426.08,344.39 426.49,344.07 426.89,343.68 427.30,343.55 427.71,343.07 428.12,342.76 428.52,342.51 428.93,342.15 429.34,341.64 429.75,341.12 430.15,340.68 430.56,340.44 430.97,340.26 431.38,340.30 431.78,339.77 432.19,339.50 432.60,339.47 433.01,339.23 433.41,339.33 433.82,338.92 434.23,338.66 434.64,338.32 435.04,337.91 435.45,337.44 435.86,337.14 436.27,336.62 436.67,336.27 437.08,335.97 437.49,335.45 437.90,335.04 438.30,334.64 438.71,334.07 439.12,333.67 439.53,333.36 439.93,332.96 440.34,332.50 440.75,332.04 441.16,331.60 441.56,331.37 441.97,331.03 442.38,330.69 442.79,330.21 443.19,329.93 443.60,329.56 444.01,329.06 444.42,328.61 444.82,328.16 445.23,327.82 445.64,327.46 446.05,327.21 446.45,326.77 446.86,326.60 447.27,326.04 447.68,325.63 448.08,325.21 448.49,324.76 448.90,324.31 449.31,323.98 449.71,323.70 450.12,323.37 450.53,322.98 450.94,322.96 451.34,322.94 451.75,322.87 452.16,322.88 452.57,322.44 452.97,321.95 453.38,321.55 453.79,321.27 454.20,321.36 454.60,321.31 455.01,321.49 455.42,321.60 455.83,321.44 456.23,321.39 456.64,321.18 457.05,321.07 457.46,321.13 457.86,321.27 458.27,321.16 458.68,321.05 459.09,320.84 459.49,320.35 459.90,320.41 460.31,320.42 460.72,320.48 461.12,320.47 461.53,320.44 461.94,320.49 462.35,320.61 462.75,320.58 463.16,320.48 463.57,320.45 463.98,320.54 464.38,320.40 464.79,320.40 465.20,320.66 465.61,320.61 466.01,320.56 466.42,320.56 466.83,320.52 467.24,320.55 467.64,320.64 468.05,320.58 468.46,320.60 468.87,320.57 469.27,320.84 469.68,320.63 470.09,320.21 470.50,319.95 470.90,319.59 471.31,319.28 471.72,318.81 472.13,318.60 472.53,318.27 472.94,317.93 473.35,317.62 473.76,317.32 474.16,316.90 474.57,316.44 474.98,316.08 475.39,315.62 475.79,315.21 476.20,314.81 476.61,314.45 477.02,314.12 477.42,313.71 477.83,313.41 478.24,313.01 478.65,312.59 479.05,312.16 479.46,311.97 479.87,311.62 480.28,311.22 480.68,310.76 481.09,310.42 481.50,310.07 481.91,309.62 482.31,309.22 482.72,308.92 483.13,308.63 483.54,308.23 483.94,307.84 484.35,307.45 484.76,307.09 485.17,306.81 485.57,306.47 485.98,306.08 486.39,305.74 486.80,305.35 487.20,305.07 487.61,304.88 488.02,304.60 488.43,304.21 488.83,303.88 489.24,303.58 489.65,303.25 490.06,303.02 490.46,302.59 490.87,302.26 491.28,302.08 491.69,301.65 492.09,301.37 492.50,301.00 492.91,300.62 493.32,300.34 493.72,300.09 494.13,299.71 494.54,299.29 494.95,298.92 495.35,298.69 495.76,298.31 496.17,297.94 496.58,297.57 496.98,297.25 497.39,296.92 497.80,296.65 498.21,296.28 498.61,295.93 499.02,295.66 499.43,295.35 499.84,295.03 500.24,294.72 500.65,294.40 501.06,294.11 501.47,293.77 501.87,293.51 502.28,293.23 502.69,292.92 503.10,292.76 503.50,292.49 503.91,292.08 504.32,291.82 504.73,291.37 505.13,291.06 505.54,290.71 505.95,290.50 506.36,290.25 506.76,290.05 507.17,289.79 507.58,289.44 507.99,289.09 508.39,288.77 508.80,288.42 509.21,288.16 509.62,287.91 510.02,287.66 510.43,287.37 510.84,286.98 511.25,286.69 511.65,286.40 512.06,286.20 512.47,285.95 512.88,285.56 513.28,285.13 513.69,284.79 514.10,284.45 514.51,284.17 514.91,283.85 515.32,283.47 515.73,283.33 516.14,283.04 516.54,282.80 516.95,282.61 517.36,282.23 517.77,282.04 518.17,281.71 518.58,281.42 518.99,281.14 519.40,280.86 519.80,280.49 520.21,280.30 520.62,280.07 521.03,279.70 521.43,279.42 521.84,279.14 522.25,278.83 522.66,278.50 523.06,278.37 523.47,278.16 523.88,277.93 524.29,277.57 524.69,277.21 525.10,276.98 525.51,276.85 525.92,276.54 526.32,276.32 526.73,276.01 527.14,275.71 527.55,275.39 527.95,275.26 528.36,275.36 528.77,275.40 529.18,275.42 529.58,275.52 529.99,275.50 530.40,275.59 530.81,275.72 531.21,275.50 531.62,275.71 532.03,275.59 532.44,275.68 532.84,275.64 533.25,275.55 533.66,275.55 534.07,275.93 534.47,275.93 534.88,276.20 535.29,276.34 535.70,276.44 536.10,276.32 536.51,276.69 536.92,276.96 537.33,277.42 537.73,277.83 538.14,278.12 538.55,278.53 538.96,278.85 539.36,278.94 539.77,279.04 540.18,279.05 540.59,279.14 540.99,279.19 541.40,279.22 541.81,279.27 542.22,279.32 542.62,279.26 543.03,279.33 543.44,279.43 543.85,279.52 544.25,279.61 544.66,279.67 545.07,279.72 545.48,279.94 545.88,279.95 546.29,279.79 546.70,279.84 547.11,279.76 547.51,279.82 547.92,279.78 548.33,279.87 548.74,279.79 549.14,279.94 549.55,279.99 549.96,280.08 550.37,280.28 550.77,280.37 551.18,280.38 551.59,280.43 552.00,280.40 552.40,280.37 552.81,280.50 553.22,280.63 553.63,280.72 554.03,280.90 554.44,280.95 554.85,280.96 555.26,281.05 555.66,280.81 556.07,280.86 556.48,280.83 556.89,280.88 557.29,280.93 557.70,281.04 558.11,281.13 558.52,281.11 558.92,281.13 559.33,281.23 559.74,281.50 560.15,281.83 560.55,282.22 560.96,282.44 561.37,282.44 561.78,282.45 562.18,282.53 562.59,282.89 563.00,283.15 563.41,283.53 563.81,283.87 564.22,284.21 564.63,284.63 565.04,285.02 565.44,285.28 565.85,285.65 566.26,286.06 566.67,286.44 567.07,286.89 567.48,287.31 567.89,287.57 568.30,287.98 568.70,288.14 569.11,288.43 569.52,288.80 569.93,289.13 570.33,289.41 570.74,289.84 571.15,290.13 571.56,290.31 571.96,290.72 572.37,291.04 572.78,291.41 573.19,291.73 573.59,292.06 574.00,292.38 574.41,292.75 574.82,293.11 575.22,293.51 575.63,293.90 576.04,294.27 576.45,294.65 576.85,294.97 577.26,295.32 577.67,295.68 578.08,295.94 578.48,296.25 578.89,296.60 579.30,296.90 579.71,297.20 580.11,297.55 580.52,297.78 580.93,298.14 581.34,298.53 581.74,298.83 582.15,299.18 582.56,299.52 582.97,299.83 583.37,300.14 583.78,300.44 584.19,300.78 584.60,301.08 585.01,301.46 585.41,301.69 585.82,301.99 586.23,302.14 586.64,302.44 587.04,302.77 587.45,303.11 587.86,303.37 588.27,303.78 588.67,304.11 589.08,304.41 589.49,304.74 589.90,305.04 590.30,305.33 590.71,305.53 591.12,305.86 591.53,306.12 591.93,306.32 592.34,306.65 592.75,307.05 593.16,307.38 593.56,307.74 593.97,307.98 594.38,308.30 594.79,308.58 595.19,308.91 595.60,309.23 596.01,309.55 596.42,309.87 596.82,310.21 597.23,310.45 597.64,310.63 598.05,310.97 598.45,311.25 598.86,311.52 599.27,311.69 599.68,311.73 600.08,311.79 600.49,311.96 600.90,312.12 601.31,312.36 601.71,312.60 602.12,312.87 602.53,313.03 602.94,313.05 603.34,313.12 603.75,313.10 604.16,313.23 604.57,313.14 604.97,313.26 605.38,313.43 605.79,313.52 606.20,313.47 606.60,313.53 607.01,313.54 607.42,313.48 607.83,313.54 608.23,313.66 608.64,313.60 609.05,313.58 609.46,313.45 609.86,313.36 610.27,313.37 610.68,313.42 611.09,313.30 611.49,313.39 611.90,313.52 612.31,313.50 612.72,313.52 613.12,313.46 613.53,313.62 613.94,313.92 614.35,314.20 614.75,314.42 615.16,314.68 615.57,314.94 615.98,315.04 616.38,315.11 616.79,315.18 617.20,315.26 617.61,315.21 618.01,315.17 618.42,315.08 618.83,315.10 619.24,315.12 619.64,315.10 620.05,315.19 620.46,315.15 620.87,315.31 621.27,315.29 621.68,315.36 622.09,315.38 622.50,315.33 622.90,315.48 623.31,315.37 623.72,315.20 624.13,315.25 624.53,315.24 624.94,315.27 625.35,315.37 625.76,315.35 626.16,315.38 626.57,315.43 626.98,315.58 627.39,315.49 627.79,315.54 628.20,315.61 628.61,315.60 629.02,315.41 629.42,315.26 629.83,315.29 630.24,315.21 630.65,315.26 631.05,315.14 631.46,315.12 631.87,315.32 632.28,315.53 632.68,315.75 633.09,316.06 633.50,316.30 633.91,316.57 634.31,316.75 634.72,316.92 635.13,317.00 635.54,317.11 635.94,317.09 636.35,317.07 636.76,316.98 637.17,316.94 637.57,317.02 637.98,316.99 638.39,317.07 638.80,317.05 639.20,317.12 639.61,317.01 640.02,317.09 640.43,317.04 640.83,317.02 641.24,317.11 641.65,317.01 642.06,316.93 642.46,316.86 642.87,316.93 643.28,317.10 643.69,317.22 644.09,317.33 644.50,317.46 644.91,317.41 645.32,317.33 645.72,317.31 646.13,317.30 646.54,317.36 646.95,317.32 647.35,317.35 647.76,317.37 648.17,317.29 648.58,317.33 648.98,317.41 649.39,317.36 649.80,317.34 650.21,317.32 650.61,317.42 651.02,317.56 651.43,317.61 651.84,317.65 652.24,317.72 652.65,317.95 653.06,318.17 653.47,318.45 653.87,318.62 654.28,318.81 654.69,319.00 655.10,319.13 655.50,319.41 655.91,319.69 656.32,319.91 656.73,320.12 657.13,320.37 657.54,320.50 657.95,320.62 658.36,320.84 658.76,320.96 659.17,321.16 659.58,321.39 659.99,321.63 660.39,321.87 660.80,322.12 661.21,322.27 661.62,322.48 662.02,322.66 662.43,322.78 662.84,322.99 663.25,323.20 663.65,323.37 664.06,323.58 664.47,323.81 664.88,323.99 665.28,324.25 665.69,324.45 666.10,324.68 666.51,324.88 666.91,325.10 667.32,325.32 667.73,325.55 668.14,325.78 668.54,326.03 668.95,326.20 669.36,326.37 669.77,326.62 670.17,326.82 670.58,326.98 670.99,327.26 671.40,327.48 671.80,327.60 672.21,327.82 672.62,327.92 673.03,328.10 673.43,328.16 673.84,328.34 674.25,328.56 674.66,328.80 675.06,329.04 675.47,329.00 675.88,329.08 676.29,329.00 676.69,329.10 677.10,329.05 677.51,328.87 677.92,328.76 678.32,328.74 678.73,328.76 679.14,328.76 679.55,328.75 679.95,328.80 680.36,328.71 680.77,328.63 681.18,328.60 681.58,328.56 681.99,328.55 682.40,328.58 682.81,328.56 683.21,328.56 683.62,328.50 684.03,328.48 684.44,328.53 684.84,328.40 685.25,328.24 685.66,328.02 686.07,327.87 686.47,327.66 686.88,327.42 687.29,327.25 687.70,327.02 688.10,326.82 688.51,326.71 688.92,326.57 689.33,326.39 689.73,326.18 690.14,325.97 690.55,325.79 690.96,325.64 691.36,325.51 691.77,325.27 692.18,325.09 692.59,324.90 692.99,324.73 693.40,324.55 693.81,324.42 694.22,324.22 694.62,324.04 695.03,323.79 695.44,323.65 695.85,323.60 696.25,323.35 696.66,323.15 697.07,322.98 697.48,322.73 697.88,322.54 698.29,322.42 698.70,322.28 699.11,322.07 699.51,321.91 699.92,321.72 700.33,321.58 700.74,321.39 701.14,321.22 701.55,321.06 701.96,320.90 702.37,320.67 702.77,320.44 703.18,320.30 703.59,320.09 704.00,319.93 704.40,319.73 704.81,319.57 705.22,319.38 705.63,319.20 706.03,319.02 706.44,318.88 706.85,318.79 707.26,318.62 707.66,318.60 708.07,318.66 708.48,318.70 708.89,318.77 709.29,318.74 709.70,318.57 710.11,318.48 710.52,318.31 710.92,318.17 711.33,317.98 711.74,317.83 712.15,317.74 712.55,317.57 712.96,317.40 713.37,317.27 713.78,317.19 714.18,317.08 714.59,316.96 715.00,316.79 715.41,316.63 715.81,316.46 716.22,316.30 716.63,316.16 717.04,316.00 717.44,315.86 717.85,315.74 718.26,315.61 718.67,315.43 719.07,315.30 719.48,315.12 719.89,315.03 720.30,314.85 720.70,314.74 721.11,314.59 721.52,314.48 721.93,314.34 722.33,314.23 722.74,314.10 723.15,313.99 723.56,313.78 723.96,313.61 724.37,313.51 724.78,313.43 725.19,313.28 725.59,313.20 726.00,313.04 726.41,312.87 726.82,312.71 727.22,312.57 727.63,312.45 728.04,312.31 728.45,312.12 728.85,312.03 729.26,311.96 729.67,311.84 730.08,311.68 730.48,311.53 730.89,311.41 731.30,311.34 731.71,311.26 732.11,311.15 732.52,311.02 732.93,310.91 733.34,310.80 733.74,310.67 734.15,310.56 734.56,310.46 734.97,310.35 735.37,310.23 735.78,310.06 736.19,309.89 736.60,309.81 737.00,309.72 737.41,309.60 737.82,309.56 738.23,309.48 738.63,309.36 739.04,309.28 739.45,309.20 739.86,309.08 740.26,308.98 740.67,308.85 741.08,308.76 741.49,308.66 741.89,308.55 742.30,308.45 742.71,308.39 743.12,308.28 743.52,308.18 743.93,308.09 744.34,307.98 744.75,307.88 745.15,307.75 745.56,307.64 745.97,307.52 746.38,307.43 746.78,307.31 747.19,307.20 747.60,307.17 748.01,307.10 748.41,307.07 748.82,306.96 749.23,306.90 749.64,306.78 750.04,306.72 750.45,306.64 750.86,306.58 751.27,306.49 751.67,306.40 752.08,306.31 752.49,306.27 752.90,306.19 753.30,306.14 753.71,306.05 754.12,305.99 754.53,305.93 754.93,305.88 755.34,305.75 755.75,305.70 756.16,305.63 756.56,305.56 756.97,305.51 757.38,305.44 757.79,305.35 758.19,305.29 758.60,305.29 759.01,305.19 759.42,305.10 759.82,305.07 760.23,305.01 760.64,305.04 761.05,305.01 761.45,304.90 761.86,304.86 762.27,304.78 762.68,304.74 763.08,304.63 763.49,304.57 763.90,304.52 764.31,304.45 764.71,304.37 765.12,304.27 765.53,304.20 765.94,304.10 766.34,304.06 766.75,303.99 767.16,303.91 767.57,303.85 767.97,303.76 768.38,303.68 768.79,303.67 769.20,303.61 769.60,303.53 770.01,303.48 770.42,303.39 770.83,303.41 771.23,303.33 771.64,303.29 772.05,303.23 772.46,303.17 772.86,303.11 773.27,303.10 773.68,303.09 774.09,303.04 774.49,303.02 774.90,302.96 775.31,302.96 775.72,302.91 776.12,302.87 776.53,302.84 776.94,302.80 777.35,302.80 777.75,302.74 778.16,302.70 778.57,302.69 778.98,302.64 779.38,302.62 779.79,302.59 780.20,302.56 780.61,302.53 781.01,302.51 781.42,302.50 781.83,302.45 782.24,302.40 782.64,302.37 783.05,302.39 783.46,302.36 783.87,302.34 784.27,302.29 784.68,302.27 785.09,302.24 785.50,302.22 785.90,302.19 786.31,302.17 786.72,302.14 787.13,302.08 787.53,302.08 787.94,302.05 788.35,302.07 788.76,302.06 789.16,302.06 789.57,302.04 789.98,302.07 790.39,302.06 790.79,302.07 791.20,302.06 791.61,302.04 792.02,302.10 792.42,302.16 792.83,302.23 793.24,302.33 793.65,302.38 794.05,302.48 794.46,302.61 794.87,302.73 795.28,302.75 795.68,302.75 796.09,302.81 796.50,302.87 796.91,302.85 797.31,302.90 797.72,302.95 798.13,303.05 798.54,303.05 798.94,303.03 799.35,303.04 799.76,303.05 800.17,303.06 800.57,303.12 800.98,303.23 801.39,303.30 801.80,303.44 802.20,303.44 802.61,303.48 803.02,303.52 803.43,303.57 803.83,303.59 804.24,303.57 804.65,303.59 805.06,303.61 805.46,303.60 805.87,303.61 806.28,303.62 806.69,303.64 807.09,303.66 807.50,303.68 807.91,303.72 808.32,303.73 808.72,303.77 809.13,303.80 809.54,303.90 809.95,303.97 810.35,304.09 810.76,304.13 811.17,304.26 811.58,304.33 811.98,304.41 812.39,304.54 812.80,304.65 813.21,304.74 813.61,304.83 814.02,304.90 814.43,304.91 814.84,304.94 815.24,304.99 815.65,305.04 816.06,305.07 816.47,305.22 816.87,305.34 817.28,305.44 817.69,305.53 818.10,305.58 818.50,305.69 818.91,305.75 819.32,305.77 819.73,305.79 820.13,305.86 820.54,305.96 820.95,306.00 821.36,306.07 821.76,306.16 822.17,306.25 822.58,306.29 822.99,306.32 823.39,306.32 823.80,306.35 824.21,306.37 824.62,306.38 825.02,306.40 825.43,306.53 825.84,306.66 826.25,306.72 826.65,306.80 827.06,306.90 827.47,307.02 827.88,307.10 828.28,307.23 828.69,307.29 829.10,307.33 829.51,307.38 829.91,307.42 830.32,307.48 830.73,307.52 831.14,307.56 831.54,307.63 831.95,307.71 832.36,307.76 832.77,307.80 833.17,307.83 833.58,307.87 833.99,307.91 834.40,307.97 834.80,308.03 835.21,308.06 835.62,308.09 836.03,308.14 836.43,308.20 836.84,308.25 837.25,308.31 837.66,308.38 838.06,308.43 838.47,308.49 838.88,308.56 839.29,308.63 839.69,308.68 840.10,308.73 840.51,308.78 840.92,308.83 841.32,308.90 841.73,308.96 842.14,309.04 842.55,309.11 842.95,309.19 843.36,309.28 843.77,309.35 844.18,309.42 844.58,309.50 844.99,309.56 845.40,309.62 845.81,309.72 846.21,309.78 846.62,309.84 847.03,309.90 847.44,309.96 847.84,310.04 848.25,310.12 848.66,310.19 849.07,310.28 849.47,310.35 849.88,310.44 850.29,310.50 850.70,310.57 851.10,310.68 851.51,310.80 851.92,310.93 852.33,311.08 852.73,311.24 853.14,311.40 853.55,311.56 853.96,311.70 854.36,311.83 854.77,311.96 855.18,312.05 855.59,312.13 855.99,312.19 856.40,312.30 856.81,312.41 857.22,312.54 857.62,312.66 858.03,312.72 858.44,312.80 858.85,312.88 859.25,312.97 859.66,313.04 860.07,313.13 860.48,313.22 860.88,313.32 861.29,313.40 861.70,313.51 862.11,313.60 862.51,313.69 862.92,313.77 863.33,313.87 863.74,313.96 864.14,314.06 864.55,314.15 864.96,314.26 865.37,314.38 865.77,314.51 866.18,314.67 866.59,314.82 867.00,314.94 867.40,315.06 867.81,315.18 868.22,315.29 868.63,315.41 869.03,315.54 869.44,315.67 869.85,315.77 870.26,315.86 870.66,315.95 871.07,316.05 871.48,316.16 871.89,316.27 872.29,316.38 872.70,316.48 873.11,316.58 873.52,316.67 873.92,316.78 874.33,316.88 874.74,316.99 875.15,317.10 875.55,317.22 875.96,317.33 876.37,317.47 876.78,317.60 877.18,317.71 877.59,317.83 878.00,317.94 878.41,318.06 878.81,318.16 879.22,318.27 879.63,318.38 880.04,318.49 880.44,318.60 880.85,318.72 881.26,318.84 881.67,318.96 882.07,319.09 882.48,319.22 882.89,319.36 883.30,319.49 883.70,319.61 884.11,319.74 884.52,319.87 884.93,320.00 885.33,320.13 885.74,320.25 886.15,320.38 886.56,320.51 886.96,320.65 887.37,320.77 887.78,320.91 888.19,321.03 888.59,321.17 889.00,321.30 889.41,321.43 889.82,321.55 890.22,321.68 890.63,321.80 891.04,321.92 891.45,322.04 891.85,322.17 892.26,322.29 892.67,322.41 893.08,322.54 893.48,322.67 893.89,322.81 894.30,322.94 894.71,323.07 895.11,323.20 895.52,323.33 895.93,323.47 896.34,323.60 896.74,323.73 897.15,323.86 897.56,324.00 897.97,324.13 898.37,324.27 898.78,324.40 899.19,324.53 899.60,324.67 900.00,324.80"/>
<line x1="85" y1="662.00" x2="900" y2="662.00" stroke="#111827" stroke-width="1"/>
<line x1="85" y1="479.33" x2="85" y2="662.00" stroke="#111827" stroke-width="1"/>
<text x="73" y="493.33" text-anchor="end" font-family="Arial" font-size="12" fill="#111827">Reference mid</text>
<line x1="85" y1="662.00" x2="900" y2="662.00" stroke="#e5e7eb" stroke-width="1"/>
<text x="73" y="666.00" text-anchor="end" font-family="Arial" font-size="11" fill="#374151">99822</text>
<line x1="85" y1="570.67" x2="900" y2="570.67" stroke="#e5e7eb" stroke-width="1"/>
<text x="73" y="574.67" text-anchor="end" font-family="Arial" font-size="11" fill="#374151">100250</text>
<line x1="85" y1="479.33" x2="900" y2="479.33" stroke="#e5e7eb" stroke-width="1"/>
<text x="73" y="483.33" text-anchor="end" font-family="Arial" font-size="11" fill="#374151">100679</text>
<polyline fill="none" stroke="#059669" stroke-width="2" points="85.00,623.99 85.41,624.59 85.82,626.03 86.22,627.02 86.63,627.24 87.04,625.59 87.45,624.03 87.85,623.54 88.26,625.45 88.67,626.11 89.08,623.53 89.48,625.63 89.89,624.41 90.30,623.90 90.71,625.24 91.11,622.06 91.52,620.85 91.93,621.61 92.34,619.91 92.74,621.16 93.15,618.68 93.56,617.66 93.97,615.94 94.37,616.79 94.78,616.87 95.19,614.34 95.60,612.53 96.00,612.77 96.41,612.86 96.82,610.65 97.23,610.15 97.63,610.47 98.04,608.39 98.45,606.24 98.86,604.27 99.26,603.99 99.67,604.50 100.08,604.91 100.49,601.31 100.89,603.05 101.30,603.79 101.71,602.94 102.12,599.57 102.52,600.03 102.93,598.68 103.34,598.06 103.75,598.55 104.15,596.33 104.56,595.29 104.97,595.80 105.38,596.30 105.78,596.01 106.19,595.33 106.60,595.19 107.01,594.23 107.41,595.32 107.82,593.95 108.23,591.68 108.64,592.23 109.04,593.31 109.45,595.17 109.86,595.36 110.27,594.94 110.67,593.21 111.08,594.19 111.49,593.01 111.90,591.78 112.30,593.41 112.71,591.40 113.12,590.69 113.53,589.19 113.93,590.38 114.34,589.39 114.75,592.42 115.16,593.06 115.56,593.55 115.97,591.62 116.38,594.49 116.79,591.75 117.19,593.74 117.60,594.01 118.01,595.24 118.42,593.64 118.82,597.68 119.23,598.41 119.64,598.46 120.05,596.75 120.45,596.60 120.86,598.02 121.27,598.11 121.68,600.65 122.08,598.49 122.49,599.18 122.90,593.25 123.31,597.71 123.71,597.03 124.12,599.66 124.53,597.17 124.94,596.42 125.34,597.00 125.75,593.80 126.16,592.05 126.57,595.52 126.97,594.69 127.38,595.70 127.79,596.65 128.20,597.55 128.60,598.89 129.01,599.42 129.42,598.68 129.83,599.12 130.23,601.36 130.64,603.59 131.05,607.99 131.46,608.50 131.86,607.87 132.27,605.58 132.68,603.31 133.09,604.87 133.49,605.89 133.90,605.56 134.31,606.17 134.72,606.68 135.12,604.67 135.53,604.65 135.94,605.46 136.35,605.66 136.75,607.58 137.16,608.16 137.57,607.92 137.98,606.03 138.38,603.41 138.79,603.95 139.20,603.82 139.61,600.16 140.01,602.29 140.42,601.44 140.83,600.33 141.24,601.82 141.64,601.59 142.05,602.48 142.46,601.88 142.87,603.92 143.27,603.41 143.68,604.16 144.09,604.38 144.50,605.22 144.90,604.52 145.31,603.36 145.72,602.86 146.13,603.45 146.53,605.52 146.94,606.19 147.35,605.97 147.76,607.61 148.16,609.37 148.57,608.12 148.98,612.05 149.39,610.24 149.79,608.93 150.20,607.83 150.61,605.21 151.02,605.36 151.42,603.82 151.83,604.82 152.24,603.55 152.65,603.20 153.05,604.16 153.46,604.23 153.87,604.04 154.28,607.22 154.68,606.90 155.09,608.76 155.50,606.98 155.91,606.64 156.31,605.63 156.72,607.40 157.13,606.52 157.54,606.31 157.94,603.95 158.35,603.65 158.76,603.16 159.17,599.52 159.57,600.64 159.98,601.42 160.39,603.46 160.80,603.70 161.20,602.59 161.61,601.46 162.02,596.61 162.43,597.79 162.83,599.51 163.24,599.76 163.65,599.35 164.06,600.20 164.46,598.87 164.87,599.19 165.28,600.63 165.69,602.06 166.09,601.20 166.50,599.33 166.91,598.53 167.32,599.90 167.72,598.07 168.13,599.83 168.54,599.27 168.95,600.42 169.35,600.40 169.76,600.87 170.17,598.16 170.58,596.38 170.98,600.43 171.39,599.31 171.80,597.47 172.21,596.58 172.61,597.32 173.02,594.86 173.43,591.77 173.84,589.64 174.24,589.60 174.65,591.55 175.06,593.22 175.47,593.86 175.87,594.61 176.28,596.44 176.69,597.50 177.10,597.92 177.50,599.43 177.91,602.62 178.32,603.83 178.73,604.16 179.13,604.74 179.54,607.66 179.95,607.89 180.36,609.61 180.76,609.08 181.17,611.07 181.58,611.87 181.99,613.45 182.39,614.27 182.80,613.46 183.21,615.70 183.62,615.17 184.02,616.65 184.43,615.27 184.84,613.81 185.25,611.39 185.65,613.32 186.06,610.62 186.47,609.80 186.88,610.83 187.28,611.00 187.69,612.29 188.10,610.91 188.51,611.86 188.91,613.13 189.32,611.06 189.73,610.07 190.14,610.63 190.54,613.19 190.95,613.02 191.36,613.27 191.77,612.46 192.17,614.35 192.58,614.48 192.99,613.62 193.40,612.85 193.80,617.02 194.21,616.47 194.62,614.40 195.03,615.91 195.43,616.13 195.84,619.12 196.25,619.33 196.66,621.51 197.06,624.73 197.47,626.87 197.88,624.34 198.29,623.73 198.69,623.98 199.10,622.34 199.51,623.70 199.92,625.77 200.32,624.39 200.73,624.94 201.14,624.96 201.55,624.17 201.95,623.93 202.36,626.04 202.77,624.02 203.18,627.12 203.58,625.96 203.99,627.87 204.40,630.92 204.81,627.18 205.21,629.23 205.62,627.56 206.03,628.86 206.44,626.83 206.84,627.40 207.25,627.71 207.66,629.10 208.07,628.49 208.47,623.23 208.88,622.20 209.29,620.72 209.70,622.13 210.10,622.06 210.51,626.11 210.92,626.83 211.33,625.02 211.73,624.67 212.14,623.70 212.55,625.85 212.96,623.02 213.36,621.34 213.77,621.85 214.18,622.08 214.59,622.55 214.99,621.72 215.40,620.64 215.81,615.25 216.22,615.06 216.62,614.21 217.03,615.75 217.44,614.40 217.85,612.84 218.25,612.56 218.66,615.52 219.07,615.48 219.48,614.71 219.88,615.43 220.29,618.94 220.70,617.62 221.11,619.82 221.51,619.12 221.92,621.56 222.33,622.60 222.74,623.39 223.14,622.12 223.55,623.27 223.96,625.15 224.37,622.03 224.77,620.71 225.18,620.29 225.59,618.54 226.00,620.46 226.40,617.48 226.81,619.70 227.22,620.57 227.63,621.62 228.03,623.32 228.44,622.93 228.85,623.38 229.26,624.64 229.66,624.34 230.07,623.77 230.48,623.73 230.89,623.98 231.29,620.93 231.70,620.61 232.11,620.85 232.52,619.38 232.92,617.33 233.33,616.24 233.74,619.54 234.15,621.94 234.55,622.27 234.96,625.63 235.37,624.98 235.78,624.66 236.18,624.24 236.59,625.04 237.00,621.91 237.41,624.73 237.81,624.84 238.22,627.25 238.63,629.40 239.04,629.89 239.44,629.08 239.85,629.61 240.26,628.83 240.67,625.74 241.07,626.61 241.48,628.15 241.89,626.05 242.30,627.02 242.70,627.49 243.11,625.57 243.52,624.78 243.93,625.47 244.33,627.06 244.74,626.16 245.15,626.18 245.56,627.01 245.96,628.37 246.37,631.05 246.78,629.63 247.19,631.65 247.59,633.97 248.00,635.46 248.41,634.68 248.82,638.01 249.22,638.51 249.63,637.84 250.04,638.24 250.45,639.28 250.85,640.21 251.26,641.14 251.67,640.05 252.08,638.07 252.48,636.60 252.89,634.59 253.30,635.18 253.71,633.15 254.11,635.30 254.52,632.67 254.93,634.26 255.34,635.08 255.74,636.38 256.15,636.08 256.56,636.51 256.97,634.61 257.37,633.06 257.78,634.18 258.19,633.08 258.60,631.52 259.00,631.46 259.41,631.74 259.82,631.20 260.23,629.13 260.63,631.84 261.04,632.65 261.45,633.62 261.86,635.56 262.26,637.83 262.67,637.47 263.08,638.18 263.49,638.40 263.89,639.77 264.30,640.84 264.71,639.61 265.12,641.04 265.52,643.06 265.93,642.51 266.34,642.28 266.75,642.53 267.15,639.45 267.56,639.57 267.97,638.01 268.38,635.82 268.78,636.90 269.19,635.80 269.60,633.99 270.01,632.40 270.41,632.47 270.82,631.88 271.23,633.78 271.64,637.48 272.04,637.35 272.45,635.36 272.86,635.45 273.27,638.44 273.67,638.82 274.08,636.99 274.49,634.50 274.90,632.14 275.30,634.09 275.71,633.59 276.12,631.61 276.53,631.98 276.93,634.42 277.34,631.14 277.75,635.54 278.16,635.53 278.56,637.64 278.97,639.15 279.38,641.24 279.79,641.20 280.19,640.82 280.60,640.48 281.01,639.59 281.42,638.32 281.82,637.88 282.23,637.57 282.64,636.81 283.05,638.25 283.45,634.57 283.86,633.89 284.27,638.97 284.68,638.23 285.08,639.14 285.49,635.37 285.90,636.32 286.31,638.09 286.71,637.06 287.12,637.58 287.53,639.35 287.94,638.05 288.34,636.69 288.75,635.47 289.16,639.18 289.57,636.54 289.97,638.97 290.38,639.16 290.79,641.09 291.20,641.28 291.60,640.93 292.01,641.42 292.42,641.83 292.83,640.56 293.23,640.55 293.64,643.45 294.05,645.46 294.46,645.78 294.86,647.60 295.27,644.49 295.68,642.20 296.09,642.56 296.49,643.58 296.90,641.77 297.31,642.78 297.72,642.29 298.12,639.10 298.53,639.51 298.94,637.77 299.35,637.02 299.75,636.63 300.16,633.95 300.57,633.33 300.98,635.27 301.38,634.95 301.79,634.29 302.20,636.72 302.61,637.59 303.01,638.27 303.42,637.66 303.83,640.61 304.24,638.59 304.64,640.16 305.05,638.38 305.46,638.60 305.87,641.56 306.27,637.42 306.68,638.03 307.09,639.50 307.50,639.62 307.90,641.07 308.31,638.42 308.72,639.24 309.13,640.41 309.53,640.77 309.94,642.24 310.35,644.38 310.76,645.00 311.16,645.88 311.57,644.33 311.98,642.13 312.39,640.89 312.79,644.20 313.20,643.86 313.61,645.37 314.02,642.39 314.42,643.08 314.83,643.88 315.24,644.43 315.65,641.81 316.05,644.44 316.46,645.61 316.87,644.91 317.28,645.17 317.68,644.74 318.09,643.68 318.50,647.79 318.91,649.40 319.31,647.14 319.72,646.84 320.13,645.06 320.54,645.04 320.94,644.43 321.35,641.64 321.76,641.47 322.17,642.33 322.57,640.00 322.98,639.02 323.39,641.79 323.80,642.08 324.20,642.54 324.61,641.20 325.02,640.68 325.43,642.67 325.83,644.00 326.24,644.96 326.65,643.76 327.06,645.45 327.46,647.62 327.87,648.67 328.28,647.17 328.69,644.28 329.09,645.06 329.50,645.94 329.91,645.05 330.32,646.49 330.72,646.69 331.13,646.74 331.54,645.20 331.95,643.34 332.35,644.38 332.76,643.18 333.17,640.57 333.58,639.71 333.98,640.74 334.39,641.05 334.80,643.18 335.21,641.22 335.61,641.94 336.02,643.32 336.43,643.48 336.84,640.41 337.24,640.63 337.65,639.43 338.06,640.31 338.47,641.27 338.87,644.86 339.28,645.46 339.69,643.53 340.10,641.56 340.50,642.30 340.91,642.43 341.32,643.31 341.73,641.28 342.13,639.66 342.54,636.45 342.95,636.10 343.36,636.83 343.76,635.94 344.17,633.48 344.58,637.54 344.99,638.94 345.39,638.74 345.80,638.87 346.21,635.66 346.62,636.05 347.02,632.36 347.43,635.12 347.84,632.37 348.25,630.47 348.65,629.98 349.06,625.80 349.47,625.01 349.88,624.02 350.28,623.92 350.69,623.90 351.10,624.96 351.51,626.82 351.91,626.60 352.32,627.06 352.73,626.61 353.14,625.32 353.54,623.56 353.95,623.49 354.36,620.06 354.77,618.14 355.17,620.81 355.58,622.20 355.99,618.66 356.40,617.11 356.80,616.32 357.21,614.83 357.62,614.33 358.03,615.10 358.43,614.93 358.84,613.12 359.25,612.92 359.66,616.32 360.06,619.01 360.47,620.04 360.88,620.02 361.29,620.24 361.69,616.88 362.10,616.40 362.51,614.16 362.92,614.12 363.32,615.18 363.73,614.63 364.14,614.63 364.55,613.23 364.95,610.08 365.36,607.37 365.77,606.27 366.18,604.95 366.58,608.55 366.99,612.21 367.40,610.09 367.81,606.19 368.21,603.97 368.62,603.68 369.03,601.11 369.44,602.11 369.84,603.77 370.25,601.37 370.66,603.77 371.07,603.39 371.47,605.37 371.88,600.40 372.29,601.72 372.70,597.21 373.10,594.03 373.51,593.67 373.92,591.23 374.33,593.32 374.73,592.90 375.14,590.78 375.55,591.39 375.96,593.50 376.36,594.47 376.77,594.21 377.18,592.88 377.59,594.86 377.99,595.98 378.40,598.92 378.81,600.48 379.22,598.98 379.62,600.16 380.03,600.47 380.44,601.45 380.85,601.03 381.25,602.41 381.66,601.19 382.07,600.02 382.48,602.01 382.88,603.51 383.29,604.29 383.70,606.25 384.11,607.63 384.51,608.21 384.92,608.39 385.33,605.59 385.74,602.57 386.14,603.61 386.55,604.76 386.96,601.76 387.37,604.76 387.77,605.35 388.18,602.72 388.59,603.59 389.00,601.78 389.40,602.13 389.81,599.84 390.22,600.48 390.63,600.66 391.03,601.18 391.44,602.87 391.85,601.82 392.26,601.83 392.66,601.24 393.07,601.03 393.48,602.29 393.89,603.32 394.29,602.86 394.70,604.68 395.11,603.31 395.52,602.15 395.92,603.65 396.33,602.49 396.74,602.60 397.15,605.16 397.55,605.15 397.96,607.07 398.37,609.59 398.78,611.59 399.18,615.29 399.59,616.53 400.00,614.38 400.41,615.02 400.81,614.64 401.22,613.87 401.63,613.14 402.04,614.34 402.44,612.46 402.85,615.35 403.26,615.92 403.67,613.17 404.07,612.22 404.48,611.01 404.89,608.82 405.30,608.98 405.70,606.32 406.11,609.24 406.52,611.14 406.93,610.44 407.33,609.88 407.74,610.28 408.15,608.73 408.56,610.13 408.96,610.40 409.37,609.81 409.78,610.60 410.19,610.02 410.59,609.71 411.00,607.80 411.41,606.88 411.82,605.82 412.22,606.04 412.63,602.23 413.04,600.30 413.45,599.37 413.85,601.07 414.26,600.22 414.67,599.84 415.08,600.57 415.48,601.57 415.89,604.79 416.30,604.63 416.71,604.51 417.11,604.78 417.52,604.79 417.93,605.08 418.34,605.54 418.74,604.55 419.15,605.44 419.56,604.88 419.97,605.50 420.37,608.83 420.78,608.57 421.19,609.08 421.60,607.14 422.00,608.49 422.41,610.41 422.82,608.78 423.23,607.26 423.63,607.03 424.04,608.12 424.45,607.73 424.86,608.18 425.26,607.88 425.67,606.59 426.08,604.29 426.49,601.41 426.89,604.37 427.30,604.34 427.71,601.48 428.12,600.66 428.52,603.11 428.93,602.57 429.34,601.24 429.75,600.94 430.15,603.15 430.56,605.34 430.97,604.85 431.38,603.49 431.78,603.55 432.19,605.12 432.60,605.46 433.01,603.26 433.41,602.97 433.82,601.25 434.23,601.61 434.64,600.55 435.04,600.22 435.45,599.92 435.86,600.40 436.27,599.19 436.67,599.76 437.08,598.29 437.49,597.39 437.90,594.93 438.30,592.87 438.71,591.61 439.12,590.55 439.53,590.87 439.93,591.71 440.34,588.59 440.75,589.90 441.16,591.30 441.56,591.09 441.97,589.42 442.38,588.92 442.79,588.76 443.19,588.78 443.60,589.45 444.01,590.07 444.42,588.69 444.82,590.48 445.23,590.51 445.64,592.84 446.05,590.26 446.45,590.70 446.86,591.99 447.27,593.44 447.68,593.72 448.08,593.70 448.49,593.17 448.90,594.54 449.31,594.10 449.71,595.90 450.12,598.85 450.53,597.93 450.94,599.78 451.34,601.13 451.75,598.98 452.16,596.55 452.57,594.77 452.97,597.25 453.38,596.02 453.79,598.31 454.20,600.77 454.60,601.17 455.01,601.48 455.42,599.51 455.83,598.93 456.23,598.79 456.64,597.88 457.05,599.13 457.46,599.57 457.86,600.82 458.27,602.85 458.68,600.59 459.09,595.90 459.49,597.74 459.90,598.07 460.31,601.55 460.72,602.42 461.12,602.60 461.53,601.97 461.94,603.01 462.35,602.22 462.75,603.44 463.16,602.65 463.57,603.92 463.98,603.27 464.38,604.55 464.79,604.25 465.20,603.35 465.61,602.97 466.01,602.71 466.42,599.57 466.83,599.25 467.24,599.98 467.64,599.86 468.05,600.19 468.46,598.40 468.87,599.98 469.27,598.46 469.68,594.95 470.09,595.38 470.50,593.27 470.90,594.96 471.31,594.12 471.72,594.22 472.13,592.28 472.53,594.22 472.94,592.83 473.35,593.56 473.76,590.73 474.16,589.94 474.57,589.79 474.98,587.18 475.39,585.46 475.79,584.88 476.20,587.43 476.61,587.83 477.02,585.03 477.42,586.41 477.83,587.72 478.24,585.91 478.65,583.34 479.05,586.25 479.46,587.68 479.87,586.90 480.28,585.56 480.68,584.01 481.09,584.92 481.50,585.40 481.91,583.84 482.31,583.28 482.72,582.08 483.13,582.30 483.54,582.80 483.94,582.22 484.35,580.50 484.76,580.43 485.17,576.99 485.57,575.33 485.98,574.75 486.39,575.64 486.80,573.33 487.20,570.33 487.61,569.67 488.02,568.08 488.43,567.54 488.83,568.25 489.24,567.71 489.65,562.38 490.06,562.37 490.46,565.04 490.87,562.86 491.28,561.57 491.69,561.92 492.09,561.47 492.50,561.09 492.91,558.93 493.32,556.78 493.72,558.78 494.13,556.02 494.54,554.71 494.95,552.64 495.35,554.29 495.76,552.31 496.17,550.41 496.58,551.82 496.98,552.04 497.39,550.59 497.80,548.74 498.21,550.42 498.61,549.80 499.02,549.57 499.43,548.40 499.84,545.64 500.24,545.73 500.65,549.27 501.06,550.85 501.47,550.53 501.87,551.18 502.28,553.80 502.69,555.00 503.10,553.44 503.50,555.32 503.91,553.23 504.32,551.76 504.73,553.82 505.13,552.59 505.54,551.33 505.95,550.40 506.36,551.35 506.76,549.39 507.17,549.85 507.58,550.76 507.99,553.03 508.39,552.59 508.80,551.01 509.21,555.65 509.62,551.47 510.02,548.44 510.43,550.00 510.84,551.69 511.25,551.89 511.65,549.88 512.06,552.03 512.47,550.59 512.88,551.45 513.28,548.44 513.69,549.43 514.10,551.24 514.51,549.55 514.91,550.90 515.32,553.40 515.73,551.05 516.14,551.65 516.54,550.46 516.95,548.69 517.36,547.75 517.77,549.17 518.17,548.63 518.58,551.93 518.99,550.44 519.40,552.74 519.80,551.67 520.21,551.74 520.62,550.51 521.03,550.53 521.43,551.01 521.84,552.04 522.25,554.64 522.66,551.30 523.06,551.58 523.47,550.55 523.88,550.79 524.29,550.27 524.69,548.35 525.10,547.68 525.51,550.63 525.92,551.95 526.32,549.80 526.73,551.16 527.14,551.52 527.55,554.32 527.95,557.77 528.36,557.22 528.77,556.29 529.18,557.90 529.58,557.69 529.99,556.94 530.40,558.20 530.81,561.60 531.21,559.19 531.62,559.02 532.03,559.27 532.44,557.03 532.84,556.74 533.25,554.49 533.66,554.69 534.07,553.85 534.47,555.05 534.88,559.24 535.29,558.98 535.70,555.58 536.10,554.10 536.51,557.63 536.92,560.44 537.33,561.95 537.73,564.07 538.14,565.50 538.55,565.86 538.96,563.16 539.36,564.49 539.77,563.59 540.18,563.87 540.59,559.35 540.99,559.46 541.40,556.60 541.81,556.82 542.22,555.77 542.62,553.78 543.03,556.48 543.44,555.75 543.85,553.60 544.25,554.22 544.66,554.18 545.07,554.62 545.48,553.59 545.88,555.58 546.29,554.98 546.70,555.34 547.11,552.63 547.51,554.07 547.92,554.21 548.33,555.78 548.74,556.02 549.14,559.04 549.55,559.72 549.96,560.47 550.37,560.61 550.77,559.20 551.18,556.32 551.59,556.93 552.00,555.01 552.40,555.06 552.81,555.43 553.22,554.76 553.63,555.78 554.03,552.72 554.44,552.88 554.85,552.85 555.26,550.95 555.66,549.10 556.07,551.10 556.48,552.74 556.89,551.72 557.29,551.68 557.70,551.42 558.11,554.09 558.52,555.88 558.92,557.98 559.33,558.48 559.74,560.29 560.15,562.87 560.55,561.93 560.96,559.90 561.37,558.27 561.78,560.56 562.18,562.86 562.59,562.19 563.00,563.17 563.41,567.27 563.81,568.82 564.22,566.44 564.63,567.34 565.04,566.39 565.44,567.71 565.85,568.72 566.26,566.35 566.67,564.82 567.07,565.23 567.48,565.66 567.89,564.60 568.30,565.40 568.70,564.00 569.11,566.15 569.52,566.94 569.93,565.91 570.33,567.46 570.74,567.51 571.15,568.40 571.56,569.22 571.96,570.06 572.37,572.02 572.78,573.92 573.19,574.29 573.59,577.42 574.00,581.01 574.41,580.52 574.82,578.51 575.22,576.11 575.63,575.63 576.04,576.36 576.45,578.75 576.85,580.68 577.26,580.52 577.67,580.36 578.08,582.89 578.48,583.08 578.89,584.83 579.30,584.77 579.71,587.42 580.11,586.78 580.52,589.79 580.93,591.19 581.34,593.33 581.74,594.40 582.15,594.01 582.56,595.47 582.97,596.66 583.37,597.16 583.78,596.32 584.19,599.79 584.60,598.88 585.01,597.06 585.41,596.84 585.82,594.30 586.23,594.86 586.64,595.93 587.04,597.70 587.45,598.58 587.86,601.23 588.27,599.43 588.67,599.01 589.08,598.98 589.49,599.36 589.90,599.44 590.30,600.34 590.71,601.85 591.12,600.55 591.53,597.37 591.93,597.22 592.34,597.02 592.75,595.99 593.16,595.70 593.56,596.09 593.97,596.83 594.38,595.30 594.79,594.00 595.19,595.01 595.60,597.33 596.01,597.62 596.42,597.30 596.82,598.39 597.23,596.96 597.64,594.98 598.05,596.30 598.45,594.91 598.86,592.87 599.27,593.37 599.68,596.48 600.08,595.23 600.49,595.93 600.90,597.02 601.31,598.09 601.71,597.31 602.12,595.06 602.53,596.80 602.94,596.42 603.34,594.03 603.75,594.84 604.16,595.23 604.57,594.93 604.97,593.23 605.38,594.64 605.79,595.14 606.20,592.85 606.60,595.24 607.01,593.47 607.42,591.96 607.83,593.75 608.23,590.49 608.64,591.18 609.05,591.89 609.46,592.84 609.86,592.74 610.27,594.32 610.68,593.41 611.09,590.71 611.49,589.36 611.90,591.70 612.31,591.84 612.72,591.40 613.12,594.33 613.53,597.05 613.94,599.78 614.35,601.68 614.75,601.32 615.16,601.37 615.57,600.10 615.98,595.97 616.38,594.49 616.79,594.96 617.20,595.20 617.61,593.08 618.01,592.40 618.42,594.40 618.83,594.75 619.24,596.93 619.64,595.85 620.05,596.81 620.46,595.62 620.87,591.99 621.27,593.87 621.68,596.08 622.09,592.77 622.50,591.78 622.90,589.81 623.31,588.07 623.72,589.09 624.13,589.19 624.53,590.23 624.94,590.47 625.35,591.02 625.76,590.75 626.16,592.02 626.57,592.35 626.98,589.19 627.39,589.21 627.79,588.90 628.20,586.83 628.61,587.70 629.02,585.91 629.42,588.17 629.83,588.51 630.24,592.91 630.65,592.78 631.05,592.92 631.46,596.56 631.87,596.43 632.28,597.34 632.68,598.66 633.09,600.16 633.50,600.67 633.91,601.13 634.31,600.73 634.72,595.97 635.13,593.51 635.54,593.13 635.94,594.49 636.35,595.18 636.76,595.19 637.17,593.76 637.57,592.63 637.98,594.09 638.39,592.74 638.80,592.04 639.20,591.49 639.61,591.30 640.02,591.72 640.43,591.70 640.83,590.28 641.24,591.80 641.65,591.36 642.06,591.81 642.46,593.02 642.87,594.70 643.28,593.56 643.69,591.61 644.09,591.94 644.50,591.54 644.91,592.54 645.32,594.13 645.72,596.27 646.13,597.64 646.54,599.51 646.95,597.38 647.35,598.63 647.76,596.55 648.17,596.92 648.58,595.28 648.98,595.45 649.39,596.62 649.80,593.96 650.21,595.79 650.61,598.75 651.02,597.20 651.43,597.80 651.84,598.94 652.24,601.59 652.65,601.06 653.06,600.36 653.47,601.37 653.87,602.06 654.28,603.40 654.69,604.24 655.10,605.21 655.50,606.16 655.91,605.50 656.32,606.70 656.73,607.28 657.13,608.62 657.54,608.48 657.95,607.64 658.36,607.81 658.76,607.00 659.17,607.85 659.58,606.76 659.99,606.54 660.39,604.11 660.80,603.48 661.21,603.04 661.62,602.86 662.02,601.52 662.43,604.29 662.84,606.19 663.25,606.05 663.65,604.69 664.06,607.85 664.47,607.83 664.88,609.74 665.28,608.65 665.69,608.48 666.10,611.47 666.51,611.41 666.91,612.30 667.32,614.11 667.73,610.13 668.14,608.72 668.54,610.10 668.95,608.06 669.36,609.53 669.77,609.93 670.17,610.69 670.58,611.00 670.99,608.82 671.40,609.80 671.80,608.24 672.21,607.44 672.62,605.16 673.03,603.34 673.43,605.20 673.84,604.71 674.25,605.52 674.66,606.12 675.06,603.65 675.47,601.85 675.88,599.38 676.29,599.35 676.69,598.55 677.10,596.20 677.51,597.28 677.92,599.42 678.32,602.09 678.73,603.68 679.14,600.21 679.55,598.04 679.95,598.95 680.36,599.86 680.77,597.64 681.18,596.37 681.58,596.61 681.99,596.98 682.40,598.21 682.81,598.29 683.21,599.05 683.62,599.64 684.03,599.69 684.44,596.88 684.84,594.51 685.25,592.58 685.66,591.96 686.07,590.94 686.47,590.68 686.88,590.76 687.29,591.03 687.70,593.77 688.10,592.49 688.51,595.17 688.92,593.60 689.33,590.79 689.73,589.64 690.14,588.04 690.55,586.74 690.96,587.34 691.36,588.08 691.77,588.97 692.18,588.49 692.59,586.93 692.99,585.63 693.40,586.22 693.81,585.81 694.22,586.92 694.62,584.80 695.03,584.91 695.44,584.90 695.85,586.62 696.25,586.27 696.66,585.47 697.07,582.19 697.48,583.50 697.88,583.27 698.29,584.33 698.70,583.14 699.11,583.91 699.51,581.23 699.92,580.64 700.33,576.97 700.74,578.24 701.14,579.81 701.55,574.17 701.96,577.90 702.37,577.70 702.77,580.27 703.18,580.36 703.59,583.76 704.00,584.25 704.40,583.31 704.81,584.28 705.22,579.75 705.63,582.30 706.03,585.02 706.44,585.76 706.85,587.18 707.26,586.91 707.66,586.66 708.07,589.53 708.48,587.53 708.89,587.41 709.29,585.97 709.70,586.35 710.11,584.72 710.52,580.94 710.92,580.96 711.33,582.16 711.74,580.09 712.15,579.39 712.55,580.08 712.96,578.69 713.37,581.36 713.78,583.26 714.18,583.86 714.59,582.52 715.00,579.92 715.41,580.71 715.81,580.18 716.22,582.45 716.63,580.67 717.04,579.95 717.44,577.82 717.85,577.89 718.26,577.49 718.67,571.44 719.07,570.84 719.48,568.23 719.89,569.44 720.30,571.50 720.70,571.94 721.11,568.87 721.52,569.47 721.93,570.37 722.33,567.31 722.74,566.18 723.15,567.32 723.56,569.37 723.96,568.77 724.37,565.18 724.78,565.16 725.19,561.93 725.59,558.35 726.00,558.35 726.41,557.62 726.82,557.78 727.22,558.31 727.63,557.82 728.04,556.37 728.45,557.29 728.85,556.33 729.26,557.47 729.67,559.74 730.08,560.64 730.48,560.48 730.89,558.28 731.30,561.50 731.71,560.69 732.11,560.79 732.52,558.23 732.93,555.13 733.34,556.82 733.74,555.58 734.15,556.99 734.56,556.53 734.97,555.46 735.37,556.51 735.78,556.49 736.19,552.93 736.60,549.96 737.00,548.44 737.41,546.32 737.82,548.93 738.23,545.82 738.63,542.98 739.04,542.99 739.45,541.46 739.86,541.25 740.26,542.78 740.67,541.90 741.08,537.36 741.49,540.92 741.89,540.96 742.30,541.28 742.71,538.68 743.12,538.10 743.52,537.59 743.93,534.59 744.34,533.97 744.75,534.29 745.15,535.15 745.56,535.03 745.97,532.73 746.38,533.92 746.78,534.38 747.19,533.57 747.60,532.39 748.01,535.66 748.41,533.04 748.82,530.35 749.23,529.82 749.64,529.44 750.04,531.32 750.45,532.53 750.86,533.31 751.27,531.43 751.67,529.90 752.08,529.89 752.49,527.83 752.90,530.62 753.30,529.24 753.71,528.17 754.12,530.54 754.53,529.68 754.93,533.04 755.34,531.99 755.75,531.82 756.16,534.59 756.56,532.35 756.97,532.65 757.38,529.75 757.79,526.79 758.19,524.68 758.60,522.34 759.01,523.68 759.42,521.76 759.82,523.76 760.23,521.38 760.64,521.48 761.05,522.10 761.45,521.43 761.86,519.70 762.27,518.64 762.68,519.86 763.08,518.24 763.49,520.41 763.90,521.23 764.31,518.95 764.71,518.71 765.12,518.83 765.53,520.02 765.94,520.82 766.34,519.45 766.75,519.28 767.16,519.58 767.57,518.54 767.97,519.74 768.38,517.26 768.79,516.46 769.20,519.21 769.60,519.84 770.01,519.15 770.42,518.90 770.83,519.48 771.23,521.39 771.64,520.55 772.05,522.58 772.46,523.18 772.86,522.78 773.27,520.11 773.68,519.27 774.09,521.23 774.49,521.68 774.90,520.25 775.31,520.01 775.72,522.15 776.12,521.37 776.53,519.75 776.94,518.40 777.35,518.54 777.75,516.01 778.16,514.34 778.57,513.76 778.98,513.67 779.38,514.20 779.79,516.46 780.20,512.08 780.61,512.41 781.01,511.40 781.42,509.45 781.83,506.14 782.24,503.58 782.64,506.11 783.05,506.40 783.46,506.31 783.87,508.37 784.27,508.10 784.68,507.43 785.09,506.70 785.50,509.18 785.90,509.88 786.31,508.49 786.72,508.80 787.13,506.82 787.53,506.79 787.94,508.62 788.35,507.53 788.76,505.63 789.16,507.27 789.57,508.24 789.98,509.13 790.39,509.38 790.79,510.68 791.20,513.25 791.61,514.22 792.02,518.14 792.42,518.44 792.83,519.99 793.24,517.76 793.65,517.62 794.05,518.25 794.46,515.74 794.87,514.59 795.28,512.20 795.68,513.74 796.09,515.09 796.50,513.35 796.91,512.68 797.31,513.51 797.72,514.08 798.13,514.00 798.54,511.75 798.94,511.66 799.35,512.35 799.76,511.48 800.17,511.34 800.57,514.26 800.98,515.83 801.39,516.86 801.80,511.57 802.20,512.92 802.61,511.77 803.02,512.06 803.43,510.52 803.83,511.09 804.24,506.44 804.65,504.55 805.06,505.09 805.46,506.24 805.87,504.63 806.28,504.84 806.69,503.75 807.09,505.14 807.50,505.63 807.91,507.09 808.32,507.37 808.72,507.78 809.13,510.98 809.54,511.13 809.95,511.76 810.35,511.30 810.76,509.46 811.17,510.14 811.58,509.82 811.98,509.86 812.39,510.90 812.80,510.84 813.21,508.66 813.61,509.88 814.02,507.78 814.43,508.02 814.84,508.63 815.24,508.23 815.65,507.77 816.06,510.07 816.47,510.18 816.87,511.59 817.28,509.18 817.69,507.33 818.10,510.68 818.50,508.11 818.91,506.48 819.32,506.10 819.73,507.82 820.13,508.79 820.54,507.02 820.95,506.77 821.36,509.09 821.76,509.09 822.17,508.51 822.58,503.01 822.99,505.17 823.39,505.34 823.80,505.59 824.21,504.62 824.62,505.63 825.02,506.78 825.43,507.28 825.84,507.11 826.25,506.81 826.65,509.28 827.06,508.29 827.47,508.38 827.88,507.53 828.28,507.91 828.69,505.43 829.10,503.90 829.51,505.96 829.91,505.02 830.32,504.97 830.73,505.03 831.14,504.01 831.54,506.61 831.95,505.43 832.36,503.08 832.77,503.31 833.17,503.38 833.58,501.09 833.99,502.03 834.40,501.46 834.80,503.43 835.21,503.89 835.62,502.36 836.03,500.80 836.43,501.33 836.84,500.31 837.25,501.20 837.66,499.48 838.06,499.15 838.47,498.25 838.88,498.72 839.29,500.20 839.69,501.85 840.10,503.47 840.51,498.63 840.92,496.92 841.32,495.22 841.73,497.39 842.14,497.60 842.55,498.63 842.95,497.02 843.36,499.35 843.77,498.17 844.18,496.02 844.58,497.00 844.99,499.43 845.40,497.75 845.81,496.70 846.21,496.51 846.62,497.42 847.03,496.65 847.44,497.22 847.84,499.05 848.25,498.59 848.66,499.02 849.07,499.97 849.47,499.15 849.88,500.61 850.29,499.76 850.70,503.73 851.10,505.21 851.51,505.43 851.92,507.40 852.33,512.12 852.73,513.95 853.14,510.07 853.55,509.29 853.96,508.10 854.36,506.09 854.77,504.82 855.18,500.00 855.59,499.45 855.99,500.25 856.40,502.52 856.81,502.46 857.22,502.20 857.62,499.25 858.03,496.21 858.44,496.22 858.85,496.22 859.25,493.48 859.66,493.12 860.07,493.89 860.48,497.02 860.88,496.37 861.29,495.73 861.70,492.40 862.11,493.40 862.51,493.74 862.92,496.10 863.33,497.10 863.74,499.16 864.14,497.45 864.55,499.54 864.96,501.79 865.37,503.40 865.77,505.14 866.18,506.15 866.59,505.54 867.00,505.63 867.40,503.34 867.81,503.91 868.22,505.07 868.63,504.30 869.03,501.69 869.44,499.14 869.85,495.22 870.26,496.62 870.66,498.57 871.07,499.23 871.48,500.70 871.89,501.10 872.29,498.17 872.70,497.81 873.11,495.80 873.52,495.14 873.92,494.54 874.33,497.36 874.74,497.85 875.15,499.23 875.55,501.79 875.96,501.31 876.37,499.41 876.78,498.83 877.18,498.82 877.59,497.67 878.00,495.20 878.41,494.98 878.81,495.24 879.22,493.78 879.63,494.48 880.04,494.43 880.44,495.60 880.85,496.89 881.26,497.58 881.67,497.99 882.07,499.27 882.48,499.37 882.89,500.71 883.30,501.13 883.70,502.18 884.11,499.24 884.52,502.00 884.93,501.77 885.33,499.52 885.74,502.33 886.15,504.38 886.56,501.56 886.96,502.55 887.37,502.01 887.78,502.50 888.19,502.74 888.59,500.12 889.00,500.85 889.41,498.98 889.82,497.55 890.22,495.86 890.63,494.66 891.04,495.27 891.45,491.93 891.85,493.13 892.26,492.97 892.67,496.56 893.08,498.72 893.48,499.31 893.89,497.80 894.30,501.37 894.71,498.17 895.11,496.53 895.52,496.98 895.93,499.67 896.34,498.79 896.74,496.37 897.15,497.79 897.56,498.09 897.97,498.60 898.37,499.52 898.78,497.40 899.19,499.87 899.60,499.41 900.00,500.92"/>
<text x="85.00" y="696" text-anchor="middle" font-family="Arial" font-size="12" fill="#374151">0</text>
<text x="288.75" y="696" text-anchor="middle" font-family="Arial" font-size="12" fill="#374151">50000</text>
<text x="492.50" y="696" text-anchor="middle" font-family="Arial" font-size="12" fill="#374151">100000</text>
<text x="696.25" y="696" text-anchor="middle" font-family="Arial" font-size="12" fill="#374151">149999</text>
<text x="900.00" y="696" text-anchor="middle" font-family="Arial" font-size="12" fill="#374151">199999</text>
<text x="492.5" y="716" text-anchor="middle" font-family="Arial" font-size="14" fill="#111827">Event index</text>
</svg>
