<svg xmlns="http://www.w3.org/2000/svg" width="940" height="540" viewBox="0 0 940 540">
<rect width="100%" height="100%" fill="#ffffff"/>
<text x="470.0" y="26" text-anchor="middle" font-family="Arial" font-size="18" fill="#111827">High Volatility Inventory</text>
<line x1="85" y1="470" x2="755" y2="470" stroke="#111827" stroke-width="1"/>
<line x1="85" y1="42" x2="85" y2="470" stroke="#111827" stroke-width="1"/>
<line x1="85.00" y1="42" x2="85.00" y2="470" stroke="#e5e7eb" stroke-width="1"/>
<text x="85.00" y="494" text-anchor="middle" font-family="Arial" font-size="12" fill="#374151">0</text>
<line x1="252.50" y1="42" x2="252.50" y2="470" stroke="#e5e7eb" stroke-width="1"/>
<text x="252.50" y="494" text-anchor="middle" font-family="Arial" font-size="12" fill="#374151">50000</text>
<line x1="420.00" y1="42" x2="420.00" y2="470" stroke="#e5e7eb" stroke-width="1"/>
<text x="420.00" y="494" text-anchor="middle" font-family="Arial" font-size="12" fill="#374151">100000</text>
<line x1="587.50" y1="42" x2="587.50" y2="470" stroke="#e5e7eb" stroke-width="1"/>
<text x="587.50" y="494" text-anchor="middle" font-family="Arial" font-size="12" fill="#374151">149999</text>
<line x1="755.00" y1="42" x2="755.00" y2="470" stroke="#e5e7eb" stroke-width="1"/>
<text x="755.00" y="494" text-anchor="middle" font-family="Arial" font-size="12" fill="#374151">199999</text>
<line x1="85" y1="470.00" x2="755" y2="470.00" stroke="#e5e7eb" stroke-width="1"/>
<text x="73" y="474.00" text-anchor="end" font-family="Arial" font-size="12" fill="#374151">-8972</text>
<line x1="85" y1="363.00" x2="755" y2="363.00" stroke="#e5e7eb" stroke-width="1"/>
<text x="73" y="367.00" text-anchor="end" font-family="Arial" font-size="12" fill="#374151">-921</text>
<line x1="85" y1="256.00" x2="755" y2="256.00" stroke="#e5e7eb" stroke-width="1"/>
<text x="73" y="260.00" text-anchor="end" font-family="Arial" font-size="12" fill="#374151">7129</text>
<line x1="85" y1="149.00" x2="755" y2="149.00" stroke="#e5e7eb" stroke-width="1"/>
<text x="73" y="153.00" text-anchor="end" font-family="Arial" font-size="12" fill="#374151">15179</text>
<line x1="85" y1="42.00" x2="755" y2="42.00" stroke="#e5e7eb" stroke-width="1"/>
<text x="73" y="46.00" text-anchor="end" font-family="Arial" font-size="12" fill="#374151">23230</text>
<polyline fill="none" stroke="#2563eb" stroke-width="2" points="85.00,350.75 85.34,350.75 85.67,350.31 86.01,350.65 86.34,351.71 86.68,352.71 87.01,353.76 87.35,354.69 87.68,355.49 88.02,356.50 88.35,356.89 88.69,357.39 89.02,357.52 89.36,357.39 89.69,356.72 90.03,356.19 90.36,355.84 90.70,355.75 91.03,356.28 91.37,356.02 91.70,355.88 92.04,355.49 92.37,356.35 92.71,356.61 93.04,356.22 93.38,356.27 93.71,356.67 94.05,356.00 94.38,355.14 94.72,354.90 95.05,353.97 95.39,353.04 95.72,351.84 96.06,351.05 96.39,349.82 96.73,349.16 97.06,348.23 97.40,347.24 97.73,346.71 98.07,345.65 98.40,344.59 98.74,343.92 99.07,342.99 99.41,341.80 99.74,340.60 100.08,340.17 100.41,340.98 100.75,342.05 101.08,343.07 101.42,344.01 101.75,345.09 102.09,345.62 102.42,346.82 102.76,347.87 103.09,348.93 103.43,347.78 103.76,347.11 104.10,346.62 104.43,345.78 104.77,345.52 105.10,345.12 105.44,345.38 105.77,346.05 106.11,346.85 106.44,347.74 106.78,348.40 107.11,349.60 107.45,349.64 107.78,348.57 108.12,348.45 108.45,348.27 108.79,347.74 109.12,346.81 109.46,346.29 109.79,345.40 110.13,344.44 110.46,343.64 110.80,343.38 111.13,343.24 111.47,343.76 111.80,343.90 112.14,343.84 112.47,344.03 112.81,344.43 113.14,344.69 113.48,344.69 113.81,344.67 114.15,344.67 114.48,344.80 114.82,344.93 115.15,344.72 115.49,344.59 115.82,344.84 116.16,344.84 116.49,345.64 116.83,346.70 117.16,347.76 117.50,348.69 117.83,349.62 118.17,350.69 118.50,351.63 118.84,352.69 119.17,353.49 119.51,354.29 119.84,354.98 120.18,355.91 120.51,356.84 120.85,357.84 121.18,358.77 121.52,359.58 121.85,360.64 122.19,361.53 122.52,362.46 122.86,363.25 123.19,364.18 123.53,365.16 123.86,365.83 124.20,367.02 124.53,367.82 124.87,368.98 125.20,369.77 125.54,370.36 125.87,371.02 126.21,370.23 126.54,369.43 126.88,368.36 127.21,367.43 127.55,366.90 127.88,366.74 128.22,366.34 128.55,365.41 128.89,365.19 129.22,364.96 129.56,364.70 129.89,363.78 130.23,362.72 130.56,361.39 130.90,360.32 131.23,358.99 131.57,358.99 131.90,358.45 132.24,358.69 132.57,358.42 132.91,359.39 133.24,360.32 133.58,361.39 133.91,361.25 134.25,361.96 134.58,362.22 134.92,363.15 135.25,363.01 135.59,363.69 135.92,363.95 136.26,364.04 136.59,364.44 136.93,365.37 137.26,365.63 137.60,365.63 137.93,364.56 138.27,365.04 138.60,364.91 138.94,365.09 139.27,365.36 139.61,366.06 139.94,366.73 140.28,367.42 140.61,368.62 140.95,369.55 141.28,370.21 141.62,371.28 141.95,372.47 142.29,373.27 142.62,374.20 142.96,375.26 143.29,376.06 143.63,376.99 143.96,377.79 144.30,378.72 144.63,379.28 144.97,380.09 145.30,380.35 145.64,381.55 145.97,382.51 146.31,383.57 146.64,384.50 146.98,383.99 147.31,384.66 147.65,385.72 147.98,386.52 148.32,387.22 148.65,388.02 148.99,388.50 149.32,388.90 149.66,389.83 149.99,391.03 150.33,392.09 150.66,392.42 151.00,393.07 151.33,393.07 151.67,393.60 152.00,393.75 152.34,394.81 152.67,395.74 153.01,396.28 153.34,396.81 153.68,397.45 154.01,397.83 154.35,398.71 154.68,399.53 155.02,400.72 155.35,401.65 155.69,402.97 156.02,404.02 156.36,404.96 156.69,405.57 157.03,405.86 157.36,406.66 157.70,407.85 158.03,408.44 158.37,409.63 158.70,410.70 159.04,411.23 159.37,412.29 159.71,413.05 160.04,414.11 160.38,414.91 160.71,415.18 161.05,415.31 161.38,415.31 161.72,415.02 162.05,414.88 162.39,413.83 162.72,412.64 163.06,412.16 163.39,411.49 163.73,411.73 164.06,412.69 164.40,413.36 164.73,414.15 165.07,413.49 165.40,412.56 165.74,411.63 166.07,410.63 166.41,409.57 166.74,408.90 167.08,408.24 167.41,407.43 167.75,406.36 168.08,405.47 168.42,404.68 168.75,403.61 169.09,402.55 169.42,401.62 169.76,400.66 170.09,399.73 170.43,398.60 170.76,397.94 171.10,397.14 171.43,396.48 171.77,395.54 172.10,394.65 172.44,393.59 172.77,392.53 173.11,391.73 173.44,390.68 173.78,389.62 174.11,388.82 174.45,388.02 174.78,387.22 175.12,386.17 175.45,385.22 175.79,384.02 176.12,382.96 176.46,382.16 176.79,381.10 177.13,380.30 177.46,379.14 177.80,378.43 178.13,377.50 178.47,376.51 178.80,375.83 179.14,375.16 179.47,374.23 179.81,373.56 180.14,372.63 180.48,371.55 180.81,370.49 181.15,369.43 181.48,368.86 181.82,367.93 182.15,366.86 182.49,365.81 182.82,364.88 183.16,364.08 183.49,363.42 183.83,362.22 184.16,361.41 184.50,360.39 184.83,359.66 185.17,358.74 185.50,357.66 185.84,356.47 186.17,355.67 186.51,354.78 186.84,353.80 187.18,352.60 187.51,351.56 187.85,350.77 188.18,350.00 188.52,349.07 188.85,348.27 189.19,347.60 189.52,346.54 189.86,345.48 190.19,344.64 190.53,344.24 190.86,343.04 191.20,342.25 191.53,341.05 191.87,339.85 192.20,338.79 192.54,337.89 192.87,336.96 193.21,336.29 193.54,335.38 193.88,334.31 194.21,333.38 194.55,332.58 194.88,331.81 195.22,330.58 195.55,329.25 195.89,328.33 196.22,327.40 196.56,326.47 196.89,325.67 197.23,324.62 197.56,324.66 197.90,324.00 198.23,323.33 198.57,322.27 198.90,321.61 199.24,320.68 199.57,319.65 199.91,318.85 200.24,318.06 200.58,317.39 200.91,316.20 201.25,315.40 201.58,314.34 201.92,313.40 202.25,312.47 202.59,311.68 202.92,311.15 203.26,309.95 203.59,309.02 203.93,308.09 204.26,307.03 204.60,306.09 204.93,305.03 205.27,303.97 205.60,302.90 205.94,301.95 206.27,300.88 206.61,299.82 206.94,299.02 207.28,297.69 207.61,296.50 207.95,295.55 208.28,294.49 208.62,293.41 208.95,292.35 209.29,291.16 209.62,290.62 209.96,289.69 210.29,288.36 210.63,287.57 210.96,286.85 211.30,285.91 211.63,284.97 211.97,284.31 212.30,283.46 212.64,282.38 212.97,281.32 213.31,281.09 213.64,280.51 213.98,279.58 214.31,278.52 214.65,277.59 214.98,276.52 215.32,275.86 215.65,274.79 215.99,274.09 216.32,273.21 216.66,272.15 216.99,271.22 217.33,270.55 217.66,269.36 218.00,268.69 218.33,267.76 218.67,267.10 219.00,266.30 219.34,265.64 219.67,264.92 220.01,263.78 220.34,262.58 220.68,261.66 221.01,260.82 221.35,259.75 221.68,258.68 222.02,258.35 222.35,258.22 222.69,258.22 223.02,257.95 223.36,258.22 223.69,258.88 224.03,260.08 224.36,260.92 224.70,261.85 225.03,262.53 225.37,263.40 225.70,264.60 226.04,265.62 226.37,266.39 226.71,267.32 227.04,268.39 227.38,269.33 227.71,270.26 228.05,271.31 228.38,272.10 228.72,273.52 229.05,274.38 229.39,274.91 229.72,275.58 230.06,276.44 230.39,277.37 230.73,278.44 231.06,279.38 231.40,280.23 231.73,281.33 232.07,282.32 232.40,283.07 232.74,283.87 233.07,284.67 233.41,285.35 233.74,286.01 234.08,286.72 234.41,287.37 234.75,288.56 235.08,289.36 235.42,290.54 235.75,291.47 236.09,291.74 236.42,291.74 236.76,290.68 237.09,289.61 237.43,288.67 237.76,287.77 238.10,286.70 238.43,285.37 238.77,284.31 239.10,283.25 239.44,282.18 239.77,281.64 240.11,281.63 240.44,281.77 240.78,281.37 241.11,281.24 241.45,281.11 241.78,281.07 242.12,280.27 242.45,279.34 242.79,278.41 243.12,277.64 243.46,276.71 243.79,275.91 244.13,275.10 244.46,274.17 244.80,273.36 245.13,272.23 245.47,271.70 245.80,270.73 246.14,269.74 246.47,268.41 246.81,268.02 247.14,267.35 247.48,266.29 247.81,264.96 248.15,264.16 248.48,263.10 248.82,262.14 249.15,260.94 249.49,260.31 249.82,259.52 250.16,258.39 250.49,257.22 250.83,256.77 251.16,255.88 251.50,254.68 251.83,253.62 252.17,252.82 252.50,252.03 252.84,251.24 253.17,250.05 253.51,249.31 253.84,248.40 254.18,247.23 254.51,246.43 254.85,245.85 255.18,244.88 255.52,244.22 255.85,243.29 256.19,242.23 256.52,241.83 256.86,240.90 257.19,240.10 257.53,239.44 257.86,239.17 258.20,239.41 258.53,239.57 258.87,239.82 259.20,239.82 259.54,239.29 259.87,239.16 260.21,239.72 260.54,239.97 260.88,240.24 261.21,240.25 261.55,240.01 261.88,240.02 262.22,240.02 262.55,239.86 262.89,239.51 263.22,239.51 263.56,239.77 263.89,240.97 264.23,242.16 264.56,242.32 264.90,241.79 265.23,240.73 265.57,240.73 265.90,239.80 266.24,238.73 266.57,238.03 266.91,237.47 267.24,236.28 267.58,235.35 267.91,234.68 268.25,234.81 268.58,235.52 268.92,236.65 269.25,237.45 269.59,238.38 269.92,239.17 270.26,239.44 270.59,239.17 270.93,238.64 271.26,238.38 271.60,238.64 271.93,238.92 272.27,238.96 272.60,239.23 272.94,239.13 273.27,239.17 273.61,239.17 273.94,239.17 274.28,239.31 274.61,238.39 274.95,237.33 275.28,236.79 275.62,236.66 275.95,235.60 276.29,234.44 276.62,233.51 276.96,232.58 277.29,231.78 277.63,230.99 277.96,230.04 278.30,230.04 278.63,229.55 278.97,228.49 279.30,227.82 279.64,226.63 279.97,226.08 280.31,225.28 280.64,224.57 280.98,223.64 281.31,222.71 281.65,222.00 281.98,221.38 282.32,220.71 282.65,219.50 282.99,218.70 283.32,218.31 283.66,217.11 283.99,216.19 284.33,215.40 284.66,214.32 285.00,213.52 285.33,212.59 285.67,211.66 286.00,210.60 286.34,209.67 286.67,208.87 287.01,207.95 287.34,206.89 287.68,206.36 288.01,207.02 288.35,206.64 288.68,205.97 289.02,205.57 289.35,205.68 289.69,205.92 290.02,206.18 290.36,205.12 290.69,204.11 291.03,203.31 291.36,202.45 291.70,201.39 292.03,200.06 292.37,198.73 292.70,197.40 293.04,196.34 293.37,195.59 293.71,194.53 294.04,193.49 294.38,192.56 294.71,191.50 295.05,190.65 295.38,189.82 295.72,188.89 296.05,187.86 296.39,186.39 296.72,185.86 297.06,185.06 297.39,184.40 297.73,183.47 298.06,183.35 298.40,183.82 298.73,183.44 299.07,183.43 299.40,184.49 299.74,185.69 300.07,186.62 300.41,187.50 300.74,188.69 301.08,189.49 301.41,190.55 301.75,191.40 302.08,192.07 302.42,193.01 302.75,193.76 303.09,194.32 303.42,195.25 303.76,196.44 304.09,196.97 304.43,197.90 304.76,198.42 305.10,198.74 305.43,199.67 305.77,200.47 306.10,201.00 306.44,200.87 306.77,200.32 307.11,199.39 307.44,198.06 307.78,197.40 308.11,197.40 308.45,196.28 308.78,195.09 309.12,194.46 309.45,193.53 309.79,192.60 310.12,191.40 310.46,190.67 310.79,189.61 311.13,188.68 311.46,187.35 311.80,186.49 312.13,185.99 312.47,184.93 312.80,184.39 313.14,183.38 313.47,182.45 313.81,181.52 314.14,180.45 314.48,179.52 314.81,178.68 315.15,177.89 315.48,177.25 315.82,176.01 316.15,175.48 316.49,174.42 316.82,173.75 317.16,173.09 317.49,172.29 317.83,171.49 318.16,170.91 318.50,169.98 318.83,168.78 319.17,167.72 319.50,166.52 319.84,165.33 320.17,164.77 320.51,164.24 320.84,163.84 321.18,162.64 321.51,162.00 321.85,160.81 322.18,159.61 322.52,158.68 322.85,158.02 323.19,156.99 323.52,155.98 323.86,154.92 324.19,154.26 324.53,153.19 324.86,152.31 325.20,151.12 325.53,150.32 325.87,149.39 326.20,148.33 326.54,147.40 326.87,146.20 327.21,145.56 327.54,144.77 327.88,144.10 328.21,143.04 328.55,142.11 328.88,141.07 329.22,139.87 329.55,138.81 329.89,138.07 330.22,137.27 330.56,136.07 330.89,135.41 331.23,134.74 331.56,133.71 331.90,132.78 332.23,131.98 332.57,131.21 332.90,130.41 333.24,129.08 333.57,127.90 333.91,126.84 334.24,125.91 334.58,124.72 334.91,124.06 335.25,123.25 335.58,122.45 335.92,121.52 336.25,120.19 336.59,119.13 336.92,118.20 337.26,117.00 337.59,116.11 337.93,115.18 338.26,114.12 338.60,113.32 338.93,112.33 339.27,111.54 339.60,110.47 339.94,109.73 340.27,108.67 340.61,107.47 340.94,106.27 341.28,105.34 341.61,104.01 341.95,103.22 342.28,102.59 342.62,101.40 342.95,100.47 343.29,99.40 343.62,98.49 343.96,97.16 344.29,96.09 344.63,94.90 344.96,93.95 345.30,93.55 345.63,92.76 345.97,92.23 346.30,91.43 346.64,91.51 346.97,91.59 347.31,91.31 347.64,90.51 347.98,89.58 348.31,88.65 348.65,88.24 348.98,88.32 349.32,88.32 349.65,88.62 349.99,88.53 350.32,88.93 350.66,88.77 350.99,88.78 351.33,89.18 351.66,89.33 352.00,89.19 352.33,89.11 352.67,88.98 353.00,89.65 353.34,90.13 353.67,91.25 354.01,92.05 354.34,92.85 354.68,93.78 355.01,94.44 355.35,95.51 355.68,96.44 356.02,97.36 356.35,98.29 356.69,99.48 357.02,100.15 357.36,101.30 357.69,101.02 358.03,101.09 358.36,100.77 358.70,101.04 359.03,101.00 359.37,99.76 359.70,98.56 360.04,97.37 360.37,96.84 360.71,95.64 361.04,95.11 361.38,94.98 361.71,95.16 362.05,94.83 362.38,94.43 362.72,94.56 363.05,94.88 363.39,94.09 363.72,93.55 364.06,92.62 364.39,91.69 364.73,90.82 365.06,89.53 365.40,88.68 365.73,87.75 366.07,86.82 366.40,85.75 366.74,84.82 367.07,83.63 367.41,83.05 367.74,81.99 368.08,81.02 368.41,79.82 368.75,79.03 369.08,77.83 369.42,77.03 369.75,76.01 370.09,75.08 370.42,74.02 370.76,73.13 371.09,72.31 371.43,71.52 371.76,71.85 372.10,72.25 372.43,72.99 372.77,72.90 373.10,72.35 373.44,72.10 373.77,72.73 374.11,73.13 374.44,72.31 374.78,71.78 375.11,71.76 375.45,71.61 375.78,71.94 376.12,72.46 376.45,72.86 376.79,73.39 377.12,73.52 377.46,73.23 377.79,74.24 378.13,74.91 378.46,75.57 378.80,76.77 379.13,77.83 379.47,78.73 379.80,78.60 380.14,78.60 380.47,78.87 380.81,79.93 381.14,80.73 381.48,81.79 381.81,82.19 382.15,82.46 382.48,83.27 382.82,83.69 383.15,83.29 383.49,83.69 383.82,83.96 384.16,84.70 384.49,85.77 384.83,86.83 385.16,87.87 385.50,88.53 385.83,89.73 386.17,90.26 386.50,91.19 386.84,91.93 387.17,92.07 387.51,92.01 387.84,91.89 388.18,91.88 388.51,91.73 388.85,90.94 389.18,90.39 389.52,89.63 389.85,88.57 390.19,87.91 390.52,87.85 390.86,87.32 391.19,87.45 391.53,87.05 391.86,86.79 392.20,86.28 392.53,85.62 392.87,84.95 393.20,83.67 393.54,82.74 393.87,81.72 394.21,81.06 394.54,82.07 394.88,82.10 395.21,82.63 395.55,83.69 395.88,84.82 396.22,85.75 396.55,86.68 396.89,87.35 397.22,88.28 397.56,89.21 397.89,90.14 398.23,90.80 398.56,91.73 398.90,92.40 399.23,92.80 399.57,93.39 399.90,94.17 400.24,94.83 400.57,96.03 400.91,97.22 401.24,98.42 401.58,99.35 401.91,99.75 402.25,99.22 402.58,98.66 402.92,97.78 403.25,96.85 403.59,96.94 403.92,97.21 404.26,98.14 404.59,98.95 404.93,99.61 405.26,100.20 405.60,101.13 405.93,101.91 406.27,102.84 406.60,103.82 406.94,104.76 407.27,105.82 407.61,106.62 407.94,107.95 408.28,109.14 408.61,110.23 408.95,111.17 409.28,112.33 409.62,113.13 409.95,114.06 410.29,114.99 410.62,116.46 410.96,117.12 411.29,118.05 411.63,118.62 411.96,119.55 412.30,120.62 412.63,121.55 412.97,122.56 413.30,123.62 413.64,124.42 413.97,125.48 414.31,126.41 414.64,127.43 414.98,128.10 415.31,129.36 415.65,130.56 415.98,131.62 416.32,132.30 416.65,132.96 416.99,133.89 417.32,134.82 417.66,135.89 417.99,136.68 418.33,137.47 418.66,138.53 419.00,139.60 419.33,140.53 419.67,141.59 420.00,142.52 420.34,143.72 420.67,143.98 421.01,144.51 421.34,145.58 421.68,145.97 422.01,145.44 422.35,145.44 422.68,145.38 423.02,145.12 423.35,145.66 423.69,145.51 424.02,145.11 424.36,145.39 424.69,145.15 425.03,145.62 425.36,145.72 425.70,145.59 426.03,146.39 426.37,147.72 426.70,147.93 427.04,148.26 427.37,149.06 427.71,149.87 428.04,150.80 428.38,151.46 428.71,152.00 429.05,152.79 429.38,153.87 429.72,154.53 430.05,155.20 430.39,156.26 430.72,157.33 431.06,158.30 431.39,159.09 431.73,160.56 432.06,160.95 432.40,162.11 432.73,162.78 433.07,164.10 433.40,165.17 433.74,166.07 434.07,166.99 434.41,168.18 434.74,169.25 435.08,169.91 435.41,170.71 435.75,171.48 436.08,172.41 436.42,173.47 436.75,174.54 437.09,175.47 437.42,176.53 437.76,177.46 438.09,178.50 438.43,179.43 438.76,180.33 439.10,181.40 439.43,182.46 439.77,183.39 440.10,184.32 440.44,184.83 440.77,185.76 441.11,186.82 441.44,188.15 441.78,188.91 442.11,189.76 442.45,190.95 442.78,192.02 443.12,193.08 443.45,193.74 443.79,194.81 444.12,195.87 444.46,196.93 444.79,197.65 445.13,198.69 445.46,200.02 445.80,201.07 446.13,202.13 446.47,202.80 446.80,203.06 447.14,202.93 447.47,203.10 447.81,203.01 448.14,202.74 448.48,202.82 448.81,202.57 449.15,202.17 449.48,202.24 449.82,202.50 450.15,202.52 450.49,202.78 450.82,203.31 451.16,203.47 451.49,204.27 451.83,205.05 452.16,205.45 452.50,205.45 452.83,206.62 453.17,207.69 453.50,208.88 453.84,209.68 454.17,210.57 454.51,211.77 454.84,212.70 455.18,213.51 455.51,214.31 455.85,215.10 456.18,216.17 456.52,217.10 456.85,217.89 457.19,218.56 457.52,219.36 457.86,220.42 458.19,221.24 458.53,222.33 458.86,223.26 459.20,224.46 459.53,224.99 459.87,226.05 460.20,227.12 460.54,228.05 460.87,228.85 461.21,229.64 461.54,230.31 461.88,231.11 462.21,231.50 462.55,231.37 462.88,231.76 463.22,232.51 463.55,231.62 463.89,231.09 464.22,231.09 464.56,230.28 464.89,230.29 465.23,229.90 465.56,229.50 465.90,230.03 466.23,230.69 466.57,231.62 466.90,232.29 467.24,233.22 467.57,234.38 467.91,235.57 468.24,236.87 468.58,238.06 468.91,238.52 469.25,239.59 469.58,240.68 469.92,241.61 470.25,242.54 470.59,243.35 470.92,244.01 471.26,244.94 471.59,245.87 471.93,247.07 472.26,247.87 472.60,249.06 472.93,250.05 473.27,251.03 473.60,252.09 473.94,253.02 474.27,253.39 474.61,254.72 474.94,255.44 475.28,256.11 475.61,255.23 475.95,255.36 476.28,254.70 476.62,255.23 476.95,254.83 477.29,255.51 477.62,256.54 477.96,257.54 478.29,258.87 478.63,259.93 478.96,260.74 479.30,261.68 479.63,262.51 479.97,262.50 480.30,262.23 480.64,262.10 480.97,262.90 481.31,263.12 481.64,264.05 481.98,265.25 482.31,266.18 482.65,264.85 482.98,263.92 483.32,262.86 483.65,262.73 483.99,261.79 484.32,261.13 484.66,260.20 484.99,259.27 485.33,258.30 485.66,257.61 486.00,256.54 486.33,255.48 486.67,254.50 487.00,253.53 487.34,252.86 487.67,252.73 488.01,252.20 488.34,252.20 488.68,252.20 489.01,252.13 489.35,251.87 489.68,252.03 490.02,252.62 490.35,252.33 490.69,252.19 491.02,252.58 491.36,253.65 491.69,253.65 492.03,253.83 492.36,253.83 492.70,254.03 493.03,254.78 493.37,255.57 493.70,256.51 494.04,257.30 494.37,258.34 494.71,259.40 495.04,260.47 495.38,261.53 495.71,262.69 496.05,263.88 496.38,264.41 496.72,265.61 497.05,266.31 497.39,267.51 497.72,268.44 498.06,268.31 498.39,268.56 498.73,269.62 499.06,270.42 499.40,271.70 499.73,272.76 500.07,273.82 500.40,274.49 500.74,275.29 501.07,276.48 501.41,277.28 501.74,277.44 502.08,277.44 502.41,277.20 502.75,277.33 503.08,277.20 503.42,277.47 503.75,277.47 504.09,277.56 504.42,277.53 504.76,277.53 505.09,278.46 505.43,278.06 505.76,277.96 506.10,277.03 506.43,277.16 506.77,277.00 507.10,276.68 507.44,276.95 507.77,276.68 508.11,276.77 508.44,277.08 508.78,277.98 509.11,278.75 509.45,278.89 509.78,279.29 510.12,278.66 510.45,277.33 510.79,276.54 511.12,275.70 511.46,274.89 511.79,273.96 512.13,273.57 512.46,273.66 512.80,273.96 513.13,274.86 513.47,275.02 513.80,274.63 514.14,273.80 514.47,273.00 514.81,272.07 515.14,271.31 515.48,270.25 515.81,269.05 516.15,267.86 516.48,266.79 516.82,265.93 517.15,264.97 517.49,263.64 517.82,262.45 518.16,261.52 518.49,260.55 518.83,259.64 519.16,258.96 519.50,258.43 519.83,257.37 520.17,256.73 520.50,255.67 520.84,254.87 521.17,253.83 521.51,252.77 521.84,251.80 522.18,250.74 522.51,249.61 522.85,248.61 523.18,247.41 523.52,246.56 523.85,245.50 524.19,244.65 524.52,243.85 524.86,243.19 525.19,242.26 525.53,241.26 525.86,240.60 526.20,239.93 526.53,239.89 526.87,239.23 527.20,239.04 527.54,239.31 527.87,240.06 528.21,240.64 528.54,241.82 528.88,242.62 529.21,243.55 529.55,244.88 529.88,245.94 530.22,247.27 530.55,248.07 530.89,248.86 531.22,249.66 531.56,250.86 531.89,251.72 532.23,252.52 532.56,253.45 532.90,254.38 533.23,255.18 533.57,256.11 533.90,256.77 534.24,257.83 534.57,258.53 534.91,259.77 535.24,260.71 535.58,261.64 535.91,262.57 536.25,263.63 536.58,264.71 536.92,265.77 537.25,266.63 537.59,267.51 537.92,268.68 538.26,269.48 538.59,270.54 538.93,271.35 539.26,272.15 539.60,272.41 539.93,271.91 540.27,271.56 540.60,271.66 540.94,271.92 541.27,271.92 541.61,272.15 541.94,272.10 542.28,270.90 542.61,270.10 542.95,268.91 543.28,267.99 543.62,267.36 543.95,266.57 544.29,265.41 544.62,264.08 544.96,263.06 545.29,261.99 545.63,260.93 545.96,260.13 546.30,259.23 546.63,258.50 546.97,257.66 547.30,256.60 547.64,255.80 547.97,255.14 548.31,254.21 548.64,253.26 548.98,252.60 549.31,251.40 549.65,250.21 549.98,250.10 550.32,249.97 550.65,250.10 550.99,250.10 551.32,249.43 551.66,248.37 551.99,247.31 552.33,246.11 552.66,245.21 553.00,244.41 553.33,243.77 553.67,243.52 554.00,243.52 554.34,243.79 554.67,243.65 555.01,243.80 555.34,244.20 555.68,244.42 556.01,244.64 556.35,244.50 556.68,244.28 557.02,244.22 557.35,244.49 557.69,245.15 558.02,246.35 558.36,247.27 558.69,248.08 559.03,248.86 559.36,249.69 559.70,250.75 560.03,251.23 560.37,252.29 560.70,252.82 561.04,253.22 561.37,253.67 561.71,253.63 562.04,254.02 562.38,255.22 562.71,256.41 563.05,257.29 563.38,257.99 563.72,258.92 564.05,259.99 564.39,261.32 564.72,262.11 565.06,262.91 565.39,264.11 565.73,264.59 566.06,265.13 566.40,266.05 566.73,266.85 567.07,267.91 567.40,268.87 567.74,270.06 568.07,271.17 568.41,272.36 568.74,273.42 569.08,274.09 569.41,275.29 569.75,275.96 570.08,276.80 570.42,278.13 570.75,279.06 571.09,280.03 571.42,280.56 571.76,281.12 572.09,281.84 572.43,282.50 572.76,283.37 573.10,284.16 573.43,284.63 573.77,285.69 574.10,286.56 574.44,287.49 574.77,288.02 575.11,289.08 575.44,289.95 575.78,290.88 576.11,291.54 576.45,292.07 576.78,293.04 577.12,294.24 577.45,295.18 577.79,296.25 578.12,296.91 578.46,297.97 578.79,299.04 579.13,299.97 579.46,300.65 579.80,301.54 580.13,302.73 580.47,303.34 580.80,304.14 581.14,304.98 581.47,305.78 581.81,306.91 582.14,307.84 582.48,308.50 582.81,309.17 583.15,309.17 583.48,310.11 583.82,311.03 584.15,311.69 584.49,312.49 584.82,313.02 585.16,312.62 585.49,311.69 585.83,311.03 586.16,310.23 586.50,309.30 586.83,308.50 587.17,307.97 587.50,306.91 587.84,306.24 588.17,305.31 588.51,304.38 588.84,303.45 589.18,302.65 589.51,301.76 589.85,301.89 590.18,302.69 590.52,303.22 590.85,303.50 591.19,304.30 591.52,304.18 591.86,303.69 592.19,302.76 592.53,302.89 592.86,302.76 593.20,303.16 593.53,302.79 593.87,303.26 594.20,304.14 594.54,303.77 594.87,303.54 595.21,302.61 595.54,301.42 595.88,299.98 596.21,299.05 596.55,298.12 596.88,297.06 597.22,295.86 597.55,294.80 597.89,293.47 598.22,292.54 598.56,291.21 598.89,290.32 599.23,289.39 599.56,288.19 599.90,287.26 600.23,286.33 600.57,285.53 600.90,284.60 601.24,283.81 601.57,282.61 601.91,281.68 602.24,280.75 602.58,279.94 602.91,278.90 603.25,278.10 603.58,277.57 603.92,277.52 604.25,278.53 604.59,278.66 604.92,279.30 605.26,280.23 605.59,281.16 605.93,281.85 606.26,282.12 606.60,282.52 606.93,283.58 607.27,284.59 607.60,285.65 607.94,286.02 608.27,286.01 608.61,285.81 608.94,285.15 609.28,284.55 609.61,283.75 609.95,283.77 610.28,284.16 610.62,284.16 610.95,284.30 611.29,285.29 611.62,285.43 611.96,284.10 612.29,283.17 612.63,281.97 612.96,280.91 613.30,280.03 613.63,279.50 613.97,279.49 614.30,278.98 614.64,278.05 614.97,277.39 615.31,276.72 615.64,275.52 615.98,274.69 616.31,273.76 616.65,272.63 616.98,271.47 617.32,270.46 617.65,269.66 617.99,269.93 618.32,269.54 618.66,268.61 618.99,267.82 619.33,266.75 619.66,265.82 620.00,265.08 620.33,264.28 620.67,263.51 621.00,262.45 621.34,261.12 621.67,260.45 622.01,259.60 622.34,258.67 622.68,257.73 623.01,256.80 623.35,256.00 623.68,255.20 624.02,254.41 624.35,253.61 624.69,252.81 625.02,252.15 625.36,251.35 625.69,250.55 626.03,249.66 626.36,248.80 626.70,248.16 627.03,247.17 627.37,246.43 627.70,245.77 628.04,244.94 628.37,243.61 628.71,242.68 629.04,241.88 629.38,241.09 629.71,240.16 630.05,240.06 630.38,239.94 630.72,240.69 631.05,239.84 631.39,238.79 631.72,238.24 632.06,237.19 632.39,236.40 632.73,236.87 633.06,235.68 633.40,234.61 633.73,233.68 634.07,233.11 634.40,232.58 634.74,231.81 635.07,230.87 635.41,230.08 635.74,229.02 636.08,228.05 636.41,227.24 636.75,226.04 637.08,225.24 637.42,224.22 637.75,223.16 638.09,222.09 638.42,221.03 638.76,220.47 639.09,219.41 639.43,218.45 639.76,217.63 640.10,216.83 640.43,216.30 640.77,215.37 641.10,214.31 641.44,213.11 641.77,212.05 642.11,211.14 642.44,210.21 642.78,209.28 643.11,208.55 643.45,207.75 643.78,206.69 644.12,205.83 644.45,204.76 644.79,203.70 645.12,202.64 645.46,201.31 645.79,200.77 646.13,200.00 646.46,199.21 646.80,198.22 647.13,197.19 647.47,195.99 647.80,195.06 648.14,193.93 648.47,192.73 648.81,191.40 649.14,190.87 649.48,189.41 649.81,188.35 650.15,187.42 650.48,186.35 650.82,185.42 651.15,184.23 651.49,182.94 651.82,182.43 652.16,181.50 652.49,180.24 652.83,179.77 653.16,179.19 653.50,178.53 653.83,178.39 654.17,177.99 654.50,178.13 654.84,178.30 655.17,177.33 655.51,176.00 655.84,175.67 656.18,175.53 656.51,175.80 656.85,176.33 657.18,176.72 657.52,177.00 657.85,177.99 658.19,177.79 658.52,177.81 658.86,177.36 659.19,176.16 659.53,175.23 659.86,174.17 660.20,173.24 660.53,172.46 660.87,171.67 661.20,171.93 661.54,171.27 661.87,170.80 662.21,170.40 662.54,170.84 662.88,171.11 663.21,171.69 663.55,172.62 663.88,173.69 664.22,174.09 664.55,174.48 664.89,175.28 665.22,174.95 665.56,174.87 665.89,174.07 666.23,174.27 666.56,174.27 666.90,174.14 667.23,173.13 667.57,173.51 667.90,173.65 668.24,173.29 668.57,172.89 668.91,172.90 669.24,172.50 669.58,172.93 669.91,172.80 670.25,172.27 670.58,173.06 670.92,173.75 671.25,174.83 671.59,175.81 671.92,176.61 672.26,177.67 672.59,178.87 672.93,180.17 673.26,181.10 673.60,182.15 673.93,182.69 674.27,183.64 674.60,184.16 674.94,185.22 675.27,184.43 675.61,183.68 675.94,183.02 676.28,183.02 676.61,183.20 676.95,183.64 677.28,183.64 677.62,182.98 677.95,182.45 678.29,182.84 678.62,182.63 678.96,182.63 679.29,182.90 679.63,183.83 679.96,185.16 680.30,185.85 680.63,186.65 680.97,187.71 681.30,188.65 681.64,189.70 681.97,190.10 682.31,190.77 682.64,191.80 682.98,192.73 683.31,193.93 683.65,195.31 683.98,196.19 684.32,196.97 684.65,198.17 684.99,198.97 685.32,200.03 685.66,201.24 685.99,202.17 686.33,202.97 686.66,204.00 687.00,204.40 687.33,205.60 687.67,206.65 688.00,207.31 688.34,208.38 688.67,209.17 689.01,210.24 689.34,211.47 689.68,212.27 690.01,213.20 690.35,214.00 690.68,215.06 691.02,215.99 691.35,216.79 691.69,217.56 692.02,218.23 692.36,219.42 692.69,219.65 693.03,219.91 693.36,220.94 693.70,220.98 694.03,220.43 694.37,220.25 694.70,220.86 695.04,220.59 695.37,220.51 695.71,219.37 696.04,218.49 696.38,217.56 696.71,216.90 697.05,216.63 697.38,215.99 697.72,214.92 698.05,213.59 698.39,212.87 698.72,212.07 699.06,211.01 699.39,210.22 699.73,209.29 700.06,208.72 700.40,207.53 700.73,206.46 701.07,205.49 701.40,204.83 701.74,204.08 702.07,203.69 702.41,204.12 702.74,204.12 703.08,203.33 703.41,202.64 703.75,202.00 704.08,202.26 704.42,202.87 704.75,202.61 705.09,203.54 705.42,203.94 705.76,204.55 706.09,204.28 706.43,204.15 706.76,203.14 707.10,202.41 707.43,201.23 707.77,200.23 708.10,199.10 708.44,198.70 708.77,197.64 709.11,197.17 709.44,197.44 709.78,197.31 710.11,197.04 710.45,197.00 710.78,196.47 711.12,197.27 711.45,198.46 711.79,199.79 712.12,200.84 712.46,201.05 712.79,201.98 713.13,203.13 713.46,204.32 713.80,204.99 714.13,206.05 714.47,207.11 714.80,207.78 715.14,208.31 715.47,208.98 715.81,209.73 716.14,210.93 716.48,211.46 716.81,211.99 717.15,212.21 717.48,212.34 717.82,212.34 718.15,212.60 718.49,212.60 718.82,213.40 719.16,214.46 719.49,215.66 719.83,216.18 720.16,215.50 720.50,214.94 720.83,214.03 721.17,214.85 721.50,215.16 721.84,214.98 722.17,214.72 722.51,214.45 722.84,214.58 723.18,214.32 723.51,213.83 723.85,212.79 724.18,211.59 724.52,211.75 724.85,211.35 725.19,212.05 725.52,212.05 725.86,211.78 726.19,211.91 726.53,211.78 726.86,212.26 727.20,211.58 727.53,211.01 727.87,209.95 728.20,209.02 728.54,209.35 728.87,210.01 729.21,209.88 729.54,210.41 729.88,211.08 730.21,211.74 730.55,212.26 730.88,213.45 731.22,213.15 731.55,213.02 731.89,212.83 732.22,212.60 732.56,212.34 732.89,212.42 733.23,212.35 733.56,212.35 733.90,211.82 734.23,211.00 734.57,210.20 734.90,209.40 735.24,209.00 735.57,208.74 735.91,208.07 736.24,207.14 736.58,207.06 736.91,207.50 737.25,208.70 737.58,209.76 737.92,210.82 738.25,211.62 738.59,212.82 738.92,213.56 739.26,213.30 739.59,213.71 739.93,214.50 740.26,215.70 740.60,216.10 740.93,216.51 741.27,217.44 741.60,218.77 741.94,219.57 742.27,220.90 742.61,221.84 742.94,222.90 743.28,224.05 743.61,225.11 743.95,226.17 744.28,226.72 744.62,227.25 744.95,228.18 745.29,229.47 745.62,229.74 745.96,228.97 746.29,228.04 746.63,227.50 746.96,226.57 747.30,225.56 747.63,224.66 747.97,223.99 748.30,223.20 748.64,222.31 748.97,221.42 749.31,220.49 749.64,219.56 749.98,218.89 750.31,217.97 750.65,217.26 750.98,216.50 751.32,216.63 751.65,216.33 751.99,215.26 752.32,214.60 752.66,213.67 752.99,212.39 753.33,212.39 753.66,212.39 754.00,212.70 754.33,212.60 754.67,213.45 755.00,214.25"/>
<line x1="783" y1="58" x2="809" y2="58" stroke="#2563eb" stroke-width="3"/>
<text x="817" y="62" font-family="Arial" font-size="13" fill="#111827">Naive</text>
<polyline fill="none" stroke="#dc2626" stroke-width="2" points="85.00,350.75 85.34,350.75 85.67,350.31 86.01,350.65 86.34,351.71 86.68,352.71 87.01,353.76 87.35,354.69 87.68,355.49 88.02,356.32 88.35,356.59 88.69,356.84 89.02,356.92 89.36,356.65 89.69,355.99 90.03,355.33 90.36,354.98 90.70,354.89 91.03,355.29 91.37,354.89 91.70,354.49 92.04,353.96 92.37,354.82 92.71,355.09 93.04,354.69 93.38,354.61 93.71,355.01 94.05,354.34 94.38,353.48 94.72,353.24 95.05,352.31 95.39,351.38 95.72,350.18 96.06,349.38 96.39,348.16 96.73,347.50 97.06,346.57 97.40,345.58 97.73,345.05 98.07,343.99 98.40,343.06 98.74,342.53 99.07,341.60 99.41,340.40 99.74,339.20 100.08,339.18 100.41,339.99 100.75,341.05 101.08,342.07 101.42,343.02 101.75,344.09 102.09,344.63 102.42,345.82 102.76,346.87 103.09,347.94 103.43,346.91 103.76,346.25 104.10,345.76 104.43,345.05 104.77,344.92 105.10,344.52 105.44,344.79 105.77,345.45 106.11,346.25 106.44,347.14 106.78,347.80 107.11,349.00 107.45,349.04 107.78,347.98 108.12,348.12 108.45,347.94 108.79,347.54 109.12,346.61 109.46,346.35 109.79,345.46 110.13,344.51 110.46,343.97 110.80,343.84 111.13,343.84 111.47,344.43 111.80,344.96 112.14,344.91 112.47,345.09 112.81,345.49 113.14,345.76 113.48,345.76 113.81,345.73 114.15,346.04 114.48,346.30 114.82,346.57 115.15,346.54 115.49,346.54 115.82,346.89 116.16,346.89 116.49,347.68 116.83,348.75 117.16,349.81 117.50,350.74 117.83,351.67 118.17,352.73 118.50,353.68 118.84,354.74 119.17,355.54 119.51,356.34 119.84,357.03 120.18,357.96 120.51,358.89 120.85,359.88 121.18,360.81 121.52,361.63 121.85,362.69 122.19,363.58 122.52,364.51 122.86,365.29 123.19,365.83 123.53,366.68 123.86,367.34 124.20,368.54 124.53,369.33 124.87,370.49 125.20,371.29 125.54,371.74 125.87,372.40 126.21,371.47 126.54,370.68 126.88,369.61 127.21,368.68 127.55,368.15 127.88,367.34 128.22,366.54 128.55,365.35 128.89,364.68 129.22,364.32 129.56,363.39 129.89,362.48 130.23,361.41 130.56,360.08 130.90,359.02 131.23,357.69 131.57,357.69 131.90,357.01 132.24,357.11 132.57,356.84 132.91,357.59 133.24,358.52 133.58,359.45 133.91,359.05 134.25,359.54 134.58,359.54 134.92,360.34 135.25,360.12 135.59,360.54 135.92,360.67 136.26,360.63 136.59,360.76 136.93,361.43 137.26,361.28 137.60,361.28 137.93,360.22 138.27,360.48 138.60,360.22 138.94,360.40 139.27,360.40 139.61,361.11 139.94,361.77 140.28,362.46 140.61,363.58 140.95,364.51 141.28,365.17 141.62,366.24 141.95,367.43 142.29,368.23 142.62,369.16 142.96,370.23 143.29,371.02 143.63,371.95 143.96,372.75 144.30,373.68 144.63,374.25 144.97,375.06 145.30,375.33 145.64,376.53 145.97,377.59 146.31,378.65 146.64,379.18 146.98,378.44 147.31,378.84 147.65,379.64 147.98,379.90 148.32,379.85 148.65,379.38 148.99,379.86 149.32,380.13 149.66,381.06 149.99,382.25 150.33,382.97 150.66,382.17 151.00,382.16 151.33,381.78 151.67,382.17 152.00,381.91 152.34,382.84 152.67,383.50 153.01,383.18 153.34,382.61 153.68,382.35 154.01,382.48 154.35,383.36 154.68,383.05 155.02,383.33 155.35,383.60 155.69,384.93 156.02,385.86 156.36,386.65 156.69,386.73 157.03,386.63 157.36,387.42 157.70,388.35 158.03,388.94 158.37,390.27 158.70,391.07 159.04,391.60 159.37,392.66 159.71,393.42 160.04,394.48 160.38,394.32 160.71,394.19 161.05,393.92 161.38,393.26 161.72,392.30 162.05,391.64 162.39,390.59 162.72,389.26 163.06,388.38 163.39,387.32 163.73,387.49 164.06,387.76 164.40,387.62 164.73,387.82 165.07,386.96 165.40,386.03 165.74,385.10 166.07,384.03 166.41,382.97 166.74,382.31 167.08,381.24 167.41,380.18 167.75,379.12 168.08,378.23 168.42,377.30 168.75,376.23 169.09,375.17 169.42,374.24 169.76,373.28 170.09,372.35 170.43,371.22 170.76,370.42 171.10,369.63 171.43,369.10 171.77,368.16 172.10,367.27 172.44,366.34 172.77,365.28 173.11,364.48 173.44,363.43 173.78,362.37 174.11,361.57 174.45,360.78 174.78,360.11 175.12,359.06 175.45,358.10 175.79,357.04 176.12,355.98 176.46,355.10 176.79,354.04 177.13,353.24 177.46,352.08 177.80,351.36 178.13,350.43 178.47,349.45 178.80,348.77 179.14,348.10 179.47,347.16 179.81,346.50 180.14,345.44 180.48,344.36 180.81,343.30 181.15,342.23 181.48,341.53 181.82,340.60 182.15,339.80 182.49,338.75 182.82,337.82 183.16,336.77 183.49,336.11 183.83,334.91 184.16,334.10 184.50,333.08 184.83,332.35 185.17,331.43 185.50,330.35 185.84,329.16 186.17,328.36 186.51,327.56 186.84,326.58 187.18,325.38 187.51,324.34 187.85,323.55 188.18,322.78 188.52,321.84 188.85,321.05 189.19,320.38 189.52,319.32 189.86,318.26 190.19,317.42 190.53,317.02 190.86,315.82 191.20,315.03 191.53,313.83 191.87,312.63 192.20,311.57 192.54,310.67 192.87,309.74 193.21,309.07 193.54,308.15 193.88,307.09 194.21,306.16 194.55,305.36 194.88,304.73 195.22,303.49 195.55,302.16 195.89,301.24 196.22,300.31 196.56,299.52 196.89,299.87 197.23,300.41 197.56,301.20 197.90,301.47 198.23,301.74 198.57,300.67 198.90,300.01 199.24,299.08 199.57,298.05 199.91,297.26 200.24,296.46 200.58,295.79 200.91,295.66 201.25,296.19 201.58,296.19 201.92,295.53 202.25,294.60 202.59,293.80 202.92,293.27 203.26,292.07 203.59,291.14 203.93,290.21 204.26,289.15 204.60,288.22 204.93,287.02 205.27,285.96 205.60,284.90 205.94,283.94 206.27,282.87 206.61,281.81 206.94,281.01 207.28,279.69 207.61,278.49 207.95,277.55 208.28,276.48 208.62,275.41 208.95,275.67 209.29,275.29 209.62,275.51 209.96,276.18 210.29,274.85 210.63,275.64 210.96,275.59 211.30,275.18 211.63,274.71 211.97,274.45 212.30,274.13 212.64,274.18 212.97,274.32 213.31,275.78 213.64,276.26 213.98,276.48 214.31,276.75 214.65,276.75 214.98,277.01 215.32,277.15 215.65,276.08 215.99,275.38 216.32,274.71 216.66,274.58 216.99,274.30 217.33,274.83 217.66,273.65 218.00,273.12 218.33,272.19 218.67,272.95 219.00,272.89 219.34,273.69 219.67,273.77 220.01,274.02 220.34,273.13 220.68,272.22 221.01,271.51 221.35,270.58 221.68,270.98 222.02,271.98 222.35,272.77 222.69,273.70 223.02,274.10 223.36,274.69 223.69,275.75 224.03,277.08 224.36,277.92 224.70,278.85 225.03,279.79 225.37,280.80 225.70,282.00 226.04,282.89 226.37,283.70 226.71,284.63 227.04,285.68 227.38,286.62 227.71,287.55 228.05,288.60 228.38,289.12 228.72,290.54 229.05,291.41 229.39,291.94 229.72,292.60 230.06,293.47 230.39,294.40 230.73,295.59 231.06,296.54 231.40,297.47 231.73,298.57 232.07,299.64 232.40,300.39 232.74,301.32 233.07,302.12 233.41,303.06 233.74,303.73 234.08,304.59 234.41,305.39 234.75,306.59 235.08,307.38 235.42,308.57 235.75,309.50 236.09,309.90 236.42,310.69 236.76,310.03 237.09,308.97 237.43,308.02 237.76,307.09 238.10,306.03 238.43,304.70 238.77,303.64 239.10,302.71 239.44,302.31 239.77,302.71 240.11,303.09 240.44,304.17 240.78,303.90 241.11,304.03 241.45,304.30 241.78,305.19 242.12,304.25 242.45,303.32 242.79,302.39 243.12,301.75 243.46,300.86 243.79,300.06 244.13,299.25 244.46,298.45 244.80,297.64 245.13,296.51 245.47,295.98 245.80,295.01 246.14,294.03 246.47,292.70 246.81,292.30 247.14,291.63 247.48,290.57 247.81,289.24 248.15,288.44 248.48,287.38 248.82,286.42 249.15,285.23 249.49,284.59 249.82,283.81 250.16,282.68 250.49,281.51 250.83,281.05 251.16,280.16 251.50,278.97 251.83,277.90 252.17,277.11 252.50,276.31 252.84,275.52 253.17,274.33 253.51,273.60 253.84,272.68 254.18,271.51 254.51,270.71 254.85,270.13 255.18,269.16 255.52,268.51 255.85,267.58 256.19,266.51 256.52,265.85 256.86,264.92 257.19,264.12 257.53,264.48 257.86,265.54 258.20,266.26 258.53,267.36 258.87,268.41 259.20,269.34 259.54,270.01 259.87,270.94 260.21,272.00 260.54,272.84 260.88,273.90 261.21,274.70 261.55,275.13 261.88,275.88 262.22,276.95 262.55,277.84 262.89,278.67 263.22,279.47 263.56,280.27 263.89,281.47 264.23,282.80 264.56,283.59 264.90,283.73 265.23,283.77 265.57,284.43 265.90,284.43 266.24,284.38 266.57,284.78 266.91,285.41 267.24,284.79 267.58,284.52 267.91,285.03 268.25,285.56 268.58,286.40 268.92,287.53 269.25,288.32 269.59,289.25 269.92,290.05 270.26,291.38 270.59,291.65 270.93,292.10 271.26,292.34 271.60,293.14 271.93,293.47 272.27,293.73 272.60,294.53 272.94,294.97 273.27,295.38 273.61,295.91 273.94,296.26 274.28,296.39 274.61,296.39 274.95,295.85 275.28,296.42 275.62,297.23 275.95,296.56 276.29,295.67 276.62,294.72 276.96,293.79 277.29,292.99 277.63,292.33 277.96,291.79 278.30,292.19 278.63,292.31 278.97,291.38 279.30,290.85 279.64,289.92 279.97,289.64 280.31,290.30 280.64,290.70 280.98,290.04 281.31,289.11 281.65,288.40 281.98,288.14 282.32,288.14 282.65,286.93 282.99,286.13 283.32,285.73 283.66,284.54 283.99,283.62 284.33,282.82 284.66,281.75 285.00,280.95 285.33,280.02 285.67,279.09 286.00,278.16 286.34,277.36 286.67,276.43 287.01,275.76 287.34,274.94 287.68,275.34 288.01,276.28 288.35,277.35 288.68,278.20 289.02,278.86 289.35,279.63 289.69,280.43 290.02,281.47 290.36,280.80 290.69,279.96 291.03,279.83 291.36,279.61 291.70,279.10 292.03,278.17 292.37,278.16 292.70,276.83 293.04,275.76 293.37,275.02 293.71,274.22 294.04,273.19 294.38,272.26 294.71,271.19 295.05,270.34 295.38,269.65 295.72,269.38 296.05,269.15 296.39,268.77 296.72,269.44 297.06,270.10 297.39,270.23 297.73,270.63 298.06,271.71 298.40,272.97 298.73,273.77 299.07,274.69 299.40,275.75 299.74,276.95 300.07,277.88 300.41,278.67 300.74,279.87 301.08,280.67 301.41,281.73 301.75,282.58 302.08,283.25 302.42,284.19 302.75,284.94 303.09,285.49 303.42,286.29 303.76,287.49 304.09,288.02 304.43,289.08 304.76,289.89 305.10,291.09 305.43,292.15 305.77,292.95 306.10,293.80 306.44,294.07 306.77,294.05 307.11,293.39 307.44,292.33 307.78,292.46 308.11,292.99 308.45,291.74 308.78,290.54 309.12,289.92 309.45,288.99 309.79,288.06 310.12,286.86 310.46,286.13 310.79,285.07 311.13,284.14 311.46,282.81 311.80,281.94 312.13,281.45 312.47,280.39 312.80,279.69 313.14,278.67 313.47,277.84 313.81,276.80 314.14,275.60 314.48,274.67 314.81,273.74 315.15,272.95 315.48,272.31 315.82,271.07 316.15,270.54 316.49,269.48 316.82,268.68 317.16,268.02 317.49,267.08 317.83,266.29 318.16,265.70 318.50,264.77 318.83,263.58 319.17,262.78 319.50,263.04 319.84,262.25 320.17,262.86 320.51,263.54 320.84,264.60 321.18,263.93 321.51,265.13 321.85,264.73 322.18,263.64 322.52,262.71 322.85,262.15 323.19,261.13 323.52,260.12 323.86,259.06 324.19,258.39 324.53,257.33 324.86,256.45 325.20,255.26 325.53,254.46 325.87,253.53 326.20,252.46 326.54,251.53 326.87,250.34 327.21,249.63 327.54,248.84 327.88,248.17 328.21,247.11 328.55,246.18 328.88,245.27 329.22,244.14 329.55,243.08 329.89,242.28 330.22,241.49 330.56,240.29 330.89,239.63 331.23,238.69 331.56,237.66 331.90,236.73 332.23,235.93 332.57,235.16 332.90,234.49 333.24,233.17 333.57,231.98 333.91,230.92 334.24,230.12 334.58,228.94 334.91,228.27 335.25,227.46 335.58,226.67 335.92,225.74 336.25,224.41 336.59,223.34 336.92,222.68 337.26,221.48 337.59,220.59 337.93,219.66 338.26,218.60 338.60,217.80 338.93,216.82 339.27,216.02 339.60,214.96 339.94,214.21 340.27,213.15 340.61,211.95 340.94,210.76 341.28,209.83 341.61,208.50 341.95,207.70 342.28,207.07 342.62,205.88 342.95,204.95 343.29,203.88 343.62,202.97 343.96,201.64 344.29,200.58 344.63,199.78 344.96,200.67 345.30,201.86 345.63,202.97 345.97,203.94 346.30,204.91 346.64,205.97 346.97,207.17 347.31,208.24 347.64,209.31 347.98,210.24 348.31,210.64 348.65,211.79 348.98,212.90 349.32,213.83 349.65,214.89 349.99,215.82 350.32,217.02 350.66,217.84 350.99,218.78 351.33,219.98 351.66,220.92 352.00,221.99 352.33,222.47 352.67,223.53 353.00,224.73 353.34,225.47 353.67,226.60 354.01,227.52 354.34,228.31 354.68,229.38 355.01,230.04 355.35,231.11 355.68,232.04 356.02,232.95 356.35,233.88 356.69,235.08 357.02,235.74 357.36,236.90 357.69,237.99 358.03,239.03 358.36,240.05 358.70,240.98 359.03,241.47 359.37,240.64 359.70,239.57 360.04,238.38 360.37,237.98 360.71,238.77 361.04,239.84 361.38,240.90 361.71,242.10 362.05,242.92 362.38,243.85 362.72,244.65 363.05,245.50 363.39,245.77 363.72,246.03 364.06,245.37 364.39,244.44 364.73,243.56 365.06,242.40 365.40,241.82 365.73,241.02 366.07,240.40 366.40,240.48 366.74,240.22 367.07,240.75 367.41,241.31 367.74,241.31 368.08,240.48 368.41,239.68 368.75,240.21 369.08,239.81 369.42,240.34 369.75,241.27 370.09,242.34 370.42,243.27 370.76,243.80 371.09,244.18 371.43,244.25 371.76,245.31 372.10,246.11 372.43,247.31 372.77,248.28 373.10,249.08 373.44,250.26 373.77,251.32 374.11,252.52 374.44,252.89 374.78,253.29 375.11,253.99 375.45,254.91 375.78,256.04 376.12,256.69 376.45,257.49 376.79,258.42 377.12,259.35 377.46,260.12 377.79,261.13 378.13,261.93 378.46,262.59 378.80,263.79 379.13,264.85 379.47,265.89 379.80,266.75 380.14,267.42 380.47,268.21 380.81,269.28 381.14,270.08 381.48,271.14 381.81,271.83 382.15,272.76 382.48,273.57 382.82,274.57 383.15,274.90 383.49,276.10 383.82,276.89 384.16,277.77 384.49,278.83 384.83,279.90 385.16,280.93 385.50,281.60 385.83,282.80 386.17,283.55 386.50,284.48 386.84,285.68 387.17,286.61 387.51,287.19 387.84,288.10 388.18,288.63 388.51,288.88 388.85,288.62 389.18,289.04 389.52,288.62 389.85,287.55 390.19,287.02 390.52,287.41 390.86,287.67 391.19,288.34 391.53,288.47 391.86,288.74 392.20,288.90 392.53,288.63 392.87,288.88 393.20,287.86 393.54,287.06 393.87,286.06 394.21,285.93 394.54,287.13 394.88,288.11 395.21,288.78 395.55,289.84 395.88,291.04 396.22,291.97 396.55,292.90 396.89,293.56 397.22,294.49 397.56,295.42 397.89,296.35 398.23,297.02 398.56,297.95 398.90,299.01 399.23,299.94 399.57,300.67 399.90,301.34 400.24,302.27 400.57,303.46 400.91,304.66 401.24,305.86 401.58,306.65 401.91,307.46 402.25,307.46 402.58,307.20 402.92,306.45 403.25,306.19 403.59,306.41 403.92,306.95 404.26,308.01 404.59,308.81 404.93,309.60 405.26,310.19 405.60,311.12 405.93,311.90 406.27,312.83 406.60,313.80 406.94,314.75 407.27,315.81 407.61,316.61 407.94,317.94 408.28,319.13 408.61,320.22 408.95,321.15 409.28,322.32 409.62,323.12 409.95,324.05 410.29,324.98 410.62,326.44 410.96,327.11 411.29,328.04 411.63,328.61 411.96,329.54 412.30,330.60 412.63,331.53 412.97,332.54 413.30,333.61 413.64,334.41 413.97,335.47 414.31,336.40 414.64,337.42 414.98,338.09 415.31,339.35 415.65,340.55 415.98,341.61 416.32,342.29 416.65,342.95 416.99,343.75 417.32,344.68 417.66,345.61 417.99,346.41 418.33,347.20 418.66,348.00 419.00,349.07 419.33,350.00 419.67,351.06 420.00,351.99 420.34,353.05 420.67,352.92 421.01,353.05 421.34,354.12 421.68,354.51 422.01,353.98 422.35,353.98 422.68,353.92 423.02,353.52 423.35,353.92 423.69,353.77 424.02,353.37 424.36,353.65 424.69,353.41 425.03,353.88 425.36,353.85 425.70,353.64 426.03,354.25 426.37,355.45 426.70,355.66 427.04,355.86 427.37,356.79 427.71,357.60 428.04,358.53 428.38,359.19 428.71,359.86 429.05,360.66 429.38,361.73 429.72,362.40 430.05,363.29 430.39,364.35 430.72,365.41 431.06,366.38 431.39,367.35 431.73,368.82 432.06,369.21 432.40,370.28 432.73,370.94 433.07,372.27 433.40,373.34 433.74,374.24 434.07,375.29 434.41,376.62 434.74,377.68 435.08,378.48 435.41,379.50 435.75,380.27 436.08,381.20 436.42,382.27 436.75,383.06 437.09,383.99 437.42,385.06 437.76,385.99 438.09,387.05 438.43,387.98 438.76,388.89 439.10,389.95 439.43,391.01 439.77,391.94 440.10,392.87 440.44,393.38 440.77,394.31 441.11,395.37 441.44,396.70 441.78,397.46 442.11,398.31 442.45,399.51 442.78,400.57 443.12,401.63 443.45,402.30 443.79,403.36 444.12,404.42 444.46,405.49 444.79,406.20 445.13,407.24 445.46,408.57 445.80,409.62 446.13,410.68 446.47,411.48 446.80,410.92 447.14,410.52 447.47,410.43 447.81,409.77 448.14,409.10 448.48,408.78 448.81,408.53 449.15,407.77 449.48,407.57 449.82,407.71 450.15,407.19 450.49,406.52 450.82,406.66 451.16,406.38 451.49,406.78 451.83,407.56 452.16,407.03 452.50,406.76 452.83,407.51 453.17,408.57 453.50,409.77 453.84,410.56 454.17,411.45 454.51,412.65 454.84,413.58 455.18,414.39 455.51,415.19 455.85,415.48 456.18,415.75 456.52,416.28 456.85,417.08 457.19,417.74 457.52,418.27 457.86,418.67 458.19,419.36 458.53,420.45 458.86,421.38 459.20,422.58 459.53,423.11 459.87,424.17 460.20,425.24 460.54,426.17 460.87,426.97 461.21,427.76 461.54,428.43 461.88,428.83 462.21,428.53 462.55,428.00 462.88,427.74 463.22,427.56 463.55,426.41 463.89,425.21 464.22,424.81 464.56,423.75 464.89,423.08 465.23,422.42 465.56,421.41 465.90,421.28 466.23,421.14 466.57,421.94 466.90,422.61 467.24,423.67 467.57,424.83 467.91,425.89 468.24,427.19 468.58,427.71 468.91,427.38 469.25,428.44 469.58,429.53 469.92,429.80 470.25,430.05 470.59,430.20 470.92,430.86 471.26,430.73 471.59,431.66 471.93,432.59 472.26,433.39 472.60,434.58 472.93,435.56 473.27,436.55 473.60,437.48 473.94,438.41 474.27,438.65 474.61,438.82 474.94,438.57 475.28,438.13 475.61,437.20 475.95,436.80 476.28,435.60 476.62,435.21 476.95,434.41 477.29,434.57 477.62,435.60 477.96,436.60 478.29,437.93 478.63,438.99 478.96,439.80 479.30,440.07 479.63,439.82 479.97,438.77 480.30,438.37 480.64,437.44 480.97,437.17 481.31,436.20 481.64,436.47 481.98,437.37 482.31,436.71 482.65,435.38 482.98,434.45 483.32,433.25 483.65,432.72 483.99,431.79 484.32,431.13 484.66,430.20 484.99,429.26 485.33,428.29 485.66,427.60 486.00,426.54 486.33,425.48 486.67,424.36 487.00,423.39 487.34,422.59 487.67,421.66 488.01,420.86 488.34,420.60 488.68,420.33 489.01,420.07 489.35,419.67 489.68,419.27 490.02,419.32 490.35,418.90 490.69,417.95 491.02,417.50 491.36,417.37 491.69,417.10 492.03,417.02 492.36,416.62 492.70,416.56 493.03,416.96 493.37,417.75 493.70,418.69 494.04,419.48 494.37,420.52 494.71,421.58 495.04,422.65 495.38,423.58 495.71,424.60 496.05,425.62 496.38,425.82 496.72,427.02 497.05,427.32 497.39,427.72 497.72,428.25 498.06,427.59 498.39,426.79 498.73,427.32 499.06,427.86 499.40,429.13 499.73,429.40 500.07,429.66 500.40,429.53 500.74,429.66 501.07,430.86 501.41,431.39 501.74,430.99 502.08,430.20 502.41,429.26 502.75,428.59 503.08,428.24 503.42,427.71 503.75,427.31 504.09,426.74 504.42,426.47 504.76,426.34 505.09,426.34 505.43,425.94 505.76,425.57 506.10,424.51 506.43,423.98 506.77,423.42 507.10,422.82 507.44,422.74 507.77,421.81 508.11,421.64 508.44,421.13 508.78,420.90 509.11,421.14 509.45,420.61 509.78,420.35 510.12,419.72 510.45,418.39 510.79,417.46 511.12,416.62 511.46,415.81 511.79,414.88 512.13,414.17 512.46,413.59 512.80,413.40 513.13,413.66 513.47,413.16 513.80,412.37 514.14,411.53 514.47,410.74 514.81,409.81 515.14,409.05 515.48,407.99 515.81,406.79 516.15,405.59 516.48,404.53 516.82,403.67 517.15,402.71 517.49,401.38 517.82,400.18 518.16,399.25 518.49,398.32 518.83,397.42 519.16,396.74 519.50,396.21 519.83,395.15 520.17,394.51 520.50,393.44 520.84,392.65 521.17,391.57 521.51,390.51 521.84,389.54 522.18,388.47 522.51,387.34 522.85,386.35 523.18,385.15 523.52,384.30 523.85,383.24 524.19,382.39 524.52,381.59 524.86,380.92 525.19,379.99 525.53,379.00 525.86,378.33 526.20,377.67 526.53,377.40 526.87,376.60 527.20,376.29 527.54,376.55 527.87,377.31 528.21,377.88 528.54,379.06 528.88,379.86 529.21,380.79 529.55,382.12 529.88,383.18 530.22,384.51 530.55,385.31 530.89,386.11 531.22,386.91 531.56,388.10 531.89,388.97 532.23,389.76 532.56,390.69 532.90,391.62 533.23,392.42 533.57,393.35 533.90,394.02 534.24,395.08 534.57,395.77 534.91,397.02 535.24,397.95 535.58,398.88 535.91,399.81 536.25,400.87 536.58,401.95 536.92,403.01 537.25,403.88 537.59,404.49 537.92,404.82 538.26,405.62 538.59,406.82 538.93,407.49 539.26,407.49 539.60,407.23 539.93,406.38 540.27,405.77 540.60,405.59 540.94,405.59 541.27,405.19 541.61,405.27 541.94,404.82 542.28,403.63 542.61,402.70 542.95,401.50 543.28,400.58 543.62,399.96 543.95,399.16 544.29,398.00 544.62,396.67 544.96,395.65 545.29,394.59 545.63,393.52 545.96,392.73 546.30,391.82 546.63,391.09 546.97,390.26 547.30,389.19 547.64,388.39 547.97,387.73 548.31,386.80 548.64,385.84 548.98,385.18 549.31,383.98 549.65,382.79 549.98,382.15 550.32,382.01 550.65,382.01 550.99,381.75 551.32,381.08 551.66,380.02 551.99,378.96 552.33,377.76 552.66,376.86 553.00,376.06 553.33,375.42 553.67,374.90 554.00,374.90 554.34,374.77 554.67,374.64 555.01,374.65 555.34,375.05 555.68,375.01 556.01,375.22 556.35,375.09 556.68,374.86 557.02,374.81 557.35,375.08 557.69,375.74 558.02,376.94 558.36,377.85 558.69,378.67 559.03,379.45 559.36,380.27 559.70,381.34 560.03,381.68 560.37,382.75 560.70,382.88 561.04,383.14 561.37,383.33 561.71,383.04 562.04,383.16 562.38,383.96 562.71,385.15 563.05,386.03 563.38,386.73 563.72,387.66 564.05,388.59 564.39,389.92 564.72,390.72 565.06,391.52 565.39,392.71 565.73,393.19 566.06,393.74 566.40,394.65 566.73,395.45 567.07,396.52 567.40,397.47 567.74,398.67 568.07,399.77 568.41,400.97 568.74,402.03 569.08,402.70 569.41,403.89 569.75,404.57 570.08,405.41 570.42,406.74 570.75,407.67 571.09,408.64 571.42,409.17 571.76,409.73 572.09,410.44 572.43,411.11 572.76,411.97 573.10,412.77 573.43,413.24 573.77,414.30 574.10,415.16 574.44,416.09 574.77,416.62 575.11,417.69 575.44,418.55 575.78,419.48 576.11,419.88 576.45,420.28 576.78,421.25 577.12,422.45 577.45,423.39 577.79,424.45 578.12,425.25 578.46,426.31 578.79,427.38 579.13,428.18 579.46,428.85 579.80,429.74 580.13,430.94 580.47,431.55 580.80,432.22 581.14,433.05 581.47,433.85 581.81,434.98 582.14,435.15 582.48,435.72 582.81,435.92 583.15,435.13 583.48,435.31 583.82,435.96 584.15,436.50 584.49,436.10 584.82,436.02 585.16,435.62 585.49,434.55 585.83,433.89 586.16,433.16 586.50,432.23 586.83,431.30 587.17,430.37 587.50,429.17 587.84,428.51 588.17,427.58 588.51,426.65 588.84,425.72 589.18,424.92 589.51,424.03 589.85,423.76 590.18,424.17 590.52,424.03 590.85,423.92 591.19,424.04 591.52,423.51 591.86,422.75 592.19,421.69 592.53,421.29 592.86,421.02 593.20,421.42 593.53,420.88 593.87,421.36 594.20,421.76 594.54,421.25 594.87,420.63 595.21,419.43 595.54,418.23 595.88,416.97 596.21,416.04 596.55,415.11 596.88,414.05 597.22,412.85 597.55,411.79 597.89,410.46 598.22,409.53 598.56,408.20 598.89,407.31 599.23,406.38 599.56,405.18 599.90,404.25 600.23,403.32 600.57,402.52 600.90,401.59 601.24,400.80 601.57,399.60 601.91,398.67 602.24,397.74 602.58,396.93 602.91,395.89 603.25,395.09 603.58,394.30 603.92,394.24 604.25,394.89 604.59,394.76 604.92,395.13 605.26,396.06 605.59,396.86 605.93,397.42 606.26,397.55 606.60,397.42 606.93,397.99 607.27,399.00 607.60,400.06 607.94,399.80 608.27,399.56 608.61,399.23 608.94,398.56 609.28,397.65 609.61,396.71 609.95,396.32 610.28,396.71 610.62,396.71 610.95,396.18 611.29,396.75 611.62,396.75 611.96,395.43 612.29,394.49 612.63,393.30 612.96,392.24 613.30,391.36 613.63,390.69 613.97,390.68 614.30,389.91 614.64,388.98 614.97,388.18 615.31,387.52 615.64,386.32 615.98,385.48 616.31,384.55 616.65,383.42 616.98,382.36 617.32,381.35 617.65,380.55 617.99,380.69 618.32,380.30 618.66,379.24 618.99,378.44 619.33,377.24 619.66,376.31 620.00,375.30 620.33,374.50 620.67,373.73 621.00,372.67 621.34,371.34 621.67,370.68 622.01,369.83 622.34,368.90 622.68,367.95 623.01,367.02 623.35,366.22 623.68,365.43 624.02,364.63 624.35,363.83 624.69,363.03 625.02,362.37 625.36,361.57 625.69,360.78 626.03,359.84 626.36,358.98 626.70,358.34 627.03,357.36 627.37,356.61 627.70,355.86 628.04,355.03 628.37,353.70 628.71,352.77 629.04,351.98 629.38,351.18 629.71,350.25 630.05,350.16 630.38,350.04 630.72,350.65 631.05,349.80 631.39,348.88 631.72,348.33 632.06,347.28 632.39,346.49 632.73,346.97 633.06,345.77 633.40,344.71 633.73,343.78 634.07,343.20 634.40,342.67 634.74,341.90 635.07,340.96 635.41,340.17 635.74,339.11 636.08,338.18 636.41,337.37 636.75,336.17 637.08,335.38 637.42,334.35 637.75,333.29 638.09,332.23 638.42,331.16 638.76,330.60 639.09,329.54 639.43,328.58 639.76,327.76 640.10,326.96 640.43,326.43 640.77,325.50 641.10,324.44 641.44,323.24 641.77,322.18 642.11,321.27 642.44,320.34 642.78,319.41 643.11,318.68 643.45,317.88 643.78,316.82 644.12,315.96 644.45,314.89 644.79,313.83 645.12,312.77 645.46,311.44 645.79,310.91 646.13,310.14 646.46,309.34 646.80,308.35 647.13,307.32 647.47,306.12 647.80,305.32 648.14,304.19 648.47,303.00 648.81,301.67 649.14,301.14 649.48,299.68 649.81,298.61 650.15,297.68 650.48,296.62 650.82,295.69 651.15,294.49 651.49,293.20 651.82,292.43 652.16,291.37 652.49,290.11 652.83,289.89 653.16,289.44 653.50,289.04 653.83,289.04 654.17,289.17 654.50,289.31 654.84,289.48 655.17,288.60 655.51,287.41 655.84,287.21 656.18,287.27 656.51,287.54 656.85,288.10 657.18,288.51 657.52,288.79 657.85,289.92 658.19,289.77 658.52,289.79 658.86,289.45 659.19,288.39 659.53,287.73 659.86,286.66 660.20,286.26 660.53,285.87 660.87,285.33 661.20,286.22 661.54,285.69 661.87,285.36 662.21,285.36 662.54,285.80 662.88,286.33 663.21,286.92 663.55,287.85 663.88,288.91 664.22,289.44 664.55,289.97 664.89,290.77 665.22,290.84 665.56,290.76 665.89,290.23 666.23,290.42 666.56,290.42 666.90,290.29 667.23,289.55 667.57,289.93 667.90,290.16 668.24,290.07 668.57,289.84 668.91,290.25 669.24,289.85 669.58,290.28 669.91,290.15 670.25,289.61 670.58,290.54 670.92,291.24 671.25,292.31 671.59,293.30 671.92,294.09 672.26,295.16 672.59,296.35 672.93,297.64 673.26,298.70 673.60,299.75 673.93,300.29 674.27,301.24 674.60,301.76 674.94,302.83 675.27,302.03 675.61,302.03 675.94,301.50 676.28,301.50 676.61,301.68 676.95,302.25 677.28,302.25 677.62,301.59 677.95,301.06 678.29,301.59 678.62,301.38 678.96,301.78 679.29,302.04 679.63,302.97 679.96,304.30 680.30,304.99 680.63,305.79 680.97,306.85 681.30,307.80 681.64,308.85 681.97,309.24 682.31,309.91 682.64,310.95 682.98,311.88 683.31,313.07 683.65,314.45 683.98,315.33 684.32,316.12 684.65,317.31 684.99,318.11 685.32,319.17 685.66,320.38 685.99,321.31 686.33,322.11 686.66,323.15 687.00,323.55 687.33,324.74 687.67,325.79 688.00,326.46 688.34,327.52 688.67,328.32 689.01,329.38 689.34,330.62 689.68,331.41 690.01,332.35 690.35,333.28 690.68,334.34 691.02,335.27 691.35,336.07 691.69,336.84 692.02,337.50 692.36,338.70 692.69,338.92 693.03,339.06 693.36,340.12 693.70,340.12 694.03,339.59 694.37,339.40 694.70,340.01 695.04,339.75 695.37,339.67 695.71,338.66 696.04,337.78 696.38,336.85 696.71,336.29 697.05,336.03 697.38,335.52 697.72,334.33 698.05,333.00 698.39,332.28 698.72,331.48 699.06,330.42 699.39,329.63 699.73,328.70 700.06,328.13 700.40,326.94 700.73,325.87 701.07,324.90 701.40,324.24 701.74,323.49 702.07,323.09 702.41,323.53 702.74,323.53 703.08,322.87 703.41,322.18 703.75,321.54 704.08,321.81 704.42,322.42 704.75,322.15 705.09,323.08 705.42,323.48 705.76,324.09 706.09,323.83 706.43,323.69 706.76,322.68 707.10,322.08 707.43,320.90 707.77,319.90 708.10,318.77 708.44,318.51 708.77,317.45 709.11,316.98 709.44,317.25 709.78,317.11 710.11,316.85 710.45,316.81 710.78,316.28 711.12,317.07 711.45,318.27 711.79,319.60 712.12,320.65 712.46,320.86 712.79,321.79 713.13,322.93 713.46,324.13 713.80,324.80 714.13,325.86 714.47,326.92 714.80,327.59 715.14,328.12 715.47,328.78 715.81,329.54 716.14,330.74 716.48,331.40 716.81,331.93 717.15,332.15 717.48,332.28 717.82,332.28 718.15,332.68 718.49,332.68 718.82,333.47 719.16,334.54 719.49,335.73 719.83,336.25 720.16,335.57 720.50,335.02 720.83,334.23 721.17,334.99 721.50,335.30 721.84,335.12 722.17,334.99 722.51,334.72 722.84,334.86 723.18,334.72 723.51,334.23 723.85,333.20 724.18,332.00 724.52,332.16 724.85,331.76 725.19,332.45 725.52,332.45 725.86,332.19 726.19,332.32 726.53,332.19 726.86,332.61 727.20,331.93 727.53,331.53 727.87,330.47 728.20,329.67 728.54,330.01 728.87,330.62 729.21,330.48 729.54,331.02 729.88,331.68 730.21,332.35 730.55,332.86 730.88,334.06 731.22,333.75 731.55,333.62 731.89,333.43 732.22,333.21 732.56,332.94 732.89,333.02 733.23,332.96 733.56,332.96 733.90,332.56 734.23,331.73 734.57,330.94 734.90,330.14 735.24,329.87 735.57,329.61 735.91,329.08 736.24,328.14 736.58,328.20 736.91,328.64 737.25,329.83 737.58,330.90 737.92,331.96 738.25,332.76 738.59,333.95 738.92,334.70 739.26,334.43 739.59,334.84 739.93,335.64 740.26,336.84 740.60,337.10 740.93,337.52 741.27,338.45 741.60,339.77 741.94,340.57 742.27,341.90 742.61,342.85 742.94,343.91 743.28,345.05 743.61,346.11 743.95,347.18 744.28,347.72 744.62,348.25 744.95,349.19 745.29,350.47 745.62,350.74 745.96,349.97 746.29,349.04 746.63,348.51 746.96,347.58 747.30,346.57 747.63,345.64 747.97,344.97 748.30,344.17 748.64,343.28 748.97,342.39 749.31,341.46 749.64,340.53 749.98,339.87 750.31,338.95 750.65,338.23 750.98,337.61 751.32,337.74 751.65,337.44 751.99,336.37 752.32,335.57 752.66,334.64 752.99,333.37 753.33,333.37 753.66,333.24 754.00,333.54 754.33,333.45 754.67,334.30 755.00,335.10"/>
<line x1="783" y1="82" x2="809" y2="82" stroke="#dc2626" stroke-width="3"/>
<text x="817" y="86" font-family="Arial" font-size="13" fill="#111827">Avellaneda Stoikov</text>
<polyline fill="none" stroke="#7c3aed" stroke-width="2" points="85.00,350.75 85.34,350.75 85.67,350.31 86.01,350.65 86.34,351.71 86.68,352.71 87.01,353.76 87.35,354.69 87.68,355.49 88.02,356.31 88.35,356.58 88.69,356.83 89.02,356.96 89.36,356.83 89.69,356.16 90.03,355.63 90.36,355.29 90.70,355.19 91.03,355.59 91.37,355.33 91.70,355.06 92.04,354.53 92.37,355.39 92.71,355.66 93.04,355.26 93.38,355.18 93.71,355.63 94.05,354.97 94.38,354.24 94.72,354.00 95.05,353.20 95.39,352.27 95.72,351.07 96.06,350.27 96.39,349.05 96.73,348.39 97.06,347.46 97.40,346.47 97.73,345.94 98.07,344.88 98.40,343.82 98.74,343.28 99.07,342.35 99.41,341.16 99.74,339.96 100.08,339.93 100.41,340.88 100.75,341.81 101.08,342.83 101.42,343.78 101.75,344.85 102.09,345.38 102.42,346.58 102.76,347.63 103.09,348.69 103.43,347.67 103.76,347.01 104.10,346.51 104.43,345.94 104.77,345.81 105.10,345.41 105.44,345.68 105.77,346.34 106.11,347.14 106.44,348.03 106.78,348.69 107.11,349.89 107.45,349.66 107.78,348.87 108.12,349.01 108.45,348.72 108.79,348.32 109.12,347.39 109.46,347.27 109.79,346.38 110.13,345.42 110.46,344.89 110.80,344.89 111.13,344.89 111.47,345.33 111.80,345.60 112.14,345.54 112.47,345.73 112.81,346.13 113.14,346.39 113.48,346.34 113.81,346.58 114.15,346.85 114.48,347.11 114.82,347.38 115.15,347.16 115.49,347.03 115.82,347.02 116.16,347.02 116.49,347.82 116.83,348.88 117.16,349.94 117.50,350.87 117.83,351.80 118.17,352.87 118.50,353.81 118.84,354.87 119.17,355.80 119.51,356.60 119.84,357.29 120.18,358.22 120.51,359.02 120.85,360.02 121.18,360.95 121.52,361.76 121.85,362.82 122.19,363.71 122.52,364.64 122.86,365.43 123.19,365.96 123.53,366.81 123.86,367.47 124.20,368.54 124.53,369.33 124.87,370.49 125.20,371.29 125.54,371.74 125.87,372.27 126.21,371.34 126.54,370.54 126.88,369.48 127.21,368.55 127.55,368.02 127.88,367.61 128.22,366.94 128.55,365.75 128.89,365.24 129.22,365.01 129.56,364.22 129.89,363.30 130.23,362.24 130.56,360.91 130.90,359.84 131.23,358.52 131.57,358.52 131.90,357.97 132.24,358.21 132.57,357.94 132.91,358.50 133.24,359.43 133.58,360.36 133.91,360.10 134.25,360.27 134.58,360.40 134.92,360.80 135.25,360.59 135.59,361.27 135.92,361.27 136.26,361.09 136.59,361.23 136.93,361.76 137.26,361.61 137.60,361.61 137.93,360.55 138.27,360.89 138.60,360.76 138.94,360.95 139.27,360.95 139.61,361.65 139.94,362.32 140.28,363.01 140.61,364.12 140.95,365.05 141.28,365.72 141.62,366.78 141.95,367.98 142.29,368.78 142.62,369.71 142.96,370.77 143.29,371.57 143.63,372.50 143.96,373.30 144.30,374.23 144.63,374.80 144.97,375.61 145.30,375.74 145.64,376.94 145.97,378.00 146.31,379.06 146.64,379.73 146.98,378.98 147.31,379.25 147.65,379.78 147.98,379.78 148.32,379.65 148.65,379.18 148.99,379.66 149.32,379.93 149.66,380.86 149.99,382.05 150.33,382.51 150.66,381.71 151.00,381.82 151.33,381.56 151.67,381.96 152.00,381.70 152.34,382.63 152.67,383.29 153.01,383.16 153.34,382.57 153.68,382.44 154.01,382.57 154.35,383.32 154.68,383.18 155.02,383.46 155.35,383.86 155.69,385.19 156.02,386.12 156.36,386.92 156.69,387.13 157.03,387.03 157.36,387.82 157.70,388.75 158.03,389.34 158.37,390.40 158.70,391.20 159.04,391.73 159.37,392.79 159.71,393.55 160.04,394.61 160.38,394.32 160.71,394.46 161.05,394.28 161.38,393.62 161.72,392.79 162.05,392.13 162.39,391.08 162.72,389.75 163.06,388.87 163.39,387.94 163.73,388.08 164.06,388.34 164.40,387.94 164.73,387.88 165.07,387.14 165.40,386.21 165.74,385.28 166.07,384.22 166.41,383.16 166.74,382.49 167.08,381.43 167.41,380.37 167.75,379.30 168.08,378.41 168.42,377.48 168.75,376.42 169.09,375.36 169.42,374.43 169.76,373.47 170.09,372.54 170.43,371.41 170.76,370.61 171.10,369.81 171.43,369.28 171.77,368.35 172.10,367.46 172.44,366.53 172.77,365.47 173.11,364.67 173.44,363.62 173.78,362.56 174.11,361.76 174.45,360.96 174.78,360.30 175.12,359.25 175.45,358.29 175.79,357.23 176.12,356.16 176.46,355.29 176.79,354.22 177.13,353.42 177.46,352.27 177.80,351.55 178.13,350.62 178.47,349.64 178.80,348.96 179.14,348.28 179.47,347.35 179.81,346.69 180.14,345.62 180.48,344.55 180.81,343.48 181.15,342.42 181.48,341.72 181.82,340.78 182.15,339.85 182.49,338.80 182.82,337.87 183.16,336.82 183.49,336.16 183.83,334.96 184.16,334.15 184.50,333.13 184.83,332.40 185.17,331.48 185.50,330.40 185.84,329.21 186.17,328.41 186.51,327.52 186.84,326.54 187.18,325.34 187.51,324.30 187.85,323.51 188.18,322.74 188.52,321.81 188.85,321.01 189.19,320.34 189.52,319.28 189.86,318.22 190.19,317.38 190.53,316.98 190.86,315.78 191.20,314.99 191.53,313.79 191.87,312.59 192.20,311.53 192.54,310.63 192.87,309.70 193.21,309.03 193.54,308.12 193.88,307.05 194.21,306.12 194.55,305.46 194.88,304.82 195.22,303.58 195.55,302.25 195.89,301.34 196.22,300.41 196.56,299.86 196.89,300.22 197.23,300.66 197.56,301.32 197.90,301.59 198.23,301.99 198.57,300.92 198.90,300.26 199.24,299.33 199.57,298.31 199.91,297.51 200.24,296.71 200.58,296.05 200.91,295.91 201.25,296.45 201.58,296.58 201.92,296.18 202.25,295.25 202.59,294.45 202.92,293.92 203.26,292.72 203.59,291.79 203.93,290.86 204.26,289.80 204.60,288.87 204.93,287.67 205.27,286.61 205.60,285.55 205.94,284.59 206.27,283.53 206.61,282.46 206.94,281.67 207.28,280.34 207.61,279.14 207.95,278.20 208.28,277.13 208.62,276.06 208.95,276.46 209.29,276.07 209.62,276.43 209.96,277.09 210.29,276.03 210.63,276.50 210.96,276.31 211.30,275.90 211.63,275.63 211.97,275.50 212.30,275.18 212.64,275.29 212.97,275.42 213.31,276.61 213.64,276.96 213.98,277.09 214.31,277.23 214.65,276.96 214.98,277.23 215.32,277.36 215.65,276.30 215.99,275.59 216.32,275.19 216.66,275.19 216.99,275.18 217.33,275.45 217.66,274.42 218.00,274.02 218.33,273.09 218.67,273.81 219.00,273.89 219.34,274.55 219.67,274.63 220.01,274.66 220.34,274.04 220.68,273.12 221.01,272.28 221.35,271.35 221.68,271.62 222.02,272.64 222.35,273.44 222.69,274.37 223.02,274.63 223.36,275.22 223.69,276.28 224.03,277.61 224.36,278.45 224.70,279.38 225.03,280.32 225.37,281.33 225.70,282.53 226.04,283.42 226.37,284.23 226.71,285.16 227.04,286.21 227.38,287.15 227.71,288.09 228.05,289.14 228.38,289.65 228.72,291.08 229.05,291.94 229.39,292.47 229.72,293.14 230.06,294.00 230.39,294.93 230.73,296.13 231.06,297.07 231.40,298.00 231.73,299.10 232.07,300.17 232.40,300.92 232.74,301.85 233.07,302.65 233.41,303.60 233.74,304.26 234.08,305.12 234.41,305.92 234.75,307.12 235.08,307.92 235.42,309.10 235.75,309.90 236.09,310.29 236.42,310.96 236.76,310.16 237.09,309.10 237.43,308.15 237.76,307.22 238.10,306.16 238.43,304.83 238.77,303.77 239.10,302.84 239.44,302.44 239.77,302.87 240.11,303.20 240.44,304.27 240.78,304.07 241.11,304.21 241.45,304.47 241.78,305.23 242.12,304.42 242.45,303.49 242.79,302.56 243.12,301.92 243.46,301.03 243.79,300.23 244.13,299.42 244.46,298.63 244.80,297.81 245.13,296.68 245.47,296.15 245.80,295.18 246.14,294.20 246.47,292.87 246.81,292.47 247.14,291.81 247.48,290.74 247.81,289.41 248.15,288.62 248.48,287.55 248.82,286.60 249.15,285.40 249.49,284.76 249.82,283.98 250.16,282.85 250.49,281.68 250.83,281.23 251.16,280.34 251.50,279.14 251.83,278.08 252.17,277.28 252.50,276.48 252.84,275.70 253.17,274.50 253.51,273.77 253.84,272.85 254.18,271.68 254.51,270.89 254.85,270.30 255.18,269.33 255.52,268.68 255.85,267.75 256.19,266.69 256.52,266.02 256.86,265.22 257.19,264.43 257.53,264.69 257.86,265.62 258.20,266.47 258.53,267.58 258.87,268.63 259.20,269.53 259.54,269.93 259.87,270.73 260.21,271.79 260.54,272.36 260.88,273.16 261.21,273.72 261.55,274.18 261.88,274.94 262.22,276.00 262.55,276.89 262.89,277.73 263.22,278.53 263.56,279.33 263.89,280.52 264.23,281.85 264.56,282.65 264.90,282.91 265.23,282.95 265.57,283.62 265.90,283.75 266.24,283.70 266.57,283.96 266.91,284.60 267.24,283.94 267.58,283.41 267.91,283.91 268.25,284.31 268.58,285.15 268.92,286.28 269.25,287.07 269.59,288.01 269.92,288.80 270.26,290.00 270.59,290.40 270.93,290.80 271.26,290.93 271.60,291.73 271.93,292.06 272.27,292.23 272.60,293.03 272.94,293.07 273.27,293.35 273.61,293.88 273.94,294.09 274.28,294.23 274.61,294.23 274.95,293.68 275.28,294.19 275.62,295.00 275.95,294.80 276.29,293.91 276.62,292.95 276.96,292.02 277.29,291.22 277.63,290.56 277.96,290.29 278.30,290.96 278.63,291.26 278.97,290.33 279.30,289.93 279.64,289.27 279.97,289.07 280.31,289.73 280.64,290.15 280.98,289.35 281.31,288.42 281.65,287.71 281.98,287.71 282.32,287.85 282.65,286.64 282.99,285.84 283.32,285.44 283.66,284.24 283.99,283.33 284.33,282.53 284.66,281.45 285.00,280.66 285.33,279.72 285.67,278.79 286.00,277.86 286.34,277.07 286.67,276.14 287.01,275.47 287.34,274.78 287.68,275.18 288.01,276.12 288.35,277.08 288.68,277.80 289.02,278.46 289.35,279.23 289.69,280.03 290.02,280.93 290.36,280.67 290.69,279.96 291.03,279.96 291.36,280.00 291.70,279.63 292.03,279.10 292.37,279.13 292.70,277.93 293.04,276.87 293.37,276.26 293.71,275.46 294.04,274.42 294.38,273.49 294.71,272.43 295.05,271.58 295.38,270.89 295.72,271.15 296.05,270.91 296.39,270.67 296.72,271.34 297.06,271.88 297.39,272.02 297.73,272.28 298.06,273.20 298.40,274.46 298.73,275.26 299.07,276.18 299.40,277.24 299.74,278.44 300.07,279.37 300.41,280.16 300.74,281.36 301.08,282.16 301.41,283.22 301.75,284.07 302.08,284.74 302.42,285.68 302.75,286.42 303.09,286.98 303.42,287.78 303.76,288.98 304.09,289.51 304.43,290.57 304.76,291.25 305.10,292.39 305.43,293.45 305.77,294.25 306.10,295.24 306.44,295.50 306.77,295.57 307.11,295.04 307.44,294.11 307.78,294.50 308.11,295.04 308.45,293.79 308.78,292.59 309.12,291.97 309.45,291.04 309.79,290.11 310.12,288.91 310.46,288.18 310.79,287.11 311.13,286.18 311.46,284.86 311.80,283.99 312.13,283.50 312.47,282.44 312.80,281.73 313.14,280.72 313.47,279.79 313.81,278.75 314.14,277.56 314.48,276.63 314.81,275.70 315.15,274.90 315.48,274.50 315.82,273.27 316.15,272.73 316.49,271.67 316.82,270.87 317.16,270.21 317.49,269.28 317.83,268.48 318.16,267.90 318.50,266.97 318.83,265.90 319.17,265.10 319.50,265.37 319.84,264.71 320.17,265.05 320.51,265.70 320.84,266.62 321.18,265.96 321.51,267.15 321.85,266.75 322.18,265.66 322.52,264.84 322.85,264.04 323.19,263.02 323.52,262.01 323.86,260.94 324.19,260.28 324.53,259.22 324.86,258.34 325.20,257.14 325.53,256.35 325.87,255.42 326.20,254.35 326.54,253.42 326.87,252.23 327.21,251.52 327.54,250.72 327.88,250.06 328.21,249.00 328.55,248.07 328.88,247.16 329.22,246.03 329.55,244.97 329.89,244.17 330.22,243.37 330.56,242.18 330.89,241.53 331.23,240.60 331.56,239.69 331.90,238.76 332.23,237.96 332.57,237.19 332.90,236.53 333.24,235.20 333.57,234.02 333.91,232.95 334.24,232.29 334.58,231.11 334.91,230.44 335.25,229.64 335.58,228.85 335.92,227.92 336.25,226.59 336.59,225.52 336.92,224.86 337.26,223.66 337.59,222.77 337.93,221.84 338.26,220.78 338.60,219.98 338.93,219.00 339.27,218.20 339.60,217.14 339.94,216.39 340.27,215.33 340.61,214.13 340.94,212.94 341.28,212.01 341.61,210.68 341.95,209.88 342.28,209.25 342.62,208.06 342.95,207.13 343.29,206.06 343.62,205.15 343.96,203.82 344.29,202.76 344.63,202.09 344.96,202.98 345.30,204.18 345.63,205.11 345.97,206.08 346.30,206.92 346.64,207.98 346.97,209.17 347.31,210.25 347.64,211.31 347.98,212.36 348.31,212.83 348.65,213.99 348.98,214.96 349.32,215.89 349.65,216.95 349.99,217.88 350.32,219.08 350.66,219.90 350.99,220.58 351.33,221.77 351.66,222.72 352.00,223.76 352.33,224.37 352.67,225.56 353.00,226.76 353.34,227.50 353.67,228.63 354.01,229.55 354.34,230.35 354.68,231.41 355.01,232.08 355.35,233.14 355.68,234.07 356.02,234.99 356.35,235.92 356.69,237.11 357.02,237.78 357.36,238.93 357.69,240.02 358.03,241.06 358.36,241.96 358.70,242.76 359.03,243.35 359.37,242.96 359.70,241.90 360.04,240.70 360.37,240.70 360.71,241.37 361.04,242.43 361.38,243.49 361.71,244.56 362.05,245.17 362.38,245.97 362.72,246.56 363.05,247.41 363.39,247.55 363.72,247.95 364.06,247.28 364.39,246.35 364.73,245.47 365.06,244.45 365.40,243.87 365.73,242.93 366.07,242.40 366.40,242.54 366.74,242.48 367.07,242.62 367.41,243.17 367.74,243.04 368.08,242.47 368.41,241.94 368.75,242.34 369.08,241.94 369.42,242.47 369.75,243.27 370.09,244.20 370.42,244.86 370.76,245.07 371.09,245.33 371.43,245.39 371.76,246.43 372.10,247.23 372.43,248.42 372.77,249.39 373.10,250.19 373.44,251.37 373.77,252.44 374.11,253.63 374.44,253.74 374.78,254.14 375.11,254.84 375.45,255.63 375.78,256.62 376.12,257.28 376.45,258.07 376.79,259.00 377.12,259.93 377.46,260.57 377.79,261.58 378.13,262.38 378.46,263.04 378.80,264.24 379.13,265.30 379.47,266.34 379.80,267.20 380.14,267.87 380.47,268.67 380.81,269.73 381.14,270.53 381.48,271.59 381.81,272.28 382.15,273.21 382.48,274.02 382.82,275.07 383.15,275.14 383.49,276.34 383.82,277.13 384.16,278.01 384.49,279.07 384.83,280.14 385.16,281.17 385.50,281.84 385.83,283.03 386.17,283.79 386.50,284.72 386.84,285.92 387.17,286.58 387.51,287.02 387.84,287.82 388.18,288.19 388.51,288.32 388.85,288.06 389.18,288.66 389.52,288.54 389.85,287.47 390.19,287.07 390.52,287.46 390.86,287.59 391.19,288.26 391.53,288.66 391.86,288.79 392.20,288.96 392.53,288.96 392.87,289.21 393.20,288.32 393.54,287.53 393.87,286.52 394.21,286.38 394.54,287.58 394.88,288.30 395.21,288.96 395.55,289.99 395.88,291.18 396.22,292.11 396.55,293.04 396.89,293.71 397.22,294.64 397.56,295.57 397.89,296.50 398.23,297.16 398.56,298.09 398.90,299.16 399.23,300.09 399.57,300.82 399.90,301.48 400.24,302.28 400.57,303.48 400.91,304.67 401.24,305.87 401.58,306.60 401.91,307.41 402.25,307.28 402.58,307.12 402.92,306.37 403.25,305.98 403.59,306.20 403.92,306.60 404.26,307.66 404.59,308.46 404.93,309.26 405.26,309.84 405.60,310.77 405.93,311.56 406.27,312.49 406.60,313.46 406.94,314.40 407.27,315.47 407.61,316.26 407.94,317.59 408.28,318.79 408.61,319.88 408.95,320.81 409.28,321.98 409.62,322.78 409.95,323.71 410.29,324.64 410.62,326.10 410.96,326.76 411.29,327.69 411.63,328.26 411.96,329.19 412.30,330.26 412.63,331.19 412.97,332.20 413.30,333.26 413.64,334.06 413.97,335.12 414.31,336.05 414.64,337.08 414.98,337.74 415.31,339.00 415.65,340.20 415.98,341.26 416.32,341.94 416.65,342.61 416.99,343.46 417.32,344.39 417.66,345.32 417.99,346.11 418.33,346.91 418.66,347.84 419.00,348.91 419.33,349.70 419.67,350.77 420.00,351.70 420.34,352.76 420.67,352.63 421.01,352.63 421.34,353.69 421.68,354.09 422.01,353.56 422.35,353.56 422.68,353.49 423.02,353.09 423.35,353.62 423.69,353.48 424.02,353.48 424.36,353.76 424.69,353.61 425.03,354.08 425.36,354.05 425.70,353.84 426.03,354.32 426.37,355.25 426.70,355.27 427.04,355.47 427.37,356.40 427.71,357.21 428.04,358.14 428.38,358.81 428.71,359.47 429.05,360.27 429.38,361.35 429.72,362.01 430.05,362.90 430.39,363.96 430.72,365.03 431.06,366.00 431.39,366.93 431.73,368.39 432.06,368.79 432.40,369.85 432.73,370.52 433.07,371.85 433.40,372.78 433.74,373.68 434.07,374.73 434.41,376.06 434.74,377.12 435.08,377.79 435.41,378.72 435.75,379.49 436.08,380.42 436.42,381.48 436.75,382.28 437.09,383.21 437.42,384.27 437.76,385.20 438.09,386.27 438.43,387.20 438.76,388.10 439.10,389.17 439.43,390.23 439.77,391.16 440.10,392.09 440.44,392.59 440.77,393.52 441.11,394.59 441.44,395.92 441.78,396.67 442.11,397.53 442.45,398.72 442.78,399.78 443.12,400.85 443.45,401.51 443.79,402.58 444.12,403.64 444.46,404.70 444.79,405.42 445.13,406.46 445.46,407.79 445.80,408.84 446.13,409.90 446.47,410.70 446.80,410.27 447.14,409.87 447.47,409.61 447.81,409.08 448.14,408.54 448.48,408.22 448.81,407.97 449.15,407.31 449.48,407.37 449.82,407.64 450.15,407.12 450.49,406.72 450.82,406.99 451.16,406.71 451.49,406.98 451.83,407.76 452.16,407.32 452.50,407.06 452.83,407.53 453.17,408.60 453.50,409.79 453.84,410.59 454.17,411.48 454.51,412.68 454.84,413.61 455.18,414.42 455.51,415.22 455.85,415.64 456.18,415.77 456.52,416.31 456.85,417.10 457.19,417.77 457.52,418.17 457.86,418.30 458.19,418.86 458.53,419.95 458.86,420.88 459.20,422.07 459.53,422.61 459.87,423.67 460.20,424.73 460.54,425.66 460.87,426.46 461.21,427.26 461.54,427.92 461.88,428.32 462.21,428.06 462.55,427.66 462.88,427.39 463.22,427.62 463.55,426.59 463.89,425.80 464.22,425.40 464.56,424.33 464.89,423.80 465.23,423.14 465.56,422.26 465.90,422.26 466.23,421.86 466.57,422.66 466.90,423.32 467.24,424.39 467.57,425.54 467.91,426.61 468.24,427.91 468.58,428.29 468.91,427.96 469.25,429.03 469.58,430.12 469.92,430.25 470.25,430.37 470.59,430.38 470.92,431.05 471.26,430.91 471.59,431.84 471.93,432.77 472.26,433.57 472.60,434.77 472.93,435.75 473.27,436.73 473.60,437.67 473.94,438.60 474.27,438.83 474.61,438.87 474.94,438.62 475.28,438.42 475.61,437.36 475.95,436.96 476.28,435.90 476.62,435.50 476.95,434.83 477.29,434.98 477.62,436.02 477.96,437.01 478.29,438.34 478.63,439.41 478.96,440.22 479.30,440.48 479.63,440.36 479.97,439.58 480.30,439.31 480.64,438.38 480.97,438.38 481.31,437.55 481.64,437.68 481.98,438.45 482.31,438.05 482.65,436.72 482.98,435.79 483.32,434.59 483.65,434.06 483.99,433.00 484.32,432.34 484.66,431.40 484.99,430.47 485.33,429.50 485.66,428.81 486.00,427.75 486.33,426.69 486.67,425.57 487.00,424.60 487.34,423.80 487.67,423.00 488.01,422.21 488.34,422.07 488.68,421.81 489.01,421.61 489.35,421.21 489.68,420.94 490.02,421.00 490.35,420.57 490.69,419.76 491.02,419.36 491.36,419.10 491.69,418.83 492.03,418.75 492.36,418.35 492.70,418.29 493.03,418.42 493.37,419.08 493.70,420.01 494.04,420.81 494.37,421.85 494.71,422.91 495.04,423.98 495.38,424.91 495.71,425.93 496.05,426.95 496.38,426.94 496.72,428.14 497.05,428.44 497.39,428.83 497.72,429.23 498.06,428.69 498.39,427.90 498.73,428.16 499.06,428.83 499.40,430.10 499.73,430.37 500.07,430.50 500.40,430.77 500.74,431.03 501.07,432.23 501.41,432.36 501.74,431.83 502.08,431.17 502.41,430.39 502.75,429.85 503.08,429.37 503.42,428.97 503.75,428.57 504.09,428.14 504.42,427.87 504.76,427.74 505.09,427.87 505.43,427.47 505.76,427.10 506.10,426.04 506.43,426.04 506.77,425.48 507.10,425.01 507.44,424.93 507.77,424.13 508.11,423.96 508.44,423.56 508.78,423.47 509.11,423.31 509.45,422.78 509.78,422.65 510.12,422.02 510.45,420.69 510.79,419.76 511.12,418.92 511.46,418.11 511.79,417.18 512.13,416.47 512.46,415.89 512.80,415.69 513.13,415.83 513.47,415.59 513.80,414.80 514.14,413.97 514.47,413.17 514.81,412.24 515.14,411.48 515.48,410.42 515.81,409.22 516.15,408.03 516.48,406.96 516.82,406.10 517.15,405.14 517.49,403.81 517.82,402.62 518.16,401.69 518.49,400.72 518.83,399.81 519.16,399.13 519.50,398.60 519.83,397.54 520.17,396.90 520.50,395.84 520.84,395.04 521.17,393.96 521.51,392.90 521.84,391.93 522.18,390.87 522.51,389.74 522.85,388.74 523.18,387.54 523.52,386.69 523.85,385.63 524.19,384.78 524.52,383.98 524.86,383.32 525.19,382.39 525.53,381.39 525.86,380.73 526.20,380.06 526.53,379.66 526.87,379.00 527.20,378.68 527.54,378.94 527.87,379.70 528.21,380.27 528.54,381.46 528.88,382.25 529.21,383.10 529.55,384.43 529.88,385.50 530.22,386.83 530.55,387.62 530.89,388.42 531.22,389.22 531.56,390.41 531.89,391.28 532.23,392.08 532.56,393.01 532.90,393.80 533.23,394.60 533.57,395.53 533.90,396.20 534.24,397.26 534.57,397.95 534.91,399.20 535.24,400.13 535.58,401.06 535.91,401.99 536.25,403.05 536.58,404.13 536.92,405.19 537.25,406.06 537.59,406.67 537.92,407.00 538.26,407.80 538.59,409.00 538.93,409.14 539.26,409.01 539.60,408.88 539.93,408.29 540.27,407.81 540.60,407.77 540.94,407.91 541.27,407.64 541.61,407.72 541.94,407.28 542.28,406.08 542.61,405.29 542.95,404.09 543.28,403.17 543.62,402.55 543.95,401.75 544.29,400.60 544.62,399.27 544.96,398.24 545.29,397.18 545.63,396.12 545.96,395.32 546.30,394.42 546.63,393.68 546.97,392.85 547.30,391.78 547.64,390.99 547.97,390.32 548.31,389.39 548.64,388.43 548.98,387.77 549.31,386.57 549.65,385.38 549.98,385.27 550.32,385.14 550.65,385.14 550.99,385.14 551.32,384.47 551.66,383.41 551.99,382.35 552.33,381.15 552.66,380.25 553.00,379.45 553.33,378.81 553.67,378.43 554.00,378.43 554.34,378.43 554.67,378.29 555.01,378.31 555.34,378.70 555.68,378.53 556.01,378.74 556.35,378.61 556.68,378.39 557.02,378.33 557.35,378.60 557.69,379.13 558.02,380.33 558.36,381.11 558.69,381.92 559.03,382.71 559.36,383.53 559.70,384.59 560.03,384.67 560.37,385.74 560.70,385.87 561.04,385.91 561.37,385.96 561.71,385.67 562.04,385.66 562.38,386.45 562.71,387.65 563.05,388.53 563.38,389.23 563.72,390.16 564.05,391.09 564.39,392.42 564.72,393.22 565.06,394.02 565.39,395.21 565.73,395.69 566.06,396.24 566.40,397.15 566.73,397.95 567.07,399.01 567.40,399.97 567.74,401.17 568.07,402.27 568.41,403.47 568.74,404.53 569.08,405.19 569.41,406.39 569.75,407.07 570.08,407.91 570.42,409.23 570.75,410.17 571.09,411.14 571.42,411.67 571.76,412.23 572.09,412.94 572.43,413.61 572.76,414.47 573.10,415.27 573.43,415.73 573.77,416.80 574.10,417.66 574.44,418.59 574.77,419.12 575.11,420.19 575.44,421.05 575.78,421.76 576.11,422.29 576.45,422.69 576.78,423.66 577.12,424.85 577.45,425.80 577.79,426.86 578.12,427.66 578.46,428.72 578.79,429.78 579.13,430.58 579.46,431.26 579.80,432.15 580.13,433.35 580.47,433.96 580.80,434.62 581.14,435.46 581.47,436.26 581.81,437.39 582.14,437.43 582.48,438.09 582.81,438.42 583.15,437.49 583.48,437.41 583.82,437.80 584.15,438.33 584.49,437.67 584.82,437.53 585.16,437.13 585.49,436.07 585.83,435.41 586.16,434.61 586.50,433.68 586.83,432.75 587.17,431.82 587.50,430.62 587.84,429.96 588.17,429.03 588.51,428.10 588.84,427.16 589.18,426.37 589.51,425.48 589.85,425.32 590.18,425.73 590.52,425.25 590.85,425.26 591.19,425.10 591.52,424.71 591.86,423.95 592.19,422.89 592.53,422.89 592.86,422.62 593.20,423.02 593.53,422.57 593.87,423.04 594.20,423.52 594.54,423.02 594.87,422.41 595.21,421.21 595.54,420.01 595.88,418.75 596.21,417.82 596.55,416.89 596.88,415.83 597.22,414.63 597.55,413.57 597.89,412.24 598.22,411.31 598.56,409.98 598.89,409.09 599.23,408.16 599.56,406.96 599.90,406.03 600.23,405.10 600.57,404.30 600.90,403.37 601.24,402.58 601.57,401.38 601.91,400.45 602.24,399.52 602.58,398.71 602.91,397.67 603.25,396.87 603.58,396.21 603.92,396.16 604.25,396.77 604.59,396.50 604.92,396.74 605.26,397.67 605.59,398.07 605.93,398.63 606.26,398.76 606.60,398.76 606.93,399.20 607.27,400.21 607.60,401.01 607.94,400.85 608.27,400.70 608.61,400.24 608.94,399.57 609.28,398.97 609.61,398.18 609.95,398.18 610.28,398.58 610.62,398.44 610.95,398.18 611.29,398.79 611.62,398.92 611.96,397.59 612.29,396.66 612.63,395.47 612.96,394.40 613.30,393.52 613.63,392.99 613.97,392.98 614.30,392.47 614.64,391.54 614.97,390.88 615.31,390.22 615.64,389.02 615.98,388.18 616.31,387.25 616.65,386.12 616.98,385.06 617.32,384.05 617.65,383.25 617.99,383.12 618.32,382.73 618.66,381.80 618.99,381.00 619.33,379.94 619.66,379.01 620.00,378.13 620.33,377.34 620.67,376.57 621.00,375.50 621.34,374.17 621.67,373.51 622.01,372.66 622.34,371.73 622.68,370.78 623.01,369.85 623.35,369.06 623.68,368.26 624.02,367.46 624.35,366.66 624.69,365.87 625.02,365.20 625.36,364.40 625.69,363.61 626.03,362.72 626.36,361.85 626.70,361.21 627.03,360.23 627.37,359.49 627.70,358.82 628.04,358.00 628.37,356.67 628.71,355.74 629.04,354.94 629.38,354.14 629.71,353.21 630.05,353.12 630.38,353.20 630.72,353.62 631.05,352.79 631.39,352.39 631.72,351.98 632.06,350.93 632.39,350.13 632.73,350.47 633.06,349.28 633.40,348.21 633.73,347.28 634.07,346.71 634.40,346.18 634.74,345.41 635.07,344.47 635.41,343.68 635.74,342.62 636.08,341.57 636.41,340.76 636.75,339.56 637.08,338.76 637.42,337.74 637.75,336.68 638.09,335.61 638.42,334.55 638.76,333.99 639.09,332.93 639.43,331.97 639.76,331.15 640.10,330.35 640.43,329.82 640.77,328.89 641.10,327.83 641.44,326.63 641.77,325.57 642.11,324.66 642.44,323.73 642.78,322.80 643.11,322.07 643.45,321.27 643.78,320.21 644.12,319.35 644.45,318.28 644.79,317.22 645.12,316.16 645.46,314.83 645.79,314.30 646.13,313.52 646.46,312.73 646.80,311.74 647.13,310.71 647.47,309.51 647.80,308.58 648.14,307.45 648.47,306.25 648.81,304.93 649.14,304.39 649.48,302.93 649.81,301.87 650.15,300.94 650.48,299.87 650.82,298.94 651.15,297.75 651.49,296.46 651.82,295.95 652.16,295.02 652.49,293.76 652.83,293.55 653.16,292.96 653.50,292.56 653.83,292.56 654.17,292.56 654.50,292.70 654.84,292.87 655.17,292.13 655.51,291.06 655.84,291.00 656.18,290.86 656.51,291.13 656.85,291.66 657.18,292.05 657.52,292.33 657.85,293.32 658.19,293.12 658.52,293.27 658.86,293.08 659.19,292.43 659.53,291.77 659.86,290.70 660.20,290.30 660.53,289.80 660.87,289.27 661.20,290.07 661.54,289.53 661.87,289.29 662.21,289.16 662.54,289.60 662.88,289.87 663.21,290.45 663.55,291.38 663.88,292.44 664.22,292.84 664.55,293.24 664.89,294.04 665.22,294.11 665.56,294.03 665.89,293.63 666.23,293.83 666.56,293.83 666.90,293.69 667.23,293.22 667.57,293.60 667.90,293.87 668.24,293.51 668.57,293.34 668.91,293.48 669.24,293.08 669.58,293.51 669.91,293.38 670.25,292.84 670.58,293.64 670.92,294.33 671.25,295.41 671.59,296.39 671.92,297.19 672.26,298.25 672.59,299.45 672.93,300.75 673.26,301.55 673.60,302.60 673.93,303.13 674.27,304.09 674.60,304.61 674.94,305.67 675.27,304.87 675.61,305.00 675.94,304.34 676.28,304.34 676.61,304.53 676.95,304.97 677.28,304.97 677.62,304.43 677.95,303.90 678.29,304.30 678.62,304.09 678.96,304.35 679.29,304.62 679.63,305.55 679.96,306.88 680.30,307.57 680.63,308.37 680.97,309.43 681.30,310.37 681.64,311.42 681.97,311.82 682.31,312.49 682.64,313.52 682.98,314.45 683.31,315.65 683.65,317.03 683.98,317.91 684.32,318.69 684.65,319.89 684.99,320.69 685.32,321.75 685.66,322.96 685.99,323.89 686.33,324.69 686.66,325.73 687.00,326.12 687.33,327.32 687.67,328.37 688.00,329.04 688.34,330.10 688.67,330.90 689.01,331.96 689.34,333.20 689.68,333.99 690.01,334.92 690.35,335.72 690.68,336.78 691.02,337.71 691.35,338.51 691.69,339.28 692.02,339.95 692.36,341.14 692.69,341.24 693.03,341.37 693.36,342.17 693.70,341.90 694.03,341.37 694.37,341.18 694.70,341.80 695.04,341.53 695.37,341.45 695.71,340.57 696.04,339.83 696.38,338.90 696.71,338.37 697.05,338.10 697.38,337.86 697.72,336.66 698.05,335.34 698.39,334.75 698.72,333.95 699.06,332.89 699.39,332.11 699.73,331.18 700.06,330.60 700.40,329.41 700.73,328.38 701.07,327.41 701.40,326.75 701.74,326.01 702.07,325.74 702.41,326.18 702.74,326.31 703.08,325.65 703.41,324.96 703.75,324.45 704.08,324.72 704.42,325.19 704.75,324.93 705.09,325.99 705.42,326.26 705.76,326.74 706.09,326.47 706.43,326.47 706.76,325.59 707.10,324.99 707.43,323.81 707.77,322.82 708.10,321.82 708.44,321.69 708.77,320.62 709.11,320.16 709.44,320.56 709.78,320.56 710.11,320.37 710.45,320.33 710.78,319.80 711.12,320.60 711.45,321.79 711.79,323.12 712.12,324.17 712.46,324.38 712.79,325.31 713.13,326.46 713.46,327.65 713.80,328.32 714.13,328.98 714.47,330.05 714.80,330.71 715.14,331.24 715.47,331.91 715.81,332.53 716.14,333.65 716.48,334.31 716.81,334.64 717.15,334.86 717.48,334.99 717.82,334.99 718.15,335.26 718.49,335.26 718.82,335.79 719.16,336.72 719.49,337.78 719.83,338.18 720.16,337.57 720.50,337.14 720.83,336.49 721.17,337.12 721.50,337.25 721.84,336.94 722.17,336.85 722.51,336.58 722.84,336.72 723.18,336.58 723.51,336.09 723.85,335.32 724.18,334.13 724.52,334.42 724.85,334.02 725.19,334.55 725.52,334.55 725.86,334.29 726.19,334.55 726.53,334.42 726.86,334.76 727.20,334.09 727.53,333.82 727.87,332.76 728.20,331.96 728.54,332.29 728.87,332.82 729.21,332.70 729.54,333.24 729.88,333.90 730.21,334.30 730.55,334.82 730.88,336.01 731.22,335.71 731.55,335.57 731.89,335.39 732.22,335.43 732.56,335.16 732.89,335.32 733.23,335.26 733.56,335.26 733.90,334.86 734.23,334.03 734.57,333.24 734.90,332.44 735.24,332.31 735.57,332.04 735.91,331.77 736.24,330.84 736.58,330.84 736.91,331.15 737.25,332.21 737.58,333.28 737.92,334.34 738.25,335.14 738.59,336.33 738.92,337.08 739.26,336.85 739.59,337.26 739.93,337.93 740.26,339.12 740.60,339.26 740.93,339.89 741.27,340.82 741.60,342.15 741.94,342.95 742.27,344.28 742.61,345.22 742.94,346.29 743.28,347.43 743.61,348.49 743.95,349.56 744.28,349.97 744.62,350.50 744.95,351.43 745.29,352.72 745.62,352.99 745.96,352.22 746.29,351.29 746.63,350.75 746.96,349.82 747.30,348.81 747.63,348.02 747.97,347.35 748.30,346.55 748.64,345.53 748.97,344.64 749.31,343.71 749.64,342.78 749.98,342.11 750.31,341.20 750.65,340.48 750.98,339.85 751.32,339.99 751.65,339.55 751.99,338.49 752.32,337.69 752.66,336.76 752.99,335.48 753.33,335.22 753.66,335.08 754.00,335.16 754.33,335.07 754.67,335.92 755.00,336.72"/>
<line x1="783" y1="106" x2="809" y2="106" stroke="#7c3aed" stroke-width="3"/>
<text x="817" y="110" font-family="Arial" font-size="13" fill="#111827">Calibrated Avellaneda Stoikov</text>
<text x="420.0" y="518" text-anchor="middle" font-family="Arial" font-size="14" fill="#111827">Event index</text>
<text x="22" y="256.0" text-anchor="middle" transform="rotate(-90 22 256.0)" font-family="Arial" font-size="14" fill="#111827">Inventory</text>
</svg>
