<svg xmlns="http://www.w3.org/2000/svg" width="940" height="540" viewBox="0 0 940 540">
<rect width="100%" height="100%" fill="#ffffff"/>
<text x="470.0" y="26" text-anchor="middle" font-family="Arial" font-size="18" fill="#111827">Low Volatility Cumulative PnL After Fees</text>
<line x1="85" y1="470" x2="755" y2="470" stroke="#111827" stroke-width="1"/>
<line x1="85" y1="42" x2="85" y2="470" stroke="#111827" stroke-width="1"/>
<line x1="85.00" y1="42" x2="85.00" y2="470" stroke="#e5e7eb" stroke-width="1"/>
<text x="85.00" y="494" text-anchor="middle" font-family="Arial" font-size="12" fill="#374151">0</text>
<line x1="252.50" y1="42" x2="252.50" y2="470" stroke="#e5e7eb" stroke-width="1"/>
<text x="252.50" y="494" text-anchor="middle" font-family="Arial" font-size="12" fill="#374151">50000</text>
<line x1="420.00" y1="42" x2="420.00" y2="470" stroke="#e5e7eb" stroke-width="1"/>
<text x="420.00" y="494" text-anchor="middle" font-family="Arial" font-size="12" fill="#374151">100000</text>
<line x1="587.50" y1="42" x2="587.50" y2="470" stroke="#e5e7eb" stroke-width="1"/>
<text x="587.50" y="494" text-anchor="middle" font-family="Arial" font-size="12" fill="#374151">149999</text>
<line x1="755.00" y1="42" x2="755.00" y2="470" stroke="#e5e7eb" stroke-width="1"/>
<text x="755.00" y="494" text-anchor="middle" font-family="Arial" font-size="12" fill="#374151">199999</text>
<line x1="85" y1="470.00" x2="755" y2="470.00" stroke="#e5e7eb" stroke-width="1"/>
<text x="73" y="474.00" text-anchor="end" font-family="Arial" font-size="12" fill="#374151">-1582204</text>
<line x1="85" y1="363.00" x2="755" y2="363.00" stroke="#e5e7eb" stroke-width="1"/>
<text x="73" y="367.00" text-anchor="end" font-family="Arial" font-size="12" fill="#374151">3303144</text>
<line x1="85" y1="256.00" x2="755" y2="256.00" stroke="#e5e7eb" stroke-width="1"/>
<text x="73" y="260.00" text-anchor="end" font-family="Arial" font-size="12" fill="#374151">8188492</text>
<line x1="85" y1="149.00" x2="755" y2="149.00" stroke="#e5e7eb" stroke-width="1"/>
<text x="73" y="153.00" text-anchor="end" font-family="Arial" font-size="12" fill="#374151">13073841</text>
<line x1="85" y1="42.00" x2="755" y2="42.00" stroke="#e5e7eb" stroke-width="1"/>
<text x="73" y="46.00" text-anchor="end" font-family="Arial" font-size="12" fill="#374151">17959189</text>
<polyline fill="none" stroke="#2563eb" stroke-width="2" points="85.00,435.35 85.34,435.33 85.67,435.31 86.01,435.30 86.34,435.29 86.68,435.27 87.01,435.25 87.35,435.24 87.68,435.22 88.02,435.20 88.35,435.18 88.69,435.17 89.02,435.15 89.36,435.14 89.69,435.13 90.03,435.09 90.36,435.07 90.70,435.05 91.03,435.02 91.37,435.00 91.70,435.00 92.04,434.97 92.37,434.96 92.71,434.97 93.04,434.96 93.38,434.95 93.71,434.93 94.05,434.95 94.38,434.93 94.72,434.91 95.05,434.91 95.39,434.89 95.72,434.83 96.06,434.84 96.39,434.82 96.73,434.78 97.06,434.81 97.40,434.82 97.73,434.81 98.07,434.80 98.40,434.80 98.74,434.79 99.07,434.77 99.41,434.76 99.74,434.74 100.08,434.76 100.41,434.69 100.75,434.72 101.08,434.69 101.42,434.68 101.75,434.63 102.09,434.61 102.42,434.63 102.76,434.63 103.09,434.61 103.43,434.56 103.76,434.59 104.10,434.56 104.43,434.58 104.77,434.61 105.10,434.61 105.44,434.60 105.77,434.60 106.11,434.57 106.44,434.58 106.78,434.56 107.11,434.51 107.45,434.54 107.78,434.57 108.12,434.57 108.45,434.56 108.79,434.56 109.12,434.55 109.46,434.54 109.79,434.52 110.13,434.50 110.46,434.48 110.80,434.47 111.13,434.45 111.47,434.44 111.80,434.42 112.14,434.40 112.47,434.38 112.81,434.38 113.14,434.36 113.48,434.34 113.81,434.34 114.15,434.32 114.48,434.30 114.82,434.29 115.15,434.27 115.49,434.26 115.82,434.23 116.16,434.22 116.49,434.21 116.83,434.20 117.16,434.19 117.50,434.19 117.83,434.19 118.17,434.18 118.50,434.17 118.84,434.15 119.17,434.14 119.51,434.14 119.84,434.21 120.18,434.18 120.51,434.18 120.85,434.13 121.18,434.14 121.52,434.15 121.85,434.09 122.19,434.05 122.52,434.00 122.86,434.01 123.19,434.00 123.53,433.99 123.86,433.96 124.20,433.96 124.53,434.01 124.87,434.03 125.20,434.00 125.54,434.00 125.87,433.97 126.21,434.03 126.54,433.99 126.88,434.00 127.21,433.99 127.55,433.95 127.88,433.95 128.22,433.94 128.55,433.90 128.89,433.87 129.22,433.84 129.56,433.83 129.89,433.84 130.23,433.94 130.56,433.87 130.90,433.85 131.23,433.76 131.57,433.80 131.90,433.79 132.24,433.83 132.57,433.84 132.91,433.87 133.24,433.78 133.58,433.76 133.91,433.79 134.25,433.81 134.58,433.73 134.92,433.67 135.25,433.64 135.59,433.69 135.92,433.64 136.26,433.56 136.59,433.57 136.93,433.52 137.26,433.39 137.60,433.31 137.93,433.25 138.27,433.17 138.60,433.25 138.94,433.26 139.27,433.25 139.61,433.12 139.94,433.09 140.28,433.12 140.61,433.01 140.95,433.08 141.28,433.06 141.62,433.10 141.95,433.08 142.29,433.03 142.62,432.90 142.96,432.85 143.29,432.77 143.63,432.71 143.96,432.75 144.30,432.73 144.63,432.69 144.97,432.83 145.30,432.83 145.64,432.80 145.97,432.97 146.31,432.96 146.64,432.93 146.98,432.85 147.31,433.01 147.65,432.92 147.98,432.82 148.32,432.69 148.65,432.63 148.99,432.52 149.32,432.34 149.66,432.41 149.99,432.42 150.33,432.49 150.66,432.49 151.00,432.58 151.33,432.42 151.67,432.35 152.00,432.40 152.34,432.42 152.67,432.53 153.01,432.55 153.34,432.75 153.68,432.55 154.01,432.49 154.35,432.45 154.68,432.55 155.02,432.60 155.35,432.46 155.69,432.52 156.02,432.20 156.36,432.24 156.69,432.17 157.03,432.15 157.36,432.32 157.70,432.26 158.03,432.19 158.37,432.09 158.70,432.13 159.04,432.26 159.37,432.20 159.71,432.24 160.04,432.11 160.38,432.09 160.71,431.86 161.05,431.76 161.38,431.94 161.72,431.99 162.05,431.85 162.39,431.93 162.72,431.90 163.06,431.76 163.39,431.63 163.73,431.52 164.06,431.60 164.40,431.94 164.73,431.88 165.07,432.03 165.40,432.05 165.74,432.22 166.07,432.05 166.41,432.15 166.74,432.12 167.08,431.77 167.41,431.56 167.75,431.71 168.08,431.58 168.42,431.45 168.75,431.64 169.09,431.83 169.42,432.02 169.76,431.95 170.09,431.77 170.43,431.57 170.76,431.44 171.10,431.58 171.43,431.59 171.77,431.60 172.10,431.63 172.44,431.66 172.77,431.74 173.11,431.67 173.44,431.51 173.78,431.43 174.11,431.34 174.45,431.39 174.78,431.37 175.12,431.01 175.45,431.31 175.79,431.25 176.12,431.20 176.46,431.16 176.79,431.25 177.13,431.45 177.46,431.21 177.80,431.42 178.13,431.30 178.47,431.10 178.80,430.99 179.14,430.79 179.47,430.59 179.81,430.30 180.14,430.17 180.48,430.31 180.81,430.63 181.15,430.51 181.48,430.35 181.82,430.36 182.15,430.44 182.49,430.41 182.82,430.77 183.16,430.62 183.49,430.44 183.83,430.47 184.16,430.28 184.50,430.01 184.83,429.89 185.17,429.77 185.50,429.62 185.84,429.86 186.17,430.02 186.51,430.23 186.84,430.29 187.18,430.08 187.51,430.32 187.85,429.85 188.18,429.88 188.52,429.52 188.85,428.85 189.19,429.08 189.52,429.20 189.86,428.90 190.19,428.38 190.53,427.63 190.86,427.59 191.20,428.02 191.53,427.84 191.87,428.41 192.20,429.12 192.54,428.61 192.87,428.99 193.21,428.27 193.54,428.94 193.88,428.69 194.21,428.51 194.55,428.62 194.88,428.40 195.22,427.48 195.55,426.59 195.89,425.91 196.22,425.05 196.56,424.76 196.89,425.23 197.23,425.70 197.56,425.13 197.90,424.99 198.23,425.67 198.57,425.23 198.90,425.80 199.24,426.51 199.57,426.86 199.91,426.19 200.24,425.95 200.58,425.50 200.91,425.99 201.25,426.10 201.58,425.67 201.92,425.59 202.25,425.61 202.59,425.90 202.92,426.19 203.26,426.78 203.59,427.25 203.93,427.61 204.26,426.49 204.60,425.75 204.93,425.58 205.27,425.89 205.60,425.73 205.94,426.38 206.27,427.74 206.61,427.85 206.94,428.74 207.28,428.66 207.61,429.18 207.95,429.92 208.28,429.20 208.62,428.87 208.95,429.82 209.29,430.48 209.62,431.77 209.96,432.04 210.29,432.35 210.63,432.44 210.96,432.75 211.30,432.01 211.63,432.23 211.97,433.11 212.30,433.04 212.64,432.58 212.97,432.75 213.31,433.10 213.64,432.62 213.98,433.21 214.31,432.72 214.65,433.88 214.98,433.56 215.32,433.07 215.65,433.35 215.99,433.69 216.32,432.99 216.66,433.97 216.99,433.49 217.33,433.42 217.66,432.93 218.00,432.32 218.33,432.78 218.67,432.07 219.00,432.23 219.34,432.63 219.67,432.66 220.01,432.47 220.34,431.83 220.68,432.41 221.01,432.11 221.35,432.20 221.68,431.92 222.02,432.43 222.35,431.67 222.69,431.43 223.02,432.16 223.36,432.45 223.69,432.59 224.03,432.41 224.36,431.98 224.70,431.80 225.03,431.22 225.37,431.11 225.70,429.67 226.04,430.16 226.37,430.12 226.71,430.31 227.04,428.85 227.38,428.48 227.71,427.77 228.05,427.60 228.38,427.44 228.72,427.56 229.05,428.73 229.39,428.57 229.72,427.94 230.06,428.08 230.39,429.28 230.73,428.60 231.06,427.97 231.40,428.55 231.73,429.16 232.07,428.65 232.40,428.14 232.74,428.84 233.07,429.47 233.41,428.89 233.74,428.35 234.08,428.92 234.41,427.41 234.75,426.99 235.08,427.49 235.42,426.54 235.75,427.07 236.09,428.06 236.42,427.74 236.76,426.82 237.09,426.14 237.43,426.09 237.76,427.03 238.10,427.24 238.43,426.37 238.77,426.30 239.10,426.73 239.44,426.67 239.77,426.26 240.11,426.89 240.44,426.92 240.78,426.56 241.11,427.29 241.45,426.46 241.78,425.74 242.12,426.56 242.45,426.67 242.79,426.10 243.12,426.67 243.46,427.58 243.79,427.69 244.13,426.50 244.46,426.20 244.80,426.94 245.13,426.66 245.47,427.31 245.80,427.67 246.14,428.30 246.47,429.40 246.81,429.75 247.14,429.15 247.48,428.60 247.81,429.51 248.15,429.57 248.48,429.60 248.82,429.82 249.15,430.06 249.49,429.30 249.82,427.26 250.16,427.55 250.49,426.76 250.83,427.76 251.16,426.78 251.50,425.77 251.83,425.71 252.17,424.96 252.50,424.53 252.84,424.78 253.17,424.97 253.51,424.57 253.84,425.68 254.18,425.19 254.51,423.52 254.85,422.48 255.18,422.81 255.52,422.79 255.85,421.32 256.19,420.28 256.52,419.67 256.86,419.71 257.19,419.49 257.53,420.55 257.86,421.11 258.20,420.00 258.53,420.16 258.87,419.04 259.20,418.17 259.54,418.10 259.87,417.59 260.21,417.67 260.54,419.01 260.88,419.31 261.21,419.27 261.55,419.83 261.88,419.61 262.22,418.76 262.55,417.10 262.89,416.72 263.22,416.63 263.56,415.89 263.89,414.17 264.23,414.37 264.56,414.39 264.90,415.82 265.23,414.32 265.57,414.13 265.90,413.78 266.24,414.49 266.57,417.12 266.91,416.26 267.24,418.36 267.58,417.50 267.91,416.06 268.25,414.41 268.58,415.56 268.92,417.40 269.25,416.61 269.59,417.35 269.92,417.39 270.26,419.94 270.59,419.99 270.93,418.47 271.26,416.96 271.60,416.70 271.93,417.42 272.27,416.32 272.60,415.95 272.94,414.89 273.27,414.88 273.61,415.32 273.94,417.56 274.28,420.28 274.61,421.22 274.95,419.98 275.28,419.88 275.62,418.77 275.95,419.42 276.29,418.02 276.62,418.39 276.96,418.77 277.29,419.14 277.63,418.66 277.96,417.74 278.30,418.25 278.63,419.71 278.97,418.98 279.30,422.46 279.64,422.20 279.97,422.46 280.31,422.88 280.64,422.22 280.98,422.34 281.31,421.69 281.65,419.35 281.98,420.16 282.32,421.70 282.65,421.79 282.99,422.01 283.32,421.86 283.66,420.74 283.99,420.75 284.33,422.94 284.66,422.86 285.00,423.91 285.33,426.31 285.67,425.53 286.00,424.00 286.34,424.70 286.67,423.75 287.01,424.38 287.34,425.63 287.68,426.76 288.01,428.74 288.35,429.85 288.68,430.80 289.02,429.03 289.35,427.54 289.69,428.54 290.02,428.12 290.36,427.06 290.69,427.04 291.03,428.15 291.36,429.87 291.70,431.13 292.03,431.91 292.37,430.59 292.70,429.01 293.04,428.00 293.37,426.71 293.71,427.70 294.04,429.39 294.38,428.38 294.71,428.08 295.05,424.98 295.38,426.03 295.72,426.37 296.05,425.61 296.39,426.59 296.72,428.53 297.06,430.26 297.39,428.68 297.73,428.48 298.06,429.55 298.40,431.15 298.73,430.04 299.07,428.65 299.40,428.71 299.74,427.61 300.07,424.17 300.41,426.62 300.74,427.40 301.08,427.51 301.41,428.29 301.75,427.14 302.08,427.53 302.42,426.69 302.75,428.02 303.09,427.50 303.42,427.01 303.76,426.53 304.09,424.94 304.43,426.21 304.76,426.33 305.10,428.14 305.43,428.67 305.77,431.20 306.10,431.51 306.44,431.98 306.77,431.37 307.11,432.51 307.44,433.95 307.78,435.67 308.11,435.17 308.45,435.96 308.78,434.63 309.12,432.51 309.45,430.64 309.79,430.97 310.12,432.37 310.46,433.98 310.79,436.43 311.13,435.98 311.46,435.57 311.80,435.81 312.13,436.00 312.47,435.52 312.80,435.96 313.14,433.21 313.47,433.41 313.81,434.11 314.14,435.21 314.48,435.60 314.81,435.30 315.15,435.62 315.48,435.73 315.82,434.97 316.15,434.03 316.49,434.44 316.82,433.33 317.16,434.40 317.49,435.58 317.83,436.12 318.16,436.77 318.50,436.71 318.83,437.58 319.17,435.03 319.50,435.66 319.84,434.11 320.17,433.45 320.51,432.71 320.84,432.45 321.18,430.58 321.51,429.54 321.85,429.39 322.18,429.89 322.52,429.88 322.85,429.58 323.19,427.48 323.52,427.09 323.86,426.33 324.19,426.44 324.53,424.93 324.86,424.97 325.20,424.55 325.53,423.28 325.87,421.17 326.20,421.54 326.54,420.52 326.87,420.60 327.21,421.39 327.54,421.78 327.88,421.95 328.21,422.91 328.55,423.26 328.88,422.90 329.22,423.25 329.55,424.24 329.89,424.44 330.22,425.93 330.56,423.86 330.89,424.29 331.23,423.43 331.56,425.06 331.90,423.47 332.23,423.28 332.57,422.60 332.90,422.21 333.24,421.80 333.57,423.08 333.91,423.05 334.24,423.98 334.58,423.34 334.91,423.13 335.25,421.77 335.58,420.55 335.92,419.34 336.25,418.46 336.59,416.92 336.92,417.57 337.26,416.90 337.59,414.17 337.93,413.66 338.26,412.46 338.60,413.59 338.93,410.98 339.27,411.28 339.60,413.28 339.94,412.25 340.27,411.27 340.61,410.29 340.94,410.98 341.28,410.68 341.61,410.19 341.95,408.76 342.28,408.85 342.62,407.39 342.95,405.87 343.29,407.57 343.62,408.88 343.96,408.03 344.29,405.25 344.63,403.77 344.96,401.44 345.30,403.17 345.63,402.90 345.97,405.05 346.30,404.82 346.64,404.87 346.97,407.00 347.31,405.81 347.64,406.53 347.98,408.03 348.31,406.90 348.65,409.47 348.98,408.37 349.32,407.95 349.65,408.71 349.99,405.96 350.32,406.79 350.66,407.23 350.99,409.31 351.33,410.72 351.66,410.32 352.00,410.63 352.33,411.23 352.67,408.85 353.00,408.53 353.34,404.65 353.67,405.81 354.01,403.43 354.34,403.35 354.68,403.84 355.01,403.50 355.35,403.93 355.68,405.62 356.02,409.35 356.35,410.48 356.69,411.66 357.02,411.90 357.36,412.85 357.69,412.60 358.03,410.20 358.36,407.96 358.70,406.22 359.03,404.49 359.37,402.12 359.70,400.71 360.04,402.24 360.37,400.67 360.71,398.62 361.04,399.86 361.38,398.32 361.71,397.30 362.05,394.93 362.38,394.88 362.72,397.34 363.05,396.75 363.39,395.87 363.72,393.98 364.06,393.67 364.39,392.89 364.73,394.20 365.06,393.01 365.40,391.79 365.73,391.37 366.07,389.27 366.40,392.30 366.74,393.91 367.07,393.21 367.41,391.93 367.74,390.03 368.08,387.78 368.41,384.41 368.75,383.49 369.08,385.46 369.42,382.96 369.75,384.49 370.09,383.55 370.42,384.33 370.76,382.87 371.09,381.79 371.43,377.66 371.76,378.09 372.10,377.80 372.43,376.88 372.77,374.35 373.10,373.02 373.44,374.60 373.77,375.62 374.11,374.28 374.44,375.07 374.78,375.91 375.11,374.77 375.45,375.26 375.78,377.73 376.12,377.42 376.45,377.96 376.79,378.68 377.12,379.50 377.46,382.46 377.79,380.12 378.13,379.31 378.46,378.98 378.80,380.71 379.13,379.12 379.47,376.07 379.80,372.69 380.14,371.45 380.47,371.64 380.81,373.52 381.14,373.97 381.48,375.18 381.81,377.82 382.15,372.62 382.48,372.33 382.82,368.71 383.15,373.28 383.49,372.41 383.82,371.02 384.16,371.33 384.49,372.61 384.83,374.52 385.16,377.24 385.50,377.19 385.83,376.12 386.17,377.07 386.50,378.12 386.84,377.70 387.17,376.35 387.51,374.13 387.84,374.12 388.18,372.93 388.51,369.69 388.85,367.10 389.18,368.55 389.52,365.44 389.85,363.01 390.19,363.25 390.52,363.49 390.86,361.15 391.19,357.03 391.53,358.09 391.86,356.05 392.20,353.80 392.53,354.51 392.87,355.74 393.20,353.05 393.54,353.49 393.87,351.59 394.21,354.69 394.54,358.01 394.88,356.33 395.21,354.64 395.55,351.01 395.88,350.93 396.22,351.95 396.55,357.70 396.89,357.08 397.22,352.98 397.56,355.18 397.89,357.44 398.23,356.49 398.56,357.60 398.90,358.70 399.23,359.89 399.57,358.78 399.90,358.62 400.24,356.78 400.57,358.94 400.91,355.45 401.24,355.98 401.58,356.45 401.91,352.36 402.25,345.61 402.58,342.86 402.92,343.30 403.25,340.79 403.59,338.67 403.92,340.62 404.26,344.52 404.59,342.93 404.93,339.90 405.26,340.34 405.60,337.44 405.93,334.24 406.27,330.57 406.60,331.72 406.94,330.26 407.27,329.87 407.61,324.78 407.94,323.33 408.28,324.76 408.61,323.56 408.95,320.54 409.28,318.66 409.62,319.54 409.95,318.74 410.29,318.99 410.62,316.97 410.96,315.76 411.29,318.40 411.63,316.53 411.96,313.47 412.30,314.55 412.63,314.00 412.97,310.24 413.30,308.09 413.64,309.88 413.97,310.69 414.31,313.17 414.64,315.60 414.98,308.64 415.31,311.24 415.65,312.85 415.98,316.14 416.32,321.92 416.65,319.14 416.99,321.64 417.32,322.05 417.66,320.93 417.99,323.65 418.33,328.54 418.66,326.96 419.00,327.74 419.33,328.09 419.67,329.31 420.00,333.01 420.34,332.36 420.67,332.49 421.01,334.56 421.34,336.87 421.68,337.06 422.01,334.06 422.35,336.37 422.68,333.79 423.02,330.18 423.35,327.79 423.69,329.78 424.02,330.63 424.36,333.17 424.69,330.41 425.03,329.66 425.36,327.88 425.70,327.51 426.03,326.60 426.37,329.46 426.70,332.35 427.04,331.30 427.37,332.21 427.71,325.76 428.04,326.85 428.38,324.52 428.71,325.09 429.05,323.11 429.38,321.80 429.72,318.39 430.05,320.98 430.39,319.95 430.72,315.66 431.06,319.89 431.39,323.08 431.73,316.36 432.06,312.54 432.40,309.00 432.73,305.43 433.07,302.25 433.40,306.45 433.74,306.70 434.07,310.93 434.41,313.29 434.74,309.29 435.08,312.08 435.41,312.04 435.75,315.56 436.08,309.10 436.42,307.17 436.75,310.29 437.09,311.40 437.42,312.08 437.76,307.54 438.09,305.73 438.43,305.74 438.76,308.70 439.10,311.36 439.43,312.79 439.77,315.16 440.10,315.01 440.44,315.77 440.77,313.30 441.11,311.32 441.44,310.47 441.78,312.75 442.11,314.87 442.45,317.46 442.78,324.23 443.12,325.15 443.45,328.75 443.79,331.86 444.12,326.62 444.46,333.83 444.79,338.09 445.13,337.21 445.46,336.41 445.80,338.82 446.13,339.06 446.47,342.18 446.80,336.51 447.14,340.85 447.47,343.03 447.81,345.38 448.14,340.64 448.48,337.28 448.81,333.37 449.15,333.41 449.48,328.97 449.82,330.31 450.15,328.24 450.49,330.07 450.82,326.59 451.16,326.41 451.49,328.65 451.83,329.39 452.16,330.95 452.50,333.16 452.83,332.75 453.17,333.74 453.50,330.12 453.84,333.33 454.17,334.11 454.51,336.69 454.84,337.71 455.18,337.87 455.51,336.34 455.85,333.01 456.18,326.14 456.52,324.06 456.85,328.88 457.19,326.30 457.52,327.15 457.86,327.39 458.19,333.62 458.53,332.71 458.86,339.03 459.20,341.84 459.53,337.48 459.87,334.71 460.20,334.58 460.54,336.77 460.87,336.04 461.21,336.58 461.54,336.51 461.88,339.49 462.21,337.11 462.55,333.56 462.88,327.04 463.22,330.83 463.55,327.60 463.89,324.35 464.22,324.39 464.56,323.82 464.89,323.13 465.23,318.92 465.56,311.80 465.90,310.71 466.23,310.30 466.57,313.27 466.90,310.56 467.24,310.28 467.57,310.47 467.91,312.55 468.24,313.51 468.58,315.35 468.91,313.14 469.25,312.77 469.58,306.85 469.92,306.19 470.25,304.72 470.59,302.95 470.92,305.02 471.26,307.65 471.59,303.61 471.93,305.89 472.26,301.50 472.60,299.29 472.93,299.99 473.27,303.89 473.60,301.91 473.94,301.69 474.27,300.33 474.61,297.77 474.94,298.98 475.28,294.05 475.61,295.78 475.95,297.55 476.28,295.64 476.62,296.71 476.95,295.29 477.29,293.23 477.62,291.32 477.96,293.69 478.29,297.89 478.63,300.61 478.96,296.62 479.30,293.47 479.63,291.18 479.97,288.79 480.30,287.36 480.64,282.58 480.97,281.93 481.31,280.33 481.64,277.88 481.98,280.69 482.31,282.65 482.65,283.15 482.98,286.85 483.32,286.79 483.65,292.94 483.99,291.32 484.32,298.69 484.66,294.46 484.99,296.59 485.33,292.23 485.66,298.69 486.00,297.81 486.33,291.78 486.67,289.89 487.00,290.92 487.34,292.70 487.67,288.54 488.01,288.98 488.34,288.79 488.68,290.59 489.01,288.93 489.35,284.19 489.68,284.54 490.02,283.77 490.35,282.88 490.69,291.16 491.02,296.60 491.36,294.69 491.69,291.36 492.03,292.78 492.36,294.40 492.70,294.49 493.03,294.88 493.37,288.54 493.70,282.84 494.04,287.30 494.37,283.71 494.71,286.96 495.04,288.26 495.38,280.24 495.71,277.47 496.05,278.44 496.38,272.61 496.72,271.74 497.05,273.59 497.39,268.73 497.72,272.49 498.06,272.68 498.39,269.25 498.73,263.29 499.06,260.68 499.40,257.20 499.73,261.92 500.07,263.63 500.40,264.70 500.74,263.23 501.07,262.86 501.41,264.22 501.74,264.80 502.08,266.62 502.41,264.08 502.75,263.54 503.08,261.79 503.42,262.21 503.75,264.29 504.09,262.29 504.42,263.05 504.76,265.87 505.09,272.53 505.43,266.69 505.76,264.05 506.10,263.50 506.43,254.68 506.77,255.54 507.10,249.15 507.44,255.56 507.77,255.79 508.11,253.90 508.44,252.53 508.78,246.76 509.11,248.37 509.45,246.35 509.78,241.97 510.12,243.21 510.45,240.80 510.79,233.61 511.12,233.62 511.46,230.74 511.79,231.76 512.13,236.08 512.46,238.42 512.80,236.79 513.13,230.01 513.47,228.63 513.80,224.74 514.14,225.84 514.47,226.08 514.81,226.28 515.14,233.41 515.48,230.84 515.81,236.30 516.15,238.37 516.48,236.91 516.82,237.83 517.15,237.96 517.49,231.95 517.82,235.05 518.16,229.99 518.49,231.35 518.83,231.12 519.16,229.92 519.50,228.58 519.83,231.64 520.17,236.51 520.50,231.14 520.84,233.87 521.17,229.74 521.51,229.36 521.84,222.32 522.18,227.72 522.51,231.35 522.85,228.83 523.18,221.01 523.52,218.13 523.85,218.55 524.19,216.78 524.52,207.32 524.86,207.85 525.19,207.31 525.53,212.75 525.86,203.77 526.20,198.13 526.53,194.49 526.87,198.42 527.20,199.00 527.54,194.23 527.87,200.85 528.21,203.40 528.54,206.07 528.88,201.18 529.21,198.80 529.55,194.14 529.88,201.58 530.22,196.55 530.55,203.75 530.89,205.27 531.22,200.50 531.56,207.19 531.89,209.11 532.23,212.17 532.56,211.88 532.90,207.33 533.23,207.57 533.57,206.35 533.90,204.51 534.24,202.99 534.57,204.25 534.91,206.61 535.24,208.92 535.58,210.70 535.91,203.17 536.25,208.53 536.58,211.53 536.92,212.75 537.25,221.82 537.59,221.87 537.92,220.12 538.26,227.05 538.59,219.92 538.93,219.30 539.26,220.30 539.60,216.24 539.93,211.36 540.27,209.93 540.60,207.49 540.94,207.48 541.27,205.24 541.61,200.02 541.94,200.54 542.28,197.63 542.61,199.39 542.95,196.70 543.28,202.05 543.62,199.79 543.95,191.24 544.29,182.07 544.62,183.88 544.96,182.72 545.29,178.30 545.63,180.53 545.96,171.70 546.30,173.70 546.63,169.88 546.97,169.04 547.30,165.02 547.64,160.18 547.97,151.57 548.31,149.31 548.64,150.27 548.98,145.34 549.31,142.71 549.65,139.67 549.98,143.33 550.32,146.66 550.65,143.66 550.99,142.78 551.32,141.99 551.66,144.56 551.99,141.23 552.33,137.65 552.66,130.97 553.00,127.79 553.33,119.79 553.67,118.57 554.00,126.58 554.34,124.43 554.67,115.67 555.01,116.81 555.34,112.26 555.68,110.51 556.01,107.50 556.35,108.33 556.68,105.99 557.02,104.41 557.35,95.58 557.69,104.44 558.02,97.39 558.36,103.63 558.69,96.22 559.03,96.99 559.36,94.52 559.70,96.46 560.03,102.41 560.37,101.13 560.70,100.65 561.04,102.01 561.37,97.21 561.71,99.98 562.04,104.06 562.38,108.87 562.71,109.53 563.05,101.79 563.38,112.15 563.72,108.01 564.05,106.93 564.39,105.11 564.72,104.61 565.06,99.52 565.39,99.16 565.73,105.00 566.06,105.06 566.40,111.77 566.73,117.29 567.07,112.29 567.40,110.54 567.74,98.75 568.07,87.85 568.41,88.52 568.74,90.07 569.08,88.36 569.41,98.42 569.75,101.95 570.08,105.13 570.42,104.70 570.75,106.21 571.09,107.80 571.42,110.34 571.76,114.53 572.09,113.45 572.43,108.54 572.76,106.52 573.10,103.32 573.43,109.67 573.77,117.25 574.10,114.92 574.44,109.20 574.77,102.92 575.11,106.71 575.44,105.01 575.78,107.75 576.11,110.14 576.45,111.64 576.78,109.20 577.12,114.29 577.45,120.76 577.79,118.87 578.12,123.17 578.46,122.59 578.79,124.35 579.13,116.08 579.46,113.81 579.80,105.47 580.13,104.81 580.47,105.66 580.80,95.70 581.14,88.83 581.47,82.97 581.81,78.49 582.14,79.48 582.48,84.88 582.81,84.25 583.15,87.39 583.48,83.05 583.82,79.05 584.15,81.05 584.49,92.82 584.82,95.12 585.16,88.01 585.49,96.73 585.83,92.78 586.16,102.25 586.50,100.64 586.83,103.27 587.17,106.29 587.50,99.99 587.84,102.57 588.17,102.03 588.51,106.06 588.84,102.26 589.18,92.53 589.51,87.42 589.85,92.89 590.18,98.83 590.52,96.32 590.85,102.55 591.19,92.27 591.52,95.07 591.86,92.72 592.19,94.03 592.53,88.07 592.86,94.70 593.20,95.99 593.53,95.08 593.87,95.94 594.20,99.61 594.54,114.16 594.87,117.31 595.21,116.30 595.54,117.12 595.88,118.74 596.21,125.04 596.55,124.52 596.88,133.09 597.22,135.41 597.55,144.26 597.89,143.50 598.22,139.30 598.56,136.30 598.89,129.05 599.23,125.83 599.56,128.52 599.90,129.84 600.23,132.36 600.57,140.32 600.90,144.66 601.24,135.11 601.57,137.26 601.91,142.77 602.24,139.38 602.58,148.29 602.91,139.18 603.25,145.23 603.58,139.73 603.92,138.86 604.25,133.58 604.59,130.91 604.92,133.53 605.26,135.71 605.59,141.90 605.93,140.07 606.26,134.64 606.60,128.85 606.93,134.35 607.27,134.15 607.60,136.34 607.94,134.17 608.27,139.75 608.61,135.80 608.94,128.95 609.28,137.70 609.61,141.42 609.95,136.81 610.28,130.57 610.62,139.99 610.95,143.38 611.29,148.61 611.62,145.23 611.96,137.49 612.29,148.31 612.63,142.22 612.96,137.70 613.30,140.29 613.63,135.93 613.97,127.10 614.30,129.28 614.64,126.31 614.97,124.75 615.31,129.40 615.64,131.24 615.98,120.93 616.31,119.72 616.65,121.04 616.98,126.95 617.32,128.19 617.65,130.87 617.99,135.01 618.32,130.65 618.66,133.55 618.99,130.17 619.33,121.32 619.66,127.21 620.00,116.83 620.33,105.34 620.67,109.16 621.00,110.08 621.34,104.05 621.67,110.73 622.01,106.62 622.34,109.02 622.68,103.99 623.01,116.88 623.35,120.69 623.68,120.99 624.02,117.15 624.35,118.66 624.69,117.02 625.02,112.77 625.36,112.15 625.69,104.97 626.03,110.47 626.36,113.70 626.70,96.31 627.03,95.39 627.37,103.34 627.70,107.25 628.04,96.50 628.37,100.58 628.71,97.85 629.04,91.99 629.38,97.41 629.71,88.42 630.05,82.31 630.38,87.62 630.72,92.28 631.05,81.35 631.39,87.93 631.72,92.19 632.06,90.64 632.39,92.41 632.73,91.70 633.06,91.31 633.40,80.54 633.73,90.78 634.07,89.45 634.40,94.21 634.74,94.92 635.07,93.77 635.41,95.27 635.74,108.07 636.08,106.44 636.41,106.72 636.75,118.54 637.08,125.59 637.42,120.72 637.75,125.11 638.09,121.23 638.42,121.88 638.76,126.46 639.09,136.94 639.43,140.83 639.76,143.57 640.10,138.44 640.43,140.04 640.77,142.10 641.10,152.65 641.44,153.28 641.77,160.32 642.11,151.36 642.44,159.10 642.78,158.68 643.11,157.63 643.45,153.69 643.78,156.11 644.12,150.60 644.45,155.35 644.79,154.95 645.12,153.01 645.46,157.90 645.79,161.35 646.13,162.60 646.46,163.91 646.80,170.40 647.13,168.34 647.47,173.36 647.80,175.57 648.14,179.11 648.47,178.39 648.81,172.77 649.14,178.37 649.48,179.33 649.81,183.24 650.15,167.86 650.48,174.64 650.82,166.16 651.15,174.72 651.49,180.24 651.82,178.35 652.16,174.08 652.49,175.16 652.83,174.10 653.16,172.40 653.50,175.21 653.83,173.91 654.17,170.60 654.50,161.09 654.84,162.72 655.17,165.27 655.51,169.50 655.84,156.57 656.18,157.58 656.51,161.23 656.85,157.96 657.18,152.45 657.52,159.85 657.85,163.81 658.19,157.83 658.52,158.24 658.86,153.97 659.19,147.54 659.53,148.90 659.86,141.32 660.20,136.09 660.53,131.81 660.87,131.65 661.20,129.88 661.54,123.12 661.87,123.63 662.21,121.78 662.54,120.50 662.88,119.31 663.21,121.20 663.55,110.56 663.88,120.02 664.22,108.85 664.55,89.00 664.89,98.43 665.22,99.77 665.56,94.39 665.89,92.37 666.23,93.35 666.56,90.45 666.90,85.27 667.23,80.86 667.57,84.15 667.90,91.37 668.24,91.28 668.57,86.40 668.91,91.66 669.24,91.73 669.58,90.11 669.91,88.14 670.25,94.03 670.58,105.64 670.92,103.68 671.25,98.21 671.59,91.90 671.92,93.30 672.26,85.28 672.59,83.72 672.93,82.04 673.26,89.60 673.60,86.31 673.93,84.68 674.27,88.15 674.60,90.26 674.94,93.26 675.27,88.87 675.61,85.82 675.94,85.32 676.28,83.26 676.61,87.05 676.95,87.37 677.28,90.46 677.62,89.65 677.95,80.13 678.29,82.37 678.62,78.98 678.96,71.52 679.29,72.66 679.63,73.22 679.96,80.18 680.30,86.68 680.63,86.88 680.97,82.34 681.30,89.46 681.64,92.80 681.97,93.30 682.31,92.54 682.64,105.94 682.98,104.56 683.31,107.39 683.65,101.92 683.98,91.44 684.32,99.42 684.65,93.43 684.99,95.17 685.32,98.88 685.66,87.83 685.99,82.59 686.33,79.20 686.66,80.02 687.00,75.64 687.33,77.59 687.67,78.03 688.00,73.07 688.34,77.19 688.67,83.27 689.01,92.16 689.34,102.41 689.68,105.67 690.01,101.46 690.35,95.28 690.68,95.18 691.02,94.76 691.35,91.36 691.69,80.42 692.02,79.85 692.36,85.86 692.69,84.72 693.03,84.24 693.36,86.24 693.70,95.75 694.03,94.13 694.37,103.36 694.70,99.86 695.04,95.51 695.37,105.95 695.71,115.82 696.04,107.89 696.38,104.89 696.71,108.69 697.05,110.13 697.38,117.24 697.72,115.47 698.05,124.96 698.39,122.21 698.72,121.87 699.06,121.35 699.39,120.56 699.73,120.59 700.06,126.82 700.40,122.08 700.73,136.10 701.07,133.21 701.40,136.12 701.74,141.58 702.07,140.69 702.41,146.02 702.74,133.34 703.08,132.18 703.41,130.06 703.75,131.70 704.08,129.02 704.42,123.94 704.75,125.29 705.09,125.29 705.42,117.58 705.76,104.21 706.09,102.15 706.43,108.10 706.76,112.81 707.10,108.79 707.43,111.65 707.77,105.59 708.10,105.25 708.44,108.88 708.77,106.18 709.11,104.41 709.44,103.10 709.78,105.20 710.11,107.25 710.45,101.75 710.78,85.84 711.12,79.85 711.45,79.52 711.79,86.80 712.12,83.74 712.46,88.98 712.79,96.28 713.13,87.99 713.46,100.77 713.80,101.77 714.13,106.19 714.47,110.50 714.80,106.87 715.14,106.90 715.47,107.43 715.81,110.08 716.14,107.64 716.48,117.35 716.81,120.01 717.15,120.99 717.48,123.30 717.82,134.63 718.15,132.52 718.49,145.77 718.82,148.43 719.16,148.14 719.49,160.99 719.83,167.96 720.16,173.69 720.50,176.79 720.83,169.08 721.17,157.95 721.50,160.03 721.84,161.60 722.17,164.85 722.51,163.64 722.84,163.27 723.18,163.44 723.51,161.27 723.85,159.58 724.18,164.51 724.52,169.81 724.85,169.60 725.19,175.88 725.52,178.12 725.86,184.11 726.19,182.20 726.53,186.27 726.86,185.52 727.20,195.44 727.53,193.22 727.87,193.82 728.20,195.92 728.54,190.58 728.87,193.13 729.21,186.13 729.54,185.16 729.88,183.55 730.21,185.30 730.55,197.05 730.88,196.42 731.22,196.62 731.55,194.55 731.89,200.95 732.22,204.20 732.56,200.08 732.89,213.18 733.23,218.87 733.56,228.77 733.90,230.47 734.23,233.46 734.57,233.83 734.90,222.89 735.24,213.77 735.57,209.11 735.91,209.78 736.24,209.33 736.58,204.72 736.91,189.79 737.25,184.96 737.58,181.61 737.92,187.88 738.25,188.48 738.59,185.44 738.92,187.75 739.26,198.75 739.59,194.33 739.93,183.62 740.26,185.67 740.60,185.96 740.93,174.91 741.27,167.71 741.60,169.17 741.94,170.44 742.27,169.14 742.61,185.83 742.94,181.95 743.28,185.57 743.61,180.98 743.95,185.95 744.28,172.19 744.62,172.88 744.95,175.31 745.29,178.64 745.62,178.69 745.96,179.40 746.29,177.63 746.63,187.78 746.96,182.35 747.30,183.61 747.63,180.12 747.97,182.82 748.30,181.39 748.64,174.41 748.97,176.38 749.31,171.84 749.64,177.68 749.98,178.81 750.31,171.03 750.65,170.49 750.98,177.83 751.32,184.59 751.65,181.06 751.99,177.47 752.32,176.24 752.66,182.47 752.99,184.48 753.33,183.91 753.66,178.97 754.00,178.30 754.33,176.88 754.67,171.05 755.00,160.42"/>
<line x1="783" y1="58" x2="809" y2="58" stroke="#2563eb" stroke-width="3"/>
<text x="817" y="62" font-family="Arial" font-size="13" fill="#111827">Naive</text>
<polyline fill="none" stroke="#dc2626" stroke-width="2" points="85.00,435.35 85.34,435.33 85.67,435.32 86.01,435.30 86.34,435.29 86.68,435.28 87.01,435.26 87.35,435.25 87.68,435.23 88.02,435.21 88.35,435.20 88.69,435.19 89.02,435.17 89.36,435.17 89.69,435.15 90.03,435.11 90.36,435.10 90.70,435.08 91.03,435.05 91.37,435.03 91.70,435.03 92.04,435.01 92.37,435.00 92.71,435.00 93.04,435.00 93.38,434.99 93.71,434.97 94.05,434.99 94.38,434.97 94.72,434.96 95.05,434.95 95.39,434.94 95.72,434.89 96.06,434.89 96.39,434.87 96.73,434.84 97.06,434.87 97.40,434.88 97.73,434.87 98.07,434.86 98.40,434.87 98.74,434.86 99.07,434.84 99.41,434.83 99.74,434.81 100.08,434.83 100.41,434.77 100.75,434.79 101.08,434.77 101.42,434.76 101.75,434.71 102.09,434.69 102.42,434.71 102.76,434.71 103.09,434.69 103.43,434.65 103.76,434.68 104.10,434.65 104.43,434.68 104.77,434.70 105.10,434.70 105.44,434.70 105.77,434.70 106.11,434.68 106.44,434.68 106.78,434.66 107.11,434.62 107.45,434.65 107.78,434.67 108.12,434.68 108.45,434.67 108.79,434.68 109.12,434.66 109.46,434.65 109.79,434.63 110.13,434.62 110.46,434.59 110.80,434.59 111.13,434.57 111.47,434.56 111.80,434.54 112.14,434.53 112.47,434.50 112.81,434.50 113.14,434.48 113.48,434.47 113.81,434.47 114.15,434.46 114.48,434.44 114.82,434.43 115.15,434.42 115.49,434.41 115.82,434.38 116.16,434.37 116.49,434.37 116.83,434.37 117.16,434.35 117.50,434.36 117.83,434.36 118.17,434.35 118.50,434.35 118.84,434.33 119.17,434.32 119.51,434.32 119.84,434.38 120.18,434.35 120.51,434.35 120.85,434.31 121.18,434.32 121.52,434.32 121.85,434.27 122.19,434.24 122.52,434.19 122.86,434.20 123.19,434.19 123.53,434.18 123.86,434.16 124.20,434.16 124.53,434.20 124.87,434.21 125.20,434.19 125.54,434.19 125.87,434.16 126.21,434.22 126.54,434.18 126.88,434.19 127.21,434.18 127.55,434.14 127.88,434.14 128.22,434.14 128.55,434.10 128.89,434.07 129.22,434.05 129.56,434.04 129.89,434.05 130.23,434.14 130.56,434.07 130.90,434.06 131.23,433.97 131.57,434.00 131.90,434.00 132.24,434.03 132.57,434.04 132.91,434.07 133.24,433.99 133.58,433.97 133.91,434.00 134.25,434.01 134.58,433.95 134.92,433.89 135.25,433.86 135.59,433.91 135.92,433.86 136.26,433.79 136.59,433.80 136.93,433.76 137.26,433.64 137.60,433.57 137.93,433.51 138.27,433.44 138.60,433.51 138.94,433.52 139.27,433.51 139.61,433.39 139.94,433.36 140.28,433.39 140.61,433.29 140.95,433.36 141.28,433.34 141.62,433.38 141.95,433.36 142.29,433.32 142.62,433.20 142.96,433.15 143.29,433.07 143.63,433.02 143.96,433.05 144.30,433.04 144.63,433.00 144.97,433.13 145.30,433.13 145.64,433.11 145.97,433.26 146.31,433.25 146.64,433.22 146.98,433.15 147.31,433.30 147.65,433.22 147.98,433.13 148.32,433.01 148.65,432.96 148.99,432.85 149.32,432.69 149.66,432.75 149.99,432.76 150.33,432.83 150.66,432.82 151.00,432.90 151.33,432.76 151.67,432.70 152.00,432.74 152.34,432.76 152.67,432.86 153.01,432.88 153.34,433.06 153.68,432.88 154.01,432.83 154.35,432.79 154.68,432.88 155.02,432.93 155.35,432.79 155.69,432.85 156.02,432.55 156.36,432.59 156.69,432.52 157.03,432.51 157.36,432.65 157.70,432.60 158.03,432.54 158.37,432.45 158.70,432.48 159.04,432.60 159.37,432.55 159.71,432.58 160.04,432.46 160.38,432.45 160.71,432.24 161.05,432.16 161.38,432.31 161.72,432.35 162.05,432.24 162.39,432.30 162.72,432.28 163.06,432.15 163.39,432.04 163.73,431.94 164.06,432.01 164.40,432.29 164.73,432.25 165.07,432.36 165.40,432.39 165.74,432.53 166.07,432.38 166.41,432.47 166.74,432.44 167.08,432.15 167.41,431.97 167.75,432.09 168.08,431.98 168.42,431.87 168.75,432.03 169.09,432.19 169.42,432.35 169.76,432.29 170.09,432.13 170.43,431.96 170.76,431.86 171.10,431.97 171.43,431.98 171.77,431.98 172.10,432.01 172.44,432.03 172.77,432.10 173.11,432.04 173.44,431.91 173.78,431.84 174.11,431.76 174.45,431.80 174.78,431.79 175.12,431.49 175.45,431.73 175.79,431.69 176.12,431.64 176.46,431.61 176.79,431.68 177.13,431.84 177.46,431.65 177.80,431.82 178.13,431.72 178.47,431.55 178.80,431.46 179.14,431.30 179.47,431.13 179.81,430.90 180.14,430.78 180.48,430.90 180.81,431.16 181.15,431.06 181.48,430.92 181.82,430.94 182.15,431.00 182.49,430.97 182.82,431.28 183.16,431.15 183.49,430.99 183.83,431.02 184.16,430.86 184.50,430.62 184.83,430.51 185.17,430.41 185.50,430.27 185.84,430.48 186.17,430.62 186.51,430.80 186.84,430.86 187.18,430.67 187.51,430.88 187.85,430.46 188.18,430.49 188.52,430.17 188.85,429.56 189.19,429.77 189.52,429.88 189.86,429.60 190.19,429.14 190.53,428.46 190.86,428.41 191.20,428.80 191.53,428.64 191.87,429.15 192.20,429.80 192.54,429.33 192.87,429.67 193.21,429.01 193.54,429.62 193.88,429.39 194.21,429.23 194.55,429.33 194.88,429.13 195.22,428.28 195.55,427.45 195.89,426.81 196.22,426.02 196.56,425.74 196.89,426.18 197.23,426.61 197.56,426.08 197.90,425.94 198.23,426.57 198.57,426.16 198.90,426.69 199.24,427.35 199.57,427.67 199.91,427.05 200.24,426.82 200.58,426.39 200.91,426.85 201.25,426.95 201.58,426.54 201.92,426.47 202.25,426.49 202.59,426.76 202.92,427.03 203.26,427.58 203.59,428.02 203.93,428.36 204.26,427.31 204.60,426.60 204.93,426.44 205.27,426.73 205.60,426.58 205.94,427.20 206.27,428.48 206.61,428.58 206.94,429.42 207.28,429.35 207.61,429.82 207.95,430.51 208.28,429.84 208.62,429.54 208.95,430.42 209.29,431.05 209.62,432.25 209.96,432.50 210.29,432.80 210.63,432.89 210.96,433.17 211.30,432.49 211.63,432.70 211.97,433.51 212.30,433.45 212.64,433.04 212.97,433.18 213.31,433.51 213.64,433.08 213.98,433.61 214.31,433.18 214.65,434.22 214.98,433.93 215.32,433.50 215.65,433.76 215.99,434.06 216.32,433.44 216.66,434.30 216.99,433.89 217.33,433.82 217.66,433.39 218.00,432.85 218.33,433.26 218.67,432.64 219.00,432.78 219.34,433.13 219.67,433.16 220.01,432.99 220.34,432.42 220.68,432.94 221.01,432.67 221.35,432.75 221.68,432.50 222.02,432.95 222.35,432.28 222.69,432.07 223.02,432.71 223.36,432.97 223.69,433.09 224.03,432.94 224.36,432.55 224.70,432.39 225.03,431.89 225.37,431.78 225.70,430.52 226.04,430.95 226.37,430.92 226.71,431.08 227.04,429.80 227.38,429.48 227.71,428.85 228.05,428.70 228.38,428.55 228.72,428.65 229.05,429.68 229.39,429.53 229.72,428.98 230.06,429.10 230.39,430.15 230.73,429.56 231.06,429.01 231.40,429.51 231.73,430.05 232.07,429.60 232.40,429.15 232.74,429.76 233.07,430.31 233.41,429.80 233.74,429.33 234.08,429.83 234.41,428.51 234.75,428.15 235.08,428.57 235.42,427.75 235.75,428.21 236.09,429.05 236.42,428.78 236.76,427.98 237.09,427.39 237.43,427.35 237.76,428.15 238.10,428.33 238.43,427.59 238.77,427.52 239.10,427.89 239.44,427.83 239.77,427.48 240.11,428.01 240.44,428.03 240.78,427.72 241.11,428.33 241.45,427.63 241.78,427.02 242.12,427.71 242.45,427.80 242.79,427.31 243.12,427.79 243.46,428.54 243.79,428.63 244.13,427.65 244.46,427.39 244.80,428.00 245.13,427.77 245.47,428.30 245.80,428.59 246.14,429.12 246.47,430.03 246.81,430.32 247.14,429.81 247.48,429.37 247.81,430.11 248.15,430.16 248.48,430.18 248.82,430.36 249.15,430.56 249.49,429.93 249.82,428.24 250.16,428.48 250.49,427.82 250.83,428.65 251.16,427.84 251.50,427.00 251.83,426.95 252.17,426.33 252.50,425.97 252.84,426.18 253.17,426.32 253.51,425.99 253.84,426.89 254.18,426.49 254.51,425.13 254.85,424.28 255.18,424.54 255.52,424.52 255.85,423.31 256.19,422.46 256.52,421.96 256.86,421.98 257.19,421.79 257.53,422.66 257.86,423.11 258.20,422.19 258.53,422.32 258.87,421.38 259.20,420.65 259.54,420.58 259.87,420.16 260.21,420.21 260.54,421.33 260.88,421.57 261.21,421.54 261.55,422.00 261.88,421.81 262.22,421.09 262.55,419.69 262.89,419.36 263.22,419.27 263.56,418.64 263.89,417.18 264.23,417.33 264.56,417.34 264.90,418.55 265.23,417.26 265.57,417.11 265.90,416.79 266.24,417.39 266.57,419.63 266.91,418.89 267.24,420.68 267.58,419.94 267.91,418.70 268.25,417.28 268.58,418.26 268.92,419.84 269.25,419.16 269.59,419.79 269.92,419.82 270.26,422.02 270.59,422.06 270.93,420.74 271.26,419.44 271.60,419.21 271.93,419.83 272.27,418.87 272.60,418.55 272.94,417.63 273.27,417.61 273.61,417.99 273.94,419.93 274.28,422.29 274.61,423.11 274.95,422.02 275.28,421.93 275.62,420.96 275.95,421.53 276.29,420.30 276.62,420.62 276.96,420.95 277.29,421.27 277.63,420.86 277.96,420.05 278.30,420.49 278.63,421.77 278.97,421.13 279.30,424.18 279.64,423.94 279.97,424.18 280.31,424.54 280.64,423.96 280.98,424.07 281.31,423.50 281.65,421.45 281.98,422.15 282.32,423.49 282.65,423.57 282.99,423.77 283.32,423.64 283.66,422.66 283.99,422.66 284.33,424.55 284.66,424.48 285.00,425.39 285.33,427.47 285.67,426.79 286.00,425.47 286.34,426.08 286.67,425.25 287.01,425.80 287.34,426.88 287.68,427.85 288.01,429.57 288.35,430.53 288.68,431.36 289.02,429.83 289.35,428.56 289.69,429.41 290.02,429.06 290.36,428.15 290.69,428.13 291.03,429.08 291.36,430.56 291.70,431.64 292.03,432.31 292.37,431.19 292.70,429.85 293.04,428.99 293.37,427.90 293.71,428.74 294.04,430.18 294.38,429.32 294.71,429.06 295.05,426.43 295.38,427.32 295.72,427.61 296.05,426.96 296.39,427.79 296.72,429.44 297.06,430.90 297.39,429.57 297.73,429.40 298.06,430.30 298.40,431.66 298.73,430.72 299.07,429.56 299.40,429.61 299.74,428.68 300.07,425.79 300.41,427.85 300.74,428.50 301.08,428.59 301.41,429.24 301.75,428.27 302.08,428.60 302.42,427.89 302.75,429.01 303.09,428.57 303.42,428.16 303.76,427.75 304.09,426.41 304.43,427.48 304.76,427.58 305.10,429.10 305.43,429.55 305.77,431.68 306.10,431.94 306.44,432.35 306.77,431.85 307.11,432.80 307.44,434.01 307.78,435.44 308.11,435.02 308.45,435.67 308.78,434.57 309.12,432.81 309.45,431.27 309.79,431.54 310.12,432.70 310.46,434.03 310.79,436.05 311.13,435.68 311.46,435.34 311.80,435.54 312.13,435.69 312.47,435.30 312.80,435.66 313.14,433.41 313.47,433.58 313.81,434.15 314.14,435.05 314.48,435.37 314.81,435.12 315.15,435.39 315.48,435.47 315.82,434.86 316.15,434.10 316.49,434.44 316.82,433.55 317.16,434.41 317.49,435.36 317.83,435.79 318.16,436.31 318.50,436.26 318.83,436.95 319.17,434.93 319.50,435.43 319.84,434.20 320.17,433.68 320.51,433.09 320.84,432.89 321.18,431.42 321.51,430.59 321.85,430.47 322.18,430.86 322.52,430.85 322.85,430.62 323.19,428.96 323.52,428.65 323.86,428.05 324.19,428.13 324.53,426.94 324.86,426.97 325.20,426.63 325.53,425.62 325.87,423.95 326.20,424.24 326.54,423.42 326.87,423.48 327.21,424.11 327.54,424.41 327.88,424.55 328.21,425.31 328.55,425.59 328.88,425.29 329.22,425.57 329.55,426.36 329.89,426.51 330.22,427.71 330.56,426.05 330.89,426.39 331.23,425.70 331.56,427.00 331.90,425.72 332.23,425.57 332.57,425.02 332.90,424.70 333.24,424.37 333.57,425.38 333.91,425.36 334.24,426.09 334.58,425.58 334.91,425.41 335.25,424.33 335.58,423.36 335.92,422.41 336.25,421.71 336.59,420.49 336.92,421.00 337.26,420.47 337.59,418.30 337.93,417.88 338.26,416.93 338.60,417.82 338.93,415.73 339.27,415.97 339.60,417.56 339.94,416.73 340.27,415.93 340.61,415.14 340.94,415.69 341.28,415.44 341.61,415.03 341.95,413.88 342.28,413.93 342.62,412.74 342.95,411.51 343.29,412.87 343.62,413.92 343.96,413.23 344.29,410.97 344.63,409.75 344.96,407.84 345.30,409.24 345.63,409.00 345.97,410.74 346.30,410.54 346.64,410.57 346.97,412.30 347.31,411.32 347.64,411.90 347.98,413.11 348.31,412.18 348.65,414.29 348.98,413.37 349.32,413.02 349.65,413.63 349.99,411.36 350.32,412.03 350.66,412.39 350.99,414.10 351.33,415.26 351.66,414.93 352.00,415.18 352.33,415.67 352.67,413.68 353.00,413.41 353.34,410.18 353.67,411.13 354.01,409.14 354.34,409.06 354.68,409.46 355.01,409.17 355.35,409.51 355.68,410.92 356.02,414.04 356.35,414.98 356.69,415.97 357.02,416.16 357.36,416.96 357.69,416.75 358.03,414.72 358.36,412.83 358.70,411.36 359.03,409.90 359.37,407.89 359.70,406.68 360.04,407.98 360.37,406.65 360.71,404.90 361.04,405.94 361.38,404.63 361.71,403.76 362.05,401.74 362.38,401.69 362.72,403.77 363.05,403.25 363.39,402.50 363.72,400.88 364.06,400.60 364.39,399.92 364.73,401.03 365.06,400.00 365.40,398.95 365.73,398.58 366.07,396.78 366.40,399.36 366.74,400.73 367.07,400.11 367.41,399.01 367.74,397.37 368.08,395.44 368.41,392.54 368.75,391.74 369.08,393.41 369.42,391.25 369.75,392.54 370.09,391.72 370.42,392.38 370.76,391.10 371.09,390.17 371.43,386.59 371.76,386.93 372.10,386.66 372.43,385.85 372.77,383.65 373.10,382.48 373.44,383.83 373.77,384.70 374.11,383.53 374.44,384.19 374.78,384.90 375.11,383.90 375.45,384.31 375.78,386.45 376.12,386.16 376.45,386.61 376.79,387.22 377.12,387.92 377.46,390.47 377.79,388.43 378.13,387.71 378.46,387.41 378.80,388.91 379.13,387.51 379.47,384.83 379.80,381.88 380.14,380.77 380.47,380.93 380.81,382.56 381.14,382.93 381.48,383.98 381.81,386.28 382.15,381.72 382.48,381.44 382.82,378.26 383.15,382.26 383.49,381.48 383.82,380.24 384.16,380.50 384.49,381.62 384.83,383.29 385.16,385.66 385.50,385.61 385.83,384.66 386.17,385.49 386.50,386.41 386.84,386.02 387.17,384.82 387.51,382.86 387.84,382.84 388.18,381.78 388.51,378.91 388.85,376.62 389.18,377.89 389.52,375.14 389.85,372.98 390.19,373.18 390.52,373.37 390.86,371.29 391.19,367.66 391.53,368.57 391.86,366.76 392.20,364.75 392.53,365.36 392.87,366.44 393.20,364.03 393.54,364.41 393.87,362.71 394.21,365.45 394.54,368.37 394.88,366.87 395.21,365.36 395.55,362.12 395.88,362.03 396.22,362.93 396.55,368.03 396.89,367.47 397.22,363.81 397.56,365.76 397.89,367.75 398.23,366.90 398.56,367.87 398.90,368.84 399.23,369.89 399.57,368.88 399.90,368.73 400.24,367.07 400.57,368.99 400.91,365.87 401.24,366.33 401.58,366.74 401.91,363.07 402.25,357.03 402.58,354.56 402.92,354.94 403.25,352.68 403.59,350.78 403.92,352.51 404.26,355.99 404.59,354.53 404.93,351.80 405.26,352.18 405.60,349.57 405.93,346.68 406.27,343.38 406.60,344.39 406.94,343.06 407.27,342.70 407.61,338.10 407.94,336.79 408.28,338.05 408.61,336.95 408.95,334.22 409.28,332.52 409.62,333.29 409.95,332.55 410.29,332.76 410.62,330.93 410.96,329.82 411.29,332.19 411.63,330.49 411.96,327.72 412.30,328.67 412.63,328.16 412.97,324.75 413.30,322.80 413.64,324.39 413.97,325.11 414.31,327.34 414.64,329.52 414.98,323.22 415.31,325.56 415.65,326.99 415.98,329.96 416.32,335.18 416.65,332.64 416.99,334.89 417.32,335.25 417.66,334.23 417.99,336.68 418.33,341.10 418.66,339.66 419.00,340.39 419.33,340.69 419.67,341.78 420.00,345.14 420.34,344.54 420.67,344.63 421.01,346.50 421.34,348.57 421.68,348.74 422.01,346.00 422.35,348.09 422.68,345.74 423.02,342.45 423.35,340.27 423.69,342.08 424.02,342.85 424.36,345.15 424.69,342.64 425.03,341.95 425.36,340.31 425.70,339.97 426.03,339.14 426.37,341.75 426.70,344.38 427.04,343.42 427.37,344.24 427.71,338.35 428.04,339.34 428.38,337.20 428.71,337.72 429.05,335.91 429.38,334.70 429.72,331.59 430.05,333.95 430.39,333.00 430.72,329.07 431.06,332.93 431.39,335.85 431.73,329.69 432.06,326.19 432.40,322.94 432.73,319.67 433.07,316.74 433.40,320.58 433.74,320.81 434.07,324.68 434.41,326.83 434.74,323.16 435.08,325.71 435.41,325.67 435.75,328.89 436.08,322.96 436.42,321.18 436.75,324.04 437.09,325.05 437.42,325.67 437.76,321.50 438.09,319.83 438.43,319.83 438.76,322.55 439.10,324.98 439.43,326.30 439.77,328.47 440.10,328.34 440.44,329.03 440.77,326.76 441.11,324.93 441.44,324.15 441.78,326.24 442.11,328.18 442.45,330.57 442.78,336.80 443.12,337.64 443.45,340.96 443.79,343.81 444.12,338.99 444.46,345.60 444.79,349.51 445.13,348.70 445.46,347.97 445.80,350.18 446.13,350.40 446.47,353.27 446.80,348.07 447.14,352.04 447.47,354.05 447.81,356.19 448.14,351.85 448.48,348.78 448.81,345.19 449.15,345.23 449.48,341.17 449.82,342.39 450.15,340.49 450.49,342.16 450.82,338.97 451.16,338.81 451.49,340.83 451.83,341.51 452.16,342.92 452.50,344.93 452.83,344.56 453.17,345.46 453.50,342.17 453.84,345.08 454.17,345.79 454.51,348.13 454.84,349.07 455.18,349.21 455.51,347.83 455.85,344.81 456.18,338.59 456.52,336.70 456.85,341.07 457.19,338.72 457.52,339.49 457.86,339.71 458.19,345.35 458.53,344.53 458.86,350.23 459.20,352.77 459.53,348.84 459.87,346.34 460.20,346.23 460.54,348.20 460.87,347.55 461.21,348.03 461.54,347.97 461.88,350.66 462.21,348.52 462.55,345.32 462.88,339.44 463.22,342.85 463.55,339.94 463.89,337.01 464.22,337.04 464.56,336.53 464.89,335.91 465.23,332.13 465.56,325.75 465.90,324.77 466.23,324.40 466.57,327.06 466.90,324.63 467.24,324.37 467.57,324.55 467.91,326.40 468.24,327.26 468.58,328.91 468.91,326.92 469.25,326.58 469.58,321.27 469.92,320.67 470.25,319.36 470.59,317.76 470.92,319.61 471.26,321.97 471.59,318.34 471.93,320.39 472.26,316.45 472.60,314.46 472.93,315.08 473.27,318.58 473.60,316.80 473.94,316.60 474.27,315.38 474.61,313.07 474.94,314.16 475.28,309.72 475.61,311.27 475.95,312.85 476.28,311.14 476.62,312.09 476.95,310.81 477.29,308.95 477.62,307.22 477.96,309.36 478.29,313.15 478.63,315.59 478.96,311.99 479.30,309.15 479.63,307.08 479.97,304.92 480.30,303.63 480.64,299.31 480.97,298.71 481.31,297.27 481.64,295.05 481.98,297.58 482.31,299.34 482.65,299.79 482.98,303.13 483.32,303.08 483.65,308.64 483.99,307.17 484.32,313.83 484.66,310.00 484.99,311.93 485.33,307.98 485.66,313.83 486.00,313.03 486.33,307.57 486.67,305.85 487.00,306.78 487.34,308.39 487.67,304.62 488.01,305.02 488.34,304.84 488.68,306.47 489.01,304.96 489.35,300.66 489.68,300.97 490.02,300.27 490.35,299.46 490.69,306.97 491.02,311.91 491.36,310.16 491.69,307.14 492.03,308.42 492.36,309.90 492.70,309.98 493.03,310.32 493.37,304.56 493.70,299.37 494.04,303.43 494.37,300.16 494.71,303.12 495.04,304.29 495.38,296.99 495.71,294.48 496.05,295.35 496.38,290.04 496.72,289.26 497.05,290.94 497.39,286.52 497.72,289.93 498.06,290.10 498.39,286.98 498.73,281.54 499.06,279.16 499.40,275.98 499.73,280.26 500.07,281.82 500.40,282.79 500.74,281.44 501.07,281.10 501.41,282.34 501.74,282.86 502.08,284.52 502.41,282.20 502.75,281.70 503.08,280.10 503.42,280.48 503.75,282.38 504.09,280.55 504.42,281.24 504.76,283.81 505.09,289.88 505.43,284.55 505.76,282.14 506.10,281.63 506.43,273.57 506.77,274.34 507.10,268.49 507.44,274.35 507.77,274.56 508.11,272.83 508.44,271.57 508.78,266.28 509.11,267.76 509.45,265.90 509.78,261.88 510.12,263.01 510.45,260.80 510.79,254.21 511.12,254.22 511.46,251.57 511.79,252.50 512.13,256.44 512.46,258.58 512.80,257.08 513.13,250.87 513.47,249.59 513.80,246.02 514.14,247.02 514.47,247.24 514.81,247.41 515.14,253.95 515.48,251.59 515.81,256.58 516.15,258.48 516.48,257.15 516.82,257.99 517.15,258.10 517.49,252.58 517.82,255.43 518.16,250.78 518.49,252.02 518.83,251.79 519.16,250.69 519.50,249.46 519.83,252.26 520.17,256.73 520.50,251.79 520.84,254.29 521.17,250.49 521.51,250.14 521.84,243.65 522.18,248.62 522.51,251.95 522.85,249.62 523.18,242.43 523.52,239.78 523.85,240.16 524.19,238.52 524.52,229.81 524.86,230.29 525.19,229.78 525.53,234.78 525.86,226.51 526.20,221.30 526.53,217.95 526.87,221.56 527.20,222.09 527.54,217.68 527.87,223.77 528.21,226.12 528.54,228.57 528.88,224.05 529.21,221.85 529.55,217.55 529.88,224.40 530.22,219.75 530.55,226.39 530.89,227.78 531.22,223.38 531.56,229.55 531.89,231.31 532.23,234.13 532.56,233.86 532.90,229.65 533.23,229.87 533.57,228.73 533.90,227.03 534.24,225.62 534.57,226.80 534.91,228.97 535.24,231.10 535.58,232.73 535.91,225.78 536.25,230.72 536.58,233.49 536.92,234.61 537.25,242.99 537.59,243.04 537.92,241.42 538.26,247.81 538.59,241.22 538.93,240.64 539.26,241.56 539.60,237.80 539.93,233.29 540.27,231.97 540.60,229.71 540.94,229.69 541.27,227.61 541.61,222.78 541.94,223.26 542.28,220.56 542.61,222.19 542.95,219.70 543.28,224.64 543.62,222.55 543.95,214.63 544.29,206.12 544.62,207.79 544.96,206.71 545.29,202.62 545.63,204.67 545.96,196.49 546.30,198.33 546.63,194.79 546.97,194.00 547.30,190.27 547.64,185.78 547.97,177.79 548.31,175.68 548.64,176.56 548.98,171.98 549.31,169.53 549.65,166.70 549.98,170.09 550.32,173.17 550.65,170.40 550.99,169.57 551.32,168.83 551.66,171.21 551.99,168.11 552.33,164.78 552.66,158.57 553.00,155.60 553.33,148.17 553.67,147.03 554.00,154.45 554.34,152.44 554.67,144.30 555.01,145.35 555.34,141.11 555.68,139.47 556.01,136.67 556.35,137.43 556.68,135.25 557.02,133.77 557.35,125.55 557.69,133.77 558.02,127.21 558.36,133.01 558.69,126.10 559.03,126.81 559.36,124.50 559.70,126.29 560.03,131.83 560.37,130.62 560.70,130.16 561.04,131.42 561.37,126.95 561.71,129.53 562.04,133.32 562.38,137.79 562.71,138.39 563.05,131.18 563.38,140.84 563.72,136.97 564.05,135.96 564.39,134.26 564.72,133.79 565.06,129.04 565.39,128.70 565.73,134.15 566.06,134.20 566.40,140.44 566.73,145.57 567.07,140.91 567.40,139.27 567.74,128.28 568.07,118.12 568.41,118.73 568.74,120.18 569.08,118.58 569.41,127.94 569.75,131.22 570.08,134.19 570.42,133.78 570.75,135.18 571.09,136.66 571.42,139.02 571.76,142.93 572.09,141.92 572.43,137.33 572.76,135.45 573.10,132.46 573.43,138.38 573.77,145.44 574.10,143.26 574.44,137.92 574.77,132.05 575.11,135.59 575.44,134.00 575.78,136.56 576.11,138.79 576.45,140.18 576.78,137.89 577.12,142.65 577.45,148.69 577.79,146.92 578.12,150.93 578.46,150.40 578.79,152.03 579.13,144.31 579.46,142.18 579.80,134.39 580.13,133.76 580.47,134.55 580.80,125.24 581.14,118.81 581.47,113.33 581.81,109.13 582.14,110.06 582.48,115.10 582.81,114.51 583.15,117.44 583.48,113.37 583.82,109.63 584.15,111.49 584.49,122.51 584.82,124.66 585.16,118.00 585.49,126.16 585.83,122.46 586.16,131.32 586.50,129.81 586.83,132.27 587.17,135.10 587.50,129.20 587.84,131.61 588.17,131.11 588.51,134.88 588.84,131.32 589.18,122.21 589.51,117.41 589.85,122.53 590.18,128.09 590.52,125.74 590.85,131.58 591.19,121.94 591.52,124.56 591.86,122.36 592.19,123.58 592.53,117.99 592.86,124.21 593.20,125.42 593.53,124.56 593.87,125.37 594.20,128.81 594.54,142.45 594.87,145.39 595.21,144.45 595.54,145.21 595.88,146.74 596.21,152.64 596.55,152.16 596.88,160.18 597.22,162.36 597.55,170.65 597.89,169.96 598.22,166.05 598.56,163.25 598.89,156.48 599.23,153.48 599.56,155.99 599.90,157.23 600.23,159.57 600.57,167.00 600.90,171.06 601.24,162.15 601.57,164.15 601.91,169.30 602.24,166.14 602.58,174.45 602.91,165.96 603.25,171.60 603.58,166.48 603.92,165.67 604.25,160.75 604.59,158.26 604.92,160.70 605.26,162.74 605.59,168.51 605.93,166.80 606.26,161.73 606.60,156.34 606.93,161.47 607.27,161.28 607.60,163.32 607.94,161.30 608.27,166.51 608.61,162.82 608.94,156.45 609.28,164.60 609.61,168.07 609.95,163.78 610.28,157.97 610.62,166.74 610.95,169.90 611.29,174.77 611.62,171.62 611.96,164.42 612.29,174.50 612.63,168.82 612.96,164.62 613.30,167.03 613.63,162.96 613.97,154.74 614.30,156.77 614.64,154.01 614.97,152.56 615.31,156.89 615.64,158.61 615.98,149.01 616.31,147.88 616.65,149.11 616.98,154.61 617.32,155.77 617.65,158.27 617.99,162.12 618.32,158.07 618.66,160.76 618.99,157.62 619.33,149.38 619.66,154.86 620.00,145.20 620.33,134.51 620.67,138.07 621.00,138.92 621.34,133.31 621.67,139.52 622.01,135.70 622.34,137.93 622.68,133.25 623.01,145.25 623.35,148.79 623.68,149.08 624.02,145.50 624.35,146.90 624.69,145.38 625.02,141.43 625.36,140.85 625.69,134.18 626.03,139.29 626.36,142.30 626.70,126.12 627.03,125.25 627.37,132.63 627.70,136.26 628.04,126.29 628.37,130.08 628.71,127.55 629.04,122.10 629.38,127.13 629.71,118.79 630.05,113.13 630.38,118.04 630.72,122.35 631.05,112.24 631.39,118.32 631.72,122.25 632.06,120.82 632.39,122.44 632.73,121.78 633.06,121.42 633.40,111.49 633.73,120.91 634.07,119.69 634.40,124.06 634.74,124.72 635.07,123.66 635.41,125.04 635.74,136.80 636.08,135.30 636.41,135.56 636.75,146.42 637.08,152.91 637.42,148.42 637.75,152.46 638.09,148.90 638.42,149.50 638.76,153.71 639.09,163.33 639.43,166.92 639.76,169.44 640.10,164.73 640.43,166.21 640.77,168.09 641.10,177.77 641.44,178.35 641.77,184.80 642.11,176.60 642.44,183.69 642.78,183.32 643.11,182.36 643.45,178.76 643.78,180.98 644.12,175.95 644.45,180.30 644.79,179.93 645.12,178.17 645.46,182.64 645.79,185.80 646.13,186.95 646.46,188.14 646.80,194.07 647.13,192.18 647.47,196.77 647.80,198.78 648.14,202.01 648.47,201.35 648.81,196.23 649.14,201.33 649.48,202.20 649.81,205.77 650.15,191.76 650.48,197.93 650.82,190.22 651.15,198.02 651.49,203.05 651.82,201.32 652.16,197.44 652.49,198.43 652.83,197.46 653.16,195.92 653.50,198.49 653.83,197.31 654.17,194.30 654.50,185.66 654.84,187.15 655.17,189.47 655.51,193.31 655.84,181.58 656.18,182.49 656.51,185.81 656.85,182.84 657.18,177.84 657.52,184.55 657.85,188.15 658.19,182.72 658.52,183.10 658.86,179.22 659.19,173.38 659.53,174.61 659.86,167.74 660.20,162.99 660.53,159.10 660.87,158.95 661.20,157.34 661.54,151.21 661.87,151.66 662.21,149.98 662.54,148.82 662.88,147.73 663.21,149.44 663.55,139.82 663.88,148.37 664.22,138.27 664.55,120.36 664.89,128.86 665.22,130.08 665.56,125.22 665.89,123.39 666.23,124.28 666.56,121.66 666.90,116.98 667.23,112.99 667.57,115.96 667.90,122.48 668.24,122.39 668.57,117.98 668.91,122.74 669.24,122.79 669.58,121.33 669.91,119.55 670.25,124.87 670.58,135.36 670.92,133.59 671.25,128.64 671.59,122.94 671.92,124.19 672.26,116.95 672.59,115.53 672.93,114.01 673.26,120.84 673.60,117.87 673.93,116.39 674.27,119.52 674.60,121.43 674.94,124.14 675.27,120.17 675.61,117.40 675.94,116.95 676.28,115.08 676.61,118.51 676.95,118.80 677.28,121.59 677.62,120.86 677.95,112.25 678.29,114.27 678.62,111.21 678.96,104.45 679.29,105.48 679.63,105.99 679.96,112.28 680.30,118.16 680.63,118.33 680.97,114.23 681.30,120.66 681.64,123.67 681.97,124.12 682.31,123.44 682.64,135.54 682.98,134.30 683.31,136.85 683.65,131.91 683.98,122.44 684.32,129.65 684.65,124.24 684.99,125.81 685.32,129.16 685.66,119.18 685.99,114.45 686.33,111.38 686.66,112.12 687.00,108.16 687.33,109.92 687.67,110.32 688.00,105.84 688.34,109.55 688.67,115.04 689.01,123.06 689.34,132.31 689.68,135.26 690.01,131.46 690.35,125.88 690.68,125.79 691.02,125.41 691.35,122.34 691.69,112.46 692.02,111.95 692.36,117.36 692.69,116.34 693.03,115.90 693.36,117.70 693.70,126.28 694.03,124.82 694.37,133.15 694.70,129.99 695.04,126.07 695.37,135.48 695.71,144.39 696.04,137.23 696.38,134.53 696.71,137.95 697.05,139.26 697.38,145.67 697.72,144.07 698.05,152.63 698.39,150.15 698.72,149.85 699.06,149.38 699.39,148.66 699.73,148.69 700.06,154.31 700.40,150.04 700.73,162.69 701.07,160.08 701.40,162.71 701.74,167.64 702.07,166.84 702.41,171.64 702.74,160.21 703.08,159.17 703.41,157.26 703.75,158.74 704.08,156.32 704.42,151.74 704.75,152.96 705.09,152.96 705.42,146.01 705.76,133.97 706.09,132.11 706.43,137.47 706.76,141.72 707.10,138.10 707.43,140.67 707.77,135.21 708.10,134.90 708.44,138.18 708.77,135.75 709.11,134.15 709.44,132.97 709.78,134.87 710.11,136.71 710.45,131.75 710.78,117.42 711.12,112.02 711.45,111.73 711.79,118.28 712.12,115.53 712.46,120.25 712.79,126.82 713.13,119.35 713.46,130.87 713.80,131.76 714.13,135.75 714.47,139.63 714.80,136.36 715.14,136.38 715.47,136.87 715.81,139.25 716.14,137.05 716.48,145.80 716.81,148.20 717.15,149.08 717.48,151.16 717.82,161.36 718.15,159.46 718.49,171.40 718.82,173.79 719.16,173.53 719.49,185.10 719.83,191.38 720.16,196.52 720.50,199.31 720.83,192.37 721.17,182.36 721.50,184.23 721.84,185.64 722.17,188.57 722.51,187.47 722.84,187.14 723.18,187.29 723.51,185.34 723.85,183.82 724.18,188.25 724.52,193.01 724.85,192.82 725.19,198.46 725.52,200.47 725.86,205.84 726.19,204.13 726.53,207.78 726.86,207.10 727.20,216.00 727.53,214.01 727.87,214.54 728.20,216.42 728.54,211.63 728.87,213.91 729.21,207.63 729.54,206.76 729.88,205.31 730.21,206.88 730.55,217.41 730.88,216.84 731.22,217.01 731.55,215.15 731.89,220.89 732.22,223.79 732.56,220.09 732.89,231.82 733.23,236.91 733.56,245.77 733.90,247.28 734.23,249.96 734.57,250.28 734.90,240.49 735.24,232.32 735.57,228.14 735.91,228.74 736.24,228.33 736.58,224.20 736.91,210.85 737.25,206.53 737.58,203.53 737.92,209.14 738.25,209.67 738.59,206.95 738.92,209.01 739.26,218.84 739.59,214.89 739.93,205.32 740.26,207.15 740.60,207.41 740.93,197.54 741.27,191.11 741.60,192.42 741.94,193.55 742.27,192.39 742.61,207.29 742.94,203.82 743.28,207.05 743.61,202.96 743.95,207.39 744.28,195.11 744.62,195.73 744.95,197.90 745.29,200.87 745.62,200.92 745.96,201.55 746.29,199.97 746.63,209.01 746.96,204.18 747.30,205.30 747.63,202.19 747.97,204.59 748.30,203.32 748.64,197.10 748.97,198.86 749.31,194.80 749.64,200.01 749.98,201.02 750.31,194.09 750.65,193.61 750.98,200.15 751.32,206.17 751.65,203.03 751.99,199.83 752.32,198.73 752.66,204.28 752.99,206.07 753.33,205.56 753.66,201.16 754.00,200.57 754.33,199.30 754.67,194.12 755.00,184.66"/>
<line x1="783" y1="82" x2="809" y2="82" stroke="#dc2626" stroke-width="3"/>
<text x="817" y="86" font-family="Arial" font-size="13" fill="#111827">Avellaneda Stoikov</text>
<polyline fill="none" stroke="#7c3aed" stroke-width="2" points="85.00,435.35 85.34,435.34 85.67,435.33 86.01,435.33 86.34,435.32 86.68,435.32 87.01,435.31 87.35,435.30 87.68,435.30 88.02,435.29 88.35,435.28 88.69,435.27 89.02,435.27 89.36,435.27 89.69,435.26 90.03,435.23 90.36,435.23 90.70,435.21 91.03,435.19 91.37,435.18 91.70,435.19 92.04,435.17 92.37,435.17 92.71,435.18 93.04,435.19 93.38,435.19 93.71,435.17 94.05,435.20 94.38,435.19 94.72,435.18 95.05,435.19 95.39,435.18 95.72,435.13 96.06,435.15 96.39,435.13 96.73,435.11 97.06,435.15 97.40,435.17 97.73,435.16 98.07,435.16 98.40,435.17 98.74,435.17 99.07,435.16 99.41,435.16 99.74,435.14 100.08,435.17 100.41,435.12 100.75,435.15 101.08,435.14 101.42,435.13 101.75,435.09 102.09,435.08 102.42,435.11 102.76,435.11 103.09,435.10 103.43,435.07 103.76,435.11 104.10,435.09 104.43,435.12 104.77,435.15 105.10,435.16 105.44,435.16 105.77,435.17 106.11,435.15 106.44,435.17 106.78,435.15 107.11,435.12 107.45,435.16 107.78,435.18 108.12,435.19 108.45,435.20 108.79,435.21 109.12,435.18 109.46,435.18 109.79,435.15 110.13,435.17 110.46,435.13 110.80,435.15 111.13,435.13 111.47,435.13 111.80,435.11 112.14,435.12 112.47,435.09 112.81,435.11 113.14,435.09 113.48,435.09 113.81,435.11 114.15,435.10 114.48,435.10 114.82,435.11 115.15,435.10 115.49,435.10 115.82,435.07 116.16,435.07 116.49,435.10 116.83,435.12 117.16,435.12 117.50,435.17 117.83,435.16 118.17,435.16 118.50,435.15 118.84,435.15 119.17,435.15 119.51,435.15 119.84,435.13 120.18,435.12 120.51,435.12 120.85,435.11 121.18,435.10 121.52,435.10 121.85,435.09 122.19,435.08 122.52,435.08 122.86,435.07 123.19,435.06 123.53,435.06 123.86,435.05 124.20,435.04 124.53,435.04 124.87,435.04 125.20,435.04 125.54,435.03 125.87,435.02 126.21,435.02 126.54,435.01 126.88,435.01 127.21,435.00 127.55,434.99 127.88,434.99 128.22,434.98 128.55,434.97 128.89,434.97 129.22,434.96 129.56,434.95 129.89,434.95 130.23,434.96 130.56,434.94 130.90,434.94 131.23,434.91 131.57,434.92 131.90,434.91 132.24,434.92 132.57,434.92 132.91,434.93 133.24,434.90 133.58,434.89 133.91,434.90 134.25,434.90 134.58,434.88 134.92,434.86 135.25,434.85 135.59,434.86 135.92,434.84 136.26,434.82 136.59,434.82 136.93,434.81 137.26,434.77 137.60,434.75 137.93,434.73 138.27,434.70 138.60,434.73 138.94,434.73 139.27,434.73 139.61,434.68 139.94,434.66 140.28,434.67 140.61,434.63 140.95,434.66 141.28,434.65 141.62,434.67 141.95,434.66 142.29,434.64 142.62,434.59 142.96,434.57 143.29,434.53 143.63,434.51 143.96,434.52 144.30,434.52 144.63,434.50 144.97,434.56 145.30,434.56 145.64,434.55 145.97,434.63 146.31,434.62 146.64,434.61 146.98,434.57 147.31,434.64 147.65,434.61 147.98,434.57 148.32,434.52 148.65,434.49 148.99,434.45 149.32,434.39 149.66,434.41 149.99,434.42 150.33,434.45 150.66,434.44 151.00,434.48 151.33,434.41 151.67,434.39 152.00,434.41 152.34,434.42 152.67,434.47 153.01,434.48 153.34,434.57 153.68,434.48 154.01,434.45 154.35,434.44 154.68,434.48 155.02,434.51 155.35,434.44 155.69,434.47 156.02,434.32 156.36,434.34 156.69,434.31 157.03,434.30 157.36,434.37 157.70,434.34 158.03,434.31 158.37,434.27 158.70,434.28 159.04,434.34 159.37,434.31 159.71,434.33 160.04,434.28 160.38,434.27 160.71,434.17 161.05,434.13 161.38,434.20 161.72,434.23 162.05,434.17 162.39,434.20 162.72,434.19 163.06,434.13 163.39,434.07 163.73,434.03 164.06,434.06 164.40,434.20 164.73,434.17 165.07,434.23 165.40,434.24 165.74,434.31 166.07,434.24 166.41,434.28 166.74,434.27 167.08,434.13 167.41,434.04 167.75,434.10 168.08,434.05 168.42,434.00 168.75,434.07 169.09,434.15 169.42,434.22 169.76,434.19 170.09,434.12 170.43,434.04 170.76,433.99 171.10,434.05 171.43,434.05 171.77,434.05 172.10,434.06 172.44,434.07 172.77,434.10 173.11,434.07 173.44,434.02 173.78,433.99 174.11,433.95 174.45,433.97 174.78,433.96 175.12,433.83 175.45,433.94 175.79,433.92 176.12,433.90 176.46,433.88 176.79,433.91 177.13,433.98 177.46,433.90 177.80,433.97 178.13,433.93 178.47,433.86 178.80,433.82 179.14,433.75 179.47,433.69 179.81,433.59 180.14,433.54 180.48,433.58 180.81,433.71 181.15,433.66 181.48,433.59 181.82,433.59 182.15,433.62 182.49,433.61 182.82,433.79 183.16,433.72 183.49,433.63 183.83,433.64 184.16,433.55 184.50,433.42 184.83,433.35 185.17,433.28 185.50,433.19 185.84,433.31 186.17,433.40 186.51,433.51 186.84,433.55 187.18,433.43 187.51,433.57 187.85,433.29 188.18,433.31 188.52,433.09 188.85,432.68 189.19,432.81 189.52,432.88 189.86,432.68 190.19,432.35 190.53,431.86 190.86,431.81 191.20,432.08 191.53,431.95 191.87,432.32 192.20,432.78 192.54,432.44 192.87,432.69 193.21,432.19 193.54,432.64 193.88,432.47 194.21,432.34 194.55,432.41 194.88,432.25 195.22,431.59 195.55,430.94 195.89,430.44 196.22,429.81 196.56,429.58 196.89,429.91 197.23,430.24 197.56,429.81 197.90,429.69 198.23,430.18 198.57,429.84 198.90,430.25 199.24,430.78 199.57,431.04 199.91,430.53 200.24,430.34 200.58,429.98 200.91,430.35 201.25,430.42 201.58,430.08 201.92,430.01 202.25,430.02 202.59,430.24 202.92,430.46 203.26,430.91 203.59,431.27 203.93,431.56 204.26,430.67 204.60,430.08 204.93,429.94 205.27,430.18 205.60,430.05 205.94,430.57 206.27,431.65 206.61,431.74 206.94,432.45 207.28,432.39 207.61,432.80 207.95,433.39 208.28,432.83 208.62,432.58 208.95,433.33 209.29,433.86 209.62,434.88 209.96,435.10 210.29,435.35 210.63,435.43 210.96,435.67 211.30,435.09 211.63,435.27 211.97,435.97 212.30,435.93 212.64,435.57 212.97,435.70 213.31,435.99 213.64,435.60 213.98,436.08 214.31,435.69 214.65,436.63 214.98,436.38 215.32,435.99 215.65,436.22 215.99,436.50 216.32,435.94 216.66,436.73 216.99,436.35 217.33,436.29 217.66,435.90 218.00,435.40 218.33,435.79 218.67,435.22 219.00,435.35 219.34,435.68 219.67,435.72 220.01,435.56 220.34,435.05 220.68,435.53 221.01,435.29 221.35,435.37 221.68,435.14 222.02,435.56 222.35,434.95 222.69,434.76 223.02,435.36 223.36,435.61 223.69,435.72 224.03,435.59 224.36,435.23 224.70,435.09 225.03,434.63 225.37,434.54 225.70,433.38 226.04,433.78 226.37,433.76 226.71,433.92 227.04,432.74 227.38,432.44 227.71,431.87 228.05,431.73 228.38,431.60 228.72,431.70 229.05,432.63 229.39,432.51 229.72,432.02 230.06,432.13 230.39,433.09 230.73,432.56 231.06,432.07 231.40,432.53 231.73,433.02 232.07,432.62 232.40,432.22 232.74,432.79 233.07,433.29 233.41,432.83 233.74,432.41 234.08,432.87 234.41,431.68 234.75,431.36 235.08,431.74 235.42,431.00 235.75,431.42 236.09,432.17 236.42,431.94 236.76,431.23 237.09,430.72 237.43,430.68 237.76,431.39 238.10,431.56 238.43,430.90 238.77,430.85 239.10,431.17 239.44,431.13 239.77,430.82 240.11,431.29 240.44,431.31 240.78,431.05 241.11,431.58 241.45,430.98 241.78,430.46 242.12,431.06 242.45,431.14 242.79,430.72 243.12,431.14 243.46,431.79 243.79,431.87 244.13,431.03 244.46,430.82 244.80,431.34 245.13,431.15 245.47,431.61 245.80,431.86 246.14,432.32 246.47,433.10 246.81,433.36 247.14,432.93 247.48,432.56 247.81,433.20 248.15,433.24 248.48,433.27 248.82,433.43 249.15,433.60 249.49,433.07 249.82,431.62 250.16,431.84 250.49,431.28 250.83,432.00 251.16,431.31 251.50,430.60 251.83,430.56 252.17,430.03 252.50,429.73 252.84,429.91 253.17,430.03 253.51,429.76 253.84,430.52 254.18,430.19 254.51,429.05 254.85,428.34 255.18,428.56 255.52,428.54 255.85,427.51 256.19,426.79 256.52,426.36 256.86,426.37 257.19,426.20 257.53,426.94 257.86,427.32 258.20,426.53 258.53,426.63 258.87,425.82 259.20,425.19 259.54,425.13 259.87,424.75 260.21,424.79 260.54,425.75 260.88,425.95 261.21,425.92 261.55,426.32 261.88,426.15 262.22,425.53 262.55,424.30 262.89,424.01 263.22,423.93 263.56,423.37 263.89,422.09 264.23,422.22 264.56,422.21 264.90,423.26 265.23,422.13 265.57,421.99 265.90,421.70 266.24,422.22 266.57,424.18 266.91,423.53 267.24,425.10 267.58,424.44 267.91,423.34 268.25,422.08 268.58,422.94 268.92,424.34 269.25,423.73 269.59,424.29 269.92,424.31 270.26,426.26 270.59,426.30 270.93,425.12 271.26,423.95 271.60,423.74 271.93,424.29 272.27,423.44 272.60,423.14 272.94,422.32 273.27,422.30 273.61,422.64 273.94,424.38 274.28,426.48 274.61,427.22 274.95,426.25 275.28,426.16 275.62,425.29 275.95,425.80 276.29,424.70 276.62,424.98 276.96,425.28 277.29,425.57 277.63,425.19 277.96,424.46 278.30,424.85 278.63,426.01 278.97,425.43 279.30,428.20 279.64,427.99 279.97,428.22 280.31,428.55 280.64,428.03 280.98,428.13 281.31,427.62 281.65,425.77 281.98,426.41 282.32,427.63 282.65,427.70 282.99,427.89 283.32,427.78 283.66,426.89 283.99,426.90 284.33,428.62 284.66,428.56 285.00,429.39 285.33,431.27 285.67,430.67 286.00,429.48 286.34,430.03 286.67,429.29 287.01,429.80 287.34,430.77 287.68,431.66 288.01,433.22 288.35,434.09 288.68,434.84 289.02,433.46 289.35,432.30 289.69,433.08 290.02,432.76 290.36,431.94 290.69,431.93 291.03,432.80 291.36,434.16 291.70,435.15 292.03,435.76 292.37,434.73 292.70,433.50 293.04,432.72 293.37,431.72 293.71,432.50 294.04,433.83 294.38,433.04 294.71,432.82 295.05,430.40 295.38,431.22 295.72,431.49 296.05,430.90 296.39,431.68 296.72,433.20 297.06,434.55 297.39,433.33 297.73,433.18 298.06,434.02 298.40,435.27 298.73,434.41 299.07,433.33 299.40,433.38 299.74,432.52 300.07,429.84 300.41,431.76 300.74,432.37 301.08,432.47 301.41,433.08 301.75,432.18 302.08,432.50 302.42,431.84 302.75,432.89 303.09,432.49 303.42,432.11 303.76,431.74 304.09,430.49 304.43,431.50 304.76,431.60 305.10,433.02 305.43,433.45 305.77,435.44 306.10,435.68 306.44,436.06 306.77,435.59 307.11,436.49 307.44,437.63 307.78,438.98 308.11,438.58 308.45,439.20 308.78,438.16 309.12,436.50 309.45,435.05 309.79,435.31 310.12,436.41 310.46,437.68 310.79,439.59 311.13,439.24 311.46,438.92 311.80,439.10 312.13,439.25 312.47,438.87 312.80,439.21 313.14,437.09 313.47,437.25 313.81,437.80 314.14,438.65 314.48,438.95 314.81,438.71 315.15,438.97 315.48,439.05 315.82,438.47 316.15,437.76 316.49,438.07 316.82,437.23 317.16,438.05 317.49,438.97 317.83,439.37 318.16,439.87 318.50,439.83 318.83,440.48 319.17,438.55 319.50,439.03 319.84,437.86 320.17,437.37 320.51,436.81 320.84,436.62 321.18,435.21 321.51,434.43 321.85,434.32 322.18,434.70 322.52,434.70 322.85,434.49 323.19,432.90 323.52,432.61 323.86,432.04 324.19,432.13 324.53,431.00 324.86,431.03 325.20,430.71 325.53,429.75 325.87,428.16 326.20,428.43 326.54,427.65 326.87,427.71 327.21,428.31 327.54,428.60 327.88,428.73 328.21,429.46 328.55,429.73 328.88,429.45 329.22,429.72 329.55,430.47 329.89,430.62 330.22,431.76 330.56,430.20 330.89,430.53 331.23,429.88 331.56,431.12 331.90,429.92 332.23,429.79 332.57,429.27 332.90,428.98 333.24,428.67 333.57,429.62 333.91,429.61 334.24,430.31 334.58,429.83 334.91,429.68 335.25,428.68 335.58,427.77 335.92,426.88 336.25,426.23 336.59,425.09 336.92,425.57 337.26,425.07 337.59,423.03 337.93,422.64 338.26,421.74 338.60,422.58 338.93,420.62 339.27,420.84 339.60,422.33 339.94,421.56 340.27,420.80 340.61,420.06 340.94,420.57 341.28,420.33 341.61,419.95 341.95,418.85 342.28,418.90 342.62,417.78 342.95,416.62 343.29,417.90 343.62,418.88 343.96,418.22 344.29,416.09 344.63,414.94 344.96,413.14 345.30,414.45 345.63,414.22 345.97,415.86 346.30,415.67 346.64,415.69 346.97,417.32 347.31,416.39 347.64,416.94 347.98,418.08 348.31,417.20 348.65,419.19 348.98,418.32 349.32,417.99 349.65,418.56 349.99,416.39 350.32,417.03 350.66,417.37 350.99,418.99 351.33,420.09 351.66,419.77 352.00,420.00 352.33,420.47 352.67,418.58 353.00,418.32 353.34,415.25 353.67,416.15 354.01,414.25 354.34,414.17 354.68,414.55 355.01,414.27 355.35,414.59 355.68,415.94 356.02,418.90 356.35,419.80 356.69,420.74 357.02,420.93 357.36,421.69 357.69,421.48 358.03,419.54 358.36,417.74 358.70,416.34 359.03,414.94 359.37,413.02 359.70,411.86 360.04,413.11 360.37,411.82 360.71,410.16 361.04,411.14 361.38,409.89 361.71,409.05 362.05,407.12 362.38,407.07 362.72,409.06 363.05,408.55 363.39,407.82 363.72,406.27 364.06,405.99 364.39,405.34 364.73,406.40 365.06,405.41 365.40,404.40 365.73,404.04 366.07,402.31 366.40,404.78 366.74,406.09 367.07,405.50 367.41,404.44 367.74,402.87 368.08,401.01 368.41,398.22 368.75,397.42 369.08,399.02 369.42,396.94 369.75,398.18 370.09,397.39 370.42,398.01 370.76,396.78 371.09,395.88 371.43,392.43 371.76,392.75 372.10,392.49 372.43,391.70 372.77,389.57 373.10,388.44 373.44,389.74 373.77,390.57 374.11,389.44 374.44,390.07 374.78,390.75 375.11,389.78 375.45,390.18 375.78,392.23 376.12,391.95 376.45,392.38 376.79,392.97 377.12,393.65 377.46,396.10 377.79,394.13 378.13,393.44 378.46,393.14 378.80,394.59 379.13,393.25 379.47,390.66 379.80,387.80 380.14,386.73 380.47,386.88 380.81,388.45 381.14,388.81 381.48,389.81 381.81,392.03 382.15,387.62 382.48,387.33 382.82,384.26 383.15,388.11 383.49,387.36 383.82,386.16 384.16,386.41 384.49,387.48 384.83,389.09 385.16,391.39 385.50,391.33 385.83,390.41 386.17,391.21 386.50,392.10 386.84,391.72 387.17,390.56 387.51,388.65 387.84,388.64 388.18,387.61 388.51,384.83 388.85,382.61 389.18,383.83 389.52,381.17 389.85,379.07 390.19,379.26 390.52,379.44 390.86,377.42 391.19,373.90 391.53,374.78 391.86,373.01 392.20,371.06 392.53,371.65 392.87,372.69 393.20,370.35 393.54,370.71 393.87,369.07 394.21,371.71 394.54,374.55 394.88,373.09 395.21,371.61 395.55,368.47 395.88,368.38 396.22,369.25 396.55,374.19 396.89,373.65 397.22,370.10 397.56,371.98 397.89,373.91 398.23,373.08 398.56,374.02 398.90,374.95 399.23,375.98 399.57,374.99 399.90,374.84 400.24,373.23 400.57,375.09 400.91,372.05 401.24,372.50 401.58,372.89 401.91,369.33 402.25,363.45 402.58,361.04 402.92,361.41 403.25,359.21 403.59,357.36 403.92,359.04 404.26,362.42 404.59,361.00 404.93,358.34 405.26,358.70 405.60,356.16 405.93,353.34 406.27,350.12 406.60,351.10 406.94,349.81 407.27,349.45 407.61,344.97 407.94,343.68 408.28,344.91 408.61,343.84 408.95,341.17 409.28,339.51 409.62,340.26 409.95,339.54 410.29,339.74 410.62,337.94 410.96,336.86 411.29,339.17 411.63,337.50 411.96,334.80 412.30,335.72 412.63,335.22 412.97,331.90 413.30,330.00 413.64,331.54 413.97,332.23 414.31,334.40 414.64,336.52 414.98,330.37 415.31,332.65 415.65,334.04 415.98,336.93 416.32,342.02 416.65,339.54 416.99,341.73 417.32,342.08 417.66,341.10 417.99,343.48 418.33,347.79 418.66,346.38 419.00,347.09 419.33,347.38 419.67,348.44 420.00,351.71 420.34,351.14 420.67,351.23 421.01,353.06 421.34,355.06 421.68,355.23 422.01,352.56 422.35,354.60 422.68,352.30 423.02,349.08 423.35,346.95 423.69,348.71 424.02,349.46 424.36,351.71 424.69,349.25 425.03,348.58 425.36,346.98 425.70,346.64 426.03,345.83 426.37,348.37 426.70,350.95 427.04,350.02 427.37,350.82 427.71,345.06 428.04,346.03 428.38,343.94 428.71,344.45 429.05,342.68 429.38,341.50 429.72,338.45 430.05,340.76 430.39,339.83 430.72,335.99 431.06,339.76 431.39,342.60 431.73,336.59 432.06,333.17 432.40,329.99 432.73,326.80 433.07,323.93 433.40,327.68 433.74,327.90 434.07,331.68 434.41,333.78 434.74,330.19 435.08,332.68 435.41,332.64 435.75,335.78 436.08,329.99 436.42,328.24 436.75,331.04 437.09,332.02 437.42,332.63 437.76,328.55 438.09,326.91 438.43,326.91 438.76,329.57 439.10,331.95 439.43,333.23 439.77,335.35 440.10,335.22 440.44,335.90 440.77,333.67 441.11,331.88 441.44,331.11 441.78,333.16 442.11,335.06 442.45,337.40 442.78,343.49 443.12,344.32 443.45,347.57 443.79,350.36 444.12,345.66 444.46,352.13 444.79,355.95 445.13,355.17 445.46,354.46 445.80,356.62 446.13,356.85 446.47,359.65 446.80,354.59 447.14,358.47 447.47,360.44 447.81,362.55 448.14,358.31 448.48,355.31 448.81,351.81 449.15,351.86 449.48,347.89 449.82,349.09 450.15,347.24 450.49,348.88 450.82,345.77 451.16,345.61 451.49,347.60 451.83,348.27 452.16,349.66 452.50,351.63 452.83,351.27 453.17,352.16 453.50,348.95 453.84,351.81 454.17,352.51 454.51,354.81 454.84,355.73 455.18,355.87 455.51,354.52 455.85,351.57 456.18,345.48 456.52,343.63 456.85,347.92 457.19,345.63 457.52,346.39 457.86,346.61 458.19,352.14 458.53,351.34 458.86,356.95 459.20,359.45 459.53,355.59 459.87,353.15 460.20,353.05 460.54,354.99 460.87,354.35 461.21,354.84 461.54,354.78 461.88,357.43 462.21,355.33 462.55,352.20 462.88,346.43 463.22,349.79 463.55,346.93 463.89,344.06 464.22,344.10 464.56,343.60 464.89,343.00 465.23,339.29 465.56,333.02 465.90,332.06 466.23,331.69 466.57,334.30 466.90,331.91 467.24,331.67 467.57,331.83 467.91,333.66 468.24,334.51 468.58,336.13 468.91,334.18 469.25,333.85 469.58,328.63 469.92,328.05 470.25,326.75 470.59,325.19 470.92,327.00 471.26,329.32 471.59,325.75 471.93,327.77 472.26,323.89 472.60,321.93 472.93,322.54 473.27,325.99 473.60,324.23 473.94,324.04 474.27,322.84 474.61,320.56 474.94,321.63 475.28,317.27 475.61,318.79 475.95,320.35 476.28,318.66 476.62,319.60 476.95,318.34 477.29,316.51 477.62,314.81 477.96,316.89 478.29,320.62 478.63,323.03 478.96,319.49 479.30,316.68 479.63,314.65 479.97,312.52 480.30,311.25 480.64,306.99 480.97,306.41 481.31,304.99 481.64,302.81 481.98,305.29 482.31,307.03 482.65,307.47 482.98,310.76 483.32,310.71 483.65,316.18 483.99,314.73 484.32,321.29 484.66,317.52 484.99,319.42 485.33,315.53 485.66,321.29 486.00,320.50 486.33,315.12 486.67,313.43 487.00,314.35 487.34,315.93 487.67,312.22 488.01,312.61 488.34,312.44 488.68,314.04 489.01,312.56 489.35,308.32 489.68,308.62 490.02,307.94 490.35,307.15 490.69,314.54 491.02,319.40 491.36,317.68 491.69,314.71 492.03,315.97 492.36,317.42 492.70,317.50 493.03,317.84 493.37,312.17 493.70,307.06 494.04,311.05 494.37,307.83 494.71,310.74 495.04,311.90 495.38,304.71 495.71,302.24 496.05,303.10 496.38,297.87 496.72,297.10 497.05,298.75 497.39,294.39 497.72,297.76 498.06,297.92 498.39,294.84 498.73,289.49 499.06,287.14 499.40,284.01 499.73,288.23 500.07,289.76 500.40,290.72 500.74,289.38 501.07,289.04 501.41,290.27 501.74,290.78 502.08,292.41 502.41,290.13 502.75,289.64 503.08,288.06 503.42,288.43 503.75,290.31 504.09,288.50 504.42,289.18 504.76,291.72 505.09,297.70 505.43,292.44 505.76,290.06 506.10,289.56 506.43,281.61 506.77,282.38 507.10,276.61 507.44,282.39 507.77,282.59 508.11,280.88 508.44,279.64 508.78,274.43 509.11,275.88 509.45,274.06 509.78,270.09 510.12,271.20 510.45,269.02 510.79,262.52 511.12,262.53 511.46,259.92 511.79,260.83 512.13,264.72 512.46,266.83 512.80,265.35 513.13,259.22 513.47,257.96 513.80,254.44 514.14,255.42 514.47,255.62 514.81,255.80 515.14,262.24 515.48,259.91 515.81,264.84 516.15,266.71 516.48,265.39 516.82,266.23 517.15,266.33 517.49,260.89 517.82,263.69 518.16,259.10 518.49,260.33 518.83,260.10 519.16,259.02 519.50,257.80 519.83,260.56 520.17,264.97 520.50,260.09 520.84,262.57 521.17,258.81 521.51,258.46 521.84,252.06 522.18,256.96 522.51,260.25 522.85,257.95 523.18,250.85 523.52,248.23 523.85,248.61 524.19,246.99 524.52,238.39 524.86,238.86 525.19,238.36 525.53,243.30 525.86,235.13 526.20,229.99 526.53,226.68 526.87,230.24 527.20,230.76 527.54,226.41 527.87,232.42 528.21,234.73 528.54,237.16 528.88,232.69 529.21,230.52 529.55,226.27 529.88,233.03 530.22,228.45 530.55,234.99 530.89,236.37 531.22,232.02 531.56,238.11 531.89,239.85 532.23,242.63 532.56,242.36 532.90,238.21 533.23,238.42 533.57,237.30 533.90,235.62 534.24,234.23 534.57,235.39 534.91,237.53 535.24,239.63 535.58,241.25 535.91,234.38 536.25,239.25 536.58,241.99 536.92,243.10 537.25,251.37 537.59,251.42 537.92,249.82 538.26,256.13 538.59,249.62 538.93,249.05 539.26,249.96 539.60,246.24 539.93,241.79 540.27,240.48 540.60,238.24 540.94,238.22 541.27,236.17 541.61,231.40 541.94,231.87 542.28,229.21 542.61,230.81 542.95,228.35 543.28,233.23 543.62,231.17 543.95,223.34 544.29,214.94 544.62,216.59 544.96,215.52 545.29,211.47 545.63,213.50 545.96,205.42 546.30,207.23 546.63,203.73 546.97,202.95 547.30,199.27 547.64,194.83 547.97,186.93 548.31,184.84 548.64,185.71 548.98,181.18 549.31,178.76 549.65,175.96 549.98,179.31 550.32,182.35 550.65,179.61 550.99,178.79 551.32,178.06 551.66,180.41 551.99,177.34 552.33,174.05 552.66,167.91 553.00,164.98 553.33,157.63 553.67,156.50 554.00,163.84 554.34,161.85 554.67,153.80 555.01,154.83 555.34,150.64 555.68,149.02 556.01,146.25 556.35,147.00 556.68,144.85 557.02,143.38 557.35,135.25 557.69,143.37 558.02,136.89 558.36,142.62 558.69,135.79 559.03,136.48 559.36,134.20 559.70,135.97 560.03,141.44 560.37,140.25 560.70,139.79 561.04,141.04 561.37,136.62 561.71,139.16 562.04,142.91 562.38,147.33 562.71,147.92 563.05,140.79 563.38,150.34 563.72,146.52 564.05,145.52 564.39,143.83 564.72,143.36 565.06,138.67 565.39,138.33 565.73,143.68 566.06,143.73 566.40,149.90 566.73,154.98 567.07,150.37 567.40,148.74 567.74,137.87 568.07,127.81 568.41,128.42 568.74,129.84 569.08,128.26 569.41,137.53 569.75,140.78 570.08,143.71 570.42,143.30 570.75,144.69 571.09,146.15 571.42,148.49 571.76,152.35 572.09,151.35 572.43,146.81 572.76,144.95 573.10,141.99 573.43,147.84 573.77,154.84 574.10,152.68 574.44,147.39 574.77,141.58 575.11,145.08 575.44,143.51 575.78,146.04 576.11,148.24 576.45,149.63 576.78,147.36 577.12,152.07 577.45,158.05 577.79,156.29 578.12,160.27 578.46,159.74 578.79,161.36 579.13,153.70 579.46,151.60 579.80,143.88 580.13,143.27 580.47,144.05 580.80,134.82 581.14,128.46 581.47,123.03 581.81,118.88 582.14,119.79 582.48,124.78 582.81,124.20 583.15,127.10 583.48,123.07 583.82,119.36 584.15,121.21 584.49,132.11 584.82,134.24 585.16,127.65 585.49,135.73 585.83,132.07 586.16,140.84 586.50,139.34 586.83,141.78 587.17,144.58 587.50,138.74 587.84,141.13 588.17,140.63 588.51,144.36 588.84,140.84 589.18,131.81 589.51,127.06 589.85,132.13 590.18,137.64 590.52,135.31 590.85,141.09 591.19,131.55 591.52,134.14 591.86,131.96 592.19,133.17 592.53,127.63 592.86,133.79 593.20,134.99 593.53,134.14 593.87,134.94 594.20,138.35 594.54,151.87 594.87,154.79 595.21,153.86 595.54,154.63 595.88,156.14 596.21,161.99 596.55,161.53 596.88,169.48 597.22,171.64 597.55,179.86 597.89,179.17 598.22,175.30 598.56,172.53 598.89,165.83 599.23,162.85 599.56,165.35 599.90,166.58 600.23,168.92 600.57,176.30 600.90,180.33 601.24,171.50 601.57,173.49 601.91,178.60 602.24,175.47 602.58,183.73 602.91,175.31 603.25,180.91 603.58,175.83 603.92,175.03 604.25,170.15 604.59,167.68 604.92,170.12 605.26,172.14 605.59,177.89 605.93,176.20 606.26,171.17 606.60,165.82 606.93,170.93 607.27,170.75 607.60,172.79 607.94,170.78 608.27,175.97 608.61,172.31 608.94,165.98 609.28,174.09 609.61,177.54 609.95,173.28 610.28,167.52 610.62,176.25 610.95,179.40 611.29,184.25 611.62,181.12 611.96,173.96 612.29,184.00 612.63,178.36 612.96,174.19 613.30,176.59 613.63,172.55 613.97,164.39 614.30,166.42 614.64,163.67 614.97,162.23 615.31,166.55 615.64,168.27 615.98,158.72 616.31,157.61 616.65,158.84 616.98,164.32 617.32,165.48 617.65,167.97 617.99,171.81 618.32,167.79 618.66,170.48 618.99,167.36 619.33,159.17 619.66,164.63 620.00,155.03 620.33,144.40 620.67,147.95 621.00,148.81 621.34,143.23 621.67,149.42 622.01,145.62 622.34,147.85 622.68,143.20 623.01,155.15 623.35,158.68 623.68,158.96 624.02,155.41 624.35,156.81 624.69,155.31 625.02,151.38 625.36,150.81 625.69,144.18 626.03,149.27 626.36,152.28 626.70,136.18 627.03,135.32 627.37,142.68 627.70,146.30 628.04,136.37 628.37,140.15 628.71,137.65 629.04,132.23 629.38,137.24 629.71,128.95 630.05,123.31 630.38,128.21 630.72,132.50 631.05,122.45 631.39,128.50 631.72,132.41 632.06,130.99 632.39,132.62 632.73,131.96 633.06,131.61 633.40,121.76 633.73,131.12 634.07,129.91 634.40,134.26 634.74,134.92 635.07,133.88 635.41,135.26 635.74,146.94 636.08,145.46 636.41,145.72 636.75,156.52 637.08,162.96 637.42,158.52 637.75,162.53 638.09,159.00 638.42,159.61 638.76,163.79 639.09,173.36 639.43,176.92 639.76,179.43 640.10,174.75 640.43,176.23 640.77,178.10 641.10,187.74 641.44,188.32 641.77,194.74 642.11,186.58 642.44,193.64 642.78,193.27 643.11,192.31 643.45,188.74 643.78,190.95 644.12,185.94 644.45,190.28 644.79,189.92 645.12,188.16 645.46,192.62 645.79,195.77 646.13,196.92 646.46,198.12 646.80,204.03 647.13,202.15 647.47,206.73 647.80,208.74 648.14,211.96 648.47,211.30 648.81,206.19 649.14,211.28 649.48,212.16 649.81,215.71 650.15,201.72 650.48,207.89 650.82,200.19 651.15,207.98 651.49,213.00 651.82,211.28 652.16,207.40 652.49,208.39 652.83,207.43 653.16,205.89 653.50,208.46 653.83,207.28 654.17,204.28 654.50,195.65 654.84,197.14 655.17,199.46 655.51,203.31 655.84,191.57 656.18,192.49 656.51,195.81 656.85,192.85 657.18,187.85 657.52,194.58 657.85,198.20 658.19,192.77 658.52,193.15 658.86,189.28 659.19,183.43 659.53,184.68 659.86,177.80 660.20,173.05 660.53,169.17 660.87,169.02 661.20,167.42 661.54,161.29 661.87,161.75 662.21,160.07 662.54,158.91 662.88,157.84 663.21,159.56 663.55,149.93 663.88,158.49 664.22,148.40 664.55,130.50 664.89,139.00 665.22,140.21 665.56,135.36 665.89,133.53 666.23,134.41 666.56,131.79 666.90,127.11 667.23,123.13 667.57,126.09 667.90,132.62 668.24,132.53 668.57,128.12 668.91,132.87 669.24,132.93 669.58,131.47 669.91,129.69 670.25,135.00 670.58,145.50 670.92,143.73 671.25,138.79 671.59,133.10 671.92,134.36 672.26,127.14 672.59,125.72 672.93,124.20 673.26,131.03 673.60,128.06 673.93,126.58 674.27,129.72 674.60,131.62 674.94,134.33 675.27,130.38 675.61,127.62 675.94,127.17 676.28,125.32 676.61,128.73 676.95,129.02 677.28,131.81 677.62,131.08 677.95,122.52 678.29,124.54 678.62,121.49 678.96,114.78 679.29,115.80 679.63,116.31 679.96,122.56 680.30,128.42 680.63,128.59 680.97,124.52 681.30,130.91 681.64,133.91 681.97,134.37 682.31,133.69 682.64,145.72 682.98,144.49 683.31,147.03 683.65,142.13 683.98,132.74 684.32,139.90 684.65,134.53 684.99,136.10 685.32,139.44 685.66,129.54 685.99,124.84 686.33,121.81 686.66,122.54 687.00,118.62 687.33,120.37 687.67,120.77 688.00,116.33 688.34,120.02 688.67,125.46 689.01,133.41 689.34,142.58 689.68,145.50 690.01,141.75 690.35,136.23 690.68,136.15 691.02,135.78 691.35,132.74 691.69,122.97 692.02,122.47 692.36,127.83 692.69,126.82 693.03,126.40 693.36,128.18 693.70,136.67 694.03,135.24 694.37,143.48 694.70,140.36 695.04,136.49 695.37,145.80 695.71,154.61 696.04,147.55 696.38,144.88 696.71,148.27 697.05,149.57 697.38,155.91 697.72,154.35 698.05,162.81 698.39,160.37 698.72,160.07 699.06,159.62 699.39,158.92 699.73,158.95 700.06,164.51 700.40,160.30 700.73,172.80 701.07,170.23 701.40,172.84 701.74,177.72 702.07,176.93 702.41,181.69 702.74,170.37 703.08,169.35 703.41,167.47 703.75,168.94 704.08,166.55 704.42,162.03 704.75,163.24 705.09,163.24 705.42,156.37 705.76,144.45 706.09,142.61 706.43,147.94 706.76,152.15 707.10,148.57 707.43,151.13 707.77,145.73 708.10,145.43 708.44,148.68 708.77,146.28 709.11,144.70 709.44,143.54 709.78,145.42 710.11,147.25 710.45,142.35 710.78,128.17 711.12,122.83 711.45,122.54 711.79,129.04 712.12,126.32 712.46,130.99 712.79,137.51 713.13,130.12 713.46,141.53 713.80,142.42 714.13,146.37 714.47,150.21 714.80,146.99 715.14,147.02 715.47,147.51 715.81,149.87 716.14,147.70 716.48,156.37 716.81,158.75 717.15,159.63 717.48,161.69 717.82,171.80 718.15,169.92 718.49,181.74 718.82,184.12 719.16,183.86 719.49,195.32 719.83,201.53 720.16,206.63 720.50,209.39 720.83,202.52 721.17,192.61 721.50,194.46 721.84,195.85 722.17,198.75 722.51,197.66 722.84,197.34 723.18,197.49 723.51,195.56 723.85,194.05 724.18,198.43 724.52,203.15 724.85,202.96 725.19,208.54 725.52,210.53 725.86,215.85 726.19,214.15 726.53,217.76 726.86,217.09 727.20,225.90 727.53,223.93 727.87,224.45 728.20,226.32 728.54,221.57 728.87,223.83 729.21,217.61 729.54,216.75 729.88,215.32 730.21,216.87 730.55,227.29 730.88,226.72 731.22,226.90 731.55,225.06 731.89,230.73 732.22,233.60 732.56,229.95 732.89,241.55 733.23,246.59 733.56,255.36 733.90,256.85 734.23,259.50 734.57,259.82 734.90,250.13 735.24,242.04 735.57,237.91 735.91,238.49 736.24,238.09 736.58,234.01 736.91,220.79 737.25,216.51 737.58,213.55 737.92,219.10 738.25,219.63 738.59,216.93 738.92,218.98 739.26,228.69 739.59,224.78 739.93,215.32 740.26,217.13 740.60,217.38 740.93,207.62 741.27,201.27 741.60,202.56 741.94,203.69 742.27,202.54 742.61,217.31 742.94,213.88 743.28,217.07 743.61,213.02 743.95,217.41 744.28,205.24 744.62,205.86 744.95,208.01 745.29,210.96 745.62,211.01 745.96,211.64 746.29,210.08 746.63,219.06 746.96,214.27 747.30,215.38 747.63,212.30 747.97,214.69 748.30,213.43 748.64,207.25 748.97,209.01 749.31,204.99 749.64,210.17 749.98,211.17 750.31,204.28 750.65,203.81 750.98,210.33 751.32,216.32 751.65,213.20 751.99,210.02 752.32,208.93 752.66,214.46 752.99,216.25 753.33,215.75 753.66,211.36 754.00,210.77 754.33,209.51 754.67,204.34 755.00,194.90"/>
<line x1="783" y1="106" x2="809" y2="106" stroke="#7c3aed" stroke-width="3"/>
<text x="817" y="110" font-family="Arial" font-size="13" fill="#111827">Calibrated Avellaneda Stoikov</text>
<text x="420.0" y="518" text-anchor="middle" font-family="Arial" font-size="14" fill="#111827">Event index</text>
<text x="22" y="256.0" text-anchor="middle" transform="rotate(-90 22 256.0)" font-family="Arial" font-size="14" fill="#111827">Net PnL after fees</text>
</svg>
