<svg xmlns="http://www.w3.org/2000/svg" width="940" height="540" viewBox="0 0 940 540">
<rect width="100%" height="100%" fill="#ffffff"/>
<text x="470.0" y="26" text-anchor="middle" font-family="Arial" font-size="18" fill="#111827">Low Volatility Inventory</text>
<line x1="85" y1="470" x2="755" y2="470" stroke="#111827" stroke-width="1"/>
<line x1="85" y1="42" x2="85" y2="470" stroke="#111827" stroke-width="1"/>
<line x1="85.00" y1="42" x2="85.00" y2="470" stroke="#e5e7eb" stroke-width="1"/>
<text x="85.00" y="494" text-anchor="middle" font-family="Arial" font-size="12" fill="#374151">0</text>
<line x1="252.50" y1="42" x2="252.50" y2="470" stroke="#e5e7eb" stroke-width="1"/>
<text x="252.50" y="494" text-anchor="middle" font-family="Arial" font-size="12" fill="#374151">50000</text>
<line x1="420.00" y1="42" x2="420.00" y2="470" stroke="#e5e7eb" stroke-width="1"/>
<text x="420.00" y="494" text-anchor="middle" font-family="Arial" font-size="12" fill="#374151">100000</text>
<line x1="587.50" y1="42" x2="587.50" y2="470" stroke="#e5e7eb" stroke-width="1"/>
<text x="587.50" y="494" text-anchor="middle" font-family="Arial" font-size="12" fill="#374151">149999</text>
<line x1="755.00" y1="42" x2="755.00" y2="470" stroke="#e5e7eb" stroke-width="1"/>
<text x="755.00" y="494" text-anchor="middle" font-family="Arial" font-size="12" fill="#374151">199999</text>
<line x1="85" y1="470.00" x2="755" y2="470.00" stroke="#e5e7eb" stroke-width="1"/>
<text x="73" y="474.00" text-anchor="end" font-family="Arial" font-size="12" fill="#374151">-5879</text>
<line x1="85" y1="363.00" x2="755" y2="363.00" stroke="#e5e7eb" stroke-width="1"/>
<text x="73" y="367.00" text-anchor="end" font-family="Arial" font-size="12" fill="#374151">13993</text>
<line x1="85" y1="256.00" x2="755" y2="256.00" stroke="#e5e7eb" stroke-width="1"/>
<text x="73" y="260.00" text-anchor="end" font-family="Arial" font-size="12" fill="#374151">33866</text>
<line x1="85" y1="149.00" x2="755" y2="149.00" stroke="#e5e7eb" stroke-width="1"/>
<text x="73" y="153.00" text-anchor="end" font-family="Arial" font-size="12" fill="#374151">53738</text>
<line x1="85" y1="42.00" x2="755" y2="42.00" stroke="#e5e7eb" stroke-width="1"/>
<text x="73" y="46.00" text-anchor="end" font-family="Arial" font-size="12" fill="#374151">73610</text>
<polyline fill="none" stroke="#2563eb" stroke-width="2" points="85.00,438.35 85.34,438.38 85.67,438.27 86.01,438.38 86.34,438.56 86.68,438.42 87.01,438.34 87.35,438.37 87.68,438.26 88.02,438.39 88.35,438.36 88.69,438.46 89.02,438.69 89.36,438.80 89.69,438.85 90.03,438.69 90.36,438.72 90.70,439.02 91.03,439.08 91.37,439.35 91.70,439.29 92.04,439.45 92.37,439.62 92.71,439.51 93.04,439.57 93.38,439.63 93.71,439.70 94.05,439.86 94.38,439.84 94.72,439.74 95.05,439.62 95.39,439.69 95.72,439.48 96.06,439.53 96.39,439.66 96.73,439.83 97.06,439.84 97.40,439.99 97.73,440.04 98.07,439.94 98.40,439.77 98.74,439.77 99.07,439.81 99.41,439.86 99.74,439.93 100.08,439.82 100.41,439.99 100.75,439.83 101.08,439.82 101.42,439.71 101.75,439.77 102.09,439.93 102.42,440.08 102.76,440.13 103.09,440.10 103.43,440.15 103.76,440.18 104.10,440.14 104.43,440.14 104.77,440.25 105.10,440.32 105.44,440.25 105.77,440.10 106.11,440.15 106.44,440.10 106.78,440.11 107.11,440.00 107.45,440.17 107.78,439.88 108.12,439.66 108.45,439.23 108.79,438.80 109.12,438.70 109.46,438.70 109.79,438.75 110.13,438.95 110.46,438.90 110.80,438.85 111.13,438.93 111.47,438.82 111.80,438.98 112.14,438.93 112.47,439.09 112.81,439.03 113.14,439.10 113.48,439.18 113.81,439.13 114.15,439.07 114.48,438.97 114.82,438.97 115.15,439.24 115.49,439.13 115.82,439.05 116.16,439.02 116.49,438.87 116.83,438.80 117.16,438.71 117.50,438.56 117.83,438.24 118.17,437.81 118.50,437.54 118.84,437.05 119.17,436.68 119.51,436.31 119.84,436.15 120.18,436.15 120.51,435.93 120.85,435.95 121.18,435.93 121.52,435.93 121.85,435.93 122.19,435.97 122.52,436.07 122.86,436.04 123.19,436.04 123.53,435.99 123.86,435.77 124.20,435.61 124.53,435.69 124.87,435.79 125.20,435.84 125.54,435.90 125.87,436.11 126.21,435.87 126.54,436.03 126.88,435.97 127.21,435.95 127.55,435.74 127.88,435.83 128.22,435.85 128.55,435.91 128.89,435.96 129.22,435.96 129.56,435.80 129.89,435.66 130.23,435.50 130.56,435.39 130.90,435.34 131.23,435.23 131.57,435.28 131.90,435.23 132.24,435.01 132.57,435.14 132.91,435.20 133.24,435.20 133.58,435.38 133.91,435.29 134.25,435.40 134.58,435.35 134.92,435.19 135.25,435.19 135.59,435.20 135.92,435.20 136.26,435.32 136.59,435.22 136.93,435.18 137.26,435.19 137.60,435.07 137.93,434.96 138.27,434.95 138.60,434.68 138.94,434.64 139.27,434.61 139.61,434.53 139.94,434.45 140.28,434.26 140.61,434.26 140.95,434.16 141.28,434.12 141.62,434.19 141.95,434.23 142.29,434.37 142.62,434.37 142.96,434.10 143.29,433.83 143.63,433.45 143.96,433.12 144.30,432.69 144.63,432.42 144.97,432.19 145.30,432.14 145.64,432.35 145.97,432.43 146.31,432.50 146.64,432.43 146.98,432.43 147.31,432.70 147.65,432.81 147.98,432.79 148.32,432.90 148.65,433.17 148.99,432.91 149.32,432.48 149.66,432.20 149.99,431.88 150.33,431.56 150.66,431.18 151.00,431.14 151.33,431.24 151.67,430.76 152.00,430.35 152.34,430.03 152.67,429.97 153.01,429.76 153.34,429.81 153.68,429.86 154.01,429.86 154.35,429.71 154.68,429.74 155.02,429.90 155.35,429.79 155.69,429.84 156.02,429.90 156.36,429.57 156.69,429.52 157.03,429.36 157.36,429.23 157.70,429.34 158.03,429.44 158.37,429.23 158.70,429.18 159.04,429.21 159.37,429.20 159.71,429.26 160.04,429.04 160.38,429.07 160.71,429.14 161.05,428.77 161.38,428.39 161.72,428.24 162.05,428.30 162.39,428.44 162.72,428.44 163.06,428.50 163.39,428.31 163.73,427.93 164.06,427.55 164.40,427.35 164.73,427.27 165.07,427.44 165.40,427.57 165.74,427.79 166.07,427.82 166.41,427.82 166.74,427.73 167.08,427.62 167.41,427.57 167.75,427.78 168.08,427.78 168.42,427.78 168.75,427.78 169.09,428.10 169.42,428.04 169.76,427.94 170.09,428.04 170.43,427.89 170.76,427.98 171.10,427.97 171.43,428.07 171.77,428.07 172.10,428.34 172.44,428.24 172.77,428.37 173.11,428.37 173.44,428.37 173.78,428.43 174.11,428.21 174.45,428.08 174.78,428.20 175.12,428.15 175.45,428.19 175.79,428.23 176.12,428.29 176.46,428.21 176.79,428.48 177.13,428.48 177.46,428.59 177.80,428.65 178.13,428.70 178.47,428.56 178.80,428.59 179.14,428.70 179.47,428.81 179.81,428.49 180.14,428.06 180.48,427.62 180.81,427.25 181.15,426.78 181.48,426.48 181.82,426.14 182.15,425.73 182.49,425.22 182.82,424.86 183.16,424.88 183.49,424.50 183.83,424.07 184.16,423.79 184.50,423.38 184.83,422.98 185.17,422.50 185.50,422.01 185.84,421.52 186.17,421.01 186.51,420.69 186.84,420.37 187.18,420.14 187.51,419.76 187.85,419.49 188.18,419.17 188.52,418.85 188.85,418.44 189.19,418.12 189.52,417.70 189.86,417.34 190.19,416.95 190.53,416.55 190.86,416.06 191.20,415.63 191.53,415.26 191.87,414.83 192.20,414.40 192.54,414.13 192.87,413.91 193.21,413.59 193.54,413.10 193.88,412.62 194.21,412.28 194.55,411.96 194.88,411.68 195.22,411.25 195.55,410.81 195.89,410.50 196.22,410.21 196.56,409.73 196.89,409.57 197.23,409.12 197.56,408.76 197.90,408.33 198.23,407.95 198.57,407.47 198.90,407.20 199.24,406.93 199.57,406.71 199.91,406.36 200.24,406.09 200.58,405.62 200.91,405.24 201.25,404.76 201.58,404.38 201.92,403.91 202.25,403.44 202.59,403.18 202.92,402.80 203.26,402.43 203.59,402.00 203.93,401.70 204.26,401.38 204.60,400.95 204.93,400.47 205.27,400.09 205.60,399.71 205.94,399.50 206.27,399.01 206.61,398.69 206.94,398.20 207.28,398.31 207.61,398.16 207.95,398.27 208.28,398.22 208.62,398.17 208.95,398.39 209.29,398.55 209.62,398.44 209.96,398.54 210.29,398.59 210.63,398.59 210.96,398.81 211.30,398.92 211.63,398.97 211.97,399.08 212.30,399.46 212.64,399.51 212.97,399.41 213.31,399.49 213.64,399.68 213.98,399.65 214.31,399.81 214.65,400.03 214.98,400.52 215.32,400.57 215.65,400.54 215.99,400.68 216.32,400.84 216.66,400.95 216.99,401.11 217.33,400.97 217.66,400.86 218.00,400.82 218.33,400.71 218.67,400.69 219.00,400.80 219.34,400.84 219.67,400.85 220.01,400.78 220.34,400.78 220.68,400.69 221.01,400.79 221.35,400.63 221.68,400.53 222.02,400.58 222.35,400.32 222.69,400.32 223.02,400.37 223.36,400.54 223.69,400.49 224.03,400.74 224.36,400.54 224.70,400.43 225.03,400.60 225.37,400.70 225.70,400.60 226.04,400.39 226.37,400.43 226.71,400.75 227.04,400.69 227.38,400.70 227.71,400.72 228.05,400.23 228.38,399.83 228.72,399.61 229.05,399.29 229.39,399.24 229.72,399.24 230.06,399.35 230.39,399.45 230.73,399.38 231.06,399.27 231.40,399.39 231.73,399.34 232.07,399.15 232.40,399.20 232.74,399.22 233.07,399.15 233.41,399.21 233.74,399.15 234.08,398.97 234.41,399.07 234.75,398.82 235.08,398.60 235.42,398.33 235.75,398.06 236.09,397.79 236.42,397.79 236.76,397.53 237.09,397.10 237.43,396.78 237.76,396.41 238.10,396.41 238.43,396.11 238.77,395.73 239.10,395.46 239.44,395.11 239.77,394.76 240.11,394.66 240.44,394.33 240.78,394.01 241.11,393.69 241.45,393.58 241.78,393.18 242.12,392.77 242.45,392.56 242.79,392.25 243.12,392.46 243.46,392.22 243.79,392.22 244.13,392.29 244.46,392.04 244.80,391.72 245.13,391.71 245.47,391.72 245.80,391.66 246.14,391.85 246.47,391.84 246.81,391.89 247.14,391.95 247.48,391.95 247.81,392.00 248.15,391.85 248.48,391.92 248.82,391.92 249.15,391.70 249.49,391.61 249.82,391.39 250.16,391.39 250.49,391.39 250.83,391.58 251.16,391.58 251.50,391.48 251.83,391.25 252.17,391.09 252.50,390.71 252.84,390.38 253.17,390.05 253.51,389.49 253.84,389.19 254.18,389.05 254.51,388.75 254.85,388.33 255.18,387.96 255.52,387.53 255.85,387.26 256.19,386.96 256.52,386.67 256.86,386.21 257.19,385.72 257.53,385.35 257.86,384.87 258.20,384.44 258.53,383.96 258.87,383.69 259.20,383.20 259.54,382.88 259.87,382.42 260.21,381.93 260.54,381.56 260.88,381.13 261.21,380.81 261.55,380.58 261.88,380.25 262.22,379.82 262.55,379.45 262.89,378.96 263.22,378.64 263.56,378.31 263.89,378.07 264.23,377.59 264.56,377.11 264.90,376.62 265.23,376.35 265.57,375.98 265.90,375.55 266.24,375.01 266.57,374.69 266.91,374.29 267.24,373.86 267.58,373.59 267.91,373.20 268.25,372.77 268.58,372.45 268.92,372.07 269.25,371.65 269.59,371.43 269.92,371.13 270.26,370.87 270.59,370.54 270.93,370.17 271.26,369.86 271.60,369.48 271.93,369.05 272.27,368.66 272.60,368.37 272.94,367.99 273.27,367.68 273.61,367.22 273.94,366.85 274.28,366.61 274.61,366.25 274.95,365.90 275.28,365.49 275.62,365.15 275.95,364.89 276.29,364.46 276.62,363.98 276.96,363.71 277.29,363.38 277.63,363.01 277.96,362.68 278.30,362.25 278.63,361.95 278.97,361.52 279.30,361.20 279.64,361.36 279.97,361.43 280.31,361.43 280.64,361.32 280.98,361.43 281.31,361.35 281.65,361.00 281.98,360.68 282.32,360.36 282.65,360.25 282.99,360.24 283.32,360.35 283.66,360.14 283.99,359.93 284.33,359.82 284.66,359.89 285.00,360.08 285.33,360.24 285.67,360.24 286.00,360.19 286.34,360.26 286.67,360.23 287.01,360.15 287.34,360.15 287.68,359.99 288.01,360.02 288.35,360.13 288.68,360.45 289.02,360.72 289.35,360.70 289.69,360.59 290.02,360.54 290.36,360.65 290.69,360.62 291.03,360.60 291.36,360.65 291.70,360.92 292.03,361.29 292.37,361.56 292.70,361.67 293.04,361.67 293.37,361.73 293.71,361.73 294.04,361.80 294.38,361.81 294.71,361.87 295.05,361.80 295.38,361.85 295.72,361.74 296.05,361.85 296.39,361.96 296.72,362.12 297.06,362.23 297.39,362.28 297.73,362.34 298.06,362.12 298.40,362.07 298.73,362.07 299.07,362.15 299.40,362.15 299.74,361.98 300.07,362.19 300.41,362.01 300.74,361.79 301.08,361.66 301.41,361.77 301.75,361.50 302.08,361.39 302.42,361.40 302.75,361.50 303.09,361.50 303.42,361.48 303.76,361.33 304.09,361.33 304.43,361.29 304.76,361.31 305.10,361.20 305.43,361.10 305.77,360.93 306.10,361.15 306.44,361.28 306.77,361.45 307.11,361.71 307.44,362.15 307.78,362.58 308.11,362.92 308.45,363.30 308.78,363.67 309.12,364.11 309.45,364.07 309.79,364.07 310.12,364.13 310.46,364.46 310.79,364.83 311.13,365.18 311.46,365.61 311.80,365.94 312.13,366.21 312.47,366.64 312.80,366.96 313.14,367.28 313.47,367.73 313.81,367.98 314.14,368.25 314.48,368.74 314.81,369.17 315.15,369.54 315.48,370.03 315.82,370.35 316.15,370.73 316.49,371.20 316.82,371.54 317.16,371.76 317.49,372.18 317.83,372.53 318.16,373.06 318.50,373.38 318.83,373.76 319.17,374.18 319.50,374.46 319.84,374.66 320.17,374.50 320.51,374.61 320.84,374.66 321.18,374.72 321.51,374.51 321.85,374.56 322.18,374.50 322.52,374.38 322.85,374.49 323.19,374.43 323.52,374.35 323.86,374.35 324.19,374.17 324.53,374.17 324.86,373.74 325.20,373.29 325.53,372.75 325.87,372.42 326.20,372.05 326.54,371.56 326.87,371.13 327.21,370.70 327.54,370.36 327.88,369.88 328.21,369.39 328.55,368.96 328.88,368.64 329.22,368.32 329.55,367.94 329.89,367.62 330.22,367.62 330.56,367.46 330.89,367.61 331.23,367.50 331.56,367.60 331.90,367.55 332.23,367.44 332.57,367.17 332.90,366.83 333.24,366.61 333.57,366.45 333.91,366.30 334.24,366.21 334.58,366.16 334.91,366.05 335.25,366.12 335.58,365.63 335.92,365.26 336.25,364.89 336.59,364.67 336.92,364.13 337.26,363.76 337.59,363.38 337.93,363.16 338.26,362.84 338.60,362.62 338.93,362.36 339.27,362.03 339.60,361.71 339.94,361.28 340.27,360.85 340.61,360.56 340.94,360.19 341.28,359.75 341.61,359.22 341.95,358.89 342.28,358.52 342.62,358.03 342.95,357.71 343.29,357.33 343.62,357.06 343.96,356.74 344.29,356.47 344.63,356.13 344.96,355.70 345.30,355.27 345.63,354.95 345.97,354.52 346.30,354.22 346.64,353.73 346.97,353.36 347.31,353.03 347.64,352.60 347.98,352.23 348.31,351.85 348.65,351.37 348.98,350.99 349.32,350.74 349.65,350.20 349.99,349.88 350.32,349.50 350.66,349.11 350.99,348.79 351.33,348.36 351.66,347.90 352.00,347.47 352.33,347.14 352.67,346.68 353.00,346.41 353.34,345.98 353.67,345.62 354.01,345.20 354.34,344.71 354.68,344.34 355.01,343.91 355.35,343.37 355.68,342.99 356.02,342.51 356.35,342.10 356.69,341.61 357.02,341.35 357.36,340.87 357.69,340.44 358.03,340.06 358.36,339.74 358.70,339.36 359.03,339.09 359.37,338.71 359.70,338.37 360.04,338.12 360.37,337.72 360.71,337.39 361.04,337.01 361.38,336.74 361.71,336.31 362.05,336.04 362.38,335.61 362.72,335.40 363.05,334.96 363.39,334.53 363.72,334.22 364.06,333.73 364.39,333.46 364.73,333.11 365.06,332.68 365.40,332.40 365.73,332.06 366.07,331.60 366.40,331.38 366.74,331.06 367.07,330.68 367.41,330.31 367.74,330.08 368.08,329.74 368.41,329.42 368.75,329.04 369.08,328.67 369.42,328.34 369.75,327.86 370.09,327.44 370.42,327.03 370.76,326.59 371.09,326.32 371.43,325.84 371.76,325.25 372.10,324.87 372.43,324.42 372.77,323.93 373.10,323.56 373.44,323.23 373.77,322.93 374.11,322.62 374.44,322.13 374.78,321.74 375.11,321.30 375.45,321.09 375.78,320.73 376.12,320.24 376.45,319.82 376.79,319.34 377.12,319.02 377.46,318.48 377.79,318.11 378.13,317.79 378.46,317.42 378.80,317.03 379.13,316.77 379.47,316.23 379.80,315.90 380.14,315.45 380.47,315.09 380.81,314.74 381.14,314.36 381.48,313.97 381.81,313.59 382.15,313.27 382.48,312.74 382.82,312.52 383.15,312.13 383.49,311.70 383.82,311.32 384.16,310.89 384.49,310.57 384.83,310.34 385.16,309.91 385.50,309.48 385.83,309.21 386.17,308.83 386.50,308.52 386.84,308.04 387.17,307.55 387.51,307.20 387.84,306.87 388.18,306.62 388.51,306.24 388.85,305.97 389.18,305.70 389.52,305.38 389.85,304.95 390.19,304.62 390.52,304.19 390.86,303.77 391.19,303.28 391.53,302.74 391.86,302.36 392.20,301.99 392.53,301.50 392.87,301.18 393.20,300.59 393.54,300.26 393.87,299.99 394.21,299.63 394.54,299.15 394.88,298.88 395.21,298.50 395.55,298.07 395.88,297.75 396.22,297.32 396.55,297.08 396.89,296.70 397.22,296.43 397.56,296.06 397.89,295.64 398.23,295.33 398.56,294.97 398.90,294.49 399.23,294.06 399.57,293.54 399.90,293.16 400.24,292.68 400.57,292.35 400.91,291.94 401.24,291.67 401.58,291.32 401.91,290.94 402.25,290.64 402.58,290.23 402.92,289.85 403.25,289.57 403.59,289.31 403.92,288.98 404.26,288.63 404.59,288.20 404.93,287.87 405.26,287.30 405.60,286.93 405.93,286.49 406.27,286.13 406.60,285.71 406.94,285.28 407.27,284.91 407.61,284.48 407.94,283.99 408.28,283.56 408.61,283.13 408.95,282.75 409.28,282.48 409.62,282.00 409.95,281.59 410.29,281.17 410.62,280.81 410.96,280.42 411.29,280.23 411.63,279.72 411.96,279.34 412.30,278.94 412.63,278.62 412.97,278.35 413.30,277.97 413.64,277.49 413.97,277.07 414.31,276.76 414.64,276.33 414.98,275.95 415.31,275.68 415.65,275.20 415.98,274.82 416.32,274.50 416.65,274.12 416.99,273.69 417.32,273.36 417.66,272.93 417.99,272.61 418.33,272.12 418.66,271.75 419.00,271.37 419.33,270.89 419.67,270.35 420.00,270.02 420.34,269.74 420.67,269.42 421.01,268.98 421.34,268.77 421.68,268.33 422.01,268.11 422.35,267.79 422.68,267.30 423.02,267.04 423.35,266.77 423.69,266.33 424.02,265.95 424.36,265.49 424.69,265.17 425.03,264.79 425.36,264.40 425.70,264.14 426.03,263.93 426.37,263.44 426.70,263.17 427.04,262.80 427.37,262.42 427.71,261.95 428.04,261.58 428.38,261.12 428.71,260.65 429.05,260.28 429.38,259.90 429.72,259.58 430.05,259.28 430.39,258.95 430.72,258.47 431.06,258.04 431.39,257.61 431.73,257.16 432.06,256.87 432.40,256.38 432.73,255.99 433.07,255.56 433.40,255.06 433.74,254.79 434.07,254.25 434.41,253.80 434.74,253.47 435.08,253.04 435.41,252.56 435.75,252.07 436.08,251.53 436.42,251.10 436.75,250.67 437.09,250.24 437.42,249.78 437.76,249.40 438.09,248.95 438.43,248.63 438.76,248.20 439.10,247.88 439.43,247.45 439.77,247.12 440.10,246.75 440.44,246.33 440.77,246.12 441.11,245.63 441.44,245.20 441.78,244.81 442.11,244.38 442.45,243.93 442.78,243.50 443.12,243.07 443.45,242.69 443.79,242.26 444.12,241.94 444.46,241.62 444.79,241.62 445.13,241.67 445.46,241.64 445.80,241.74 446.13,241.59 446.47,241.70 446.80,241.75 447.14,241.75 447.47,241.64 447.81,241.64 448.14,241.59 448.48,241.57 448.81,241.46 449.15,241.30 449.48,241.25 449.82,241.09 450.15,241.00 450.49,240.57 450.82,240.14 451.16,239.90 451.49,239.42 451.83,239.41 452.16,239.47 452.50,239.63 452.83,239.68 453.17,239.63 453.50,239.52 453.84,239.49 454.17,239.43 454.51,239.38 454.84,239.52 455.18,239.68 455.51,239.59 455.85,239.38 456.18,239.56 456.52,239.32 456.85,239.27 457.19,238.92 457.52,238.98 457.86,239.10 458.19,239.20 458.53,239.36 458.86,239.35 459.20,239.29 459.53,239.56 459.87,239.83 460.20,239.84 460.54,239.74 460.87,239.74 461.21,239.79 461.54,239.65 461.88,239.62 462.21,239.73 462.55,239.89 462.88,239.82 463.22,239.68 463.55,239.57 463.89,239.64 464.22,239.46 464.56,239.32 464.89,239.45 465.23,238.91 465.56,238.61 465.90,238.15 466.23,237.72 466.57,237.33 466.90,237.08 467.24,236.59 467.57,236.34 467.91,235.85 468.24,235.42 468.58,235.05 468.91,234.83 469.25,234.45 469.58,234.11 469.92,233.73 470.25,233.30 470.59,232.98 470.92,232.55 471.26,232.22 471.59,231.79 471.93,231.47 472.26,231.09 472.60,230.77 472.93,230.34 473.27,230.03 473.60,229.60 473.94,229.23 474.27,228.80 474.61,228.36 474.94,227.93 475.28,227.56 475.61,227.29 475.95,226.91 476.28,226.48 476.62,226.05 476.95,225.67 477.29,225.35 477.62,225.01 477.96,224.79 478.29,224.53 478.63,224.18 478.96,223.80 479.30,223.53 479.63,223.16 479.97,222.83 480.30,222.40 480.64,221.97 480.97,221.65 481.31,221.35 481.64,220.87 481.98,220.52 482.31,220.08 482.65,219.71 482.98,219.33 483.32,218.95 483.65,218.55 483.99,218.27 484.32,217.90 484.66,217.47 484.99,217.25 485.33,216.98 485.66,216.82 486.00,216.39 486.33,216.09 486.67,215.56 487.00,215.13 487.34,214.78 487.67,214.35 488.01,213.97 488.34,213.65 488.68,213.13 489.01,212.81 489.35,212.38 489.68,211.86 490.02,211.53 490.35,211.10 490.69,210.69 491.02,210.31 491.36,209.80 491.69,209.42 492.03,209.05 492.36,208.73 492.70,208.31 493.03,207.98 493.37,207.55 493.70,207.23 494.04,206.85 494.37,206.45 494.71,206.07 495.04,205.70 495.38,205.43 495.71,205.16 496.05,204.89 496.38,204.51 496.72,204.31 497.05,203.83 497.39,203.45 497.72,202.91 498.06,202.37 498.39,202.03 498.73,201.71 499.06,201.33 499.40,200.90 499.73,200.47 500.07,200.15 500.40,199.82 500.74,199.39 501.07,198.98 501.41,198.65 501.74,198.33 502.08,198.04 502.41,197.62 502.75,197.23 503.08,196.76 503.42,196.42 503.75,196.10 504.09,195.83 504.42,195.46 504.76,195.13 505.09,194.86 505.43,194.49 505.76,194.04 506.10,193.61 506.43,193.24 506.77,192.76 507.10,192.38 507.44,191.90 507.77,191.57 508.11,191.09 508.44,190.77 508.78,190.53 509.11,190.16 509.45,189.78 509.78,189.25 510.12,188.87 510.45,188.39 510.79,188.06 511.12,187.85 511.46,187.36 511.79,186.88 512.13,186.63 512.46,186.31 512.80,185.93 513.13,185.55 513.47,185.12 513.80,184.69 514.14,184.38 514.47,184.16 514.81,183.74 515.14,183.39 515.48,183.07 515.81,182.63 516.15,182.26 516.48,181.83 516.82,181.43 517.15,181.00 517.49,180.68 517.82,180.35 518.16,180.02 518.49,179.59 518.83,179.11 519.16,178.73 519.50,178.35 519.83,178.03 520.17,177.65 520.50,177.28 520.84,176.95 521.17,176.47 521.51,175.96 521.84,175.59 522.18,175.17 522.51,174.85 522.85,174.53 523.18,174.26 523.52,173.92 523.85,173.55 524.19,173.12 524.52,172.64 524.86,172.15 525.19,171.67 525.53,171.38 525.86,170.89 526.20,170.54 526.53,170.11 526.87,169.84 527.20,169.41 527.54,169.02 527.87,168.59 528.21,168.16 528.54,167.71 528.88,167.33 529.21,166.98 529.55,166.43 529.88,165.93 530.22,165.67 530.55,165.24 530.89,164.89 531.22,164.62 531.56,164.35 531.89,163.83 532.23,163.49 532.56,163.11 532.90,162.60 533.23,162.12 533.57,161.79 533.90,161.50 534.24,161.17 534.57,160.69 534.91,160.37 535.24,159.99 535.58,159.56 535.91,159.18 536.25,158.75 536.58,158.25 536.92,157.82 537.25,157.50 537.59,157.06 537.92,156.74 538.26,156.31 538.59,155.93 538.93,155.55 539.26,155.17 539.60,154.69 539.93,154.26 540.27,154.15 540.60,153.83 540.94,153.45 541.27,153.18 541.61,153.02 541.94,152.54 542.28,152.21 542.61,151.94 542.95,151.66 543.28,151.29 543.62,151.07 543.95,150.75 544.29,150.43 544.62,149.94 544.96,149.56 545.29,149.19 545.63,148.76 545.96,148.49 546.30,148.00 546.63,147.65 546.97,147.32 547.30,146.84 547.64,146.52 547.97,146.03 548.31,145.65 548.64,145.12 548.98,144.69 549.31,144.26 549.65,143.78 549.98,143.40 550.32,143.01 550.65,142.63 550.99,142.39 551.32,142.03 551.66,141.54 551.99,141.14 552.33,140.76 552.66,140.46 553.00,139.98 553.33,139.60 553.67,139.12 554.00,138.70 554.34,138.19 554.67,137.90 555.01,137.41 555.34,136.93 555.68,136.61 556.01,136.29 556.35,135.97 556.68,135.59 557.02,135.10 557.35,134.67 557.69,134.10 558.02,133.83 558.36,133.45 558.69,133.02 559.03,132.65 559.36,132.22 559.70,131.89 560.03,131.50 560.37,131.02 560.70,130.59 561.04,130.21 561.37,129.89 561.71,129.59 562.04,129.11 562.38,128.87 562.71,128.52 563.05,128.16 563.38,127.94 563.72,127.51 564.05,127.10 564.39,126.72 564.72,126.24 565.06,125.92 565.39,125.49 565.73,125.19 566.06,124.92 566.40,124.47 566.73,124.11 567.07,123.68 567.40,123.32 567.74,122.86 568.07,122.54 568.41,122.29 568.74,121.90 569.08,121.44 569.41,121.06 569.75,120.63 570.08,120.24 570.42,119.83 570.75,119.37 571.09,119.00 571.42,118.51 571.76,118.13 572.09,117.69 572.43,117.35 572.76,117.09 573.10,116.65 573.43,116.22 573.77,115.79 574.10,115.43 574.44,115.09 574.77,114.71 575.11,114.39 575.44,113.96 575.78,113.53 576.11,113.26 576.45,112.77 576.78,112.34 577.12,111.91 577.45,111.63 577.79,111.17 578.12,110.84 578.46,110.52 578.79,110.14 579.13,109.71 579.46,109.23 579.80,108.96 580.13,108.48 580.47,107.94 580.80,107.61 581.14,107.34 581.47,106.91 581.81,106.48 582.14,106.11 582.48,105.68 582.81,105.35 583.15,104.98 583.48,104.55 583.82,104.11 584.15,103.73 584.49,103.51 584.82,103.15 585.16,102.72 585.49,102.29 585.83,101.91 586.16,101.70 586.50,101.16 586.83,100.68 587.17,100.30 587.50,99.93 587.84,99.60 588.17,99.18 588.51,98.75 588.84,98.48 589.18,97.99 589.51,97.73 589.85,97.38 590.18,97.05 590.52,96.62 590.85,96.30 591.19,95.87 591.52,95.49 591.86,95.15 592.19,94.77 592.53,94.40 592.86,93.96 593.20,93.59 593.53,93.16 593.87,92.73 594.20,92.35 594.54,92.03 594.87,91.70 595.21,91.67 595.54,91.72 595.88,91.57 596.21,91.75 596.55,91.86 596.88,91.87 597.22,91.82 597.55,92.00 597.89,92.06 598.22,92.11 598.56,92.11 598.89,92.06 599.23,91.98 599.56,92.06 599.90,92.05 600.23,91.89 600.57,91.94 600.90,91.94 601.24,92.05 601.57,92.03 601.91,91.86 602.24,91.86 602.58,91.86 602.91,91.92 603.25,91.95 603.58,92.04 603.92,92.16 604.25,92.10 604.59,92.07 604.92,91.97 605.26,92.02 605.59,91.96 605.93,91.80 606.26,91.77 606.60,91.88 606.93,91.73 607.27,91.62 607.60,91.68 607.94,91.58 608.27,91.62 608.61,91.67 608.94,91.78 609.28,91.82 609.61,91.74 609.95,91.71 610.28,91.92 610.62,91.92 610.95,91.98 611.29,91.87 611.62,91.98 611.96,92.09 612.29,92.19 612.63,92.19 612.96,92.21 613.30,92.05 613.63,91.86 613.97,91.86 614.30,91.82 614.64,91.92 614.97,91.86 615.31,91.95 615.64,91.98 615.98,91.89 616.31,91.96 616.65,91.96 616.98,92.07 617.32,92.07 617.65,92.05 617.99,92.21 618.32,92.16 618.66,92.27 618.99,92.06 619.33,92.23 619.66,92.18 620.00,92.14 620.33,92.15 620.67,91.93 621.00,91.94 621.34,91.83 621.67,91.93 622.01,91.83 622.34,91.83 622.68,91.83 623.01,91.72 623.35,91.78 623.68,91.66 624.02,91.44 624.35,91.34 624.69,91.37 625.02,91.37 625.36,91.53 625.69,91.53 626.03,91.42 626.36,91.48 626.70,91.34 627.03,90.90 627.37,90.74 627.70,90.85 628.04,90.96 628.37,91.14 628.71,91.25 629.04,90.92 629.38,90.76 629.71,90.59 630.05,90.27 630.38,90.01 630.72,89.63 631.05,89.31 631.39,88.93 631.72,88.45 632.06,88.18 632.39,87.85 632.73,87.58 633.06,87.21 633.40,86.67 633.73,86.30 634.07,86.11 634.40,86.03 634.74,86.03 635.07,86.00 635.41,85.95 635.74,86.10 636.08,86.00 636.41,85.80 636.75,85.73 637.08,85.77 637.42,85.69 637.75,85.69 638.09,85.50 638.42,85.51 638.76,85.38 639.09,85.35 639.43,85.44 639.76,85.73 640.10,85.75 640.43,85.82 640.77,85.53 641.10,85.53 641.44,85.91 641.77,86.22 642.11,86.76 642.44,86.97 642.78,87.19 643.11,87.63 643.45,88.17 643.78,88.49 644.12,88.74 644.45,88.92 644.79,89.14 645.12,89.32 645.46,89.69 645.79,90.07 646.13,90.51 646.46,90.94 646.80,91.21 647.13,91.64 647.47,92.03 647.80,92.46 648.14,92.73 648.47,93.00 648.81,93.26 649.14,93.59 649.48,93.94 649.81,94.29 650.15,94.68 650.48,94.86 650.82,95.28 651.15,95.61 651.49,95.98 651.82,96.41 652.16,96.78 652.49,97.32 652.83,97.80 653.16,98.02 653.50,98.49 653.83,98.86 654.17,99.30 654.50,99.24 654.84,99.46 655.17,99.41 655.51,99.62 655.84,99.46 656.18,99.35 656.51,99.26 656.85,99.28 657.18,99.23 657.52,99.29 657.85,99.40 658.19,99.46 658.52,99.30 658.86,99.30 659.19,99.40 659.53,99.40 659.86,99.45 660.20,99.26 660.53,99.19 660.87,98.86 661.20,98.93 661.54,98.56 661.87,98.23 662.21,97.86 662.54,97.59 662.88,97.21 663.21,97.10 663.55,96.73 663.88,96.46 664.22,96.03 664.55,95.81 664.89,95.49 665.22,95.01 665.56,94.56 665.89,94.13 666.23,93.70 666.56,93.32 666.90,92.89 667.23,92.46 667.57,91.92 667.90,91.50 668.24,91.02 668.57,90.64 668.91,90.43 669.24,90.05 669.58,89.64 669.91,89.10 670.25,88.77 670.58,88.34 670.92,88.24 671.25,87.97 671.59,87.71 671.92,87.28 672.26,86.85 672.59,86.37 672.93,85.99 673.26,85.67 673.60,85.29 673.93,85.02 674.27,84.54 674.60,84.35 674.94,83.97 675.27,83.49 675.61,83.19 675.94,82.87 676.28,82.54 676.61,82.44 676.95,82.17 677.28,81.78 677.62,81.35 677.95,81.01 678.29,80.65 678.62,80.38 678.96,79.84 679.29,79.51 679.63,79.19 679.96,78.92 680.30,78.52 680.63,78.25 680.97,77.82 681.30,77.43 681.64,77.43 681.97,77.43 682.31,77.23 682.64,77.18 682.98,77.03 683.31,76.98 683.65,76.92 683.98,76.61 684.32,76.66 684.65,76.77 684.99,76.66 685.32,76.83 685.66,76.77 685.99,76.50 686.33,76.14 686.66,75.65 687.00,75.24 687.33,74.97 687.67,74.48 688.00,74.21 688.34,73.84 688.67,73.46 689.01,73.35 689.34,73.30 689.68,73.29 690.01,73.34 690.35,73.17 690.68,73.12 691.02,73.06 691.35,73.06 691.69,73.11 692.02,72.63 692.36,72.30 692.69,72.03 693.03,71.85 693.36,71.88 693.70,71.92 694.03,71.84 694.37,72.02 694.70,71.86 695.04,72.02 695.37,71.99 695.71,72.04 696.04,72.15 696.38,71.88 696.71,71.67 697.05,71.82 697.38,71.70 697.72,71.86 698.05,72.02 698.39,72.00 698.72,71.94 699.06,71.89 699.39,71.85 699.73,71.78 700.06,71.68 700.40,71.52 700.73,71.73 701.07,72.06 701.40,72.16 701.74,72.70 702.07,73.13 702.41,73.41 702.74,73.62 703.08,73.56 703.41,73.56 703.75,73.51 704.08,73.51 704.42,73.62 704.75,73.62 705.09,73.40 705.42,73.30 705.76,73.43 706.09,73.39 706.43,73.28 706.76,73.46 707.10,73.66 707.43,73.82 707.77,73.80 708.10,73.90 708.44,73.67 708.77,73.65 709.11,73.74 709.44,73.95 709.78,73.92 710.11,74.00 710.45,74.05 710.78,74.03 711.12,73.92 711.45,73.60 711.79,73.65 712.12,73.86 712.46,73.92 712.79,73.78 713.13,73.83 713.46,73.94 713.80,73.85 714.13,73.82 714.47,73.66 714.80,73.71 715.14,73.90 715.47,74.04 715.81,73.95 716.14,73.92 716.48,73.87 716.81,73.87 717.15,73.82 717.48,73.96 717.82,74.18 718.15,74.12 718.49,74.44 718.82,74.87 719.16,75.25 719.49,75.68 719.83,75.91 720.16,76.45 720.50,76.93 720.83,77.31 721.17,77.73 721.50,78.16 721.84,78.64 722.17,79.02 722.51,79.29 722.84,79.56 723.18,80.04 723.51,80.47 723.85,80.84 724.18,81.05 724.52,81.54 724.85,81.97 725.19,82.45 725.52,82.88 725.86,83.26 726.19,83.58 726.53,83.91 726.86,84.34 727.20,84.66 727.53,84.82 727.87,85.09 728.20,85.52 728.54,85.86 728.87,86.36 729.21,86.64 729.54,87.08 729.88,87.37 730.21,87.75 730.55,88.23 730.88,88.66 731.22,89.06 731.55,89.44 731.89,89.92 732.22,90.34 732.56,90.68 732.89,91.00 733.23,91.43 733.56,91.85 733.90,92.34 734.23,92.39 734.57,92.77 734.90,93.06 735.24,93.50 735.57,93.93 735.91,94.25 736.24,94.57 736.58,95.06 736.91,95.52 737.25,95.78 737.58,96.11 737.92,96.46 738.25,96.85 738.59,97.17 738.92,97.44 739.26,97.88 739.59,98.26 739.93,98.59 740.26,99.07 740.60,99.28 740.93,99.66 741.27,99.71 741.60,99.87 741.94,100.30 742.27,100.63 742.61,100.91 742.94,101.29 743.28,101.78 743.61,102.12 743.95,102.45 744.28,102.77 744.62,102.71 744.95,103.04 745.29,103.47 745.62,103.90 745.96,104.40 746.29,104.78 746.63,105.29 746.96,105.62 747.30,106.02 747.63,106.45 747.97,106.83 748.30,107.31 748.64,107.64 748.97,107.85 749.31,108.23 749.64,108.66 749.98,108.90 750.31,109.28 750.65,109.17 750.98,109.55 751.32,109.87 751.65,110.41 751.99,110.84 752.32,111.22 752.66,111.70 752.99,112.08 753.33,112.56 753.66,112.92 754.00,113.09 754.33,113.47 754.67,113.47 755.00,113.39"/>
<line x1="783" y1="58" x2="809" y2="58" stroke="#2563eb" stroke-width="3"/>
<text x="817" y="62" font-family="Arial" font-size="13" fill="#111827">Naive</text>
<polyline fill="none" stroke="#dc2626" stroke-width="2" points="85.00,438.35 85.34,438.38 85.67,438.27 86.01,438.38 86.34,438.56 86.68,438.42 87.01,438.34 87.35,438.37 87.68,438.26 88.02,438.39 88.35,438.36 88.69,438.46 89.02,438.69 89.36,438.80 89.69,438.85 90.03,438.69 90.36,438.72 90.70,439.02 91.03,439.08 91.37,439.35 91.70,439.29 92.04,439.45 92.37,439.62 92.71,439.51 93.04,439.57 93.38,439.63 93.71,439.70 94.05,439.86 94.38,439.84 94.72,439.74 95.05,439.62 95.39,439.69 95.72,439.48 96.06,439.53 96.39,439.66 96.73,439.83 97.06,439.84 97.40,439.99 97.73,440.04 98.07,439.94 98.40,439.77 98.74,439.77 99.07,439.81 99.41,439.86 99.74,439.93 100.08,439.82 100.41,439.99 100.75,439.83 101.08,439.82 101.42,439.71 101.75,439.77 102.09,439.93 102.42,440.08 102.76,440.13 103.09,440.10 103.43,440.15 103.76,440.18 104.10,440.14 104.43,440.14 104.77,440.25 105.10,440.32 105.44,440.25 105.77,440.10 106.11,440.15 106.44,440.10 106.78,440.11 107.11,440.00 107.45,440.17 107.78,439.93 108.12,439.77 108.45,439.40 108.79,438.96 109.12,438.91 109.46,438.96 109.79,439.02 110.13,439.22 110.46,439.17 110.80,439.12 111.13,439.20 111.47,439.09 111.80,439.25 112.14,439.20 112.47,439.36 112.81,439.30 113.14,439.37 113.48,439.45 113.81,439.40 114.15,439.34 114.48,439.24 114.82,439.24 115.15,439.51 115.49,439.40 115.82,439.31 116.16,439.29 116.49,439.14 116.83,439.07 117.16,438.98 117.50,438.83 117.83,438.51 118.17,438.08 118.50,437.81 118.84,437.32 119.17,436.95 119.51,436.58 119.84,436.42 120.18,436.42 120.51,436.20 120.85,436.22 121.18,436.20 121.52,436.20 121.85,436.20 122.19,436.23 122.52,436.34 122.86,436.31 123.19,436.31 123.53,436.26 123.86,436.04 124.20,435.88 124.53,435.95 124.87,436.06 125.20,436.11 125.54,436.16 125.87,436.37 126.21,436.14 126.54,436.30 126.88,436.24 127.21,436.22 127.55,436.01 127.88,436.10 128.22,436.12 128.55,436.18 128.89,436.23 129.22,436.23 129.56,436.07 129.89,435.93 130.23,435.77 130.56,435.66 130.90,435.61 131.23,435.53 131.57,435.58 131.90,435.53 132.24,435.31 132.57,435.44 132.91,435.50 133.24,435.50 133.58,435.69 133.91,435.59 134.25,435.70 134.58,435.65 134.92,435.49 135.25,435.49 135.59,435.50 135.92,435.50 136.26,435.63 136.59,435.52 136.93,435.49 137.26,435.49 137.60,435.37 137.93,435.27 138.27,435.25 138.60,435.04 138.94,434.99 139.27,434.97 139.61,434.89 139.94,434.80 140.28,434.62 140.61,434.62 140.95,434.51 141.28,434.48 141.62,434.54 141.95,434.59 142.29,434.72 142.62,434.72 142.96,434.51 143.29,434.24 143.63,433.86 143.96,433.53 144.30,433.10 144.63,432.83 144.97,432.65 145.30,432.60 145.64,432.81 145.97,432.90 146.31,432.96 146.64,432.90 146.98,432.90 147.31,433.17 147.65,433.27 147.98,433.26 148.32,433.36 148.65,433.63 148.99,433.37 149.32,432.94 149.66,432.66 149.99,432.34 150.33,432.02 150.66,431.75 151.00,431.76 151.33,431.87 151.67,431.38 152.00,430.97 152.34,430.70 152.67,430.70 153.01,430.49 153.34,430.54 153.68,430.60 154.01,430.60 154.35,430.45 154.68,430.47 155.02,430.63 155.35,430.52 155.69,430.58 156.02,430.63 156.36,430.36 156.69,430.41 157.03,430.41 157.36,430.33 157.70,430.44 158.03,430.54 158.37,430.38 158.70,430.38 159.04,430.41 159.37,430.40 159.71,430.46 160.04,430.24 160.38,430.27 160.71,430.40 161.05,430.03 161.38,429.70 161.72,429.55 162.05,429.61 162.39,429.81 162.72,429.81 163.06,429.86 163.39,429.67 163.73,429.56 164.06,429.19 164.40,429.04 164.73,428.96 165.07,429.12 165.40,429.26 165.74,429.48 166.07,429.51 166.41,429.51 166.74,429.41 167.08,429.30 167.41,429.30 167.75,429.52 168.08,429.52 168.42,429.51 168.75,429.51 169.09,429.84 169.42,429.78 169.76,429.68 170.09,429.78 170.43,429.63 170.76,429.72 171.10,429.71 171.43,429.81 171.77,429.81 172.10,430.07 172.44,429.98 172.77,430.11 173.11,430.11 173.44,430.11 173.78,430.17 174.11,429.95 174.45,429.82 174.78,429.94 175.12,429.89 175.45,429.93 175.79,429.97 176.12,430.03 176.46,429.95 176.79,430.21 177.13,430.22 177.46,430.33 177.80,430.39 178.13,430.44 178.47,430.30 178.80,430.33 179.14,430.44 179.47,430.60 179.81,430.28 180.14,429.85 180.48,429.42 180.81,429.04 181.15,428.58 181.48,428.28 181.82,427.93 182.15,427.53 182.49,427.01 182.82,426.66 183.16,426.67 183.49,426.51 183.83,426.08 184.16,425.80 184.50,425.39 184.83,424.99 185.17,424.51 185.50,424.02 185.84,423.53 186.17,423.02 186.51,422.70 186.84,422.38 187.18,422.14 187.51,421.77 187.85,421.50 188.18,421.17 188.52,420.86 188.85,420.45 189.19,420.12 189.52,419.71 189.86,419.44 190.19,419.06 190.53,418.65 190.86,418.17 191.20,417.74 191.53,417.36 191.87,416.93 192.20,416.50 192.54,416.23 192.87,416.02 193.21,415.69 193.54,415.21 193.88,414.73 194.21,414.39 194.55,414.07 194.88,413.78 195.22,413.35 195.55,412.92 195.89,412.61 196.22,412.32 196.56,411.83 196.89,411.67 197.23,411.23 197.56,410.86 197.90,410.43 198.23,410.06 198.57,409.57 198.90,409.30 199.24,409.03 199.57,408.82 199.91,408.46 200.24,408.19 200.58,407.72 200.91,407.35 201.25,406.86 201.58,406.49 201.92,406.03 202.25,405.60 202.59,405.34 202.92,404.96 203.26,404.59 203.59,404.15 203.93,403.86 204.26,403.54 204.60,403.11 204.93,402.63 205.27,402.25 205.60,401.87 205.94,401.66 206.27,401.17 206.61,400.85 206.94,400.42 207.28,400.63 207.61,400.81 207.95,400.91 208.28,400.86 208.62,400.82 208.95,401.03 209.29,401.19 209.62,401.09 209.96,401.41 210.29,401.57 210.63,401.79 210.96,402.11 211.30,402.22 211.63,402.28 211.97,402.54 212.30,402.92 212.64,403.03 212.97,402.98 213.31,403.28 213.64,403.52 213.98,403.49 214.31,403.76 214.65,404.03 214.98,404.52 215.32,404.74 215.65,404.70 215.99,405.05 216.32,405.27 216.66,405.43 216.99,405.65 217.33,405.51 217.66,405.40 218.00,405.35 218.33,405.25 218.67,405.23 219.00,405.34 219.34,405.38 219.67,405.39 220.01,405.32 220.34,405.32 220.68,405.23 221.01,405.33 221.35,405.17 221.68,405.06 222.02,405.12 222.35,404.85 222.69,404.85 223.02,404.91 223.36,405.07 223.69,405.03 224.03,405.28 224.36,405.08 224.70,404.97 225.03,405.13 225.37,405.24 225.70,405.13 226.04,404.93 226.37,404.97 226.71,405.28 227.04,405.23 227.38,405.24 227.71,405.31 228.05,404.93 228.38,404.63 228.72,404.52 229.05,404.33 229.39,404.28 229.72,404.28 230.06,404.39 230.39,404.50 230.73,404.42 231.06,404.32 231.40,404.43 231.73,404.38 232.07,404.19 232.40,404.25 232.74,404.26 233.07,404.20 233.41,404.25 233.74,404.20 234.08,404.01 234.41,404.12 234.75,403.92 235.08,403.82 235.42,403.65 235.75,403.54 236.09,403.38 236.42,403.38 236.76,403.22 237.09,402.95 237.43,402.64 237.76,402.32 238.10,402.37 238.43,402.18 238.77,401.86 239.10,401.64 239.44,401.45 239.77,401.27 240.11,401.32 240.44,401.11 240.78,400.95 241.11,400.78 241.45,400.78 241.78,400.44 242.12,400.08 242.45,400.04 242.79,399.94 243.12,400.21 243.46,400.02 243.79,400.02 244.13,400.08 244.46,399.95 244.80,399.79 245.13,399.78 245.47,399.78 245.80,399.73 246.14,399.91 246.47,399.91 246.81,399.96 247.14,400.01 247.48,400.01 247.81,400.07 248.15,399.92 248.48,399.98 248.82,399.98 249.15,399.77 249.49,399.67 249.82,399.46 250.16,399.46 250.49,399.46 250.83,399.64 251.16,399.64 251.50,399.55 251.83,399.62 252.17,399.78 252.50,399.45 252.84,399.16 253.17,398.89 253.51,398.38 253.84,398.30 254.18,398.21 254.51,397.91 254.85,397.55 255.18,397.17 255.52,396.74 255.85,396.47 256.19,396.17 256.52,395.88 256.86,395.42 257.19,394.94 257.53,394.56 257.86,394.09 258.20,393.65 258.53,393.17 258.87,392.90 259.20,392.42 259.54,392.09 259.87,391.68 260.21,391.19 260.54,390.82 260.88,390.34 261.21,390.01 261.55,389.78 261.88,389.46 262.22,389.03 262.55,388.65 262.89,388.17 263.22,387.84 263.56,387.52 263.89,387.28 264.23,386.79 264.56,386.32 264.90,385.83 265.23,385.56 265.57,385.24 265.90,384.81 266.24,384.28 266.57,383.95 266.91,383.55 267.24,383.12 267.58,382.85 267.91,382.46 268.25,382.03 268.58,381.71 268.92,381.38 269.25,380.96 269.59,380.75 269.92,380.45 270.26,380.18 270.59,379.86 270.93,379.48 271.26,379.18 271.60,378.80 271.93,378.37 272.27,378.05 272.60,377.75 272.94,377.38 273.27,377.07 273.61,376.61 273.94,376.28 274.28,376.02 274.61,375.65 274.95,375.30 275.28,374.90 275.62,374.55 275.95,374.29 276.29,373.86 276.62,373.38 276.96,373.11 277.29,372.78 277.63,372.41 277.96,372.08 278.30,371.65 278.63,371.35 278.97,370.92 279.30,370.65 279.64,370.81 279.97,370.94 280.31,370.94 280.64,370.94 280.98,371.10 281.31,371.08 281.65,370.89 281.98,370.57 282.32,370.30 282.65,370.24 282.99,370.30 283.32,370.40 283.66,370.36 283.99,370.36 284.33,370.42 284.66,370.49 285.00,370.67 285.33,370.83 285.67,370.83 286.00,370.78 286.34,370.85 286.67,370.82 287.01,370.74 287.34,370.74 287.68,370.58 288.01,370.61 288.35,370.88 288.68,371.21 289.02,371.58 289.35,371.78 289.69,371.72 290.02,371.67 290.36,371.78 290.69,371.75 291.03,371.73 291.36,371.89 291.70,372.21 292.03,372.75 292.37,373.18 292.70,373.29 293.04,373.29 293.37,373.34 293.71,373.34 294.04,373.41 294.38,373.42 294.71,373.48 295.05,373.41 295.38,373.46 295.72,373.36 296.05,373.46 296.39,373.57 296.72,373.79 297.06,373.89 297.39,373.95 297.73,374.01 298.06,373.79 298.40,373.95 298.73,374.11 299.07,374.20 299.40,374.20 299.74,374.02 300.07,374.29 300.41,374.13 300.74,373.92 301.08,373.79 301.41,373.89 301.75,373.62 302.08,373.51 302.42,373.52 302.75,373.63 303.09,373.63 303.42,373.61 303.76,373.45 304.09,373.45 304.43,373.42 304.76,373.44 305.10,373.33 305.43,373.22 305.77,373.06 306.10,373.44 306.44,373.79 306.77,374.11 307.11,374.49 307.44,374.92 307.78,375.35 308.11,375.69 308.45,376.07 308.78,376.45 309.12,376.88 309.45,376.90 309.79,376.90 310.12,377.01 310.46,377.39 310.79,377.77 311.13,378.12 311.46,378.55 311.80,378.87 312.13,379.14 312.47,379.57 312.80,379.89 313.14,380.22 313.47,380.66 313.81,380.92 314.14,381.18 314.48,381.67 314.81,382.10 315.15,382.48 315.48,382.96 315.82,383.28 316.15,383.66 316.49,384.13 316.82,384.58 317.16,384.96 317.49,385.38 317.83,385.73 318.16,386.26 318.50,386.58 318.83,386.96 319.17,387.39 319.50,387.66 319.84,387.92 320.17,387.87 320.51,388.08 320.84,388.14 321.18,388.19 321.51,387.98 321.85,388.03 322.18,387.97 322.52,387.85 322.85,387.96 323.19,387.90 323.52,387.82 323.86,387.82 324.19,387.80 324.53,387.86 324.86,387.42 325.20,386.97 325.53,386.43 325.87,386.11 326.20,385.73 326.54,385.25 326.87,384.82 327.21,384.39 327.54,384.05 327.88,383.56 328.21,383.08 328.55,382.65 328.88,382.33 329.22,382.00 329.55,381.90 329.89,381.63 330.22,381.69 330.56,381.53 330.89,381.67 331.23,381.73 331.56,381.83 331.90,381.99 332.23,381.88 332.57,381.78 332.90,381.71 333.24,381.65 333.57,381.65 333.91,381.50 334.24,381.42 334.58,381.36 334.91,381.25 335.25,381.32 335.58,381.08 335.92,380.71 336.25,380.33 336.59,380.11 336.92,379.57 337.26,379.20 337.59,378.82 337.93,378.61 338.26,378.28 338.60,378.07 338.93,377.80 339.27,377.47 339.60,377.16 339.94,376.78 340.27,376.35 340.61,376.06 340.94,375.68 341.28,375.25 341.61,374.71 341.95,374.39 342.28,374.01 342.62,373.53 342.95,373.20 343.29,372.83 343.62,372.56 343.96,372.24 344.29,371.97 344.63,371.63 344.96,371.20 345.30,370.77 345.63,370.44 345.97,370.01 346.30,369.72 346.64,369.23 346.97,368.85 347.31,368.53 347.64,368.10 347.98,367.72 348.31,367.35 348.65,366.87 348.98,366.49 349.32,366.24 349.65,365.70 349.99,365.38 350.32,365.00 350.66,364.61 350.99,364.28 351.33,363.85 351.66,363.40 352.00,362.97 352.33,362.64 352.67,362.17 353.00,361.90 353.34,361.48 353.67,361.07 354.01,360.65 354.34,360.17 354.68,359.80 355.01,359.37 355.35,358.83 355.68,358.45 356.02,357.97 356.35,357.56 356.69,357.07 357.02,356.80 357.36,356.33 357.69,355.90 358.03,355.52 358.36,355.25 358.70,354.87 359.03,354.60 359.37,354.22 359.70,353.83 360.04,353.66 360.37,353.26 360.71,352.93 361.04,352.55 361.38,352.30 361.71,351.87 362.05,351.60 362.38,351.17 362.72,350.96 363.05,350.53 363.39,350.09 363.72,349.78 364.06,349.29 364.39,349.02 364.73,348.67 365.06,348.24 365.40,347.96 365.73,347.62 366.07,347.16 366.40,346.95 366.74,346.62 367.07,346.25 367.41,345.87 367.74,345.64 368.08,345.30 368.41,344.98 368.75,344.60 369.08,344.23 369.42,343.90 369.75,343.42 370.09,343.00 370.42,342.59 370.76,342.15 371.09,341.88 371.43,341.40 371.76,340.81 372.10,340.43 372.43,339.98 372.77,339.49 373.10,339.12 373.44,338.79 373.77,338.49 374.11,338.18 374.44,337.69 374.78,337.30 375.11,336.87 375.45,336.65 375.78,336.29 376.12,335.80 376.45,335.38 376.79,334.91 377.12,334.58 377.46,334.04 377.79,333.67 378.13,333.35 378.46,332.98 378.80,332.60 379.13,332.33 379.47,331.79 379.80,331.46 380.14,331.01 380.47,330.65 380.81,330.30 381.14,329.93 381.48,329.53 381.81,329.15 382.15,328.83 382.48,328.30 382.82,328.08 383.15,327.69 383.49,327.26 383.82,326.88 384.16,326.45 384.49,326.13 384.83,325.90 385.16,325.47 385.50,325.04 385.83,324.77 386.17,324.40 386.50,324.08 386.84,323.63 387.17,323.14 387.51,322.79 387.84,322.46 388.18,322.20 388.51,321.83 388.85,321.56 389.18,321.29 389.52,320.97 389.85,320.53 390.19,320.21 390.52,319.78 390.86,319.36 391.19,318.95 391.53,318.41 391.86,318.03 392.20,317.65 392.53,317.17 392.87,316.85 393.20,316.25 393.54,315.93 393.87,315.66 394.21,315.30 394.54,314.82 394.88,314.55 395.21,314.17 395.55,313.74 395.88,313.42 396.22,312.99 396.55,312.75 396.89,312.37 397.22,312.10 397.56,311.73 397.89,311.31 398.23,311.00 398.56,310.64 398.90,310.16 399.23,309.73 399.57,309.21 399.90,308.83 400.24,308.34 400.57,308.02 400.91,307.61 401.24,307.34 401.58,306.99 401.91,306.61 402.25,306.31 402.58,305.89 402.92,305.52 403.25,305.24 403.59,304.97 403.92,304.65 404.26,304.30 404.59,303.81 404.93,303.48 405.26,302.92 405.60,302.54 405.93,302.11 406.27,301.75 406.60,301.33 406.94,300.90 407.27,300.52 407.61,300.09 407.94,299.61 408.28,299.17 408.61,298.74 408.95,298.37 409.28,298.10 409.62,297.61 409.95,297.21 410.29,296.78 410.62,296.43 410.96,296.04 411.29,295.84 411.63,295.33 411.96,294.96 412.30,294.55 412.63,294.23 412.97,293.96 413.30,293.59 413.64,293.10 413.97,292.68 414.31,292.37 414.64,291.94 414.98,291.57 415.31,291.30 415.65,290.81 415.98,290.44 416.32,290.11 416.65,289.73 416.99,289.30 417.32,288.98 417.66,288.55 417.99,288.22 418.33,287.74 418.66,287.36 419.00,287.09 419.33,286.61 419.67,286.07 420.00,285.75 420.34,285.46 420.67,285.01 421.01,284.58 421.34,284.21 421.68,283.76 422.01,283.50 422.35,283.17 422.68,282.69 423.02,282.42 423.35,282.15 423.69,281.71 424.02,281.34 424.36,280.87 424.69,280.55 425.03,280.17 425.36,279.79 425.70,279.53 426.03,279.31 426.37,278.83 426.70,278.56 427.04,278.18 427.37,277.80 427.71,277.34 428.04,276.96 428.38,276.51 428.71,276.04 429.05,275.66 429.38,275.28 429.72,274.97 430.05,274.66 430.39,274.34 430.72,273.85 431.06,273.42 431.39,272.99 431.73,272.54 432.06,272.25 432.40,271.77 432.73,271.38 433.07,270.94 433.40,270.44 433.74,270.17 434.07,269.63 434.41,269.18 434.74,268.86 435.08,268.42 435.41,267.94 435.75,267.46 436.08,266.92 436.42,266.49 436.75,266.06 437.09,265.62 437.42,265.16 437.76,264.78 438.09,264.34 438.43,264.01 438.76,263.58 439.10,263.26 439.43,262.83 439.77,262.51 440.10,262.13 440.44,261.72 440.77,261.50 441.11,261.02 441.44,260.58 441.78,260.19 442.11,259.76 442.45,259.31 442.78,258.83 443.12,258.40 443.45,258.12 443.79,258.12 444.12,258.15 444.46,257.98 444.79,257.98 445.13,258.09 445.46,258.06 445.80,258.18 446.13,258.03 446.47,258.20 446.80,258.25 447.14,258.25 447.47,258.15 447.81,258.15 448.14,258.09 448.48,258.13 448.81,258.08 449.15,257.91 449.48,257.86 449.82,257.70 450.15,257.72 450.49,257.83 450.82,257.77 451.16,257.86 451.49,257.59 451.83,257.62 452.16,257.78 452.50,257.95 452.83,258.05 453.17,258.00 453.50,257.95 453.84,257.95 454.17,257.89 454.51,257.89 454.84,258.09 455.18,258.31 455.51,258.22 455.85,258.07 456.18,258.25 456.52,258.20 456.85,258.15 457.19,258.02 457.52,258.16 457.86,258.28 458.19,258.50 458.53,258.66 458.86,258.65 459.20,258.60 459.53,258.87 459.87,259.14 460.20,259.15 460.54,259.09 460.87,259.09 461.21,259.15 461.54,259.15 461.88,259.16 462.21,259.27 462.55,259.43 462.88,259.35 463.22,259.27 463.55,259.22 463.89,259.29 464.22,259.37 464.56,259.56 464.89,259.77 465.23,259.66 465.56,259.52 465.90,259.06 466.23,258.63 466.57,258.20 466.90,257.95 467.24,257.46 467.57,257.21 467.91,256.72 468.24,256.29 468.58,255.92 468.91,255.76 469.25,255.49 469.58,255.14 469.92,254.76 470.25,254.33 470.59,254.01 470.92,253.53 471.26,253.26 471.59,252.83 471.93,252.50 472.26,252.13 472.60,251.80 472.93,251.37 473.27,251.07 473.60,250.64 473.94,250.26 474.27,249.83 474.61,249.40 474.94,248.97 475.28,248.59 475.61,248.32 475.95,247.95 476.28,247.52 476.62,247.09 476.95,246.71 477.29,246.39 477.62,246.05 477.96,245.83 478.29,245.56 478.63,245.21 478.96,244.84 479.30,244.57 479.63,244.19 479.97,243.87 480.30,243.44 480.64,243.01 480.97,242.69 481.31,242.39 481.64,241.91 481.98,241.56 482.31,241.12 482.65,240.74 482.98,240.37 483.32,239.99 483.65,239.59 483.99,239.31 484.32,238.93 484.66,238.50 484.99,238.29 485.33,238.02 485.66,237.89 486.00,237.46 486.33,237.16 486.67,236.64 487.00,236.20 487.34,235.85 487.67,235.42 488.01,235.01 488.34,234.69 488.68,234.17 489.01,233.85 489.35,233.42 489.68,232.89 490.02,232.57 490.35,232.14 490.69,231.72 491.02,231.35 491.36,230.84 491.69,230.46 492.03,230.09 492.36,229.76 492.70,229.34 493.03,229.02 493.37,228.59 493.70,228.27 494.04,227.89 494.37,227.49 494.71,227.11 495.04,226.73 495.38,226.46 495.71,226.19 496.05,225.93 496.38,225.55 496.72,225.44 497.05,224.96 497.39,224.58 497.72,224.04 498.06,223.50 498.39,223.16 498.73,222.83 499.06,222.46 499.40,222.03 499.73,221.54 500.07,221.22 500.40,220.90 500.74,220.47 501.07,220.05 501.41,219.73 501.74,219.40 502.08,219.11 502.41,218.69 502.75,218.31 503.08,217.83 503.42,217.50 503.75,217.18 504.09,216.91 504.42,216.53 504.76,216.21 505.09,215.94 505.43,215.56 505.76,215.12 506.10,214.69 506.43,214.32 506.77,213.83 507.10,213.46 507.44,213.00 507.77,212.67 508.11,212.19 508.44,211.87 508.78,211.64 509.11,211.26 509.45,210.88 509.78,210.35 510.12,209.97 510.45,209.49 510.79,209.16 511.12,208.95 511.46,208.46 511.79,207.98 512.13,207.73 512.46,207.41 512.80,207.03 513.13,206.65 513.47,206.22 513.80,205.79 514.14,205.48 514.47,205.27 514.81,204.85 515.14,204.49 515.48,204.17 515.81,203.74 516.15,203.36 516.48,203.04 516.82,202.64 517.15,202.21 517.49,201.88 517.82,201.56 518.16,201.23 518.49,200.80 518.83,200.32 519.16,199.94 519.50,199.56 519.83,199.24 520.17,198.86 520.50,198.49 520.84,198.16 521.17,197.68 521.51,197.17 521.84,196.80 522.18,196.38 522.51,196.06 522.85,195.74 523.18,195.47 523.52,195.13 523.85,194.76 524.19,194.32 524.52,193.85 524.86,193.36 525.19,192.88 525.53,192.59 525.86,192.10 526.20,191.75 526.53,191.32 526.87,191.05 527.20,190.62 527.54,190.23 527.87,189.80 528.21,189.37 528.54,188.92 528.88,188.54 529.21,188.19 529.55,187.64 529.88,187.14 530.22,186.88 530.55,186.45 530.89,186.10 531.22,185.83 531.56,185.56 531.89,185.04 532.23,184.70 532.56,184.32 532.90,183.81 533.23,183.32 533.57,183.00 533.90,182.70 534.24,182.38 534.57,182.00 534.91,181.68 535.24,181.31 535.58,180.87 535.91,180.50 536.25,180.07 536.58,179.57 536.92,179.14 537.25,178.81 537.59,178.38 537.92,178.06 538.26,177.63 538.59,177.25 538.93,176.86 539.26,176.49 539.60,176.01 539.93,175.58 540.27,175.47 540.60,175.15 540.94,174.77 541.27,174.50 541.61,174.34 541.94,173.85 542.28,173.53 542.61,173.26 542.95,172.98 543.28,172.60 543.62,172.39 543.95,172.07 544.29,171.74 544.62,171.26 544.96,170.88 545.29,170.50 545.63,170.07 545.96,169.80 546.30,169.32 546.63,168.96 546.97,168.64 547.30,168.16 547.64,167.83 547.97,167.35 548.31,166.97 548.64,166.44 548.98,166.01 549.31,165.58 549.65,165.09 549.98,164.72 550.32,164.33 550.65,164.00 550.99,163.76 551.32,163.40 551.66,162.91 551.99,162.51 552.33,162.13 552.66,161.84 553.00,161.35 553.33,160.97 553.67,160.49 554.00,160.07 554.34,159.56 554.67,159.27 555.01,158.78 555.34,158.30 555.68,157.99 556.01,157.66 556.35,157.34 556.68,156.96 557.02,156.47 557.35,156.04 557.69,155.47 558.02,155.20 558.36,154.82 558.69,154.39 559.03,154.02 559.36,153.59 559.70,153.26 560.03,152.88 560.37,152.39 560.70,151.96 561.04,151.58 561.37,151.28 561.71,150.99 562.04,150.50 562.38,150.26 562.71,149.91 563.05,149.55 563.38,149.39 563.72,148.96 564.05,148.55 564.39,148.17 564.72,147.68 565.06,147.36 565.39,146.94 565.73,146.69 566.06,146.42 566.40,145.97 566.73,145.61 567.07,145.18 567.40,144.82 567.74,144.36 568.07,144.04 568.41,143.79 568.74,143.40 569.08,142.94 569.41,142.56 569.75,142.13 570.08,141.74 570.42,141.33 570.75,140.87 571.09,140.50 571.42,140.01 571.76,139.63 572.09,139.19 572.43,138.85 572.76,138.59 573.10,138.15 573.43,137.72 573.77,137.29 574.10,136.93 574.44,136.59 574.77,136.21 575.11,135.89 575.44,135.51 575.78,135.08 576.11,134.76 576.45,134.27 576.78,133.84 577.12,133.41 577.45,133.13 577.79,132.67 578.12,132.34 578.46,132.02 578.79,131.64 579.13,131.21 579.46,130.73 579.80,130.46 580.13,129.98 580.47,129.44 580.80,129.11 581.14,128.84 581.47,128.41 581.81,127.98 582.14,127.61 582.48,127.18 582.81,126.85 583.15,126.48 583.48,126.04 583.82,125.61 584.15,125.23 584.49,125.01 584.82,124.69 585.16,124.26 585.49,123.83 585.83,123.45 586.16,123.23 586.50,122.70 586.83,122.22 587.17,121.84 587.50,121.46 587.84,121.14 588.17,120.71 588.51,120.28 588.84,120.01 589.18,119.53 589.51,119.27 589.85,118.84 590.18,118.51 590.52,118.08 590.85,117.75 591.19,117.32 591.52,116.95 591.86,116.61 592.19,116.18 592.53,115.80 592.86,115.37 593.20,114.99 593.53,114.56 593.87,114.13 594.20,113.81 594.54,113.70 594.87,113.59 595.21,113.55 595.54,113.61 595.88,113.52 596.21,113.69 596.55,113.80 596.88,113.81 597.22,113.85 597.55,114.31 597.89,114.74 598.22,115.06 598.56,115.06 598.89,115.01 599.23,114.98 599.56,115.06 599.90,115.05 600.23,114.89 600.57,115.00 600.90,115.00 601.24,115.10 601.57,115.08 601.91,114.92 602.24,114.97 602.58,114.97 602.91,115.08 603.25,115.17 603.58,115.31 603.92,115.53 604.25,115.62 604.59,115.59 604.92,115.49 605.26,115.59 605.59,115.48 605.93,115.32 606.26,115.29 606.60,115.45 606.93,115.30 607.27,115.20 607.60,115.25 607.94,115.15 608.27,115.27 608.61,115.32 608.94,115.43 609.28,115.46 609.61,115.43 609.95,115.43 610.28,115.76 610.62,115.76 610.95,115.81 611.29,115.70 611.62,115.81 611.96,115.92 612.29,116.02 612.63,116.02 612.96,116.05 613.30,115.88 613.63,115.70 613.97,115.70 614.30,115.65 614.64,115.76 614.97,115.74 615.31,115.84 615.64,115.87 615.98,115.78 616.31,115.84 616.65,115.84 616.98,115.96 617.32,115.96 617.65,115.94 617.99,116.10 618.32,116.10 618.66,116.21 618.99,116.00 619.33,116.17 619.66,116.17 620.00,116.14 620.33,116.14 620.67,115.93 621.00,115.93 621.34,115.82 621.67,115.93 622.01,115.83 622.34,115.83 622.68,115.83 623.01,115.72 623.35,115.77 623.68,115.65 624.02,115.53 624.35,115.42 624.69,115.45 625.02,115.52 625.36,115.69 625.69,115.68 626.03,115.58 626.36,115.63 626.70,115.55 627.03,115.59 627.37,115.65 627.70,115.76 628.04,115.92 628.37,116.11 628.71,116.21 629.04,116.05 629.38,116.21 629.71,116.14 630.05,115.93 630.38,115.67 630.72,115.74 631.05,115.48 631.39,115.15 631.72,114.83 632.06,114.83 632.39,114.92 632.73,115.03 633.06,114.90 633.40,114.69 633.73,114.42 634.07,114.45 634.40,114.52 634.74,114.52 635.07,114.49 635.41,114.47 635.74,114.63 636.08,114.52 636.41,114.33 636.75,114.25 637.08,114.30 637.42,114.22 637.75,114.27 638.09,114.08 638.42,114.09 638.76,113.96 639.09,114.04 639.43,114.41 639.76,114.85 640.10,114.92 640.43,115.04 640.77,114.86 641.10,115.08 641.44,115.45 641.77,115.76 642.11,116.30 642.44,116.57 642.78,116.84 643.11,117.28 643.45,117.82 643.78,118.20 644.12,118.60 644.45,119.01 644.79,119.33 645.12,119.67 645.46,120.21 645.79,120.59 646.13,121.03 646.46,121.46 646.80,121.73 647.13,122.16 647.47,122.54 647.80,122.97 648.14,123.24 648.47,123.51 648.81,123.89 649.14,124.21 649.48,124.56 649.81,124.91 650.15,125.30 650.48,125.48 650.82,125.90 651.15,126.23 651.49,126.60 651.82,127.04 652.16,127.40 652.49,127.94 652.83,128.42 653.16,128.64 653.50,129.11 653.83,129.49 654.17,129.92 654.50,129.97 654.84,130.35 655.17,130.40 655.51,130.72 655.84,130.72 656.18,130.62 656.51,130.52 656.85,130.55 657.18,130.49 657.52,130.55 657.85,130.66 658.19,130.72 658.52,130.56 658.86,130.56 659.19,130.66 659.53,130.66 659.86,130.71 660.20,130.52 660.53,130.45 660.87,130.29 661.20,130.36 661.54,130.14 661.87,130.20 662.21,129.98 662.54,130.03 662.88,129.98 663.21,129.93 663.55,129.63 663.88,129.52 664.22,129.47 664.55,129.25 664.89,128.93 665.22,128.46 665.56,128.00 665.89,127.63 666.23,127.20 666.56,126.82 666.90,126.39 667.23,125.96 667.57,125.42 667.90,125.00 668.24,124.52 668.57,124.14 668.91,123.92 669.24,123.55 669.58,123.13 669.91,122.65 670.25,122.32 670.58,121.95 670.92,121.95 671.25,121.73 671.59,121.48 671.92,121.05 672.26,120.62 672.59,120.13 672.93,119.76 673.26,119.43 673.60,119.06 673.93,118.79 674.27,118.30 674.60,118.11 674.94,117.74 675.27,117.25 675.61,116.96 675.94,116.63 676.28,116.31 676.61,116.20 676.95,115.93 677.28,115.81 677.62,115.65 677.95,115.42 678.29,115.06 678.62,114.79 678.96,114.25 679.29,113.92 679.63,113.60 679.96,113.33 680.30,112.93 680.63,112.77 680.97,112.55 681.30,112.33 681.64,112.33 681.97,112.33 682.31,112.13 682.64,112.07 682.98,111.93 683.31,111.87 683.65,111.81 683.98,111.50 684.32,111.61 684.65,111.78 684.99,111.67 685.32,111.83 685.66,111.78 685.99,111.72 686.33,111.36 686.66,110.87 687.00,110.62 687.33,110.35 687.67,109.86 688.00,109.60 688.34,109.22 688.67,108.84 689.01,108.87 689.34,108.82 689.68,108.81 690.01,108.86 690.35,108.69 690.68,108.64 691.02,108.58 691.35,108.58 691.69,108.63 692.02,108.20 692.36,107.91 692.69,107.69 693.03,107.67 693.36,107.75 693.70,107.79 694.03,107.72 694.37,107.89 694.70,107.73 695.04,107.89 695.37,107.87 695.71,107.92 696.04,108.03 696.38,107.76 696.71,107.54 697.05,107.69 697.38,107.58 697.72,107.74 698.05,107.89 698.39,107.88 698.72,107.82 699.06,107.76 699.39,107.73 699.73,107.65 700.06,107.55 700.40,107.39 700.73,107.66 701.07,107.99 701.40,108.15 701.74,108.69 702.07,109.12 702.41,109.39 702.74,109.65 703.08,109.60 703.41,109.65 703.75,109.60 704.08,109.60 704.42,109.71 704.75,109.71 705.09,109.49 705.42,109.39 705.76,109.52 706.09,109.48 706.43,109.37 706.76,109.55 707.10,109.75 707.43,109.91 707.77,109.89 708.10,109.99 708.44,109.76 708.77,109.74 709.11,109.83 709.44,110.04 709.78,110.02 710.11,110.09 710.45,110.14 710.78,110.12 711.12,110.01 711.45,109.79 711.79,109.85 712.12,110.06 712.46,110.12 712.79,109.98 713.13,110.03 713.46,110.14 713.80,110.05 714.13,110.02 714.47,109.86 714.80,109.91 715.14,110.10 715.47,110.24 715.81,110.15 716.14,110.12 716.48,110.07 716.81,110.07 717.15,110.02 717.48,110.16 717.82,110.38 718.15,110.32 718.49,110.69 718.82,111.12 719.16,111.50 719.49,111.93 719.83,112.16 720.16,112.70 720.50,113.19 720.83,113.56 721.17,113.98 721.50,114.41 721.84,114.89 722.17,115.27 722.51,115.54 722.84,115.81 723.18,116.29 723.51,116.72 723.85,117.09 724.18,117.31 724.52,117.79 724.85,118.22 725.19,118.71 725.52,119.14 725.86,119.51 726.19,119.84 726.53,120.16 726.86,120.59 727.20,120.91 727.53,121.08 727.87,121.34 728.20,121.78 728.54,122.11 728.87,122.62 729.21,122.90 729.54,123.34 729.88,123.62 730.21,124.00 730.55,124.48 730.88,124.91 731.22,125.31 731.55,125.69 731.89,126.17 732.22,126.59 732.56,126.93 732.89,127.26 733.23,127.69 733.56,128.11 733.90,128.59 734.23,128.65 734.57,129.02 734.90,129.31 735.24,129.75 735.57,130.18 735.91,130.50 736.24,130.83 736.58,131.31 736.91,131.77 737.25,132.04 737.58,132.36 737.92,132.72 738.25,133.10 738.59,133.43 738.92,133.70 739.26,134.14 739.59,134.51 739.93,134.84 740.26,135.32 740.60,135.54 740.93,135.91 741.27,135.96 741.60,136.12 741.94,136.56 742.27,136.88 742.61,137.11 742.94,137.49 743.28,137.98 743.61,138.32 743.95,138.64 744.28,138.97 744.62,138.91 744.95,139.24 745.29,139.67 745.62,140.10 745.96,140.60 746.29,140.98 746.63,141.49 746.96,141.82 747.30,142.22 747.63,142.65 747.97,143.03 748.30,143.51 748.64,143.78 748.97,143.94 749.31,144.02 749.64,144.45 749.98,144.70 750.31,145.07 750.65,144.97 750.98,145.29 751.32,145.61 751.65,146.15 751.99,146.58 752.32,146.96 752.66,147.44 752.99,147.82 753.33,148.30 753.66,148.66 754.00,148.83 754.33,149.21 754.67,149.21 755.00,149.13"/>
<line x1="783" y1="82" x2="809" y2="82" stroke="#dc2626" stroke-width="3"/>
<text x="817" y="86" font-family="Arial" font-size="13" fill="#111827">Avellaneda Stoikov</text>
<polyline fill="none" stroke="#7c3aed" stroke-width="2" points="85.00,438.35 85.34,438.38 85.67,438.27 86.01,438.38 86.34,438.56 86.68,438.42 87.01,438.34 87.35,438.37 87.68,438.26 88.02,438.39 88.35,438.36 88.69,438.46 89.02,438.69 89.36,438.80 89.69,438.85 90.03,438.69 90.36,438.72 90.70,439.02 91.03,439.08 91.37,439.35 91.70,439.29 92.04,439.45 92.37,439.62 92.71,439.51 93.04,439.57 93.38,439.63 93.71,439.70 94.05,439.86 94.38,439.84 94.72,439.74 95.05,439.62 95.39,439.69 95.72,439.48 96.06,439.53 96.39,439.66 96.73,439.83 97.06,439.84 97.40,439.99 97.73,440.04 98.07,439.94 98.40,439.77 98.74,439.77 99.07,439.81 99.41,439.86 99.74,439.93 100.08,439.82 100.41,439.99 100.75,439.83 101.08,439.82 101.42,439.71 101.75,439.77 102.09,439.93 102.42,440.08 102.76,440.13 103.09,440.10 103.43,440.15 103.76,440.18 104.10,440.14 104.43,440.14 104.77,440.25 105.10,440.32 105.44,440.25 105.77,440.11 106.11,440.16 106.44,440.11 106.78,440.12 107.11,440.01 107.45,440.17 107.78,440.15 108.12,440.26 108.45,440.10 108.79,439.72 109.12,439.78 109.46,439.94 109.79,439.99 110.13,440.19 110.46,440.14 110.80,440.09 111.13,440.17 111.47,440.06 111.80,440.22 112.14,440.17 112.47,440.33 112.81,440.28 113.14,440.35 113.48,440.42 113.81,440.37 114.15,440.32 114.48,440.21 114.82,440.21 115.15,440.48 115.49,440.38 115.82,440.29 116.16,440.27 116.49,440.11 116.83,440.05 117.16,440.01 117.50,440.07 117.83,439.75 118.17,439.37 118.50,439.32 118.84,439.05 119.17,438.73 119.51,438.52 119.84,438.47 120.18,438.47 120.51,438.25 120.85,438.27 121.18,438.25 121.52,438.25 121.85,438.25 122.19,438.29 122.52,438.39 122.86,438.36 123.19,438.36 123.53,438.31 123.86,438.09 124.20,437.93 124.53,438.01 124.87,438.11 125.20,438.16 125.54,438.22 125.87,438.43 126.21,438.19 126.54,438.35 126.88,438.29 127.21,438.28 127.55,438.07 127.88,438.15 128.22,438.17 128.55,438.23 128.89,438.28 129.22,438.28 129.56,438.12 129.89,437.98 130.23,437.82 130.56,437.72 130.90,437.66 131.23,437.59 131.57,437.63 131.90,437.58 132.24,437.37 132.57,437.49 132.91,437.55 133.24,437.55 133.58,437.74 133.91,437.65 134.25,437.75 134.58,437.70 134.92,437.54 135.25,437.54 135.59,437.55 135.92,437.55 136.26,437.68 136.59,437.57 136.93,437.54 137.26,437.54 137.60,437.42 137.93,437.32 138.27,437.31 138.60,437.09 138.94,437.04 139.27,437.02 139.61,436.94 139.94,436.85 140.28,436.67 140.61,436.67 140.95,436.56 141.28,436.53 141.62,436.60 141.95,436.64 142.29,436.77 142.62,436.77 142.96,436.72 143.29,436.62 143.63,436.40 143.96,436.28 144.30,435.85 144.63,435.69 144.97,435.57 145.30,435.51 145.64,435.72 145.97,435.81 146.31,435.87 146.64,435.81 146.98,435.81 147.31,436.08 147.65,436.19 147.98,436.17 148.32,436.28 148.65,436.55 148.99,436.44 149.32,436.12 149.66,435.85 149.99,435.52 150.33,435.31 150.66,435.26 151.00,435.32 151.33,435.49 151.67,435.06 152.00,434.70 152.34,434.48 152.67,434.54 153.01,434.32 153.34,434.38 153.68,434.43 154.01,434.43 154.35,434.28 154.68,434.30 155.02,434.46 155.35,434.36 155.69,434.41 156.02,434.46 156.36,434.41 156.69,434.46 157.03,434.57 157.36,434.50 157.70,434.60 158.03,434.71 158.37,434.60 158.70,434.60 159.04,434.63 159.37,434.62 159.71,434.67 160.04,434.46 160.38,434.49 160.71,434.67 161.05,434.40 161.38,434.13 161.72,433.98 162.05,434.04 162.39,434.24 162.72,434.24 163.06,434.29 163.39,434.10 163.73,434.10 164.06,433.80 164.40,433.76 164.73,433.68 165.07,433.84 165.40,433.98 165.74,434.20 166.07,434.23 166.41,434.23 166.74,434.13 167.08,434.03 167.41,434.03 167.75,434.24 168.08,434.24 168.42,434.24 168.75,434.24 169.09,434.56 169.42,434.51 169.76,434.40 170.09,434.51 170.43,434.35 170.76,434.44 171.10,434.44 171.43,434.53 171.77,434.53 172.10,434.80 172.44,434.71 172.77,434.83 173.11,434.83 173.44,434.83 173.78,434.89 174.11,434.67 174.45,434.54 174.78,434.66 175.12,434.61 175.45,434.65 175.79,434.69 176.12,434.75 176.46,434.67 176.79,434.94 177.13,434.94 177.46,435.05 177.80,435.11 178.13,435.16 178.47,435.02 178.80,435.06 179.14,435.16 179.47,435.38 179.81,435.06 180.14,434.62 180.48,434.19 180.81,433.87 181.15,433.52 181.48,433.21 181.82,432.87 182.15,432.47 182.49,432.00 182.82,431.75 183.16,431.77 183.49,431.77 183.83,431.50 184.16,431.30 184.50,430.89 184.83,430.49 185.17,430.01 185.50,429.52 185.84,429.04 186.17,428.52 186.51,428.20 186.84,427.88 187.18,427.77 187.51,427.50 187.85,427.23 188.18,426.91 188.52,426.59 188.85,426.18 189.19,425.86 189.52,425.44 189.86,425.17 190.19,424.79 190.53,424.39 190.86,423.90 191.20,423.47 191.53,423.10 191.87,422.67 192.20,422.24 192.54,421.97 192.87,421.75 193.21,421.43 193.54,420.94 193.88,420.46 194.21,420.12 194.55,419.80 194.88,419.52 195.22,419.09 195.55,418.65 195.89,418.34 196.22,418.05 196.56,417.57 196.89,417.41 197.23,416.96 197.56,416.60 197.90,416.17 198.23,415.79 198.57,415.31 198.90,415.04 199.24,414.77 199.57,414.55 199.91,414.20 200.24,413.93 200.58,413.46 200.91,413.08 201.25,412.60 201.58,412.22 201.92,411.76 202.25,411.33 202.59,411.07 202.92,410.70 203.26,410.32 203.59,409.89 203.93,409.60 204.26,409.27 204.60,408.84 204.93,408.36 205.27,407.98 205.60,407.61 205.94,407.39 206.27,406.91 206.61,406.65 206.94,406.22 207.28,406.43 207.61,406.60 207.95,406.71 208.28,406.66 208.62,406.61 208.95,406.83 209.29,406.99 209.62,406.88 209.96,406.87 210.29,406.82 210.63,406.77 210.96,406.93 211.30,406.98 211.63,407.04 211.97,407.02 212.30,407.35 212.64,407.40 212.97,407.29 213.31,407.33 213.64,407.24 213.98,407.22 214.31,407.38 214.65,407.59 214.98,408.08 215.32,408.03 215.65,407.99 215.99,408.03 216.32,408.03 216.66,408.03 216.99,408.08 217.33,407.89 217.66,407.78 218.00,407.73 218.33,407.63 218.67,407.61 219.00,407.72 219.34,407.76 219.67,407.77 220.01,407.70 220.34,407.70 220.68,407.61 221.01,407.71 221.35,407.55 221.68,407.44 222.02,407.50 222.35,407.23 222.69,407.23 223.02,407.29 223.36,407.45 223.69,407.41 224.03,407.66 224.36,407.46 224.70,407.35 225.03,407.51 225.37,407.62 225.70,407.51 226.04,407.31 226.37,407.35 226.71,407.66 227.04,407.61 227.38,407.68 227.71,407.80 228.05,407.64 228.38,407.60 228.72,407.71 229.05,407.49 229.39,407.44 229.72,407.44 230.06,407.55 230.39,407.66 230.73,407.58 231.06,407.48 231.40,407.59 231.73,407.54 232.07,407.35 232.40,407.41 232.74,407.42 233.07,407.36 233.41,407.41 233.74,407.36 234.08,407.17 234.41,407.28 234.75,407.19 235.08,407.19 235.42,407.29 235.75,407.24 236.09,407.24 236.42,407.24 236.76,407.13 237.09,406.98 237.43,406.66 237.76,406.45 238.10,406.50 238.43,406.56 238.77,406.33 239.10,406.23 239.44,406.15 239.77,406.02 240.11,406.18 240.44,406.07 240.78,405.96 241.11,405.86 241.45,405.86 241.78,405.51 242.12,405.26 242.45,405.38 242.79,405.39 243.12,405.66 243.46,405.47 243.79,405.47 244.13,405.53 244.46,405.56 244.80,405.41 245.13,405.40 245.47,405.41 245.80,405.35 246.14,405.54 246.47,405.53 246.81,405.59 247.14,405.64 247.48,405.64 247.81,405.64 248.15,405.49 248.48,405.55 248.82,405.55 249.15,405.34 249.49,405.25 249.82,405.03 250.16,405.03 250.49,405.03 250.83,405.21 251.16,405.21 251.50,405.12 251.83,405.24 252.17,405.51 252.50,405.40 252.84,405.27 253.17,405.19 253.51,404.84 253.84,404.76 254.18,404.67 254.51,404.48 254.85,404.06 255.18,403.69 255.52,403.26 255.85,402.99 256.19,402.69 256.52,402.40 256.86,401.94 257.19,401.45 257.53,401.07 257.86,400.60 258.20,400.17 258.53,399.69 258.87,399.42 259.20,398.93 259.54,398.61 259.87,398.19 260.21,397.66 260.54,397.28 260.88,396.80 261.21,396.48 261.55,396.26 261.88,395.99 262.22,395.56 262.55,395.18 262.89,394.69 263.22,394.37 263.56,394.05 263.89,393.81 264.23,393.32 264.56,392.84 264.90,392.36 265.23,392.09 265.57,391.77 265.90,391.34 266.24,390.80 266.57,390.48 266.91,390.07 267.24,389.65 267.58,389.33 267.91,388.93 268.25,388.50 268.58,388.18 268.92,387.86 269.25,387.42 269.59,387.21 269.92,386.91 270.26,386.64 270.59,386.32 270.93,385.89 271.26,385.58 271.60,385.21 271.93,384.78 272.27,384.45 272.60,384.16 272.94,383.79 273.27,383.47 273.61,383.02 273.94,382.69 274.28,382.26 274.61,381.90 274.95,381.60 275.28,381.20 275.62,380.85 275.95,380.59 276.29,380.16 276.62,379.68 276.96,379.41 277.29,379.08 277.63,378.71 277.96,378.38 278.30,377.95 278.63,377.65 278.97,377.22 279.30,376.95 279.64,377.11 279.97,377.24 280.31,377.24 280.64,377.24 280.98,377.40 281.31,377.38 281.65,377.24 281.98,376.92 282.32,376.81 282.65,376.70 282.99,376.70 283.32,376.81 283.66,376.87 283.99,376.87 284.33,376.93 284.66,377.00 285.00,377.18 285.33,377.34 285.67,377.34 286.00,377.29 286.34,377.36 286.67,377.33 287.01,377.25 287.34,377.25 287.68,377.09 288.01,377.12 288.35,377.23 288.68,377.56 289.02,377.66 289.35,377.64 289.69,377.59 290.02,377.53 290.36,377.64 290.69,377.61 291.03,377.59 291.36,377.64 291.70,377.70 292.03,378.02 292.37,378.29 292.70,378.34 293.04,378.34 293.37,378.40 293.71,378.40 294.04,378.47 294.38,378.48 294.71,378.54 295.05,378.47 295.38,378.52 295.72,378.41 296.05,378.52 296.39,378.63 296.72,378.79 297.06,378.84 297.39,378.90 297.73,378.96 298.06,378.74 298.40,378.69 298.73,378.63 299.07,378.71 299.40,378.71 299.74,378.54 300.07,378.76 300.41,378.57 300.74,378.35 301.08,378.22 301.41,378.33 301.75,378.06 302.08,377.95 302.42,377.96 302.75,378.07 303.09,378.07 303.42,378.05 303.76,377.89 304.09,377.89 304.43,377.86 304.76,377.87 305.10,377.77 305.43,377.66 305.77,377.50 306.10,377.64 306.44,377.72 306.77,377.82 307.11,378.03 307.44,378.47 307.78,378.90 308.11,379.24 308.45,379.62 308.78,379.99 309.12,380.37 309.45,380.29 309.79,380.29 310.12,380.24 310.46,380.56 310.79,380.94 311.13,381.29 311.46,381.72 311.80,382.04 312.13,382.31 312.47,382.74 312.80,383.06 313.14,383.39 313.47,383.78 313.81,383.98 314.14,384.20 314.48,384.68 314.81,385.12 315.15,385.49 315.48,385.98 315.82,386.30 316.15,386.62 316.49,386.98 316.82,387.22 317.16,387.44 317.49,387.86 317.83,388.21 318.16,388.74 318.50,389.06 318.83,389.44 319.17,389.86 319.50,390.14 319.84,390.34 320.17,390.18 320.51,390.18 320.84,390.24 321.18,390.29 321.51,390.08 321.85,390.13 322.18,390.07 322.52,389.95 322.85,390.06 323.19,390.00 323.52,389.92 323.86,389.92 324.19,389.90 324.53,390.01 324.86,389.69 325.20,389.31 325.53,388.88 325.87,388.56 326.20,388.18 326.54,387.69 326.87,387.26 327.21,386.83 327.54,386.49 327.88,386.01 328.21,385.58 328.55,385.31 328.88,385.31 329.22,385.09 329.55,385.09 329.89,384.82 330.22,384.88 330.56,384.72 330.89,384.87 331.23,384.92 331.56,385.02 331.90,385.19 332.23,385.08 332.57,385.02 332.90,385.12 333.24,385.06 333.57,385.12 333.91,384.96 334.24,384.88 334.58,384.82 334.91,384.72 335.25,384.79 335.58,384.70 335.92,384.47 336.25,384.09 336.59,383.88 336.92,383.34 337.26,382.96 337.59,382.58 337.93,382.37 338.26,381.99 338.60,381.83 338.93,381.58 339.27,381.25 339.60,380.94 339.94,380.57 340.27,380.13 340.61,379.87 340.94,379.49 341.28,379.06 341.61,378.52 341.95,378.20 342.28,377.82 342.62,377.33 342.95,377.01 343.29,376.63 343.62,376.37 343.96,376.04 344.29,375.77 344.63,375.45 344.96,375.02 345.30,374.59 345.63,374.27 345.97,373.83 346.30,373.54 346.64,373.05 346.97,372.68 347.31,372.35 347.64,371.92 347.98,371.55 348.31,371.17 348.65,370.69 348.98,370.31 349.32,370.06 349.65,369.52 349.99,369.14 350.32,368.77 350.66,368.37 350.99,368.05 351.33,367.62 351.66,367.17 352.00,366.74 352.33,366.40 352.67,365.94 353.00,365.67 353.34,365.25 353.67,364.84 354.01,364.42 354.34,363.94 354.68,363.57 355.01,363.14 355.35,362.60 355.68,362.27 356.02,361.79 356.35,361.38 356.69,360.90 357.02,360.63 357.36,360.15 357.69,359.72 358.03,359.35 358.36,359.07 358.70,358.69 359.03,358.42 359.37,358.05 359.70,357.65 360.04,357.50 360.37,357.06 360.71,356.74 361.04,356.36 361.38,356.11 361.71,355.68 362.05,355.41 362.38,354.98 362.72,354.76 363.05,354.33 363.39,353.85 363.72,353.53 364.06,353.05 364.39,352.78 364.73,352.42 365.06,352.00 365.40,351.72 365.73,351.37 366.07,350.91 366.40,350.70 366.74,350.37 367.07,350.00 367.41,349.62 367.74,349.39 368.08,349.06 368.41,348.73 368.75,348.25 369.08,347.87 369.42,347.55 369.75,347.06 370.09,346.64 370.42,346.23 370.76,345.80 371.09,345.53 371.43,345.04 371.76,344.45 372.10,344.08 372.43,343.62 372.77,343.14 373.10,342.76 373.44,342.44 373.77,342.14 374.11,341.82 374.44,341.34 374.78,340.94 375.11,340.51 375.45,340.30 375.78,339.93 376.12,339.45 376.45,339.03 376.79,338.60 377.12,338.28 377.46,337.74 377.79,337.37 378.13,337.05 378.46,336.68 378.80,336.35 379.13,336.08 379.47,335.54 379.80,335.22 380.14,334.76 380.47,334.40 380.81,334.05 381.14,333.68 381.48,333.28 381.81,332.90 382.15,332.58 382.48,332.00 382.82,331.78 383.15,331.39 383.49,330.96 383.82,330.58 384.16,330.15 384.49,329.83 384.83,329.60 385.16,329.17 385.50,328.74 385.83,328.47 386.17,328.09 386.50,327.78 386.84,327.32 387.17,326.84 387.51,326.48 387.84,326.16 388.18,325.90 388.51,325.53 388.85,325.26 389.18,324.99 389.52,324.66 389.85,324.23 390.19,323.91 390.52,323.49 390.86,323.07 391.19,322.66 391.53,322.12 391.86,321.74 392.20,321.36 392.53,320.87 392.87,320.55 393.20,319.96 393.54,319.64 393.87,319.37 394.21,319.00 394.54,318.53 394.88,318.25 395.21,317.87 395.55,317.44 395.88,317.12 396.22,316.69 396.55,316.45 396.89,316.08 397.22,315.81 397.56,315.43 397.89,315.01 398.23,314.70 398.56,314.35 398.90,313.86 399.23,313.43 399.57,312.91 399.90,312.53 400.24,312.05 400.57,311.73 400.91,311.31 401.24,311.04 401.58,310.69 401.91,310.32 402.25,310.01 402.58,309.60 402.92,309.22 403.25,308.95 403.59,308.68 403.92,308.36 404.26,308.00 404.59,307.52 404.93,307.19 405.26,306.62 405.60,306.24 405.93,305.81 406.27,305.45 406.60,305.03 406.94,304.60 407.27,304.23 407.61,303.79 407.94,303.31 408.28,302.88 408.61,302.45 408.95,302.07 409.28,301.80 409.62,301.32 409.95,300.91 410.29,300.49 410.62,300.13 410.96,299.74 411.29,299.55 411.63,299.03 411.96,298.66 412.30,298.26 412.63,297.94 412.97,297.67 413.30,297.29 413.64,296.81 413.97,296.39 414.31,296.08 414.64,295.65 414.98,295.27 415.31,295.00 415.65,294.52 415.98,294.14 416.32,293.82 416.65,293.43 416.99,293.00 417.32,292.68 417.66,292.30 417.99,291.98 418.33,291.50 418.66,291.12 419.00,290.85 419.33,290.37 419.67,289.83 420.00,289.50 420.34,289.32 420.67,288.87 421.01,288.44 421.34,288.06 421.68,287.62 422.01,287.35 422.35,287.03 422.68,286.54 423.02,286.22 423.35,285.95 423.69,285.51 424.02,285.14 424.36,284.67 424.69,284.35 425.03,283.97 425.36,283.59 425.70,283.32 426.03,283.10 426.37,282.62 426.70,282.46 427.04,282.08 427.37,281.70 427.71,281.23 428.04,280.86 428.38,280.40 428.71,279.94 429.05,279.56 429.38,279.18 429.72,278.86 430.05,278.56 430.39,278.23 430.72,277.75 431.06,277.32 431.39,276.89 431.73,276.44 432.06,276.15 432.40,275.67 432.73,275.27 433.07,274.84 433.40,274.34 433.74,274.07 434.07,273.53 434.41,273.08 434.74,272.75 435.08,272.32 435.41,271.84 435.75,271.35 436.08,270.82 436.42,270.38 436.75,269.95 437.09,269.52 437.42,269.06 437.76,268.68 438.09,268.24 438.43,267.91 438.76,267.48 439.10,267.16 439.43,266.73 439.77,266.41 440.10,266.03 440.44,265.61 440.77,265.34 441.11,264.86 441.44,264.43 441.78,264.04 442.11,263.61 442.45,263.15 442.78,262.67 443.12,262.24 443.45,261.97 443.79,262.03 444.12,262.21 444.46,262.21 444.79,262.21 445.13,262.26 445.46,262.23 445.80,262.33 446.13,262.19 446.47,262.29 446.80,262.35 447.14,262.35 447.47,262.24 447.81,262.24 448.14,262.18 448.48,262.17 448.81,262.06 449.15,261.90 449.48,261.84 449.82,261.68 450.15,261.70 450.49,261.81 450.82,261.76 451.16,261.84 451.49,261.52 451.83,261.55 452.16,261.72 452.50,261.88 452.83,261.93 453.17,261.88 453.50,261.77 453.84,261.74 454.17,261.68 454.51,261.62 454.84,261.77 455.18,261.93 455.51,261.84 455.85,261.62 456.18,261.81 456.52,261.73 456.85,261.68 457.19,261.55 457.52,261.60 457.86,261.72 458.19,261.83 458.53,261.99 458.86,261.97 459.20,261.92 459.53,262.19 459.87,262.46 460.20,262.47 460.54,262.36 460.87,262.36 461.21,262.42 461.54,262.33 461.88,262.30 462.21,262.41 462.55,262.57 462.88,262.50 463.22,262.42 463.55,262.36 463.89,262.43 464.22,262.52 464.56,262.60 464.89,262.72 465.23,262.62 465.56,262.47 465.90,262.02 466.23,261.59 466.57,261.16 466.90,260.92 467.24,260.44 467.57,260.19 467.91,259.70 468.24,259.27 468.58,259.00 468.91,259.06 469.25,258.68 469.58,258.33 469.92,257.96 470.25,257.53 470.59,257.20 470.92,256.72 471.26,256.41 471.59,255.98 471.93,255.65 472.26,255.28 472.60,254.95 472.93,254.52 473.27,254.25 473.60,253.82 473.94,253.45 474.27,253.01 474.61,252.58 474.94,252.15 475.28,251.78 475.61,251.51 475.95,251.13 476.28,250.70 476.62,250.27 476.95,249.89 477.29,249.57 477.62,249.23 477.96,248.86 478.29,248.59 478.63,248.24 478.96,247.86 479.30,247.60 479.63,247.22 479.97,246.90 480.30,246.47 480.64,246.04 480.97,245.71 481.31,245.47 481.64,244.99 481.98,244.64 482.31,244.20 482.65,243.82 482.98,243.45 483.32,243.07 483.65,242.68 483.99,242.40 484.32,242.02 484.66,241.59 484.99,241.37 485.33,241.10 485.66,240.94 486.00,240.51 486.33,240.21 486.67,239.68 487.00,239.31 487.34,238.96 487.67,238.52 488.01,238.11 488.34,237.84 488.68,237.32 489.01,237.00 489.35,236.57 489.68,236.05 490.02,235.78 490.35,235.35 490.69,234.93 491.02,234.56 491.36,234.05 491.69,233.67 492.03,233.30 492.36,232.97 492.70,232.55 493.03,232.23 493.37,231.80 493.70,231.48 494.04,231.10 494.37,230.70 494.71,230.32 495.04,229.94 495.38,229.67 495.71,229.40 496.05,229.13 496.38,228.76 496.72,228.65 497.05,228.17 497.39,227.79 497.72,227.25 498.06,226.71 498.39,226.37 498.73,226.04 499.06,225.67 499.40,225.24 499.73,224.75 500.07,224.43 500.40,224.11 500.74,223.67 501.07,223.26 501.41,222.94 501.74,222.61 502.08,222.32 502.41,221.90 502.75,221.52 503.08,221.10 503.42,220.76 503.75,220.44 504.09,220.17 504.42,219.79 504.76,219.47 505.09,219.20 505.43,218.82 505.76,218.38 506.10,217.95 506.43,217.58 506.77,217.10 507.10,216.72 507.44,216.26 507.77,215.94 508.11,215.45 508.44,215.13 508.78,214.90 509.11,214.52 509.45,214.14 509.78,213.61 510.12,213.23 510.45,212.75 510.79,212.43 511.12,212.21 511.46,211.73 511.79,211.24 512.13,210.99 512.46,210.67 512.80,210.29 513.13,209.92 513.47,209.49 513.80,209.06 514.14,208.74 514.47,208.47 514.81,208.05 515.14,207.70 515.48,207.38 515.81,206.95 516.15,206.57 516.48,206.25 516.82,205.85 517.15,205.42 517.49,205.09 517.82,204.76 518.16,204.44 518.49,204.01 518.83,203.53 519.16,203.15 519.50,202.77 519.83,202.45 520.17,202.07 520.50,201.70 520.84,201.37 521.17,200.89 521.51,200.38 521.84,200.01 522.18,199.59 522.51,199.27 522.85,198.94 523.18,198.68 523.52,198.34 523.85,197.96 524.19,197.53 524.52,197.05 524.86,196.57 525.19,196.09 525.53,195.79 525.86,195.31 526.20,194.96 526.53,194.53 526.87,194.26 527.20,193.83 527.54,193.44 527.87,193.01 528.21,192.58 528.54,192.13 528.88,191.75 529.21,191.40 529.55,190.85 529.88,190.35 530.22,190.09 530.55,189.66 530.89,189.31 531.22,189.04 531.56,188.77 531.89,188.25 532.23,187.91 532.56,187.53 532.90,187.02 533.23,186.53 533.57,186.21 533.90,185.91 534.24,185.59 534.57,185.21 534.91,184.89 535.24,184.51 535.58,184.08 535.91,183.71 536.25,183.28 536.58,182.77 536.92,182.34 537.25,182.02 537.59,181.59 537.92,181.27 538.26,180.84 538.59,180.46 538.93,180.07 539.26,179.70 539.60,179.22 539.93,178.79 540.27,178.68 540.60,178.35 540.94,177.98 541.27,177.71 541.61,177.55 541.94,177.06 542.28,176.74 542.61,176.47 542.95,176.19 543.28,175.81 543.62,175.60 543.95,175.27 544.29,174.95 544.62,174.47 544.96,174.09 545.29,173.71 545.63,173.28 545.96,173.01 546.30,172.53 546.63,172.17 546.97,171.85 547.30,171.37 547.64,171.04 547.97,170.56 548.31,170.18 548.64,169.65 548.98,169.22 549.31,168.79 549.65,168.30 549.98,167.92 550.32,167.54 550.65,167.21 550.99,166.97 551.32,166.61 551.66,166.12 551.99,165.72 552.33,165.34 552.66,165.04 553.00,164.56 553.33,164.18 553.67,163.70 554.00,163.28 554.34,162.77 554.67,162.48 555.01,161.99 555.34,161.51 555.68,161.19 556.01,160.87 556.35,160.55 556.68,160.17 557.02,159.68 557.35,159.25 557.69,158.68 558.02,158.41 558.36,158.03 558.69,157.60 559.03,157.23 559.36,156.80 559.70,156.47 560.03,156.08 560.37,155.60 560.70,155.17 561.04,154.79 561.37,154.49 561.71,154.19 562.04,153.71 562.38,153.47 562.71,153.12 563.05,152.76 563.38,152.60 563.72,152.17 564.05,151.76 564.39,151.38 564.72,150.89 565.06,150.57 565.39,150.15 565.73,149.74 566.06,149.47 566.40,149.02 566.73,148.65 567.07,148.24 567.40,147.88 567.74,147.42 568.07,147.10 568.41,146.85 568.74,146.46 569.08,146.00 569.41,145.62 569.75,145.19 570.08,144.79 570.42,144.38 570.75,143.93 571.09,143.56 571.42,143.07 571.76,142.69 572.09,142.25 572.43,141.91 572.76,141.64 573.10,141.21 573.43,140.78 573.77,140.35 574.10,139.99 574.44,139.65 574.77,139.27 575.11,138.95 575.44,138.57 575.78,138.14 576.11,137.82 576.45,137.33 576.78,136.90 577.12,136.47 577.45,136.19 577.79,135.73 578.12,135.40 578.46,135.08 578.79,134.70 579.13,134.27 579.46,133.79 579.80,133.52 580.13,133.03 580.47,132.50 580.80,132.17 581.14,131.90 581.47,131.47 581.81,131.04 582.14,130.66 582.48,130.23 582.81,129.91 583.15,129.53 583.48,129.10 583.82,128.67 584.15,128.28 584.49,128.07 584.82,127.75 585.16,127.32 585.49,126.88 585.83,126.51 586.16,126.29 586.50,125.76 586.83,125.28 587.17,124.90 587.50,124.52 587.84,124.20 588.17,123.77 588.51,123.34 588.84,123.07 589.18,122.59 589.51,122.33 589.85,121.90 590.18,121.57 590.52,121.13 590.85,120.81 591.19,120.38 591.52,120.00 591.86,119.66 592.19,119.23 592.53,118.86 592.86,118.43 593.20,118.05 593.53,117.62 593.87,117.19 594.20,116.81 594.54,116.81 594.87,116.70 595.21,116.67 595.54,116.72 595.88,116.57 596.21,116.75 596.55,116.86 596.88,116.87 597.22,116.82 597.55,117.17 597.89,117.49 598.22,117.70 598.56,117.70 598.89,117.65 599.23,117.57 599.56,117.65 599.90,117.64 600.23,117.48 600.57,117.53 600.90,117.53 601.24,117.64 601.57,117.62 601.91,117.46 602.24,117.46 602.58,117.46 602.91,117.51 603.25,117.54 603.58,117.63 603.92,117.75 604.25,117.69 604.59,117.67 604.92,117.56 605.26,117.61 605.59,117.55 605.93,117.39 606.26,117.37 606.60,117.47 606.93,117.32 607.27,117.21 607.60,117.27 607.94,117.17 608.27,117.21 608.61,117.26 608.94,117.37 609.28,117.41 609.61,117.33 609.95,117.30 610.28,117.57 610.62,117.57 610.95,117.62 611.29,117.52 611.62,117.62 611.96,117.73 612.29,117.84 612.63,117.84 612.96,117.86 613.30,117.70 613.63,117.51 613.97,117.51 614.30,117.46 614.64,117.57 614.97,117.51 615.31,117.60 615.64,117.63 615.98,117.54 616.31,117.60 616.65,117.60 616.98,117.72 617.32,117.72 617.65,117.70 617.99,117.86 618.32,117.81 618.66,117.91 618.99,117.70 619.33,117.88 619.66,117.82 620.00,117.79 620.33,117.80 620.67,117.58 621.00,117.59 621.34,117.47 621.67,117.58 622.01,117.48 622.34,117.48 622.68,117.48 623.01,117.37 623.35,117.42 623.68,117.31 624.02,117.12 624.35,117.01 624.69,117.04 625.02,117.04 625.36,117.20 625.69,117.20 626.03,117.10 626.36,117.15 626.70,117.02 627.03,117.00 627.37,117.06 627.70,117.17 628.04,117.28 628.37,117.46 628.71,117.57 629.04,117.40 629.38,117.62 629.71,117.55 630.05,117.50 630.38,117.40 630.72,117.48 631.05,117.26 631.39,116.99 631.72,116.83 632.06,116.83 632.39,116.89 632.73,116.99 633.06,116.87 633.40,116.75 633.73,116.70 634.07,116.78 634.40,116.86 634.74,116.86 635.07,116.83 635.41,116.78 635.74,116.93 636.08,116.83 636.41,116.63 636.75,116.56 637.08,116.60 637.42,116.52 637.75,116.52 638.09,116.33 638.42,116.34 638.76,116.21 639.09,116.18 639.43,116.32 639.76,116.59 640.10,116.62 640.43,116.69 640.77,116.40 641.10,116.50 641.44,116.88 641.77,117.19 642.11,117.73 642.44,117.94 642.78,118.21 643.11,118.66 643.45,119.20 643.78,119.52 644.12,119.76 644.45,119.95 644.79,120.17 645.12,120.34 645.46,120.77 645.79,121.15 646.13,121.59 646.46,122.02 646.80,122.29 647.13,122.72 647.47,123.11 647.80,123.54 648.14,123.81 648.47,124.07 648.81,124.34 649.14,124.67 649.48,125.02 649.81,125.37 650.15,125.75 650.48,125.94 650.82,126.36 651.15,126.69 651.49,127.06 651.82,127.49 652.16,127.86 652.49,128.40 652.83,128.88 653.16,129.10 653.50,129.57 653.83,129.94 654.17,130.37 654.50,130.32 654.84,130.49 655.17,130.33 655.51,130.54 655.84,130.38 656.18,130.27 656.51,130.18 656.85,130.20 657.18,130.15 657.52,130.21 657.85,130.32 658.19,130.37 658.52,130.21 658.86,130.21 659.19,130.32 659.53,130.32 659.86,130.36 660.20,130.17 660.53,130.10 660.87,129.94 661.20,130.01 661.54,129.80 661.87,129.85 662.21,129.64 662.54,129.74 662.88,129.69 663.21,129.64 663.55,129.61 663.88,129.61 664.22,129.56 664.55,129.34 664.89,129.02 665.22,128.54 665.56,128.09 665.89,127.71 666.23,127.28 666.56,126.91 666.90,126.48 667.23,126.04 667.57,125.51 667.90,125.09 668.24,124.60 668.57,124.23 668.91,124.01 669.24,123.63 669.58,123.22 669.91,122.73 670.25,122.41 670.58,122.14 670.92,122.14 671.25,122.20 671.59,122.00 671.92,121.67 672.26,121.24 672.59,120.76 672.93,120.38 673.26,120.06 673.60,119.68 673.93,119.41 674.27,118.93 674.60,118.74 674.94,118.52 675.27,118.25 675.61,117.96 675.94,117.63 676.28,117.37 676.61,117.26 676.95,117.20 677.28,117.30 677.62,117.35 677.95,117.18 678.29,116.82 678.62,116.55 678.96,116.01 679.29,115.68 679.63,115.36 679.96,115.09 680.30,114.95 680.63,114.81 680.97,114.86 681.30,114.69 681.64,114.69 681.97,114.69 682.31,114.49 682.64,114.44 682.98,114.29 683.31,114.24 683.65,114.18 683.98,113.87 684.32,113.92 684.65,114.03 684.99,113.92 685.32,114.09 685.66,114.03 685.99,113.97 686.33,113.67 686.66,113.29 687.00,113.25 687.33,112.98 687.67,112.66 688.00,112.39 688.34,112.10 688.67,112.00 689.01,112.03 689.34,111.98 689.68,111.96 690.01,112.02 690.35,111.85 690.68,111.80 691.02,111.73 691.35,111.73 691.69,111.79 692.02,111.68 692.36,111.66 692.69,111.44 693.03,111.47 693.36,111.56 693.70,111.59 694.03,111.52 694.37,111.70 694.70,111.53 695.04,111.70 695.37,111.67 695.71,111.72 696.04,111.83 696.38,111.56 696.71,111.35 697.05,111.50 697.38,111.38 697.72,111.54 698.05,111.70 698.39,111.68 698.72,111.62 699.06,111.57 699.39,111.53 699.73,111.45 700.06,111.36 700.40,111.19 700.73,111.17 701.07,111.47 701.40,111.58 701.74,112.01 702.07,112.44 702.41,112.72 702.74,112.87 703.08,112.82 703.41,112.82 703.75,112.77 704.08,112.77 704.42,112.87 704.75,112.87 705.09,112.66 705.42,112.56 705.76,112.69 706.09,112.64 706.43,112.54 706.76,112.71 707.10,112.92 707.43,113.08 707.77,113.06 708.10,113.15 708.44,112.93 708.77,112.91 709.11,112.99 709.44,113.21 709.78,113.18 710.11,113.26 710.45,113.31 710.78,113.28 711.12,113.18 711.45,113.12 711.79,113.23 712.12,113.45 712.46,113.50 712.79,113.36 713.13,113.41 713.46,113.52 713.80,113.43 714.13,113.40 714.47,113.24 714.80,113.29 715.14,113.48 715.47,113.62 715.81,113.53 716.14,113.50 716.48,113.45 716.81,113.45 717.15,113.40 717.48,113.54 717.82,113.76 718.15,113.70 718.49,113.91 718.82,114.34 719.16,114.72 719.49,115.15 719.83,115.38 720.16,115.92 720.50,116.41 720.83,116.78 721.17,117.20 721.50,117.63 721.84,118.11 722.17,118.49 722.51,118.76 722.84,119.03 723.18,119.51 723.51,119.94 723.85,120.31 724.18,120.53 724.52,121.01 724.85,121.44 725.19,121.93 725.52,122.36 725.86,122.73 726.19,123.06 726.53,123.38 726.86,123.81 727.20,124.13 727.53,124.30 727.87,124.56 728.20,125.00 728.54,125.33 728.87,125.83 729.21,126.11 729.54,126.56 729.88,126.84 730.21,127.22 730.55,127.70 730.88,128.13 731.22,128.53 731.55,128.91 731.89,129.39 732.22,129.81 732.56,130.15 732.89,130.48 733.23,130.91 733.56,131.33 733.90,131.81 734.23,131.87 734.57,132.24 734.90,132.53 735.24,132.97 735.57,133.40 735.91,133.72 736.24,134.05 736.58,134.53 736.91,134.99 737.25,135.26 737.58,135.58 737.92,135.94 738.25,136.32 738.59,136.65 738.92,136.92 739.26,137.36 739.59,137.73 739.93,138.06 740.26,138.54 740.60,138.76 740.93,139.13 741.27,139.18 741.60,139.13 741.94,139.40 742.27,139.51 742.61,139.74 742.94,140.12 743.28,140.60 743.61,140.94 743.95,141.27 744.28,141.60 744.62,141.27 744.95,141.54 745.29,141.97 745.62,142.35 745.96,142.85 746.29,143.07 746.63,143.58 746.96,143.91 747.30,144.31 747.63,144.59 747.97,144.97 748.30,145.45 748.64,145.67 748.97,145.77 749.31,145.80 749.64,146.18 749.98,146.42 750.31,146.53 750.65,146.42 750.98,146.58 751.32,146.85 751.65,147.39 751.99,147.66 752.32,147.97 752.66,148.35 752.99,148.72 753.33,149.21 753.66,149.56 754.00,149.57 754.33,149.63 754.67,149.63 755.00,149.55"/>
<line x1="783" y1="106" x2="809" y2="106" stroke="#7c3aed" stroke-width="3"/>
<text x="817" y="110" font-family="Arial" font-size="13" fill="#111827">Calibrated Avellaneda Stoikov</text>
<text x="420.0" y="518" text-anchor="middle" font-family="Arial" font-size="14" fill="#111827">Event index</text>
<text x="22" y="256.0" text-anchor="middle" transform="rotate(-90 22 256.0)" font-family="Arial" font-size="14" fill="#111827">Inventory</text>
</svg>
