<svg xmlns="http://www.w3.org/2000/svg" width="940" height="720" viewBox="0 0 940 720">
<rect width="100%" height="100%" fill="#ffffff"/>
<text x="470.0" y="26" text-anchor="middle" font-family="Arial" font-size="18" fill="#111827">Avellaneda Stoikov Trending Inventory And Reservation Skew</text>
<line x1="85" y1="228.67" x2="900" y2="228.67" stroke="#111827" stroke-width="1"/>
<line x1="85" y1="46.00" x2="85" y2="228.67" stroke="#111827" stroke-width="1"/>
<text x="73" y="60.00" text-anchor="end" font-family="Arial" font-size="12" fill="#111827">Inventory</text>
<line x1="85" y1="228.67" x2="900" y2="228.67" stroke="#e5e7eb" stroke-width="1"/>
<text x="73" y="232.67" text-anchor="end" font-family="Arial" font-size="11" fill="#374151">-18941</text>
<line x1="85" y1="137.33" x2="900" y2="137.33" stroke="#e5e7eb" stroke-width="1"/>
<text x="73" y="141.33" text-anchor="end" font-family="Arial" font-size="11" fill="#374151">5882</text>
<line x1="85" y1="46.00" x2="900" y2="46.00" stroke="#e5e7eb" stroke-width="1"/>
<text x="73" y="50.00" text-anchor="end" font-family="Arial" font-size="11" fill="#374151">30704</text>
<polyline fill="none" stroke="#2563eb" stroke-width="2" points="85.00,158.97 85.41,159.05 85.82,159.03 86.22,159.03 86.63,159.14 87.04,159.14 87.45,159.06 87.85,158.93 88.26,158.93 88.67,158.99 89.08,159.00 89.48,159.14 89.89,159.14 90.30,159.07 90.71,159.08 91.11,159.01 91.52,159.00 91.93,158.93 92.34,158.94 92.74,159.00 93.15,158.99 93.56,159.03 93.97,159.07 94.37,159.01 94.78,158.87 95.19,158.68 95.60,158.65 96.00,158.44 96.41,158.25 96.82,158.00 97.23,157.66 97.63,157.38 98.04,157.20 98.45,156.94 98.86,156.69 99.26,156.36 99.67,156.09 100.08,155.80 100.49,155.46 100.89,155.20 101.30,154.95 101.71,154.58 102.12,154.32 102.52,154.14 102.93,153.88 103.34,153.62 103.75,153.36 104.15,153.14 104.56,152.84 104.97,152.62 105.38,152.36 105.78,152.05 106.19,151.74 106.60,151.56 107.01,151.30 107.41,151.11 107.82,151.08 108.23,150.86 108.64,150.64 109.04,150.42 109.45,150.60 109.86,150.49 110.27,150.53 110.67,150.41 111.08,150.48 111.49,150.52 111.90,150.41 112.30,150.33 112.71,150.26 113.12,150.20 113.53,150.00 113.93,149.71 114.34,149.45 114.75,149.34 115.16,149.27 115.56,149.21 115.97,149.25 116.38,149.37 116.79,149.34 117.19,149.36 117.60,149.31 118.01,149.35 118.42,149.50 118.82,149.38 119.23,149.46 119.64,149.54 120.05,149.57 120.45,149.60 120.86,149.51 121.27,149.47 121.68,149.62 122.08,149.87 122.49,149.95 122.90,149.99 123.31,149.99 123.71,150.02 124.12,150.17 124.53,150.20 124.94,150.35 125.34,150.31 125.75,150.28 126.16,150.34 126.57,150.61 126.97,150.59 127.38,150.56 127.79,150.34 128.20,150.25 128.60,150.17 129.01,150.25 129.42,150.28 129.83,150.47 130.23,150.54 130.64,150.79 131.05,151.00 131.46,151.26 131.86,151.63 132.27,151.90 132.68,152.20 133.09,152.49 133.49,152.70 133.90,153.07 134.31,153.32 134.72,153.51 135.12,153.78 135.53,153.93 135.94,154.04 136.35,154.28 136.75,154.54 137.16,154.83 137.57,155.06 137.98,155.24 138.38,155.36 138.79,155.38 139.20,155.31 139.61,155.27 140.01,155.33 140.42,155.50 140.83,155.63 141.24,155.61 141.64,155.65 142.05,155.72 142.46,155.77 142.87,155.77 143.27,155.70 143.68,155.75 144.09,155.82 144.50,155.97 144.90,156.03 145.31,156.00 145.72,156.11 146.13,156.12 146.53,156.19 146.94,156.10 147.35,156.35 147.76,156.53 148.16,156.75 148.57,157.02 148.98,157.35 149.39,157.61 149.79,157.79 150.20,158.05 150.61,158.15 151.02,158.08 151.42,158.15 151.83,158.18 152.24,158.15 152.65,158.21 153.05,158.18 153.46,158.07 153.87,158.10 154.28,158.01 154.68,158.16 155.09,158.41 155.50,158.41 155.91,158.52 156.31,158.63 156.72,158.63 157.13,158.54 157.54,158.47 157.94,158.47 158.35,158.58 158.76,158.54 159.17,158.58 159.57,158.43 159.98,158.51 160.39,158.62 160.80,158.62 161.20,158.54 161.61,158.65 162.02,158.61 162.43,158.39 162.83,158.29 163.24,158.25 163.65,158.28 164.06,158.35 164.46,158.42 164.87,158.42 165.28,158.42 165.69,158.31 166.09,158.24 166.50,158.34 166.91,158.37 167.32,158.30 167.72,158.33 168.13,158.37 168.54,158.35 168.95,158.28 169.35,158.39 169.76,158.53 170.17,158.49 170.58,158.60 170.98,158.53 171.39,158.56 171.80,158.80 172.21,158.75 172.61,158.84 173.02,158.51 173.43,158.29 173.84,158.03 174.24,157.85 174.65,157.56 175.06,157.35 175.47,157.08 175.87,156.86 176.28,156.68 176.69,156.64 177.10,156.49 177.50,156.53 177.91,156.64 178.32,156.79 178.73,156.98 179.13,157.17 179.54,157.31 179.95,157.63 180.36,157.83 180.76,158.05 181.17,158.35 181.58,158.64 181.99,158.86 182.39,159.06 182.80,159.36 183.21,159.65 183.62,159.91 184.02,160.24 184.43,160.43 184.84,160.61 185.25,160.92 185.65,161.14 186.06,161.44 186.47,161.73 186.88,162.06 187.28,162.36 187.69,162.68 188.10,162.94 188.51,163.19 188.91,163.49 189.32,163.82 189.73,163.97 190.14,164.22 190.54,164.57 190.95,164.80 191.36,165.07 191.77,165.37 192.17,165.59 192.58,165.81 192.99,166.01 193.40,166.27 193.80,166.57 194.21,166.86 194.62,167.10 195.03,167.36 195.43,167.65 195.84,167.91 196.25,168.20 196.66,168.52 197.06,168.81 197.47,169.02 197.88,169.24 198.29,169.57 198.69,169.87 199.10,170.13 199.51,170.38 199.92,170.64 200.32,170.85 200.73,171.11 201.14,171.49 201.55,171.60 201.95,171.89 202.36,172.11 202.77,172.44 203.18,172.65 203.58,172.90 203.99,173.24 204.40,173.53 204.81,173.71 205.21,174.02 205.62,174.21 206.03,174.49 206.44,174.86 206.84,175.15 207.25,175.48 207.66,175.77 208.07,176.07 208.47,176.40 208.88,176.65 209.29,176.97 209.70,177.34 210.10,177.49 210.51,177.59 210.92,177.84 211.33,178.13 211.73,178.35 212.14,178.61 212.55,178.77 212.96,179.07 213.36,179.37 213.77,179.74 214.18,180.00 214.59,180.29 214.99,180.51 215.40,180.88 215.81,180.80 216.22,180.65 216.62,180.56 217.03,180.52 217.44,180.52 217.85,180.34 218.25,180.08 218.66,180.01 219.07,180.00 219.48,179.93 219.88,180.00 220.29,180.07 220.70,180.04 221.11,180.00 221.51,180.05 221.92,180.20 222.33,180.46 222.74,180.68 223.14,181.01 223.55,181.25 223.96,181.54 224.37,181.73 224.77,181.91 225.18,181.86 225.59,182.04 226.00,182.01 226.40,182.01 226.81,182.03 227.22,181.89 227.63,181.78 228.03,182.00 228.44,182.18 228.85,182.44 229.26,182.70 229.66,183.01 230.07,183.27 230.48,183.46 230.89,183.65 231.29,183.87 231.70,183.72 232.11,183.90 232.52,183.93 232.92,183.78 233.33,183.52 233.74,183.45 234.15,183.35 234.55,183.39 234.96,183.69 235.37,183.94 235.78,184.20 236.18,184.27 236.59,184.53 237.00,184.75 237.41,184.94 237.81,185.16 238.22,185.38 238.63,185.56 239.04,185.86 239.44,186.08 239.85,186.27 240.26,186.45 240.67,186.74 241.07,186.99 241.48,187.29 241.89,187.55 242.30,187.79 242.70,188.05 243.11,188.17 243.52,188.29 243.93,188.15 244.33,188.45 244.74,188.63 245.15,188.86 245.56,189.08 245.96,189.35 246.37,189.64 246.78,189.94 247.19,190.20 247.59,190.47 248.00,190.79 248.41,190.98 248.82,191.24 249.22,191.50 249.63,191.68 250.04,191.85 250.45,192.07 250.85,192.37 251.26,192.63 251.67,192.85 252.08,193.18 252.48,193.47 252.89,193.77 253.30,193.97 253.71,194.23 254.11,194.49 254.52,194.78 254.93,195.07 255.34,195.32 255.74,195.51 256.15,195.86 256.56,196.06 256.97,196.32 257.37,196.55 257.78,196.80 258.19,197.05 258.60,197.34 259.00,197.63 259.41,197.84 259.82,198.10 260.23,198.25 260.63,198.30 261.04,198.56 261.45,198.86 261.86,199.02 262.26,199.28 262.67,199.54 263.08,199.79 263.49,200.09 263.89,200.31 264.30,200.50 264.71,200.76 265.12,201.10 265.52,201.41 265.93,201.70 266.34,201.96 266.75,202.26 267.15,202.55 267.56,202.84 267.97,203.18 268.38,203.47 268.78,203.73 269.19,203.95 269.60,204.09 270.01,204.15 270.41,204.11 270.82,204.15 271.23,204.04 271.64,204.23 272.04,204.43 272.45,204.68 272.86,204.95 273.27,205.17 273.67,205.42 274.08,205.64 274.49,205.68 274.90,205.50 275.30,205.43 275.71,205.50 276.12,205.54 276.53,205.46 276.93,205.32 277.34,205.10 277.75,205.02 278.16,204.92 278.56,205.14 278.97,205.48 279.38,205.74 279.79,205.99 280.19,206.29 280.60,206.55 281.01,206.82 281.42,207.07 281.82,207.31 282.23,207.64 282.64,207.73 283.05,207.80 283.45,207.62 283.86,207.39 284.27,207.53 284.68,207.71 285.08,207.82 285.49,207.82 285.90,207.79 286.31,207.82 286.71,207.97 287.12,207.97 287.53,208.18 287.94,208.51 288.34,208.53 288.75,208.33 289.16,208.29 289.57,208.32 289.97,208.44 290.38,208.63 290.79,208.73 291.20,208.94 291.60,209.20 292.01,209.46 292.42,209.83 292.83,209.98 293.23,210.27 293.64,210.53 294.05,210.79 294.46,211.06 294.86,211.36 295.27,211.58 295.68,211.79 296.09,211.97 296.49,212.30 296.90,212.56 297.31,212.64 297.72,212.89 298.12,212.93 298.53,212.96 298.94,213.00 299.35,212.76 299.75,212.52 300.16,212.26 300.57,212.00 300.98,211.71 301.38,211.50 301.79,211.20 302.20,211.12 302.61,211.08 303.01,211.14 303.42,210.99 303.83,210.95 304.24,210.93 304.64,210.76 305.05,210.50 305.46,210.39 305.87,210.35 306.27,210.29 306.68,210.23 307.09,210.27 307.50,210.28 307.90,210.26 308.31,210.15 308.72,209.94 309.13,209.90 309.53,209.83 309.94,209.84 310.35,210.06 310.76,210.33 311.16,210.62 311.57,210.99 311.98,210.91 312.39,210.78 312.79,210.78 313.20,211.05 313.61,211.38 314.02,211.48 314.42,211.27 314.83,211.57 315.24,211.94 315.65,212.05 316.05,212.12 316.46,212.41 316.87,212.62 317.28,212.96 317.68,213.18 318.09,213.40 318.50,213.56 318.91,213.78 319.31,214.04 319.72,214.26 320.13,214.52 320.54,214.63 320.94,214.89 321.35,214.86 321.76,214.73 322.17,214.58 322.57,214.29 322.98,213.99 323.39,213.84 323.80,213.92 324.20,213.67 324.61,213.71 325.02,213.64 325.43,213.56 325.83,213.38 326.24,213.42 326.65,213.60 327.06,213.71 327.46,213.85 327.87,214.10 328.28,214.27 328.69,214.49 329.09,214.67 329.50,214.82 329.91,215.00 330.32,215.15 330.72,215.52 331.13,215.77 331.54,216.07 331.95,216.07 332.35,215.84 332.76,215.65 333.17,215.41 333.58,215.14 333.98,214.90 334.39,214.64 334.80,214.71 335.21,214.62 335.61,214.51 336.02,214.32 336.43,214.43 336.84,214.34 337.24,214.04 337.65,213.69 338.06,213.47 338.47,213.41 338.87,213.34 339.28,213.34 339.69,213.16 340.10,213.16 340.50,212.99 340.91,212.89 341.32,212.82 341.73,212.81 342.13,212.57 342.54,212.30 342.95,212.09 343.36,211.79 343.76,211.54 344.17,211.31 344.58,210.98 344.99,210.83 345.39,210.54 345.80,210.35 346.21,210.17 346.62,209.99 347.02,209.71 347.43,209.49 347.84,209.20 348.25,208.94 348.65,208.61 349.06,208.34 349.47,208.06 349.88,207.69 350.28,207.40 350.69,207.11 351.10,206.88 351.51,206.62 351.91,206.42 352.32,206.12 352.73,205.83 353.14,205.53 353.54,205.32 353.95,205.06 354.36,204.87 354.77,204.68 355.17,204.35 355.58,204.13 355.99,203.90 356.40,203.64 356.80,203.36 357.21,203.12 357.62,203.06 358.03,202.73 358.43,202.46 358.84,202.16 359.25,201.91 359.66,201.72 360.06,201.46 360.47,201.09 360.88,200.80 361.29,200.58 361.69,200.25 362.10,199.99 362.51,199.74 362.92,199.53 363.32,199.17 363.73,198.80 364.14,198.59 364.55,198.33 364.95,198.04 365.36,197.73 365.77,197.47 366.18,197.18 366.58,196.88 366.99,196.55 367.40,196.32 367.81,195.99 368.21,195.59 368.62,195.29 369.03,194.96 369.44,194.67 369.84,194.48 370.25,194.19 370.66,193.89 371.07,193.59 371.47,193.26 371.88,192.90 372.29,192.72 372.70,192.49 373.10,192.23 373.51,191.94 373.92,191.74 374.33,191.44 374.73,191.15 375.14,190.90 375.55,190.57 375.96,190.32 376.36,190.01 376.77,189.72 377.18,189.43 377.59,189.16 377.99,188.94 378.40,188.62 378.81,188.29 379.22,188.11 379.62,187.89 380.03,187.67 380.44,187.37 380.85,187.08 381.25,186.86 381.66,186.60 382.07,186.35 382.48,186.13 382.88,185.84 383.29,185.61 383.70,185.46 384.11,185.24 384.51,185.00 384.92,184.81 385.33,184.55 385.74,184.26 386.14,184.02 386.55,183.69 386.96,183.33 387.37,183.10 387.77,182.88 388.18,182.62 388.59,182.37 389.00,182.08 389.40,181.82 389.81,181.51 390.22,181.36 390.63,181.11 391.03,180.85 391.44,180.66 391.85,180.48 392.26,180.23 392.66,179.90 393.07,179.64 393.48,179.31 393.89,179.01 394.29,178.72 394.70,178.46 395.11,178.24 395.52,177.91 395.92,177.62 396.33,177.36 396.74,177.07 397.15,176.85 397.55,176.70 397.96,176.55 398.37,176.29 398.78,176.33 399.18,176.58 399.59,176.89 400.00,177.12 400.41,177.12 400.81,177.12 401.22,176.86 401.63,176.90 402.04,176.94 402.44,176.94 402.85,176.85 403.26,176.83 403.67,176.79 404.07,176.81 404.48,176.81 404.89,176.80 405.30,176.65 405.70,176.42 406.11,176.28 406.52,176.28 406.93,176.31 407.33,176.28 407.74,176.34 408.15,176.28 408.56,176.25 408.96,176.18 409.37,176.11 409.78,176.07 410.19,176.07 410.59,176.00 411.00,175.89 411.41,175.80 411.82,175.63 412.22,175.41 412.63,175.12 413.04,174.76 413.45,174.68 413.85,174.42 414.26,174.31 414.67,174.09 415.08,173.84 415.48,173.58 415.89,173.23 416.30,172.90 416.71,172.57 417.11,172.31 417.52,171.94 417.93,171.65 418.34,171.50 418.74,171.28 419.15,171.06 419.56,170.80 419.97,170.47 420.37,170.40 420.78,170.42 421.19,170.42 421.60,170.45 422.00,170.45 422.41,170.41 422.82,170.37 423.23,170.42 423.63,170.44 424.04,170.44 424.45,170.39 424.86,170.43 425.26,170.39 425.67,170.44 426.08,170.29 426.49,170.06 426.89,169.83 427.30,169.72 427.71,169.42 428.12,169.24 428.52,169.09 428.93,168.87 429.34,168.56 429.75,168.24 430.15,167.97 430.56,167.82 430.97,167.71 431.38,167.71 431.78,167.38 432.19,167.22 432.60,167.18 433.01,167.04 433.41,167.00 433.82,166.74 434.23,166.58 434.64,166.30 435.04,166.04 435.45,165.75 435.86,165.53 436.27,165.20 436.67,164.98 437.08,164.79 437.49,164.46 437.90,164.20 438.30,163.95 438.71,163.58 439.12,163.33 439.53,163.13 439.93,162.87 440.34,162.58 440.75,162.29 441.16,162.00 441.56,161.86 441.97,161.64 442.38,161.42 442.79,161.11 443.19,160.93 443.60,160.69 444.01,160.37 444.42,160.07 444.82,159.78 445.23,159.56 445.64,159.32 446.05,159.16 446.45,158.87 446.86,158.76 447.27,158.39 447.68,158.12 448.08,157.84 448.49,157.55 448.90,157.25 449.31,157.02 449.71,156.84 450.12,156.66 450.53,156.36 450.94,156.35 451.34,156.33 451.75,156.28 452.16,156.21 452.57,155.92 452.97,155.59 453.38,155.32 453.79,155.13 454.20,155.19 454.60,155.15 455.01,155.27 455.42,155.35 455.83,155.24 456.23,155.16 456.64,154.94 457.05,154.76 457.46,154.79 457.86,154.89 458.27,154.81 458.68,154.74 459.09,154.59 459.49,154.26 459.90,154.22 460.31,154.22 460.72,154.48 461.12,154.58 461.53,154.56 461.94,154.59 462.35,154.67 462.75,154.65 463.16,154.57 463.57,154.56 463.98,154.61 464.38,154.55 464.79,154.55 465.20,154.80 465.61,154.76 466.01,154.72 466.42,154.72 466.83,154.69 467.24,154.71 467.64,154.76 468.05,154.72 468.46,154.73 468.87,154.70 469.27,154.88 469.68,154.70 470.09,154.40 470.50,154.22 470.90,153.96 471.31,153.74 471.72,153.41 472.13,153.26 472.53,153.02 472.94,152.78 473.35,152.56 473.76,152.34 474.16,152.05 474.57,151.71 474.98,151.46 475.39,151.13 475.79,150.83 476.20,150.54 476.61,150.28 477.02,150.04 477.42,149.74 477.83,149.52 478.24,149.23 478.65,148.92 479.05,148.61 479.46,148.46 479.87,148.20 480.28,147.91 480.68,147.58 481.09,147.32 481.50,147.06 481.91,146.73 482.31,146.43 482.72,146.21 483.13,145.99 483.54,145.69 483.94,145.40 484.35,145.10 484.76,144.83 485.17,144.62 485.57,144.36 485.98,144.06 486.39,143.81 486.80,143.51 487.20,143.29 487.61,143.15 488.02,142.92 488.43,142.63 488.83,142.37 489.24,142.14 489.65,141.88 490.06,141.70 490.46,141.37 490.87,141.11 491.28,140.96 491.69,140.63 492.09,140.41 492.50,140.12 492.91,139.82 493.32,139.60 493.72,139.40 494.13,139.10 494.54,138.77 494.95,138.48 495.35,138.29 495.76,137.99 496.17,137.70 496.58,137.40 496.98,137.14 497.39,136.88 497.80,136.65 498.21,136.36 498.61,136.07 499.02,135.85 499.43,135.59 499.84,135.34 500.24,135.08 500.65,134.82 501.06,134.58 501.47,134.30 501.87,134.08 502.28,133.84 502.69,133.59 503.10,133.44 503.50,133.21 503.91,132.88 504.32,132.66 504.73,132.29 505.13,132.03 505.54,131.74 505.95,131.55 506.36,131.33 506.76,131.16 507.17,130.93 507.58,130.63 507.99,130.34 508.39,130.06 508.80,129.77 509.21,129.54 509.62,129.32 510.02,129.10 510.43,128.85 510.84,128.52 511.25,128.27 511.65,128.01 512.06,127.82 512.47,127.60 512.88,127.27 513.28,126.90 513.69,126.61 514.10,126.31 514.51,126.06 514.91,125.78 515.32,125.45 515.73,125.30 516.14,125.05 516.54,124.82 516.95,124.64 517.36,124.31 517.77,124.12 518.17,123.83 518.58,123.57 518.99,123.31 519.40,123.06 519.80,122.72 520.21,122.54 520.62,122.32 521.03,121.99 521.43,121.73 521.84,121.47 522.25,121.18 522.66,120.89 523.06,120.74 523.47,120.53 523.88,120.31 524.29,119.99 524.69,119.66 525.10,119.43 525.51,119.25 525.92,118.96 526.32,118.78 526.73,118.49 527.14,118.20 527.55,117.91 527.95,117.76 528.36,117.83 528.77,117.85 529.18,117.79 529.58,117.86 529.99,117.81 530.40,117.85 530.81,117.95 531.21,117.77 531.62,117.93 532.03,117.78 532.44,117.82 532.84,117.74 533.25,117.62 533.66,117.62 534.07,117.84 534.47,117.84 534.88,118.01 535.29,118.09 535.70,118.12 536.10,118.01 536.51,118.27 536.92,118.46 537.33,118.79 537.73,119.09 538.14,119.29 538.55,119.58 538.96,119.80 539.36,119.91 539.77,120.06 540.18,120.10 540.59,120.13 540.99,120.17 541.40,120.14 541.81,120.14 542.22,120.16 542.62,120.06 543.03,120.08 543.44,120.12 543.85,120.15 544.25,120.19 544.66,120.23 545.07,120.23 545.48,120.37 545.88,120.34 546.29,120.16 546.70,120.19 547.11,120.11 547.51,120.09 547.92,120.00 548.33,120.04 548.74,119.97 549.14,120.08 549.55,120.08 549.96,120.12 550.37,120.28 550.77,120.35 551.18,120.31 551.59,120.31 552.00,120.27 552.40,120.20 552.81,120.27 553.22,120.34 553.63,120.37 554.03,120.48 554.44,120.52 554.85,120.48 555.26,120.44 555.66,120.19 556.07,120.11 556.48,120.00 556.89,120.04 557.29,120.00 557.70,120.04 558.11,120.07 558.52,120.01 558.92,120.10 559.33,120.28 559.74,120.58 560.15,120.83 560.55,121.12 560.96,121.38 561.37,121.38 561.78,121.34 562.18,121.46 562.59,121.77 563.00,122.03 563.41,122.33 563.81,122.58 564.22,122.84 564.63,123.17 565.04,123.45 565.44,123.63 565.85,123.89 566.26,124.18 566.67,124.48 567.07,124.84 567.48,125.17 567.89,125.37 568.30,125.73 568.70,125.91 569.11,126.20 569.52,126.50 569.93,126.76 570.33,126.98 570.74,127.33 571.15,127.55 571.56,127.68 571.96,128.01 572.37,128.22 572.78,128.52 573.19,128.77 573.59,129.04 574.00,129.30 574.41,129.59 574.82,129.89 575.22,130.22 575.63,130.55 576.04,130.85 576.45,131.17 576.85,131.43 577.26,131.72 577.67,132.01 578.08,132.22 578.48,132.48 578.89,132.78 579.30,133.02 579.71,133.27 580.11,133.56 580.52,133.74 580.93,134.05 581.34,134.38 581.74,134.63 582.15,134.93 582.56,135.22 582.97,135.48 583.37,135.74 583.78,136.00 584.19,136.29 584.60,136.55 585.01,136.88 585.41,137.07 585.82,137.33 586.23,137.44 586.64,137.70 587.04,137.99 587.45,138.28 587.86,138.51 588.27,138.87 588.67,139.16 589.08,139.43 589.49,139.72 589.90,139.99 590.30,140.24 590.71,140.41 591.12,140.71 591.53,140.89 591.93,141.07 592.34,141.36 592.75,141.73 593.16,142.02 593.56,142.35 593.97,142.60 594.38,142.89 594.79,143.15 595.19,143.45 595.60,143.74 596.01,144.04 596.42,144.33 596.82,144.65 597.23,144.87 597.64,145.02 598.05,145.34 598.45,145.60 598.86,145.86 599.27,146.04 599.68,146.10 600.08,146.22 600.49,146.44 600.90,146.70 601.31,146.92 601.71,147.14 602.12,147.44 602.53,147.62 602.94,147.73 603.34,147.78 603.75,147.74 604.16,147.86 604.57,147.75 604.97,147.86 605.38,148.02 605.79,148.09 606.20,148.03 606.60,148.07 607.01,148.06 607.42,148.03 607.83,148.06 608.23,148.18 608.64,148.09 609.05,148.06 609.46,147.91 609.86,147.80 610.27,147.80 610.68,147.84 611.09,147.69 611.49,147.76 611.90,147.91 612.31,147.87 612.72,147.89 613.12,147.81 613.53,148.00 613.94,148.29 614.35,148.57 614.75,148.79 615.16,149.04 615.57,149.30 615.98,149.43 616.38,149.49 616.79,149.54 617.20,149.62 617.61,149.55 618.01,149.49 618.42,149.42 618.83,149.43 619.24,149.43 619.64,149.40 620.05,149.48 620.46,149.42 620.87,149.58 621.27,149.54 621.68,149.60 622.09,149.61 622.50,149.53 622.90,149.64 623.31,149.47 623.72,149.21 624.13,149.10 624.53,149.03 624.94,149.05 625.35,149.14 625.76,149.10 626.16,149.16 626.57,149.20 626.98,149.35 627.39,149.20 627.79,149.20 628.20,149.26 628.61,149.23 629.02,148.90 629.42,148.65 629.83,148.66 630.24,148.62 630.65,148.66 631.05,148.51 631.46,148.51 631.87,148.79 632.28,149.01 632.68,149.24 633.09,149.57 633.50,149.82 633.91,150.12 634.31,150.30 634.72,150.49 635.13,150.52 635.54,150.60 635.94,150.56 636.35,150.52 636.76,150.41 637.17,150.35 637.57,150.42 637.98,150.38 638.39,150.49 638.80,150.45 639.20,150.60 639.61,150.45 640.02,150.54 640.43,150.46 640.83,150.42 641.24,150.51 641.65,150.42 642.06,150.31 642.46,150.22 642.87,150.28 643.28,150.47 643.69,150.60 644.09,150.71 644.50,150.85 644.91,150.78 645.32,150.67 645.72,150.63 646.13,150.60 646.54,150.70 646.95,150.75 647.35,150.77 647.76,150.81 648.17,150.70 648.58,150.74 648.98,150.79 649.39,150.72 649.80,150.68 650.21,150.64 650.61,150.75 651.02,150.91 651.43,150.98 651.84,151.02 652.24,151.11 652.65,151.37 653.06,151.63 653.47,151.96 653.87,152.15 654.28,152.37 654.69,152.59 655.10,152.73 655.50,153.07 655.91,153.40 656.32,153.65 656.73,153.91 657.13,154.21 657.54,154.35 657.95,154.54 658.36,154.79 658.76,154.94 659.17,155.18 659.58,155.46 659.99,155.75 660.39,156.04 660.80,156.34 661.21,156.53 661.62,156.78 662.02,157.01 662.43,157.15 662.84,157.41 663.25,157.68 663.65,157.89 664.06,158.15 664.47,158.44 664.88,158.67 665.28,159.00 665.69,159.25 666.10,159.55 666.51,159.81 666.91,160.08 667.32,160.37 667.73,160.67 668.14,160.96 668.54,161.29 668.95,161.51 669.36,161.73 669.77,162.07 670.17,162.32 670.58,162.54 670.99,162.91 671.40,163.21 671.80,163.37 672.21,163.66 672.62,163.81 673.03,164.08 673.43,164.16 673.84,164.42 674.25,164.71 674.66,165.05 675.06,165.37 675.47,165.40 675.88,165.51 676.29,165.42 676.69,165.57 677.10,165.43 677.51,165.20 677.92,165.07 678.32,165.08 678.73,165.19 679.14,165.19 679.55,165.20 679.95,165.27 680.36,165.16 680.77,165.06 681.18,165.03 681.58,164.85 681.99,164.74 682.40,164.79 682.81,164.77 683.21,164.79 683.62,164.71 684.03,164.69 684.44,164.77 684.84,164.60 685.25,164.38 685.66,164.08 686.07,163.89 686.47,163.60 686.88,163.26 687.29,163.04 687.70,162.72 688.10,162.44 688.51,162.26 688.92,162.00 689.33,161.74 689.73,161.46 690.14,161.16 690.55,160.91 690.96,160.69 691.36,160.50 691.77,160.17 692.18,159.92 692.59,159.64 692.99,159.39 693.40,159.13 693.81,158.94 694.22,158.65 694.62,158.39 695.03,158.02 695.44,157.80 695.85,157.73 696.25,157.36 696.66,157.07 697.07,156.81 697.48,156.44 697.88,156.15 698.29,155.96 698.70,155.75 699.11,155.43 699.51,155.18 699.92,154.88 700.33,154.66 700.74,154.37 701.14,154.11 701.55,153.85 701.96,153.59 702.37,153.24 702.77,152.87 703.18,152.65 703.59,152.32 704.00,152.06 704.40,151.73 704.81,151.48 705.22,151.17 705.63,150.88 706.03,150.58 706.44,150.35 706.85,150.09 707.26,149.76 707.66,149.54 708.07,149.57 708.48,149.57 708.89,149.60 709.29,149.42 709.70,149.14 710.11,148.94 710.52,148.65 710.92,148.40 711.33,148.07 711.74,147.81 712.15,147.65 712.55,147.35 712.96,147.06 713.37,146.82 713.78,146.67 714.18,146.46 714.59,146.20 715.00,145.90 715.41,145.61 715.81,145.32 716.22,145.02 716.63,144.76 717.04,144.47 717.44,144.21 717.85,143.98 718.26,143.73 718.67,143.40 719.07,143.14 719.48,142.81 719.89,142.63 720.30,142.30 720.70,142.07 721.11,141.78 721.52,141.56 721.93,141.29 722.33,141.05 722.74,140.79 723.15,140.57 723.56,140.18 723.96,139.84 724.37,139.62 724.78,139.44 725.19,139.15 725.59,138.96 726.00,138.63 726.41,138.30 726.82,137.97 727.22,137.67 727.63,137.42 728.04,137.12 728.45,136.75 728.85,136.53 729.26,136.36 729.67,136.09 730.08,135.76 730.48,135.43 730.89,135.18 731.30,134.98 731.71,134.80 732.11,134.54 732.52,134.24 732.93,133.99 733.34,133.73 733.74,133.43 734.15,133.18 734.56,132.93 734.97,132.67 735.37,132.37 735.78,132.00 736.19,131.64 736.60,131.41 737.00,131.18 737.41,130.89 737.82,130.74 738.23,130.52 738.63,130.23 739.04,130.01 739.45,129.78 739.86,129.49 740.26,129.23 740.67,128.90 741.08,128.67 741.49,128.41 741.89,128.11 742.30,127.84 742.71,127.64 743.12,127.35 743.52,127.09 743.93,126.83 744.34,126.54 744.75,126.25 745.15,125.93 745.56,125.62 745.97,125.29 746.38,125.03 746.78,124.70 747.19,124.41 747.60,124.25 748.01,124.03 748.41,123.87 748.82,123.56 749.23,123.34 749.64,123.01 750.04,122.79 750.45,122.53 750.86,122.31 751.27,122.03 751.67,121.75 752.08,121.46 752.49,121.28 752.90,121.02 753.30,120.80 753.71,120.51 754.12,120.27 754.53,120.05 754.93,119.84 755.34,119.47 755.75,119.25 756.16,118.99 756.56,118.72 756.97,118.50 757.38,118.25 757.79,117.95 758.19,117.69 758.60,117.58 759.01,117.25 759.42,116.93 759.82,116.76 760.23,116.51 760.64,116.43 761.05,116.25 761.45,115.90 761.86,115.67 762.27,115.38 762.68,115.16 763.08,114.79 763.49,114.52 763.90,114.28 764.31,113.99 764.71,113.69 765.12,113.32 765.53,113.03 765.94,112.66 766.34,112.44 766.75,112.15 767.16,111.82 767.57,111.52 767.97,111.19 768.38,110.86 768.79,110.68 769.20,110.38 769.60,110.05 770.01,109.79 770.42,109.43 770.83,109.32 771.23,108.98 771.64,108.72 772.05,108.43 772.46,108.12 772.86,107.83 773.27,107.64 773.68,107.45 774.09,107.16 774.49,106.94 774.90,106.64 775.31,106.39 775.72,106.14 776.12,105.88 776.53,105.62 776.94,105.35 777.35,105.17 777.75,104.84 778.16,104.58 778.57,104.36 778.98,104.07 779.38,103.81 779.79,103.55 780.20,103.29 780.61,103.03 781.01,102.79 781.42,102.53 781.83,102.22 782.24,101.89 782.64,101.63 783.05,101.46 783.46,101.20 783.87,101.01 784.27,100.68 784.68,100.42 785.09,100.13 785.50,99.87 785.90,99.58 786.31,99.31 786.72,99.02 787.13,98.66 787.53,98.44 787.94,98.14 788.35,97.97 788.76,97.72 789.16,97.50 789.57,97.20 789.98,97.06 790.39,96.80 790.79,96.60 791.20,96.34 791.61,96.05 792.02,95.94 792.42,95.86 792.83,95.83 793.24,95.86 793.65,95.76 794.05,95.79 794.46,95.94 794.87,95.99 795.28,95.75 795.68,95.53 796.09,95.44 796.50,95.29 796.91,95.00 797.31,94.88 797.72,94.59 798.13,94.59 798.54,94.33 798.94,94.07 799.35,93.81 799.76,93.55 800.17,93.33 800.57,93.11 800.98,93.18 801.39,93.12 801.80,93.26 802.20,93.00 802.61,92.86 803.02,92.71 803.43,92.59 803.83,92.37 804.24,92.04 804.65,91.82 805.06,91.60 805.46,91.27 805.87,91.01 806.28,90.75 806.69,90.52 807.09,90.29 807.50,90.06 807.91,89.87 808.32,89.59 808.72,89.42 809.13,89.25 809.54,89.25 809.95,89.21 810.35,89.32 810.76,89.16 811.17,89.19 811.58,89.11 811.98,89.03 812.39,89.13 812.80,89.19 813.21,89.20 813.61,89.14 814.02,88.92 814.43,88.63 814.84,88.27 815.24,88.06 815.65,87.87 816.06,87.61 816.47,87.79 816.87,87.90 817.28,87.91 817.69,87.81 818.10,87.70 818.50,87.66 818.91,87.40 819.32,87.12 819.73,86.87 820.13,86.68 820.54,86.71 820.95,86.43 821.36,86.33 821.76,86.33 822.17,86.29 822.58,86.05 822.99,85.75 823.39,85.43 823.80,85.17 824.21,84.84 824.62,84.48 825.02,84.18 825.43,84.22 825.84,84.29 826.25,84.05 826.65,83.98 827.06,83.98 827.47,84.07 827.88,84.00 828.28,84.10 828.69,83.95 829.10,83.66 829.51,83.43 829.91,83.17 830.32,82.95 830.73,82.68 831.14,82.42 831.54,82.27 831.95,82.19 832.36,81.93 832.77,81.64 833.17,81.38 833.58,81.08 833.99,80.79 834.40,80.60 834.80,80.38 835.21,80.05 835.62,79.68 836.03,79.42 836.43,79.20 836.84,78.94 837.25,78.71 837.66,78.60 838.06,78.31 838.47,78.08 838.88,77.90 839.29,77.68 839.69,77.39 840.10,77.09 840.51,76.83 840.92,76.50 841.32,76.35 841.73,76.06 842.14,75.88 842.55,75.69 842.95,75.51 843.36,75.38 843.77,75.20 844.18,74.96 844.58,74.79 844.99,74.49 845.40,74.24 845.81,74.13 846.21,73.87 846.62,73.54 847.03,73.25 847.44,72.95 847.84,72.73 848.25,72.51 848.66,72.28 849.07,72.10 849.47,71.84 849.88,71.62 850.29,71.29 850.70,70.96 851.10,70.96 851.51,71.00 851.92,71.26 852.33,71.51 852.73,71.77 853.14,72.03 853.55,72.32 853.96,72.56 854.36,72.63 854.77,72.74 855.18,72.53 855.59,72.23 855.99,71.91 856.40,71.76 856.81,71.64 857.22,71.67 857.62,71.67 858.03,71.31 858.44,71.00 858.85,70.78 859.25,70.52 859.66,70.19 860.07,69.95 860.48,69.76 860.88,69.58 861.29,69.32 861.70,69.21 862.11,68.96 862.51,68.73 862.92,68.44 863.33,68.28 863.74,68.02 864.14,67.84 864.55,67.51 864.96,67.43 865.37,67.51 865.77,67.65 866.18,67.96 866.59,68.22 867.00,68.23 867.40,68.27 867.81,68.20 868.22,68.13 868.63,68.07 869.03,68.15 869.44,68.13 869.85,67.90 870.26,67.57 870.66,67.28 871.07,67.02 871.48,66.77 871.89,66.62 872.29,66.52 872.70,66.22 873.11,65.91 873.52,65.63 873.92,65.37 874.33,65.08 874.74,64.93 875.15,64.67 875.55,64.64 875.96,64.47 876.37,64.57 876.78,64.50 877.18,64.20 877.59,64.05 878.00,63.92 878.41,63.73 878.81,63.40 879.22,63.16 879.63,62.92 880.04,62.59 880.44,62.40 880.85,62.23 881.26,62.03 881.67,61.91 882.07,61.73 882.48,61.82 882.89,61.87 883.30,61.95 883.70,61.80 884.11,61.87 884.52,61.85 884.93,61.88 885.33,61.81 885.74,61.77 886.15,61.77 886.56,61.84 886.96,61.88 887.37,61.75 887.78,61.86 888.19,61.81 888.59,61.88 889.00,61.96 889.41,61.94 889.82,61.73 890.22,61.48 890.63,61.14 891.04,60.89 891.45,60.56 891.85,60.27 892.26,60.01 892.67,59.68 893.08,59.54 893.48,59.47 893.89,59.39 894.30,59.39 894.71,59.34 895.11,59.30 895.52,58.97 895.93,58.95 896.34,58.93 896.74,58.89 897.15,58.60 897.56,58.74 897.97,58.64 898.37,58.68 898.78,58.83 899.19,58.86 899.60,58.86 900.00,59.01"/>
<line x1="85" y1="445.33" x2="900" y2="445.33" stroke="#111827" stroke-width="1"/>
<line x1="85" y1="262.67" x2="85" y2="445.33" stroke="#111827" stroke-width="1"/>
<text x="73" y="276.67" text-anchor="end" font-family="Arial" font-size="12" fill="#111827">Reservation skew ticks</text>
<line x1="85" y1="445.33" x2="900" y2="445.33" stroke="#e5e7eb" stroke-width="1"/>
<text x="73" y="449.33" text-anchor="end" font-family="Arial" font-size="11" fill="#374151">-15</text>
<line x1="85" y1="354.00" x2="900" y2="354.00" stroke="#e5e7eb" stroke-width="1"/>
<text x="73" y="358.00" text-anchor="end" font-family="Arial" font-size="11" fill="#374151">-4</text>
<line x1="85" y1="262.67" x2="900" y2="262.67" stroke="#e5e7eb" stroke-width="1"/>
<text x="73" y="266.67" text-anchor="end" font-family="Arial" font-size="11" fill="#374151">8</text>
<polyline fill="none" stroke="#dc2626" stroke-width="2" points="85.00,325.77 85.41,325.97 85.82,325.92 86.22,325.92 86.63,326.21 87.04,326.21 87.45,326.00 87.85,325.66 88.26,325.66 88.67,325.80 89.08,325.85 89.48,326.22 89.89,326.22 90.30,326.03 90.71,326.06 91.11,325.87 91.52,325.85 91.93,325.65 92.34,325.67 92.74,325.84 93.15,325.82 93.56,325.92 93.97,326.01 94.37,325.87 94.78,325.49 95.19,325.00 95.60,324.90 96.00,324.35 96.41,323.86 96.82,323.18 97.23,322.31 97.63,321.55 98.04,321.08 98.45,320.41 98.86,319.75 99.26,318.88 99.67,318.18 100.08,317.40 100.49,316.51 100.89,315.84 101.30,315.17 101.71,314.21 102.12,313.54 102.52,313.06 102.93,312.39 103.34,311.72 103.75,311.05 104.15,310.47 104.56,309.71 104.97,309.12 105.38,308.46 105.78,307.66 106.19,306.86 106.60,306.38 107.01,305.72 107.41,305.25 107.82,305.17 108.23,304.60 108.64,304.04 109.04,303.47 109.45,303.95 109.86,303.68 110.27,303.81 110.67,303.50 111.08,303.70 111.49,303.81 111.90,303.53 112.30,303.35 112.71,303.17 113.12,303.03 113.53,302.52 113.93,301.77 114.34,301.12 114.75,300.85 115.16,300.68 115.56,300.54 115.97,300.65 116.38,300.99 116.79,300.91 117.19,300.97 117.60,300.87 118.01,300.98 118.42,301.37 118.82,301.09 119.23,301.29 119.64,301.51 120.05,301.62 120.45,301.69 120.86,301.49 121.27,301.39 121.68,301.78 122.08,302.45 122.49,302.66 122.90,302.76 123.31,302.77 123.71,302.88 124.12,303.27 124.53,303.36 124.94,303.75 125.34,303.65 125.75,303.60 126.16,303.77 126.57,304.46 126.97,304.42 127.38,304.35 127.79,303.81 128.20,303.58 128.60,303.41 129.01,303.61 129.42,303.71 129.83,304.19 130.23,304.39 130.64,305.03 131.05,305.57 131.46,306.24 131.86,307.18 132.27,307.89 132.68,308.64 133.09,309.39 133.49,309.93 133.90,310.86 134.31,311.52 134.72,311.99 135.12,312.69 135.53,313.07 135.94,313.35 136.35,313.97 136.75,314.62 137.16,315.37 137.57,315.94 137.98,316.41 138.38,316.70 138.79,316.77 139.20,316.59 139.61,316.50 140.01,316.65 140.42,317.09 140.83,317.42 141.24,317.36 141.64,317.46 142.05,317.64 142.46,317.78 142.87,317.79 143.27,317.61 143.68,317.73 144.09,317.92 144.50,318.29 144.90,318.46 145.31,318.37 145.72,318.65 146.13,318.69 146.53,318.86 146.94,318.63 147.35,319.26 147.76,319.72 148.16,320.27 148.57,320.93 148.98,321.75 149.39,322.39 149.79,322.85 150.20,323.50 150.61,323.74 151.02,323.56 151.42,323.75 151.83,323.81 152.24,323.75 152.65,323.90 153.05,323.81 153.46,323.54 153.87,323.63 154.28,323.41 154.68,323.77 155.09,324.39 155.50,324.39 155.91,324.66 156.31,324.93 156.72,324.93 157.13,324.71 157.54,324.53 157.94,324.53 158.35,324.80 158.76,324.71 159.17,324.80 159.57,324.45 159.98,324.63 160.39,324.90 160.80,324.90 161.20,324.70 161.61,324.97 162.02,324.88 162.43,324.35 162.83,324.11 163.24,324.00 163.65,324.09 164.06,324.26 164.46,324.43 164.87,324.43 165.28,324.43 165.69,324.17 166.09,323.99 166.50,324.23 166.91,324.32 167.32,324.14 167.72,324.21 168.13,324.32 168.54,324.26 168.95,324.09 169.35,324.35 169.76,324.71 170.17,324.60 170.58,324.87 170.98,324.69 171.39,324.78 171.80,325.36 172.21,325.22 172.61,325.45 173.02,324.66 173.43,324.13 173.84,323.52 174.24,323.08 174.65,322.39 175.06,321.89 175.47,321.26 175.87,320.73 176.28,320.30 176.69,320.21 177.10,319.86 177.50,319.96 177.91,320.22 178.32,320.57 178.73,321.03 179.13,321.48 179.54,321.83 179.95,322.58 180.36,323.07 180.76,323.59 181.17,324.29 181.58,324.99 181.99,325.51 182.39,325.98 182.80,326.68 183.21,327.38 183.62,327.98 184.02,328.76 184.43,329.20 184.84,329.63 185.25,330.35 185.65,330.87 186.06,331.56 186.47,332.25 186.88,333.02 187.28,333.71 187.69,334.46 188.10,335.06 188.51,335.66 188.91,336.34 189.32,337.11 189.73,337.45 190.14,338.04 190.54,338.86 190.95,339.36 191.36,340.00 191.77,340.68 192.17,341.19 192.58,341.70 192.99,342.16 193.40,342.75 193.80,343.43 194.21,344.10 194.62,344.65 195.03,345.23 195.43,345.91 195.84,346.49 196.25,347.16 196.66,347.88 197.06,348.55 197.47,349.02 197.88,349.52 198.29,350.27 198.69,350.94 199.10,351.52 199.51,352.10 199.92,352.68 200.32,353.13 200.73,353.71 201.14,354.58 201.55,354.81 201.95,355.47 202.36,355.96 202.77,356.71 203.18,357.15 203.58,357.72 203.99,358.47 204.40,359.12 204.81,359.52 205.21,360.21 205.62,360.62 206.03,361.24 206.44,362.06 206.84,362.71 207.25,363.44 207.66,364.07 208.07,364.72 208.47,365.45 208.88,366.02 209.29,366.71 209.70,367.53 210.10,367.84 210.51,368.04 210.92,368.60 211.33,369.22 211.73,369.70 212.14,370.25 212.55,370.60 212.96,371.24 213.36,371.90 213.77,372.70 214.18,373.26 214.59,373.89 214.99,374.36 215.40,375.16 215.81,374.97 216.22,374.59 216.62,374.35 217.03,374.24 217.44,374.21 217.85,373.77 218.25,373.16 218.66,372.97 219.07,372.93 219.48,372.74 219.88,372.88 220.29,373.01 220.70,372.91 221.11,372.78 221.51,372.88 221.92,373.18 222.33,373.73 222.74,374.19 223.14,374.90 223.55,375.40 223.96,376.03 224.37,376.41 224.77,376.78 225.18,376.63 225.59,377.01 226.00,376.91 226.40,376.88 226.81,376.90 227.22,376.54 227.63,376.28 228.03,376.73 228.44,377.11 228.85,377.65 229.26,378.19 229.66,378.85 230.07,379.38 230.48,379.77 230.89,380.14 231.29,380.61 231.70,380.25 232.11,380.61 232.52,380.63 232.92,380.28 233.33,379.67 233.74,379.48 234.15,379.24 234.55,379.29 234.96,379.90 235.37,380.43 235.78,380.96 236.18,381.09 236.59,381.62 237.00,382.07 237.41,382.43 237.81,382.89 238.22,383.32 238.63,383.69 239.04,384.30 239.44,384.74 239.85,385.11 240.26,385.47 240.67,386.06 241.07,386.58 241.48,387.18 241.89,387.70 242.30,388.20 242.70,388.72 243.11,388.94 243.52,389.17 243.93,388.81 244.33,389.43 244.74,389.79 245.15,390.22 245.56,390.66 245.96,391.20 246.37,391.80 246.78,392.39 247.19,392.92 247.59,393.44 248.00,394.11 248.41,394.46 248.82,394.97 249.22,395.49 249.63,395.84 250.04,396.16 250.45,396.59 250.85,397.17 251.26,397.68 251.67,398.11 252.08,398.77 252.48,399.35 252.89,399.93 253.30,400.31 253.71,400.82 254.11,401.32 254.52,401.89 254.93,402.46 255.34,402.96 255.74,403.30 256.15,404.00 256.56,404.37 256.97,404.88 257.37,405.30 257.78,405.79 258.19,406.25 258.60,406.82 259.00,407.39 259.41,407.79 259.82,408.28 260.23,408.53 260.63,408.60 261.04,409.09 261.45,409.65 261.86,409.95 262.26,410.43 262.67,410.92 263.08,411.41 263.49,411.97 263.89,412.38 264.30,412.73 264.71,413.21 265.12,413.86 265.52,414.45 265.93,415.01 266.34,415.49 266.75,416.05 267.15,416.60 267.56,417.16 267.97,417.79 268.38,418.34 268.78,418.82 269.19,419.21 269.60,419.45 270.01,419.52 270.41,419.38 270.82,419.39 271.23,419.11 271.64,419.44 272.04,419.78 272.45,420.25 272.86,420.73 273.27,421.13 273.67,421.60 274.08,421.99 274.49,422.00 274.90,421.56 275.30,421.35 275.71,421.44 276.12,421.46 276.53,421.24 276.93,420.88 277.34,420.36 277.75,420.15 278.16,419.89 278.56,420.28 278.97,420.90 279.38,421.36 279.79,421.83 280.19,422.36 280.60,422.83 281.01,423.31 281.42,423.77 281.82,424.19 282.23,424.79 282.64,424.91 283.05,424.99 283.45,424.55 283.86,424.03 284.27,424.24 284.68,424.55 285.08,424.71 285.49,424.64 285.90,424.50 286.31,424.51 286.71,424.74 287.12,424.68 287.53,425.04 287.94,425.64 288.34,425.62 288.75,425.13 289.16,424.99 289.57,424.99 289.97,425.16 290.38,425.48 290.79,425.62 291.20,425.96 291.60,426.41 292.01,426.88 292.42,427.55 292.83,427.78 293.23,428.30 293.64,428.74 294.05,429.19 294.46,429.66 294.86,430.18 295.27,430.55 295.68,430.90 296.09,431.20 296.49,431.78 296.90,432.22 297.31,432.30 297.72,432.74 298.12,432.73 298.53,432.73 298.94,432.72 299.35,432.18 299.75,431.63 300.16,431.05 300.57,430.47 300.98,429.82 301.38,429.33 301.79,428.68 302.20,428.44 302.61,428.30 303.01,428.35 303.42,427.99 303.83,427.84 304.24,427.71 304.64,427.31 305.05,426.74 305.46,426.46 305.87,426.32 306.27,426.13 306.68,425.94 307.09,425.94 307.50,425.91 307.90,425.79 308.31,425.50 308.72,425.02 309.13,424.88 309.53,424.68 309.94,424.63 310.35,424.99 310.76,425.44 311.16,425.94 311.57,426.59 311.98,426.36 312.39,426.04 312.79,425.97 313.20,426.42 313.61,426.99 314.02,427.12 314.42,426.65 314.83,427.14 315.24,427.78 315.65,427.94 316.05,427.99 316.46,428.48 316.87,428.82 317.28,429.38 317.68,429.73 318.09,430.08 318.50,430.31 318.91,430.66 319.31,431.09 319.72,431.44 320.13,431.86 320.54,432.00 320.94,432.41 321.35,432.28 321.76,431.96 322.17,431.61 322.57,430.97 322.98,430.34 323.39,429.98 323.80,430.05 324.20,429.51 324.61,429.51 325.02,429.29 325.43,429.08 325.83,428.66 326.24,428.66 326.65,428.93 327.06,429.07 327.46,429.26 327.87,429.65 328.28,429.90 328.69,430.24 329.09,430.51 329.50,430.71 329.91,430.98 330.32,431.18 330.72,431.79 331.13,432.20 331.54,432.67 331.95,432.60 332.35,432.10 332.76,431.65 333.17,431.15 333.58,430.56 333.98,430.03 334.39,429.48 334.80,429.54 335.21,429.28 335.61,429.00 336.02,428.58 336.43,428.72 336.84,428.46 337.24,427.84 337.65,427.12 338.06,426.64 338.47,426.45 338.87,426.24 339.28,426.18 339.69,425.77 340.10,425.70 340.50,425.31 340.91,425.06 341.32,424.86 341.73,424.76 342.13,424.26 342.54,423.69 342.95,423.22 343.36,422.61 343.76,422.07 344.17,421.58 344.58,420.92 344.99,420.57 345.39,419.97 345.80,419.56 346.21,419.16 346.62,418.75 347.02,418.18 347.43,417.71 347.84,417.12 348.25,416.58 348.65,415.91 349.06,415.36 349.47,414.78 349.88,414.05 350.28,413.45 350.69,412.86 351.10,412.39 351.51,411.85 351.91,411.43 352.32,410.82 352.73,410.23 353.14,409.64 353.54,409.18 353.95,408.66 354.36,408.25 354.77,407.86 355.17,407.21 355.58,406.74 355.99,406.28 356.40,405.75 356.80,405.18 357.21,404.70 357.62,404.53 358.03,403.88 358.43,403.34 358.84,402.75 359.25,402.24 359.66,401.84 360.06,401.32 360.47,400.61 360.88,400.03 361.29,399.59 361.69,398.95 362.10,398.44 362.51,397.94 362.92,397.52 363.32,396.82 363.73,396.11 364.14,395.70 364.55,395.19 364.95,394.62 365.36,394.02 365.77,393.51 366.18,392.94 366.58,392.38 366.99,391.74 367.40,391.28 367.81,390.65 368.21,389.90 368.62,389.34 369.03,388.71 369.44,388.15 369.84,387.77 370.25,387.21 370.66,386.65 371.07,386.08 371.47,385.46 371.88,384.78 372.29,384.42 372.70,383.98 373.10,383.49 373.51,382.94 373.92,382.54 374.33,381.99 374.73,381.43 375.14,380.96 375.55,380.35 375.96,379.87 376.36,379.31 376.77,378.76 377.18,378.21 377.59,377.71 377.99,377.29 378.40,376.71 378.81,376.10 379.22,375.75 379.62,375.33 380.03,374.91 380.44,374.37 380.85,373.83 381.25,373.41 381.66,372.94 382.07,372.48 382.48,372.06 382.88,371.53 383.29,371.10 383.70,370.81 384.11,370.40 384.51,369.95 384.92,369.60 385.33,369.13 385.74,368.60 386.14,368.17 386.55,367.57 386.96,366.92 387.37,366.51 387.77,366.10 388.18,365.64 388.59,365.18 389.00,364.66 389.40,364.19 389.81,363.64 390.22,363.37 390.63,362.90 391.03,362.44 391.44,362.10 391.85,361.77 392.26,361.31 392.66,360.73 393.07,360.27 393.48,359.69 393.89,359.18 394.29,358.66 394.70,358.21 395.11,357.82 395.52,357.24 395.92,356.73 396.33,356.27 396.74,355.76 397.15,355.37 397.55,355.10 397.96,354.84 398.37,354.39 398.78,354.43 399.18,354.81 399.59,355.29 400.00,355.66 400.41,355.63 400.81,355.61 401.22,355.16 401.63,355.20 402.04,355.23 402.44,355.21 402.85,355.04 403.26,354.99 403.67,354.90 404.07,354.90 404.48,354.88 404.89,354.84 405.30,354.57 405.70,354.18 406.11,353.91 406.52,353.89 406.93,353.93 407.33,353.85 407.74,353.93 408.15,353.81 408.56,353.73 408.96,353.59 409.37,353.46 409.78,353.37 410.19,353.35 410.59,353.21 411.00,353.01 411.41,352.84 411.82,352.55 412.22,352.18 412.63,351.68 413.04,351.09 413.45,350.94 413.85,350.51 414.26,350.31 414.67,349.94 415.08,349.51 415.48,349.08 415.89,348.51 416.30,347.96 416.71,347.41 417.11,346.98 417.52,346.38 417.93,345.90 418.34,345.65 418.74,345.28 419.15,344.91 419.56,344.49 419.97,343.95 420.37,343.82 420.78,343.83 421.19,343.82 421.60,343.86 422.00,343.84 422.41,343.75 422.82,343.68 423.23,343.74 423.63,343.77 424.04,343.75 424.45,343.65 424.86,343.70 425.26,343.62 425.67,343.68 426.08,343.44 426.49,343.07 426.89,342.68 427.30,342.50 427.71,342.03 428.12,341.73 428.52,341.48 428.93,341.13 429.34,340.63 429.75,340.12 430.15,339.69 430.56,339.45 430.97,339.27 431.38,339.26 431.78,338.74 432.19,338.48 432.60,338.41 433.01,338.17 433.41,338.10 433.82,337.70 434.23,337.44 434.64,337.00 435.04,336.59 435.45,336.14 435.86,335.79 436.27,335.27 436.67,334.93 437.08,334.64 437.49,334.13 437.90,333.73 438.30,333.33 438.71,332.78 439.12,332.38 439.53,332.08 439.93,331.68 440.34,331.23 440.75,330.78 441.16,330.35 441.56,330.12 441.97,329.79 442.38,329.46 442.79,328.99 443.19,328.71 443.60,328.35 444.01,327.86 444.42,327.42 444.82,326.97 445.23,326.64 445.64,326.29 446.05,326.05 446.45,325.61 446.86,325.45 447.27,324.90 447.68,324.49 448.08,324.08 448.49,323.65 448.90,323.21 449.31,322.87 449.71,322.60 450.12,322.34 450.53,321.90 450.94,321.88 451.34,321.87 451.75,321.80 452.16,321.70 452.57,321.27 452.97,320.79 453.38,320.39 453.79,320.12 454.20,320.22 454.60,320.17 455.01,320.34 455.42,320.46 455.83,320.30 456.23,320.20 456.64,319.88 457.05,319.62 457.46,319.68 457.86,319.82 458.27,319.71 458.68,319.61 459.09,319.40 459.49,318.93 459.90,318.88 460.31,318.89 460.72,319.26 461.12,319.42 461.53,319.39 461.94,319.44 462.35,319.57 462.75,319.54 463.16,319.44 463.57,319.42 463.98,319.51 464.38,319.42 464.79,319.42 465.20,319.79 465.61,319.74 466.01,319.69 466.42,319.70 466.83,319.66 467.24,319.69 467.64,319.78 468.05,319.72 468.46,319.74 468.87,319.69 469.27,319.96 469.68,319.70 470.09,319.29 470.50,319.04 470.90,318.68 471.31,318.38 471.72,317.92 472.13,317.72 472.53,317.39 472.94,317.06 473.35,316.76 473.76,316.46 474.16,316.05 474.57,315.60 474.98,315.25 475.39,314.79 475.79,314.39 476.20,313.99 476.61,313.64 477.02,313.32 477.42,312.92 477.83,312.63 478.24,312.23 478.65,311.82 479.05,311.40 479.46,311.21 479.87,310.87 480.28,310.47 480.68,310.03 481.09,309.69 481.50,309.35 481.91,308.91 482.31,308.51 482.72,308.22 483.13,307.94 483.54,307.55 483.94,307.16 484.35,306.78 484.76,306.43 485.17,306.15 485.57,305.82 485.98,305.44 486.39,305.11 486.80,304.73 487.20,304.45 487.61,304.27 488.02,303.99 488.43,303.61 488.83,303.28 489.24,302.99 489.65,302.67 490.06,302.44 490.46,302.02 490.87,301.70 491.28,301.52 491.69,301.10 492.09,300.83 492.50,300.46 492.91,300.09 493.32,299.82 493.72,299.57 494.13,299.20 494.54,298.79 494.95,298.42 495.35,298.20 495.76,297.83 496.17,297.47 496.58,297.10 496.98,296.79 497.39,296.46 497.80,296.20 498.21,295.84 498.61,295.49 499.02,295.23 499.43,294.92 499.84,294.61 500.24,294.31 500.65,294.00 501.06,293.71 501.47,293.38 501.87,293.12 502.28,292.85 502.69,292.54 503.10,292.39 503.50,292.12 503.91,291.73 504.32,291.47 504.73,291.03 505.13,290.73 505.54,290.38 505.95,290.18 506.36,289.93 506.76,289.74 507.17,289.48 507.58,289.14 507.99,288.80 508.39,288.48 508.80,288.14 509.21,287.89 509.62,287.64 510.02,287.40 510.43,287.11 510.84,286.73 511.25,286.45 511.65,286.16 512.06,285.97 512.47,285.73 512.88,285.35 513.28,284.92 513.69,284.59 514.10,284.25 514.51,283.98 514.91,283.67 515.32,283.29 515.73,283.15 516.14,282.87 516.54,282.64 516.95,282.45 517.36,282.08 517.77,281.89 518.17,281.57 518.58,281.29 518.99,281.02 519.40,280.74 519.80,280.37 520.21,280.19 520.62,279.97 521.03,279.60 521.43,279.33 521.84,279.06 522.25,278.75 522.66,278.43 523.06,278.30 523.47,278.10 523.88,277.87 524.29,277.52 524.69,277.16 525.10,276.94 525.51,276.77 525.92,276.47 526.32,276.29 526.73,275.99 527.14,275.70 527.55,275.39 527.95,275.26 528.36,275.41 528.77,275.49 529.18,275.47 529.58,275.61 529.99,275.60 530.40,275.70 530.81,275.88 531.21,275.72 531.62,275.97 532.03,275.84 532.44,275.94 532.84,275.91 533.25,275.82 533.66,275.87 534.07,276.20 534.47,276.25 534.88,276.51 535.29,276.65 535.70,276.75 536.10,276.67 536.51,277.03 536.92,277.32 537.33,277.77 537.73,278.18 538.14,278.47 538.55,278.87 538.96,279.19 539.36,279.37 539.77,279.60 540.18,279.69 540.59,279.79 540.99,279.88 541.40,279.90 541.81,279.95 542.22,280.03 542.62,279.97 543.03,280.04 543.44,280.14 543.85,280.23 544.25,280.32 544.66,280.42 545.07,280.47 545.48,280.69 545.88,280.70 546.29,280.54 546.70,280.64 547.11,280.60 547.51,280.62 547.92,280.58 548.33,280.67 548.74,280.64 549.14,280.82 549.55,280.88 549.96,280.97 550.37,281.21 550.77,281.34 551.18,281.35 551.59,281.40 552.00,281.41 552.40,281.38 552.81,281.51 553.22,281.64 553.63,281.73 554.03,281.90 554.44,282.00 554.85,282.01 555.26,282.02 555.66,281.78 556.07,281.74 556.48,281.67 556.89,281.77 557.29,281.78 557.70,281.87 558.11,281.96 558.52,281.95 558.92,282.10 559.33,282.36 559.74,282.74 560.15,283.07 560.55,283.45 560.96,283.79 561.37,283.83 561.78,283.84 562.18,284.03 562.59,284.43 563.00,284.76 563.41,285.14 563.81,285.47 564.22,285.81 564.63,286.22 565.04,286.57 565.44,286.82 565.85,287.15 566.26,287.52 566.67,287.89 567.07,288.34 567.48,288.75 567.89,289.01 568.30,289.45 568.70,289.69 569.11,290.06 569.52,290.42 569.93,290.74 570.33,291.03 570.74,291.45 571.15,291.73 571.56,291.91 571.96,292.31 572.37,292.58 572.78,292.94 573.19,293.26 573.59,293.59 574.00,293.91 574.41,294.26 574.82,294.62 575.22,295.01 575.63,295.40 576.04,295.76 576.45,296.14 576.85,296.45 577.26,296.80 577.67,297.15 578.08,297.41 578.48,297.71 578.89,298.06 579.30,298.36 579.71,298.65 580.11,299.00 580.52,299.22 580.93,299.58 581.34,299.96 581.74,300.26 582.15,300.60 582.56,300.94 582.97,301.24 583.37,301.54 583.78,301.84 584.19,302.18 584.60,302.48 585.01,302.85 585.41,303.07 585.82,303.37 586.23,303.51 586.64,303.81 587.04,304.14 587.45,304.47 587.86,304.72 588.27,305.13 588.67,305.45 589.08,305.75 589.49,306.08 589.90,306.38 590.30,306.66 590.71,306.86 591.12,307.18 591.53,307.39 591.93,307.60 592.34,307.92 592.75,308.32 593.16,308.64 593.56,308.99 593.97,309.27 594.38,309.58 594.79,309.86 595.19,310.18 595.60,310.50 596.01,310.81 596.42,311.13 596.82,311.46 597.23,311.70 597.64,311.87 598.05,312.21 598.45,312.49 598.86,312.76 599.27,312.96 599.68,313.03 600.08,313.17 600.49,313.41 600.90,313.68 601.31,313.91 601.71,314.14 602.12,314.45 602.53,314.64 602.94,314.77 603.34,314.84 603.75,314.81 604.16,314.94 604.57,314.85 604.97,314.97 605.38,315.14 605.79,315.22 606.20,315.18 606.60,315.23 607.01,315.24 607.42,315.22 607.83,315.27 608.23,315.40 608.64,315.33 609.05,315.31 609.46,315.18 609.86,315.09 610.27,315.11 610.68,315.16 611.09,315.03 611.49,315.12 611.90,315.27 612.31,315.25 612.72,315.28 613.12,315.22 613.53,315.41 613.94,315.71 614.35,315.98 614.75,316.20 615.16,316.45 615.57,316.70 615.98,316.84 616.38,316.91 616.79,316.97 617.20,317.05 617.61,317.00 618.01,316.96 618.42,316.91 618.83,316.93 619.24,316.94 619.64,316.93 620.05,317.01 620.46,316.97 620.87,317.13 621.27,317.11 621.68,317.17 622.09,317.19 622.50,317.14 622.90,317.25 623.31,317.11 623.72,316.88 624.13,316.80 624.53,316.75 624.94,316.78 625.35,316.87 625.76,316.85 626.16,316.92 626.57,316.97 626.98,317.11 627.39,316.99 627.79,317.00 628.20,317.08 628.61,317.06 629.02,316.78 629.42,316.57 629.83,316.60 630.24,316.57 630.65,316.62 631.05,316.50 631.46,316.52 631.87,316.77 632.28,316.98 632.68,317.20 633.09,317.50 633.50,317.74 633.91,318.01 634.31,318.18 634.72,318.35 635.13,318.40 635.54,318.47 635.94,318.45 636.35,318.43 636.76,318.35 637.17,318.30 637.57,318.38 637.98,318.35 638.39,318.46 638.80,318.44 639.20,318.57 639.61,318.46 640.02,318.55 640.43,318.49 640.83,318.47 641.24,318.56 641.65,318.49 642.06,318.41 642.46,318.34 642.87,318.41 643.28,318.58 643.69,318.70 644.09,318.80 644.50,318.93 644.91,318.88 645.32,318.80 645.72,318.78 646.13,318.77 646.54,318.86 646.95,318.92 647.35,318.94 647.76,318.99 648.17,318.91 648.58,318.95 648.98,319.00 649.39,318.95 649.80,318.94 650.21,318.92 650.61,319.02 651.02,319.16 651.43,319.23 651.84,319.27 652.24,319.36 652.65,319.58 653.06,319.80 653.47,320.08 653.87,320.23 654.28,320.42 654.69,320.61 655.10,320.74 655.50,321.01 655.91,321.29 656.32,321.50 656.73,321.71 657.13,321.96 657.54,322.08 657.95,322.23 658.36,322.44 658.76,322.57 659.17,322.76 659.58,322.98 659.99,323.22 660.39,323.45 660.80,323.70 661.21,323.85 661.62,324.05 662.02,324.23 662.43,324.34 662.84,324.55 663.25,324.76 663.65,324.93 664.06,325.13 664.47,325.36 664.88,325.53 665.28,325.79 665.69,325.99 666.10,326.21 666.51,326.41 666.91,326.62 667.32,326.84 667.73,327.06 668.14,327.29 668.54,327.54 668.95,327.70 669.36,327.87 669.77,328.11 670.17,328.30 670.58,328.47 670.99,328.74 671.40,328.96 671.80,329.07 672.21,329.29 672.62,329.39 673.03,329.59 673.43,329.64 673.84,329.83 674.25,330.04 674.66,330.28 675.06,330.51 675.47,330.52 675.88,330.60 676.29,330.52 676.69,330.62 677.10,330.51 677.51,330.34 677.92,330.23 678.32,330.23 678.73,330.30 679.14,330.29 679.55,330.29 679.95,330.33 680.36,330.24 680.77,330.17 681.18,330.14 681.58,330.00 681.99,329.91 682.40,329.94 682.81,329.91 683.21,329.92 683.62,329.86 684.03,329.84 684.44,329.88 684.84,329.76 685.25,329.59 685.66,329.38 686.07,329.23 686.47,329.02 686.88,328.78 687.29,328.62 687.70,328.39 688.10,328.19 688.51,328.06 688.92,327.88 689.33,327.69 689.73,327.49 690.14,327.28 690.55,327.10 690.96,326.95 691.36,326.82 691.77,326.59 692.18,326.41 692.59,326.23 692.99,326.05 693.40,325.88 693.81,325.75 694.22,325.55 694.62,325.37 695.03,325.13 695.44,324.98 695.85,324.93 696.25,324.69 696.66,324.49 697.07,324.32 697.48,324.08 697.88,323.89 698.29,323.77 698.70,323.63 699.11,323.43 699.51,323.26 699.92,323.07 700.33,322.93 700.74,322.75 701.14,322.58 701.55,322.42 701.96,322.26 702.37,322.04 702.77,321.81 703.18,321.67 703.59,321.47 704.00,321.31 704.40,321.10 704.81,320.95 705.22,320.76 705.63,320.58 706.03,320.41 706.44,320.27 706.85,320.12 707.26,319.92 707.66,319.79 708.07,319.82 708.48,319.83 708.89,319.87 709.29,319.77 709.70,319.61 710.11,319.50 710.52,319.33 710.92,319.19 711.33,318.99 711.74,318.85 712.15,318.76 712.55,318.60 712.96,318.43 713.37,318.30 713.78,318.22 714.18,318.11 714.59,317.97 715.00,317.81 715.41,317.64 715.81,317.48 716.22,317.32 716.63,317.19 717.04,317.03 717.44,316.89 717.85,316.77 718.26,316.64 718.67,316.47 719.07,316.33 719.48,316.16 719.89,316.07 720.30,315.90 720.70,315.79 721.11,315.64 721.52,315.53 721.93,315.40 722.33,315.28 722.74,315.15 723.15,315.05 723.56,314.84 723.96,314.68 724.37,314.58 724.78,314.50 725.19,314.35 725.59,314.27 726.00,314.11 726.41,313.95 726.82,313.79 727.22,313.65 727.63,313.53 728.04,313.39 728.45,313.21 728.85,313.12 729.26,313.05 729.67,312.93 730.08,312.78 730.48,312.63 730.89,312.51 731.30,312.44 731.71,312.37 732.11,312.26 732.52,312.13 732.93,312.02 733.34,311.91 733.74,311.78 734.15,311.68 734.56,311.58 734.97,311.47 735.37,311.34 735.78,311.18 736.19,311.02 736.60,310.93 737.00,310.85 737.41,310.73 737.82,310.69 738.23,310.61 738.63,310.49 739.04,310.41 739.45,310.33 739.86,310.22 740.26,310.12 740.67,309.99 741.08,309.91 741.49,309.81 741.89,309.70 742.30,309.60 742.71,309.54 743.12,309.43 743.52,309.34 743.93,309.25 744.34,309.14 744.75,309.03 745.15,308.91 745.56,308.80 745.97,308.68 746.38,308.59 746.78,308.47 747.19,308.37 747.60,308.34 748.01,308.27 748.41,308.24 748.82,308.13 749.23,308.07 749.64,307.96 750.04,307.90 750.45,307.82 750.86,307.76 751.27,307.67 751.67,307.58 752.08,307.49 752.49,307.45 752.90,307.38 753.30,307.32 753.71,307.23 754.12,307.17 754.53,307.12 754.93,307.07 755.34,306.95 755.75,306.90 756.16,306.82 756.56,306.75 756.97,306.70 757.38,306.64 757.79,306.55 758.19,306.49 758.60,306.49 759.01,306.39 759.42,306.30 759.82,306.28 760.23,306.22 760.64,306.24 761.05,306.22 761.45,306.11 761.86,306.07 762.27,305.99 762.68,305.95 763.08,305.85 763.49,305.78 763.90,305.73 764.31,305.66 764.71,305.59 765.12,305.49 765.53,305.42 765.94,305.32 766.34,305.28 766.75,305.22 767.16,305.14 767.57,305.07 767.97,304.99 768.38,304.91 768.79,304.90 769.20,304.83 769.60,304.76 770.01,304.71 770.42,304.62 770.83,304.64 771.23,304.57 771.64,304.52 772.05,304.47 772.46,304.41 772.86,304.35 773.27,304.34 773.68,304.33 774.09,304.28 774.49,304.26 774.90,304.21 775.31,304.17 775.72,304.14 776.12,304.11 776.53,304.07 776.94,304.04 777.35,304.03 777.75,303.97 778.16,303.94 778.57,303.93 778.98,303.88 779.38,303.85 779.79,303.82 780.20,303.80 780.61,303.77 781.01,303.75 781.42,303.72 781.83,303.68 782.24,303.63 782.64,303.60 783.05,303.62 783.46,303.59 783.87,303.60 784.27,303.55 784.68,303.53 785.09,303.50 785.50,303.48 785.90,303.45 786.31,303.43 786.72,303.40 787.13,303.34 787.53,303.34 787.94,303.32 788.35,303.33 788.76,303.32 789.16,303.33 789.57,303.30 789.98,303.33 790.39,303.32 790.79,303.33 791.20,303.32 791.61,303.30 792.02,303.35 792.42,303.41 792.83,303.48 793.24,303.58 793.65,303.62 794.05,303.72 794.46,303.86 794.87,303.96 795.28,303.96 795.68,303.97 796.09,304.02 796.50,304.06 796.91,304.04 797.31,304.09 797.72,304.08 798.13,304.17 798.54,304.16 798.94,304.17 799.35,304.17 799.76,304.17 800.17,304.18 800.57,304.20 800.98,304.31 801.39,304.38 801.80,304.51 802.20,304.52 802.61,304.56 803.02,304.60 803.43,304.65 803.83,304.67 804.24,304.66 804.65,304.68 805.06,304.70 805.46,304.69 805.87,304.70 806.28,304.71 806.69,304.73 807.09,304.75 807.50,304.77 807.91,304.81 808.32,304.82 808.72,304.86 809.13,304.90 809.54,304.99 809.95,305.08 810.35,305.20 810.76,305.25 811.17,305.35 811.58,305.42 811.98,305.49 812.39,305.62 812.80,305.73 813.21,305.82 813.61,305.90 814.02,305.93 814.43,305.94 814.84,305.94 815.24,305.97 815.65,306.02 816.06,306.04 816.47,306.18 816.87,306.31 817.28,306.41 817.69,306.48 818.10,306.54 818.50,306.63 818.91,306.65 819.32,306.68 819.73,306.70 820.13,306.75 820.54,306.86 820.95,306.88 821.36,306.95 821.76,307.05 822.17,307.14 822.58,307.17 822.99,307.20 823.39,307.21 823.80,307.25 824.21,307.26 824.62,307.27 825.02,307.30 825.43,307.41 825.84,307.53 826.25,307.57 826.65,307.65 827.06,307.75 827.47,307.88 827.88,307.96 828.28,308.08 828.69,308.15 829.10,308.18 829.51,308.23 829.91,308.27 830.32,308.32 830.73,308.36 831.14,308.41 831.54,308.47 831.95,308.56 832.36,308.60 832.77,308.64 833.17,308.69 833.58,308.73 833.99,308.77 834.40,308.84 834.80,308.89 835.21,308.93 835.62,308.95 836.03,309.01 836.43,309.07 836.84,309.12 837.25,309.18 837.66,309.27 838.06,309.31 838.47,309.38 838.88,309.45 839.29,309.51 839.69,309.56 840.10,309.61 840.51,309.67 840.92,309.72 841.32,309.80 841.73,309.86 842.14,309.93 842.55,310.01 842.95,310.09 843.36,310.17 843.77,310.25 844.18,310.32 844.58,310.40 844.99,310.46 845.40,310.53 845.81,310.62 846.21,310.69 846.62,310.75 847.03,310.81 847.44,310.88 847.84,310.95 848.25,311.03 848.66,311.11 849.07,311.20 849.47,311.27 849.88,311.35 850.29,311.41 850.70,311.48 851.10,311.59 851.51,311.72 851.92,311.88 852.33,312.04 852.73,312.19 853.14,312.35 853.55,312.51 853.96,312.66 854.36,312.79 854.77,312.92 855.18,313.01 855.59,313.08 855.99,313.15 856.40,313.25 856.81,313.35 857.22,313.47 857.62,313.58 858.03,313.65 858.44,313.73 858.85,313.81 859.25,313.90 859.66,313.97 860.07,314.06 860.48,314.16 860.88,314.25 861.29,314.34 861.70,314.45 862.11,314.53 862.51,314.63 862.92,314.71 863.33,314.82 863.74,314.91 864.14,315.01 864.55,315.09 864.96,315.20 865.37,315.34 865.77,315.47 866.18,315.63 866.59,315.78 867.00,315.91 867.40,316.03 867.81,316.15 868.22,316.26 868.63,316.38 869.03,316.51 869.44,316.63 869.85,316.73 870.26,316.82 870.66,316.91 871.07,317.01 871.48,317.11 871.89,317.22 872.29,317.33 872.70,317.43 873.11,317.53 873.52,317.63 873.92,317.73 874.33,317.83 874.74,317.95 875.15,318.05 875.55,318.17 875.96,318.29 876.37,318.42 876.78,318.54 877.18,318.65 877.59,318.76 878.00,318.88 878.41,319.00 878.81,319.10 879.22,319.21 879.63,319.33 880.04,319.43 880.44,319.55 880.85,319.67 881.26,319.79 881.67,319.91 882.07,320.03 882.48,320.16 882.89,320.30 883.30,320.43 883.70,320.55 884.11,320.69 884.52,320.82 884.93,320.95 885.33,321.08 885.74,321.20 886.15,321.34 886.56,321.47 886.96,321.60 887.37,321.73 887.78,321.86 888.19,321.99 888.59,322.12 889.00,322.26 889.41,322.38 889.82,322.51 890.22,322.63 890.63,322.75 891.04,322.87 891.45,323.00 891.85,323.12 892.26,323.25 892.67,323.37 893.08,323.50 893.48,323.63 893.89,323.77 894.30,323.90 894.71,324.03 895.11,324.17 895.52,324.29 895.93,324.43 896.34,324.56 896.74,324.70 897.15,324.83 897.56,324.96 897.97,325.10 898.37,325.23 898.78,325.37 899.19,325.50 899.60,325.64 900.00,325.77"/>
<line x1="85" y1="662.00" x2="900" y2="662.00" stroke="#111827" stroke-width="1"/>
<line x1="85" y1="479.33" x2="85" y2="662.00" stroke="#111827" stroke-width="1"/>
<text x="73" y="493.33" text-anchor="end" font-family="Arial" font-size="12" fill="#111827">Reference mid</text>
<line x1="85" y1="662.00" x2="900" y2="662.00" stroke="#e5e7eb" stroke-width="1"/>
<text x="73" y="666.00" text-anchor="end" font-family="Arial" font-size="11" fill="#374151">99822</text>
<line x1="85" y1="570.67" x2="900" y2="570.67" stroke="#e5e7eb" stroke-width="1"/>
<text x="73" y="574.67" text-anchor="end" font-family="Arial" font-size="11" fill="#374151">100250</text>
<line x1="85" y1="479.33" x2="900" y2="479.33" stroke="#e5e7eb" stroke-width="1"/>
<text x="73" y="483.33" text-anchor="end" font-family="Arial" font-size="11" fill="#374151">100679</text>
<polyline fill="none" stroke="#059669" stroke-width="2" points="85.00,623.99 85.41,624.59 85.82,626.03 86.22,627.02 86.63,627.24 87.04,625.59 87.45,624.03 87.85,623.54 88.26,625.45 88.67,626.11 89.08,623.53 89.48,625.63 89.89,624.41 90.30,623.90 90.71,625.24 91.11,622.06 91.52,620.85 91.93,621.61 92.34,619.91 92.74,621.16 93.15,618.68 93.56,617.66 93.97,615.94 94.37,616.79 94.78,616.87 95.19,614.34 95.60,612.53 96.00,612.77 96.41,612.86 96.82,610.65 97.23,610.15 97.63,610.47 98.04,608.39 98.45,606.24 98.86,604.27 99.26,603.99 99.67,604.50 100.08,604.91 100.49,601.31 100.89,603.05 101.30,603.79 101.71,602.94 102.12,599.57 102.52,600.03 102.93,598.68 103.34,598.06 103.75,598.55 104.15,596.33 104.56,595.29 104.97,595.80 105.38,596.30 105.78,596.01 106.19,595.33 106.60,595.19 107.01,594.23 107.41,595.32 107.82,593.95 108.23,591.68 108.64,592.23 109.04,593.31 109.45,595.17 109.86,595.36 110.27,594.94 110.67,593.21 111.08,594.19 111.49,593.01 111.90,591.78 112.30,593.41 112.71,591.40 113.12,590.69 113.53,589.19 113.93,590.38 114.34,589.39 114.75,592.42 115.16,593.06 115.56,593.55 115.97,591.62 116.38,594.49 116.79,591.75 117.19,593.74 117.60,594.01 118.01,595.24 118.42,593.64 118.82,597.68 119.23,598.41 119.64,598.46 120.05,596.75 120.45,596.60 120.86,598.02 121.27,598.11 121.68,600.65 122.08,598.49 122.49,599.18 122.90,593.25 123.31,597.71 123.71,597.03 124.12,599.66 124.53,597.17 124.94,596.42 125.34,597.00 125.75,593.80 126.16,592.05 126.57,595.52 126.97,594.69 127.38,595.70 127.79,596.65 128.20,597.55 128.60,598.89 129.01,599.42 129.42,598.68 129.83,599.12 130.23,601.36 130.64,603.59 131.05,607.99 131.46,608.50 131.86,607.87 132.27,605.58 132.68,603.31 133.09,604.87 133.49,605.89 133.90,605.56 134.31,606.17 134.72,606.68 135.12,604.67 135.53,604.65 135.94,605.46 136.35,605.66 136.75,607.58 137.16,608.16 137.57,607.92 137.98,606.03 138.38,603.41 138.79,603.95 139.20,603.82 139.61,600.16 140.01,602.29 140.42,601.44 140.83,600.33 141.24,601.82 141.64,601.59 142.05,602.48 142.46,601.88 142.87,603.92 143.27,603.41 143.68,604.16 144.09,604.38 144.50,605.22 144.90,604.52 145.31,603.36 145.72,602.86 146.13,603.45 146.53,605.52 146.94,606.19 147.35,605.97 147.76,607.61 148.16,609.37 148.57,608.12 148.98,612.05 149.39,610.24 149.79,608.93 150.20,607.83 150.61,605.21 151.02,605.36 151.42,603.82 151.83,604.82 152.24,603.55 152.65,603.20 153.05,604.16 153.46,604.23 153.87,604.04 154.28,607.22 154.68,606.90 155.09,608.76 155.50,606.98 155.91,606.64 156.31,605.63 156.72,607.40 157.13,606.52 157.54,606.31 157.94,603.95 158.35,603.65 158.76,603.16 159.17,599.52 159.57,600.64 159.98,601.42 160.39,603.46 160.80,603.70 161.20,602.59 161.61,601.46 162.02,596.61 162.43,597.79 162.83,599.51 163.24,599.76 163.65,599.35 164.06,600.20 164.46,598.87 164.87,599.19 165.28,600.63 165.69,602.06 166.09,601.20 166.50,599.33 166.91,598.53 167.32,599.90 167.72,598.07 168.13,599.83 168.54,599.27 168.95,600.42 169.35,600.40 169.76,600.87 170.17,598.16 170.58,596.38 170.98,600.43 171.39,599.31 171.80,597.47 172.21,596.58 172.61,597.32 173.02,594.86 173.43,591.77 173.84,589.64 174.24,589.60 174.65,591.55 175.06,593.22 175.47,593.86 175.87,594.61 176.28,596.44 176.69,597.50 177.10,597.92 177.50,599.43 177.91,602.62 178.32,603.83 178.73,604.16 179.13,604.74 179.54,607.66 179.95,607.89 180.36,609.61 180.76,609.08 181.17,611.07 181.58,611.87 181.99,613.45 182.39,614.27 182.80,613.46 183.21,615.70 183.62,615.17 184.02,616.65 184.43,615.27 184.84,613.81 185.25,611.39 185.65,613.32 186.06,610.62 186.47,609.80 186.88,610.83 187.28,611.00 187.69,612.29 188.10,610.91 188.51,611.86 188.91,613.13 189.32,611.06 189.73,610.07 190.14,610.63 190.54,613.19 190.95,613.02 191.36,613.27 191.77,612.46 192.17,614.35 192.58,614.48 192.99,613.62 193.40,612.85 193.80,617.02 194.21,616.47 194.62,614.40 195.03,615.91 195.43,616.13 195.84,619.12 196.25,619.33 196.66,621.51 197.06,624.73 197.47,626.87 197.88,624.34 198.29,623.73 198.69,623.98 199.10,622.34 199.51,623.70 199.92,625.77 200.32,624.39 200.73,624.94 201.14,624.96 201.55,624.17 201.95,623.93 202.36,626.04 202.77,624.02 203.18,627.12 203.58,625.96 203.99,627.87 204.40,630.92 204.81,627.18 205.21,629.23 205.62,627.56 206.03,628.86 206.44,626.83 206.84,627.40 207.25,627.71 207.66,629.10 208.07,628.49 208.47,623.23 208.88,622.20 209.29,620.72 209.70,622.13 210.10,622.06 210.51,626.11 210.92,626.83 211.33,625.02 211.73,624.67 212.14,623.70 212.55,625.85 212.96,623.02 213.36,621.34 213.77,621.85 214.18,622.08 214.59,622.55 214.99,621.72 215.40,620.64 215.81,615.25 216.22,615.06 216.62,614.21 217.03,615.75 217.44,614.40 217.85,612.84 218.25,612.56 218.66,615.52 219.07,615.48 219.48,614.71 219.88,615.43 220.29,618.94 220.70,617.62 221.11,619.82 221.51,619.12 221.92,621.56 222.33,622.60 222.74,623.39 223.14,622.12 223.55,623.27 223.96,625.15 224.37,622.03 224.77,620.71 225.18,620.29 225.59,618.54 226.00,620.46 226.40,617.48 226.81,619.70 227.22,620.57 227.63,621.62 228.03,623.32 228.44,622.93 228.85,623.38 229.26,624.64 229.66,624.34 230.07,623.77 230.48,623.73 230.89,623.98 231.29,620.93 231.70,620.61 232.11,620.85 232.52,619.38 232.92,617.33 233.33,616.24 233.74,619.54 234.15,621.94 234.55,622.27 234.96,625.63 235.37,624.98 235.78,624.66 236.18,624.24 236.59,625.04 237.00,621.91 237.41,624.73 237.81,624.84 238.22,627.25 238.63,629.40 239.04,629.89 239.44,629.08 239.85,629.61 240.26,628.83 240.67,625.74 241.07,626.61 241.48,628.15 241.89,626.05 242.30,627.02 242.70,627.49 243.11,625.57 243.52,624.78 243.93,625.47 244.33,627.06 244.74,626.16 245.15,626.18 245.56,627.01 245.96,628.37 246.37,631.05 246.78,629.63 247.19,631.65 247.59,633.97 248.00,635.46 248.41,634.68 248.82,638.01 249.22,638.51 249.63,637.84 250.04,638.24 250.45,639.28 250.85,640.21 251.26,641.14 251.67,640.05 252.08,638.07 252.48,636.60 252.89,634.59 253.30,635.18 253.71,633.15 254.11,635.30 254.52,632.67 254.93,634.26 255.34,635.08 255.74,636.38 256.15,636.08 256.56,636.51 256.97,634.61 257.37,633.06 257.78,634.18 258.19,633.08 258.60,631.52 259.00,631.46 259.41,631.74 259.82,631.20 260.23,629.13 260.63,631.84 261.04,632.65 261.45,633.62 261.86,635.56 262.26,637.83 262.67,637.47 263.08,638.18 263.49,638.40 263.89,639.77 264.30,640.84 264.71,639.61 265.12,641.04 265.52,643.06 265.93,642.51 266.34,642.28 266.75,642.53 267.15,639.45 267.56,639.57 267.97,638.01 268.38,635.82 268.78,636.90 269.19,635.80 269.60,633.99 270.01,632.40 270.41,632.47 270.82,631.88 271.23,633.78 271.64,637.48 272.04,637.35 272.45,635.36 272.86,635.45 273.27,638.44 273.67,638.82 274.08,636.99 274.49,634.50 274.90,632.14 275.30,634.09 275.71,633.59 276.12,631.61 276.53,631.98 276.93,634.42 277.34,631.14 277.75,635.54 278.16,635.53 278.56,637.64 278.97,639.15 279.38,641.24 279.79,641.20 280.19,640.82 280.60,640.48 281.01,639.59 281.42,638.32 281.82,637.88 282.23,637.57 282.64,636.81 283.05,638.25 283.45,634.57 283.86,633.89 284.27,638.97 284.68,638.23 285.08,639.14 285.49,635.37 285.90,636.32 286.31,638.09 286.71,637.06 287.12,637.58 287.53,639.35 287.94,638.05 288.34,636.69 288.75,635.47 289.16,639.18 289.57,636.54 289.97,638.97 290.38,639.16 290.79,641.09 291.20,641.28 291.60,640.93 292.01,641.42 292.42,641.83 292.83,640.56 293.23,640.55 293.64,643.45 294.05,645.46 294.46,645.78 294.86,647.60 295.27,644.49 295.68,642.20 296.09,642.56 296.49,643.58 296.90,641.77 297.31,642.78 297.72,642.29 298.12,639.10 298.53,639.51 298.94,637.77 299.35,637.02 299.75,636.63 300.16,633.95 300.57,633.33 300.98,635.27 301.38,634.95 301.79,634.29 302.20,636.72 302.61,637.59 303.01,638.27 303.42,637.66 303.83,640.61 304.24,638.59 304.64,640.16 305.05,638.38 305.46,638.60 305.87,641.56 306.27,637.42 306.68,638.03 307.09,639.50 307.50,639.62 307.90,641.07 308.31,638.42 308.72,639.24 309.13,640.41 309.53,640.77 309.94,642.24 310.35,644.38 310.76,645.00 311.16,645.88 311.57,644.33 311.98,642.13 312.39,640.89 312.79,644.20 313.20,643.86 313.61,645.37 314.02,642.39 314.42,643.08 314.83,643.88 315.24,644.43 315.65,641.81 316.05,644.44 316.46,645.61 316.87,644.91 317.28,645.17 317.68,644.74 318.09,643.68 318.50,647.79 318.91,649.40 319.31,647.14 319.72,646.84 320.13,645.06 320.54,645.04 320.94,644.43 321.35,641.64 321.76,641.47 322.17,642.33 322.57,640.00 322.98,639.02 323.39,641.79 323.80,642.08 324.20,642.54 324.61,641.20 325.02,640.68 325.43,642.67 325.83,644.00 326.24,644.96 326.65,643.76 327.06,645.45 327.46,647.62 327.87,648.67 328.28,647.17 328.69,644.28 329.09,645.06 329.50,645.94 329.91,645.05 330.32,646.49 330.72,646.69 331.13,646.74 331.54,645.20 331.95,643.34 332.35,644.38 332.76,643.18 333.17,640.57 333.58,639.71 333.98,640.74 334.39,641.05 334.80,643.18 335.21,641.22 335.61,641.94 336.02,643.32 336.43,643.48 336.84,640.41 337.24,640.63 337.65,639.43 338.06,640.31 338.47,641.27 338.87,644.86 339.28,645.46 339.69,643.53 340.10,641.56 340.50,642.30 340.91,642.43 341.32,643.31 341.73,641.28 342.13,639.66 342.54,636.45 342.95,636.10 343.36,636.83 343.76,635.94 344.17,633.48 344.58,637.54 344.99,638.94 345.39,638.74 345.80,638.87 346.21,635.66 346.62,636.05 347.02,632.36 347.43,635.12 347.84,632.37 348.25,630.47 348.65,629.98 349.06,625.80 349.47,625.01 349.88,624.02 350.28,623.92 350.69,623.90 351.10,624.96 351.51,626.82 351.91,626.60 352.32,627.06 352.73,626.61 353.14,625.32 353.54,623.56 353.95,623.49 354.36,620.06 354.77,618.14 355.17,620.81 355.58,622.20 355.99,618.66 356.40,617.11 356.80,616.32 357.21,614.83 357.62,614.33 358.03,615.10 358.43,614.93 358.84,613.12 359.25,612.92 359.66,616.32 360.06,619.01 360.47,620.04 360.88,620.02 361.29,620.24 361.69,616.88 362.10,616.40 362.51,614.16 362.92,614.12 363.32,615.18 363.73,614.63 364.14,614.63 364.55,613.23 364.95,610.08 365.36,607.37 365.77,606.27 366.18,604.95 366.58,608.55 366.99,612.21 367.40,610.09 367.81,606.19 368.21,603.97 368.62,603.68 369.03,601.11 369.44,602.11 369.84,603.77 370.25,601.37 370.66,603.77 371.07,603.39 371.47,605.37 371.88,600.40 372.29,601.72 372.70,597.21 373.10,594.03 373.51,593.67 373.92,591.23 374.33,593.32 374.73,592.90 375.14,590.78 375.55,591.39 375.96,593.50 376.36,594.47 376.77,594.21 377.18,592.88 377.59,594.86 377.99,595.98 378.40,598.92 378.81,600.48 379.22,598.98 379.62,600.16 380.03,600.47 380.44,601.45 380.85,601.03 381.25,602.41 381.66,601.19 382.07,600.02 382.48,602.01 382.88,603.51 383.29,604.29 383.70,606.25 384.11,607.63 384.51,608.21 384.92,608.39 385.33,605.59 385.74,602.57 386.14,603.61 386.55,604.76 386.96,601.76 387.37,604.76 387.77,605.35 388.18,602.72 388.59,603.59 389.00,601.78 389.40,602.13 389.81,599.84 390.22,600.48 390.63,600.66 391.03,601.18 391.44,602.87 391.85,601.82 392.26,601.83 392.66,601.24 393.07,601.03 393.48,602.29 393.89,603.32 394.29,602.86 394.70,604.68 395.11,603.31 395.52,602.15 395.92,603.65 396.33,602.49 396.74,602.60 397.15,605.16 397.55,605.15 397.96,607.07 398.37,609.59 398.78,611.59 399.18,615.29 399.59,616.53 400.00,614.38 400.41,615.02 400.81,614.64 401.22,613.87 401.63,613.14 402.04,614.34 402.44,612.46 402.85,615.35 403.26,615.92 403.67,613.17 404.07,612.22 404.48,611.01 404.89,608.82 405.30,608.98 405.70,606.32 406.11,609.24 406.52,611.14 406.93,610.44 407.33,609.88 407.74,610.28 408.15,608.73 408.56,610.13 408.96,610.40 409.37,609.81 409.78,610.60 410.19,610.02 410.59,609.71 411.00,607.80 411.41,606.88 411.82,605.82 412.22,606.04 412.63,602.23 413.04,600.30 413.45,599.37 413.85,601.07 414.26,600.22 414.67,599.84 415.08,600.57 415.48,601.57 415.89,604.79 416.30,604.63 416.71,604.51 417.11,604.78 417.52,604.79 417.93,605.08 418.34,605.54 418.74,604.55 419.15,605.44 419.56,604.88 419.97,605.50 420.37,608.83 420.78,608.57 421.19,609.08 421.60,607.14 422.00,608.49 422.41,610.41 422.82,608.78 423.23,607.26 423.63,607.03 424.04,608.12 424.45,607.73 424.86,608.18 425.26,607.88 425.67,606.59 426.08,604.29 426.49,601.41 426.89,604.37 427.30,604.34 427.71,601.48 428.12,600.66 428.52,603.11 428.93,602.57 429.34,601.24 429.75,600.94 430.15,603.15 430.56,605.34 430.97,604.85 431.38,603.49 431.78,603.55 432.19,605.12 432.60,605.46 433.01,603.26 433.41,602.97 433.82,601.25 434.23,601.61 434.64,600.55 435.04,600.22 435.45,599.92 435.86,600.40 436.27,599.19 436.67,599.76 437.08,598.29 437.49,597.39 437.90,594.93 438.30,592.87 438.71,591.61 439.12,590.55 439.53,590.87 439.93,591.71 440.34,588.59 440.75,589.90 441.16,591.30 441.56,591.09 441.97,589.42 442.38,588.92 442.79,588.76 443.19,588.78 443.60,589.45 444.01,590.07 444.42,588.69 444.82,590.48 445.23,590.51 445.64,592.84 446.05,590.26 446.45,590.70 446.86,591.99 447.27,593.44 447.68,593.72 448.08,593.70 448.49,593.17 448.90,594.54 449.31,594.10 449.71,595.90 450.12,598.85 450.53,597.93 450.94,599.78 451.34,601.13 451.75,598.98 452.16,596.55 452.57,594.77 452.97,597.25 453.38,596.02 453.79,598.31 454.20,600.77 454.60,601.17 455.01,601.48 455.42,599.51 455.83,598.93 456.23,598.79 456.64,597.88 457.05,599.13 457.46,599.57 457.86,600.82 458.27,602.85 458.68,600.59 459.09,595.90 459.49,597.74 459.90,598.07 460.31,601.55 460.72,602.42 461.12,602.60 461.53,601.97 461.94,603.01 462.35,602.22 462.75,603.44 463.16,602.65 463.57,603.92 463.98,603.27 464.38,604.55 464.79,604.25 465.20,603.35 465.61,602.97 466.01,602.71 466.42,599.57 466.83,599.25 467.24,599.98 467.64,599.86 468.05,600.19 468.46,598.40 468.87,599.98 469.27,598.46 469.68,594.95 470.09,595.38 470.50,593.27 470.90,594.96 471.31,594.12 471.72,594.22 472.13,592.28 472.53,594.22 472.94,592.83 473.35,593.56 473.76,590.73 474.16,589.94 474.57,589.79 474.98,587.18 475.39,585.46 475.79,584.88 476.20,587.43 476.61,587.83 477.02,585.03 477.42,586.41 477.83,587.72 478.24,585.91 478.65,583.34 479.05,586.25 479.46,587.68 479.87,586.90 480.28,585.56 480.68,584.01 481.09,584.92 481.50,585.40 481.91,583.84 482.31,583.28 482.72,582.08 483.13,582.30 483.54,582.80 483.94,582.22 484.35,580.50 484.76,580.43 485.17,576.99 485.57,575.33 485.98,574.75 486.39,575.64 486.80,573.33 487.20,570.33 487.61,569.67 488.02,568.08 488.43,567.54 488.83,568.25 489.24,567.71 489.65,562.38 490.06,562.37 490.46,565.04 490.87,562.86 491.28,561.57 491.69,561.92 492.09,561.47 492.50,561.09 492.91,558.93 493.32,556.78 493.72,558.78 494.13,556.02 494.54,554.71 494.95,552.64 495.35,554.29 495.76,552.31 496.17,550.41 496.58,551.82 496.98,552.04 497.39,550.59 497.80,548.74 498.21,550.42 498.61,549.80 499.02,549.57 499.43,548.40 499.84,545.64 500.24,545.73 500.65,549.27 501.06,550.85 501.47,550.53 501.87,551.18 502.28,553.80 502.69,555.00 503.10,553.44 503.50,555.32 503.91,553.23 504.32,551.76 504.73,553.82 505.13,552.59 505.54,551.33 505.95,550.40 506.36,551.35 506.76,549.39 507.17,549.85 507.58,550.76 507.99,553.03 508.39,552.59 508.80,551.01 509.21,555.65 509.62,551.47 510.02,548.44 510.43,550.00 510.84,551.69 511.25,551.89 511.65,549.88 512.06,552.03 512.47,550.59 512.88,551.45 513.28,548.44 513.69,549.43 514.10,551.24 514.51,549.55 514.91,550.90 515.32,553.40 515.73,551.05 516.14,551.65 516.54,550.46 516.95,548.69 517.36,547.75 517.77,549.17 518.17,548.63 518.58,551.93 518.99,550.44 519.40,552.74 519.80,551.67 520.21,551.74 520.62,550.51 521.03,550.53 521.43,551.01 521.84,552.04 522.25,554.64 522.66,551.30 523.06,551.58 523.47,550.55 523.88,550.79 524.29,550.27 524.69,548.35 525.10,547.68 525.51,550.63 525.92,551.95 526.32,549.80 526.73,551.16 527.14,551.52 527.55,554.32 527.95,557.77 528.36,557.22 528.77,556.29 529.18,557.90 529.58,557.69 529.99,556.94 530.40,558.20 530.81,561.60 531.21,559.19 531.62,559.02 532.03,559.27 532.44,557.03 532.84,556.74 533.25,554.49 533.66,554.69 534.07,553.85 534.47,555.05 534.88,559.24 535.29,558.98 535.70,555.58 536.10,554.10 536.51,557.63 536.92,560.44 537.33,561.95 537.73,564.07 538.14,565.50 538.55,565.86 538.96,563.16 539.36,564.49 539.77,563.59 540.18,563.87 540.59,559.35 540.99,559.46 541.40,556.60 541.81,556.82 542.22,555.77 542.62,553.78 543.03,556.48 543.44,555.75 543.85,553.60 544.25,554.22 544.66,554.18 545.07,554.62 545.48,553.59 545.88,555.58 546.29,554.98 546.70,555.34 547.11,552.63 547.51,554.07 547.92,554.21 548.33,555.78 548.74,556.02 549.14,559.04 549.55,559.72 549.96,560.47 550.37,560.61 550.77,559.20 551.18,556.32 551.59,556.93 552.00,555.01 552.40,555.06 552.81,555.43 553.22,554.76 553.63,555.78 554.03,552.72 554.44,552.88 554.85,552.85 555.26,550.95 555.66,549.10 556.07,551.10 556.48,552.74 556.89,551.72 557.29,551.68 557.70,551.42 558.11,554.09 558.52,555.88 558.92,557.98 559.33,558.48 559.74,560.29 560.15,562.87 560.55,561.93 560.96,559.90 561.37,558.27 561.78,560.56 562.18,562.86 562.59,562.19 563.00,563.17 563.41,567.27 563.81,568.82 564.22,566.44 564.63,567.34 565.04,566.39 565.44,567.71 565.85,568.72 566.26,566.35 566.67,564.82 567.07,565.23 567.48,565.66 567.89,564.60 568.30,565.40 568.70,564.00 569.11,566.15 569.52,566.94 569.93,565.91 570.33,567.46 570.74,567.51 571.15,568.40 571.56,569.22 571.96,570.06 572.37,572.02 572.78,573.92 573.19,574.29 573.59,577.42 574.00,581.01 574.41,580.52 574.82,578.51 575.22,576.11 575.63,575.63 576.04,576.36 576.45,578.75 576.85,580.68 577.26,580.52 577.67,580.36 578.08,582.89 578.48,583.08 578.89,584.83 579.30,584.77 579.71,587.42 580.11,586.78 580.52,589.79 580.93,591.19 581.34,593.33 581.74,594.40 582.15,594.01 582.56,595.47 582.97,596.66 583.37,597.16 583.78,596.32 584.19,599.79 584.60,598.88 585.01,597.06 585.41,596.84 585.82,594.30 586.23,594.86 586.64,595.93 587.04,597.70 587.45,598.58 587.86,601.23 588.27,599.43 588.67,599.01 589.08,598.98 589.49,599.36 589.90,599.44 590.30,600.34 590.71,601.85 591.12,600.55 591.53,597.37 591.93,597.22 592.34,597.02 592.75,595.99 593.16,595.70 593.56,596.09 593.97,596.83 594.38,595.30 594.79,594.00 595.19,595.01 595.60,597.33 596.01,597.62 596.42,597.30 596.82,598.39 597.23,596.96 597.64,594.98 598.05,596.30 598.45,594.91 598.86,592.87 599.27,593.37 599.68,596.48 600.08,595.23 600.49,595.93 600.90,597.02 601.31,598.09 601.71,597.31 602.12,595.06 602.53,596.80 602.94,596.42 603.34,594.03 603.75,594.84 604.16,595.23 604.57,594.93 604.97,593.23 605.38,594.64 605.79,595.14 606.20,592.85 606.60,595.24 607.01,593.47 607.42,591.96 607.83,593.75 608.23,590.49 608.64,591.18 609.05,591.89 609.46,592.84 609.86,592.74 610.27,594.32 610.68,593.41 611.09,590.71 611.49,589.36 611.90,591.70 612.31,591.84 612.72,591.40 613.12,594.33 613.53,597.05 613.94,599.78 614.35,601.68 614.75,601.32 615.16,601.37 615.57,600.10 615.98,595.97 616.38,594.49 616.79,594.96 617.20,595.20 617.61,593.08 618.01,592.40 618.42,594.40 618.83,594.75 619.24,596.93 619.64,595.85 620.05,596.81 620.46,595.62 620.87,591.99 621.27,593.87 621.68,596.08 622.09,592.77 622.50,591.78 622.90,589.81 623.31,588.07 623.72,589.09 624.13,589.19 624.53,590.23 624.94,590.47 625.35,591.02 625.76,590.75 626.16,592.02 626.57,592.35 626.98,589.19 627.39,589.21 627.79,588.90 628.20,586.83 628.61,587.70 629.02,585.91 629.42,588.17 629.83,588.51 630.24,592.91 630.65,592.78 631.05,592.92 631.46,596.56 631.87,596.43 632.28,597.34 632.68,598.66 633.09,600.16 633.50,600.67 633.91,601.13 634.31,600.73 634.72,595.97 635.13,593.51 635.54,593.13 635.94,594.49 636.35,595.18 636.76,595.19 637.17,593.76 637.57,592.63 637.98,594.09 638.39,592.74 638.80,592.04 639.20,591.49 639.61,591.30 640.02,591.72 640.43,591.70 640.83,590.28 641.24,591.80 641.65,591.36 642.06,591.81 642.46,593.02 642.87,594.70 643.28,593.56 643.69,591.61 644.09,591.94 644.50,591.54 644.91,592.54 645.32,594.13 645.72,596.27 646.13,597.64 646.54,599.51 646.95,597.38 647.35,598.63 647.76,596.55 648.17,596.92 648.58,595.28 648.98,595.45 649.39,596.62 649.80,593.96 650.21,595.79 650.61,598.75 651.02,597.20 651.43,597.80 651.84,598.94 652.24,601.59 652.65,601.06 653.06,600.36 653.47,601.37 653.87,602.06 654.28,603.40 654.69,604.24 655.10,605.21 655.50,606.16 655.91,605.50 656.32,606.70 656.73,607.28 657.13,608.62 657.54,608.48 657.95,607.64 658.36,607.81 658.76,607.00 659.17,607.85 659.58,606.76 659.99,606.54 660.39,604.11 660.80,603.48 661.21,603.04 661.62,602.86 662.02,601.52 662.43,604.29 662.84,606.19 663.25,606.05 663.65,604.69 664.06,607.85 664.47,607.83 664.88,609.74 665.28,608.65 665.69,608.48 666.10,611.47 666.51,611.41 666.91,612.30 667.32,614.11 667.73,610.13 668.14,608.72 668.54,610.10 668.95,608.06 669.36,609.53 669.77,609.93 670.17,610.69 670.58,611.00 670.99,608.82 671.40,609.80 671.80,608.24 672.21,607.44 672.62,605.16 673.03,603.34 673.43,605.20 673.84,604.71 674.25,605.52 674.66,606.12 675.06,603.65 675.47,601.85 675.88,599.38 676.29,599.35 676.69,598.55 677.10,596.20 677.51,597.28 677.92,599.42 678.32,602.09 678.73,603.68 679.14,600.21 679.55,598.04 679.95,598.95 680.36,599.86 680.77,597.64 681.18,596.37 681.58,596.61 681.99,596.98 682.40,598.21 682.81,598.29 683.21,599.05 683.62,599.64 684.03,599.69 684.44,596.88 684.84,594.51 685.25,592.58 685.66,591.96 686.07,590.94 686.47,590.68 686.88,590.76 687.29,591.03 687.70,593.77 688.10,592.49 688.51,595.17 688.92,593.60 689.33,590.79 689.73,589.64 690.14,588.04 690.55,586.74 690.96,587.34 691.36,588.08 691.77,588.97 692.18,588.49 692.59,586.93 692.99,585.63 693.40,586.22 693.81,585.81 694.22,586.92 694.62,584.80 695.03,584.91 695.44,584.90 695.85,586.62 696.25,586.27 696.66,585.47 697.07,582.19 697.48,583.50 697.88,583.27 698.29,584.33 698.70,583.14 699.11,583.91 699.51,581.23 699.92,580.64 700.33,576.97 700.74,578.24 701.14,579.81 701.55,574.17 701.96,577.90 702.37,577.70 702.77,580.27 703.18,580.36 703.59,583.76 704.00,584.25 704.40,583.31 704.81,584.28 705.22,579.75 705.63,582.30 706.03,585.02 706.44,585.76 706.85,587.18 707.26,586.91 707.66,586.66 708.07,589.53 708.48,587.53 708.89,587.41 709.29,585.97 709.70,586.35 710.11,584.72 710.52,580.94 710.92,580.96 711.33,582.16 711.74,580.09 712.15,579.39 712.55,580.08 712.96,578.69 713.37,581.36 713.78,583.26 714.18,583.86 714.59,582.52 715.00,579.92 715.41,580.71 715.81,580.18 716.22,582.45 716.63,580.67 717.04,579.95 717.44,577.82 717.85,577.89 718.26,577.49 718.67,571.44 719.07,570.84 719.48,568.23 719.89,569.44 720.30,571.50 720.70,571.94 721.11,568.87 721.52,569.47 721.93,570.37 722.33,567.31 722.74,566.18 723.15,567.32 723.56,569.37 723.96,568.77 724.37,565.18 724.78,565.16 725.19,561.93 725.59,558.35 726.00,558.35 726.41,557.62 726.82,557.78 727.22,558.31 727.63,557.82 728.04,556.37 728.45,557.29 728.85,556.33 729.26,557.47 729.67,559.74 730.08,560.64 730.48,560.48 730.89,558.28 731.30,561.50 731.71,560.69 732.11,560.79 732.52,558.23 732.93,555.13 733.34,556.82 733.74,555.58 734.15,556.99 734.56,556.53 734.97,555.46 735.37,556.51 735.78,556.49 736.19,552.93 736.60,549.96 737.00,548.44 737.41,546.32 737.82,548.93 738.23,545.82 738.63,542.98 739.04,542.99 739.45,541.46 739.86,541.25 740.26,542.78 740.67,541.90 741.08,537.36 741.49,540.92 741.89,540.96 742.30,541.28 742.71,538.68 743.12,538.10 743.52,537.59 743.93,534.59 744.34,533.97 744.75,534.29 745.15,535.15 745.56,535.03 745.97,532.73 746.38,533.92 746.78,534.38 747.19,533.57 747.60,532.39 748.01,535.66 748.41,533.04 748.82,530.35 749.23,529.82 749.64,529.44 750.04,531.32 750.45,532.53 750.86,533.31 751.27,531.43 751.67,529.90 752.08,529.89 752.49,527.83 752.90,530.62 753.30,529.24 753.71,528.17 754.12,530.54 754.53,529.68 754.93,533.04 755.34,531.99 755.75,531.82 756.16,534.59 756.56,532.35 756.97,532.65 757.38,529.75 757.79,526.79 758.19,524.68 758.60,522.34 759.01,523.68 759.42,521.76 759.82,523.76 760.23,521.38 760.64,521.48 761.05,522.10 761.45,521.43 761.86,519.70 762.27,518.64 762.68,519.86 763.08,518.24 763.49,520.41 763.90,521.23 764.31,518.95 764.71,518.71 765.12,518.83 765.53,520.02 765.94,520.82 766.34,519.45 766.75,519.28 767.16,519.58 767.57,518.54 767.97,519.74 768.38,517.26 768.79,516.46 769.20,519.21 769.60,519.84 770.01,519.15 770.42,518.90 770.83,519.48 771.23,521.39 771.64,520.55 772.05,522.58 772.46,523.18 772.86,522.78 773.27,520.11 773.68,519.27 774.09,521.23 774.49,521.68 774.90,520.25 775.31,520.01 775.72,522.15 776.12,521.37 776.53,519.75 776.94,518.40 777.35,518.54 777.75,516.01 778.16,514.34 778.57,513.76 778.98,513.67 779.38,514.20 779.79,516.46 780.20,512.08 780.61,512.41 781.01,511.40 781.42,509.45 781.83,506.14 782.24,503.58 782.64,506.11 783.05,506.40 783.46,506.31 783.87,508.37 784.27,508.10 784.68,507.43 785.09,506.70 785.50,509.18 785.90,509.88 786.31,508.49 786.72,508.80 787.13,506.82 787.53,506.79 787.94,508.62 788.35,507.53 788.76,505.63 789.16,507.27 789.57,508.24 789.98,509.13 790.39,509.38 790.79,510.68 791.20,513.25 791.61,514.22 792.02,518.14 792.42,518.44 792.83,519.99 793.24,517.76 793.65,517.62 794.05,518.25 794.46,515.74 794.87,514.59 795.28,512.20 795.68,513.74 796.09,515.09 796.50,513.35 796.91,512.68 797.31,513.51 797.72,514.08 798.13,514.00 798.54,511.75 798.94,511.66 799.35,512.35 799.76,511.48 800.17,511.34 800.57,514.26 800.98,515.83 801.39,516.86 801.80,511.57 802.20,512.92 802.61,511.77 803.02,512.06 803.43,510.52 803.83,511.09 804.24,506.44 804.65,504.55 805.06,505.09 805.46,506.24 805.87,504.63 806.28,504.84 806.69,503.75 807.09,505.14 807.50,505.63 807.91,507.09 808.32,507.37 808.72,507.78 809.13,510.98 809.54,511.13 809.95,511.76 810.35,511.30 810.76,509.46 811.17,510.14 811.58,509.82 811.98,509.86 812.39,510.90 812.80,510.84 813.21,508.66 813.61,509.88 814.02,507.78 814.43,508.02 814.84,508.63 815.24,508.23 815.65,507.77 816.06,510.07 816.47,510.18 816.87,511.59 817.28,509.18 817.69,507.33 818.10,510.68 818.50,508.11 818.91,506.48 819.32,506.10 819.73,507.82 820.13,508.79 820.54,507.02 820.95,506.77 821.36,509.09 821.76,509.09 822.17,508.51 822.58,503.01 822.99,505.17 823.39,505.34 823.80,505.59 824.21,504.62 824.62,505.63 825.02,506.78 825.43,507.28 825.84,507.11 826.25,506.81 826.65,509.28 827.06,508.29 827.47,508.38 827.88,507.53 828.28,507.91 828.69,505.43 829.10,503.90 829.51,505.96 829.91,505.02 830.32,504.97 830.73,505.03 831.14,504.01 831.54,506.61 831.95,505.43 832.36,503.08 832.77,503.31 833.17,503.38 833.58,501.09 833.99,502.03 834.40,501.46 834.80,503.43 835.21,503.89 835.62,502.36 836.03,500.80 836.43,501.33 836.84,500.31 837.25,501.20 837.66,499.48 838.06,499.15 838.47,498.25 838.88,498.72 839.29,500.20 839.69,501.85 840.10,503.47 840.51,498.63 840.92,496.92 841.32,495.22 841.73,497.39 842.14,497.60 842.55,498.63 842.95,497.02 843.36,499.35 843.77,498.17 844.18,496.02 844.58,497.00 844.99,499.43 845.40,497.75 845.81,496.70 846.21,496.51 846.62,497.42 847.03,496.65 847.44,497.22 847.84,499.05 848.25,498.59 848.66,499.02 849.07,499.97 849.47,499.15 849.88,500.61 850.29,499.76 850.70,503.73 851.10,505.21 851.51,505.43 851.92,507.40 852.33,512.12 852.73,513.95 853.14,510.07 853.55,509.29 853.96,508.10 854.36,506.09 854.77,504.82 855.18,500.00 855.59,499.45 855.99,500.25 856.40,502.52 856.81,502.46 857.22,502.20 857.62,499.25 858.03,496.21 858.44,496.22 858.85,496.22 859.25,493.48 859.66,493.12 860.07,493.89 860.48,497.02 860.88,496.37 861.29,495.73 861.70,492.40 862.11,493.40 862.51,493.74 862.92,496.10 863.33,497.10 863.74,499.16 864.14,497.45 864.55,499.54 864.96,501.79 865.37,503.40 865.77,505.14 866.18,506.15 866.59,505.54 867.00,505.63 867.40,503.34 867.81,503.91 868.22,505.07 868.63,504.30 869.03,501.69 869.44,499.14 869.85,495.22 870.26,496.62 870.66,498.57 871.07,499.23 871.48,500.70 871.89,501.10 872.29,498.17 872.70,497.81 873.11,495.80 873.52,495.14 873.92,494.54 874.33,497.36 874.74,497.85 875.15,499.23 875.55,501.79 875.96,501.31 876.37,499.41 876.78,498.83 877.18,498.82 877.59,497.67 878.00,495.20 878.41,494.98 878.81,495.24 879.22,493.78 879.63,494.48 880.04,494.43 880.44,495.60 880.85,496.89 881.26,497.58 881.67,497.99 882.07,499.27 882.48,499.37 882.89,500.71 883.30,501.13 883.70,502.18 884.11,499.24 884.52,502.00 884.93,501.77 885.33,499.52 885.74,502.33 886.15,504.38 886.56,501.56 886.96,502.55 887.37,502.01 887.78,502.50 888.19,502.74 888.59,500.12 889.00,500.85 889.41,498.98 889.82,497.55 890.22,495.86 890.63,494.66 891.04,495.27 891.45,491.93 891.85,493.13 892.26,492.97 892.67,496.56 893.08,498.72 893.48,499.31 893.89,497.80 894.30,501.37 894.71,498.17 895.11,496.53 895.52,496.98 895.93,499.67 896.34,498.79 896.74,496.37 897.15,497.79 897.56,498.09 897.97,498.60 898.37,499.52 898.78,497.40 899.19,499.87 899.60,499.41 900.00,500.92"/>
<text x="85.00" y="696" text-anchor="middle" font-family="Arial" font-size="12" fill="#374151">0</text>
<text x="288.75" y="696" text-anchor="middle" font-family="Arial" font-size="12" fill="#374151">50000</text>
<text x="492.50" y="696" text-anchor="middle" font-family="Arial" font-size="12" fill="#374151">100000</text>
<text x="696.25" y="696" text-anchor="middle" font-family="Arial" font-size="12" fill="#374151">149999</text>
<text x="900.00" y="696" text-anchor="middle" font-family="Arial" font-size="12" fill="#374151">199999</text>
<text x="492.5" y="716" text-anchor="middle" font-family="Arial" font-size="14" fill="#111827">Event index</text>
</svg>
