<svg xmlns="http://www.w3.org/2000/svg" width="940" height="540" viewBox="0 0 940 540">
<rect width="100%" height="100%" fill="#ffffff"/>
<text x="470.0" y="26" text-anchor="middle" font-family="Arial" font-size="18" fill="#111827">Avellaneda Stoikov Cumulative PnL After Fees By Regime</text>
<line x1="85" y1="470" x2="785" y2="470" stroke="#111827" stroke-width="1"/>
<line x1="85" y1="42" x2="85" y2="470" stroke="#111827" stroke-width="1"/>
<line x1="85.00" y1="42" x2="85.00" y2="470" stroke="#e5e7eb" stroke-width="1"/>
<text x="85.00" y="494" text-anchor="middle" font-family="Arial" font-size="12" fill="#374151">0</text>
<line x1="260.00" y1="42" x2="260.00" y2="470" stroke="#e5e7eb" stroke-width="1"/>
<text x="260.00" y="494" text-anchor="middle" font-family="Arial" font-size="12" fill="#374151">50000</text>
<line x1="435.00" y1="42" x2="435.00" y2="470" stroke="#e5e7eb" stroke-width="1"/>
<text x="435.00" y="494" text-anchor="middle" font-family="Arial" font-size="12" fill="#374151">100000</text>
<line x1="610.00" y1="42" x2="610.00" y2="470" stroke="#e5e7eb" stroke-width="1"/>
<text x="610.00" y="494" text-anchor="middle" font-family="Arial" font-size="12" fill="#374151">149999</text>
<line x1="785.00" y1="42" x2="785.00" y2="470" stroke="#e5e7eb" stroke-width="1"/>
<text x="785.00" y="494" text-anchor="middle" font-family="Arial" font-size="12" fill="#374151">199999</text>
<line x1="85" y1="470.00" x2="785" y2="470.00" stroke="#e5e7eb" stroke-width="1"/>
<text x="73" y="474.00" text-anchor="end" font-family="Arial" font-size="12" fill="#374151">-2314754</text>
<line x1="85" y1="363.00" x2="785" y2="363.00" stroke="#e5e7eb" stroke-width="1"/>
<text x="73" y="367.00" text-anchor="end" font-family="Arial" font-size="12" fill="#374151">2363496</text>
<line x1="85" y1="256.00" x2="785" y2="256.00" stroke="#e5e7eb" stroke-width="1"/>
<text x="73" y="260.00" text-anchor="end" font-family="Arial" font-size="12" fill="#374151">7041745</text>
<line x1="85" y1="149.00" x2="785" y2="149.00" stroke="#e5e7eb" stroke-width="1"/>
<text x="73" y="153.00" text-anchor="end" font-family="Arial" font-size="12" fill="#374151">11719995</text>
<line x1="85" y1="42.00" x2="785" y2="42.00" stroke="#e5e7eb" stroke-width="1"/>
<text x="73" y="46.00" text-anchor="end" font-family="Arial" font-size="12" fill="#374151">16398245</text>
<polyline fill="none" stroke="#2563eb" stroke-width="2" points="85.00,417.06 85.35,417.04 85.70,417.03 86.05,417.01 86.40,417.00 86.75,416.99 87.10,416.97 87.45,416.95 87.80,416.94 88.15,416.92 88.50,416.90 88.85,416.89 89.20,416.88 89.55,416.87 89.90,416.85 90.25,416.81 90.60,416.80 90.95,416.78 91.30,416.75 91.65,416.72 92.00,416.73 92.35,416.70 92.70,416.70 93.05,416.70 93.40,416.70 93.75,416.69 94.10,416.66 94.45,416.69 94.80,416.67 95.15,416.65 95.50,416.65 95.85,416.63 96.20,416.58 96.55,416.58 96.90,416.56 97.25,416.52 97.60,416.56 97.95,416.57 98.30,416.56 98.65,416.55 99.00,416.56 99.35,416.54 99.70,416.53 100.05,416.52 100.40,416.49 100.75,416.52 101.10,416.45 101.45,416.48 101.80,416.46 102.15,416.44 102.50,416.39 102.85,416.37 103.20,416.39 103.55,416.40 103.90,416.37 104.25,416.33 104.60,416.36 104.95,416.33 105.30,416.36 105.65,416.39 106.00,416.39 106.35,416.38 106.70,416.38 107.05,416.36 107.40,416.36 107.75,416.34 108.10,416.30 108.45,416.33 108.80,416.35 109.15,416.36 109.50,416.36 109.85,416.36 110.20,416.34 110.55,416.33 110.90,416.30 111.25,416.30 111.60,416.27 111.95,416.27 112.30,416.24 112.65,416.23 113.00,416.21 113.35,416.20 113.70,416.18 114.05,416.18 114.40,416.16 114.75,416.15 115.10,416.14 115.45,416.13 115.80,416.11 116.15,416.10 116.50,416.09 116.85,416.08 117.20,416.05 117.55,416.04 117.90,416.04 118.25,416.03 118.60,416.02 118.95,416.03 119.30,416.03 119.65,416.02 120.00,416.01 120.35,415.99 120.70,415.99 121.05,415.99 121.40,416.04 121.75,416.02 122.10,416.02 122.45,415.98 122.80,415.98 123.15,415.99 123.50,415.94 123.85,415.90 124.20,415.85 124.55,415.86 124.90,415.85 125.25,415.84 125.60,415.81 125.95,415.81 126.30,415.86 126.65,415.87 127.00,415.85 127.35,415.85 127.70,415.82 128.05,415.88 128.40,415.84 128.75,415.85 129.10,415.84 129.45,415.80 129.80,415.80 130.15,415.79 130.50,415.75 130.85,415.72 131.20,415.70 131.55,415.69 131.90,415.70 132.25,415.79 132.60,415.72 132.95,415.71 133.30,415.62 133.65,415.65 134.00,415.65 134.35,415.68 134.70,415.70 135.05,415.73 135.40,415.65 135.75,415.62 136.10,415.65 136.45,415.66 136.80,415.60 137.15,415.53 137.50,415.51 137.85,415.56 138.20,415.51 138.55,415.43 138.90,415.44 139.25,415.40 139.60,415.27 139.95,415.20 140.30,415.14 140.65,415.07 141.00,415.14 141.35,415.15 141.70,415.14 142.05,415.02 142.40,414.99 142.75,415.01 143.10,414.91 143.45,414.98 143.80,414.96 144.15,415.00 144.50,414.99 144.85,414.94 145.20,414.81 145.55,414.77 145.90,414.68 146.25,414.63 146.60,414.66 146.95,414.65 147.30,414.61 147.65,414.74 148.00,414.74 148.35,414.72 148.70,414.88 149.05,414.87 149.40,414.84 149.75,414.76 150.10,414.92 150.45,414.83 150.80,414.74 151.15,414.62 151.50,414.56 151.85,414.45 152.20,414.28 152.55,414.35 152.90,414.36 153.25,414.43 153.60,414.42 153.95,414.50 154.30,414.35 154.65,414.29 155.00,414.34 155.35,414.36 155.70,414.46 156.05,414.48 156.40,414.67 156.75,414.48 157.10,414.42 157.45,414.39 157.80,414.48 158.15,414.53 158.50,414.39 158.85,414.45 159.20,414.14 159.55,414.18 159.90,414.11 160.25,414.10 160.60,414.25 160.95,414.19 161.30,414.13 161.65,414.03 162.00,414.06 162.35,414.19 162.70,414.13 163.05,414.17 163.40,414.05 163.75,414.03 164.10,413.82 164.45,413.73 164.80,413.88 165.15,413.93 165.50,413.81 165.85,413.88 166.20,413.85 166.55,413.72 166.90,413.61 167.25,413.50 167.60,413.57 167.95,413.87 168.30,413.82 168.65,413.94 169.00,413.97 169.35,414.12 169.70,413.97 170.05,414.06 170.40,414.02 170.75,413.72 171.10,413.53 171.45,413.66 171.80,413.54 172.15,413.43 172.50,413.59 172.85,413.76 173.20,413.92 173.55,413.86 173.90,413.70 174.25,413.52 174.60,413.41 174.95,413.54 175.30,413.54 175.65,413.55 176.00,413.57 176.35,413.59 176.70,413.67 177.05,413.61 177.40,413.47 177.75,413.39 178.10,413.31 178.45,413.36 178.80,413.34 179.15,413.03 179.50,413.29 179.85,413.23 180.20,413.19 180.55,413.15 180.90,413.23 181.25,413.40 181.60,413.19 181.95,413.37 182.30,413.27 182.65,413.09 183.00,413.00 183.35,412.83 183.70,412.66 184.05,412.41 184.40,412.29 184.75,412.42 185.10,412.69 185.45,412.58 185.80,412.44 186.15,412.45 186.50,412.52 186.85,412.49 187.20,412.82 187.55,412.68 187.90,412.51 188.25,412.54 188.60,412.37 188.95,412.13 189.30,412.01 189.65,411.90 190.00,411.76 190.35,411.98 190.70,412.12 191.05,412.31 191.40,412.38 191.75,412.18 192.10,412.40 192.45,411.95 192.80,411.99 193.15,411.65 193.50,411.02 193.85,411.23 194.20,411.35 194.55,411.06 194.90,410.57 195.25,409.86 195.60,409.82 195.95,410.22 196.30,410.05 196.65,410.59 197.00,411.26 197.35,410.78 197.70,411.13 198.05,410.44 198.40,411.08 198.75,410.84 199.10,410.67 199.45,410.78 199.80,410.56 200.15,409.67 200.50,408.81 200.85,408.15 201.20,407.31 201.55,407.03 201.90,407.48 202.25,407.93 202.60,407.38 202.95,407.24 203.30,407.89 203.65,407.46 204.00,408.01 204.35,408.70 204.70,409.04 205.05,408.39 205.40,408.15 205.75,407.71 206.10,408.19 206.45,408.29 206.80,407.87 207.15,407.79 207.50,407.80 207.85,408.09 208.20,408.37 208.55,408.95 208.90,409.41 209.25,409.76 209.60,408.66 209.95,407.93 210.30,407.76 210.65,408.06 211.00,407.90 211.35,408.55 211.70,409.89 212.05,410.00 212.40,410.87 212.75,410.79 213.10,411.29 213.45,412.01 213.80,411.31 214.15,410.99 214.50,411.91 214.85,412.57 215.20,413.82 215.55,414.09 215.90,414.40 216.25,414.49 216.60,414.79 216.95,414.08 217.30,414.30 217.65,415.14 218.00,415.08 218.35,414.65 218.70,414.80 219.05,415.14 219.40,414.69 219.75,415.24 220.10,414.80 220.45,415.88 220.80,415.58 221.15,415.13 221.50,415.40 221.85,415.71 222.20,415.07 222.55,415.97 222.90,415.54 223.25,415.47 223.60,415.02 223.95,414.46 224.30,414.88 224.65,414.23 225.00,414.37 225.35,414.74 225.70,414.77 226.05,414.59 226.40,414.00 226.75,414.54 227.10,414.26 227.45,414.35 227.80,414.09 228.15,414.55 228.50,413.85 228.85,413.63 229.20,414.30 229.55,414.57 229.90,414.70 230.25,414.54 230.60,414.14 230.95,413.97 231.30,413.44 231.65,413.34 232.00,412.02 232.35,412.46 232.70,412.43 233.05,412.60 233.40,411.27 233.75,410.93 234.10,410.27 234.45,410.11 234.80,409.96 235.15,410.07 235.50,411.14 235.85,410.99 236.20,410.41 236.55,410.54 236.90,411.63 237.25,411.01 237.60,410.44 237.95,410.96 238.30,411.52 238.65,411.05 239.00,410.59 239.35,411.23 239.70,411.80 240.05,411.27 240.40,410.78 240.75,411.30 241.10,409.92 241.45,409.54 241.80,409.98 242.15,409.12 242.50,409.60 242.85,410.49 243.20,410.20 243.55,409.36 243.90,408.75 244.25,408.71 244.60,409.55 244.95,409.73 245.30,408.95 245.65,408.89 246.00,409.27 246.35,409.21 246.70,408.84 247.05,409.40 247.40,409.42 247.75,409.10 248.10,409.73 248.45,409.00 248.80,408.37 249.15,409.08 249.50,409.17 249.85,408.67 250.20,409.16 250.55,409.95 250.90,410.04 251.25,409.02 251.60,408.75 251.95,409.38 252.30,409.14 252.65,409.70 253.00,410.00 253.35,410.55 253.70,411.50 254.05,411.81 254.40,411.28 254.75,410.81 255.10,411.59 255.45,411.64 255.80,411.66 256.15,411.85 256.50,412.06 256.85,411.40 257.20,409.64 257.55,409.89 257.90,409.20 258.25,410.07 258.60,409.22 258.95,408.34 259.30,408.29 259.65,407.64 260.00,407.27 260.35,407.48 260.70,407.63 261.05,407.28 261.40,408.23 261.75,407.81 262.10,406.39 262.45,405.50 262.80,405.78 263.15,405.75 263.50,404.49 263.85,403.60 264.20,403.08 264.55,403.09 264.90,402.90 265.25,403.81 265.60,404.28 265.95,403.32 266.30,403.45 266.65,402.47 267.00,401.71 267.35,401.64 267.70,401.19 268.05,401.26 268.40,402.42 268.75,402.67 269.10,402.63 269.45,403.12 269.80,402.92 270.15,402.17 270.50,400.71 270.85,400.36 271.20,400.27 271.55,399.61 271.90,398.09 272.25,398.25 272.60,398.25 272.95,399.52 273.30,398.17 273.65,398.01 274.00,397.68 274.35,398.30 274.70,400.64 275.05,399.87 275.40,401.74 275.75,400.96 276.10,399.67 276.45,398.19 276.80,399.21 277.15,400.86 277.50,400.15 277.85,400.81 278.20,400.85 278.55,403.14 278.90,403.18 279.25,401.81 279.60,400.44 279.95,400.20 280.30,400.85 280.65,399.85 281.00,399.51 281.35,398.56 281.70,398.54 282.05,398.93 282.40,400.96 282.75,403.42 283.10,404.28 283.45,403.15 283.80,403.05 284.15,402.03 284.50,402.63 284.85,401.35 285.20,401.68 285.55,402.02 285.90,402.36 286.25,401.93 286.60,401.08 286.95,401.54 287.30,402.88 287.65,402.21 288.00,405.39 288.35,405.15 288.70,405.40 289.05,405.77 289.40,405.17 289.75,405.28 290.10,404.69 290.45,402.54 290.80,403.28 291.15,404.68 291.50,404.76 291.85,404.97 292.20,404.83 292.55,403.81 292.90,403.81 293.25,405.79 293.60,405.71 293.95,406.66 294.30,408.83 294.65,408.13 295.00,406.75 295.35,407.38 295.70,406.52 296.05,407.09 296.40,408.21 296.75,409.23 297.10,411.02 297.45,412.03 297.80,412.89 298.15,411.30 298.50,409.97 298.85,410.86 299.20,410.49 299.55,409.54 299.90,409.52 300.25,410.51 300.60,412.06 300.95,413.19 301.30,413.89 301.65,412.72 302.00,411.32 302.35,410.42 302.70,409.28 303.05,410.16 303.40,411.66 303.75,410.76 304.10,410.49 304.45,407.75 304.80,408.68 305.15,408.98 305.50,408.30 305.85,409.17 306.20,410.89 306.55,412.41 306.90,411.02 307.25,410.85 307.60,411.79 307.95,413.20 308.30,412.23 308.65,411.01 309.00,411.06 309.35,410.09 309.70,407.07 310.05,409.23 310.40,409.90 310.75,410.00 311.10,410.68 311.45,409.67 311.80,410.01 312.15,409.27 312.50,410.44 312.85,409.99 313.20,409.55 313.55,409.13 313.90,407.72 314.25,408.85 314.60,408.94 314.95,410.53 315.30,411.01 315.65,413.23 316.00,413.51 316.35,413.93 316.70,413.40 317.05,414.40 317.40,415.66 317.75,417.15 318.10,416.71 318.45,417.40 318.80,416.24 319.15,414.41 319.50,412.80 319.85,413.08 320.20,414.29 320.55,415.69 320.90,417.79 321.25,417.41 321.60,417.06 321.95,417.26 322.30,417.42 322.65,417.00 323.00,417.38 323.35,415.04 323.70,415.21 324.05,415.81 324.40,416.75 324.75,417.08 325.10,416.82 325.45,417.10 325.80,417.19 326.15,416.55 326.50,415.76 326.85,416.11 327.20,415.18 327.55,416.08 327.90,417.07 328.25,417.52 328.60,418.06 328.95,418.01 329.30,418.74 329.65,416.62 330.00,417.14 330.35,415.86 330.70,415.32 331.05,414.71 331.40,414.50 331.75,412.95 332.10,412.09 332.45,411.97 332.80,412.37 333.15,412.37 333.50,412.12 333.85,410.38 334.20,410.06 334.55,409.43 334.90,409.52 335.25,408.28 335.60,408.31 335.95,407.96 336.30,406.90 336.65,405.15 337.00,405.46 337.35,404.61 337.70,404.67 338.05,405.32 338.40,405.64 338.75,405.78 339.10,406.58 339.45,406.87 339.80,406.56 340.15,406.85 340.50,407.68 340.85,407.84 341.20,409.08 341.55,407.35 341.90,407.71 342.25,406.98 342.60,408.34 342.95,407.00 343.30,406.85 343.65,406.28 344.00,405.94 344.35,405.60 344.70,406.65 345.05,406.62 345.40,407.39 345.75,406.86 346.10,406.68 346.45,405.56 346.80,404.54 347.15,403.55 347.50,402.81 347.85,401.54 348.20,402.08 348.55,401.52 348.90,399.25 349.25,398.82 349.60,397.82 349.95,398.75 350.30,396.58 350.65,396.82 351.00,398.48 351.35,397.62 351.70,396.79 352.05,395.96 352.40,396.53 352.75,396.27 353.10,395.85 353.45,394.64 353.80,394.70 354.15,393.45 354.50,392.17 354.85,393.59 355.20,394.69 355.55,393.96 355.90,391.60 356.25,390.33 356.60,388.34 356.95,389.79 357.30,389.54 357.65,391.36 358.00,391.16 358.35,391.19 358.70,392.99 359.05,391.97 359.40,392.57 359.75,393.84 360.10,392.86 360.45,395.06 360.80,394.11 361.15,393.75 361.50,394.38 361.85,392.01 362.20,392.71 362.55,393.09 362.90,394.87 363.25,396.08 363.60,395.73 363.95,395.99 364.30,396.51 364.65,394.44 365.00,394.15 365.35,390.78 365.70,391.77 366.05,389.69 366.40,389.60 366.75,390.03 367.10,389.72 367.45,390.08 367.80,391.55 368.15,394.80 368.50,395.79 368.85,396.82 369.20,397.03 369.55,397.86 369.90,397.64 370.25,395.52 370.60,393.55 370.95,392.01 371.30,390.48 371.65,388.38 372.00,387.12 372.35,388.48 372.70,387.09 373.05,385.27 373.40,386.35 373.75,384.98 374.10,384.07 374.45,381.97 374.80,381.91 375.15,384.08 375.50,383.54 375.85,382.76 376.20,381.07 376.55,380.77 376.90,380.07 377.25,381.22 377.60,380.15 377.95,379.05 378.30,378.67 378.65,376.78 379.00,379.47 379.35,380.90 379.70,380.26 380.05,379.11 380.40,377.40 380.75,375.39 381.10,372.36 381.45,371.52 381.80,373.27 382.15,371.01 382.50,372.36 382.85,371.50 383.20,372.19 383.55,370.86 383.90,369.88 384.25,366.14 384.60,366.50 384.95,366.22 385.30,365.37 385.65,363.07 386.00,361.85 386.35,363.26 386.70,364.17 387.05,362.95 387.40,363.64 387.75,364.38 388.10,363.33 388.45,363.77 388.80,365.99 389.15,365.69 389.50,366.16 389.85,366.80 390.20,367.53 390.55,370.20 390.90,368.07 391.25,367.31 391.60,367.00 391.95,368.56 392.30,367.11 392.65,364.31 393.00,361.22 393.35,360.06 393.70,360.23 394.05,361.93 394.40,362.33 394.75,363.42 395.10,365.82 395.45,361.06 395.80,360.77 396.15,357.45 396.50,361.62 396.85,360.81 397.20,359.52 397.55,359.79 397.90,360.95 398.25,362.69 398.60,365.18 398.95,365.12 399.30,364.12 399.65,364.99 400.00,365.95 400.35,365.55 400.70,364.30 401.05,362.24 401.40,362.23 401.75,361.12 402.10,358.13 402.45,355.74 402.80,357.06 403.15,354.19 403.50,351.93 403.85,352.14 404.20,352.34 404.55,350.17 404.90,346.38 405.25,347.33 405.60,345.43 405.95,343.33 406.30,343.97 406.65,345.10 407.00,342.58 407.35,342.98 407.70,341.21 408.05,344.06 408.40,347.12 408.75,345.55 409.10,343.97 409.45,340.59 409.80,340.50 410.15,341.43 410.50,346.76 410.85,346.17 411.20,342.36 411.55,344.39 411.90,346.47 412.25,345.58 412.60,346.59 412.95,347.60 413.30,348.70 413.65,347.65 414.00,347.50 414.35,345.76 414.70,347.76 415.05,344.50 415.40,344.99 415.75,345.41 416.10,341.59 416.45,335.27 416.80,332.69 417.15,333.09 417.50,330.73 417.85,328.75 418.20,330.55 418.55,334.19 418.90,332.67 419.25,329.82 419.60,330.21 419.95,327.48 420.30,324.47 420.65,321.02 421.00,322.07 421.35,320.69 421.70,320.31 422.05,315.51 422.40,314.13 422.75,315.46 423.10,314.31 423.45,311.46 423.80,309.68 424.15,310.49 424.50,309.72 424.85,309.93 425.20,308.02 425.55,306.86 425.90,309.34 426.25,307.56 426.60,304.66 426.95,305.66 427.30,305.12 427.65,301.57 428.00,299.53 428.35,301.19 428.70,301.94 429.05,304.27 429.40,306.55 429.75,299.96 430.10,302.41 430.45,303.90 430.80,307.00 431.15,312.45 431.50,309.80 431.85,312.16 432.20,312.53 432.55,311.47 432.90,314.02 433.25,318.64 433.60,317.14 433.95,317.89 434.30,318.21 434.65,319.35 435.00,322.85 435.35,322.23 435.70,322.33 436.05,324.28 436.40,326.44 436.75,326.62 437.10,323.76 437.45,325.94 437.80,323.49 438.15,320.05 438.50,317.78 438.85,319.66 439.20,320.47 439.55,322.87 439.90,320.24 440.25,319.53 440.60,317.82 440.95,317.46 441.30,316.60 441.65,319.32 442.00,322.06 442.35,321.06 442.70,321.92 443.05,315.76 443.40,316.80 443.75,314.57 444.10,315.11 444.45,313.22 444.80,311.96 445.15,308.70 445.50,311.17 445.85,310.18 446.20,306.07 446.55,310.11 446.90,313.16 447.25,306.73 447.60,303.07 447.95,299.68 448.30,296.26 448.65,293.20 449.00,297.21 449.35,297.45 449.70,301.49 450.05,303.74 450.40,299.90 450.75,302.57 451.10,302.52 451.45,305.89 451.80,299.70 452.15,297.84 452.50,300.83 452.85,301.88 453.20,302.53 453.55,298.17 453.90,296.43 454.25,296.43 454.60,299.27 454.95,301.81 455.30,303.19 455.65,305.45 456.00,305.31 456.35,306.03 456.70,303.66 457.05,301.75 457.40,300.93 457.75,303.12 458.10,305.15 458.45,307.64 458.80,314.15 459.15,315.03 459.50,318.49 459.85,321.47 460.20,316.44 460.55,323.34 460.90,327.42 461.25,326.58 461.60,325.81 461.95,328.12 462.30,328.35 462.65,331.34 463.00,325.92 463.35,330.07 463.70,332.16 464.05,334.40 464.40,329.86 464.75,326.66 465.10,322.91 465.45,322.96 465.80,318.71 466.15,319.99 466.50,318.01 466.85,319.74 467.20,316.42 467.55,316.24 467.90,318.36 468.25,319.06 468.60,320.54 468.95,322.64 469.30,322.25 469.65,323.19 470.00,319.76 470.35,322.80 470.70,323.54 471.05,325.98 471.40,326.96 471.75,327.11 472.10,325.66 472.45,322.51 472.80,316.01 473.15,314.04 473.50,318.60 473.85,316.15 474.20,316.96 474.55,317.19 474.90,323.08 475.25,322.22 475.60,328.18 475.95,330.83 476.30,326.72 476.65,324.11 477.00,323.99 477.35,326.06 477.70,325.37 478.05,325.88 478.40,325.82 478.75,328.63 479.10,326.39 479.45,323.05 479.80,316.91 480.15,320.47 480.50,317.43 480.85,314.37 481.20,314.40 481.55,313.87 481.90,313.22 482.25,309.27 482.60,302.61 482.95,301.59 483.30,301.20 483.65,303.98 484.00,301.44 484.35,301.17 484.70,301.35 485.05,303.29 485.40,304.19 485.75,305.91 486.10,303.83 486.45,303.48 486.80,297.93 487.15,297.31 487.50,295.93 487.85,294.27 488.20,296.20 488.55,298.66 488.90,294.87 489.25,297.02 489.60,292.89 489.95,290.82 490.30,291.46 490.65,295.13 491.00,293.26 491.35,293.05 491.70,291.78 492.05,289.37 492.40,290.50 492.75,285.87 493.10,287.48 493.45,289.14 493.80,287.35 494.15,288.35 494.50,287.01 494.85,285.07 495.20,283.26 495.55,285.49 495.90,289.45 496.25,292.00 496.60,288.24 496.95,285.27 497.30,283.11 497.65,280.86 498.00,279.51 498.35,275.00 498.70,274.37 499.05,272.87 499.40,270.55 499.75,273.19 500.10,275.03 500.45,275.50 500.80,278.99 501.15,278.93 501.50,284.74 501.85,283.20 502.20,290.16 502.55,286.17 502.90,288.18 503.25,284.05 503.60,290.16 503.95,289.32 504.30,283.62 504.65,281.83 505.00,282.80 505.35,284.48 505.70,280.54 506.05,280.96 506.40,280.78 506.75,282.47 507.10,280.90 507.45,276.40 507.80,276.73 508.15,276.00 508.50,275.16 508.85,283.00 509.20,288.15 509.55,286.33 509.90,283.17 510.25,284.52 510.60,286.05 510.95,286.14 511.30,286.50 511.65,280.49 512.00,275.07 512.35,279.30 512.70,275.89 513.05,278.97 513.40,280.20 513.75,272.58 514.10,269.95 514.45,270.87 514.80,265.32 515.15,264.51 515.50,266.26 515.85,261.64 516.20,265.21 516.55,265.38 516.90,262.12 517.25,256.44 517.60,253.96 517.95,250.64 518.30,255.11 518.65,256.74 519.00,257.75 519.35,256.34 519.70,255.98 520.05,257.28 520.40,257.82 520.75,259.56 521.10,257.13 521.45,256.61 521.80,254.94 522.15,255.33 522.50,257.32 522.85,255.41 523.20,256.13 523.55,258.81 523.90,265.16 524.25,259.59 524.60,257.07 524.95,256.53 525.30,248.12 525.65,248.93 526.00,242.82 526.35,248.94 526.70,249.15 527.05,247.34 527.40,246.03 527.75,240.51 528.10,242.05 528.45,240.12 528.80,235.92 529.15,237.09 529.50,234.78 529.85,227.90 530.20,227.91 530.55,225.15 530.90,226.11 531.25,230.23 531.60,232.47 531.95,230.90 532.30,224.41 532.65,223.08 533.00,219.35 533.35,220.40 533.70,220.62 534.05,220.80 534.40,227.63 534.75,225.16 535.10,230.38 535.45,232.36 535.80,230.97 536.15,231.85 536.50,231.96 536.85,226.20 537.20,229.17 537.55,224.32 537.90,225.61 538.25,225.38 538.60,224.23 538.95,222.94 539.30,225.87 539.65,230.54 540.00,225.37 540.35,227.99 540.70,224.01 541.05,223.65 541.40,216.88 541.75,222.06 542.10,225.54 542.45,223.11 542.80,215.60 543.15,212.83 543.50,213.23 543.85,211.51 544.20,202.42 544.55,202.92 544.90,202.39 545.25,207.62 545.60,198.97 545.95,193.54 546.30,190.03 546.65,193.81 547.00,194.36 547.35,189.75 547.70,196.12 548.05,198.57 548.40,201.13 548.75,196.41 549.10,194.11 549.45,189.62 549.80,196.77 550.15,191.92 550.50,198.85 550.85,200.31 551.20,195.71 551.55,202.15 551.90,203.99 552.25,206.93 552.60,206.65 552.95,202.26 553.30,202.48 553.65,201.30 554.00,199.52 554.35,198.05 554.70,199.28 555.05,201.54 555.40,203.77 555.75,205.48 556.10,198.21 556.45,203.37 556.80,206.26 557.15,207.44 557.50,216.18 557.85,216.23 558.20,214.54 558.55,221.22 558.90,214.33 559.25,213.74 559.60,214.70 559.95,210.77 560.30,206.06 560.65,204.68 561.00,202.31 561.35,202.29 561.70,200.13 562.05,195.08 562.40,195.58 562.75,192.76 563.10,194.46 563.45,191.86 563.80,197.02 564.15,194.84 564.50,186.57 564.85,177.69 565.20,179.43 565.55,178.30 565.90,174.03 566.25,176.17 566.60,167.63 566.95,169.55 567.30,165.85 567.65,165.03 568.00,161.13 568.35,156.44 568.70,148.10 569.05,145.90 569.40,146.81 569.75,142.03 570.10,139.47 570.45,136.52 570.80,140.06 571.15,143.27 571.50,140.38 571.85,139.51 572.20,138.74 572.55,141.23 572.90,137.99 573.25,134.51 573.60,128.03 573.95,124.93 574.30,117.17 574.65,115.97 575.00,123.73 575.35,121.63 575.70,113.13 576.05,114.22 576.40,109.80 576.75,108.09 577.10,105.16 577.45,105.95 577.80,103.68 578.15,102.13 578.50,93.55 578.85,102.13 579.20,95.28 579.55,101.33 579.90,94.13 580.25,94.86 580.60,92.45 580.95,94.32 581.30,100.10 581.65,98.85 582.00,98.37 582.35,99.68 582.70,95.01 583.05,97.70 583.40,101.66 583.75,106.33 584.10,106.96 584.45,99.42 584.80,109.51 585.15,105.48 585.50,104.42 585.85,102.65 586.20,102.15 586.55,97.19 586.90,96.83 587.25,102.52 587.60,102.58 587.95,109.10 588.30,114.46 588.65,109.59 589.00,107.88 589.35,96.40 589.70,85.79 590.05,86.43 590.40,87.94 590.75,86.27 591.10,96.04 591.45,99.47 591.80,102.57 592.15,102.14 592.50,103.61 592.85,105.15 593.20,107.62 593.55,111.69 593.90,110.64 594.25,105.85 594.60,103.88 594.95,100.76 595.30,106.94 595.65,114.32 596.00,112.05 596.35,106.47 596.70,100.34 597.05,104.03 597.40,102.38 597.75,105.05 598.10,107.37 598.45,108.83 598.80,106.44 599.15,111.40 599.50,117.71 599.85,115.86 600.20,120.06 600.55,119.49 600.90,121.20 601.25,113.13 601.60,110.91 601.95,102.77 602.30,102.12 602.65,102.95 603.00,93.22 603.35,86.51 603.70,80.78 604.05,76.40 604.40,77.37 604.75,82.63 605.10,82.02 605.45,85.07 605.80,80.83 606.15,76.92 606.50,78.87 606.85,90.37 607.20,92.61 607.55,85.67 607.90,94.19 608.25,90.32 608.60,99.58 608.95,98.00 609.30,100.56 609.65,103.52 610.00,97.35 610.35,99.88 610.70,99.35 611.05,103.29 611.40,99.57 611.75,90.05 612.10,85.05 612.45,90.39 612.80,96.20 613.15,93.74 613.50,99.84 613.85,89.78 614.20,92.51 614.55,90.22 614.90,91.49 615.25,85.65 615.60,92.15 615.95,93.41 616.30,92.52 616.65,93.36 617.00,96.95 617.35,111.19 617.70,114.27 618.05,113.28 618.40,114.08 618.75,115.67 619.10,121.83 619.45,121.33 619.80,129.71 620.15,131.99 620.50,140.65 620.85,139.92 621.20,135.84 621.55,132.91 621.90,125.85 622.25,122.71 622.60,125.33 622.95,126.62 623.30,129.07 623.65,136.84 624.00,141.07 624.35,131.77 624.70,133.86 625.05,139.23 625.40,135.93 625.75,144.61 626.10,135.74 626.45,141.64 626.80,136.29 627.15,135.44 627.50,130.31 627.85,127.70 628.20,130.25 628.55,132.38 628.90,138.41 629.25,136.62 629.60,131.33 629.95,125.70 630.30,131.06 630.65,130.86 631.00,132.99 631.35,130.88 631.70,136.32 632.05,132.47 632.40,125.81 632.75,134.32 633.10,137.95 633.45,133.46 633.80,127.40 634.15,136.56 634.50,139.86 634.85,144.95 635.20,141.66 635.55,134.13 635.90,144.67 636.25,138.74 636.60,134.35 636.95,136.86 637.30,132.62 637.65,124.03 638.00,126.15 638.35,123.27 638.70,121.75 639.05,126.27 639.40,128.07 639.75,118.04 640.10,116.86 640.45,118.15 640.80,123.90 641.15,125.11 641.50,127.71 641.85,131.74 642.20,127.50 642.55,130.32 642.90,127.04 643.25,118.43 643.60,124.16 643.95,114.07 644.30,102.90 644.65,106.62 645.00,107.51 645.35,101.65 645.70,108.14 646.05,104.14 646.40,106.48 646.75,101.59 647.10,114.12 647.45,117.82 647.80,118.11 648.15,114.38 648.50,115.84 648.85,114.26 649.20,110.13 649.55,109.52 649.90,102.56 650.25,107.90 650.60,111.04 650.95,94.14 651.30,93.24 651.65,100.94 652.00,104.73 652.35,94.32 652.70,98.27 653.05,95.64 653.40,89.95 653.75,95.19 654.10,86.49 654.45,80.57 654.80,85.71 655.15,90.21 655.50,79.65 655.85,86.00 656.20,90.10 656.55,88.60 656.90,90.30 657.25,89.61 657.60,89.23 657.95,78.87 658.30,88.70 658.65,87.43 659.00,91.99 659.35,92.68 659.70,91.58 660.05,93.02 660.40,105.29 660.75,103.73 661.10,104.00 661.45,115.35 661.80,122.11 662.15,117.43 662.50,121.65 662.85,117.93 663.20,118.55 663.55,122.95 663.90,133.00 664.25,136.75 664.60,139.38 664.95,134.46 665.30,136.01 665.65,137.97 666.00,148.08 666.35,148.69 666.70,155.42 667.05,146.86 667.40,154.26 667.75,153.87 668.10,152.87 668.45,149.12 668.80,151.43 669.15,146.18 669.50,150.72 669.85,150.34 670.20,148.50 670.55,153.17 670.90,156.46 671.25,157.66 671.60,158.91 671.95,165.10 672.30,163.13 672.65,167.92 673.00,170.02 673.35,173.39 673.70,172.70 674.05,167.35 674.40,172.68 674.75,173.60 675.10,177.31 675.45,162.68 675.80,169.13 676.15,161.08 676.50,169.22 676.85,174.47 677.20,172.67 677.55,168.62 677.90,169.65 678.25,168.65 678.60,167.03 678.95,169.71 679.30,168.48 679.65,165.34 680.00,156.32 680.35,157.87 680.70,160.29 681.05,164.31 681.40,152.06 681.75,153.01 682.10,156.47 682.45,153.38 682.80,148.15 683.15,155.16 683.50,158.92 683.85,153.25 684.20,153.64 684.55,149.60 684.90,143.49 685.25,144.78 685.60,137.60 685.95,132.64 686.30,128.59 686.65,128.42 687.00,126.75 687.35,120.34 687.70,120.81 688.05,119.06 688.40,117.84 688.75,116.71 689.10,118.50 689.45,108.45 689.80,117.37 690.15,106.83 690.50,88.13 690.85,97.01 691.20,98.28 691.55,93.20 691.90,91.29 692.25,92.22 692.60,89.48 692.95,84.59 693.30,80.43 693.65,83.53 694.00,90.34 694.35,90.25 694.70,85.64 695.05,90.61 695.40,90.67 695.75,89.14 696.10,87.28 696.45,92.83 696.80,103.79 697.15,101.94 697.50,96.77 697.85,90.82 698.20,92.13 698.55,84.57 698.90,83.08 699.25,81.50 699.60,88.63 699.95,85.52 700.30,83.98 700.65,87.25 701.00,89.25 701.35,92.08 701.70,87.93 702.05,85.04 702.40,84.57 702.75,82.62 703.10,86.20 703.45,86.49 703.80,89.41 704.15,88.65 704.50,79.66 704.85,81.77 705.20,78.57 705.55,71.52 705.90,72.59 706.25,73.12 706.60,79.69 706.95,85.83 707.30,86.01 707.65,81.72 708.00,88.44 708.35,91.58 708.70,92.06 709.05,91.34 709.40,103.98 709.75,102.68 710.10,105.34 710.45,100.19 710.80,90.30 711.15,97.83 711.50,92.17 711.85,93.82 712.20,97.32 712.55,86.89 712.90,81.95 713.25,78.75 713.60,79.52 713.95,75.39 714.30,77.23 714.65,77.64 715.00,72.96 715.35,76.84 715.70,82.57 716.05,90.94 716.40,100.61 716.75,103.69 717.10,99.72 717.45,93.89 717.80,93.80 718.15,93.40 718.50,90.19 718.85,79.88 719.20,79.34 719.55,85.00 719.90,83.93 720.25,83.47 720.60,85.35 720.95,94.31 721.30,92.78 721.65,101.48 722.00,98.19 722.35,94.09 722.70,103.92 723.05,113.22 723.40,105.75 723.75,102.92 724.10,106.50 724.45,107.86 724.80,114.56 725.15,112.89 725.50,121.83 725.85,119.24 726.20,118.92 726.55,118.43 726.90,117.68 727.25,117.71 727.60,123.58 727.95,119.12 728.30,132.33 728.65,129.61 729.00,132.35 729.35,137.50 729.70,136.66 730.05,141.68 730.40,129.74 730.75,128.65 731.10,126.66 731.45,128.21 731.80,125.68 732.15,120.90 732.50,122.18 732.85,122.17 733.20,114.91 733.55,102.34 733.90,100.39 734.25,106.00 734.60,110.43 734.95,106.65 735.30,109.34 735.65,103.64 736.00,103.31 736.35,106.74 736.70,104.20 737.05,102.53 737.40,101.29 737.75,103.28 738.10,105.20 738.45,100.02 738.80,85.06 739.15,79.42 739.50,79.11 739.85,85.96 740.20,83.08 740.55,88.01 740.90,94.88 741.25,87.07 741.60,99.10 741.95,100.04 742.30,104.19 742.65,108.25 743.00,104.83 743.35,104.86 743.70,105.37 744.05,107.85 744.40,105.56 744.75,114.69 745.10,117.20 745.45,118.12 745.80,120.29 746.15,130.94 746.50,128.96 746.85,141.42 747.20,143.92 747.55,143.65 747.90,155.73 748.25,162.29 748.60,167.66 748.95,170.58 749.30,163.33 749.65,152.87 750.00,154.83 750.35,156.29 750.70,159.35 751.05,158.21 751.40,157.86 751.75,158.02 752.10,155.99 752.45,154.40 752.80,159.02 753.15,164.00 753.50,163.79 753.85,169.68 754.20,171.78 754.55,177.40 754.90,175.60 755.25,179.41 755.60,178.70 755.95,188.00 756.30,185.92 756.65,186.48 757.00,188.44 757.35,183.44 757.70,185.82 758.05,179.26 758.40,178.35 758.75,176.84 759.10,178.48 759.45,189.47 759.80,188.87 760.15,189.06 760.50,187.11 760.85,193.10 761.20,196.13 761.55,192.28 761.90,204.52 762.25,209.84 762.60,219.09 762.95,220.67 763.30,223.47 763.65,223.80 764.00,213.58 764.35,205.04 764.70,200.68 765.05,201.30 765.40,200.88 765.75,196.57 766.10,182.62 766.45,178.11 766.80,174.98 767.15,180.83 767.50,181.39 767.85,178.55 768.20,180.71 768.55,190.96 768.90,186.84 769.25,176.85 769.60,178.76 769.95,179.03 770.30,168.72 770.65,162.01 771.00,163.37 771.35,164.56 771.70,163.34 772.05,178.91 772.40,175.29 772.75,178.65 773.10,174.38 773.45,179.01 773.80,166.19 774.15,166.83 774.50,169.10 774.85,172.20 775.20,172.25 775.55,172.91 775.90,171.26 776.25,180.70 776.60,175.66 776.95,176.83 777.30,173.58 777.65,176.09 778.00,174.76 778.35,168.26 778.70,170.10 779.05,165.87 779.40,171.31 779.75,172.36 780.10,165.12 780.45,164.62 780.80,171.45 781.15,177.74 781.50,174.45 781.85,171.12 782.20,169.97 782.55,175.76 782.90,177.63 783.25,177.10 783.60,172.51 783.95,171.89 784.30,170.56 784.65,165.15 785.00,155.27"/>
<line x1="813" y1="54" x2="839" y2="54" stroke="#2563eb" stroke-width="3"/>
<text x="847" y="58" font-family="Arial" font-size="13" fill="#111827">low volatility</text>
<polyline fill="none" stroke="#dc2626" stroke-width="2" points="85.00,417.06 85.35,417.04 85.70,417.03 86.05,417.01 86.40,416.96 86.75,416.88 87.10,416.73 87.45,416.63 87.80,416.58 88.15,416.56 88.50,416.65 88.85,416.80 89.20,416.92 89.55,417.01 89.90,417.11 90.25,417.02 90.60,416.90 90.95,416.77 91.30,416.78 91.65,416.82 92.00,416.86 92.35,416.75 92.70,416.73 93.05,416.73 93.40,416.84 93.75,416.67 94.10,416.74 94.45,416.83 94.80,416.85 95.15,416.89 95.50,416.87 95.85,416.90 96.20,416.89 96.55,416.85 96.90,416.76 97.25,416.80 97.60,416.66 97.95,416.54 98.30,416.55 98.65,416.66 99.00,416.73 99.35,416.68 99.70,416.44 100.05,416.24 100.40,416.38 100.75,416.66 101.10,417.21 101.45,417.34 101.80,417.51 102.15,417.55 102.50,418.06 102.85,418.09 103.20,417.88 103.55,417.81 103.90,417.64 104.25,417.45 104.60,417.22 104.95,417.11 105.30,417.28 105.65,417.36 106.00,417.46 106.35,417.35 106.70,417.69 107.05,417.81 107.40,417.83 107.75,417.87 108.10,417.78 108.45,417.71 108.80,417.65 109.15,417.67 109.50,417.65 109.85,417.50 110.20,417.52 110.55,417.46 110.90,417.33 111.25,417.29 111.60,417.38 111.95,417.42 112.30,417.48 112.65,417.86 113.00,417.88 113.35,417.63 113.70,417.60 114.05,417.66 114.40,417.47 114.75,417.36 115.10,417.37 115.45,417.44 115.80,417.36 116.15,417.41 116.50,417.49 116.85,417.38 117.20,417.53 117.55,417.52 117.90,417.68 118.25,417.75 118.60,417.71 118.95,417.67 119.30,417.65 119.65,417.64 120.00,417.64 120.35,417.48 120.70,417.60 121.05,417.43 121.40,417.45 121.75,417.63 122.10,417.29 122.45,417.02 122.80,416.77 123.15,416.88 123.50,417.16 123.85,416.77 124.20,416.91 124.55,417.06 124.90,417.04 125.25,416.71 125.60,417.01 125.95,416.78 126.30,416.35 126.65,416.34 127.00,416.49 127.35,416.81 127.70,417.96 128.05,419.38 128.40,419.78 128.75,419.77 129.10,419.21 129.45,418.89 129.80,418.75 130.15,418.90 130.50,419.13 130.85,418.87 131.20,419.10 131.55,419.13 131.90,419.39 132.25,420.00 132.60,419.73 132.95,419.58 133.30,419.38 133.65,418.96 134.00,419.21 134.35,419.33 134.70,419.11 135.05,418.79 135.40,418.75 135.75,418.72 136.10,418.74 136.45,418.50 136.80,418.72 137.15,418.66 137.50,418.63 137.85,418.73 138.20,418.45 138.55,418.47 138.90,417.89 139.25,418.35 139.60,418.63 139.95,418.72 140.30,418.85 140.65,418.70 141.00,418.49 141.35,418.67 141.70,418.04 142.05,417.75 142.40,417.83 142.75,417.11 143.10,417.15 143.45,417.04 143.80,416.60 144.15,416.92 144.50,415.92 144.85,415.77 145.20,415.02 145.55,416.14 145.90,415.81 146.25,415.97 146.60,415.54 146.95,416.05 147.30,416.21 147.65,416.24 148.00,416.36 148.35,416.24 148.70,416.26 149.05,416.26 149.40,417.65 149.75,417.54 150.10,416.58 150.45,416.76 150.80,417.02 151.15,416.62 151.50,416.45 151.85,415.61 152.20,415.36 152.55,415.98 152.90,416.04 153.25,416.77 153.60,416.80 153.95,417.08 154.30,417.05 154.65,416.89 155.00,416.95 155.35,414.90 155.70,416.72 156.05,416.58 156.40,416.31 156.75,416.97 157.10,415.88 157.45,415.78 157.80,416.05 158.15,415.67 158.50,415.07 158.85,414.85 159.20,415.01 159.55,415.59 159.90,416.37 160.25,414.13 160.60,413.28 160.95,414.32 161.30,414.63 161.65,413.85 162.00,413.13 162.35,412.28 162.70,412.61 163.05,412.98 163.40,413.92 163.75,415.54 164.10,416.21 164.45,415.24 164.80,415.20 165.15,416.18 165.50,417.79 165.85,418.59 166.20,418.66 166.55,417.86 166.90,416.08 167.25,416.01 167.60,414.86 167.95,414.39 168.30,416.21 168.65,418.16 169.00,418.99 169.35,419.63 169.70,421.59 170.05,420.45 170.40,419.27 170.75,418.60 171.10,418.98 171.45,419.26 171.80,419.69 172.15,419.87 172.50,420.00 172.85,420.30 173.20,420.54 173.55,420.62 173.90,420.34 174.25,420.63 174.60,420.78 174.95,421.61 175.30,421.02 175.65,420.90 176.00,421.52 176.35,421.57 176.70,421.38 177.05,421.92 177.40,422.06 177.75,421.77 178.10,421.74 178.45,421.14 178.80,420.83 179.15,420.70 179.50,420.62 179.85,420.44 180.20,420.34 180.55,420.62 180.90,420.57 181.25,420.50 181.60,420.39 181.95,420.30 182.30,420.26 182.65,420.17 183.00,420.09 183.35,419.92 183.70,419.80 184.05,419.93 184.40,419.98 184.75,419.77 185.10,419.87 185.45,419.17 185.80,418.88 186.15,419.48 186.50,419.54 186.85,419.44 187.20,419.20 187.55,418.75 187.90,418.90 188.25,418.95 188.60,419.34 188.95,418.85 189.30,419.28 189.65,418.91 190.00,418.16 190.35,418.16 190.70,418.29 191.05,418.57 191.40,418.23 191.75,417.08 192.10,416.50 192.45,417.33 192.80,416.69 193.15,416.25 193.50,415.07 193.85,415.51 194.20,416.26 194.55,415.89 194.90,415.61 195.25,415.40 195.60,414.95 195.95,415.01 196.30,415.21 196.65,415.16 197.00,415.45 197.35,414.74 197.70,415.16 198.05,415.62 198.40,413.25 198.75,414.79 199.10,414.30 199.45,415.83 199.80,414.27 200.15,413.25 200.50,413.65 200.85,414.41 201.20,413.33 201.55,415.38 201.90,415.41 202.25,416.04 202.60,417.95 202.95,415.61 203.30,414.17 203.65,412.59 204.00,411.35 204.35,413.72 204.70,412.88 205.05,411.28 205.40,412.70 205.75,412.83 206.10,413.86 206.45,414.31 206.80,414.13 207.15,411.62 207.50,409.49 207.85,408.39 208.20,407.09 208.55,403.85 208.90,403.23 209.25,403.58 209.60,401.57 209.95,405.04 210.30,406.19 210.65,406.85 211.00,405.17 211.35,401.62 211.70,401.76 212.05,400.06 212.40,401.45 212.75,403.65 213.10,403.94 213.45,403.78 213.80,403.93 214.15,406.79 214.50,407.01 214.85,407.07 215.20,408.05 215.55,405.46 215.90,405.55 216.25,405.23 216.60,404.77 216.95,404.76 217.30,405.80 217.65,406.43 218.00,403.48 218.35,405.60 218.70,406.41 219.05,407.98 219.40,406.99 219.75,403.53 220.10,407.37 220.45,403.27 220.80,403.49 221.15,401.81 221.50,401.35 221.85,399.85 222.20,402.50 222.55,404.33 222.90,402.71 223.25,400.90 223.60,401.94 223.95,398.59 224.30,400.33 224.65,402.94 225.00,401.90 225.35,403.56 225.70,402.43 226.05,401.64 226.40,398.83 226.75,398.84 227.10,398.95 227.45,400.64 227.80,400.77 228.15,404.54 228.50,402.39 228.85,403.75 229.20,404.50 229.55,405.95 229.90,407.64 230.25,409.86 230.60,410.81 230.95,407.51 231.30,409.60 231.65,410.57 232.00,410.91 232.35,414.41 232.70,415.72 233.05,414.80 233.40,414.68 233.75,418.04 234.10,417.86 234.45,422.11 234.80,420.21 235.15,419.51 235.50,422.84 235.85,422.52 236.20,423.18 236.55,422.08 236.90,421.86 237.25,419.05 237.60,417.95 237.95,417.17 238.30,417.97 238.65,418.68 239.00,419.12 239.35,417.45 239.70,417.31 240.05,417.97 240.40,418.34 240.75,417.66 241.10,419.78 241.45,420.27 241.80,420.90 242.15,421.86 242.50,419.30 242.85,418.11 243.20,416.95 243.55,414.80 243.90,413.86 244.25,411.47 244.60,411.60 244.95,409.09 245.30,408.30 245.65,409.68 246.00,410.32 246.35,411.55 246.70,411.97 247.05,413.67 247.40,413.39 247.75,413.08 248.10,411.70 248.45,411.87 248.80,410.47 249.15,408.92 249.50,406.69 249.85,406.77 250.20,404.70 250.55,405.56 250.90,405.33 251.25,405.20 251.60,402.40 251.95,401.68 252.30,399.42 252.65,398.50 253.00,398.60 253.35,396.80 253.70,395.70 254.05,395.20 254.40,393.87 254.75,394.88 255.10,392.55 255.45,391.33 255.80,390.10 256.15,388.78 256.50,389.99 256.85,387.83 257.20,388.83 257.55,389.64 257.90,386.73 258.25,383.52 258.60,384.18 258.95,383.57 259.30,381.35 259.65,382.79 260.00,381.43 260.35,377.99 260.70,377.39 261.05,378.95 261.40,375.44 261.75,377.39 262.10,371.82 262.45,375.21 262.80,371.49 263.15,368.38 263.50,368.28 263.85,370.99 264.20,373.61 264.55,374.59 264.90,376.11 265.25,381.38 265.60,381.42 265.95,381.42 266.30,383.67 266.65,384.47 267.00,383.75 267.35,388.34 267.70,386.58 268.05,384.99 268.40,388.89 268.75,385.33 269.10,386.09 269.45,386.81 269.80,388.72 270.15,389.82 270.50,389.00 270.85,389.52 271.20,388.81 271.55,391.96 271.90,392.04 272.25,390.51 272.60,388.16 272.95,385.29 273.30,385.67 273.65,385.43 274.00,383.10 274.35,385.21 274.70,385.45 275.05,383.97 275.40,379.54 275.75,382.96 276.10,384.16 276.45,387.90 276.80,388.62 277.15,390.44 277.50,392.47 277.85,391.93 278.20,389.75 278.55,389.75 278.90,389.26 279.25,388.27 279.60,388.93 279.95,391.07 280.30,388.35 280.65,388.59 281.00,389.47 281.35,389.42 281.70,387.22 282.05,388.04 282.40,388.43 282.75,387.88 283.10,385.77 283.45,385.33 283.80,386.12 284.15,385.74 284.50,384.69 284.85,382.62 285.20,381.90 285.55,381.44 285.90,381.57 286.25,383.17 286.60,383.65 286.95,385.64 287.30,383.45 287.65,382.39 288.00,381.66 288.35,383.69 288.70,385.42 289.05,382.99 289.40,382.20 289.75,380.89 290.10,379.55 290.45,380.84 290.80,382.20 291.15,377.70 291.50,373.94 291.85,374.86 292.20,374.91 292.55,372.83 292.90,372.89 293.25,372.66 293.60,374.78 293.95,374.56 294.30,375.79 294.65,377.99 295.00,378.38 295.35,374.53 295.70,376.43 296.05,378.67 296.40,375.56 296.75,380.44 297.10,380.60 297.45,379.33 297.80,380.86 298.15,382.62 298.50,382.96 298.85,383.54 299.20,382.28 299.55,376.63 299.90,378.53 300.25,377.61 300.60,379.39 300.95,377.15 301.30,377.35 301.65,376.38 302.00,373.55 302.35,374.88 302.70,374.92 303.05,374.21 303.40,371.76 303.75,369.62 304.10,369.95 304.45,373.06 304.80,374.42 305.15,374.14 305.50,375.15 305.85,375.31 306.20,376.88 306.55,373.09 306.90,373.73 307.25,377.37 307.60,376.28 307.95,379.10 308.30,379.35 308.65,381.38 309.00,381.98 309.35,381.63 309.70,383.28 310.05,383.81 310.40,386.76 310.75,385.71 311.10,386.12 311.45,389.39 311.80,387.44 312.15,387.34 312.50,388.37 312.85,388.43 313.20,390.21 313.55,387.97 313.90,385.72 314.25,387.22 314.60,383.39 314.95,384.40 315.30,385.71 315.65,386.44 316.00,383.38 316.35,382.35 316.70,381.42 317.05,378.96 317.40,378.88 317.75,382.52 318.10,379.17 318.45,376.48 318.80,374.83 319.15,374.24 319.50,372.62 319.85,369.97 320.20,371.08 320.55,369.47 320.90,368.35 321.25,368.04 321.60,369.86 321.95,371.28 322.30,372.39 322.65,367.57 323.00,369.20 323.35,368.67 323.70,371.10 324.05,370.19 324.40,370.02 324.75,370.82 325.10,370.37 325.45,371.27 325.80,370.82 326.15,367.93 326.50,367.21 326.85,364.88 327.20,365.00 327.55,363.72 327.90,366.74 328.25,366.77 328.60,368.05 328.95,367.67 329.30,368.41 329.65,369.37 330.00,368.68 330.35,370.25 330.70,372.72 331.05,373.18 331.40,369.01 331.75,369.86 332.10,370.40 332.45,366.39 332.80,366.54 333.15,364.98 333.50,358.21 333.85,356.11 334.20,354.18 334.55,356.67 334.90,354.01 335.25,356.43 335.60,352.62 335.95,352.88 336.30,355.54 336.65,355.89 337.00,355.65 337.35,355.11 337.70,355.37 338.05,354.29 338.40,353.19 338.75,358.54 339.10,354.79 339.45,352.38 339.80,350.29 340.15,349.29 340.50,349.39 340.85,350.76 341.20,350.22 341.55,346.51 341.90,349.32 342.25,354.97 342.60,348.62 342.95,343.00 343.30,341.35 343.65,345.29 344.00,344.85 344.35,344.58 344.70,345.11 345.05,346.23 345.40,346.68 345.75,342.03 346.10,342.95 346.45,343.19 346.80,340.17 347.15,334.31 347.50,335.01 347.85,336.28 348.20,331.20 348.55,335.29 348.90,330.05 349.25,325.94 349.60,322.79 349.95,320.19 350.30,315.82 350.65,313.34 351.00,313.55 351.35,312.83 351.70,310.16 352.05,303.40 352.40,301.64 352.75,301.51 353.10,298.14 353.45,298.73 353.80,294.99 354.15,299.86 354.50,293.80 354.85,288.28 355.20,288.68 355.55,291.30 355.90,293.17 356.25,306.66 356.60,310.25 356.95,307.67 357.30,302.36 357.65,307.69 358.00,307.06 358.35,309.43 358.70,309.11 359.05,303.52 359.40,302.45 359.75,299.80 360.10,304.78 360.45,303.42 360.80,303.74 361.15,303.80 361.50,306.21 361.85,304.39 362.20,307.69 362.55,302.36 362.90,303.60 363.25,309.24 363.60,308.37 363.95,305.47 364.30,302.84 364.65,307.64 365.00,311.70 365.35,313.15 365.70,314.12 366.05,320.68 366.40,324.86 366.75,322.36 367.10,327.21 367.45,328.41 367.80,329.74 368.15,335.07 368.50,333.48 368.85,330.99 369.20,323.15 369.55,317.56 369.90,315.31 370.25,315.38 370.60,313.69 370.95,316.42 371.30,307.76 371.65,301.85 372.00,301.71 372.35,299.44 372.70,299.09 373.05,302.52 373.40,305.28 373.75,306.55 374.10,304.07 374.45,306.72 374.80,308.04 375.15,306.86 375.50,303.68 375.85,301.88 376.20,297.61 376.55,296.38 376.90,295.09 377.25,296.42 377.60,293.95 377.95,294.29 378.30,293.97 378.65,295.72 379.00,298.15 379.35,294.68 379.70,300.72 380.05,299.17 380.40,294.88 380.75,293.57 381.10,294.54 381.45,293.63 381.80,293.36 382.15,295.89 382.50,295.84 382.85,295.66 383.20,292.94 383.55,296.19 383.90,294.89 384.25,297.47 384.60,298.88 384.95,302.08 385.30,301.00 385.65,301.38 386.00,301.46 386.35,301.07 386.70,303.25 387.05,300.20 387.40,299.41 387.75,299.37 388.10,299.24 388.45,304.25 388.80,305.66 389.15,304.63 389.50,305.49 389.85,302.20 390.20,301.69 390.55,304.66 390.90,305.91 391.25,304.32 391.60,307.62 391.95,309.78 392.30,307.36 392.65,305.40 393.00,303.83 393.35,303.56 393.70,306.64 394.05,311.87 394.40,306.39 394.75,307.38 395.10,304.39 395.45,307.15 395.80,306.11 396.15,302.78 396.50,304.53 396.85,306.13 397.20,307.93 397.55,306.80 397.90,311.16 398.25,312.20 398.60,312.19 398.95,311.01 399.30,311.00 399.65,309.27 400.00,308.19 400.35,306.68 400.70,305.74 401.05,307.54 401.40,305.82 401.75,305.20 402.10,304.19 402.45,303.15 402.80,301.87 403.15,301.55 403.50,300.95 403.85,303.46 404.20,305.33 404.55,305.19 404.90,302.61 405.25,301.60 405.60,305.17 405.95,301.80 406.30,300.64 406.65,302.02 407.00,299.73 407.35,299.32 407.70,300.13 408.05,304.41 408.40,305.42 408.75,305.26 409.10,309.59 409.45,309.97 409.80,311.24 410.15,312.24 410.50,312.42 410.85,311.88 411.20,312.16 411.55,311.09 411.90,312.00 412.25,310.73 412.60,309.41 412.95,308.72 413.30,309.13 413.65,310.56 414.00,310.07 414.35,309.25 414.70,310.42 415.05,309.80 415.40,311.34 415.75,310.10 416.10,309.29 416.45,307.70 416.80,307.33 417.15,305.88 417.50,307.01 417.85,308.49 418.20,310.09 418.55,309.64 418.90,310.32 419.25,311.02 419.60,312.34 419.95,313.68 420.30,314.03 420.65,314.21 421.00,314.69 421.35,315.16 421.70,314.61 422.05,315.60 422.40,317.15 422.75,317.09 423.10,317.42 423.45,317.27 423.80,317.27 424.15,316.98 424.50,317.73 424.85,317.19 425.20,317.67 425.55,317.71 425.90,316.51 426.25,316.66 426.60,315.94 426.95,315.59 427.30,315.05 427.65,315.27 428.00,315.46 428.35,315.59 428.70,315.83 429.05,316.20 429.40,315.10 429.75,314.73 430.10,314.27 430.45,314.10 430.80,313.81 431.15,313.75 431.50,313.72 431.85,313.60 432.20,313.46 432.55,313.23 432.90,313.13 433.25,313.08 433.60,313.08 433.95,312.98 434.30,312.99 434.65,312.92 435.00,312.86 435.35,312.95 435.70,312.94 436.05,312.81 436.40,312.79 436.75,312.95 437.10,312.96 437.45,312.82 437.80,312.93 438.15,312.85 438.50,312.83 438.85,312.88 439.20,312.91 439.55,312.85 439.90,312.85 440.25,312.76 440.60,312.77 440.95,312.70 441.30,312.65 441.65,312.63 442.00,312.69 442.35,312.48 442.70,312.16 443.05,311.83 443.40,311.49 443.75,311.03 444.10,311.22 444.45,311.48 444.80,310.81 445.15,311.28 445.50,311.03 445.85,310.81 446.20,310.62 446.55,310.51 446.90,311.30 447.25,310.85 447.60,311.25 447.95,310.46 448.30,310.30 448.65,311.61 449.00,311.58 449.35,311.17 449.70,309.52 450.05,308.52 450.40,307.81 450.75,308.61 451.10,309.27 451.45,307.26 451.80,307.41 452.15,307.27 452.50,308.41 452.85,307.81 453.20,306.18 453.55,305.49 453.90,305.10 454.25,304.49 454.60,303.12 454.95,301.63 455.30,301.67 455.65,301.32 456.00,301.76 456.35,301.33 456.70,299.64 457.05,298.64 457.40,298.61 457.75,298.84 458.10,296.93 458.45,296.71 458.80,298.78 459.15,297.75 459.50,298.40 459.85,295.94 460.20,294.20 460.55,294.14 460.90,295.55 461.25,296.75 461.60,296.98 461.95,297.48 462.30,294.99 462.65,296.96 463.00,299.44 463.35,299.18 463.70,298.85 464.05,301.63 464.40,300.65 464.75,300.81 465.10,300.29 465.45,301.21 465.80,300.96 466.15,303.10 466.50,301.14 466.85,300.07 467.20,300.87 467.55,299.29 467.90,297.31 468.25,296.89 468.60,299.42 468.95,297.24 469.30,295.39 469.65,292.75 470.00,292.76 470.35,293.01 470.70,290.79 471.05,289.02 471.40,288.54 471.75,291.26 472.10,292.19 472.45,294.49 472.80,294.04 473.15,292.57 473.50,292.01 473.85,293.20 474.20,292.72 474.55,293.39 474.90,288.93 475.25,288.80 475.60,286.66 475.95,290.11 476.30,289.88 476.65,290.03 477.00,289.21 477.35,287.67 477.70,288.64 478.05,289.22 478.40,287.93 478.75,292.54 479.10,293.13 479.45,293.35 479.80,292.09 480.15,294.75 480.50,297.76 480.85,295.19 481.20,296.55 481.55,297.34 481.90,297.74 482.25,298.40 482.60,297.09 482.95,293.24 483.30,290.96 483.65,287.97 484.00,287.62 484.35,286.95 484.70,285.95 485.05,287.24 485.40,289.38 485.75,289.23 486.10,287.22 486.45,285.46 486.80,288.51 487.15,287.60 487.50,289.88 487.85,286.15 488.20,286.66 488.55,286.29 488.90,285.55 489.25,283.14 489.60,283.24 489.95,282.28 490.30,281.63 490.65,278.39 491.00,278.91 491.35,282.39 491.70,285.84 492.05,287.03 492.40,288.92 492.75,288.22 493.10,290.34 493.45,288.45 493.80,290.98 494.15,289.14 494.50,288.86 494.85,283.68 495.20,280.96 495.55,279.32 495.90,280.38 496.25,281.80 496.60,282.14 496.95,286.53 497.30,287.32 497.65,286.70 498.00,286.57 498.35,283.89 498.70,287.76 499.05,285.81 499.40,282.38 499.75,283.98 500.10,285.83 500.45,289.53 500.80,292.31 501.15,291.37 501.50,293.94 501.85,297.56 502.20,299.05 502.55,296.56 502.90,297.43 503.25,297.15 503.60,296.31 503.95,297.20 504.30,300.78 504.65,299.78 505.00,296.15 505.35,294.10 505.70,294.49 506.05,294.83 506.40,291.43 506.75,291.59 507.10,290.73 507.45,290.49 507.80,289.26 508.15,290.94 508.50,294.76 508.85,291.74 509.20,288.98 509.55,289.05 509.90,291.02 510.25,293.53 510.60,291.76 510.95,288.71 511.30,287.69 511.65,283.69 512.00,285.47 512.35,284.86 512.70,283.32 513.05,280.70 513.40,280.72 513.75,278.78 514.10,282.02 514.45,285.22 514.80,283.13 515.15,282.34 515.50,284.89 515.85,284.14 516.20,287.02 516.55,287.26 516.90,284.91 517.25,284.46 517.60,281.26 517.95,283.17 518.30,284.37 518.65,284.20 519.00,286.99 519.35,280.76 519.70,280.71 520.05,285.62 520.40,288.92 520.75,290.39 521.10,287.91 521.45,289.08 521.80,288.81 522.15,289.82 522.50,287.68 522.85,286.81 523.20,286.36 523.55,285.62 523.90,286.76 524.25,288.53 524.60,291.48 524.95,289.99 525.30,288.68 525.65,287.70 526.00,287.55 526.35,288.89 526.70,287.75 527.05,285.91 527.40,284.69 527.75,284.57 528.10,284.15 528.45,284.65 528.80,288.86 529.15,290.50 529.50,293.50 529.85,293.62 530.20,294.45 530.55,296.29 530.90,294.56 531.25,290.87 531.60,290.41 531.95,289.71 532.30,288.29 532.65,290.40 533.00,292.21 533.35,292.79 533.70,296.43 534.05,296.47 534.40,296.80 534.75,297.16 535.10,299.48 535.45,296.80 535.80,296.29 536.15,298.84 536.50,298.65 536.85,298.34 537.20,297.68 537.55,298.43 537.90,299.22 538.25,298.33 538.60,297.40 538.95,297.17 539.30,296.16 539.65,297.12 540.00,297.25 540.35,297.15 540.70,295.80 541.05,296.20 541.40,298.21 541.75,297.43 542.10,298.20 542.45,298.76 542.80,299.74 543.15,299.50 543.50,300.24 543.85,299.85 544.20,298.55 544.55,297.40 544.90,296.13 545.25,296.18 545.60,297.18 545.95,296.10 546.30,295.99 546.65,296.61 547.00,295.94 547.35,295.67 547.70,295.44 548.05,293.79 548.40,294.10 548.75,293.05 549.10,292.72 549.45,293.07 549.80,291.92 550.15,290.78 550.50,290.32 550.85,289.49 551.20,290.47 551.55,290.89 551.90,290.71 552.25,289.45 552.60,290.13 552.95,290.53 553.30,290.13 553.65,288.47 554.00,287.11 554.35,287.38 554.70,287.19 555.05,286.51 555.40,287.98 555.75,286.32 556.10,288.33 556.45,284.81 556.80,284.11 557.15,284.75 557.50,286.58 557.85,289.38 558.20,288.43 558.55,287.96 558.90,286.57 559.25,288.78 559.60,289.23 559.95,290.84 560.30,289.52 560.65,289.08 561.00,289.52 561.35,289.17 561.70,291.16 562.05,289.91 562.40,293.62 562.75,293.51 563.10,294.76 563.45,295.80 563.80,294.64 564.15,296.83 564.50,295.28 564.85,294.87 565.20,296.32 565.55,297.68 565.90,296.43 566.25,295.88 566.60,298.40 566.95,299.50 567.30,298.41 567.65,297.18 568.00,297.94 568.35,298.06 568.70,300.15 569.05,300.29 569.40,300.65 569.75,300.59 570.10,299.45 570.45,298.84 570.80,297.78 571.15,296.65 571.50,297.32 571.85,298.57 572.20,297.54 572.55,298.95 572.90,299.52 573.25,299.83 573.60,299.85 573.95,299.28 574.30,297.75 574.65,298.25 575.00,297.18 575.35,297.25 575.70,297.54 576.05,296.99 576.40,297.09 576.75,296.37 577.10,297.07 577.45,297.61 577.80,297.31 578.15,297.15 578.50,296.44 578.85,296.06 579.20,296.17 579.55,295.47 579.90,294.66 580.25,295.02 580.60,295.01 580.95,295.42 581.30,295.79 581.65,295.12 582.00,295.36 582.35,295.49 582.70,294.86 583.05,295.51 583.40,295.14 583.75,294.55 584.10,293.61 584.45,292.07 584.80,291.66 585.15,290.82 585.50,290.84 585.85,288.63 586.20,288.15 586.55,286.91 586.90,285.01 587.25,282.54 587.60,281.57 587.95,282.61 588.30,283.07 588.65,282.21 589.00,283.24 589.35,283.13 589.70,281.06 590.05,283.14 590.40,282.50 590.75,283.77 591.10,284.08 591.45,280.00 591.80,280.63 592.15,282.69 592.50,279.98 592.85,277.59 593.20,276.89 593.55,277.69 593.90,278.88 594.25,278.93 594.60,279.70 594.95,280.61 595.30,281.60 595.65,279.23 596.00,278.94 596.35,277.62 596.70,279.02 597.05,281.74 597.40,284.96 597.75,287.07 598.10,285.73 598.45,281.61 598.80,283.72 599.15,284.06 599.50,282.09 599.85,279.22 600.20,282.42 600.55,281.80 600.90,279.25 601.25,277.02 601.60,275.31 601.95,276.77 602.30,275.81 602.65,272.66 603.00,273.04 603.35,273.95 603.70,277.23 604.05,281.85 604.40,281.79 604.75,280.30 605.10,282.82 605.45,283.09 605.80,281.35 606.15,279.01 606.50,281.06 606.85,280.83 607.20,284.59 607.55,287.11 607.90,288.86 608.25,289.37 608.60,292.11 608.95,290.70 609.30,286.79 609.65,289.36 610.00,292.89 610.35,293.00 610.70,291.98 611.05,293.31 611.40,295.44 611.75,296.01 612.10,293.92 612.45,290.01 612.80,287.52 613.15,286.81 613.50,286.28 613.85,286.86 614.20,289.52 614.55,291.43 614.90,292.00 615.25,291.41 615.60,288.23 615.95,288.01 616.30,289.40 616.65,287.64 617.00,289.18 617.35,289.07 617.70,291.29 618.05,295.74 618.40,298.09 618.75,299.72 619.10,299.52 619.45,299.92 619.80,301.97 620.15,304.35 620.50,304.08 620.85,303.77 621.20,302.88 621.55,303.39 621.90,304.25 622.25,306.08 622.60,306.47 622.95,302.61 623.30,300.59 623.65,300.72 624.00,300.86 624.35,301.06 624.70,302.43 625.05,302.69 625.40,301.96 625.75,302.61 626.10,304.36 626.45,301.79 626.80,301.92 627.15,300.50 627.50,298.81 627.85,298.43 628.20,297.68 628.55,296.48 628.90,297.59 629.25,296.14 629.60,297.11 629.95,296.61 630.30,296.14 630.65,295.99 631.00,295.43 631.35,298.53 631.70,297.28 632.05,299.60 632.40,300.38 632.75,299.74 633.10,299.78 633.45,298.30 633.80,296.94 634.15,299.74 634.50,298.96 634.85,297.70 635.20,300.89 635.55,303.47 635.90,302.13 636.25,302.82 636.60,302.46 636.95,301.52 637.30,300.01 637.65,300.75 638.00,302.38 638.35,302.99 638.70,303.56 639.05,304.16 639.40,305.08 639.75,305.30 640.10,303.61 640.45,303.33 640.80,302.65 641.15,303.33 641.50,301.40 641.85,301.44 642.20,303.05 642.55,302.87 642.90,303.19 643.25,304.93 643.60,305.47 643.95,304.68 644.30,305.08 644.65,305.08 645.00,305.18 645.35,304.52 645.70,304.83 646.05,305.10 646.40,304.85 646.75,305.57 647.10,305.13 647.45,305.12 647.80,305.55 648.15,304.89 648.50,304.96 648.85,305.21 649.20,304.97 649.55,304.96 649.90,304.99 650.25,304.87 650.60,304.57 650.95,304.19 651.30,303.95 651.65,304.13 652.00,304.08 652.35,304.13 652.70,304.04 653.05,303.95 653.40,303.85 653.75,303.81 654.10,303.80 654.45,303.80 654.80,303.80 655.15,303.78 655.50,303.77 655.85,303.80 656.20,303.68 656.55,303.73 656.90,303.78 657.25,303.62 657.60,303.40 657.95,302.94 658.30,302.82 658.65,302.97 659.00,303.07 659.35,302.83 659.70,302.28 660.05,302.70 660.40,302.70 660.75,303.00 661.10,302.87 661.45,302.97 661.80,303.00 662.15,302.28 662.50,301.40 662.85,301.84 663.20,301.25 663.55,301.04 663.90,300.86 664.25,301.14 664.60,300.47 664.95,300.68 665.30,299.71 665.65,298.54 666.00,298.08 666.35,297.77 666.70,297.64 667.05,297.98 667.40,297.79 667.75,297.54 668.10,298.21 668.45,296.55 668.80,295.50 669.15,294.49 669.50,294.32 669.85,294.44 670.20,294.95 670.55,295.34 670.90,294.91 671.25,293.17 671.60,293.26 671.95,293.91 672.30,293.01 672.65,293.91 673.00,292.91 673.35,290.65 673.70,289.03 674.05,289.30 674.40,288.26 674.75,288.15 675.10,287.08 675.45,286.62 675.80,287.77 676.15,289.13 676.50,288.56 676.85,291.03 677.20,290.55 677.55,292.02 677.90,292.11 678.25,294.73 678.60,295.90 678.95,293.72 679.30,293.94 679.65,294.38 680.00,294.42 680.35,292.99 680.70,292.25 681.05,293.20 681.40,293.80 681.75,295.48 682.10,294.38 682.45,294.20 682.80,297.62 683.15,299.34 683.50,297.81 683.85,294.72 684.20,294.51 684.55,292.94 684.90,291.40 685.25,290.18 685.60,291.99 685.95,291.78 686.30,292.69 686.65,291.78 687.00,292.22 687.35,291.23 687.70,290.22 688.05,293.52 688.40,296.05 688.75,293.85 689.10,296.77 689.45,299.21 689.80,298.31 690.15,296.20 690.50,298.40 690.85,297.36 691.20,294.51 691.55,294.68 691.90,294.14 692.25,295.04 692.60,294.09 692.95,293.21 693.30,295.75 693.65,298.30 694.00,295.07 694.35,295.82 694.70,294.40 695.05,296.19 695.40,294.65 695.75,293.26 696.10,295.09 696.45,298.26 696.80,299.30 697.15,300.62 697.50,299.76 697.85,299.07 698.20,300.47 698.55,299.30 698.90,301.25 699.25,298.38 699.60,298.45 699.95,298.62 700.30,300.58 700.65,300.99 701.00,300.17 701.35,298.23 701.70,297.32 702.05,295.76 702.40,296.89 702.75,297.30 703.10,299.19 703.45,299.59 703.80,296.42 704.15,293.63 704.50,295.81 704.85,294.77 705.20,297.93 705.55,297.41 705.90,299.36 706.25,300.87 706.60,301.35 706.95,300.66 707.30,302.22 707.65,302.89 708.00,303.14 708.35,301.84 708.70,303.17 709.05,304.90 709.40,303.76 709.75,303.08 710.10,304.05 710.45,303.44 710.80,304.28 711.15,305.26 711.50,305.89 711.85,306.25 712.20,306.17 712.55,307.01 712.90,307.27 713.25,306.64 713.60,306.20 713.95,306.29 714.30,305.84 714.65,306.22 715.00,305.73 715.35,306.08 715.70,304.75 716.05,305.51 716.40,305.32 716.75,304.34 717.10,304.06 717.45,303.77 717.80,304.26 718.15,304.28 718.50,304.26 718.85,303.69 719.20,303.40 719.55,303.14 719.90,302.83 720.25,303.04 720.60,302.84 720.95,303.21 721.30,303.06 721.65,303.03 722.00,302.56 722.35,302.55 722.70,302.46 723.05,301.98 723.40,301.43 723.75,301.65 724.10,302.42 724.45,302.12 724.80,301.07 725.15,301.53 725.50,301.46 725.85,301.59 726.20,300.97 726.55,300.56 726.90,300.43 727.25,301.04 727.60,300.61 727.95,299.56 728.30,298.95 728.65,298.18 729.00,299.31 729.35,300.23 729.70,300.64 730.05,300.69 730.40,300.26 730.75,299.26 731.10,299.15 731.45,300.17 731.80,300.34 732.15,302.29 732.50,301.16 732.85,302.09 733.20,301.98 733.55,302.40 733.90,301.14 734.25,300.27 734.60,299.59 734.95,298.95 735.30,297.33 735.65,298.50 736.00,299.49 736.35,298.81 736.70,298.93 737.05,299.33 737.40,299.96 737.75,299.94 738.10,299.77 738.45,300.08 738.80,300.85 739.15,302.62 739.50,303.15 739.85,302.89 740.20,303.25 740.55,303.08 740.90,303.13 741.25,303.67 741.60,303.41 741.95,302.83 742.30,303.11 742.65,303.48 743.00,303.00 743.35,303.02 743.70,303.13 744.05,303.00 744.40,303.41 744.75,302.66 745.10,302.20 745.45,302.56 745.80,302.71 746.15,302.11 746.50,302.53 746.85,303.01 747.20,303.01 747.55,303.12 747.90,302.74 748.25,303.14 748.60,302.56 748.95,302.46 749.30,302.30 749.65,302.50 750.00,302.73 750.35,302.60 750.70,302.50 751.05,302.65 751.40,303.31 751.75,302.37 752.10,302.26 752.45,301.94 752.80,301.81 753.15,301.79 753.50,302.00 753.85,302.69 754.20,302.63 754.55,302.64 754.90,302.18 755.25,302.06 755.60,303.04 755.95,302.18 756.30,301.20 756.65,300.70 757.00,301.97 757.35,303.05 757.70,303.28 758.05,303.34 758.40,303.74 758.75,303.58 759.10,303.05 759.45,304.11 759.80,303.34 760.15,303.22 760.50,302.31 760.85,302.59 761.20,302.25 761.55,303.07 761.90,302.50 762.25,302.82 762.60,302.40 762.95,301.57 763.30,300.98 763.65,301.18 764.00,301.72 764.35,301.51 764.70,301.49 765.05,301.43 765.40,301.41 765.75,301.91 766.10,302.95 766.45,303.27 766.80,303.51 767.15,304.26 767.50,303.76 767.85,304.11 768.20,303.59 768.55,303.12 768.90,303.55 769.25,304.25 769.60,304.05 769.95,303.51 770.30,303.89 770.65,304.39 771.00,304.13 771.35,304.42 771.70,304.20 772.05,304.07 772.40,304.03 772.75,304.12 773.10,304.10 773.45,304.19 773.80,304.06 774.15,303.99 774.50,303.88 774.85,303.82 775.20,303.82 775.55,303.79 775.90,303.80 776.25,303.76 776.60,303.73 776.95,303.69 777.30,303.52 777.65,303.63 778.00,303.61 778.35,303.56 778.70,303.21 779.05,302.73 779.40,302.95 779.75,302.92 780.10,303.29 780.45,303.20 780.80,303.55 781.15,303.63 781.50,302.72 781.85,302.71 782.20,302.99 782.55,302.73 782.90,302.89 783.25,303.97 783.60,304.03 783.95,303.78 784.30,304.19 784.65,304.30 785.00,304.66"/>
<line x1="813" y1="78" x2="839" y2="78" stroke="#dc2626" stroke-width="3"/>
<text x="847" y="82" font-family="Arial" font-size="13" fill="#111827">high volatility</text>
<polyline fill="none" stroke="#059669" stroke-width="2" points="85.00,417.06 85.35,417.04 85.70,417.02 86.05,417.00 86.40,416.99 86.75,416.98 87.10,416.97 87.45,416.96 87.80,416.95 88.15,416.94 88.50,416.93 88.85,416.90 89.20,416.90 89.55,416.88 89.90,416.87 90.25,416.86 90.60,416.85 90.95,416.83 91.30,416.82 91.65,416.80 92.00,416.79 92.35,416.77 92.70,416.76 93.05,416.75 93.40,416.73 93.75,416.71 94.10,416.68 94.45,416.68 94.80,416.68 95.15,416.61 95.50,416.58 95.85,416.57 96.20,416.45 96.55,416.31 96.90,416.16 97.25,416.09 97.60,416.10 97.95,416.11 98.30,415.71 98.65,415.86 99.00,415.93 99.35,415.80 99.70,415.32 100.05,415.36 100.40,415.14 100.75,415.01 101.10,415.07 101.45,414.68 101.80,414.47 102.15,414.54 102.50,414.63 102.85,414.56 103.20,414.40 103.55,414.36 103.90,414.13 104.25,414.36 104.60,414.03 104.95,413.49 105.30,413.61 105.65,413.87 106.00,414.32 106.35,414.35 106.70,414.24 107.05,413.80 107.40,414.02 107.75,413.71 108.10,413.39 108.45,413.79 108.80,413.27 109.15,413.08 109.50,412.69 109.85,412.99 110.20,412.71 110.55,413.54 110.90,413.71 111.25,413.83 111.60,413.27 111.95,414.08 112.30,413.30 112.65,413.85 113.00,413.91 113.35,414.24 113.70,413.78 114.05,414.89 114.40,415.08 114.75,415.09 115.10,414.61 115.45,414.55 115.80,414.92 116.15,414.93 116.50,415.62 116.85,415.04 117.20,415.21 117.55,413.65 117.90,414.79 118.25,414.60 118.60,415.27 118.95,414.61 119.30,414.41 119.65,414.54 120.00,413.73 120.35,413.27 120.70,414.13 121.05,413.91 121.40,414.14 121.75,414.36 122.10,414.57 122.45,414.90 122.80,415.02 123.15,414.83 123.50,414.93 123.85,415.47 124.20,416.01 124.55,417.02 124.90,417.10 125.25,416.91 125.60,416.41 125.95,415.94 126.30,416.23 126.65,416.41 127.00,416.33 127.35,416.42 127.70,416.49 128.05,416.17 128.40,416.16 128.75,416.27 129.10,416.29 129.45,416.53 129.80,416.58 130.15,416.54 130.50,416.32 130.85,416.03 131.20,416.07 131.55,416.04 131.90,415.64 132.25,415.86 132.60,415.76 132.95,415.64 133.30,415.77 133.65,415.73 134.00,415.80 134.35,415.73 134.70,415.91 135.05,415.85 135.40,415.90 135.75,415.90 136.10,415.98 136.45,415.90 136.80,415.78 137.15,415.72 137.50,415.76 137.85,415.91 138.20,415.95 138.55,415.94 138.90,416.05 139.25,416.16 139.60,416.07 139.95,416.25 140.30,416.14 140.65,416.08 141.00,416.04 141.35,415.97 141.70,415.96 142.05,415.91 142.40,415.92 142.75,415.87 143.10,415.85 143.45,415.86 143.80,415.84 144.15,415.82 144.50,415.89 144.85,415.87 145.20,415.91 145.55,415.87 145.90,415.85 146.25,415.82 146.60,415.83 146.95,415.81 147.30,415.79 147.65,415.74 148.00,415.73 148.35,415.71 148.70,415.65 149.05,415.66 149.40,415.66 149.75,415.67 150.10,415.65 150.45,415.63 150.80,415.60 151.15,415.54 151.50,415.55 151.85,415.58 152.20,415.57 152.55,415.55 152.90,415.56 153.25,415.52 153.60,415.51 153.95,415.52 154.30,415.53 154.65,415.49 155.00,415.44 155.35,415.42 155.70,415.43 156.05,415.38 156.40,415.39 156.75,415.37 157.10,415.38 157.45,415.36 157.80,415.35 158.15,415.30 158.50,415.27 158.85,415.30 159.20,415.28 159.55,415.24 159.90,415.22 160.25,415.21 160.60,415.19 160.95,415.12 161.30,415.03 161.65,415.00 162.00,415.03 162.35,415.09 162.70,415.10 163.05,415.14 163.40,415.25 163.75,415.30 164.10,415.32 164.45,415.41 164.80,415.63 165.15,415.70 165.50,415.71 165.85,415.73 166.20,415.86 166.55,415.83 166.90,415.87 167.25,415.82 167.60,415.82 167.95,415.78 168.30,415.76 168.65,415.71 169.00,415.66 169.35,415.57 169.70,415.52 170.05,415.40 170.40,415.41 170.75,415.44 171.10,415.53 171.45,415.40 171.80,415.55 172.15,415.60 172.50,415.50 172.85,415.47 173.20,415.31 173.55,415.45 173.90,415.32 174.25,415.13 174.60,415.39 174.95,415.52 175.30,415.43 175.65,415.00 176.00,415.01 176.35,414.94 176.70,415.06 177.05,414.68 177.40,414.62 177.75,414.77 178.10,414.91 178.45,413.97 178.80,414.04 179.15,414.49 179.50,414.09 179.85,413.99 180.20,413.17 180.55,413.04 180.90,412.36 181.25,411.35 181.60,410.64 181.95,411.30 182.30,411.37 182.65,411.19 183.00,411.63 183.35,411.11 183.70,410.32 184.05,410.72 184.40,410.43 184.75,410.30 185.10,410.55 185.45,410.55 185.80,409.68 186.15,410.35 186.50,409.06 186.85,409.43 187.20,408.53 187.55,407.12 187.90,408.64 188.25,407.63 188.60,408.30 188.95,407.61 189.30,408.41 189.65,408.04 190.00,407.78 190.35,407.01 190.70,407.20 191.05,409.76 191.40,410.25 191.75,410.98 192.10,410.18 192.45,410.20 192.80,407.99 193.15,407.53 193.50,408.46 193.85,408.62 194.20,409.12 194.55,407.85 194.90,409.45 195.25,410.41 195.60,410.07 195.95,409.90 196.30,409.59 196.65,410.09 197.00,410.75 197.35,414.19 197.70,414.30 198.05,414.83 198.40,413.85 198.75,414.69 199.10,415.66 199.45,415.83 199.80,414.00 200.15,414.02 200.50,414.47 200.85,414.02 201.20,411.84 201.55,412.65 201.90,411.28 202.25,411.70 202.60,410.18 202.95,409.51 203.30,408.99 203.65,409.77 204.00,409.01 204.35,407.75 204.70,409.79 205.05,410.66 205.40,410.93 205.75,412.08 206.10,410.78 206.45,412.77 206.80,411.27 207.15,410.68 207.50,409.97 207.85,408.82 208.20,409.07 208.55,408.75 208.90,407.86 209.25,408.04 209.60,408.42 209.95,408.44 210.30,408.25 210.65,410.43 211.00,410.66 211.35,410.47 211.70,411.52 212.05,413.00 212.40,413.79 212.75,411.42 213.10,409.70 213.45,409.45 213.80,407.02 214.15,407.47 214.50,407.68 214.85,407.99 215.20,407.38 215.55,409.70 215.90,407.57 216.25,407.46 216.60,405.59 216.95,403.91 217.30,403.47 217.65,404.06 218.00,403.62 218.35,404.21 218.70,406.67 219.05,405.94 219.40,404.65 219.75,406.37 220.10,405.54 220.45,405.12 220.80,406.74 221.15,407.41 221.50,406.82 221.85,405.43 222.20,406.20 222.55,406.17 222.90,405.43 223.25,404.20 223.60,401.78 223.95,403.01 224.30,401.13 224.65,398.96 225.00,397.50 225.35,398.18 225.70,394.97 226.05,394.41 226.40,394.99 226.75,394.55 227.10,393.47 227.45,392.46 227.80,391.45 228.15,392.44 228.50,394.29 228.85,395.68 229.20,397.65 229.55,397.01 229.90,399.04 230.25,396.77 230.60,399.46 230.95,397.75 231.30,396.84 231.65,395.43 232.00,395.67 232.35,395.16 232.70,397.17 233.05,398.84 233.40,397.57 233.75,398.76 234.10,400.47 234.45,400.52 234.80,400.18 235.15,400.77 235.50,403.12 235.85,400.00 236.20,399.04 236.55,397.89 236.90,395.61 237.25,392.89 237.60,393.26 237.95,392.37 238.30,392.04 238.65,390.32 239.00,388.98 239.35,390.40 239.70,388.57 240.05,385.97 240.40,386.56 240.75,386.76 241.10,386.36 241.45,390.18 241.80,389.96 242.15,391.90 242.50,394.68 242.85,393.25 243.20,394.67 243.55,397.02 243.90,399.11 244.25,398.99 244.60,399.77 244.95,397.25 245.30,392.36 245.65,392.50 246.00,395.11 246.35,394.96 246.70,390.92 247.05,390.36 247.40,392.81 247.75,396.21 248.10,399.41 248.45,396.77 248.80,397.43 249.15,400.08 249.50,399.58 249.85,396.27 250.20,400.70 250.55,394.77 250.90,394.79 251.25,391.93 251.60,389.86 251.95,386.96 252.30,386.96 252.65,387.44 253.00,387.87 253.35,389.07 253.70,390.80 254.05,391.41 254.40,391.81 254.75,392.88 255.10,390.83 255.45,396.06 255.80,397.03 256.15,389.84 256.50,390.86 256.85,389.55 257.20,394.92 257.55,393.55 257.90,391.02 258.25,392.47 258.60,391.72 258.95,389.16 259.30,391.00 259.65,392.95 260.00,394.72 260.35,389.37 260.70,393.17 261.05,389.67 261.40,389.37 261.75,386.55 262.10,386.25 262.45,386.73 262.80,385.98 263.15,385.32 263.50,387.20 263.85,387.17 264.20,382.78 264.55,379.70 264.90,379.15 265.25,376.30 265.60,381.00 265.95,384.49 266.30,383.92 266.65,382.29 267.00,385.07 267.35,383.49 267.70,384.23 268.05,389.23 268.40,388.57 268.75,391.29 269.10,392.48 269.45,393.11 269.80,397.29 270.15,398.26 270.50,395.28 270.85,395.78 271.20,396.79 271.55,393.08 271.90,391.76 272.25,390.71 272.60,391.63 272.95,387.15 273.30,390.21 273.65,387.82 274.00,390.53 274.35,390.19 274.70,385.73 275.05,391.93 275.40,391.01 275.75,388.79 276.10,388.59 276.45,386.41 276.80,390.38 277.15,389.15 277.50,387.41 277.85,386.86 278.20,384.67 278.55,381.46 278.90,380.51 279.25,379.14 279.60,381.43 279.95,384.77 280.30,386.65 280.65,381.64 281.00,382.12 281.35,379.79 281.70,384.32 282.05,383.29 282.40,382.03 282.75,381.14 283.10,385.17 283.45,381.08 283.80,379.22 284.15,380.30 284.50,379.84 284.85,380.49 285.20,382.15 285.55,375.59 285.90,372.98 286.25,376.54 286.60,376.99 286.95,379.84 287.30,379.86 287.65,380.81 288.00,385.34 288.35,385.64 288.70,384.24 289.05,388.01 289.40,389.62 289.75,385.17 290.10,384.69 290.45,383.97 290.80,386.08 291.15,386.92 291.50,383.73 291.85,381.63 292.20,380.10 292.55,381.98 292.90,379.27 293.25,375.79 293.60,374.07 293.95,376.45 294.30,381.11 294.65,379.80 295.00,378.36 295.35,379.79 295.70,377.41 296.05,377.05 296.40,376.93 296.75,379.47 297.10,382.56 297.45,380.84 297.80,382.84 298.15,387.16 298.50,388.58 298.85,386.92 299.20,386.42 299.55,382.93 299.90,386.12 300.25,384.95 300.60,382.72 300.95,382.44 301.30,387.40 301.65,387.06 302.00,389.01 302.35,387.62 302.70,386.09 303.05,380.38 303.40,379.43 303.75,382.48 304.10,385.58 304.45,384.41 304.80,384.19 305.15,382.80 305.50,385.98 305.85,388.53 306.20,393.54 306.55,394.08 306.90,392.96 307.25,394.34 307.60,398.09 307.95,391.92 308.30,389.81 308.65,390.12 309.00,389.94 309.35,394.74 309.70,394.16 310.05,399.62 310.40,395.54 310.75,399.58 311.10,402.34 311.45,403.01 311.80,409.00 312.15,410.06 312.50,411.37 312.85,411.43 313.20,411.37 313.55,409.83 313.90,407.19 314.25,407.45 314.60,406.77 314.95,407.33 315.30,409.03 315.65,411.37 316.00,411.39 316.35,415.94 316.70,418.44 317.05,414.77 317.40,412.86 317.75,417.45 318.10,419.36 318.45,420.27 318.80,422.08 319.15,422.70 319.50,421.57 319.85,421.65 320.20,423.81 320.55,423.93 320.90,419.59 321.25,416.17 321.60,414.79 321.95,414.73 322.30,414.40 322.65,418.35 323.00,418.84 323.35,421.40 323.70,421.37 324.05,419.97 324.40,420.46 324.75,420.38 325.10,421.88 325.45,425.35 325.80,428.24 326.15,429.33 326.50,430.61 326.85,426.45 327.20,422.26 327.55,424.46 327.90,428.51 328.25,430.65 328.60,430.77 328.95,433.25 329.30,432.00 329.65,430.15 330.00,432.43 330.35,429.78 330.70,429.98 331.05,427.80 331.40,432.52 331.75,431.09 332.10,435.35 332.45,438.24 332.80,438.33 333.15,440.48 333.50,438.24 333.85,438.38 334.20,440.14 334.55,439.27 334.90,437.12 335.25,436.00 335.60,436.00 335.95,436.95 336.30,434.99 336.65,433.85 337.00,431.09 337.35,429.56 337.70,430.73 338.05,429.62 338.40,429.24 338.75,428.28 339.10,428.49 339.45,427.27 339.80,428.15 340.15,428.97 340.50,427.29 340.85,426.01 341.20,425.33 341.55,423.77 341.90,422.66 342.25,422.18 342.60,422.02 342.95,424.07 343.30,426.23 343.65,425.40 344.00,424.48 344.35,426.54 344.70,424.36 345.05,423.91 345.40,425.67 345.75,425.02 346.10,426.17 346.45,425.87 346.80,427.31 347.15,426.84 347.50,426.66 347.85,426.26 348.20,425.14 348.55,425.76 348.90,425.70 349.25,425.99 349.60,426.06 349.95,425.23 350.30,424.58 350.65,424.80 351.00,423.72 351.35,424.46 351.70,425.06 352.05,424.19 352.40,424.78 352.75,424.68 353.10,423.31 353.45,423.31 353.80,422.32 354.15,421.03 354.50,420.01 354.85,418.10 355.20,417.44 355.55,418.57 355.90,418.21 356.25,418.41 356.60,418.81 356.95,419.18 357.30,418.53 357.65,419.50 358.00,417.98 358.35,417.66 358.70,419.08 359.05,419.56 359.40,420.18 359.75,421.30 360.10,421.21 360.45,422.57 360.80,421.09 361.15,420.11 361.50,420.44 361.85,420.71 362.20,420.49 362.55,421.26 362.90,420.54 363.25,420.39 363.60,420.67 363.95,420.27 364.30,420.54 364.65,420.68 365.00,421.62 365.35,422.06 365.70,422.57 366.05,422.47 366.40,424.26 366.75,425.12 367.10,425.53 367.45,424.72 367.80,425.09 368.15,425.22 368.50,424.87 368.85,424.41 369.20,423.04 369.55,423.10 369.90,423.15 370.25,423.04 370.60,423.04 370.95,422.93 371.30,422.75 371.65,423.11 372.00,422.79 372.35,422.98 372.70,422.77 373.05,421.64 373.40,421.71 373.75,421.53 374.10,422.16 374.45,421.69 374.80,421.03 375.15,421.57 375.50,422.06 375.85,422.12 376.20,421.74 376.55,421.86 376.90,421.70 377.25,421.78 377.60,422.20 377.95,422.96 378.30,423.89 378.65,422.94 379.00,422.93 379.35,423.81 379.70,424.05 380.05,423.31 380.40,423.46 380.75,423.83 381.10,423.89 381.45,423.30 381.80,422.73 382.15,422.84 382.50,423.18 382.85,423.16 383.20,422.77 383.55,422.67 383.90,423.18 384.25,423.24 384.60,423.62 384.95,423.54 385.30,423.76 385.65,423.82 386.00,423.86 386.35,423.76 386.70,423.96 387.05,423.84 387.40,424.08 387.75,424.19 388.10,424.54 388.45,424.79 388.80,424.87 389.15,424.93 389.50,424.83 389.85,424.66 390.20,424.91 390.55,424.68 390.90,424.47 391.25,424.45 391.60,424.52 391.95,424.49 392.30,424.40 392.65,424.33 393.00,424.23 393.35,424.10 393.70,424.07 394.05,423.93 394.40,423.88 394.75,423.79 395.10,423.78 395.45,423.71 395.80,423.69 396.15,423.64 396.50,423.61 396.85,423.57 397.20,423.50 397.55,423.52 397.90,423.47 398.25,423.56 398.60,423.75 398.95,423.67 399.30,423.80 399.65,423.89 400.00,423.71 400.35,423.50 400.70,423.33 401.05,423.55 401.40,423.41 401.75,423.65 402.10,423.93 402.45,423.96 402.80,423.98 403.15,423.75 403.50,423.68 403.85,423.65 404.20,423.53 404.55,423.67 404.90,423.72 405.25,423.85 405.60,424.08 405.95,423.79 406.30,423.18 406.65,423.42 407.00,423.45 407.35,423.92 407.70,424.03 408.05,424.04 408.40,423.94 408.75,424.07 409.10,423.95 409.45,424.09 409.80,423.97 410.15,424.12 410.50,424.02 410.85,424.18 411.20,424.13 411.55,424.02 411.90,423.95 412.25,423.91 412.60,423.50 412.95,423.45 413.30,423.52 413.65,423.49 414.00,423.52 414.35,423.28 414.70,423.46 415.05,423.27 415.40,422.83 415.75,422.87 416.10,422.57 416.45,422.79 416.80,422.64 417.15,422.63 417.50,422.30 417.85,422.61 418.20,422.34 418.55,422.45 418.90,421.88 419.25,421.67 419.60,421.58 419.95,420.95 420.30,420.47 420.65,420.24 421.00,420.77 421.35,420.81 421.70,420.02 422.05,420.30 422.40,420.60 422.75,420.02 423.10,419.18 423.45,419.95 423.80,420.34 424.15,420.04 424.50,419.54 424.85,418.93 425.20,419.16 425.55,419.25 425.90,418.60 426.25,418.30 426.60,417.78 426.95,417.78 427.30,417.87 427.65,417.54 428.00,416.74 428.35,416.60 428.70,415.08 429.05,414.24 429.40,413.82 429.75,414.08 430.10,412.88 430.45,411.37 430.80,410.97 431.15,410.07 431.50,409.60 431.85,409.74 432.20,409.32 432.55,406.47 432.90,406.30 433.25,407.38 433.60,406.05 433.95,405.24 434.30,405.13 434.65,404.70 435.00,404.23 435.35,402.76 435.70,401.34 436.05,402.26 436.40,400.39 436.75,399.28 437.10,397.73 437.45,398.52 437.80,396.99 438.15,395.49 438.50,396.03 438.85,395.88 439.20,394.65 439.55,393.19 439.90,393.95 440.25,393.21 440.60,392.80 440.95,391.70 441.30,389.49 441.65,389.23 442.00,391.40 442.35,392.25 442.70,391.71 443.05,391.94 443.40,393.60 443.75,394.23 444.10,392.93 444.45,394.11 444.80,392.21 445.15,390.85 445.50,392.08 445.85,390.86 446.20,389.56 446.55,388.63 446.90,389.16 447.25,387.39 447.60,387.51 447.95,387.95 448.30,389.54 448.65,388.91 449.00,387.28 449.35,391.03 449.70,387.23 450.05,384.38 450.40,385.47 450.75,386.64 451.10,386.58 451.45,384.52 451.80,386.29 452.15,384.77 452.50,385.25 452.85,382.09 453.20,382.73 453.55,384.18 453.90,382.33 454.25,383.37 454.60,385.51 454.95,383.08 455.30,383.46 455.65,382.08 456.00,380.15 456.35,378.90 456.70,380.17 457.05,379.36 457.40,382.54 457.75,380.79 458.10,382.99 458.45,381.63 458.80,381.56 459.15,380.09 459.50,379.87 459.85,380.20 460.20,381.14 460.55,383.82 460.90,379.95 461.25,380.17 461.60,378.89 461.95,379.03 462.30,378.26 462.65,375.88 463.00,374.99 463.35,378.32 463.70,379.75 464.05,377.19 464.40,378.70 464.75,379.07 465.10,382.37 465.45,386.49 465.80,385.83 466.15,384.69 466.50,386.62 466.85,386.34 467.20,385.43 467.55,386.94 467.90,391.00 468.25,388.09 468.60,387.88 468.95,388.16 469.30,385.45 469.65,385.07 470.00,382.34 470.35,382.58 470.70,381.56 471.05,382.99 471.40,388.00 471.75,387.68 472.10,383.61 472.45,381.83 472.80,386.05 473.15,389.37 473.50,391.16 473.85,393.63 474.20,395.28 474.55,395.69 474.90,392.60 475.25,394.10 475.60,393.07 475.95,393.39 476.30,388.24 476.65,388.36 477.00,385.10 477.35,385.34 477.70,384.13 478.05,381.87 478.40,384.91 478.75,384.07 479.10,381.63 479.45,382.31 479.80,382.25 480.15,382.73 480.50,381.56 480.85,383.78 481.20,383.09 481.55,383.48 481.90,380.39 482.25,382.01 482.60,382.15 482.95,383.93 483.30,384.18 483.65,387.60 484.00,388.35 484.35,389.20 484.70,389.35 485.05,387.75 485.40,384.48 485.75,385.17 486.10,382.97 486.45,383.02 486.80,383.42 487.15,382.66 487.50,383.79 487.85,380.34 488.20,380.51 488.55,380.46 488.90,378.33 489.25,376.22 489.60,378.48 489.95,380.33 490.30,379.16 490.65,379.10 491.00,378.80 491.35,381.80 491.70,383.82 492.05,386.20 492.40,386.76 492.75,388.80 493.10,391.68 493.45,390.63 493.80,388.39 494.15,386.59 494.50,389.09 494.85,391.60 495.20,390.86 495.55,391.92 495.90,396.31 496.25,397.93 496.60,395.38 496.95,396.31 497.30,395.29 497.65,396.64 498.00,397.66 498.35,395.22 498.70,393.67 499.05,394.08 499.40,394.50 499.75,393.46 500.10,394.23 500.45,392.88 500.80,394.93 501.15,395.68 501.50,394.70 501.85,396.14 502.20,396.18 502.55,396.99 502.90,397.73 503.25,398.46 503.60,400.19 503.95,401.84 504.30,402.11 504.65,404.79 505.00,407.82 505.35,407.29 505.70,405.47 506.05,403.36 506.40,402.88 506.75,403.42 507.10,405.28 507.45,406.76 507.80,406.53 508.15,406.30 508.50,408.21 508.85,408.26 509.20,409.48 509.55,409.33 509.90,411.20 510.25,410.58 510.60,412.72 510.95,413.56 511.30,414.90 511.65,415.50 512.00,415.03 512.35,415.86 512.70,416.49 513.05,416.65 513.40,415.91 513.75,418.00 514.10,417.21 514.45,415.80 514.80,415.54 515.15,413.77 515.50,414.06 515.85,414.58 516.20,415.49 516.55,415.85 516.90,417.30 517.25,415.99 517.60,415.58 517.95,415.41 518.30,415.47 518.65,415.37 519.00,415.72 519.35,416.46 519.70,415.60 520.05,413.83 520.40,413.69 520.75,413.49 521.10,412.86 521.45,412.65 521.80,412.76 522.15,413.07 522.50,412.29 522.85,411.65 523.20,412.08 523.55,413.08 523.90,413.16 524.25,412.98 524.60,413.40 524.95,412.78 525.30,411.96 525.65,412.48 526.00,411.93 526.35,411.13 526.70,411.31 527.05,412.47 527.40,412.00 527.75,412.25 528.10,412.63 528.45,413.01 528.80,412.73 529.15,411.97 529.50,412.54 529.85,412.41 530.20,411.61 530.55,411.86 530.90,411.97 531.25,411.86 531.60,411.29 531.95,411.73 532.30,411.87 532.65,411.13 533.00,411.87 533.35,411.29 533.70,410.80 534.05,411.36 534.40,410.31 534.75,410.52 535.10,410.72 535.45,411.01 535.80,410.96 536.15,411.46 536.50,411.15 536.85,410.25 537.20,409.80 537.55,410.55 537.90,410.59 538.25,410.43 538.60,411.36 538.95,412.24 539.30,413.09 539.65,413.66 540.00,413.53 540.35,413.53 540.70,413.16 541.05,411.99 541.40,411.56 541.75,411.67 542.10,411.72 542.45,411.13 542.80,410.93 543.15,411.47 543.50,411.55 543.85,412.14 544.20,411.83 544.55,412.08 544.90,411.73 545.25,410.72 545.60,411.21 545.95,411.81 546.30,410.89 546.65,410.60 547.00,410.04 547.35,409.55 547.70,409.83 548.05,409.85 548.40,410.14 548.75,410.19 549.10,410.34 549.45,410.25 549.80,410.60 550.15,410.68 550.50,409.77 550.85,409.76 551.20,409.67 551.55,409.07 551.90,409.30 552.25,408.77 552.60,409.44 552.95,409.53 553.30,410.84 553.65,410.79 554.00,410.81 554.35,411.90 554.70,411.85 555.05,412.11 555.40,412.49 555.75,412.89 556.10,413.01 556.45,413.10 556.80,412.99 557.15,411.80 557.50,411.18 557.85,411.07 558.20,411.39 558.55,411.55 558.90,411.53 559.25,411.15 559.60,410.86 559.95,411.21 560.30,410.87 560.65,410.68 561.00,410.53 561.35,410.47 561.70,410.56 562.05,410.54 562.40,410.17 562.75,410.54 563.10,410.42 563.45,410.51 563.80,410.80 564.15,411.22 564.50,410.91 564.85,410.42 565.20,410.49 565.55,410.38 565.90,410.60 566.25,410.97 566.60,411.47 566.95,411.79 567.30,412.23 567.65,411.72 568.00,412.00 568.35,411.49 568.70,411.56 569.05,411.16 569.40,411.18 569.75,411.45 570.10,410.80 570.45,411.22 570.80,411.92 571.15,411.54 571.50,411.67 571.85,411.92 572.20,412.51 572.55,412.39 572.90,412.23 573.25,412.43 573.60,412.57 573.95,412.81 574.30,412.95 574.65,413.12 575.00,413.24 575.35,413.07 575.70,413.23 576.05,413.27 576.40,413.40 576.75,413.35 577.10,413.20 577.45,413.17 577.80,413.05 578.15,413.10 578.50,412.94 578.85,412.88 579.20,412.63 579.55,412.56 579.90,412.52 580.25,412.49 580.60,412.41 580.95,412.55 581.30,412.62 581.65,412.58 582.00,412.52 582.35,412.57 582.70,412.52 583.05,412.50 583.40,412.43 583.75,412.39 584.10,412.29 584.45,412.22 584.80,412.12 585.15,411.97 585.50,412.07 585.85,412.09 586.20,411.94 586.55,412.05 586.90,411.90 587.25,411.81 587.60,411.69 587.95,411.61 588.30,411.78 588.65,411.62 589.00,411.79 589.35,411.86 589.70,412.17 590.05,412.42 590.40,412.13 590.75,412.20 591.10,412.06 591.45,411.94 591.80,412.38 592.15,412.70 592.50,413.15 592.85,413.14 593.20,413.28 593.55,413.72 593.90,413.52 594.25,413.12 594.60,412.63 594.95,412.34 595.30,412.95 595.65,413.33 596.00,413.15 596.35,412.97 596.70,413.35 597.05,413.56 597.40,413.52 597.75,413.45 598.10,413.22 598.45,413.19 598.80,413.05 599.15,412.94 599.50,412.92 599.85,413.38 600.20,413.77 600.55,414.07 600.90,414.14 601.25,414.27 601.60,414.27 601.95,414.23 602.30,414.17 602.65,413.84 603.00,413.96 603.35,413.68 603.70,413.82 604.05,414.04 604.40,414.10 604.75,414.17 605.10,414.20 605.45,414.13 605.80,414.07 606.15,413.99 606.50,413.97 606.85,413.97 607.20,413.94 607.55,413.89 607.90,413.85 608.25,413.81 608.60,413.74 608.95,413.67 609.30,413.62 609.65,413.67 610.00,413.61 610.35,413.53 610.70,413.28 611.05,413.29 611.40,413.21 611.75,413.26 612.10,413.12 612.45,413.13 612.80,412.79 613.15,412.65 613.50,412.14 613.85,412.20 614.20,412.34 614.55,411.43 614.90,411.91 615.25,411.77 615.60,412.12 615.95,412.09 616.30,412.68 616.65,412.75 617.00,412.52 617.35,412.71 617.70,411.65 618.05,412.19 618.40,412.82 618.75,412.99 619.10,413.35 619.45,413.28 619.80,413.20 620.15,413.98 620.50,413.43 620.85,413.38 621.20,412.97 621.55,413.07 621.90,412.59 622.25,411.44 622.60,411.41 622.95,411.74 623.30,411.04 623.65,410.78 624.00,410.96 624.35,410.42 624.70,411.32 625.05,411.98 625.40,412.19 625.75,411.68 626.10,410.66 626.45,410.92 626.80,410.67 627.15,411.55 627.50,410.80 627.85,410.45 628.20,409.50 628.55,409.48 628.90,409.25 629.25,406.43 629.60,406.06 629.95,404.69 630.30,405.18 630.65,406.04 631.00,406.18 631.35,404.54 631.70,404.75 632.05,405.10 632.40,403.41 632.75,402.69 633.10,403.19 633.45,404.13 633.80,403.67 634.15,401.56 634.50,401.45 634.85,399.44 635.20,397.23 635.55,397.01 635.90,396.34 636.25,396.21 636.60,396.33 636.95,395.85 637.30,394.73 637.65,395.06 638.00,394.28 638.35,394.91 638.70,396.25 639.05,396.66 639.40,396.37 639.75,394.70 640.10,396.83 640.45,396.17 640.80,396.10 641.15,394.10 641.50,391.68 641.85,392.75 642.20,391.64 642.55,392.53 642.90,392.03 643.25,391.05 643.60,391.67 643.95,391.43 644.30,388.37 644.65,385.82 645.00,384.41 645.35,382.43 645.70,384.45 646.05,381.69 646.40,379.06 646.75,378.85 647.10,377.34 647.45,376.87 647.80,377.94 648.15,376.86 648.50,372.63 648.85,375.51 649.20,375.27 649.55,375.29 649.90,372.73 650.25,371.90 650.60,371.16 650.95,368.09 651.30,367.17 651.65,367.16 652.00,367.64 652.35,367.20 652.70,364.58 653.05,365.48 653.40,365.59 653.75,364.46 654.10,363.10 654.45,366.20 654.80,363.37 655.15,360.27 655.50,359.48 655.85,358.72 656.20,360.47 656.55,361.50 656.90,362.13 657.25,359.85 657.60,357.93 657.95,357.65 658.30,355.22 658.65,358.06 659.00,356.34 659.35,354.91 659.70,357.39 660.05,356.25 660.40,359.93 660.75,358.49 661.10,358.15 661.45,361.21 661.80,358.46 662.15,358.69 662.50,355.10 662.85,351.37 663.20,348.65 663.55,345.75 663.90,347.11 664.25,344.51 664.60,346.83 664.95,343.70 665.30,343.75 665.65,344.38 666.00,343.26 666.35,340.90 666.70,339.30 667.05,340.68 667.40,338.29 667.75,340.87 668.10,341.75 668.45,338.54 668.80,337.98 669.15,337.85 669.50,339.22 669.85,340.02 670.20,338.01 670.55,337.55 670.90,337.73 671.25,336.08 671.60,337.50 671.95,333.80 672.30,332.53 672.65,336.19 673.00,336.88 673.35,335.72 673.70,335.11 674.05,335.88 674.40,338.46 674.75,337.07 675.10,339.89 675.45,340.63 675.80,339.90 676.15,335.83 676.50,334.46 676.85,337.26 677.20,337.85 677.55,335.54 677.90,335.05 678.25,338.23 678.60,336.93 678.95,334.32 679.30,332.10 679.65,332.24 680.00,328.13 680.35,325.37 680.70,324.34 681.05,324.05 681.40,324.81 681.75,328.35 682.10,321.16 682.45,321.58 682.80,319.84 683.15,316.51 683.50,310.89 683.85,306.44 684.20,310.54 684.55,310.94 684.90,310.66 685.25,314.07 685.60,313.48 685.95,312.25 686.30,310.89 686.65,315.08 687.00,316.20 687.35,313.71 687.70,314.17 688.05,310.58 688.40,310.46 688.75,313.62 689.10,311.63 689.45,308.17 689.80,311.03 690.15,312.70 690.50,314.28 690.85,314.68 691.20,317.01 691.55,321.67 691.90,323.43 692.25,330.62 692.60,331.16 692.95,333.99 693.30,329.86 693.65,329.59 694.00,330.73 694.35,326.11 694.70,323.98 695.05,319.56 695.40,322.40 695.75,324.90 696.10,321.65 696.45,320.40 696.80,321.93 697.15,322.99 697.50,322.83 697.85,318.59 698.20,318.39 698.55,319.68 698.90,318.01 699.25,317.74 699.60,323.33 699.95,326.32 700.30,328.28 700.65,318.13 701.00,320.71 701.35,318.49 701.70,319.03 702.05,316.05 702.40,317.15 702.75,308.06 703.10,304.31 703.45,305.34 703.80,307.54 704.15,304.32 704.50,304.69 704.85,302.46 705.20,305.21 705.55,306.15 705.90,309.07 706.25,309.61 706.60,310.43 706.95,316.92 707.30,317.21 707.65,318.48 708.00,317.54 708.35,313.79 708.70,315.16 709.05,314.51 709.40,314.58 709.75,316.68 710.10,316.54 710.45,312.08 710.80,314.56 711.15,310.26 711.50,310.74 711.85,311.97 712.20,311.14 712.55,310.19 712.90,314.95 713.25,315.17 713.60,318.08 713.95,313.06 714.30,309.23 714.65,316.19 715.00,310.82 715.35,307.41 715.70,306.60 716.05,310.21 716.40,312.25 716.75,308.51 717.10,307.97 717.45,312.86 717.80,312.84 718.15,311.60 718.50,299.89 718.85,304.48 719.20,304.82 719.55,305.33 719.90,303.23 720.25,305.41 720.60,307.90 720.95,308.98 721.30,308.61 721.65,307.94 722.00,313.31 722.35,311.14 722.70,311.33 723.05,309.45 723.40,310.27 723.75,304.84 724.10,301.46 724.45,305.99 724.80,303.89 725.15,303.78 725.50,303.88 725.85,301.60 726.20,307.41 726.55,304.76 726.90,299.48 727.25,299.96 727.60,300.10 727.95,294.90 728.30,297.00 728.65,295.67 729.00,300.15 729.35,301.18 729.70,297.63 730.05,293.99 730.40,295.20 730.75,292.80 731.10,294.83 731.45,290.80 731.80,289.98 732.15,287.81 732.50,288.90 732.85,292.37 733.20,296.25 733.55,300.11 733.90,288.52 734.25,284.34 734.60,280.23 734.95,285.40 735.30,285.87 735.65,288.35 736.00,284.38 736.35,290.06 736.70,287.14 737.05,281.84 737.40,284.21 737.75,290.15 738.10,285.98 738.45,283.35 738.80,282.83 739.15,285.06 739.50,283.08 739.85,284.45 740.20,289.03 740.55,287.85 740.90,288.92 741.25,291.30 741.60,289.20 741.95,292.89 742.30,290.70 742.65,300.86 743.00,304.64 743.35,305.21 743.70,310.25 744.05,322.29 744.40,326.91 744.75,317.03 745.10,315.07 745.45,312.06 745.80,306.99 746.15,303.78 746.50,291.64 746.85,290.23 747.20,292.23 747.55,298.00 747.90,297.83 748.25,297.15 748.60,289.65 748.95,281.86 749.30,281.83 749.65,281.79 750.00,274.70 750.35,273.69 750.70,275.63 751.05,283.75 751.40,282.04 751.75,280.33 752.10,271.58 752.45,274.17 752.80,275.02 753.15,281.19 753.50,283.82 753.85,289.26 754.20,284.70 754.55,290.27 754.90,296.27 755.25,300.54 755.60,305.19 755.95,307.86 756.30,306.26 756.65,306.48 757.00,300.41 757.35,301.89 757.70,304.95 758.05,302.91 758.40,295.96 758.75,289.20 759.10,278.79 759.45,282.47 759.80,287.68 760.15,289.43 760.50,293.38 760.85,294.44 761.20,286.53 761.55,285.53 761.90,280.08 762.25,278.25 762.60,276.59 762.95,284.26 763.30,285.60 763.65,289.40 764.00,296.41 764.35,295.08 764.70,289.83 765.05,288.24 765.40,288.21 765.75,285.02 766.10,278.16 766.45,277.53 766.80,278.23 767.15,274.13 767.50,276.06 767.85,275.88 768.20,279.16 768.55,282.79 768.90,284.74 769.25,285.89 769.60,289.49 769.95,289.78 770.30,293.56 770.65,294.72 771.00,297.68 771.35,289.33 771.70,297.13 772.05,296.49 772.40,290.10 772.75,298.03 773.10,303.84 773.45,295.85 773.80,298.64 774.15,297.08 774.50,298.47 774.85,299.13 775.20,291.69 775.55,293.74 775.90,288.44 776.25,284.38 776.60,279.56 776.95,276.14 777.30,277.85 777.65,268.26 778.00,271.68 778.35,271.19 778.70,281.54 779.05,287.80 779.40,289.51 779.75,285.10 780.10,295.44 780.45,286.14 780.80,281.35 781.15,282.65 781.50,290.49 781.85,287.91 782.20,280.83 782.55,284.99 782.90,285.84 783.25,287.31 783.60,290.01 783.95,283.77 784.30,290.98 784.65,289.62 785.00,294.00"/>
<line x1="813" y1="102" x2="839" y2="102" stroke="#059669" stroke-width="3"/>
<text x="847" y="106" font-family="Arial" font-size="13" fill="#111827">trending</text>
<text x="435.0" y="518" text-anchor="middle" font-family="Arial" font-size="14" fill="#111827">Event index</text>
<text x="22" y="256.0" text-anchor="middle" transform="rotate(-90 22 256.0)" font-family="Arial" font-size="14" fill="#111827">Net PnL after fees</text>
</svg>
