<svg xmlns="http://www.w3.org/2000/svg" width="940" height="540" viewBox="0 0 940 540">
<rect width="100%" height="100%" fill="#ffffff"/>
<text x="470.0" y="26" text-anchor="middle" font-family="Arial" font-size="18" fill="#111827">High Volatility Inventory</text>
<line x1="85" y1="470" x2="755" y2="470" stroke="#111827" stroke-width="1"/>
<line x1="85" y1="42" x2="85" y2="470" stroke="#111827" stroke-width="1"/>
<line x1="85.00" y1="42" x2="85.00" y2="470" stroke="#e5e7eb" stroke-width="1"/>
<text x="85.00" y="494" text-anchor="middle" font-family="Arial" font-size="12" fill="#374151">0</text>
<line x1="252.50" y1="42" x2="252.50" y2="470" stroke="#e5e7eb" stroke-width="1"/>
<text x="252.50" y="494" text-anchor="middle" font-family="Arial" font-size="12" fill="#374151">50000</text>
<line x1="420.00" y1="42" x2="420.00" y2="470" stroke="#e5e7eb" stroke-width="1"/>
<text x="420.00" y="494" text-anchor="middle" font-family="Arial" font-size="12" fill="#374151">100000</text>
<line x1="587.50" y1="42" x2="587.50" y2="470" stroke="#e5e7eb" stroke-width="1"/>
<text x="587.50" y="494" text-anchor="middle" font-family="Arial" font-size="12" fill="#374151">149999</text>
<line x1="755.00" y1="42" x2="755.00" y2="470" stroke="#e5e7eb" stroke-width="1"/>
<text x="755.00" y="494" text-anchor="middle" font-family="Arial" font-size="12" fill="#374151">199999</text>
<line x1="85" y1="470.00" x2="755" y2="470.00" stroke="#e5e7eb" stroke-width="1"/>
<text x="73" y="474.00" text-anchor="end" font-family="Arial" font-size="12" fill="#374151">-8938</text>
<line x1="85" y1="363.00" x2="755" y2="363.00" stroke="#e5e7eb" stroke-width="1"/>
<text x="73" y="367.00" text-anchor="end" font-family="Arial" font-size="12" fill="#374151">-897</text>
<line x1="85" y1="256.00" x2="755" y2="256.00" stroke="#e5e7eb" stroke-width="1"/>
<text x="73" y="260.00" text-anchor="end" font-family="Arial" font-size="12" fill="#374151">7144</text>
<line x1="85" y1="149.00" x2="755" y2="149.00" stroke="#e5e7eb" stroke-width="1"/>
<text x="73" y="153.00" text-anchor="end" font-family="Arial" font-size="12" fill="#374151">15186</text>
<line x1="85" y1="42.00" x2="755" y2="42.00" stroke="#e5e7eb" stroke-width="1"/>
<text x="73" y="46.00" text-anchor="end" font-family="Arial" font-size="12" fill="#374151">23227</text>
<polyline fill="none" stroke="#2563eb" stroke-width="2" points="85.00,351.07 85.34,351.07 85.67,350.63 86.01,350.96 86.34,352.02 86.68,353.02 87.01,354.07 87.35,355.00 87.68,355.80 88.02,356.81 88.35,357.21 88.69,357.71 89.02,357.84 89.36,357.71 89.69,357.04 90.03,356.51 90.36,356.16 90.70,356.07 91.03,356.60 91.37,356.33 91.70,356.20 92.04,355.80 92.37,356.67 92.71,356.93 93.04,356.53 93.38,356.59 93.71,356.99 94.05,356.32 94.38,355.46 94.72,355.22 95.05,354.29 95.39,353.35 95.72,352.16 96.06,351.36 96.39,350.13 96.73,349.47 97.06,348.54 97.40,347.55 97.73,347.02 98.07,345.96 98.40,344.89 98.74,344.23 99.07,343.29 99.41,342.10 99.74,340.90 100.08,340.47 100.41,341.29 100.75,342.35 101.08,343.37 101.42,344.32 101.75,345.40 102.09,345.93 102.42,347.13 102.76,348.18 103.09,349.24 103.43,348.09 103.76,347.42 104.10,346.93 104.43,346.09 104.77,345.82 105.10,345.42 105.44,345.69 105.77,346.36 106.11,347.15 106.44,348.05 106.78,348.71 107.11,349.91 107.45,349.95 107.78,348.88 108.12,348.76 108.45,348.58 108.79,348.05 109.12,347.11 109.46,346.59 109.79,345.70 110.13,344.75 110.46,343.95 110.80,343.68 111.13,343.55 111.47,344.07 111.80,344.20 112.14,344.15 112.47,344.33 112.81,344.73 113.14,345.00 113.48,345.00 113.81,344.97 114.15,344.97 114.48,345.10 114.82,345.24 115.15,345.02 115.49,344.89 115.82,345.14 116.16,345.14 116.49,345.94 116.83,347.01 117.16,348.07 117.50,349.00 117.83,349.93 118.17,351.00 118.50,351.94 118.84,353.01 119.17,353.81 119.51,354.61 119.84,355.30 120.18,356.23 120.51,357.16 120.85,358.16 121.18,359.09 121.52,359.90 121.85,360.97 122.19,361.86 122.52,362.79 122.86,363.57 123.19,364.50 123.53,365.49 123.86,366.15 124.20,367.35 124.53,368.15 124.87,369.31 125.20,370.11 125.54,370.69 125.87,371.36 126.21,370.56 126.54,369.76 126.88,368.70 127.21,367.76 127.55,367.23 127.88,367.07 128.22,366.67 128.55,365.74 128.89,365.52 129.22,365.29 129.56,365.02 129.89,364.11 130.23,363.04 130.56,361.71 130.90,360.65 131.23,359.32 131.57,359.32 131.90,358.77 132.24,359.01 132.57,358.74 132.91,359.71 133.24,360.65 133.58,361.71 133.91,361.58 134.25,362.28 134.58,362.55 134.92,363.48 135.25,363.33 135.59,364.01 135.92,364.28 136.26,364.37 136.59,364.77 136.93,365.70 137.26,365.96 137.60,365.96 137.93,364.89 138.27,365.37 138.60,365.24 138.94,365.42 139.27,365.69 139.61,366.39 139.94,367.06 140.28,367.75 140.61,368.95 140.95,369.88 141.28,370.55 141.62,371.61 141.95,372.81 142.29,373.61 142.62,374.54 142.96,375.60 143.29,376.40 143.63,377.33 143.96,378.13 144.30,379.06 144.63,379.62 144.97,380.43 145.30,380.70 145.64,381.90 145.97,382.85 146.31,383.92 146.64,384.85 146.98,384.34 147.31,385.01 147.65,386.07 147.98,386.87 148.32,387.58 148.65,388.38 148.99,388.85 149.32,389.25 149.66,390.19 149.99,391.38 150.33,392.45 150.66,392.78 151.00,393.43 151.33,393.43 151.67,393.96 152.00,394.11 152.34,395.18 152.67,396.11 153.01,396.64 153.34,397.17 153.68,397.81 154.01,398.20 154.35,399.07 154.68,399.90 155.02,401.08 155.35,402.01 155.69,403.35 156.02,404.40 156.36,405.33 156.69,405.94 157.03,406.23 157.36,407.03 157.70,408.23 158.03,408.81 158.37,410.01 158.70,411.08 159.04,411.61 159.37,412.67 159.71,413.43 160.04,414.50 160.38,415.29 160.71,415.56 161.05,415.69 161.38,415.69 161.72,415.40 162.05,415.27 162.39,414.22 162.72,413.02 163.06,412.54 163.39,411.87 163.73,412.11 164.06,413.07 164.40,413.74 164.73,414.54 165.07,413.87 165.40,412.94 165.74,412.01 166.07,411.01 166.41,409.95 166.74,409.28 167.08,408.61 167.41,407.80 167.75,406.74 168.08,405.85 168.42,405.05 168.75,403.98 169.09,402.92 169.42,401.99 169.76,401.03 170.09,400.10 170.43,398.97 170.76,398.30 171.10,397.50 171.43,396.84 171.77,395.91 172.10,395.02 172.44,393.95 172.77,392.89 173.11,392.09 173.44,391.04 173.78,389.97 174.11,389.17 174.45,388.38 174.78,387.58 175.12,386.53 175.45,385.57 175.79,384.37 176.12,383.31 176.46,382.51 176.79,381.44 177.13,380.65 177.46,379.49 177.80,378.77 178.13,377.84 178.47,376.85 178.80,376.17 179.14,375.50 179.47,374.56 179.81,373.90 180.14,372.97 180.48,371.89 180.81,370.83 181.15,369.76 181.48,369.19 181.82,368.26 182.15,367.19 182.49,366.14 182.82,365.21 183.16,364.41 183.49,363.75 183.83,362.55 184.16,361.74 184.50,360.71 184.83,359.98 185.17,359.06 185.50,357.98 185.84,356.79 186.17,355.99 186.51,355.10 186.84,354.11 187.18,352.92 187.51,351.88 187.85,351.08 188.18,350.31 188.52,349.38 188.85,348.58 189.19,347.91 189.52,346.85 189.86,345.78 190.19,344.94 190.53,344.55 190.86,343.35 191.20,342.55 191.53,341.35 191.87,340.15 192.20,339.09 192.54,338.19 192.87,337.25 193.21,336.59 193.54,335.67 193.88,334.61 194.21,333.67 194.55,332.88 194.88,332.10 195.22,330.87 195.55,329.54 195.89,328.62 196.22,327.69 196.56,326.76 196.89,325.96 197.23,324.91 197.56,324.95 197.90,324.28 198.23,323.62 198.57,322.55 198.90,321.89 199.24,320.95 199.57,319.93 199.91,319.13 200.24,318.33 200.58,317.67 200.91,316.47 201.25,315.67 201.58,314.61 201.92,313.68 202.25,312.74 202.59,311.95 202.92,311.41 203.26,310.22 203.59,309.28 203.93,308.35 204.26,307.29 204.60,306.36 204.93,305.29 205.27,304.23 205.60,303.16 205.94,302.21 206.27,301.14 206.61,300.08 206.94,299.28 207.28,297.95 207.61,296.75 207.95,295.81 208.28,294.74 208.62,293.66 208.95,292.60 209.29,291.40 209.62,290.87 209.96,289.94 210.29,288.61 210.63,287.81 210.96,287.09 211.30,286.15 211.63,285.21 211.97,284.55 212.30,283.70 212.64,282.62 212.97,281.55 213.31,281.33 213.64,280.74 213.98,279.81 214.31,278.75 214.65,277.82 214.98,276.75 215.32,276.09 215.65,275.02 215.99,274.32 216.32,273.44 216.66,272.37 216.99,271.44 217.33,270.78 217.66,269.58 218.00,268.91 218.33,267.98 218.67,267.32 219.00,266.52 219.34,265.85 219.67,265.13 220.01,263.99 220.34,262.79 220.68,261.87 221.01,261.04 221.35,259.96 221.68,258.89 222.02,258.56 222.35,258.43 222.69,258.43 223.02,258.16 223.36,258.43 223.69,259.09 224.03,260.29 224.36,261.13 224.70,262.06 225.03,262.74 225.37,263.62 225.70,264.82 226.04,265.84 226.37,266.61 226.71,267.54 227.04,268.61 227.38,269.55 227.71,270.48 228.05,271.53 228.38,272.32 228.72,273.74 229.05,274.61 229.39,275.14 229.72,275.81 230.06,276.67 230.39,277.60 230.73,278.67 231.06,279.61 231.40,280.46 231.73,281.57 232.07,282.55 232.40,283.31 232.74,284.11 233.07,284.91 233.41,285.59 233.74,286.25 234.08,286.96 234.41,287.61 234.75,288.81 235.08,289.60 235.42,290.79 235.75,291.72 236.09,291.99 236.42,291.99 236.76,290.92 237.09,289.86 237.43,288.91 237.76,288.01 238.10,286.94 238.43,285.61 238.77,284.55 239.10,283.48 239.44,282.42 239.77,281.87 240.11,281.86 240.44,282.01 240.78,281.61 241.11,281.47 241.45,281.34 241.78,281.30 242.12,280.50 242.45,279.57 242.79,278.64 243.12,277.87 243.46,276.94 243.79,276.14 244.13,275.33 244.46,274.40 244.80,273.58 245.13,272.45 245.47,271.92 245.80,270.95 246.14,269.96 246.47,268.63 246.81,268.23 247.14,267.57 247.48,266.51 247.81,265.17 248.15,264.38 248.48,263.31 248.82,262.35 249.15,261.16 249.49,260.52 249.82,259.73 250.16,258.60 250.49,257.43 250.83,256.98 251.16,256.09 251.50,254.89 251.83,253.82 252.17,253.03 252.50,252.23 252.84,251.44 253.17,250.25 253.51,249.51 253.84,248.60 254.18,247.42 254.51,246.63 254.85,246.04 255.18,245.07 255.52,244.42 255.85,243.49 256.19,242.42 256.52,242.02 256.86,241.09 257.19,240.29 257.53,239.63 257.86,239.36 258.20,239.60 258.53,239.76 258.87,240.01 259.20,240.01 259.54,239.48 259.87,239.35 260.21,239.91 260.54,240.16 260.88,240.43 261.21,240.44 261.55,240.20 261.88,240.21 262.22,240.21 262.55,240.05 262.89,239.69 263.22,239.69 263.56,239.96 263.89,241.16 264.23,242.35 264.56,242.51 264.90,241.98 265.23,240.92 265.57,240.92 265.90,239.99 266.24,238.92 266.57,238.22 266.91,237.66 267.24,236.46 267.58,235.53 267.91,234.86 268.25,235.00 268.58,235.70 268.92,236.83 269.25,237.63 269.59,238.56 269.92,239.36 270.26,239.63 270.59,239.36 270.93,238.83 271.26,238.56 271.60,238.83 271.93,239.11 272.27,239.15 272.60,239.41 272.94,239.32 273.27,239.36 273.61,239.36 273.94,239.36 274.28,239.49 274.61,238.58 274.95,237.51 275.28,236.98 275.62,236.85 275.95,235.78 276.29,234.62 276.62,233.69 276.96,232.76 277.29,231.96 277.63,231.16 277.96,230.22 278.30,230.22 278.63,229.73 278.97,228.66 279.30,228.00 279.64,226.80 279.97,226.25 280.31,225.46 280.64,224.74 280.98,223.81 281.31,222.87 281.65,222.17 281.98,221.54 282.32,220.88 282.65,219.67 282.99,218.87 283.32,218.47 283.66,217.27 283.99,216.35 284.33,215.56 284.66,214.48 285.00,213.68 285.33,212.75 285.67,211.82 286.00,210.75 286.34,209.82 286.67,209.02 287.01,208.10 287.34,207.04 287.68,206.51 288.01,207.17 288.35,206.79 288.68,206.12 289.02,205.72 289.35,205.83 289.69,206.07 290.02,206.33 290.36,205.27 290.69,204.26 291.03,203.46 291.36,202.60 291.70,201.53 292.03,200.20 292.37,198.87 292.70,197.54 293.04,196.48 293.37,195.73 293.71,194.67 294.04,193.63 294.38,192.70 294.71,191.63 295.05,190.78 295.38,189.96 295.72,189.02 296.05,187.99 296.39,186.52 296.72,185.99 297.06,185.19 297.39,184.53 297.73,183.59 298.06,183.47 298.40,183.94 298.73,183.57 299.07,183.55 299.40,184.62 299.74,185.82 300.07,186.75 300.41,187.63 300.74,188.82 301.08,189.62 301.41,190.69 301.75,191.54 302.08,192.20 302.42,193.15 302.75,193.89 303.09,194.45 303.42,195.38 303.76,196.58 304.09,197.11 304.43,198.05 304.76,198.56 305.10,198.88 305.43,199.81 305.77,200.61 306.10,201.15 306.44,201.01 306.77,200.47 307.11,199.54 307.44,198.20 307.78,197.54 308.11,197.54 308.45,196.42 308.78,195.22 309.12,194.60 309.45,193.67 309.79,192.74 310.12,191.54 310.46,190.81 310.79,189.74 311.13,188.81 311.46,187.48 311.80,186.62 312.13,186.12 312.47,185.06 312.80,184.51 313.14,183.50 313.47,182.57 313.81,181.64 314.14,180.57 314.48,179.64 314.81,178.80 315.15,178.01 315.48,177.37 315.82,176.13 316.15,175.60 316.49,174.53 316.82,173.87 317.16,173.20 317.49,172.40 317.83,171.61 318.16,171.02 318.50,170.09 318.83,168.89 319.17,167.83 319.50,166.63 319.84,165.43 320.17,164.87 320.51,164.34 320.84,163.94 321.18,162.74 321.51,162.11 321.85,160.91 322.18,159.71 322.52,158.78 322.85,158.11 323.19,157.09 323.52,156.08 323.86,155.01 324.19,154.35 324.53,153.28 324.86,152.41 325.20,151.21 325.53,150.41 325.87,149.48 326.20,148.41 326.54,147.48 326.87,146.28 327.21,145.65 327.54,144.85 327.88,144.18 328.21,143.12 328.55,142.19 328.88,141.15 329.22,139.95 329.55,138.89 329.89,138.14 330.22,137.34 330.56,136.15 330.89,135.48 331.23,134.81 331.56,133.78 331.90,132.85 332.23,132.05 332.57,131.28 332.90,130.48 333.24,129.15 333.57,127.96 333.91,126.90 334.24,125.97 334.58,124.78 334.91,124.12 335.25,123.30 335.58,122.51 335.92,121.57 336.25,120.24 336.59,119.18 336.92,118.25 337.26,117.05 337.59,116.16 337.93,115.23 338.26,114.16 338.60,113.37 338.93,112.38 339.27,111.58 339.60,110.52 339.94,109.77 340.27,108.71 340.61,107.51 340.94,106.31 341.28,105.38 341.61,104.05 341.95,103.25 342.28,102.63 342.62,101.43 342.95,100.50 343.29,99.43 343.62,98.52 343.96,97.18 344.29,96.12 344.63,94.92 344.96,93.98 345.30,93.58 345.63,92.78 345.97,92.25 346.30,91.45 346.64,91.53 346.97,91.61 347.31,91.33 347.64,90.53 347.98,89.60 348.31,88.67 348.65,88.26 348.98,88.34 349.32,88.34 349.65,88.64 349.99,88.55 350.32,88.95 350.66,88.79 350.99,88.80 351.33,89.20 351.66,89.35 352.00,89.21 352.33,89.13 352.67,89.00 353.00,89.67 353.34,90.15 353.67,91.28 354.01,92.08 354.34,92.87 354.68,93.80 355.01,94.47 355.35,95.53 355.68,96.47 356.02,97.38 356.35,98.32 356.69,99.51 357.02,100.18 357.36,101.34 357.69,101.06 358.03,101.12 358.36,100.80 358.70,101.07 359.03,101.03 359.37,99.79 359.70,98.60 360.04,97.40 360.37,96.87 360.71,95.67 361.04,95.14 361.38,95.00 361.71,95.19 362.05,94.86 362.38,94.46 362.72,94.59 363.05,94.91 363.39,94.11 363.72,93.58 364.06,92.65 364.39,91.72 364.73,90.84 365.06,89.55 365.40,88.70 365.73,87.76 366.07,86.83 366.40,85.77 366.74,84.84 367.07,83.64 367.41,83.07 367.74,82.00 368.08,81.03 368.41,79.83 368.75,79.04 369.08,77.84 369.42,77.04 369.75,76.01 370.09,75.08 370.42,74.02 370.76,73.13 371.09,72.32 371.43,71.52 371.76,71.85 372.10,72.25 372.43,72.99 372.77,72.90 373.10,72.36 373.44,72.10 373.77,72.73 374.11,73.13 374.44,72.32 374.78,71.78 375.11,71.76 375.45,71.61 375.78,71.94 376.12,72.46 376.45,72.86 376.79,73.39 377.12,73.53 377.46,73.23 377.79,74.24 378.13,74.91 378.46,75.58 378.80,76.77 379.13,77.84 379.47,78.74 379.80,78.61 380.14,78.61 380.47,78.88 380.81,79.94 381.14,80.74 381.48,81.80 381.81,82.20 382.15,82.47 382.48,83.28 382.82,83.71 383.15,83.31 383.49,83.71 383.82,83.97 384.16,84.72 384.49,85.78 384.83,86.85 385.16,87.88 385.50,88.55 385.83,89.75 386.17,90.28 386.50,91.21 386.84,91.96 387.17,92.09 387.51,92.04 387.84,91.92 388.18,91.90 388.51,91.76 388.85,90.96 389.18,90.41 389.52,89.65 389.85,88.59 390.19,87.92 390.52,87.87 390.86,87.34 391.19,87.47 391.53,87.07 391.86,86.81 392.20,86.30 392.53,85.64 392.87,84.97 393.20,83.68 393.54,82.75 393.87,81.74 394.21,81.07 394.54,82.08 394.88,82.11 395.21,82.64 395.55,83.71 395.88,84.84 396.22,85.77 396.55,86.70 396.89,87.36 397.22,88.30 397.56,89.23 397.89,90.16 398.23,90.82 398.56,91.76 398.90,92.42 399.23,92.82 399.57,93.42 399.90,94.19 400.24,94.86 400.57,96.05 400.91,97.25 401.24,98.45 401.58,99.38 401.91,99.78 402.25,99.25 402.58,98.69 402.92,97.81 403.25,96.88 403.59,96.97 403.92,97.24 404.26,98.17 404.59,98.98 404.93,99.65 405.26,100.23 405.60,101.16 405.93,101.95 406.27,102.88 406.60,103.85 406.94,104.80 407.27,105.86 407.61,106.66 407.94,107.99 408.28,109.19 408.61,110.28 408.95,111.21 409.28,112.38 409.62,113.18 409.95,114.11 410.29,115.04 410.62,116.51 410.96,117.17 411.29,118.10 411.63,118.67 411.96,119.61 412.30,120.67 412.63,121.60 412.97,122.61 413.30,123.68 413.64,124.48 413.97,125.54 414.31,126.47 414.64,127.50 414.98,128.16 415.31,129.43 415.65,130.62 415.98,131.69 416.32,132.37 416.65,133.03 416.99,133.96 417.32,134.89 417.66,135.96 417.99,136.76 418.33,137.54 418.66,138.61 419.00,139.67 419.33,140.60 419.67,141.67 420.00,142.60 420.34,143.80 420.67,144.06 421.01,144.59 421.34,145.66 421.68,146.06 422.01,145.53 422.35,145.53 422.68,145.46 423.02,145.21 423.35,145.74 423.69,145.59 424.02,145.19 424.36,145.47 424.69,145.23 425.03,145.70 425.36,145.81 425.70,145.67 426.03,146.47 426.37,147.80 426.70,148.01 427.04,148.35 427.37,149.15 427.71,149.96 428.04,150.89 428.38,151.55 428.71,152.09 429.05,152.88 429.38,153.96 429.72,154.63 430.05,155.29 430.39,156.36 430.72,157.42 431.06,158.39 431.39,159.19 431.73,160.65 432.06,161.05 432.40,162.21 432.73,162.88 433.07,164.21 433.40,165.27 433.74,166.18 434.07,167.10 434.41,168.29 434.74,169.36 435.08,170.02 435.41,170.82 435.75,171.59 436.08,172.52 436.42,173.59 436.75,174.65 437.09,175.58 437.42,176.65 437.76,177.58 438.09,178.62 438.43,179.55 438.76,180.45 439.10,181.52 439.43,182.58 439.77,183.51 440.10,184.45 440.44,184.95 440.77,185.88 441.11,186.95 441.44,188.28 441.78,189.04 442.11,189.89 442.45,191.09 442.78,192.15 443.12,193.22 443.45,193.88 443.79,194.94 444.12,196.01 444.46,197.07 444.79,197.79 445.13,198.83 445.46,200.16 445.80,201.21 446.13,202.28 446.47,202.94 446.80,203.21 447.14,203.07 447.47,203.25 447.81,203.15 448.14,202.89 448.48,202.97 448.81,202.72 449.15,202.32 449.48,202.38 449.82,202.65 450.15,202.66 450.49,202.93 450.82,203.46 451.16,203.62 451.49,204.42 451.83,205.20 452.16,205.60 452.50,205.60 452.83,206.77 453.17,207.84 453.50,209.04 453.84,209.83 454.17,210.73 454.51,211.92 454.84,212.85 455.18,213.67 455.51,214.46 455.85,215.26 456.18,216.33 456.52,217.26 456.85,218.06 457.19,218.72 457.52,219.52 457.86,220.59 458.19,221.41 458.53,222.50 458.86,223.43 459.20,224.63 459.53,225.16 459.87,226.23 460.20,227.29 460.54,228.22 460.87,229.02 461.21,229.82 461.54,230.49 461.88,231.28 462.21,231.68 462.55,231.55 462.88,231.94 463.22,232.69 463.55,231.80 463.89,231.27 464.22,231.27 464.56,230.46 464.89,230.47 465.23,230.07 465.56,229.67 465.90,230.21 466.23,230.87 466.57,231.80 466.90,232.47 467.24,233.40 467.57,234.56 467.91,235.75 468.24,237.06 468.58,238.24 468.91,238.71 469.25,239.77 469.58,240.86 469.92,241.80 470.25,242.73 470.59,243.54 470.92,244.20 471.26,245.14 471.59,246.07 471.93,247.26 472.26,248.06 472.60,249.26 472.93,250.25 473.27,251.23 473.60,252.29 473.94,253.23 474.27,253.60 474.61,254.93 474.94,255.65 475.28,256.31 475.61,255.43 475.95,255.57 476.28,254.90 476.62,255.43 476.95,255.04 477.29,255.71 477.62,256.75 477.96,257.75 478.29,259.08 478.63,260.14 478.96,260.96 479.30,261.89 479.63,262.73 479.97,262.71 480.30,262.45 480.64,262.31 480.97,263.11 481.31,263.34 481.64,264.27 481.98,265.47 482.31,266.40 482.65,265.07 482.98,264.14 483.32,263.07 483.65,262.94 483.99,262.01 484.32,261.34 484.66,260.41 484.99,259.48 485.33,258.51 485.66,257.82 486.00,256.75 486.33,255.69 486.67,254.70 487.00,253.73 487.34,253.07 487.67,252.93 488.01,252.40 488.34,252.40 488.68,252.40 489.01,252.33 489.35,252.07 489.68,252.23 490.02,252.83 490.35,252.53 490.69,252.39 491.02,252.79 491.36,253.85 491.69,253.85 492.03,254.04 492.36,254.04 492.70,254.24 493.03,254.98 493.37,255.78 493.70,256.71 494.04,257.51 494.37,258.55 494.71,259.61 495.04,260.68 495.38,261.74 495.71,262.90 496.05,264.10 496.38,264.63 496.72,265.83 497.05,266.53 497.39,267.73 497.72,268.66 498.06,268.53 498.39,268.78 498.73,269.85 499.06,270.64 499.40,271.92 499.73,272.99 500.07,274.05 500.40,274.72 500.74,275.51 501.07,276.71 501.41,277.51 501.74,277.67 502.08,277.67 502.41,277.43 502.75,277.56 503.08,277.43 503.42,277.70 503.75,277.70 504.09,277.79 504.42,277.76 504.76,277.76 505.09,278.69 505.43,278.29 505.76,278.19 506.10,277.26 506.43,277.39 506.77,277.23 507.10,276.91 507.44,277.18 507.77,276.91 508.11,277.00 508.44,277.31 508.78,278.21 509.11,278.99 509.45,279.12 509.78,279.52 510.12,278.89 510.45,277.56 510.79,276.76 511.12,275.93 511.46,275.11 511.79,274.18 512.13,273.80 512.46,273.89 512.80,274.18 513.13,275.09 513.47,275.25 513.80,274.86 514.14,274.02 514.47,273.22 514.81,272.29 515.14,271.53 515.48,270.47 515.81,269.27 516.15,268.08 516.48,267.01 516.82,266.15 517.15,265.19 517.49,263.86 517.82,262.66 518.16,261.73 518.49,260.76 518.83,259.85 519.16,259.17 519.50,258.64 519.83,257.58 520.17,256.94 520.50,255.87 520.84,255.08 521.17,254.04 521.51,252.97 521.84,252.00 522.18,250.94 522.51,249.81 522.85,248.81 523.18,247.61 523.52,246.76 523.85,245.69 524.19,244.84 524.52,244.04 524.86,243.38 525.19,242.45 525.53,241.45 525.86,240.78 526.20,240.12 526.53,240.08 526.87,239.41 527.20,239.23 527.54,239.49 527.87,240.25 528.21,240.82 528.54,242.01 528.88,242.81 529.21,243.74 529.55,245.07 529.88,246.13 530.22,247.46 530.55,248.26 530.89,249.06 531.22,249.86 531.56,251.06 531.89,251.92 532.23,252.72 532.56,253.65 532.90,254.58 533.23,255.38 533.57,256.31 533.90,256.98 534.24,258.04 534.57,258.73 534.91,259.99 535.24,260.92 535.58,261.85 535.91,262.78 536.25,263.84 536.58,264.92 536.92,265.99 537.25,266.85 537.59,267.73 537.92,268.90 538.26,269.70 538.59,270.76 538.93,271.57 539.26,272.37 539.60,272.64 539.93,272.13 540.27,271.79 540.60,271.88 540.94,272.15 541.27,272.15 541.61,272.37 541.94,272.32 542.28,271.12 542.61,270.32 542.95,269.13 543.28,268.21 543.62,267.58 543.95,266.78 544.29,265.63 544.62,264.30 544.96,263.27 545.29,262.21 545.63,261.14 545.96,260.34 546.30,259.44 546.63,258.71 546.97,257.87 547.30,256.81 547.64,256.01 547.97,255.34 548.31,254.41 548.64,253.47 548.98,252.80 549.31,251.60 549.65,250.40 549.98,250.30 550.32,250.17 550.65,250.30 550.99,250.30 551.32,249.63 551.66,248.57 551.99,247.50 552.33,246.31 552.66,245.40 553.00,244.60 553.33,243.96 553.67,243.71 554.00,243.71 554.34,243.98 554.67,243.84 555.01,243.99 555.34,244.39 555.68,244.62 556.01,244.83 556.35,244.70 556.68,244.47 557.02,244.42 557.35,244.68 557.69,245.35 558.02,246.55 558.36,247.46 558.69,248.28 559.03,249.06 559.36,249.89 559.70,250.95 560.03,251.43 560.37,252.49 560.70,253.03 561.04,253.43 561.37,253.88 561.71,253.84 562.04,254.22 562.38,255.42 562.71,256.62 563.05,257.50 563.38,258.20 563.72,259.13 564.05,260.20 564.39,261.53 564.72,262.33 565.06,263.13 565.39,264.32 565.73,264.80 566.06,265.35 566.40,266.27 566.73,267.06 567.07,268.13 567.40,269.09 567.74,270.28 568.07,271.39 568.41,272.59 568.74,273.65 569.08,274.32 569.41,275.51 569.75,276.19 570.08,277.03 570.42,278.36 570.75,279.29 571.09,280.26 571.42,280.80 571.76,281.35 572.09,282.07 572.43,282.74 572.76,283.60 573.10,284.40 573.43,284.87 573.77,285.93 574.10,286.80 574.44,287.73 574.77,288.26 575.11,289.33 575.44,290.19 575.78,291.12 576.11,291.79 576.45,292.32 576.78,293.29 577.12,294.49 577.45,295.43 577.79,296.50 578.12,297.16 578.46,298.23 578.79,299.29 579.13,300.22 579.46,300.90 579.80,301.79 580.13,302.99 580.47,303.60 580.80,304.40 581.14,305.24 581.47,306.04 581.81,307.17 582.14,308.10 582.48,308.77 582.81,309.43 583.15,309.43 583.48,310.38 583.82,311.29 584.15,311.96 584.49,312.76 584.82,313.29 585.16,312.89 585.49,311.96 585.83,311.29 586.16,310.50 586.50,309.56 586.83,308.77 587.17,308.23 587.50,307.17 587.84,306.50 588.17,305.57 588.51,304.64 588.84,303.71 589.18,302.91 589.51,302.02 589.85,302.15 590.18,302.95 590.52,303.48 590.85,303.76 591.19,304.56 591.52,304.44 591.86,303.95 592.19,303.02 592.53,303.15 592.86,303.02 593.20,303.42 593.53,303.04 593.87,303.52 594.20,304.40 594.54,304.03 594.87,303.80 595.21,302.87 595.54,301.67 595.88,300.24 596.21,299.30 596.55,298.37 596.88,297.31 597.22,296.11 597.55,295.05 597.89,293.72 598.22,292.78 598.56,291.45 598.89,290.56 599.23,289.63 599.56,288.43 599.90,287.50 600.23,286.57 600.57,285.77 600.90,284.84 601.24,284.04 601.57,282.85 601.91,281.91 602.24,280.98 602.58,280.17 602.91,279.13 603.25,278.33 603.58,277.80 603.92,277.75 604.25,278.76 604.59,278.89 604.92,279.53 605.26,280.46 605.59,281.39 605.93,282.09 606.26,282.35 606.60,282.75 606.93,283.82 607.27,284.83 607.60,285.89 607.94,286.26 608.27,286.25 608.61,286.05 608.94,285.39 609.28,284.79 609.61,283.99 609.95,284.00 610.28,284.40 610.62,284.40 610.95,284.53 611.29,285.53 611.62,285.67 611.96,284.34 612.29,283.40 612.63,282.21 612.96,281.14 613.30,280.26 613.63,279.73 613.97,279.72 614.30,279.21 614.64,278.28 614.97,277.62 615.31,276.95 615.64,275.75 615.98,274.91 616.31,273.98 616.65,272.85 616.98,271.69 617.32,270.68 617.65,269.88 617.99,270.15 618.32,269.77 618.66,268.83 618.99,268.04 619.33,266.97 619.66,266.04 620.00,265.29 620.33,264.50 620.67,263.72 621.00,262.66 621.34,261.33 621.67,260.66 622.01,259.81 622.34,258.88 622.68,257.94 623.01,257.00 623.35,256.21 623.68,255.41 624.02,254.61 624.35,253.81 624.69,253.01 625.02,252.35 625.36,251.55 625.69,250.75 626.03,249.86 626.36,248.99 626.70,248.36 627.03,247.37 627.37,246.63 627.70,245.96 628.04,245.14 628.37,243.80 628.71,242.87 629.04,242.08 629.38,241.28 629.71,240.35 630.05,240.25 630.38,240.13 630.72,240.88 631.05,240.03 631.39,238.97 631.72,238.43 632.06,237.38 632.39,236.58 632.73,237.06 633.06,235.86 633.40,234.80 633.73,233.87 634.07,233.29 634.40,232.76 634.74,231.99 635.07,231.04 635.41,230.26 635.74,229.19 636.08,228.22 636.41,227.41 636.75,226.21 637.08,225.42 637.42,224.39 637.75,223.33 638.09,222.26 638.42,221.20 638.76,220.64 639.09,219.57 639.43,218.62 639.76,217.79 640.10,216.99 640.43,216.46 640.77,215.53 641.10,214.46 641.44,213.27 641.77,212.20 642.11,211.30 642.44,210.37 642.78,209.44 643.11,208.70 643.45,207.91 643.78,206.84 644.12,205.98 644.45,204.91 644.79,203.85 645.12,202.78 645.46,201.45 645.79,200.92 646.13,200.15 646.46,199.35 646.80,198.36 647.13,197.33 647.47,196.13 647.80,195.20 648.14,194.07 648.47,192.87 648.81,191.54 649.14,191.01 649.48,189.54 649.81,188.48 650.15,187.55 650.48,186.48 650.82,185.55 651.15,184.35 651.49,183.06 651.82,182.56 652.16,181.63 652.49,180.36 652.83,179.90 653.16,179.31 653.50,178.64 653.83,178.51 654.17,178.11 654.50,178.25 654.84,178.42 655.17,177.45 655.51,176.12 655.84,175.78 656.18,175.65 656.51,175.92 656.85,176.45 657.18,176.84 657.52,177.11 657.85,178.11 658.19,177.91 658.52,177.93 658.86,177.47 659.19,176.28 659.53,175.34 659.86,174.28 660.20,173.35 660.53,172.58 660.87,171.78 661.20,172.05 661.54,171.38 661.87,170.91 662.21,170.51 662.54,170.95 662.88,171.22 663.21,171.81 663.55,172.74 663.88,173.80 664.22,174.20 664.55,174.60 664.89,175.40 665.22,175.07 665.56,174.99 665.89,174.19 666.23,174.39 666.56,174.39 666.90,174.25 667.23,173.24 667.57,173.63 667.90,173.76 668.24,173.40 668.57,173.00 668.91,173.02 669.24,172.62 669.58,173.04 669.91,172.91 670.25,172.38 670.58,173.18 670.92,173.87 671.25,174.95 671.59,175.93 671.92,176.73 672.26,177.79 672.59,178.99 672.93,180.29 673.26,181.23 673.60,182.28 673.93,182.81 674.27,183.77 674.60,184.29 674.94,185.35 675.27,184.55 675.61,183.81 675.94,183.14 676.28,183.14 676.61,183.33 676.95,183.77 677.28,183.77 677.62,183.10 677.95,182.57 678.29,182.97 678.62,182.76 678.96,182.76 679.29,183.02 679.63,183.95 679.96,185.28 680.30,185.98 680.63,186.77 680.97,187.84 681.30,188.78 681.64,189.84 681.97,190.23 682.31,190.90 682.64,191.94 682.98,192.87 683.31,194.07 683.65,195.45 683.98,196.33 684.32,197.11 684.65,198.31 684.99,199.11 685.32,200.17 685.66,201.39 685.99,202.32 686.33,203.11 686.66,204.15 687.00,204.55 687.33,205.75 687.67,206.80 688.00,207.47 688.34,208.53 688.67,209.33 689.01,210.39 689.34,211.63 689.68,212.43 690.01,213.36 690.35,214.16 690.68,215.22 691.02,216.15 691.35,216.95 691.69,217.72 692.02,218.39 692.36,219.59 692.69,219.81 693.03,220.08 693.36,221.10 693.70,221.14 694.03,220.60 694.37,220.41 694.70,221.02 695.04,220.76 695.37,220.68 695.71,219.53 696.04,218.66 696.38,217.72 696.71,217.06 697.05,216.79 697.38,216.15 697.72,215.08 698.05,213.75 698.39,213.03 698.72,212.23 699.06,211.17 699.39,210.38 699.73,209.45 700.06,208.88 700.40,207.68 700.73,206.61 701.07,205.64 701.40,204.98 701.74,204.23 702.07,203.83 702.41,204.27 702.74,204.27 703.08,203.47 703.41,202.78 703.75,202.14 704.08,202.41 704.42,203.02 704.75,202.76 705.09,203.69 705.42,204.09 705.76,204.70 706.09,204.43 706.43,204.30 706.76,203.29 707.10,202.56 707.43,201.37 707.77,200.37 708.10,199.24 708.44,198.84 708.77,197.78 709.11,197.31 709.44,197.58 709.78,197.45 710.11,197.18 710.45,197.14 710.78,196.61 711.12,197.41 711.45,198.60 711.79,199.93 712.12,200.99 712.46,201.20 712.79,202.13 713.13,203.27 713.46,204.47 713.80,205.14 714.13,206.20 714.47,207.27 714.80,207.93 715.14,208.46 715.47,209.13 715.81,209.89 716.14,211.09 716.48,211.62 716.81,212.15 717.15,212.36 717.48,212.50 717.82,212.50 718.15,212.76 718.49,212.76 718.82,213.56 719.16,214.62 719.49,215.82 719.83,216.34 720.16,215.66 720.50,215.10 720.83,214.19 721.17,215.01 721.50,215.32 721.84,215.14 722.17,214.88 722.51,214.61 722.84,214.74 723.18,214.48 723.51,213.99 723.85,212.95 724.18,211.75 724.52,211.91 724.85,211.51 725.19,212.20 725.52,212.20 725.86,211.94 726.19,212.07 726.53,211.94 726.86,212.42 727.20,211.74 727.53,211.17 727.87,210.10 728.20,209.17 728.54,209.50 728.87,210.17 729.21,210.03 729.54,210.57 729.88,211.23 730.21,211.90 730.55,212.42 730.88,213.61 731.22,213.31 731.55,213.17 731.89,212.99 732.22,212.76 732.56,212.50 732.89,212.58 733.23,212.51 733.56,212.51 733.90,211.98 734.23,211.15 734.57,210.35 734.90,209.55 735.24,209.16 735.57,208.89 735.91,208.22 736.24,207.29 736.58,207.21 736.91,207.65 737.25,208.85 737.58,209.91 737.92,210.98 738.25,211.78 738.59,212.97 738.92,213.72 739.26,213.45 739.59,213.87 739.93,214.66 740.26,215.86 740.60,216.26 740.93,216.67 741.27,217.61 741.60,218.94 741.94,219.73 742.27,221.06 742.61,222.01 742.94,223.07 743.28,224.22 743.61,225.28 743.95,226.35 744.28,226.89 744.62,227.43 744.95,228.36 745.29,229.65 745.62,229.91 745.96,229.14 746.29,228.21 746.63,227.68 746.96,226.75 747.30,225.74 747.63,224.83 747.97,224.17 748.30,223.37 748.64,222.48 748.97,221.58 749.31,220.65 749.64,219.72 749.98,219.06 750.31,218.14 750.65,217.42 750.98,216.66 751.32,216.79 751.65,216.49 751.99,215.42 752.32,214.76 752.66,213.83 752.99,212.55 753.33,212.55 753.66,212.55 754.00,212.85 754.33,212.76 754.67,213.61 755.00,214.41"/>
<line x1="783" y1="58" x2="809" y2="58" stroke="#2563eb" stroke-width="3"/>
<text x="817" y="62" font-family="Arial" font-size="13" fill="#111827">Naive</text>
<polyline fill="none" stroke="#dc2626" stroke-width="2" points="85.00,351.07 85.34,351.07 85.67,350.63 86.01,350.96 86.34,352.02 86.68,353.02 87.01,354.07 87.35,355.00 87.68,355.80 88.02,356.64 88.35,356.91 88.69,357.16 89.02,357.24 89.36,356.97 89.69,356.31 90.03,355.64 90.36,355.30 90.70,355.20 91.03,355.60 91.37,355.20 91.70,354.80 92.04,354.27 92.37,355.14 92.71,355.40 93.04,355.00 93.38,354.92 93.71,355.32 94.05,354.66 94.38,353.79 94.72,353.55 95.05,352.62 95.39,351.69 95.72,350.49 96.06,349.70 96.39,348.47 96.73,347.81 97.06,346.87 97.40,345.89 97.73,345.36 98.07,344.29 98.40,343.36 98.74,342.83 99.07,341.90 99.41,340.70 99.74,339.50 100.08,339.48 100.41,340.29 100.75,341.35 101.08,342.38 101.42,343.32 101.75,344.40 102.09,344.93 102.42,346.13 102.76,347.18 103.09,348.24 103.43,347.22 103.76,346.55 104.10,346.06 104.43,345.36 104.77,345.22 105.10,344.83 105.44,345.09 105.77,345.76 106.11,346.55 106.44,347.45 106.78,348.11 107.11,349.31 107.45,349.35 107.78,348.28 108.12,348.43 108.45,348.24 108.79,347.85 109.12,346.91 109.46,346.66 109.79,345.77 110.13,344.81 110.46,344.28 110.80,344.15 111.13,344.15 111.47,344.73 111.80,345.26 112.14,345.21 112.47,345.40 112.81,345.80 113.14,346.06 113.48,346.06 113.81,346.04 114.15,346.34 114.48,346.61 114.82,346.87 115.15,346.85 115.49,346.85 115.82,347.19 116.16,347.19 116.49,347.99 116.83,349.06 117.16,350.12 117.50,351.05 117.83,351.98 118.17,353.05 118.50,353.99 118.84,355.06 119.17,355.86 119.51,356.65 119.84,357.35 120.18,358.28 120.51,359.21 120.85,360.21 121.18,361.14 121.52,361.95 121.85,363.01 122.19,363.91 122.52,364.84 122.86,365.62 123.19,366.15 123.53,367.01 123.86,367.67 124.20,368.87 124.53,369.67 124.87,370.83 125.20,371.62 125.54,372.08 125.87,372.74 126.21,371.81 126.54,371.01 126.88,369.95 127.21,369.02 127.55,368.48 127.88,367.67 128.22,366.87 128.55,365.68 128.89,365.01 129.22,364.65 129.56,363.72 129.89,362.80 130.23,361.74 130.56,360.41 130.90,359.34 131.23,358.01 131.57,358.01 131.90,357.33 132.24,357.43 132.57,357.16 132.91,357.90 133.24,358.84 133.58,359.77 133.91,359.37 134.25,359.86 134.58,359.86 134.92,360.66 135.25,360.45 135.59,360.86 135.92,360.99 136.26,360.95 136.59,361.09 136.93,361.75 137.26,361.60 137.60,361.60 137.93,360.54 138.27,360.81 138.60,360.54 138.94,360.73 139.27,360.73 139.61,361.43 139.94,362.10 140.28,362.79 140.61,363.91 140.95,364.84 141.28,365.50 141.62,366.57 141.95,367.76 142.29,368.56 142.62,369.49 142.96,370.56 143.29,371.36 143.63,372.29 143.96,373.09 144.30,374.02 144.63,374.59 144.97,375.40 145.30,375.67 145.64,376.87 145.97,377.93 146.31,379.00 146.64,379.53 146.98,378.78 147.31,379.18 147.65,379.98 147.98,380.25 148.32,380.19 148.65,379.73 148.99,380.21 149.32,380.47 149.66,381.40 149.99,382.60 150.33,383.32 150.66,382.52 151.00,382.51 151.33,382.12 151.67,382.52 152.00,382.26 152.34,383.19 152.67,383.85 153.01,383.53 153.34,382.96 153.68,382.69 154.01,382.83 154.35,383.71 154.68,383.40 155.02,383.68 155.35,383.95 155.69,385.28 156.02,386.21 156.36,387.01 156.69,387.09 157.03,386.98 157.36,387.78 157.70,388.71 158.03,389.29 158.37,390.62 158.70,391.42 159.04,391.96 159.37,393.02 159.71,393.78 160.04,394.84 160.38,394.68 160.71,394.55 161.05,394.28 161.38,393.62 161.72,392.66 162.05,392.00 162.39,390.94 162.72,389.61 163.06,388.74 163.39,387.67 163.73,387.84 164.06,388.11 164.40,387.98 164.73,388.18 165.07,387.31 165.40,386.38 165.74,385.45 166.07,384.38 166.41,383.32 166.74,382.65 167.08,381.59 167.41,380.53 167.75,379.46 168.08,378.57 168.42,377.64 168.75,376.57 169.09,375.51 169.42,374.58 169.76,373.62 170.09,372.69 170.43,371.56 170.76,370.76 171.10,369.96 171.43,369.43 171.77,368.50 172.10,367.61 172.44,366.67 172.77,365.61 173.11,364.81 173.44,363.76 173.78,362.70 174.11,361.90 174.45,361.10 174.78,360.43 175.12,359.38 175.45,358.42 175.79,357.36 176.12,356.29 176.46,355.42 176.79,354.35 177.13,353.55 177.46,352.40 177.80,351.68 178.13,350.75 178.47,349.76 178.80,349.08 179.14,348.40 179.47,347.47 179.81,346.81 180.14,345.74 180.48,344.67 180.81,343.60 181.15,342.54 181.48,341.83 181.82,340.90 182.15,340.10 182.49,339.05 182.82,338.12 183.16,337.07 183.49,336.40 183.83,335.20 184.16,334.39 184.50,333.37 184.83,332.64 185.17,331.72 185.50,330.64 185.84,329.44 186.17,328.64 186.51,327.85 186.84,326.86 187.18,325.66 187.51,324.63 187.85,323.83 188.18,323.06 188.52,322.12 188.85,321.33 189.19,320.66 189.52,319.60 189.86,318.53 190.19,317.69 190.53,317.29 190.86,316.10 191.20,315.30 191.53,314.10 191.87,312.90 192.20,311.84 192.54,310.93 192.87,310.00 193.21,309.34 193.54,308.42 193.88,307.35 194.21,306.42 194.55,305.63 194.88,304.99 195.22,303.75 195.55,302.42 195.89,301.50 196.22,300.57 196.56,299.77 196.89,300.13 197.23,300.66 197.56,301.46 197.90,301.73 198.23,301.99 198.57,300.93 198.90,300.26 199.24,299.33 199.57,298.31 199.91,297.51 200.24,296.71 200.58,296.04 200.91,295.91 201.25,296.44 201.58,296.44 201.92,295.78 202.25,294.85 202.59,294.05 202.92,293.52 203.26,292.32 203.59,291.39 203.93,290.46 204.26,289.39 204.60,288.46 204.93,287.26 205.27,286.20 205.60,285.13 205.94,284.18 206.27,283.11 206.61,282.05 206.94,281.25 207.28,279.92 207.61,278.72 207.95,277.78 208.28,276.71 208.62,275.63 208.95,275.90 209.29,275.51 209.62,275.74 209.96,276.40 210.29,275.07 210.63,275.87 210.96,275.82 211.30,275.41 211.63,274.94 211.97,274.68 212.30,274.36 212.64,274.41 212.97,274.54 213.31,276.01 213.64,276.48 213.98,276.71 214.31,276.98 214.65,276.98 214.98,277.24 215.32,277.38 215.65,276.31 215.99,275.61 216.32,274.94 216.66,274.81 216.99,274.53 217.33,275.06 217.66,273.88 218.00,273.34 218.33,272.41 218.67,273.17 219.00,273.12 219.34,273.92 219.67,274.00 220.01,274.25 220.34,273.36 220.68,272.44 221.01,271.73 221.35,270.80 221.68,271.20 222.02,272.20 222.35,273.00 222.69,273.93 223.02,274.33 223.36,274.91 223.69,275.98 224.03,277.31 224.36,278.15 224.70,279.08 225.03,280.02 225.37,281.04 225.70,282.23 226.04,283.12 226.37,283.94 226.71,284.87 227.04,285.92 227.38,286.86 227.71,287.79 228.05,288.85 228.38,289.37 228.72,290.79 229.05,291.65 229.39,292.19 229.72,292.85 230.06,293.72 230.39,294.65 230.73,295.85 231.06,296.79 231.40,297.72 231.73,298.83 232.07,299.89 232.40,300.65 232.74,301.58 233.07,302.38 233.41,303.32 233.74,303.99 234.08,304.85 234.41,305.65 234.75,306.85 235.08,307.65 235.42,308.83 235.75,309.76 236.09,310.16 236.42,310.96 236.76,310.30 237.09,309.23 237.43,308.29 237.76,307.35 238.10,306.29 238.43,304.96 238.77,303.90 239.10,302.96 239.44,302.56 239.77,302.96 240.11,303.35 240.44,304.43 240.78,304.16 241.11,304.29 241.45,304.56 241.78,305.45 242.12,304.51 242.45,303.58 242.79,302.64 243.12,302.01 243.46,301.11 243.79,300.32 244.13,299.50 244.46,298.71 244.80,297.89 245.13,296.76 245.47,296.23 245.80,295.26 246.14,294.28 246.47,292.94 246.81,292.55 247.14,291.88 247.48,290.82 247.81,289.48 248.15,288.69 248.48,287.62 248.82,286.66 249.15,285.47 249.49,284.83 249.82,284.04 250.16,282.91 250.49,281.74 250.83,281.29 251.16,280.40 251.50,279.20 251.83,278.13 252.17,277.34 252.50,276.54 252.84,275.75 253.17,274.56 253.51,273.82 253.84,272.91 254.18,271.73 254.51,270.94 254.85,270.35 255.18,269.38 255.52,268.73 255.85,267.80 256.19,266.73 256.52,266.07 256.86,265.13 257.19,264.34 257.53,264.70 257.86,265.76 258.20,266.48 258.53,267.58 258.87,268.63 259.20,269.57 259.54,270.23 259.87,271.16 260.21,272.23 260.54,273.07 260.88,274.13 261.21,274.93 261.55,275.35 261.88,276.11 262.22,277.18 262.55,278.07 262.89,278.91 263.22,279.70 263.56,280.50 263.89,281.70 264.23,283.03 264.56,283.83 264.90,283.96 265.23,284.00 265.57,284.67 265.90,284.67 266.24,284.61 266.57,285.01 266.91,285.65 267.24,285.03 267.58,284.76 267.91,285.27 268.25,285.80 268.58,286.64 268.92,287.77 269.25,288.57 269.59,289.50 269.92,290.30 270.26,291.63 270.59,291.89 270.93,292.35 271.26,292.59 271.60,293.38 271.93,293.72 272.27,293.98 272.60,294.78 272.94,295.22 273.27,295.63 273.61,296.16 273.94,296.51 274.28,296.64 274.61,296.64 274.95,296.10 275.28,296.67 275.62,297.48 275.95,296.82 276.29,295.93 276.62,294.97 276.96,294.04 277.29,293.24 277.63,292.57 277.96,292.04 278.30,292.44 278.63,292.56 278.97,291.63 279.30,291.09 279.64,290.16 279.97,289.88 280.31,290.55 280.64,290.95 280.98,290.28 281.31,289.35 281.65,288.65 281.98,288.38 282.32,288.38 282.65,287.17 282.99,286.37 283.32,285.97 283.66,284.77 283.99,283.86 284.33,283.06 284.66,281.98 285.00,281.18 285.33,280.25 285.67,279.32 286.00,278.39 286.34,277.59 286.67,276.66 287.01,275.99 287.34,275.17 287.68,275.57 288.01,276.51 288.35,277.58 288.68,278.43 289.02,279.09 289.35,279.86 289.69,280.66 290.02,281.70 290.36,281.04 290.69,280.20 291.03,280.06 291.36,279.84 291.70,279.33 292.03,278.40 292.37,278.39 292.70,277.06 293.04,275.99 293.37,275.25 293.71,274.45 294.04,273.41 294.38,272.48 294.71,271.42 295.05,270.56 295.38,269.87 295.72,269.61 296.05,269.37 296.39,268.99 296.72,269.66 297.06,270.32 297.39,270.46 297.73,270.86 298.06,271.93 298.40,273.20 298.73,274.00 299.07,274.91 299.40,275.98 299.74,277.18 300.07,278.11 300.41,278.91 300.74,280.10 301.08,280.90 301.41,281.97 301.75,282.82 302.08,283.48 302.42,284.43 302.75,285.17 303.09,285.73 303.42,286.53 303.76,287.73 304.09,288.26 304.43,289.33 304.76,290.14 305.10,291.33 305.43,292.40 305.77,293.20 306.10,294.05 306.44,294.31 306.77,294.30 307.11,293.64 307.44,292.57 307.78,292.70 308.11,293.24 308.45,291.99 308.78,290.79 309.12,290.16 309.45,289.23 309.79,288.30 310.12,287.10 310.46,286.37 310.79,285.31 311.13,284.38 311.46,283.04 311.80,282.18 312.13,281.69 312.47,280.62 312.80,279.92 313.14,278.91 313.47,278.07 313.81,277.03 314.14,275.83 314.48,274.90 314.81,273.97 315.15,273.17 315.48,272.53 315.82,271.30 316.15,270.76 316.49,269.70 316.82,268.90 317.16,268.23 317.49,267.30 317.83,266.51 318.16,265.92 318.50,264.99 318.83,263.79 319.17,262.99 319.50,263.26 319.84,262.46 320.17,263.07 320.51,263.75 320.84,264.82 321.18,264.15 321.51,265.35 321.85,264.95 322.18,263.86 322.52,262.93 322.85,262.37 323.19,261.34 323.52,260.33 323.86,259.27 324.19,258.60 324.53,257.54 324.86,256.66 325.20,255.46 325.53,254.66 325.87,253.73 326.20,252.67 326.54,251.74 326.87,250.54 327.21,249.83 327.54,249.03 327.88,248.37 328.21,247.30 328.55,246.37 328.88,245.47 329.22,244.34 329.55,243.27 329.89,242.47 330.22,241.68 330.56,240.48 330.89,239.81 331.23,238.88 331.56,237.84 331.90,236.91 332.23,236.11 332.57,235.34 332.90,234.68 333.24,233.35 333.57,232.16 333.91,231.10 334.24,230.30 334.58,229.11 334.91,228.45 335.25,227.64 335.58,226.84 335.92,225.91 336.25,224.58 336.59,223.51 336.92,222.85 337.26,221.65 337.59,220.76 337.93,219.83 338.26,218.76 338.60,217.96 338.93,216.98 339.27,216.18 339.60,215.12 339.94,214.37 340.27,213.31 340.61,212.11 340.94,210.91 341.28,209.98 341.61,208.65 341.95,207.85 342.28,207.23 342.62,206.03 342.95,205.10 343.29,204.03 343.62,203.11 343.96,201.78 344.29,200.72 344.63,199.92 344.96,200.81 345.30,202.01 345.63,203.11 345.97,204.09 346.30,205.06 346.64,206.12 346.97,207.32 347.31,208.40 347.64,209.46 347.98,210.39 348.31,210.79 348.65,211.95 348.98,213.05 349.32,213.99 349.65,215.05 349.99,215.98 350.32,217.18 350.66,218.00 350.99,218.95 351.33,220.15 351.66,221.09 352.00,222.16 352.33,222.63 352.67,223.70 353.00,224.90 353.34,225.64 353.67,226.77 354.01,227.69 354.34,228.49 354.68,229.55 355.01,230.22 355.35,231.28 355.68,232.22 356.02,233.13 356.35,234.06 356.69,235.26 357.02,235.93 357.36,237.09 357.69,238.18 358.03,239.21 358.36,240.24 358.70,241.17 359.03,241.66 359.37,240.82 359.70,239.76 360.04,238.56 360.37,238.16 360.71,238.96 361.04,240.03 361.38,241.09 361.71,242.29 362.05,243.11 362.38,244.04 362.72,244.84 363.05,245.69 363.39,245.96 363.72,246.23 364.06,245.56 364.39,244.63 364.73,243.75 365.06,242.59 365.40,242.01 365.73,241.21 366.07,240.58 366.40,240.66 366.74,240.41 367.07,240.94 367.41,241.50 367.74,241.50 368.08,240.66 368.41,239.87 368.75,240.40 369.08,240.00 369.42,240.53 369.75,241.46 370.09,242.53 370.42,243.46 370.76,243.99 371.09,244.38 371.43,244.44 371.76,245.51 372.10,246.31 372.43,247.50 372.77,248.48 373.10,249.27 373.44,250.46 373.77,251.52 374.11,252.72 374.44,253.09 374.78,253.49 375.11,254.20 375.45,255.12 375.78,256.25 376.12,256.90 376.45,257.70 376.79,258.63 377.12,259.56 377.46,260.33 377.79,261.34 378.13,262.14 378.46,262.81 378.80,264.00 379.13,265.07 379.47,266.11 379.80,266.97 380.14,267.64 380.47,268.43 380.81,269.50 381.14,270.30 381.48,271.36 381.81,272.05 382.15,272.99 382.48,273.80 382.82,274.79 383.15,275.13 383.49,276.33 383.82,277.12 384.16,278.00 384.49,279.07 384.83,280.13 385.16,281.17 385.50,281.83 385.83,283.03 386.17,283.79 386.50,284.72 386.84,285.92 387.17,286.85 387.51,287.44 387.84,288.34 388.18,288.87 388.51,289.13 388.85,288.86 389.18,289.29 389.52,288.86 389.85,287.79 390.19,287.26 390.52,287.65 390.86,287.91 391.19,288.58 391.53,288.71 391.86,288.98 392.20,289.14 392.53,288.87 392.87,289.13 393.20,288.10 393.54,287.30 393.87,286.30 394.21,286.17 394.54,287.37 394.88,288.35 395.21,289.02 395.55,290.08 395.88,291.28 396.22,292.21 396.55,293.14 396.89,293.81 397.22,294.74 397.56,295.67 397.89,296.60 398.23,297.27 398.56,298.20 398.90,299.26 399.23,300.20 399.57,300.93 399.90,301.59 400.24,302.52 400.57,303.72 400.91,304.92 401.24,306.12 401.58,306.92 401.91,307.73 402.25,307.73 402.58,307.46 402.92,306.72 403.25,306.45 403.59,306.68 403.92,307.21 404.26,308.27 404.59,309.07 404.93,309.87 405.26,310.46 405.60,311.39 405.93,312.17 406.27,313.10 406.60,314.07 406.94,315.02 407.27,316.08 407.61,316.88 407.94,318.21 408.28,319.41 408.61,320.50 408.95,321.43 409.28,322.60 409.62,323.40 409.95,324.33 410.29,325.27 410.62,326.73 410.96,327.39 411.29,328.33 411.63,328.90 411.96,329.83 412.30,330.89 412.63,331.82 412.97,332.84 413.30,333.90 413.64,334.70 413.97,335.76 414.31,336.69 414.64,337.72 414.98,338.38 415.31,339.65 415.65,340.85 415.98,341.91 416.32,342.59 416.65,343.25 416.99,344.05 417.32,344.98 417.66,345.92 417.99,346.71 418.33,347.51 418.66,348.31 419.00,349.38 419.33,350.31 419.67,351.37 420.00,352.30 420.34,353.37 420.67,353.23 421.01,353.37 421.34,354.43 421.68,354.83 422.01,354.30 422.35,354.30 422.68,354.23 423.02,353.83 423.35,354.23 423.69,354.09 424.02,353.69 424.36,353.97 424.69,353.73 425.03,354.19 425.36,354.17 425.70,353.95 426.03,354.57 426.37,355.76 426.70,355.98 427.04,356.18 427.37,357.11 427.71,357.92 428.04,358.85 428.38,359.51 428.71,360.18 429.05,360.98 429.38,362.06 429.72,362.72 430.05,363.61 430.39,364.68 430.72,365.74 431.06,366.71 431.39,367.68 431.73,369.15 432.06,369.55 432.40,370.61 432.73,371.28 433.07,372.61 433.40,373.67 433.74,374.58 434.07,375.63 434.41,376.96 434.74,378.02 435.08,378.82 435.41,379.85 435.75,380.62 436.08,381.55 436.42,382.61 436.75,383.41 437.09,384.34 437.42,385.41 437.76,386.34 438.09,387.40 438.43,388.34 438.76,389.24 439.10,390.31 439.43,391.37 439.77,392.30 440.10,393.23 440.44,393.74 440.77,394.67 441.11,395.73 441.44,397.06 441.78,397.82 442.11,398.67 442.45,399.87 442.78,400.94 443.12,402.00 443.45,402.67 443.79,403.73 444.12,404.80 444.46,405.86 444.79,406.58 445.13,407.62 445.46,408.95 445.80,410.00 446.13,411.06 446.47,411.86 446.80,411.30 447.14,410.90 447.47,410.81 447.81,410.14 448.14,409.48 448.48,409.16 448.81,408.91 449.15,408.15 449.48,407.95 449.82,408.08 450.15,407.56 450.49,406.90 450.82,407.03 451.16,406.75 451.49,407.15 451.83,407.94 452.16,407.40 452.50,407.14 452.83,407.88 453.17,408.95 453.50,410.14 453.84,410.94 454.17,411.83 454.51,413.03 454.84,413.96 455.18,414.78 455.51,415.57 455.85,415.87 456.18,416.13 456.52,416.66 456.85,417.46 457.19,418.13 457.52,418.66 457.86,419.06 458.19,419.75 458.53,420.84 458.86,421.77 459.20,422.97 459.53,423.50 459.87,424.57 460.20,425.63 460.54,426.56 460.87,427.36 461.21,428.16 461.54,428.83 461.88,429.23 462.21,428.93 462.55,428.40 462.88,428.13 463.22,427.96 463.55,426.80 463.89,425.61 464.22,425.21 464.56,424.14 464.89,423.48 465.23,422.81 465.56,421.80 465.90,421.67 466.23,421.53 466.57,422.33 466.90,423.00 467.24,424.06 467.57,425.22 467.91,426.29 468.24,427.59 468.58,428.11 468.91,427.78 469.25,428.84 469.58,429.93 469.92,430.20 470.25,430.45 470.59,430.60 470.92,431.26 471.26,431.13 471.59,432.06 471.93,432.99 472.26,433.79 472.60,434.99 472.93,435.97 473.27,436.96 473.60,437.89 473.94,438.82 474.27,439.06 474.61,439.23 474.94,438.98 475.28,438.54 475.61,437.61 475.95,437.21 476.28,436.01 476.62,435.61 476.95,434.81 477.29,434.97 477.62,436.01 477.96,437.01 478.29,438.34 478.63,439.40 478.96,440.22 479.30,440.48 479.63,440.23 479.97,439.18 480.30,438.78 480.64,437.85 480.97,437.58 481.31,436.61 481.64,436.88 481.98,437.78 482.31,437.12 482.65,435.79 482.98,434.85 483.32,433.66 483.65,433.12 483.99,432.19 484.32,431.53 484.66,430.60 484.99,429.66 485.33,428.69 485.66,428.00 486.00,426.94 486.33,425.87 486.67,424.75 487.00,423.78 487.34,422.99 487.67,422.05 488.01,421.26 488.34,420.99 488.68,420.72 489.01,420.46 489.35,420.06 489.68,419.66 490.02,419.71 490.35,419.29 490.69,418.34 491.02,417.89 491.36,417.76 491.69,417.49 492.03,417.41 492.36,417.01 492.70,416.94 493.03,417.34 493.37,418.14 493.70,419.07 494.04,419.87 494.37,420.91 494.71,421.97 495.04,423.04 495.38,423.97 495.71,424.99 496.05,426.02 496.38,426.22 496.72,427.42 497.05,427.72 497.39,428.12 497.72,428.65 498.06,427.99 498.39,427.19 498.73,427.72 499.06,428.25 499.40,429.53 499.73,429.80 500.07,430.06 500.40,429.93 500.74,430.06 501.07,431.26 501.41,431.79 501.74,431.39 502.08,430.60 502.41,429.66 502.75,428.99 503.08,428.64 503.42,428.11 503.75,427.71 504.09,427.14 504.42,426.87 504.76,426.74 505.09,426.74 505.43,426.34 505.76,425.97 506.10,424.90 506.43,424.37 506.77,423.81 507.10,423.21 507.44,423.13 507.77,422.20 508.11,422.03 508.44,421.52 508.78,421.30 509.11,421.53 509.45,421.00 509.78,420.74 510.12,420.11 510.45,418.78 510.79,417.85 511.12,417.01 511.46,416.20 511.79,415.27 512.13,414.55 512.46,413.98 512.80,413.78 513.13,414.04 513.47,413.54 513.80,412.75 514.14,411.91 514.47,411.12 514.81,410.18 515.14,409.43 515.48,408.36 515.81,407.16 516.15,405.97 516.48,404.90 516.82,404.04 517.15,403.08 517.49,401.75 517.82,400.55 518.16,399.62 518.49,398.69 518.83,397.78 519.16,397.10 519.50,396.57 519.83,395.51 520.17,394.87 520.50,393.80 520.84,393.01 521.17,391.93 521.51,390.86 521.84,389.89 522.18,388.83 522.51,387.70 522.85,386.70 523.18,385.50 523.52,384.65 523.85,383.59 524.19,382.73 524.52,381.94 524.86,381.27 525.19,380.34 525.53,379.34 525.86,378.68 526.20,378.01 526.53,377.74 526.87,376.95 527.20,376.63 527.54,376.89 527.87,377.65 528.21,378.22 528.54,379.41 528.88,380.21 529.21,381.14 529.55,382.47 529.88,383.53 530.22,384.86 530.55,385.66 530.89,386.46 531.22,387.26 531.56,388.46 531.89,389.32 532.23,390.12 532.56,391.05 532.90,391.98 533.23,392.78 533.57,393.71 533.90,394.38 534.24,395.44 534.57,396.13 534.91,397.38 535.24,398.32 535.58,399.25 535.91,400.18 536.25,401.24 536.58,402.32 536.92,403.39 537.25,404.25 537.59,404.86 537.92,405.19 538.26,405.99 538.59,407.19 538.93,407.87 539.26,407.87 539.60,407.60 539.93,406.75 540.27,406.14 540.60,405.97 540.94,405.97 541.27,405.57 541.61,405.65 541.94,405.19 542.28,404.00 542.61,403.07 542.95,401.87 543.28,400.95 543.62,400.32 543.95,399.53 544.29,398.37 544.62,397.04 544.96,396.01 545.29,394.95 545.63,393.88 545.96,393.09 546.30,392.18 546.63,391.45 546.97,390.61 547.30,389.55 547.64,388.75 547.97,388.08 548.31,387.15 548.64,386.19 548.98,385.53 549.31,384.33 549.65,383.13 549.98,382.49 550.32,382.36 550.65,382.36 550.99,382.10 551.32,381.43 551.66,380.37 551.99,379.30 552.33,378.10 552.66,377.20 553.00,376.40 553.33,375.76 553.67,375.24 554.00,375.24 554.34,375.11 554.67,374.98 555.01,374.99 555.34,375.39 555.68,375.35 556.01,375.56 556.35,375.43 556.68,375.20 557.02,375.15 557.35,375.42 557.69,376.08 558.02,377.28 558.36,378.20 558.69,379.01 559.03,379.79 559.36,380.62 559.70,381.68 560.03,382.03 560.37,383.09 560.70,383.23 561.04,383.49 561.37,383.68 561.71,383.39 562.04,383.51 562.38,384.30 562.71,385.50 563.05,386.38 563.38,387.09 563.72,388.02 564.05,388.95 564.39,390.28 564.72,391.08 565.06,391.88 565.39,393.07 565.73,393.55 566.06,394.10 566.40,395.02 566.73,395.81 567.07,396.88 567.40,397.84 567.74,399.03 568.07,400.14 568.41,401.34 568.74,402.40 569.08,403.07 569.41,404.26 569.75,404.94 570.08,405.78 570.42,407.11 570.75,408.04 571.09,409.01 571.42,409.55 571.76,410.10 572.09,410.82 572.43,411.49 572.76,412.35 573.10,413.15 573.43,413.62 573.77,414.68 574.10,415.55 574.44,416.48 574.77,417.01 575.11,418.08 575.44,418.94 575.78,419.87 576.11,420.27 576.45,420.67 576.78,421.64 577.12,422.84 577.45,423.78 577.79,424.85 578.12,425.65 578.46,426.71 578.79,427.78 579.13,428.57 579.46,429.25 579.80,430.14 580.13,431.34 580.47,431.95 580.80,432.62 581.14,433.46 581.47,434.26 581.81,435.39 582.14,435.56 582.48,436.13 582.81,436.33 583.15,435.53 583.48,435.72 583.82,436.37 584.15,436.90 584.49,436.50 584.82,436.42 585.16,436.03 585.49,434.96 585.83,434.30 586.16,433.56 586.50,432.63 586.83,431.70 587.17,430.77 587.50,429.57 587.84,428.91 588.17,427.98 588.51,427.04 588.84,426.11 589.18,425.31 589.51,424.42 589.85,424.16 590.18,424.57 590.52,424.42 590.85,424.32 591.19,424.44 591.52,423.90 591.86,423.14 592.19,422.08 592.53,421.68 592.86,421.42 593.20,421.81 593.53,421.27 593.87,421.75 594.20,422.15 594.54,421.64 594.87,421.02 595.21,419.82 595.54,418.62 595.88,417.36 596.21,416.43 596.55,415.49 596.88,414.43 597.22,413.23 597.55,412.17 597.89,410.84 598.22,409.91 598.56,408.57 598.89,407.68 599.23,406.75 599.56,405.55 599.90,404.62 600.23,403.69 600.57,402.89 600.90,401.96 601.24,401.16 601.57,399.97 601.91,399.03 602.24,398.10 602.58,397.29 602.91,396.25 603.25,395.45 603.58,394.66 603.92,394.60 604.25,395.26 604.59,395.12 604.92,395.49 605.26,396.43 605.59,397.22 605.93,397.78 606.26,397.92 606.60,397.78 606.93,398.36 607.27,399.37 607.60,400.43 607.94,400.17 608.27,399.93 608.61,399.59 608.94,398.93 609.28,398.01 609.61,397.08 609.95,396.68 610.28,397.08 610.62,397.08 610.95,396.55 611.29,397.12 611.62,397.12 611.96,395.79 612.29,394.86 612.63,393.66 612.96,392.59 613.30,391.72 613.63,391.05 613.97,391.04 614.30,390.27 614.64,389.33 614.97,388.54 615.31,387.87 615.64,386.67 615.98,385.83 616.31,384.90 616.65,383.77 616.98,382.71 617.32,381.70 617.65,380.90 617.99,381.03 618.32,380.65 618.66,379.58 618.99,378.78 619.33,377.58 619.66,376.65 620.00,375.64 620.33,374.84 620.67,374.07 621.00,373.01 621.34,371.68 621.67,371.01 622.01,370.16 622.34,369.23 622.68,368.28 623.01,367.35 623.35,366.55 623.68,365.76 624.02,364.96 624.35,364.16 624.69,363.36 625.02,362.70 625.36,361.90 625.69,361.10 626.03,360.17 626.36,359.30 626.70,358.66 627.03,357.68 627.37,356.93 627.70,356.18 628.04,355.35 628.37,354.02 628.71,353.09 629.04,352.29 629.38,351.49 629.71,350.56 630.05,350.47 630.38,350.35 630.72,350.96 631.05,350.11 631.39,349.19 631.72,348.64 632.06,347.59 632.39,346.79 632.73,347.27 633.06,346.08 633.40,345.01 633.73,344.08 634.07,343.51 634.40,342.98 634.74,342.20 635.07,341.26 635.41,340.47 635.74,339.41 636.08,338.48 636.41,337.67 636.75,336.47 637.08,335.67 637.42,334.65 637.75,333.58 638.09,332.52 638.42,331.45 638.76,330.89 639.09,329.83 639.43,328.87 639.76,328.05 640.10,327.25 640.43,326.72 640.77,325.78 641.10,324.72 641.44,323.52 641.77,322.46 642.11,321.55 642.44,320.62 642.78,319.69 643.11,318.96 643.45,318.16 643.78,317.10 644.12,316.23 644.45,315.17 644.79,314.10 645.12,313.04 645.46,311.71 645.79,311.17 646.13,310.40 646.46,309.60 646.80,308.62 647.13,307.58 647.47,306.38 647.80,305.59 648.14,304.45 648.47,303.26 648.81,301.93 649.14,301.39 649.48,299.93 649.81,298.87 650.15,297.93 650.48,296.87 650.82,295.94 651.15,294.74 651.49,293.45 651.82,292.68 652.16,291.61 652.49,290.35 652.83,290.14 653.16,289.68 653.50,289.29 653.83,289.29 654.17,289.42 654.50,289.55 654.84,289.72 655.17,288.85 655.51,287.65 655.84,287.45 656.18,287.52 656.51,287.78 656.85,288.34 657.18,288.75 657.52,289.03 657.85,290.16 658.19,290.02 658.52,290.03 658.86,289.70 659.19,288.63 659.53,287.97 659.86,286.90 660.20,286.50 660.53,286.11 660.87,285.57 661.20,286.46 661.54,285.93 661.87,285.60 662.21,285.60 662.54,286.04 662.88,286.57 663.21,287.16 663.55,288.09 663.88,289.15 664.22,289.68 664.55,290.22 664.89,291.02 665.22,291.08 665.56,291.00 665.89,290.47 666.23,290.67 666.56,290.67 666.90,290.54 667.23,289.79 667.57,290.18 667.90,290.40 668.24,290.31 668.57,290.08 668.91,290.50 669.24,290.10 669.58,290.52 669.91,290.39 670.25,289.86 670.58,290.79 670.92,291.48 671.25,292.56 671.59,293.54 671.92,294.34 672.26,295.41 672.59,296.60 672.93,297.89 673.26,298.96 673.60,300.01 673.93,300.54 674.27,301.50 674.60,302.02 674.94,303.08 675.27,302.29 675.61,302.29 675.94,301.75 676.28,301.75 676.61,301.94 676.95,302.51 677.28,302.51 677.62,301.85 677.95,301.31 678.29,301.85 678.62,301.63 678.96,302.03 679.29,302.30 679.63,303.23 679.96,304.56 680.30,305.25 680.63,306.05 680.97,307.12 681.30,308.06 681.64,309.11 681.97,309.51 682.31,310.18 682.64,311.21 682.98,312.15 683.31,313.34 683.65,314.73 683.98,315.60 684.32,316.39 684.65,317.59 684.99,318.39 685.32,319.45 685.66,320.66 685.99,321.59 686.33,322.39 686.66,323.43 687.00,323.83 687.33,325.03 687.67,326.08 688.00,326.74 688.34,327.81 688.67,328.60 689.01,329.67 689.34,330.91 689.68,331.71 690.01,332.64 690.35,333.57 690.68,334.63 691.02,335.56 691.35,336.36 691.69,337.13 692.02,337.80 692.36,339.00 692.69,339.22 693.03,339.36 693.36,340.42 693.70,340.42 694.03,339.89 694.37,339.70 694.70,340.31 695.04,340.05 695.37,339.97 695.71,338.96 696.04,338.08 696.38,337.15 696.71,336.59 697.05,336.32 697.38,335.82 697.72,334.62 698.05,333.29 698.39,332.57 698.72,331.77 699.06,330.71 699.39,329.92 699.73,328.99 700.06,328.42 700.40,327.22 700.73,326.16 701.07,325.19 701.40,324.52 701.74,323.77 702.07,323.38 702.41,323.81 702.74,323.81 703.08,323.15 703.41,322.46 703.75,321.82 704.08,322.08 704.42,322.70 704.75,322.43 705.09,323.36 705.42,323.76 705.76,324.37 706.09,324.11 706.43,323.97 706.76,322.96 707.10,322.36 707.43,321.18 707.77,320.18 708.10,319.05 708.44,318.78 708.77,317.72 709.11,317.25 709.44,317.52 709.78,317.39 710.11,317.12 710.45,317.08 710.78,316.55 711.12,317.35 711.45,318.55 711.79,319.88 712.12,320.93 712.46,321.14 712.79,322.07 713.13,323.22 713.46,324.41 713.80,325.08 714.13,326.14 714.47,327.21 714.80,327.87 715.14,328.41 715.47,329.07 715.81,329.83 716.14,331.03 716.48,331.69 716.81,332.22 717.15,332.44 717.48,332.57 717.82,332.57 718.15,332.97 718.49,332.97 718.82,333.77 719.16,334.83 719.49,336.03 719.83,336.55 720.16,335.87 720.50,335.31 720.83,334.53 721.17,335.28 721.50,335.59 721.84,335.42 722.17,335.28 722.51,335.02 722.84,335.15 723.18,335.02 723.51,334.53 723.85,333.49 724.18,332.29 724.52,332.45 724.85,332.05 725.19,332.74 725.52,332.74 725.86,332.48 726.19,332.61 726.53,332.48 726.86,332.90 727.20,332.22 727.53,331.82 727.87,330.76 728.20,329.96 728.54,330.29 728.87,330.91 729.21,330.77 729.54,331.31 729.88,331.97 730.21,332.64 730.55,333.16 730.88,334.35 731.22,334.05 731.55,333.91 731.89,333.73 732.22,333.50 732.56,333.24 732.89,333.32 733.23,333.25 733.56,333.25 733.90,332.85 734.23,332.02 734.57,331.23 734.90,330.43 735.24,330.16 735.57,329.90 735.91,329.36 736.24,328.43 736.58,328.49 736.91,328.92 737.25,330.12 737.58,331.19 737.92,332.25 738.25,333.05 738.59,334.25 738.92,334.99 739.26,334.73 739.59,335.14 739.93,335.94 740.26,337.13 740.60,337.40 740.93,337.81 741.27,338.74 741.60,340.07 741.94,340.87 742.27,342.20 742.61,343.15 742.94,344.21 743.28,345.36 743.61,346.42 743.95,347.49 744.28,348.03 744.62,348.56 744.95,349.50 745.29,350.79 745.62,351.05 745.96,350.28 746.29,349.35 746.63,348.82 746.96,347.89 747.30,346.87 747.63,345.94 747.97,345.28 748.30,344.48 748.64,343.59 748.97,342.70 749.31,341.76 749.64,340.83 749.98,340.17 750.31,339.25 750.65,338.53 750.98,337.91 751.32,338.04 751.65,337.73 751.99,336.67 752.32,335.87 752.66,334.94 752.99,333.66 753.33,333.66 753.66,333.53 754.00,333.83 754.33,333.74 754.67,334.59 755.00,335.39"/>
<line x1="783" y1="82" x2="809" y2="82" stroke="#dc2626" stroke-width="3"/>
<text x="817" y="86" font-family="Arial" font-size="13" fill="#111827">Avellaneda Stoikov</text>
<polyline fill="none" stroke="#7c3aed" stroke-width="2" points=""/>
<line x1="783" y1="106" x2="809" y2="106" stroke="#7c3aed" stroke-width="3"/>
<text x="817" y="110" font-family="Arial" font-size="13" fill="#111827">Calibrated Avellaneda Stoikov</text>
<text x="420.0" y="518" text-anchor="middle" font-family="Arial" font-size="14" fill="#111827">Event index</text>
<text x="22" y="256.0" text-anchor="middle" transform="rotate(-90 22 256.0)" font-family="Arial" font-size="14" fill="#111827">Inventory</text>
</svg>
