<svg xmlns="http://www.w3.org/2000/svg" width="940" height="540" viewBox="0 0 940 540">
<rect width="100%" height="100%" fill="#ffffff"/>
<text x="470.0" y="26" text-anchor="middle" font-family="Arial" font-size="18" fill="#111827">High Volatility Cumulative PnL After Fees</text>
<line x1="85" y1="470" x2="755" y2="470" stroke="#111827" stroke-width="1"/>
<line x1="85" y1="42" x2="85" y2="470" stroke="#111827" stroke-width="1"/>
<line x1="85.00" y1="42" x2="85.00" y2="470" stroke="#e5e7eb" stroke-width="1"/>
<text x="85.00" y="494" text-anchor="middle" font-family="Arial" font-size="12" fill="#374151">0</text>
<line x1="252.50" y1="42" x2="252.50" y2="470" stroke="#e5e7eb" stroke-width="1"/>
<text x="252.50" y="494" text-anchor="middle" font-family="Arial" font-size="12" fill="#374151">50000</text>
<line x1="420.00" y1="42" x2="420.00" y2="470" stroke="#e5e7eb" stroke-width="1"/>
<text x="420.00" y="494" text-anchor="middle" font-family="Arial" font-size="12" fill="#374151">100000</text>
<line x1="587.50" y1="42" x2="587.50" y2="470" stroke="#e5e7eb" stroke-width="1"/>
<text x="587.50" y="494" text-anchor="middle" font-family="Arial" font-size="12" fill="#374151">149999</text>
<line x1="755.00" y1="42" x2="755.00" y2="470" stroke="#e5e7eb" stroke-width="1"/>
<text x="755.00" y="494" text-anchor="middle" font-family="Arial" font-size="12" fill="#374151">199999</text>
<line x1="85" y1="470.00" x2="755" y2="470.00" stroke="#e5e7eb" stroke-width="1"/>
<text x="73" y="474.00" text-anchor="end" font-family="Arial" font-size="12" fill="#374151">-1820501</text>
<line x1="85" y1="363.00" x2="755" y2="363.00" stroke="#e5e7eb" stroke-width="1"/>
<text x="73" y="367.00" text-anchor="end" font-family="Arial" font-size="12" fill="#374151">1239023</text>
<line x1="85" y1="256.00" x2="755" y2="256.00" stroke="#e5e7eb" stroke-width="1"/>
<text x="73" y="260.00" text-anchor="end" font-family="Arial" font-size="12" fill="#374151">4298547</text>
<line x1="85" y1="149.00" x2="755" y2="149.00" stroke="#e5e7eb" stroke-width="1"/>
<text x="73" y="153.00" text-anchor="end" font-family="Arial" font-size="12" fill="#374151">7358072</text>
<line x1="85" y1="42.00" x2="755" y2="42.00" stroke="#e5e7eb" stroke-width="1"/>
<text x="73" y="46.00" text-anchor="end" font-family="Arial" font-size="12" fill="#374151">10417596</text>
<polyline fill="none" stroke="#2563eb" stroke-width="2" points="85.00,406.33 85.34,406.31 85.67,406.28 86.01,406.26 86.34,406.18 86.68,406.06 87.01,405.82 87.35,405.67 87.68,405.60 88.02,405.56 88.35,405.72 88.69,405.96 89.02,406.16 89.36,406.31 89.69,406.48 90.03,406.31 90.36,406.09 90.70,405.86 91.03,405.88 91.37,405.97 91.70,406.03 92.04,405.83 92.37,405.77 92.71,405.78 93.04,406.02 93.38,405.66 93.71,405.81 94.05,406.02 94.38,406.05 94.72,406.16 95.05,406.12 95.39,406.26 95.72,406.15 96.06,406.18 96.39,406.11 96.73,406.12 97.06,405.99 97.40,405.85 97.73,405.85 98.07,405.95 98.40,406.04 98.74,405.97 99.07,405.67 99.41,405.39 99.74,405.58 100.08,405.97 100.41,406.72 100.75,406.89 101.08,407.13 101.42,407.18 101.75,407.83 102.09,407.86 102.42,407.58 102.76,407.48 103.09,407.28 103.43,407.08 103.76,406.79 104.10,406.64 104.43,406.87 104.77,406.96 105.10,407.11 105.44,406.94 105.77,407.40 106.11,407.55 106.44,407.58 106.78,407.62 107.11,407.51 107.45,407.44 107.78,407.36 108.12,407.39 108.45,407.36 108.79,407.15 109.12,407.18 109.46,407.09 109.79,406.88 110.13,406.83 110.46,406.96 110.80,407.03 111.13,407.13 111.47,407.77 111.80,407.79 112.14,407.34 112.47,407.28 112.81,407.40 113.14,407.04 113.48,406.85 113.81,406.87 114.15,406.99 114.48,406.83 114.82,406.95 115.15,407.10 115.49,406.87 115.82,407.19 116.16,407.19 116.49,407.57 116.83,407.81 117.16,407.77 117.50,407.75 117.83,407.64 118.17,407.60 118.50,407.58 118.84,407.45 119.17,407.54 119.51,407.36 119.84,407.38 120.18,407.56 120.51,407.17 120.85,406.83 121.18,406.52 121.52,406.64 121.85,406.97 122.19,406.46 122.52,406.64 122.86,406.83 123.19,406.80 123.53,406.32 123.86,406.74 124.20,406.42 124.53,405.82 124.87,405.79 125.20,406.00 125.54,406.45 125.87,408.11 126.21,410.13 126.54,410.71 126.88,410.69 127.21,409.89 127.55,409.43 127.88,409.22 128.22,409.42 128.55,409.77 128.89,409.35 129.22,409.71 129.56,409.75 129.89,410.19 130.23,411.23 130.56,410.79 130.90,410.52 131.23,410.18 131.57,409.40 131.90,409.87 132.24,410.08 132.57,409.66 132.91,409.05 133.24,408.98 133.58,408.94 133.91,408.97 134.25,408.50 134.58,408.93 134.92,408.83 135.25,408.77 135.59,408.98 135.92,408.42 136.26,408.47 136.59,407.25 136.93,408.23 137.26,408.84 137.60,409.04 137.93,409.31 138.27,408.98 138.60,408.51 138.94,408.95 139.27,407.51 139.61,406.86 139.94,407.06 140.28,405.50 140.61,405.65 140.95,405.46 141.28,404.58 141.62,405.28 141.95,403.33 142.29,403.08 142.62,401.65 142.96,403.87 143.29,403.28 143.63,403.60 143.96,402.83 144.30,403.80 144.63,404.11 144.97,404.19 145.30,404.40 145.64,404.20 145.97,404.26 146.31,404.26 146.64,406.78 146.98,406.54 147.31,404.80 147.65,405.14 147.98,405.64 148.32,404.88 148.65,404.53 148.99,402.86 149.32,402.37 149.66,403.61 149.99,403.75 150.33,405.21 150.66,405.23 151.00,405.77 151.33,405.72 151.67,405.40 152.00,405.53 152.34,401.23 152.67,405.07 153.01,404.78 153.34,404.17 153.68,405.66 154.01,403.21 154.35,402.99 154.68,403.62 155.02,402.73 155.35,401.33 155.69,400.85 156.02,401.25 156.36,402.61 156.69,404.42 157.03,399.17 157.36,397.21 157.70,399.65 158.03,400.38 158.37,398.66 158.70,397.02 159.04,395.12 159.37,395.91 159.71,396.77 160.04,398.88 160.38,402.50 160.71,403.98 161.05,401.74 161.38,401.65 161.72,403.91 162.05,407.71 162.39,409.63 162.72,409.81 163.06,407.84 163.39,403.26 163.73,403.11 164.06,400.22 164.40,399.00 164.73,403.79 165.07,408.91 165.40,411.11 165.74,412.86 166.07,418.32 166.41,415.26 166.74,411.98 167.08,410.06 167.41,411.14 167.75,411.98 168.08,413.33 168.42,413.91 168.75,414.38 169.09,415.41 169.42,416.30 169.76,416.66 170.09,415.79 170.43,416.97 170.76,417.63 171.10,420.87 171.43,418.74 171.77,418.44 172.10,421.15 172.44,421.62 172.77,421.13 173.11,423.86 173.44,425.09 173.78,424.26 174.11,424.54 174.45,421.67 174.78,420.09 175.12,419.68 175.45,419.45 175.79,418.42 176.12,417.76 176.46,421.06 176.79,421.64 177.13,421.61 177.46,421.53 177.80,419.46 178.13,419.03 178.47,420.41 178.80,421.14 179.14,422.63 179.47,422.42 179.81,420.63 180.14,419.80 180.48,420.63 180.81,419.84 181.15,421.99 181.48,422.56 181.82,420.53 182.15,420.20 182.49,420.26 182.82,420.55 183.16,421.06 183.49,420.72 183.83,420.48 184.16,420.00 184.50,420.35 184.83,419.96 185.17,420.16 185.50,420.46 185.84,420.31 186.17,420.17 186.51,420.01 186.84,420.01 187.18,420.05 187.51,419.93 187.85,419.81 188.18,419.70 188.52,419.55 188.85,419.30 189.19,419.25 189.52,419.26 189.86,419.06 190.19,418.90 190.53,418.80 190.86,418.52 191.20,418.46 191.53,418.42 191.87,418.30 192.20,418.35 192.54,417.94 192.87,418.09 193.21,418.30 193.54,416.95 193.88,417.75 194.21,417.41 194.55,418.30 194.88,417.29 195.22,416.57 195.55,416.76 195.89,417.24 196.22,416.44 196.56,417.88 196.89,417.88 197.23,418.36 197.56,419.86 197.90,417.93 198.23,416.68 198.57,415.29 198.90,414.17 199.24,416.23 199.57,415.45 199.91,413.97 200.24,415.25 200.58,415.35 200.91,416.28 201.25,416.69 201.58,416.50 201.92,413.91 202.25,411.66 202.59,410.48 202.92,409.08 203.26,405.57 203.59,404.84 203.93,405.15 204.26,402.90 204.60,406.60 204.93,407.83 205.27,408.52 205.60,406.61 205.94,402.61 206.27,402.70 206.61,400.73 206.94,402.26 207.28,404.70 207.61,405.00 207.95,404.78 208.28,404.92 208.62,408.22 208.95,408.42 209.29,408.48 209.62,409.64 209.96,406.37 210.29,406.48 210.63,405.96 210.96,405.33 211.30,405.27 211.63,406.63 211.97,407.46 212.30,403.49 212.64,406.31 212.97,407.43 213.31,409.53 213.64,408.10 213.98,403.03 214.31,408.67 214.65,402.47 214.98,402.73 215.32,400.07 215.65,399.37 215.99,397.04 216.32,401.14 216.66,404.01 216.99,401.45 217.33,398.46 217.66,400.16 218.00,394.73 218.33,397.56 218.67,401.73 219.00,400.00 219.34,402.69 219.67,400.76 220.01,399.37 220.34,394.52 220.68,394.54 221.01,394.72 221.35,397.66 221.68,397.86 222.02,404.50 222.35,400.57 222.69,402.96 223.02,404.30 223.36,407.00 223.69,410.12 224.03,414.29 224.36,416.07 224.70,409.84 225.03,413.79 225.37,415.65 225.70,416.30 226.04,423.00 226.37,425.55 226.71,423.81 227.04,423.61 227.38,430.14 227.71,429.84 228.05,438.17 228.38,434.43 228.72,433.15 229.05,439.73 229.39,439.15 229.72,440.48 230.06,438.37 230.39,437.99 230.73,432.44 231.06,430.26 231.40,428.71 231.73,430.35 232.07,431.81 232.40,432.73 232.74,429.30 233.07,429.00 233.41,430.35 233.74,431.11 234.08,429.66 234.41,434.16 234.75,435.23 235.08,436.60 235.42,438.72 235.75,433.15 236.09,430.50 236.42,427.91 236.76,423.07 237.09,420.98 237.43,415.72 237.76,416.07 238.10,410.63 238.43,409.01 238.77,412.07 239.10,413.47 239.44,416.13 239.77,417.02 240.11,420.77 240.44,420.05 240.78,419.37 241.11,416.22 241.45,416.61 241.78,413.30 242.12,409.75 242.45,404.66 242.79,404.90 243.12,400.19 243.46,402.20 243.79,401.73 244.13,401.47 244.46,395.24 244.80,393.70 245.13,388.77 245.47,386.78 245.80,387.09 246.14,383.25 246.47,381.01 246.81,379.96 247.14,377.16 247.48,379.47 247.81,374.64 248.15,372.14 248.48,369.66 248.82,367.01 249.15,369.69 249.49,365.26 249.82,367.44 250.16,369.26 250.49,363.37 250.83,356.80 251.16,358.28 251.50,357.19 251.83,352.80 252.17,355.83 252.50,353.18 252.84,346.32 253.17,345.29 253.51,348.51 253.84,341.60 254.18,345.67 254.51,334.67 254.85,341.51 255.18,334.23 255.52,328.14 255.85,328.06 256.19,333.52 256.52,338.77 256.86,340.75 257.19,343.75 257.53,354.06 257.86,354.05 258.20,354.01 258.53,358.46 258.87,360.02 259.20,358.46 259.54,368.03 259.87,364.28 260.21,360.78 260.54,369.18 260.88,361.30 261.21,362.94 261.55,364.52 261.88,368.75 262.22,371.20 262.55,369.25 262.89,370.42 263.22,368.66 263.56,376.19 263.89,376.38 264.23,372.60 264.56,366.79 264.90,359.69 265.23,360.68 265.57,360.03 265.90,354.08 266.24,359.50 266.57,360.14 266.91,356.25 267.24,344.49 267.58,353.58 267.91,356.77 268.25,366.88 268.58,368.80 268.92,373.79 269.25,379.43 269.59,377.96 269.92,371.85 270.26,371.77 270.59,370.32 270.93,367.47 271.26,369.40 271.60,375.69 271.93,367.57 272.27,368.28 272.60,370.83 272.94,370.63 273.27,363.87 273.61,366.39 273.94,367.56 274.28,365.85 274.61,359.23 274.95,357.87 275.28,360.35 275.62,359.03 275.95,355.68 276.29,349.04 276.62,346.80 276.96,345.46 277.29,345.95 277.63,351.01 277.96,352.53 278.30,358.76 278.63,351.86 278.97,348.56 279.30,346.29 279.64,352.65 279.97,358.09 280.31,350.47 280.64,347.89 280.98,343.72 281.31,339.53 281.65,343.69 281.98,347.97 282.32,333.67 282.65,322.02 282.99,325.09 283.32,325.32 283.66,319.09 283.99,319.50 284.33,318.93 284.66,325.57 285.00,325.04 285.33,328.84 285.67,335.47 286.00,336.67 286.34,325.41 286.67,331.07 287.01,337.61 287.34,328.62 287.68,342.79 288.01,343.21 288.35,339.35 288.68,343.92 289.02,349.29 289.35,350.32 289.69,352.08 290.02,348.03 290.36,330.05 290.69,336.11 291.03,333.19 291.36,338.92 291.70,331.84 292.03,332.56 292.37,329.45 292.70,320.53 293.04,324.86 293.37,325.05 293.71,322.89 294.04,315.39 294.38,308.90 294.71,310.09 295.05,319.66 295.38,323.85 295.72,323.03 296.05,326.14 296.39,326.68 296.72,331.48 297.06,319.55 297.39,321.50 297.73,333.02 298.06,329.41 298.40,338.50 298.73,339.25 299.07,346.00 299.40,348.03 299.74,346.86 300.07,352.51 300.41,354.37 300.74,364.73 301.08,361.13 301.41,362.64 301.75,374.42 302.08,367.51 302.42,367.23 302.75,371.07 303.09,371.35 303.42,378.01 303.76,369.85 304.09,361.50 304.43,367.18 304.76,352.60 305.10,356.38 305.43,361.47 305.77,364.37 306.10,352.12 306.44,347.95 306.77,344.21 307.11,334.34 307.44,334.15 307.78,348.71 308.11,335.11 308.45,324.46 308.78,318.13 309.12,315.99 309.45,309.85 309.79,299.88 310.12,304.46 310.46,298.55 310.79,294.67 311.13,293.80 311.46,300.89 311.80,306.25 312.13,310.39 312.47,293.17 312.80,299.19 313.14,297.52 313.47,306.29 313.81,303.23 314.14,302.85 314.48,305.73 314.81,304.33 315.15,307.47 315.48,306.01 315.82,296.46 316.15,294.14 316.49,286.59 316.82,287.17 317.16,283.09 317.49,293.18 317.83,293.36 318.16,297.58 318.50,296.46 318.83,298.95 319.17,302.10 319.50,299.85 319.84,304.94 320.17,312.87 320.51,314.31 320.84,300.48 321.18,303.35 321.51,305.06 321.85,291.53 322.18,292.16 322.52,287.05 322.85,264.58 323.19,257.86 323.52,251.79 323.86,260.23 324.19,251.73 324.53,259.85 324.86,247.77 325.20,248.92 325.53,257.58 325.87,258.88 326.20,258.31 326.54,256.76 326.87,257.79 327.21,254.54 327.54,251.28 327.88,267.89 328.21,256.48 328.55,249.27 328.88,243.06 329.22,240.23 329.55,240.72 329.89,245.00 330.22,243.50 330.56,232.65 330.89,241.08 331.23,257.91 331.56,239.33 331.90,223.04 332.23,218.37 332.57,229.97 332.90,228.78 333.24,228.18 333.57,229.86 333.91,233.19 334.24,234.55 334.58,221.46 334.91,224.15 335.25,224.89 335.58,216.48 335.92,200.15 336.25,202.31 336.59,205.99 336.92,191.94 337.26,203.42 337.59,189.07 337.93,177.91 338.26,169.47 338.60,162.53 338.93,150.82 339.27,144.27 339.60,145.09 339.94,143.34 340.27,136.38 340.61,118.56 340.94,114.18 341.28,114.09 341.61,105.52 341.95,107.31 342.28,97.61 342.62,110.75 342.95,95.06 343.29,80.88 343.62,82.16 343.96,89.28 344.29,94.34 344.63,129.33 344.96,138.61 345.30,131.73 345.63,117.48 345.97,131.68 346.30,129.88 346.64,136.23 346.97,135.20 347.31,119.62 347.64,116.53 347.98,108.90 348.31,123.10 348.65,119.08 348.98,119.88 349.32,119.99 349.65,127.01 349.99,121.53 350.32,131.24 350.66,115.13 350.99,118.77 351.33,135.90 351.66,133.16 352.00,124.09 352.33,115.85 352.67,130.68 353.00,143.44 353.34,148.04 353.67,151.14 354.01,172.19 354.34,185.72 354.68,177.78 355.01,193.61 355.35,197.66 355.68,202.16 356.02,219.86 356.35,214.82 356.69,206.81 357.02,180.78 357.36,162.06 357.69,154.39 358.03,154.51 358.36,148.58 358.70,157.95 359.03,127.73 359.37,107.19 359.70,106.81 360.04,99.09 360.37,97.92 360.71,109.65 361.04,119.13 361.38,123.55 361.71,114.54 362.05,123.94 362.38,128.59 362.72,124.16 363.05,112.29 363.39,105.58 363.72,89.56 364.06,85.00 364.39,80.32 364.73,85.34 365.06,76.38 365.40,77.70 365.73,76.63 366.07,83.09 366.40,91.97 366.74,79.27 367.07,101.52 367.41,95.64 367.74,79.61 368.08,74.77 368.41,78.50 368.75,75.00 369.08,73.98 369.42,83.46 369.75,83.18 370.09,82.35 370.42,71.52 370.76,84.22 371.09,78.95 371.43,89.37 371.76,94.97 372.10,107.91 372.43,103.39 372.77,104.90 373.10,105.18 373.44,103.39 373.77,112.55 374.11,99.34 374.44,95.90 374.78,95.73 375.11,95.13 375.45,117.21 375.78,123.57 376.12,118.88 376.45,122.80 376.79,107.67 377.12,105.22 377.46,119.00 377.79,124.86 378.13,117.31 378.46,133.01 378.80,143.49 379.13,131.87 379.47,122.29 379.80,114.47 380.14,113.07 380.47,128.45 380.81,155.03 381.14,127.13 381.48,132.21 381.81,116.68 382.15,131.05 382.48,125.55 382.82,107.67 383.15,117.03 383.49,125.69 383.82,135.55 384.16,129.29 384.49,153.77 384.83,159.92 385.16,160.10 385.50,153.45 385.83,153.59 386.17,143.51 386.50,137.04 386.84,127.83 387.17,121.95 387.51,133.04 387.84,122.10 388.18,118.19 388.51,111.74 388.85,105.21 389.18,96.97 389.52,94.94 389.85,91.23 390.19,107.21 390.52,118.98 390.86,118.03 391.19,101.48 391.53,94.91 391.86,118.10 392.20,96.11 392.53,88.54 392.87,97.52 393.20,82.72 393.54,80.21 393.87,85.57 394.21,112.88 394.54,119.31 394.88,118.27 395.21,146.79 395.55,149.55 395.88,158.50 396.22,165.67 396.55,167.26 396.89,163.68 397.22,165.96 397.56,158.54 397.89,165.41 398.23,156.21 398.56,146.50 398.90,141.21 399.23,144.30 399.57,155.55 399.90,151.72 400.24,145.24 400.57,154.81 400.91,149.79 401.24,163.03 401.58,152.49 401.91,145.38 402.25,131.28 402.58,128.12 402.92,115.47 403.25,125.44 403.59,138.42 403.92,152.57 404.26,148.57 404.59,154.80 404.93,161.42 405.26,174.03 405.60,187.36 405.93,191.38 406.27,193.94 406.60,199.69 406.94,205.63 407.27,201.00 407.61,212.65 407.94,232.11 408.28,233.69 408.61,239.97 408.95,240.31 409.28,243.08 409.62,241.18 409.95,253.65 410.29,248.92 410.62,260.42 410.96,263.28 411.29,247.91 411.63,252.17 411.96,243.23 412.30,240.35 412.63,233.40 412.97,240.55 413.30,248.03 413.64,253.87 413.97,263.94 414.31,277.64 414.64,256.24 414.98,249.84 415.31,242.78 415.65,243.08 415.98,238.16 416.32,239.44 416.65,241.73 416.99,240.56 417.32,239.22 417.66,230.78 417.99,227.90 418.33,227.42 418.66,232.50 419.00,226.77 419.33,246.52 419.67,239.68 420.00,244.94 420.34,225.08 420.67,222.84 421.01,239.49 421.34,240.52 421.68,225.34 422.01,223.31 422.35,235.78 422.68,223.48 423.02,230.28 423.35,232.11 423.69,225.39 424.02,221.69 424.36,227.39 424.69,226.11 425.03,233.74 425.36,230.78 425.70,236.95 426.03,240.62 426.37,241.52 426.70,236.88 427.04,249.99 427.37,264.79 427.71,277.08 428.04,286.29 428.38,299.33 428.71,288.97 429.05,277.64 429.38,292.89 429.72,278.34 430.05,282.18 430.39,284.38 430.72,285.85 431.06,285.80 431.39,269.77 431.73,275.79 432.06,269.05 432.40,279.90 432.73,281.42 433.07,262.41 433.40,262.46 433.74,267.20 434.07,285.75 434.41,295.11 434.74,300.88 435.08,291.72 435.41,284.26 435.75,302.31 436.08,299.69 436.42,299.57 436.75,289.16 437.09,293.30 437.42,305.15 437.76,309.28 438.09,310.84 438.43,314.06 438.76,322.39 439.10,330.83 439.43,329.01 439.77,330.02 440.10,326.21 440.44,328.30 440.77,337.13 441.11,341.54 441.44,340.14 441.78,338.08 442.11,347.14 442.45,346.86 442.78,335.60 443.12,339.67 443.45,336.12 443.79,346.62 444.12,353.40 444.46,352.67 444.79,346.17 445.13,340.59 445.46,339.19 445.80,336.98 446.13,346.25 446.47,338.71 446.80,329.47 447.14,330.39 447.47,331.56 447.81,321.00 448.14,324.77 448.48,324.16 448.81,326.13 449.15,322.45 449.48,323.38 449.82,314.80 450.15,322.62 450.49,326.92 450.82,323.60 451.16,329.94 451.49,337.82 451.83,339.36 452.16,329.45 452.50,338.02 452.83,345.19 453.17,355.01 453.50,354.53 453.84,353.38 454.17,360.96 454.51,366.51 454.84,367.65 455.18,358.24 455.51,354.98 455.85,347.49 456.18,348.87 456.52,353.38 456.85,354.95 457.19,351.26 457.52,352.60 457.86,350.56 458.19,363.39 458.53,363.40 458.86,369.05 459.20,359.30 459.53,359.82 459.87,359.25 460.20,361.18 460.54,364.84 460.87,362.29 461.21,360.76 461.54,363.74 461.88,352.83 462.21,351.43 462.55,350.88 462.88,353.85 463.22,347.53 463.55,340.41 463.89,346.64 464.22,343.31 464.56,341.36 464.89,340.32 465.23,338.62 465.56,342.02 465.90,352.12 466.23,358.02 466.57,365.61 466.90,366.35 467.24,367.76 467.57,369.90 467.91,366.58 468.24,361.44 468.58,361.67 468.91,366.18 469.25,369.85 469.58,363.08 469.92,364.95 470.25,360.09 470.59,367.77 470.92,366.63 471.26,367.34 471.59,368.66 471.93,373.16 472.26,372.78 472.60,374.28 472.93,375.21 473.27,380.71 473.60,379.46 473.94,373.23 474.27,367.33 474.61,365.24 474.94,362.09 475.28,363.24 475.61,359.70 475.95,362.89 476.28,358.56 476.62,361.75 476.95,362.21 477.29,371.18 477.62,375.69 477.96,378.20 478.29,376.17 478.63,373.73 478.96,373.08 479.30,366.32 479.63,365.11 479.97,366.05 480.30,366.23 480.64,370.41 480.97,364.37 481.31,367.40 481.64,372.72 481.98,370.19 482.31,367.39 482.65,361.77 482.98,357.38 483.32,358.82 483.65,354.59 483.99,348.42 484.32,345.73 484.66,349.84 484.99,348.14 485.33,348.48 485.66,349.92 486.00,348.11 486.33,340.97 486.67,342.64 487.00,349.84 487.34,354.06 487.67,353.23 488.01,352.51 488.34,359.82 488.68,359.44 489.01,361.27 489.35,361.73 489.68,364.42 490.02,360.68 490.35,352.26 490.69,358.98 491.02,365.15 491.36,364.97 491.69,360.56 492.03,354.92 492.36,358.85 492.70,365.68 493.03,367.93 493.37,376.59 493.70,372.58 494.04,373.75 494.37,376.73 494.71,381.68 495.04,381.33 495.38,384.68 495.71,378.40 496.05,372.51 496.38,376.16 496.72,377.35 497.05,372.98 497.39,374.16 497.72,369.39 498.06,368.99 498.39,372.86 498.73,373.53 499.06,378.59 499.40,375.44 499.73,373.55 500.07,373.74 500.40,369.59 500.74,378.73 501.07,378.62 501.41,371.67 501.74,367.03 502.08,364.95 502.41,368.47 502.75,366.75 503.08,367.09 503.42,365.63 503.75,368.73 504.09,369.98 504.42,370.62 504.76,371.66 505.09,369.96 505.43,367.31 505.76,362.93 506.10,365.17 506.43,367.15 506.77,368.65 507.10,368.88 507.44,366.75 507.77,368.56 508.11,371.45 508.44,373.38 508.78,373.54 509.11,374.18 509.45,373.38 509.78,366.75 510.12,364.14 510.45,359.13 510.79,358.81 511.12,357.26 511.46,353.85 511.79,356.80 512.13,363.57 512.46,364.42 512.80,365.71 513.13,368.32 513.47,364.38 513.80,360.98 514.14,359.84 514.47,352.60 514.81,352.29 515.14,351.40 515.48,350.35 515.81,344.84 516.15,350.52 516.48,351.44 516.82,345.01 517.15,345.07 517.49,345.35 517.82,346.70 518.16,344.27 518.49,341.63 518.83,343.85 519.16,346.44 519.50,347.02 519.83,350.02 520.17,346.77 520.50,346.08 520.84,346.25 521.17,350.89 521.51,349.28 521.84,341.31 522.18,344.02 522.51,340.41 522.85,337.56 523.18,332.39 523.52,332.93 523.85,328.55 524.19,329.81 524.52,336.03 524.86,341.96 525.19,348.94 525.53,348.72 525.86,342.66 526.20,349.29 526.53,349.93 526.87,345.84 527.20,350.20 527.54,351.80 527.87,353.20 528.21,363.62 528.54,361.50 528.88,367.44 529.21,369.02 529.55,366.84 529.88,372.40 530.22,377.29 530.55,379.02 530.89,382.24 531.22,377.59 531.56,375.41 531.89,375.94 532.23,380.60 532.56,377.72 532.90,376.03 533.23,377.35 533.57,382.84 533.90,387.14 534.24,385.89 534.57,386.25 534.91,387.93 535.24,383.32 535.58,387.87 535.91,382.09 536.25,391.39 536.58,392.81 536.92,390.79 537.25,386.10 537.59,379.31 537.92,381.48 538.26,382.51 538.59,385.49 538.93,380.65 539.26,379.67 539.60,376.19 539.93,379.03 540.27,379.95 540.60,378.93 540.94,379.67 541.27,375.24 541.61,377.96 541.94,369.72 542.28,369.85 542.61,366.82 542.95,364.05 543.28,366.77 543.62,361.05 543.95,364.93 544.29,365.92 544.62,361.63 544.96,357.37 545.29,360.87 545.63,362.45 545.96,354.05 546.30,349.99 546.63,353.45 546.97,357.61 547.30,354.62 547.64,353.92 547.97,345.50 548.31,344.45 548.64,342.38 548.98,342.27 549.31,346.81 549.65,349.35 549.98,354.40 550.32,359.87 550.65,356.44 550.99,350.27 551.32,355.48 551.66,348.06 551.99,344.69 552.33,342.49 552.66,342.03 553.00,345.35 553.33,355.30 553.67,351.96 554.00,359.08 554.34,358.49 554.67,356.36 555.01,360.06 555.34,359.19 555.68,363.90 556.01,359.17 556.35,355.44 556.68,357.35 557.02,358.30 557.35,362.97 557.69,365.35 558.02,364.59 558.36,368.67 558.69,373.11 559.03,370.89 559.36,370.81 559.70,368.57 560.03,366.69 560.37,369.91 560.70,368.71 561.04,368.05 561.37,370.89 561.71,367.91 562.04,369.55 562.38,372.14 562.71,376.02 563.05,382.08 563.38,383.43 563.72,386.22 564.05,385.68 564.39,392.80 564.72,393.91 565.06,397.46 565.39,402.57 565.73,409.80 566.06,412.17 566.40,408.04 566.73,405.93 567.07,407.41 567.40,403.81 567.74,403.26 568.07,407.67 568.41,401.79 568.74,402.66 569.08,399.41 569.41,398.18 569.75,406.55 570.08,404.68 570.42,399.79 570.75,404.59 571.09,408.49 571.42,409.41 571.76,407.57 572.09,405.01 572.43,404.54 572.76,402.78 573.10,400.92 573.43,399.12 573.77,402.47 574.10,402.54 574.44,404.10 574.77,401.83 575.11,397.60 575.44,392.97 575.78,390.07 576.11,391.82 576.45,397.12 576.78,394.26 577.12,393.71 577.45,395.92 577.79,398.99 578.12,395.28 578.46,395.80 578.79,398.28 579.13,400.34 579.46,401.84 579.80,400.16 580.13,400.74 580.47,403.40 580.80,402.81 581.14,401.77 581.47,398.84 581.81,394.97 582.14,394.99 582.48,396.10 582.81,394.18 583.15,393.97 583.48,395.24 583.82,396.88 584.15,395.40 584.49,395.54 584.82,392.97 585.16,391.24 585.49,389.98 585.83,389.57 586.16,387.48 586.50,388.49 586.83,391.57 587.17,389.48 587.50,386.47 587.84,386.32 588.17,387.18 588.51,385.91 588.84,383.81 589.18,383.14 589.51,385.18 589.85,389.16 590.18,391.68 590.52,392.37 590.85,392.86 591.19,392.30 591.52,389.69 591.86,387.79 592.19,387.21 592.53,387.79 592.86,391.07 593.20,391.25 593.53,389.78 593.87,391.55 594.20,389.96 594.54,390.02 594.87,387.72 595.21,382.98 595.54,380.21 595.88,378.04 596.21,378.04 596.55,377.30 596.88,374.37 597.22,370.74 597.55,370.62 597.89,370.48 598.22,371.42 598.56,370.09 598.89,368.31 599.23,364.80 599.56,363.42 599.90,369.88 600.23,373.34 600.57,372.94 600.90,372.50 601.24,371.94 601.57,368.84 601.91,368.05 602.24,369.50 602.58,367.89 602.91,363.52 603.25,369.78 603.58,369.40 603.92,372.95 604.25,377.25 604.59,378.19 604.92,379.95 605.26,382.80 605.59,380.11 605.93,383.36 606.26,381.19 606.60,382.26 606.93,383.25 607.27,383.49 607.60,384.61 607.94,378.36 608.27,380.85 608.61,376.11 608.94,374.46 609.28,375.77 609.61,375.67 609.95,378.94 610.28,381.90 610.62,375.69 610.95,377.42 611.29,380.17 611.62,373.21 611.96,367.27 612.29,370.22 612.63,368.35 612.96,369.09 613.30,371.48 613.63,375.53 613.97,373.45 614.30,368.91 614.64,367.03 614.97,365.22 615.31,363.24 615.64,359.89 615.98,358.83 616.31,364.30 616.65,365.12 616.98,367.55 617.32,364.80 617.65,372.70 617.99,372.47 618.32,365.73 618.66,366.40 618.99,364.89 619.33,356.34 619.66,353.10 620.00,356.69 620.33,354.06 620.67,353.57 621.00,352.30 621.34,355.78 621.67,353.30 622.01,350.80 622.34,351.91 622.68,345.23 623.01,348.01 623.35,347.16 623.68,341.97 624.02,347.66 624.35,345.88 624.69,341.70 625.02,343.55 625.36,342.19 625.69,340.18 626.03,339.96 626.36,343.33 626.70,349.73 627.03,354.03 627.37,348.58 627.70,348.56 628.04,344.93 628.37,344.05 628.71,344.56 629.04,349.53 629.38,352.48 629.71,357.85 630.05,360.70 630.38,362.73 630.72,359.74 631.05,356.43 631.39,359.75 631.72,351.16 632.06,355.20 632.39,357.05 632.73,350.14 633.06,343.53 633.40,331.95 633.73,331.80 634.07,336.90 634.40,340.26 634.74,336.47 635.07,327.64 635.41,336.60 635.74,337.88 636.08,343.19 636.41,341.77 636.75,343.64 637.08,344.38 637.42,336.15 637.75,327.05 638.09,332.79 638.42,327.54 638.76,326.02 639.09,325.14 639.43,328.49 639.76,323.11 640.10,325.51 640.43,317.64 640.77,308.87 641.10,306.36 641.44,305.23 641.77,305.38 642.11,308.68 642.44,308.08 642.78,307.06 643.11,312.17 643.45,301.58 643.78,295.63 644.12,289.95 644.45,289.86 644.79,291.58 645.12,295.42 645.46,298.61 645.79,296.45 646.13,287.05 646.46,288.14 646.80,292.33 647.13,288.09 647.47,293.53 647.80,288.67 648.14,277.58 648.47,270.17 648.81,272.46 649.14,267.66 649.48,268.10 649.81,263.64 650.15,262.10 650.48,268.10 650.82,274.82 651.15,272.71 651.49,284.18 651.82,282.26 652.16,288.89 652.49,289.44 652.83,300.72 653.16,305.77 653.50,296.54 653.83,297.49 654.17,299.40 654.50,299.61 654.84,293.48 655.17,290.33 655.51,294.39 655.84,296.98 656.18,304.05 656.51,299.45 656.85,298.71 657.18,313.28 657.52,320.69 657.85,314.08 658.19,300.72 658.52,299.84 658.86,293.07 659.19,286.53 659.53,281.38 659.86,289.13 660.20,288.28 660.53,292.12 660.87,288.33 661.20,290.13 661.54,286.01 661.87,281.75 662.21,295.66 662.54,306.35 662.88,296.97 663.21,309.52 663.55,320.07 663.88,316.29 664.22,307.00 664.55,316.75 664.89,312.16 665.22,299.44 665.56,300.27 665.89,297.85 666.23,301.93 666.56,297.72 666.90,293.81 667.23,305.16 667.57,316.57 667.90,302.17 668.24,305.56 668.57,299.25 668.91,307.33 669.24,300.48 669.58,294.27 669.91,302.56 670.25,316.76 670.58,321.46 670.92,327.51 671.25,323.68 671.59,320.54 671.92,327.14 672.26,321.67 672.59,331.13 672.93,317.22 673.26,317.57 673.60,318.42 673.93,328.38 674.27,330.60 674.60,326.43 674.94,316.23 675.27,311.48 675.61,303.36 675.94,309.25 676.28,311.48 676.61,321.35 676.95,323.50 677.28,306.79 677.62,292.21 677.95,303.61 678.29,298.19 678.62,314.70 678.96,312.02 679.29,322.32 679.63,330.39 679.96,333.19 680.30,329.50 680.63,338.32 680.97,342.40 681.30,344.10 681.64,336.82 681.97,344.80 682.31,355.41 682.64,349.04 682.98,345.22 683.31,351.82 683.65,348.51 683.98,354.50 684.32,361.63 684.65,366.96 684.99,370.20 685.32,370.72 685.66,378.24 685.99,381.41 686.33,377.53 686.66,375.34 687.00,376.58 687.33,374.21 687.67,378.88 688.00,375.39 688.34,380.14 688.67,368.48 689.01,377.28 689.34,377.04 689.68,367.52 690.01,365.28 690.35,362.67 690.68,369.78 691.02,371.08 691.35,371.75 691.69,364.35 692.02,360.42 692.36,356.63 692.69,351.56 693.03,355.26 693.36,351.63 693.70,358.62 694.03,355.84 694.37,355.53 694.70,347.00 695.04,347.17 695.37,345.65 695.71,337.65 696.04,329.31 696.38,333.17 696.71,344.24 697.05,340.26 697.38,326.09 697.72,332.43 698.05,331.71 698.39,333.43 698.72,326.60 699.06,322.59 699.39,321.50 699.73,327.87 700.06,323.78 700.40,314.32 700.73,309.29 701.07,303.19 701.40,313.12 701.74,320.88 702.07,324.19 702.41,324.76 702.74,321.34 703.08,313.26 703.41,312.50 703.75,320.58 704.08,321.92 704.42,337.45 704.75,328.50 705.09,335.99 705.42,335.18 705.76,338.71 706.09,328.16 706.43,320.90 706.76,315.41 707.10,310.41 707.43,298.11 707.77,307.26 708.10,314.61 708.44,309.77 708.77,310.70 709.11,313.56 709.44,317.95 709.78,317.90 710.11,316.74 710.45,318.99 710.78,324.36 711.12,336.66 711.45,340.63 711.79,339.01 712.12,341.92 712.46,340.72 712.79,341.29 713.13,345.84 713.46,344.03 713.80,339.15 714.13,341.79 714.47,345.28 714.80,340.91 715.14,341.25 715.47,342.32 715.81,341.05 716.14,345.52 716.48,337.49 716.81,332.45 717.15,336.57 717.48,338.39 717.82,331.69 718.15,336.67 718.49,342.37 718.82,342.39 719.16,343.86 719.49,338.66 719.83,344.31 720.16,336.28 720.50,335.01 720.83,332.93 721.17,335.51 721.50,338.77 721.84,337.16 722.17,335.95 722.51,338.07 722.84,346.87 723.18,334.54 723.51,333.32 723.85,329.51 724.18,327.95 724.52,327.81 724.85,330.28 725.19,338.16 725.52,337.56 725.86,337.85 726.19,332.78 726.53,331.49 726.86,342.99 727.20,333.35 727.53,322.40 727.87,317.27 728.20,330.57 728.54,341.88 728.87,344.37 729.21,345.03 729.54,349.44 729.88,347.71 730.21,341.78 730.55,354.23 730.88,345.04 731.22,343.73 731.55,332.55 731.89,336.07 732.22,332.14 732.56,342.01 732.89,335.21 733.23,339.10 733.56,334.41 733.90,324.67 734.23,318.14 734.57,320.58 734.90,326.39 735.24,324.32 735.57,324.12 735.91,323.65 736.24,323.47 736.58,328.41 736.91,338.63 737.25,341.87 737.58,344.57 737.92,353.21 738.25,347.67 738.59,352.17 738.92,345.77 739.26,339.76 739.59,345.46 739.93,355.02 740.26,352.71 740.60,344.70 740.93,350.56 741.27,358.92 741.60,355.45 741.94,361.60 742.27,358.48 742.61,356.21 742.94,356.32 743.28,360.42 743.61,361.89 743.95,370.33 744.28,365.27 744.62,363.18 744.95,357.75 745.29,349.52 745.62,347.41 745.96,336.87 746.29,341.35 746.63,336.98 746.96,335.75 747.30,334.22 747.63,328.12 747.97,332.63 748.30,332.36 748.64,331.29 748.97,323.03 749.31,313.62 749.64,319.56 749.98,319.46 750.31,326.62 750.65,325.18 750.98,330.81 751.32,332.19 751.65,317.93 751.99,318.39 752.32,322.62 752.66,319.40 752.99,321.68 753.33,334.91 753.66,335.74 754.00,332.73 754.33,337.82 754.67,339.23 755.00,344.04"/>
<line x1="783" y1="58" x2="809" y2="58" stroke="#2563eb" stroke-width="3"/>
<text x="817" y="62" font-family="Arial" font-size="13" fill="#111827">Naive</text>
<polyline fill="none" stroke="#dc2626" stroke-width="2" points="85.00,406.33 85.34,406.31 85.67,406.29 86.01,406.26 86.34,406.19 86.68,406.07 87.01,405.83 87.35,405.68 87.68,405.60 88.02,405.57 88.35,405.71 88.69,405.94 89.02,406.12 89.36,406.26 89.69,406.42 90.03,406.27 90.36,406.08 90.70,405.89 91.03,405.90 91.37,405.97 91.70,406.02 92.04,405.87 92.37,405.83 92.71,405.83 93.04,406.00 93.38,405.74 93.71,405.84 94.05,405.98 94.38,406.01 94.72,406.07 95.05,406.05 95.39,406.09 95.72,406.07 96.06,406.01 96.39,405.88 96.73,405.93 97.06,405.73 97.40,405.55 97.73,405.56 98.07,405.72 98.40,405.83 98.74,405.75 99.07,405.39 99.41,405.08 99.74,405.29 100.08,405.73 100.41,406.57 100.75,406.76 101.08,407.02 101.42,407.09 101.75,407.86 102.09,407.91 102.42,407.60 102.76,407.48 103.09,407.22 103.43,406.94 103.76,406.58 104.10,406.41 104.43,406.68 104.77,406.79 105.10,406.95 105.44,406.78 105.77,407.30 106.11,407.48 106.44,407.52 106.78,407.57 107.11,407.44 107.45,407.33 107.78,407.23 108.12,407.27 108.45,407.24 108.79,407.01 109.12,407.04 109.46,406.96 109.79,406.75 110.13,406.69 110.46,406.82 110.80,406.89 111.13,406.97 111.47,407.56 111.80,407.59 112.14,407.21 112.47,407.15 112.81,407.26 113.14,406.96 113.48,406.80 113.81,406.81 114.15,406.91 114.48,406.79 114.82,406.88 115.15,406.99 115.49,406.83 115.82,407.05 116.16,407.04 116.49,407.28 116.83,407.39 117.16,407.33 117.50,407.27 117.83,407.23 118.17,407.23 118.50,407.22 118.84,406.98 119.17,407.17 119.51,406.90 119.84,406.94 120.18,407.21 120.51,406.68 120.85,406.27 121.18,405.89 121.52,406.07 121.85,406.49 122.19,405.89 122.52,406.11 122.86,406.33 123.19,406.31 123.53,405.80 123.86,406.26 124.20,405.91 124.53,405.26 124.87,405.23 125.20,405.46 125.54,405.95 125.87,407.72 126.21,409.88 126.54,410.50 126.88,410.49 127.21,409.63 127.55,409.14 127.88,408.92 128.22,409.14 128.55,409.50 128.89,409.10 129.22,409.45 129.56,409.50 129.89,409.90 130.23,410.83 130.56,410.43 130.90,410.18 131.23,409.89 131.57,409.24 131.90,409.63 132.24,409.80 132.57,409.47 132.91,408.98 133.24,408.92 133.58,408.88 133.91,408.91 134.25,408.54 134.58,408.87 134.92,408.79 135.25,408.74 135.59,408.89 135.92,408.47 136.26,408.50 136.59,407.60 136.93,408.31 137.26,408.74 137.60,408.88 137.93,409.07 138.27,408.84 138.60,408.52 138.94,408.80 139.27,407.84 139.61,407.39 139.94,407.52 140.28,406.41 140.61,406.48 140.95,406.31 141.28,405.64 141.62,406.13 141.95,404.60 142.29,404.37 142.62,403.21 142.96,404.92 143.29,404.43 143.63,404.66 143.96,404.02 144.30,404.78 144.63,405.03 144.97,405.09 145.30,405.26 145.64,405.08 145.97,405.11 146.31,405.11 146.64,407.24 146.98,407.06 147.31,405.60 147.65,405.88 147.98,406.27 148.32,405.66 148.65,405.40 148.99,404.11 149.32,403.74 149.66,404.69 149.99,404.78 150.33,405.89 150.66,405.94 151.00,406.36 151.33,406.33 151.67,406.08 152.00,406.17 152.34,403.03 152.67,405.82 153.01,405.61 153.34,405.18 153.68,406.20 154.01,404.54 154.35,404.37 154.68,404.80 155.02,404.20 155.35,403.29 155.69,402.96 156.02,403.21 156.36,404.09 156.69,405.27 157.03,401.86 157.36,400.56 157.70,402.15 158.03,402.61 158.37,401.43 158.70,400.33 159.04,399.03 159.37,399.53 159.71,400.09 160.04,401.53 160.38,404.01 160.71,405.04 161.05,403.55 161.38,403.49 161.72,404.99 162.05,407.45 162.39,408.67 162.72,408.78 163.06,407.57 163.39,404.83 163.73,404.73 164.06,402.97 164.40,402.25 164.73,405.03 165.07,408.02 165.40,409.28 165.74,410.26 166.07,413.27 166.41,411.53 166.74,409.72 167.08,408.69 167.41,409.27 167.75,409.70 168.08,410.36 168.42,410.63 168.75,410.83 169.09,411.29 169.42,411.66 169.76,411.78 170.09,411.35 170.43,411.80 170.76,412.02 171.10,413.29 171.43,412.39 171.77,412.20 172.10,413.16 172.44,413.24 172.77,412.94 173.11,413.76 173.44,413.99 173.78,413.54 174.11,413.49 174.45,412.58 174.78,412.10 175.12,411.90 175.45,411.78 175.79,411.51 176.12,411.35 176.46,411.78 176.79,411.71 177.13,411.60 177.46,411.43 177.80,411.28 178.13,411.22 178.47,411.10 178.80,410.96 179.14,410.70 179.47,410.53 179.81,410.73 180.14,410.81 180.48,410.48 180.81,410.64 181.15,409.57 181.48,409.11 181.82,410.03 182.15,410.13 182.49,409.98 182.82,409.61 183.16,408.92 183.49,409.15 183.83,409.23 184.16,409.82 184.50,409.08 184.83,409.74 185.17,409.16 185.50,408.02 185.84,408.02 186.17,408.22 186.51,408.65 186.84,408.13 187.18,406.37 187.51,405.48 187.85,406.75 188.18,405.77 188.52,405.10 188.85,403.29 189.19,403.96 189.52,405.12 189.86,404.55 190.19,404.12 190.53,403.80 190.86,403.11 191.20,403.20 191.53,403.50 191.87,403.42 192.20,403.87 192.54,402.78 192.87,403.42 193.21,404.14 193.54,400.51 193.88,402.87 194.21,402.11 194.55,404.46 194.88,402.06 195.22,400.51 195.55,401.12 195.89,402.29 196.22,400.63 196.56,403.77 196.89,403.81 197.23,404.78 197.56,407.69 197.90,404.12 198.23,401.92 198.57,399.50 198.90,397.61 199.24,401.23 199.57,399.94 199.91,397.50 200.24,399.67 200.58,399.87 200.91,401.45 201.25,402.12 201.58,401.85 201.92,398.02 202.25,394.75 202.59,393.08 202.92,391.09 203.26,386.13 203.59,385.19 203.93,385.72 204.26,382.66 204.60,387.95 204.93,389.71 205.27,390.73 205.60,388.15 205.94,382.72 206.27,382.94 206.61,380.35 206.94,382.47 207.28,385.82 207.61,386.28 207.95,386.03 208.28,386.25 208.62,390.63 208.95,390.97 209.29,391.06 209.62,392.55 209.96,388.60 210.29,388.73 210.63,388.25 210.96,387.55 211.30,387.52 211.63,389.12 211.97,390.09 212.30,385.57 212.64,388.82 212.97,390.06 213.31,392.45 213.64,390.94 213.98,385.65 214.31,391.53 214.65,385.25 214.98,385.58 215.32,383.01 215.65,382.32 215.99,380.02 216.32,384.07 216.66,386.87 216.99,384.40 217.33,381.63 217.66,383.22 218.00,378.09 218.33,380.76 218.67,384.75 219.00,383.15 219.34,385.69 219.67,383.97 220.01,382.76 220.34,378.47 220.68,378.48 221.01,378.64 221.35,381.22 221.68,381.43 222.02,387.20 222.35,383.90 222.69,385.98 223.02,387.12 223.36,389.34 223.69,391.93 224.03,395.33 224.36,396.77 224.70,391.73 225.03,394.93 225.37,396.41 225.70,396.93 226.04,402.28 226.37,404.28 226.71,402.88 227.04,402.70 227.38,407.83 227.71,407.57 228.05,414.05 228.38,411.15 228.72,410.09 229.05,415.17 229.39,414.69 229.72,415.69 230.06,414.02 230.39,413.68 230.73,409.37 231.06,407.70 231.40,406.50 231.73,407.73 232.07,408.81 232.40,409.49 232.74,406.93 233.07,406.72 233.41,407.73 233.74,408.29 234.08,407.26 234.41,410.50 234.75,411.25 235.08,412.20 235.42,413.67 235.75,409.77 236.09,407.94 236.42,406.17 236.76,402.89 237.09,401.44 237.43,397.79 237.76,397.99 238.10,394.15 238.43,392.94 238.77,395.06 239.10,396.03 239.44,397.91 239.77,398.55 240.11,401.16 240.44,400.72 240.78,400.25 241.11,398.13 241.45,398.40 241.78,396.26 242.12,393.89 242.45,390.48 242.79,390.60 243.12,387.43 243.46,388.75 243.79,388.40 244.13,388.19 244.46,383.92 244.80,382.82 245.13,379.37 245.47,377.95 245.80,378.11 246.14,375.36 246.47,373.68 246.81,372.91 247.14,370.87 247.48,372.42 247.81,368.86 248.15,367.00 248.48,365.11 248.82,363.10 249.15,364.94 249.49,361.64 249.82,363.17 250.16,364.41 250.49,359.96 250.83,355.05 251.16,356.06 251.50,355.13 251.83,351.74 252.17,353.93 252.50,351.85 252.84,346.59 253.17,345.68 253.51,348.06 253.84,342.70 254.18,345.68 254.51,337.17 254.85,342.35 255.18,336.65 255.52,331.90 255.85,331.74 256.19,335.90 256.52,339.90 256.86,341.40 257.19,343.71 257.53,351.78 257.86,351.84 258.20,351.84 258.53,355.29 258.87,356.50 259.20,355.41 259.54,362.42 259.87,359.73 260.21,357.30 260.54,363.27 260.88,357.82 261.21,358.98 261.55,360.09 261.88,363.00 262.22,364.68 262.55,363.43 262.89,364.23 263.22,363.14 263.56,367.95 263.89,368.08 264.23,365.73 264.56,362.15 264.90,357.75 265.23,358.34 265.57,357.98 265.90,354.41 266.24,357.64 266.57,358.00 266.91,355.74 267.24,348.96 267.58,354.20 267.91,356.03 268.25,361.75 268.58,362.84 268.92,365.63 269.25,368.74 269.59,367.91 269.92,364.58 270.26,364.58 270.59,363.82 270.93,362.32 271.26,363.32 271.60,366.60 271.93,362.44 272.27,362.81 272.60,364.15 272.94,364.07 273.27,360.71 273.61,361.97 273.94,362.56 274.28,361.72 274.61,358.49 274.95,357.82 275.28,359.03 275.62,358.44 275.95,356.84 276.29,353.68 276.62,352.57 276.96,351.87 277.29,352.07 277.63,354.51 277.96,355.25 278.30,358.29 278.63,354.94 278.97,353.33 279.30,352.21 279.64,355.31 279.97,357.96 280.31,354.24 280.64,353.03 280.98,351.02 281.31,348.98 281.65,350.96 281.98,353.03 282.32,346.15 282.65,340.40 282.99,341.82 283.32,341.89 283.66,338.70 283.99,338.80 284.33,338.44 284.66,341.69 285.00,341.35 285.33,343.24 285.67,346.60 286.00,347.19 286.34,341.31 286.67,344.21 287.01,347.63 287.34,342.88 287.68,350.34 288.01,350.58 288.35,348.65 288.68,350.98 289.02,353.68 289.35,354.20 289.69,355.08 290.02,353.16 290.36,344.52 290.69,347.42 291.03,346.01 291.36,348.73 291.70,345.31 292.03,345.62 292.37,344.14 292.70,339.80 293.04,341.84 293.37,341.90 293.71,340.82 294.04,337.08 294.38,333.80 294.71,334.31 295.05,339.05 295.38,341.13 295.72,340.71 296.05,342.25 296.39,342.49 296.72,344.90 297.06,339.10 297.39,340.07 297.73,345.65 298.06,343.99 298.40,348.29 298.73,348.67 299.07,351.78 299.40,352.69 299.74,352.16 300.07,354.68 300.41,355.49 300.74,360.01 301.08,358.41 301.41,359.02 301.75,364.03 302.08,361.04 302.42,360.88 302.75,362.46 303.09,362.55 303.42,365.28 303.76,361.85 304.09,358.42 304.43,360.71 304.76,354.86 305.10,356.39 305.43,358.40 305.77,359.51 306.10,354.84 306.44,353.26 306.77,351.84 307.11,348.08 307.44,347.96 307.78,353.52 308.11,348.39 308.45,344.28 308.78,341.76 309.12,340.87 309.45,338.38 309.79,334.34 310.12,336.03 310.46,333.57 310.79,331.86 311.13,331.38 311.46,334.16 311.80,336.33 312.13,338.04 312.47,330.67 312.80,333.15 313.14,332.34 313.47,336.07 313.81,334.66 314.14,334.41 314.48,335.63 314.81,334.95 315.15,336.32 315.48,335.63 315.82,331.22 316.15,330.12 316.49,326.55 316.82,326.74 317.16,324.77 317.49,329.40 317.83,329.43 318.16,331.39 318.50,330.81 318.83,331.94 319.17,333.41 319.50,332.36 319.84,334.76 320.17,338.54 320.51,339.24 320.84,332.87 321.18,334.16 321.51,334.99 321.85,328.86 322.18,329.09 322.52,326.71 322.85,316.36 323.19,313.14 323.52,310.18 323.86,313.99 324.19,309.92 324.53,313.63 324.86,307.80 325.20,308.20 325.53,312.27 325.87,312.81 326.20,312.44 326.54,311.60 326.87,312.01 327.21,310.35 327.54,308.67 327.88,316.86 328.21,311.11 328.55,307.43 328.88,304.24 329.22,302.71 329.55,302.86 329.89,304.97 330.22,304.14 330.56,298.47 330.89,302.75 331.23,311.40 331.56,301.68 331.90,293.09 332.23,290.56 332.57,296.59 332.90,295.92 333.24,295.51 333.57,296.32 333.91,298.04 334.24,298.73 334.58,291.62 334.91,293.02 335.25,293.38 335.58,288.77 335.92,279.80 336.25,280.87 336.59,282.81 336.92,275.06 337.26,281.30 337.59,273.29 337.93,267.01 338.26,262.19 338.60,258.22 338.93,251.53 339.27,247.73 339.60,248.06 339.94,246.97 340.27,242.88 340.61,232.55 340.94,229.85 341.28,229.65 341.61,224.50 341.95,225.40 342.28,219.69 342.62,227.13 342.95,217.87 343.29,209.43 343.62,210.03 343.96,214.03 344.29,216.90 344.63,237.52 344.96,243.02 345.30,239.08 345.63,230.96 345.97,239.11 346.30,238.13 346.64,241.76 346.97,241.27 347.31,232.72 347.64,231.09 347.98,227.03 348.31,234.65 348.65,232.57 348.98,233.06 349.32,233.16 349.65,236.84 349.99,234.05 350.32,239.10 350.66,230.94 350.99,232.84 351.33,241.47 351.66,240.14 352.00,235.71 352.33,231.69 352.67,239.02 353.00,245.23 353.34,247.45 353.67,248.94 354.01,258.96 354.34,265.35 354.68,261.53 355.01,268.96 355.35,270.78 355.68,272.81 356.02,280.97 356.35,278.53 356.69,274.73 357.02,262.75 357.36,254.19 357.69,250.75 358.03,250.85 358.36,248.27 358.70,252.45 359.03,239.21 359.37,230.18 359.70,229.96 360.04,226.49 360.37,225.95 360.71,231.19 361.04,235.41 361.38,237.36 361.71,233.57 362.05,237.62 362.38,239.63 362.72,237.83 363.05,232.97 363.39,230.22 363.72,223.69 364.06,221.81 364.39,219.84 364.73,221.86 365.06,218.09 365.40,218.61 365.73,218.13 366.07,220.80 366.40,224.51 366.74,219.21 367.07,228.45 367.41,226.07 367.74,219.52 368.08,217.51 368.41,218.99 368.75,217.61 369.08,217.18 369.42,221.05 369.75,220.98 370.09,220.71 370.42,216.54 370.76,221.52 371.09,219.52 371.43,223.48 371.76,225.63 372.10,230.52 372.43,228.87 372.77,229.46 373.10,229.58 373.44,228.98 373.77,232.31 374.11,227.65 374.44,226.45 374.78,226.38 375.11,226.19 375.45,233.83 375.78,236.00 376.12,234.42 376.45,235.74 376.79,230.70 377.12,229.93 377.46,234.47 377.79,236.38 378.13,233.95 378.46,239.00 378.80,242.30 379.13,238.60 379.47,235.59 379.80,233.19 380.14,232.79 380.47,237.50 380.81,245.50 381.14,237.11 381.48,238.62 381.81,234.06 382.15,238.27 382.48,236.68 382.82,231.59 383.15,234.26 383.49,236.72 383.82,239.47 384.16,237.75 384.49,244.41 384.83,246.00 385.16,245.97 385.50,244.18 385.83,244.16 386.17,241.52 386.50,239.86 386.84,237.55 387.17,236.12 387.51,238.87 387.84,236.24 388.18,235.30 388.51,233.75 388.85,232.15 389.18,230.21 389.52,229.71 389.85,228.79 390.19,232.64 390.52,235.49 390.86,235.27 391.19,231.34 391.53,229.79 391.86,235.24 392.20,230.10 392.53,228.32 392.87,230.44 393.20,226.93 393.54,226.30 393.87,227.54 394.21,234.09 394.54,235.63 394.88,235.39 395.21,242.00 395.55,242.58 395.88,244.54 396.22,246.06 396.55,246.34 396.89,245.51 397.22,245.94 397.56,244.30 397.89,245.69 398.23,243.75 398.56,241.74 398.90,240.67 399.23,241.30 399.57,243.49 399.90,242.73 400.24,241.49 400.57,243.27 400.91,242.33 401.24,244.68 401.58,242.79 401.91,241.55 402.25,239.12 402.58,238.55 402.92,236.33 403.25,238.06 403.59,240.32 403.92,242.77 404.26,242.08 404.59,243.12 404.93,244.20 405.26,246.22 405.60,248.27 405.93,248.80 406.27,249.08 406.60,249.80 406.94,250.53 407.27,249.69 407.61,251.19 407.94,253.57 408.28,253.47 408.61,253.98 408.95,253.76 409.28,253.76 409.62,253.30 409.95,254.45 410.29,253.62 410.62,254.37 410.96,254.42 411.29,252.58 411.63,252.82 411.96,251.71 412.30,251.17 412.63,250.35 412.97,250.69 413.30,250.99 413.64,251.19 413.97,251.55 414.31,252.11 414.64,250.43 414.98,249.87 415.31,249.17 415.65,248.90 415.98,248.46 416.32,248.37 416.65,248.32 416.99,248.13 417.32,247.93 417.66,247.57 417.99,247.42 418.33,247.34 418.66,247.34 419.00,247.19 419.33,247.21 419.67,247.09 420.00,247.01 420.34,247.14 420.67,247.13 421.01,246.94 421.34,246.89 421.68,247.14 422.01,247.16 422.35,246.94 422.68,247.12 423.02,247.00 423.35,246.96 423.69,247.04 424.02,247.09 424.36,246.99 424.69,246.99 425.03,246.85 425.36,246.87 425.70,246.76 426.03,246.69 426.37,246.65 426.70,246.75 427.04,246.42 427.37,245.94 427.71,245.43 428.04,244.91 428.38,244.21 428.71,244.50 429.05,244.90 429.38,243.88 429.72,244.59 430.05,244.21 430.39,243.88 430.72,243.58 431.06,243.41 431.39,244.62 431.73,243.93 432.06,244.54 432.40,243.34 432.73,243.09 433.07,245.10 433.40,245.05 433.74,244.43 434.07,241.90 434.41,240.37 434.74,239.29 435.08,240.50 435.41,241.52 435.75,238.45 436.08,238.67 436.42,238.46 436.75,240.20 437.09,239.29 437.42,236.79 437.76,235.73 438.09,235.14 438.43,234.21 438.76,232.11 439.10,229.84 439.43,229.90 439.77,229.36 440.10,230.04 440.44,229.37 440.77,226.80 441.11,225.26 441.44,225.21 441.78,225.56 442.11,222.64 442.45,222.30 442.78,225.47 443.12,223.91 443.45,224.90 443.79,221.13 444.12,218.48 444.46,218.39 444.79,220.53 445.13,222.38 445.46,222.72 445.80,223.49 446.13,219.69 446.47,222.70 446.80,226.48 447.14,226.09 447.47,225.59 447.81,229.84 448.14,228.34 448.48,228.57 448.81,227.78 449.15,229.19 449.48,228.81 449.82,232.08 450.15,229.08 450.49,227.45 450.82,228.67 451.16,226.26 451.49,223.23 451.83,222.59 452.16,226.45 452.50,223.12 452.83,220.29 453.17,216.26 453.50,216.28 453.84,216.65 454.17,213.26 454.51,210.56 454.84,209.81 455.18,213.97 455.51,215.40 455.85,218.92 456.18,218.22 456.52,215.98 456.85,215.13 457.19,216.94 457.52,216.21 457.86,217.23 458.19,210.41 458.53,210.22 458.86,206.94 459.20,212.22 459.53,211.87 459.87,212.09 460.20,210.84 460.54,208.49 460.87,209.97 461.21,210.86 461.54,208.88 461.88,215.93 462.21,216.83 462.55,217.17 462.88,215.24 463.22,219.32 463.55,223.91 463.89,219.99 464.22,222.06 464.56,223.27 464.89,223.89 465.23,224.90 465.56,222.90 465.90,217.01 466.23,213.52 466.57,208.94 466.90,208.41 467.24,207.39 467.57,205.86 467.91,207.82 468.24,211.11 468.58,210.88 468.91,207.80 469.25,205.11 469.58,209.78 469.92,208.38 470.25,211.87 470.59,206.17 470.92,206.95 471.26,206.37 471.59,205.25 471.93,201.57 472.26,201.71 472.60,200.24 472.93,199.25 473.27,194.31 473.60,195.09 473.94,200.41 474.27,205.69 474.61,207.52 474.94,210.40 475.28,209.33 475.61,212.57 475.95,209.68 476.28,213.55 476.62,210.74 476.95,210.32 477.29,202.40 477.62,198.22 477.96,195.72 478.29,197.34 478.63,199.51 478.96,200.04 479.30,206.74 479.63,207.95 479.97,207.01 480.30,206.80 480.64,202.70 480.97,208.62 481.31,205.65 481.64,200.40 481.98,202.85 482.31,205.68 482.65,211.33 482.98,215.58 483.32,214.15 483.65,218.08 483.99,223.61 484.32,225.89 484.66,222.08 484.99,223.42 485.33,222.98 485.66,221.71 486.00,223.06 486.33,228.54 486.67,227.01 487.00,221.45 487.34,218.32 487.67,218.92 488.01,219.44 488.34,214.25 488.68,214.49 489.01,213.17 489.35,212.81 489.68,210.92 490.02,213.48 490.35,219.32 490.69,214.71 491.02,210.49 491.36,210.60 491.69,213.61 492.03,217.46 492.36,214.75 492.70,210.08 493.03,208.53 493.37,202.40 493.70,205.13 494.04,204.20 494.37,201.84 494.71,197.84 495.04,197.86 495.38,194.90 495.71,199.85 496.05,204.74 496.38,201.55 496.72,200.34 497.05,204.24 497.39,203.10 497.72,207.49 498.06,207.85 498.39,204.26 498.73,203.58 499.06,198.69 499.40,201.61 499.73,203.44 500.07,203.19 500.40,207.45 500.74,197.92 501.07,197.84 501.41,205.35 501.74,210.40 502.08,212.65 502.41,208.85 502.75,210.64 503.08,210.24 503.42,211.77 503.75,208.50 504.09,207.18 504.42,206.48 504.76,205.36 505.09,207.09 505.43,209.80 505.76,214.31 506.10,212.04 506.43,210.03 506.77,208.53 507.10,208.30 507.44,210.36 507.77,208.62 508.11,205.81 508.44,203.93 508.78,203.75 509.11,203.11 509.45,203.88 509.78,210.31 510.12,212.82 510.45,217.40 510.79,217.58 511.12,218.86 511.46,221.67 511.79,219.02 512.13,213.38 512.46,212.67 512.80,211.60 513.13,209.43 513.47,212.66 513.80,215.42 514.14,216.32 514.47,221.88 514.81,221.94 515.14,222.46 515.48,223.00 515.81,226.55 516.15,222.45 516.48,221.67 516.82,225.56 517.15,225.28 517.49,224.80 517.82,223.79 518.16,224.95 518.49,226.14 518.83,224.79 519.16,223.37 519.50,223.02 519.83,221.47 520.17,222.94 520.50,223.14 520.84,222.98 521.17,220.91 521.51,221.53 521.84,224.61 522.18,223.42 522.51,224.60 522.85,225.44 523.18,226.95 523.52,226.58 523.85,227.70 524.19,227.11 524.52,225.13 524.86,223.37 525.19,221.43 525.53,221.50 525.86,223.03 526.20,221.38 526.53,221.21 526.87,222.15 527.20,221.13 527.54,220.72 527.87,220.37 528.21,217.84 528.54,218.32 528.88,216.71 529.21,216.20 529.55,216.75 529.88,214.98 530.22,213.25 530.55,212.54 530.89,211.28 531.22,212.77 531.56,213.42 531.89,213.13 532.23,211.20 532.56,212.25 532.90,212.87 533.23,212.24 533.57,209.70 533.90,207.64 534.24,208.04 534.57,207.76 534.91,206.71 535.24,208.97 535.58,206.43 535.91,209.50 536.25,204.11 536.58,203.04 536.92,204.03 537.25,206.82 537.59,211.10 537.92,209.65 538.26,208.94 538.59,206.81 538.93,210.19 539.26,210.87 539.60,213.34 539.93,211.32 540.27,210.64 540.60,211.32 540.94,210.78 541.27,213.82 541.61,211.92 541.94,217.59 542.28,217.43 542.61,219.33 542.95,220.92 543.28,219.15 543.62,222.49 543.95,220.13 544.29,219.50 544.62,221.71 544.96,223.79 545.29,221.88 545.63,221.04 545.96,224.90 546.30,226.57 546.63,224.91 546.97,223.03 547.30,224.18 547.64,224.38 547.97,227.58 548.31,227.78 548.64,228.34 548.98,228.25 549.31,226.50 549.65,225.57 549.98,223.94 550.32,222.22 550.65,223.25 550.99,225.15 551.32,223.58 551.66,225.73 551.99,226.60 552.33,227.08 552.66,227.11 553.00,226.25 553.33,223.91 553.67,224.67 554.00,223.03 554.34,223.14 554.67,223.59 555.01,222.74 555.34,222.90 555.68,221.80 556.01,222.86 556.35,223.69 556.68,223.23 557.02,222.99 557.35,221.90 557.69,221.32 558.02,221.49 558.36,220.41 558.69,219.17 559.03,219.73 559.36,219.71 559.70,220.34 560.03,220.90 560.37,219.87 560.70,220.25 561.04,220.45 561.37,219.48 561.71,220.47 562.04,219.91 562.38,219.01 562.71,217.57 563.05,215.22 563.38,214.59 563.72,213.31 564.05,213.33 564.39,209.96 564.72,209.22 565.06,207.33 565.39,204.42 565.73,200.65 566.06,199.15 566.40,200.75 566.73,201.46 567.07,200.14 567.40,201.72 567.74,201.54 568.07,198.38 568.41,201.56 568.74,200.59 569.08,202.53 569.41,203.00 569.75,196.77 570.08,197.73 570.42,200.88 570.75,196.74 571.09,193.08 571.42,192.00 571.76,193.23 572.09,195.05 572.43,195.13 572.76,196.30 573.10,197.69 573.43,199.21 573.77,195.59 574.10,195.15 574.44,193.13 574.77,195.26 575.11,199.41 575.44,204.35 575.78,207.57 576.11,205.52 576.45,199.22 576.78,202.46 577.12,202.97 577.45,199.96 577.79,195.57 578.12,200.46 578.46,199.52 578.79,195.62 579.13,192.21 579.46,189.59 579.80,191.83 580.13,190.36 580.47,185.54 580.80,186.12 581.14,187.52 581.47,192.53 581.81,199.59 582.14,199.50 582.48,197.21 582.81,201.07 583.15,201.49 583.48,198.83 583.82,195.25 584.15,198.39 584.49,198.03 584.82,203.78 585.16,207.64 585.49,210.30 585.83,211.08 586.16,215.28 586.50,213.12 586.83,207.15 587.17,211.08 587.50,216.47 587.84,216.64 588.17,215.08 588.51,217.11 588.84,220.36 589.18,221.24 589.51,218.04 589.85,212.07 590.18,208.26 590.52,207.18 590.85,206.37 591.19,207.25 591.52,211.32 591.86,214.24 592.19,215.11 592.53,214.21 592.86,209.34 593.20,209.01 593.53,211.14 593.87,208.44 594.20,210.79 594.54,210.63 594.87,214.03 595.21,220.82 595.54,224.43 595.88,226.91 596.21,226.61 596.55,227.22 596.88,230.35 597.22,233.99 597.55,233.58 597.89,233.11 598.22,231.74 598.56,232.52 598.89,233.84 599.23,236.63 599.56,237.23 599.90,231.33 600.23,228.25 600.57,228.44 600.90,228.66 601.24,228.97 601.57,231.06 601.91,231.46 602.24,230.34 602.58,231.34 602.91,234.01 603.25,230.07 603.58,230.27 603.92,228.11 604.25,225.52 604.59,224.94 604.92,223.80 605.26,221.95 605.59,223.65 605.93,221.45 606.26,222.92 606.60,222.17 606.93,221.44 607.27,221.22 607.60,220.35 607.94,225.10 608.27,223.18 608.61,226.73 608.94,227.92 609.28,226.95 609.61,227.00 609.95,224.74 610.28,222.66 610.62,226.95 610.95,225.75 611.29,223.83 611.62,228.70 611.96,232.65 612.29,230.59 612.63,231.66 612.96,231.11 613.30,229.67 613.63,227.36 613.97,228.49 614.30,230.98 614.64,231.92 614.97,232.79 615.31,233.70 615.64,235.11 615.98,235.44 616.31,232.87 616.65,232.43 616.98,231.40 617.32,232.43 617.65,229.48 617.99,229.54 618.32,232.00 618.66,231.73 618.99,232.22 619.33,234.88 619.66,235.71 620.00,234.49 620.33,235.11 620.67,235.12 621.00,235.26 621.34,234.25 621.67,234.72 622.01,235.13 622.34,234.76 622.68,235.87 623.01,235.18 623.35,235.18 623.68,235.83 624.02,234.82 624.35,234.92 624.69,235.30 625.02,234.94 625.36,234.93 625.69,234.97 626.03,234.79 626.36,234.34 626.70,233.75 627.03,233.39 627.37,233.66 627.70,233.58 628.04,233.65 628.37,233.51 628.71,233.39 629.04,233.24 629.38,233.17 629.71,233.15 630.05,233.16 630.38,233.15 630.72,233.12 631.05,233.10 631.39,233.15 631.72,232.97 632.06,233.05 632.39,233.12 632.73,232.88 633.06,232.54 633.40,231.84 633.73,231.66 634.07,231.88 634.40,232.04 634.74,231.68 635.07,230.84 635.41,231.48 635.74,231.48 636.08,231.93 636.41,231.73 636.75,231.88 637.08,231.93 637.42,230.83 637.75,229.48 638.09,230.15 638.42,229.25 638.76,228.94 639.09,228.65 639.43,229.08 639.76,228.06 640.10,228.38 640.43,226.89 640.77,225.11 641.10,224.41 641.44,223.93 641.77,223.74 642.11,224.25 642.44,223.96 642.78,223.58 643.11,224.61 643.45,222.06 643.78,220.46 644.12,218.92 644.45,218.65 644.79,218.85 645.12,219.61 645.46,220.21 645.79,219.56 646.13,216.90 646.46,217.04 646.80,218.02 647.13,216.66 647.47,218.03 647.80,216.51 648.14,213.04 648.47,210.57 648.81,210.99 649.14,209.39 649.48,209.22 649.81,207.58 650.15,206.88 650.48,208.64 650.82,210.72 651.15,209.85 651.49,213.62 651.82,212.89 652.16,215.13 652.49,215.28 652.83,219.28 653.16,221.08 653.50,217.74 653.83,218.07 654.17,218.75 654.50,218.81 654.84,216.63 655.17,215.49 655.51,216.94 655.84,217.86 656.18,220.42 656.51,218.75 656.85,218.48 657.18,223.70 657.52,226.34 657.85,223.99 658.19,219.27 658.52,218.94 658.86,216.54 659.19,214.20 659.53,212.32 659.86,215.10 660.20,214.78 660.53,216.16 660.87,214.77 661.20,215.44 661.54,213.93 661.87,212.38 662.21,217.44 662.54,221.31 662.88,217.93 663.21,222.41 663.55,226.13 663.88,224.76 664.22,221.52 664.55,224.89 664.89,223.31 665.22,218.94 665.56,219.21 665.89,218.38 666.23,219.76 666.56,218.31 666.90,216.96 667.23,220.84 667.57,224.75 667.90,219.81 668.24,220.95 668.57,218.77 668.91,221.52 669.24,219.17 669.58,217.04 669.91,219.84 670.25,224.68 670.58,226.27 670.92,228.29 671.25,226.98 671.59,225.92 671.92,228.06 672.26,226.27 672.59,229.25 672.93,224.86 673.26,224.97 673.60,225.24 673.93,228.23 674.27,228.85 674.60,227.61 674.94,224.63 675.27,223.24 675.61,220.86 675.94,222.58 676.28,223.22 676.61,226.10 676.95,226.72 677.28,221.86 677.62,217.59 677.95,220.93 678.29,219.34 678.62,224.18 678.96,223.38 679.29,226.36 679.63,228.67 679.96,229.41 680.30,228.35 680.63,230.74 680.97,231.77 681.30,232.14 681.64,230.15 681.97,232.19 682.31,234.83 682.64,233.10 682.98,232.06 683.31,233.53 683.65,232.60 683.98,233.88 684.32,235.38 684.65,236.35 684.99,236.90 685.32,236.78 685.66,238.06 685.99,238.45 686.33,237.49 686.66,236.83 687.00,236.97 687.33,236.27 687.67,236.85 688.00,236.10 688.34,236.64 688.67,234.60 689.01,235.77 689.34,235.47 689.68,233.98 690.01,233.55 690.35,233.10 690.68,233.86 691.02,233.89 691.35,233.85 691.69,232.98 692.02,232.54 692.36,232.15 692.69,231.67 693.03,231.99 693.36,231.69 693.70,232.25 694.03,232.02 694.37,231.98 694.70,231.25 695.04,231.25 695.37,231.10 695.71,230.38 696.04,229.53 696.38,229.87 696.71,231.04 697.05,230.58 697.38,228.98 697.72,229.68 698.05,229.57 698.39,229.77 698.72,228.82 699.06,228.20 699.39,227.99 699.73,228.93 700.06,228.28 700.40,226.67 700.73,225.73 701.07,224.56 701.40,226.29 701.74,227.70 702.07,228.31 702.41,228.40 702.74,227.75 703.08,226.21 703.41,226.05 703.75,227.61 704.08,227.86 704.42,230.84 704.75,229.12 705.09,230.54 705.42,230.38 705.76,231.01 706.09,229.08 706.43,227.75 706.76,226.72 707.10,225.74 707.43,223.26 707.77,225.05 708.10,226.56 708.44,225.52 708.77,225.71 709.11,226.32 709.44,227.28 709.78,227.25 710.11,226.99 710.45,227.47 710.78,228.63 711.12,231.35 711.45,232.15 711.79,231.76 712.12,232.31 712.46,232.06 712.79,232.14 713.13,232.95 713.46,232.56 713.80,231.67 714.13,232.10 714.47,232.66 714.80,231.93 715.14,231.97 715.47,232.12 715.81,231.92 716.14,232.56 716.48,231.41 716.81,230.71 717.15,231.26 717.48,231.48 717.82,230.58 718.15,231.21 718.49,231.95 718.82,231.94 719.16,232.12 719.49,231.53 719.83,232.15 720.16,231.26 720.50,231.11 720.83,230.86 721.17,231.16 721.50,231.52 721.84,231.32 722.17,231.16 722.51,231.39 722.84,232.41 723.18,230.96 723.51,230.79 723.85,230.31 724.18,230.11 724.52,230.08 724.85,230.41 725.19,231.46 725.52,231.36 725.86,231.38 726.19,230.68 726.53,230.48 726.86,231.98 727.20,230.68 727.53,229.17 727.87,228.42 728.20,230.35 728.54,232.01 728.87,232.36 729.21,232.45 729.54,233.07 729.88,232.81 730.21,232.01 730.55,233.62 730.88,232.44 731.22,232.26 731.55,230.87 731.89,231.30 732.22,230.79 732.56,232.04 732.89,231.16 733.23,231.65 733.56,231.02 733.90,229.74 734.23,228.84 734.57,229.14 734.90,229.97 735.24,229.66 735.57,229.61 735.91,229.53 736.24,229.50 736.58,230.26 736.91,231.86 737.25,232.34 737.58,232.71 737.92,233.86 738.25,233.09 738.59,233.62 738.92,232.83 739.26,232.12 739.59,232.77 739.93,233.83 740.26,233.54 740.60,232.71 740.93,233.29 741.27,234.05 741.60,233.66 741.94,234.10 742.27,233.76 742.61,233.56 742.94,233.51 743.28,233.64 743.61,233.61 743.95,233.75 744.28,233.54 744.62,233.44 744.95,233.28 745.29,233.19 745.62,233.18 745.96,233.13 746.29,233.16 746.63,233.09 746.96,233.05 747.30,232.98 747.63,232.72 747.97,232.89 748.30,232.86 748.64,232.79 748.97,232.24 749.31,231.51 749.64,231.86 749.98,231.80 750.31,232.38 750.65,232.24 750.98,232.77 751.32,232.89 751.65,231.49 751.99,231.49 752.32,231.92 752.66,231.52 752.99,231.75 753.33,233.42 753.66,233.51 754.00,233.13 754.33,233.75 754.67,233.92 755.00,234.47"/>
<line x1="783" y1="82" x2="809" y2="82" stroke="#dc2626" stroke-width="3"/>
<text x="817" y="86" font-family="Arial" font-size="13" fill="#111827">Avellaneda Stoikov</text>
<polyline fill="none" stroke="#7c3aed" stroke-width="2" points=""/>
<line x1="783" y1="106" x2="809" y2="106" stroke="#7c3aed" stroke-width="3"/>
<text x="817" y="110" font-family="Arial" font-size="13" fill="#111827">Calibrated Avellaneda Stoikov</text>
<text x="420.0" y="518" text-anchor="middle" font-family="Arial" font-size="14" fill="#111827">Event index</text>
<text x="22" y="256.0" text-anchor="middle" transform="rotate(-90 22 256.0)" font-family="Arial" font-size="14" fill="#111827">Net PnL after fees</text>
</svg>
