<svg xmlns="http://www.w3.org/2000/svg" width="940" height="540" viewBox="0 0 940 540">
<rect width="100%" height="100%" fill="#ffffff"/>
<text x="470.0" y="26" text-anchor="middle" font-family="Arial" font-size="18" fill="#111827">Low Volatility Inventory</text>
<line x1="85" y1="470" x2="755" y2="470" stroke="#111827" stroke-width="1"/>
<line x1="85" y1="42" x2="85" y2="470" stroke="#111827" stroke-width="1"/>
<line x1="85.00" y1="42" x2="85.00" y2="470" stroke="#e5e7eb" stroke-width="1"/>
<text x="85.00" y="494" text-anchor="middle" font-family="Arial" font-size="12" fill="#374151">0</text>
<line x1="252.50" y1="42" x2="252.50" y2="470" stroke="#e5e7eb" stroke-width="1"/>
<text x="252.50" y="494" text-anchor="middle" font-family="Arial" font-size="12" fill="#374151">50000</text>
<line x1="420.00" y1="42" x2="420.00" y2="470" stroke="#e5e7eb" stroke-width="1"/>
<text x="420.00" y="494" text-anchor="middle" font-family="Arial" font-size="12" fill="#374151">100000</text>
<line x1="587.50" y1="42" x2="587.50" y2="470" stroke="#e5e7eb" stroke-width="1"/>
<text x="587.50" y="494" text-anchor="middle" font-family="Arial" font-size="12" fill="#374151">149999</text>
<line x1="755.00" y1="42" x2="755.00" y2="470" stroke="#e5e7eb" stroke-width="1"/>
<text x="755.00" y="494" text-anchor="middle" font-family="Arial" font-size="12" fill="#374151">199999</text>
<line x1="85" y1="470.00" x2="755" y2="470.00" stroke="#e5e7eb" stroke-width="1"/>
<text x="73" y="474.00" text-anchor="end" font-family="Arial" font-size="12" fill="#374151">-5847</text>
<line x1="85" y1="363.00" x2="755" y2="363.00" stroke="#e5e7eb" stroke-width="1"/>
<text x="73" y="367.00" text-anchor="end" font-family="Arial" font-size="12" fill="#374151">14017</text>
<line x1="85" y1="256.00" x2="755" y2="256.00" stroke="#e5e7eb" stroke-width="1"/>
<text x="73" y="260.00" text-anchor="end" font-family="Arial" font-size="12" fill="#374151">33881</text>
<line x1="85" y1="149.00" x2="755" y2="149.00" stroke="#e5e7eb" stroke-width="1"/>
<text x="73" y="153.00" text-anchor="end" font-family="Arial" font-size="12" fill="#374151">53744</text>
<line x1="85" y1="42.00" x2="755" y2="42.00" stroke="#e5e7eb" stroke-width="1"/>
<text x="73" y="46.00" text-anchor="end" font-family="Arial" font-size="12" fill="#374151">73608</text>
<polyline fill="none" stroke="#2563eb" stroke-width="2" points="85.00,438.51 85.34,438.54 85.67,438.43 86.01,438.54 86.34,438.72 86.68,438.58 87.01,438.50 87.35,438.53 87.68,438.42 88.02,438.55 88.35,438.52 88.69,438.62 89.02,438.85 89.36,438.96 89.69,439.01 90.03,438.85 90.36,438.88 90.70,439.18 91.03,439.24 91.37,439.51 91.70,439.45 92.04,439.62 92.37,439.78 92.71,439.67 93.04,439.73 93.38,439.79 93.71,439.86 94.05,440.02 94.38,440.00 94.72,439.90 95.05,439.78 95.39,439.85 95.72,439.64 96.06,439.69 96.39,439.83 96.73,439.99 97.06,440.00 97.40,440.15 97.73,440.20 98.07,440.10 98.40,439.93 98.74,439.93 99.07,439.97 99.41,440.02 99.74,440.09 100.08,439.98 100.41,440.15 100.75,439.99 101.08,439.98 101.42,439.87 101.75,439.93 102.09,440.09 102.42,440.24 102.76,440.29 103.09,440.26 103.43,440.31 103.76,440.34 104.10,440.30 104.43,440.30 104.77,440.41 105.10,440.48 105.44,440.41 105.77,440.26 106.11,440.32 106.44,440.26 106.78,440.27 107.11,440.16 107.45,440.33 107.78,440.04 108.12,439.83 108.45,439.39 108.79,438.96 109.12,438.86 109.46,438.86 109.79,438.91 110.13,439.11 110.46,439.06 110.80,439.01 111.13,439.09 111.47,438.98 111.80,439.14 112.14,439.09 112.47,439.25 112.81,439.20 113.14,439.27 113.48,439.34 113.81,439.29 114.15,439.23 114.48,439.13 114.82,439.13 115.15,439.40 115.49,439.29 115.82,439.21 116.16,439.18 116.49,439.03 116.83,438.96 117.16,438.87 117.50,438.72 117.83,438.40 118.17,437.97 118.50,437.70 118.84,437.21 119.17,436.84 119.51,436.47 119.84,436.31 120.18,436.31 120.51,436.09 120.85,436.11 121.18,436.09 121.52,436.09 121.85,436.09 122.19,436.12 122.52,436.23 122.86,436.20 123.19,436.20 123.53,436.15 123.86,435.93 124.20,435.77 124.53,435.84 124.87,435.95 125.20,436.00 125.54,436.05 125.87,436.26 126.21,436.03 126.54,436.19 126.88,436.13 127.21,436.11 127.55,435.90 127.88,435.99 128.22,436.01 128.55,436.07 128.89,436.12 129.22,436.12 129.56,435.96 129.89,435.82 130.23,435.66 130.56,435.55 130.90,435.50 131.23,435.39 131.57,435.44 131.90,435.39 132.24,435.17 132.57,435.30 132.91,435.35 133.24,435.35 133.58,435.54 133.91,435.45 134.25,435.56 134.58,435.51 134.92,435.35 135.25,435.35 135.59,435.36 135.92,435.36 136.26,435.48 136.59,435.38 136.93,435.34 137.26,435.35 137.60,435.23 137.93,435.12 138.27,435.11 138.60,434.84 138.94,434.79 139.27,434.77 139.61,434.69 139.94,434.61 140.28,434.42 140.61,434.42 140.95,434.31 141.28,434.28 141.62,434.35 141.95,434.39 142.29,434.53 142.62,434.53 142.96,434.26 143.29,433.99 143.63,433.61 143.96,433.28 144.30,432.85 144.63,432.58 144.97,432.35 145.30,432.29 145.64,432.50 145.97,432.59 146.31,432.66 146.64,432.59 146.98,432.59 147.31,432.86 147.65,432.97 147.98,432.95 148.32,433.06 148.65,433.33 148.99,433.07 149.32,432.63 149.66,432.36 149.99,432.04 150.33,431.71 150.66,431.34 151.00,431.29 151.33,431.40 151.67,430.92 152.00,430.51 152.34,430.18 152.67,430.13 153.01,429.91 153.34,429.97 153.68,430.02 154.01,430.02 154.35,429.87 154.68,429.89 155.02,430.05 155.35,429.95 155.69,430.00 156.02,430.05 156.36,429.73 156.69,429.68 157.03,429.52 157.36,429.39 157.70,429.50 158.03,429.60 158.37,429.39 158.70,429.34 159.04,429.37 159.37,429.36 159.71,429.41 160.04,429.20 160.38,429.23 160.71,429.30 161.05,428.93 161.38,428.55 161.72,428.39 162.05,428.45 162.39,428.60 162.72,428.60 163.06,428.65 163.39,428.46 163.73,428.09 164.06,427.71 164.40,427.51 164.73,427.43 165.07,427.59 165.40,427.73 165.74,427.95 166.07,427.98 166.41,427.98 166.74,427.88 167.08,427.78 167.41,427.72 167.75,427.94 168.08,427.94 168.42,427.93 168.75,427.93 169.09,428.25 169.42,428.20 169.76,428.09 170.09,428.20 170.43,428.04 170.76,428.14 171.10,428.13 171.43,428.23 171.77,428.23 172.10,428.49 172.44,428.40 172.77,428.53 173.11,428.52 173.44,428.52 173.78,428.58 174.11,428.37 174.45,428.24 174.78,428.36 175.12,428.30 175.45,428.35 175.79,428.39 176.12,428.44 176.46,428.36 176.79,428.63 177.13,428.64 177.46,428.75 177.80,428.80 178.13,428.86 178.47,428.72 178.80,428.75 179.14,428.86 179.47,428.97 179.81,428.64 180.14,428.21 180.48,427.78 180.81,427.40 181.15,426.94 181.48,426.64 181.82,426.29 182.15,425.89 182.49,425.37 182.82,425.02 183.16,425.03 183.49,424.66 183.83,424.23 184.16,423.95 184.50,423.54 184.83,423.14 185.17,422.65 185.50,422.16 185.84,421.68 186.17,421.17 186.51,420.84 186.84,420.52 187.18,420.29 187.51,419.91 187.85,419.64 188.18,419.32 188.52,419.00 188.85,418.59 189.19,418.27 189.52,417.85 189.86,417.49 190.19,417.10 190.53,416.70 190.86,416.22 191.20,415.78 191.53,415.41 191.87,414.98 192.20,414.55 192.54,414.28 192.87,414.06 193.21,413.74 193.54,413.25 193.88,412.77 194.21,412.43 194.55,412.11 194.88,411.83 195.22,411.39 195.55,410.96 195.89,410.65 196.22,410.36 196.56,409.88 196.89,409.71 197.23,409.27 197.56,408.91 197.90,408.47 198.23,408.10 198.57,407.61 198.90,407.34 199.24,407.07 199.57,406.86 199.91,406.50 200.24,406.23 200.58,405.77 200.91,405.39 201.25,404.90 201.58,404.53 201.92,404.06 202.25,403.58 202.59,403.32 202.92,402.95 203.26,402.57 203.59,402.14 203.93,401.85 204.26,401.53 204.60,401.09 204.93,400.61 205.27,400.23 205.60,399.86 205.94,399.64 206.27,399.16 206.61,398.83 206.94,398.35 207.28,398.46 207.61,398.30 207.95,398.41 208.28,398.36 208.62,398.32 208.95,398.53 209.29,398.69 209.62,398.58 209.96,398.68 210.29,398.74 210.63,398.74 210.96,398.95 211.30,399.06 211.63,399.12 211.97,399.23 212.30,399.60 212.64,399.66 212.97,399.55 213.31,399.64 213.64,399.82 213.98,399.80 214.31,399.96 214.65,400.17 214.98,400.66 215.32,400.72 215.65,400.68 215.99,400.82 216.32,400.98 216.66,401.09 216.99,401.25 217.33,401.12 217.66,401.00 218.00,400.96 218.33,400.85 218.67,400.84 219.00,400.94 219.34,400.98 219.67,400.99 220.01,400.92 220.34,400.92 220.68,400.83 221.01,400.93 221.35,400.77 221.68,400.67 222.02,400.72 222.35,400.46 222.69,400.46 223.02,400.51 223.36,400.68 223.69,400.63 224.03,400.88 224.36,400.69 224.70,400.58 225.03,400.74 225.37,400.85 225.70,400.74 226.04,400.53 226.37,400.58 226.71,400.89 227.04,400.84 227.38,400.85 227.71,400.86 228.05,400.38 228.38,399.97 228.72,399.75 229.05,399.43 229.39,399.38 229.72,399.38 230.06,399.49 230.39,399.60 230.73,399.52 231.06,399.41 231.40,399.53 231.73,399.48 232.07,399.29 232.40,399.34 232.74,399.36 233.07,399.30 233.41,399.35 233.74,399.30 234.08,399.11 234.41,399.21 234.75,398.96 235.08,398.75 235.42,398.47 235.75,398.20 236.09,397.93 236.42,397.93 236.76,397.67 237.09,397.24 237.43,396.93 237.76,396.55 238.10,396.55 238.43,396.25 238.77,395.87 239.10,395.60 239.44,395.25 239.77,394.91 240.11,394.80 240.44,394.47 240.78,394.15 241.11,393.83 241.45,393.72 241.78,393.32 242.12,392.91 242.45,392.70 242.79,392.39 243.12,392.61 243.46,392.36 243.79,392.36 244.13,392.43 244.46,392.19 244.80,391.86 245.13,391.85 245.47,391.86 245.80,391.80 246.14,391.99 246.47,391.98 246.81,392.03 247.14,392.09 247.48,392.09 247.81,392.14 248.15,391.99 248.48,392.06 248.82,392.06 249.15,391.84 249.49,391.75 249.82,391.53 250.16,391.53 250.49,391.53 250.83,391.72 251.16,391.72 251.50,391.62 251.83,391.39 252.17,391.23 252.50,390.85 252.84,390.52 253.17,390.19 253.51,389.63 253.84,389.33 254.18,389.19 254.51,388.89 254.85,388.47 255.18,388.10 255.52,387.67 255.85,387.40 256.19,387.10 256.52,386.81 256.86,386.35 257.19,385.86 257.53,385.48 257.86,385.01 258.20,384.58 258.53,384.09 258.87,383.82 259.20,383.34 259.54,383.02 259.87,382.55 260.21,382.07 260.54,381.70 260.88,381.27 261.21,380.94 261.55,380.71 261.88,380.39 262.22,379.96 262.55,379.58 262.89,379.10 263.22,378.77 263.56,378.45 263.89,378.21 264.23,377.72 264.56,377.24 264.90,376.76 265.23,376.49 265.57,376.12 265.90,375.69 266.24,375.15 266.57,374.82 266.91,374.42 267.24,373.99 267.58,373.72 267.91,373.33 268.25,372.90 268.58,372.58 268.92,372.20 269.25,371.78 269.59,371.56 269.92,371.26 270.26,371.00 270.59,370.68 270.93,370.30 271.26,369.99 271.60,369.61 271.93,369.18 272.27,368.79 272.60,368.50 272.94,368.12 273.27,367.81 273.61,367.35 273.94,366.98 274.28,366.74 274.61,366.38 274.95,366.03 275.28,365.62 275.62,365.28 275.95,365.02 276.29,364.59 276.62,364.10 276.96,363.83 277.29,363.51 277.63,363.13 277.96,362.81 278.30,362.38 278.63,362.08 278.97,361.65 279.30,361.32 279.64,361.49 279.97,361.56 280.31,361.56 280.64,361.45 280.98,361.56 281.31,361.48 281.65,361.13 281.98,360.81 282.32,360.48 282.65,360.38 282.99,360.37 283.32,360.48 283.66,360.27 283.99,360.05 284.33,359.95 284.66,360.02 285.00,360.20 285.33,360.37 285.67,360.37 286.00,360.31 286.34,360.39 286.67,360.36 287.01,360.28 287.34,360.28 287.68,360.12 288.01,360.15 288.35,360.26 288.68,360.58 289.02,360.85 289.35,360.83 289.69,360.72 290.02,360.67 290.36,360.78 290.69,360.74 291.03,360.73 291.36,360.78 291.70,361.04 292.03,361.42 292.37,361.69 292.70,361.80 293.04,361.80 293.37,361.86 293.71,361.86 294.04,361.92 294.38,361.93 294.71,361.99 295.05,361.92 295.38,361.98 295.72,361.87 296.05,361.98 296.39,362.08 296.72,362.25 297.06,362.35 297.39,362.41 297.73,362.47 298.06,362.25 298.40,362.20 298.73,362.20 299.07,362.28 299.40,362.28 299.74,362.11 300.07,362.32 300.41,362.13 300.74,361.92 301.08,361.79 301.41,361.90 301.75,361.63 302.08,361.51 302.42,361.52 302.75,361.63 303.09,361.63 303.42,361.61 303.76,361.45 304.09,361.45 304.43,361.42 304.76,361.44 305.10,361.33 305.43,361.22 305.77,361.06 306.10,361.28 306.44,361.41 306.77,361.57 307.11,361.84 307.44,362.27 307.78,362.70 308.11,363.05 308.45,363.43 308.78,363.80 309.12,364.23 309.45,364.20 309.79,364.20 310.12,364.26 310.46,364.58 310.79,364.96 311.13,365.31 311.46,365.74 311.80,366.06 312.13,366.33 312.47,366.77 312.80,367.09 313.14,367.41 313.47,367.86 313.81,368.11 314.14,368.38 314.48,368.87 314.81,369.30 315.15,369.67 315.48,370.16 315.82,370.48 316.15,370.86 316.49,371.33 316.82,371.67 317.16,371.89 317.49,372.31 317.83,372.66 318.16,373.19 318.50,373.51 318.83,373.89 319.17,374.32 319.50,374.59 319.84,374.80 320.17,374.64 320.51,374.74 320.84,374.80 321.18,374.85 321.51,374.65 321.85,374.69 322.18,374.64 322.52,374.51 322.85,374.62 323.19,374.57 323.52,374.48 323.86,374.48 324.19,374.30 324.53,374.30 324.86,373.87 325.20,373.42 325.53,372.88 325.87,372.56 326.20,372.18 326.54,371.69 326.87,371.26 327.21,370.83 327.54,370.49 327.88,370.01 328.21,369.52 328.55,369.09 328.88,368.77 329.22,368.45 329.55,368.07 329.89,367.75 330.22,367.75 330.56,367.59 330.89,367.73 331.23,367.63 331.56,367.73 331.90,367.68 332.23,367.57 332.57,367.30 332.90,366.96 333.24,366.74 333.57,366.58 333.91,366.43 334.24,366.34 334.58,366.29 334.91,366.18 335.25,366.25 335.58,365.76 335.92,365.39 336.25,365.01 336.59,364.80 336.92,364.26 337.26,363.88 337.59,363.51 337.93,363.29 338.26,362.97 338.60,362.75 338.93,362.48 339.27,362.15 339.60,361.84 339.94,361.41 340.27,360.98 340.61,360.69 340.94,360.31 341.28,359.88 341.61,359.34 341.95,359.02 342.28,358.64 342.62,358.16 342.95,357.83 343.29,357.46 343.62,357.19 343.96,356.86 344.29,356.59 344.63,356.26 344.96,355.82 345.30,355.39 345.63,355.07 345.97,354.64 346.30,354.34 346.64,353.86 346.97,353.48 347.31,353.16 347.64,352.73 347.98,352.35 348.31,351.97 348.65,351.49 348.98,351.12 349.32,350.86 349.65,350.32 349.99,350.00 350.32,349.62 350.66,349.23 350.99,348.91 351.33,348.48 351.66,348.02 352.00,347.59 352.33,347.26 352.67,346.80 353.00,346.53 353.34,346.10 353.67,345.74 354.01,345.32 354.34,344.83 354.68,344.46 355.01,344.03 355.35,343.49 355.68,343.11 356.02,342.63 356.35,342.22 356.69,341.73 357.02,341.46 357.36,340.99 357.69,340.56 358.03,340.18 358.36,339.85 358.70,339.48 359.03,339.21 359.37,338.83 359.70,338.49 360.04,338.24 360.37,337.83 360.71,337.51 361.04,337.13 361.38,336.86 361.71,336.43 362.05,336.16 362.38,335.73 362.72,335.51 363.05,335.08 363.39,334.65 363.72,334.33 364.06,333.85 364.39,333.58 364.73,333.22 365.06,332.80 365.40,332.52 365.73,332.17 366.07,331.71 366.40,331.50 366.74,331.17 367.07,330.80 367.41,330.42 367.74,330.19 368.08,329.86 368.41,329.53 368.75,329.15 369.08,328.78 369.42,328.45 369.75,327.97 370.09,327.55 370.42,327.14 370.76,326.70 371.09,326.43 371.43,325.95 371.76,325.36 372.10,324.98 372.43,324.53 372.77,324.04 373.10,323.67 373.44,323.34 373.77,323.04 374.11,322.73 374.44,322.24 374.78,321.84 375.11,321.41 375.45,321.20 375.78,320.84 376.12,320.35 376.45,319.93 376.79,319.45 377.12,319.13 377.46,318.59 377.79,318.21 378.13,317.90 378.46,317.52 378.80,317.14 379.13,316.87 379.47,316.33 379.80,316.01 380.14,315.55 380.47,315.19 380.81,314.85 381.14,314.47 381.48,314.07 381.81,313.69 382.15,313.38 382.48,312.84 382.82,312.63 383.15,312.23 383.49,311.80 383.82,311.43 384.16,311.00 384.49,310.67 384.83,310.44 385.16,310.01 385.50,309.58 385.83,309.32 386.17,308.94 386.50,308.63 386.84,308.14 387.17,307.66 387.51,307.30 387.84,306.98 388.18,306.72 388.51,306.34 388.85,306.07 389.18,305.80 389.52,305.48 389.85,305.05 390.19,304.73 390.52,304.29 390.86,303.87 391.19,303.38 391.53,302.85 391.86,302.46 392.20,302.09 392.53,301.60 392.87,301.28 393.20,300.69 393.54,300.36 393.87,300.09 394.21,299.73 394.54,299.25 394.88,298.98 395.21,298.60 395.55,298.17 395.88,297.85 396.22,297.42 396.55,297.18 396.89,296.80 397.22,296.53 397.56,296.16 397.89,295.74 398.23,295.43 398.56,295.07 398.90,294.59 399.23,294.16 399.57,293.63 399.90,293.26 400.24,292.77 400.57,292.45 400.91,292.03 401.24,291.77 401.58,291.42 401.91,291.04 402.25,290.74 402.58,290.32 402.92,289.94 403.25,289.67 403.59,289.40 403.92,289.08 404.26,288.72 404.59,288.29 404.93,287.96 405.26,287.40 405.60,287.02 405.93,286.59 406.27,286.23 406.60,285.81 406.94,285.38 407.27,285.00 407.61,284.57 407.94,284.08 408.28,283.65 408.61,283.22 408.95,282.84 409.28,282.58 409.62,282.09 409.95,281.69 410.29,281.26 410.62,280.91 410.96,280.51 411.29,280.32 411.63,279.81 411.96,279.44 412.30,279.03 412.63,278.71 412.97,278.44 413.30,278.06 413.64,277.58 413.97,277.16 414.31,276.85 414.64,276.42 414.98,276.04 415.31,275.77 415.65,275.29 415.98,274.91 416.32,274.59 416.65,274.20 416.99,273.77 417.32,273.45 417.66,273.02 417.99,272.70 418.33,272.21 418.66,271.83 419.00,271.46 419.33,270.97 419.67,270.43 420.00,270.11 420.34,269.83 420.67,269.50 421.01,269.07 421.34,268.86 421.68,268.41 422.01,268.20 422.35,267.88 422.68,267.39 423.02,267.12 423.35,266.85 423.69,266.42 424.02,266.04 424.36,265.57 424.69,265.25 425.03,264.87 425.36,264.49 425.70,264.23 426.03,264.01 426.37,263.53 426.70,263.26 427.04,262.88 427.37,262.50 427.71,262.04 428.04,261.66 428.38,261.21 428.71,260.74 429.05,260.36 429.38,259.98 429.72,259.67 430.05,259.36 430.39,259.04 430.72,258.55 431.06,258.12 431.39,257.69 431.73,257.24 432.06,256.95 432.40,256.47 432.73,256.07 433.07,255.64 433.40,255.14 433.74,254.87 434.07,254.33 434.41,253.88 434.74,253.55 435.08,253.12 435.41,252.64 435.75,252.15 436.08,251.61 436.42,251.18 436.75,250.75 437.09,250.32 437.42,249.86 437.76,249.48 438.09,249.03 438.43,248.71 438.76,248.28 439.10,247.95 439.43,247.52 439.77,247.20 440.10,246.82 440.44,246.41 440.77,246.19 441.11,245.71 441.44,245.28 441.78,244.88 442.11,244.45 442.45,244.00 442.78,243.58 443.12,243.14 443.45,242.77 443.79,242.34 444.12,242.01 444.46,241.69 444.79,241.69 445.13,241.74 445.46,241.71 445.80,241.81 446.13,241.67 446.47,241.77 446.80,241.82 447.14,241.82 447.47,241.72 447.81,241.72 448.14,241.66 448.48,241.65 448.81,241.54 449.15,241.38 449.48,241.32 449.82,241.16 450.15,241.08 450.49,240.65 450.82,240.21 451.16,239.98 451.49,239.49 451.83,239.49 452.16,239.54 452.50,239.70 452.83,239.76 453.17,239.70 453.50,239.59 453.84,239.56 454.17,239.51 454.51,239.45 454.84,239.59 455.18,239.76 455.51,239.66 455.85,239.45 456.18,239.63 456.52,239.40 456.85,239.34 457.19,239.00 457.52,239.05 457.86,239.17 458.19,239.28 458.53,239.44 458.86,239.42 459.20,239.37 459.53,239.64 459.87,239.91 460.20,239.92 460.54,239.81 460.87,239.81 461.21,239.86 461.54,239.72 461.88,239.70 462.21,239.80 462.55,239.97 462.88,239.89 463.22,239.76 463.55,239.65 463.89,239.72 464.22,239.54 464.56,239.40 464.89,239.52 465.23,238.99 465.56,238.68 465.90,238.22 466.23,237.79 466.57,237.40 466.90,237.15 467.24,236.66 467.57,236.41 467.91,235.93 468.24,235.50 468.58,235.12 468.91,234.90 469.25,234.53 469.58,234.18 469.92,233.80 470.25,233.37 470.59,233.05 470.92,232.62 471.26,232.29 471.59,231.86 471.93,231.54 472.26,231.16 472.60,230.84 472.93,230.40 473.27,230.10 473.60,229.67 473.94,229.30 474.27,228.86 474.61,228.43 474.94,228.00 475.28,227.63 475.61,227.36 475.95,226.98 476.28,226.55 476.62,226.12 476.95,225.74 477.29,225.42 477.62,225.08 477.96,224.86 478.29,224.59 478.63,224.24 478.96,223.87 479.30,223.60 479.63,223.22 479.97,222.90 480.30,222.47 480.64,222.04 480.97,221.72 481.31,221.42 481.64,220.93 481.98,220.58 482.31,220.15 482.65,219.77 482.98,219.39 483.32,219.02 483.65,218.62 483.99,218.34 484.32,217.96 484.66,217.53 484.99,217.32 485.33,217.05 485.66,216.88 486.00,216.45 486.33,216.15 486.67,215.62 487.00,215.19 487.34,214.84 487.67,214.41 488.01,214.03 488.34,213.71 488.68,213.19 489.01,212.87 489.35,212.44 489.68,211.92 490.02,211.59 490.35,211.16 490.69,210.75 491.02,210.37 491.36,209.86 491.69,209.48 492.03,209.11 492.36,208.79 492.70,208.37 493.03,208.04 493.37,207.61 493.70,207.29 494.04,206.91 494.37,206.51 494.71,206.13 495.04,205.76 495.38,205.49 495.71,205.22 496.05,204.95 496.38,204.57 496.72,204.37 497.05,203.89 497.39,203.51 497.72,202.97 498.06,202.43 498.39,202.09 498.73,201.76 499.06,201.39 499.40,200.96 499.73,200.52 500.07,200.20 500.40,199.88 500.74,199.45 501.07,199.03 501.41,198.71 501.74,198.39 502.08,198.10 502.41,197.67 502.75,197.29 503.08,196.81 503.42,196.48 503.75,196.16 504.09,195.89 504.42,195.51 504.76,195.19 505.09,194.92 505.43,194.54 505.76,194.10 506.10,193.67 506.43,193.30 506.77,192.81 507.10,192.43 507.44,191.95 507.77,191.63 508.11,191.14 508.44,190.82 508.78,190.59 509.11,190.21 509.45,189.83 509.78,189.30 510.12,188.92 510.45,188.44 510.79,188.11 511.12,187.90 511.46,187.41 511.79,186.93 512.13,186.68 512.46,186.36 512.80,185.98 513.13,185.60 513.47,185.17 513.80,184.74 514.14,184.43 514.47,184.21 514.81,183.79 515.14,183.44 515.48,183.11 515.81,182.68 516.15,182.31 516.48,181.88 516.82,181.48 517.15,181.05 517.49,180.72 517.82,180.39 518.16,180.07 518.49,179.64 518.83,179.16 519.16,178.78 519.50,178.40 519.83,178.08 520.17,177.70 520.50,177.32 520.84,177.00 521.17,176.52 521.51,176.01 521.84,175.63 522.18,175.22 522.51,174.89 522.85,174.57 523.18,174.30 523.52,173.97 523.85,173.59 524.19,173.16 524.52,172.68 524.86,172.20 525.19,171.71 525.53,171.42 525.86,170.94 526.20,170.58 526.53,170.15 526.87,169.88 527.20,169.45 527.54,169.07 527.87,168.63 528.21,168.20 528.54,167.75 528.88,167.37 529.21,167.02 529.55,166.47 529.88,165.97 530.22,165.71 530.55,165.28 530.89,164.93 531.22,164.66 531.56,164.40 531.89,163.87 532.23,163.53 532.56,163.15 532.90,162.64 533.23,162.15 533.57,161.83 533.90,161.54 534.24,161.21 534.57,160.73 534.91,160.40 535.24,160.03 535.58,159.60 535.91,159.22 536.25,158.79 536.58,158.29 536.92,157.86 537.25,157.53 537.59,157.10 537.92,156.78 538.26,156.35 538.59,155.97 538.93,155.58 539.26,155.21 539.60,154.73 539.93,154.30 540.27,154.19 540.60,153.86 540.94,153.49 541.27,153.22 541.61,153.06 541.94,152.57 542.28,152.25 542.61,151.98 542.95,151.70 543.28,151.32 543.62,151.11 543.95,150.78 544.29,150.46 544.62,149.98 544.96,149.60 545.29,149.22 545.63,148.79 545.96,148.52 546.30,148.04 546.63,147.68 546.97,147.36 547.30,146.87 547.64,146.55 547.97,146.06 548.31,145.69 548.64,145.15 548.98,144.72 549.31,144.29 549.65,143.81 549.98,143.43 550.32,143.04 550.65,142.67 550.99,142.42 551.32,142.06 551.66,141.57 551.99,141.17 552.33,140.79 552.66,140.49 553.00,140.01 553.33,139.63 553.67,139.15 554.00,138.73 554.34,138.22 554.67,137.93 555.01,137.44 555.34,136.96 555.68,136.64 556.01,136.32 556.35,136.00 556.68,135.62 557.02,135.13 557.35,134.70 557.69,134.13 558.02,133.86 558.36,133.48 558.69,133.05 559.03,132.67 559.36,132.24 559.70,131.92 560.03,131.53 560.37,131.05 560.70,130.62 561.04,130.24 561.37,129.92 561.71,129.62 562.04,129.13 562.38,128.89 562.71,128.54 563.05,128.18 563.38,127.97 563.72,127.54 564.05,127.12 564.39,126.75 564.72,126.26 565.06,125.94 565.39,125.51 565.73,125.21 566.06,124.94 566.40,124.50 566.73,124.13 567.07,123.70 567.40,123.34 567.74,122.89 568.07,122.56 568.41,122.31 568.74,121.93 569.08,121.46 569.41,121.09 569.75,120.66 570.08,120.26 570.42,119.85 570.75,119.39 571.09,119.02 571.42,118.53 571.76,118.15 572.09,117.71 572.43,117.37 572.76,117.11 573.10,116.67 573.43,116.24 573.77,115.81 574.10,115.45 574.44,115.11 574.77,114.73 575.11,114.41 575.44,113.98 575.78,113.54 576.11,113.28 576.45,112.79 576.78,112.36 577.12,111.93 577.45,111.65 577.79,111.19 578.12,110.86 578.46,110.54 578.79,110.16 579.13,109.73 579.46,109.25 579.80,108.98 580.13,108.49 580.47,107.95 580.80,107.63 581.14,107.36 581.47,106.93 581.81,106.50 582.14,106.12 582.48,105.69 582.81,105.37 583.15,104.99 583.48,104.56 583.82,104.13 584.15,103.74 584.49,103.53 584.82,103.16 585.16,102.73 585.49,102.30 585.83,101.93 586.16,101.71 586.50,101.18 586.83,100.69 587.17,100.31 587.50,99.94 587.84,99.61 588.17,99.19 588.51,98.76 588.84,98.49 589.18,98.00 589.51,97.75 589.85,97.40 590.18,97.06 590.52,96.63 590.85,96.31 591.19,95.88 591.52,95.50 591.86,95.16 592.19,94.78 592.53,94.41 592.86,93.97 593.20,93.60 593.53,93.17 593.87,92.74 594.20,92.36 594.54,92.04 594.87,91.71 595.21,91.67 595.54,91.73 595.88,91.58 596.21,91.76 596.55,91.87 596.88,91.88 597.22,91.83 597.55,92.01 597.89,92.07 598.22,92.12 598.56,92.12 598.89,92.07 599.23,91.99 599.56,92.07 599.90,92.06 600.23,91.90 600.57,91.95 600.90,91.95 601.24,92.06 601.57,92.04 601.91,91.87 602.24,91.87 602.58,91.87 602.91,91.93 603.25,91.96 603.58,92.05 603.92,92.16 604.25,92.11 604.59,92.08 604.92,91.98 605.26,92.03 605.59,91.97 605.93,91.81 606.26,91.78 606.60,91.89 606.93,91.74 607.27,91.63 607.60,91.69 607.94,91.59 608.27,91.63 608.61,91.68 608.94,91.79 609.28,91.83 609.61,91.74 609.95,91.72 610.28,91.93 610.62,91.93 610.95,91.99 611.29,91.88 611.62,91.99 611.96,92.09 612.29,92.20 612.63,92.20 612.96,92.22 613.30,92.06 613.63,91.87 613.97,91.87 614.30,91.83 614.64,91.93 614.97,91.87 615.31,91.96 615.64,91.99 615.98,91.90 616.31,91.97 616.65,91.97 616.98,92.08 617.32,92.08 617.65,92.06 617.99,92.22 618.32,92.17 618.66,92.28 618.99,92.07 619.33,92.24 619.66,92.19 620.00,92.15 620.33,92.16 620.67,91.94 621.00,91.95 621.34,91.84 621.67,91.94 622.01,91.84 622.34,91.84 622.68,91.84 623.01,91.73 623.35,91.79 623.68,91.67 624.02,91.45 624.35,91.35 624.69,91.38 625.02,91.38 625.36,91.54 625.69,91.53 626.03,91.43 626.36,91.49 626.70,91.35 627.03,90.90 627.37,90.75 627.70,90.86 628.04,90.97 628.37,91.15 628.71,91.26 629.04,90.93 629.38,90.77 629.71,90.60 630.05,90.27 630.38,90.02 630.72,89.64 631.05,89.32 631.39,88.94 631.72,88.45 632.06,88.18 632.39,87.86 632.73,87.59 633.06,87.21 633.40,86.68 633.73,86.31 634.07,86.12 634.40,86.03 634.74,86.03 635.07,86.00 635.41,85.95 635.74,86.11 636.08,86.00 636.41,85.81 636.75,85.73 637.08,85.78 637.42,85.70 637.75,85.70 638.09,85.50 638.42,85.51 638.76,85.39 639.09,85.36 639.43,85.44 639.76,85.73 640.10,85.76 640.43,85.83 640.77,85.54 641.10,85.54 641.44,85.92 641.77,86.22 642.11,86.76 642.44,86.98 642.78,87.19 643.11,87.64 643.45,88.18 643.78,88.50 644.12,88.74 644.45,88.93 644.79,89.15 645.12,89.33 645.46,89.70 645.79,90.08 646.13,90.52 646.46,90.95 646.80,91.22 647.13,91.65 647.47,92.04 647.80,92.47 648.14,92.74 648.47,93.00 648.81,93.27 649.14,93.60 649.48,93.95 649.81,94.30 650.15,94.69 650.48,94.87 650.82,95.29 651.15,95.62 651.49,95.99 651.82,96.43 652.16,96.79 652.49,97.33 652.83,97.82 653.16,98.03 653.50,98.50 653.83,98.88 654.17,99.31 654.50,99.25 654.84,99.47 655.17,99.42 655.51,99.64 655.84,99.47 656.18,99.37 656.51,99.28 656.85,99.30 657.18,99.24 657.52,99.30 657.85,99.42 658.19,99.47 658.52,99.31 658.86,99.31 659.19,99.42 659.53,99.42 659.86,99.46 660.20,99.27 660.53,99.20 660.87,98.88 661.20,98.95 661.54,98.57 661.87,98.25 662.21,97.87 662.54,97.60 662.88,97.22 663.21,97.12 663.55,96.74 663.88,96.47 664.22,96.04 664.55,95.82 664.89,95.50 665.22,95.03 665.56,94.57 665.89,94.14 666.23,93.71 666.56,93.33 666.90,92.90 667.23,92.47 667.57,91.93 667.90,91.51 668.24,91.03 668.57,90.65 668.91,90.44 669.24,90.06 669.58,89.64 669.91,89.10 670.25,88.78 670.58,88.35 670.92,88.24 671.25,87.97 671.59,87.72 671.92,87.29 672.26,86.86 672.59,86.37 672.93,86.00 673.26,85.67 673.60,85.30 673.93,85.03 674.27,84.54 674.60,84.35 674.94,83.98 675.27,83.49 675.61,83.20 675.94,82.87 676.28,82.55 676.61,82.44 676.95,82.17 677.28,81.78 677.62,81.35 677.95,81.01 678.29,80.65 678.62,80.38 678.96,79.85 679.29,79.52 679.63,79.19 679.96,78.92 680.30,78.52 680.63,78.25 680.97,77.82 681.30,77.43 681.64,77.43 681.97,77.43 682.31,77.23 682.64,77.18 682.98,77.03 683.31,76.98 683.65,76.92 683.98,76.61 684.32,76.67 684.65,76.77 684.99,76.67 685.32,76.83 685.66,76.77 685.99,76.50 686.33,76.14 686.66,75.65 687.00,75.24 687.33,74.97 687.67,74.49 688.00,74.22 688.34,73.84 688.67,73.46 689.01,73.35 689.34,73.30 689.68,73.29 690.01,73.34 690.35,73.17 690.68,73.12 691.02,73.06 691.35,73.06 691.69,73.11 692.02,72.63 692.36,72.30 692.69,72.03 693.03,71.85 693.36,71.88 693.70,71.92 694.03,71.84 694.37,72.02 694.70,71.86 695.04,72.02 695.37,71.99 695.71,72.05 696.04,72.15 696.38,71.88 696.71,71.67 697.05,71.82 697.38,71.70 697.72,71.86 698.05,72.02 698.39,72.00 698.72,71.94 699.06,71.89 699.39,71.85 699.73,71.78 700.06,71.68 700.40,71.52 700.73,71.73 701.07,72.06 701.40,72.16 701.74,72.70 702.07,73.13 702.41,73.41 702.74,73.62 703.08,73.56 703.41,73.56 703.75,73.51 704.08,73.51 704.42,73.62 704.75,73.62 705.09,73.40 705.42,73.30 705.76,73.43 706.09,73.39 706.43,73.28 706.76,73.46 707.10,73.66 707.43,73.82 707.77,73.80 708.10,73.90 708.44,73.67 708.77,73.65 709.11,73.74 709.44,73.95 709.78,73.93 710.11,74.00 710.45,74.05 710.78,74.03 711.12,73.92 711.45,73.60 711.79,73.65 712.12,73.87 712.46,73.92 712.79,73.78 713.13,73.83 713.46,73.94 713.80,73.86 714.13,73.82 714.47,73.66 714.80,73.72 715.14,73.90 715.47,74.04 715.81,73.95 716.14,73.93 716.48,73.87 716.81,73.87 717.15,73.82 717.48,73.96 717.82,74.18 718.15,74.12 718.49,74.44 718.82,74.87 719.16,75.25 719.49,75.68 719.83,75.91 720.16,76.45 720.50,76.94 720.83,77.31 721.17,77.73 721.50,78.16 721.84,78.64 722.17,79.02 722.51,79.29 722.84,79.56 723.18,80.04 723.51,80.48 723.85,80.84 724.18,81.06 724.52,81.54 724.85,81.97 725.19,82.46 725.52,82.89 725.86,83.27 726.19,83.59 726.53,83.91 726.86,84.34 727.20,84.67 727.53,84.83 727.87,85.10 728.20,85.53 728.54,85.86 728.87,86.37 729.21,86.65 729.54,87.09 729.88,87.38 730.21,87.75 730.55,88.24 730.88,88.67 731.22,89.07 731.55,89.44 731.89,89.93 732.22,90.34 732.56,90.69 732.89,91.01 733.23,91.44 733.56,91.86 733.90,92.35 734.23,92.40 734.57,92.78 734.90,93.07 735.24,93.51 735.57,93.94 735.91,94.26 736.24,94.58 736.58,95.07 736.91,95.53 737.25,95.80 737.58,96.12 737.92,96.47 738.25,96.86 738.59,97.19 738.92,97.45 739.26,97.90 739.59,98.27 739.93,98.60 740.26,99.08 740.60,99.30 740.93,99.67 741.27,99.72 741.60,99.88 741.94,100.31 742.27,100.64 742.61,100.92 742.94,101.31 743.28,101.79 743.61,102.13 743.95,102.46 744.28,102.78 744.62,102.73 744.95,103.05 745.29,103.48 745.62,103.91 745.96,104.41 746.29,104.79 746.63,105.31 746.96,105.63 747.30,106.04 747.63,106.47 747.97,106.84 748.30,107.33 748.64,107.65 748.97,107.87 749.31,108.24 749.64,108.68 749.98,108.92 750.31,109.29 750.65,109.19 750.98,109.56 751.32,109.89 751.65,110.43 751.99,110.86 752.32,111.23 752.66,111.72 752.99,112.10 753.33,112.58 753.66,112.94 754.00,113.11 754.33,113.49 754.67,113.49 755.00,113.40"/>
<line x1="783" y1="58" x2="809" y2="58" stroke="#2563eb" stroke-width="3"/>
<text x="817" y="62" font-family="Arial" font-size="13" fill="#111827">Naive</text>
<polyline fill="none" stroke="#dc2626" stroke-width="2" points="85.00,438.51 85.34,438.54 85.67,438.43 86.01,438.54 86.34,438.72 86.68,438.58 87.01,438.50 87.35,438.53 87.68,438.42 88.02,438.55 88.35,438.52 88.69,438.62 89.02,438.85 89.36,438.96 89.69,439.01 90.03,438.85 90.36,438.88 90.70,439.18 91.03,439.24 91.37,439.51 91.70,439.45 92.04,439.62 92.37,439.78 92.71,439.67 93.04,439.73 93.38,439.79 93.71,439.86 94.05,440.02 94.38,440.00 94.72,439.90 95.05,439.78 95.39,439.85 95.72,439.64 96.06,439.69 96.39,439.83 96.73,439.99 97.06,440.00 97.40,440.15 97.73,440.20 98.07,440.10 98.40,439.93 98.74,439.93 99.07,439.97 99.41,440.02 99.74,440.09 100.08,439.98 100.41,440.15 100.75,439.99 101.08,439.98 101.42,439.87 101.75,439.93 102.09,440.09 102.42,440.24 102.76,440.29 103.09,440.26 103.43,440.31 103.76,440.34 104.10,440.30 104.43,440.30 104.77,440.41 105.10,440.48 105.44,440.41 105.77,440.26 106.11,440.32 106.44,440.26 106.78,440.27 107.11,440.16 107.45,440.33 107.78,440.09 108.12,439.93 108.45,439.56 108.79,439.13 109.12,439.07 109.46,439.13 109.79,439.18 110.13,439.38 110.46,439.33 110.80,439.28 111.13,439.36 111.47,439.25 111.80,439.41 112.14,439.36 112.47,439.52 112.81,439.46 113.14,439.53 113.48,439.61 113.81,439.56 114.15,439.50 114.48,439.40 114.82,439.40 115.15,439.67 115.49,439.56 115.82,439.48 116.16,439.45 116.49,439.30 116.83,439.23 117.16,439.14 117.50,438.99 117.83,438.67 118.17,438.24 118.50,437.97 118.84,437.48 119.17,437.11 119.51,436.74 119.84,436.58 120.18,436.58 120.51,436.36 120.85,436.38 121.18,436.36 121.52,436.36 121.85,436.36 122.19,436.39 122.52,436.50 122.86,436.47 123.19,436.47 123.53,436.42 123.86,436.20 124.20,436.04 124.53,436.11 124.87,436.22 125.20,436.27 125.54,436.32 125.87,436.53 126.21,436.30 126.54,436.46 126.88,436.40 127.21,436.38 127.55,436.17 127.88,436.26 128.22,436.28 128.55,436.33 128.89,436.39 129.22,436.39 129.56,436.23 129.89,436.09 130.23,435.93 130.56,435.82 130.90,435.77 131.23,435.69 131.57,435.74 131.90,435.69 132.24,435.47 132.57,435.60 132.91,435.66 133.24,435.66 133.58,435.84 133.91,435.75 134.25,435.86 134.58,435.81 134.92,435.65 135.25,435.65 135.59,435.66 135.92,435.66 136.26,435.79 136.59,435.68 136.93,435.65 137.26,435.65 137.60,435.53 137.93,435.42 138.27,435.41 138.60,435.20 138.94,435.15 139.27,435.13 139.61,435.05 139.94,434.96 140.28,434.78 140.61,434.78 140.95,434.67 141.28,434.64 141.62,434.70 141.95,434.75 142.29,434.88 142.62,434.88 142.96,434.67 143.29,434.40 143.63,434.02 143.96,433.69 144.30,433.26 144.63,432.99 144.97,432.81 145.30,432.76 145.64,432.97 145.97,433.05 146.31,433.12 146.64,433.05 146.98,433.05 147.31,433.32 147.65,433.43 147.98,433.42 148.32,433.52 148.65,433.79 148.99,433.53 149.32,433.10 149.66,432.82 149.99,432.50 150.33,432.18 150.66,431.91 151.00,431.92 151.33,432.03 151.67,431.54 152.00,431.13 152.34,430.86 152.67,430.86 153.01,430.65 153.34,430.70 153.68,430.75 154.01,430.75 154.35,430.60 154.68,430.63 155.02,430.79 155.35,430.68 155.69,430.73 156.02,430.79 156.36,430.52 156.69,430.57 157.03,430.57 157.36,430.48 157.70,430.59 158.03,430.70 158.37,430.54 158.70,430.54 159.04,430.57 159.37,430.56 159.71,430.61 160.04,430.40 160.38,430.43 160.71,430.55 161.05,430.18 161.38,429.86 161.72,429.70 162.05,429.76 162.39,429.96 162.72,429.96 163.06,430.02 163.39,429.83 163.73,429.72 164.06,429.34 164.40,429.19 164.73,429.12 165.07,429.28 165.40,429.41 165.74,429.63 166.07,429.67 166.41,429.67 166.74,429.57 167.08,429.46 167.41,429.46 167.75,429.68 168.08,429.68 168.42,429.67 168.75,429.67 169.09,429.99 169.42,429.94 169.76,429.83 170.09,429.94 170.43,429.78 170.76,429.88 171.10,429.87 171.43,429.97 171.77,429.97 172.10,430.23 172.44,430.14 172.77,430.27 173.11,430.26 173.44,430.26 173.78,430.32 174.11,430.11 174.45,429.98 174.78,430.10 175.12,430.04 175.45,430.09 175.79,430.13 176.12,430.18 176.46,430.10 176.79,430.37 177.13,430.38 177.46,430.48 177.80,430.54 178.13,430.60 178.47,430.46 178.80,430.49 179.14,430.60 179.47,430.76 179.81,430.44 180.14,430.01 180.48,429.57 180.81,429.20 181.15,428.73 181.48,428.43 181.82,428.09 182.15,427.68 182.49,427.17 182.82,426.81 183.16,426.83 183.49,426.67 183.83,426.23 184.16,425.95 184.50,425.55 184.83,425.15 185.17,424.66 185.50,424.17 185.84,423.69 186.17,423.18 186.51,422.85 186.84,422.53 187.18,422.30 187.51,421.92 187.85,421.65 188.18,421.33 188.52,421.01 188.85,420.60 189.19,420.28 189.52,419.86 189.86,419.59 190.19,419.21 190.53,418.81 190.86,418.32 191.20,417.89 191.53,417.51 191.87,417.08 192.20,416.65 192.54,416.38 192.87,416.17 193.21,415.84 193.54,415.36 193.88,414.88 194.21,414.54 194.55,414.22 194.88,413.93 195.22,413.50 195.55,413.07 195.89,412.76 196.22,412.47 196.56,411.98 196.89,411.82 197.23,411.38 197.56,411.01 197.90,410.58 198.23,410.20 198.57,409.72 198.90,409.45 199.24,409.18 199.57,408.96 199.91,408.61 200.24,408.34 200.58,407.87 200.91,407.49 201.25,407.01 201.58,406.63 201.92,406.17 202.25,405.74 202.59,405.49 202.92,405.11 203.26,404.73 203.59,404.30 203.93,404.01 204.26,403.69 204.60,403.25 204.93,402.77 205.27,402.39 205.60,402.02 205.94,401.80 206.27,401.32 206.61,400.99 206.94,400.56 207.28,400.78 207.61,400.95 207.95,401.06 208.28,401.00 208.62,400.96 208.95,401.18 209.29,401.34 209.62,401.23 209.96,401.55 210.29,401.71 210.63,401.93 210.96,402.25 211.30,402.36 211.63,402.42 211.97,402.69 212.30,403.07 212.64,403.17 212.97,403.12 213.31,403.42 213.64,403.66 213.98,403.64 214.31,403.91 214.65,404.18 214.98,404.67 215.32,404.88 215.65,404.84 215.99,405.20 216.32,405.42 216.66,405.58 216.99,405.79 217.33,405.66 217.66,405.54 218.00,405.50 218.33,405.39 218.67,405.38 219.00,405.49 219.34,405.52 219.67,405.53 220.01,405.46 220.34,405.46 220.68,405.37 221.01,405.47 221.35,405.31 221.68,405.21 222.02,405.26 222.35,405.00 222.69,405.00 223.02,405.05 223.36,405.22 223.69,405.17 224.03,405.43 224.36,405.23 224.70,405.12 225.03,405.28 225.37,405.39 225.70,405.28 226.04,405.08 226.37,405.12 226.71,405.43 227.04,405.38 227.38,405.39 227.71,405.46 228.05,405.08 228.38,404.77 228.72,404.67 229.05,404.48 229.39,404.43 229.72,404.43 230.06,404.54 230.39,404.64 230.73,404.57 231.06,404.46 231.40,404.58 231.73,404.53 232.07,404.34 232.40,404.39 232.74,404.41 233.07,404.34 233.41,404.40 233.74,404.34 234.08,404.16 234.41,404.26 234.75,404.06 235.08,403.96 235.42,403.79 235.75,403.69 236.09,403.52 236.42,403.52 236.76,403.37 237.09,403.10 237.43,402.79 237.76,402.46 238.10,402.52 238.43,402.33 238.77,402.00 239.10,401.78 239.44,401.60 239.77,401.41 240.11,401.47 240.44,401.25 240.78,401.09 241.11,400.93 241.45,400.93 241.78,400.58 242.12,400.23 242.45,400.18 242.79,400.08 243.12,400.35 243.46,400.16 243.79,400.16 244.13,400.23 244.46,400.09 244.80,399.93 245.13,399.92 245.47,399.93 245.80,399.87 246.14,400.06 246.47,400.05 246.81,400.10 247.14,400.16 247.48,400.16 247.81,400.21 248.15,400.06 248.48,400.13 248.82,400.13 249.15,399.91 249.49,399.82 249.82,399.60 250.16,399.60 250.49,399.60 250.83,399.79 251.16,399.79 251.50,399.69 251.83,399.76 252.17,399.92 252.50,399.60 252.84,399.30 253.17,399.03 253.51,398.52 253.84,398.44 254.18,398.35 254.51,398.06 254.85,397.69 255.18,397.31 255.52,396.88 255.85,396.61 256.19,396.32 256.52,396.03 256.86,395.56 257.19,395.08 257.53,394.70 257.86,394.23 258.20,393.80 258.53,393.31 258.87,393.04 259.20,392.56 259.54,392.23 259.87,391.82 260.21,391.33 260.54,390.96 260.88,390.48 261.21,390.15 261.55,389.92 261.88,389.60 262.22,389.17 262.55,388.79 262.89,388.31 263.22,387.98 263.56,387.66 263.89,387.42 264.23,386.93 264.56,386.45 264.90,385.97 265.23,385.70 265.57,385.38 265.90,384.95 266.24,384.41 266.57,384.09 266.91,383.68 267.24,383.26 267.58,382.99 267.91,382.60 268.25,382.17 268.58,381.84 268.92,381.52 269.25,381.10 269.59,380.88 269.92,380.58 270.26,380.32 270.59,379.99 270.93,379.62 271.26,379.31 271.60,378.93 271.93,378.50 272.27,378.18 272.60,377.89 272.94,377.51 273.27,377.20 273.61,376.74 273.94,376.42 274.28,376.15 274.61,375.79 274.95,375.44 275.28,375.03 275.62,374.68 275.95,374.43 276.29,373.99 276.62,373.51 276.96,373.24 277.29,372.92 277.63,372.54 277.96,372.22 278.30,371.79 278.63,371.48 278.97,371.05 279.30,370.78 279.64,370.95 279.97,371.07 280.31,371.07 280.64,371.07 280.98,371.23 281.31,371.21 281.65,371.02 281.98,370.70 282.32,370.43 282.65,370.37 282.99,370.43 283.32,370.54 283.66,370.49 283.99,370.49 284.33,370.55 284.66,370.62 285.00,370.80 285.33,370.96 285.67,370.96 286.00,370.91 286.34,370.98 286.67,370.96 287.01,370.88 287.34,370.88 287.68,370.71 288.01,370.75 288.35,371.02 288.68,371.34 289.02,371.72 289.35,371.91 289.69,371.86 290.02,371.80 290.36,371.91 290.69,371.88 291.03,371.86 291.36,372.02 291.70,372.34 292.03,372.88 292.37,373.31 292.70,373.42 293.04,373.42 293.37,373.48 293.71,373.48 294.04,373.54 294.38,373.55 294.71,373.61 295.05,373.54 295.38,373.60 295.72,373.49 296.05,373.60 296.39,373.70 296.72,373.92 297.06,374.03 297.39,374.08 297.73,374.14 298.06,373.92 298.40,374.09 298.73,374.25 299.07,374.33 299.40,374.33 299.74,374.16 300.07,374.42 300.41,374.26 300.74,374.05 301.08,373.92 301.41,374.03 301.75,373.76 302.08,373.64 302.42,373.65 302.75,373.76 303.09,373.76 303.42,373.74 303.76,373.58 304.09,373.58 304.43,373.55 304.76,373.57 305.10,373.46 305.43,373.35 305.77,373.19 306.10,373.57 306.44,373.92 306.77,374.24 307.11,374.62 307.44,375.05 307.78,375.48 308.11,375.83 308.45,376.20 308.78,376.58 309.12,377.01 309.45,377.03 309.79,377.03 310.12,377.15 310.46,377.52 310.79,377.90 311.13,378.25 311.46,378.68 311.80,379.00 312.13,379.27 312.47,379.70 312.80,380.03 313.14,380.35 313.47,380.80 313.81,381.05 314.14,381.32 314.48,381.80 314.81,382.24 315.15,382.61 315.48,383.10 315.82,383.42 316.15,383.80 316.49,384.27 316.82,384.72 317.16,385.10 317.49,385.52 317.83,385.87 318.16,386.40 318.50,386.72 318.83,387.10 319.17,387.53 319.50,387.80 319.84,388.06 320.17,388.01 320.51,388.22 320.84,388.27 321.18,388.33 321.51,388.12 321.85,388.17 322.18,388.11 322.52,387.99 322.85,388.10 323.19,388.04 323.52,387.96 323.86,387.96 324.19,387.94 324.53,387.99 324.86,387.56 325.20,387.11 325.53,386.57 325.87,386.25 326.20,385.87 326.54,385.39 326.87,384.96 327.21,384.53 327.54,384.19 327.88,383.70 328.21,383.22 328.55,382.79 328.88,382.46 329.22,382.14 329.55,382.03 329.89,381.76 330.22,381.82 330.56,381.66 330.89,381.81 331.23,381.86 331.56,381.97 331.90,382.13 332.23,382.02 332.57,381.91 332.90,381.84 333.24,381.79 333.57,381.79 333.91,381.64 334.24,381.55 334.58,381.50 334.91,381.39 335.25,381.46 335.58,381.21 335.92,380.84 336.25,380.46 336.59,380.25 336.92,379.71 337.26,379.33 337.59,378.96 337.93,378.74 338.26,378.42 338.60,378.20 338.93,377.93 339.27,377.60 339.60,377.29 339.94,376.91 340.27,376.48 340.61,376.19 340.94,375.81 341.28,375.38 341.61,374.85 341.95,374.52 342.28,374.14 342.62,373.66 342.95,373.34 343.29,372.96 343.62,372.69 343.96,372.37 344.29,372.10 344.63,371.76 344.96,371.33 345.30,370.90 345.63,370.57 345.97,370.14 346.30,369.85 346.64,369.36 346.97,368.98 347.31,368.66 347.64,368.23 347.98,367.85 348.31,367.48 348.65,367.00 348.98,366.62 349.32,366.37 349.65,365.83 349.99,365.50 350.32,365.13 350.66,364.73 350.99,364.41 351.33,363.98 351.66,363.53 352.00,363.10 352.33,362.76 352.67,362.30 353.00,362.03 353.34,361.60 353.67,361.20 354.01,360.78 354.34,360.30 354.68,359.92 355.01,359.49 355.35,358.95 355.68,358.58 356.02,358.09 356.35,357.68 356.69,357.20 357.02,356.93 357.36,356.45 357.69,356.02 358.03,355.65 358.36,355.37 358.70,355.00 359.03,354.73 359.37,354.35 359.70,353.96 360.04,353.78 360.37,353.38 360.71,353.06 361.04,352.67 361.38,352.43 361.71,351.99 362.05,351.73 362.38,351.29 362.72,351.08 363.05,350.65 363.39,350.22 363.72,349.90 364.06,349.41 364.39,349.15 364.73,348.79 365.06,348.36 365.40,348.08 365.73,347.74 366.07,347.28 366.40,347.07 366.74,346.74 367.07,346.37 367.41,345.99 367.74,345.76 368.08,345.42 368.41,345.10 368.75,344.72 369.08,344.35 369.42,344.02 369.75,343.54 370.09,343.12 370.42,342.71 370.76,342.27 371.09,342.00 371.43,341.52 371.76,340.92 372.10,340.55 372.43,340.10 372.77,339.61 373.10,339.23 373.44,338.91 373.77,338.61 374.11,338.30 374.44,337.81 374.78,337.41 375.11,336.98 375.45,336.77 375.78,336.41 376.12,335.92 376.45,335.50 376.79,335.02 377.12,334.70 377.46,334.16 377.79,333.78 378.13,333.47 378.46,333.09 378.80,332.71 379.13,332.44 379.47,331.90 379.80,331.58 380.14,331.12 380.47,330.76 380.81,330.42 381.14,330.04 381.48,329.64 381.81,329.26 382.15,328.94 382.48,328.41 382.82,328.20 383.15,327.80 383.49,327.37 383.82,326.99 384.16,326.56 384.49,326.24 384.83,326.01 385.16,325.58 385.50,325.15 385.83,324.88 386.17,324.51 386.50,324.19 386.84,323.74 387.17,323.25 387.51,322.90 387.84,322.57 388.18,322.31 388.51,321.94 388.85,321.67 389.18,321.40 389.52,321.07 389.85,320.64 390.19,320.32 390.52,319.89 390.86,319.47 391.19,319.06 391.53,318.52 391.86,318.14 392.20,317.76 392.53,317.28 392.87,316.95 393.20,316.36 393.54,316.04 393.87,315.77 394.21,315.40 394.54,314.93 394.88,314.65 395.21,314.28 395.55,313.85 395.88,313.52 396.22,313.09 396.55,312.85 396.89,312.48 397.22,312.21 397.56,311.83 397.89,311.41 398.23,311.10 398.56,310.75 398.90,310.26 399.23,309.83 399.57,309.31 399.90,308.93 400.24,308.45 400.57,308.12 400.91,307.71 401.24,307.44 401.58,307.09 401.91,306.71 402.25,306.41 402.58,306.00 402.92,305.62 403.25,305.35 403.59,305.08 403.92,304.75 404.26,304.40 404.59,303.91 404.93,303.58 405.26,303.02 405.60,302.64 405.93,302.21 406.27,301.85 406.60,301.43 406.94,301.00 407.27,300.62 407.61,300.19 407.94,299.71 408.28,299.27 408.61,298.84 408.95,298.47 409.28,298.20 409.62,297.71 409.95,297.31 410.29,296.88 410.62,296.53 410.96,296.13 411.29,295.94 411.63,295.43 411.96,295.06 412.30,294.65 412.63,294.33 412.97,294.06 413.30,293.68 413.64,293.20 413.97,292.78 414.31,292.47 414.64,292.04 414.98,291.66 415.31,291.39 415.65,290.91 415.98,290.53 416.32,290.21 416.65,289.83 416.99,289.40 417.32,289.07 417.66,288.64 417.99,288.32 418.33,287.83 418.66,287.46 419.00,287.19 419.33,286.70 419.67,286.16 420.00,285.84 420.34,285.55 420.67,285.11 421.01,284.68 421.34,284.30 421.68,283.86 422.01,283.59 422.35,283.27 422.68,282.78 423.02,282.51 423.35,282.24 423.69,281.81 424.02,281.43 424.36,280.96 424.69,280.64 425.03,280.26 425.36,279.88 425.70,279.62 426.03,279.40 426.37,278.92 426.70,278.65 427.04,278.27 427.37,277.89 427.71,277.43 428.04,277.05 428.38,276.60 428.71,276.13 429.05,275.75 429.38,275.37 429.72,275.06 430.05,274.75 430.39,274.43 430.72,273.94 431.06,273.51 431.39,273.08 431.73,272.63 432.06,272.34 432.40,271.86 432.73,271.46 433.07,271.03 433.40,270.53 433.74,270.26 434.07,269.72 434.41,269.27 434.74,268.94 435.08,268.51 435.41,268.03 435.75,267.54 436.08,267.00 436.42,266.57 436.75,266.14 437.09,265.71 437.42,265.25 437.76,264.87 438.09,264.42 438.43,264.10 438.76,263.67 439.10,263.34 439.43,262.91 439.77,262.59 440.10,262.21 440.44,261.80 440.77,261.58 441.11,261.10 441.44,260.67 441.78,260.27 442.11,259.84 442.45,259.39 442.78,258.91 443.12,258.48 443.45,258.21 443.79,258.21 444.12,258.23 444.46,258.07 444.79,258.07 445.13,258.17 445.46,258.14 445.80,258.26 446.13,258.11 446.47,258.28 446.80,258.34 447.14,258.34 447.47,258.23 447.81,258.23 448.14,258.17 448.48,258.21 448.81,258.16 449.15,258.00 449.48,257.94 449.82,257.78 450.15,257.80 450.49,257.91 450.82,257.86 451.16,257.94 451.49,257.67 451.83,257.70 452.16,257.87 452.50,258.03 452.83,258.14 453.17,258.08 453.50,258.03 453.84,258.03 454.17,257.97 454.51,257.97 454.84,258.17 455.18,258.39 455.51,258.30 455.85,258.15 456.18,258.34 456.52,258.28 456.85,258.23 457.19,258.10 457.52,258.24 457.86,258.36 458.19,258.58 458.53,258.74 458.86,258.73 459.20,258.68 459.53,258.95 459.87,259.22 460.20,259.23 460.54,259.18 460.87,259.18 461.21,259.23 461.54,259.23 461.88,259.24 462.21,259.35 462.55,259.51 462.88,259.43 463.22,259.35 463.55,259.30 463.89,259.37 464.22,259.46 464.56,259.64 464.89,259.85 465.23,259.75 465.56,259.60 465.90,259.14 466.23,258.71 466.57,258.28 466.90,258.03 467.24,257.54 467.57,257.29 467.91,256.81 468.24,256.37 468.58,256.00 468.91,255.84 469.25,255.57 469.58,255.22 469.92,254.84 470.25,254.41 470.59,254.09 470.92,253.61 471.26,253.34 471.59,252.91 471.93,252.58 472.26,252.21 472.60,251.88 472.93,251.45 473.27,251.15 473.60,250.72 473.94,250.34 474.27,249.91 474.61,249.48 474.94,249.05 475.28,248.67 475.61,248.40 475.95,248.02 476.28,247.59 476.62,247.16 476.95,246.79 477.29,246.46 477.62,246.12 477.96,245.91 478.29,245.64 478.63,245.29 478.96,244.91 479.30,244.65 479.63,244.27 479.97,243.95 480.30,243.52 480.64,243.09 480.97,242.76 481.31,242.47 481.64,241.98 481.98,241.63 482.31,241.19 482.65,240.82 482.98,240.44 483.32,240.06 483.65,239.66 483.99,239.38 484.32,239.01 484.66,238.58 484.99,238.36 485.33,238.09 485.66,237.96 486.00,237.54 486.33,237.24 486.67,236.71 487.00,236.28 487.34,235.93 487.67,235.50 488.01,235.08 488.34,234.76 488.68,234.24 489.01,233.92 489.35,233.49 489.68,232.96 490.02,232.64 490.35,232.21 490.69,231.79 491.02,231.42 491.36,230.91 491.69,230.53 492.03,230.16 492.36,229.83 492.70,229.41 493.03,229.09 493.37,228.66 493.70,228.34 494.04,227.96 494.37,227.56 494.71,227.18 495.04,226.80 495.38,226.53 495.71,226.26 496.05,225.99 496.38,225.62 496.72,225.51 497.05,225.02 497.39,224.65 497.72,224.11 498.06,223.57 498.39,223.22 498.73,222.90 499.06,222.52 499.40,222.09 499.73,221.61 500.07,221.29 500.40,220.96 500.74,220.53 501.07,220.12 501.41,219.79 501.74,219.47 502.08,219.18 502.41,218.76 502.75,218.37 503.08,217.90 503.42,217.56 503.75,217.24 504.09,216.97 504.42,216.59 504.76,216.27 505.09,216.00 505.43,215.62 505.76,215.18 506.10,214.75 506.43,214.38 506.77,213.89 507.10,213.52 507.44,213.06 507.77,212.74 508.11,212.25 508.44,211.93 508.78,211.70 509.11,211.32 509.45,210.94 509.78,210.41 510.12,210.03 510.45,209.55 510.79,209.22 511.12,209.01 511.46,208.52 511.79,208.04 512.13,207.79 512.46,207.47 512.80,207.09 513.13,206.71 513.47,206.28 513.80,205.85 514.14,205.54 514.47,205.32 514.81,204.90 515.14,204.55 515.48,204.23 515.81,203.79 516.15,203.42 516.48,203.09 516.82,202.70 517.15,202.26 517.49,201.94 517.82,201.61 518.16,201.29 518.49,200.86 518.83,200.37 519.16,200.00 519.50,199.62 519.83,199.30 520.17,198.92 520.50,198.54 520.84,198.22 521.17,197.73 521.51,197.23 521.84,196.85 522.18,196.44 522.51,196.11 522.85,195.79 523.18,195.52 523.52,195.19 523.85,194.81 524.19,194.38 524.52,193.90 524.86,193.41 525.19,192.93 525.53,192.64 525.86,192.15 526.20,191.80 526.53,191.37 526.87,191.10 527.20,190.67 527.54,190.28 527.87,189.85 528.21,189.42 528.54,188.97 528.88,188.59 529.21,188.24 529.55,187.69 529.88,187.19 530.22,186.93 530.55,186.50 530.89,186.15 531.22,185.88 531.56,185.61 531.89,185.09 532.23,184.75 532.56,184.37 532.90,183.86 533.23,183.37 533.57,183.05 533.90,182.75 534.24,182.43 534.57,182.05 534.91,181.73 535.24,181.35 535.58,180.92 535.91,180.55 536.25,180.11 536.58,179.61 536.92,179.18 537.25,178.86 537.59,178.43 537.92,178.10 538.26,177.67 538.59,177.30 538.93,176.91 539.26,176.54 539.60,176.05 539.93,175.62 540.27,175.51 540.60,175.19 540.94,174.81 541.27,174.54 541.61,174.38 541.94,173.90 542.28,173.57 542.61,173.31 542.95,173.03 543.28,172.65 543.62,172.43 543.95,172.11 544.29,171.79 544.62,171.30 544.96,170.92 545.29,170.55 545.63,170.12 545.96,169.85 546.30,169.36 546.63,169.01 546.97,168.68 547.30,168.20 547.64,167.88 547.97,167.39 548.31,167.01 548.64,166.48 548.98,166.05 549.31,165.62 549.65,165.13 549.98,164.76 550.32,164.37 550.65,164.05 550.99,163.80 551.32,163.44 551.66,162.95 551.99,162.55 552.33,162.17 552.66,161.87 553.00,161.39 553.33,161.01 553.67,160.53 554.00,160.11 554.34,159.60 554.67,159.31 555.01,158.82 555.34,158.34 555.68,158.02 556.01,157.70 556.35,157.38 556.68,157.00 557.02,156.51 557.35,156.08 557.69,155.51 558.02,155.24 558.36,154.86 558.69,154.43 559.03,154.05 559.36,153.62 559.70,153.30 560.03,152.91 560.37,152.43 560.70,152.00 561.04,151.62 561.37,151.32 561.71,151.02 562.04,150.54 562.38,150.29 562.71,149.94 563.05,149.58 563.38,149.42 563.72,148.99 564.05,148.58 564.39,148.20 564.72,147.72 565.06,147.40 565.39,146.97 565.73,146.72 566.06,146.45 566.40,146.01 566.73,145.64 567.07,145.21 567.40,144.85 567.74,144.39 568.07,144.07 568.41,143.82 568.74,143.44 569.08,142.97 569.41,142.60 569.75,142.16 570.08,141.77 570.42,141.36 570.75,140.90 571.09,140.53 571.42,140.04 571.76,139.66 572.09,139.22 572.43,138.88 572.76,138.61 573.10,138.18 573.43,137.75 573.77,137.32 574.10,136.96 574.44,136.62 574.77,136.24 575.11,135.92 575.44,135.54 575.78,135.11 576.11,134.78 576.45,134.30 576.78,133.87 577.12,133.44 577.45,133.16 577.79,132.69 578.12,132.37 578.46,132.05 578.79,131.67 579.13,131.24 579.46,130.76 579.80,130.49 580.13,130.00 580.47,129.46 580.80,129.14 581.14,128.87 581.47,128.44 581.81,128.01 582.14,127.63 582.48,127.20 582.81,126.88 583.15,126.50 583.48,126.07 583.82,125.64 584.15,125.25 584.49,125.03 584.82,124.71 585.16,124.28 585.49,123.85 585.83,123.47 586.16,123.26 586.50,122.72 586.83,122.24 587.17,121.86 587.50,121.48 587.84,121.16 588.17,120.74 588.51,120.31 588.84,120.04 589.18,119.55 589.51,119.29 589.85,118.86 590.18,118.53 590.52,118.10 590.85,117.77 591.19,117.34 591.52,116.97 591.86,116.63 592.19,116.19 592.53,115.82 592.86,115.39 593.20,115.01 593.53,114.58 593.87,114.15 594.20,113.82 594.54,113.72 594.87,113.61 595.21,113.57 595.54,113.63 595.88,113.53 596.21,113.71 596.55,113.82 596.88,113.83 597.22,113.87 597.55,114.33 597.89,114.76 598.22,115.08 598.56,115.08 598.89,115.03 599.23,115.00 599.56,115.08 599.90,115.07 600.23,114.91 600.57,115.02 600.90,115.02 601.24,115.12 601.57,115.10 601.91,114.94 602.24,114.99 602.58,114.99 602.91,115.10 603.25,115.19 603.58,115.33 603.92,115.55 604.25,115.64 604.59,115.61 604.92,115.51 605.26,115.61 605.59,115.50 605.93,115.34 606.26,115.31 606.60,115.47 606.93,115.32 607.27,115.21 607.60,115.27 607.94,115.17 608.27,115.28 608.61,115.34 608.94,115.45 609.28,115.48 609.61,115.45 609.95,115.45 610.28,115.77 610.62,115.77 610.95,115.83 611.29,115.72 611.62,115.83 611.96,115.94 612.29,116.04 612.63,116.04 612.96,116.07 613.30,115.90 613.63,115.72 613.97,115.72 614.30,115.67 614.64,115.77 614.97,115.76 615.31,115.86 615.64,115.89 615.98,115.80 616.31,115.86 616.65,115.86 616.98,115.98 617.32,115.98 617.65,115.96 617.99,116.12 618.32,116.12 618.66,116.23 618.99,116.02 619.33,116.19 619.66,116.19 620.00,116.16 620.33,116.16 620.67,115.95 621.00,115.95 621.34,115.84 621.67,115.95 622.01,115.84 622.34,115.84 622.68,115.84 623.01,115.74 623.35,115.79 623.68,115.67 624.02,115.55 624.35,115.44 624.69,115.47 625.02,115.54 625.36,115.70 625.69,115.70 626.03,115.60 626.36,115.65 626.70,115.57 627.03,115.61 627.37,115.67 627.70,115.78 628.04,115.94 628.37,116.12 628.71,116.23 629.04,116.07 629.38,116.23 629.71,116.16 630.05,115.95 630.38,115.69 630.72,115.76 631.05,115.49 631.39,115.17 631.72,114.85 632.06,114.85 632.39,114.94 632.73,115.05 633.06,114.92 633.40,114.71 633.73,114.44 634.07,114.47 634.40,114.54 634.74,114.54 635.07,114.51 635.41,114.49 635.74,114.65 636.08,114.54 636.41,114.35 636.75,114.27 637.08,114.31 637.42,114.23 637.75,114.29 638.09,114.09 638.42,114.10 638.76,113.98 639.09,114.06 639.43,114.43 639.76,114.86 640.10,114.94 640.43,115.06 640.77,114.88 641.10,115.10 641.44,115.47 641.77,115.78 642.11,116.32 642.44,116.59 642.78,116.86 643.11,117.30 643.45,117.84 643.78,118.22 644.12,118.62 644.45,119.03 644.79,119.35 645.12,119.69 645.46,120.23 645.79,120.61 646.13,121.05 646.46,121.48 646.80,121.75 647.13,122.18 647.47,122.56 647.80,122.99 648.14,123.26 648.47,123.53 648.81,123.91 649.14,124.23 649.48,124.58 649.81,124.93 650.15,125.32 650.48,125.50 650.82,125.93 651.15,126.25 651.49,126.63 651.82,127.06 652.16,127.43 652.49,127.97 652.83,128.45 653.16,128.67 653.50,129.13 653.83,129.51 654.17,129.94 654.50,130.00 654.84,130.37 655.17,130.43 655.51,130.75 655.84,130.75 656.18,130.64 656.51,130.55 656.85,130.57 657.18,130.52 657.52,130.58 657.85,130.69 658.19,130.74 658.52,130.58 658.86,130.58 659.19,130.69 659.53,130.69 659.86,130.73 660.20,130.55 660.53,130.48 660.87,130.31 661.20,130.38 661.54,130.17 661.87,130.22 662.21,130.01 662.54,130.06 662.88,130.01 663.21,129.95 663.55,129.66 663.88,129.55 664.22,129.49 664.55,129.28 664.89,128.96 665.22,128.48 665.56,128.03 665.89,127.65 666.23,127.22 666.56,126.84 666.90,126.41 667.23,125.98 667.57,125.44 667.90,125.02 668.24,124.54 668.57,124.16 668.91,123.95 669.24,123.57 669.58,123.15 669.91,122.67 670.25,122.35 670.58,121.97 670.92,121.97 671.25,121.75 671.59,121.50 671.92,121.07 672.26,120.64 672.59,120.15 672.93,119.78 673.26,119.45 673.60,119.08 673.93,118.81 674.27,118.32 674.60,118.13 674.94,117.76 675.27,117.27 675.61,116.98 675.94,116.65 676.28,116.33 676.61,116.22 676.95,115.95 677.28,115.83 677.62,115.67 677.95,115.44 678.29,115.08 678.62,114.81 678.96,114.27 679.29,113.94 679.63,113.62 679.96,113.35 680.30,112.95 680.63,112.79 680.97,112.57 681.30,112.34 681.64,112.34 681.97,112.34 682.31,112.14 682.64,112.09 682.98,111.94 683.31,111.89 683.65,111.83 683.98,111.52 684.32,111.63 684.65,111.79 684.99,111.69 685.32,111.85 685.66,111.79 685.99,111.73 686.33,111.37 686.66,110.89 687.00,110.64 687.33,110.37 687.67,109.88 688.00,109.61 688.34,109.24 688.67,108.86 689.01,108.89 689.34,108.84 689.68,108.83 690.01,108.88 690.35,108.71 690.68,108.66 691.02,108.59 691.35,108.59 691.69,108.65 692.02,108.22 692.36,107.93 692.69,107.71 693.03,107.68 693.36,107.77 693.70,107.81 694.03,107.73 694.37,107.91 694.70,107.75 695.04,107.91 695.37,107.88 695.71,107.94 696.04,108.04 696.38,107.78 696.71,107.56 697.05,107.71 697.38,107.59 697.72,107.75 698.05,107.91 698.39,107.89 698.72,107.83 699.06,107.78 699.39,107.74 699.73,107.67 700.06,107.57 700.40,107.41 700.73,107.68 701.07,108.00 701.40,108.16 701.74,108.70 702.07,109.13 702.41,109.41 702.74,109.67 703.08,109.62 703.41,109.67 703.75,109.62 704.08,109.62 704.42,109.73 704.75,109.73 705.09,109.51 705.42,109.41 705.76,109.54 706.09,109.49 706.43,109.39 706.76,109.56 707.10,109.77 707.43,109.93 707.77,109.91 708.10,110.01 708.44,109.78 708.77,109.76 709.11,109.84 709.44,110.06 709.78,110.03 710.11,110.11 710.45,110.16 710.78,110.13 711.12,110.03 711.45,109.81 711.79,109.87 712.12,110.08 712.46,110.13 712.79,109.99 713.13,110.05 713.46,110.16 713.80,110.07 714.13,110.03 714.47,109.88 714.80,109.93 715.14,110.12 715.47,110.25 715.81,110.17 716.14,110.14 716.48,110.09 716.81,110.09 717.15,110.03 717.48,110.18 717.82,110.39 718.15,110.33 718.49,110.71 718.82,111.14 719.16,111.52 719.49,111.95 719.83,112.18 720.16,112.72 720.50,113.21 720.83,113.58 721.17,114.00 721.50,114.43 721.84,114.91 722.17,115.29 722.51,115.56 722.84,115.83 723.18,116.31 723.51,116.74 723.85,117.11 724.18,117.33 724.52,117.81 724.85,118.24 725.19,118.73 725.52,119.16 725.86,119.53 726.19,119.86 726.53,120.18 726.86,120.61 727.20,120.94 727.53,121.10 727.87,121.37 728.20,121.80 728.54,122.13 728.87,122.64 729.21,122.92 729.54,123.36 729.88,123.64 730.21,124.02 730.55,124.51 730.88,124.94 731.22,125.34 731.55,125.71 731.89,126.20 732.22,126.61 732.56,126.96 732.89,127.28 733.23,127.71 733.56,128.13 733.90,128.62 734.23,128.67 734.57,129.05 734.90,129.34 735.24,129.77 735.57,130.21 735.91,130.53 736.24,130.85 736.58,131.34 736.91,131.79 737.25,132.06 737.58,132.39 737.92,132.74 738.25,133.13 738.59,133.45 738.92,133.72 739.26,134.17 739.59,134.54 739.93,134.87 740.26,135.35 740.60,135.57 740.93,135.94 741.27,135.99 741.60,136.15 741.94,136.58 742.27,136.91 742.61,137.14 742.94,137.52 743.28,138.01 743.61,138.35 743.95,138.67 744.28,139.00 744.62,138.94 744.95,139.27 745.29,139.70 745.62,140.13 745.96,140.63 746.29,141.01 746.63,141.52 746.96,141.85 747.30,142.25 747.63,142.68 747.97,143.06 748.30,143.54 748.64,143.81 748.97,143.97 749.31,144.06 749.64,144.49 749.98,144.73 750.31,145.11 750.65,145.00 750.98,145.32 751.32,145.64 751.65,146.18 751.99,146.61 752.32,146.99 752.66,147.48 752.99,147.85 753.33,148.34 753.66,148.69 754.00,148.87 754.33,149.24 754.67,149.24 755.00,149.16"/>
<line x1="783" y1="82" x2="809" y2="82" stroke="#dc2626" stroke-width="3"/>
<text x="817" y="86" font-family="Arial" font-size="13" fill="#111827">Avellaneda Stoikov</text>
<polyline fill="none" stroke="#7c3aed" stroke-width="2" points=""/>
<line x1="783" y1="106" x2="809" y2="106" stroke="#7c3aed" stroke-width="3"/>
<text x="817" y="110" font-family="Arial" font-size="13" fill="#111827">Calibrated Avellaneda Stoikov</text>
<text x="420.0" y="518" text-anchor="middle" font-family="Arial" font-size="14" fill="#111827">Event index</text>
<text x="22" y="256.0" text-anchor="middle" transform="rotate(-90 22 256.0)" font-family="Arial" font-size="14" fill="#111827">Inventory</text>
</svg>
