<svg xmlns="http://www.w3.org/2000/svg" width="940" height="540" viewBox="0 0 940 540">
<rect width="100%" height="100%" fill="#ffffff"/>
<text x="470.0" y="26" text-anchor="middle" font-family="Arial" font-size="18" fill="#111827">Trending Inventory</text>
<line x1="85" y1="470" x2="755" y2="470" stroke="#111827" stroke-width="1"/>
<line x1="85" y1="42" x2="85" y2="470" stroke="#111827" stroke-width="1"/>
<line x1="85.00" y1="42" x2="85.00" y2="470" stroke="#e5e7eb" stroke-width="1"/>
<text x="85.00" y="494" text-anchor="middle" font-family="Arial" font-size="12" fill="#374151">0</text>
<line x1="252.50" y1="42" x2="252.50" y2="470" stroke="#e5e7eb" stroke-width="1"/>
<text x="252.50" y="494" text-anchor="middle" font-family="Arial" font-size="12" fill="#374151">50000</text>
<line x1="420.00" y1="42" x2="420.00" y2="470" stroke="#e5e7eb" stroke-width="1"/>
<text x="420.00" y="494" text-anchor="middle" font-family="Arial" font-size="12" fill="#374151">100000</text>
<line x1="587.50" y1="42" x2="587.50" y2="470" stroke="#e5e7eb" stroke-width="1"/>
<text x="587.50" y="494" text-anchor="middle" font-family="Arial" font-size="12" fill="#374151">149999</text>
<line x1="755.00" y1="42" x2="755.00" y2="470" stroke="#e5e7eb" stroke-width="1"/>
<text x="755.00" y="494" text-anchor="middle" font-family="Arial" font-size="12" fill="#374151">199999</text>
<line x1="85" y1="470.00" x2="755" y2="470.00" stroke="#e5e7eb" stroke-width="1"/>
<text x="73" y="474.00" text-anchor="end" font-family="Arial" font-size="12" fill="#374151">-26537</text>
<line x1="85" y1="363.00" x2="755" y2="363.00" stroke="#e5e7eb" stroke-width="1"/>
<text x="73" y="367.00" text-anchor="end" font-family="Arial" font-size="12" fill="#374151">-12086</text>
<line x1="85" y1="256.00" x2="755" y2="256.00" stroke="#e5e7eb" stroke-width="1"/>
<text x="73" y="260.00" text-anchor="end" font-family="Arial" font-size="12" fill="#374151">2364</text>
<line x1="85" y1="149.00" x2="755" y2="149.00" stroke="#e5e7eb" stroke-width="1"/>
<text x="73" y="153.00" text-anchor="end" font-family="Arial" font-size="12" fill="#374151">16815</text>
<line x1="85" y1="42.00" x2="755" y2="42.00" stroke="#e5e7eb" stroke-width="1"/>
<text x="73" y="46.00" text-anchor="end" font-family="Arial" font-size="12" fill="#374151">31266</text>
<polyline fill="none" stroke="#2563eb" stroke-width="2" points="85.00,273.51 85.34,273.66 85.67,273.62 86.01,273.62 86.34,273.84 86.68,273.84 87.01,273.68 87.35,273.43 87.68,273.43 88.02,273.53 88.35,273.57 88.69,273.85 89.02,273.85 89.36,273.70 89.69,273.73 90.03,273.58 90.36,273.57 90.70,273.42 91.03,273.43 91.37,273.56 91.70,273.54 92.04,273.54 92.37,273.54 92.71,273.43 93.04,273.14 93.38,272.77 93.71,272.70 94.05,272.28 94.38,271.91 94.72,271.39 95.05,270.72 95.39,270.07 95.72,269.71 96.06,269.20 96.39,268.69 96.73,268.03 97.06,267.49 97.40,266.90 97.73,266.21 98.07,265.70 98.40,265.18 98.74,264.44 99.07,263.92 99.41,263.55 99.74,263.03 100.08,262.51 100.41,261.99 100.75,261.54 101.08,260.95 101.42,260.49 101.75,259.98 102.09,259.36 102.42,258.73 102.76,258.06 103.09,257.47 103.43,256.95 103.76,256.73 104.10,256.21 104.43,255.77 104.77,255.32 105.10,255.61 105.44,255.39 105.77,255.49 106.11,255.12 106.44,255.12 106.78,255.19 107.11,254.97 107.45,254.74 107.78,254.52 108.12,253.96 108.45,253.55 108.79,252.96 109.12,252.44 109.46,252.07 109.79,251.93 110.13,251.81 110.46,251.89 110.80,252.07 111.13,251.75 111.47,251.75 111.80,251.66 112.14,251.66 112.47,251.89 112.81,251.66 113.14,251.73 113.48,251.75 113.81,251.82 114.15,251.82 114.48,251.66 114.82,251.57 115.15,251.72 115.49,252.01 115.82,252.16 116.16,252.23 116.49,252.23 116.83,252.23 117.16,252.53 117.50,252.60 117.83,252.89 118.17,252.81 118.50,252.67 118.84,252.67 119.17,253.14 119.51,253.09 119.84,253.03 120.18,252.60 120.51,252.41 120.85,252.26 121.18,252.41 121.52,252.41 121.85,252.78 122.19,252.92 122.52,253.35 122.86,253.77 123.19,254.29 123.53,255.03 123.86,255.59 124.20,256.18 124.53,256.77 124.87,257.20 125.20,257.93 125.54,258.45 125.87,258.82 126.21,259.37 126.54,259.67 126.88,259.82 127.21,260.31 127.55,260.82 127.88,261.42 128.22,261.87 128.55,262.24 128.89,262.36 129.22,262.41 129.56,262.26 129.89,262.10 130.23,262.22 130.56,262.57 130.90,262.83 131.23,262.79 131.57,262.86 131.90,263.00 132.24,263.11 132.57,263.11 132.91,262.82 133.24,262.91 133.58,263.06 133.91,263.36 134.25,263.49 134.58,263.42 134.92,263.64 135.25,263.67 135.59,263.73 135.92,263.54 136.26,264.04 136.59,264.34 136.93,264.79 137.26,265.32 137.60,265.98 137.93,266.51 138.27,266.88 138.60,267.41 138.94,267.54 139.27,267.39 139.61,267.54 139.94,267.59 140.28,267.54 140.61,267.66 140.95,267.51 141.28,267.29 141.62,267.36 141.95,267.18 142.29,267.48 142.62,267.98 142.96,268.06 143.29,268.28 143.63,268.50 143.96,268.50 144.30,268.32 144.63,268.17 144.97,268.17 145.30,268.39 145.64,268.32 145.97,268.39 146.31,268.04 146.64,268.19 146.98,268.41 147.31,268.41 147.65,268.25 147.98,268.47 148.32,268.32 148.65,267.88 148.99,267.68 149.32,267.59 149.66,267.67 149.99,267.81 150.33,267.95 150.66,267.95 151.00,267.95 151.33,267.72 151.67,267.58 152.00,267.78 152.34,267.85 152.67,267.70 153.01,267.75 153.34,267.84 153.68,267.80 154.01,267.65 154.35,267.87 154.68,268.17 155.02,268.08 155.35,268.30 155.69,268.15 156.02,268.23 156.36,268.71 156.69,268.52 157.03,268.72 157.36,268.05 157.70,267.61 158.03,267.09 158.37,266.72 158.70,266.13 159.04,265.71 159.37,265.18 159.71,264.73 160.04,264.29 160.38,264.22 160.71,263.92 161.05,263.99 161.38,264.22 161.72,264.51 162.05,264.90 162.39,265.27 162.72,265.57 163.06,266.21 163.39,266.61 163.73,267.06 164.06,267.65 164.40,268.24 164.73,268.69 165.07,269.09 165.40,269.69 165.74,270.28 166.07,270.80 166.41,271.46 166.74,271.83 167.08,272.20 167.41,272.83 167.75,273.27 168.08,273.86 168.42,274.46 168.75,275.12 169.09,275.71 169.42,276.37 169.76,276.88 170.09,277.40 170.43,277.99 170.76,278.66 171.10,278.96 171.43,279.47 171.77,280.18 172.10,280.62 172.44,281.18 172.77,281.77 173.11,282.22 173.44,282.67 173.78,283.07 174.11,283.59 174.45,284.18 174.78,284.78 175.12,285.26 175.45,285.78 175.79,286.37 176.12,286.89 176.46,287.48 176.79,288.12 177.13,288.71 177.46,289.13 177.80,289.57 178.13,290.24 178.47,290.83 178.80,291.35 179.14,291.87 179.47,292.39 179.81,292.80 180.14,293.32 180.48,294.09 180.81,294.31 181.15,294.91 181.48,295.35 181.82,296.02 182.15,296.42 182.49,296.94 182.82,297.61 183.16,298.20 183.49,298.57 183.83,299.19 184.16,299.57 184.50,300.13 184.83,300.87 185.17,301.47 185.50,302.13 185.84,302.71 186.17,303.30 186.51,303.97 186.84,304.49 187.18,305.12 187.51,305.86 187.85,306.16 188.18,306.36 188.52,306.88 188.85,307.46 189.19,307.90 189.52,308.42 189.86,308.75 190.19,309.34 190.53,309.95 190.86,310.69 191.20,311.21 191.53,311.80 191.87,312.10 192.20,312.84 192.54,313.11 192.87,313.05 193.21,313.16 193.54,313.08 193.88,313.08 194.21,313.05 194.55,313.05 194.88,313.05 195.22,313.05 195.55,312.90 195.89,313.05 196.22,313.19 196.56,313.28 196.89,313.50 197.23,314.09 197.56,314.68 197.90,315.28 198.23,315.87 198.57,316.53 198.90,317.09 199.24,317.68 199.57,318.05 199.91,318.57 200.24,318.98 200.58,319.43 200.91,319.59 201.25,319.67 201.58,320.02 201.92,319.95 202.25,320.03 202.59,320.55 202.92,320.92 203.26,321.44 203.59,322.03 203.93,322.66 204.26,323.25 204.60,323.69 204.93,324.06 205.27,324.75 205.60,324.82 205.94,325.33 206.27,325.38 206.61,325.38 206.94,325.30 207.28,325.30 207.61,325.26 207.95,325.86 208.28,326.45 208.62,326.97 208.95,327.49 209.29,327.81 209.62,328.40 209.96,329.00 210.29,329.44 210.63,329.97 210.96,330.34 211.30,330.79 211.63,331.38 211.97,331.82 212.30,332.20 212.64,332.57 212.97,333.15 213.31,333.67 213.64,334.26 213.98,334.78 214.31,335.27 214.65,335.79 214.98,336.33 215.32,336.67 215.65,337.19 215.99,337.88 216.32,338.29 216.66,338.88 216.99,339.55 217.33,340.09 217.66,340.69 218.00,341.28 218.33,341.81 218.67,342.42 219.00,343.08 219.34,343.45 219.67,343.97 220.01,344.50 220.34,344.87 220.68,345.29 221.01,345.74 221.35,346.33 221.68,346.85 222.02,347.29 222.35,347.96 222.69,348.55 223.02,349.14 223.36,349.55 223.69,350.07 224.03,350.59 224.36,351.18 224.70,351.76 225.03,352.27 225.37,352.65 225.70,353.36 226.04,353.76 226.37,354.29 226.71,354.73 227.04,355.25 227.38,355.74 227.71,356.41 228.05,357.00 228.38,357.49 228.72,358.08 229.05,358.75 229.39,359.46 229.72,359.98 230.06,360.58 230.39,360.91 230.73,361.43 231.06,361.94 231.40,362.46 231.73,363.06 232.07,363.50 232.40,363.89 232.74,364.41 233.07,365.09 233.41,365.71 233.74,366.31 234.08,366.82 234.41,367.42 234.75,368.01 235.08,368.60 235.42,369.27 235.75,369.86 236.09,370.38 236.42,370.96 236.76,371.33 237.09,371.85 237.43,372.44 237.76,373.01 238.10,373.38 238.43,374.05 238.77,374.52 239.10,375.04 239.44,375.56 239.77,376.15 240.11,376.67 240.44,377.04 240.78,377.51 241.11,377.43 241.45,377.66 241.78,378.40 242.12,378.84 242.45,378.84 242.79,379.14 243.12,379.29 243.46,379.66 243.79,380.03 244.13,380.54 244.46,381.22 244.80,381.74 245.13,382.26 245.47,382.85 245.80,383.37 246.14,383.91 246.47,384.42 246.81,384.93 247.14,385.59 247.48,386.05 247.81,386.50 248.15,386.72 248.48,387.16 248.82,387.68 249.15,388.05 249.49,388.57 249.82,389.16 250.16,389.90 250.49,390.35 250.83,390.87 251.16,391.38 251.50,391.98 251.83,392.64 252.17,393.23 252.50,393.18 252.84,393.63 253.17,394.07 253.51,394.59 253.84,395.09 254.18,395.60 254.51,396.01 254.85,396.53 255.18,397.03 255.52,397.77 255.85,398.07 256.19,398.66 256.52,399.18 256.86,399.70 257.19,400.27 257.53,400.86 257.86,401.31 258.20,401.82 258.53,402.19 258.87,402.79 259.20,403.31 259.54,403.68 259.87,404.19 260.21,404.78 260.54,405.45 260.88,405.96 261.21,405.86 261.55,405.86 261.88,405.69 262.22,405.69 262.55,405.39 262.89,405.48 263.22,405.56 263.56,405.78 263.89,405.70 264.23,405.83 264.56,405.70 264.90,406.22 265.23,406.73 265.57,407.03 265.90,407.03 266.24,407.18 266.57,407.84 266.91,408.14 267.24,408.24 267.58,408.47 267.91,408.93 268.25,409.51 268.58,410.03 268.92,410.01 269.25,410.53 269.59,411.20 269.92,411.66 270.26,412.18 270.59,412.77 270.93,413.36 271.26,414.10 271.60,414.40 271.93,414.85 272.27,415.29 272.60,415.83 272.94,416.50 273.27,416.94 273.61,417.31 273.94,418.06 274.28,418.80 274.61,419.46 274.95,419.98 275.28,420.57 275.62,421.09 275.95,421.76 276.29,422.20 276.62,422.79 276.96,423.04 277.29,423.48 277.63,423.93 277.96,424.39 278.30,424.90 278.63,425.50 278.97,426.01 279.30,426.61 279.64,426.90 279.97,427.13 280.31,427.35 280.64,427.35 280.98,427.41 281.31,428.01 281.65,428.52 281.98,428.89 282.32,428.97 282.65,429.27 282.99,429.86 283.32,430.31 283.66,430.90 283.99,431.42 284.33,431.70 284.66,432.20 285.00,432.55 285.33,433.14 285.67,433.73 286.00,434.31 286.34,434.76 286.67,435.06 287.01,435.80 287.34,436.31 287.68,436.91 288.01,437.20 288.35,437.46 288.68,437.79 289.02,438.01 289.35,437.68 289.69,437.65 290.02,437.57 290.36,438.02 290.69,437.94 291.03,437.87 291.36,438.02 291.70,438.61 292.03,438.97 292.37,439.12 292.70,438.57 293.04,438.66 293.37,438.65 293.71,439.02 294.04,439.66 294.38,440.33 294.71,440.48 295.05,440.25 295.38,440.22 295.72,440.36 296.05,440.48 296.39,440.22 296.72,439.99 297.06,439.56 297.39,439.05 297.73,438.53 298.06,438.07 298.40,437.71 298.73,437.94 299.07,437.79 299.40,437.72 299.74,437.57 300.07,437.20 300.41,436.72 300.74,436.28 301.08,435.69 301.41,435.10 301.75,434.46 302.08,433.92 302.42,433.34 302.75,432.61 303.09,432.02 303.42,431.43 303.76,430.83 304.09,430.32 304.43,429.92 304.76,429.32 305.10,428.72 305.43,428.13 305.77,427.70 306.10,427.18 306.44,426.79 306.77,426.42 307.11,425.90 307.44,425.44 307.78,425.00 308.11,424.47 308.45,424.04 308.78,423.49 309.12,423.23 309.45,422.56 309.79,422.02 310.12,421.42 310.46,420.91 310.79,420.44 311.13,419.92 311.46,419.18 311.80,418.59 312.13,418.15 312.47,417.56 312.80,417.11 313.14,416.61 313.47,416.12 313.81,415.38 314.14,414.64 314.48,414.12 314.81,413.53 315.15,412.94 315.48,412.32 315.82,411.80 316.15,411.21 316.49,410.61 316.82,409.95 317.16,409.47 317.49,408.81 317.83,408.01 318.16,407.41 318.50,406.75 318.83,406.16 319.17,405.77 319.50,405.19 319.84,404.59 320.17,403.99 320.51,403.32 320.84,402.59 321.18,402.22 321.51,401.77 321.85,401.25 322.18,400.66 322.52,400.25 322.85,399.66 323.19,399.07 323.52,398.57 323.86,397.91 324.19,397.40 324.53,396.79 324.86,396.20 325.20,395.61 325.53,395.07 325.87,394.63 326.20,393.99 326.54,393.32 326.87,392.95 327.21,392.51 327.54,392.07 327.88,391.47 328.21,390.88 328.55,390.44 328.88,389.93 329.22,389.42 329.55,388.98 329.89,388.39 330.22,387.92 330.56,387.70 330.89,387.25 331.23,386.84 331.56,386.39 331.90,385.88 332.23,385.28 332.57,384.81 332.90,384.14 333.24,383.40 333.57,382.95 333.91,382.51 334.24,381.84 334.58,381.46 334.91,380.86 335.25,380.34 335.58,379.72 335.92,379.43 336.25,378.83 336.59,378.32 336.92,377.95 337.26,377.58 337.59,377.06 337.93,376.40 338.26,375.88 338.60,375.21 338.93,374.62 339.27,374.04 339.60,373.52 339.94,373.07 340.27,372.41 340.61,371.81 340.94,371.30 341.28,370.70 341.61,370.14 341.95,369.85 342.28,369.62 342.62,369.10 342.95,369.28 343.29,369.92 343.62,370.53 343.96,371.01 344.29,371.30 344.63,371.53 344.96,371.23 345.30,371.40 345.63,371.47 345.97,371.47 346.30,371.40 346.64,371.84 346.97,371.92 347.31,371.95 347.64,371.96 347.98,371.93 348.31,371.70 348.65,371.39 348.98,371.10 349.32,371.10 349.65,371.17 349.99,371.17 350.32,371.30 350.66,371.19 350.99,371.11 351.33,371.04 351.66,370.90 352.00,370.82 352.33,370.82 352.67,370.67 353.00,370.53 353.34,370.42 353.67,370.16 354.01,369.72 354.34,369.13 354.68,368.42 355.01,368.25 355.35,367.74 355.68,367.51 356.02,367.07 356.35,366.55 356.69,366.03 357.02,365.35 357.36,364.68 357.69,364.02 358.03,363.50 358.36,362.76 358.70,362.17 359.03,361.87 359.37,361.50 359.70,361.20 360.04,360.69 360.37,360.02 360.71,359.88 361.04,359.91 361.38,359.91 361.71,359.98 362.05,359.98 362.38,359.96 362.72,359.89 363.05,360.06 363.39,360.21 363.72,360.21 364.06,360.18 364.39,360.26 364.73,360.18 365.06,360.28 365.40,359.98 365.73,359.52 366.07,359.05 366.40,358.83 366.74,358.24 367.07,357.87 367.41,357.49 367.74,357.05 368.08,356.42 368.41,355.83 368.75,355.29 369.08,354.99 369.42,354.78 369.75,354.78 370.09,354.11 370.42,353.79 370.76,353.76 371.09,353.47 371.43,353.47 371.76,352.95 372.10,352.58 372.43,351.99 372.77,351.47 373.10,350.88 373.44,350.51 373.77,349.84 374.11,349.39 374.44,349.02 374.78,348.36 375.11,347.84 375.45,347.32 375.78,346.60 376.12,346.08 376.45,345.69 376.79,345.17 377.12,344.57 377.46,343.98 377.79,343.41 378.13,343.12 378.46,342.68 378.80,342.24 379.13,341.62 379.47,341.25 379.80,340.78 380.14,340.12 380.47,339.52 380.81,338.93 381.14,338.48 381.48,338.01 381.81,337.57 382.15,336.98 382.48,336.76 382.82,336.10 383.15,335.55 383.49,334.92 383.82,334.33 384.16,333.73 384.49,333.28 384.83,332.91 385.16,332.53 385.50,331.94 385.83,331.91 386.17,331.88 386.50,331.79 386.84,331.50 387.17,330.91 387.51,330.24 387.84,329.69 388.18,329.32 388.51,329.37 388.85,329.29 389.18,329.53 389.52,329.68 389.85,329.45 390.19,329.16 390.52,328.64 390.86,328.20 391.19,328.20 391.53,328.31 391.86,328.15 392.20,328.00 392.53,327.63 392.87,326.97 393.20,326.60 393.54,326.45 393.87,326.97 394.21,327.17 394.54,327.13 394.88,327.19 395.21,327.36 395.55,327.31 395.88,327.16 396.22,327.12 396.55,327.24 396.89,327.03 397.22,327.03 397.56,327.39 397.89,327.31 398.23,327.23 398.56,327.23 398.90,327.17 399.23,327.20 399.57,327.32 399.90,327.24 400.24,327.26 400.57,327.11 400.91,327.48 401.24,327.03 401.58,326.44 401.91,326.07 402.25,325.55 402.58,325.11 402.92,324.44 403.25,324.15 403.59,323.67 403.92,323.18 404.26,322.74 404.59,322.29 404.93,321.70 405.26,321.04 405.60,320.52 405.93,319.85 406.27,319.26 406.60,318.67 406.94,318.15 407.27,317.66 407.61,317.07 407.94,316.62 408.28,316.03 408.61,315.42 408.95,314.79 409.28,314.49 409.62,314.05 409.95,313.45 410.29,312.79 410.62,312.27 410.96,311.75 411.29,311.08 411.63,310.48 411.96,310.03 412.30,309.58 412.63,308.99 412.97,308.40 413.30,307.80 413.64,307.26 413.97,306.83 414.31,306.31 414.64,305.72 414.98,305.20 415.31,304.61 415.65,304.16 415.98,303.87 416.32,303.41 416.65,302.82 416.99,302.30 417.32,301.84 417.66,301.33 417.99,300.96 418.33,300.29 418.66,299.77 419.00,299.47 419.33,298.81 419.67,298.36 420.00,297.77 420.34,297.18 420.67,296.73 421.01,296.32 421.34,295.73 421.68,295.06 422.01,294.47 422.35,294.10 422.68,293.49 423.02,292.90 423.35,292.31 423.69,291.79 424.02,291.25 424.36,290.80 424.69,290.21 425.03,289.63 425.36,289.19 425.70,288.67 426.03,288.15 426.37,287.64 426.70,287.12 427.04,286.63 427.37,286.07 427.71,285.62 428.04,285.15 428.38,284.63 428.71,284.33 429.05,283.87 429.38,283.21 429.72,282.76 430.05,282.02 430.39,281.50 430.72,280.91 431.06,280.54 431.39,280.10 431.73,279.74 432.06,279.28 432.40,278.69 432.73,278.10 433.07,277.54 433.40,276.95 433.74,276.49 434.07,276.05 434.41,275.61 434.74,275.09 435.08,274.43 435.41,273.92 435.75,273.40 436.08,273.03 436.42,272.59 436.75,271.92 437.09,271.18 437.42,270.59 437.76,269.99 438.09,269.49 438.43,268.92 438.76,268.26 439.10,267.96 439.43,267.44 439.77,267.00 440.10,266.63 440.44,265.96 440.77,265.58 441.11,264.99 441.44,264.47 441.78,263.96 442.11,263.44 442.45,262.77 442.78,262.40 443.12,261.96 443.45,261.29 443.79,260.77 444.12,260.25 444.46,259.67 444.79,259.08 445.13,258.78 445.46,258.37 445.80,257.92 446.13,257.26 446.47,256.60 446.80,256.15 447.14,255.78 447.47,255.20 447.81,254.75 448.14,254.17 448.48,253.60 448.81,253.00 449.15,252.41 449.48,251.97 449.82,251.41 450.15,251.06 450.49,251.13 450.82,250.99 451.16,251.01 451.49,251.14 451.83,250.62 452.16,250.87 452.50,250.58 452.83,250.57 453.17,250.42 453.50,249.96 453.84,249.57 454.17,249.27 454.51,249.13 454.84,249.47 455.18,249.61 455.51,249.69 455.85,249.32 456.18,249.55 456.52,249.92 456.85,250.52 457.19,251.04 457.52,251.44 457.86,252.03 458.19,252.47 458.53,252.47 458.86,252.55 459.20,252.25 459.53,252.32 459.87,252.25 460.20,252.12 460.54,252.12 460.87,251.61 461.21,251.09 461.54,250.82 461.88,250.91 462.21,250.82 462.55,250.45 462.88,250.30 463.22,250.30 463.55,250.52 463.89,250.45 464.22,250.09 464.56,250.09 464.89,249.79 465.23,249.71 465.56,249.54 465.90,249.61 466.23,249.39 466.57,249.55 466.90,249.55 467.24,249.55 467.57,249.69 467.91,249.75 468.24,249.67 468.58,249.60 468.91,249.45 469.25,249.16 469.58,249.31 469.92,249.44 470.25,249.47 470.59,249.69 470.92,249.39 471.26,249.10 471.59,248.80 471.93,248.28 472.26,247.91 472.60,247.47 472.93,247.47 473.27,247.02 473.60,246.58 473.94,246.50 474.27,246.37 474.61,246.33 474.94,246.40 475.28,246.44 475.61,246.94 475.95,247.53 476.28,247.83 476.62,247.75 476.95,247.67 477.29,247.65 477.62,248.13 477.96,248.36 478.29,248.95 478.63,249.47 478.96,249.98 479.30,250.64 479.63,251.26 479.97,251.64 480.30,252.23 480.64,252.88 480.97,253.47 481.31,254.21 481.64,254.80 481.98,255.12 482.31,255.71 482.65,255.69 482.98,256.14 483.32,256.73 483.65,257.25 483.99,257.69 484.32,258.40 484.66,258.84 484.99,259.06 485.33,259.73 485.66,260.25 486.00,260.84 486.33,261.36 486.67,261.90 487.00,262.42 487.34,263.01 487.67,263.60 488.01,264.27 488.34,264.93 488.68,265.54 489.01,266.18 489.35,266.70 489.68,267.29 490.02,267.88 490.35,268.30 490.69,268.82 491.02,269.41 491.36,269.91 491.69,270.41 492.03,271.00 492.36,271.35 492.70,271.98 493.03,272.65 493.37,273.15 493.70,273.74 494.04,274.34 494.37,274.86 494.71,275.38 495.04,275.90 495.38,276.49 495.71,277.01 496.05,277.68 496.38,278.05 496.72,278.57 497.05,278.79 497.39,279.31 497.72,279.90 498.06,280.50 498.39,280.94 498.73,281.68 499.06,282.26 499.40,282.79 499.73,283.38 500.07,283.93 500.40,284.43 500.74,284.78 501.07,285.37 501.41,285.81 501.74,286.17 502.08,286.76 502.41,287.50 502.75,288.09 503.08,288.76 503.42,289.18 503.75,289.77 504.09,290.29 504.42,290.89 504.76,291.48 505.09,292.00 505.43,292.59 505.76,293.23 506.10,293.67 506.43,293.98 506.77,294.62 507.10,295.14 507.44,295.66 507.77,296.03 508.11,296.15 508.44,296.39 508.78,296.69 509.11,297.21 509.45,297.65 509.78,298.10 510.12,298.54 510.45,298.99 510.79,298.99 511.12,299.10 511.46,299.02 511.79,299.25 512.13,299.03 512.46,299.25 512.80,299.56 513.13,299.71 513.47,299.59 513.80,299.67 514.14,299.65 514.47,299.59 514.81,299.66 515.14,299.82 515.48,299.64 515.81,299.57 516.15,299.27 516.48,299.05 516.82,299.05 517.15,299.13 517.49,298.83 517.82,298.83 518.16,299.08 518.49,299.01 518.83,299.01 519.16,298.86 519.50,299.23 519.83,299.82 520.17,300.38 520.50,300.82 520.84,301.33 521.17,301.84 521.51,302.10 521.84,302.24 522.18,302.34 522.51,302.49 522.85,302.35 523.18,302.24 523.52,302.09 523.85,302.11 524.19,302.11 524.52,302.04 524.86,302.21 525.19,302.10 525.53,302.41 525.86,302.33 526.20,302.44 526.53,302.47 526.87,302.24 527.20,302.17 527.54,301.83 527.87,301.30 528.21,301.07 528.54,300.86 528.88,300.90 529.21,301.08 529.55,300.93 529.88,300.98 530.22,301.05 530.55,301.35 530.89,301.05 531.22,301.05 531.56,301.04 531.89,300.90 532.23,300.16 532.56,299.57 532.90,299.53 533.23,299.31 533.57,299.40 533.90,299.10 534.24,299.10 534.57,299.65 534.91,300.10 535.24,300.56 535.58,301.23 535.91,301.74 536.25,302.33 536.58,302.70 536.92,303.07 537.25,303.15 537.59,303.22 537.92,303.15 538.26,303.07 538.59,302.85 538.93,302.72 539.26,302.87 539.60,302.78 539.93,303.01 540.27,302.92 540.60,303.07 540.94,302.78 541.27,302.95 541.61,302.79 541.94,302.72 542.28,302.90 542.61,302.72 542.95,302.50 543.28,302.32 543.62,302.44 543.95,302.81 544.29,303.07 544.62,303.30 544.96,303.58 545.29,303.44 545.63,303.21 545.96,303.14 546.30,303.09 546.63,303.27 546.97,303.24 547.30,303.27 547.64,303.35 547.97,303.13 548.31,303.21 548.64,303.32 548.98,303.17 549.31,303.10 549.65,303.02 549.98,303.24 550.32,303.48 550.65,303.63 550.99,303.70 551.32,303.89 551.66,304.41 551.99,304.93 552.33,305.60 552.66,305.97 553.00,306.41 553.33,306.86 553.67,307.15 554.00,307.82 554.34,308.49 554.67,309.00 555.01,309.52 555.34,310.11 555.68,310.41 556.01,310.71 556.35,311.23 556.68,311.52 557.02,312.00 557.35,312.56 557.69,313.15 558.02,313.73 558.36,314.34 558.69,314.71 559.03,315.16 559.36,315.60 559.70,315.90 560.03,316.42 560.37,316.95 560.70,317.39 561.04,317.90 561.37,318.50 561.71,318.94 562.04,319.61 562.38,320.13 562.71,320.72 563.05,321.24 563.38,321.78 563.72,322.38 564.05,322.97 564.39,323.56 564.72,324.23 565.06,324.67 565.39,325.12 565.73,325.78 566.06,326.30 566.40,326.74 566.73,327.49 567.07,328.08 567.40,328.40 567.74,329.00 568.07,329.29 568.41,329.83 568.74,330.16 569.08,330.68 569.41,331.27 569.75,331.94 570.08,332.58 570.42,332.73 570.75,332.95 571.09,332.77 571.42,333.07 571.76,332.79 572.09,332.33 572.43,332.06 572.76,332.11 573.10,332.33 573.43,332.40 573.77,332.41 574.10,332.56 574.44,332.34 574.77,332.14 575.11,332.08 575.44,331.71 575.78,331.49 576.11,331.59 576.45,331.54 576.78,331.59 577.12,331.44 577.45,331.39 577.79,331.61 578.12,331.28 578.46,330.83 578.79,330.23 579.13,329.85 579.46,329.25 579.80,328.59 580.13,328.14 580.47,327.50 580.80,326.94 581.14,326.57 581.47,326.05 581.81,325.53 582.14,324.95 582.48,324.36 582.81,323.84 583.15,323.41 583.48,323.04 583.82,322.37 584.15,321.85 584.49,321.30 584.82,320.78 585.16,320.27 585.49,319.90 585.83,319.30 586.16,318.78 586.50,318.04 586.83,317.60 587.17,317.30 587.50,316.56 587.84,315.97 588.17,315.45 588.51,314.71 588.84,314.12 589.18,313.74 589.51,313.32 589.85,312.68 590.18,312.17 590.52,311.57 590.85,311.13 591.19,310.54 591.52,310.02 591.86,309.50 592.19,308.98 592.53,308.27 592.86,307.53 593.20,307.09 593.53,306.42 593.87,305.91 594.20,305.24 594.54,304.72 594.87,304.11 595.21,303.52 595.54,302.92 595.88,302.46 596.21,301.94 596.55,301.27 596.88,300.82 597.22,300.81 597.55,300.81 597.89,300.73 598.22,300.36 598.56,299.81 598.89,299.41 599.23,298.82 599.56,298.32 599.90,297.65 600.23,297.13 600.57,296.80 600.90,296.21 601.24,295.62 601.57,295.20 601.91,294.91 602.24,294.48 602.58,293.81 602.91,293.22 603.25,292.63 603.58,292.03 603.92,291.44 604.25,290.92 604.59,290.33 604.92,289.81 605.26,289.34 605.59,288.84 605.93,288.18 606.26,287.66 606.60,286.99 606.93,286.62 607.27,285.95 607.60,285.51 607.94,284.93 608.27,284.48 608.61,283.93 608.94,283.45 609.28,282.93 609.61,282.49 609.95,281.69 610.28,281.02 610.62,280.58 610.95,280.21 611.29,279.62 611.62,279.25 611.96,278.58 612.29,277.91 612.63,277.25 612.96,276.65 613.30,276.14 613.63,275.54 613.97,274.80 614.30,274.36 614.64,274.01 614.97,273.46 615.31,272.81 615.64,272.15 615.98,271.63 616.31,271.23 616.65,270.86 616.98,270.35 617.32,269.75 617.65,269.24 617.99,268.72 618.32,268.12 618.66,267.61 618.99,267.11 619.33,266.58 619.66,265.98 620.00,265.24 620.33,264.50 620.67,264.05 621.00,263.59 621.34,263.00 621.67,262.70 622.01,262.26 622.34,261.67 622.68,261.22 623.01,260.78 623.35,260.19 623.68,259.67 624.02,259.00 624.35,258.54 624.69,258.00 625.02,257.41 625.36,256.86 625.69,256.47 626.03,255.88 626.36,255.36 626.70,254.84 627.03,254.25 627.37,253.66 627.70,253.01 628.04,252.40 628.37,251.73 628.71,251.21 629.04,250.55 629.38,249.95 629.71,249.64 630.05,249.19 630.38,248.88 630.72,248.25 631.05,247.81 631.39,247.14 631.72,246.70 632.06,246.18 632.39,245.73 632.73,245.17 633.06,244.61 633.40,244.03 633.73,243.66 634.07,243.14 634.40,242.70 634.74,242.11 635.07,241.64 635.41,241.20 635.74,240.77 636.08,240.03 636.41,239.59 636.75,239.05 637.08,238.52 637.42,238.08 637.75,237.56 638.09,236.97 638.42,236.45 638.76,236.23 639.09,235.56 639.43,234.92 639.76,234.56 640.10,234.06 640.43,233.91 640.77,233.55 641.10,232.84 641.44,232.38 641.77,231.79 642.11,231.35 642.44,230.61 642.78,230.06 643.11,229.58 643.45,228.99 643.78,228.39 644.12,227.65 644.45,227.06 644.79,226.32 645.12,225.88 645.46,225.28 645.79,224.62 646.13,224.03 646.46,223.37 646.80,222.70 647.13,222.33 647.47,221.74 647.80,221.07 648.14,220.55 648.47,219.81 648.81,219.59 649.14,218.92 649.48,218.39 649.81,217.80 650.15,217.18 650.48,216.59 650.82,216.22 651.15,215.84 651.49,215.25 651.82,214.81 652.16,214.14 652.49,213.64 652.83,213.04 653.16,212.53 653.50,212.01 653.83,211.47 654.17,211.10 654.50,210.43 654.84,209.91 655.17,209.47 655.51,208.88 655.84,208.43 656.18,207.91 656.51,207.47 656.85,206.95 657.18,206.58 657.52,206.06 657.85,205.43 658.19,204.77 658.52,204.25 658.86,203.83 659.19,203.31 659.53,202.87 659.86,202.20 660.20,201.68 660.53,201.09 660.87,200.57 661.20,199.98 661.54,199.45 661.87,198.86 662.21,198.12 662.54,197.68 662.88,197.09 663.21,196.74 663.55,196.24 663.88,195.79 664.22,195.20 664.55,194.90 664.89,194.38 665.22,193.98 665.56,193.47 665.89,192.87 666.23,192.58 666.56,192.43 666.90,192.36 667.23,192.43 667.57,192.22 667.90,192.14 668.24,192.44 668.57,192.46 668.91,191.99 669.24,191.54 669.58,191.10 669.91,190.80 670.25,190.13 670.58,189.69 670.92,189.10 671.25,188.73 671.59,188.19 671.92,187.60 672.26,187.08 672.59,186.57 672.93,186.12 673.26,185.53 673.60,185.68 673.93,185.55 674.27,185.71 674.60,185.19 674.94,184.67 675.27,184.01 675.61,183.76 675.94,183.32 676.28,182.65 676.61,182.20 676.95,181.76 677.28,181.10 677.62,180.58 677.95,180.06 678.29,179.59 678.62,179.09 678.96,178.50 679.29,178.13 679.63,177.56 679.96,177.21 680.30,176.83 680.63,176.68 680.97,176.48 681.30,176.63 681.64,176.22 681.97,176.15 682.31,175.90 682.64,175.68 682.98,175.50 683.31,175.56 683.65,175.49 683.98,175.09 684.32,174.57 684.65,173.99 684.99,173.25 685.32,172.83 685.66,172.45 685.99,171.79 686.33,171.91 686.66,172.13 687.00,172.16 687.33,171.73 687.67,171.36 688.00,171.29 688.34,170.70 688.67,170.14 689.01,169.62 689.34,169.17 689.68,169.00 690.01,168.44 690.35,168.08 690.68,168.08 691.02,168.01 691.35,167.45 691.69,166.86 692.02,166.13 692.36,165.61 692.69,164.94 693.03,164.22 693.36,163.63 693.70,163.48 694.03,163.40 694.37,162.84 694.70,162.62 695.04,162.62 695.37,162.81 695.71,162.66 696.04,162.65 696.38,162.26 696.71,161.67 697.05,161.15 697.38,160.55 697.72,160.11 698.05,159.55 698.39,158.96 698.72,158.52 699.06,158.06 699.39,157.54 699.73,156.95 700.06,156.43 700.40,155.84 700.73,155.25 701.07,154.88 701.40,154.42 701.74,153.75 702.07,153.01 702.41,152.48 702.74,151.97 703.08,151.45 703.41,151.04 703.75,150.82 704.08,150.23 704.42,149.78 704.75,149.41 705.09,148.97 705.42,148.37 705.76,147.78 706.09,147.26 706.43,146.75 706.76,146.38 707.10,145.78 707.43,145.41 707.77,145.04 708.10,144.67 708.44,144.41 708.77,144.04 709.11,143.57 709.44,143.22 709.78,142.63 710.11,142.11 710.45,141.89 710.78,141.38 711.12,140.71 711.45,140.12 711.79,139.53 712.12,139.08 712.46,138.64 712.79,138.18 713.13,137.81 713.46,137.29 713.80,136.85 714.13,136.18 714.47,135.51 714.80,135.44 715.14,135.51 715.47,135.88 715.81,136.33 716.14,136.85 716.48,137.36 716.81,137.96 717.15,138.36 717.48,138.50 717.82,138.73 718.15,138.23 718.49,137.63 718.82,136.98 719.16,136.46 719.49,136.06 719.83,135.76 720.16,135.54 720.50,134.80 720.83,134.27 721.17,133.81 721.50,133.29 721.84,132.63 722.17,132.14 722.51,131.77 722.84,131.40 723.18,130.96 723.51,130.74 723.85,130.22 724.18,129.77 724.52,129.18 724.85,128.86 725.19,128.34 725.52,127.97 725.86,127.30 726.19,127.08 726.53,127.15 726.86,127.46 727.20,128.09 727.53,128.60 727.87,128.63 728.20,128.71 728.54,128.56 728.87,128.43 729.21,128.29 729.54,128.46 729.88,128.27 730.21,127.82 730.55,127.15 730.88,126.56 731.22,126.04 731.55,125.40 731.89,124.95 732.22,124.70 732.56,124.10 732.89,123.47 733.23,122.90 733.56,122.39 733.90,121.79 734.23,121.50 734.57,120.76 734.90,120.68 735.24,120.36 735.57,120.55 735.91,120.33 736.24,119.66 736.58,119.36 736.91,119.09 737.25,118.72 737.58,118.05 737.92,117.57 738.25,117.09 738.59,116.42 738.92,116.03 739.26,115.68 739.59,115.30 739.93,114.90 740.26,114.38 740.60,114.57 740.93,114.68 741.27,114.83 741.60,114.53 741.94,114.68 742.27,114.63 742.61,114.70 742.94,114.55 743.28,114.48 743.61,114.48 743.95,114.62 744.28,114.69 744.62,114.43 744.95,114.65 745.29,114.56 745.62,114.70 745.96,114.85 746.29,114.81 746.63,114.31 746.96,113.80 747.30,113.13 747.63,112.61 747.97,111.94 748.30,111.37 748.64,110.86 748.97,110.19 749.31,109.89 749.64,109.68 749.98,109.53 750.31,109.53 750.65,109.35 750.98,109.28 751.32,108.69 751.65,108.64 751.99,108.61 752.32,108.53 752.66,107.94 752.99,108.16 753.33,107.95 753.66,108.03 754.00,108.32 754.33,108.40 754.67,108.40 755.00,108.69"/>
<line x1="783" y1="58" x2="809" y2="58" stroke="#2563eb" stroke-width="3"/>
<text x="817" y="62" font-family="Arial" font-size="13" fill="#111827">Naive</text>
<polyline fill="none" stroke="#dc2626" stroke-width="2" points="85.00,273.51 85.34,273.66 85.67,273.62 86.01,273.62 86.34,273.84 86.68,273.84 87.01,273.68 87.35,273.43 87.68,273.43 88.02,273.53 88.35,273.57 88.69,273.85 89.02,273.85 89.36,273.70 89.69,273.73 90.03,273.58 90.36,273.57 90.70,273.42 91.03,273.43 91.37,273.56 91.70,273.54 92.04,273.62 92.37,273.69 92.71,273.58 93.04,273.29 93.38,272.92 93.71,272.85 94.05,272.43 94.38,272.06 94.72,271.54 95.05,270.87 95.39,270.29 95.72,269.93 96.06,269.42 96.39,268.92 96.73,268.25 97.06,267.71 97.40,267.12 97.73,266.43 98.07,265.92 98.40,265.40 98.74,264.66 99.07,264.14 99.41,263.77 99.74,263.25 100.08,262.73 100.41,262.22 100.75,261.76 101.08,261.17 101.42,260.71 101.75,260.20 102.09,259.58 102.42,258.95 102.76,258.58 103.09,258.06 103.43,257.69 103.76,257.62 104.10,257.17 104.43,256.73 104.77,256.29 105.10,256.65 105.44,256.43 105.77,256.52 106.11,256.27 106.44,256.42 106.78,256.49 107.11,256.27 107.45,256.11 107.78,255.97 108.12,255.86 108.45,255.45 108.79,254.86 109.12,254.34 109.46,254.12 109.79,253.97 110.13,253.86 110.46,253.93 110.80,254.19 111.13,254.12 111.47,254.15 111.80,254.06 112.14,254.14 112.47,254.43 112.81,254.20 113.14,254.35 113.48,254.52 113.81,254.59 114.15,254.63 114.48,254.47 114.82,254.38 115.15,254.68 115.49,255.20 115.82,255.34 116.16,255.42 116.49,255.42 116.83,255.49 117.16,255.79 117.50,255.86 117.83,256.15 118.17,256.06 118.50,256.01 118.84,256.14 119.17,256.68 119.51,256.63 119.84,256.57 120.18,256.14 120.51,255.94 120.85,255.80 121.18,255.94 121.52,256.02 121.85,256.39 122.19,256.54 122.52,257.04 122.86,257.46 123.19,257.98 123.53,258.72 123.86,259.28 124.20,259.87 124.53,260.46 124.87,260.88 125.20,261.62 125.54,262.13 125.87,262.50 126.21,263.06 126.54,263.36 126.88,263.58 127.21,264.07 127.55,264.59 127.88,265.18 128.22,265.63 128.55,266.00 128.89,266.23 129.22,266.28 129.56,266.13 129.89,266.06 130.23,266.18 130.56,266.53 130.90,266.78 131.23,266.74 131.57,266.81 131.90,266.95 132.24,267.07 132.57,267.07 132.91,266.92 133.24,267.01 133.58,267.16 133.91,267.46 134.25,267.59 134.58,267.52 134.92,267.74 135.25,267.77 135.59,267.90 135.92,267.72 136.26,268.22 136.59,268.59 136.93,269.04 137.26,269.57 137.60,270.23 137.93,270.76 138.27,271.13 138.60,271.66 138.94,271.86 139.27,271.71 139.61,271.86 139.94,271.91 140.28,271.86 140.61,271.97 140.95,271.90 141.28,271.68 141.62,271.75 141.95,271.58 142.29,271.87 142.62,272.37 142.96,272.37 143.29,272.60 143.63,272.82 143.96,272.82 144.30,272.63 144.63,272.49 144.97,272.49 145.30,272.71 145.64,272.63 145.97,272.71 146.31,272.42 146.64,272.57 146.98,272.79 147.31,272.79 147.65,272.63 147.98,272.85 148.32,272.77 148.65,272.33 148.99,272.13 149.32,272.04 149.66,272.12 149.99,272.26 150.33,272.40 150.66,272.40 151.00,272.40 151.33,272.17 151.67,272.03 152.00,272.23 152.34,272.30 152.67,272.15 153.01,272.20 153.34,272.29 153.68,272.25 154.01,272.10 154.35,272.32 154.68,272.62 155.02,272.53 155.35,272.75 155.69,272.60 156.02,272.68 156.36,273.16 156.69,273.05 157.03,273.24 157.36,272.57 157.70,272.13 158.03,271.61 158.37,271.24 158.70,270.66 159.04,270.23 159.37,269.70 159.71,269.26 160.04,268.89 160.38,268.81 160.71,268.52 161.05,268.59 161.38,268.81 161.72,269.11 162.05,269.49 162.39,269.87 162.72,270.17 163.06,270.80 163.39,271.21 163.73,271.66 164.06,272.25 164.40,272.84 164.73,273.29 165.07,273.69 165.40,274.29 165.74,274.88 166.07,275.40 166.41,276.06 166.74,276.43 167.08,276.80 167.41,277.42 167.75,277.87 168.08,278.46 168.42,279.05 168.75,279.72 169.09,280.31 169.42,280.96 169.76,281.48 170.09,282.00 170.43,282.59 170.76,283.26 171.10,283.56 171.43,284.07 171.77,284.78 172.10,285.22 172.44,285.78 172.77,286.37 173.11,286.81 173.44,287.26 173.78,287.67 174.11,288.19 174.45,288.78 174.78,289.38 175.12,289.86 175.45,290.37 175.79,290.97 176.12,291.49 176.46,292.08 176.79,292.71 177.13,293.31 177.46,293.73 177.80,294.17 178.13,294.84 178.47,295.43 178.80,295.95 179.14,296.47 179.47,296.99 179.81,297.40 180.14,297.92 180.48,298.69 180.81,298.91 181.15,299.50 181.48,299.95 181.82,300.61 182.15,301.02 182.49,301.54 182.82,302.21 183.16,302.80 183.49,303.17 183.83,303.79 184.16,304.17 184.50,304.73 184.83,305.47 185.17,306.06 185.50,306.73 185.84,307.31 186.17,307.90 186.51,308.57 186.84,309.09 187.18,309.72 187.51,310.46 187.85,310.76 188.18,310.96 188.52,311.48 188.85,312.05 189.19,312.50 189.52,313.02 189.86,313.35 190.19,313.94 190.53,314.55 190.86,315.29 191.20,315.81 191.53,316.40 191.87,316.85 192.20,317.59 192.54,317.44 192.87,317.13 193.21,316.94 193.54,316.87 193.88,316.87 194.21,316.50 194.55,315.98 194.88,315.83 195.22,315.82 195.55,315.68 195.89,315.82 196.22,315.96 196.56,315.90 196.89,315.82 197.23,315.93 197.56,316.22 197.90,316.74 198.23,317.19 198.57,317.85 198.90,318.33 199.24,318.93 199.57,319.30 199.91,319.66 200.24,319.56 200.58,319.93 200.91,319.87 201.25,319.87 201.58,319.91 201.92,319.61 202.25,319.40 202.59,319.84 202.92,320.21 203.26,320.73 203.59,321.25 203.93,321.88 204.26,322.40 204.60,322.78 204.93,323.15 205.27,323.61 205.60,323.31 205.94,323.67 206.27,323.72 206.61,323.43 206.94,322.90 207.28,322.75 207.61,322.57 207.95,322.64 208.28,323.24 208.62,323.75 208.95,324.27 209.29,324.42 209.62,324.94 209.96,325.38 210.29,325.75 210.63,326.21 210.96,326.64 211.30,327.01 211.63,327.60 211.97,328.05 212.30,328.43 212.64,328.80 212.97,329.37 213.31,329.89 213.64,330.48 213.98,331.00 214.31,331.50 214.65,332.02 214.98,332.26 215.32,332.51 215.65,332.21 215.99,332.82 216.32,333.19 216.66,333.64 216.99,334.08 217.33,334.63 217.66,335.22 218.00,335.82 218.33,336.35 218.67,336.88 219.00,337.54 219.34,337.91 219.67,338.43 220.01,338.96 220.34,339.33 220.68,339.67 221.01,340.12 221.35,340.71 221.68,341.23 222.02,341.67 222.35,342.34 222.69,342.93 223.02,343.52 223.36,343.93 223.69,344.45 224.03,344.97 224.36,345.56 224.70,346.14 225.03,346.66 225.37,347.03 225.70,347.74 226.04,348.14 226.37,348.67 226.71,349.11 227.04,349.63 227.38,350.12 227.71,350.71 228.05,351.30 228.38,351.73 228.72,352.25 229.05,352.54 229.39,352.65 229.72,353.17 230.06,353.76 230.39,354.10 230.73,354.61 231.06,355.13 231.40,355.65 231.73,356.24 232.07,356.69 232.40,357.08 232.74,357.60 233.07,358.28 233.41,358.90 233.74,359.49 234.08,360.01 234.41,360.60 234.75,361.20 235.08,361.79 235.42,362.46 235.75,363.05 236.09,363.57 236.42,364.00 236.76,364.30 237.09,364.42 237.43,364.34 237.76,364.42 238.10,364.20 238.43,364.58 238.77,364.97 239.10,365.49 239.44,366.02 239.77,366.46 240.11,366.98 240.44,367.42 240.78,367.50 241.11,367.13 241.45,366.99 241.78,367.14 242.12,367.21 242.45,367.06 242.79,366.77 243.12,366.32 243.46,366.17 243.79,365.97 244.13,366.42 244.46,367.09 244.80,367.61 245.13,368.13 245.47,368.72 245.80,369.24 246.14,369.78 246.47,370.30 246.81,370.77 247.14,371.44 247.48,371.62 247.81,371.76 248.15,371.39 248.48,370.93 248.82,371.22 249.15,371.59 249.49,371.81 249.82,371.81 250.16,371.73 250.49,371.81 250.83,372.10 251.16,372.10 251.50,372.53 251.83,373.19 252.17,373.24 252.50,372.82 252.84,372.74 253.17,372.81 253.51,373.04 253.84,373.43 254.18,373.64 254.51,374.05 254.85,374.57 255.18,375.11 255.52,375.85 255.85,376.15 256.19,376.74 256.52,377.26 256.86,377.78 257.19,378.32 257.53,378.92 257.86,379.36 258.20,379.79 258.53,380.16 258.87,380.83 259.20,381.34 259.54,381.49 259.87,382.01 260.21,382.08 260.54,382.15 260.88,382.22 261.21,381.74 261.55,381.26 261.88,380.74 262.22,380.22 262.55,379.63 262.89,379.20 263.22,378.61 263.56,378.43 263.89,378.36 264.23,378.49 264.56,378.19 264.90,378.11 265.23,378.05 265.57,377.71 265.90,377.19 266.24,376.98 266.57,376.90 266.91,376.78 267.24,376.65 267.58,376.72 267.91,376.76 268.25,376.71 268.58,376.49 268.92,376.06 269.25,375.98 269.59,375.85 269.92,375.87 270.26,376.31 270.59,376.85 270.93,377.44 271.26,378.18 271.60,378.02 271.93,377.76 272.27,377.75 272.60,378.29 272.94,378.96 273.27,379.17 273.61,378.75 273.94,379.35 274.28,380.09 274.61,380.32 274.95,380.45 275.28,381.04 275.62,381.47 275.95,382.14 276.29,382.58 276.62,383.03 276.96,383.34 277.29,383.79 277.63,384.31 277.96,384.77 278.30,385.28 278.63,385.51 278.97,386.02 279.30,385.96 279.64,385.71 279.97,385.41 280.31,384.82 280.64,384.22 280.98,383.92 281.31,384.07 281.65,383.58 281.98,383.65 282.32,383.51 282.65,383.36 282.99,382.99 283.32,383.07 283.66,383.43 283.99,383.65 284.33,383.94 284.66,384.43 285.00,384.78 285.33,385.22 285.67,385.59 286.00,385.88 286.34,386.25 286.67,386.55 287.01,387.29 287.34,387.81 287.68,388.40 288.01,388.40 288.35,387.95 288.68,387.55 289.02,387.08 289.35,386.53 289.69,386.04 290.02,385.53 290.36,385.68 290.69,385.48 291.03,385.25 291.36,384.88 291.70,385.11 292.03,384.91 292.37,384.32 292.70,383.62 293.04,383.17 293.37,383.05 293.71,382.90 294.04,382.91 294.38,382.54 294.71,382.54 295.05,382.20 295.38,382.01 295.72,381.86 296.05,381.83 296.39,381.37 296.72,380.82 297.06,380.39 297.39,379.80 297.73,379.28 298.06,378.82 298.40,378.17 298.73,377.86 299.07,377.27 299.40,376.90 299.74,376.53 300.07,376.16 300.41,375.61 300.74,375.16 301.08,374.58 301.41,374.06 301.75,373.39 302.08,372.85 302.42,372.28 302.75,371.55 303.09,370.96 303.42,370.36 303.76,369.92 304.09,369.39 304.43,368.99 304.76,368.39 305.10,367.79 305.43,367.20 305.77,366.77 306.10,366.25 306.44,365.86 306.77,365.49 307.11,364.83 307.44,364.37 307.78,363.92 308.11,363.40 308.45,362.82 308.78,362.34 309.12,362.23 309.45,361.56 309.79,361.01 310.12,360.42 310.46,359.90 310.79,359.52 311.13,359.00 311.46,358.26 311.80,357.67 312.13,357.23 312.47,356.56 312.80,356.04 313.14,355.54 313.47,355.13 313.81,354.39 314.14,353.64 314.48,353.23 314.81,352.71 315.15,352.12 315.48,351.50 315.82,350.98 316.15,350.39 316.49,349.79 316.82,349.13 317.16,348.65 317.49,347.99 317.83,347.19 318.16,346.60 318.50,345.93 318.83,345.34 319.17,344.95 319.50,344.37 319.84,343.77 320.17,343.17 320.51,342.50 320.84,341.78 321.18,341.41 321.51,340.95 321.85,340.44 322.18,339.84 322.52,339.44 322.85,338.84 323.19,338.25 323.52,337.75 323.86,337.09 324.19,336.58 324.53,335.97 324.86,335.38 325.20,334.79 325.53,334.25 325.87,333.81 326.20,333.17 326.54,332.51 326.87,332.14 327.21,331.69 327.54,331.25 327.88,330.65 328.21,330.06 328.55,329.62 328.88,329.11 329.22,328.60 329.55,328.16 329.89,327.57 330.22,327.10 330.56,326.80 330.89,326.36 331.23,325.87 331.56,325.50 331.90,324.98 332.23,324.39 332.57,323.92 332.90,323.25 333.24,322.51 333.57,322.06 333.91,321.61 334.24,321.10 334.58,320.59 334.91,320.00 335.25,319.48 335.58,318.86 335.92,318.56 336.25,318.04 336.59,317.53 336.92,317.16 337.26,316.79 337.59,316.28 337.93,315.61 338.26,315.09 338.60,314.42 338.93,313.83 339.27,313.25 339.60,312.73 339.94,312.28 340.27,311.62 340.61,311.03 340.94,310.51 341.28,309.91 341.61,309.47 341.95,309.17 342.28,308.88 342.62,308.36 342.95,308.44 343.29,308.94 343.62,309.55 343.96,310.03 344.29,310.03 344.63,310.03 344.96,309.51 345.30,309.58 345.63,309.66 345.97,309.66 346.30,309.48 346.64,309.44 346.97,309.37 347.31,309.40 347.64,309.40 347.98,309.37 348.31,309.08 348.65,308.62 348.98,308.32 349.32,308.32 349.65,308.40 349.99,308.32 350.32,308.46 350.66,308.34 350.99,308.26 351.33,308.12 351.66,307.98 352.00,307.91 352.33,307.91 352.67,307.76 353.00,307.54 353.34,307.36 353.67,307.03 354.01,306.58 354.34,305.99 354.68,305.28 355.01,305.12 355.35,304.60 355.68,304.38 356.02,303.93 356.35,303.41 356.69,302.90 357.02,302.20 357.36,301.53 357.69,300.87 358.03,300.35 358.36,299.61 358.70,299.02 359.03,298.72 359.37,298.28 359.70,297.83 360.04,297.31 360.37,296.65 360.71,296.51 361.04,296.54 361.38,296.54 361.71,296.61 362.05,296.61 362.38,296.51 362.72,296.44 363.05,296.54 363.39,296.59 363.72,296.59 364.06,296.48 364.39,296.56 364.73,296.48 365.06,296.58 365.40,296.28 365.73,295.82 366.07,295.35 366.40,295.13 366.74,294.54 367.07,294.17 367.41,293.87 367.74,293.43 368.08,292.80 368.41,292.14 368.75,291.60 369.08,291.31 369.42,291.09 369.75,291.09 370.09,290.43 370.42,290.10 370.76,290.03 371.09,289.73 371.43,289.66 371.76,289.14 372.10,288.82 372.43,288.25 372.77,287.73 373.10,287.14 373.44,286.69 373.77,286.03 374.11,285.58 374.44,285.21 374.78,284.55 375.11,284.03 375.45,283.51 375.78,282.79 376.12,282.27 376.45,281.87 376.79,281.36 377.12,280.76 377.46,280.17 377.79,279.60 378.13,279.31 378.46,278.87 378.80,278.43 379.13,277.81 379.47,277.44 379.80,276.97 380.14,276.31 380.47,275.71 380.81,275.12 381.14,274.68 381.48,274.21 381.81,273.88 382.15,273.29 382.48,273.07 382.82,272.33 383.15,271.78 383.49,271.23 383.82,270.63 384.16,270.03 384.49,269.58 384.83,269.21 385.16,268.84 385.50,268.25 385.83,268.22 386.17,268.19 386.50,268.09 386.84,267.95 387.17,267.36 387.51,266.70 387.84,266.15 388.18,265.78 388.51,265.90 388.85,265.82 389.18,266.06 389.52,266.21 389.85,265.98 390.19,265.84 390.52,265.39 390.86,265.02 391.19,265.10 391.53,265.28 391.86,265.13 392.20,264.98 392.53,264.68 392.87,264.02 393.20,263.94 393.54,263.94 393.87,264.46 394.21,264.67 394.54,264.62 394.88,264.68 395.21,264.85 395.55,264.80 395.88,264.65 396.22,264.61 396.55,264.73 396.89,264.60 397.22,264.60 397.56,265.10 397.89,265.02 398.23,264.95 398.56,264.95 398.90,264.89 399.23,264.92 399.57,265.04 399.90,264.96 400.24,264.97 400.57,264.90 400.91,265.27 401.24,264.90 401.58,264.30 401.91,263.93 402.25,263.42 402.58,262.97 402.92,262.30 403.25,262.01 403.59,261.53 403.92,261.05 404.26,260.60 404.59,260.16 404.93,259.57 405.26,258.90 405.60,258.38 405.93,257.71 406.27,257.12 406.60,256.53 406.94,256.01 407.27,255.52 407.61,254.93 407.94,254.49 408.28,253.89 408.61,253.28 408.95,252.65 409.28,252.35 409.62,251.84 409.95,251.24 410.29,250.58 410.62,250.06 410.96,249.54 411.29,248.87 411.63,248.27 411.96,247.81 412.30,247.37 412.63,246.78 412.97,246.19 413.30,245.59 413.64,245.05 413.97,244.62 414.31,244.10 414.64,243.51 414.98,242.99 415.31,242.39 415.65,241.95 415.98,241.65 416.32,241.20 416.65,240.61 416.99,240.09 417.32,239.63 417.66,239.11 417.99,238.74 418.33,238.08 418.66,237.56 419.00,237.26 419.33,236.60 419.67,236.15 420.00,235.56 420.34,234.97 420.67,234.52 421.01,234.11 421.34,233.52 421.68,232.85 422.01,232.26 422.35,231.89 422.68,231.28 423.02,230.69 423.35,230.10 423.69,229.58 424.02,229.04 424.36,228.59 424.69,228.00 425.03,227.42 425.36,226.98 425.70,226.46 426.03,225.94 426.37,225.42 426.70,224.91 427.04,224.42 427.37,223.85 427.71,223.41 428.04,222.94 428.38,222.42 428.71,222.12 429.05,221.66 429.38,221.00 429.72,220.55 430.05,219.81 430.39,219.29 430.72,218.70 431.06,218.33 431.39,217.89 431.73,217.53 432.06,217.07 432.40,216.48 432.73,215.89 433.07,215.33 433.40,214.74 433.74,214.28 434.07,213.84 434.41,213.40 434.74,212.88 435.08,212.21 435.41,211.71 435.75,211.19 436.08,210.82 436.42,210.38 436.75,209.71 437.09,208.97 437.42,208.38 437.76,207.78 438.09,207.28 438.43,206.71 438.76,206.05 439.10,205.75 439.43,205.23 439.77,204.79 440.10,204.42 440.44,203.75 440.77,203.37 441.11,202.78 441.44,202.26 441.78,201.74 442.11,201.23 442.45,200.56 442.78,200.19 443.12,199.75 443.45,199.08 443.79,198.56 444.12,198.04 444.46,197.46 444.79,196.87 445.13,196.57 445.46,196.15 445.80,195.71 446.13,195.05 446.47,194.38 446.80,193.94 447.14,193.57 447.47,192.99 447.81,192.62 448.14,192.03 448.48,191.46 448.81,190.87 449.15,190.57 449.48,190.71 449.82,190.76 450.15,190.63 450.49,190.78 450.82,190.67 451.16,190.75 451.49,190.96 451.83,190.59 452.16,190.91 452.50,190.62 452.83,190.68 453.17,190.53 453.50,190.30 453.84,190.30 454.17,190.74 454.51,190.74 454.84,191.08 455.18,191.23 455.51,191.30 455.85,191.08 456.18,191.59 456.52,191.99 456.85,192.65 457.19,193.24 457.52,193.64 457.86,194.24 458.19,194.68 458.53,194.90 458.86,195.20 459.20,195.27 459.53,195.35 459.87,195.41 460.20,195.36 460.54,195.36 460.87,195.40 461.21,195.21 461.54,195.24 461.88,195.33 462.21,195.38 462.55,195.46 462.88,195.53 463.22,195.53 463.55,195.83 463.89,195.75 464.22,195.39 464.56,195.47 464.89,195.30 465.23,195.26 465.56,195.09 465.90,195.16 466.23,195.01 466.57,195.24 466.90,195.24 467.24,195.32 467.57,195.64 467.91,195.78 468.24,195.70 468.58,195.70 468.91,195.63 469.25,195.48 469.58,195.63 469.92,195.76 470.25,195.82 470.59,196.04 470.92,196.12 471.26,196.04 471.59,195.97 471.93,195.45 472.26,195.30 472.60,195.08 472.93,195.15 473.27,195.08 473.60,195.15 473.94,195.22 474.27,195.10 474.61,195.28 474.94,195.65 475.28,196.24 475.61,196.75 475.95,197.34 476.28,197.86 476.62,197.85 476.95,197.78 477.29,198.02 477.62,198.65 477.96,199.17 478.29,199.76 478.63,200.28 478.96,200.80 479.30,201.46 479.63,202.01 479.97,202.38 480.30,202.90 480.64,203.49 480.97,204.08 481.31,204.82 481.64,205.49 481.98,205.88 482.31,206.62 482.65,206.97 482.98,207.56 483.32,208.16 483.65,208.68 483.99,209.12 484.32,209.82 484.66,210.27 484.99,210.53 485.33,211.19 485.66,211.62 486.00,212.21 486.33,212.73 486.67,213.27 487.00,213.79 487.34,214.38 487.67,214.98 488.01,215.64 488.34,216.31 488.68,216.92 489.01,217.56 489.35,218.07 489.68,218.66 490.02,219.26 490.35,219.68 490.69,220.20 491.02,220.79 491.36,221.28 491.69,221.78 492.03,222.37 492.36,222.73 492.70,223.36 493.03,224.02 493.37,224.53 493.70,225.12 494.04,225.71 494.37,226.23 494.71,226.76 495.04,227.27 495.38,227.87 495.71,228.39 496.05,229.05 496.38,229.42 496.72,229.95 497.05,230.17 497.39,230.69 497.72,231.28 498.06,231.87 498.39,232.32 498.73,233.06 499.06,233.64 499.40,234.17 499.73,234.76 500.07,235.30 500.40,235.80 500.74,236.15 501.07,236.75 501.41,237.12 501.74,237.47 502.08,238.06 502.41,238.80 502.75,239.40 503.08,240.06 503.42,240.56 503.75,241.15 504.09,241.67 504.42,242.26 504.76,242.85 505.09,243.45 505.43,244.04 505.76,244.68 506.10,245.12 506.43,245.43 506.77,246.07 507.10,246.59 507.44,247.11 507.77,247.48 508.11,247.60 508.44,247.84 508.78,248.29 509.11,248.81 509.45,249.25 509.78,249.70 510.12,250.29 510.45,250.66 510.79,250.88 511.12,250.99 511.46,250.91 511.79,251.15 512.13,250.92 512.46,251.15 512.80,251.46 513.13,251.61 513.47,251.48 513.80,251.57 514.14,251.55 514.47,251.48 514.81,251.55 515.14,251.78 515.48,251.61 515.81,251.54 516.15,251.24 516.48,251.02 516.82,251.02 517.15,251.09 517.49,250.80 517.82,250.95 518.16,251.24 518.49,251.17 518.83,251.20 519.16,251.05 519.50,251.42 519.83,252.01 520.17,252.57 520.50,253.01 520.84,253.52 521.17,254.03 521.51,254.29 521.84,254.43 522.18,254.53 522.51,254.68 522.85,254.55 523.18,254.43 523.52,254.28 523.85,254.30 524.19,254.30 524.52,254.23 524.86,254.40 525.19,254.29 525.53,254.60 525.86,254.52 526.20,254.63 526.53,254.66 526.87,254.51 527.20,254.73 527.54,254.39 527.87,253.86 528.21,253.63 528.54,253.49 528.88,253.54 529.21,253.72 529.55,253.64 529.88,253.76 530.22,253.83 530.55,254.13 530.89,253.83 531.22,253.83 531.56,253.97 531.89,253.91 532.23,253.24 532.56,252.72 532.90,252.76 533.23,252.66 533.57,252.75 533.90,252.46 534.24,252.46 534.57,253.00 534.91,253.45 535.24,253.92 535.58,254.58 535.91,255.09 536.25,255.69 536.58,256.06 536.92,256.43 537.25,256.50 537.59,256.65 537.92,256.57 538.26,256.50 538.59,256.28 538.93,256.14 539.26,256.29 539.60,256.20 539.93,256.43 540.27,256.35 540.60,256.65 540.94,256.35 541.27,256.53 541.61,256.37 541.94,256.29 542.28,256.48 542.61,256.29 542.95,256.07 543.28,255.89 543.62,256.02 543.95,256.39 544.29,256.65 544.62,256.87 544.96,257.16 545.29,257.01 545.63,256.79 545.96,256.71 546.30,256.66 546.63,256.85 546.97,256.96 547.30,257.00 547.64,257.08 547.97,256.86 548.31,256.93 548.64,257.04 548.98,256.89 549.31,256.82 549.65,256.74 549.98,256.97 550.32,257.28 550.65,257.43 550.99,257.50 551.32,257.69 551.66,258.21 551.99,258.73 552.33,259.39 552.66,259.77 553.00,260.21 553.33,260.65 553.67,260.95 554.00,261.62 554.34,262.28 554.67,262.80 555.01,263.32 555.34,263.91 555.68,264.21 556.01,264.58 556.35,265.10 556.68,265.39 557.02,265.87 557.35,266.43 557.69,267.02 558.02,267.60 558.36,268.21 558.69,268.58 559.03,269.10 559.36,269.55 559.70,269.84 560.03,270.36 560.37,270.89 560.70,271.33 561.04,271.85 561.37,272.44 561.71,272.89 562.04,273.55 562.38,274.07 562.71,274.66 563.05,275.18 563.38,275.73 563.72,276.32 564.05,276.91 564.39,277.51 564.72,278.17 565.06,278.62 565.39,279.06 565.73,279.73 566.06,280.25 566.40,280.69 566.73,281.43 567.07,282.02 567.40,282.35 567.74,282.94 568.07,283.24 568.41,283.78 568.74,283.95 569.08,284.47 569.41,285.06 569.75,285.72 570.08,286.37 570.42,286.44 570.75,286.67 571.09,286.49 571.42,286.78 571.76,286.50 572.09,286.04 572.43,285.78 572.76,285.80 573.10,286.02 573.43,286.02 573.77,286.03 574.10,286.18 574.44,285.95 574.77,285.76 575.11,285.70 575.44,285.33 575.78,285.11 576.11,285.21 576.45,285.16 576.78,285.21 577.12,285.06 577.45,285.01 577.79,285.16 578.12,284.83 578.46,284.38 578.79,283.78 579.13,283.40 579.46,282.81 579.80,282.14 580.13,281.70 580.47,281.05 580.80,280.49 581.14,280.12 581.47,279.60 581.81,279.08 582.14,278.51 582.48,277.91 582.81,277.39 583.15,276.96 583.48,276.59 583.82,275.92 584.15,275.40 584.49,274.86 584.82,274.34 585.16,273.82 585.49,273.45 585.83,272.86 586.16,272.33 586.50,271.60 586.83,271.15 587.17,271.00 587.50,270.26 587.84,269.67 588.17,269.15 588.51,268.41 588.84,267.82 589.18,267.44 589.51,267.02 589.85,266.38 590.18,265.87 590.52,265.27 590.85,264.83 591.19,264.24 591.52,263.72 591.86,263.20 592.19,262.68 592.53,261.97 592.86,261.23 593.20,260.79 593.53,260.12 593.87,259.60 594.20,258.94 594.54,258.42 594.87,257.80 595.21,257.21 595.54,256.62 595.88,256.15 596.21,255.63 596.55,254.97 596.88,254.52 597.22,254.57 597.55,254.57 597.89,254.65 598.22,254.28 598.56,253.72 598.89,253.32 599.23,252.73 599.56,252.23 599.90,251.57 600.23,251.05 600.57,250.72 600.90,250.12 601.24,249.53 601.57,249.04 601.91,248.75 602.24,248.32 602.58,247.80 602.91,247.21 603.25,246.62 603.58,246.02 603.92,245.43 604.25,244.91 604.59,244.32 604.92,243.80 605.26,243.33 605.59,242.83 605.93,242.16 606.26,241.65 606.60,240.98 606.93,240.61 607.27,239.94 607.60,239.50 607.94,238.91 608.27,238.47 608.61,237.92 608.94,237.44 609.28,236.92 609.61,236.48 609.95,235.68 610.28,235.01 610.62,234.57 610.95,234.20 611.29,233.61 611.62,233.24 611.96,232.57 612.29,231.90 612.63,231.24 612.96,230.64 613.30,230.13 613.63,229.53 613.97,228.79 614.30,228.35 614.64,228.00 614.97,227.45 615.31,226.80 615.64,226.13 615.98,225.62 616.31,225.22 616.65,224.85 616.98,224.34 617.32,223.74 617.65,223.22 617.99,222.71 618.32,222.11 618.66,221.60 618.99,221.10 619.33,220.57 619.66,219.97 620.00,219.23 620.33,218.49 620.67,218.04 621.00,217.58 621.34,216.99 621.67,216.69 622.01,216.25 622.34,215.66 622.68,215.21 623.01,214.77 623.35,214.18 623.68,213.66 624.02,212.99 624.35,212.53 624.69,211.99 625.02,211.40 625.36,210.85 625.69,210.46 626.03,209.87 626.36,209.35 626.70,208.83 627.03,208.24 627.37,207.65 627.70,207.00 628.04,206.39 628.37,205.72 628.71,205.20 629.04,204.54 629.38,203.94 629.71,203.63 630.05,203.18 630.38,202.87 630.72,202.24 631.05,201.80 631.39,201.13 631.72,200.69 632.06,200.17 632.39,199.72 632.73,199.16 633.06,198.60 633.40,198.02 633.73,197.65 634.07,197.13 634.40,196.69 634.74,196.10 635.07,195.63 635.41,195.18 635.74,194.76 636.08,194.01 636.41,193.58 636.75,193.04 637.08,192.51 637.42,192.07 637.75,191.55 638.09,190.96 638.42,190.44 638.76,190.22 639.09,189.55 639.43,188.91 639.76,188.55 640.10,188.05 640.43,187.90 640.77,187.54 641.10,186.82 641.44,186.37 641.77,185.78 642.11,185.34 642.44,184.60 642.78,184.05 643.11,183.57 643.45,182.97 643.78,182.38 644.12,181.64 644.45,181.05 644.79,180.31 645.12,179.86 645.46,179.27 645.79,178.61 646.13,178.02 646.46,177.35 646.80,176.69 647.13,176.32 647.47,175.73 647.80,175.06 648.14,174.54 648.47,173.80 648.81,173.58 649.14,172.91 649.48,172.38 649.81,171.79 650.15,171.17 650.48,170.58 650.82,170.21 651.15,169.83 651.49,169.24 651.82,168.80 652.16,168.20 652.49,167.70 652.83,167.18 653.16,166.66 653.50,166.14 653.83,165.60 654.17,165.23 654.50,164.57 654.84,164.05 655.17,163.60 655.51,163.01 655.84,162.49 656.18,161.98 656.51,161.46 656.85,160.94 657.18,160.44 657.52,159.93 657.85,159.30 658.19,158.63 658.52,158.11 658.86,157.77 659.19,157.25 659.53,156.87 659.86,156.21 660.20,155.68 660.53,155.09 660.87,154.57 661.20,153.98 661.54,153.45 661.87,152.86 662.21,152.13 662.54,151.68 662.88,151.09 663.21,150.74 663.55,150.24 663.88,149.80 664.22,149.20 664.55,148.91 664.89,148.39 665.22,147.99 665.56,147.47 665.89,146.88 666.23,146.66 666.56,146.51 666.90,146.43 667.23,146.51 667.57,146.29 667.90,146.37 668.24,146.66 668.57,146.76 668.91,146.29 669.24,145.84 669.58,145.65 669.91,145.35 670.25,144.76 670.58,144.54 670.92,143.95 671.25,143.95 671.59,143.41 671.92,142.90 672.26,142.38 672.59,141.86 672.93,141.41 673.26,140.97 673.60,141.12 673.93,140.99 674.27,141.27 674.60,140.76 674.94,140.46 675.27,140.17 675.61,139.92 675.94,139.47 676.28,138.81 676.61,138.36 676.95,137.92 677.28,137.26 677.62,136.74 677.95,136.22 678.29,135.75 678.62,135.30 678.96,134.82 679.29,134.45 679.63,133.88 679.96,133.54 680.30,133.20 680.63,133.20 680.97,133.12 681.30,133.34 681.64,133.01 681.97,133.08 682.31,132.91 682.64,132.77 682.98,132.96 683.31,133.08 683.65,133.09 683.98,132.99 684.32,132.54 684.65,131.96 684.99,131.22 685.32,130.80 685.66,130.43 685.99,129.91 686.33,130.26 686.66,130.48 687.00,130.51 687.33,130.30 687.67,130.08 688.00,130.00 688.34,129.49 688.67,128.92 689.01,128.40 689.34,128.03 689.68,128.09 690.01,127.52 690.35,127.32 690.68,127.32 691.02,127.24 691.35,126.75 691.69,126.16 692.02,125.51 692.36,124.99 692.69,124.32 693.03,123.60 693.36,123.01 693.70,123.08 694.03,123.22 694.37,122.74 694.70,122.59 695.04,122.59 695.37,122.78 695.71,122.64 696.04,122.84 696.38,122.53 696.71,121.94 697.05,121.50 697.38,120.96 697.72,120.53 698.05,119.97 698.39,119.45 698.72,119.16 699.06,118.99 699.39,118.47 699.73,117.88 700.06,117.36 700.40,116.77 700.73,116.17 701.07,115.80 701.40,115.34 701.74,114.68 702.07,113.94 702.41,113.41 702.74,112.97 703.08,112.45 703.41,111.99 703.75,111.77 704.08,111.17 704.42,110.73 704.75,110.36 705.09,109.92 705.42,109.32 705.76,108.73 706.09,108.21 706.43,107.55 706.76,107.25 707.10,106.66 707.43,106.29 707.77,105.92 708.10,105.55 708.44,105.29 708.77,104.92 709.11,104.44 709.44,104.10 709.78,103.50 710.11,102.99 710.45,102.76 710.78,102.25 711.12,101.59 711.45,100.99 711.79,100.40 712.12,99.96 712.46,99.51 712.79,99.05 713.13,98.68 713.46,98.17 713.80,97.73 714.13,97.06 714.47,96.40 714.80,96.40 715.14,96.47 715.47,96.99 715.81,97.51 716.14,98.02 716.48,98.54 716.81,99.14 717.15,99.61 717.48,99.76 717.82,99.98 718.15,99.56 718.49,98.96 718.82,98.31 719.16,98.01 719.49,97.76 719.83,97.83 720.16,97.83 720.50,97.09 720.83,96.48 721.17,96.03 721.50,95.51 721.84,94.85 722.17,94.36 722.51,93.99 722.84,93.62 723.18,93.10 723.51,92.88 723.85,92.36 724.18,91.92 724.52,91.32 724.85,91.00 725.19,90.48 725.52,90.11 725.86,89.44 726.19,89.30 726.53,89.44 726.86,89.73 727.20,90.36 727.53,90.88 727.87,90.91 728.20,90.98 728.54,90.84 728.87,90.71 729.21,90.57 729.54,90.73 729.88,90.69 730.21,90.24 730.55,89.58 730.88,88.98 731.22,88.47 731.55,87.97 731.89,87.67 732.22,87.47 732.56,86.86 732.89,86.24 733.23,85.66 733.56,85.15 733.90,84.56 734.23,84.26 734.57,83.74 734.90,83.67 735.24,83.34 735.57,83.53 735.91,83.39 736.24,82.79 736.58,82.50 736.91,82.22 737.25,81.85 737.58,81.19 737.92,80.71 738.25,80.22 738.59,79.56 738.92,79.17 739.26,78.82 739.59,78.43 739.93,78.18 740.26,77.81 740.60,78.00 740.93,78.11 741.27,78.26 741.60,77.96 741.94,78.11 742.27,78.06 742.61,78.13 742.94,77.98 743.28,77.91 743.61,77.91 743.95,78.05 744.28,78.12 744.62,77.86 744.95,78.08 745.29,77.99 745.62,78.13 745.96,78.28 746.29,78.24 746.63,77.83 746.96,77.31 747.30,76.64 747.63,76.12 747.97,75.46 748.30,74.89 748.64,74.37 748.97,73.70 749.31,73.41 749.64,73.26 749.98,73.12 750.31,73.12 750.65,73.01 750.98,72.93 751.32,72.27 751.65,72.22 751.99,72.18 752.32,72.11 752.66,71.52 752.99,71.81 753.33,71.61 753.66,71.68 754.00,71.98 754.33,72.05 754.67,72.05 755.00,72.34"/>
<line x1="783" y1="82" x2="809" y2="82" stroke="#dc2626" stroke-width="3"/>
<text x="817" y="86" font-family="Arial" font-size="13" fill="#111827">Avellaneda Stoikov</text>
<polyline fill="none" stroke="#7c3aed" stroke-width="2" points=""/>
<line x1="783" y1="106" x2="809" y2="106" stroke="#7c3aed" stroke-width="3"/>
<text x="817" y="110" font-family="Arial" font-size="13" fill="#111827">Calibrated Avellaneda Stoikov</text>
<text x="420.0" y="518" text-anchor="middle" font-family="Arial" font-size="14" fill="#111827">Event index</text>
<text x="22" y="256.0" text-anchor="middle" transform="rotate(-90 22 256.0)" font-family="Arial" font-size="14" fill="#111827">Inventory</text>
</svg>
