<svg xmlns="http://www.w3.org/2000/svg" width="900" height="520" viewBox="0 0 900 520">
<rect width="100%" height="100%" fill="#ffffff"/>
<text x="450.0" y="24" text-anchor="middle" font-family="Arial" font-size="18" fill="#111827">Order Processing Latency CDF</text>
<line x1="80" y1="450" x2="870" y2="450" stroke="#111827" stroke-width="1"/>
<line x1="80" y1="35" x2="80" y2="450" stroke="#111827" stroke-width="1"/>
<line x1="80.00" y1="35" x2="80.00" y2="450" stroke="#e5e7eb" stroke-width="1"/>
<text x="80.00" y="474" text-anchor="middle" font-family="Arial" font-size="12" fill="#374151">0.00</text>
<line x1="277.50" y1="35" x2="277.50" y2="450" stroke="#e5e7eb" stroke-width="1"/>
<text x="277.50" y="474" text-anchor="middle" font-family="Arial" font-size="12" fill="#374151">242.20</text>
<line x1="475.00" y1="35" x2="475.00" y2="450" stroke="#e5e7eb" stroke-width="1"/>
<text x="475.00" y="474" text-anchor="middle" font-family="Arial" font-size="12" fill="#374151">484.40</text>
<line x1="672.50" y1="35" x2="672.50" y2="450" stroke="#e5e7eb" stroke-width="1"/>
<text x="672.50" y="474" text-anchor="middle" font-family="Arial" font-size="12" fill="#374151">726.59</text>
<line x1="870.00" y1="35" x2="870.00" y2="450" stroke="#e5e7eb" stroke-width="1"/>
<text x="870.00" y="474" text-anchor="middle" font-family="Arial" font-size="12" fill="#374151">968.79</text>
<line x1="80" y1="450.00" x2="870" y2="450.00" stroke="#e5e7eb" stroke-width="1"/>
<text x="68" y="454.00" text-anchor="end" font-family="Arial" font-size="12" fill="#374151">0.00</text>
<line x1="80" y1="346.25" x2="870" y2="346.25" stroke="#e5e7eb" stroke-width="1"/>
<text x="68" y="350.25" text-anchor="end" font-family="Arial" font-size="12" fill="#374151">0.25</text>
<line x1="80" y1="242.50" x2="870" y2="242.50" stroke="#e5e7eb" stroke-width="1"/>
<text x="68" y="246.50" text-anchor="end" font-family="Arial" font-size="12" fill="#374151">0.50</text>
<line x1="80" y1="138.75" x2="870" y2="138.75" stroke="#e5e7eb" stroke-width="1"/>
<text x="68" y="142.75" text-anchor="end" font-family="Arial" font-size="12" fill="#374151">0.75</text>
<line x1="80" y1="35.00" x2="870" y2="35.00" stroke="#e5e7eb" stroke-width="1"/>
<text x="68" y="39.00" text-anchor="end" font-family="Arial" font-size="12" fill="#374151">1.00</text>
<polyline fill="none" stroke="#2563eb" stroke-width="2" points="80.00,450.00 80.00,449.58 80.00,449.17 80.00,448.75 80.00,448.34 80.00,447.92 80.00,447.51 80.03,447.09 80.03,446.68 80.03,446.26 80.03,445.85 80.03,445.43 80.03,445.02 80.03,444.60 80.03,444.18 80.03,443.77 80.03,443.35 80.03,442.94 80.03,442.52 80.03,442.11 80.03,441.69 80.03,441.28 80.03,440.86 80.03,440.45 80.03,440.03 80.03,439.61 80.03,439.20 80.03,438.78 80.03,438.37 80.03,437.95 80.03,437.54 80.03,437.12 80.03,436.71 80.03,436.29 80.03,435.88 80.03,435.46 80.03,435.05 80.03,434.63 80.03,434.21 80.03,433.80 80.03,433.38 80.03,432.97 80.03,432.55 80.03,432.14 80.03,431.72 80.03,431.31 80.03,430.89 80.03,430.48 80.03,430.06 80.03,429.64 80.03,429.23 80.03,428.81 80.03,428.40 80.03,427.98 80.03,427.57 80.03,427.15 80.03,426.74 80.03,426.32 80.03,425.91 80.03,425.49 80.03,425.08 80.03,424.66 80.03,424.24 80.03,423.83 80.03,423.41 80.03,423.00 80.03,422.58 80.03,422.17 80.03,421.75 80.03,421.34 80.03,420.92 80.03,420.51 80.03,420.09 80.03,419.67 80.03,419.26 80.03,418.84 80.03,418.43 80.03,418.01 80.03,417.60 80.03,417.18 80.03,416.77 80.03,416.35 80.03,415.94 80.03,415.52 80.03,415.11 80.03,414.69 80.03,414.27 80.03,413.86 80.03,413.44 80.03,413.03 80.03,412.61 80.03,412.20 80.03,411.78 80.03,411.37 80.03,410.95 80.03,410.54 80.03,410.12 80.03,409.70 80.03,409.29 80.03,408.87 80.03,408.46 80.03,408.04 80.03,407.63 80.03,407.21 80.03,406.80 80.03,406.38 80.03,405.97 80.03,405.55 80.03,405.14 80.03,404.72 80.03,404.30 80.03,403.89 80.03,403.47 80.03,403.06 80.03,402.64 80.03,402.23 80.03,401.81 80.03,401.40 80.03,400.98 80.03,400.57 80.03,400.15 80.03,399.73 80.03,399.32 80.03,398.90 80.03,398.49 80.03,398.07 80.03,397.66 80.03,397.24 80.03,396.83 80.03,396.41 80.03,396.00 80.07,395.58 80.07,395.17 80.07,394.75 80.07,394.33 80.07,393.92 80.07,393.50 80.07,393.09 80.07,392.67 80.07,392.26 80.07,391.84 80.07,391.43 80.07,391.01 80.07,390.60 80.07,390.18 80.07,389.76 80.07,389.35 80.07,388.93 80.07,388.52 80.07,388.10 80.07,387.69 80.07,387.27 80.07,386.86 80.07,386.44 80.07,386.03 80.07,385.61 80.07,385.20 80.07,384.78 80.07,384.36 80.07,383.95 80.07,383.53 80.07,383.12 80.07,382.70 80.07,382.29 80.07,381.87 80.07,381.46 80.07,381.04 80.07,380.63 80.07,380.21 80.07,379.79 80.07,379.38 80.07,378.96 80.07,378.55 80.07,378.13 80.07,377.72 80.07,377.30 80.07,376.89 80.07,376.47 80.07,376.06 80.07,375.64 80.07,375.23 80.07,374.81 80.07,374.39 80.07,373.98 80.07,373.56 80.07,373.15 80.07,372.73 80.07,372.32 80.07,371.90 80.07,371.49 80.07,371.07 80.07,370.66 80.07,370.24 80.07,369.82 80.07,369.41 80.07,368.99 80.07,368.58 80.07,368.16 80.07,367.75 80.07,367.33 80.07,366.92 80.07,366.50 80.07,366.09 80.07,365.67 80.07,365.26 80.07,364.84 80.07,364.42 80.07,364.01 80.07,363.59 80.07,363.18 80.07,362.76 80.07,362.35 80.07,361.93 80.07,361.52 80.07,361.10 80.07,360.69 80.07,360.27 80.07,359.85 80.07,359.44 80.07,359.02 80.07,358.61 80.07,358.19 80.07,357.78 80.07,357.36 80.07,356.95 80.07,356.53 80.07,356.12 80.07,355.70 80.07,355.29 80.07,354.87 80.07,354.45 80.07,354.04 80.07,353.62 80.07,353.21 80.07,352.79 80.07,352.38 80.07,351.96 80.07,351.55 80.07,351.13 80.07,350.72 80.07,350.30 80.07,349.88 80.07,349.47 80.07,349.05 80.07,348.64 80.07,348.22 80.07,347.81 80.07,347.39 80.07,346.98 80.07,346.56 80.07,346.15 80.07,345.73 80.07,345.32 80.07,344.90 80.07,344.48 80.07,344.07 80.07,343.65 80.07,343.24 80.07,342.82 80.07,342.41 80.07,341.99 80.07,341.58 80.07,341.16 80.07,340.75 80.07,340.33 80.07,339.91 80.07,339.50 80.07,339.08 80.07,338.67 80.07,338.25 80.07,337.84 80.07,337.42 80.07,337.01 80.07,336.59 80.07,336.18 80.07,335.76 80.07,335.35 80.07,334.93 80.07,334.51 80.07,334.10 80.07,333.68 80.07,333.27 80.07,332.85 80.07,332.44 80.07,332.02 80.07,331.61 80.07,331.19 80.07,330.78 80.07,330.36 80.07,329.94 80.07,329.53 80.07,329.11 80.07,328.70 80.07,328.28 80.07,327.87 80.07,327.45 80.07,327.04 80.07,326.62 80.07,326.21 80.07,325.79 80.07,325.38 80.07,324.96 80.07,324.54 80.07,324.13 80.07,323.71 80.07,323.30 80.07,322.88 80.07,322.47 80.07,322.05 80.07,321.64 80.07,321.22 80.07,320.81 80.07,320.39 80.07,319.97 80.07,319.56 80.07,319.14 80.07,318.73 80.07,318.31 80.07,317.90 80.07,317.48 80.07,317.07 80.07,316.65 80.07,316.24 80.07,315.82 80.07,315.41 80.07,314.99 80.07,314.57 80.07,314.16 80.07,313.74 80.07,313.33 80.07,312.91 80.07,312.50 80.07,312.08 80.07,311.67 80.07,311.25 80.07,310.84 80.07,310.42 80.07,310.01 80.07,309.59 80.07,309.17 80.07,308.76 80.07,308.34 80.07,307.93 80.07,307.51 80.07,307.10 80.07,306.68 80.07,306.27 80.07,305.85 80.07,305.44 80.07,305.02 80.07,304.60 80.07,304.19 80.07,303.77 80.07,303.36 80.07,302.94 80.07,302.53 80.07,302.11 80.07,301.70 80.07,301.28 80.07,300.87 80.07,300.45 80.07,300.04 80.07,299.62 80.07,299.20 80.07,298.79 80.07,298.37 80.07,297.96 80.07,297.54 80.07,297.13 80.07,296.71 80.07,296.30 80.07,295.88 80.07,295.47 80.07,295.05 80.07,294.63 80.07,294.22 80.07,293.80 80.07,293.39 80.07,292.97 80.07,292.56 80.07,292.14 80.07,291.73 80.07,291.31 80.07,290.90 80.07,290.48 80.07,290.07 80.07,289.65 80.07,289.23 80.07,288.82 80.07,288.40 80.07,287.99 80.07,287.57 80.07,287.16 80.07,286.74 80.07,286.33 80.07,285.91 80.07,285.50 80.07,285.08 80.07,284.66 80.07,284.25 80.07,283.83 80.07,283.42 80.07,283.00 80.07,282.59 80.07,282.17 80.07,281.76 80.07,281.34 80.07,280.93 80.07,280.51 80.07,280.10 80.07,279.68 80.07,279.26 80.07,278.85 80.07,278.43 80.07,278.02 80.07,277.60 80.07,277.19 80.07,276.77 80.07,276.36 80.07,275.94 80.07,275.53 80.07,275.11 80.07,274.69 80.07,274.28 80.07,273.86 80.07,273.45 80.07,273.03 80.07,272.62 80.07,272.20 80.07,271.79 80.07,271.37 80.07,270.96 80.07,270.54 80.07,270.13 80.07,269.71 80.07,269.29 80.07,268.88 80.07,268.46 80.07,268.05 80.07,267.63 80.07,267.22 80.07,266.80 80.07,266.39 80.07,265.97 80.07,265.56 80.07,265.14 80.07,264.72 80.07,264.31 80.07,263.89 80.07,263.48 80.07,263.06 80.07,262.65 80.07,262.23 80.07,261.82 80.07,261.40 80.07,260.99 80.07,260.57 80.07,260.16 80.07,259.74 80.07,259.32 80.07,258.91 80.07,258.49 80.07,258.08 80.07,257.66 80.07,257.25 80.07,256.83 80.07,256.42 80.07,256.00 80.07,255.59 80.07,255.17 80.07,254.75 80.07,254.34 80.07,253.92 80.07,253.51 80.07,253.09 80.07,252.68 80.07,252.26 80.07,251.85 80.07,251.43 80.07,251.02 80.07,250.60 80.07,250.19 80.07,249.77 80.07,249.35 80.07,248.94 80.07,248.52 80.07,248.11 80.07,247.69 80.07,247.28 80.07,246.86 80.07,246.45 80.07,246.03 80.07,245.62 80.07,245.20 80.07,244.78 80.07,244.37 80.07,243.95 80.07,243.54 80.07,243.12 80.07,242.71 80.07,242.29 80.07,241.88 80.07,241.46 80.07,241.05 80.07,240.63 80.07,240.22 80.07,239.80 80.07,239.38 80.07,238.97 80.07,238.55 80.07,238.14 80.07,237.72 80.07,237.31 80.07,236.89 80.07,236.48 80.07,236.06 80.07,235.65 80.07,235.23 80.07,234.81 80.07,234.40 80.07,233.98 80.07,233.57 80.07,233.15 80.07,232.74 80.07,232.32 80.07,231.91 80.07,231.49 80.07,231.08 80.07,230.66 80.07,230.25 80.07,229.83 80.07,229.41 80.07,229.00 80.07,228.58 80.07,228.17 80.07,227.75 80.07,227.34 80.07,226.92 80.07,226.51 80.07,226.09 80.07,225.68 80.07,225.26 80.07,224.84 80.07,224.43 80.07,224.01 80.07,223.60 80.07,223.18 80.07,222.77 80.07,222.35 80.07,221.94 80.07,221.52 80.07,221.11 80.07,220.69 80.07,220.28 80.07,219.86 80.07,219.44 80.07,219.03 80.07,218.61 80.07,218.20 80.07,217.78 80.07,217.37 80.07,216.95 80.07,216.54 80.07,216.12 80.07,215.71 80.07,215.29 80.07,214.87 80.07,214.46 80.07,214.04 80.07,213.63 80.07,213.21 80.07,212.80 80.07,212.38 80.07,211.97 80.07,211.55 80.07,211.14 80.07,210.72 80.07,210.31 80.07,209.89 80.07,209.47 80.07,209.06 80.07,208.64 80.07,208.23 80.07,207.81 80.07,207.40 80.07,206.98 80.07,206.57 80.07,206.15 80.07,205.74 80.07,205.32 80.07,204.90 80.07,204.49 80.07,204.07 80.07,203.66 80.07,203.24 80.07,202.83 80.07,202.41 80.07,202.00 80.07,201.58 80.07,201.17 80.07,200.75 80.07,200.34 80.07,199.92 80.07,199.50 80.07,199.09 80.07,198.67 80.07,198.26 80.07,197.84 80.07,197.43 80.07,197.01 80.07,196.60 80.07,196.18 80.07,195.77 80.07,195.35 80.07,194.93 80.07,194.52 80.07,194.10 80.07,193.69 80.07,193.27 80.07,192.86 80.07,192.44 80.07,192.03 80.07,191.61 80.07,191.20 80.07,190.78 80.07,190.37 80.07,189.95 80.07,189.53 80.07,189.12 80.07,188.70 80.07,188.29 80.07,187.87 80.07,187.46 80.07,187.04 80.07,186.63 80.07,186.21 80.07,185.80 80.07,185.38 80.07,184.96 80.07,184.55 80.07,184.13 80.07,183.72 80.07,183.30 80.07,182.89 80.07,182.47 80.07,182.06 80.07,181.64 80.07,181.23 80.07,180.81 80.07,180.40 80.07,179.98 80.07,179.56 80.07,179.15 80.07,178.73 80.07,178.32 80.07,177.90 80.07,177.49 80.07,177.07 80.07,176.66 80.07,176.24 80.07,175.83 80.07,175.41 80.07,174.99 80.07,174.58 80.07,174.16 80.07,173.75 80.07,173.33 80.07,172.92 80.07,172.50 80.07,172.09 80.07,171.67 80.10,171.26 80.10,170.84 80.10,170.43 80.10,170.01 80.10,169.59 80.10,169.18 80.10,168.76 80.10,168.35 80.10,167.93 80.10,167.52 80.10,167.10 80.10,166.69 80.10,166.27 80.10,165.86 80.10,165.44 80.10,165.03 80.10,164.61 80.10,164.19 80.10,163.78 80.10,163.36 80.10,162.95 80.10,162.53 80.10,162.12 80.10,161.70 80.10,161.29 80.10,160.87 80.10,160.46 80.10,160.04 80.10,159.62 80.10,159.21 80.10,158.79 80.10,158.38 80.10,157.96 80.10,157.55 80.10,157.13 80.10,156.72 80.10,156.30 80.10,155.89 80.10,155.47 80.10,155.06 80.10,154.64 80.10,154.22 80.10,153.81 80.10,153.39 80.10,152.98 80.10,152.56 80.10,152.15 80.10,151.73 80.10,151.32 80.10,150.90 80.10,150.49 80.10,150.07 80.10,149.65 80.10,149.24 80.10,148.82 80.10,148.41 80.10,147.99 80.10,147.58 80.10,147.16 80.10,146.75 80.10,146.33 80.10,145.92 80.10,145.50 80.10,145.09 80.10,144.67 80.10,144.25 80.10,143.84 80.10,143.42 80.10,143.01 80.10,142.59 80.10,142.18 80.10,141.76 80.10,141.35 80.10,140.93 80.10,140.52 80.10,140.10 80.10,139.68 80.10,139.27 80.10,138.85 80.10,138.44 80.10,138.02 80.10,137.61 80.10,137.19 80.10,136.78 80.10,136.36 80.10,135.95 80.10,135.53 80.10,135.12 80.10,134.70 80.10,134.28 80.10,133.87 80.10,133.45 80.10,133.04 80.10,132.62 80.10,132.21 80.10,131.79 80.10,131.38 80.10,130.96 80.10,130.55 80.10,130.13 80.10,129.71 80.10,129.30 80.10,128.88 80.10,128.47 80.10,128.05 80.10,127.64 80.10,127.22 80.10,126.81 80.10,126.39 80.10,125.98 80.10,125.56 80.10,125.15 80.10,124.73 80.10,124.31 80.10,123.90 80.10,123.48 80.10,123.07 80.10,122.65 80.10,122.24 80.10,121.82 80.10,121.41 80.10,120.99 80.10,120.58 80.10,120.16 80.10,119.74 80.10,119.33 80.10,118.91 80.10,118.50 80.10,118.08 80.10,117.67 80.10,117.25 80.10,116.84 80.10,116.42 80.10,116.01 80.10,115.59 80.10,115.18 80.10,114.76 80.10,114.34 80.10,113.93 80.10,113.51 80.10,113.10 80.10,112.68 80.10,112.27 80.10,111.85 80.10,111.44 80.10,111.02 80.10,110.61 80.10,110.19 80.10,109.77 80.10,109.36 80.10,108.94 80.10,108.53 80.10,108.11 80.10,107.70 80.10,107.28 80.10,106.87 80.10,106.45 80.10,106.04 80.10,105.62 80.10,105.21 80.10,104.79 80.10,104.37 80.10,103.96 80.10,103.54 80.10,103.13 80.10,102.71 80.10,102.30 80.10,101.88 80.10,101.47 80.10,101.05 80.10,100.64 80.10,100.22 80.10,99.80 80.10,99.39 80.10,98.97 80.10,98.56 80.10,98.14 80.10,97.73 80.10,97.31 80.10,96.90 80.10,96.48 80.10,96.07 80.10,95.65 80.10,95.24 80.10,94.82 80.10,94.40 80.10,93.99 80.10,93.57 80.10,93.16 80.10,92.74 80.10,92.33 80.10,91.91 80.10,91.50 80.10,91.08 80.10,90.67 80.10,90.25 80.10,89.83 80.10,89.42 80.10,89.00 80.10,88.59 80.10,88.17 80.10,87.76 80.10,87.34 80.10,86.93 80.10,86.51 80.10,86.10 80.10,85.68 80.10,85.27 80.10,84.85 80.10,84.43 80.10,84.02 80.10,83.60 80.10,83.19 80.10,82.77 80.10,82.36 80.10,81.94 80.10,81.53 80.10,81.11 80.10,80.70 80.10,80.28 80.10,79.86 80.10,79.45 80.10,79.03 80.10,78.62 80.10,78.20 80.10,77.79 80.10,77.37 80.10,76.96 80.10,76.54 80.10,76.13 80.10,75.71 80.10,75.30 80.10,74.88 80.10,74.46 80.10,74.05 80.10,73.63 80.10,73.22 80.10,72.80 80.10,72.39 80.10,71.97 80.10,71.56 80.10,71.14 80.10,70.73 80.10,70.31 80.10,69.89 80.10,69.48 80.10,69.06 80.10,68.65 80.10,68.23 80.10,67.82 80.10,67.40 80.10,66.99 80.10,66.57 80.10,66.16 80.10,65.74 80.10,65.33 80.10,64.91 80.10,64.49 80.10,64.08 80.10,63.66 80.10,63.25 80.10,62.83 80.10,62.42 80.10,62.00 80.10,61.59 80.10,61.17 80.10,60.76 80.10,60.34 80.10,59.92 80.14,59.51 80.14,59.09 80.14,58.68 80.14,58.26 80.14,57.85 80.14,57.43 80.14,57.02 80.14,56.60 80.14,56.19 80.14,55.77 80.14,55.36 80.14,54.94 80.14,54.52 80.14,54.11 80.14,53.69 80.14,53.28 80.14,52.86 80.14,52.45 80.14,52.03 80.14,51.62 80.14,51.20 80.14,50.79 80.14,50.37 80.14,49.95 80.14,49.54 80.14,49.12 80.14,48.71 80.14,48.29 80.14,47.88 80.14,47.46 80.14,47.05 80.14,46.63 80.14,46.22 80.17,45.80 80.17,45.39 80.17,44.97 80.17,44.55 80.17,44.14 80.17,43.72 80.17,43.31 80.17,42.89 80.17,42.48 80.17,42.06 80.17,41.65 80.17,41.23 80.17,40.82 80.20,40.40 80.20,39.98 80.20,39.57 80.20,39.15 80.20,38.74 80.24,38.32 80.24,37.91 80.27,37.49 80.27,37.08 80.31,36.66 80.34,36.25 80.44,35.83 80.88,35.42 870.00,35.00"/>
<text x="475.0" y="498" text-anchor="middle" font-family="Arial" font-size="14" fill="#111827">Latency microseconds</text>
<text x="20" y="242.5" text-anchor="middle" transform="rotate(-90 20 242.5)" font-family="Arial" font-size="14" fill="#111827">Cumulative share</text>
</svg>
