<svg xmlns="http://www.w3.org/2000/svg" width="900" height="560" viewBox="0 0 900 560">
<rect width="100%" height="100%" fill="white"/>
<line x1="70" y1="490" x2="870" y2="490" stroke="#222"/>
<line x1="70" y1="30" x2="70" y2="490" stroke="#222"/>
<text x="450.0" y="538" text-anchor="middle" font-family="Arial" font-size="16">distance from mid in cents</text>
<text x="18" y="280.0" text-anchor="middle" font-family="Arial" font-size="16" transform="rotate(-90 18 280.0)">fill probability</text>
<text x="70" y="24" font-family="Arial" font-size="18">regular session QQQ exponential fit</text>
<polyline points="70.000,30.000 75.031,60.945 80.063,89.809 85.094,116.730 90.126,141.841 95.157,165.262 100.189,187.108 105.220,207.484 110.252,226.490 115.283,244.216 120.314,260.751 125.346,276.173 130.377,290.557 135.409,303.974 140.440,316.489 145.472,328.161 150.503,339.048 155.535,349.203 160.566,358.675 165.597,367.509 170.629,375.750 175.660,383.435 180.692,390.604 185.723,397.291 190.755,403.528 195.786,409.345 200.818,414.771 205.849,419.831 210.881,424.552 215.912,428.955 220.943,433.061 225.975,436.892 231.006,440.464 236.038,443.797 241.069,446.905 246.101,449.804 251.132,452.508 256.164,455.030 261.195,457.383 266.226,459.577 271.258,461.624 276.289,463.533 281.321,465.313 286.352,466.974 291.384,468.523 296.415,469.968 301.447,471.315 306.478,472.572 311.509,473.745 316.541,474.838 321.572,475.858 326.604,476.809 331.635,477.697 336.667,478.524 341.698,479.296 346.730,480.017 351.761,480.688 356.792,481.315 361.824,481.899 366.855,482.444 371.887,482.952 376.918,483.426 381.950,483.868 386.981,484.281 392.013,484.666 397.044,485.025 402.075,485.359 407.107,485.671 412.138,485.963 417.170,486.234 422.201,486.488 427.233,486.724 432.264,486.944 437.296,487.150 442.327,487.342 447.358,487.520 452.390,487.687 457.421,487.843 462.453,487.988 467.484,488.123 472.516,488.250 477.547,488.367 482.579,488.477 487.610,488.580 492.642,488.675 497.673,488.764 502.704,488.847 507.736,488.925 512.767,488.997 517.799,489.065 522.830,489.128 527.862,489.186 532.893,489.241 537.925,489.292 542.956,489.340 547.987,489.384 553.019,489.426 558.050,489.464 563.082,489.500 568.113,489.534 573.145,489.565 578.176,489.594 583.208,489.622 588.239,489.647 593.270,489.671 598.302,489.693 603.333,489.714 608.365,489.733 613.396,489.751 618.428,489.768 623.459,489.783 628.491,489.798 633.522,489.811 638.553,489.824 643.585,489.836 648.616,489.847 653.648,489.857 658.679,489.867 663.711,489.876 668.742,489.884 673.774,489.892 678.805,489.899 683.836,489.906 688.868,489.912 693.899,489.918 698.931,489.924 703.962,489.929 708.994,489.934 714.025,489.938 719.057,489.942 724.088,489.946 729.119,489.950 734.151,489.953 739.182,489.956 744.214,489.959 749.245,489.962 754.277,489.965 759.308,489.967 764.340,489.969 769.371,489.971 774.403,489.973 779.434,489.975 784.465,489.977 789.497,489.978 794.528,489.980 799.560,489.981 804.591,489.982 809.623,489.984 814.654,489.985 819.686,489.986 824.717,489.987 829.748,489.988 834.780,489.988 839.811,489.989 844.843,489.990 849.874,489.991 854.906,489.991 859.937,489.992 864.969,489.992 870.000,489.993" fill="none" stroke="#0b5fff" stroke-width="3"/>
<circle cx="92.857" cy="127.110" r="4" fill="#111" stroke="#111" stroke-width="1"/>
<circle cx="138.571" cy="368.122" r="4" fill="#111" stroke="#111" stroke-width="1"/>
<circle cx="184.286" cy="402.844" r="4" fill="#111" stroke="#111" stroke-width="1"/>
<circle cx="230.000" cy="332.036" r="4" fill="#111" stroke="#111" stroke-width="1"/>
<circle cx="275.714" cy="490.000" r="4" fill="#111" stroke="#111" stroke-width="1"/>
<circle cx="321.429" cy="208.536" r="4" fill="#111" stroke="#111" stroke-width="1"/>
<circle cx="367.143" cy="387.931" r="4" fill="#111" stroke="#111" stroke-width="1"/>
<circle cx="412.857" cy="398.037" r="4" fill="#111" stroke="#111" stroke-width="1"/>
<circle cx="458.571" cy="490.000" r="4" fill="#111" stroke="#111" stroke-width="1"/>
<circle cx="504.286" cy="433.364" r="4" fill="#111" stroke="#111" stroke-width="1"/>
<circle cx="550.000" cy="490.000" r="4" fill="#111" stroke="#111" stroke-width="1"/>
<circle cx="595.714" cy="447.588" r="4" fill="#111" stroke="#111" stroke-width="1"/>
<circle cx="641.429" cy="490.000" r="4" fill="#111" stroke="#111" stroke-width="1"/>
<circle cx="687.143" cy="490.000" r="4" fill="#111" stroke="#111" stroke-width="1"/>
<circle cx="732.857" cy="490.000" r="4" fill="#111" stroke="#111" stroke-width="1"/>
<circle cx="778.571" cy="490.000" r="4" fill="#111" stroke="#111" stroke-width="1"/>
<circle cx="870.000" cy="490.000" r="4" fill="#111" stroke="#111" stroke-width="1"/>
<circle cx="870.000" cy="490.000" r="4" fill="#d62728" stroke="#8b0000" stroke-width="1"/>
<circle cx="870.000" cy="490.000" r="4" fill="#d62728" stroke="#8b0000" stroke-width="1"/>
<circle cx="870.000" cy="490.000" r="4" fill="#d62728" stroke="#8b0000" stroke-width="1"/>
<text x="82" y="58" font-family="Arial" font-size="14">black points are included buckets</text>
<text x="82" y="78" font-family="Arial" font-size="14">red points are maintenance buckets</text>
</svg>
