<svg xmlns="http://www.w3.org/2000/svg" width="940" height="540" viewBox="0 0 940 540">
<rect width="100%" height="100%" fill="#ffffff"/>
<text x="470.0" y="26" text-anchor="middle" font-family="Arial" font-size="18" fill="#111827">Naive Cumulative PnL After Fees By Regime</text>
<line x1="85" y1="470" x2="785" y2="470" stroke="#111827" stroke-width="1"/>
<line x1="85" y1="42" x2="85" y2="470" stroke="#111827" stroke-width="1"/>
<line x1="85.00" y1="42" x2="85.00" y2="470" stroke="#e5e7eb" stroke-width="1"/>
<text x="85.00" y="494" text-anchor="middle" font-family="Arial" font-size="12" fill="#374151">0</text>
<line x1="260.00" y1="42" x2="260.00" y2="470" stroke="#e5e7eb" stroke-width="1"/>
<text x="260.00" y="494" text-anchor="middle" font-family="Arial" font-size="12" fill="#374151">50000</text>
<line x1="435.00" y1="42" x2="435.00" y2="470" stroke="#e5e7eb" stroke-width="1"/>
<text x="435.00" y="494" text-anchor="middle" font-family="Arial" font-size="12" fill="#374151">100000</text>
<line x1="610.00" y1="42" x2="610.00" y2="470" stroke="#e5e7eb" stroke-width="1"/>
<text x="610.00" y="494" text-anchor="middle" font-family="Arial" font-size="12" fill="#374151">149999</text>
<line x1="785.00" y1="42" x2="785.00" y2="470" stroke="#e5e7eb" stroke-width="1"/>
<text x="785.00" y="494" text-anchor="middle" font-family="Arial" font-size="12" fill="#374151">199999</text>
<line x1="85" y1="470.00" x2="785" y2="470.00" stroke="#e5e7eb" stroke-width="1"/>
<text x="73" y="474.00" text-anchor="end" font-family="Arial" font-size="12" fill="#374151">-4370942</text>
<line x1="85" y1="363.00" x2="785" y2="363.00" stroke="#e5e7eb" stroke-width="1"/>
<text x="73" y="367.00" text-anchor="end" font-family="Arial" font-size="12" fill="#374151">1263234</text>
<line x1="85" y1="256.00" x2="785" y2="256.00" stroke="#e5e7eb" stroke-width="1"/>
<text x="73" y="260.00" text-anchor="end" font-family="Arial" font-size="12" fill="#374151">6897410</text>
<line x1="85" y1="149.00" x2="785" y2="149.00" stroke="#e5e7eb" stroke-width="1"/>
<text x="73" y="153.00" text-anchor="end" font-family="Arial" font-size="12" fill="#374151">12531586</text>
<line x1="85" y1="42.00" x2="785" y2="42.00" stroke="#e5e7eb" stroke-width="1"/>
<text x="73" y="46.00" text-anchor="end" font-family="Arial" font-size="12" fill="#374151">18165762</text>
<polyline fill="none" stroke="#2563eb" stroke-width="2" points="85.00,386.99 85.35,386.98 85.70,386.96 86.05,386.95 86.40,386.94 86.75,386.93 87.10,386.91 87.45,386.89 87.80,386.88 88.15,386.86 88.50,386.85 88.85,386.84 89.20,386.82 89.55,386.82 89.90,386.80 90.25,386.77 90.60,386.75 90.95,386.73 91.30,386.71 91.65,386.69 92.00,386.69 92.35,386.67 92.70,386.66 93.05,386.66 93.40,386.66 93.75,386.65 94.10,386.63 94.45,386.65 94.80,386.63 95.15,386.61 95.50,386.61 95.85,386.59 96.20,386.55 96.55,386.55 96.90,386.53 97.25,386.50 97.60,386.53 97.95,386.53 98.30,386.52 98.65,386.51 99.00,386.52 99.35,386.51 99.70,386.49 100.05,386.48 100.40,386.46 100.75,386.48 101.10,386.43 101.45,386.44 101.80,386.42 102.15,386.41 102.50,386.37 102.85,386.35 103.20,386.37 103.55,386.37 103.90,386.35 104.25,386.31 104.60,386.34 104.95,386.31 105.30,386.33 105.65,386.35 106.00,386.35 106.35,386.35 106.70,386.34 107.05,386.32 107.40,386.33 107.75,386.31 108.10,386.27 108.45,386.29 108.80,386.31 109.15,386.31 109.50,386.31 109.85,386.31 110.20,386.30 110.55,386.29 110.90,386.27 111.25,386.26 111.60,386.24 111.95,386.23 112.30,386.21 112.65,386.20 113.00,386.19 113.35,386.17 113.70,386.15 114.05,386.15 114.40,386.13 114.75,386.12 115.10,386.12 115.45,386.10 115.80,386.09 116.15,386.07 116.50,386.06 116.85,386.05 117.20,386.03 117.55,386.01 117.90,386.01 118.25,386.00 118.60,385.99 118.95,385.99 119.30,385.99 119.65,385.98 120.00,385.97 120.35,385.95 120.70,385.95 121.05,385.95 121.40,386.00 121.75,385.98 122.10,385.98 122.45,385.94 122.80,385.95 123.15,385.95 123.50,385.90 123.85,385.87 124.20,385.82 124.55,385.83 124.90,385.82 125.25,385.81 125.60,385.79 125.95,385.79 126.30,385.83 126.65,385.85 127.00,385.82 127.35,385.82 127.70,385.80 128.05,385.85 128.40,385.82 128.75,385.82 129.10,385.81 129.45,385.78 129.80,385.78 130.15,385.77 130.50,385.73 130.85,385.71 131.20,385.69 131.55,385.68 131.90,385.69 132.25,385.77 132.60,385.71 132.95,385.70 133.30,385.62 133.65,385.65 134.00,385.64 134.35,385.67 134.70,385.68 135.05,385.71 135.40,385.64 135.75,385.61 136.10,385.64 136.45,385.65 136.80,385.59 137.15,385.53 137.50,385.51 137.85,385.55 138.20,385.51 138.55,385.44 138.90,385.45 139.25,385.41 139.60,385.29 139.95,385.23 140.30,385.17 140.65,385.10 141.00,385.17 141.35,385.18 141.70,385.18 142.05,385.06 142.40,385.03 142.75,385.06 143.10,384.97 143.45,385.03 143.80,385.01 144.15,385.04 144.50,385.03 144.85,384.99 145.20,384.87 145.55,384.83 145.90,384.75 146.25,384.70 146.60,384.74 146.95,384.72 147.30,384.69 147.65,384.81 148.00,384.81 148.35,384.79 148.70,384.93 149.05,384.92 149.40,384.90 149.75,384.82 150.10,384.97 150.45,384.89 150.80,384.80 151.15,384.69 151.50,384.64 151.85,384.54 152.20,384.38 152.55,384.45 152.90,384.45 153.25,384.52 153.60,384.51 153.95,384.59 154.30,384.45 154.65,384.40 155.00,384.44 155.35,384.45 155.70,384.55 156.05,384.57 156.40,384.74 156.75,384.57 157.10,384.52 157.45,384.48 157.80,384.56 158.15,384.61 158.50,384.48 158.85,384.54 159.20,384.26 159.55,384.30 159.90,384.23 160.25,384.22 160.60,384.37 160.95,384.32 161.30,384.26 161.65,384.17 162.00,384.20 162.35,384.32 162.70,384.27 163.05,384.30 163.40,384.18 163.75,384.17 164.10,383.97 164.45,383.88 164.80,384.03 165.15,384.08 165.50,383.96 165.85,384.03 166.20,384.00 166.55,383.88 166.90,383.77 167.25,383.67 167.60,383.74 167.95,384.04 168.30,383.99 168.65,384.11 169.00,384.13 169.35,384.28 169.70,384.13 170.05,384.22 170.40,384.19 170.75,383.89 171.10,383.71 171.45,383.84 171.80,383.72 172.15,383.61 172.50,383.78 172.85,383.94 173.20,384.11 173.55,384.05 173.90,383.89 174.25,383.71 174.60,383.60 174.95,383.73 175.30,383.73 175.65,383.74 176.00,383.77 176.35,383.79 176.70,383.86 177.05,383.81 177.40,383.66 177.75,383.59 178.10,383.51 178.45,383.56 178.80,383.55 179.15,383.23 179.50,383.49 179.85,383.44 180.20,383.40 180.55,383.36 180.90,383.43 181.25,383.61 181.60,383.40 181.95,383.59 182.30,383.48 182.65,383.31 183.00,383.21 183.35,383.04 183.70,382.87 184.05,382.62 184.40,382.50 184.75,382.63 185.10,382.90 185.45,382.80 185.80,382.65 186.15,382.67 186.50,382.73 186.85,382.71 187.20,383.02 187.55,382.89 187.90,382.73 188.25,382.76 188.60,382.60 188.95,382.37 189.30,382.26 189.65,382.16 190.00,382.02 190.35,382.23 190.70,382.37 191.05,382.55 191.40,382.61 191.75,382.43 192.10,382.63 192.45,382.22 192.80,382.25 193.15,381.94 193.50,381.36 193.85,381.56 194.20,381.66 194.55,381.40 194.90,380.95 195.25,380.30 195.60,380.27 195.95,380.64 196.30,380.48 196.65,380.98 197.00,381.59 197.35,381.15 197.70,381.48 198.05,380.85 198.40,381.43 198.75,381.22 199.10,381.07 199.45,381.16 199.80,380.97 200.15,380.17 200.50,379.40 200.85,378.81 201.20,378.06 201.55,377.81 201.90,378.22 202.25,378.62 202.60,378.14 202.95,378.01 203.30,378.60 203.65,378.22 204.00,378.71 204.35,379.33 204.70,379.63 205.05,379.05 205.40,378.85 205.75,378.45 206.10,378.88 206.45,378.98 206.80,378.60 207.15,378.53 207.50,378.55 207.85,378.80 208.20,379.05 208.55,379.57 208.90,379.97 209.25,380.28 209.60,379.31 209.95,378.67 210.30,378.52 210.65,378.79 211.00,378.65 211.35,379.22 211.70,380.40 212.05,380.49 212.40,381.27 212.75,381.20 213.10,381.64 213.45,382.28 213.80,381.66 214.15,381.38 214.50,382.19 214.85,382.77 215.20,383.89 215.55,384.12 215.90,384.40 216.25,384.47 216.60,384.74 216.95,384.09 217.30,384.29 217.65,385.05 218.00,384.99 218.35,384.60 218.70,384.74 219.05,385.04 219.40,384.62 219.75,385.14 220.10,384.72 220.45,385.72 220.80,385.44 221.15,385.01 221.50,385.26 221.85,385.56 222.20,384.95 222.55,385.79 222.90,385.38 223.25,385.32 223.60,384.89 223.95,384.36 224.30,384.77 224.65,384.15 225.00,384.29 225.35,384.63 225.70,384.66 226.05,384.50 226.40,383.94 226.75,384.45 227.10,384.18 227.45,384.26 227.80,384.02 228.15,384.46 228.50,383.80 228.85,383.59 229.20,384.23 229.55,384.48 229.90,384.60 230.25,384.45 230.60,384.07 230.95,383.91 231.30,383.41 231.65,383.31 232.00,382.07 232.35,382.49 232.70,382.46 233.05,382.62 233.40,381.36 233.75,381.04 234.10,380.42 234.45,380.27 234.80,380.13 235.15,380.24 235.50,381.26 235.85,381.12 236.20,380.57 236.55,380.69 236.90,381.73 237.25,381.14 237.60,380.60 237.95,381.10 238.30,381.63 238.65,381.18 239.00,380.74 239.35,381.35 239.70,381.90 240.05,381.39 240.40,380.92 240.75,381.42 241.10,380.11 241.45,379.75 241.80,380.18 242.15,379.35 242.50,379.82 242.85,380.67 243.20,380.40 243.55,379.60 243.90,379.01 244.25,378.96 244.60,379.78 244.95,379.96 245.30,379.21 245.65,379.15 246.00,379.52 246.35,379.47 246.70,379.11 247.05,379.66 247.40,379.68 247.75,379.37 248.10,380.00 248.45,379.28 248.80,378.66 249.15,379.37 249.50,379.47 249.85,378.97 250.20,379.46 250.55,380.26 250.90,380.35 251.25,379.32 251.60,379.06 251.95,379.70 252.30,379.46 252.65,380.02 253.00,380.33 253.35,380.88 253.70,381.84 254.05,382.14 254.40,381.62 254.75,381.14 255.10,381.93 255.45,381.98 255.80,382.00 256.15,382.20 256.50,382.40 256.85,381.75 257.20,379.98 257.55,380.23 257.90,379.54 258.25,380.42 258.60,379.56 258.95,378.69 259.30,378.64 259.65,377.99 260.00,377.61 260.35,377.83 260.70,377.99 261.05,377.64 261.40,378.61 261.75,378.18 262.10,376.74 262.45,375.84 262.80,376.12 263.15,376.10 263.50,374.82 263.85,373.93 264.20,373.40 264.55,373.43 264.90,373.24 265.25,374.16 265.60,374.65 265.95,373.68 266.30,373.82 266.65,372.85 267.00,372.10 267.35,372.03 267.70,371.59 268.05,371.66 268.40,372.83 268.75,373.08 269.10,373.05 269.45,373.53 269.80,373.35 270.15,372.61 270.50,371.17 270.85,370.84 271.20,370.76 271.55,370.12 271.90,368.63 272.25,368.80 272.60,368.82 272.95,370.06 273.30,368.75 273.65,368.60 274.00,368.29 274.35,368.90 274.70,371.18 275.05,370.44 275.40,372.26 275.75,371.51 276.10,370.26 276.45,368.84 276.80,369.83 277.15,371.43 277.50,370.74 277.85,371.39 278.20,371.42 278.55,373.64 278.90,373.68 279.25,372.36 279.60,371.05 279.95,370.82 280.30,371.45 280.65,370.49 281.00,370.17 281.35,369.26 281.70,369.24 282.05,369.63 282.40,371.57 282.75,373.92 283.10,374.74 283.45,373.67 283.80,373.58 284.15,372.61 284.50,373.18 284.85,371.97 285.20,372.29 285.55,372.61 285.90,372.94 286.25,372.53 286.60,371.73 286.95,372.16 287.30,373.44 287.65,372.80 288.00,375.82 288.35,375.59 288.70,375.82 289.05,376.18 289.40,375.61 289.75,375.71 290.10,375.15 290.45,373.12 290.80,373.82 291.15,375.16 291.50,375.23 291.85,375.43 292.20,375.30 292.55,374.33 292.90,374.33 293.25,376.23 293.60,376.16 293.95,377.07 294.30,379.15 294.65,378.47 295.00,377.15 295.35,377.76 295.70,376.93 296.05,377.48 296.40,378.56 296.75,379.54 297.10,381.26 297.45,382.22 297.80,383.05 298.15,381.51 298.50,380.22 298.85,381.09 299.20,380.72 299.55,379.80 299.90,379.78 300.25,380.75 300.60,382.24 300.95,383.34 301.30,384.01 301.65,382.86 302.00,381.50 302.35,380.62 302.70,379.50 303.05,380.36 303.40,381.83 303.75,380.95 304.10,380.69 304.45,378.01 304.80,378.91 305.15,379.21 305.50,378.55 305.85,379.39 306.20,381.08 306.55,382.58 306.90,381.21 307.25,381.04 307.60,381.97 307.95,383.35 308.30,382.39 308.65,381.18 309.00,381.24 309.35,380.28 309.70,377.30 310.05,379.43 310.40,380.10 310.75,380.20 311.10,380.87 311.45,379.87 311.80,380.21 312.15,379.48 312.50,380.63 312.85,380.19 313.20,379.76 313.55,379.35 313.90,377.96 314.25,379.07 314.60,379.17 314.95,380.74 315.30,381.20 315.65,383.40 316.00,383.66 316.35,384.08 316.70,383.55 317.05,384.53 317.40,385.78 317.75,387.27 318.10,386.84 318.45,387.52 318.80,386.37 319.15,384.53 319.50,382.91 319.85,383.19 320.20,384.41 320.55,385.81 320.90,387.93 321.25,387.54 321.60,387.19 321.95,387.39 322.30,387.55 322.65,387.14 323.00,387.52 323.35,385.14 323.70,385.31 324.05,385.92 324.40,386.87 324.75,387.21 325.10,386.95 325.45,387.23 325.80,387.32 326.15,386.67 326.50,385.85 326.85,386.20 327.20,385.24 327.55,386.17 327.90,387.20 328.25,387.66 328.60,388.23 328.95,388.18 329.30,388.93 329.65,386.72 330.00,387.26 330.35,385.92 330.70,385.35 331.05,384.70 331.40,384.48 331.75,382.86 332.10,381.95 332.45,381.83 332.80,382.26 333.15,382.25 333.50,381.99 333.85,380.17 334.20,379.83 334.55,379.17 334.90,379.27 335.25,377.96 335.60,378.00 335.95,377.63 336.30,376.53 336.65,374.70 337.00,375.02 337.35,374.14 337.70,374.20 338.05,374.89 338.40,375.23 338.75,375.37 339.10,376.21 339.45,376.51 339.80,376.20 340.15,376.50 340.50,377.36 340.85,377.53 341.20,378.83 341.55,377.03 341.90,377.41 342.25,376.66 342.60,378.07 342.95,376.69 343.30,376.53 343.65,375.94 344.00,375.60 344.35,375.24 344.70,376.35 345.05,376.33 345.40,377.14 345.75,376.58 346.10,376.40 346.45,375.22 346.80,374.16 347.15,373.11 347.50,372.35 347.85,371.01 348.20,371.57 348.55,371.00 348.90,368.63 349.25,368.18 349.60,367.15 349.95,368.12 350.30,365.86 350.65,366.12 351.00,367.86 351.35,366.97 351.70,366.11 352.05,365.26 352.40,365.86 352.75,365.60 353.10,365.18 353.45,363.94 353.80,364.01 354.15,362.75 354.50,361.43 354.85,362.91 355.20,364.04 355.55,363.30 355.90,360.90 356.25,359.61 356.60,357.59 356.95,359.09 357.30,358.85 357.65,360.72 358.00,360.52 358.35,360.57 358.70,362.41 359.05,361.38 359.40,362.00 359.75,363.30 360.10,362.32 360.45,364.56 360.80,363.60 361.15,363.24 361.50,363.89 361.85,361.51 362.20,362.23 362.55,362.61 362.90,364.41 363.25,365.63 363.60,365.29 363.95,365.56 364.30,366.08 364.65,364.01 365.00,363.73 365.35,360.37 365.70,361.38 366.05,359.32 366.40,359.25 366.75,359.67 367.10,359.38 367.45,359.75 367.80,361.22 368.15,364.45 368.50,365.43 368.85,366.45 369.20,366.66 369.55,367.49 369.90,367.27 370.25,365.18 370.60,363.24 370.95,361.74 371.30,360.24 371.65,358.18 372.00,356.96 372.35,358.28 372.70,356.93 373.05,355.15 373.40,356.22 373.75,354.88 374.10,354.00 374.45,351.95 374.80,351.91 375.15,354.04 375.50,353.52 375.85,352.76 376.20,351.13 376.55,350.85 376.90,350.17 377.25,351.31 377.60,350.28 377.95,349.22 378.30,348.86 378.65,347.04 379.00,349.66 379.35,351.06 379.70,350.45 380.05,349.35 380.40,347.69 380.75,345.75 381.10,342.83 381.45,342.03 381.80,343.74 382.15,341.57 382.50,342.89 382.85,342.08 383.20,342.75 383.55,341.49 383.90,340.56 384.25,336.97 384.60,337.34 384.95,337.09 385.30,336.29 385.65,334.10 386.00,332.95 386.35,334.32 386.70,335.20 387.05,334.04 387.40,334.72 387.75,335.45 388.10,334.46 388.45,334.89 388.80,337.04 389.15,336.76 389.50,337.23 389.85,337.86 390.20,338.57 390.55,341.13 390.90,339.11 391.25,338.40 391.60,338.12 391.95,339.61 392.30,338.24 392.65,335.59 393.00,332.67 393.35,331.58 393.70,331.75 394.05,333.38 394.40,333.77 394.75,334.82 395.10,337.11 395.45,332.60 395.80,332.35 396.15,329.21 396.50,333.17 396.85,332.42 397.20,331.21 397.55,331.48 397.90,332.59 398.25,334.25 398.60,336.61 398.95,336.56 399.30,335.63 399.65,336.46 400.00,337.37 400.35,337.00 400.70,335.83 401.05,333.91 401.40,333.90 401.75,332.87 402.10,330.06 402.45,327.82 402.80,329.07 403.15,326.38 403.50,324.27 403.85,324.48 404.20,324.68 404.55,322.66 404.90,319.09 405.25,320.00 405.60,318.24 405.95,316.28 406.30,316.90 406.65,317.97 407.00,315.63 407.35,316.01 407.70,314.37 408.05,317.05 408.40,319.93 408.75,318.47 409.10,317.01 409.45,313.87 409.80,313.79 410.15,314.68 410.50,319.66 410.85,319.13 411.20,315.57 411.55,317.48 411.90,319.44 412.25,318.61 412.60,319.57 412.95,320.53 413.30,321.57 413.65,320.60 414.00,320.47 414.35,318.86 414.70,320.74 415.05,317.71 415.40,318.18 415.75,318.58 416.10,315.03 416.45,309.18 416.80,306.80 417.15,307.18 417.50,305.00 417.85,303.17 418.20,304.86 418.55,308.24 418.90,306.86 419.25,304.23 419.60,304.61 419.95,302.10 420.30,299.32 420.65,296.14 421.00,297.14 421.35,295.87 421.70,295.54 422.05,291.12 422.40,289.86 422.75,291.10 423.10,290.06 423.45,287.44 423.80,285.81 424.15,286.58 424.50,285.88 424.85,286.10 425.20,284.35 425.55,283.30 425.90,285.59 426.25,283.97 426.60,281.32 426.95,282.25 427.30,281.77 427.65,278.51 428.00,276.65 428.35,278.20 428.70,278.90 429.05,281.05 429.40,283.16 429.75,277.13 430.10,279.38 430.45,280.77 430.80,283.63 431.15,288.64 431.50,286.23 431.85,288.39 432.20,288.75 432.55,287.78 432.90,290.14 433.25,294.38 433.60,293.01 433.95,293.69 434.30,293.99 434.65,295.05 435.00,298.26 435.35,297.69 435.70,297.81 436.05,299.60 436.40,301.60 436.75,301.77 437.10,299.17 437.45,301.17 437.80,298.93 438.15,295.80 438.50,293.73 438.85,295.46 439.20,296.20 439.55,298.40 439.90,296.00 440.25,295.35 440.60,293.80 440.95,293.48 441.30,292.70 441.65,295.18 442.00,297.68 442.35,296.78 442.70,297.56 443.05,291.97 443.40,292.91 443.75,290.89 444.10,291.39 444.45,289.68 444.80,288.53 445.15,285.58 445.50,287.82 445.85,286.93 446.20,283.21 446.55,286.88 446.90,289.65 447.25,283.82 447.60,280.50 447.95,277.44 448.30,274.34 448.65,271.58 449.00,275.22 449.35,275.44 449.70,279.11 450.05,281.16 450.40,277.69 450.75,280.10 451.10,280.07 451.45,283.12 451.80,277.53 452.15,275.85 452.50,278.56 452.85,279.51 453.20,280.11 453.55,276.17 453.90,274.60 454.25,274.61 454.60,277.18 454.95,279.48 455.30,280.73 455.65,282.77 456.00,282.65 456.35,283.31 456.70,281.17 457.05,279.44 457.40,278.71 457.75,280.69 458.10,282.53 458.45,284.77 458.80,290.64 459.15,291.44 459.50,294.57 459.85,297.26 460.20,292.72 460.55,298.97 460.90,302.66 461.25,301.90 461.60,301.20 461.95,303.29 462.30,303.50 462.65,306.21 463.00,301.29 463.35,305.05 463.70,306.95 464.05,308.98 464.40,304.87 464.75,301.96 465.10,298.57 465.45,298.61 465.80,294.75 466.15,295.92 466.50,294.12 466.85,295.71 467.20,292.69 467.55,292.54 467.90,294.47 468.25,295.12 468.60,296.47 468.95,298.39 469.30,298.03 469.65,298.89 470.00,295.75 470.35,298.53 470.70,299.21 471.05,301.44 471.40,302.33 471.75,302.47 472.10,301.14 472.45,298.25 472.80,292.30 473.15,290.49 473.50,294.68 473.85,292.43 474.20,293.18 474.55,293.38 474.90,298.79 475.25,297.99 475.60,303.47 475.95,305.91 476.30,302.13 476.65,299.73 477.00,299.62 477.35,301.51 477.70,300.88 478.05,301.35 478.40,301.29 478.75,303.87 479.10,301.81 479.45,298.73 479.80,293.08 480.15,296.36 480.50,293.56 480.85,290.75 481.20,290.78 481.55,290.28 481.90,289.69 482.25,286.04 482.60,279.86 482.95,278.92 483.30,278.56 483.65,281.14 484.00,278.79 484.35,278.54 484.70,278.71 485.05,280.51 485.40,281.35 485.75,282.95 486.10,281.03 486.45,280.70 486.80,275.57 487.15,275.00 487.50,273.73 487.85,272.19 488.20,273.98 488.55,276.26 488.90,272.76 489.25,274.74 489.60,270.93 489.95,269.02 490.30,269.62 490.65,273.00 491.00,271.29 491.35,271.09 491.70,269.92 492.05,267.70 492.40,268.75 492.75,264.48 493.10,265.97 493.45,267.50 493.80,265.86 494.15,266.78 494.50,265.55 494.85,263.76 495.20,262.11 495.55,264.16 495.90,267.81 496.25,270.16 496.60,266.70 496.95,263.97 497.30,261.98 497.65,259.91 498.00,258.67 498.35,254.53 498.70,253.96 499.05,252.58 499.40,250.46 499.75,252.89 500.10,254.58 500.45,255.02 500.80,258.23 501.15,258.18 501.50,263.52 501.85,262.11 502.20,268.50 502.55,264.83 502.90,266.68 503.25,262.90 503.60,268.50 503.95,267.73 504.30,262.51 504.65,260.86 505.00,261.76 505.35,263.30 505.70,259.69 506.05,260.08 506.40,259.91 506.75,261.47 507.10,260.03 507.45,255.92 507.80,256.22 508.15,255.56 508.50,254.79 508.85,261.97 509.20,266.69 509.55,265.03 509.90,262.14 510.25,263.37 510.60,264.78 510.95,264.86 511.30,265.19 511.65,259.70 512.00,254.75 512.35,258.62 512.70,255.51 513.05,258.33 513.40,259.45 513.75,252.50 514.10,250.10 514.45,250.94 514.80,245.88 515.15,245.13 515.50,246.73 515.85,242.52 516.20,245.78 516.55,245.95 516.90,242.97 517.25,237.80 517.60,235.54 517.95,232.52 518.30,236.61 518.65,238.10 519.00,239.02 519.35,237.75 519.70,237.43 520.05,238.61 520.40,239.11 520.75,240.69 521.10,238.49 521.45,238.02 521.80,236.50 522.15,236.86 522.50,238.67 522.85,236.94 523.20,237.60 523.55,240.04 523.90,245.81 524.25,240.75 524.60,238.46 524.95,237.98 525.30,230.34 525.65,231.08 526.00,225.54 526.35,231.10 526.70,231.30 527.05,229.66 527.40,228.47 527.75,223.46 528.10,224.87 528.45,223.12 528.80,219.32 529.15,220.39 529.50,218.30 529.85,212.06 530.20,212.08 530.55,209.58 530.90,210.47 531.25,214.20 531.60,216.24 531.95,214.82 532.30,208.95 532.65,207.75 533.00,204.38 533.35,205.33 533.70,205.54 534.05,205.71 534.40,211.89 534.75,209.67 535.10,214.40 535.45,216.20 535.80,214.93 536.15,215.73 536.50,215.84 536.85,210.63 537.20,213.32 537.55,208.93 537.90,210.11 538.25,209.90 538.60,208.87 538.95,207.71 539.30,210.36 539.65,214.59 540.00,209.92 540.35,212.29 540.70,208.71 541.05,208.38 541.40,202.27 541.75,206.96 542.10,210.11 542.45,207.92 542.80,201.14 543.15,198.64 543.50,199.01 543.85,197.47 544.20,189.27 544.55,189.73 544.90,189.26 545.25,193.98 545.60,186.19 545.95,181.30 546.30,178.15 546.65,181.56 547.00,182.06 547.35,177.92 547.70,183.66 548.05,185.87 548.40,188.19 548.75,183.94 549.10,181.88 549.45,177.84 549.80,184.29 550.15,179.93 550.50,186.17 550.85,187.49 551.20,183.36 551.55,189.16 551.90,190.82 552.25,193.47 552.60,193.23 552.95,189.28 553.30,189.49 553.65,188.43 554.00,186.83 554.35,185.52 554.70,186.61 555.05,188.65 555.40,190.66 555.75,192.20 556.10,185.67 556.45,190.32 556.80,192.92 557.15,193.98 557.50,201.84 557.85,201.89 558.20,200.37 558.55,206.37 558.90,200.19 559.25,199.66 559.60,200.53 559.95,197.00 560.30,192.78 560.65,191.54 561.00,189.42 561.35,189.41 561.70,187.47 562.05,182.94 562.40,183.39 562.75,180.87 563.10,182.40 563.45,180.07 563.80,184.70 564.15,182.75 564.50,175.33 564.85,167.37 565.20,168.94 565.55,167.94 565.90,164.11 566.25,166.04 566.60,158.39 566.95,160.12 567.30,156.80 567.65,156.07 568.00,152.59 568.35,148.40 568.70,140.93 569.05,138.97 569.40,139.80 569.75,135.53 570.10,133.25 570.45,130.61 570.80,133.79 571.15,136.67 571.50,134.07 571.85,133.31 572.20,132.62 572.55,134.85 572.90,131.96 573.25,128.86 573.60,123.07 573.95,120.31 574.30,113.38 574.65,112.32 575.00,119.26 575.35,117.40 575.70,109.80 576.05,110.79 576.40,106.85 576.75,105.33 577.10,102.72 577.45,103.43 577.80,101.41 578.15,100.04 578.50,92.38 578.85,100.06 579.20,93.95 579.55,99.36 579.90,92.94 580.25,93.60 580.60,91.46 580.95,93.14 581.30,98.31 581.65,97.20 582.00,96.78 582.35,97.96 582.70,93.79 583.05,96.20 583.40,99.74 583.75,103.91 584.10,104.48 584.45,97.76 584.80,106.75 585.15,103.16 585.50,102.22 585.85,100.65 586.20,100.21 586.55,95.80 586.90,95.49 587.25,100.55 587.60,100.60 587.95,106.42 588.30,111.20 588.65,106.88 589.00,105.35 589.35,95.13 589.70,85.68 590.05,86.26 590.40,87.61 590.75,86.13 591.10,94.84 591.45,97.90 591.80,100.66 592.15,100.29 592.50,101.60 592.85,102.98 593.20,105.18 593.55,108.81 593.90,107.88 594.25,103.62 594.60,101.87 594.95,99.10 595.30,104.60 595.65,111.17 596.00,109.15 596.35,104.19 596.70,98.75 597.05,102.03 597.40,100.56 597.75,102.93 598.10,105.01 598.45,106.31 598.80,104.19 599.15,108.61 599.50,114.21 599.85,112.57 600.20,116.30 600.55,115.80 600.90,117.32 601.25,110.16 601.60,108.19 601.95,100.96 602.30,100.39 602.65,101.12 603.00,92.49 603.35,86.53 603.70,81.45 604.05,77.56 604.40,78.42 604.75,83.10 605.10,82.56 605.45,85.28 605.80,81.52 606.15,78.05 606.50,79.78 606.85,89.99 607.20,91.98 607.55,85.82 607.90,93.38 608.25,89.95 608.60,98.17 608.95,96.77 609.30,99.05 609.65,101.67 610.00,96.20 610.35,98.44 610.70,97.97 611.05,101.47 611.40,98.18 611.75,89.74 612.10,85.31 612.45,90.05 612.80,95.20 613.15,93.02 613.50,98.43 613.85,89.51 614.20,91.94 614.55,89.90 614.90,91.04 615.25,85.87 615.60,91.62 615.95,92.74 616.30,91.95 616.65,92.70 617.00,95.88 617.35,108.49 617.70,111.22 618.05,110.35 618.40,111.06 618.75,112.47 619.10,117.92 619.45,117.48 619.80,124.91 620.15,126.92 620.50,134.59 620.85,133.93 621.20,130.29 621.55,127.69 621.90,121.40 622.25,118.61 622.60,120.94 622.95,122.09 623.30,124.27 623.65,131.17 624.00,134.94 624.35,126.66 624.70,128.52 625.05,133.30 625.40,130.36 625.75,138.08 626.10,130.19 626.45,135.43 626.80,130.67 627.15,129.91 627.50,125.33 627.85,123.01 628.20,125.29 628.55,127.18 628.90,132.55 629.25,130.96 629.60,126.25 629.95,121.23 630.30,126.00 630.65,125.83 631.00,127.72 631.35,125.84 631.70,130.69 632.05,127.25 632.40,121.32 632.75,128.90 633.10,132.13 633.45,128.14 633.80,122.72 634.15,130.89 634.50,133.83 634.85,138.37 635.20,135.43 635.55,128.72 635.90,138.11 636.25,132.82 636.60,128.91 636.95,131.15 637.30,127.37 637.65,119.71 638.00,121.60 638.35,119.03 638.70,117.67 639.05,121.70 639.40,123.31 639.75,114.36 640.10,113.31 640.45,114.45 640.80,119.58 641.15,120.66 641.50,122.98 641.85,126.57 642.20,122.79 642.55,125.30 642.90,122.38 643.25,114.70 643.60,119.81 643.95,110.80 644.30,100.84 644.65,104.16 645.00,104.96 645.35,99.73 645.70,105.52 646.05,101.95 646.40,104.03 646.75,99.67 647.10,110.85 647.45,114.15 647.80,114.41 648.15,111.08 648.50,112.39 648.85,110.98 649.20,107.28 649.55,106.75 649.90,100.53 650.25,105.29 650.60,108.09 650.95,93.01 651.30,92.21 651.65,99.11 652.00,102.50 652.35,93.18 652.70,96.71 653.05,94.35 653.40,89.27 653.75,93.97 654.10,86.17 654.45,80.87 654.80,85.48 655.15,89.52 655.50,80.05 655.85,85.75 656.20,89.44 656.55,88.10 656.90,89.63 657.25,89.02 657.60,88.68 657.95,79.34 658.30,88.22 658.65,87.07 659.00,91.19 659.35,91.81 659.70,90.82 660.05,92.12 660.40,103.21 660.75,101.80 661.10,102.04 661.45,112.29 661.80,118.41 662.15,114.18 662.50,117.99 662.85,114.62 663.20,115.19 663.55,119.16 663.90,128.24 664.25,131.62 664.60,133.99 664.95,129.54 665.30,130.94 665.65,132.72 666.00,141.87 666.35,142.41 666.70,148.51 667.05,140.75 667.40,147.46 667.75,147.10 668.10,146.18 668.45,142.77 668.80,144.87 669.15,140.09 669.50,144.21 669.85,143.86 670.20,142.18 670.55,146.42 670.90,149.41 671.25,150.50 671.60,151.63 671.95,157.26 672.30,155.47 672.65,159.83 673.00,161.74 673.35,164.81 673.70,164.18 674.05,159.31 674.40,164.17 674.75,165.00 675.10,168.39 675.45,155.05 675.80,160.93 676.15,153.58 676.50,161.01 676.85,165.79 677.20,164.15 677.55,160.45 677.90,161.39 678.25,160.46 678.60,158.99 678.95,161.43 679.30,160.30 679.65,157.43 680.00,149.19 680.35,150.60 680.70,152.81 681.05,156.47 681.40,145.27 681.75,146.14 682.10,149.31 682.45,146.47 682.80,141.69 683.15,148.11 683.50,151.55 683.85,146.36 684.20,146.72 684.55,143.02 684.90,137.43 685.25,138.61 685.60,132.04 685.95,127.51 686.30,123.80 686.65,123.66 687.00,122.12 687.35,116.26 687.70,116.70 688.05,115.10 688.40,113.99 688.75,112.96 689.10,114.60 689.45,105.37 689.80,113.58 690.15,103.89 690.50,86.67 690.85,94.85 691.20,96.02 691.55,91.35 691.90,89.60 692.25,90.45 692.60,87.93 692.95,83.44 693.30,79.62 693.65,82.47 694.00,88.74 694.35,88.65 694.70,84.42 695.05,88.98 695.40,89.04 695.75,87.64 696.10,85.93 696.45,91.03 696.80,101.10 697.15,99.40 697.50,94.66 697.85,89.19 698.20,90.40 698.55,83.46 698.90,82.10 699.25,80.64 699.60,87.20 699.95,84.34 700.30,82.93 700.65,85.94 701.00,87.77 701.35,90.37 701.70,86.57 702.05,83.92 702.40,83.49 702.75,81.70 703.10,84.99 703.45,85.26 703.80,87.94 704.15,87.24 704.50,78.99 704.85,80.93 705.20,77.99 705.55,71.52 705.90,72.51 706.25,72.99 706.60,79.03 706.95,84.67 707.30,84.83 707.65,80.90 708.00,87.08 708.35,89.97 708.70,90.41 709.05,89.75 709.40,101.37 709.75,100.17 710.10,102.62 710.45,97.88 710.80,88.79 711.15,95.71 711.50,90.51 711.85,92.03 712.20,95.25 712.55,85.66 712.90,81.12 713.25,78.18 713.60,78.89 713.95,75.09 714.30,76.78 714.65,77.17 715.00,72.86 715.35,76.44 715.70,81.71 716.05,89.41 716.40,98.30 716.75,101.13 717.10,97.48 717.45,92.12 717.80,92.04 718.15,91.67 718.50,88.72 718.85,79.24 719.20,78.75 719.55,83.95 719.90,82.97 720.25,82.55 720.60,84.28 720.95,92.53 721.30,91.12 721.65,99.13 722.00,96.10 722.35,92.32 722.70,101.37 723.05,109.93 723.40,103.05 723.75,100.46 724.10,103.75 724.45,105.00 724.80,111.16 725.15,109.63 725.50,117.86 725.85,115.47 726.20,115.18 726.55,114.73 726.90,114.04 727.25,114.07 727.60,119.47 727.95,115.36 728.30,127.52 728.65,125.01 729.00,127.54 729.35,132.27 729.70,131.50 730.05,136.12 730.40,125.12 730.75,124.12 731.10,122.28 731.45,123.70 731.80,121.38 732.15,116.97 732.50,118.15 732.85,118.14 733.20,111.45 733.55,99.87 733.90,98.07 734.25,103.24 734.60,107.33 734.95,103.84 735.30,106.32 735.65,101.06 736.00,100.76 736.35,103.92 736.70,101.58 737.05,100.04 737.40,98.90 737.75,100.73 738.10,102.50 738.45,97.73 738.80,83.94 739.15,78.74 739.50,78.46 739.85,84.77 740.20,82.12 740.55,86.66 740.90,92.99 741.25,85.80 741.60,96.89 741.95,97.75 742.30,101.58 742.65,105.32 743.00,102.17 743.35,102.19 743.70,102.66 744.05,104.95 744.40,102.84 744.75,111.26 745.10,113.57 745.45,114.41 745.80,116.42 746.15,126.24 746.50,124.41 746.85,135.90 747.20,138.20 747.55,137.95 747.90,149.10 748.25,155.15 748.60,160.11 748.95,162.80 749.30,156.11 749.65,146.46 750.00,148.27 750.35,149.62 750.70,152.45 751.05,151.39 751.40,151.08 751.75,151.22 752.10,149.34 752.45,147.87 752.80,152.15 753.15,156.75 753.50,156.56 753.85,162.01 754.20,163.95 754.55,169.15 754.90,167.49 755.25,171.02 755.60,170.36 755.95,178.97 756.30,177.05 756.65,177.56 757.00,179.39 757.35,174.76 757.70,176.97 758.05,170.89 758.40,170.05 758.75,168.66 759.10,170.18 759.45,180.37 759.80,179.82 760.15,179.99 760.50,178.19 760.85,183.75 761.20,186.56 761.55,182.99 761.90,194.35 762.25,199.29 762.60,207.87 762.95,209.34 763.30,211.94 763.65,212.26 764.00,202.77 764.35,194.86 764.70,190.82 765.05,191.40 765.40,191.01 765.75,187.02 766.10,174.07 766.45,169.88 766.80,166.98 767.15,172.42 767.50,172.94 767.85,170.30 768.20,172.30 768.55,181.84 768.90,178.01 769.25,168.72 769.60,170.50 769.95,170.75 770.30,161.17 770.65,154.92 771.00,156.19 771.35,157.29 771.70,156.17 772.05,170.64 772.40,167.27 772.75,170.41 773.10,166.43 773.45,170.74 773.80,158.81 774.15,159.41 774.50,161.52 774.85,164.41 775.20,164.45 775.55,165.06 775.90,163.53 776.25,172.32 776.60,167.62 776.95,168.72 777.30,165.69 777.65,168.03 778.00,166.79 778.35,160.73 778.70,162.45 779.05,158.50 779.40,163.57 779.75,164.55 780.10,157.81 780.45,157.34 780.80,163.70 781.15,169.56 781.50,166.50 781.85,163.39 782.20,162.32 782.55,167.73 782.90,169.47 783.25,168.97 783.60,164.69 783.95,164.11 784.30,162.87 784.65,157.82 785.00,148.61"/>
<line x1="813" y1="54" x2="839" y2="54" stroke="#2563eb" stroke-width="3"/>
<text x="847" y="58" font-family="Arial" font-size="13" fill="#111827">low volatility</text>
<polyline fill="none" stroke="#dc2626" stroke-width="2" points="85.00,386.99 85.35,386.98 85.70,386.96 86.05,386.95 86.40,386.91 86.75,386.84 87.10,386.71 87.45,386.63 87.80,386.59 88.15,386.57 88.50,386.66 88.85,386.79 89.20,386.90 89.55,386.98 89.90,387.07 90.25,386.98 90.60,386.86 90.95,386.73 91.30,386.74 91.65,386.79 92.00,386.83 92.35,386.72 92.70,386.68 93.05,386.69 93.40,386.82 93.75,386.63 94.10,386.71 94.45,386.82 94.80,386.84 95.15,386.90 95.50,386.88 95.85,386.95 96.20,386.89 96.55,386.91 96.90,386.87 97.25,386.88 97.60,386.80 97.95,386.73 98.30,386.73 98.65,386.78 99.00,386.83 99.35,386.79 99.70,386.63 100.05,386.48 100.40,386.58 100.75,386.79 101.10,387.20 101.45,387.29 101.80,387.42 102.15,387.45 102.50,387.81 102.85,387.82 103.20,387.67 103.55,387.61 103.90,387.51 104.25,387.39 104.60,387.24 104.95,387.16 105.30,387.28 105.65,387.33 106.00,387.41 106.35,387.32 106.70,387.57 107.05,387.65 107.40,387.67 107.75,387.69 108.10,387.63 108.45,387.59 108.80,387.55 109.15,387.57 109.50,387.55 109.85,387.43 110.20,387.45 110.55,387.40 110.90,387.29 111.25,387.26 111.60,387.33 111.95,387.37 112.30,387.42 112.65,387.77 113.00,387.78 113.35,387.54 113.70,387.51 114.05,387.57 114.40,387.38 114.75,387.27 115.10,387.28 115.45,387.35 115.80,387.26 116.15,387.32 116.50,387.41 116.85,387.29 117.20,387.46 117.55,387.45 117.90,387.66 118.25,387.79 118.60,387.77 118.95,387.76 119.30,387.70 119.65,387.68 120.00,387.67 120.35,387.60 120.70,387.65 121.05,387.55 121.40,387.56 121.75,387.66 122.10,387.44 122.45,387.26 122.80,387.09 123.15,387.16 123.50,387.34 123.85,387.06 124.20,387.16 124.55,387.26 124.90,387.24 125.25,386.99 125.60,387.21 125.95,387.04 126.30,386.71 126.65,386.70 127.00,386.81 127.35,387.05 127.70,387.96 128.05,389.05 128.40,389.37 128.75,389.36 129.10,388.92 129.45,388.67 129.80,388.56 130.15,388.67 130.50,388.86 130.85,388.63 131.20,388.82 131.55,388.85 131.90,389.08 132.25,389.65 132.60,389.41 132.95,389.26 133.30,389.08 133.65,388.66 134.00,388.91 134.35,389.02 134.70,388.80 135.05,388.46 135.40,388.43 135.75,388.40 136.10,388.42 136.45,388.17 136.80,388.40 137.15,388.35 137.50,388.31 137.85,388.43 138.20,388.13 138.55,388.15 138.90,387.49 139.25,388.02 139.60,388.35 139.95,388.46 140.30,388.61 140.65,388.43 141.00,388.17 141.35,388.41 141.70,387.63 142.05,387.28 142.40,387.39 142.75,386.54 143.10,386.62 143.45,386.52 143.80,386.04 144.15,386.42 144.50,385.36 144.85,385.22 145.20,384.45 145.55,385.66 145.90,385.34 146.25,385.51 146.60,385.09 146.95,385.61 147.30,385.79 147.65,385.83 148.00,385.94 148.35,385.83 148.70,385.86 149.05,385.87 149.40,387.24 149.75,387.10 150.10,386.16 150.45,386.35 150.80,386.61 151.15,386.20 151.50,386.01 151.85,385.10 152.20,384.84 152.55,385.51 152.90,385.59 153.25,386.38 153.60,386.39 153.95,386.69 154.30,386.66 154.65,386.49 155.00,386.56 155.35,384.22 155.70,386.30 156.05,386.15 156.40,385.81 156.75,386.63 157.10,385.30 157.45,385.18 157.80,385.52 158.15,385.03 158.50,384.27 158.85,384.02 159.20,384.23 159.55,384.97 159.90,385.95 160.25,383.10 160.60,382.04 160.95,383.36 161.30,383.76 161.65,382.82 162.00,381.93 162.35,380.90 162.70,381.33 163.05,381.80 163.40,382.95 163.75,384.91 164.10,385.72 164.45,384.50 164.80,384.45 165.15,385.67 165.50,387.74 165.85,388.78 166.20,388.88 166.55,387.81 166.90,385.32 167.25,385.24 167.60,383.67 167.95,383.01 168.30,385.61 168.65,388.39 169.00,389.59 169.35,390.53 169.70,393.50 170.05,391.84 170.40,390.05 170.75,389.01 171.10,389.60 171.45,390.06 171.80,390.79 172.15,391.11 172.50,391.36 172.85,391.92 173.20,392.41 173.55,392.60 173.90,392.13 174.25,392.77 174.60,393.12 174.95,394.89 175.30,393.73 175.65,393.57 176.00,395.04 176.35,395.29 176.70,395.03 177.05,396.51 177.40,397.18 177.75,396.72 178.10,396.88 178.45,395.32 178.80,394.46 179.15,394.24 179.50,394.11 179.85,393.55 180.20,393.20 180.55,394.99 180.90,395.30 181.25,395.29 181.60,395.24 181.95,394.12 182.30,393.88 182.65,394.63 183.00,395.03 183.35,395.84 183.70,395.72 184.05,394.76 184.40,394.31 184.75,394.75 185.10,394.32 185.45,395.49 185.80,395.80 186.15,394.70 186.50,394.52 186.85,394.55 187.20,394.71 187.55,394.99 187.90,394.80 188.25,394.67 188.60,394.41 188.95,394.60 189.30,394.39 189.65,394.50 190.00,394.66 190.35,394.58 190.70,394.50 191.05,394.42 191.40,394.42 191.75,394.44 192.10,394.38 192.45,394.31 192.80,394.25 193.15,394.17 193.50,394.03 193.85,394.01 194.20,394.01 194.55,393.90 194.90,393.82 195.25,393.76 195.60,393.61 195.95,393.57 196.30,393.55 196.65,393.49 197.00,393.52 197.35,393.30 197.70,393.38 198.05,393.49 198.40,392.76 198.75,393.19 199.10,393.00 199.45,393.49 199.80,392.94 200.15,392.55 200.50,392.65 200.85,392.91 201.20,392.48 201.55,393.26 201.90,393.26 202.25,393.52 202.60,394.33 202.95,393.29 203.30,392.61 203.65,391.85 204.00,391.25 204.35,392.37 204.70,391.94 205.05,391.14 205.40,391.83 205.75,391.89 206.10,392.39 206.45,392.62 206.80,392.51 207.15,391.11 207.50,389.88 207.85,389.24 208.20,388.48 208.55,386.58 208.90,386.18 209.25,386.35 209.60,385.13 209.95,387.14 210.30,387.80 210.65,388.18 211.00,387.14 211.35,384.97 211.70,385.02 212.05,383.95 212.40,384.78 212.75,386.10 213.10,386.26 213.45,386.15 213.80,386.22 214.15,388.02 214.50,388.13 214.85,388.15 215.20,388.79 215.55,387.01 215.90,387.07 216.25,386.79 216.60,386.44 216.95,386.42 217.30,387.15 217.65,387.60 218.00,385.45 218.35,386.98 218.70,387.58 219.05,388.73 219.40,387.95 219.75,385.19 220.10,388.26 220.45,384.90 220.80,385.03 221.15,383.59 221.50,383.21 221.85,381.94 222.20,384.17 222.55,385.73 222.90,384.34 223.25,382.72 223.60,383.64 223.95,380.69 224.30,382.23 224.65,384.49 225.00,383.55 225.35,385.01 225.70,383.97 226.05,383.21 226.40,380.57 226.75,380.59 227.10,380.69 227.45,382.28 227.80,382.39 228.15,386.00 228.50,383.86 228.85,385.16 229.20,385.89 229.55,387.35 229.90,389.05 230.25,391.31 230.60,392.28 230.95,388.90 231.30,391.04 231.65,392.05 232.00,392.40 232.35,396.04 232.70,397.43 233.05,396.48 233.40,396.37 233.75,399.92 234.10,399.76 234.45,404.28 234.80,402.25 235.15,401.55 235.50,405.12 235.85,404.81 236.20,405.54 236.55,404.39 236.90,404.18 237.25,401.17 237.60,399.98 237.95,399.14 238.30,400.03 238.65,400.83 239.00,401.33 239.35,399.46 239.70,399.30 240.05,400.03 240.40,400.44 240.75,399.66 241.10,402.10 241.45,402.68 241.80,403.43 242.15,404.58 242.50,401.55 242.85,400.11 243.20,398.71 243.55,396.08 243.90,394.95 244.25,392.09 244.60,392.28 244.95,389.33 245.30,388.44 245.65,390.11 246.00,390.86 246.35,392.31 246.70,392.79 247.05,394.83 247.40,394.44 247.75,394.07 248.10,392.36 248.45,392.57 248.80,390.77 249.15,388.85 249.50,386.08 249.85,386.21 250.20,383.65 250.55,384.75 250.90,384.49 251.25,384.35 251.60,380.97 251.95,380.13 252.30,377.45 252.65,376.37 253.00,376.54 253.35,374.46 253.70,373.24 254.05,372.67 254.40,371.15 254.75,372.40 255.10,369.78 255.45,368.42 255.80,367.08 256.15,365.64 256.50,367.09 256.85,364.68 257.20,365.87 257.55,366.86 257.90,363.66 258.25,360.09 258.60,360.90 258.95,360.30 259.30,357.92 259.65,359.57 260.00,358.13 260.35,354.40 260.70,353.84 261.05,355.59 261.40,351.84 261.75,354.05 262.10,348.08 262.45,351.79 262.80,347.84 263.15,344.53 263.50,344.49 263.85,347.45 264.20,350.30 264.55,351.38 264.90,353.01 265.25,358.61 265.60,358.60 265.95,358.58 266.30,361.00 266.65,361.84 267.00,360.99 267.35,366.19 267.70,364.16 268.05,362.26 268.40,366.82 268.75,362.54 269.10,363.43 269.45,364.28 269.80,366.58 270.15,367.91 270.50,366.85 270.85,367.49 271.20,366.53 271.55,370.62 271.90,370.73 272.25,368.68 272.60,365.52 272.95,361.66 273.30,362.20 273.65,361.85 274.00,358.62 274.35,361.56 274.70,361.90 275.05,359.79 275.40,353.41 275.75,358.34 276.10,360.08 276.45,365.57 276.80,366.61 277.15,369.32 277.50,372.38 277.85,371.59 278.20,368.27 278.55,368.22 278.90,367.43 279.25,365.89 279.60,366.94 279.95,370.35 280.30,365.94 280.65,366.33 281.00,367.71 281.35,367.60 281.70,363.93 282.05,365.30 282.40,365.94 282.75,365.01 283.10,361.42 283.45,360.67 283.80,362.02 284.15,361.30 284.50,359.48 284.85,355.88 285.20,354.66 285.55,353.93 285.90,354.20 286.25,356.95 286.60,357.78 286.95,361.16 287.30,357.41 287.65,355.62 288.00,354.38 288.35,357.84 288.70,360.80 289.05,356.65 289.40,355.26 289.75,352.99 290.10,350.72 290.45,352.98 290.80,355.30 291.15,347.53 291.50,341.21 291.85,342.87 292.20,343.00 292.55,339.61 292.90,339.84 293.25,339.53 293.60,343.14 293.95,342.84 294.30,344.91 294.65,348.51 295.00,349.16 295.35,343.04 295.70,346.12 296.05,349.67 296.40,344.79 296.75,352.48 297.10,352.71 297.45,350.61 297.80,353.10 298.15,356.02 298.50,356.57 298.85,357.53 299.20,355.33 299.55,345.56 299.90,348.86 300.25,347.27 300.60,350.38 300.95,346.54 301.30,346.93 301.65,345.24 302.00,340.40 302.35,342.75 302.70,342.85 303.05,341.68 303.40,337.61 303.75,334.08 304.10,334.73 304.45,339.92 304.80,342.20 305.15,341.76 305.50,343.45 305.85,343.74 306.20,346.34 306.55,339.86 306.90,340.92 307.25,347.18 307.60,345.22 307.95,350.16 308.30,350.56 308.65,354.23 309.00,355.33 309.35,354.69 309.70,357.76 310.05,358.77 310.40,364.40 310.75,362.45 311.10,363.26 311.45,369.66 311.80,365.91 312.15,365.76 312.50,367.84 312.85,367.99 313.20,371.61 313.55,367.18 313.90,362.64 314.25,365.73 314.60,357.81 314.95,359.86 315.30,362.63 315.65,364.20 316.00,357.55 316.35,355.29 316.70,353.26 317.05,347.90 317.40,347.80 317.75,355.70 318.10,348.32 318.45,342.53 318.80,339.10 319.15,337.93 319.50,334.60 319.85,329.18 320.20,331.67 320.55,328.46 320.90,326.35 321.25,325.88 321.60,329.73 321.95,332.64 322.30,334.89 322.65,325.54 323.00,328.81 323.35,327.90 323.70,332.67 324.05,331.00 324.40,330.80 324.75,332.36 325.10,331.60 325.45,333.31 325.80,332.51 326.15,327.33 326.50,326.07 326.85,321.97 327.20,322.28 327.55,320.06 327.90,325.54 328.25,325.65 328.60,327.93 328.95,327.33 329.30,328.68 329.65,330.39 330.00,329.17 330.35,331.93 330.70,336.24 331.05,337.02 331.40,329.51 331.75,331.07 332.10,332.00 332.45,324.65 332.80,324.99 333.15,322.22 333.50,310.02 333.85,306.37 334.20,303.07 334.55,307.65 334.90,303.04 335.25,307.44 335.60,300.89 335.95,301.51 336.30,306.21 336.65,306.92 337.00,306.61 337.35,305.77 337.70,306.33 338.05,304.56 338.40,302.79 338.75,311.81 339.10,305.62 339.45,301.70 339.80,298.33 340.15,296.79 340.50,297.06 340.85,299.38 341.20,298.57 341.55,292.68 341.90,297.25 342.25,306.39 342.60,296.31 342.95,287.46 343.30,284.92 343.65,291.22 344.00,290.57 344.35,290.25 344.70,291.16 345.05,292.97 345.40,293.71 345.75,286.60 346.10,288.06 346.45,288.46 346.80,283.90 347.15,275.03 347.50,276.20 347.85,278.20 348.20,270.57 348.55,276.80 348.90,269.01 349.25,262.95 349.60,258.36 349.95,254.60 350.30,248.24 350.65,244.68 351.00,245.13 351.35,244.18 351.70,240.40 352.05,230.72 352.40,228.34 352.75,228.29 353.10,223.64 353.45,224.61 353.80,219.34 354.15,226.48 354.50,217.96 354.85,210.26 355.20,210.96 355.55,214.82 355.90,217.57 356.25,236.57 356.60,241.61 356.95,237.87 357.30,230.14 357.65,237.85 358.00,236.87 358.35,240.32 358.70,239.76 359.05,231.30 359.40,229.62 359.75,225.47 360.10,233.18 360.45,231.01 360.80,231.44 361.15,231.50 361.50,235.31 361.85,232.33 362.20,237.61 362.55,228.86 362.90,230.83 363.25,240.14 363.60,238.65 363.95,233.73 364.30,229.25 364.65,237.30 365.00,244.23 365.35,246.73 365.70,248.41 366.05,259.84 366.40,267.19 366.75,262.88 367.10,271.47 367.45,273.67 367.80,276.12 368.15,285.73 368.50,282.99 368.85,278.64 369.20,264.51 369.55,254.34 369.90,250.18 370.25,250.24 370.60,247.02 370.95,252.11 371.30,235.70 371.65,224.55 372.00,224.34 372.35,220.15 372.70,219.52 373.05,225.88 373.40,231.03 373.75,233.43 374.10,228.54 374.45,233.64 374.80,236.17 375.15,233.76 375.50,227.32 375.85,223.67 376.20,214.97 376.55,212.50 376.90,209.95 377.25,212.68 377.60,207.82 377.95,208.53 378.30,207.95 378.65,211.46 379.00,216.28 379.35,209.39 379.70,221.47 380.05,218.28 380.40,209.57 380.75,206.94 381.10,208.97 381.45,207.07 381.80,206.51 382.15,211.66 382.50,211.51 382.85,211.06 383.20,205.18 383.55,212.07 383.90,209.21 384.25,214.87 384.60,217.91 384.95,224.94 385.30,222.48 385.65,223.31 386.00,223.46 386.35,222.48 386.70,227.46 387.05,220.28 387.40,218.42 387.75,218.32 388.10,218.00 388.45,229.99 388.80,233.44 389.15,230.90 389.50,233.02 389.85,224.81 390.20,223.48 390.55,230.96 390.90,234.14 391.25,230.04 391.60,238.57 391.95,244.26 392.30,237.95 392.65,232.75 393.00,228.50 393.35,227.74 393.70,236.09 394.05,250.53 394.40,235.38 394.75,238.13 395.10,229.70 395.45,237.50 395.80,234.51 396.15,224.81 396.50,229.89 396.85,234.60 397.20,239.95 397.55,236.55 397.90,249.84 398.25,253.18 398.60,253.28 398.95,249.67 399.30,249.75 399.65,244.27 400.00,240.76 400.35,235.76 400.70,232.56 401.05,238.58 401.40,232.64 401.75,230.52 402.10,227.02 402.45,223.47 402.80,219.00 403.15,217.89 403.50,215.88 403.85,224.56 404.20,230.95 404.55,230.43 404.90,221.45 405.25,217.88 405.60,230.47 405.95,218.53 406.30,214.42 406.65,219.30 407.00,211.26 407.35,209.90 407.70,212.81 408.05,227.64 408.40,231.13 408.75,230.56 409.10,246.05 409.45,247.55 409.80,252.41 410.15,256.30 410.50,257.17 410.85,255.22 411.20,256.46 411.55,252.43 411.90,256.16 412.25,251.17 412.60,245.90 412.95,243.02 413.30,244.70 413.65,250.81 414.00,248.73 414.35,245.21 414.70,250.40 415.05,247.68 415.40,254.87 415.75,249.15 416.10,245.28 416.45,237.63 416.80,235.91 417.15,229.04 417.50,234.46 417.85,241.51 418.20,249.19 418.55,247.02 418.90,250.40 419.25,254.00 419.60,260.84 419.95,268.08 420.30,270.26 420.65,271.65 421.00,274.78 421.35,278.00 421.70,275.49 422.05,281.81 422.40,292.38 422.75,293.24 423.10,296.65 423.45,296.83 423.80,298.34 424.15,297.31 424.50,304.08 424.85,301.51 425.20,307.76 425.55,309.31 425.90,300.96 426.25,303.28 426.60,298.42 426.95,296.86 427.30,293.08 427.65,296.96 428.00,301.03 428.35,304.20 428.70,309.67 429.05,317.11 429.40,305.49 429.75,302.01 430.10,298.18 430.45,298.34 430.80,295.67 431.15,296.37 431.50,297.61 431.85,296.97 432.20,296.25 432.55,291.66 432.90,290.10 433.25,289.84 433.60,292.59 433.95,289.48 434.30,300.21 434.65,296.49 435.00,299.35 435.35,288.56 435.70,287.35 436.05,296.39 436.40,296.95 436.75,288.71 437.10,287.61 437.45,294.38 437.80,287.70 438.15,291.39 438.50,292.38 438.85,288.73 439.20,286.72 439.55,289.82 439.90,289.12 440.25,293.27 440.60,291.66 440.95,295.01 441.30,297.00 441.65,297.49 442.00,294.97 442.35,302.09 442.70,310.13 443.05,316.80 443.40,321.80 443.75,328.89 444.10,323.26 444.45,317.11 444.80,325.39 445.15,317.49 445.50,319.57 445.85,320.77 446.20,321.56 446.55,321.54 446.90,312.84 447.25,316.10 447.60,312.44 447.95,318.34 448.30,319.16 448.65,308.84 449.00,308.86 449.35,311.44 449.70,321.51 450.05,326.59 450.40,329.73 450.75,324.75 451.10,320.70 451.45,330.50 451.80,329.08 452.15,329.02 452.50,323.36 452.85,325.61 453.20,332.04 453.55,334.29 453.90,335.14 454.25,336.88 454.60,341.41 454.95,345.99 455.30,345.00 455.65,345.55 456.00,343.48 456.35,344.62 456.70,349.41 457.05,351.81 457.40,351.04 457.75,349.93 458.10,354.85 458.45,354.70 458.80,348.58 459.15,350.79 459.50,348.86 459.85,354.57 460.20,358.25 460.55,357.85 460.90,354.32 461.25,351.29 461.60,350.53 461.95,349.33 462.30,354.37 462.65,350.27 463.00,345.25 463.35,345.75 463.70,346.39 464.05,340.65 464.40,342.70 464.75,342.37 465.10,343.44 465.45,341.44 465.80,341.94 466.15,337.29 466.50,341.53 466.85,343.86 467.20,342.06 467.55,345.50 467.90,349.79 468.25,350.62 468.60,345.24 468.95,349.89 469.30,353.79 469.65,359.12 470.00,358.86 470.35,358.24 470.70,362.35 471.05,365.37 471.40,365.98 471.75,360.88 472.10,359.10 472.45,355.04 472.80,355.78 473.15,358.23 473.50,359.09 473.85,357.09 474.20,357.81 474.55,356.70 474.90,363.67 475.25,363.68 475.60,366.75 475.95,361.45 476.30,361.73 476.65,361.43 477.00,362.47 477.35,364.46 477.70,363.08 478.05,362.24 478.40,363.86 478.75,357.94 479.10,357.18 479.45,356.88 479.80,358.49 480.15,355.06 480.50,351.19 480.85,354.58 481.20,352.77 481.55,351.71 481.90,351.14 482.25,350.22 482.60,352.07 482.95,357.55 483.30,360.76 483.65,364.88 484.00,365.28 484.35,366.05 484.70,367.21 485.05,365.41 485.40,362.61 485.75,362.74 486.10,365.19 486.45,367.18 486.80,363.50 487.15,364.52 487.50,361.88 487.85,366.05 488.20,365.43 488.55,365.82 488.90,366.53 489.25,368.98 489.60,368.77 489.95,369.59 490.30,370.09 490.65,373.07 491.00,372.40 491.35,369.01 491.70,365.81 492.05,364.68 492.40,362.97 492.75,363.59 493.10,361.67 493.45,363.40 493.80,361.05 494.15,362.78 494.50,363.03 494.85,367.90 495.20,370.35 495.55,371.72 495.90,370.61 496.25,369.28 496.60,368.94 496.95,365.26 497.30,364.61 497.65,365.12 498.00,365.21 498.35,367.49 498.70,364.20 499.05,365.85 499.40,368.74 499.75,367.36 500.10,365.84 500.45,362.79 500.80,360.41 501.15,361.19 501.50,358.89 501.85,355.54 502.20,354.08 502.55,356.31 502.90,355.39 503.25,355.58 503.60,356.36 503.95,355.38 504.30,351.50 504.65,352.40 505.00,356.31 505.35,358.60 505.70,358.15 506.05,357.76 506.40,361.73 506.75,361.53 507.10,362.52 507.45,362.77 507.80,364.23 508.15,362.20 508.50,357.63 508.85,361.27 509.20,364.63 509.55,364.53 509.90,362.14 510.25,359.07 510.60,361.20 510.95,364.91 511.30,366.14 511.65,370.84 512.00,368.66 512.35,369.30 512.70,370.92 513.05,373.60 513.40,373.41 513.75,375.23 514.10,371.82 514.45,368.62 514.80,370.61 515.15,371.25 515.50,368.88 515.85,369.52 516.20,366.93 516.55,366.71 516.90,368.81 517.25,369.18 517.60,371.93 517.95,370.21 518.30,369.19 518.65,369.29 519.00,367.04 519.35,372.00 519.70,371.94 520.05,368.17 520.40,365.65 520.75,364.52 521.10,366.43 521.45,365.49 521.80,365.68 522.15,364.89 522.50,366.57 522.85,367.25 523.20,367.60 523.55,368.16 523.90,367.24 524.25,365.80 524.60,363.42 524.95,364.64 525.30,365.72 525.65,366.53 526.00,366.65 526.35,365.50 526.70,366.48 527.05,368.05 527.40,369.10 527.75,369.18 528.10,369.53 528.45,369.10 528.80,365.50 529.15,364.08 529.50,361.36 529.85,361.18 530.20,360.34 530.55,358.49 530.90,360.09 531.25,363.77 531.60,364.23 531.95,364.93 532.30,366.35 532.65,364.21 533.00,362.36 533.35,361.75 533.70,357.81 534.05,357.64 534.40,357.16 534.75,356.59 535.10,353.60 535.45,356.68 535.80,357.18 536.15,353.69 536.50,353.72 536.85,353.88 537.20,354.61 537.55,353.29 537.90,351.86 538.25,353.06 538.60,354.47 538.95,354.78 539.30,356.41 539.65,354.65 540.00,354.27 540.35,354.36 540.70,356.88 541.05,356.01 541.40,351.68 541.75,353.15 542.10,351.19 542.45,349.64 542.80,346.84 543.15,347.13 543.50,344.75 543.85,345.43 544.20,348.81 544.55,352.04 544.90,355.83 545.25,355.71 545.60,352.42 545.95,356.01 546.30,356.36 546.65,354.14 547.00,356.51 547.35,357.38 547.70,358.14 548.05,363.80 548.40,362.65 548.75,365.87 549.10,366.73 549.45,365.55 549.80,368.57 550.15,371.22 550.50,372.16 550.85,373.91 551.20,371.38 551.55,370.20 551.90,370.48 552.25,373.02 552.60,371.45 552.95,370.54 553.30,371.25 553.65,374.24 554.00,376.57 554.35,375.89 554.70,376.08 555.05,377.00 555.40,374.50 555.75,376.97 556.10,373.83 556.45,378.87 556.80,379.65 557.15,378.55 557.50,376.00 557.85,372.32 558.20,373.50 558.55,374.05 558.90,375.67 559.25,373.05 559.60,372.51 559.95,370.62 560.30,372.16 560.65,372.66 561.00,372.11 561.35,372.51 561.70,370.11 562.05,371.58 562.40,367.11 562.75,367.18 563.10,365.53 563.45,364.03 563.80,365.51 564.15,362.40 564.50,364.51 564.85,365.05 565.20,362.72 565.55,360.40 565.90,362.30 566.25,363.16 566.60,358.60 566.95,356.39 567.30,358.28 567.65,360.54 568.00,358.91 568.35,358.53 568.70,353.96 569.05,353.39 569.40,352.26 569.75,352.20 570.10,354.67 570.45,356.05 570.80,358.79 571.15,361.76 571.50,359.90 571.85,356.55 572.20,359.38 572.55,355.35 572.90,353.52 573.25,352.32 573.60,352.07 573.95,353.87 574.30,359.28 574.65,357.47 575.00,361.33 575.35,361.01 575.70,359.85 576.05,361.86 576.40,361.39 576.75,363.95 577.10,361.38 577.45,359.36 577.80,360.39 578.15,360.91 578.50,363.44 578.85,364.73 579.20,364.33 579.55,366.54 579.90,368.95 580.25,367.75 580.60,367.70 580.95,366.49 581.30,365.47 581.65,367.21 582.00,366.56 582.35,366.20 582.70,367.74 583.05,366.13 583.40,367.02 583.75,368.42 584.10,370.53 584.45,373.82 584.80,374.55 585.15,376.07 585.50,375.78 585.85,379.64 586.20,380.24 586.55,382.17 586.90,384.95 587.25,388.87 587.60,390.16 587.95,387.92 588.30,386.77 588.65,387.58 589.00,385.62 589.35,385.32 589.70,387.72 590.05,384.52 590.40,385.00 590.75,383.23 591.10,382.56 591.45,387.11 591.80,386.09 592.15,383.44 592.50,386.05 592.85,388.16 593.20,388.66 593.55,387.66 593.90,386.27 594.25,386.02 594.60,385.06 594.95,384.05 595.30,383.08 595.65,384.89 596.00,384.93 596.35,385.78 596.70,384.54 597.05,382.25 597.40,379.74 597.75,378.16 598.10,379.11 598.45,381.99 598.80,380.43 599.15,380.14 599.50,381.34 599.85,383.01 600.20,380.99 600.55,381.27 600.90,382.62 601.25,383.73 601.60,384.55 601.95,383.64 602.30,383.95 602.65,385.40 603.00,385.08 603.35,384.51 603.70,382.92 604.05,380.82 604.40,380.83 604.75,381.44 605.10,380.39 605.45,380.28 605.80,380.97 606.15,381.86 606.50,381.05 606.85,381.13 607.20,379.73 607.55,378.80 607.90,378.11 608.25,377.89 608.60,376.75 608.95,377.30 609.30,378.97 609.65,377.84 610.00,376.20 610.35,376.12 610.70,376.59 611.05,375.90 611.40,374.76 611.75,374.40 612.10,375.50 612.45,377.66 612.80,379.03 613.15,379.41 613.50,379.68 613.85,379.37 614.20,377.95 614.55,376.92 614.90,376.61 615.25,376.92 615.60,378.70 615.95,378.80 616.30,378.00 616.65,378.96 617.00,378.10 617.35,378.13 617.70,376.88 618.05,374.31 618.40,372.81 618.75,371.63 619.10,371.63 619.45,371.23 619.80,369.63 620.15,367.66 620.50,367.60 620.85,367.52 621.20,368.03 621.55,367.31 621.90,366.34 622.25,364.44 622.60,363.69 622.95,367.20 623.30,369.07 623.65,368.86 624.00,368.62 624.35,368.31 624.70,366.63 625.05,366.20 625.40,366.99 625.75,366.12 626.10,363.74 626.45,367.14 626.80,366.93 627.15,368.86 627.50,371.20 627.85,371.71 628.20,372.66 628.55,374.21 628.90,372.75 629.25,374.52 629.60,373.34 629.95,373.92 630.30,374.45 630.65,374.59 631.00,375.20 631.35,371.80 631.70,373.15 632.05,370.58 632.40,369.68 632.75,370.39 633.10,370.34 633.45,372.12 633.80,373.72 634.15,370.35 634.50,371.29 634.85,372.79 635.20,369.00 635.55,365.78 635.90,367.38 636.25,366.37 636.60,366.77 636.95,368.06 637.30,370.26 637.65,369.14 638.00,366.67 638.35,365.65 638.70,364.67 639.05,363.59 639.40,361.77 639.75,361.20 640.10,364.16 640.45,364.61 640.80,365.93 641.15,364.44 641.50,368.73 641.85,368.60 642.20,364.94 642.55,365.31 642.90,364.49 643.25,359.84 643.60,358.08 643.95,360.04 644.30,358.61 644.65,358.34 645.00,357.65 645.35,359.54 645.70,358.19 646.05,356.83 646.40,357.44 646.75,353.81 647.10,355.32 647.45,354.86 647.80,352.04 648.15,355.13 648.50,354.16 648.85,351.89 649.20,352.90 649.55,352.16 649.90,351.07 650.25,350.95 650.60,352.78 650.95,356.26 651.30,358.59 651.65,355.63 652.00,355.62 652.35,353.65 652.70,353.17 653.05,353.45 653.40,356.14 653.75,357.75 654.10,360.66 654.45,362.21 654.80,363.32 655.15,361.69 655.50,359.89 655.85,361.69 656.20,357.03 656.55,359.22 656.90,360.23 657.25,356.48 657.60,352.89 657.95,346.60 658.30,346.52 658.65,349.28 659.00,351.11 659.35,349.05 659.70,344.26 660.05,349.12 660.40,349.82 660.75,352.70 661.10,351.93 661.45,352.95 661.80,353.35 662.15,348.88 662.50,343.94 662.85,347.06 663.20,344.20 663.55,343.38 663.90,342.90 664.25,344.72 664.60,341.80 664.95,343.10 665.30,338.83 665.65,334.07 666.00,332.70 666.35,332.09 666.70,332.17 667.05,333.96 667.40,333.64 667.75,333.09 668.10,335.86 668.45,330.11 668.80,326.87 669.15,323.79 669.50,323.74 669.85,324.67 670.20,326.76 670.55,328.50 670.90,327.32 671.25,322.22 671.60,322.81 671.95,325.08 672.30,322.78 672.65,325.73 673.00,323.10 673.35,317.08 673.70,313.05 674.05,314.30 674.40,311.69 674.75,311.93 675.10,309.51 675.45,308.67 675.80,311.92 676.15,315.58 676.50,314.43 676.85,320.66 677.20,319.61 677.55,323.21 677.90,323.52 678.25,329.64 678.60,332.38 678.95,327.37 679.30,327.88 679.65,328.92 680.00,329.04 680.35,325.71 680.70,324.00 681.05,326.20 681.40,327.61 681.75,331.45 682.10,328.95 682.45,328.55 682.80,336.46 683.15,340.49 683.50,336.89 683.85,329.64 684.20,329.16 684.55,325.49 684.90,321.94 685.25,319.14 685.60,323.34 685.95,322.89 686.30,324.97 686.65,322.91 687.00,323.89 687.35,321.65 687.70,319.34 688.05,326.89 688.40,332.70 688.75,327.61 689.10,334.42 689.45,340.15 689.80,338.09 690.15,333.05 690.50,338.34 690.85,335.85 691.20,328.94 691.55,329.40 691.90,328.08 692.25,330.30 692.60,328.01 692.95,325.89 693.30,332.05 693.65,338.25 694.00,330.43 694.35,332.27 694.70,328.84 695.05,333.23 695.40,329.51 695.75,326.14 696.10,330.64 696.45,338.35 696.80,340.90 697.15,344.19 697.50,342.11 697.85,340.40 698.20,343.99 698.55,341.02 698.90,346.15 699.25,338.60 699.60,338.79 699.95,339.25 700.30,344.66 700.65,345.86 701.00,343.60 701.35,338.06 701.70,335.48 702.05,331.07 702.40,334.27 702.75,335.48 703.10,340.84 703.45,342.01 703.80,332.94 704.15,325.02 704.50,331.21 704.85,328.27 705.20,337.23 705.55,335.78 705.90,341.37 706.25,345.75 706.60,347.27 706.95,345.27 707.30,350.06 707.65,352.27 708.00,353.20 708.35,349.24 708.70,353.58 709.05,359.34 709.40,355.88 709.75,353.80 710.10,357.39 710.45,355.59 710.80,358.84 711.15,362.72 711.50,365.61 711.85,367.37 712.20,367.65 712.55,371.73 712.90,373.46 713.25,371.35 713.60,370.16 713.95,370.83 714.30,369.55 714.65,372.08 715.00,370.19 715.35,372.77 715.70,366.44 716.05,371.21 716.40,371.08 716.75,365.92 717.10,364.70 717.45,363.28 717.80,367.14 718.15,367.85 718.50,368.21 718.85,364.19 719.20,362.06 719.55,360.00 719.90,357.25 720.25,359.26 720.60,357.28 720.95,361.08 721.30,359.57 721.65,359.40 722.00,354.77 722.35,354.86 722.70,354.04 723.05,349.69 723.40,345.16 723.75,347.26 724.10,353.27 724.45,351.11 724.80,343.42 725.15,346.86 725.50,346.47 725.85,347.40 726.20,343.69 726.55,341.51 726.90,340.92 727.25,344.38 727.60,342.16 727.95,337.03 728.30,334.30 728.65,330.98 729.00,336.37 729.35,340.59 729.70,342.39 730.05,342.69 730.40,340.84 730.75,336.45 731.10,336.03 731.45,340.42 731.80,341.15 732.15,349.59 732.50,344.72 732.85,348.79 733.20,348.35 733.55,350.27 733.90,344.54 734.25,340.60 734.60,337.62 734.95,334.90 735.30,328.22 735.65,333.19 736.00,337.18 736.35,334.55 736.70,335.06 737.05,336.61 737.40,339.00 737.75,338.97 738.10,338.34 738.45,339.56 738.80,342.47 739.15,349.16 739.50,351.31 739.85,350.43 740.20,352.01 740.55,351.36 740.90,351.67 741.25,354.14 741.60,353.16 741.95,350.51 742.30,351.94 742.65,353.84 743.00,351.46 743.35,351.65 743.70,352.23 744.05,351.54 744.40,353.97 744.75,349.61 745.10,346.87 745.45,349.11 745.80,350.10 746.15,346.46 746.50,349.16 746.85,352.26 747.20,352.27 747.55,353.06 747.90,350.24 748.25,353.31 748.60,348.95 748.95,348.26 749.30,347.13 749.65,348.53 750.00,350.30 750.35,349.43 750.70,348.77 751.05,349.92 751.40,354.70 751.75,348.00 752.10,347.34 752.45,345.27 752.80,344.43 753.15,344.35 753.50,345.69 753.85,349.97 754.20,349.64 754.55,349.80 754.90,347.05 755.25,346.35 755.60,352.59 755.95,347.36 756.30,341.41 756.65,338.63 757.00,345.85 757.35,351.99 757.70,353.34 758.05,353.70 758.40,356.09 758.75,355.15 759.10,351.93 759.45,358.70 759.80,353.71 760.15,353.00 760.50,346.93 760.85,348.84 761.20,346.70 761.55,352.06 761.90,348.37 762.25,350.48 762.60,347.94 762.95,342.64 763.30,339.10 763.65,340.43 764.00,343.58 764.35,342.46 764.70,342.35 765.05,342.09 765.40,341.99 765.75,344.68 766.10,350.23 766.45,351.99 766.80,353.45 767.15,358.14 767.50,355.13 767.85,357.58 768.20,354.10 768.55,350.84 768.90,353.93 769.25,359.13 769.60,357.87 769.95,353.52 770.30,356.70 770.65,361.24 771.00,359.36 771.35,362.70 771.70,361.01 772.05,359.78 772.40,359.83 772.75,362.06 773.10,362.86 773.45,367.44 773.80,364.69 774.15,363.56 774.50,360.61 774.85,356.14 775.20,354.99 775.55,349.27 775.90,351.70 776.25,349.33 776.60,348.66 776.95,347.83 777.30,344.52 777.65,346.97 778.00,346.82 778.35,346.24 778.70,341.75 779.05,336.64 779.40,339.87 779.75,339.82 780.10,343.70 780.45,342.92 780.80,345.98 781.15,346.73 781.50,338.98 781.85,339.24 782.20,341.53 782.55,339.78 782.90,341.02 783.25,348.21 783.60,348.66 783.95,347.02 784.30,349.79 784.65,350.55 785.00,353.16"/>
<line x1="813" y1="78" x2="839" y2="78" stroke="#dc2626" stroke-width="3"/>
<text x="847" y="82" font-family="Arial" font-size="13" fill="#111827">high volatility</text>
<polyline fill="none" stroke="#059669" stroke-width="2" points="85.00,386.99 85.35,386.98 85.70,386.96 86.05,386.94 86.40,386.93 86.75,386.92 87.10,386.91 87.45,386.90 87.80,386.89 88.15,386.88 88.50,386.87 88.85,386.85 89.20,386.84 89.55,386.83 89.90,386.81 90.25,386.81 90.60,386.80 90.95,386.78 91.30,386.76 91.65,386.75 92.00,386.74 92.35,386.72 92.70,386.72 93.05,386.71 93.40,386.69 93.75,386.66 94.10,386.63 94.45,386.63 94.80,386.63 95.15,386.58 95.50,386.55 95.85,386.54 96.20,386.44 96.55,386.31 96.90,386.18 97.25,386.12 97.60,386.13 97.95,386.14 98.30,385.80 98.65,385.93 99.00,385.99 99.35,385.88 99.70,385.47 100.05,385.51 100.40,385.32 100.75,385.21 101.10,385.26 101.45,384.93 101.80,384.76 102.15,384.82 102.50,384.89 102.85,384.83 103.20,384.71 103.55,384.67 103.90,384.48 104.25,384.68 104.60,384.40 104.95,383.92 105.30,384.03 105.65,384.26 106.00,384.66 106.35,384.68 106.70,384.58 107.05,384.19 107.40,384.39 107.75,384.11 108.10,383.83 108.45,384.19 108.80,383.72 109.15,383.55 109.50,383.19 109.85,383.48 110.20,383.22 110.55,383.99 110.90,384.14 111.25,384.25 111.60,383.74 111.95,384.48 112.30,383.76 112.65,384.27 113.00,384.33 113.35,384.64 113.70,384.21 114.05,385.25 114.40,385.43 114.75,385.44 115.10,384.97 115.45,384.92 115.80,385.28 116.15,385.29 116.50,385.94 116.85,385.37 117.20,385.54 117.55,384.01 117.90,385.13 118.25,384.95 118.60,385.60 118.95,384.95 119.30,384.75 119.65,384.88 120.00,384.07 120.35,383.62 120.70,384.48 121.05,384.26 121.40,384.49 121.75,384.72 122.10,384.93 122.45,385.26 122.80,385.38 123.15,385.19 123.50,385.28 123.85,385.83 124.20,386.37 124.55,387.41 124.90,387.49 125.25,387.31 125.60,386.79 125.95,386.29 126.30,386.60 126.65,386.80 127.00,386.71 127.35,386.82 127.70,386.90 128.05,386.54 128.40,386.53 128.75,386.65 129.10,386.68 129.45,386.96 129.80,387.03 130.15,386.98 130.50,386.71 130.85,386.36 131.20,386.42 131.55,386.38 131.90,385.88 132.25,386.16 132.60,386.03 132.95,385.88 133.30,386.05 133.65,386.01 134.00,386.11 134.35,386.02 134.70,386.27 135.05,386.19 135.40,386.27 135.75,386.28 136.10,386.38 136.45,386.28 136.80,386.12 137.15,386.05 137.50,386.10 137.85,386.33 138.20,386.40 138.55,386.37 138.90,386.55 139.25,386.73 139.60,386.59 139.95,386.94 140.30,386.76 140.65,386.64 141.00,386.55 141.35,386.36 141.70,386.35 142.05,386.23 142.40,386.29 142.75,386.18 143.10,386.14 143.45,386.20 143.80,386.19 144.15,386.16 144.50,386.39 144.85,386.35 145.20,386.48 145.55,386.35 145.90,386.32 146.25,386.24 146.60,386.34 146.95,386.27 147.30,386.25 147.65,386.08 148.00,386.05 148.35,386.01 148.70,385.77 149.05,385.84 149.40,385.88 149.75,385.99 150.10,385.99 150.45,385.91 150.80,385.83 151.15,385.52 151.50,385.59 151.85,385.70 152.20,385.71 152.55,385.67 152.90,385.72 153.25,385.62 153.60,385.62 153.95,385.70 154.30,385.79 154.65,385.71 155.00,385.57 155.35,385.50 155.70,385.58 156.05,385.44 156.40,385.55 156.75,385.50 157.10,385.57 157.45,385.55 157.80,385.57 158.15,385.37 158.50,385.25 158.85,385.49 159.20,385.41 159.55,385.28 159.90,385.22 160.25,385.25 160.60,385.09 160.95,384.87 161.30,384.68 161.65,384.65 162.00,384.78 162.35,384.92 162.70,384.97 163.05,385.04 163.40,385.23 163.75,385.33 164.10,385.37 164.45,385.53 164.80,385.88 165.15,386.01 165.50,386.03 165.85,386.08 166.20,386.36 166.55,386.35 166.90,386.47 167.25,386.40 167.60,386.51 167.95,386.52 168.30,386.59 168.65,386.60 169.00,386.51 169.35,386.56 169.70,386.49 170.05,386.47 170.40,386.40 170.75,386.35 171.10,386.29 171.45,386.28 171.80,386.26 172.15,386.26 172.50,386.23 172.85,386.21 173.20,386.15 173.55,386.19 173.90,386.14 174.25,386.05 174.60,386.15 174.95,386.21 175.30,386.16 175.65,385.95 176.00,385.94 176.35,385.90 176.70,385.95 177.05,385.74 177.40,385.70 177.75,385.78 178.10,385.85 178.45,385.30 178.80,385.33 179.15,385.59 179.50,385.34 179.85,385.27 180.20,384.76 180.55,384.66 180.90,384.22 181.25,383.55 181.60,383.08 181.95,383.49 182.30,383.51 182.65,383.37 183.00,383.65 183.35,383.29 183.70,382.75 184.05,383.01 184.40,382.80 184.75,382.69 185.10,382.86 185.45,382.84 185.80,382.23 186.15,382.68 186.50,381.78 186.85,382.03 187.20,381.38 187.55,380.38 187.90,381.44 188.25,380.71 188.60,381.17 188.95,380.67 189.30,381.22 189.65,380.95 190.00,380.75 190.35,380.19 190.70,380.31 191.05,382.15 191.40,382.49 191.75,383.02 192.10,382.44 192.45,382.45 192.80,380.83 193.15,380.49 193.50,381.17 193.85,381.27 194.20,381.64 194.55,380.70 194.90,381.87 195.25,382.58 195.60,382.32 195.95,382.20 196.30,381.96 196.65,382.34 197.00,382.83 197.35,385.38 197.70,385.46 198.05,385.85 198.40,385.10 198.75,385.73 199.10,386.46 199.45,386.57 199.80,385.15 200.15,385.16 200.50,385.51 200.85,385.15 201.20,383.47 201.55,384.09 201.90,383.03 202.25,383.36 202.60,382.15 202.95,381.62 203.30,381.20 203.65,381.83 204.00,381.21 204.35,380.19 204.70,381.84 205.05,382.55 205.40,382.77 205.75,383.72 206.10,382.66 206.45,384.30 206.80,383.05 207.15,382.55 207.50,381.96 207.85,380.99 208.20,381.20 208.55,380.93 208.90,380.18 209.25,380.34 209.60,380.66 209.95,380.67 210.30,380.51 210.65,382.36 211.00,382.56 211.35,382.40 211.70,383.30 212.05,384.56 212.40,385.23 212.75,383.16 213.10,381.65 213.45,381.44 213.80,379.30 214.15,379.70 214.50,379.89 214.85,380.16 215.20,379.62 215.55,381.69 215.90,379.80 216.25,379.71 216.60,378.05 216.95,376.55 217.30,376.16 217.65,376.69 218.00,376.30 218.35,376.83 218.70,379.01 219.05,378.37 219.40,377.23 219.75,378.76 220.10,378.03 220.45,377.65 220.80,379.09 221.15,379.68 221.50,379.15 221.85,377.91 222.20,378.61 222.55,378.58 222.90,377.91 223.25,376.81 223.60,374.62 223.95,375.74 224.30,374.05 224.65,372.08 225.00,370.77 225.35,371.39 225.70,368.51 226.05,368.00 226.40,368.53 226.75,368.12 227.10,367.16 227.45,366.26 227.80,365.36 228.15,366.25 228.50,367.93 228.85,369.18 229.20,370.95 229.55,370.38 229.90,372.20 230.25,370.17 230.60,372.58 230.95,371.06 231.30,370.25 231.65,368.99 232.00,369.20 232.35,368.75 232.70,370.55 233.05,372.04 233.40,370.91 233.75,371.98 234.10,373.50 234.45,373.55 234.80,373.25 235.15,373.79 235.50,375.90 235.85,373.09 236.20,372.24 236.55,371.20 236.90,369.15 237.25,366.71 237.60,367.04 237.95,366.25 238.30,365.95 238.65,364.42 239.00,363.21 239.35,364.50 239.70,362.86 240.05,360.54 240.40,361.07 240.75,361.26 241.10,360.90 241.45,364.33 241.80,364.14 242.15,365.88 242.50,368.37 242.85,367.10 243.20,368.35 243.55,370.46 243.90,372.34 244.25,372.24 244.60,372.95 244.95,370.66 245.30,366.18 245.65,366.31 246.00,368.71 246.35,368.58 246.70,364.87 247.05,364.36 247.40,366.62 247.75,369.73 248.10,372.66 248.45,370.22 248.80,370.84 249.15,373.32 249.50,372.85 249.85,369.75 250.20,373.93 250.55,368.30 250.90,368.32 251.25,365.59 251.60,363.61 251.95,360.86 252.30,360.86 252.65,361.32 253.00,361.74 253.35,362.89 253.70,364.54 254.05,365.12 254.40,365.51 254.75,366.53 255.10,364.57 255.45,369.57 255.80,370.50 256.15,363.52 256.50,364.52 256.85,363.25 257.20,368.48 257.55,367.14 257.90,364.65 258.25,366.10 258.60,365.35 258.95,362.82 259.30,364.65 259.65,366.60 260.00,368.35 260.35,362.98 260.70,366.80 261.05,363.27 261.40,362.97 261.75,360.12 262.10,359.82 262.45,360.30 262.80,359.56 263.15,358.91 263.50,360.80 263.85,360.79 264.20,356.39 264.55,353.30 264.90,352.75 265.25,349.91 265.60,354.64 265.95,358.14 266.30,357.56 266.65,355.94 267.00,358.74 267.35,357.15 267.70,357.89 268.05,362.90 268.40,362.25 268.75,365.00 269.10,366.18 269.45,366.79 269.80,371.05 270.15,372.02 270.50,368.92 270.85,369.42 271.20,370.45 271.55,366.56 271.90,365.18 272.25,364.08 272.60,365.03 272.95,360.33 273.30,363.56 273.65,361.02 274.00,363.89 274.35,363.52 274.70,358.72 275.05,365.43 275.40,364.43 275.75,362.02 276.10,361.81 276.45,359.44 276.80,363.79 277.15,362.42 277.50,360.49 277.85,359.88 278.20,357.43 278.55,353.85 278.90,352.79 279.25,351.28 279.60,353.84 279.95,357.56 280.30,359.66 280.65,354.01 281.00,354.57 281.35,351.95 281.70,357.07 282.05,355.87 282.40,354.46 282.75,353.48 283.10,358.05 283.45,353.40 283.80,351.30 284.15,352.53 284.50,352.03 284.85,352.77 285.20,354.66 285.55,347.26 285.90,344.32 286.25,348.36 286.60,348.88 286.95,352.10 287.30,352.12 287.65,353.21 288.00,358.32 288.35,358.65 288.70,357.05 289.05,361.35 289.40,363.15 289.75,358.00 290.10,357.47 290.45,356.61 290.80,359.10 291.15,360.06 291.50,356.32 291.85,353.82 292.20,352.00 292.55,354.25 292.90,351.03 293.25,346.89 293.60,344.86 293.95,347.71 294.30,353.24 294.65,351.71 295.00,350.00 295.35,351.72 295.70,348.90 296.05,348.49 296.40,348.37 296.75,351.38 297.10,355.03 297.45,352.97 297.80,355.34 298.15,360.50 298.50,362.19 298.85,360.14 299.20,359.52 299.55,355.29 299.90,359.17 300.25,357.73 300.60,354.99 300.95,354.67 301.30,360.76 301.65,360.29 302.00,362.68 302.35,360.92 302.70,359.00 303.05,351.84 303.40,350.64 303.75,354.49 304.10,358.43 304.45,356.93 304.80,356.65 305.15,354.86 305.50,358.93 305.85,362.18 306.20,368.60 306.55,369.29 306.90,367.83 307.25,369.60 307.60,374.47 307.95,366.42 308.30,363.65 308.65,364.03 309.00,363.76 309.35,370.08 309.70,369.31 310.05,376.55 310.40,371.13 310.75,376.50 311.10,380.18 311.45,381.09 311.80,389.14 312.15,390.60 312.50,392.42 312.85,392.53 313.20,392.50 313.55,390.42 313.90,386.86 314.25,387.24 314.60,386.34 314.95,387.13 315.30,389.48 315.65,392.72 316.00,392.79 316.35,399.07 316.70,402.56 317.05,397.57 317.40,394.96 317.75,401.37 318.10,404.09 318.45,405.46 318.80,408.04 319.15,408.89 319.50,407.39 319.85,407.58 320.20,410.70 320.55,410.95 320.90,404.83 321.25,400.02 321.60,398.11 321.95,398.08 322.30,397.65 322.65,403.39 323.00,404.17 323.35,407.93 323.70,407.92 324.05,405.98 324.40,406.79 324.75,406.70 325.10,408.95 325.45,414.14 325.80,418.52 326.15,420.24 326.50,422.26 326.85,416.17 327.20,410.01 327.55,413.38 327.90,419.60 328.25,423.00 328.60,423.30 328.95,427.25 329.30,425.47 329.65,422.72 330.00,426.36 330.35,422.41 330.70,422.85 331.05,419.59 331.40,427.14 331.75,424.99 332.10,431.82 332.45,436.55 332.80,436.89 333.15,440.45 333.50,437.05 333.85,437.48 334.20,440.48 334.55,439.31 334.90,435.98 335.25,434.34 335.60,434.53 335.95,436.29 336.30,433.20 336.65,431.44 337.00,426.99 337.35,424.57 337.70,426.64 338.05,424.85 338.40,424.30 338.75,422.78 339.10,423.26 339.45,421.23 339.80,422.85 340.15,424.38 340.50,421.53 340.85,419.36 341.20,418.22 341.55,415.50 341.90,413.55 342.25,412.74 342.60,412.46 342.95,416.21 343.30,420.22 343.65,418.76 344.00,417.15 344.35,421.05 344.70,417.04 345.05,416.23 345.40,419.59 345.75,418.42 346.10,420.70 346.45,420.20 346.80,423.06 347.15,422.20 347.50,421.91 347.85,421.19 348.20,419.02 348.55,420.31 348.90,420.25 349.25,420.92 349.60,421.13 349.95,419.51 350.30,418.21 350.65,418.73 351.00,416.51 351.35,418.12 351.70,419.46 352.05,417.63 352.40,418.97 352.75,418.81 353.10,415.79 353.45,415.79 353.80,413.56 354.15,410.65 354.50,408.34 354.85,404.05 355.20,402.59 355.55,405.11 355.90,404.34 356.25,404.79 356.60,405.69 356.95,406.53 357.30,405.10 357.65,407.31 358.00,403.89 358.35,403.20 358.70,406.45 359.05,407.56 359.40,408.98 359.75,411.56 360.10,411.36 360.45,414.49 360.80,411.05 361.15,408.79 361.50,409.60 361.85,410.24 362.20,409.76 362.55,411.57 362.90,409.91 363.25,409.58 363.60,410.26 363.95,409.32 364.30,409.98 364.65,410.34 365.00,412.55 365.35,413.61 365.70,414.84 366.05,414.58 366.40,418.96 366.75,421.14 367.10,422.19 367.45,420.22 367.80,421.17 368.15,421.57 368.50,420.72 368.85,419.58 369.20,415.98 369.55,416.16 369.90,416.28 370.25,415.98 370.60,415.97 370.95,415.65 371.30,415.15 371.65,416.20 372.00,415.24 372.35,415.83 372.70,415.18 373.05,411.70 373.40,411.96 373.75,411.41 374.10,413.41 374.45,411.99 374.80,409.98 375.15,411.67 375.50,413.23 375.85,413.46 376.20,412.32 376.55,412.71 376.90,412.23 377.25,412.52 377.60,413.86 377.95,416.24 378.30,419.23 378.65,416.16 379.00,416.19 379.35,419.10 379.70,419.93 380.05,417.43 380.40,417.97 380.75,419.29 381.10,419.57 381.45,417.39 381.80,415.23 382.15,415.70 382.50,417.01 382.85,416.95 383.20,415.42 383.55,415.07 383.90,417.18 384.25,417.45 384.60,419.09 384.95,418.74 385.30,419.73 385.65,420.03 386.00,420.30 386.35,419.84 386.70,420.94 387.05,420.40 387.40,421.73 387.75,422.51 388.10,424.69 388.45,426.47 388.80,427.51 389.15,428.37 389.50,428.04 389.85,427.25 390.20,429.85 390.55,428.65 390.90,427.41 391.25,427.55 391.60,428.89 391.95,429.25 392.30,429.29 392.65,429.23 393.00,428.62 393.35,428.04 393.70,429.07 394.05,427.58 394.40,427.51 394.75,425.65 395.10,427.61 395.45,427.21 395.80,426.21 396.15,425.06 396.50,424.81 396.85,424.79 397.20,425.14 397.55,424.11 397.90,424.40 398.25,423.10 398.60,420.99 398.95,421.63 399.30,420.32 399.65,419.36 400.00,420.85 400.35,422.54 400.70,423.76 401.05,422.04 401.40,422.87 401.75,421.32 402.10,419.66 402.45,419.38 402.80,419.17 403.15,420.48 403.50,420.86 403.85,420.95 404.20,421.54 404.55,420.71 404.90,420.41 405.25,419.58 405.60,418.22 405.95,419.69 406.30,422.75 406.65,421.55 407.00,421.33 407.35,419.10 407.70,418.53 408.05,418.41 408.40,418.80 408.75,418.11 409.10,418.61 409.45,417.81 409.80,418.30 410.15,417.47 410.50,417.88 410.85,417.04 411.20,417.22 411.55,417.80 411.90,418.03 412.25,418.19 412.60,420.20 412.95,420.39 413.30,419.91 413.65,419.97 414.00,419.74 414.35,420.89 414.70,419.85 415.05,420.83 415.40,423.09 415.75,422.80 416.10,424.13 416.45,423.04 416.80,423.55 417.15,423.47 417.50,424.64 417.85,423.45 418.20,424.26 418.55,423.81 418.90,425.46 419.25,425.87 419.60,425.90 419.95,427.34 420.30,428.22 420.65,428.46 421.00,426.99 421.35,426.73 421.70,428.16 422.05,427.37 422.40,426.63 422.75,427.50 423.10,428.73 423.45,427.19 423.80,426.45 424.15,426.79 424.50,427.38 424.85,428.03 425.20,427.53 425.55,427.25 425.90,427.88 426.25,428.05 426.60,428.52 426.95,428.35 427.30,428.05 427.65,428.21 428.00,428.83 428.35,428.77 428.70,430.07 429.05,430.62 429.40,430.72 429.75,430.25 430.10,430.99 430.45,431.98 430.80,432.14 431.15,432.58 431.50,432.59 431.85,432.19 432.20,432.24 432.55,433.87 432.90,433.73 433.25,432.63 433.60,433.15 433.95,433.45 434.30,433.10 434.65,433.07 435.00,432.96 435.35,433.36 435.70,433.78 436.05,433.07 436.40,433.57 436.75,433.63 437.10,433.89 437.45,433.31 437.80,433.52 438.15,433.69 438.50,433.09 438.85,432.80 439.20,432.86 439.55,433.04 439.90,432.41 440.25,432.26 440.60,432.09 440.95,432.05 441.30,432.29 441.65,432.00 442.00,431.15 442.35,430.67 442.70,430.46 443.05,430.16 443.40,429.58 443.75,429.21 444.10,429.29 444.45,428.87 444.80,428.85 445.15,428.83 445.50,428.30 445.85,428.21 446.20,428.08 446.55,428.00 446.90,427.73 447.25,427.72 447.60,427.48 447.95,427.17 448.30,426.79 448.65,426.59 449.00,426.42 449.35,426.06 449.70,426.03 450.05,425.92 450.40,425.67 450.75,425.37 451.10,425.17 451.45,424.97 451.80,424.83 452.15,424.64 452.50,424.39 452.85,424.03 453.20,423.81 453.55,423.65 453.90,423.38 454.25,423.24 454.60,423.15 454.95,422.89 455.30,422.75 455.65,422.50 456.00,422.22 456.35,421.88 456.70,421.87 457.05,421.60 457.40,421.77 457.75,421.43 458.10,421.54 458.45,421.20 458.80,421.09 459.15,420.79 459.50,420.59 459.85,420.50 460.20,420.51 460.55,420.79 460.90,420.07 461.25,420.05 461.60,419.75 461.95,419.69 462.30,419.43 462.65,418.89 463.00,418.64 463.35,419.20 463.70,419.39 464.05,418.86 464.40,419.10 464.75,419.13 465.10,419.77 465.45,420.61 465.80,420.46 466.15,420.21 466.50,420.64 466.85,420.56 467.20,420.35 467.55,420.68 467.90,421.58 468.25,420.92 468.60,420.85 468.95,420.91 469.30,420.27 469.65,420.17 470.00,419.53 470.35,419.58 470.70,419.34 471.05,419.68 471.40,420.89 471.75,420.80 472.10,419.81 472.45,419.37 472.80,420.38 473.15,421.18 473.50,421.60 473.85,422.17 474.20,422.55 474.55,422.63 474.90,421.93 475.25,422.25 475.60,422.01 475.95,422.07 476.30,420.90 476.65,420.92 477.00,420.17 477.35,420.22 477.70,419.93 478.05,419.40 478.40,420.12 478.75,419.91 479.10,419.31 479.45,419.47 479.80,419.45 480.15,419.56 480.50,419.26 480.85,419.80 481.20,419.62 481.55,419.70 481.90,418.93 482.25,419.32 482.60,419.35 482.95,419.79 483.30,419.84 483.65,420.70 484.00,420.88 484.35,421.09 484.70,421.12 485.05,420.70 485.40,419.86 485.75,420.02 486.10,419.45 486.45,419.46 486.80,419.55 487.15,419.34 487.50,419.62 487.85,418.73 488.20,418.76 488.55,418.75 488.90,418.19 489.25,417.62 489.60,418.22 489.95,418.73 490.30,418.39 490.65,418.38 491.00,418.29 491.35,419.14 491.70,419.71 492.05,420.38 492.40,420.53 492.75,421.11 493.10,421.93 493.45,421.63 493.80,420.99 494.15,420.47 494.50,421.16 494.85,421.87 495.20,421.65 495.55,421.94 495.90,423.15 496.25,423.58 496.60,422.87 496.95,423.10 497.30,422.83 497.65,423.16 498.00,423.40 498.35,422.78 498.70,422.40 499.05,422.49 499.40,422.58 499.75,422.34 500.10,422.50 500.45,422.19 500.80,422.63 501.15,422.78 501.50,422.57 501.85,422.86 502.20,422.86 502.55,423.01 502.90,423.15 503.25,423.27 503.60,423.56 503.95,423.81 504.30,423.82 504.65,424.21 505.00,424.62 505.35,424.47 505.70,424.14 506.05,423.79 506.40,423.67 506.75,423.69 507.10,423.84 507.45,423.93 507.80,423.84 508.15,423.74 508.50,423.85 508.85,423.77 509.20,423.76 509.55,423.67 509.90,423.68 510.25,423.54 510.60,423.55 510.95,423.43 511.30,423.29 511.65,423.16 512.00,423.00 512.35,422.83 512.70,422.67 513.05,422.50 513.40,422.37 513.75,422.09 514.10,421.96 514.45,421.85 514.80,421.76 515.15,421.78 515.50,421.69 515.85,421.50 516.20,421.23 516.55,421.00 516.90,420.65 517.25,420.63 517.60,420.53 517.95,420.41 518.30,420.23 518.65,420.10 519.00,419.87 519.35,419.59 519.70,419.64 520.05,420.02 520.40,419.99 520.75,419.94 521.10,420.02 521.45,420.01 521.80,419.88 522.15,419.71 522.50,419.96 522.85,420.19 523.20,419.95 523.55,419.43 523.90,419.33 524.25,419.36 524.60,419.07 524.95,419.40 525.30,419.87 525.65,419.53 526.00,419.88 526.35,420.41 526.70,420.27 527.05,419.41 527.40,419.74 527.75,419.53 528.10,419.22 528.45,418.91 528.80,419.13 529.15,419.80 529.50,419.26 529.85,419.36 530.20,420.08 530.55,419.82 530.90,419.68 531.25,419.76 531.60,420.28 531.95,419.83 532.30,419.65 532.65,420.35 533.00,419.59 533.35,420.13 533.70,420.60 534.05,420.02 534.40,421.03 534.75,420.81 535.10,420.57 535.45,420.26 535.80,420.27 536.15,419.77 536.50,420.04 536.85,420.85 537.20,421.26 537.55,420.53 537.90,420.48 538.25,420.60 538.60,419.69 538.95,418.85 539.30,417.99 539.65,417.36 540.00,417.46 540.35,417.43 540.70,417.85 541.05,419.26 541.40,419.75 541.75,419.57 542.10,419.47 542.45,420.20 542.80,420.43 543.15,419.72 543.50,419.59 543.85,418.82 544.20,419.18 544.55,418.83 544.90,419.23 545.25,420.47 545.60,419.80 545.95,419.02 546.30,420.16 546.65,420.49 547.00,421.16 547.35,421.75 547.70,421.40 548.05,421.35 548.40,421.00 548.75,420.91 549.10,420.71 549.45,420.80 549.80,420.36 550.15,420.24 550.50,421.28 550.85,421.26 551.20,421.36 551.55,422.03 551.90,421.74 552.25,422.31 552.60,421.59 552.95,421.47 553.30,420.09 553.65,420.12 554.00,420.06 554.35,418.92 554.70,418.95 555.05,418.65 555.40,418.22 555.75,417.71 556.10,417.52 556.45,417.35 556.80,417.48 557.15,419.15 557.50,420.02 557.85,420.15 558.20,419.65 558.55,419.39 558.90,419.37 559.25,419.86 559.60,420.25 559.95,419.72 560.30,420.18 560.65,420.42 561.00,420.60 561.35,420.66 561.70,420.50 562.05,420.49 562.40,420.98 562.75,420.43 563.10,420.57 563.45,420.40 563.80,419.96 564.15,419.37 564.50,419.75 564.85,420.43 565.20,420.29 565.55,420.43 565.90,420.06 566.25,419.47 566.60,418.69 566.95,418.18 567.30,417.51 567.65,418.27 568.00,417.80 568.35,418.54 568.70,418.39 569.05,418.97 569.40,418.89 569.75,418.46 570.10,419.40 570.45,418.73 570.80,417.66 571.15,418.21 571.50,417.98 571.85,417.55 572.20,416.57 572.55,416.75 572.90,417.01 573.25,416.62 573.60,416.35 573.95,415.81 574.30,415.45 574.65,415.05 575.00,414.62 575.35,414.86 575.70,414.32 576.05,414.03 576.40,413.39 576.75,413.43 577.10,413.78 577.45,413.66 577.80,414.01 578.15,413.58 578.50,414.05 578.85,414.12 579.20,415.26 579.55,415.55 579.90,415.76 580.25,415.85 580.60,416.51 580.95,415.10 581.30,414.10 581.65,414.15 582.00,414.85 582.35,413.14 582.70,413.11 583.05,412.04 583.40,412.58 583.75,412.64 584.10,410.90 584.45,410.88 584.80,410.30 585.15,409.17 585.50,411.46 585.85,412.26 586.20,411.37 586.55,412.59 586.90,411.65 587.25,411.35 587.60,410.83 587.95,410.60 588.30,411.94 588.65,411.27 589.00,412.27 589.35,412.78 589.70,414.29 590.05,415.52 590.40,414.24 590.75,414.57 591.10,414.00 591.45,413.57 591.80,415.31 592.15,416.58 592.50,418.32 592.85,418.33 593.20,418.89 593.55,420.57 593.90,419.80 594.25,418.27 594.60,416.38 594.95,415.25 595.30,417.69 595.65,419.22 596.00,418.56 596.35,417.90 596.70,419.45 597.05,420.33 597.40,420.16 597.75,419.89 598.10,419.02 598.45,418.95 598.80,418.40 599.15,417.98 599.50,417.93 599.85,419.89 600.20,421.54 600.55,422.86 600.90,423.27 601.25,423.95 601.60,424.09 601.95,424.01 602.30,423.82 602.65,422.01 603.00,422.82 603.35,421.10 603.70,422.09 604.05,423.84 604.40,424.53 604.75,425.48 605.10,426.23 605.45,425.84 605.80,425.38 606.15,424.81 606.50,425.07 606.85,425.94 607.20,426.64 607.55,426.27 607.90,426.47 608.25,425.81 608.60,426.94 608.95,426.82 609.30,426.78 609.65,425.86 610.00,426.00 610.35,426.37 610.70,428.00 611.05,427.27 611.40,427.34 611.75,426.79 612.10,427.34 612.45,426.92 612.80,428.13 613.15,428.34 613.50,429.96 613.85,429.31 614.20,428.55 614.55,430.94 614.90,429.25 615.25,429.25 615.60,428.11 615.95,428.03 616.30,426.63 616.65,426.41 617.00,426.75 617.35,426.36 617.70,428.01 618.05,427.04 618.40,426.04 618.75,425.77 619.10,425.28 619.45,425.37 619.80,425.45 620.15,424.50 620.50,425.15 620.85,425.18 621.20,425.64 621.55,425.51 621.90,426.02 622.25,427.15 622.60,427.12 622.95,426.73 623.30,427.29 623.65,427.47 624.00,427.23 624.35,427.56 624.70,426.83 625.05,426.33 625.40,426.16 625.75,426.47 626.10,427.07 626.45,426.85 626.80,426.93 627.15,426.41 627.50,426.76 627.85,426.88 628.20,427.27 628.55,427.21 628.90,427.24 629.25,428.25 629.60,428.27 629.95,428.59 630.30,428.33 630.65,427.90 631.00,427.77 631.35,428.11 631.70,427.95 632.05,427.74 632.40,428.03 632.75,428.06 633.10,427.85 633.45,427.49 633.80,427.44 634.15,427.67 634.50,427.60 634.85,427.71 635.20,427.87 635.55,427.68 635.90,427.53 636.25,427.33 636.60,427.14 636.95,427.01 637.30,426.88 637.65,426.65 638.00,426.54 638.35,426.43 638.70,426.28 639.05,426.13 639.40,425.97 639.75,425.80 640.10,425.79 640.45,425.68 640.80,425.57 641.15,425.33 641.50,425.04 641.85,424.99 642.20,424.76 642.55,424.72 642.90,424.56 643.25,424.33 643.60,424.27 643.95,424.08 644.30,423.51 644.65,423.04 645.00,422.71 645.35,422.24 645.70,422.47 646.05,421.90 646.40,421.28 646.75,421.11 647.10,420.70 647.45,420.43 647.80,420.47 648.15,420.06 648.50,419.06 648.85,419.49 649.20,419.26 649.55,419.10 649.90,418.42 650.25,418.05 650.60,417.72 650.95,416.82 651.30,416.41 651.65,416.22 652.00,416.14 652.35,415.84 652.70,414.95 653.05,415.03 653.40,414.86 653.75,414.38 654.10,413.90 654.45,414.66 654.80,413.76 655.15,412.68 655.50,412.32 655.85,411.90 656.20,412.31 656.55,412.50 656.90,412.59 657.25,411.74 657.60,410.99 657.95,410.76 658.30,409.88 658.65,410.70 659.00,410.04 659.35,409.44 659.70,410.19 660.05,409.72 660.40,410.91 660.75,410.30 661.10,410.12 661.45,411.13 661.80,410.08 662.15,410.10 662.50,408.73 662.85,407.27 663.20,406.19 663.55,405.07 663.90,405.46 664.25,404.36 664.60,405.18 664.95,403.90 665.30,403.89 665.65,404.07 666.00,403.51 666.35,402.51 666.70,401.77 667.05,402.24 667.40,401.15 667.75,402.09 668.10,402.37 668.45,400.97 668.80,400.64 669.15,400.47 669.50,400.95 669.85,401.17 670.20,400.26 670.55,399.98 670.90,399.96 671.25,399.16 671.60,399.68 671.95,397.98 672.30,397.37 672.65,398.89 673.00,399.11 673.35,398.53 673.70,398.17 674.05,398.48 674.40,399.57 674.75,398.89 675.10,400.11 675.45,400.39 675.80,400.01 676.15,398.10 676.50,397.43 676.85,398.68 677.20,398.92 677.55,397.78 677.90,397.51 678.25,398.95 678.60,398.31 678.95,397.04 679.30,395.94 679.65,395.99 680.00,393.97 680.35,392.60 680.70,392.07 681.05,391.89 681.40,392.23 681.75,393.92 682.10,390.39 682.45,390.56 682.80,389.69 683.15,388.02 683.50,385.19 683.85,382.92 684.20,384.91 684.55,385.07 684.90,384.90 685.25,386.57 685.60,386.24 685.95,385.58 686.30,384.86 686.65,386.96 687.00,387.51 687.35,386.21 687.70,386.42 688.05,384.54 688.40,384.46 688.75,386.07 689.10,385.02 689.45,383.20 689.80,384.67 690.15,385.52 690.50,386.33 690.85,386.53 691.20,387.75 691.55,390.19 691.90,391.12 692.25,394.92 692.60,395.20 692.95,396.69 693.30,394.50 693.65,394.35 694.00,394.95 694.35,392.49 694.70,391.36 695.05,389.01 695.40,390.52 695.75,391.85 696.10,390.12 696.45,389.44 696.80,390.26 697.15,390.83 697.50,390.74 697.85,388.43 698.20,388.32 698.55,389.03 698.90,388.11 699.25,387.96 699.60,391.03 699.95,392.67 700.30,393.74 700.65,388.15 701.00,389.57 701.35,388.34 701.70,388.64 702.05,386.98 702.40,387.59 702.75,382.50 703.10,380.39 703.45,380.95 703.80,382.17 704.15,380.35 704.50,380.55 704.85,379.27 705.20,380.82 705.55,381.33 705.90,382.99 706.25,383.29 706.60,383.76 706.95,387.47 707.30,387.63 707.65,388.36 708.00,387.81 708.35,385.66 708.70,386.44 709.05,386.06 709.40,386.10 709.75,387.32 710.10,387.23 710.45,384.65 710.80,386.08 711.15,383.58 711.50,383.85 711.85,384.58 712.20,384.09 712.55,383.53 712.90,386.33 713.25,386.46 713.60,388.16 713.95,385.21 714.30,382.95 714.65,387.06 715.00,383.88 715.35,381.86 715.70,381.37 716.05,383.52 716.40,384.73 716.75,382.50 717.10,382.17 717.45,385.10 717.80,385.08 718.15,384.34 718.50,377.31 718.85,380.06 719.20,380.26 719.55,380.57 719.90,379.30 720.25,380.61 720.60,382.12 720.95,382.77 721.30,382.55 721.65,382.14 722.00,385.41 722.35,384.08 722.70,384.19 723.05,383.04 723.40,383.54 723.75,380.22 724.10,378.15 724.45,380.92 724.80,379.64 725.15,379.57 725.50,379.63 725.85,378.22 726.20,381.81 726.55,380.16 726.90,376.88 727.25,377.18 727.60,377.26 727.95,374.01 728.30,375.32 728.65,374.48 729.00,377.28 729.35,377.92 729.70,375.70 730.05,373.41 730.40,374.16 730.75,372.64 731.10,373.92 731.45,371.38 731.80,370.85 732.15,369.48 732.50,370.16 732.85,372.34 733.20,374.80 733.55,377.24 733.90,369.88 734.25,367.24 734.60,364.61 734.95,367.89 735.30,368.18 735.65,369.75 736.00,367.22 736.35,370.83 736.70,368.97 737.05,365.58 737.40,367.09 737.75,370.87 738.10,368.20 738.45,366.51 738.80,366.17 739.15,367.59 739.50,366.31 739.85,367.18 740.20,370.12 740.55,369.36 740.90,370.05 741.25,371.58 741.60,370.22 741.95,372.60 742.30,371.18 742.65,377.75 743.00,380.19 743.35,380.55 743.70,383.81 744.05,391.61 744.40,394.59 744.75,388.20 745.10,386.93 745.45,384.98 745.80,381.71 746.15,379.63 746.50,371.80 746.85,370.88 747.20,372.17 747.55,375.91 747.90,375.80 748.25,375.36 748.60,370.47 748.95,365.38 749.30,365.36 749.65,365.33 750.00,360.69 750.35,360.01 750.70,361.27 751.05,366.59 751.40,365.47 751.75,364.34 752.10,358.60 752.45,360.29 752.80,360.84 753.15,364.89 753.50,366.62 753.85,370.19 754.20,367.19 754.55,370.86 754.90,374.82 755.25,377.64 755.60,380.70 755.95,382.46 756.30,381.41 756.65,381.54 757.00,377.54 757.35,378.52 757.70,380.53 758.05,379.18 758.40,374.59 758.75,370.13 759.10,363.27 759.45,365.69 759.80,369.13 760.15,370.29 760.50,372.90 760.85,373.61 761.20,368.36 761.55,367.69 761.90,364.06 762.25,362.84 762.60,361.73 762.95,366.84 763.30,367.73 763.65,370.27 764.00,374.95 764.35,374.06 764.70,370.54 765.05,369.48 765.40,369.46 765.75,367.32 766.10,362.72 766.45,362.30 766.80,362.77 767.15,360.01 767.50,361.30 767.85,361.18 768.20,363.38 768.55,365.82 768.90,367.14 769.25,367.91 769.60,370.34 769.95,370.53 770.30,373.08 770.65,373.86 771.00,375.85 771.35,370.21 771.70,375.47 772.05,375.04 772.40,370.72 772.75,376.07 773.10,379.99 773.45,374.59 773.80,376.47 774.15,375.42 774.50,376.35 774.85,376.79 775.20,371.76 775.55,373.15 775.90,369.56 776.25,366.82 776.60,363.56 776.95,361.25 777.30,362.41 777.65,355.91 778.00,358.22 778.35,357.89 778.70,364.90 779.05,369.15 779.40,370.31 779.75,367.31 780.10,374.33 780.45,368.01 780.80,364.75 781.15,365.63 781.50,370.96 781.85,369.20 782.20,364.39 782.55,367.22 782.90,367.79 783.25,368.79 783.60,370.63 783.95,366.37 784.30,371.28 784.65,370.35 785.00,373.33"/>
<line x1="813" y1="102" x2="839" y2="102" stroke="#059669" stroke-width="3"/>
<text x="847" y="106" font-family="Arial" font-size="13" fill="#111827">trending</text>
<text x="435.0" y="518" text-anchor="middle" font-family="Arial" font-size="14" fill="#111827">Event index</text>
<text x="22" y="256.0" text-anchor="middle" transform="rotate(-90 22 256.0)" font-family="Arial" font-size="14" fill="#111827">Net PnL after fees</text>
</svg>
