<svg xmlns="http://www.w3.org/2000/svg" width="940" height="540" viewBox="0 0 940 540">
<rect width="100%" height="100%" fill="#ffffff"/>
<text x="470.0" y="26" text-anchor="middle" font-family="Arial" font-size="18" fill="#111827">High Volatility Inventory</text>
<line x1="85" y1="470" x2="755" y2="470" stroke="#111827" stroke-width="1"/>
<line x1="85" y1="42" x2="85" y2="470" stroke="#111827" stroke-width="1"/>
<line x1="85.00" y1="42" x2="85.00" y2="470" stroke="#e5e7eb" stroke-width="1"/>
<text x="85.00" y="494" text-anchor="middle" font-family="Arial" font-size="12" fill="#374151">0</text>
<line x1="252.50" y1="42" x2="252.50" y2="470" stroke="#e5e7eb" stroke-width="1"/>
<text x="252.50" y="494" text-anchor="middle" font-family="Arial" font-size="12" fill="#374151">50000</text>
<line x1="420.00" y1="42" x2="420.00" y2="470" stroke="#e5e7eb" stroke-width="1"/>
<text x="420.00" y="494" text-anchor="middle" font-family="Arial" font-size="12" fill="#374151">100000</text>
<line x1="587.50" y1="42" x2="587.50" y2="470" stroke="#e5e7eb" stroke-width="1"/>
<text x="587.50" y="494" text-anchor="middle" font-family="Arial" font-size="12" fill="#374151">150000</text>
<line x1="755.00" y1="42" x2="755.00" y2="470" stroke="#e5e7eb" stroke-width="1"/>
<text x="755.00" y="494" text-anchor="middle" font-family="Arial" font-size="12" fill="#374151">200000</text>
<line x1="85" y1="470.00" x2="755" y2="470.00" stroke="#e5e7eb" stroke-width="1"/>
<text x="73" y="474.00" text-anchor="end" font-family="Arial" font-size="12" fill="#374151">-8790</text>
<line x1="85" y1="363.00" x2="755" y2="363.00" stroke="#e5e7eb" stroke-width="1"/>
<text x="73" y="367.00" text-anchor="end" font-family="Arial" font-size="12" fill="#374151">-1282</text>
<line x1="85" y1="256.00" x2="755" y2="256.00" stroke="#e5e7eb" stroke-width="1"/>
<text x="73" y="260.00" text-anchor="end" font-family="Arial" font-size="12" fill="#374151">6226</text>
<line x1="85" y1="149.00" x2="755" y2="149.00" stroke="#e5e7eb" stroke-width="1"/>
<text x="73" y="153.00" text-anchor="end" font-family="Arial" font-size="12" fill="#374151">13733</text>
<line x1="85" y1="42.00" x2="755" y2="42.00" stroke="#e5e7eb" stroke-width="1"/>
<text x="73" y="46.00" text-anchor="end" font-family="Arial" font-size="12" fill="#374151">21241</text>
<polyline fill="none" stroke="#2563eb" stroke-width="2" points="85.00,344.72 85.33,344.72 85.67,344.25 86.00,344.61 86.34,345.75 86.67,346.82 87.01,347.95 87.34,348.94 87.68,349.80 88.02,350.88 88.35,351.31 88.69,351.84 89.02,351.98 89.36,351.84 89.69,351.12 90.03,350.55 90.36,350.18 90.69,350.08 91.03,350.65 91.36,350.37 91.70,350.23 92.03,349.80 92.37,350.72 92.70,351.01 93.04,350.58 93.38,350.64 93.71,351.07 94.05,350.35 94.38,349.43 94.72,349.17 95.05,348.17 95.39,347.18 95.72,345.89 96.06,345.04 96.39,343.73 96.72,343.01 97.06,342.02 97.39,340.96 97.73,340.39 98.06,339.25 98.40,338.11 98.73,337.40 99.07,336.40 99.41,335.12 99.74,333.84 100.08,333.38 100.41,334.25 100.75,335.39 101.08,336.49 101.41,337.50 101.75,338.65 102.09,339.22 102.42,340.51 102.75,341.63 103.09,342.77 103.42,341.53 103.76,340.82 104.09,340.29 104.43,339.39 104.77,339.11 105.10,338.68 105.44,338.97 105.77,339.68 106.11,340.53 106.44,341.49 106.78,342.20 107.11,343.48 107.44,343.53 107.78,342.39 108.11,342.26 108.45,342.06 108.78,341.49 109.12,340.49 109.45,339.94 109.79,338.98 110.12,337.96 110.46,337.10 110.80,336.81 111.13,336.67 111.47,337.23 111.80,337.37 112.14,337.31 112.47,337.51 112.81,337.94 113.14,338.23 113.47,338.23 113.81,338.20 114.14,338.20 114.48,338.34 114.81,338.48 115.15,338.25 115.48,338.11 115.82,338.38 116.16,338.38 116.49,339.24 116.83,340.38 117.16,341.52 117.50,342.52 117.83,343.51 118.16,344.65 118.50,345.67 118.84,346.81 119.17,347.66 119.50,348.52 119.84,349.26 120.17,350.25 120.51,351.25 120.84,352.32 121.18,353.32 121.52,354.19 121.85,355.33 122.19,356.28 122.52,357.28 122.85,358.12 123.19,359.12 123.53,360.17 123.86,360.89 124.19,362.17 124.53,363.02 124.87,364.26 125.20,365.12 125.53,365.75 125.87,366.46 126.20,365.60 126.54,364.75 126.88,363.61 127.21,362.61 127.55,362.04 127.88,361.87 128.22,361.44 128.55,360.44 128.88,360.20 129.22,359.96 129.56,359.67 129.89,358.69 130.22,357.55 130.56,356.13 130.90,354.99 131.23,353.56 131.56,353.56 131.90,352.98 132.24,353.23 132.57,352.95 132.91,353.99 133.24,354.99 133.57,356.13 133.91,355.98 134.25,356.74 134.58,357.02 134.91,358.02 135.25,357.86 135.59,358.59 135.92,358.88 136.25,358.98 136.59,359.40 136.93,360.40 137.26,360.67 137.59,360.67 137.93,359.53 138.26,360.05 138.60,359.90 138.94,360.10 139.27,360.39 139.60,361.14 139.94,361.86 140.28,362.60 140.61,363.88 140.94,364.88 141.28,365.59 141.62,366.73 141.95,368.01 142.28,368.87 142.62,369.86 142.95,371.01 143.29,371.86 143.62,372.86 143.96,373.71 144.30,374.71 144.63,375.31 144.97,376.18 145.30,376.46 145.63,377.75 145.97,378.77 146.31,379.91 146.64,380.91 146.97,380.37 147.31,381.08 147.65,382.22 147.98,383.08 148.31,383.83 148.65,384.69 148.99,385.20 149.32,385.63 149.66,386.63 149.99,387.91 150.32,389.05 150.66,389.40 151.00,390.10 151.33,390.10 151.67,390.67 152.00,390.83 152.33,391.97 152.67,392.97 153.00,393.54 153.34,394.11 153.68,394.79 154.01,395.20 154.34,396.15 154.68,397.03 155.01,398.30 155.35,399.29 155.69,400.72 156.02,401.85 156.36,402.84 156.69,403.50 157.03,403.81 157.36,404.67 157.69,405.95 158.03,406.58 158.37,407.86 158.70,409.00 159.03,409.57 159.37,410.71 159.70,411.52 160.04,412.66 160.38,413.52 160.71,413.80 161.05,413.95 161.38,413.95 161.72,413.63 162.05,413.49 162.38,412.36 162.72,411.08 163.06,410.57 163.39,409.86 163.72,410.11 164.06,411.14 164.39,411.85 164.73,412.71 165.06,411.99 165.40,411.00 165.74,410.00 166.07,408.93 166.41,407.79 166.74,407.08 167.07,406.36 167.41,405.49 167.75,404.35 168.08,403.40 168.42,402.54 168.75,401.40 169.08,400.26 169.42,399.27 169.75,398.24 170.09,397.24 170.43,396.03 170.76,395.32 171.09,394.46 171.43,393.75 171.76,392.75 172.10,391.80 172.44,390.66 172.77,389.52 173.11,388.66 173.44,387.54 173.78,386.40 174.11,385.54 174.44,384.69 174.78,383.83 175.12,382.71 175.45,381.68 175.78,380.40 176.12,379.26 176.45,378.40 176.79,377.26 177.12,376.41 177.46,375.17 177.80,374.40 178.13,373.40 178.47,372.34 178.80,371.62 179.13,370.89 179.47,369.89 179.81,369.18 180.14,368.18 180.47,367.03 180.81,365.89 181.14,364.75 181.48,364.14 181.81,363.14 182.15,362.00 182.49,360.87 182.82,359.87 183.16,359.02 183.49,358.31 183.82,357.02 184.16,356.15 184.50,355.06 184.83,354.27 185.17,353.29 185.50,352.14 185.83,350.85 186.17,350.00 186.50,349.04 186.84,347.99 187.18,346.71 187.51,345.59 187.84,344.74 188.18,343.91 188.51,342.91 188.85,342.06 189.19,341.35 189.52,340.21 189.86,339.07 190.19,338.17 190.53,337.74 190.86,336.46 191.19,335.60 191.53,334.32 191.87,333.04 192.20,331.90 192.53,330.93 192.87,329.93 193.20,329.22 193.54,328.24 193.88,327.10 194.21,326.10 194.55,325.24 194.88,324.42 195.22,323.09 195.55,321.67 195.88,320.68 196.22,319.68 196.56,318.69 196.89,317.83 197.22,316.71 197.56,316.75 197.89,316.04 198.23,315.32 198.56,314.18 198.90,313.47 199.24,312.47 199.57,311.38 199.91,310.52 200.24,309.67 200.57,308.95 200.91,307.67 201.25,306.81 201.58,305.67 201.92,304.68 202.25,303.68 202.58,302.82 202.92,302.25 203.25,300.97 203.59,299.97 203.93,298.98 204.26,297.84 204.59,296.84 204.93,295.70 205.26,294.56 205.60,293.42 205.94,292.39 206.27,291.25 206.61,290.11 206.94,289.26 207.28,287.83 207.61,286.55 207.94,285.54 208.28,284.40 208.62,283.24 208.95,282.10 209.28,280.82 209.62,280.25 209.95,279.25 210.29,277.83 210.62,276.97 210.96,276.20 211.30,275.19 211.63,274.19 211.97,273.48 212.30,272.57 212.63,271.41 212.97,270.27 213.31,270.03 213.64,269.40 213.97,268.41 214.31,267.27 214.65,266.27 214.98,265.13 215.31,264.42 215.65,263.28 215.99,262.52 216.32,261.58 216.66,260.44 216.99,259.44 217.32,258.73 217.66,257.45 218.00,256.73 218.33,255.74 218.66,255.02 219.00,254.17 219.34,253.46 219.67,252.69 220.00,251.46 220.34,250.18 220.68,249.19 221.01,248.30 221.34,247.14 221.68,246.00 222.01,245.65 222.35,245.50 222.69,245.50 223.02,245.22 223.35,245.50 223.69,246.22 224.03,247.50 224.36,248.40 224.69,249.39 225.03,250.12 225.37,251.06 225.70,252.34 226.03,253.44 226.37,254.27 226.71,255.27 227.04,256.41 227.38,257.42 227.71,258.42 228.04,259.54 228.38,260.38 228.72,261.91 229.05,262.83 229.38,263.40 229.72,264.12 230.06,265.04 230.39,266.04 230.72,267.18 231.06,268.19 231.40,269.10 231.73,270.29 232.06,271.34 232.40,272.15 232.74,273.01 233.07,273.86 233.41,274.59 233.74,275.30 234.07,276.06 234.41,276.76 234.75,278.04 235.08,278.90 235.41,280.16 235.75,281.16 236.09,281.45 236.42,281.45 236.75,280.31 237.09,279.17 237.43,278.15 237.76,277.19 238.09,276.05 238.43,274.62 238.76,273.48 239.10,272.34 239.44,271.20 239.77,270.62 240.10,270.60 240.44,270.76 240.78,270.33 241.11,270.19 241.44,270.05 241.78,270.00 242.12,269.15 242.45,268.15 242.78,267.15 243.12,266.33 243.46,265.33 243.79,264.47 244.12,263.60 244.46,262.61 244.79,261.74 245.13,260.52 245.47,259.95 245.80,258.91 246.13,257.86 246.47,256.43 246.81,256.01 247.14,255.29 247.47,254.15 247.81,252.73 248.15,251.87 248.48,250.73 248.81,249.71 249.15,248.43 249.49,247.74 249.82,246.90 250.16,245.69 250.49,244.43 250.82,243.95 251.16,243.00 251.50,241.71 251.83,240.57 252.16,239.72 252.50,238.86 252.84,238.02 253.17,236.74 253.50,235.95 253.84,234.97 254.18,233.72 254.51,232.86 254.84,232.24 255.18,231.19 255.51,230.50 255.85,229.50 256.19,228.36 256.52,227.93 256.86,226.93 257.19,226.08 257.52,225.37 257.86,225.08 258.19,225.34 258.53,225.51 258.87,225.78 259.20,225.78 259.53,225.21 259.87,225.07 260.21,225.66 260.54,225.94 260.88,226.22 261.21,226.24 261.54,225.98 261.88,225.99 262.22,225.99 262.55,225.82 262.88,225.44 263.22,225.44 263.56,225.72 263.89,227.00 264.23,228.29 264.56,228.46 264.89,227.89 265.23,226.75 265.56,226.75 265.90,225.75 266.24,224.61 266.57,223.86 266.90,223.26 267.24,221.97 267.57,220.98 267.91,220.26 268.25,220.41 268.58,221.16 268.91,222.37 269.25,223.23 269.59,224.23 269.92,225.08 270.25,225.37 270.59,225.08 270.93,224.51 271.26,224.23 271.60,224.51 271.93,224.81 272.26,224.85 272.60,225.14 272.94,225.04 273.27,225.08 273.61,225.08 273.94,225.08 274.27,225.22 274.61,224.24 274.94,223.10 275.28,222.53 275.62,222.39 275.95,221.25 276.28,220.01 276.62,219.01 276.96,218.01 277.29,217.16 277.62,216.30 277.96,215.29 278.29,215.29 278.63,214.76 278.97,213.62 279.30,212.91 279.63,211.63 279.97,211.04 280.31,210.19 280.64,209.42 280.98,208.42 281.31,207.42 281.64,206.67 281.98,206.00 282.31,205.28 282.65,203.99 282.99,203.13 283.32,202.71 283.65,201.42 283.99,200.44 284.32,199.58 284.66,198.43 285.00,197.57 285.33,196.58 285.66,195.58 286.00,194.44 286.34,193.44 286.67,192.59 287.00,191.60 287.34,190.46 287.68,189.89 288.01,190.61 288.35,190.19 288.68,189.48 289.01,189.05 289.35,189.17 289.69,189.42 290.02,189.71 290.36,188.57 290.69,187.48 291.02,186.63 291.36,185.70 291.69,184.56 292.03,183.14 292.37,181.71 292.70,180.29 293.03,179.15 293.37,178.35 293.71,177.21 294.04,176.10 294.38,175.10 294.71,173.96 295.04,173.05 295.38,172.16 295.72,171.17 296.05,170.20 296.38,168.63 296.72,168.06 297.06,167.20 297.39,166.49 297.73,165.49 298.06,165.51 298.39,166.15 298.73,165.89 299.06,165.88 299.40,167.02 299.74,168.30 300.07,169.30 300.40,170.24 300.74,171.52 301.07,172.38 301.41,173.52 301.75,174.43 302.08,175.14 302.41,176.15 302.75,176.95 303.09,177.55 303.42,178.55 303.75,179.83 304.09,180.40 304.43,181.40 304.76,181.95 305.10,182.30 305.43,183.29 305.76,184.15 306.10,184.72 306.44,184.58 306.77,183.99 307.11,183.00 307.44,181.57 307.77,180.86 308.11,180.86 308.44,179.66 308.78,178.38 309.12,177.71 309.45,176.71 309.78,175.71 310.12,174.43 310.46,173.65 310.79,172.51 311.12,171.51 311.46,170.08 311.79,169.16 312.13,168.63 312.47,167.49 312.80,166.90 313.13,165.82 313.47,164.82 313.81,163.83 314.14,162.69 314.48,161.69 314.81,160.79 315.14,159.94 315.48,159.25 315.81,157.93 316.15,157.36 316.49,156.22 316.82,155.50 317.15,154.79 317.49,153.94 317.82,153.08 318.16,152.45 318.50,151.46 318.83,150.17 319.16,149.03 319.50,147.75 319.84,146.47 320.17,145.87 320.50,145.58 320.84,145.30 321.18,144.02 321.51,143.33 321.85,142.05 322.18,140.77 322.51,139.77 322.85,139.06 323.19,137.96 323.52,136.88 323.86,135.74 324.19,135.02 324.52,133.88 324.86,132.94 325.19,131.66 325.53,130.80 325.87,129.81 326.20,128.67 326.53,127.67 326.87,126.39 327.21,125.70 327.54,124.85 327.88,124.13 328.21,122.99 328.54,122.00 328.88,120.89 329.22,119.60 329.55,118.46 329.88,117.66 330.22,116.81 330.56,115.53 330.89,114.81 331.23,114.10 331.56,112.99 331.89,111.99 332.23,111.14 332.56,110.31 332.90,109.46 333.24,108.03 333.57,106.76 333.90,105.62 334.24,104.62 334.57,103.36 334.91,102.64 335.25,101.77 335.58,100.92 335.91,99.92 336.25,98.50 336.59,97.36 336.92,96.50 337.25,95.22 337.59,94.26 337.93,93.27 338.26,92.13 338.60,91.27 338.93,90.22 339.26,89.36 339.60,88.22 339.94,87.42 340.27,86.28 340.61,85.00 340.94,83.72 341.27,82.72 341.61,81.29 341.94,80.44 342.28,79.77 342.62,78.49 342.95,77.49 343.29,76.35 343.62,75.37 343.95,73.94 344.29,72.80 344.62,71.52 344.96,71.65 345.30,72.64 345.63,73.21 345.96,73.97 346.30,74.30 346.63,74.87 346.97,75.44 347.31,76.04 347.64,76.65 347.98,76.65 348.31,75.79 348.64,76.46 348.98,76.55 349.31,77.12 349.65,77.97 349.99,78.40 350.32,79.54 350.65,80.15 350.99,80.37 351.32,81.51 351.66,82.52 352.00,83.45 352.33,83.39 352.67,83.96 353.00,85.24 353.33,86.04 353.67,87.25 354.00,88.23 354.34,89.09 354.68,90.09 355.01,90.80 355.35,91.94 355.68,92.94 356.01,93.92 356.35,94.92 356.69,96.20 357.02,96.91 357.36,98.01 357.69,98.64 358.02,99.44 358.36,99.52 358.69,99.95 359.03,100.12 359.37,98.80 359.70,97.51 360.04,96.23 360.37,95.66 360.70,95.12 361.04,95.12 361.38,95.83 361.71,96.46 362.05,96.53 362.38,96.29 362.71,96.71 363.05,97.20 363.38,97.06 363.72,96.63 364.06,95.63 364.39,94.63 364.73,93.69 365.06,92.31 365.39,91.54 365.73,90.69 366.06,89.55 366.40,88.69 366.74,87.84 367.07,87.27 367.40,87.41 367.74,86.84 368.07,85.80 368.41,84.51 368.75,83.80 369.08,82.52 369.42,82.38 369.75,82.80 370.08,83.22 370.42,83.10 370.75,82.72 371.09,82.63 371.43,82.42 371.76,83.42 372.10,84.27 372.43,85.56 372.76,86.31 373.10,87.02 373.44,87.86 373.77,89.00 374.11,90.29 374.44,90.14 374.77,90.10 375.11,90.86 375.44,91.70 375.78,92.77 376.12,93.47 376.45,94.32 376.79,95.18 377.12,95.60 377.45,96.00 377.79,97.09 378.12,97.94 378.46,98.80 378.80,100.08 379.13,101.22 379.46,102.33 379.80,103.04 380.13,103.61 380.47,104.32 380.81,105.47 381.14,106.32 381.48,107.46 381.81,108.17 382.14,108.89 382.48,109.75 382.81,110.64 383.15,110.50 383.49,111.56 383.82,112.42 384.15,113.36 384.49,114.50 384.82,115.64 385.16,116.75 385.50,117.47 385.83,118.75 386.17,119.56 386.50,120.56 386.83,121.56 387.17,121.70 387.50,122.04 387.84,122.28 388.18,122.68 388.51,122.54 388.85,122.11 389.18,122.24 389.51,121.43 389.85,120.29 390.19,119.57 390.52,119.85 390.86,119.70 391.19,120.27 391.52,119.99 391.86,119.99 392.19,119.45 392.53,118.88 392.87,118.61 393.20,117.22 393.54,116.23 393.87,115.14 394.20,114.57 394.54,115.85 394.88,116.42 395.21,117.14 395.55,118.28 395.88,119.49 396.21,120.49 396.55,121.48 396.88,122.20 397.22,123.19 397.56,124.19 397.89,125.19 398.23,125.90 398.56,126.90 398.89,127.90 399.23,128.61 399.56,129.39 399.90,130.25 400.24,131.10 400.57,132.39 400.90,133.67 401.24,134.95 401.57,135.88 401.91,136.32 402.25,135.89 402.58,135.47 402.92,134.67 403.25,133.81 403.58,133.91 403.92,134.48 404.25,135.62 404.59,136.49 404.93,137.35 405.26,137.80 405.60,138.80 405.93,139.64 406.26,140.64 406.60,141.68 406.94,142.55 407.27,143.69 407.61,144.54 407.94,145.97 408.27,147.25 408.61,148.42 408.94,149.42 409.28,150.67 409.62,151.53 409.95,152.52 410.29,153.52 410.62,155.09 410.95,155.80 411.29,156.80 411.62,157.41 411.96,158.41 412.30,159.55 412.63,160.55 412.96,161.63 413.30,162.77 413.63,163.63 413.97,164.77 414.31,165.76 414.64,166.86 414.98,167.57 415.31,168.93 415.64,170.21 415.98,171.35 416.31,172.08 416.65,172.79 416.99,173.79 417.32,174.79 417.65,175.93 417.99,176.78 418.32,177.49 418.66,178.63 419.00,179.77 419.33,180.77 419.67,181.91 420.00,182.77 420.33,184.05 420.67,184.05 421.00,184.33 421.34,185.47 421.68,185.90 422.01,185.33 422.35,185.33 422.68,185.26 423.01,184.98 423.35,185.40 423.69,185.25 424.02,184.82 424.36,185.12 424.69,184.86 425.02,185.36 425.36,185.33 425.69,185.19 426.03,185.90 426.37,187.33 426.70,187.56 427.04,187.91 427.37,188.91 427.70,189.78 428.04,190.78 428.38,191.49 428.71,192.06 429.05,192.91 429.38,194.07 429.71,194.78 430.05,195.74 430.38,196.88 430.72,198.02 431.06,199.06 431.39,200.05 431.73,201.62 432.06,202.05 432.39,203.29 432.73,204.00 433.06,205.43 433.40,206.57 433.74,207.54 434.07,208.52 434.40,209.80 434.74,210.94 435.07,211.66 435.41,212.51 435.75,213.34 436.08,214.33 436.42,215.47 436.75,216.33 437.08,217.33 437.42,218.47 437.75,219.47 438.09,220.61 438.43,221.60 438.76,222.57 439.10,223.71 439.43,224.85 439.76,225.85 440.10,226.85 440.44,227.39 440.77,228.39 441.11,229.53 441.44,230.95 441.77,231.76 442.11,232.68 442.44,233.96 442.78,235.10 443.12,236.24 443.45,236.95 443.79,238.09 444.12,239.23 444.45,240.37 444.79,241.14 445.12,242.25 445.46,243.68 445.80,244.81 446.13,245.95 446.46,246.80 446.80,247.09 447.13,246.94 447.47,247.13 447.81,247.03 448.14,246.74 448.48,246.83 448.81,246.56 449.14,246.13 449.48,246.20 449.81,246.49 450.15,246.50 450.49,246.79 450.82,247.36 451.15,247.53 451.49,248.38 451.82,249.22 452.16,249.65 452.50,249.65 452.83,250.90 453.17,252.05 453.50,253.33 453.83,254.18 454.17,255.14 454.50,256.42 454.84,257.42 455.18,258.29 455.51,259.14 455.85,260.00 456.18,261.14 456.51,262.14 456.85,262.99 457.19,263.70 457.52,264.56 457.86,265.70 458.19,266.58 458.52,267.75 458.86,268.75 459.19,270.03 459.53,270.60 459.87,271.74 460.20,272.88 460.54,273.88 460.87,274.73 461.20,275.59 461.54,276.30 461.88,277.16 462.21,277.58 462.55,277.44 462.88,277.86 463.21,278.67 463.55,277.71 463.88,277.14 464.22,277.14 464.56,276.27 464.89,276.29 465.23,275.86 465.56,275.43 465.89,276.00 466.23,276.72 466.56,277.71 466.90,278.43 467.24,279.42 467.57,280.66 467.90,281.95 468.24,283.34 468.57,284.61 468.91,285.11 469.25,286.25 469.58,287.42 469.92,288.42 470.25,289.41 470.58,290.28 470.92,291.00 471.25,292.14 471.59,293.13 471.93,294.42 472.26,295.27 472.60,296.55 472.93,297.61 473.26,298.66 473.60,299.80 473.94,300.80 474.27,301.20 474.61,302.62 474.94,303.39 475.27,304.11 475.61,303.17 475.94,303.31 476.28,302.60 476.62,303.17 476.95,302.74 477.29,303.47 477.62,304.58 477.95,305.65 478.29,307.07 478.62,308.21 478.96,309.08 479.30,310.08 479.63,310.98 479.96,310.96 480.30,310.68 480.63,310.53 480.97,311.39 481.31,311.63 481.64,312.63 481.98,313.91 482.31,314.91 482.64,313.48 482.98,312.49 483.31,311.35 483.65,311.20 483.99,310.21 484.32,309.49 484.65,308.50 484.99,307.50 485.32,306.46 485.66,305.72 486.00,304.58 486.33,303.44 486.67,302.38 487.00,301.34 487.33,300.63 487.67,300.49 488.00,299.92 488.34,299.92 488.68,299.92 489.01,299.85 489.35,299.56 489.68,299.73 490.01,300.37 490.35,300.06 490.69,299.90 491.02,300.33 491.36,301.47 491.69,301.47 492.02,301.67 492.36,301.67 492.69,301.88 493.03,302.68 493.37,303.54 493.70,304.53 494.04,305.39 494.37,306.50 494.70,307.64 495.04,308.78 495.38,309.92 495.71,311.16 496.05,312.44 496.38,313.01 496.71,314.30 497.05,315.05 497.38,316.34 497.72,317.33 498.06,317.19 498.39,317.46 498.73,318.60 499.06,319.46 499.39,320.82 499.73,321.96 500.06,323.10 500.40,323.82 500.74,324.67 501.07,325.96 501.40,326.81 501.74,326.84 502.07,326.84 502.41,326.58 502.75,326.72 503.08,326.58 503.42,326.87 503.75,326.87 504.08,326.97 504.42,326.94 504.75,326.94 505.09,327.94 505.43,327.51 505.76,327.39 506.10,326.40 506.43,326.54 506.76,326.37 507.10,326.03 507.44,326.31 507.77,326.03 508.11,326.13 508.44,326.45 508.77,327.42 509.11,328.25 509.44,328.39 509.78,328.82 510.12,328.15 510.45,326.72 510.79,325.87 511.12,324.97 511.45,324.10 511.79,323.10 512.12,322.69 512.46,322.79 512.80,323.10 513.13,324.07 513.46,324.24 513.80,323.83 514.13,322.93 514.47,322.08 514.81,321.08 515.14,320.27 515.48,319.13 515.81,317.85 516.14,316.56 516.48,315.42 516.82,314.50 517.15,313.47 517.49,312.05 517.82,310.76 518.15,309.77 518.49,308.72 518.83,307.76 519.16,307.03 519.50,306.46 519.83,305.32 520.16,304.63 520.50,303.49 520.84,302.64 521.17,301.53 521.50,300.39 521.84,299.35 522.17,298.21 522.51,297.00 522.85,295.93 523.18,294.64 523.51,293.73 523.85,292.59 524.18,291.68 524.52,290.82 524.86,290.11 525.19,289.11 525.52,288.05 525.86,287.33 526.19,286.62 526.53,286.58 526.87,285.86 527.20,285.67 527.54,285.95 527.87,286.76 528.20,287.38 528.54,288.64 528.88,289.50 529.21,290.35 529.55,291.78 529.88,292.92 530.21,294.34 530.55,295.20 530.88,296.05 531.22,296.91 531.56,298.19 531.89,299.12 532.23,299.97 532.56,300.97 532.89,301.97 533.23,302.82 533.57,303.82 533.90,304.53 534.24,305.67 534.57,306.42 534.90,307.76 535.24,308.75 535.58,309.75 535.91,310.75 536.25,311.89 536.58,313.04 536.91,314.18 537.25,315.11 537.59,316.05 537.92,317.30 538.25,318.16 538.59,319.30 538.92,320.17 539.26,321.02 539.60,321.31 539.93,320.77 540.26,320.40 540.60,320.50 540.93,320.78 541.27,320.78 541.61,321.02 541.94,320.97 542.27,319.68 542.61,318.83 542.94,317.55 543.28,316.56 543.62,315.89 543.95,315.04 544.29,313.80 544.62,312.37 544.95,311.28 545.29,310.14 545.62,309.00 545.96,308.14 546.30,307.17 546.63,306.39 546.96,305.49 547.30,304.35 547.63,303.49 547.97,302.78 548.31,301.78 548.64,300.77 548.98,300.06 549.31,298.78 549.64,297.49 549.98,297.38 550.32,297.24 550.65,297.38 550.99,297.38 551.32,296.67 551.65,295.53 551.99,294.39 552.33,293.25 552.66,292.28 553.00,291.42 553.33,290.74 553.66,290.47 554.00,290.47 554.34,290.75 554.67,290.61 555.00,290.77 555.34,291.19 555.67,291.44 556.01,291.67 556.35,291.52 556.68,291.28 557.01,291.22 557.35,291.51 557.68,292.22 558.02,293.50 558.36,294.49 558.69,295.36 559.02,296.20 559.36,297.08 559.69,298.22 560.03,298.73 560.37,299.87 560.70,300.44 561.04,300.87 561.37,301.36 561.70,301.31 562.04,301.73 562.38,303.01 562.71,304.29 563.05,305.23 563.38,305.99 563.71,306.99 564.05,308.13 564.38,309.55 564.72,310.41 565.06,311.26 565.39,312.54 565.73,313.06 566.06,313.64 566.39,314.62 566.73,315.48 567.07,316.62 567.40,317.65 567.74,318.93 568.07,320.11 568.40,321.39 568.74,322.53 569.08,323.25 569.41,324.53 569.75,325.26 570.08,326.15 570.41,327.58 570.75,328.58 571.09,329.62 571.42,330.19 571.75,330.79 572.09,331.56 572.42,332.27 572.76,333.20 573.10,334.05 573.43,334.55 573.76,335.69 574.10,336.62 574.43,337.61 574.77,338.18 575.11,339.32 575.44,340.25 575.77,341.25 576.11,341.96 576.44,342.53 576.78,343.57 577.12,344.85 577.45,345.86 577.79,347.01 578.12,347.72 578.45,348.86 578.79,350.00 579.12,351.00 579.46,351.72 579.80,352.68 580.13,353.96 580.46,354.62 580.80,355.47 581.13,356.37 581.47,357.22 581.81,358.43 582.14,359.43 582.48,360.15 582.81,360.86 583.14,360.72 583.48,361.73 583.82,362.71 584.15,363.42 584.49,364.28 584.82,364.85 585.15,364.42 585.49,363.42 585.83,362.71 586.16,361.86 586.50,360.86 586.83,360.00 587.16,359.43 587.50,358.29 587.84,357.58 588.17,356.58 588.50,355.58 588.84,354.59 589.17,353.73 589.51,352.78 589.85,352.92 590.18,353.77 590.51,354.34 590.85,354.64 591.18,355.50 591.52,355.37 591.86,354.84 592.19,353.85 592.52,353.99 592.86,353.85 593.19,354.27 593.53,353.87 593.87,354.39 594.20,355.33 594.54,354.93 594.87,354.69 595.20,353.69 595.54,352.41 595.88,350.87 596.21,349.87 596.55,348.87 596.88,347.73 597.22,346.45 597.55,345.31 597.88,343.88 598.22,342.89 598.55,341.46 598.89,340.51 599.23,339.51 599.56,338.23 599.89,337.23 600.23,336.23 600.57,335.38 600.90,334.38 601.24,333.52 601.57,332.24 601.90,331.24 602.24,330.24 602.58,329.38 602.91,328.26 603.25,327.41 603.58,326.84 603.91,326.78 604.25,327.86 604.59,328.01 604.92,328.69 605.25,329.69 605.59,330.69 605.92,331.43 606.26,331.71 606.60,332.14 606.93,333.28 607.26,334.36 607.60,335.50 607.93,335.90 608.27,335.89 608.61,335.67 608.94,334.96 609.27,334.32 609.61,333.47 609.95,333.48 610.28,333.91 610.62,333.91 610.95,334.05 611.28,335.12 611.62,335.26 611.96,333.84 612.29,332.84 612.62,331.56 612.96,330.42 613.29,329.48 613.63,328.91 613.97,328.89 614.30,328.35 614.63,327.35 614.97,326.64 615.30,325.93 615.64,324.64 615.98,323.75 616.31,322.75 616.64,321.54 616.98,320.30 617.32,319.21 617.65,318.36 617.99,318.64 618.32,318.23 618.65,317.23 618.99,316.38 619.33,315.24 619.66,314.24 620.00,313.44 620.33,312.59 620.66,311.76 621.00,310.62 621.34,309.19 621.67,308.48 622.00,307.57 622.34,306.57 622.67,305.56 623.01,304.56 623.35,303.71 623.68,302.85 624.01,302.00 624.35,301.14 624.68,300.29 625.02,299.57 625.36,298.72 625.69,297.86 626.02,296.91 626.36,295.98 626.70,295.00 627.03,293.95 627.37,293.15 627.70,292.43 628.03,291.55 628.37,290.13 628.71,289.13 629.04,288.27 629.38,287.42 629.71,286.42 630.04,286.32 630.38,286.19 630.72,286.99 631.05,286.08 631.38,284.95 631.72,284.37 632.05,283.24 632.39,282.39 632.73,282.90 633.06,281.62 633.39,280.48 633.73,279.48 634.07,278.87 634.40,278.30 634.74,277.47 635.07,276.46 635.40,275.62 635.74,274.48 636.08,273.35 636.41,272.48 636.75,271.20 637.08,270.34 637.41,269.25 637.75,268.11 638.09,266.97 638.42,265.83 638.75,265.23 639.09,264.09 639.42,263.06 639.76,262.18 640.10,261.32 640.43,260.75 640.76,259.76 641.10,258.62 641.43,257.33 641.77,256.19 642.11,255.22 642.44,254.23 642.77,253.23 643.11,252.44 643.45,251.59 643.78,250.45 644.12,249.52 644.45,248.38 644.78,247.24 645.12,246.10 645.46,244.68 645.79,244.11 646.12,243.28 646.46,242.43 646.79,241.37 647.13,240.26 647.47,238.98 647.80,237.98 648.13,236.77 648.47,235.48 648.80,234.06 649.14,233.49 649.48,231.92 649.81,230.78 650.14,229.78 650.48,228.64 650.82,227.65 651.15,226.36 651.49,224.98 651.82,224.15 652.15,223.16 652.49,221.80 652.83,221.30 653.16,220.68 653.50,219.96 653.83,219.82 654.16,219.39 654.50,219.54 654.84,219.72 655.17,218.68 655.50,217.26 655.84,216.90 656.17,216.76 656.51,217.04 656.85,217.61 657.18,218.03 657.51,218.33 657.85,219.39 658.18,219.18 658.52,219.19 658.86,218.71 659.19,217.43 659.52,216.43 659.86,215.29 660.20,214.29 660.53,213.47 660.87,212.61 661.20,212.90 661.53,212.18 661.87,211.54 662.21,211.11 662.54,211.58 662.88,211.87 663.21,212.50 663.54,213.49 663.88,214.63 664.22,215.06 664.55,215.49 664.88,216.34 665.22,215.99 665.55,215.90 665.89,215.05 666.23,215.26 666.56,215.26 666.89,215.12 667.23,214.04 667.57,214.45 667.90,214.59 668.24,214.21 668.57,213.78 668.90,213.79 669.24,213.37 669.58,213.82 669.91,213.68 670.25,213.11 670.58,213.96 670.91,214.71 671.25,215.86 671.59,216.91 671.92,217.77 672.25,218.91 672.59,220.19 672.92,221.59 673.26,222.59 673.60,223.71 673.93,224.28 674.26,225.31 674.60,225.86 674.93,227.00 675.27,226.15 675.61,225.35 675.94,224.64 676.27,224.64 676.61,224.84 676.95,225.31 677.28,225.31 677.62,224.60 677.95,224.03 678.28,224.45 678.62,224.23 678.96,224.23 679.29,224.51 679.62,225.51 679.96,226.93 680.29,227.67 680.63,228.53 680.97,229.67 681.30,230.68 681.63,231.81 681.97,232.24 682.30,232.95 682.64,234.06 682.98,235.06 683.31,236.34 683.64,237.82 683.98,238.76 684.32,239.60 684.65,240.89 684.99,241.74 685.32,242.88 685.65,244.18 685.99,245.18 686.33,246.03 686.66,247.14 687.00,247.57 687.33,248.85 687.66,249.98 688.00,250.69 688.34,251.83 688.67,252.69 689.00,253.83 689.34,255.15 689.67,256.01 690.01,257.00 690.35,257.86 690.68,259.00 691.01,260.00 691.35,260.85 691.68,261.68 692.02,262.39 692.36,263.67 692.69,263.92 693.02,264.20 693.36,265.30 693.70,265.34 694.03,264.76 694.37,264.56 694.70,265.21 695.03,264.93 695.37,264.84 695.71,263.62 696.04,262.68 696.38,261.68 696.71,260.97 697.04,260.68 697.38,260.00 697.72,258.84 698.05,257.42 698.38,256.65 698.72,255.79 699.05,254.65 699.39,253.81 699.73,252.81 700.06,252.20 700.39,250.92 700.73,249.78 701.07,248.74 701.40,248.03 701.74,247.23 702.07,246.80 702.40,247.27 702.74,247.27 703.08,246.42 703.41,245.67 703.75,244.99 704.08,245.28 704.41,245.93 704.75,245.65 705.09,246.64 705.42,247.07 705.75,247.73 706.09,247.44 706.42,247.30 706.76,246.22 707.10,245.43 707.43,244.16 707.76,243.09 708.10,241.88 708.43,241.46 708.77,240.32 709.11,239.82 709.44,240.10 709.77,239.96 710.11,239.67 710.45,239.63 710.78,239.06 711.12,239.92 711.45,241.20 711.78,242.62 712.12,243.75 712.46,243.98 712.79,244.98 713.12,246.20 713.46,247.48 713.79,248.20 714.13,249.34 714.47,250.48 714.80,251.19 715.13,251.76 715.47,252.47 715.80,253.29 716.14,254.57 716.48,255.14 716.81,255.71 717.14,255.94 717.48,256.08 717.82,256.08 718.15,256.36 718.49,256.36 718.82,257.22 719.15,258.36 719.49,259.64 719.83,260.20 720.16,259.47 720.50,258.87 720.83,257.89 721.16,258.77 721.50,259.10 721.84,258.91 722.17,258.63 722.50,258.34 722.84,258.49 723.17,258.20 723.51,257.67 723.85,256.56 724.18,255.28 724.51,255.45 724.85,255.02 725.18,255.76 725.52,255.76 725.86,255.48 726.19,255.62 726.52,255.48 726.86,255.99 727.20,255.27 727.53,254.65 727.87,253.51 728.20,252.52 728.53,252.87 728.87,253.58 729.21,253.44 729.54,254.01 729.88,254.72 730.21,255.44 730.54,255.99 730.88,257.28 731.22,256.95 731.55,256.81 731.88,256.61 732.22,256.36 732.55,256.08 732.89,256.16 733.23,256.09 733.56,256.09 733.89,255.52 734.23,254.64 734.57,253.78 734.90,252.93 735.24,252.50 735.57,252.22 735.90,251.50 736.24,250.51 736.58,250.42 736.91,250.89 737.25,252.17 737.58,253.31 737.91,254.45 738.25,255.31 738.59,256.59 738.92,257.39 739.25,257.10 739.59,257.55 739.92,258.40 740.26,259.68 740.60,260.11 740.93,260.55 741.26,261.55 741.60,262.98 741.93,263.83 742.27,265.26 742.61,266.27 742.94,267.41 743.27,268.63 743.61,269.77 743.95,270.91 744.28,271.50 744.62,272.07 744.95,273.07 745.28,274.45 745.62,274.73 745.96,273.91 746.29,272.91 746.62,272.34 746.96,271.34 747.29,270.26 747.63,269.29 747.97,268.58 748.30,267.72 748.63,266.77 748.97,265.81 749.30,264.81 749.64,263.82 749.98,263.10 750.31,262.12 750.64,261.35 750.98,260.54 751.32,260.68 751.65,260.35 751.99,259.21 752.32,258.50 752.65,257.50 752.99,256.14 753.33,256.14 753.66,256.14 754.00,256.46 754.33,256.36 754.66,257.28 755.00,258.13 755.00,344.72"/>
<line x1="783" y1="58" x2="809" y2="58" stroke="#2563eb" stroke-width="3"/>
<text x="817" y="62" font-family="Arial" font-size="13" fill="#111827">Naive</text>
<polyline fill="none" stroke="#dc2626" stroke-width="2" points="85.00,344.72 85.33,344.72 85.67,344.25 86.00,344.61 86.34,345.75 86.67,346.82 87.01,347.95 87.34,348.94 87.68,349.80 88.02,350.70 88.35,350.98 88.69,351.25 89.02,351.34 89.36,351.05 89.69,350.34 90.03,349.63 90.36,349.26 90.69,349.16 91.03,349.58 91.36,349.16 91.70,348.73 92.03,348.16 92.37,349.09 92.70,349.37 93.04,348.94 93.38,348.86 93.71,349.29 94.05,348.57 94.38,347.65 94.72,347.39 95.05,346.39 95.39,345.39 95.72,344.11 96.06,343.26 96.39,341.95 96.72,341.23 97.06,340.24 97.39,339.18 97.73,338.61 98.06,337.47 98.40,336.47 98.73,335.90 99.07,334.91 99.41,333.62 99.74,332.34 100.08,332.31 100.41,333.18 100.75,334.32 101.08,335.42 101.41,336.43 101.75,337.58 102.09,338.15 102.42,339.44 102.75,340.56 103.09,341.70 103.42,340.61 103.76,339.89 104.09,339.37 104.43,338.61 104.77,338.47 105.10,338.04 105.44,338.33 105.77,339.04 106.11,339.89 106.44,340.85 106.78,341.56 107.11,342.84 107.44,342.89 107.78,341.75 108.11,341.90 108.45,341.70 108.78,341.28 109.12,340.28 109.45,340.01 109.79,339.05 110.12,338.03 110.46,337.46 110.80,337.31 111.13,337.31 111.47,337.94 111.80,338.51 112.14,338.45 112.47,338.65 112.81,339.08 113.14,339.37 113.47,339.37 113.81,339.34 114.14,339.67 114.48,339.95 114.81,340.24 115.15,340.21 115.48,340.21 115.82,340.58 116.16,340.58 116.49,341.43 116.83,342.57 117.16,343.71 117.50,344.71 117.83,345.71 118.16,346.85 118.50,347.86 118.84,349.00 119.17,349.86 119.50,350.71 119.84,351.45 120.17,352.45 120.51,353.45 120.84,354.52 121.18,355.51 121.52,356.38 121.85,357.52 122.19,358.48 122.52,359.48 122.85,360.32 123.19,360.89 123.53,361.80 123.86,362.51 124.19,363.79 124.53,364.65 124.87,365.89 125.20,366.74 125.53,367.23 125.87,367.94 126.20,366.94 126.54,366.09 126.88,364.95 127.21,363.95 127.55,363.38 127.88,362.51 128.22,361.66 128.55,360.37 128.88,359.66 129.22,359.28 129.56,358.28 129.89,357.29 130.22,356.15 130.56,354.73 130.90,353.59 131.23,352.16 131.56,352.16 131.90,351.44 132.24,351.54 132.57,351.25 132.91,352.05 133.24,353.05 133.57,354.05 133.91,353.62 134.25,354.15 134.58,354.15 134.91,355.00 135.25,354.77 135.59,355.21 135.92,355.36 136.25,355.31 136.59,355.46 136.93,356.17 137.26,356.01 137.59,356.01 137.93,354.87 138.26,355.16 138.60,354.87 138.94,355.07 139.27,355.07 139.60,355.83 139.94,356.54 140.28,357.28 140.61,358.48 140.94,359.48 141.28,360.19 141.62,361.33 141.95,362.61 142.28,363.47 142.62,364.46 142.95,365.60 143.29,366.46 143.62,367.46 143.96,368.31 144.30,369.31 144.63,369.92 144.97,370.79 145.30,371.08 145.63,372.36 145.97,373.50 146.31,374.64 146.64,375.21 146.97,374.41 147.31,374.84 147.65,375.69 147.98,375.98 148.31,375.92 148.65,375.42 148.99,375.94 149.32,376.22 149.66,377.22 149.99,378.50 150.32,379.27 150.66,378.42 151.00,378.40 151.33,377.99 151.67,378.42 152.00,378.13 152.33,379.13 152.67,379.84 153.00,379.50 153.34,378.89 153.68,378.60 154.01,378.74 154.34,379.68 154.68,379.36 155.01,379.66 155.35,379.94 155.69,381.37 156.02,382.36 156.36,383.22 156.69,383.30 157.03,383.19 157.36,384.05 157.69,385.04 158.03,385.67 158.37,387.10 158.70,387.95 159.03,388.52 159.37,389.66 159.70,390.47 160.04,391.61 160.38,391.44 160.71,391.30 161.05,391.01 161.38,390.30 161.72,389.28 162.05,388.56 162.38,387.44 162.72,386.01 163.06,385.07 163.39,383.93 163.72,384.12 164.06,384.40 164.39,384.26 164.73,384.47 165.06,383.55 165.40,382.55 165.74,381.55 166.07,380.41 166.41,379.27 166.74,378.56 167.07,377.42 167.41,376.28 167.75,375.14 168.08,374.18 168.42,373.19 168.75,372.05 169.08,370.91 169.42,369.91 169.75,368.88 170.09,367.88 170.43,366.67 170.76,365.82 171.09,364.96 171.43,364.39 171.76,363.39 172.10,362.44 172.44,361.44 172.77,360.30 173.11,359.45 173.44,358.32 173.78,357.18 174.11,356.33 174.44,355.47 174.78,354.76 175.12,353.63 175.45,352.61 175.78,351.47 176.12,350.33 176.45,349.39 176.79,348.24 177.12,347.39 177.46,346.15 177.80,345.38 178.13,344.38 178.47,343.33 178.80,342.60 179.13,341.87 179.47,340.88 179.81,340.16 180.14,339.02 180.47,337.87 180.81,336.73 181.14,335.59 181.48,334.83 181.81,333.84 182.15,332.98 182.49,331.86 182.82,330.86 183.16,329.73 183.49,329.02 183.82,327.74 184.16,326.87 184.50,325.77 184.83,324.99 185.17,324.00 185.50,322.85 185.83,321.57 186.17,320.71 186.50,319.86 186.84,318.80 187.18,317.52 187.51,316.41 187.84,315.55 188.18,314.72 188.51,313.73 188.85,312.87 189.19,312.16 189.52,311.02 189.86,309.88 190.19,308.98 190.53,308.55 190.86,307.27 191.19,306.42 191.53,305.13 191.87,303.85 192.20,302.71 192.53,301.74 192.87,300.74 193.20,300.03 193.54,299.05 193.88,297.91 194.21,296.91 194.55,296.05 194.88,295.37 195.22,294.05 195.55,292.62 195.88,291.64 196.22,290.64 196.56,289.78 196.89,290.17 197.22,290.74 197.56,291.59 197.89,291.88 198.23,292.16 198.56,291.02 198.90,290.31 199.24,289.31 199.57,288.22 199.91,287.36 200.24,286.51 200.57,285.79 200.91,285.65 201.25,286.22 201.58,286.22 201.92,285.51 202.25,284.51 202.58,283.66 202.92,283.09 203.25,281.80 203.59,280.81 203.93,279.81 204.26,278.67 204.59,277.67 204.93,276.39 205.26,275.25 205.60,274.11 205.94,273.08 206.27,271.94 206.61,270.80 206.94,269.95 207.28,268.52 207.61,267.24 207.94,266.23 208.28,265.09 208.62,263.93 208.95,264.22 209.28,263.80 209.62,264.05 209.95,264.76 210.29,263.33 210.62,264.19 210.96,264.13 211.30,263.69 211.63,263.19 211.97,262.91 212.30,262.56 212.63,262.62 212.97,262.76 213.31,264.33 213.64,264.84 213.97,265.09 214.31,265.37 214.65,265.37 214.98,265.66 215.31,265.80 215.65,264.66 215.99,263.90 216.32,263.19 216.66,263.05 216.99,262.75 217.32,263.32 217.66,262.05 218.00,261.48 218.33,260.48 218.66,261.29 219.00,261.24 219.34,262.09 219.67,262.18 220.00,262.45 220.34,261.49 220.68,260.51 221.01,259.76 221.34,258.76 221.68,259.19 222.01,260.25 222.35,261.11 222.69,262.11 223.02,262.53 223.35,263.16 223.69,264.30 224.03,265.73 224.36,266.62 224.69,267.62 225.03,268.63 225.37,269.72 225.70,271.00 226.03,271.95 226.37,272.82 226.71,273.82 227.04,274.95 227.38,275.96 227.71,276.96 228.04,278.08 228.38,278.64 228.72,280.16 229.05,281.09 229.38,281.66 229.72,282.37 230.06,283.30 230.39,284.30 230.72,285.58 231.06,286.59 231.40,287.59 231.73,288.77 232.06,289.91 232.40,290.72 232.74,291.72 233.07,292.58 233.41,293.59 233.74,294.30 234.07,295.23 234.41,296.08 234.75,297.37 235.08,298.22 235.41,299.49 235.75,300.49 236.09,300.91 236.42,301.77 236.75,301.06 237.09,299.92 237.43,298.91 237.76,297.91 238.09,296.77 238.43,295.34 238.76,294.20 239.10,293.20 239.44,292.78 239.77,293.20 240.10,293.62 240.44,294.77 240.78,294.49 241.11,294.63 241.44,294.91 241.78,295.87 242.12,294.86 242.45,293.86 242.78,292.86 243.12,292.18 243.46,291.22 243.79,290.37 244.12,289.50 244.46,288.64 244.79,287.77 245.13,286.56 245.47,285.99 245.80,284.95 246.13,283.90 246.47,282.47 246.81,282.05 247.14,281.33 247.47,280.19 247.81,278.77 248.15,277.91 248.48,276.77 248.81,275.75 249.15,274.46 249.49,273.78 249.82,272.94 250.16,271.73 250.49,270.47 250.82,269.99 251.16,269.03 251.50,267.75 251.83,266.61 252.16,265.76 252.50,264.90 252.84,264.06 253.17,262.78 253.50,261.99 253.84,261.01 254.18,259.76 254.51,258.90 254.84,258.27 255.18,257.23 255.51,256.53 255.85,255.54 256.19,254.40 256.52,253.68 256.86,252.69 257.19,251.83 257.52,252.22 257.86,253.36 258.19,254.13 258.53,255.31 258.87,256.43 259.20,257.43 259.53,258.14 259.87,259.14 260.21,260.28 260.54,261.18 260.88,262.32 261.21,263.18 261.54,263.63 261.88,264.44 262.22,265.58 262.55,266.54 262.88,267.44 263.22,268.29 263.56,269.15 263.89,270.43 264.23,271.86 264.56,272.71 264.89,272.85 265.23,272.90 265.56,273.61 265.90,273.61 266.24,273.55 266.57,273.98 266.90,274.66 267.24,273.99 267.57,273.71 267.91,274.25 268.25,274.82 268.58,275.72 268.91,276.93 269.25,277.78 269.59,278.78 269.92,279.64 270.25,281.06 270.59,281.35 270.93,281.83 271.26,282.09 271.60,282.94 271.93,283.30 272.26,283.58 272.60,284.44 272.94,284.91 273.27,285.35 273.61,285.92 273.94,286.29 274.27,286.43 274.61,286.43 274.94,285.85 275.28,286.46 275.62,287.33 275.95,286.62 276.28,285.67 276.62,284.64 276.96,283.64 277.29,282.79 277.62,282.07 277.96,281.50 278.29,281.93 278.63,282.06 278.97,281.06 279.30,280.49 279.63,279.49 279.97,279.19 280.31,279.91 280.64,280.33 280.98,279.62 281.31,278.62 281.64,277.87 281.98,277.58 282.31,277.58 282.65,276.29 282.99,275.43 283.32,275.00 283.65,273.72 283.99,272.74 284.32,271.88 284.66,270.73 285.00,269.87 285.33,268.88 285.66,267.88 286.00,266.88 286.34,266.03 286.67,265.03 287.00,264.32 287.34,263.43 287.68,263.86 288.01,264.87 288.35,266.01 288.68,266.92 289.01,267.64 289.35,268.46 289.69,269.32 290.02,270.43 290.36,269.72 290.69,268.82 291.02,268.68 291.36,268.43 291.69,267.89 292.03,266.90 292.37,266.88 292.70,265.46 293.03,264.32 293.37,263.52 293.71,262.66 294.04,261.55 294.38,260.55 294.71,259.41 295.04,258.50 295.38,257.76 295.72,257.48 296.05,257.22 296.38,256.82 296.72,257.53 297.06,258.24 297.39,258.39 297.73,258.81 298.06,259.97 298.39,261.32 298.73,262.18 299.06,263.16 299.40,264.30 299.74,265.58 300.07,266.58 300.40,267.44 300.74,268.72 301.07,269.57 301.41,270.72 301.75,271.63 302.08,272.34 302.41,273.35 302.75,274.15 303.09,274.75 303.42,275.60 303.75,276.89 304.09,277.46 304.43,278.60 304.76,279.47 305.10,280.75 305.43,281.89 305.76,282.74 306.10,283.66 306.44,283.94 306.77,283.93 307.11,283.21 307.44,282.07 307.77,282.22 308.11,282.79 308.44,281.45 308.78,280.16 309.12,279.49 309.45,278.50 309.78,277.50 310.12,276.22 310.46,275.43 310.79,274.29 311.12,273.29 311.46,271.87 311.79,270.94 312.13,270.42 312.47,269.28 312.80,268.52 313.13,267.44 313.47,266.54 313.81,265.43 314.14,264.14 314.48,263.15 314.81,262.15 315.14,261.29 315.48,260.61 315.81,259.29 316.15,258.71 316.49,257.57 316.82,256.72 317.15,256.01 317.49,255.01 317.82,254.15 318.16,253.53 318.50,252.53 318.83,251.25 319.16,250.39 319.50,250.68 319.84,249.82 320.17,250.48 320.50,251.20 320.84,252.34 321.18,251.63 321.51,252.91 321.85,252.49 322.18,251.32 322.51,250.32 322.85,249.72 323.19,248.62 323.52,247.54 323.86,246.40 324.19,245.69 324.52,244.55 324.86,243.61 325.19,242.33 325.53,241.47 325.87,240.47 326.20,239.33 326.53,238.33 326.87,237.05 327.21,236.30 327.54,235.44 327.88,234.73 328.21,233.59 328.54,232.59 328.88,231.62 329.22,230.41 329.55,229.27 329.88,228.42 330.22,227.56 330.56,226.28 330.89,225.57 331.23,224.57 331.56,223.46 331.89,222.46 332.23,221.60 332.56,220.78 332.90,220.06 333.24,218.64 333.57,217.37 333.90,216.23 334.24,215.38 334.57,214.11 334.91,213.39 335.25,212.52 335.58,211.67 335.91,210.67 336.25,209.25 336.59,208.11 336.92,207.39 337.25,206.11 337.59,205.16 337.93,204.16 338.26,203.02 338.60,202.16 338.93,201.11 339.26,200.25 339.60,199.11 339.94,198.32 340.27,197.18 340.61,195.89 340.94,194.61 341.27,193.61 341.61,192.19 341.94,191.33 342.28,190.66 342.62,189.38 342.95,188.38 343.29,187.24 343.62,186.26 343.95,184.83 344.29,183.69 344.62,182.98 344.96,183.94 345.30,185.22 345.63,186.40 345.96,187.44 346.30,188.48 346.63,189.62 346.97,190.90 347.31,192.06 347.64,193.20 347.98,194.20 348.31,194.62 348.64,195.86 348.98,197.05 349.31,198.04 349.65,199.19 349.99,200.18 350.32,201.47 350.65,202.35 350.99,203.36 351.32,204.64 351.66,205.66 352.00,206.80 352.33,207.31 352.67,208.45 353.00,209.73 353.33,210.53 353.67,211.74 354.00,212.72 354.34,213.58 354.68,214.72 355.01,215.43 355.35,216.57 355.68,217.57 356.01,218.55 356.35,219.55 356.69,220.83 357.02,221.55 357.36,222.79 357.69,223.95 358.02,225.07 358.36,226.16 358.69,227.16 359.03,227.69 359.37,226.79 359.70,225.65 360.04,224.37 360.37,223.94 360.70,224.80 361.04,225.94 361.38,227.08 361.71,228.36 362.05,229.24 362.38,230.24 362.71,231.09 363.05,232.01 363.38,232.29 363.72,232.58 364.06,231.86 364.39,230.87 364.73,229.93 365.06,228.69 365.39,228.06 365.73,227.20 366.06,226.53 366.40,226.62 366.74,226.35 367.07,226.92 367.40,227.52 367.74,227.52 368.07,226.62 368.41,225.76 368.75,226.33 369.08,225.91 369.42,226.48 369.75,227.47 370.08,228.62 370.42,229.61 370.75,230.18 371.09,230.60 371.43,230.67 371.76,231.81 372.10,232.66 372.43,233.95 372.76,234.99 373.10,235.84 373.44,237.11 373.77,238.25 374.11,239.53 374.44,239.93 374.77,240.36 375.11,241.11 375.44,242.10 375.78,243.31 376.12,244.01 376.45,244.86 376.79,245.86 377.12,246.86 377.45,247.68 377.79,248.77 378.12,249.62 378.46,250.33 378.80,251.62 379.13,252.76 379.46,253.87 379.80,254.80 380.13,255.51 380.47,256.36 380.81,257.50 381.14,258.36 381.48,259.50 381.81,260.24 382.14,261.24 382.48,262.11 382.81,263.18 383.15,263.53 383.49,264.81 383.82,265.67 384.15,266.61 384.49,267.75 384.82,268.82 385.16,269.93 385.50,270.64 385.83,271.93 386.17,272.74 386.50,273.74 386.83,275.02 387.17,276.02 387.50,276.64 387.84,277.61 388.18,278.18 388.51,278.45 388.85,278.17 389.18,278.62 389.51,278.17 389.85,277.03 390.19,276.46 390.52,276.87 390.86,277.16 391.19,277.87 391.52,278.01 391.86,278.30 392.19,278.47 392.53,278.18 392.87,278.45 393.20,277.36 393.54,276.50 393.87,275.43 394.20,275.29 394.54,276.57 394.88,277.63 395.21,278.34 395.55,279.48 395.88,280.76 396.21,281.76 396.55,282.76 396.88,283.47 397.22,284.47 397.56,285.47 397.89,286.46 398.23,287.18 398.56,288.17 398.89,289.31 399.23,290.31 399.56,291.10 399.90,291.81 400.24,292.81 400.57,294.09 400.90,295.37 401.24,296.65 401.57,297.51 401.91,298.38 402.25,298.38 402.58,298.09 402.92,297.29 403.25,297.01 403.58,297.25 403.92,297.82 404.25,298.96 404.59,299.82 404.93,300.67 405.26,301.30 405.60,302.30 405.93,303.14 406.26,304.14 406.60,305.18 406.94,306.19 407.27,307.33 407.61,308.18 407.94,309.61 408.27,310.89 408.61,312.06 408.94,313.06 409.28,314.31 409.62,315.17 409.95,316.16 410.29,317.16 410.62,318.73 410.95,319.44 411.29,320.44 411.62,321.05 411.96,322.05 412.30,323.19 412.63,324.19 412.96,325.27 413.30,326.41 413.63,327.27 413.97,328.41 414.31,329.40 414.64,330.50 414.98,331.21 415.31,332.57 415.64,333.85 415.98,334.99 416.31,335.72 416.65,336.43 416.99,337.29 417.32,338.28 417.65,339.28 417.99,340.14 418.32,340.99 418.66,341.85 419.00,342.99 419.33,343.98 419.67,345.12 420.00,346.12 420.33,347.26 420.67,347.12 421.00,347.26 421.34,348.40 421.68,348.83 422.01,348.26 422.35,348.26 422.68,348.19 423.01,347.76 423.35,348.19 423.69,348.03 424.02,347.60 424.36,347.90 424.69,347.65 425.02,348.15 425.36,348.12 425.69,347.89 426.03,348.54 426.37,349.83 426.70,349.97 427.04,350.18 427.37,351.18 427.70,352.05 428.04,353.05 428.38,353.76 428.71,354.47 429.05,355.33 429.38,356.48 429.71,357.20 430.05,358.15 430.38,359.29 430.72,360.43 431.06,361.47 431.39,362.51 431.73,364.08 432.06,364.51 432.39,365.65 432.73,366.36 433.06,367.78 433.40,368.92 433.74,369.89 434.07,371.02 434.40,372.44 434.74,373.58 435.07,374.44 435.41,375.54 435.75,376.36 436.08,377.36 436.42,378.50 436.75,379.36 437.08,380.35 437.42,381.49 437.75,382.49 438.09,383.63 438.43,384.63 438.76,385.60 439.10,386.74 439.43,387.88 439.76,388.88 440.10,389.87 440.44,390.42 440.77,391.41 441.11,392.55 441.44,393.98 441.77,394.79 442.11,395.70 442.44,396.99 442.78,398.13 443.12,399.27 443.45,399.98 443.79,401.12 444.12,402.26 444.45,403.40 444.79,404.17 445.12,405.28 445.46,406.71 445.80,407.83 446.13,408.97 446.46,409.83 446.80,409.23 447.13,408.80 447.47,408.70 447.81,407.99 448.14,407.28 448.48,406.93 448.81,406.66 449.14,405.85 449.48,405.64 449.81,405.78 450.15,405.22 450.49,404.51 450.82,404.65 451.15,404.35 451.49,404.78 451.82,405.62 452.16,405.05 452.50,404.77 452.83,405.57 453.17,406.71 453.50,407.99 453.83,408.84 454.17,409.80 454.50,411.08 454.84,412.08 455.18,412.95 455.51,413.80 455.85,414.12 456.18,414.40 456.51,414.97 456.85,415.83 457.19,416.54 457.52,417.11 457.86,417.54 458.19,418.28 458.52,419.45 458.86,420.44 459.19,421.73 459.53,422.30 459.87,423.44 460.20,424.58 460.54,425.58 460.87,426.43 461.20,427.29 461.54,428.00 461.88,428.43 462.21,428.11 462.55,427.54 462.88,427.26 463.21,427.07 463.55,425.83 463.88,424.55 464.22,424.12 464.56,422.98 464.89,422.27 465.23,421.56 465.56,420.47 465.89,420.33 466.23,420.19 466.56,421.04 466.90,421.76 467.24,422.90 467.57,424.14 467.90,425.28 468.24,426.67 468.57,427.23 468.91,426.87 469.25,428.01 469.58,429.18 469.92,429.47 470.25,429.74 470.58,429.89 470.92,430.61 471.25,430.46 471.59,431.46 471.93,432.46 472.26,433.31 472.60,434.60 472.93,435.65 473.26,436.71 473.60,437.70 473.94,438.70 474.27,438.96 474.61,439.14 474.94,438.87 475.27,438.40 475.61,437.40 475.94,436.98 476.28,435.69 476.62,435.27 476.95,434.41 477.29,434.58 477.62,435.69 477.95,436.76 478.29,438.19 478.62,439.33 478.96,440.20 479.30,440.48 479.63,440.21 479.96,439.09 480.30,438.66 480.63,437.66 480.97,437.38 481.31,436.34 481.64,436.62 481.98,437.59 482.31,436.88 482.64,435.45 482.98,434.45 483.31,433.17 483.65,432.60 483.99,431.60 484.32,430.89 484.65,429.89 484.99,428.90 485.32,427.86 485.66,427.11 486.00,425.97 486.33,424.83 486.67,423.64 487.00,422.60 487.33,421.74 487.67,420.74 488.00,419.89 488.34,419.60 488.68,419.32 489.01,419.03 489.35,418.61 489.68,418.18 490.01,418.24 490.35,417.78 490.69,416.77 491.02,416.28 491.36,416.14 491.69,415.86 492.02,415.77 492.36,415.34 492.69,415.27 493.03,415.70 493.37,416.55 493.70,417.55 494.04,418.41 494.37,419.52 494.70,420.66 495.04,421.80 495.38,422.80 495.71,423.89 496.05,424.99 496.38,425.20 496.71,426.49 497.05,426.82 497.38,427.24 497.72,427.81 498.06,427.10 498.39,426.25 498.73,426.82 499.06,427.39 499.39,428.75 499.73,429.04 500.06,429.32 500.40,429.18 500.74,429.32 501.07,430.61 501.40,431.18 501.74,430.75 502.07,429.89 502.41,428.90 502.75,428.17 503.08,427.80 503.42,427.23 503.75,426.80 504.08,426.19 504.42,425.90 504.75,425.76 505.09,425.76 505.43,425.33 505.76,424.93 506.10,423.79 506.43,423.22 506.76,422.63 507.10,421.98 507.44,421.90 507.77,420.90 508.11,420.72 508.44,420.17 508.77,419.93 509.11,420.19 509.44,419.62 509.78,419.33 510.12,418.66 510.45,417.24 510.79,416.24 511.12,415.34 511.45,414.47 511.79,413.48 512.12,412.71 512.46,412.09 512.80,411.88 513.13,412.16 513.46,411.62 513.80,410.78 514.13,409.88 514.47,409.03 514.81,408.03 515.14,407.22 515.48,406.08 515.81,404.80 516.14,403.51 516.48,402.37 516.82,401.45 517.15,400.42 517.49,399.00 517.82,397.71 518.15,396.72 518.49,395.72 518.83,394.75 519.16,394.02 519.50,393.45 519.83,392.31 520.16,391.63 520.50,390.49 520.84,389.63 521.17,388.48 521.50,387.34 521.84,386.30 522.17,385.16 522.51,383.95 522.85,382.88 523.18,381.59 523.51,380.68 523.85,379.54 524.18,378.63 524.52,377.77 524.86,377.06 525.19,376.06 525.52,375.00 525.86,374.28 526.19,373.57 526.53,373.29 526.87,372.43 527.20,372.09 527.54,372.37 527.87,373.19 528.20,373.80 528.54,375.07 528.88,375.92 529.21,376.92 529.55,378.34 529.88,379.48 530.21,380.91 530.55,381.77 530.88,382.62 531.22,383.48 531.56,384.76 531.89,385.68 532.23,386.54 532.56,387.54 532.89,388.53 533.23,389.39 533.57,390.39 533.90,391.10 534.24,392.24 534.57,392.98 534.90,394.32 535.24,395.32 535.58,396.32 535.91,397.31 536.25,398.45 536.58,399.61 536.91,400.75 537.25,401.68 537.59,402.33 537.92,402.69 538.25,403.54 538.59,404.82 538.92,405.55 539.26,405.55 539.60,405.27 539.93,404.35 540.26,403.70 540.60,403.51 540.93,403.51 541.27,403.09 541.61,403.17 541.94,402.69 542.27,401.40 542.61,400.41 542.94,399.12 543.28,398.14 543.62,397.47 543.95,396.62 544.29,395.38 544.62,393.95 544.95,392.85 545.29,391.71 545.62,390.57 545.96,389.72 546.30,388.75 546.63,387.96 546.96,387.07 547.30,385.93 547.63,385.07 547.97,384.36 548.31,383.36 548.64,382.34 548.98,381.62 549.31,380.34 549.64,379.06 549.98,378.37 550.32,378.23 550.65,378.23 550.99,377.95 551.32,377.23 551.65,376.09 551.99,374.95 552.33,373.67 552.66,372.70 553.00,371.85 553.33,371.16 553.66,370.61 554.00,370.61 554.34,370.46 554.67,370.32 555.00,370.34 555.34,370.76 555.67,370.72 556.01,370.95 556.35,370.81 556.68,370.56 557.01,370.51 557.35,370.79 557.68,371.50 558.02,372.79 558.36,373.77 558.69,374.64 559.02,375.48 559.36,376.36 559.69,377.50 560.03,377.87 560.37,379.01 560.70,379.16 561.04,379.44 561.37,379.64 561.70,379.33 562.04,379.46 562.38,380.31 562.71,381.59 563.05,382.53 563.38,383.29 563.71,384.29 564.05,385.29 564.38,386.71 564.72,387.57 565.06,388.42 565.39,389.70 565.73,390.22 566.06,390.80 566.39,391.78 566.73,392.64 567.07,393.78 567.40,394.81 567.74,396.09 568.07,397.27 568.40,398.55 568.74,399.69 569.08,400.41 569.41,401.69 569.75,402.42 570.08,403.31 570.41,404.74 570.75,405.74 571.09,406.78 571.42,407.35 571.75,407.95 572.09,408.72 572.42,409.43 572.76,410.35 573.10,411.21 573.43,411.71 573.76,412.85 574.10,413.77 574.43,414.77 574.77,415.34 575.11,416.48 575.44,417.41 575.77,418.41 576.11,418.83 576.44,419.26 576.78,420.30 577.12,421.58 577.45,422.60 577.79,423.74 578.12,424.59 578.45,425.73 578.79,426.87 579.12,427.73 579.46,428.45 579.80,429.41 580.13,430.69 580.46,431.35 580.80,432.06 581.13,432.96 581.47,433.81 581.81,435.02 582.14,435.21 582.48,435.82 582.81,436.04 583.14,435.18 583.48,435.38 583.82,436.08 584.15,436.65 584.49,436.22 584.82,436.14 585.15,435.71 585.49,434.57 585.83,433.86 586.16,433.07 586.50,432.07 586.83,431.08 587.16,430.08 587.50,428.80 587.84,428.08 588.17,427.09 588.50,426.09 588.84,425.09 589.17,424.24 589.51,423.28 589.85,423.00 590.18,423.44 590.51,423.28 590.85,423.17 591.18,423.30 591.52,422.72 591.86,421.91 592.19,420.77 592.52,420.34 592.86,420.06 593.19,420.49 593.53,419.90 593.87,420.42 594.20,420.84 594.54,420.30 594.87,419.63 595.20,418.35 595.54,417.07 595.88,415.71 596.21,414.72 596.55,413.72 596.88,412.58 597.22,411.30 597.55,410.15 597.88,408.73 598.22,407.73 598.55,406.31 598.89,405.35 599.23,404.35 599.56,403.07 599.89,402.07 600.23,401.08 600.57,400.22 600.90,399.22 601.24,398.37 601.57,397.09 601.90,396.09 602.24,395.09 602.58,394.22 602.91,393.11 603.25,392.25 603.58,391.40 603.91,391.34 604.25,392.04 604.59,391.90 604.92,392.30 605.25,393.29 605.59,394.15 605.92,394.75 606.26,394.89 606.60,394.75 606.93,395.36 607.26,396.44 607.60,397.58 607.93,397.30 608.27,397.04 608.61,396.69 608.94,395.97 609.27,394.99 609.61,393.99 609.95,393.57 610.28,393.99 610.62,393.99 610.95,393.42 611.28,394.04 611.62,394.04 611.96,392.61 612.29,391.61 612.62,390.33 612.96,389.19 613.29,388.25 613.63,387.54 613.97,387.52 614.30,386.70 614.63,385.70 614.97,384.84 615.30,384.13 615.64,382.85 615.98,381.95 616.31,380.95 616.64,379.74 616.98,378.60 617.32,377.52 617.65,376.66 617.99,376.81 618.32,376.39 618.65,375.25 618.99,374.40 619.33,373.11 619.66,372.12 620.00,371.03 620.33,370.18 620.66,369.35 621.00,368.21 621.34,366.79 621.67,366.07 622.00,365.16 622.34,364.16 622.67,363.15 623.01,362.15 623.35,361.30 623.68,360.44 624.01,359.59 624.35,358.73 624.68,357.88 625.02,357.17 625.36,356.31 625.69,355.46 626.02,354.46 626.36,353.53 626.70,352.85 627.03,351.79 627.37,351.00 627.70,350.18 628.03,349.30 628.37,347.87 628.71,346.88 629.04,346.02 629.38,345.17 629.71,344.17 630.04,344.07 630.38,343.94 630.72,344.60 631.05,343.68 631.38,342.70 631.72,342.12 632.05,340.99 632.39,340.14 632.73,340.65 633.06,339.37 633.39,338.23 633.73,337.23 634.07,336.62 634.40,336.05 634.74,335.22 635.07,334.21 635.40,333.37 635.74,332.23 636.08,331.23 636.41,330.36 636.75,329.08 637.08,328.22 637.41,327.12 637.75,325.98 638.09,324.84 638.42,323.70 638.75,323.10 639.09,321.96 639.42,320.94 639.76,320.05 640.10,319.20 640.43,318.63 640.76,317.63 641.10,316.49 641.43,315.21 641.77,314.07 642.11,313.10 642.44,312.10 642.77,311.10 643.11,310.32 643.45,309.47 643.78,308.33 644.12,307.40 644.45,306.26 644.78,305.12 645.12,303.98 645.46,302.55 645.79,301.98 646.12,301.16 646.46,300.30 646.79,299.25 647.13,298.14 647.47,296.85 647.80,296.00 648.13,294.79 648.47,293.50 648.80,292.08 649.14,291.51 649.48,289.94 649.81,288.80 650.14,287.80 650.48,286.66 650.82,285.67 651.15,284.38 651.49,283.00 651.82,282.17 652.15,281.03 652.49,279.68 652.83,279.45 653.16,278.97 653.50,278.54 653.83,278.54 654.16,278.68 654.50,278.82 654.84,279.01 655.17,278.07 655.50,276.79 655.84,276.57 656.17,276.64 656.51,276.93 656.85,277.53 657.18,277.97 657.51,278.27 657.85,279.48 658.18,279.32 658.52,279.34 658.86,278.98 659.19,277.84 659.52,277.13 659.86,275.99 660.20,275.56 660.53,275.13 660.87,274.56 661.20,275.52 661.53,274.95 661.87,274.59 662.21,274.59 662.54,275.06 662.88,275.63 663.21,276.26 663.54,277.26 663.88,278.40 664.22,278.97 664.55,279.54 664.88,280.39 665.22,280.46 665.55,280.38 665.89,279.81 666.23,280.02 666.56,280.02 666.89,279.88 667.23,279.08 667.57,279.49 667.90,279.74 668.24,279.64 668.57,279.39 668.90,279.84 669.24,279.41 669.58,279.86 669.91,279.72 670.25,279.15 670.58,280.15 670.91,280.89 671.25,282.05 671.59,283.10 671.92,283.95 672.25,285.10 672.59,286.38 672.92,287.76 673.26,288.90 673.60,290.03 673.93,290.60 674.26,291.62 674.60,292.18 674.93,293.32 675.27,292.46 675.61,292.46 675.94,291.89 676.27,291.89 676.61,292.09 676.95,292.71 677.28,292.71 677.62,291.99 677.95,291.42 678.28,291.99 678.62,291.76 678.96,292.19 679.29,292.48 679.62,293.48 679.96,294.90 680.29,295.64 680.63,296.50 680.97,297.64 681.30,298.65 681.63,299.77 681.97,300.20 682.30,300.91 682.64,302.03 682.98,303.02 683.31,304.31 683.64,305.79 683.98,306.73 684.32,307.57 684.65,308.85 684.99,309.71 685.32,310.85 685.65,312.15 685.99,313.14 686.33,314.00 686.66,315.11 687.00,315.54 687.33,316.82 687.66,317.95 688.00,318.66 688.34,319.80 688.67,320.65 689.00,321.79 689.34,323.12 689.67,323.97 690.01,324.97 690.35,325.97 690.68,327.11 691.01,328.11 691.35,328.96 691.68,329.79 692.02,330.50 692.36,331.78 692.69,332.03 693.02,332.17 693.36,333.31 693.70,333.31 694.03,332.74 694.37,332.54 694.70,333.20 695.03,332.91 695.37,332.82 695.71,331.74 696.04,330.80 696.38,329.80 696.71,329.20 697.04,328.92 697.38,328.38 697.72,327.10 698.05,325.67 698.38,324.90 698.72,324.05 699.05,322.91 699.39,322.06 699.73,321.07 700.06,320.45 700.39,319.17 700.73,318.03 701.07,316.99 701.40,316.28 701.74,315.48 702.07,315.05 702.40,315.52 702.74,315.52 703.08,314.81 703.41,314.07 703.75,313.38 704.08,313.67 704.41,314.33 704.75,314.04 705.09,315.04 705.42,315.47 705.75,316.12 706.09,315.84 706.42,315.69 706.76,314.61 707.10,313.97 707.43,312.70 707.76,311.63 708.10,310.42 708.43,310.14 708.77,309.00 709.11,308.50 709.44,308.78 709.77,308.64 710.11,308.35 710.45,308.31 710.78,307.74 711.12,308.60 711.45,309.88 711.78,311.30 712.12,312.43 712.46,312.66 712.79,313.66 713.12,314.88 713.46,316.16 713.79,316.88 714.13,318.02 714.47,319.16 714.80,319.87 715.13,320.44 715.47,321.15 715.80,321.96 716.14,323.25 716.48,323.96 716.81,324.53 717.14,324.76 717.48,324.90 717.82,324.90 718.15,325.33 718.49,325.33 718.82,326.18 719.15,327.32 719.49,328.61 719.83,329.16 720.16,328.43 720.50,327.84 720.83,327.00 721.16,327.81 721.50,328.14 721.84,327.95 722.17,327.81 722.50,327.52 722.84,327.67 723.17,327.52 723.51,327.00 723.85,325.88 724.18,324.60 724.51,324.77 724.85,324.34 725.18,325.09 725.52,325.09 725.86,324.80 726.19,324.94 726.52,324.80 726.86,325.26 727.20,324.53 727.53,324.10 727.87,322.96 728.20,322.11 728.53,322.46 728.87,323.12 729.21,322.98 729.54,323.55 729.88,324.26 730.21,324.97 730.54,325.53 730.88,326.81 731.22,326.48 731.55,326.34 731.88,326.14 732.22,325.90 732.55,325.61 732.89,325.70 733.23,325.63 733.56,325.63 733.89,325.20 734.23,324.32 734.57,323.46 734.90,322.61 735.24,322.32 735.57,322.04 735.90,321.47 736.24,320.47 736.58,320.53 736.91,321.00 737.25,322.28 737.58,323.42 737.91,324.56 738.25,325.41 738.59,326.70 738.92,327.49 739.25,327.21 739.59,327.65 739.92,328.51 740.26,329.79 740.60,330.07 740.93,330.52 741.26,331.51 741.60,332.94 741.93,333.79 742.27,335.22 742.61,336.23 742.94,337.37 743.27,338.60 743.61,339.74 743.95,340.88 744.28,341.46 744.62,342.03 744.95,343.03 745.28,344.41 745.62,344.70 745.96,343.87 746.29,342.87 746.62,342.30 746.96,341.30 747.29,340.22 747.63,339.22 747.97,338.51 748.30,337.66 748.63,336.70 748.97,335.75 749.30,334.75 749.64,333.75 749.98,333.04 750.31,332.05 750.64,331.29 750.98,330.62 751.32,330.76 751.65,330.43 751.99,329.29 752.32,328.43 752.65,327.44 752.99,326.07 753.33,326.07 753.66,325.93 754.00,326.25 754.33,326.15 754.66,327.07 755.00,327.92 755.00,344.72"/>
<line x1="783" y1="82" x2="809" y2="82" stroke="#dc2626" stroke-width="3"/>
<text x="817" y="86" font-family="Arial" font-size="13" fill="#111827">Avellaneda Stoikov</text>
<polyline fill="none" stroke="#7c3aed" stroke-width="2" points=""/>
<line x1="783" y1="106" x2="809" y2="106" stroke="#7c3aed" stroke-width="3"/>
<text x="817" y="110" font-family="Arial" font-size="13" fill="#111827">Calibrated Avellaneda Stoikov</text>
<text x="420.0" y="518" text-anchor="middle" font-family="Arial" font-size="14" fill="#111827">Event index</text>
<text x="22" y="256.0" text-anchor="middle" transform="rotate(-90 22 256.0)" font-family="Arial" font-size="14" fill="#111827">Inventory</text>
</svg>
