<svg xmlns="http://www.w3.org/2000/svg" width="940" height="540" viewBox="0 0 940 540">
<rect width="100%" height="100%" fill="#ffffff"/>
<text x="470.0" y="26" text-anchor="middle" font-family="Arial" font-size="18" fill="#111827">High Volatility Cumulative PnL After Fees</text>
<line x1="85" y1="470" x2="755" y2="470" stroke="#111827" stroke-width="1"/>
<line x1="85" y1="42" x2="85" y2="470" stroke="#111827" stroke-width="1"/>
<line x1="85.00" y1="42" x2="85.00" y2="470" stroke="#e5e7eb" stroke-width="1"/>
<text x="85.00" y="494" text-anchor="middle" font-family="Arial" font-size="12" fill="#374151">0</text>
<line x1="252.50" y1="42" x2="252.50" y2="470" stroke="#e5e7eb" stroke-width="1"/>
<text x="252.50" y="494" text-anchor="middle" font-family="Arial" font-size="12" fill="#374151">50000</text>
<line x1="420.00" y1="42" x2="420.00" y2="470" stroke="#e5e7eb" stroke-width="1"/>
<text x="420.00" y="494" text-anchor="middle" font-family="Arial" font-size="12" fill="#374151">100000</text>
<line x1="587.50" y1="42" x2="587.50" y2="470" stroke="#e5e7eb" stroke-width="1"/>
<text x="587.50" y="494" text-anchor="middle" font-family="Arial" font-size="12" fill="#374151">150000</text>
<line x1="755.00" y1="42" x2="755.00" y2="470" stroke="#e5e7eb" stroke-width="1"/>
<text x="755.00" y="494" text-anchor="middle" font-family="Arial" font-size="12" fill="#374151">200000</text>
<line x1="85" y1="470.00" x2="755" y2="470.00" stroke="#e5e7eb" stroke-width="1"/>
<text x="73" y="474.00" text-anchor="end" font-family="Arial" font-size="12" fill="#374151">-1803366</text>
<line x1="85" y1="363.00" x2="755" y2="363.00" stroke="#e5e7eb" stroke-width="1"/>
<text x="73" y="367.00" text-anchor="end" font-family="Arial" font-size="12" fill="#374151">1194041</text>
<line x1="85" y1="256.00" x2="755" y2="256.00" stroke="#e5e7eb" stroke-width="1"/>
<text x="73" y="260.00" text-anchor="end" font-family="Arial" font-size="12" fill="#374151">4191447</text>
<line x1="85" y1="149.00" x2="755" y2="149.00" stroke="#e5e7eb" stroke-width="1"/>
<text x="73" y="153.00" text-anchor="end" font-family="Arial" font-size="12" fill="#374151">7188854</text>
<line x1="85" y1="42.00" x2="755" y2="42.00" stroke="#e5e7eb" stroke-width="1"/>
<text x="73" y="46.00" text-anchor="end" font-family="Arial" font-size="12" fill="#374151">10186260</text>
<polyline fill="none" stroke="#2563eb" stroke-width="2" points="85.00,405.62 85.33,405.60 85.67,405.57 86.00,405.55 86.34,405.47 86.67,405.35 87.01,405.10 87.34,404.95 87.68,404.87 88.02,404.84 88.35,405.00 88.69,405.25 89.02,405.45 89.36,405.60 89.69,405.78 90.03,405.61 90.36,405.37 90.69,405.14 91.03,405.16 91.36,405.25 91.70,405.32 92.03,405.11 92.37,405.05 92.70,405.06 93.04,405.31 93.38,404.94 93.71,405.09 94.05,405.30 94.38,405.34 94.72,405.45 95.05,405.41 95.39,405.55 95.72,405.43 96.06,405.47 96.39,405.40 96.72,405.41 97.06,405.27 97.39,405.13 97.73,405.13 98.06,405.24 98.40,405.32 98.73,405.26 99.07,404.95 99.41,404.66 99.74,404.85 100.08,405.25 100.41,406.02 100.75,406.20 101.08,406.44 101.41,406.49 101.75,407.16 102.09,407.19 102.42,406.90 102.75,406.79 103.09,406.60 103.42,406.38 103.76,406.09 104.09,405.94 104.43,406.17 104.77,406.27 105.10,406.42 105.44,406.25 105.77,406.71 106.11,406.87 106.44,406.90 106.78,406.94 107.11,406.83 107.44,406.75 107.78,406.68 108.11,406.71 108.45,406.67 108.78,406.46 109.12,406.49 109.45,406.40 109.79,406.18 110.12,406.13 110.46,406.27 110.80,406.34 111.13,406.44 111.47,407.09 111.80,407.12 112.14,406.66 112.47,406.60 112.81,406.72 113.14,406.35 113.47,406.15 113.81,406.17 114.14,406.29 114.48,406.13 114.81,406.25 115.15,406.41 115.48,406.18 115.82,406.50 116.16,406.50 116.49,406.89 116.83,407.14 117.16,407.09 117.50,407.08 117.83,406.96 118.16,406.92 118.50,406.90 118.84,406.77 119.17,406.86 119.50,406.68 119.84,406.69 120.17,406.87 120.51,406.47 120.84,406.13 121.18,405.81 121.52,405.94 121.85,406.28 122.19,405.76 122.52,405.94 122.85,406.13 123.19,406.10 123.53,405.62 123.86,406.04 124.19,405.71 124.53,405.10 124.87,405.07 125.20,405.28 125.53,405.74 125.87,407.44 126.20,409.50 126.54,410.10 126.88,410.08 127.21,409.26 127.55,408.79 127.88,408.57 128.22,408.78 128.55,409.13 128.88,408.70 129.22,409.07 129.56,409.11 129.89,409.56 130.22,410.63 130.56,410.17 130.90,409.90 131.23,409.55 131.56,408.76 131.90,409.23 132.24,409.45 132.57,409.02 132.91,408.39 133.24,408.33 133.57,408.28 133.91,408.31 134.25,407.84 134.58,408.28 134.91,408.18 135.25,408.11 135.59,408.33 135.92,407.76 136.25,407.81 136.59,406.56 136.93,407.56 137.26,408.18 137.59,408.39 137.93,408.66 138.26,408.33 138.60,407.85 138.94,408.30 139.27,406.82 139.60,406.16 139.94,406.37 140.28,404.78 140.61,404.93 140.94,404.73 141.28,403.83 141.62,404.55 141.95,402.56 142.28,402.30 142.62,400.85 142.95,403.12 143.29,402.51 143.62,402.84 143.96,402.05 144.30,403.04 144.63,403.36 144.97,403.44 145.30,403.66 145.63,403.45 145.97,403.50 146.31,403.51 146.64,406.08 146.97,405.84 147.31,404.06 147.65,404.41 147.98,404.92 148.31,404.15 148.65,403.78 148.99,402.08 149.32,401.58 149.66,402.85 149.99,402.99 150.32,404.47 150.66,404.50 151.00,405.05 151.33,405.00 151.67,404.68 152.00,404.81 152.33,400.41 152.67,404.33 153.00,404.04 153.34,403.41 153.68,404.94 154.01,402.44 154.34,402.21 154.68,402.86 155.01,401.95 155.35,400.52 155.69,400.03 156.02,400.44 156.36,401.83 156.69,403.67 157.03,398.31 157.36,396.31 157.69,398.80 158.03,399.55 158.37,397.79 158.70,396.12 159.03,394.18 159.37,394.98 159.70,395.86 160.04,398.02 160.38,401.71 160.71,403.23 161.05,400.94 161.38,400.84 161.72,403.15 162.05,407.03 162.38,408.99 162.72,409.18 163.06,407.16 163.39,402.49 163.72,402.33 164.06,399.39 164.39,398.14 164.73,403.03 165.06,408.25 165.40,410.50 165.74,412.29 166.07,417.86 166.41,414.73 166.74,411.38 167.07,409.43 167.41,410.53 167.75,411.39 168.08,412.76 168.42,413.36 168.75,413.84 169.08,414.90 169.42,415.80 169.75,416.17 170.09,415.28 170.43,416.49 170.76,417.15 171.09,420.47 171.43,418.29 171.76,417.98 172.10,420.75 172.44,421.23 172.77,420.73 173.11,423.52 173.44,424.77 173.78,423.92 174.11,424.21 174.44,421.28 174.78,419.67 175.12,419.25 175.45,419.02 175.78,417.96 176.12,417.29 176.45,420.66 176.79,421.25 177.12,421.22 177.46,421.13 177.80,419.02 178.13,418.58 178.47,419.99 178.80,420.74 179.13,422.26 179.47,422.04 179.81,420.22 180.14,419.37 180.47,420.22 180.81,419.41 181.14,421.61 181.48,422.19 181.81,420.12 182.15,419.78 182.49,419.84 182.82,420.13 183.16,420.66 183.49,420.31 183.82,420.06 184.16,419.58 184.50,419.94 184.83,419.53 185.17,419.74 185.50,420.05 185.83,419.89 186.17,419.75 186.50,419.59 186.84,419.59 187.18,419.63 187.51,419.51 187.84,419.38 188.18,419.27 188.51,419.12 188.85,418.86 189.19,418.81 189.52,418.82 189.86,418.62 190.19,418.45 190.53,418.35 190.86,418.07 191.19,418.00 191.53,417.96 191.87,417.84 192.20,417.89 192.53,417.48 192.87,417.63 193.20,417.84 193.54,416.47 193.88,417.28 194.21,416.93 194.55,417.84 194.88,416.81 195.22,416.07 195.55,416.27 195.88,416.76 196.22,415.94 196.56,417.41 196.89,417.41 197.22,417.90 197.56,419.43 197.89,417.46 198.23,416.19 198.56,414.76 198.90,413.63 199.24,415.73 199.57,414.93 199.91,413.42 200.24,414.73 200.57,414.83 200.91,415.78 201.25,416.20 201.58,416.01 201.92,413.36 202.25,411.06 202.58,409.86 202.92,408.43 203.25,404.85 203.59,404.10 203.93,404.41 204.26,402.12 204.59,405.90 204.93,407.15 205.26,407.86 205.60,405.91 205.94,401.82 206.27,401.92 206.61,399.91 206.94,401.47 207.28,403.95 207.61,404.26 207.94,404.04 208.28,404.18 208.62,407.55 208.95,407.76 209.28,407.81 209.62,409.00 209.95,405.67 210.29,405.77 210.62,405.25 210.96,404.60 211.30,404.54 211.63,405.93 211.97,406.78 212.30,402.72 212.63,405.60 212.97,406.74 213.31,408.89 213.64,407.43 213.97,402.25 214.31,408.01 214.65,401.69 214.98,401.94 215.31,399.23 215.65,398.52 215.99,396.14 216.32,400.33 216.66,403.25 216.99,400.64 217.32,397.59 217.66,399.32 218.00,393.78 218.33,396.67 218.66,400.93 219.00,399.16 219.34,401.91 219.67,399.94 220.00,398.52 220.34,393.56 220.68,393.59 221.01,393.77 221.34,396.77 221.68,396.97 222.01,403.76 222.35,399.74 222.69,402.18 223.02,403.56 223.35,406.31 223.69,409.49 224.03,413.75 224.36,415.56 224.69,409.21 225.03,413.24 225.37,415.13 225.70,415.80 226.03,422.64 226.37,425.24 226.71,423.46 227.04,423.26 227.38,429.93 227.71,429.62 228.04,438.13 228.38,434.31 228.72,432.99 229.05,439.71 229.38,439.12 229.72,440.48 230.06,438.33 230.39,437.94 230.72,432.28 231.06,430.05 231.40,428.46 231.73,430.14 232.06,431.63 232.40,432.57 232.74,429.06 233.07,428.76 233.41,430.14 233.74,430.91 234.07,429.44 234.41,434.03 234.75,435.12 235.08,436.52 235.41,438.68 235.75,433.00 236.09,430.29 236.42,427.65 236.75,422.71 237.09,420.58 237.43,415.20 237.76,415.56 238.09,410.01 238.43,408.35 238.76,411.48 239.10,412.91 239.44,415.63 239.77,416.53 240.10,420.36 240.44,419.62 240.78,418.93 241.11,415.72 241.44,416.12 241.78,412.74 242.12,409.11 242.45,403.91 242.78,404.16 243.12,399.35 243.46,401.41 243.79,400.93 244.12,400.66 244.46,394.30 244.79,392.73 245.13,387.70 245.47,385.66 245.80,385.99 246.13,382.07 246.47,379.77 246.81,378.71 247.14,375.85 247.47,378.21 247.81,373.27 248.15,370.72 248.48,368.20 248.81,365.49 249.15,368.22 249.49,363.70 249.82,365.92 250.16,367.78 250.49,361.77 250.82,355.06 251.16,356.58 251.50,355.46 251.83,350.99 252.16,354.08 252.50,351.37 252.84,344.36 253.17,343.31 253.50,346.60 253.84,339.55 254.18,343.71 254.51,332.48 254.84,339.46 255.18,332.03 255.51,325.82 255.85,325.73 256.19,331.31 256.52,336.66 256.86,338.68 257.19,341.74 257.52,352.27 257.86,352.26 258.19,352.22 258.53,356.76 258.87,358.36 259.20,356.76 259.53,366.53 259.87,362.70 260.21,359.13 260.54,367.71 260.88,359.66 261.21,361.33 261.54,362.94 261.88,367.26 262.22,369.76 262.55,367.78 262.88,368.97 263.22,367.17 263.56,374.85 263.89,375.05 264.23,371.20 264.56,365.26 264.89,358.01 265.23,359.02 265.56,358.37 265.90,352.29 266.24,357.83 266.57,358.47 266.90,354.50 267.24,342.50 267.57,351.78 267.91,355.03 268.25,365.35 268.58,367.32 268.91,372.40 269.25,378.17 269.59,376.67 269.92,370.43 270.25,370.34 270.59,368.86 270.93,365.96 271.26,367.93 271.60,374.35 271.93,366.06 272.26,366.79 272.60,369.38 272.94,369.18 273.27,362.28 273.61,364.86 273.94,366.05 274.27,364.31 274.61,357.55 274.94,356.15 275.28,358.69 275.62,357.34 275.95,353.92 276.28,347.14 276.62,344.86 276.96,343.49 277.29,343.99 277.62,349.15 277.96,350.71 278.29,357.07 278.63,350.02 278.97,346.66 279.30,344.34 279.63,350.83 279.97,356.39 280.31,348.60 280.64,345.98 280.98,341.71 281.31,337.44 281.64,341.69 281.98,346.05 282.31,331.46 282.65,319.56 282.99,322.70 283.32,322.93 283.65,316.57 283.99,316.99 284.32,316.42 284.66,323.19 285.00,322.64 285.33,326.53 285.66,333.30 286.00,334.52 286.34,323.02 286.67,328.80 287.00,335.48 287.34,326.31 287.68,340.76 288.01,341.19 288.35,337.25 288.68,341.92 289.01,347.40 289.35,348.45 289.69,350.24 290.02,346.11 290.36,327.76 290.69,333.95 291.02,330.97 291.36,336.81 291.69,329.59 292.03,330.33 292.37,327.14 292.70,318.05 293.03,322.47 293.37,322.66 293.71,320.45 294.04,312.80 294.38,306.17 294.71,307.39 295.04,317.15 295.38,321.43 295.72,320.60 296.05,323.77 296.38,324.32 296.72,329.22 297.06,317.04 297.39,319.03 297.73,330.79 298.06,327.10 298.39,336.37 298.73,337.14 299.06,344.01 299.40,346.07 299.74,344.88 300.07,350.63 300.40,352.52 300.74,363.06 301.07,359.40 301.41,360.93 301.75,372.92 302.08,365.89 302.41,365.61 302.75,369.51 303.09,369.80 303.42,376.57 303.75,368.27 304.09,359.77 304.43,365.56 304.76,350.73 305.10,354.57 305.43,359.75 305.76,362.70 306.10,350.24 306.44,346.00 306.77,342.19 307.11,332.15 307.44,331.96 307.77,346.77 308.11,332.94 308.44,322.10 308.78,315.67 309.12,313.48 309.45,307.24 309.78,297.09 310.12,301.75 310.46,295.74 310.79,291.79 311.12,290.90 311.46,298.12 311.79,303.58 312.13,307.79 312.47,290.26 312.80,296.39 313.13,294.69 313.47,303.61 313.81,300.50 314.14,300.11 314.48,303.04 314.81,301.62 315.14,304.81 315.48,303.32 315.81,293.61 316.15,291.25 316.49,283.56 316.82,284.16 317.15,279.99 317.49,290.27 317.82,290.45 318.16,294.74 318.50,293.61 318.83,296.13 319.16,299.34 319.50,297.05 319.84,302.23 320.17,310.30 320.50,311.76 320.84,297.71 321.18,300.62 321.51,302.36 321.85,288.62 322.18,289.26 322.51,284.06 322.85,261.24 323.19,254.42 323.52,248.25 323.86,256.82 324.19,248.18 324.52,256.42 324.86,244.15 325.19,245.32 325.53,254.12 325.87,255.43 326.20,254.86 326.53,253.28 326.87,254.33 327.21,251.03 327.54,247.71 327.88,264.59 328.21,253.00 328.54,245.66 328.88,239.36 329.22,236.48 329.55,236.97 329.88,241.33 330.22,239.80 330.56,228.77 330.89,237.34 331.23,254.45 331.56,235.56 331.89,219.00 332.23,214.26 332.56,226.04 332.90,224.83 333.24,224.22 333.57,225.93 333.90,229.31 334.24,230.70 334.57,217.39 334.91,220.12 335.25,220.88 335.58,212.33 335.91,195.72 336.25,197.92 336.59,201.66 336.92,187.40 337.25,199.06 337.59,184.49 337.93,173.15 338.26,164.56 338.60,157.51 338.93,145.61 339.26,138.95 339.60,139.79 339.94,138.00 340.27,130.93 340.61,112.82 340.94,108.37 341.27,108.27 341.61,99.56 341.94,101.38 342.28,91.52 342.62,104.88 342.95,88.93 343.29,74.51 343.62,75.82 343.95,83.04 344.29,88.19 344.62,123.75 344.96,133.18 345.30,126.27 345.63,112.01 345.96,126.24 346.30,124.43 346.63,130.76 346.97,129.76 347.31,114.40 347.64,111.39 347.98,103.95 348.31,117.80 348.64,113.90 348.98,114.66 349.31,114.79 349.65,121.63 349.99,116.33 350.32,125.76 350.65,110.28 350.99,113.78 351.32,130.25 351.66,127.66 352.00,119.07 352.33,111.22 352.67,125.34 353.00,137.46 353.33,141.80 353.67,144.74 354.00,164.61 354.34,177.37 354.68,169.88 355.01,184.81 355.35,188.62 355.68,192.85 356.01,209.52 356.35,204.77 356.69,197.21 357.02,172.71 357.36,155.09 357.69,147.89 358.02,148.04 358.36,142.49 358.69,151.25 359.03,123.07 359.37,103.90 359.70,103.53 360.04,96.32 360.37,95.22 360.70,106.16 361.04,114.99 361.38,119.11 361.71,110.79 362.05,119.49 362.38,123.78 362.71,119.71 363.05,108.79 363.38,102.59 363.72,87.88 364.06,83.68 364.39,79.37 364.73,83.97 365.06,75.72 365.39,76.94 365.73,75.95 366.06,81.88 366.40,90.05 366.74,78.37 367.07,98.80 367.40,93.42 367.74,78.76 368.07,74.33 368.41,77.72 368.75,74.51 369.08,73.56 369.42,82.24 369.75,82.01 370.08,81.27 370.42,71.52 370.75,82.95 371.09,78.23 371.43,87.54 371.76,92.56 372.10,104.10 372.43,100.11 372.76,101.48 373.10,101.75 373.44,100.20 373.77,108.26 374.11,96.76 374.44,93.74 374.77,93.59 375.11,93.09 375.44,112.21 375.78,117.69 376.12,113.67 376.45,117.04 376.79,104.08 377.12,102.00 377.45,113.77 377.79,118.78 378.12,112.36 378.46,125.73 378.80,134.63 379.13,124.75 379.46,116.62 379.80,110.02 380.13,108.85 380.47,121.82 380.81,144.18 381.14,120.72 381.48,124.99 381.81,111.97 382.14,124.01 382.48,119.42 382.81,104.50 383.15,112.30 383.49,119.53 383.82,127.72 384.15,122.53 384.49,142.79 384.82,147.86 385.16,147.99 385.50,142.49 385.83,142.60 386.17,134.29 386.50,128.97 386.83,121.42 387.17,116.59 387.50,125.69 387.84,116.74 388.18,113.55 388.51,108.27 388.85,102.92 389.18,96.22 389.51,94.56 389.85,91.53 390.19,104.55 390.52,114.15 390.86,113.38 391.19,99.93 391.52,94.60 391.86,113.38 392.19,95.55 392.53,89.41 392.87,96.69 393.20,84.68 393.54,82.63 393.87,86.97 394.20,109.15 394.54,114.38 394.88,113.53 395.21,136.59 395.55,138.80 395.88,146.01 396.21,151.76 396.55,153.02 396.88,150.13 397.22,151.95 397.56,145.97 397.89,151.47 398.23,144.09 398.56,136.32 398.89,132.09 399.23,134.56 399.56,143.53 399.90,140.48 400.24,135.32 400.57,142.92 400.90,138.93 401.24,149.41 401.57,141.07 401.91,135.45 402.25,124.30 402.58,121.79 402.92,111.79 403.25,119.66 403.58,129.92 403.92,141.10 404.25,137.94 404.59,142.85 404.93,148.05 405.26,157.96 405.60,168.41 405.93,171.54 406.26,173.52 406.60,177.99 406.94,182.62 407.27,178.95 407.61,188.01 407.94,203.11 408.27,204.25 408.61,209.05 408.94,209.24 409.28,211.30 409.62,209.76 409.95,219.33 410.29,215.59 410.62,224.33 410.95,226.47 411.29,214.56 411.62,217.79 411.96,210.84 412.30,208.56 412.63,203.18 412.96,208.58 413.30,214.21 413.63,218.60 413.97,226.17 414.31,236.49 414.64,220.16 414.98,215.26 415.31,209.83 415.64,209.98 415.98,206.21 416.31,207.14 416.65,208.82 416.99,207.90 417.32,206.86 417.65,200.51 417.99,198.33 418.32,197.97 418.66,201.74 419.00,197.45 419.33,212.11 419.67,207.01 420.00,210.92 420.33,196.23 420.67,194.56 421.00,206.88 421.34,207.65 421.68,196.43 422.01,194.93 422.35,204.14 422.68,195.04 423.01,200.06 423.35,201.41 423.69,196.43 424.02,193.69 424.36,197.91 424.69,196.95 425.02,202.59 425.36,200.39 425.69,204.94 426.03,207.66 426.37,208.32 426.70,204.89 427.04,214.56 427.37,225.43 427.70,234.43 428.04,241.13 428.38,250.64 428.71,243.02 429.05,234.71 429.38,245.76 429.71,235.14 430.05,237.87 430.38,239.41 430.72,240.41 431.06,240.33 431.39,228.76 431.73,233.03 432.06,228.20 432.39,235.92 432.73,236.98 433.06,223.42 433.40,223.45 433.74,226.80 434.07,239.87 434.40,246.40 434.74,250.39 435.07,243.93 435.41,238.67 435.75,251.24 436.08,249.36 436.42,249.21 436.75,241.97 437.08,244.81 437.42,252.93 437.75,255.72 438.09,256.72 438.43,258.85 438.76,264.47 439.10,270.12 439.43,268.79 439.76,269.38 440.10,266.74 440.44,268.11 440.77,273.97 441.11,276.83 441.44,275.77 441.77,274.34 442.11,280.27 442.44,279.98 442.78,272.47 443.12,275.06 443.45,272.70 443.79,279.47 444.12,283.79 444.45,283.22 444.79,278.97 445.12,275.33 445.46,274.39 445.80,272.95 446.13,278.81 446.46,274.03 446.80,268.21 447.13,268.78 447.47,269.50 447.81,262.85 448.14,265.22 448.48,264.82 448.81,266.06 449.14,263.73 449.48,264.30 449.81,258.88 450.15,263.81 450.49,266.50 450.82,264.40 451.15,268.38 451.49,273.32 451.82,274.27 452.16,268.09 452.50,273.42 452.83,277.86 453.17,283.90 453.50,283.55 453.83,282.82 454.17,287.39 454.50,290.69 454.84,291.31 455.18,285.61 455.51,283.63 455.85,279.15 456.18,279.96 456.51,282.60 456.85,283.50 457.19,281.33 457.52,282.10 457.86,280.91 458.19,288.27 458.52,288.22 458.86,291.39 459.19,285.82 459.53,286.09 459.87,285.75 460.20,286.78 460.54,288.76 460.87,287.34 461.20,286.48 461.54,288.07 461.88,282.18 462.21,281.42 462.55,281.12 462.88,282.71 463.21,279.32 463.55,275.52 463.88,278.85 464.22,277.06 464.56,276.00 464.89,275.43 465.23,274.51 465.56,276.35 465.89,281.83 466.23,285.01 466.56,289.05 466.90,289.42 467.24,290.13 467.57,291.19 467.90,289.40 468.24,286.70 468.57,286.80 468.91,289.07 469.25,290.87 469.58,287.46 469.92,288.35 470.25,285.96 470.58,289.66 470.92,289.09 471.25,289.39 471.59,289.97 471.93,292.00 472.26,291.78 472.60,292.38 472.93,292.73 473.26,295.07 473.60,294.42 473.94,291.67 474.27,289.14 474.61,288.25 474.94,286.93 475.27,287.40 475.61,285.95 475.94,287.25 476.28,285.45 476.62,286.77 476.95,286.95 477.29,290.66 477.62,292.44 477.95,293.38 478.29,292.48 478.62,291.48 478.96,291.20 479.30,288.66 479.63,288.21 479.96,288.54 480.30,288.59 480.63,290.12 480.97,287.91 481.31,289.00 481.64,290.88 481.98,289.97 482.31,289.01 482.64,287.10 482.98,285.55 483.31,286.04 483.65,284.50 483.99,282.19 484.32,281.15 484.65,282.64 484.99,281.94 485.32,282.02 485.66,282.57 486.00,281.80 486.33,278.81 486.67,279.43 487.00,282.43 487.33,284.23 487.67,283.86 488.00,283.55 488.34,286.71 488.68,286.53 489.01,287.30 489.35,287.49 489.68,288.64 490.01,287.01 490.35,283.37 490.69,286.26 491.02,288.92 491.36,288.84 491.69,286.96 492.02,284.56 492.36,286.21 492.69,289.09 493.03,290.02 493.37,293.58 493.70,291.90 494.04,292.35 494.37,293.48 494.70,295.33 495.04,295.11 495.38,296.27 495.71,293.87 496.05,291.71 496.38,292.98 496.71,293.33 497.05,291.83 497.38,292.20 497.72,290.65 498.06,290.51 498.39,291.73 498.73,291.92 499.06,293.42 499.39,292.43 499.73,291.87 500.06,291.91 500.40,290.80 500.74,293.13 501.07,293.02 501.40,291.36 501.74,290.26 502.07,289.77 502.41,290.57 502.75,290.14 503.08,290.21 503.42,289.86 503.75,290.56 504.08,290.84 504.42,290.97 504.75,291.19 505.09,290.80 505.43,290.19 505.76,289.19 506.10,289.70 506.43,290.15 506.76,290.49 507.10,290.52 507.44,290.01 507.77,290.42 508.11,291.09 508.44,291.54 508.77,291.57 509.11,291.70 509.44,291.52 509.78,290.08 510.12,289.51 510.45,288.32 510.79,288.20 511.12,287.78 511.45,286.85 511.79,287.56 512.12,289.38 512.46,289.61 512.80,289.94 513.13,290.63 513.46,289.59 513.80,288.70 514.13,288.39 514.47,286.37 514.81,286.21 515.14,285.89 515.48,285.49 515.81,283.66 516.14,285.35 516.48,285.58 516.82,283.35 517.15,283.27 517.49,283.23 517.82,283.62 518.15,282.64 518.49,281.56 518.83,282.32 519.16,283.28 519.50,283.48 519.83,284.64 520.16,283.30 520.50,282.97 520.84,283.00 521.17,284.92 521.50,284.22 521.84,280.72 522.17,281.85 522.51,280.17 522.85,278.81 523.18,276.34 523.51,276.51 523.85,274.35 524.18,274.85 524.52,277.76 524.86,280.59 525.19,283.97 525.52,283.87 525.86,280.86 526.19,284.16 526.53,284.47 526.87,282.41 527.20,284.59 527.54,285.38 527.87,286.07 528.20,291.25 528.54,290.19 528.88,293.07 529.21,293.81 529.55,292.73 529.88,295.33 530.21,297.54 530.55,298.28 530.88,299.68 531.22,297.52 531.56,296.48 531.89,296.68 532.23,298.67 532.56,297.38 532.89,296.63 533.23,297.15 533.57,299.38 533.90,301.10 534.24,300.52 534.57,300.61 534.90,301.18 535.24,299.36 535.58,301.03 535.91,298.85 536.25,302.17 536.58,302.57 536.91,301.77 537.25,300.13 537.59,297.85 537.92,298.54 538.25,298.85 538.59,299.73 538.92,298.27 539.26,297.99 539.60,296.97 539.93,297.78 540.26,298.02 540.60,297.71 540.93,297.91 541.27,296.61 541.61,297.38 541.94,295.00 542.27,295.01 542.61,294.06 542.94,293.13 543.28,293.95 543.62,292.05 543.95,293.30 544.29,293.61 544.62,292.06 544.95,290.46 545.29,291.68 545.62,292.24 545.96,289.00 546.30,287.35 546.63,288.65 546.96,290.27 547.30,289.02 547.63,288.70 547.97,285.15 548.31,284.63 548.64,283.66 548.98,283.55 549.31,285.46 549.64,286.53 549.98,288.78 550.32,291.22 550.65,289.67 550.99,286.90 551.32,289.25 551.65,285.86 551.99,284.28 552.33,283.22 552.66,282.96 553.00,284.51 553.33,289.28 553.66,287.66 554.00,291.08 554.34,290.78 554.67,289.74 555.00,291.51 555.34,291.07 555.67,293.31 556.01,291.05 556.35,289.26 556.68,290.15 557.01,290.60 557.35,292.82 557.68,293.94 558.02,293.57 558.36,295.46 558.69,297.48 559.02,296.44 559.36,296.39 559.69,295.37 560.03,294.54 560.37,295.94 560.70,295.42 561.04,295.12 561.37,296.32 561.70,295.06 562.04,295.74 562.38,296.83 562.71,298.40 563.05,300.81 563.38,301.30 563.71,302.32 564.05,302.01 564.38,304.56 564.72,304.86 565.06,306.05 565.39,307.66 565.73,310.09 566.06,310.77 566.39,309.13 566.73,308.25 567.07,308.50 567.40,307.15 567.74,306.76 568.07,307.86 568.40,305.93 568.74,305.99 569.08,305.00 569.41,304.51 569.75,306.49 570.08,305.85 570.41,304.48 570.75,305.36 571.09,305.94 571.42,305.98 571.75,305.48 572.09,304.83 572.42,304.60 572.76,304.13 573.10,303.68 573.43,303.34 573.76,303.62 574.10,303.46 574.43,303.45 574.77,303.11 575.11,302.56 575.44,302.13 575.77,301.92 576.11,302.00 576.44,302.17 576.78,302.00 577.12,301.92 577.45,301.82 577.79,301.59 578.12,301.69 578.45,301.56 578.79,301.22 579.12,300.84 579.46,300.51 579.80,300.57 580.13,300.23 580.46,299.58 580.80,299.49 581.13,299.53 581.47,300.12 581.81,301.10 582.14,301.07 582.48,300.66 582.81,301.32 583.14,301.38 583.48,300.88 583.82,300.15 584.15,300.76 584.49,300.66 584.82,301.93 585.15,302.79 585.49,303.34 585.83,303.48 586.16,304.30 586.50,303.84 586.83,302.73 587.16,303.41 587.50,304.30 587.84,304.29 588.17,304.03 588.50,304.29 588.84,304.67 589.17,304.72 589.51,304.33 589.85,303.68 590.18,303.26 590.51,303.13 590.85,303.00 591.18,303.12 591.52,303.68 591.86,304.07 592.19,304.17 592.52,304.03 592.86,303.41 593.19,303.35 593.53,303.59 593.87,303.22 594.20,303.54 594.54,303.48 594.87,303.93 595.20,304.78 595.54,305.10 595.88,305.17 596.21,305.02 596.55,304.93 596.88,304.93 597.22,304.80 597.55,304.54 597.88,304.23 598.22,304.06 598.55,303.74 598.89,303.45 599.23,302.97 599.56,302.54 599.89,303.04 600.23,303.35 600.57,303.23 600.90,303.10 601.24,302.96 601.57,302.36 601.90,302.14 602.24,302.36 602.58,301.99 602.91,301.00 603.25,302.37 603.58,302.26 603.91,303.06 604.25,304.05 604.59,304.25 604.92,304.60 605.25,305.17 605.59,304.62 605.92,305.22 606.26,304.82 606.60,305.00 606.93,305.15 607.26,305.17 607.60,305.31 607.93,304.50 608.27,304.79 608.61,304.16 608.94,303.93 609.27,304.10 609.61,304.08 609.95,304.58 610.28,305.02 610.62,304.06 610.95,304.31 611.28,304.70 611.62,303.72 611.96,302.78 612.29,303.19 612.62,302.81 612.96,302.89 613.29,303.35 613.63,304.18 613.97,303.72 614.30,302.74 614.63,302.29 614.97,301.83 615.30,301.31 615.64,300.38 615.98,300.02 616.31,301.41 616.64,301.59 616.98,302.27 617.32,301.42 617.65,303.84 617.99,303.76 618.32,301.67 618.65,301.86 618.99,301.37 619.33,298.49 619.66,297.30 620.00,298.48 620.33,297.49 620.66,297.25 621.00,296.70 621.34,297.89 621.67,296.91 622.00,295.88 622.34,296.24 622.67,293.49 623.01,294.51 623.35,294.09 623.68,291.85 624.01,294.15 624.35,293.32 624.68,291.44 625.02,292.17 625.36,291.49 625.69,290.51 626.02,290.30 626.36,291.74 626.70,294.60 627.03,296.55 627.37,293.97 627.70,293.93 628.03,292.15 628.37,291.63 628.71,291.82 629.04,294.23 629.38,295.67 629.71,298.34 630.04,299.76 630.38,300.77 630.72,299.27 631.05,297.60 631.38,299.29 631.72,294.90 632.05,296.96 632.39,297.92 632.73,294.34 633.06,290.86 633.39,284.71 633.73,284.54 634.07,287.21 634.40,288.97 634.74,286.88 635.07,282.04 635.40,286.84 635.74,287.48 636.08,290.37 636.41,289.55 636.75,290.56 637.08,290.96 637.41,286.26 637.75,281.01 638.09,284.23 638.42,281.13 638.75,280.21 639.09,279.62 639.42,281.52 639.76,278.30 640.10,279.66 640.43,274.95 640.76,269.63 641.10,268.01 641.43,267.19 641.77,267.17 642.11,269.09 642.44,268.63 642.77,267.92 643.11,271.01 643.45,264.39 643.78,260.58 644.12,256.93 644.45,256.75 644.78,257.71 645.12,260.03 645.46,261.94 645.79,260.51 646.12,254.42 646.46,255.04 646.79,257.65 647.13,254.81 647.47,258.24 647.80,255.01 648.13,247.65 648.47,242.65 648.80,244.01 649.14,240.77 649.48,240.91 649.81,237.82 650.14,236.68 650.48,240.59 650.82,245.05 651.15,243.53 651.49,251.23 651.82,249.87 652.15,254.36 652.49,254.71 652.83,262.45 653.16,265.92 653.50,259.55 653.83,260.20 654.16,261.51 654.50,261.65 654.84,257.42 655.17,255.23 655.50,258.04 655.84,259.83 656.17,264.75 656.51,261.54 656.85,261.02 657.18,271.12 657.51,276.25 657.85,271.67 658.18,262.43 658.52,261.81 658.86,257.13 659.19,252.59 659.52,248.99 659.86,254.38 660.20,253.78 660.53,256.46 660.87,253.80 661.20,255.06 661.53,252.16 661.87,249.16 662.21,258.96 662.54,266.49 662.88,259.88 663.21,268.70 663.54,276.10 663.88,273.43 664.22,266.94 664.55,273.74 664.88,270.53 665.22,261.67 665.55,262.24 665.89,260.55 666.23,263.39 666.56,260.45 666.89,257.71 667.23,265.65 667.57,273.62 667.90,263.55 668.24,265.91 668.57,261.48 668.90,267.13 669.24,262.32 669.58,257.96 669.91,263.76 670.25,273.71 670.58,277.00 670.91,281.23 671.25,278.54 671.59,276.34 671.92,280.92 672.25,277.11 672.59,283.63 672.92,274.04 673.26,274.28 673.60,274.86 673.93,281.66 674.26,283.14 674.60,280.31 674.93,273.39 675.27,270.17 675.61,264.64 675.94,268.65 676.27,270.16 676.61,276.88 676.95,278.33 677.28,266.97 677.62,257.03 677.95,264.80 678.28,261.09 678.62,272.36 678.96,270.52 679.29,277.54 679.62,283.02 679.96,284.89 680.29,282.39 680.63,288.32 680.97,291.02 681.30,292.13 681.63,287.22 681.97,292.53 682.30,299.56 682.64,295.27 682.98,292.69 683.31,296.98 683.64,294.74 683.98,298.61 684.32,303.20 684.65,306.55 684.99,308.57 685.32,308.80 685.65,313.50 685.99,315.41 686.33,312.84 686.66,311.34 687.00,312.07 687.33,310.45 687.66,313.26 688.00,311.01 688.34,313.85 688.67,306.55 689.00,311.88 689.34,311.61 689.67,305.73 690.01,304.31 690.35,302.68 690.68,306.91 691.01,307.63 691.35,307.98 691.68,303.53 692.02,301.19 692.36,298.94 692.69,295.96 693.02,298.12 693.36,296.00 693.70,300.07 694.03,298.44 694.37,298.26 694.70,293.28 695.03,293.37 695.37,292.47 695.71,287.77 696.04,282.84 696.38,285.10 696.71,291.68 697.04,289.29 697.38,280.81 697.72,284.60 698.05,284.16 698.38,285.19 698.72,281.02 699.05,278.54 699.39,277.85 699.73,281.76 700.06,279.23 700.39,273.31 700.73,270.13 701.07,266.24 701.40,272.47 701.74,277.37 702.07,279.47 702.40,279.81 702.74,277.64 703.08,272.51 703.41,272.01 703.75,277.16 704.08,278.01 704.41,287.89 704.75,282.19 705.09,286.95 705.42,286.43 705.75,288.65 706.09,281.99 706.42,277.39 706.76,273.91 707.10,270.72 707.43,262.83 707.76,268.67 708.10,273.40 708.43,270.27 708.77,270.86 709.11,272.71 709.44,275.56 709.77,275.52 710.11,274.76 710.45,276.22 710.78,279.70 711.12,287.71 711.45,290.25 711.78,289.18 712.12,291.03 712.46,290.26 712.79,290.61 713.12,293.48 713.46,292.30 713.79,289.21 714.13,290.86 714.47,293.03 714.80,290.30 715.13,290.50 715.47,291.16 715.80,290.37 716.14,293.11 716.48,288.18 716.81,285.09 717.14,287.60 717.48,288.70 717.82,284.61 718.15,287.64 718.49,291.10 718.82,291.11 719.15,291.99 719.49,288.87 719.83,292.26 720.16,287.44 720.50,286.67 720.83,285.42 721.16,286.97 721.50,288.92 721.84,287.95 722.17,287.22 722.50,288.48 722.84,293.78 723.17,286.34 723.51,285.59 723.85,283.27 724.18,282.32 724.51,282.23 724.85,283.74 725.18,288.55 725.52,288.18 725.86,288.34 726.19,285.23 726.52,284.43 726.86,291.44 727.20,285.55 727.53,278.83 727.87,275.66 728.20,283.87 728.53,290.86 728.87,292.39 729.21,292.79 729.54,295.50 729.88,294.43 730.21,290.80 730.54,298.39 730.88,292.79 731.22,291.99 731.55,285.20 731.88,287.33 732.22,284.93 732.55,290.94 732.89,286.79 733.23,289.15 733.56,286.28 733.89,280.32 734.23,276.31 734.57,277.80 734.90,281.38 735.24,280.10 735.57,279.96 735.90,279.67 736.24,279.55 736.58,282.63 736.91,289.01 737.25,291.02 737.58,292.69 737.91,297.98 738.25,294.57 738.59,297.30 738.92,293.40 739.25,289.75 739.59,293.20 739.92,298.97 740.26,297.55 740.60,292.75 740.93,296.25 741.26,301.21 741.60,299.12 741.93,302.71 742.27,300.84 742.61,299.49 742.94,299.53 743.27,301.84 743.61,302.64 743.95,307.35 744.28,304.47 744.62,303.27 744.95,300.21 745.28,295.63 745.62,294.46 745.96,288.64 746.29,291.12 746.62,288.68 746.96,287.98 747.29,287.11 747.63,283.63 747.97,286.19 748.30,286.03 748.63,285.41 748.97,280.60 749.30,275.08 749.64,278.52 749.98,278.43 750.31,282.64 750.64,281.79 750.98,285.14 751.32,285.95 751.65,277.44 751.99,277.69 752.32,280.22 752.65,278.26 752.99,279.63 753.33,287.70 753.66,288.19 754.00,286.36 754.33,289.45 754.66,290.30 755.00,293.20 755.00,292.73"/>
<line x1="783" y1="58" x2="809" y2="58" stroke="#2563eb" stroke-width="3"/>
<text x="817" y="62" font-family="Arial" font-size="13" fill="#111827">Naive</text>
<polyline fill="none" stroke="#dc2626" stroke-width="2" points="85.00,405.62 85.33,405.60 85.67,405.58 86.00,405.55 86.34,405.48 86.67,405.35 87.01,405.11 87.34,404.96 87.68,404.88 88.02,404.84 88.35,404.99 88.69,405.22 89.02,405.41 89.36,405.55 89.69,405.71 90.03,405.57 90.36,405.37 90.69,405.17 91.03,405.18 91.36,405.26 91.70,405.31 92.03,405.15 92.37,405.11 92.70,405.12 93.04,405.29 93.38,405.02 93.71,405.12 94.05,405.27 94.38,405.29 94.72,405.36 95.05,405.33 95.39,405.38 95.72,405.36 96.06,405.29 96.39,405.16 96.72,405.22 97.06,405.00 97.39,404.82 97.73,404.84 98.06,405.00 98.40,405.11 98.73,405.03 99.07,404.66 99.41,404.34 99.74,404.57 100.08,405.01 100.41,405.86 100.75,406.06 101.08,406.33 101.41,406.40 101.75,407.18 102.09,407.23 102.42,406.91 102.75,406.80 103.09,406.53 103.42,406.24 103.76,405.88 104.09,405.71 104.43,405.98 104.77,406.09 105.10,406.26 105.44,406.08 105.77,406.61 106.11,406.79 106.44,406.84 106.78,406.89 107.11,406.76 107.44,406.65 107.78,406.54 108.11,406.58 108.45,406.55 108.78,406.32 109.12,406.35 109.45,406.26 109.79,406.05 110.12,405.99 110.46,406.12 110.80,406.20 111.13,406.28 111.47,406.88 111.80,406.91 112.14,406.52 112.47,406.46 112.81,406.57 113.14,406.26 113.47,406.10 113.81,406.11 114.14,406.21 114.48,406.09 114.81,406.18 115.15,406.29 115.48,406.13 115.82,406.36 116.16,406.34 116.49,406.59 116.83,406.70 117.16,406.65 117.50,406.59 117.83,406.55 118.16,406.54 118.50,406.53 118.84,406.28 119.17,406.48 119.50,406.20 119.84,406.24 120.17,406.52 120.51,405.98 120.84,405.56 121.18,405.18 121.52,405.35 121.85,405.78 122.19,405.17 122.52,405.39 122.85,405.63 123.19,405.60 123.53,405.08 123.86,405.55 124.19,405.19 124.53,404.53 124.87,404.50 125.20,404.73 125.53,405.23 125.87,407.04 126.20,409.24 126.54,409.88 126.88,409.86 127.21,408.99 127.55,408.49 127.88,408.27 128.22,408.49 128.55,408.86 128.88,408.45 129.22,408.81 129.56,408.86 129.89,409.27 130.22,410.22 130.56,409.80 130.90,409.55 131.23,409.25 131.56,408.59 131.90,408.99 132.24,409.16 132.57,408.83 132.91,408.32 133.24,408.27 133.57,408.22 133.91,408.25 134.25,407.88 134.58,408.22 134.91,408.13 135.25,408.08 135.59,408.24 135.92,407.80 136.25,407.84 136.59,406.92 136.93,407.64 137.26,408.08 137.59,408.22 137.93,408.42 138.26,408.18 138.60,407.86 138.94,408.15 139.27,407.16 139.60,406.71 139.94,406.83 140.28,405.71 140.61,405.77 140.94,405.60 141.28,404.92 141.62,405.41 141.95,403.85 142.28,403.62 142.62,402.44 142.95,404.19 143.29,403.68 143.62,403.92 143.96,403.26 144.30,404.05 144.63,404.30 144.97,404.35 145.30,404.53 145.63,404.35 145.97,404.38 146.31,404.38 146.64,406.55 146.97,406.37 147.31,404.88 147.65,405.16 147.98,405.56 148.31,404.94 148.65,404.68 148.99,403.36 149.32,402.98 149.66,403.94 149.99,404.04 150.32,405.18 150.66,405.22 151.00,405.66 151.33,405.62 151.67,405.37 152.00,405.46 152.33,402.25 152.67,405.10 153.00,404.88 153.34,404.45 153.68,405.49 154.01,403.79 154.34,403.63 154.68,404.06 155.01,403.45 155.35,402.52 155.69,402.18 156.02,402.44 156.36,403.34 156.69,404.54 157.03,401.06 157.36,399.73 157.69,401.35 158.03,401.83 158.37,400.62 158.70,399.49 159.03,398.17 159.37,398.68 159.70,399.26 160.04,400.72 160.38,403.26 160.71,404.30 161.05,402.78 161.38,402.72 161.72,404.25 162.05,406.77 162.38,408.01 162.72,408.12 163.06,406.88 163.39,404.10 163.72,403.99 164.06,402.19 164.39,401.46 164.73,404.30 165.06,407.34 165.40,408.64 165.74,409.63 166.07,412.71 166.41,410.93 166.74,409.08 167.07,408.04 167.41,408.62 167.75,409.06 168.08,409.74 168.42,410.01 168.75,410.21 169.08,410.68 169.42,411.07 169.75,411.18 170.09,410.74 170.43,411.21 170.76,411.43 171.09,412.73 171.43,411.81 171.76,411.61 172.10,412.59 172.44,412.67 172.77,412.37 173.11,413.21 173.44,413.44 173.78,412.98 174.11,412.93 174.44,412.00 174.78,411.51 175.12,411.31 175.45,411.18 175.78,410.91 176.12,410.74 176.45,411.18 176.79,411.11 177.12,411.00 177.46,410.83 177.80,410.68 178.13,410.62 178.47,410.49 178.80,410.35 179.13,410.08 179.47,409.91 179.81,410.11 180.14,410.19 180.47,409.85 180.81,410.02 181.14,408.93 181.48,408.46 181.81,409.40 182.15,409.50 182.49,409.35 182.82,408.97 183.16,408.27 183.49,408.50 183.82,408.58 184.16,409.18 184.50,408.43 184.83,409.10 185.17,408.51 185.50,407.35 185.83,407.34 186.17,407.55 186.50,407.99 186.84,407.46 187.18,405.66 187.51,404.76 187.84,406.05 188.18,405.05 188.51,404.37 188.85,402.52 189.19,403.21 189.52,404.38 189.86,403.81 190.19,403.37 190.53,403.04 190.86,402.33 191.19,402.43 191.53,402.74 191.87,402.66 192.20,403.11 192.53,402.00 192.87,402.66 193.20,403.39 193.54,399.69 193.88,402.09 194.21,401.32 194.55,403.71 194.88,401.27 195.22,399.68 195.55,400.31 195.88,401.50 196.22,399.81 196.56,403.01 196.89,403.05 197.22,404.04 197.56,407.01 197.89,403.36 198.23,401.12 198.56,398.65 198.90,396.72 199.24,400.42 199.57,399.10 199.91,396.60 200.24,398.83 200.57,399.02 200.91,400.64 201.25,401.33 201.58,401.05 201.92,397.14 202.25,393.81 202.58,392.10 202.92,390.06 203.25,385.00 203.59,384.04 203.93,384.59 204.26,381.46 204.59,386.86 204.93,388.66 205.26,389.70 205.60,387.07 205.94,381.53 206.27,381.75 206.61,379.10 206.94,381.27 207.28,384.69 207.61,385.16 207.94,384.90 208.28,385.13 208.62,389.60 208.95,389.94 209.28,390.04 209.62,391.56 209.95,387.52 210.29,387.66 210.62,387.17 210.96,386.45 211.30,386.42 211.63,388.05 211.97,389.04 212.30,384.43 212.63,387.75 212.97,389.01 213.31,391.45 213.64,389.92 213.97,384.51 214.31,390.51 214.65,384.11 214.98,384.44 215.31,381.82 215.65,381.12 215.99,378.77 216.32,382.90 216.66,385.76 216.99,383.24 217.32,380.41 217.66,382.03 218.00,376.79 218.33,379.52 218.66,383.59 219.00,381.96 219.34,384.56 219.67,382.79 220.00,381.56 220.34,377.18 220.68,377.19 221.01,377.36 221.34,379.99 221.68,380.20 222.01,386.09 222.35,382.73 222.69,384.85 223.02,386.02 223.35,388.28 223.69,390.92 224.03,394.40 224.36,395.87 224.69,390.72 225.03,393.98 225.37,395.50 225.70,396.03 226.03,401.48 226.37,403.53 226.71,402.10 227.04,401.92 227.38,407.15 227.71,406.88 228.04,413.50 228.38,410.54 228.72,409.46 229.05,414.64 229.38,414.16 229.72,415.17 230.06,413.47 230.39,413.12 230.72,408.73 231.06,407.02 231.40,405.80 231.73,407.06 232.06,408.15 232.40,408.85 232.74,406.24 233.07,406.02 233.41,407.05 233.74,407.62 234.07,406.57 234.41,409.87 234.75,410.64 235.08,411.62 235.41,413.12 235.75,409.13 236.09,407.26 236.42,405.46 236.75,402.11 237.09,400.63 237.43,396.90 237.76,397.11 238.09,393.19 238.43,391.95 238.76,394.12 239.10,395.11 239.44,397.03 239.77,397.68 240.10,400.34 240.44,399.90 240.78,399.42 241.11,397.26 241.44,397.53 241.78,395.34 242.12,392.92 242.45,389.45 242.78,389.57 243.12,386.33 243.46,387.67 243.79,387.32 244.12,387.11 244.46,382.75 244.79,381.63 245.13,378.10 245.47,376.66 245.80,376.82 246.13,374.01 246.47,372.29 246.81,371.51 247.14,369.43 247.47,371.01 247.81,367.38 248.15,365.47 248.48,363.55 248.81,361.49 249.15,363.37 249.49,360.01 249.82,361.56 250.16,362.83 250.49,358.29 250.82,353.28 251.16,354.31 251.50,353.36 251.83,349.90 252.16,352.14 252.50,350.02 252.84,344.65 253.17,343.72 253.50,346.14 253.84,340.67 254.18,343.72 254.51,335.02 254.84,340.32 255.18,334.50 255.51,329.65 255.85,329.49 256.19,333.73 256.52,337.81 256.86,339.35 257.19,341.71 257.52,349.94 257.86,350.00 258.19,350.00 258.53,353.52 258.87,354.76 259.20,353.64 259.53,360.80 259.87,358.06 260.21,355.58 260.54,361.67 260.88,356.10 261.21,357.29 261.54,358.42 261.88,361.40 262.22,363.11 262.55,361.83 262.88,362.65 263.22,361.53 263.56,366.45 263.89,366.58 264.23,364.18 264.56,360.52 264.89,356.04 265.23,356.64 265.56,356.27 265.90,352.62 266.24,355.92 266.57,356.29 266.90,353.98 267.24,347.07 267.57,352.41 267.91,354.28 268.25,360.12 268.58,361.23 268.91,364.07 269.25,367.25 269.59,366.41 269.92,363.01 270.25,363.01 270.59,362.23 270.93,360.70 271.26,361.72 271.60,365.07 271.93,360.83 272.26,361.20 272.60,362.57 272.94,362.48 273.27,359.06 273.61,360.34 273.94,360.95 274.27,360.09 274.61,356.79 274.94,356.11 275.28,357.34 275.62,356.74 275.95,355.10 276.28,351.88 276.62,350.74 276.96,350.04 277.29,350.24 277.62,352.73 277.96,353.48 278.29,356.58 278.63,353.17 278.97,351.52 279.30,350.38 279.63,353.54 279.97,356.25 280.31,352.45 280.64,351.22 280.98,349.17 281.31,347.08 281.64,349.10 281.98,351.22 282.31,344.19 282.65,338.32 282.99,339.77 283.32,339.85 283.65,336.59 283.99,336.70 284.32,336.32 284.66,339.64 285.00,339.30 285.33,341.22 285.66,344.65 286.00,345.26 286.34,339.26 286.67,342.22 287.00,345.71 287.34,340.85 287.68,348.47 288.01,348.72 288.35,346.75 288.68,349.13 289.01,351.88 289.35,352.41 289.69,353.31 290.02,351.35 290.36,342.53 290.69,345.49 291.02,344.05 291.36,346.83 291.69,343.34 292.03,343.66 292.37,342.14 292.70,337.71 293.03,339.80 293.37,339.86 293.71,338.75 294.04,334.93 294.38,331.59 294.71,332.11 295.04,336.95 295.38,339.07 295.72,338.64 296.05,340.21 296.38,340.46 296.72,342.91 297.06,337.00 297.39,337.99 297.73,343.69 298.06,341.99 298.39,346.38 298.73,346.77 299.06,349.94 299.40,350.87 299.74,350.33 300.07,352.90 300.40,353.73 300.74,358.34 301.07,356.71 301.41,357.33 301.75,362.45 302.08,359.40 302.41,359.23 302.75,360.85 303.09,360.94 303.42,363.72 303.75,360.22 304.09,356.72 304.43,359.05 304.76,353.08 305.10,354.65 305.43,356.69 305.76,357.83 306.10,353.07 306.44,351.45 306.77,350.00 307.11,346.16 307.44,346.04 307.77,351.71 308.11,346.48 308.44,342.29 308.78,339.71 309.12,338.80 309.45,336.26 309.78,332.14 310.12,333.86 310.46,331.35 310.79,329.61 311.12,329.12 311.46,331.96 311.79,334.17 312.13,335.91 312.47,328.39 312.80,330.92 313.13,330.10 313.47,333.90 313.81,332.47 314.14,332.21 314.48,333.45 314.81,332.76 315.14,334.16 315.48,333.45 315.81,328.95 316.15,327.83 316.49,324.19 316.82,324.38 317.15,322.37 317.49,327.10 317.82,327.13 318.16,329.13 318.50,328.54 318.83,329.69 319.16,331.19 319.50,330.12 319.84,332.57 320.17,336.43 320.50,337.14 320.84,330.64 321.18,331.95 321.51,332.80 321.85,326.55 322.18,326.78 322.51,324.35 322.85,313.78 323.19,310.50 323.52,307.48 323.86,311.37 324.19,307.22 324.52,311.00 324.86,305.05 325.19,305.46 325.53,309.61 325.87,310.16 326.20,309.79 326.53,308.93 326.87,309.35 327.21,307.65 327.54,305.94 327.88,314.29 328.21,308.43 328.54,304.67 328.88,301.42 329.22,299.86 329.55,300.01 329.88,302.16 330.22,301.31 330.56,295.52 330.89,299.90 331.23,308.72 331.56,298.80 331.89,290.04 332.23,287.46 332.56,293.60 332.90,292.92 333.24,292.50 333.57,293.33 333.90,295.09 334.24,295.79 334.57,288.53 334.91,289.97 335.25,290.33 335.58,285.62 335.91,276.47 336.25,277.56 336.59,279.55 336.92,271.63 337.25,278.00 337.59,269.83 337.93,263.41 338.26,258.49 338.60,254.44 338.93,247.61 339.26,243.74 339.60,244.07 339.94,242.95 340.27,238.78 340.61,228.24 340.94,225.48 341.27,225.28 341.61,220.02 341.94,220.95 342.28,215.11 342.62,222.71 342.95,213.26 343.29,204.64 343.62,205.26 343.95,209.34 344.29,212.27 344.62,233.32 344.96,238.93 345.30,234.91 345.63,226.63 345.96,234.94 346.30,233.95 346.63,237.64 346.97,237.14 347.31,228.43 347.64,226.76 347.98,222.63 348.31,230.40 348.64,228.28 348.98,228.78 349.31,228.88 349.65,232.63 349.99,229.79 350.32,234.93 350.65,226.62 350.99,228.55 351.32,237.35 351.66,235.99 352.00,231.48 352.33,227.38 352.67,234.85 353.00,241.18 353.33,243.44 353.67,244.96 354.00,255.18 354.34,261.70 354.68,257.80 355.01,265.38 355.35,267.24 355.68,269.31 356.01,277.62 356.35,275.14 356.69,271.27 357.02,259.04 357.36,250.32 357.69,246.81 358.02,246.92 358.36,244.29 358.69,248.55 359.03,235.05 359.37,225.84 359.70,225.62 360.04,222.08 360.37,221.53 360.70,226.87 361.04,231.17 361.38,233.16 361.71,229.30 362.05,233.42 362.38,235.48 362.71,233.65 363.05,228.69 363.38,225.88 363.72,219.23 364.06,217.31 364.39,215.30 364.73,217.36 365.06,213.52 365.39,214.05 365.73,213.56 366.06,216.28 366.40,220.06 366.74,214.67 367.07,224.08 367.40,221.65 367.74,214.98 368.07,212.93 368.41,214.44 368.75,213.03 369.08,212.59 369.42,216.54 369.75,216.47 370.08,216.19 370.42,211.94 370.75,217.02 371.09,214.98 371.43,219.01 371.76,221.21 372.10,226.19 372.43,224.51 372.76,225.11 373.10,225.23 373.44,224.62 373.77,228.01 374.11,223.27 374.44,222.04 374.77,221.97 375.11,221.77 375.44,229.57 375.78,231.78 376.12,230.16 376.45,231.51 376.79,226.37 377.12,225.59 377.45,230.22 377.79,232.17 378.12,229.69 378.46,234.83 378.80,238.20 379.13,234.42 379.46,231.36 379.80,228.92 380.13,228.51 380.47,233.30 380.81,241.45 381.14,232.91 381.48,234.45 381.81,229.80 382.14,234.09 382.48,232.47 382.81,227.28 383.15,230.01 383.49,232.51 383.82,235.31 384.15,233.56 384.49,240.34 384.82,241.97 385.16,241.95 385.50,240.11 385.83,240.10 386.17,237.41 386.50,235.71 386.83,233.36 387.17,231.89 387.50,234.70 387.84,232.02 388.18,231.06 388.51,229.48 388.85,227.85 389.18,225.87 389.51,225.36 389.85,224.42 390.19,228.34 390.52,231.26 390.86,231.03 391.19,227.02 391.52,225.44 391.86,231.00 392.19,225.76 392.53,223.94 392.87,226.10 393.20,222.53 393.54,221.88 393.87,223.15 394.20,229.83 394.54,231.40 394.88,231.15 395.21,237.89 395.55,238.49 395.88,240.48 396.21,242.04 396.55,242.32 396.88,241.47 397.22,241.91 397.56,240.24 397.89,241.66 398.23,239.67 398.56,237.63 398.89,236.54 399.23,237.18 399.56,239.41 399.90,238.64 400.24,237.37 400.57,239.19 400.90,238.23 401.24,240.62 401.57,238.70 401.91,237.43 402.25,234.96 402.58,234.38 402.92,232.12 403.25,233.88 403.58,236.18 403.92,238.68 404.25,237.98 404.59,239.04 404.93,240.13 405.26,242.19 405.60,244.28 405.93,244.82 406.26,245.10 406.60,245.85 406.94,246.58 407.27,245.73 407.61,247.26 407.94,249.68 408.27,249.57 408.61,250.09 408.94,249.87 409.28,249.87 409.62,249.40 409.95,250.57 410.29,249.73 410.62,250.48 410.95,250.54 411.29,248.67 411.62,248.91 411.96,247.78 412.30,247.23 412.63,246.39 412.96,246.74 413.30,247.04 413.63,247.24 413.97,247.61 414.31,248.18 414.64,246.47 414.98,245.89 415.31,245.18 415.64,244.91 415.98,244.46 416.31,244.37 416.65,244.32 416.99,244.12 417.32,243.91 417.65,243.56 417.99,243.41 418.32,243.32 418.66,243.32 419.00,243.17 419.33,243.18 419.67,243.07 420.00,242.98 420.33,243.12 420.67,243.11 421.00,242.91 421.34,242.86 421.68,243.12 422.01,243.13 422.35,242.91 422.68,243.10 423.01,242.97 423.35,242.94 423.69,243.01 424.02,243.07 424.36,242.96 424.69,242.97 425.02,242.82 425.36,242.84 425.69,242.72 426.03,242.65 426.37,242.61 426.70,242.72 427.04,242.39 427.37,241.89 427.70,241.37 428.04,240.84 428.38,240.13 428.71,240.43 429.05,240.83 429.38,239.79 429.71,240.51 430.05,240.13 430.38,239.79 430.72,239.48 431.06,239.31 431.39,240.55 431.73,239.85 432.06,240.47 432.39,239.24 432.73,238.99 433.06,241.03 433.40,240.99 433.74,240.35 434.07,237.77 434.40,236.21 434.74,235.11 435.07,236.35 435.41,237.38 435.75,234.25 436.08,234.48 436.42,234.26 436.75,236.03 437.08,235.10 437.42,232.55 437.75,231.48 438.09,230.88 438.43,229.92 438.76,227.79 439.10,225.46 439.43,225.53 439.76,224.98 440.10,225.67 440.44,224.99 440.77,222.36 441.11,220.79 441.44,220.74 441.77,221.10 442.11,218.12 442.44,217.78 442.78,221.01 443.12,219.41 443.45,220.42 443.79,216.58 444.12,213.87 444.45,213.78 444.79,215.96 445.12,217.85 445.46,218.20 445.80,218.99 446.13,215.10 446.46,218.18 446.80,222.04 447.13,221.64 447.47,221.12 447.81,225.46 448.14,223.94 448.48,224.17 448.81,223.36 449.14,224.80 449.48,224.42 449.81,227.75 450.15,224.69 450.49,223.03 450.82,224.27 451.15,221.81 451.49,218.72 451.82,218.07 452.16,222.00 452.50,218.61 452.83,215.72 453.17,211.60 453.50,211.62 453.83,212.01 454.17,208.55 454.50,205.78 454.84,205.03 455.18,209.27 455.51,210.73 455.85,214.32 456.18,213.61 456.51,211.32 456.85,210.45 457.19,212.30 457.52,211.56 457.86,212.60 458.19,205.64 458.52,205.44 458.86,202.10 459.19,207.48 459.53,207.12 459.87,207.35 460.20,206.07 460.54,203.68 460.87,205.18 461.20,206.10 461.54,204.08 461.88,211.27 462.21,212.19 462.55,212.54 462.88,210.57 463.21,214.73 463.55,219.41 463.88,215.41 464.22,217.53 464.56,218.76 464.89,219.39 465.23,220.42 465.56,218.38 465.89,212.37 466.23,208.81 466.56,204.14 466.90,203.59 467.24,202.56 467.57,200.99 467.90,203.00 468.24,206.35 468.57,206.12 468.91,202.97 469.25,200.23 469.58,204.99 469.92,203.57 470.25,207.13 470.58,201.31 470.92,202.11 471.25,201.52 471.59,200.37 471.93,196.61 472.26,196.76 472.60,195.26 472.93,194.25 473.26,189.20 473.60,190.00 473.94,195.43 474.27,200.82 474.61,202.68 474.94,205.62 475.27,204.53 475.61,207.84 475.94,204.90 476.28,208.84 476.62,205.97 476.95,205.54 477.29,197.46 477.62,193.20 477.95,190.65 478.29,192.29 478.62,194.51 478.96,195.05 479.30,201.89 479.63,203.13 479.96,202.17 480.30,201.96 480.63,197.77 480.97,203.81 481.31,200.77 481.64,195.42 481.98,197.92 482.31,200.81 482.64,206.58 482.98,210.91 483.31,209.45 483.65,213.46 483.99,219.11 484.32,221.44 484.65,217.55 484.99,218.91 485.32,218.47 485.66,217.16 486.00,218.54 486.33,224.13 486.67,222.58 487.00,216.91 487.33,213.71 487.67,214.32 488.00,214.85 488.34,209.55 488.68,209.80 489.01,208.46 489.35,208.08 489.68,206.16 490.01,208.77 490.35,214.73 490.69,210.03 491.02,205.72 491.36,205.83 491.69,208.91 492.02,212.83 492.36,210.06 492.69,205.30 493.03,203.71 493.37,197.46 493.70,200.25 494.04,199.29 494.37,196.89 494.70,192.81 495.04,192.82 495.38,189.81 495.71,194.86 496.05,199.85 496.38,196.59 496.71,195.36 497.05,199.34 497.38,198.17 497.72,202.65 498.06,203.03 498.39,199.36 498.73,198.67 499.06,193.68 499.39,196.66 499.73,198.52 500.06,198.27 500.40,202.61 500.74,192.89 501.07,192.81 501.40,200.48 501.74,205.63 502.07,207.93 502.41,204.04 502.75,205.87 503.08,205.46 503.42,207.02 503.75,203.68 504.08,202.34 504.42,201.63 504.75,200.48 505.09,202.25 505.43,205.01 505.76,209.62 506.10,207.30 506.43,205.25 506.76,203.72 507.10,203.48 507.44,205.58 507.77,203.81 508.11,200.94 508.44,199.03 508.77,198.84 509.11,198.19 509.44,198.97 509.78,205.54 510.12,208.10 510.45,212.77 510.79,212.96 511.12,214.26 511.45,217.13 511.79,214.42 512.12,208.67 512.46,207.95 512.80,206.85 513.13,204.64 513.46,207.94 513.80,210.75 514.13,211.67 514.47,217.35 514.81,217.41 515.14,217.93 515.48,218.49 515.81,222.11 516.14,217.92 516.48,217.13 516.82,221.10 517.15,220.81 517.49,220.33 517.82,219.29 518.15,220.47 518.49,221.69 518.83,220.32 519.16,218.87 519.50,218.50 519.83,216.92 520.16,218.43 520.50,218.63 520.84,218.46 521.17,216.36 521.50,216.98 521.84,220.12 522.17,218.91 522.51,220.11 522.85,220.98 523.18,222.51 523.51,222.14 523.85,223.28 524.18,222.68 524.52,220.66 524.86,218.86 525.19,216.88 525.52,216.95 525.86,218.51 526.19,216.84 526.53,216.66 526.87,217.62 527.20,216.58 527.54,216.16 527.87,215.80 528.20,213.22 528.54,213.71 528.88,212.07 529.21,211.55 529.55,212.11 529.88,210.31 530.21,208.53 530.55,207.81 530.88,206.52 531.22,208.05 531.56,208.71 531.89,208.42 532.23,206.45 532.56,207.51 532.89,208.15 533.23,207.51 533.57,204.92 533.90,202.81 534.24,203.22 534.57,202.93 534.90,201.86 535.24,204.16 535.58,201.58 535.91,204.71 536.25,199.21 536.58,198.12 536.91,199.13 537.25,201.97 537.59,206.34 537.92,204.86 538.25,204.14 538.59,201.97 538.92,205.41 539.26,206.11 539.60,208.63 539.93,206.56 540.26,205.88 540.60,206.57 540.93,206.01 541.27,209.12 541.61,207.18 541.94,212.96 542.27,212.80 542.61,214.74 542.94,216.37 543.28,214.56 543.62,217.96 543.95,215.56 544.29,214.91 544.62,217.17 544.95,219.29 545.29,217.34 545.62,216.48 545.96,220.42 546.30,222.13 546.63,220.43 546.96,218.51 547.30,219.69 547.63,219.90 547.97,223.15 548.31,223.37 548.64,223.93 548.98,223.84 549.31,222.06 549.64,221.10 549.98,219.44 550.32,217.69 550.65,218.74 550.99,220.68 551.32,219.07 551.65,221.27 551.99,222.16 552.33,222.65 552.66,222.68 553.00,221.80 553.33,219.41 553.66,220.19 554.00,218.52 554.34,218.63 554.67,219.08 555.00,218.22 555.34,218.38 555.67,217.26 556.01,218.35 556.35,219.19 556.68,218.72 557.01,218.47 557.35,217.36 557.68,216.78 558.02,216.94 558.36,215.84 558.69,214.58 559.02,215.15 559.36,215.13 559.69,215.77 560.03,216.35 560.37,215.30 560.70,215.68 561.04,215.88 561.37,214.90 561.70,215.90 562.04,215.33 562.38,214.41 562.71,212.94 563.05,210.55 563.38,209.90 563.71,208.60 564.05,208.62 564.38,205.18 564.72,204.43 565.06,202.49 565.39,199.52 565.73,195.68 566.06,194.15 566.39,195.78 566.73,196.50 567.07,195.15 567.40,196.77 567.74,196.59 568.07,193.36 568.40,196.61 568.74,195.62 569.08,197.59 569.41,198.07 569.75,191.71 570.08,192.69 570.41,195.91 570.75,191.68 571.09,187.96 571.42,186.85 571.75,188.11 572.09,189.96 572.42,190.05 572.76,191.24 573.10,192.66 573.43,194.21 573.76,190.52 574.10,190.06 574.43,188.00 574.77,190.18 575.11,194.42 575.44,199.45 575.77,202.74 576.11,200.65 576.44,194.22 576.78,197.52 577.12,198.05 577.45,194.98 577.79,190.50 578.12,195.49 578.45,194.52 578.79,190.54 579.12,187.06 579.46,184.39 579.80,186.67 580.13,185.18 580.46,180.26 580.80,180.85 581.13,182.27 581.47,187.39 581.81,194.60 582.14,194.50 582.48,192.17 582.81,196.10 583.14,196.53 583.48,193.82 583.82,190.17 584.15,193.37 584.49,193.00 584.82,198.87 585.15,202.81 585.49,205.53 585.83,206.33 586.16,210.61 586.50,208.41 586.83,202.31 587.16,206.32 587.50,211.83 587.84,211.99 588.17,210.41 588.50,212.48 588.84,215.80 589.17,216.69 589.51,213.43 589.85,207.33 590.18,203.45 590.51,202.34 590.85,201.51 591.18,202.41 591.52,206.56 591.86,209.55 592.19,210.43 592.52,209.51 592.86,204.55 593.19,204.21 593.53,206.38 593.87,203.63 594.20,206.03 594.54,205.87 594.87,209.33 595.20,216.27 595.54,219.95 595.88,222.48 596.21,222.17 596.55,222.79 596.88,225.99 597.22,229.70 597.55,229.28 597.88,228.80 598.22,227.41 598.55,228.20 598.89,229.55 599.23,232.40 599.56,233.01 599.89,226.99 600.23,223.84 600.57,224.04 600.90,224.26 601.24,224.58 601.57,226.71 601.90,227.12 602.24,225.98 602.58,226.99 602.91,229.72 603.25,225.71 603.58,225.91 603.91,223.71 604.25,221.06 604.59,220.47 604.92,219.30 605.25,217.42 605.59,219.15 605.92,216.90 606.26,218.41 606.60,217.64 606.93,216.89 607.26,216.67 607.60,215.78 607.93,220.63 608.27,218.67 608.61,222.29 608.94,223.51 609.27,222.52 609.61,222.57 609.95,220.26 610.28,218.14 610.62,222.52 610.95,221.30 611.28,219.33 611.62,224.30 611.96,228.33 612.29,226.23 612.62,227.32 612.96,226.76 613.29,225.29 613.63,222.94 613.97,224.09 614.30,226.63 614.63,227.59 614.97,228.47 615.30,229.40 615.64,230.85 615.98,231.18 616.31,228.55 616.64,228.11 616.98,227.06 617.32,228.11 617.65,225.10 617.99,225.16 618.32,227.67 618.65,227.39 618.99,227.89 619.33,230.61 619.66,231.45 620.00,230.21 620.33,230.84 620.66,230.85 621.00,231.00 621.34,229.97 621.67,230.45 622.00,230.87 622.34,230.49 622.67,231.61 623.01,230.91 623.35,230.91 623.68,231.57 624.01,230.54 624.35,230.65 624.68,231.04 625.02,230.67 625.36,230.66 625.69,230.70 626.02,230.51 626.36,230.05 626.70,229.46 627.03,229.09 627.37,229.36 627.70,229.29 628.03,229.36 628.37,229.21 628.71,229.08 629.04,228.93 629.38,228.86 629.71,228.85 630.04,228.85 630.38,228.84 630.72,228.82 631.05,228.80 631.38,228.84 631.72,228.66 632.05,228.74 632.39,228.81 632.73,228.57 633.06,228.22 633.39,227.50 633.73,227.32 634.07,227.55 634.40,227.71 634.74,227.34 635.07,226.48 635.40,227.13 635.74,227.13 636.08,227.60 636.41,227.39 636.75,227.54 637.08,227.60 637.41,226.47 637.75,225.10 638.09,225.78 638.42,224.86 638.75,224.54 639.09,224.25 639.42,224.69 639.76,223.64 640.10,223.97 640.43,222.45 640.76,220.63 641.10,219.91 641.43,219.43 641.77,219.23 642.11,219.76 642.44,219.46 642.77,219.07 643.11,220.12 643.45,217.52 643.78,215.89 644.12,214.31 644.45,214.04 644.78,214.24 645.12,215.02 645.46,215.63 645.79,214.96 646.12,212.25 646.46,212.39 646.79,213.40 647.13,212.01 647.47,213.40 647.80,211.85 648.13,208.31 648.47,205.79 648.80,206.22 649.14,204.58 649.48,204.41 649.81,202.74 650.14,202.02 650.48,203.82 650.82,205.95 651.15,205.06 651.49,208.91 651.82,208.16 652.15,210.45 652.49,210.60 652.83,214.68 653.16,216.52 653.50,213.11 653.83,213.45 654.16,214.14 654.50,214.20 654.84,211.98 655.17,210.81 655.50,212.29 655.84,213.24 656.17,215.85 656.51,214.14 656.85,213.86 657.18,219.19 657.51,221.88 657.85,219.49 658.18,214.67 658.52,214.34 658.86,211.89 659.19,209.49 659.52,207.58 659.86,210.41 660.20,210.08 660.53,211.50 660.87,210.08 661.20,210.76 661.53,209.22 661.87,207.64 662.21,212.80 662.54,216.75 662.88,213.31 663.21,217.88 663.54,221.67 663.88,220.28 664.22,216.97 664.55,220.41 664.88,218.79 665.22,214.34 665.55,214.61 665.89,213.76 666.23,215.17 666.56,213.69 666.89,212.31 667.23,216.27 667.57,220.26 667.90,215.22 668.24,216.39 668.57,214.16 668.90,216.97 669.24,214.57 669.58,212.40 669.91,215.25 670.25,220.19 670.58,221.81 670.91,223.88 671.25,222.54 671.59,221.46 671.92,223.65 672.25,221.82 672.59,224.86 672.92,220.38 673.26,220.49 673.60,220.77 673.93,223.82 674.26,224.46 674.60,223.18 674.93,220.15 675.27,218.73 675.61,216.29 675.94,218.05 676.27,218.70 676.61,221.65 676.95,222.27 677.28,217.32 677.62,212.96 677.95,216.37 678.28,214.74 678.62,219.68 678.96,218.86 679.29,221.91 679.62,224.27 679.96,225.02 680.29,223.94 680.63,226.39 680.97,227.43 681.30,227.81 681.63,225.78 681.97,227.86 682.30,230.56 682.64,228.79 682.98,227.73 683.31,229.24 683.64,228.28 683.98,229.59 684.32,231.12 684.65,232.11 684.99,232.67 685.32,232.55 685.65,233.85 685.99,234.26 686.33,233.28 686.66,232.60 687.00,232.74 687.33,232.02 687.66,232.62 688.00,231.85 688.34,232.41 688.67,230.33 689.00,231.52 689.34,231.22 689.67,229.69 690.01,229.25 690.35,228.80 690.68,229.57 691.01,229.60 691.35,229.56 691.68,228.67 692.02,228.22 692.36,227.82 692.69,227.34 693.02,227.66 693.36,227.35 693.70,227.93 694.03,227.69 694.37,227.65 694.70,226.91 695.03,226.90 695.37,226.75 695.71,226.01 696.04,225.15 696.38,225.49 696.71,226.69 697.04,226.22 697.38,224.59 697.72,225.30 698.05,225.19 698.38,225.39 698.72,224.42 699.05,223.79 699.39,223.58 699.73,224.54 700.06,223.87 700.39,222.23 700.73,221.26 701.07,220.07 701.40,221.83 701.74,223.27 702.07,223.90 702.40,223.99 702.74,223.32 703.08,221.76 703.41,221.59 703.75,223.18 704.08,223.44 704.41,226.48 704.75,224.72 705.09,226.18 705.42,226.01 705.75,226.66 706.09,224.69 706.42,223.33 706.76,222.27 707.10,221.28 707.43,218.74 707.76,220.57 708.10,222.11 708.43,221.05 708.77,221.24 709.11,221.86 709.44,222.84 709.77,222.82 710.11,222.55 710.45,223.04 710.78,224.23 711.12,227.00 711.45,227.82 711.78,227.42 712.12,227.98 712.46,227.73 712.79,227.81 713.12,228.64 713.46,228.24 713.79,227.33 714.13,227.77 714.47,228.35 714.80,227.60 715.13,227.63 715.47,227.79 715.80,227.59 716.14,228.24 716.48,227.07 716.81,226.35 717.14,226.92 717.48,227.14 717.82,226.21 718.15,226.86 718.49,227.61 718.82,227.61 719.15,227.79 719.49,227.19 719.83,227.82 720.16,226.92 720.50,226.76 720.83,226.51 721.16,226.81 721.50,227.17 721.84,226.97 722.17,226.81 722.50,227.04 722.84,228.09 723.17,226.61 723.51,226.44 723.85,225.95 724.18,225.74 724.51,225.70 724.85,226.04 725.18,227.12 725.52,227.02 725.86,227.03 726.19,226.32 726.52,226.12 726.86,227.65 727.20,226.32 727.53,224.78 727.87,224.01 728.20,225.98 728.53,227.68 728.87,228.04 729.21,228.12 729.54,228.76 729.88,228.50 730.21,227.68 730.54,229.32 730.88,228.12 731.22,227.94 731.55,226.52 731.88,226.95 732.22,226.43 732.55,227.71 732.89,226.81 733.23,227.31 733.56,226.66 733.89,225.36 734.23,224.44 734.57,224.75 734.90,225.60 735.24,225.28 735.57,225.23 735.90,225.15 736.24,225.11 736.58,225.89 736.91,227.52 737.25,228.02 737.58,228.40 737.91,229.56 738.25,228.78 738.59,229.32 738.92,228.52 739.25,227.79 739.59,228.45 739.92,229.54 740.26,229.24 740.60,228.39 740.93,228.99 741.26,229.76 741.60,229.37 741.93,229.81 742.27,229.47 742.61,229.26 742.94,229.21 743.27,229.34 743.61,229.31 743.95,229.46 744.28,229.25 744.62,229.14 744.95,228.98 745.28,228.88 745.62,228.87 745.96,228.82 746.29,228.85 746.62,228.78 746.96,228.74 747.29,228.67 747.63,228.40 747.97,228.58 748.30,228.55 748.63,228.47 748.97,227.91 749.30,227.17 749.64,227.52 749.98,227.46 750.31,228.05 750.64,227.91 750.98,228.45 751.32,228.58 751.65,227.15 751.99,227.14 752.32,227.58 752.65,227.17 752.99,227.42 753.33,229.12 753.66,229.21 754.00,228.82 754.33,229.45 754.66,229.62 755.00,230.19 755.00,229.86"/>
<line x1="783" y1="82" x2="809" y2="82" stroke="#dc2626" stroke-width="3"/>
<text x="817" y="86" font-family="Arial" font-size="13" fill="#111827">Avellaneda Stoikov</text>
<polyline fill="none" stroke="#7c3aed" stroke-width="2" points=""/>
<line x1="783" y1="106" x2="809" y2="106" stroke="#7c3aed" stroke-width="3"/>
<text x="817" y="110" font-family="Arial" font-size="13" fill="#111827">Calibrated Avellaneda Stoikov</text>
<text x="420.0" y="518" text-anchor="middle" font-family="Arial" font-size="14" fill="#111827">Event index</text>
<text x="22" y="256.0" text-anchor="middle" transform="rotate(-90 22 256.0)" font-family="Arial" font-size="14" fill="#111827">Net PnL after fees</text>
</svg>
