<svg xmlns="http://www.w3.org/2000/svg" width="940" height="540" viewBox="0 0 940 540">
<rect width="100%" height="100%" fill="#ffffff"/>
<text x="470.0" y="26" text-anchor="middle" font-family="Arial" font-size="18" fill="#111827">Low Volatility Inventory</text>
<line x1="85" y1="470" x2="755" y2="470" stroke="#111827" stroke-width="1"/>
<line x1="85" y1="42" x2="85" y2="470" stroke="#111827" stroke-width="1"/>
<line x1="85.00" y1="42" x2="85.00" y2="470" stroke="#e5e7eb" stroke-width="1"/>
<text x="85.00" y="494" text-anchor="middle" font-family="Arial" font-size="12" fill="#374151">0</text>
<line x1="252.50" y1="42" x2="252.50" y2="470" stroke="#e5e7eb" stroke-width="1"/>
<text x="252.50" y="494" text-anchor="middle" font-family="Arial" font-size="12" fill="#374151">50000</text>
<line x1="420.00" y1="42" x2="420.00" y2="470" stroke="#e5e7eb" stroke-width="1"/>
<text x="420.00" y="494" text-anchor="middle" font-family="Arial" font-size="12" fill="#374151">100000</text>
<line x1="587.50" y1="42" x2="587.50" y2="470" stroke="#e5e7eb" stroke-width="1"/>
<text x="587.50" y="494" text-anchor="middle" font-family="Arial" font-size="12" fill="#374151">150000</text>
<line x1="755.00" y1="42" x2="755.00" y2="470" stroke="#e5e7eb" stroke-width="1"/>
<text x="755.00" y="494" text-anchor="middle" font-family="Arial" font-size="12" fill="#374151">200000</text>
<line x1="85" y1="470.00" x2="755" y2="470.00" stroke="#e5e7eb" stroke-width="1"/>
<text x="73" y="474.00" text-anchor="end" font-family="Arial" font-size="12" fill="#374151">-1996</text>
<line x1="85" y1="363.00" x2="755" y2="363.00" stroke="#e5e7eb" stroke-width="1"/>
<text x="73" y="367.00" text-anchor="end" font-family="Arial" font-size="12" fill="#374151">3910</text>
<line x1="85" y1="256.00" x2="755" y2="256.00" stroke="#e5e7eb" stroke-width="1"/>
<text x="73" y="260.00" text-anchor="end" font-family="Arial" font-size="12" fill="#374151">9816</text>
<line x1="85" y1="149.00" x2="755" y2="149.00" stroke="#e5e7eb" stroke-width="1"/>
<text x="73" y="153.00" text-anchor="end" font-family="Arial" font-size="12" fill="#374151">15721</text>
<line x1="85" y1="42.00" x2="755" y2="42.00" stroke="#e5e7eb" stroke-width="1"/>
<text x="73" y="46.00" text-anchor="end" font-family="Arial" font-size="12" fill="#374151">21627</text>
<polyline fill="none" stroke="#2563eb" stroke-width="2" points="85.00,433.83 85.33,433.96 85.67,433.58 86.00,433.94 86.34,434.56 86.67,434.09 87.01,433.82 87.34,433.91 87.68,433.54 88.02,433.98 88.35,433.87 88.69,434.23 89.02,434.99 89.36,435.36 89.69,435.54 90.03,434.99 90.36,435.10 90.69,436.12 91.03,436.30 91.36,437.20 91.70,437.02 92.03,437.57 92.37,438.11 92.70,437.75 93.04,437.96 93.38,438.15 93.71,438.38 94.05,438.92 94.38,438.87 94.72,438.53 95.05,438.11 95.39,438.36 95.72,437.64 96.06,437.82 96.39,438.27 96.72,438.82 97.06,438.85 97.39,439.38 97.73,439.54 98.06,439.20 98.40,438.63 98.73,438.63 99.07,438.76 99.41,438.94 99.74,439.16 100.08,438.80 100.41,439.38 100.75,438.83 101.08,438.78 101.41,438.42 101.75,438.63 102.09,439.18 102.42,439.67 102.75,439.83 103.09,439.72 103.42,439.90 103.76,439.99 104.09,439.88 104.43,439.88 104.77,440.25 105.10,440.48 105.44,440.25 105.77,439.74 106.11,439.92 106.44,439.74 106.78,439.78 107.11,439.41 107.44,439.96 107.78,439.00 108.11,438.27 108.45,436.82 108.78,435.37 109.12,435.01 109.45,435.01 109.79,435.19 110.12,435.86 110.46,435.70 110.80,435.52 111.13,435.79 111.47,435.43 111.80,435.97 112.14,435.79 112.47,436.33 112.81,436.15 113.14,436.39 113.47,436.64 113.81,436.46 114.14,436.28 114.48,435.94 114.81,435.94 115.15,436.84 115.48,436.48 115.82,436.19 116.16,436.12 116.49,435.59 116.83,435.37 117.16,435.07 117.50,434.56 117.83,433.47 118.16,432.02 118.50,431.12 118.84,429.49 119.17,428.22 119.50,426.99 119.84,426.44 120.17,426.44 120.51,425.72 120.84,425.77 121.18,425.70 121.52,425.72 121.85,425.72 122.19,425.83 122.52,426.19 122.85,426.08 123.19,426.08 123.53,425.90 123.86,425.17 124.19,424.63 124.53,424.88 124.87,425.25 125.20,425.41 125.53,425.59 125.87,426.30 126.20,425.50 126.54,426.04 126.88,425.84 127.21,425.79 127.55,425.08 127.88,425.37 128.22,425.43 128.55,425.63 128.88,425.81 129.22,425.81 129.56,425.26 129.89,424.81 130.22,424.27 130.56,423.91 130.90,423.72 131.23,423.36 131.56,423.51 131.90,423.34 132.24,422.62 132.57,423.05 132.91,423.23 133.24,423.23 133.57,423.87 133.91,423.56 134.25,423.92 134.58,423.74 134.91,423.22 135.25,423.22 135.59,423.25 135.92,423.25 136.25,423.67 136.59,423.31 136.93,423.20 137.26,423.22 137.59,422.80 137.93,422.46 138.26,422.42 138.60,421.51 138.94,421.35 139.27,421.28 139.60,421.01 139.94,420.72 140.28,420.10 140.61,420.10 140.94,419.74 141.28,419.63 141.62,419.85 141.95,419.99 142.28,420.44 142.62,420.44 142.95,419.54 143.29,418.65 143.62,417.36 143.96,416.26 144.30,414.81 144.63,413.90 144.97,413.13 145.30,412.94 145.63,413.65 145.97,413.94 146.31,414.16 146.64,413.94 146.97,413.94 147.31,414.85 147.65,415.21 147.98,415.15 148.31,415.52 148.65,416.42 148.99,415.53 149.32,414.09 149.66,413.16 149.99,412.07 150.32,410.99 150.66,409.72 151.00,409.57 151.33,409.94 151.67,408.31 152.00,406.93 152.33,405.84 152.67,405.66 153.00,404.94 153.34,405.12 153.68,405.30 154.01,405.30 154.34,404.79 154.68,404.86 155.01,405.41 155.35,405.04 155.69,405.23 156.02,405.41 156.36,404.32 156.69,404.14 157.03,403.60 157.36,403.18 157.69,403.54 158.03,403.89 158.37,403.18 158.70,403.00 159.03,403.11 159.37,403.07 159.70,403.25 160.04,402.53 160.38,402.64 160.71,402.87 161.05,401.62 161.38,400.35 161.72,399.83 162.05,400.03 162.38,400.52 162.72,400.52 163.06,400.70 163.39,400.06 163.72,398.79 164.06,397.53 164.39,396.84 164.73,396.58 165.06,397.13 165.40,397.58 165.74,398.32 166.07,398.43 166.41,398.43 166.74,398.11 167.07,397.74 167.41,397.56 167.75,398.29 168.08,398.29 168.42,398.27 168.75,398.27 169.08,399.36 169.42,399.17 169.75,398.81 170.09,399.17 170.43,398.65 170.76,398.96 171.09,398.94 171.43,399.27 171.76,399.27 172.10,400.15 172.44,399.84 172.77,400.28 173.11,400.26 173.44,400.26 173.78,400.46 174.11,399.74 174.44,399.30 174.78,399.70 175.12,399.52 175.45,399.66 175.78,399.81 176.12,399.99 176.45,399.72 176.79,400.62 177.12,400.64 177.46,401.00 177.80,401.20 178.13,401.38 178.47,400.91 178.80,401.02 179.13,401.38 179.47,401.75 179.81,400.66 180.14,399.21 180.47,397.76 180.81,396.49 181.14,394.94 181.48,393.92 181.81,392.76 182.15,391.40 182.49,389.66 182.82,388.47 183.16,388.52 183.49,387.25 183.82,385.80 184.16,384.86 184.50,383.48 184.83,382.14 185.17,380.51 185.50,378.86 185.83,377.23 186.17,375.51 186.50,374.43 186.84,373.34 187.18,372.56 187.51,371.29 187.84,370.39 188.18,369.30 188.51,368.23 188.85,366.85 189.19,365.77 189.52,364.37 189.86,363.14 190.19,361.85 190.53,360.49 190.86,358.86 191.19,357.41 191.53,356.15 191.87,354.70 192.20,353.25 192.53,352.34 192.87,351.62 193.20,350.53 193.54,348.90 193.88,347.29 194.21,346.14 194.55,345.06 194.88,344.10 195.22,342.65 195.55,341.20 195.88,340.15 196.22,339.17 196.56,337.54 196.89,336.99 197.22,335.51 197.56,334.28 197.89,332.83 198.23,331.56 198.56,329.93 198.90,329.02 199.24,328.12 199.57,327.39 199.91,326.20 200.24,325.29 200.57,323.71 200.91,322.45 201.25,320.82 201.58,319.55 201.92,317.97 202.25,316.38 202.58,315.51 202.92,314.24 203.25,312.97 203.59,311.52 203.93,310.54 204.26,309.46 204.59,308.01 204.93,306.38 205.26,305.11 205.60,303.84 205.94,303.11 206.27,301.48 206.61,300.40 206.94,298.77 207.28,299.13 207.61,298.62 207.94,298.98 208.28,298.80 208.62,298.66 208.95,299.38 209.28,299.93 209.62,299.56 209.95,299.89 210.29,300.07 210.62,300.07 210.96,300.80 211.30,301.16 211.63,301.36 211.97,301.72 212.30,302.99 212.63,303.17 212.97,302.81 213.31,303.10 213.64,303.73 213.97,303.64 214.31,304.18 214.65,304.91 214.98,306.56 215.31,306.74 215.65,306.61 215.99,307.08 216.32,307.63 216.66,307.99 216.99,308.53 217.32,308.08 217.66,307.70 218.00,307.55 218.33,307.19 218.66,307.14 219.00,307.50 219.34,307.63 219.67,307.66 220.00,307.43 220.34,307.43 220.68,307.12 221.01,307.46 221.34,306.92 221.68,306.58 222.01,306.76 222.35,305.87 222.69,305.87 223.02,306.05 223.35,306.61 223.69,306.45 224.03,307.30 224.36,306.63 224.69,306.27 225.03,306.81 225.37,307.17 225.70,306.81 226.03,306.12 226.37,306.27 226.71,307.32 227.04,307.14 227.38,307.17 227.71,307.23 228.04,305.60 228.38,304.22 228.72,303.50 229.05,302.41 229.38,302.25 229.72,302.25 230.06,302.61 230.39,302.97 230.72,302.72 231.06,302.35 231.40,302.75 231.73,302.57 232.06,301.94 232.40,302.12 232.74,302.17 233.07,301.96 233.41,302.14 233.74,301.96 234.07,301.34 234.41,301.68 234.75,300.83 235.08,300.11 235.41,299.18 235.75,298.28 236.09,297.37 236.42,297.37 236.75,296.48 237.09,295.03 237.43,293.98 237.76,292.72 238.09,292.72 238.43,291.72 238.76,290.43 239.10,289.53 239.44,288.35 239.77,287.19 240.10,286.83 240.44,285.74 240.78,284.65 241.11,283.57 241.44,283.20 241.78,281.86 242.12,280.49 242.45,279.78 242.78,278.73 243.12,279.45 243.46,278.64 243.79,278.64 244.12,278.86 244.46,278.04 244.79,276.95 245.13,276.92 245.47,276.93 245.80,276.75 246.13,277.37 246.47,277.35 246.81,277.53 247.14,277.71 247.47,277.71 247.81,277.90 248.15,277.39 248.48,277.61 248.81,277.61 249.15,276.88 249.49,276.57 249.82,275.85 250.16,275.85 250.49,275.85 250.82,276.46 251.16,276.46 251.50,276.14 251.83,275.36 252.16,274.82 252.50,273.55 252.84,272.42 253.17,271.34 253.50,269.43 253.84,268.44 254.18,267.97 254.51,266.97 254.84,265.56 255.18,264.29 255.51,262.84 255.85,261.93 256.19,260.94 256.52,259.96 256.86,258.40 257.19,256.77 257.52,255.50 257.86,253.91 258.19,252.46 258.53,250.83 258.87,249.92 259.20,248.29 259.53,247.20 259.87,245.65 260.21,244.02 260.54,242.77 260.88,241.32 261.21,240.23 261.54,239.45 261.88,238.36 262.22,236.91 262.55,235.64 262.88,234.01 263.22,232.93 263.56,231.84 263.89,231.02 264.23,229.39 264.56,227.78 264.89,226.15 265.23,225.25 265.56,224.00 265.90,222.55 266.24,220.73 266.57,219.65 266.90,218.29 267.24,216.86 267.57,215.95 267.91,214.63 268.25,213.18 268.58,212.09 268.91,210.82 269.25,209.41 269.59,208.69 269.92,207.67 270.25,206.78 270.59,205.70 270.93,204.43 271.26,203.40 271.60,202.13 271.93,200.68 272.26,199.36 272.60,198.38 272.94,197.11 273.27,196.06 273.61,194.52 273.94,193.25 274.27,192.47 274.61,191.26 274.94,190.08 275.28,188.70 275.62,187.54 275.95,186.76 276.28,185.31 276.62,183.68 276.96,182.78 277.29,181.69 277.62,180.42 277.96,179.34 278.29,177.89 278.63,176.96 278.97,175.51 279.30,174.61 279.63,175.15 279.97,175.58 280.31,175.58 280.64,175.57 280.98,176.11 281.31,176.04 281.64,175.40 281.98,174.32 282.31,173.77 282.65,173.59 282.99,173.77 283.32,174.14 283.65,174.33 283.99,174.33 284.32,174.70 284.66,174.93 285.00,175.55 285.33,176.09 285.66,176.27 286.00,176.27 286.34,176.53 286.67,176.62 287.00,176.35 287.34,176.35 287.68,175.80 288.01,176.09 288.35,177.54 288.68,178.63 289.01,179.90 289.35,180.55 289.69,180.55 290.02,180.55 290.36,180.91 290.69,180.80 291.02,180.75 291.36,181.46 291.69,182.54 292.03,184.35 292.37,185.98 292.70,186.35 293.03,186.35 293.37,186.55 293.71,186.55 294.04,186.76 294.38,186.80 294.71,187.00 295.04,186.76 295.38,186.94 295.72,186.58 296.05,186.94 296.38,187.31 296.72,188.03 297.06,188.39 297.39,188.58 297.73,188.77 298.06,188.05 298.39,188.59 298.73,189.14 299.06,189.41 299.40,189.41 299.74,188.83 300.07,189.72 300.40,189.19 300.74,188.47 301.07,188.03 301.41,188.39 301.75,187.49 302.08,187.11 302.41,187.33 302.75,187.69 303.09,187.69 303.42,187.62 303.75,187.09 304.09,187.09 304.43,186.98 304.76,187.04 305.10,186.67 305.43,186.49 305.76,186.13 306.10,187.40 306.44,188.58 306.77,189.66 307.11,190.93 307.44,192.38 307.77,193.83 308.11,194.99 308.44,196.26 308.78,197.53 309.12,198.97 309.45,199.05 309.78,199.05 310.12,199.43 310.46,200.70 310.79,201.96 311.12,203.14 311.46,204.59 311.79,205.68 312.13,206.58 312.47,208.03 312.80,209.12 313.13,210.21 313.47,211.71 313.81,212.56 314.14,213.47 314.48,215.10 314.81,216.55 315.14,217.82 315.48,219.45 315.81,220.53 316.15,221.80 316.49,223.38 316.82,224.72 317.15,225.46 317.49,226.86 317.82,228.05 318.16,229.83 318.50,230.92 318.83,232.18 319.16,233.62 319.50,234.54 319.84,235.23 320.17,234.68 320.50,235.05 320.84,235.23 321.18,235.41 321.51,234.72 321.85,234.87 322.18,234.68 322.51,234.27 322.85,234.63 323.19,234.45 323.52,234.18 323.86,234.18 324.19,233.56 324.52,233.56 324.86,232.11 325.19,230.59 325.53,228.78 325.87,227.69 326.20,226.42 326.53,224.79 326.87,223.34 327.21,221.89 327.54,220.75 327.88,219.12 328.21,217.49 328.54,216.04 328.88,214.95 329.22,213.87 329.55,212.96 329.88,212.06 330.22,212.24 330.56,211.71 330.89,212.20 331.23,212.20 331.56,212.54 331.89,212.54 332.23,212.18 332.56,211.82 332.90,210.86 333.24,210.32 333.57,209.77 333.90,209.27 334.24,208.98 334.57,208.79 334.91,208.43 335.25,208.67 335.58,207.11 335.91,205.86 336.25,204.59 336.59,203.87 336.92,202.05 337.25,200.79 337.59,199.52 337.93,198.79 338.26,197.71 338.60,196.98 338.93,196.08 339.26,194.97 339.60,193.92 339.94,192.65 340.27,191.20 340.61,190.22 340.94,188.96 341.27,187.51 341.61,185.69 341.94,184.61 342.28,183.34 342.62,181.71 342.95,180.62 343.29,179.35 343.62,178.45 343.95,177.36 344.29,176.45 344.62,175.31 344.96,173.86 345.30,172.41 345.63,171.33 345.96,169.88 346.30,168.88 346.63,167.25 346.97,165.98 347.31,164.90 347.64,163.45 347.98,162.18 348.31,160.91 348.64,159.30 348.98,158.03 349.31,157.18 349.65,155.37 349.99,154.28 350.32,153.01 350.65,151.69 350.99,150.60 351.32,149.15 351.66,147.63 352.00,146.18 352.33,145.06 352.67,143.50 353.00,142.59 353.33,141.16 353.67,139.80 354.00,138.39 354.34,136.76 354.68,135.51 355.01,134.06 355.35,132.25 355.68,130.98 356.01,129.35 356.35,127.97 356.69,126.34 357.02,125.62 357.36,124.02 357.69,122.57 358.02,121.30 358.36,120.20 358.69,118.93 359.03,118.03 359.37,116.76 359.70,115.62 360.04,114.76 360.37,113.41 360.70,112.32 361.04,111.03 361.38,109.84 361.71,108.39 362.05,107.48 362.38,106.03 362.71,105.31 363.05,103.86 363.38,102.41 363.72,101.34 364.06,99.71 364.39,98.80 364.73,97.61 365.06,96.18 365.39,95.23 365.73,94.07 366.06,92.53 366.40,91.81 366.74,90.72 367.07,89.45 367.40,88.19 367.74,87.42 368.07,86.28 368.41,85.20 368.75,83.93 369.08,82.66 369.42,81.57 369.75,79.94 370.08,78.53 370.42,77.15 370.75,75.68 371.09,74.78 371.43,73.15 371.76,71.52 372.10,71.52 372.43,71.52 372.76,71.52 373.10,71.52 373.44,71.52 373.77,71.52 374.11,71.52 374.44,71.52 374.77,71.52 375.11,71.52 375.44,71.52 375.78,71.52 376.12,71.52 376.45,71.52 376.79,71.52 377.12,71.52 377.45,71.52 377.79,71.52 378.12,71.52 378.46,71.52 378.80,71.52 379.13,71.52 379.46,71.52 379.80,71.52 380.13,71.52 380.47,71.52 380.81,71.52 381.14,71.52 381.48,71.52 381.81,71.52 382.14,71.52 382.48,71.52 382.81,71.52 383.15,71.52 383.49,71.52 383.82,71.52 384.15,71.52 384.49,71.52 384.82,71.52 385.16,71.52 385.50,71.52 385.83,71.52 386.17,71.52 386.50,71.52 386.83,71.52 387.17,71.52 387.50,71.52 387.84,71.52 388.18,71.52 388.51,71.52 388.85,71.52 389.18,71.52 389.51,71.52 389.85,71.52 390.19,71.52 390.52,71.52 390.86,71.52 391.19,71.52 391.52,71.52 391.86,71.52 392.19,71.52 392.53,71.52 392.87,71.52 393.20,71.52 393.54,71.52 393.87,71.52 394.20,71.52 394.54,71.52 394.88,71.52 395.21,71.52 395.55,71.52 395.88,71.52 396.21,71.52 396.55,71.52 396.88,71.52 397.22,71.52 397.56,71.52 397.89,71.52 398.23,71.52 398.56,71.52 398.89,71.52 399.23,71.52 399.56,71.52 399.90,71.52 400.24,71.52 400.57,71.52 400.90,71.52 401.24,71.52 401.57,71.52 401.91,71.52 402.25,71.52 402.58,71.52 402.92,71.52 403.25,71.52 403.58,71.52 403.92,71.52 404.25,71.52 404.59,71.52 404.93,71.52 405.26,71.52 405.60,71.52 405.93,71.52 406.26,71.52 406.60,71.52 406.94,71.52 407.27,71.52 407.61,71.52 407.94,71.52 408.27,71.52 408.61,71.52 408.94,71.52 409.28,71.52 409.62,71.52 409.95,71.52 410.29,71.52 410.62,71.52 410.95,71.52 411.29,71.52 411.62,71.52 411.96,71.52 412.30,71.52 412.63,71.52 412.96,71.52 413.30,71.52 413.63,71.52 413.97,71.52 414.31,71.52 414.64,71.52 414.98,71.52 415.31,71.52 415.64,71.52 415.98,71.52 416.31,71.52 416.65,71.52 416.99,71.52 417.32,71.52 417.65,71.52 417.99,71.52 418.32,71.52 418.66,71.52 419.00,71.52 419.33,71.52 419.67,71.52 420.00,71.52 420.33,71.52 420.67,71.52 421.00,71.52 421.34,71.52 421.68,71.52 422.01,71.52 422.35,71.52 422.68,71.52 423.01,71.52 423.35,71.52 423.69,71.52 424.02,71.52 424.36,71.52 424.69,71.52 425.02,71.52 425.36,71.52 425.69,71.52 426.03,71.52 426.37,71.52 426.70,71.52 427.04,71.52 427.37,71.52 427.70,71.52 428.04,71.52 428.38,71.52 428.71,71.52 429.05,71.52 429.38,71.52 429.71,71.52 430.05,71.52 430.38,71.52 430.72,71.52 431.06,71.52 431.39,71.52 431.73,71.52 432.06,71.52 432.39,71.52 432.73,71.52 433.06,71.52 433.40,71.52 433.74,71.52 434.07,71.52 434.40,71.52 434.74,71.52 435.07,71.52 435.41,71.52 435.75,71.52 436.08,71.52 436.42,71.52 436.75,71.52 437.08,71.52 437.42,71.52 437.75,71.52 438.09,71.52 438.43,71.52 438.76,71.52 439.10,71.52 439.43,71.52 439.76,71.52 440.10,71.52 440.44,71.52 440.77,71.52 441.11,71.52 441.44,71.52 441.77,71.52 442.11,71.52 442.44,71.52 442.78,71.70 443.12,71.99 443.45,72.55 443.79,73.09 444.12,73.89 444.45,74.98 444.79,75.45 445.12,76.35 445.46,77.51 445.80,78.95 446.13,79.47 446.46,80.90 446.80,81.68 447.13,83.13 447.47,83.13 447.81,83.87 448.14,84.96 448.48,85.25 448.81,85.79 449.14,85.61 449.48,85.79 449.81,85.79 450.15,86.28 450.49,87.19 450.82,87.55 451.15,88.64 451.49,87.91 451.82,88.38 452.16,89.29 452.50,90.02 452.83,90.56 453.17,90.38 453.50,90.65 453.83,90.83 454.17,90.90 454.50,91.27 454.84,92.14 455.18,93.58 455.51,94.54 455.85,94.91 456.18,95.89 456.51,95.89 456.85,96.08 457.19,96.18 457.52,96.90 457.86,97.84 458.19,99.29 458.52,100.74 458.86,101.32 459.19,102.41 459.53,103.59 459.87,104.62 460.20,104.94 460.54,105.65 460.87,106.01 461.20,106.70 461.54,107.26 461.88,107.17 462.21,108.08 462.55,108.62 462.88,108.91 463.21,108.82 463.55,108.71 463.88,109.44 464.22,110.52 464.56,111.52 464.89,112.23 465.23,112.23 465.56,112.59 465.89,111.50 466.23,110.62 466.56,109.56 466.90,110.45 467.24,109.18 467.57,108.46 467.90,107.19 468.24,106.81 468.57,106.86 468.91,107.95 469.25,108.53 469.58,108.50 469.92,107.48 470.25,106.21 470.58,105.34 470.92,103.71 471.25,103.53 471.59,102.44 471.93,101.36 472.26,100.45 472.60,99.36 472.93,97.91 473.26,97.01 473.60,95.74 473.94,94.73 474.27,93.46 474.61,92.01 474.94,90.56 475.27,89.29 475.61,88.38 475.94,87.24 476.28,85.79 476.62,84.34 476.95,83.08 477.29,81.99 477.62,80.85 477.95,80.12 478.29,79.22 478.62,80.30 478.96,79.49 479.30,78.76 479.63,77.50 479.96,76.41 480.30,74.96 480.63,73.51 480.97,72.42 481.31,71.61 481.64,71.61 481.98,71.61 482.31,71.61 482.64,71.61 482.98,71.61 483.31,71.61 483.65,71.61 483.99,71.73 484.32,71.92 484.65,72.82 484.99,73.84 485.32,74.74 485.66,74.85 486.00,75.54 486.33,75.72 486.67,73.95 487.00,72.68 487.33,72.50 487.67,72.31 488.00,71.77 488.34,71.77 488.68,71.77 489.01,71.59 489.35,71.59 489.68,71.59 490.01,71.59 490.35,71.59 490.69,71.83 491.02,73.62 491.36,74.31 491.69,74.69 492.02,75.21 492.36,75.94 492.69,77.21 493.03,78.51 493.37,77.97 493.70,77.24 494.04,75.97 494.37,75.56 494.70,74.83 495.04,73.93 495.38,73.53 495.71,72.62 496.05,71.72 496.38,71.54 496.71,71.54 497.05,71.54 497.38,71.54 497.72,71.54 498.06,71.54 498.39,71.54 498.73,71.54 499.06,71.54 499.39,71.54 499.73,71.54 500.06,71.54 500.40,71.54 500.74,71.54 501.07,71.54 501.40,71.54 501.74,71.54 502.07,71.54 502.41,71.54 502.75,71.54 503.08,71.54 503.42,71.54 503.75,71.54 504.08,71.54 504.42,71.54 504.75,71.54 505.09,71.54 505.43,71.54 505.76,71.54 506.10,71.54 506.43,71.54 506.76,71.54 507.10,71.54 507.44,71.54 507.77,71.54 508.11,71.54 508.44,71.54 508.77,71.54 509.11,71.54 509.44,71.54 509.78,71.54 510.12,71.54 510.45,71.54 510.79,71.54 511.12,71.54 511.45,71.54 511.79,71.54 512.12,71.54 512.46,71.54 512.80,71.54 513.13,71.54 513.46,71.54 513.80,71.54 514.13,71.54 514.47,71.54 514.81,71.54 515.14,71.54 515.48,71.54 515.81,71.54 516.14,71.54 516.48,71.54 516.82,71.54 517.15,71.54 517.49,71.54 517.82,71.54 518.15,71.54 518.49,71.54 518.83,71.54 519.16,71.54 519.50,71.54 519.83,71.54 520.16,71.54 520.50,71.54 520.84,71.54 521.17,71.54 521.50,71.54 521.84,71.54 522.17,71.54 522.51,71.54 522.85,71.54 523.18,71.54 523.51,71.54 523.85,71.54 524.18,71.54 524.52,71.54 524.86,71.54 525.19,71.54 525.52,71.54 525.86,71.54 526.19,71.54 526.53,71.54 526.87,71.54 527.20,71.54 527.54,71.54 527.87,71.54 528.20,71.54 528.54,71.54 528.88,71.54 529.21,71.54 529.55,71.54 529.88,71.54 530.21,71.54 530.55,71.54 530.88,71.54 531.22,71.54 531.56,71.54 531.89,71.54 532.23,71.54 532.56,71.54 532.89,71.54 533.23,71.54 533.57,71.54 533.90,71.54 534.24,71.54 534.57,71.54 534.90,71.54 535.24,71.54 535.58,71.54 535.91,71.54 536.25,71.54 536.58,71.54 536.91,71.54 537.25,71.54 537.59,71.54 537.92,71.54 538.25,71.54 538.59,71.54 538.92,71.54 539.26,71.54 539.60,71.54 539.93,71.54 540.26,71.54 540.60,71.54 540.93,71.54 541.27,71.54 541.61,71.54 541.94,71.54 542.27,71.54 542.61,71.54 542.94,71.54 543.28,71.54 543.62,71.54 543.95,71.54 544.29,71.54 544.62,71.54 544.95,71.54 545.29,71.54 545.62,71.54 545.96,71.54 546.30,71.54 546.63,71.54 546.96,71.54 547.30,71.54 547.63,71.54 547.97,71.54 548.31,71.54 548.64,71.54 548.98,71.54 549.31,71.54 549.64,71.54 549.98,71.54 550.32,71.54 550.65,71.54 550.99,71.54 551.32,71.54 551.65,71.54 551.99,71.54 552.33,71.54 552.66,71.54 553.00,71.54 553.33,71.54 553.66,71.54 554.00,71.54 554.34,71.54 554.67,71.54 555.00,71.54 555.34,71.54 555.67,71.54 556.01,71.54 556.35,71.54 556.68,71.54 557.01,71.54 557.35,71.54 557.68,71.54 558.02,71.54 558.36,71.54 558.69,71.54 559.02,71.54 559.36,71.54 559.69,71.54 560.03,71.54 560.37,71.54 560.70,71.54 561.04,71.54 561.37,71.54 561.70,71.54 562.04,71.54 562.38,71.54 562.71,71.54 563.05,71.54 563.38,71.54 563.71,71.54 564.05,71.54 564.38,71.54 564.72,71.54 565.06,71.54 565.39,71.54 565.73,71.54 566.06,71.54 566.39,71.54 566.73,71.54 567.07,71.54 567.40,71.54 567.74,71.54 568.07,71.54 568.40,71.54 568.74,71.54 569.08,71.54 569.41,71.54 569.75,71.54 570.08,71.54 570.41,71.54 570.75,71.54 571.09,71.54 571.42,71.54 571.75,71.54 572.09,71.54 572.42,71.54 572.76,71.54 573.10,71.54 573.43,71.54 573.76,71.54 574.10,71.54 574.43,71.54 574.77,71.54 575.11,71.54 575.44,71.54 575.77,71.54 576.11,71.54 576.44,71.54 576.78,71.54 577.12,71.54 577.45,71.54 577.79,71.54 578.12,71.54 578.45,71.54 578.79,71.90 579.12,71.54 579.46,71.54 579.80,71.54 580.13,71.54 580.46,71.54 580.80,71.54 581.13,71.54 581.47,71.54 581.81,71.54 582.14,71.54 582.48,71.54 582.81,71.54 583.14,71.54 583.48,71.54 583.82,71.54 584.15,71.54 584.49,71.54 584.82,71.54 585.15,71.54 585.49,71.54 585.83,71.54 586.16,71.54 586.50,71.54 586.83,71.54 587.16,71.61 587.50,71.83 587.84,71.83 588.17,71.83 588.50,72.31 588.84,73.46 589.17,72.62 589.51,71.93 589.85,71.57 590.18,71.75 590.51,71.97 590.85,73.02 591.18,72.66 591.52,72.66 591.86,72.53 592.19,73.11 592.52,72.57 592.86,72.02 593.19,72.91 593.53,72.55 593.87,72.37 594.20,73.44 594.54,74.47 594.87,75.20 595.20,76.10 595.54,77.73 595.88,78.33 596.21,79.82 596.55,81.63 596.88,82.57 597.22,83.84 597.55,85.56 597.88,87.01 598.22,88.64 598.55,90.27 598.89,91.59 599.23,91.50 599.56,92.50 599.89,93.48 600.23,93.48 600.57,94.56 600.90,96.01 601.24,97.46 601.57,98.66 601.90,99.38 602.24,100.65 602.58,101.92 602.91,103.55 603.25,103.91 603.58,104.76 603.91,105.71 604.25,106.97 604.59,107.34 604.92,107.72 605.25,108.60 605.59,108.80 605.92,108.80 606.26,109.73 606.60,110.45 606.93,110.13 607.26,110.13 607.60,110.31 607.93,110.34 608.27,111.19 608.61,111.56 608.94,112.10 609.27,112.72 609.61,113.44 609.95,113.80 610.28,115.25 610.62,115.43 610.95,115.62 611.28,115.51 611.62,116.05 611.96,116.59 612.29,116.96 612.62,116.96 612.96,117.21 613.29,116.85 613.63,116.59 613.97,116.59 614.30,116.74 614.63,117.10 614.97,117.28 615.30,118.17 615.64,118.28 615.98,118.15 616.31,118.73 616.64,119.22 616.98,119.62 617.32,119.75 617.65,119.86 617.99,120.22 618.32,120.56 618.65,121.29 618.99,120.58 619.33,121.16 619.66,121.34 620.00,121.23 620.33,121.43 620.66,120.89 621.00,121.63 621.34,121.58 621.67,121.97 622.00,121.79 622.34,122.16 622.67,122.34 623.01,121.97 623.35,122.66 623.68,122.26 624.01,122.36 624.35,122.63 624.68,123.10 625.02,123.33 625.36,123.88 625.69,124.04 626.02,123.90 626.36,124.26 626.70,124.08 627.03,124.20 627.37,124.96 627.70,125.51 628.03,126.41 628.37,127.19 628.71,127.56 629.04,126.99 629.38,127.90 629.71,127.72 630.04,128.59 630.38,129.17 630.72,129.60 631.05,129.49 631.38,129.31 631.72,128.77 632.05,129.31 632.39,129.62 632.73,130.35 633.06,129.93 633.39,129.87 633.73,129.87 634.07,130.33 634.40,131.02 634.74,131.02 635.07,131.09 635.40,131.45 635.74,132.34 636.08,132.34 636.41,131.69 636.75,131.61 637.08,132.30 637.41,132.57 637.75,132.75 638.09,132.46 638.42,132.50 638.75,132.45 639.09,133.43 639.42,134.69 639.76,136.32 640.10,137.41 640.43,139.10 640.76,139.57 641.10,140.47 641.43,141.74 641.77,142.77 642.11,144.59 642.44,145.49 642.77,146.40 643.11,147.90 643.45,149.71 643.78,150.98 644.12,152.34 644.45,153.70 644.78,154.79 645.12,156.11 645.46,157.92 645.79,159.19 646.12,160.67 646.46,162.12 646.79,163.03 647.13,164.48 647.47,165.77 647.80,167.21 648.13,168.12 648.47,169.06 648.80,170.33 649.14,171.42 649.48,172.60 649.81,173.77 650.14,175.08 650.48,175.69 650.82,177.12 651.15,178.21 651.49,179.48 651.82,180.93 652.15,182.16 652.49,183.97 652.83,185.60 653.16,186.33 653.50,187.90 653.83,189.17 654.16,190.62 654.50,190.44 654.84,191.37 655.17,191.18 655.50,192.27 655.84,192.09 656.17,191.73 656.51,191.42 656.85,191.49 657.18,191.31 657.51,191.51 657.85,191.89 658.18,192.07 658.52,191.53 658.86,191.53 659.19,191.89 659.52,191.89 659.86,192.04 660.20,191.40 660.53,191.17 660.87,190.62 661.20,190.86 661.53,190.13 661.87,190.31 662.21,189.41 662.54,189.41 662.88,189.05 663.21,188.87 663.54,187.96 663.88,187.05 664.22,186.87 664.55,186.33 664.88,185.24 665.22,183.65 665.55,182.13 665.89,180.86 666.23,179.41 666.56,178.14 666.89,176.69 667.23,175.24 667.57,173.43 667.90,172.02 668.24,170.39 668.57,169.12 668.90,168.39 669.24,167.12 669.58,165.73 669.91,164.10 670.25,163.01 670.58,162.20 670.91,162.20 671.25,162.65 671.59,162.11 671.92,160.84 672.25,159.57 672.59,157.94 672.92,156.67 673.26,155.58 673.60,154.31 673.93,153.59 674.26,152.14 674.60,151.92 674.93,151.74 675.27,151.22 675.61,150.58 675.94,149.71 676.27,149.71 676.61,149.71 676.95,149.71 677.28,150.84 677.62,151.18 677.95,150.84 678.28,149.68 678.62,148.95 678.96,147.32 679.29,146.22 679.62,145.13 679.96,144.22 680.29,144.59 680.63,144.28 680.97,144.64 681.30,144.42 681.63,144.42 681.97,144.73 682.30,144.59 682.64,144.40 682.98,144.10 683.31,144.28 683.64,144.26 683.98,143.21 684.32,144.11 684.65,145.15 684.99,145.15 685.32,145.69 685.65,145.51 685.99,145.33 686.33,144.97 686.66,144.55 687.00,144.93 687.33,144.93 687.66,144.93 688.00,144.21 688.34,143.66 688.67,144.39 689.00,144.68 689.34,144.64 689.67,144.60 690.01,145.15 690.35,145.00 690.68,145.02 691.01,144.98 691.35,145.17 691.68,145.35 692.02,144.98 692.36,145.09 692.69,144.37 693.02,145.00 693.36,145.29 693.70,145.60 694.03,145.35 694.37,145.94 694.70,145.40 695.03,145.94 695.37,145.85 695.71,146.04 696.04,146.40 696.38,145.85 696.71,145.13 697.04,145.64 697.38,145.24 697.72,146.14 698.05,147.38 698.38,148.54 698.72,148.88 699.05,149.60 699.39,149.48 699.73,149.22 700.06,149.62 700.39,149.62 700.73,150.71 701.07,152.16 701.40,153.79 701.74,155.60 702.07,157.05 702.40,157.97 702.74,159.22 703.08,160.31 703.41,160.67 703.75,161.40 704.08,161.58 704.41,162.12 704.75,162.30 705.09,161.58 705.42,161.51 705.75,161.94 706.09,161.80 706.42,161.44 706.76,162.03 707.10,162.72 707.43,163.26 707.76,163.21 708.10,163.68 708.43,162.92 708.77,162.85 709.11,163.50 709.44,164.37 709.77,164.46 710.11,165.55 710.45,165.91 710.78,165.82 711.12,165.73 711.45,165.73 711.78,166.09 712.12,167.00 712.46,167.36 712.79,166.89 713.12,167.07 713.46,167.43 713.79,167.14 714.13,167.02 714.47,166.49 714.80,166.67 715.13,167.31 715.47,167.94 715.80,167.65 716.14,167.56 716.48,167.74 716.81,167.74 717.14,167.56 717.48,168.05 717.82,168.77 718.15,168.95 718.49,170.58 718.82,172.03 719.15,173.30 719.49,174.75 719.83,175.53 720.16,177.34 720.50,178.97 720.83,180.24 721.16,181.64 721.50,183.09 721.84,184.54 722.17,185.80 722.50,186.71 722.84,187.62 723.17,189.25 723.51,190.70 723.85,191.93 724.18,192.65 724.51,194.28 724.85,195.73 725.18,197.36 725.52,198.81 725.86,200.08 726.19,200.99 726.52,202.07 726.86,203.52 727.20,204.61 727.53,205.52 727.87,206.42 728.20,207.87 728.53,208.99 728.87,210.70 729.21,211.64 729.54,213.12 729.88,214.08 730.21,215.35 730.54,216.98 730.88,218.43 731.22,219.77 731.55,221.04 731.88,222.49 732.22,223.89 732.55,225.05 732.89,226.13 733.23,227.58 733.56,229.00 733.89,230.63 734.23,230.99 734.57,232.26 734.90,233.24 735.24,234.70 735.57,235.97 735.90,237.06 736.24,238.15 736.58,239.78 736.91,241.32 737.25,242.22 737.58,243.31 737.91,244.50 738.25,245.81 738.59,246.90 738.92,247.80 739.25,249.29 739.59,250.56 739.92,251.66 740.26,253.27 740.60,254.00 740.93,255.27 741.26,255.43 741.60,255.97 741.93,257.42 742.27,258.51 742.61,259.47 742.94,260.76 743.27,262.39 743.61,263.53 743.95,264.63 744.28,265.72 744.62,265.18 744.95,266.26 745.28,267.71 745.62,269.16 745.96,270.85 746.29,272.12 746.62,273.85 746.96,274.94 747.29,276.30 747.63,277.75 747.97,279.02 748.30,280.65 748.63,281.37 748.97,281.74 749.30,282.01 749.64,283.46 749.98,284.27 750.31,285.54 750.64,285.18 750.98,286.08 751.32,287.17 751.65,288.98 751.99,290.25 752.32,291.52 752.65,293.15 752.99,294.42 753.33,296.05 753.66,297.24 754.00,297.82 754.33,299.09 754.66,299.09 755.00,298.82 755.00,433.83"/>
<line x1="783" y1="58" x2="809" y2="58" stroke="#2563eb" stroke-width="3"/>
<text x="817" y="62" font-family="Arial" font-size="13" fill="#111827">Naive</text>
<polyline fill="none" stroke="#dc2626" stroke-width="2" points="85.00,433.83 85.33,433.96 85.67,433.58 86.00,433.94 86.34,434.56 86.67,434.09 87.01,433.82 87.34,433.91 87.68,433.54 88.02,433.98 88.35,433.87 88.69,434.23 89.02,434.99 89.36,435.36 89.69,435.54 90.03,434.99 90.36,435.10 90.69,436.12 91.03,436.30 91.36,437.20 91.70,437.02 92.03,437.57 92.37,438.11 92.70,437.75 93.04,437.96 93.38,438.15 93.71,438.38 94.05,438.92 94.38,438.87 94.72,438.53 95.05,438.11 95.39,438.36 95.72,437.64 96.06,437.82 96.39,438.27 96.72,438.82 97.06,438.85 97.39,439.38 97.73,439.54 98.06,439.20 98.40,438.63 98.73,438.63 99.07,438.76 99.41,438.94 99.74,439.16 100.08,438.80 100.41,439.38 100.75,438.83 101.08,438.78 101.41,438.42 101.75,438.63 102.09,439.18 102.42,439.67 102.75,439.83 103.09,439.72 103.42,439.90 103.76,439.99 104.09,439.88 104.43,439.88 104.77,440.25 105.10,440.48 105.44,440.25 105.77,439.74 106.11,439.92 106.44,439.74 106.78,439.78 107.11,439.41 107.44,439.96 107.78,439.18 108.11,438.63 108.45,437.37 108.78,435.92 109.12,435.74 109.45,435.92 109.79,436.10 110.12,436.77 110.46,436.61 110.80,436.42 111.13,436.70 111.47,436.33 111.80,436.88 112.14,436.70 112.47,437.24 112.81,437.06 113.14,437.29 113.47,437.55 113.81,437.37 114.14,437.19 114.48,436.84 114.81,436.84 115.15,437.75 115.48,437.38 115.82,437.09 116.16,437.02 116.49,436.50 116.83,436.28 117.16,435.97 117.50,435.46 117.83,434.38 118.16,432.93 118.50,432.02 118.84,430.39 119.17,429.12 119.50,427.89 119.84,427.35 120.17,427.35 120.51,426.62 120.84,426.68 121.18,426.60 121.52,426.62 121.85,426.62 122.19,426.73 122.52,427.09 122.85,426.99 123.19,426.99 123.53,426.80 123.86,426.08 124.19,425.54 124.53,425.79 124.87,426.15 125.20,426.31 125.53,426.50 125.87,427.20 126.20,426.41 126.54,426.95 126.88,426.75 127.21,426.70 127.55,425.99 127.88,426.28 128.22,426.33 128.55,426.53 128.88,426.71 129.22,426.71 129.56,426.17 129.89,425.72 130.22,425.17 130.56,424.81 130.90,424.63 131.23,424.38 131.56,424.52 131.90,424.36 132.24,423.63 132.57,424.07 132.91,424.25 133.24,424.25 133.57,424.88 133.91,424.58 134.25,424.94 134.58,424.76 134.91,424.23 135.25,424.23 135.59,424.27 135.92,424.27 136.25,424.68 136.59,424.32 136.93,424.21 137.26,424.23 137.59,423.81 137.93,423.47 138.26,423.43 138.60,422.71 138.94,422.55 139.27,422.47 139.60,422.20 139.94,421.91 140.28,421.30 140.61,421.30 140.94,420.93 141.28,420.83 141.62,421.04 141.95,421.19 142.28,421.64 142.62,421.64 142.95,420.92 143.29,420.03 143.62,418.74 143.96,417.64 144.30,416.19 144.63,415.28 144.97,414.68 145.30,414.50 145.63,415.21 145.97,415.50 146.31,415.72 146.64,415.50 146.97,415.50 147.31,416.40 147.65,416.77 147.98,416.71 148.31,417.07 148.65,417.98 148.99,417.09 149.32,415.64 149.66,414.72 149.99,413.63 150.32,412.55 150.66,411.64 151.00,411.68 151.33,412.04 151.67,410.41 152.00,409.03 152.33,408.12 152.67,408.12 153.00,407.40 153.34,407.58 153.68,407.76 154.01,407.76 154.34,407.26 154.68,407.33 155.01,407.87 155.35,407.51 155.69,407.69 156.02,407.87 156.36,406.97 156.69,407.15 157.03,407.13 157.36,406.86 157.69,407.22 158.03,407.58 158.37,407.04 158.70,407.04 159.03,407.15 159.37,407.11 159.70,407.29 160.04,406.57 160.38,406.68 160.71,407.09 161.05,405.84 161.38,404.75 161.72,404.23 162.05,404.43 162.38,405.10 162.72,405.10 163.06,405.28 163.39,404.65 163.72,404.28 164.06,403.02 164.39,402.51 164.73,402.25 165.06,402.80 165.40,403.25 165.74,403.99 166.07,404.10 166.41,404.10 166.74,403.78 167.07,403.41 167.41,403.41 167.75,404.14 168.08,404.14 168.42,404.12 168.75,404.12 169.08,405.21 169.42,405.03 169.75,404.66 170.09,405.03 170.43,404.50 170.76,404.81 171.09,404.79 171.43,405.12 171.76,405.12 172.10,406.00 172.44,405.70 172.77,406.13 173.11,406.11 173.44,406.11 173.78,406.31 174.11,405.59 174.44,405.15 174.78,405.55 175.12,405.37 175.45,405.52 175.78,405.66 176.12,405.84 176.45,405.57 176.79,406.48 177.12,406.49 177.46,406.86 177.80,407.06 178.13,407.24 178.47,406.77 178.80,406.87 179.13,407.24 179.47,407.78 179.81,406.69 180.14,405.24 180.47,403.79 180.81,402.53 181.14,400.97 181.48,399.95 181.81,398.79 182.15,397.44 182.49,395.70 182.82,394.50 183.16,394.55 183.49,394.01 183.82,392.56 184.16,391.62 184.50,390.24 184.83,388.90 185.17,387.27 185.50,385.62 185.83,383.99 186.17,382.27 186.50,381.18 186.84,380.10 187.18,379.32 187.51,378.05 187.84,377.14 188.18,376.06 188.51,374.99 188.85,373.61 189.19,372.52 189.52,371.13 189.86,370.22 190.19,368.94 190.53,367.58 190.86,365.95 191.19,364.50 191.53,363.23 191.87,361.78 192.20,360.33 192.53,359.42 192.87,358.70 193.20,357.61 193.54,355.98 193.88,354.37 194.21,353.23 194.55,352.14 194.88,351.18 195.22,349.73 195.55,348.28 195.88,347.23 196.22,346.25 196.56,344.62 196.89,344.08 197.22,342.59 197.56,341.36 197.89,339.91 198.23,338.64 198.56,337.01 198.90,336.11 199.24,335.20 199.57,334.48 199.91,333.28 200.24,332.37 200.57,330.80 200.91,329.53 201.25,327.90 201.58,326.63 201.92,325.09 202.25,323.64 202.58,322.77 202.92,321.50 203.25,320.24 203.59,318.79 203.93,317.81 204.26,316.72 204.59,315.27 204.93,313.64 205.26,312.37 205.60,311.10 205.94,310.38 206.27,308.75 206.61,307.66 206.94,306.21 207.28,306.94 207.61,307.52 207.94,307.88 208.28,307.70 208.62,307.55 208.95,308.28 209.28,308.82 209.62,308.46 209.95,309.55 210.29,310.09 210.62,310.81 210.96,311.90 211.30,312.26 211.63,312.46 211.97,313.37 212.30,314.64 212.63,315.00 212.97,314.82 213.31,315.83 213.64,316.65 213.97,316.56 214.31,317.46 214.65,318.37 214.98,320.02 215.31,320.74 215.65,320.62 215.99,321.81 216.32,322.54 216.66,323.08 216.99,323.81 217.32,323.35 217.66,322.97 218.00,322.83 218.33,322.46 218.66,322.41 219.00,322.77 219.34,322.90 219.67,322.94 220.00,322.70 220.34,322.70 220.68,322.39 221.01,322.74 221.34,322.19 221.68,321.85 222.01,322.03 222.35,321.14 222.69,321.14 223.02,321.32 223.35,321.88 223.69,321.72 224.03,322.57 224.36,321.90 224.69,321.54 225.03,322.08 225.37,322.45 225.70,322.08 226.03,321.40 226.37,321.54 226.71,322.59 227.04,322.41 227.38,322.45 227.71,322.68 228.04,321.41 228.38,320.38 228.72,320.02 229.05,319.38 229.38,319.22 229.72,319.22 230.06,319.58 230.39,319.95 230.72,319.69 231.06,319.33 231.40,319.73 231.73,319.55 232.06,318.91 232.40,319.09 232.74,319.15 233.07,318.93 233.41,319.11 233.74,318.93 234.07,318.32 234.41,318.66 234.75,317.99 235.08,317.65 235.41,317.08 235.75,316.72 236.09,316.18 236.42,316.18 236.75,315.65 237.09,314.75 237.43,313.70 237.76,312.61 238.09,312.79 238.43,312.16 238.76,311.05 239.10,310.33 239.44,309.69 239.77,309.08 240.10,309.26 240.44,308.53 240.78,307.99 241.11,307.45 241.44,307.45 241.78,306.29 242.12,305.09 242.45,304.93 242.78,304.60 243.12,305.51 243.46,304.87 243.79,304.87 244.12,305.09 244.46,304.64 244.79,304.09 245.13,304.06 245.47,304.08 245.80,303.89 246.13,304.51 246.47,304.49 246.81,304.67 247.14,304.85 247.47,304.85 247.81,305.04 248.15,304.53 248.48,304.75 248.81,304.75 249.15,304.02 249.49,303.71 249.82,302.99 250.16,302.99 250.49,302.99 250.82,303.60 251.16,303.60 251.50,303.28 251.83,303.51 252.16,304.06 252.50,302.97 252.84,301.97 253.17,301.07 253.50,299.35 253.84,299.07 254.18,298.78 254.51,297.79 254.84,296.56 255.18,295.29 255.51,293.84 255.85,292.93 256.19,291.94 256.52,290.96 256.86,289.40 257.19,287.77 257.52,286.50 257.86,284.91 258.19,283.46 258.53,281.83 258.87,280.92 259.20,279.29 259.53,278.20 259.87,276.81 260.21,275.18 260.54,273.93 260.88,272.30 261.21,271.21 261.54,270.43 261.88,269.34 262.22,267.89 262.55,266.63 262.88,265.00 263.22,263.91 263.56,262.82 263.89,262.01 264.23,260.38 264.56,258.76 264.89,257.13 265.23,256.23 265.56,255.16 265.90,253.71 266.24,251.90 266.57,250.81 266.90,249.45 267.24,248.02 267.57,247.11 267.91,245.79 268.25,244.34 268.58,243.25 268.91,242.17 269.25,240.75 269.59,240.03 269.92,239.01 270.25,238.13 270.59,237.04 270.93,235.77 271.26,234.74 271.60,233.47 271.93,232.02 272.26,230.93 272.60,229.96 272.94,228.69 273.27,227.64 273.61,226.10 273.94,225.01 274.27,224.10 274.61,222.89 274.94,221.71 275.28,220.34 275.62,219.18 275.95,218.40 276.28,216.95 276.62,215.32 276.96,214.41 277.29,213.32 277.62,212.06 277.96,210.97 278.29,209.52 278.63,208.60 278.97,207.15 279.30,206.24 279.63,206.78 279.97,207.22 280.31,207.22 280.64,207.20 280.98,207.74 281.31,207.67 281.64,207.04 281.98,205.95 282.31,205.41 282.65,205.23 282.99,205.41 283.32,205.77 283.65,205.97 283.99,205.97 284.32,206.33 284.66,206.57 285.00,207.18 285.33,207.73 285.66,207.91 286.00,207.91 286.34,208.16 286.67,208.25 287.00,207.98 287.34,207.98 287.68,207.44 288.01,207.73 288.35,209.17 288.68,210.26 289.01,211.53 289.35,212.18 289.69,212.36 290.02,212.36 290.36,212.73 290.69,212.62 291.02,212.56 291.36,213.27 291.69,214.36 292.03,216.17 292.37,217.80 292.70,218.34 293.03,218.34 293.37,218.54 293.71,218.54 294.04,218.76 294.38,218.80 294.71,218.99 295.04,218.76 295.38,218.94 295.72,218.58 296.05,218.94 296.38,219.30 296.72,220.03 297.06,220.39 297.39,220.57 297.73,220.77 298.06,220.05 298.39,220.59 298.73,221.31 299.06,221.66 299.40,221.66 299.74,221.08 300.07,221.97 300.40,221.44 300.74,220.72 301.07,220.28 301.41,220.64 301.75,219.74 302.08,219.36 302.41,219.57 302.75,219.94 303.09,219.94 303.42,219.86 303.75,219.34 304.09,219.34 304.43,219.23 304.76,219.28 305.10,218.92 305.43,218.74 305.76,218.56 306.10,219.83 306.44,221.01 306.77,222.09 307.11,223.36 307.44,224.81 307.77,226.26 308.11,227.42 308.44,228.69 308.78,229.96 309.12,231.59 309.45,231.66 309.78,231.66 310.12,232.04 310.46,233.31 310.79,234.58 311.12,235.75 311.46,237.20 311.79,238.29 312.13,239.20 312.47,240.65 312.80,241.73 313.13,242.82 313.47,244.32 313.81,245.17 314.14,246.08 314.48,247.71 314.81,249.16 315.14,250.43 315.48,252.06 315.81,253.15 316.15,254.41 316.49,255.99 316.82,257.51 317.15,258.80 317.49,260.19 317.82,261.39 318.16,263.17 318.50,264.25 318.83,265.52 319.16,266.95 319.50,267.88 319.84,268.75 320.17,268.56 320.50,269.11 320.84,269.29 321.18,269.47 321.51,268.78 321.85,268.93 322.18,268.75 322.51,268.33 322.85,268.69 323.19,268.51 323.52,268.24 323.86,268.24 324.19,268.17 324.52,268.35 324.86,266.90 325.19,265.38 325.53,263.56 325.87,262.48 326.20,261.21 326.53,259.58 326.87,258.13 327.21,256.68 327.54,255.54 327.88,253.91 328.21,252.28 328.54,250.83 328.88,249.74 329.22,248.65 329.55,247.93 329.88,247.02 330.22,247.22 330.56,246.70 330.89,247.19 331.23,247.37 331.56,247.71 331.89,248.25 332.23,247.89 332.56,247.53 332.90,247.29 333.24,247.11 333.57,247.11 333.90,246.61 334.24,246.32 334.57,246.13 334.91,245.77 335.25,246.01 335.58,245.17 335.91,243.92 336.25,242.66 336.59,241.93 336.92,240.12 337.25,238.85 337.59,237.58 337.93,236.86 338.26,235.77 338.60,235.05 338.93,234.14 339.26,233.04 339.60,231.99 339.94,230.72 340.27,229.27 340.61,228.29 340.94,227.02 341.27,225.57 341.61,223.76 341.94,222.67 342.28,221.40 342.62,219.77 342.95,218.69 343.29,217.42 343.62,216.51 343.95,215.43 344.29,214.52 344.62,213.38 344.96,211.93 345.30,210.48 345.63,209.39 345.96,207.94 346.30,206.95 346.63,205.32 346.97,204.05 347.31,202.96 347.64,201.51 347.98,200.24 348.31,198.97 348.64,197.36 348.98,196.09 349.31,195.24 349.65,193.43 349.99,192.34 350.32,191.08 350.65,189.75 350.99,188.67 351.32,187.22 351.66,185.69 352.00,184.25 352.33,183.12 352.67,181.56 353.00,180.66 353.33,179.23 353.67,177.87 354.00,176.45 354.34,174.82 354.68,173.57 355.01,172.12 355.35,170.31 355.68,169.04 356.01,167.41 356.35,166.04 356.69,164.41 357.02,163.50 357.36,161.91 357.69,160.46 358.02,159.19 358.36,158.26 358.69,157.00 359.03,156.09 359.37,154.82 359.70,153.50 360.04,152.92 360.37,151.56 360.70,150.47 361.04,149.19 361.38,148.35 361.71,146.90 362.05,146.00 362.38,144.55 362.71,143.82 363.05,142.38 363.38,140.93 363.72,139.86 364.06,138.23 364.39,137.32 364.73,136.12 365.06,134.69 365.39,133.75 365.73,132.59 366.06,131.05 366.40,130.33 366.74,129.24 367.07,127.97 367.40,126.70 367.74,125.94 368.07,124.80 368.41,123.71 368.75,122.45 369.08,121.18 369.42,120.09 369.75,118.46 370.08,117.05 370.42,115.67 370.75,114.20 371.09,113.30 371.43,111.67 371.76,109.67 372.10,108.40 372.43,106.88 372.76,105.25 373.10,103.98 373.44,102.90 373.77,101.88 374.11,100.83 374.44,99.20 374.77,97.86 375.11,96.41 375.44,95.69 375.78,94.47 376.12,92.84 376.45,91.43 376.79,89.82 377.12,88.73 377.45,86.92 377.79,85.65 378.12,84.60 378.46,83.33 378.80,82.04 379.13,81.14 379.46,79.33 379.80,78.24 380.13,76.70 380.47,75.49 380.81,74.33 381.14,73.06 381.48,71.72 381.81,71.54 382.14,71.54 382.48,71.54 382.81,71.54 383.15,71.54 383.49,71.54 383.82,71.54 384.15,71.54 384.49,71.54 384.82,71.54 385.16,71.54 385.50,71.54 385.83,71.54 386.17,71.54 386.50,71.54 386.83,71.54 387.17,71.54 387.50,71.54 387.84,71.54 388.18,71.54 388.51,71.54 388.85,71.54 389.18,71.54 389.51,71.54 389.85,71.54 390.19,71.54 390.52,71.54 390.86,71.54 391.19,71.54 391.52,71.54 391.86,71.54 392.19,71.54 392.53,71.54 392.87,71.54 393.20,71.54 393.54,71.54 393.87,71.54 394.20,71.54 394.54,71.54 394.88,71.54 395.21,71.54 395.55,71.54 395.88,71.54 396.21,71.54 396.55,71.54 396.88,71.54 397.22,71.54 397.56,71.54 397.89,71.54 398.23,71.54 398.56,71.54 398.89,71.54 399.23,71.54 399.56,71.54 399.90,71.54 400.24,71.54 400.57,71.54 400.90,71.54 401.24,71.54 401.57,71.54 401.91,71.54 402.25,71.54 402.58,71.54 402.92,71.54 403.25,71.54 403.58,71.54 403.92,71.54 404.25,71.54 404.59,71.54 404.93,71.54 405.26,71.54 405.60,71.54 405.93,71.54 406.26,71.54 406.60,71.54 406.94,71.54 407.27,71.54 407.61,71.54 407.94,71.54 408.27,71.54 408.61,71.54 408.94,71.54 409.28,71.54 409.62,71.54 409.95,71.54 410.29,71.54 410.62,71.54 410.95,71.54 411.29,71.54 411.62,71.54 411.96,71.54 412.30,71.54 412.63,71.54 412.96,71.54 413.30,71.54 413.63,71.54 413.97,71.54 414.31,71.54 414.64,71.54 414.98,71.54 415.31,71.54 415.64,71.54 415.98,71.54 416.31,71.54 416.65,71.54 416.99,71.54 417.32,71.54 417.65,71.54 417.99,71.54 418.32,71.54 418.66,71.54 419.00,71.54 419.33,71.54 419.67,71.54 420.00,71.54 420.33,71.54 420.67,71.54 421.00,71.54 421.34,71.54 421.68,71.54 422.01,71.54 422.35,71.54 422.68,71.54 423.01,71.54 423.35,71.54 423.69,71.54 424.02,71.54 424.36,71.54 424.69,71.54 425.02,71.54 425.36,71.54 425.69,71.54 426.03,71.54 426.37,71.54 426.70,71.54 427.04,71.54 427.37,71.54 427.70,71.54 428.04,71.54 428.38,71.54 428.71,71.54 429.05,71.54 429.38,71.54 429.71,71.54 430.05,71.54 430.38,71.54 430.72,71.54 431.06,71.54 431.39,71.54 431.73,71.54 432.06,71.54 432.39,71.54 432.73,71.54 433.06,71.54 433.40,71.54 433.74,71.54 434.07,71.54 434.40,71.54 434.74,71.54 435.07,71.54 435.41,71.54 435.75,71.54 436.08,71.54 436.42,71.54 436.75,71.54 437.08,71.54 437.42,71.54 437.75,71.54 438.09,71.54 438.43,71.54 438.76,71.54 439.10,71.54 439.43,71.54 439.76,71.54 440.10,71.54 440.44,71.54 440.77,71.54 441.11,71.54 441.44,71.54 441.77,71.54 442.11,71.54 442.44,71.92 442.78,71.75 443.12,71.86 443.45,72.42 443.79,73.00 444.12,74.09 444.45,75.18 444.79,75.65 445.12,76.55 445.46,78.08 445.80,79.62 446.13,80.43 446.46,81.86 446.80,82.59 447.13,84.15 447.47,84.51 447.81,85.78 448.14,87.04 448.48,87.37 448.81,88.09 449.14,87.91 449.48,88.09 449.81,88.46 450.15,89.13 450.49,90.03 450.82,90.94 451.15,92.03 451.49,91.48 451.82,91.95 452.16,92.86 452.50,93.58 452.83,94.31 453.17,94.13 453.50,94.62 453.83,94.80 454.17,94.87 454.50,95.58 454.84,96.45 455.18,98.08 455.51,99.22 455.85,100.03 456.18,101.19 456.51,101.19 456.85,101.39 457.19,101.66 457.52,102.57 457.86,103.51 458.19,104.96 458.52,106.59 458.86,107.25 459.19,108.33 459.53,109.84 459.87,110.87 460.20,111.19 460.54,112.08 460.87,112.63 461.20,113.31 461.54,114.24 461.88,114.15 462.21,115.05 462.55,115.60 462.88,115.89 463.21,115.96 463.55,115.87 463.88,116.78 464.22,117.86 464.56,118.86 464.89,119.57 465.23,119.57 465.56,120.29 465.89,119.38 466.23,118.68 466.56,118.21 466.90,119.09 467.24,117.93 467.57,117.75 467.90,116.49 468.24,116.29 468.57,116.34 468.91,117.61 469.25,118.37 469.58,118.70 469.92,117.68 470.25,116.41 470.58,115.54 470.92,113.91 471.25,113.98 471.59,113.08 471.93,112.17 472.26,111.27 472.60,110.18 472.93,108.73 473.26,107.82 473.60,106.56 473.94,105.54 474.27,104.27 474.61,102.82 474.94,101.38 475.27,100.11 475.61,99.20 475.94,98.06 476.28,96.61 476.62,95.16 476.95,93.89 477.29,92.81 477.62,91.66 477.95,90.76 478.29,89.85 478.62,90.94 478.96,90.58 479.30,89.85 479.63,88.58 479.96,87.50 480.30,86.05 480.63,84.60 480.97,83.51 481.31,82.70 481.64,81.07 481.98,79.89 482.31,78.42 482.64,77.15 482.98,75.88 483.31,74.63 483.65,73.66 483.99,73.96 484.32,74.33 484.65,75.23 484.99,76.43 485.32,77.15 485.66,77.62 486.00,78.31 486.33,78.67 486.67,77.48 487.00,77.12 487.33,77.84 487.67,78.02 488.00,77.84 488.34,78.20 488.68,78.38 489.01,78.02 489.35,76.93 489.68,75.30 490.01,74.76 490.35,73.31 490.69,73.18 491.02,75.00 491.36,75.68 491.69,76.06 492.02,76.79 492.36,77.60 492.69,78.87 493.03,80.18 493.37,80.36 493.70,80.00 494.04,78.91 494.37,79.49 494.70,79.49 495.04,79.49 495.38,79.27 495.71,78.44 496.05,77.35 496.38,76.08 496.71,75.72 497.05,74.09 497.38,72.82 497.72,71.55 498.06,71.55 498.39,71.55 498.73,71.55 499.06,71.55 499.39,71.55 499.73,71.55 500.06,71.55 500.40,71.55 500.74,71.55 501.07,71.55 501.40,71.55 501.74,71.55 502.07,71.55 502.41,71.55 502.75,71.55 503.08,71.55 503.42,71.55 503.75,71.55 504.08,71.55 504.42,71.55 504.75,71.55 505.09,71.55 505.43,71.55 505.76,71.55 506.10,71.55 506.43,71.55 506.76,71.55 507.10,71.55 507.44,71.55 507.77,71.55 508.11,71.55 508.44,71.55 508.77,71.55 509.11,71.55 509.44,71.55 509.78,71.55 510.12,71.55 510.45,71.55 510.79,71.55 511.12,71.55 511.45,71.55 511.79,71.55 512.12,71.55 512.46,71.55 512.80,71.55 513.13,71.55 513.46,71.55 513.80,71.55 514.13,71.55 514.47,71.55 514.81,71.55 515.14,71.55 515.48,71.55 515.81,71.55 516.14,71.55 516.48,71.55 516.82,71.55 517.15,71.55 517.49,71.55 517.82,71.55 518.15,71.55 518.49,71.55 518.83,71.55 519.16,71.55 519.50,71.55 519.83,71.55 520.16,71.55 520.50,71.55 520.84,71.55 521.17,71.55 521.50,71.55 521.84,71.55 522.17,71.55 522.51,71.55 522.85,71.55 523.18,71.55 523.51,71.55 523.85,71.55 524.18,71.55 524.52,71.55 524.86,71.55 525.19,71.55 525.52,71.55 525.86,71.55 526.19,71.55 526.53,71.55 526.87,71.55 527.20,71.55 527.54,71.55 527.87,71.55 528.20,71.55 528.54,71.55 528.88,71.55 529.21,71.55 529.55,71.55 529.88,71.55 530.21,71.55 530.55,71.55 530.88,71.55 531.22,71.55 531.56,71.55 531.89,71.55 532.23,71.55 532.56,71.55 532.89,71.55 533.23,71.55 533.57,71.55 533.90,71.55 534.24,71.55 534.57,71.55 534.90,71.55 535.24,71.55 535.58,71.55 535.91,71.55 536.25,71.55 536.58,71.55 536.91,71.55 537.25,71.55 537.59,71.55 537.92,71.55 538.25,71.55 538.59,71.55 538.92,71.55 539.26,71.55 539.60,71.55 539.93,71.55 540.26,71.55 540.60,71.55 540.93,71.55 541.27,71.55 541.61,71.55 541.94,71.55 542.27,71.55 542.61,71.55 542.94,71.55 543.28,71.55 543.62,71.55 543.95,71.55 544.29,71.55 544.62,71.55 544.95,71.55 545.29,71.55 545.62,71.55 545.96,71.55 546.30,71.55 546.63,71.55 546.96,71.55 547.30,71.55 547.63,71.55 547.97,71.55 548.31,71.55 548.64,71.55 548.98,71.55 549.31,71.55 549.64,71.55 549.98,71.55 550.32,71.55 550.65,71.55 550.99,71.55 551.32,71.55 551.65,71.55 551.99,71.55 552.33,71.55 552.66,71.55 553.00,71.55 553.33,71.55 553.66,71.55 554.00,71.55 554.34,71.55 554.67,71.55 555.00,71.55 555.34,71.55 555.67,71.55 556.01,71.55 556.35,71.55 556.68,71.55 557.01,71.55 557.35,71.55 557.68,71.55 558.02,71.55 558.36,71.55 558.69,71.55 559.02,71.55 559.36,71.55 559.69,71.55 560.03,71.55 560.37,71.55 560.70,71.55 561.04,71.55 561.37,71.55 561.70,71.55 562.04,71.55 562.38,71.55 562.71,71.55 563.05,71.55 563.38,71.55 563.71,71.55 564.05,71.55 564.38,71.55 564.72,71.55 565.06,71.55 565.39,71.55 565.73,71.55 566.06,71.55 566.39,71.55 566.73,71.55 567.07,71.55 567.40,71.55 567.74,71.55 568.07,71.55 568.40,71.55 568.74,71.55 569.08,71.55 569.41,71.55 569.75,71.55 570.08,71.55 570.41,71.55 570.75,71.55 571.09,71.55 571.42,71.55 571.75,71.55 572.09,71.55 572.42,71.55 572.76,71.55 573.10,71.55 573.43,71.55 573.76,71.55 574.10,71.55 574.43,71.55 574.77,71.55 575.11,71.55 575.44,71.55 575.77,71.55 576.11,71.55 576.44,71.55 576.78,71.55 577.12,71.55 577.45,71.55 577.79,71.55 578.12,71.55 578.45,71.55 578.79,72.15 579.12,71.61 579.46,71.61 579.80,71.61 580.13,71.61 580.46,71.61 580.80,71.61 581.13,71.61 581.47,71.61 581.81,71.61 582.14,71.61 582.48,71.61 582.81,71.61 583.14,71.61 583.48,71.61 583.82,71.61 584.15,71.61 584.49,71.61 584.82,71.61 585.15,71.61 585.49,71.61 585.83,71.61 586.16,71.61 586.50,71.61 586.83,71.97 587.16,72.41 587.50,72.95 587.84,72.59 588.17,72.04 588.50,72.71 588.84,74.04 589.17,73.85 589.51,73.35 589.85,71.90 590.18,71.72 590.51,72.48 590.85,73.53 591.18,74.25 591.52,74.80 591.86,75.45 592.19,76.35 592.52,75.81 592.86,75.45 593.19,76.34 593.53,75.97 593.87,75.61 594.20,76.68 594.54,77.71 594.87,78.44 595.20,79.53 595.54,81.16 595.88,81.75 596.21,83.42 596.55,85.23 596.88,86.17 597.22,87.44 597.55,89.16 597.88,90.61 598.22,92.24 598.55,93.87 598.89,95.20 599.23,95.11 599.56,96.10 599.89,97.08 600.23,97.19 600.57,98.28 600.90,99.73 601.24,101.18 601.57,102.37 601.90,103.28 602.24,104.73 602.58,106.00 602.91,107.50 603.25,107.86 603.58,108.71 603.91,109.65 604.25,110.92 604.59,111.47 604.92,112.03 605.25,112.92 605.59,113.12 605.92,113.12 606.26,114.04 606.60,114.76 606.93,114.44 607.26,114.44 607.60,114.62 607.93,114.66 608.27,115.51 608.61,115.87 608.94,116.59 609.27,117.21 609.61,117.93 609.95,118.30 610.28,119.75 610.62,119.93 610.95,120.11 611.28,120.00 611.62,120.54 611.96,121.09 612.29,121.45 612.62,121.45 612.96,121.70 613.29,121.16 613.63,120.91 613.97,120.91 614.30,121.05 614.63,121.41 614.97,121.59 615.30,122.48 615.64,122.59 615.98,122.65 616.31,123.22 616.64,123.71 616.98,124.11 617.32,124.24 617.65,124.35 617.99,124.71 618.32,125.05 618.65,125.78 618.99,125.07 619.33,125.65 619.66,125.83 620.00,125.73 620.33,125.92 620.66,125.38 621.00,126.12 621.34,126.07 621.67,126.47 622.00,126.29 622.34,126.65 622.67,126.83 623.01,126.47 623.35,127.16 623.68,126.76 624.01,126.85 624.35,127.12 624.68,127.59 625.02,127.83 625.36,128.37 625.69,128.53 626.02,128.39 626.36,128.75 626.70,128.57 627.03,128.70 627.37,129.46 627.70,130.00 628.03,130.91 628.37,131.69 628.71,132.05 629.04,131.49 629.38,132.39 629.71,132.21 630.04,133.08 630.38,133.84 630.72,134.28 631.05,134.17 631.38,133.99 631.72,133.44 632.05,133.99 632.39,134.29 632.73,135.02 633.06,134.60 633.39,134.55 633.73,134.55 634.07,135.00 634.40,135.69 634.74,135.69 635.07,135.76 635.40,136.12 635.74,137.01 636.08,137.01 636.41,136.36 636.75,136.11 637.08,136.61 637.41,136.89 637.75,137.07 638.09,136.60 638.42,136.63 638.75,136.58 639.09,137.56 639.42,138.82 639.76,140.45 640.10,141.54 640.43,143.23 640.76,143.70 641.10,144.60 641.43,145.87 641.77,146.90 642.11,148.72 642.44,149.62 642.77,150.53 643.11,152.03 643.45,153.84 643.78,155.11 644.12,156.47 644.45,157.83 644.78,158.92 645.12,160.24 645.46,162.05 645.79,163.32 646.12,164.80 646.46,166.25 646.79,167.16 647.13,168.61 647.47,169.90 647.80,171.35 648.13,172.25 648.47,173.19 648.80,174.46 649.14,175.55 649.48,176.73 649.81,177.90 650.14,179.21 650.48,179.82 650.82,181.26 651.15,182.34 651.49,183.61 651.82,185.06 652.15,186.29 652.49,188.10 652.83,189.73 653.16,190.46 653.50,192.04 653.83,193.30 654.16,194.75 654.50,194.57 654.84,195.50 655.17,195.32 655.50,196.22 655.84,196.04 656.17,195.68 656.51,195.37 656.85,195.44 657.18,195.26 657.51,195.46 657.85,195.84 658.18,196.02 658.52,195.48 658.86,195.48 659.19,195.84 659.52,195.84 659.86,195.99 660.20,195.35 660.53,195.12 660.87,194.57 661.20,194.81 661.53,194.08 661.87,194.26 662.21,193.54 662.54,193.72 662.88,193.54 663.21,193.36 663.54,192.72 663.88,192.36 664.22,192.18 664.55,191.46 664.88,190.37 665.22,188.77 665.55,187.25 665.89,185.98 666.23,184.54 666.56,183.27 666.89,181.82 667.23,180.37 667.57,178.56 667.90,177.14 668.24,175.51 668.57,174.24 668.90,173.52 669.24,172.25 669.58,170.86 669.91,169.23 670.25,168.14 670.58,167.32 670.91,167.32 671.25,167.96 671.59,167.78 671.92,166.69 672.25,165.24 672.59,163.61 672.92,162.34 673.26,161.25 673.60,159.99 673.93,159.08 674.26,157.81 674.60,157.59 674.93,157.41 675.27,156.87 675.61,156.24 675.94,155.37 676.27,155.55 676.61,155.91 676.95,155.91 677.28,157.03 677.62,157.38 677.95,157.03 678.28,155.87 678.62,155.15 678.96,153.52 679.29,152.41 679.62,151.33 679.96,150.42 680.29,150.78 680.63,150.47 680.97,150.66 681.30,150.44 681.63,150.44 681.97,150.62 682.30,150.29 682.64,150.11 682.98,149.80 683.31,149.98 683.64,149.79 683.98,148.73 684.32,149.64 684.65,150.67 684.99,150.67 685.32,151.22 685.65,151.04 685.99,150.85 686.33,150.85 686.66,150.31 687.00,150.55 687.33,150.73 687.66,150.73 688.00,150.00 688.34,149.22 688.67,149.95 689.00,150.06 689.34,150.02 689.67,149.98 690.01,150.53 690.35,150.13 690.68,150.15 691.01,150.11 691.35,150.29 691.68,150.47 692.02,150.11 692.36,150.22 692.69,149.50 693.02,150.13 693.36,150.42 693.70,150.55 694.03,150.29 694.37,150.89 694.70,150.35 695.03,150.89 695.37,150.80 695.71,150.98 696.04,151.34 696.38,150.80 696.71,149.89 697.04,150.40 697.38,150.00 697.72,150.73 698.05,151.78 698.38,152.76 698.72,153.10 699.05,153.46 699.39,153.34 699.73,153.08 700.06,152.94 700.39,152.76 700.73,153.84 701.07,155.29 701.40,156.92 701.74,158.74 702.07,160.18 702.40,161.11 702.74,162.18 703.08,163.26 703.41,163.45 703.75,164.17 704.08,164.35 704.41,164.71 704.75,164.90 705.09,164.17 705.42,164.01 705.75,164.44 706.09,164.30 706.42,163.94 706.76,164.53 707.10,165.22 707.43,165.77 707.76,165.71 708.10,166.04 708.43,165.28 708.77,165.20 709.11,165.67 709.44,166.54 709.77,166.63 710.11,167.61 710.45,167.98 710.78,167.88 711.12,167.79 711.45,167.61 711.78,167.98 712.12,168.88 712.46,169.24 712.79,168.77 713.12,168.95 713.46,169.32 713.79,169.03 714.13,168.90 714.47,168.37 714.80,168.56 715.13,169.19 715.47,169.82 715.80,169.53 716.14,169.44 716.48,169.62 716.81,169.62 717.14,169.44 717.48,169.93 717.82,170.66 718.15,170.82 718.49,172.45 718.82,173.90 719.15,175.17 719.49,176.62 719.83,177.40 720.16,179.21 720.50,180.84 720.83,182.11 721.16,183.50 721.50,184.95 721.84,186.40 722.17,187.67 722.50,188.58 722.84,189.48 723.17,191.11 723.51,192.56 723.85,193.79 724.18,194.52 724.51,196.15 724.85,197.60 725.18,199.23 725.52,200.68 725.86,201.95 726.19,203.03 726.52,204.12 726.86,205.57 727.20,206.66 727.53,207.56 727.87,208.47 728.20,209.92 728.53,211.04 728.87,212.74 729.21,213.69 729.54,215.17 729.88,216.13 730.21,217.40 730.54,219.03 730.88,220.48 731.22,221.82 731.55,223.09 731.88,224.54 732.22,225.93 732.55,227.09 732.89,228.18 733.23,229.63 733.56,231.04 733.89,232.67 734.23,233.04 734.57,234.30 734.90,235.28 735.24,236.75 735.57,238.02 735.90,239.11 736.24,240.19 736.58,241.82 736.91,243.36 737.25,244.27 737.58,245.36 737.91,246.55 738.25,247.86 738.59,248.94 738.92,249.85 739.25,251.33 739.59,252.60 739.92,253.71 740.26,255.32 740.60,256.05 740.93,257.31 741.26,257.48 741.60,257.66 741.93,259.11 742.27,260.19 742.61,260.97 742.94,262.26 743.27,263.89 743.61,265.03 743.95,266.14 744.28,267.22 744.62,266.50 744.95,267.59 745.28,269.04 745.62,270.49 745.96,272.17 746.29,273.44 746.62,275.18 746.96,276.26 747.29,277.62 747.63,279.07 747.97,280.34 748.30,281.97 748.63,282.70 748.97,283.06 749.30,283.33 749.64,284.78 749.98,285.60 750.31,286.68 750.64,286.32 750.98,287.23 751.32,288.31 751.65,290.12 751.99,291.21 752.32,292.35 752.65,293.80 752.99,295.07 753.33,296.70 753.66,297.90 754.00,298.48 754.33,299.75 754.66,299.75 755.00,299.47 755.00,433.83"/>
<line x1="783" y1="82" x2="809" y2="82" stroke="#dc2626" stroke-width="3"/>
<text x="817" y="86" font-family="Arial" font-size="13" fill="#111827">Avellaneda Stoikov</text>
<polyline fill="none" stroke="#7c3aed" stroke-width="2" points=""/>
<line x1="783" y1="106" x2="809" y2="106" stroke="#7c3aed" stroke-width="3"/>
<text x="817" y="110" font-family="Arial" font-size="13" fill="#111827">Calibrated Avellaneda Stoikov</text>
<text x="420.0" y="518" text-anchor="middle" font-family="Arial" font-size="14" fill="#111827">Event index</text>
<text x="22" y="256.0" text-anchor="middle" transform="rotate(-90 22 256.0)" font-family="Arial" font-size="14" fill="#111827">Inventory</text>
</svg>
