<svg xmlns="http://www.w3.org/2000/svg" width="940" height="540" viewBox="0 0 940 540">
<rect width="100%" height="100%" fill="#ffffff"/>
<text x="470.0" y="26" text-anchor="middle" font-family="Arial" font-size="18" fill="#111827">Low Volatility Cumulative PnL After Fees</text>
<line x1="85" y1="470" x2="755" y2="470" stroke="#111827" stroke-width="1"/>
<line x1="85" y1="42" x2="85" y2="470" stroke="#111827" stroke-width="1"/>
<line x1="85.00" y1="42" x2="85.00" y2="470" stroke="#e5e7eb" stroke-width="1"/>
<text x="85.00" y="494" text-anchor="middle" font-family="Arial" font-size="12" fill="#374151">0</text>
<line x1="252.50" y1="42" x2="252.50" y2="470" stroke="#e5e7eb" stroke-width="1"/>
<text x="252.50" y="494" text-anchor="middle" font-family="Arial" font-size="12" fill="#374151">50000</text>
<line x1="420.00" y1="42" x2="420.00" y2="470" stroke="#e5e7eb" stroke-width="1"/>
<text x="420.00" y="494" text-anchor="middle" font-family="Arial" font-size="12" fill="#374151">100000</text>
<line x1="587.50" y1="42" x2="587.50" y2="470" stroke="#e5e7eb" stroke-width="1"/>
<text x="587.50" y="494" text-anchor="middle" font-family="Arial" font-size="12" fill="#374151">150000</text>
<line x1="755.00" y1="42" x2="755.00" y2="470" stroke="#e5e7eb" stroke-width="1"/>
<text x="755.00" y="494" text-anchor="middle" font-family="Arial" font-size="12" fill="#374151">200000</text>
<line x1="85" y1="470.00" x2="755" y2="470.00" stroke="#e5e7eb" stroke-width="1"/>
<text x="73" y="474.00" text-anchor="end" font-family="Arial" font-size="12" fill="#374151">-706210</text>
<line x1="85" y1="363.00" x2="755" y2="363.00" stroke="#e5e7eb" stroke-width="1"/>
<text x="73" y="367.00" text-anchor="end" font-family="Arial" font-size="12" fill="#374151">1585916</text>
<line x1="85" y1="256.00" x2="755" y2="256.00" stroke="#e5e7eb" stroke-width="1"/>
<text x="73" y="260.00" text-anchor="end" font-family="Arial" font-size="12" fill="#374151">3878041</text>
<line x1="85" y1="149.00" x2="755" y2="149.00" stroke="#e5e7eb" stroke-width="1"/>
<text x="73" y="153.00" text-anchor="end" font-family="Arial" font-size="12" fill="#374151">6170166</text>
<line x1="85" y1="42.00" x2="755" y2="42.00" stroke="#e5e7eb" stroke-width="1"/>
<text x="73" y="46.00" text-anchor="end" font-family="Arial" font-size="12" fill="#374151">8462292</text>
<polyline fill="none" stroke="#2563eb" stroke-width="2" points="85.00,437.03 85.33,437.00 85.67,436.96 86.00,436.93 86.34,436.91 86.67,436.88 87.01,436.83 87.34,436.80 87.68,436.76 88.02,436.71 88.35,436.68 88.69,436.65 89.02,436.63 89.36,436.60 89.69,436.56 90.03,436.48 90.36,436.45 90.69,436.40 91.03,436.34 91.36,436.29 91.70,436.30 92.03,436.24 92.37,436.22 92.70,436.22 93.04,436.22 93.38,436.19 93.71,436.14 94.05,436.19 94.38,436.14 94.72,436.10 95.05,436.09 95.39,436.06 95.72,435.94 96.06,435.96 96.39,435.91 96.72,435.83 97.06,435.90 97.39,435.91 97.73,435.89 98.06,435.86 98.40,435.87 98.73,435.84 99.07,435.80 99.41,435.79 99.74,435.73 100.08,435.78 100.41,435.64 100.75,435.69 101.08,435.64 101.41,435.61 101.75,435.50 102.09,435.46 102.42,435.50 102.75,435.50 103.09,435.45 103.42,435.36 103.76,435.43 104.09,435.36 104.43,435.40 104.77,435.46 105.10,435.46 105.44,435.45 105.77,435.44 106.11,435.39 106.44,435.40 106.78,435.35 107.11,435.26 107.44,435.31 107.78,435.37 108.11,435.37 108.45,435.37 108.78,435.36 109.12,435.33 109.45,435.31 109.79,435.26 110.12,435.24 110.46,435.19 110.80,435.17 111.13,435.12 111.47,435.10 111.80,435.06 112.14,435.03 112.47,434.98 112.81,434.96 113.14,434.93 113.47,434.90 113.81,434.88 114.14,434.85 114.48,434.81 114.81,434.78 115.15,434.74 115.48,434.72 115.82,434.66 116.16,434.63 116.49,434.62 116.83,434.60 117.16,434.57 117.50,434.57 117.83,434.56 118.16,434.54 118.50,434.53 118.84,434.48 119.17,434.47 119.50,434.47 119.84,434.60 120.17,434.54 120.51,434.55 120.84,434.45 121.18,434.47 121.52,434.48 121.85,434.36 122.19,434.27 122.52,434.16 122.85,434.19 123.19,434.16 123.53,434.14 123.86,434.08 124.19,434.08 124.53,434.18 124.87,434.22 125.20,434.16 125.53,434.15 125.87,434.10 126.20,434.23 126.54,434.15 126.88,434.15 127.21,434.14 127.55,434.06 127.88,434.05 128.22,434.04 128.55,433.94 128.88,433.88 129.22,433.83 129.56,433.81 129.89,433.83 130.22,434.04 130.56,433.88 130.90,433.85 131.23,433.66 131.56,433.73 131.90,433.72 132.24,433.79 132.57,433.82 132.91,433.90 133.24,433.71 133.57,433.65 133.91,433.72 134.25,433.75 134.58,433.60 134.91,433.45 135.25,433.40 135.59,433.50 135.92,433.39 136.25,433.22 136.59,433.25 136.93,433.15 137.26,432.86 137.59,432.70 137.93,432.57 138.26,432.40 138.60,432.57 138.94,432.59 139.27,432.57 139.60,432.29 139.94,432.22 140.28,432.28 140.61,432.06 140.94,432.21 141.28,432.17 141.62,432.24 141.95,432.21 142.28,432.10 142.62,431.82 142.95,431.72 143.29,431.54 143.62,431.41 143.96,431.50 144.30,431.46 144.63,431.38 144.97,431.67 145.30,431.66 145.63,431.61 145.97,431.97 146.31,431.95 146.64,431.88 146.97,431.70 147.31,432.06 147.65,431.86 147.98,431.66 148.31,431.38 148.65,431.25 148.99,431.01 149.32,430.63 149.66,430.78 149.99,430.80 150.32,430.95 150.66,430.95 151.00,431.13 151.33,430.79 151.67,430.66 152.00,430.75 152.33,430.80 152.67,431.04 153.00,431.08 153.34,431.50 153.68,431.08 154.01,430.95 154.34,430.87 154.68,431.07 155.01,431.19 155.35,430.87 155.69,431.00 156.02,430.32 156.36,430.42 156.69,430.25 157.03,430.23 157.36,430.58 157.69,430.46 158.03,430.31 158.37,430.09 158.70,430.17 159.03,430.46 159.37,430.33 159.70,430.41 160.04,430.14 160.38,430.09 160.71,429.60 161.05,429.39 161.38,429.76 161.72,429.88 162.05,429.59 162.38,429.75 162.72,429.69 163.06,429.38 163.39,429.12 163.72,428.88 164.06,429.05 164.39,429.77 164.73,429.65 165.06,429.96 165.40,430.01 165.74,430.38 166.07,430.01 166.41,430.23 166.74,430.15 167.07,429.42 167.41,428.97 167.75,429.29 168.08,429.00 168.42,428.73 168.75,429.14 169.08,429.54 169.42,429.95 169.75,429.80 170.09,429.41 170.43,428.98 170.76,428.71 171.09,429.01 171.43,429.02 171.76,429.04 172.10,429.11 172.44,429.17 172.77,429.35 173.11,429.20 173.44,428.86 173.78,428.68 174.11,428.49 174.44,428.60 174.78,428.57 175.12,427.79 175.45,428.43 175.78,428.30 176.12,428.20 176.45,428.10 176.79,428.29 177.12,428.72 177.46,428.22 177.80,428.66 178.13,428.40 178.47,427.98 178.80,427.74 179.13,427.33 179.47,426.90 179.81,426.28 180.14,426.00 180.47,426.31 180.81,426.98 181.14,426.72 181.48,426.38 181.81,426.41 182.15,426.57 182.49,426.51 182.82,427.28 183.16,426.96 183.49,426.57 183.82,426.64 184.16,426.24 184.50,425.67 184.83,425.40 185.17,425.15 185.50,424.82 185.83,425.34 186.17,425.68 186.50,426.12 186.84,426.26 187.18,425.81 187.51,426.32 187.84,425.31 188.18,425.39 188.51,424.62 188.85,423.19 189.19,423.68 189.52,423.94 189.86,423.28 190.19,422.19 190.53,420.59 190.86,420.50 191.19,421.42 191.53,421.04 191.87,422.26 192.20,423.77 192.53,422.68 192.87,423.48 193.20,421.95 193.54,423.37 193.88,422.85 194.21,422.47 194.55,422.71 194.88,422.23 195.22,420.27 195.55,418.38 195.88,416.91 196.22,415.08 196.56,414.47 196.89,415.47 197.22,416.47 197.56,415.27 197.89,414.96 198.23,416.41 198.56,415.48 198.90,416.69 199.24,418.20 199.57,418.94 199.91,417.53 200.24,417.01 200.57,416.05 200.91,417.10 201.25,417.34 201.58,416.41 201.92,416.24 202.25,416.28 202.58,416.90 202.92,417.52 203.25,418.78 203.59,419.78 203.93,420.55 204.26,418.16 204.59,416.58 204.93,416.21 205.26,416.87 205.60,416.53 205.94,417.93 206.27,420.83 206.61,421.06 206.94,422.96 207.28,422.79 207.61,423.88 207.94,425.46 208.28,423.93 208.62,423.24 208.95,425.25 209.28,426.67 209.62,429.41 209.95,429.98 210.29,430.66 210.62,430.84 210.96,431.50 211.30,429.91 211.63,430.39 211.97,432.27 212.30,432.13 212.63,431.15 212.97,431.49 213.31,432.24 213.64,431.22 213.97,432.48 214.31,431.45 214.65,433.91 214.98,433.22 215.31,432.17 215.65,432.79 215.99,433.50 216.32,432.01 216.66,434.09 216.99,433.08 217.32,432.92 217.66,431.88 218.00,430.57 218.33,431.57 218.66,430.06 219.00,430.39 219.34,431.24 219.67,431.31 220.00,430.90 220.34,429.53 220.68,430.78 221.01,430.13 221.34,430.33 221.68,429.73 222.01,430.81 222.35,429.19 222.69,428.68 223.02,430.24 223.35,430.87 223.69,431.15 224.03,430.78 224.36,429.85 224.69,429.47 225.03,428.24 225.37,428.00 225.70,424.94 226.03,425.98 226.37,425.90 226.71,426.29 227.04,423.19 227.38,422.40 227.71,420.89 228.04,420.52 228.38,420.18 228.72,420.43 229.05,422.94 229.38,422.60 229.72,421.25 230.06,421.54 230.39,424.10 230.72,422.66 231.06,421.32 231.40,422.55 231.73,423.86 232.06,422.76 232.40,421.67 232.74,423.17 233.07,424.51 233.41,423.27 233.74,422.12 234.07,423.34 234.41,420.11 234.75,419.23 235.08,420.28 235.41,418.26 235.75,419.40 236.09,421.50 236.42,420.83 236.75,418.86 237.09,417.41 237.43,417.31 237.76,419.31 238.09,419.76 238.43,417.91 238.76,417.75 239.10,418.67 239.44,418.55 239.77,417.67 240.10,419.01 240.44,419.07 240.78,418.31 241.11,419.86 241.44,418.09 241.78,416.56 242.12,418.31 242.45,418.54 242.78,417.32 243.12,418.53 243.46,420.49 243.79,420.71 244.12,418.19 244.46,417.54 244.79,419.12 245.13,418.53 245.47,419.91 245.80,420.66 246.13,422.02 246.47,424.37 246.81,425.11 247.14,423.82 247.47,422.66 247.81,424.59 248.15,424.72 248.48,424.78 248.81,425.25 249.15,425.76 249.49,424.14 249.82,419.80 250.16,420.42 250.49,418.72 250.82,420.87 251.16,418.77 251.50,416.62 251.83,416.51 252.16,414.90 252.50,413.99 252.84,414.52 253.17,414.91 253.50,414.06 253.84,416.44 254.18,415.39 254.51,411.84 254.84,409.62 255.18,410.32 255.51,410.27 255.85,407.13 256.19,404.93 256.52,403.63 256.86,403.70 257.19,403.24 257.52,405.49 257.86,406.69 258.19,404.32 258.53,404.66 258.87,402.27 259.20,400.42 259.53,400.27 259.87,399.18 260.21,399.36 260.54,402.22 260.88,402.85 261.21,402.78 261.54,403.96 261.88,403.49 262.22,401.69 262.55,398.15 262.88,397.34 263.22,397.14 263.56,395.57 263.89,391.91 264.23,392.32 264.56,392.36 264.89,395.42 265.23,392.21 265.56,391.82 265.90,391.06 266.24,392.58 266.57,398.18 266.90,396.36 267.24,400.83 267.57,398.99 267.91,395.92 268.25,392.41 268.58,394.86 268.91,398.78 269.25,397.10 269.59,398.68 269.92,398.77 270.25,404.21 270.59,404.31 270.93,401.06 271.26,397.85 271.60,397.29 271.93,398.83 272.26,396.47 272.60,395.68 272.94,393.44 273.27,393.41 273.61,394.36 273.94,399.13 274.27,404.91 274.61,406.93 274.94,404.27 275.28,404.04 275.62,401.67 275.95,403.08 276.28,400.08 276.62,400.86 276.96,401.67 277.29,402.46 277.62,401.45 277.96,399.49 278.29,400.55 278.63,403.68 278.97,402.11 279.30,409.51 279.63,408.95 279.97,409.52 280.31,410.40 280.64,408.99 280.98,409.26 281.31,407.87 281.64,402.90 281.98,404.60 282.31,407.84 282.65,408.04 282.99,408.52 283.32,408.20 283.65,405.83 283.99,405.83 284.32,410.41 284.66,410.24 285.00,412.44 285.33,417.47 285.66,415.84 286.00,412.66 286.34,414.12 286.67,412.13 287.00,413.46 287.34,416.05 287.68,418.40 288.01,422.55 288.35,424.86 288.68,426.86 289.01,423.19 289.35,420.13 289.69,422.18 290.02,421.32 290.36,419.14 290.69,419.09 291.02,421.38 291.36,424.95 291.69,427.55 292.03,429.16 292.37,426.46 292.70,423.24 293.03,421.17 293.37,418.54 293.71,420.56 294.04,424.02 294.38,421.95 294.71,421.34 295.04,415.01 295.38,417.15 295.72,417.84 296.05,416.27 296.38,418.28 296.72,422.25 297.06,425.78 297.39,422.56 297.73,422.16 298.06,424.34 298.39,427.60 298.73,425.35 299.06,422.54 299.40,422.66 299.74,420.42 300.07,413.44 300.40,418.41 300.74,419.98 301.07,420.21 301.41,421.79 301.75,419.44 302.08,420.24 302.41,418.53 302.75,421.22 303.09,420.18 303.42,419.18 303.75,418.19 304.09,414.96 304.43,417.55 304.76,417.78 305.10,421.45 305.43,422.54 305.76,427.66 306.10,428.30 306.44,429.27 306.77,428.06 307.11,430.36 307.44,433.26 307.77,436.71 308.11,435.70 308.44,437.28 308.78,434.61 309.12,430.37 309.45,426.63 309.78,427.28 310.12,430.09 310.46,433.32 310.79,438.21 311.12,437.31 311.46,436.50 311.79,436.98 312.13,437.35 312.47,436.39 312.80,437.27 313.13,431.80 313.47,432.20 313.81,433.60 314.14,435.79 314.48,436.56 314.81,435.96 315.14,436.61 315.48,436.82 315.81,435.31 316.15,433.45 316.49,434.26 316.82,432.06 317.15,434.17 317.49,436.52 317.82,437.58 318.16,438.88 318.50,438.76 318.83,440.48 319.16,435.43 319.50,436.68 319.84,433.61 320.17,432.31 320.50,430.84 320.84,430.34 321.18,426.63 321.51,424.57 321.85,424.27 322.18,425.25 322.51,425.24 322.85,424.65 323.19,420.49 323.52,419.72 323.86,418.22 324.19,418.43 324.52,415.44 324.86,415.53 325.19,414.69 325.53,412.18 325.87,407.99 326.20,408.72 326.53,406.70 326.87,406.85 327.21,408.42 327.54,409.18 327.88,409.52 328.21,411.43 328.54,412.12 328.88,411.40 329.22,412.09 329.55,414.06 329.88,414.44 330.22,417.40 330.56,413.29 330.89,414.14 331.23,412.42 331.56,415.65 331.89,412.49 332.23,412.12 332.56,410.76 332.90,409.98 333.24,409.16 333.57,411.68 333.90,411.63 334.24,413.47 334.57,412.19 334.91,411.78 335.25,409.08 335.58,406.66 335.91,404.28 336.25,402.52 336.59,399.48 336.92,400.76 337.25,399.44 337.59,394.03 337.93,393.01 338.26,390.64 338.60,392.87 338.93,387.69 339.26,388.28 339.60,392.25 339.94,390.22 340.27,388.25 340.61,386.30 340.94,387.67 341.27,387.06 341.61,386.09 341.94,383.24 342.28,383.40 342.62,380.50 342.95,377.48 343.29,380.84 343.62,383.44 343.95,381.74 344.29,376.21 344.62,373.24 344.96,368.59 345.30,372.03 345.63,371.47 345.96,375.76 346.30,375.29 346.63,375.39 346.97,379.63 347.31,377.25 347.64,378.68 347.98,381.66 348.31,379.39 348.64,384.54 348.98,382.33 349.31,381.49 349.65,382.99 349.99,377.48 350.32,379.13 350.65,380.02 350.99,384.17 351.32,386.99 351.66,386.20 352.00,386.81 352.33,388.01 352.67,383.22 353.00,382.57 353.33,374.79 353.67,377.10 354.00,372.31 354.34,372.14 354.68,373.13 355.01,372.44 355.35,373.29 355.68,376.69 356.01,384.18 356.35,386.46 356.69,388.82 357.02,389.30 357.36,391.21 357.69,390.67 358.02,385.82 358.36,381.31 358.69,377.81 359.03,374.32 359.37,369.53 359.70,366.68 360.04,369.76 360.37,366.60 360.70,362.45 361.04,364.94 361.38,361.79 361.71,359.74 362.05,354.94 362.38,354.83 362.71,359.80 363.05,358.58 363.38,356.81 363.72,352.98 364.06,352.34 364.39,350.74 364.73,353.39 365.06,350.97 365.39,348.50 365.73,347.63 366.06,343.37 366.40,349.50 366.74,352.76 367.07,351.33 367.40,348.74 367.74,344.87 368.07,340.32 368.41,333.48 368.75,331.60 369.08,335.59 369.42,330.50 369.75,333.59 370.08,331.67 370.42,333.25 370.75,330.27 371.09,328.08 371.43,319.67 371.76,320.59 372.10,320.23 372.43,318.65 372.76,313.88 373.10,311.47 373.44,314.83 373.77,317.05 374.11,314.59 374.44,316.44 374.77,318.33 375.11,316.35 375.44,317.45 375.78,322.48 376.12,322.13 376.45,323.40 376.79,325.03 377.12,326.78 377.45,332.69 377.79,328.40 378.12,326.99 378.46,326.54 378.80,329.99 379.13,327.11 379.46,321.62 379.80,315.45 380.13,313.37 380.47,313.94 380.81,317.61 381.14,318.63 381.48,321.06 381.81,326.10 382.14,316.70 382.48,316.43 382.81,309.93 383.15,318.46 383.49,317.09 383.82,314.75 384.15,315.53 384.49,317.98 384.82,321.51 385.16,326.55 385.50,326.62 385.83,324.82 386.17,326.67 386.50,328.64 386.83,328.06 387.17,325.87 387.50,322.11 387.84,322.23 388.18,320.25 388.51,314.77 388.85,310.41 389.18,313.04 389.51,307.83 389.85,303.85 390.19,304.42 390.52,305.04 390.86,301.26 391.19,294.52 391.52,296.60 391.86,293.37 392.19,289.78 392.53,291.25 392.87,293.50 393.20,289.33 393.54,290.25 393.87,287.25 394.20,292.58 394.54,298.30 394.88,295.67 395.21,293.09 395.55,287.38 395.88,287.42 396.21,289.32 396.55,298.78 396.88,297.95 397.22,291.44 397.56,295.18 397.89,299.00 398.23,297.61 398.56,299.54 398.89,301.50 399.23,303.58 399.56,302.01 399.90,301.92 400.24,299.20 400.57,302.73 400.90,297.42 401.24,298.37 401.57,299.23 401.91,293.01 402.25,282.65 402.58,278.60 402.92,279.48 403.25,275.74 403.58,272.62 403.92,275.79 404.25,281.95 404.59,279.72 404.93,275.24 405.26,276.20 405.60,271.99 405.93,267.36 406.26,262.03 406.60,263.99 406.94,262.04 407.27,261.66 407.61,254.29 407.94,252.42 408.27,254.80 408.61,253.26 408.94,249.03 409.28,246.42 409.62,248.00 409.95,247.06 410.29,247.68 410.62,244.94 410.95,243.41 411.29,247.36 411.62,244.94 411.96,240.73 412.30,242.51 412.63,241.90 412.96,236.66 413.30,233.82 413.63,236.65 413.97,238.05 414.31,241.75 414.64,245.42 414.98,235.77 415.31,239.59 415.64,242.10 415.98,246.91 416.31,255.16 416.65,251.41 416.99,255.08 417.32,255.77 417.65,254.39 417.99,258.27 418.32,265.20 418.66,263.14 419.00,264.33 419.33,264.95 419.67,266.77 420.00,271.91 420.33,271.09 420.67,271.34 421.00,274.25 421.34,277.41 421.68,277.76 422.01,273.76 422.35,276.93 422.68,273.56 423.01,268.77 423.35,265.64 423.69,268.40 424.02,269.61 424.36,273.08 424.69,269.48 425.02,268.56 425.36,266.28 425.69,265.84 426.03,264.70 426.37,268.55 426.70,272.38 427.04,271.07 427.37,272.31 427.70,263.98 428.04,265.47 428.38,262.53 428.71,263.36 429.05,260.88 429.38,259.26 429.71,254.95 430.05,258.34 430.38,257.09 430.72,251.70 431.06,257.18 431.39,261.32 431.73,252.88 432.06,248.10 432.39,243.75 432.73,239.36 433.06,235.47 433.40,240.87 433.74,241.26 434.07,246.66 434.40,249.69 434.74,244.78 435.07,248.32 435.41,248.36 435.75,252.79 436.08,244.94 436.42,242.66 436.75,246.56 437.08,247.98 437.42,248.89 437.75,243.44 438.09,241.33 438.43,241.40 438.76,245.05 439.10,248.30 439.43,250.09 439.76,252.97 440.10,252.84 440.44,253.80 440.77,250.87 441.11,248.56 441.44,247.62 441.77,250.37 442.11,252.92 442.44,256.03 442.78,264.01 443.12,265.10 443.45,269.33 443.79,272.95 444.12,266.87 444.45,275.26 444.79,280.18 445.12,279.19 445.46,278.32 445.80,281.13 446.13,281.43 446.46,285.04 446.80,278.63 447.13,283.59 447.47,286.04 447.81,288.72 448.14,283.42 448.48,279.65 448.81,275.28 449.14,275.31 449.48,270.34 449.81,271.83 450.15,269.53 450.49,271.58 450.82,267.70 451.15,267.54 451.49,269.95 451.82,270.78 452.16,272.51 452.50,274.94 452.83,274.50 453.17,275.56 453.50,271.59 453.83,275.09 454.17,275.93 454.50,278.75 454.84,279.89 455.18,280.10 455.51,278.49 455.85,274.89 456.18,267.52 456.51,265.26 456.85,270.45 457.19,267.65 457.52,268.59 457.86,268.87 458.19,275.55 458.52,274.63 458.86,281.34 459.19,284.36 459.53,279.79 459.87,276.90 460.20,276.76 460.54,279.06 460.87,278.30 461.20,278.87 461.54,278.82 461.88,281.91 462.21,279.45 462.55,275.76 462.88,269.00 463.21,272.90 463.55,269.53 463.88,266.18 464.22,266.23 464.56,265.66 464.89,264.96 465.23,260.64 465.56,253.38 465.89,252.24 466.23,251.80 466.56,254.80 466.90,252.06 467.24,251.74 467.57,251.91 467.90,253.99 468.24,254.95 468.57,256.81 468.91,254.59 469.25,254.21 469.58,248.23 469.92,247.53 470.25,246.02 470.58,244.20 470.92,246.25 471.25,248.91 471.59,244.77 471.93,247.06 472.26,242.57 472.60,240.29 472.93,240.96 473.26,244.92 473.60,242.84 473.94,242.59 474.27,241.16 474.61,238.48 474.94,239.69 475.27,234.55 475.61,236.31 475.94,238.11 476.28,236.09 476.62,237.14 476.95,235.62 477.29,233.43 477.62,231.39 477.95,233.85 478.29,238.23 478.62,241.14 478.96,236.94 479.30,233.62 479.63,231.18 479.96,228.63 480.30,227.08 480.63,221.99 480.97,221.25 481.31,219.54 481.64,217.03 481.98,220.03 482.31,222.15 482.64,222.72 482.98,226.65 483.31,226.62 483.65,233.08 483.99,231.41 484.32,239.10 484.65,234.74 484.99,236.99 485.32,232.54 485.66,239.18 486.00,238.30 486.33,232.16 486.67,230.15 487.00,231.15 487.33,232.97 487.67,228.72 488.00,229.16 488.34,228.99 488.68,230.84 489.01,229.15 489.35,224.37 489.68,224.77 490.01,224.02 490.35,223.16 490.69,231.55 491.02,237.09 491.36,235.20 491.69,231.90 492.02,233.32 492.36,234.94 492.69,235.08 493.03,235.50 493.37,229.29 493.70,223.69 494.04,228.00 494.37,224.49 494.70,227.64 495.04,228.87 495.38,221.00 495.71,218.25 496.05,219.17 496.38,213.47 496.71,212.64 497.05,214.50 497.38,209.80 497.72,213.53 498.06,213.77 498.39,210.48 498.73,204.73 499.06,202.26 499.39,198.96 499.73,203.58 500.06,205.28 500.40,206.35 500.74,204.98 501.07,204.68 501.40,206.03 501.74,206.62 502.07,208.40 502.41,206.02 502.75,205.56 503.08,203.95 503.42,204.38 503.75,206.40 504.08,204.54 504.42,205.30 504.75,208.00 505.09,214.29 505.43,208.83 505.76,206.40 506.10,205.92 506.43,197.71 506.76,198.57 507.10,192.66 507.44,198.70 507.77,198.96 508.11,197.27 508.44,196.04 508.77,190.72 509.11,192.28 509.44,190.47 509.78,186.51 510.12,187.71 510.45,185.58 510.79,179.04 511.12,179.10 511.45,176.56 511.79,177.58 512.12,181.56 512.46,183.75 512.80,182.33 513.13,176.25 513.46,175.08 513.80,171.64 514.13,172.70 514.47,172.96 514.81,173.22 515.14,179.71 515.48,177.45 515.81,182.42 516.14,184.34 516.48,183.09 516.82,183.98 517.15,184.15 517.49,178.85 517.82,181.66 518.15,177.21 518.49,178.49 518.83,178.35 519.16,177.36 519.50,176.24 519.83,178.98 520.16,183.33 520.50,178.65 520.84,181.10 521.17,177.54 521.50,177.29 521.84,171.19 522.17,175.98 522.51,179.19 522.85,177.03 523.18,170.28 523.51,167.83 523.85,168.27 524.18,166.80 524.52,158.72 524.86,159.28 525.19,158.90 525.52,163.64 525.86,156.02 526.19,151.26 526.53,148.24 526.87,151.66 527.20,152.25 527.54,148.26 527.87,153.99 528.20,156.25 528.54,158.60 528.88,154.52 529.21,152.58 529.55,148.76 529.88,155.13 530.21,150.94 530.55,157.08 530.88,158.42 531.22,154.46 531.56,160.12 531.89,161.80 532.23,164.41 532.56,164.22 532.89,160.51 533.23,160.78 533.57,159.81 533.90,158.33 534.24,157.13 534.57,158.25 534.90,160.24 535.24,162.20 535.58,163.72 535.91,157.58 536.25,162.04 536.58,164.56 536.91,165.61 537.25,173.06 537.59,173.14 537.92,171.74 538.25,177.42 538.59,171.65 538.92,171.18 539.26,172.03 539.60,168.78 539.93,164.88 540.26,163.74 540.60,161.81 540.93,161.84 541.27,160.07 541.61,155.89 541.94,156.38 542.27,154.08 542.61,155.53 542.94,153.41 543.28,157.74 543.62,155.96 543.95,149.18 544.29,141.91 544.62,143.43 544.95,142.57 545.29,139.13 545.62,140.97 545.96,134.03 546.30,135.69 546.63,132.74 546.96,132.14 547.30,129.07 547.63,125.32 547.97,118.66 548.31,116.97 548.64,117.84 548.98,114.09 549.31,112.13 549.64,109.88 549.98,112.82 550.32,115.49 550.65,113.25 550.99,112.62 551.32,112.09 551.65,114.18 551.99,111.69 552.33,109.02 552.66,103.93 553.00,101.60 553.33,95.55 553.66,94.74 554.00,100.98 554.34,99.45 554.67,92.83 555.00,93.82 555.34,90.48 555.67,89.23 556.01,87.03 556.35,87.74 556.68,86.07 557.01,85.00 557.35,78.44 557.68,85.28 558.02,80.04 558.36,84.83 558.69,79.37 559.02,80.05 559.36,78.31 559.69,79.84 560.03,84.40 560.37,83.55 560.70,83.29 561.04,84.39 561.37,80.89 561.70,83.02 562.04,86.16 562.38,89.78 562.71,90.33 563.05,84.67 563.38,92.38 563.71,89.39 564.05,88.68 564.38,87.41 564.72,87.13 565.06,83.45 565.39,83.27 565.73,87.61 566.06,87.70 566.39,92.68 566.73,96.77 567.07,93.19 567.40,91.96 567.74,83.45 568.07,75.59 568.40,76.12 568.74,77.32 569.08,76.17 569.41,83.52 569.75,86.13 570.08,88.49 570.41,88.23 570.75,89.39 571.09,90.58 571.42,92.46 571.75,95.51 572.09,94.79 572.42,91.32 572.76,89.91 573.10,87.68 573.43,92.25 573.76,97.69 574.10,96.07 574.43,92.04 574.77,87.62 575.11,90.34 575.44,89.18 575.77,91.17 576.11,92.88 576.44,93.99 576.78,92.30 577.12,95.92 577.45,100.49 577.79,99.19 578.12,102.22 578.45,101.84 578.79,103.10 579.12,97.33 579.46,95.77 579.80,89.98 580.13,89.56 580.46,90.20 580.80,83.31 581.13,78.58 581.47,74.56 581.81,71.52 582.14,72.25 582.48,76.03 582.81,75.63 583.14,77.83 583.48,74.89 583.82,72.19 584.15,73.60 584.49,81.69 584.82,83.29 585.15,78.47 585.49,84.46 585.83,81.79 586.16,88.26 586.50,87.19 586.83,89.00 587.16,91.07 587.50,86.81 587.84,88.57 588.17,88.20 588.50,90.95 588.84,88.44 589.17,81.87 589.51,78.40 589.85,82.08 590.18,86.10 590.51,84.42 590.85,88.64 591.18,81.76 591.52,83.63 591.86,82.05 592.19,82.95 592.52,78.95 592.86,83.34 593.19,84.23 593.53,83.59 593.87,84.13 594.20,86.58 594.54,96.19 594.87,98.27 595.20,97.63 595.54,98.24 595.88,99.31 596.21,103.44 596.55,103.19 596.88,108.73 597.22,110.26 597.55,115.95 597.88,115.50 598.22,112.89 598.55,111.05 598.89,106.56 599.23,104.51 599.56,106.22 599.89,107.07 600.23,108.61 600.57,113.58 600.90,116.32 601.24,110.48 601.57,111.84 601.90,115.24 602.24,113.21 602.58,118.67 602.91,113.21 603.25,116.85 603.58,113.55 603.91,113.04 604.25,109.91 604.59,108.31 604.92,109.87 605.25,111.19 605.59,114.86 605.92,113.75 606.26,110.54 606.60,107.11 606.93,110.34 607.26,110.20 607.60,111.46 607.93,110.16 608.27,113.46 608.61,111.12 608.94,107.09 609.27,112.23 609.61,114.42 609.95,111.72 610.28,108.11 610.62,113.57 610.95,115.53 611.28,118.55 611.62,116.58 611.96,112.07 612.29,118.34 612.62,114.78 612.96,112.15 613.29,113.62 613.63,111.06 613.97,105.91 614.30,107.16 614.63,105.43 614.97,104.51 615.30,107.21 615.64,108.25 615.98,102.27 616.31,101.57 616.64,102.32 616.98,105.71 617.32,106.40 617.65,107.92 617.99,110.28 618.32,107.77 618.65,109.43 618.99,107.44 619.33,102.36 619.66,105.71 620.00,99.74 620.33,93.16 620.66,95.31 621.00,95.84 621.34,92.37 621.67,96.17 622.00,93.80 622.34,95.15 622.67,92.27 623.01,99.58 623.35,101.76 623.68,101.90 624.01,99.70 624.35,100.55 624.68,99.62 625.02,97.19 625.36,96.83 625.69,92.75 626.02,95.84 626.36,97.65 626.70,87.79 627.03,87.24 627.37,91.71 627.70,93.91 628.03,87.88 628.37,90.16 628.71,88.62 629.04,85.30 629.38,88.31 629.71,83.27 630.04,79.86 630.38,82.80 630.72,85.36 631.05,79.31 631.38,82.91 631.72,85.22 632.05,84.37 632.39,85.32 632.73,84.92 633.06,84.67 633.39,78.73 633.73,84.31 634.07,83.57 634.40,86.16 634.74,86.52 635.07,85.88 635.40,86.68 635.74,93.62 636.08,92.72 636.41,92.83 636.75,99.23 637.08,103.05 637.41,100.40 637.75,102.75 638.09,100.62 638.42,100.96 638.75,103.42 639.09,109.09 639.42,111.20 639.76,112.69 640.10,109.96 640.43,110.84 640.76,111.93 641.10,117.51 641.43,117.85 641.77,121.54 642.11,116.87 642.44,120.90 642.77,120.69 643.11,120.15 643.45,118.14 643.78,119.38 644.12,116.58 644.45,119.00 644.78,118.80 645.12,117.83 645.46,120.30 645.79,122.03 646.12,122.66 646.46,123.32 646.79,126.53 647.13,125.50 647.47,127.96 647.80,129.03 648.13,130.75 648.47,130.38 648.80,127.65 649.14,130.34 649.48,130.79 649.81,132.65 650.14,125.29 650.48,128.52 650.82,124.49 651.15,128.55 651.49,131.14 651.82,130.24 652.15,128.24 652.49,128.74 652.83,128.24 653.16,127.45 653.50,128.74 653.83,128.14 654.16,126.63 654.50,122.29 654.84,123.01 655.17,124.14 655.50,126.05 655.84,120.19 656.17,120.61 656.51,122.24 656.85,120.74 657.18,118.21 657.51,121.53 657.85,123.30 658.18,120.56 658.52,120.72 658.86,118.77 659.19,115.84 659.52,116.42 659.86,112.97 660.20,110.58 660.53,108.61 660.87,108.51 661.20,107.68 661.53,104.58 661.87,104.78 662.21,103.91 662.54,103.31 662.88,102.74 663.21,103.57 663.54,98.70 663.88,103.01 664.22,97.87 664.55,88.78 664.88,93.07 665.22,93.67 665.55,91.15 665.89,90.18 666.23,90.61 666.56,89.22 666.89,86.75 667.23,84.62 667.57,86.12 667.90,89.53 668.24,89.46 668.57,87.08 668.90,89.61 669.24,89.61 669.58,88.79 669.91,87.80 670.25,90.66 670.58,96.33 670.91,95.35 671.25,92.65 671.59,89.54 671.92,90.19 672.25,86.21 672.59,85.39 672.92,84.53 673.26,88.28 673.60,86.60 673.93,85.76 674.26,87.47 674.60,88.53 674.93,90.02 675.27,87.78 675.61,86.22 675.94,85.94 676.27,84.88 676.61,86.80 676.95,86.94 677.28,88.49 677.62,88.05 677.95,83.26 678.28,84.36 678.62,82.63 678.96,78.82 679.29,79.36 679.62,79.61 679.96,83.14 680.29,86.44 680.63,86.52 680.97,84.19 681.30,87.77 681.63,89.44 681.97,89.68 682.30,89.27 682.64,96.04 682.98,95.31 683.31,96.73 683.64,93.93 683.98,88.56 684.32,92.62 684.65,89.58 684.99,90.44 685.32,92.29 685.65,86.68 685.99,84.01 686.33,82.28 686.66,82.66 687.00,80.43 687.33,81.40 687.66,81.59 688.00,79.07 688.34,81.12 688.67,84.17 689.00,88.61 689.34,93.73 689.67,95.34 690.01,93.22 690.35,90.09 690.68,90.03 691.01,89.79 691.35,88.07 691.68,82.58 692.02,82.26 692.36,85.23 692.69,84.62 693.02,84.37 693.36,85.34 693.70,90.06 694.03,89.22 694.37,93.81 694.70,92.03 695.03,89.85 695.37,95.02 695.71,99.92 696.04,95.95 696.38,94.43 696.71,96.29 697.04,96.99 697.38,100.50 697.72,99.62 698.05,104.33 698.38,102.98 698.72,102.81 699.05,102.55 699.39,102.14 699.73,102.12 700.06,105.17 700.39,102.83 700.73,109.72 701.07,108.32 701.40,109.74 701.74,112.39 702.07,111.97 702.40,114.52 702.74,108.46 703.08,107.92 703.41,106.90 703.75,107.68 704.08,106.39 704.41,103.97 704.75,104.59 705.09,104.55 705.42,100.88 705.75,94.56 706.09,93.55 706.42,96.34 706.76,98.54 707.10,96.64 707.43,97.96 707.76,95.09 708.10,94.91 708.43,96.58 708.77,95.29 709.11,94.44 709.44,93.82 709.77,94.78 710.11,95.74 710.45,93.16 710.78,85.72 711.12,82.90 711.45,82.72 711.78,86.08 712.12,84.64 712.46,87.06 712.79,90.41 713.12,86.54 713.46,92.44 713.79,92.87 714.13,94.90 714.47,96.87 714.80,95.16 715.13,95.16 715.47,95.39 715.80,96.59 716.14,95.43 716.48,99.91 716.81,101.11 717.14,101.52 717.48,102.58 717.82,107.79 718.15,106.80 718.49,112.90 718.82,114.11 719.15,113.98 719.49,119.80 719.83,122.94 720.16,125.47 720.50,126.80 720.83,123.33 721.16,118.36 721.50,119.27 721.84,119.94 722.17,121.35 722.50,120.80 722.84,120.63 723.17,120.69 723.51,119.73 723.85,118.99 724.18,121.10 724.51,123.33 724.85,123.21 725.18,125.83 725.52,126.72 725.86,129.18 726.19,128.35 726.52,130.00 726.86,129.62 727.20,133.66 727.53,132.70 727.87,132.89 728.20,133.68 728.53,131.46 728.87,132.41 729.21,129.56 729.54,129.12 729.88,128.45 730.21,129.10 730.54,133.65 730.88,133.33 731.22,133.34 731.55,132.48 731.88,134.88 732.22,136.04 732.55,134.40 732.89,139.31 733.23,141.35 733.56,144.94 733.89,145.42 734.23,146.49 734.57,146.51 734.90,142.38 735.24,138.92 735.57,137.15 735.90,137.32 736.24,137.09 736.58,135.35 736.91,129.96 737.25,128.22 737.58,127.01 737.91,129.20 738.25,129.38 738.59,128.29 738.92,129.07 739.25,132.81 739.59,131.26 739.92,127.59 740.26,128.25 740.60,128.33 740.93,124.61 741.26,122.19 741.60,122.66 741.93,123.07 742.27,122.62 742.61,128.09 742.94,126.80 743.27,127.96 743.61,126.47 743.95,128.04 744.28,123.65 744.62,123.86 744.95,124.62 745.28,125.65 745.62,125.65 745.96,125.85 746.29,125.28 746.62,128.36 746.96,126.70 747.29,127.06 747.63,126.00 747.97,126.78 748.30,126.34 748.63,124.27 748.97,124.82 749.30,123.46 749.64,125.15 749.98,125.46 750.31,123.21 750.64,123.03 750.98,125.09 751.32,127.00 751.65,125.99 751.99,124.96 752.32,124.61 752.65,126.30 752.99,126.83 753.33,126.65 753.66,125.32 754.00,125.12 754.33,124.74 754.66,123.18 755.00,120.36 755.00,126.69"/>
<line x1="783" y1="58" x2="809" y2="58" stroke="#2563eb" stroke-width="3"/>
<text x="817" y="62" font-family="Arial" font-size="13" fill="#111827">Naive</text>
<polyline fill="none" stroke="#dc2626" stroke-width="2" points="85.00,437.03 85.33,437.00 85.67,436.97 86.00,436.94 86.34,436.92 86.67,436.89 87.01,436.86 87.34,436.82 87.68,436.79 88.02,436.75 88.35,436.72 88.69,436.69 89.02,436.67 89.36,436.65 89.69,436.61 90.03,436.53 90.36,436.51 90.69,436.46 91.03,436.40 91.36,436.35 91.70,436.36 92.03,436.31 92.37,436.30 92.70,436.30 93.04,436.30 93.38,436.28 93.71,436.23 94.05,436.28 94.38,436.24 94.72,436.20 95.05,436.20 95.39,436.16 95.72,436.05 96.06,436.07 96.39,436.02 96.72,435.95 97.06,436.02 97.39,436.04 97.73,436.02 98.06,436.00 98.40,436.01 98.73,435.99 99.07,435.95 99.41,435.94 99.74,435.88 100.08,435.93 100.41,435.80 100.75,435.85 101.08,435.80 101.41,435.78 101.75,435.68 102.09,435.64 102.42,435.68 102.75,435.68 103.09,435.64 103.42,435.55 103.76,435.62 104.09,435.55 104.43,435.60 104.77,435.66 105.10,435.66 105.44,435.66 105.77,435.65 106.11,435.60 106.44,435.62 106.78,435.57 107.11,435.48 107.44,435.54 107.78,435.60 108.11,435.60 108.45,435.60 108.78,435.61 109.12,435.57 109.45,435.54 109.79,435.50 110.12,435.48 110.46,435.43 110.80,435.42 111.13,435.37 111.47,435.35 111.80,435.31 112.14,435.29 112.47,435.24 112.81,435.23 113.14,435.20 113.47,435.17 113.81,435.17 114.14,435.14 114.48,435.11 114.81,435.08 115.15,435.05 115.48,435.03 115.82,434.97 116.16,434.95 116.49,434.95 116.83,434.94 117.16,434.92 117.50,434.94 117.83,434.93 118.16,434.91 118.50,434.90 118.84,434.86 119.17,434.85 119.50,434.85 119.84,434.96 120.17,434.91 120.51,434.92 120.84,434.82 121.18,434.84 121.52,434.85 121.85,434.74 122.19,434.67 122.52,434.57 122.85,434.59 123.19,434.57 123.53,434.55 123.86,434.49 124.19,434.50 124.53,434.58 124.87,434.62 125.20,434.57 125.53,434.56 125.87,434.51 126.20,434.62 126.54,434.56 126.88,434.56 127.21,434.54 127.55,434.47 127.88,434.46 128.22,434.45 128.55,434.37 128.88,434.31 129.22,434.27 129.56,434.25 129.89,434.26 130.22,434.46 130.56,434.31 130.90,434.29 131.23,434.10 131.56,434.17 131.90,434.16 132.24,434.23 132.57,434.25 132.91,434.32 133.24,434.15 133.57,434.10 133.91,434.16 134.25,434.19 134.58,434.05 134.91,433.92 135.25,433.87 135.59,433.97 135.92,433.87 136.25,433.71 136.59,433.74 136.93,433.65 137.26,433.39 137.59,433.25 137.93,433.13 138.26,432.97 138.60,433.12 138.94,433.15 139.27,433.13 139.60,432.87 139.94,432.81 140.28,432.86 140.61,432.66 140.94,432.80 141.28,432.76 141.62,432.83 141.95,432.80 142.28,432.71 142.62,432.45 142.95,432.35 143.29,432.19 143.62,432.08 143.96,432.15 144.30,432.12 144.63,432.04 144.97,432.31 145.30,432.30 145.63,432.26 145.97,432.59 146.31,432.57 146.64,432.51 146.97,432.35 147.31,432.67 147.65,432.49 147.98,432.31 148.31,432.05 148.65,431.94 148.99,431.72 149.32,431.37 149.66,431.50 149.99,431.52 150.32,431.66 150.66,431.66 151.00,431.82 151.33,431.51 151.67,431.39 152.00,431.48 152.33,431.52 152.67,431.73 153.00,431.77 153.34,432.15 153.68,431.77 154.01,431.66 154.34,431.58 154.68,431.77 155.01,431.87 155.35,431.59 155.69,431.71 156.02,431.08 156.36,431.17 156.69,431.02 157.03,430.99 157.36,431.30 157.69,431.19 158.03,431.06 158.37,430.86 158.70,430.92 159.03,431.17 159.37,431.06 159.70,431.13 160.04,430.89 160.38,430.85 160.71,430.42 161.05,430.23 161.38,430.55 161.72,430.66 162.05,430.40 162.38,430.54 162.72,430.49 163.06,430.22 163.39,429.99 163.72,429.78 164.06,429.92 164.39,430.53 164.73,430.43 165.06,430.68 165.40,430.73 165.74,431.03 166.07,430.72 166.41,430.91 166.74,430.84 167.07,430.22 167.41,429.84 167.75,430.10 168.08,429.86 168.42,429.62 168.75,429.97 169.08,430.30 169.42,430.64 169.75,430.51 170.09,430.18 170.43,429.82 170.76,429.60 171.09,429.85 171.43,429.85 171.76,429.87 172.10,429.92 172.44,429.96 172.77,430.11 173.11,429.99 173.44,429.70 173.78,429.56 174.11,429.39 174.44,429.48 174.78,429.45 175.12,428.81 175.45,429.33 175.78,429.23 176.12,429.14 176.45,429.06 176.79,429.21 177.12,429.56 177.46,429.15 177.80,429.51 178.13,429.30 178.47,428.94 178.80,428.75 179.13,428.40 179.47,428.05 179.81,427.55 180.14,427.31 180.47,427.56 180.81,428.12 181.14,427.90 181.48,427.61 181.81,427.63 182.15,427.76 182.49,427.71 182.82,428.37 183.16,428.10 183.49,427.75 183.82,427.81 184.16,427.47 184.50,426.97 184.83,426.73 185.17,426.51 185.50,426.22 185.83,426.67 186.17,426.96 186.50,427.35 186.84,427.48 187.18,427.07 187.51,427.52 187.84,426.62 188.18,426.69 188.51,426.00 188.85,424.71 189.19,425.14 189.52,425.38 189.86,424.79 190.19,423.80 190.53,422.35 190.86,422.26 191.19,423.08 191.53,422.73 191.87,423.83 192.20,425.20 192.53,424.21 192.87,424.94 193.20,423.53 193.54,424.83 193.88,424.35 194.21,424.00 194.55,424.21 194.88,423.78 195.22,421.96 195.55,420.20 195.88,418.85 196.22,417.15 196.56,416.56 196.89,417.49 197.22,418.41 197.56,417.28 197.89,416.99 198.23,418.33 198.56,417.45 198.90,418.58 199.24,419.98 199.57,420.67 199.91,419.34 200.24,418.86 200.57,417.95 200.91,418.93 201.25,419.14 201.58,418.27 201.92,418.11 202.25,418.15 202.58,418.73 202.92,419.30 203.25,420.49 203.59,421.42 203.93,422.14 204.26,419.90 204.59,418.40 204.93,418.05 205.26,418.67 205.60,418.35 205.94,419.67 206.27,422.40 206.61,422.62 206.94,424.41 207.28,424.25 207.61,425.25 207.94,426.73 208.28,425.30 208.62,424.66 208.95,426.54 209.28,427.87 209.62,430.43 209.95,430.97 210.29,431.61 210.62,431.80 210.96,432.40 211.30,430.95 211.63,431.40 211.97,433.12 212.30,433.00 212.63,432.11 212.97,432.42 213.31,433.12 213.64,432.20 213.97,433.33 214.31,432.42 214.65,434.63 214.98,434.02 215.31,433.10 215.65,433.64 215.99,434.29 216.32,432.98 216.66,434.81 216.99,433.93 217.32,433.79 217.66,432.87 218.00,431.72 218.33,432.59 218.66,431.26 219.00,431.56 219.34,432.30 219.67,432.37 220.00,432.01 220.34,430.80 220.68,431.90 221.01,431.32 221.34,431.50 221.68,430.97 222.01,431.92 222.35,430.49 222.69,430.04 223.02,431.41 223.35,431.97 223.69,432.22 224.03,431.90 224.36,431.07 224.69,430.73 225.03,429.66 225.37,429.44 225.70,426.75 226.03,427.66 226.37,427.59 226.71,427.94 227.04,425.22 227.38,424.52 227.71,423.19 228.04,422.86 228.38,422.55 228.72,422.77 229.05,424.95 229.38,424.65 229.72,423.47 230.06,423.72 230.39,425.95 230.72,424.70 231.06,423.53 231.40,424.60 231.73,425.74 232.06,424.78 232.40,423.83 232.74,425.14 233.07,426.30 233.41,425.22 233.74,424.22 234.07,425.28 234.41,422.46 234.75,421.69 235.08,422.60 235.41,420.84 235.75,421.82 236.09,423.62 236.42,423.04 236.75,421.33 237.09,420.08 237.43,419.99 237.76,421.70 238.09,422.08 238.43,420.49 238.76,420.35 239.10,421.13 239.44,421.02 239.77,420.27 240.10,421.40 240.44,421.44 240.78,420.79 241.11,422.08 241.44,420.58 241.78,419.30 242.12,420.75 242.45,420.94 242.78,419.91 243.12,420.92 243.46,422.53 243.79,422.72 244.12,420.62 244.46,420.08 244.79,421.37 245.13,420.88 245.47,422.02 245.80,422.64 246.13,423.76 246.47,425.70 246.81,426.31 247.14,425.24 247.47,424.29 247.81,425.88 248.15,425.98 248.48,426.02 248.81,426.41 249.15,426.83 249.49,425.49 249.82,421.88 250.16,422.40 250.49,420.99 250.82,422.77 251.16,421.03 251.50,419.24 251.83,419.13 252.16,417.81 252.50,417.05 252.84,417.49 253.17,417.80 253.50,417.09 253.84,419.02 254.18,418.15 254.51,415.26 254.84,413.45 255.18,414.01 255.51,413.96 255.85,411.38 256.19,409.57 256.52,408.49 256.86,408.54 257.19,408.14 257.52,409.99 257.86,410.96 258.19,408.99 258.53,409.26 258.87,407.27 259.20,405.71 259.53,405.57 259.87,404.66 260.21,404.78 260.54,407.17 260.88,407.67 261.21,407.60 261.54,408.58 261.88,408.18 262.22,406.66 262.55,403.66 262.88,402.95 263.22,402.77 263.56,401.43 263.89,398.32 264.23,398.64 264.56,398.65 264.89,401.23 265.23,398.49 265.56,398.15 265.90,397.49 266.24,398.76 266.57,403.53 266.90,401.96 267.24,405.77 267.57,404.19 267.91,401.55 268.25,398.52 268.58,400.61 268.91,403.98 269.25,402.53 269.59,403.88 269.92,403.95 270.25,408.63 270.59,408.71 270.93,405.91 271.26,403.12 271.60,402.63 271.93,403.95 272.26,401.92 272.60,401.22 272.94,399.27 273.27,399.24 273.61,400.04 273.94,404.19 274.27,409.20 274.61,410.95 274.94,408.64 275.28,408.43 275.62,406.36 275.95,407.58 276.28,404.96 276.62,405.64 276.96,406.34 277.29,407.03 277.62,406.14 277.96,404.42 278.29,405.35 278.63,408.09 278.97,406.71 279.30,413.20 279.63,412.71 279.97,413.21 280.31,413.99 280.64,412.74 280.98,412.98 281.31,411.77 281.64,407.40 281.98,408.89 282.31,411.74 282.65,411.90 282.99,412.33 283.32,412.05 283.65,409.96 283.99,409.97 284.32,413.99 284.66,413.84 285.00,415.77 285.33,420.18 285.66,418.75 286.00,415.96 286.34,417.24 286.67,415.50 287.00,416.66 287.34,418.93 287.68,420.99 288.01,424.63 288.35,426.66 288.68,428.41 289.01,425.21 289.35,422.52 289.69,424.33 290.02,423.57 290.36,421.67 290.69,421.62 291.02,423.62 291.36,426.75 291.69,429.02 292.03,430.43 292.37,428.08 292.70,425.27 293.03,423.47 293.37,421.18 293.71,422.94 294.04,425.95 294.38,424.15 294.71,423.61 295.04,418.10 295.38,419.96 295.72,420.56 296.05,419.20 296.38,420.94 296.72,424.40 297.06,427.47 297.39,424.67 297.73,424.32 298.06,426.22 298.39,429.05 298.73,427.10 299.06,424.66 299.40,424.77 299.74,422.82 300.07,416.76 300.40,421.07 300.74,422.43 301.07,422.63 301.41,424.00 301.75,421.96 302.08,422.65 302.41,421.16 302.75,423.50 303.09,422.59 303.42,421.73 303.75,420.87 304.09,418.05 304.43,420.31 304.76,420.50 305.10,423.69 305.43,424.64 305.76,429.10 306.10,429.65 306.44,430.50 306.77,429.45 307.11,431.45 307.44,433.96 307.77,436.95 308.11,436.07 308.44,437.43 308.78,435.13 309.12,431.47 309.45,428.25 309.78,428.81 310.12,431.23 310.46,434.01 310.79,438.22 311.12,437.44 311.46,436.75 311.79,437.15 312.13,437.47 312.47,436.64 312.80,437.40 313.13,432.73 313.47,433.07 313.81,434.27 314.14,436.13 314.48,436.79 314.81,436.28 315.14,436.83 315.48,437.01 315.81,435.74 316.15,434.16 316.49,434.85 316.82,433.00 317.15,434.79 317.49,436.77 317.82,437.66 318.16,438.74 318.50,438.64 318.83,440.08 319.16,435.87 319.50,436.91 319.84,434.35 320.17,433.28 320.50,432.06 320.84,431.65 321.18,428.58 321.51,426.86 321.85,426.62 322.18,427.42 322.51,427.41 322.85,426.92 323.19,423.46 323.52,422.83 323.86,421.57 324.19,421.75 324.52,419.27 324.86,419.34 325.19,418.64 325.53,416.54 325.87,413.06 326.20,413.66 326.53,411.97 326.87,412.08 327.21,413.39 327.54,414.02 327.88,414.30 328.21,415.89 328.54,416.47 328.88,415.85 329.22,416.43 329.55,418.08 329.88,418.40 330.22,420.89 330.56,417.43 330.89,418.14 331.23,416.69 331.56,419.40 331.89,416.73 332.23,416.43 332.56,415.28 332.90,414.61 333.24,413.93 333.57,416.02 333.90,415.97 334.24,417.51 334.57,416.43 334.91,416.09 335.25,413.84 335.58,411.81 335.91,409.82 336.25,408.35 336.59,405.81 336.92,406.88 337.25,405.77 337.59,401.23 337.93,400.37 338.26,398.37 338.60,400.23 338.93,395.88 339.26,396.36 339.60,399.68 339.94,397.96 340.27,396.29 340.61,394.63 340.94,395.77 341.27,395.24 341.61,394.40 341.94,391.97 342.28,392.09 342.62,389.60 342.95,387.02 343.29,389.86 343.62,392.06 343.95,390.60 344.29,385.87 344.62,383.32 344.96,379.33 345.30,382.24 345.63,381.74 345.96,385.38 346.30,384.97 346.63,385.03 346.97,388.65 347.31,386.59 347.64,387.80 347.98,390.34 348.31,388.38 348.64,392.80 348.98,390.88 349.31,390.15 349.65,391.42 349.99,386.65 350.32,388.07 350.65,388.82 350.99,392.40 351.32,394.83 351.66,394.13 352.00,394.65 352.33,395.69 352.67,391.52 353.00,390.95 353.33,384.16 353.67,386.15 354.00,381.97 354.34,381.80 354.68,382.65 355.01,382.03 355.35,382.75 355.68,385.71 356.01,392.24 356.35,394.24 356.69,396.30 357.02,396.71 357.36,398.39 357.69,397.92 358.02,393.65 358.36,389.69 358.69,386.60 359.03,383.52 359.37,379.30 359.70,376.76 360.04,379.49 360.37,376.69 360.70,373.02 361.04,375.20 361.38,372.45 361.71,370.62 362.05,366.37 362.38,366.26 362.71,370.63 363.05,369.53 363.38,367.95 363.72,364.55 364.06,363.95 364.39,362.53 364.73,364.86 365.06,362.69 365.39,360.48 365.73,359.70 366.06,355.90 366.40,361.33 366.74,364.20 367.07,362.91 367.40,360.59 367.74,357.15 368.07,353.08 368.41,346.98 368.75,345.28 369.08,348.80 369.42,344.25 369.75,346.97 370.08,345.24 370.42,346.62 370.75,343.93 371.09,341.96 371.43,334.42 371.76,335.14 372.10,334.57 372.43,332.86 372.76,328.21 373.10,325.75 373.44,328.60 373.77,330.42 374.11,327.96 374.44,329.34 374.77,330.83 375.11,328.72 375.44,329.60 375.78,334.08 376.12,333.47 376.45,334.42 376.79,335.70 377.12,337.18 377.45,342.55 377.79,338.25 378.12,336.73 378.46,336.10 378.80,339.24 379.13,336.31 379.46,330.65 379.80,324.42 380.13,322.09 380.47,322.42 380.81,325.85 381.14,326.64 381.48,328.84 381.81,333.85 382.14,324.45 382.48,324.18 382.81,317.68 383.15,326.21 383.49,324.84 383.82,322.50 384.15,323.28 384.49,325.73 384.82,329.26 385.16,334.30 385.50,334.37 385.83,332.57 386.17,334.42 386.50,336.39 386.83,335.81 387.17,333.62 387.50,329.86 387.84,329.98 388.18,328.00 388.51,322.52 388.85,318.16 389.18,320.79 389.51,315.58 389.85,311.60 390.19,312.17 390.52,312.79 390.86,309.01 391.19,302.27 391.52,304.35 391.86,301.12 392.19,297.53 392.53,299.01 392.87,301.25 393.20,297.08 393.54,298.00 393.87,295.00 394.20,300.33 394.54,306.05 394.88,303.42 395.21,300.84 395.55,295.13 395.88,295.17 396.21,297.07 396.55,306.53 396.88,305.70 397.22,299.19 397.56,302.93 397.89,306.75 398.23,305.36 398.56,307.29 398.89,309.25 399.23,311.33 399.56,309.76 399.90,309.67 400.24,306.95 400.57,310.48 400.90,305.17 401.24,306.12 401.57,306.98 401.91,300.76 402.25,290.40 402.58,286.35 402.92,287.23 403.25,283.49 403.58,280.37 403.92,283.54 404.25,289.70 404.59,287.47 404.93,283.00 405.26,283.95 405.60,279.74 405.93,275.12 406.26,269.78 406.60,271.74 406.94,269.79 407.27,269.41 407.61,262.04 407.94,260.18 408.27,262.55 408.61,261.02 408.94,256.78 409.28,254.17 409.62,255.76 409.95,254.82 410.29,255.43 410.62,252.69 410.95,251.16 411.29,255.11 411.62,252.69 411.96,248.48 412.30,250.27 412.63,249.66 412.96,244.42 413.30,241.57 413.63,244.40 413.97,245.80 414.31,249.50 414.64,253.17 414.98,243.52 415.31,247.34 415.64,249.85 415.98,254.66 416.31,262.91 416.65,259.17 416.99,262.83 417.32,263.53 417.65,262.14 417.99,266.02 418.32,272.95 418.66,270.89 419.00,272.08 419.33,272.70 419.67,274.52 420.00,279.66 420.33,278.84 420.67,279.10 421.00,282.01 421.34,285.17 421.68,285.52 422.01,281.51 422.35,284.68 422.68,281.31 423.01,276.52 423.35,273.39 423.69,276.15 424.02,277.37 424.36,280.83 424.69,277.23 425.02,276.32 425.36,274.03 425.69,273.60 426.03,272.45 426.37,276.30 426.70,280.13 427.04,278.82 427.37,280.06 427.70,271.73 428.04,273.22 428.38,270.28 428.71,271.11 429.05,268.63 429.38,267.01 429.71,262.71 430.05,266.09 430.38,264.84 430.72,259.45 431.06,264.93 431.39,269.07 431.73,260.63 432.06,255.86 432.39,251.51 432.73,247.11 433.06,243.22 433.40,248.62 433.74,249.01 434.07,254.42 434.40,257.44 434.74,252.53 435.07,256.07 435.41,256.12 435.75,260.54 436.08,252.70 436.42,250.41 436.75,254.32 437.08,255.74 437.42,256.65 437.75,251.19 438.09,249.08 438.43,249.15 438.76,252.81 439.10,256.06 439.43,257.85 439.76,260.72 440.10,260.60 440.44,261.55 440.77,258.62 441.11,256.32 441.44,255.37 441.77,258.12 442.11,260.68 442.44,263.78 442.78,271.73 443.12,272.80 443.45,277.04 443.79,280.66 444.12,274.62 444.45,283.00 444.79,287.93 445.12,286.94 445.46,286.09 445.80,288.91 446.13,289.23 446.46,292.84 446.80,286.44 447.13,291.41 447.47,293.87 447.81,296.58 448.14,291.32 448.48,287.59 448.81,283.26 449.14,283.29 449.48,278.35 449.81,279.86 450.15,277.59 450.49,279.62 450.82,275.81 451.15,275.66 451.49,278.05 451.82,278.87 452.16,280.59 452.50,283.00 452.83,282.58 453.17,283.63 453.50,279.72 453.83,283.18 454.17,284.02 454.50,286.82 454.84,287.95 455.18,288.18 455.51,286.59 455.85,283.08 456.18,275.83 456.51,273.61 456.85,278.71 457.19,275.97 457.52,276.90 457.86,277.18 458.19,283.75 458.52,282.86 458.86,289.46 459.19,292.43 459.53,287.97 459.87,285.14 460.20,285.00 460.54,287.28 460.87,286.53 461.20,287.10 461.54,287.06 461.88,290.08 462.21,287.68 462.55,284.08 462.88,277.46 463.21,281.29 463.55,277.99 463.88,274.73 464.22,274.78 464.56,274.23 464.89,273.55 465.23,269.33 465.56,262.25 465.89,261.14 466.23,260.72 466.56,263.65 466.90,260.98 467.24,260.68 467.57,260.86 467.90,262.87 468.24,263.81 468.57,265.62 468.91,263.47 469.25,263.11 469.58,257.32 469.92,256.64 470.25,255.17 470.58,253.41 470.92,255.39 471.25,257.98 471.59,253.98 471.93,256.20 472.26,251.85 472.60,249.64 472.93,250.29 473.26,254.12 473.60,252.11 473.94,251.86 474.27,250.48 474.61,247.88 474.94,249.05 475.27,244.07 475.61,245.77 475.94,247.51 476.28,245.55 476.62,246.57 476.95,245.09 477.29,242.97 477.62,240.99 477.95,243.36 478.29,247.61 478.62,250.44 478.96,246.38 479.30,243.16 479.63,240.79 479.96,238.32 480.30,236.82 480.63,231.88 480.97,231.16 481.31,229.50 481.64,226.92 481.98,229.74 482.31,231.70 482.64,232.17 482.98,235.96 483.31,235.85 483.65,242.20 483.99,240.53 484.32,248.18 484.65,243.85 484.99,246.10 485.32,241.67 485.66,248.27 486.00,247.39 486.33,241.31 486.67,239.33 487.00,240.37 487.33,242.20 487.67,238.03 488.00,238.48 488.34,238.33 488.68,240.15 489.01,238.48 489.35,233.69 489.68,233.98 490.01,233.20 490.35,232.25 490.69,240.57 491.02,246.10 491.36,244.23 491.69,240.94 492.02,242.37 492.36,244.00 492.69,244.13 493.03,244.56 493.37,238.41 493.70,232.86 494.04,237.14 494.37,233.71 494.70,236.86 495.04,238.10 495.38,230.36 495.71,227.66 496.05,228.55 496.38,222.86 496.71,222.01 497.05,223.74 497.38,218.96 497.72,222.59 498.06,222.83 498.39,219.54 498.73,213.79 499.06,211.32 499.39,208.02 499.73,212.64 500.06,214.34 500.40,215.41 500.74,214.04 501.07,213.74 501.40,215.09 501.74,215.68 502.07,217.46 502.41,215.08 502.75,214.61 503.08,213.01 503.42,213.44 503.75,215.46 504.08,213.60 504.42,214.36 504.75,217.06 505.09,223.35 505.43,217.89 505.76,215.45 506.10,214.98 506.43,206.77 506.76,207.63 507.10,201.72 507.44,207.76 507.77,208.01 508.11,206.33 508.44,205.10 508.77,199.78 509.11,201.34 509.44,199.53 509.78,195.57 510.12,196.77 510.45,194.64 510.79,188.10 511.12,188.16 511.45,185.62 511.79,186.64 512.12,190.62 512.46,192.81 512.80,191.39 513.13,185.31 513.46,184.14 513.80,180.70 514.13,181.76 514.47,182.02 514.81,182.28 515.14,188.77 515.48,186.52 515.81,191.49 516.14,193.40 516.48,192.15 516.82,193.04 517.15,193.21 517.49,187.91 517.82,190.72 518.15,186.27 518.49,187.55 518.83,187.42 519.16,186.42 519.50,185.30 519.83,188.04 520.16,192.39 520.50,187.71 520.84,190.16 521.17,186.60 521.50,186.35 521.84,180.25 522.17,185.04 522.51,188.25 522.85,186.09 523.18,179.34 523.51,176.90 523.85,177.33 524.18,175.86 524.52,167.78 524.86,168.34 525.19,167.97 525.52,172.70 525.86,165.08 526.19,160.32 526.53,157.30 526.87,160.73 527.20,161.31 527.54,157.32 527.87,163.06 528.20,165.31 528.54,167.66 528.88,163.58 529.21,161.64 529.55,157.82 529.88,164.19 530.21,160.01 530.55,166.14 530.88,167.48 531.22,163.53 531.56,169.18 531.89,170.86 532.23,173.47 532.56,173.29 532.89,169.57 533.23,169.84 533.57,168.88 533.90,167.39 534.24,166.19 534.57,167.31 534.90,169.30 535.24,171.26 535.58,172.78 535.91,166.64 536.25,171.10 536.58,173.62 536.91,174.68 537.25,182.12 537.59,182.20 537.92,180.81 538.25,186.48 538.59,180.71 538.92,180.24 539.26,181.09 539.60,177.84 539.93,173.94 540.26,172.80 540.60,170.87 540.93,170.90 541.27,169.13 541.61,164.95 541.94,165.44 542.27,163.14 542.61,164.59 542.94,162.48 543.28,166.80 543.62,165.02 543.95,158.24 544.29,150.97 544.62,152.50 544.95,151.64 545.29,148.19 545.62,150.03 545.96,143.09 546.30,144.76 546.63,141.80 546.96,141.20 547.30,138.13 547.63,134.39 547.97,127.73 548.31,126.04 548.64,126.91 548.98,123.15 549.31,121.20 549.64,118.94 549.98,121.89 550.32,124.56 550.65,122.32 550.99,121.68 551.32,121.15 551.65,123.25 551.99,120.76 552.33,118.08 552.66,113.00 553.00,110.66 553.33,104.61 553.66,103.80 554.00,110.04 554.34,108.52 554.67,101.90 555.00,102.89 555.34,99.55 555.67,98.29 556.01,96.10 556.35,96.81 556.68,95.13 557.01,94.06 557.35,87.50 557.68,94.34 558.02,89.10 558.36,93.90 558.69,88.44 559.02,89.11 559.36,87.37 559.69,88.91 560.03,93.46 560.37,92.62 560.70,92.36 561.04,93.46 561.37,89.96 561.70,92.09 562.04,95.22 562.38,98.84 562.71,99.39 563.05,93.74 563.38,101.44 563.71,98.46 564.05,97.74 564.38,96.47 564.72,96.19 565.06,92.51 565.39,92.33 565.73,96.67 566.06,96.77 566.39,101.75 566.73,105.83 567.07,102.25 567.40,101.02 567.74,92.52 568.07,84.65 568.40,85.19 568.74,86.39 569.08,85.24 569.41,92.58 569.75,95.20 570.08,97.56 570.41,97.30 570.75,98.45 571.09,99.65 571.42,101.53 571.75,104.58 572.09,103.85 572.42,100.38 572.76,98.97 573.10,96.74 573.43,101.32 573.76,106.75 574.10,105.13 574.43,101.10 574.77,96.69 575.11,99.41 575.44,98.25 575.77,100.23 576.11,101.95 576.44,103.05 576.78,101.37 577.12,104.99 577.45,109.55 577.79,108.25 578.12,111.29 578.45,110.90 578.79,112.16 579.12,106.38 579.46,104.83 579.80,99.04 580.13,98.62 580.46,99.25 580.80,92.37 581.13,87.64 581.47,83.62 581.81,80.58 582.14,81.31 582.48,85.09 582.81,84.69 583.14,86.89 583.48,83.95 583.82,81.25 584.15,82.66 584.49,90.75 584.82,92.35 585.15,87.53 585.49,93.52 585.83,90.85 586.16,97.32 586.50,96.25 586.83,98.05 587.16,100.12 587.50,95.88 587.84,97.61 588.17,97.21 588.50,99.95 588.84,97.45 589.17,90.93 589.51,87.49 589.85,91.08 590.18,95.07 590.51,93.42 590.85,97.64 591.18,90.82 591.52,92.70 591.86,91.17 592.19,92.07 592.52,88.11 592.86,92.46 593.19,93.34 593.53,92.72 593.87,93.25 594.20,95.67 594.54,105.20 594.87,107.26 595.20,106.65 595.54,107.25 595.88,108.31 596.21,112.42 596.55,112.17 596.88,117.66 597.22,119.17 597.55,124.80 597.88,124.36 598.22,121.78 598.55,119.96 598.89,115.52 599.23,113.50 599.56,115.18 599.89,116.03 600.23,117.56 600.57,122.49 600.90,125.19 601.24,119.42 601.57,120.77 601.90,124.14 602.24,122.15 602.58,127.54 602.91,122.15 603.25,125.75 603.58,122.49 603.91,121.99 604.25,118.90 604.59,117.33 604.92,118.88 605.25,120.17 605.59,123.80 605.92,122.71 606.26,119.55 606.60,116.17 606.93,119.35 607.26,119.22 607.60,120.47 607.93,119.19 608.27,122.45 608.61,120.14 608.94,116.18 609.27,121.25 609.61,123.41 609.95,120.75 610.28,117.19 610.62,122.58 610.95,124.51 611.28,127.49 611.62,125.56 611.96,121.12 612.29,127.30 612.62,123.79 612.96,121.20 613.29,122.65 613.63,120.13 613.97,115.05 614.30,116.28 614.63,114.58 614.97,113.67 615.30,116.34 615.64,117.37 615.98,111.48 616.31,110.79 616.64,111.53 616.98,114.88 617.32,115.56 617.65,117.06 617.99,119.40 618.32,116.92 618.65,118.56 618.99,116.60 619.33,111.60 619.66,114.90 620.00,109.03 620.33,102.54 620.66,104.66 621.00,105.19 621.34,101.77 621.67,105.52 622.00,103.18 622.34,104.52 622.67,101.69 623.01,108.89 623.35,111.04 623.68,111.18 624.01,109.02 624.35,109.86 624.68,108.94 625.02,106.55 625.36,106.20 625.69,102.19 626.02,105.23 626.36,107.01 626.70,97.30 627.03,96.76 627.37,101.17 627.70,103.34 628.03,97.41 628.37,99.65 628.71,98.14 629.04,94.87 629.38,97.85 629.71,92.88 630.04,89.53 630.38,92.43 630.72,94.95 631.05,88.99 631.38,92.54 631.72,94.82 632.05,93.98 632.39,94.92 632.73,94.53 633.06,94.28 633.39,88.44 633.73,93.94 634.07,93.21 634.40,95.77 634.74,96.12 635.07,95.49 635.40,96.29 635.74,103.12 636.08,102.24 636.41,102.35 636.75,108.64 637.08,112.41 637.41,109.80 637.75,112.12 638.09,110.02 638.42,110.35 638.75,112.78 639.09,118.37 639.42,120.46 639.76,121.93 640.10,119.25 640.43,120.12 640.76,121.19 641.10,126.70 641.43,127.03 641.77,130.67 642.11,126.06 642.44,130.04 642.77,129.83 643.11,129.30 643.45,127.32 643.78,128.55 644.12,125.79 644.45,128.18 644.78,127.99 645.12,127.03 645.46,129.47 645.79,131.17 646.12,131.80 646.46,132.44 646.79,135.60 647.13,134.60 647.47,137.02 647.80,138.07 648.13,139.76 648.47,139.40 648.80,136.71 649.14,139.36 649.48,139.80 649.81,141.63 650.14,134.39 650.48,137.57 650.82,133.61 651.15,137.60 651.49,140.15 651.82,139.26 652.15,137.30 652.49,137.79 652.83,137.30 653.16,136.53 653.50,137.80 653.83,137.21 654.16,135.73 654.50,131.46 654.84,132.18 655.17,133.30 655.50,135.17 655.84,129.40 656.17,129.83 656.51,131.43 656.85,129.95 657.18,127.47 657.51,130.74 657.85,132.49 658.18,129.80 658.52,129.96 658.86,128.04 659.19,125.16 659.52,125.74 659.86,122.34 660.20,119.99 660.53,118.06 660.87,117.96 661.20,117.15 661.53,114.10 661.87,114.30 662.21,113.45 662.54,112.86 662.88,112.29 663.21,113.12 663.54,108.34 663.88,112.56 664.22,107.53 664.55,98.63 664.88,102.84 665.22,103.42 665.55,100.95 665.89,100.00 666.23,100.42 666.56,99.06 666.89,96.63 667.23,94.54 667.57,96.01 667.90,99.36 668.24,99.28 668.57,96.95 668.90,99.43 669.24,99.43 669.58,98.63 669.91,97.65 670.25,100.46 670.58,106.03 670.91,105.07 671.25,102.42 671.59,99.38 671.92,100.02 672.25,96.11 672.59,95.31 672.92,94.47 673.26,98.14 673.60,96.50 673.93,95.68 674.26,97.36 674.60,98.39 674.93,99.86 675.27,97.66 675.61,96.13 675.94,95.87 676.27,94.83 676.61,96.70 676.95,96.85 677.28,98.36 677.62,97.94 677.95,93.26 678.28,94.33 678.62,92.64 678.96,88.91 679.29,89.45 679.62,89.69 679.96,93.15 680.29,96.38 680.63,96.46 680.97,94.17 681.30,97.68 681.63,99.32 681.97,99.56 682.30,99.15 682.64,105.79 682.98,105.07 683.31,106.47 683.64,103.72 683.98,98.45 684.32,102.44 684.65,99.46 684.99,100.31 685.32,102.13 685.65,96.63 685.99,94.01 686.33,92.31 686.66,92.69 687.00,90.50 687.33,91.45 687.66,91.64 688.00,89.18 688.34,91.18 688.67,94.17 689.00,98.52 689.34,103.55 689.67,105.14 690.01,103.06 690.35,99.98 690.68,99.92 691.01,99.69 691.35,98.00 691.68,92.61 692.02,92.30 692.36,95.23 692.69,94.63 693.02,94.38 693.36,95.35 693.70,99.98 694.03,99.16 694.37,103.67 694.70,101.93 695.03,99.78 695.37,104.87 695.71,109.68 696.04,105.79 696.38,104.29 696.71,106.12 697.04,106.81 697.38,110.27 697.72,109.40 698.05,114.03 698.38,112.70 698.72,112.53 699.05,112.27 699.39,111.86 699.73,111.85 700.06,114.85 700.39,112.53 700.73,119.34 701.07,117.96 701.40,119.36 701.74,121.99 702.07,121.57 702.40,124.10 702.74,118.10 703.08,117.57 703.41,116.56 703.75,117.33 704.08,116.05 704.41,113.66 704.75,114.28 705.09,114.23 705.42,110.60 705.75,104.34 706.09,103.35 706.42,106.11 706.76,108.30 707.10,106.41 707.43,107.73 707.76,104.89 708.10,104.71 708.43,106.37 708.77,105.09 709.11,104.25 709.44,103.63 709.77,104.59 710.11,105.54 710.45,102.98 710.78,95.60 711.12,92.81 711.45,92.63 711.78,95.97 712.12,94.55 712.46,96.94 712.79,100.28 713.12,96.44 713.46,102.30 713.79,102.73 714.13,104.74 714.47,106.71 714.80,105.01 715.13,105.01 715.47,105.24 715.80,106.44 716.14,105.29 716.48,109.74 716.81,110.93 717.14,111.35 717.48,112.40 717.82,117.58 718.15,116.60 718.49,122.65 718.82,123.86 719.15,123.74 719.49,129.51 719.83,132.63 720.16,135.14 720.50,136.46 720.83,133.01 721.16,128.08 721.50,128.98 721.84,129.65 722.17,131.05 722.50,130.51 722.84,130.34 723.17,130.39 723.51,129.44 723.85,128.71 724.18,130.79 724.51,133.01 724.85,132.90 725.18,135.48 725.52,136.37 725.86,138.81 726.19,137.98 726.52,139.61 726.86,139.24 727.20,143.24 727.53,142.28 727.87,142.48 728.20,143.25 728.53,141.06 728.87,142.00 729.21,139.17 729.54,138.74 729.88,138.07 730.21,138.71 730.54,143.22 730.88,142.90 731.22,142.91 731.55,142.06 731.88,144.43 732.22,145.58 732.55,143.96 732.89,148.81 733.23,150.83 733.56,154.39 733.89,154.86 734.23,155.92 734.57,155.93 734.90,151.85 735.24,148.43 735.57,146.67 735.90,146.84 736.24,146.61 736.58,144.88 736.91,139.55 737.25,137.83 737.58,136.64 737.91,138.80 738.25,138.97 738.59,137.90 738.92,138.67 739.25,142.37 739.59,140.83 739.92,137.20 740.26,137.86 740.60,137.94 740.93,134.26 741.26,131.87 741.60,132.33 741.93,132.74 742.27,132.30 742.61,137.72 742.94,136.45 743.27,137.59 743.61,136.11 743.95,137.68 744.28,133.32 744.62,133.53 744.95,134.29 745.28,135.31 745.62,135.31 745.96,135.51 746.29,134.95 746.62,138.00 746.96,136.36 747.29,136.72 747.63,135.66 747.97,136.44 748.30,136.00 748.63,133.96 748.97,134.50 749.30,133.16 749.64,134.83 749.98,135.15 750.31,132.92 750.64,132.74 750.98,134.79 751.32,136.68 751.65,135.68 751.99,134.67 752.32,134.32 752.65,136.00 752.99,136.53 753.33,136.35 753.66,135.03 754.00,134.84 754.33,134.45 754.66,132.91 755.00,130.10 755.00,136.39"/>
<line x1="783" y1="82" x2="809" y2="82" stroke="#dc2626" stroke-width="3"/>
<text x="817" y="86" font-family="Arial" font-size="13" fill="#111827">Avellaneda Stoikov</text>
<polyline fill="none" stroke="#7c3aed" stroke-width="2" points=""/>
<line x1="783" y1="106" x2="809" y2="106" stroke="#7c3aed" stroke-width="3"/>
<text x="817" y="110" font-family="Arial" font-size="13" fill="#111827">Calibrated Avellaneda Stoikov</text>
<text x="420.0" y="518" text-anchor="middle" font-family="Arial" font-size="14" fill="#111827">Event index</text>
<text x="22" y="256.0" text-anchor="middle" transform="rotate(-90 22 256.0)" font-family="Arial" font-size="14" fill="#111827">Net PnL after fees</text>
</svg>
