<svg xmlns="http://www.w3.org/2000/svg" width="940" height="540" viewBox="0 0 940 540">
<rect width="100%" height="100%" fill="#ffffff"/>
<text x="470.0" y="26" text-anchor="middle" font-family="Arial" font-size="18" fill="#111827">Trending Inventory</text>
<line x1="85" y1="470" x2="755" y2="470" stroke="#111827" stroke-width="1"/>
<line x1="85" y1="42" x2="85" y2="470" stroke="#111827" stroke-width="1"/>
<line x1="85.00" y1="42" x2="85.00" y2="470" stroke="#e5e7eb" stroke-width="1"/>
<text x="85.00" y="494" text-anchor="middle" font-family="Arial" font-size="12" fill="#374151">0</text>
<line x1="252.50" y1="42" x2="252.50" y2="470" stroke="#e5e7eb" stroke-width="1"/>
<text x="252.50" y="494" text-anchor="middle" font-family="Arial" font-size="12" fill="#374151">50000</text>
<line x1="420.00" y1="42" x2="420.00" y2="470" stroke="#e5e7eb" stroke-width="1"/>
<text x="420.00" y="494" text-anchor="middle" font-family="Arial" font-size="12" fill="#374151">100000</text>
<line x1="587.50" y1="42" x2="587.50" y2="470" stroke="#e5e7eb" stroke-width="1"/>
<text x="587.50" y="494" text-anchor="middle" font-family="Arial" font-size="12" fill="#374151">150000</text>
<line x1="755.00" y1="42" x2="755.00" y2="470" stroke="#e5e7eb" stroke-width="1"/>
<text x="755.00" y="494" text-anchor="middle" font-family="Arial" font-size="12" fill="#374151">200000</text>
<line x1="85" y1="470.00" x2="755" y2="470.00" stroke="#e5e7eb" stroke-width="1"/>
<text x="73" y="474.00" text-anchor="end" font-family="Arial" font-size="12" fill="#374151">-21707</text>
<line x1="85" y1="363.00" x2="755" y2="363.00" stroke="#e5e7eb" stroke-width="1"/>
<text x="73" y="367.00" text-anchor="end" font-family="Arial" font-size="12" fill="#374151">-10691</text>
<line x1="85" y1="256.00" x2="755" y2="256.00" stroke="#e5e7eb" stroke-width="1"/>
<text x="73" y="260.00" text-anchor="end" font-family="Arial" font-size="12" fill="#374151">326</text>
<line x1="85" y1="149.00" x2="755" y2="149.00" stroke="#e5e7eb" stroke-width="1"/>
<text x="73" y="153.00" text-anchor="end" font-family="Arial" font-size="12" fill="#374151">11343</text>
<line x1="85" y1="42.00" x2="755" y2="42.00" stroke="#e5e7eb" stroke-width="1"/>
<text x="73" y="46.00" text-anchor="end" font-family="Arial" font-size="12" fill="#374151">22359</text>
<polyline fill="none" stroke="#2563eb" stroke-width="2" points="85.00,259.17 85.33,259.36 85.67,259.31 86.00,259.31 86.34,259.60 86.67,259.60 87.01,259.39 87.34,259.06 87.68,259.06 88.02,259.20 88.35,259.24 88.69,259.61 89.02,259.61 89.36,259.42 89.69,259.46 90.03,259.26 90.36,259.24 90.69,259.05 91.03,259.07 91.36,259.23 91.70,259.21 92.03,259.21 92.37,259.21 92.70,259.07 93.04,258.69 93.38,258.20 93.71,258.11 94.05,257.55 94.38,257.07 94.72,256.39 95.05,255.51 95.39,254.66 95.72,254.18 96.06,253.51 96.39,252.85 96.72,251.98 97.06,251.27 97.39,250.49 97.73,249.59 98.06,248.92 98.40,248.24 98.73,247.27 99.07,246.59 99.41,246.10 99.74,245.42 100.08,244.74 100.41,244.06 100.75,243.47 101.08,242.69 101.41,242.09 101.75,241.42 102.09,240.61 102.42,239.78 102.75,238.91 103.09,238.13 103.42,237.45 103.76,237.16 104.09,236.48 104.43,235.89 104.77,235.31 105.10,235.69 105.44,235.40 105.77,235.53 106.11,235.04 106.44,235.04 106.78,235.14 107.11,234.85 107.44,234.54 107.78,234.25 108.11,233.52 108.45,232.99 108.78,232.21 109.12,231.53 109.45,231.05 109.79,230.86 110.12,230.71 110.46,230.81 110.80,231.05 111.13,230.62 111.47,230.63 111.80,230.51 112.14,230.51 112.47,230.81 112.81,230.50 113.14,230.60 113.47,230.62 113.81,230.72 114.14,230.72 114.48,230.50 114.81,230.39 115.15,230.58 115.48,230.97 115.82,231.16 116.16,231.26 116.49,231.26 116.83,231.26 117.16,231.65 117.50,231.74 117.83,232.13 118.16,232.01 118.50,231.83 118.84,231.83 119.17,232.45 119.50,232.39 119.84,232.31 120.17,231.74 120.51,231.49 120.84,231.29 121.18,231.49 121.52,231.49 121.85,231.97 122.19,232.17 122.52,232.73 122.85,233.28 123.19,233.96 123.53,234.93 123.86,235.66 124.19,236.44 124.53,237.22 124.87,237.77 125.20,238.73 125.53,239.41 125.87,239.90 126.20,240.62 126.54,241.01 126.88,241.21 127.21,241.85 127.55,242.53 127.88,243.31 128.22,243.90 128.55,244.38 128.88,244.54 129.22,244.61 129.56,244.41 129.89,244.21 130.22,244.36 130.56,244.82 130.90,245.16 131.23,245.10 131.56,245.20 131.90,245.38 132.24,245.53 132.57,245.53 132.91,245.14 133.24,245.27 133.57,245.46 133.91,245.85 134.25,246.03 134.58,245.93 134.91,246.22 135.25,246.26 135.59,246.34 135.92,246.09 136.25,246.75 136.59,247.14 136.93,247.72 137.26,248.42 137.59,249.30 137.93,249.99 138.26,250.47 138.60,251.16 138.94,251.34 139.27,251.14 139.60,251.34 139.94,251.41 140.28,251.34 140.61,251.49 140.94,251.30 141.28,251.01 141.62,251.10 141.95,250.87 142.28,251.26 142.62,251.92 142.95,252.02 143.29,252.31 143.62,252.60 143.96,252.60 144.30,252.36 144.63,252.16 144.97,252.16 145.30,252.45 145.63,252.36 145.97,252.45 146.31,252.00 146.64,252.19 146.97,252.48 147.31,252.48 147.65,252.27 147.98,252.56 148.31,252.37 148.65,251.78 148.99,251.52 149.32,251.41 149.66,251.50 149.99,251.69 150.32,251.87 150.66,251.87 151.00,251.87 151.33,251.58 151.67,251.39 152.00,251.65 152.33,251.75 152.67,251.55 153.00,251.62 153.34,251.74 153.68,251.68 154.01,251.48 154.34,251.77 154.68,252.16 155.01,252.05 155.35,252.34 155.69,252.14 156.02,252.24 156.36,252.87 156.69,252.63 157.03,252.88 157.36,252.01 157.69,251.43 158.03,250.75 158.37,250.26 158.70,249.49 159.03,248.94 159.37,248.24 159.70,247.66 160.04,247.07 160.38,246.98 160.71,246.59 161.05,246.69 161.38,246.98 161.72,247.37 162.05,247.87 162.38,248.37 162.72,248.75 163.06,249.59 163.39,250.12 163.72,250.71 164.06,251.48 164.39,252.26 164.73,252.84 165.06,253.37 165.40,254.15 165.74,254.93 166.07,255.61 166.41,256.49 166.74,256.97 167.07,257.46 167.41,258.27 167.75,258.86 168.08,259.63 168.42,260.41 168.75,261.28 169.08,262.06 169.42,262.92 169.75,263.60 170.09,264.28 170.43,265.05 170.76,265.93 171.09,266.31 171.43,266.99 171.76,267.92 172.10,268.50 172.44,269.23 172.77,270.01 173.11,270.59 173.44,271.18 173.78,271.72 174.11,272.40 174.44,273.17 174.78,273.95 175.12,274.58 175.45,275.26 175.78,276.04 176.12,276.72 176.45,277.49 176.79,278.33 177.12,279.11 177.46,279.66 177.80,280.24 178.13,281.12 178.47,281.89 178.80,282.57 179.13,283.25 179.47,283.93 179.81,284.48 180.14,285.16 180.47,286.17 180.81,286.46 181.14,287.24 181.48,287.82 181.81,288.69 182.15,289.23 182.49,289.91 182.82,290.78 183.16,291.56 183.49,292.04 183.82,292.86 184.16,293.35 184.50,294.09 184.83,295.06 185.17,295.84 185.50,296.72 185.83,297.47 186.17,298.25 186.50,299.12 186.84,299.80 187.18,300.64 187.51,301.61 187.84,302.00 188.18,302.26 188.51,302.94 188.85,303.70 189.19,304.28 189.52,304.96 189.86,305.40 190.19,306.18 190.53,306.97 190.86,307.94 191.19,308.62 191.53,309.40 191.87,309.79 192.20,310.76 192.53,311.12 192.87,311.03 193.20,311.18 193.54,311.08 193.88,311.08 194.21,311.04 194.55,311.04 194.88,311.04 195.22,311.03 195.55,310.84 195.88,311.03 196.22,311.22 196.56,311.33 196.89,311.62 197.22,312.40 197.56,313.18 197.89,313.96 198.23,314.73 198.56,315.61 198.90,316.34 199.24,317.11 199.57,317.60 199.91,318.28 200.24,318.82 200.57,319.40 200.91,319.62 201.25,319.72 201.58,320.18 201.92,320.08 202.25,320.19 202.58,320.87 202.92,321.36 203.25,322.04 203.59,322.81 203.93,323.64 204.26,324.42 204.59,325.00 204.93,325.48 205.26,326.38 205.60,326.48 205.94,327.15 206.27,327.21 206.61,327.21 206.94,327.11 207.28,327.11 207.61,327.06 207.94,327.84 208.28,328.61 208.62,329.29 208.95,329.97 209.28,330.40 209.62,331.18 209.95,331.95 210.29,332.54 210.62,333.24 210.96,333.72 211.30,334.30 211.63,335.08 211.97,335.66 212.30,336.16 212.63,336.64 212.97,337.40 213.31,338.08 213.64,338.86 213.97,339.54 214.31,340.19 214.65,340.87 214.98,341.57 215.31,342.03 215.65,342.71 215.99,343.61 216.32,344.14 216.66,344.92 216.99,345.79 217.32,346.51 217.66,347.29 218.00,348.07 218.33,348.77 218.66,349.56 219.00,350.43 219.34,350.91 219.67,351.59 220.00,352.29 220.34,352.78 220.68,353.33 221.01,353.91 221.34,354.69 221.68,355.37 222.01,355.95 222.35,356.83 222.69,357.60 223.02,358.38 223.35,358.92 223.69,359.60 224.03,360.28 224.36,361.05 224.69,361.81 225.03,362.49 225.37,362.98 225.70,363.91 226.03,364.43 226.37,365.13 226.71,365.71 227.04,366.39 227.38,367.04 227.71,367.91 228.04,368.69 228.38,369.34 228.72,370.10 229.05,370.98 229.38,371.92 229.72,372.60 230.06,373.38 230.39,373.81 230.72,374.49 231.06,375.17 231.40,375.85 231.73,376.63 232.06,377.21 232.40,377.73 232.74,378.41 233.07,379.30 233.41,380.12 233.74,380.90 234.07,381.58 234.41,382.35 234.75,383.13 235.08,383.91 235.41,384.78 235.75,385.56 236.09,386.24 236.42,387.00 236.75,387.49 237.09,388.17 237.43,388.95 237.76,389.40 238.09,389.89 238.43,390.76 238.76,391.38 239.10,392.06 239.44,392.74 239.77,393.52 240.10,394.20 240.44,394.69 240.78,395.30 241.11,395.11 241.44,395.40 241.78,396.27 242.12,396.85 242.45,396.85 242.78,397.05 243.12,397.14 243.46,397.46 243.79,397.94 244.12,398.62 244.46,399.50 244.79,400.18 245.13,400.86 245.47,401.64 245.80,402.32 246.13,403.03 246.47,403.71 246.81,404.37 247.14,405.25 247.47,405.73 247.81,406.22 248.15,406.12 248.48,406.20 248.81,406.78 249.15,407.27 249.49,407.95 249.82,408.72 250.16,408.97 250.49,409.55 250.82,410.23 251.16,410.81 251.50,411.59 251.83,412.46 252.16,413.23 252.50,412.88 252.84,413.07 253.17,413.36 253.50,413.76 253.84,414.41 254.18,414.99 254.51,415.53 254.84,416.21 255.18,416.87 255.51,417.84 255.85,418.23 256.19,419.01 256.52,419.69 256.86,420.37 257.19,421.09 257.52,421.86 257.86,422.45 258.19,423.13 258.53,423.61 258.87,424.39 259.20,425.07 259.53,425.36 259.87,426.04 260.21,426.32 260.54,426.52 260.88,426.60 261.21,426.09 261.54,425.60 261.88,425.02 262.22,424.34 262.55,423.56 262.88,423.30 263.22,423.03 263.56,422.80 263.89,422.70 264.23,422.86 264.56,422.48 264.89,422.66 265.23,422.78 265.56,422.49 265.90,421.90 266.24,422.10 266.57,422.28 266.90,422.48 267.24,422.31 267.57,422.50 267.91,422.55 268.25,422.58 268.58,422.49 268.91,422.19 269.25,422.29 269.59,422.20 269.92,422.51 270.25,423.10 270.59,423.87 270.93,424.65 271.26,425.62 271.60,425.80 271.93,425.95 272.26,426.23 272.60,426.94 272.94,427.82 273.27,428.30 273.61,427.85 273.94,428.62 274.27,429.59 274.61,429.98 274.94,430.25 275.28,431.02 275.62,431.59 275.95,432.46 276.28,433.04 276.62,433.63 276.96,433.95 277.29,434.53 277.62,435.22 277.96,435.81 278.29,436.49 278.63,436.78 278.97,437.46 279.30,437.38 279.63,437.04 279.97,436.66 280.31,435.78 280.64,435.00 280.98,434.61 281.31,434.80 281.64,434.26 281.98,434.35 282.31,434.16 282.65,433.97 282.99,433.48 283.32,433.59 283.65,434.26 283.99,434.65 284.32,435.01 284.66,435.67 285.00,436.12 285.33,436.70 285.66,437.09 286.00,437.37 286.34,437.86 286.67,438.25 287.00,439.12 287.34,439.80 287.68,440.48 288.01,439.90 288.35,439.21 288.68,438.69 289.01,438.07 289.35,437.36 289.69,436.70 290.02,436.03 290.36,436.23 290.69,435.97 291.02,435.67 291.36,435.19 291.69,435.48 292.03,435.23 292.37,434.45 292.70,433.53 293.03,432.95 293.37,432.84 293.71,432.74 294.04,432.69 294.38,432.30 294.71,432.30 295.04,431.85 295.38,431.61 295.72,431.41 296.05,431.37 296.38,430.76 296.72,430.04 297.06,429.48 297.39,428.70 297.73,428.02 298.06,427.42 298.39,426.56 298.73,426.17 299.06,425.68 299.40,425.19 299.74,424.71 300.07,424.22 300.40,423.50 300.74,422.91 301.07,422.15 301.41,421.47 301.75,420.59 302.08,419.88 302.41,419.13 302.75,418.17 303.09,417.40 303.42,416.62 303.75,416.04 304.09,415.26 304.43,414.73 304.76,413.95 305.10,413.17 305.43,412.39 305.76,411.82 306.10,411.14 306.44,410.64 306.77,410.15 307.11,409.37 307.44,408.77 307.77,408.19 308.11,407.50 308.44,406.74 308.78,406.02 309.12,405.68 309.45,404.81 309.78,404.09 310.12,403.31 310.46,402.63 310.79,402.02 311.12,401.34 311.46,400.37 311.79,399.59 312.13,399.02 312.47,398.15 312.80,397.47 313.13,396.80 313.47,396.26 313.81,395.29 314.14,394.32 314.48,393.77 314.81,393.09 315.14,392.32 315.48,391.50 315.81,390.82 316.15,390.04 316.49,389.27 316.82,388.39 317.15,387.77 317.49,386.90 317.82,385.85 318.16,385.07 318.50,384.20 318.83,383.42 319.16,382.92 319.50,382.15 319.84,381.37 320.17,380.57 320.50,379.70 320.84,378.75 321.18,378.26 321.51,377.67 321.85,376.99 322.18,376.21 322.51,375.68 322.85,374.90 323.19,374.13 323.52,373.47 323.86,372.60 324.19,371.93 324.52,371.13 324.86,370.36 325.19,369.58 325.53,368.88 325.87,368.30 326.20,367.46 326.53,366.59 326.87,366.10 327.21,365.52 327.54,364.94 327.88,364.16 328.21,363.38 328.54,362.90 328.88,362.23 329.22,361.57 329.55,360.98 329.88,360.21 330.22,359.60 330.56,359.21 330.89,358.62 331.23,358.08 331.56,357.50 331.89,356.82 332.23,356.04 332.56,355.42 332.90,354.54 333.24,353.57 333.57,352.98 333.90,352.40 334.24,351.72 334.57,351.02 334.91,350.24 335.25,349.56 335.58,348.75 335.91,348.36 336.25,347.58 336.59,346.90 336.92,346.42 337.25,346.08 337.59,345.40 337.93,344.52 338.26,343.84 338.60,342.97 338.93,342.19 339.26,341.42 339.60,340.74 339.94,340.16 340.27,339.29 340.61,338.51 340.94,337.83 341.27,337.05 341.61,336.41 341.94,336.02 342.28,335.73 342.62,335.15 342.95,335.45 343.29,336.29 343.62,337.10 343.95,337.72 344.29,338.21 344.62,338.50 344.96,338.11 345.30,338.33 345.63,338.43 345.96,338.53 346.30,338.43 346.63,339.01 346.97,339.11 347.31,339.15 347.64,339.16 347.98,339.12 348.31,338.83 348.64,338.42 348.98,338.03 349.31,338.03 349.65,338.13 349.99,338.13 350.32,338.31 350.65,338.15 350.99,338.05 351.32,337.96 351.66,337.77 352.00,337.67 352.33,337.67 352.67,337.48 353.00,337.29 353.33,337.15 353.67,336.81 354.00,336.23 354.34,335.45 354.68,334.52 355.01,334.30 355.35,333.72 355.68,333.43 356.01,332.85 356.35,332.17 356.69,331.49 357.02,330.59 357.36,329.72 357.69,328.85 358.02,328.17 358.36,327.19 358.69,326.51 359.03,326.13 359.37,325.74 359.70,325.35 360.04,324.67 360.37,323.99 360.70,323.90 361.04,323.94 361.38,323.94 361.71,324.04 362.05,324.04 362.38,324.01 362.71,323.91 363.05,324.13 363.38,324.34 363.72,324.34 364.06,324.30 364.39,324.40 364.73,324.30 365.06,324.43 365.39,324.04 365.73,323.44 366.06,322.81 366.40,322.52 366.74,321.75 367.07,321.26 367.40,320.77 367.74,320.19 368.07,319.37 368.41,318.51 368.75,317.80 369.08,317.41 369.42,317.13 369.75,317.13 370.08,316.26 370.42,315.83 370.75,315.80 371.09,315.41 371.43,315.41 371.76,314.73 372.10,314.25 372.43,313.47 372.76,312.79 373.10,312.01 373.44,311.53 373.77,310.65 374.11,310.07 374.44,309.58 374.77,308.71 375.11,308.03 375.44,307.35 375.78,306.40 376.12,305.72 376.45,305.20 376.79,304.52 377.12,303.75 377.45,302.97 377.79,302.22 378.12,301.83 378.46,301.26 378.80,300.69 379.13,299.87 379.46,299.39 379.80,298.76 380.13,297.90 380.47,297.12 380.81,296.35 381.14,295.76 381.48,295.15 381.81,294.71 382.14,293.95 382.48,293.66 382.81,292.68 383.15,291.97 383.49,291.24 383.82,290.46 384.15,289.67 384.49,289.08 384.82,288.60 385.16,288.11 385.50,287.33 385.83,287.29 386.17,287.26 386.50,287.13 386.83,286.75 387.17,285.97 387.50,285.10 387.84,284.38 388.18,283.89 388.51,283.95 388.85,283.86 389.18,284.17 389.51,284.36 389.85,284.07 390.19,283.78 390.52,283.10 390.86,282.52 391.19,282.52 391.52,282.66 391.86,282.46 392.19,282.26 392.53,281.78 392.87,280.90 393.20,280.42 393.54,280.32 393.87,281.00 394.20,281.27 394.54,281.21 394.88,281.29 395.21,281.52 395.55,281.45 395.88,281.25 396.21,281.20 396.55,281.36 396.88,281.09 397.22,281.09 397.56,281.59 397.89,281.49 398.23,281.39 398.56,281.39 398.89,281.31 399.23,281.35 399.56,281.51 399.90,281.40 400.24,281.42 400.57,281.22 400.90,281.71 401.24,281.13 401.57,280.35 401.91,279.86 402.25,279.18 402.58,278.60 402.92,277.73 403.25,277.34 403.58,276.72 403.92,276.08 404.25,275.49 404.59,274.91 404.93,274.13 405.26,273.26 405.60,272.58 405.93,271.71 406.26,270.93 406.60,270.15 406.94,269.47 407.27,268.83 407.61,268.05 407.94,267.47 408.27,266.69 408.61,265.89 408.94,265.06 409.28,264.67 409.62,263.99 409.95,263.22 410.29,262.34 410.62,261.66 410.95,260.98 411.29,260.11 411.62,259.31 411.96,258.72 412.30,258.14 412.63,257.36 412.96,256.58 413.30,255.81 413.63,255.10 413.97,254.52 414.31,253.84 414.64,253.07 414.98,252.39 415.31,251.61 415.64,251.03 415.98,250.64 416.31,250.05 416.65,249.27 416.99,248.59 417.32,247.99 417.65,247.31 417.99,246.82 418.32,245.95 418.66,245.27 419.00,244.88 419.33,244.00 419.67,243.42 420.00,242.65 420.33,241.87 420.67,241.29 421.00,240.74 421.34,239.96 421.68,239.09 422.01,238.31 422.35,237.83 422.68,237.03 423.01,236.25 423.35,235.48 423.69,234.80 424.02,234.09 424.36,233.51 424.69,232.73 425.02,231.97 425.36,231.39 425.69,230.71 426.03,230.03 426.37,229.35 426.70,228.67 427.04,228.03 427.37,227.29 427.70,226.71 428.04,226.08 428.38,225.41 428.71,225.02 429.05,224.41 429.38,223.54 429.71,222.96 430.05,221.99 430.38,221.31 430.72,220.53 431.06,220.04 431.39,219.46 431.73,218.99 432.06,218.39 432.39,217.62 432.73,216.84 433.06,216.11 433.40,215.33 433.74,214.73 434.07,214.15 434.40,213.57 434.74,212.90 435.07,212.02 435.41,211.36 435.75,210.68 436.08,210.19 436.42,209.61 436.75,208.74 437.08,207.77 437.42,206.99 437.75,206.20 438.09,205.54 438.43,204.80 438.76,203.93 439.10,203.54 439.43,202.86 439.76,202.28 440.10,201.79 440.44,200.92 440.77,200.42 441.11,199.65 441.44,198.97 441.77,198.29 442.11,197.61 442.44,196.73 442.78,196.25 443.12,195.66 443.45,194.79 443.79,194.11 444.12,193.43 444.45,192.66 444.79,191.89 445.12,191.50 445.46,190.95 445.80,190.37 446.13,189.51 446.46,188.63 446.80,188.05 447.13,187.56 447.47,186.89 447.81,186.31 448.14,185.54 448.48,184.80 448.81,184.02 449.14,183.34 449.48,182.76 449.81,182.02 450.15,181.56 450.49,181.66 450.82,181.47 451.15,181.49 451.49,181.67 451.82,180.99 452.16,181.32 452.50,180.93 452.83,180.92 453.17,180.73 453.50,180.22 453.83,179.80 454.17,179.42 454.50,179.22 454.84,179.67 455.18,179.86 455.51,179.96 455.85,179.48 456.18,179.78 456.51,180.27 456.85,181.05 457.19,181.73 457.52,182.25 457.86,183.03 458.19,183.61 458.52,183.61 458.86,183.71 459.19,183.32 459.53,183.42 459.87,183.32 460.20,183.15 460.54,183.15 460.87,182.47 461.20,181.80 461.54,181.45 461.88,181.56 462.21,181.45 462.55,180.96 462.88,180.77 463.21,180.77 463.55,181.06 463.88,180.96 464.22,180.48 464.56,180.48 464.89,180.10 465.23,179.99 465.56,179.77 465.89,179.86 466.23,179.57 466.56,179.77 466.90,179.77 467.24,179.77 467.57,179.96 467.90,180.04 468.24,179.94 468.57,179.84 468.91,179.65 469.25,179.27 469.58,179.46 469.92,179.64 470.25,179.67 470.58,179.96 470.92,179.57 471.25,179.28 471.59,178.89 471.93,178.21 472.26,177.73 472.60,177.14 472.93,177.14 473.26,176.56 473.60,175.98 473.94,175.88 474.27,175.71 474.61,175.65 474.94,175.74 475.27,175.79 475.61,176.45 475.94,177.23 476.28,177.62 476.62,177.51 476.95,177.41 477.29,177.39 477.62,178.02 477.95,178.31 478.29,179.09 478.62,179.77 478.96,180.45 479.30,181.31 479.63,182.13 479.96,182.61 480.30,183.39 480.63,184.24 480.97,185.02 481.31,185.99 481.64,186.77 481.98,187.18 482.31,187.95 482.64,187.93 482.98,188.52 483.31,189.29 483.65,189.97 483.99,190.56 484.32,191.48 484.65,192.06 484.99,192.35 485.32,193.23 485.66,193.91 486.00,194.59 486.33,195.27 486.67,195.98 487.00,196.75 487.33,197.53 487.67,198.31 488.00,199.18 488.34,200.05 488.68,200.85 489.01,201.70 489.35,202.37 489.68,203.14 490.01,203.92 490.35,204.47 490.69,205.15 491.02,205.93 491.36,206.58 491.69,207.23 492.02,208.01 492.36,208.48 492.69,209.30 493.03,210.18 493.37,210.84 493.70,211.61 494.04,212.39 494.37,213.07 494.70,213.76 495.04,214.44 495.38,215.22 495.71,215.90 496.05,216.77 496.38,217.26 496.71,217.95 497.05,218.24 497.38,218.92 497.72,219.69 498.06,220.47 498.39,221.05 498.73,222.03 499.06,222.78 499.39,223.48 499.73,224.26 500.06,224.97 500.40,225.63 500.74,226.08 501.07,226.86 501.40,227.44 501.74,227.91 502.07,228.69 502.41,229.66 502.75,230.44 503.08,231.31 503.42,231.86 503.75,232.64 504.08,233.32 504.42,234.10 504.75,234.87 505.09,235.55 505.43,236.33 505.76,237.17 506.10,237.75 506.43,238.16 506.76,239.00 507.10,239.68 507.44,240.36 507.77,240.85 508.11,241.00 508.44,241.32 508.77,241.71 509.11,242.39 509.44,242.98 509.78,243.56 510.12,244.14 510.45,244.72 510.79,244.72 511.12,244.87 511.45,244.76 511.79,245.07 512.12,244.78 512.46,245.07 512.80,245.48 513.13,245.68 513.46,245.51 513.80,245.63 514.13,245.60 514.47,245.51 514.81,245.61 515.14,245.81 515.48,245.59 515.81,245.49 516.14,245.10 516.48,244.81 516.82,244.81 517.15,244.91 517.49,244.52 517.82,244.52 518.15,244.85 518.49,244.75 518.83,244.75 519.16,244.56 519.50,245.04 519.83,245.82 520.16,246.55 520.50,247.13 520.84,247.79 521.17,248.47 521.50,248.81 521.84,248.99 522.17,249.12 522.51,249.32 522.85,249.14 523.18,248.99 523.51,248.79 523.85,248.82 524.18,248.82 524.52,248.73 524.86,248.95 525.19,248.80 525.52,249.21 525.86,249.11 526.19,249.26 526.53,249.29 526.87,249.00 527.20,248.90 527.54,248.45 527.87,247.75 528.20,247.46 528.54,247.18 528.88,247.24 529.21,247.47 529.55,247.28 529.88,247.34 530.21,247.43 530.55,247.82 530.88,247.43 531.22,247.43 531.56,247.41 531.89,247.24 532.23,246.27 532.56,245.49 532.89,245.44 533.23,245.15 533.57,245.27 533.90,244.88 534.24,244.88 534.57,245.60 534.90,246.18 535.24,246.79 535.58,247.67 535.91,248.34 536.25,249.11 536.58,249.60 536.91,250.08 537.25,250.18 537.59,250.28 537.92,250.18 538.25,250.08 538.59,249.79 538.92,249.62 539.26,249.81 539.60,249.70 539.93,250.00 540.26,249.89 540.60,250.08 540.93,249.70 541.27,249.93 541.61,249.72 541.94,249.62 542.27,249.86 542.61,249.62 542.94,249.33 543.28,249.09 543.62,249.26 543.95,249.75 544.29,250.08 544.62,250.38 544.95,250.76 545.29,250.56 545.62,250.27 545.96,250.17 546.30,250.10 546.63,250.35 546.96,250.30 547.30,250.35 547.63,250.45 547.97,250.16 548.31,250.26 548.64,250.41 548.98,250.21 549.31,250.11 549.64,250.02 549.98,250.31 550.32,250.62 550.65,250.81 550.99,250.91 551.32,251.16 551.65,251.84 551.99,252.52 552.33,253.40 552.66,253.88 553.00,254.47 553.33,255.05 553.66,255.44 554.00,256.31 554.34,257.18 554.67,257.86 555.00,258.54 555.34,259.32 555.67,259.71 556.01,260.10 556.35,260.78 556.68,261.17 557.01,261.80 557.35,262.53 557.68,263.30 558.02,264.06 558.36,264.87 558.69,265.35 559.02,265.94 559.36,266.52 559.69,266.91 560.03,267.59 560.37,268.29 560.70,268.86 561.04,269.54 561.37,270.32 561.70,270.90 562.04,271.77 562.38,272.45 562.71,273.23 563.05,273.91 563.38,274.63 563.71,275.41 564.05,276.18 564.38,276.96 564.72,277.83 565.06,278.42 565.39,279.00 565.73,279.87 566.06,280.55 566.39,281.14 566.73,282.11 567.07,282.88 567.40,283.31 567.74,284.09 568.07,284.48 568.40,285.19 568.74,285.67 569.08,286.35 569.41,287.13 569.75,288.00 570.08,288.85 570.41,289.04 570.75,289.33 571.09,289.10 571.42,289.49 571.75,289.12 572.09,288.52 572.42,288.17 572.76,288.23 573.10,288.52 573.43,288.62 573.76,288.62 574.10,288.82 574.43,288.53 574.77,288.28 575.11,288.20 575.44,287.71 575.77,287.42 576.11,287.55 576.44,287.49 576.78,287.55 577.12,287.35 577.45,287.29 577.79,287.58 578.12,287.14 578.45,286.56 578.79,285.77 579.12,285.26 579.46,284.49 579.80,283.61 580.13,283.03 580.46,282.19 580.80,281.45 581.13,280.96 581.47,280.28 581.81,279.60 582.14,278.84 582.48,278.07 582.81,277.39 583.14,276.81 583.48,276.33 583.82,275.45 584.15,274.77 584.49,274.06 584.82,273.38 585.15,272.70 585.49,272.21 585.83,271.43 586.16,270.74 586.50,269.78 586.83,269.20 587.16,268.81 587.50,267.84 587.84,267.06 588.17,266.38 588.50,265.41 588.84,264.63 589.17,264.13 589.51,263.59 589.85,262.75 590.18,262.07 590.51,261.29 590.85,260.71 591.18,259.93 591.52,259.25 591.86,258.57 592.19,257.89 592.52,256.96 592.86,255.99 593.19,255.41 593.53,254.53 593.87,253.86 594.20,252.99 594.54,252.31 594.87,251.50 595.20,250.73 595.54,249.95 595.88,249.34 596.21,248.66 596.55,247.78 596.88,247.19 597.22,247.17 597.55,247.17 597.88,247.07 598.22,246.59 598.55,245.86 598.89,245.34 599.23,244.56 599.56,243.91 599.89,243.03 600.23,242.35 600.57,241.92 600.90,241.14 601.24,240.36 601.57,239.82 601.90,239.43 602.24,238.87 602.58,237.99 602.91,237.22 603.25,236.44 603.58,235.66 603.91,234.88 604.25,234.20 604.59,233.43 604.92,232.75 605.25,232.13 605.59,231.48 605.92,230.60 606.26,229.92 606.60,229.05 606.93,228.56 607.26,227.69 607.60,227.10 607.93,226.34 608.27,225.75 608.61,225.04 608.94,224.40 609.27,223.72 609.61,223.14 609.95,222.09 610.28,221.22 610.62,220.64 610.95,220.15 611.28,219.37 611.62,218.89 611.96,218.01 612.29,217.14 612.62,216.27 612.96,215.49 613.29,214.81 613.63,214.03 613.97,213.06 614.30,212.48 614.63,212.02 614.97,211.30 615.30,210.45 615.64,209.57 615.98,208.89 616.31,208.38 616.64,207.89 616.98,207.21 617.32,206.44 617.65,205.76 617.99,205.08 618.32,204.30 618.65,203.62 618.99,202.97 619.33,202.27 619.66,201.49 620.00,200.52 620.33,199.55 620.66,198.96 621.00,198.36 621.34,197.58 621.67,197.19 622.00,196.61 622.34,195.83 622.67,195.25 623.01,194.66 623.35,193.89 623.68,193.21 624.01,192.33 624.35,191.72 624.68,191.02 625.02,190.25 625.36,189.53 625.69,189.01 626.02,188.23 626.36,187.55 626.70,186.87 627.03,186.10 627.37,185.32 627.70,184.48 628.03,183.67 628.37,182.80 628.71,182.12 629.04,181.24 629.38,180.46 629.71,180.05 630.04,179.46 630.38,179.06 630.72,178.23 631.05,177.65 631.38,176.77 631.72,176.19 632.05,175.51 632.39,174.93 632.73,174.19 633.06,173.45 633.39,172.69 633.73,172.21 634.07,171.53 634.40,170.95 634.74,170.17 635.07,169.56 635.40,168.97 635.74,168.41 636.08,167.44 636.41,166.87 636.75,166.16 637.08,165.47 637.41,164.89 637.75,164.21 638.09,163.43 638.42,162.75 638.75,162.46 639.09,161.58 639.42,160.74 639.76,160.27 640.10,159.62 640.43,159.42 640.76,158.94 641.10,158.01 641.43,157.42 641.77,156.64 642.11,156.07 642.44,155.09 642.77,154.37 643.11,153.74 643.45,152.96 643.78,152.18 644.12,151.21 644.45,150.43 644.78,149.46 645.12,148.88 645.46,148.10 645.79,147.24 646.12,146.46 646.46,145.59 646.79,144.71 647.13,144.23 647.47,143.45 647.80,142.58 648.13,141.90 648.47,140.92 648.80,140.63 649.14,139.76 649.48,139.06 649.81,138.28 650.14,137.48 650.48,136.70 650.82,136.21 651.15,135.72 651.49,134.94 651.82,134.42 652.15,133.54 652.49,132.88 652.83,132.14 653.16,131.46 653.50,130.78 653.83,130.08 654.16,129.59 654.50,128.72 654.84,128.04 655.17,127.45 655.50,126.68 655.84,126.09 656.17,125.41 656.51,124.83 656.85,124.15 657.18,123.66 657.51,122.98 657.85,122.16 658.18,121.29 658.52,120.61 658.86,120.06 659.19,119.38 659.52,118.70 659.86,117.83 660.20,117.14 660.53,116.36 660.87,115.78 661.20,115.00 661.53,114.31 661.87,113.53 662.21,112.57 662.54,111.99 662.88,111.21 663.21,110.76 663.54,110.10 663.88,109.51 664.22,108.83 664.55,108.44 664.88,107.76 665.22,107.24 665.55,106.56 665.89,105.98 666.23,105.78 666.56,105.78 666.89,105.78 667.23,105.88 667.57,105.60 667.90,105.70 668.24,106.08 668.57,106.31 668.90,105.78 669.24,105.40 669.58,105.34 669.91,105.53 670.25,104.95 670.58,104.74 670.91,104.55 671.25,104.74 671.59,104.34 671.92,103.75 672.25,103.17 672.59,103.07 672.92,102.59 673.26,102.59 673.60,102.98 673.93,103.39 674.26,104.15 674.60,103.77 674.93,103.48 675.27,103.49 675.61,103.39 675.94,103.01 676.27,102.13 676.61,101.55 676.95,100.97 677.28,100.10 677.62,99.42 677.95,98.74 678.28,98.12 678.62,97.53 678.96,96.91 679.29,96.42 679.62,95.67 679.96,95.22 680.29,95.31 680.63,95.31 680.97,95.41 681.30,95.80 681.63,95.88 681.97,96.49 682.30,96.59 682.64,96.68 682.98,96.94 683.31,97.29 683.64,97.40 683.98,97.52 684.32,97.32 684.65,97.04 684.99,96.75 685.32,97.14 685.65,97.62 685.99,97.23 686.33,97.71 686.66,98.00 687.00,98.06 687.33,98.55 687.66,98.75 688.00,98.85 688.34,98.85 688.67,98.21 689.00,97.62 689.34,97.62 689.67,97.79 690.01,97.65 690.35,97.61 690.68,97.70 691.01,97.61 691.35,97.16 691.68,96.38 692.02,95.62 692.36,95.14 692.69,94.35 693.02,93.60 693.36,93.12 693.70,93.60 694.03,94.19 694.37,94.24 694.70,94.24 695.03,94.53 695.37,94.77 695.71,94.77 696.04,95.33 696.38,95.73 696.71,95.44 697.04,94.86 697.38,94.64 697.72,94.46 698.05,94.80 698.38,94.22 698.72,94.33 699.05,94.40 699.39,93.82 699.73,93.14 700.06,92.55 700.39,91.88 700.73,91.10 701.07,90.61 701.40,90.02 701.74,89.50 702.07,88.52 702.40,87.83 702.74,87.15 703.08,86.47 703.41,85.87 703.75,85.48 704.08,84.71 704.41,84.12 704.75,83.64 705.09,83.06 705.42,82.38 705.75,82.41 706.09,81.83 706.42,80.96 706.76,80.47 707.10,79.70 707.43,79.31 707.76,78.82 708.10,78.34 708.43,78.00 708.77,77.51 709.11,76.89 709.44,76.43 709.77,75.79 710.11,75.21 710.45,74.92 710.78,74.43 711.12,73.56 711.45,72.78 711.78,72.00 712.12,71.52 712.46,71.61 712.79,71.61 713.12,72.20 713.46,72.24 713.79,72.44 714.13,71.96 714.47,72.12 714.80,72.80 715.13,73.38 715.47,74.16 715.80,74.84 716.14,75.32 716.48,76.00 716.81,76.78 717.14,77.66 717.48,78.34 717.82,79.11 718.15,79.53 718.49,79.34 718.82,78.48 719.15,78.58 719.49,79.16 719.83,79.39 720.16,80.27 720.50,79.83 720.83,79.03 721.16,78.43 721.50,77.75 721.84,76.89 722.17,76.25 722.50,75.86 722.84,75.37 723.17,74.69 723.51,74.40 723.85,74.01 724.18,73.53 724.51,72.75 724.85,72.32 725.18,72.42 725.52,73.20 725.86,73.20 726.19,73.68 726.52,74.27 726.86,75.02 727.20,75.85 727.53,76.53 727.87,77.31 728.20,77.99 728.53,78.47 728.87,78.69 729.21,79.28 729.54,79.67 729.88,80.25 730.21,80.04 730.54,79.17 730.88,78.97 731.22,79.16 731.55,79.26 731.88,79.05 732.22,79.33 732.55,79.91 732.89,79.62 733.23,78.86 733.56,78.21 733.89,77.82 734.23,78.18 734.57,78.18 734.90,78.76 735.24,79.11 735.57,79.70 735.90,80.08 736.24,80.49 736.58,80.98 736.91,81.25 737.25,80.76 737.58,79.89 737.91,79.26 738.25,78.63 738.59,77.85 738.92,77.68 739.25,77.87 739.59,78.74 739.92,79.52 740.26,79.50 740.60,79.99 740.93,80.63 741.26,81.31 741.60,81.69 741.93,82.46 742.27,82.97 742.61,83.55 742.94,83.84 743.27,83.84 743.61,84.43 743.95,84.90 744.28,85.10 744.62,85.43 744.95,86.20 745.28,86.42 745.62,86.70 745.96,87.27 746.29,87.38 746.62,87.63 746.96,88.00 747.29,87.51 747.63,87.03 747.97,86.15 748.30,85.47 748.63,84.79 748.97,84.60 749.30,84.89 749.64,85.38 749.98,85.30 750.31,85.88 750.64,86.08 750.98,86.46 751.32,86.55 751.65,87.00 751.99,86.95 752.32,87.30 752.65,87.69 752.99,88.27 753.33,88.47 753.66,88.93 754.00,89.42 754.33,89.56 754.66,89.66 755.00,90.30 755.00,259.17"/>
<line x1="783" y1="58" x2="809" y2="58" stroke="#2563eb" stroke-width="3"/>
<text x="817" y="62" font-family="Arial" font-size="13" fill="#111827">Naive</text>
<polyline fill="none" stroke="#dc2626" stroke-width="2" points="85.00,259.17 85.33,259.36 85.67,259.31 86.00,259.31 86.34,259.60 86.67,259.60 87.01,259.39 87.34,259.06 87.68,259.06 88.02,259.20 88.35,259.24 88.69,259.61 89.02,259.61 89.36,259.42 89.69,259.46 90.03,259.26 90.36,259.24 90.69,259.05 91.03,259.07 91.36,259.23 91.70,259.21 92.03,259.31 92.37,259.41 92.70,259.26 93.04,258.88 93.38,258.40 93.71,258.30 94.05,257.75 94.38,257.26 94.72,256.58 95.05,255.71 95.39,254.95 95.72,254.48 96.06,253.80 96.39,253.14 96.72,252.27 97.06,251.56 97.39,250.78 97.73,249.88 98.06,249.21 98.40,248.53 98.73,247.56 99.07,246.88 99.41,246.39 99.74,245.71 100.08,245.03 100.41,244.35 100.75,243.76 101.08,242.99 101.41,242.38 101.75,241.71 102.09,240.90 102.42,240.07 102.75,239.59 103.09,238.91 103.42,238.42 103.76,238.32 104.09,237.74 104.43,237.16 104.77,236.57 105.10,237.05 105.44,236.76 105.77,236.89 106.11,236.56 106.44,236.75 106.78,236.85 107.11,236.56 107.44,236.35 107.78,236.16 108.11,236.01 108.45,235.48 108.78,234.70 109.12,234.02 109.45,233.73 109.79,233.54 110.12,233.39 110.46,233.49 110.80,233.83 111.13,233.73 111.47,233.78 111.80,233.66 112.14,233.76 112.47,234.15 112.81,233.85 113.14,234.04 113.47,234.25 113.81,234.35 114.14,234.41 114.48,234.20 114.81,234.08 115.15,234.47 115.48,235.15 115.82,235.34 116.16,235.44 116.49,235.44 116.83,235.54 117.16,235.92 117.50,236.01 117.83,236.40 118.16,236.28 118.50,236.22 118.84,236.38 119.17,237.09 119.50,237.03 119.84,236.95 120.17,236.38 120.51,236.13 120.84,235.93 121.18,236.13 121.52,236.22 121.85,236.71 122.19,236.90 122.52,237.57 122.85,238.12 123.19,238.80 123.53,239.77 123.86,240.50 124.19,241.28 124.53,242.05 124.87,242.61 125.20,243.57 125.53,244.25 125.87,244.73 126.20,245.46 126.54,245.85 126.88,246.14 127.21,246.78 127.55,247.46 127.88,248.24 128.22,248.83 128.55,249.32 128.88,249.62 129.22,249.69 129.56,249.49 129.89,249.40 130.22,249.55 130.56,250.01 130.90,250.35 131.23,250.29 131.56,250.39 131.90,250.57 132.24,250.72 132.57,250.72 132.91,250.52 133.24,250.65 133.57,250.84 133.91,251.23 134.25,251.41 134.58,251.31 134.91,251.60 135.25,251.64 135.59,251.81 135.92,251.57 136.25,252.23 136.59,252.72 136.93,253.30 137.26,254.00 137.59,254.87 137.93,255.56 138.26,256.05 138.60,256.74 138.94,257.00 139.27,256.81 139.60,257.00 139.94,257.07 140.28,257.00 140.61,257.16 140.94,257.06 141.28,256.77 141.62,256.86 141.95,256.63 142.28,257.02 142.62,257.68 142.95,257.68 143.29,257.97 143.62,258.26 143.96,258.26 144.30,258.02 144.63,257.83 144.97,257.83 145.30,258.12 145.63,258.02 145.97,258.12 146.31,257.74 146.64,257.93 146.97,258.22 147.31,258.22 147.65,258.01 147.98,258.30 148.31,258.20 148.65,257.62 148.99,257.36 149.32,257.24 149.66,257.34 149.99,257.52 150.32,257.71 150.66,257.71 151.00,257.71 151.33,257.42 151.67,257.22 152.00,257.49 152.33,257.58 152.67,257.39 153.00,257.46 153.34,257.57 153.68,257.52 154.01,257.32 154.34,257.61 154.68,258.00 155.01,257.88 155.35,258.18 155.69,257.98 156.02,258.08 156.36,258.71 156.69,258.56 157.03,258.82 157.36,257.94 157.69,257.36 158.03,256.68 158.37,256.19 158.70,255.43 159.03,254.87 159.37,254.17 159.70,253.59 160.04,253.11 160.38,253.01 160.71,252.62 161.05,252.72 161.38,253.01 161.72,253.40 162.05,253.90 162.38,254.40 162.72,254.79 163.06,255.62 163.39,256.16 163.72,256.74 164.06,257.52 164.39,258.29 164.73,258.87 165.06,259.40 165.40,260.19 165.74,260.96 166.07,261.64 166.41,262.52 166.74,263.00 167.07,263.49 167.41,264.30 167.75,264.89 168.08,265.66 168.42,266.44 168.75,267.32 169.08,268.09 169.42,268.95 169.75,269.63 170.09,270.31 170.43,271.08 170.76,271.96 171.09,272.35 171.43,273.02 171.76,273.95 172.10,274.53 172.44,275.26 172.77,276.04 173.11,276.62 173.44,277.21 173.78,277.75 174.11,278.43 174.44,279.20 174.78,279.98 175.12,280.61 175.45,281.29 175.78,282.07 176.12,282.75 176.45,283.53 176.79,284.36 177.12,285.14 177.46,285.69 177.80,286.27 178.13,287.15 178.47,287.93 178.80,288.61 179.13,289.29 179.47,289.97 179.81,290.51 180.14,291.19 180.47,292.20 180.81,292.49 181.14,293.27 181.48,293.85 181.81,294.72 182.15,295.26 182.49,295.94 182.82,296.81 183.16,297.59 183.49,298.08 183.82,298.89 184.16,299.39 184.50,300.12 184.83,301.10 185.17,301.87 185.50,302.75 185.83,303.50 186.17,304.28 186.50,305.16 186.84,305.84 187.18,306.67 187.51,307.64 187.84,308.03 188.18,308.29 188.51,308.97 188.85,309.73 189.19,310.31 189.52,310.99 189.86,311.43 190.19,312.21 190.53,313.00 190.86,313.98 191.19,314.65 191.53,315.43 191.87,316.01 192.20,316.99 192.53,316.79 192.87,316.38 193.20,316.14 193.54,316.04 193.88,316.04 194.21,315.56 194.55,314.88 194.88,314.68 195.22,314.67 195.55,314.48 195.88,314.67 196.22,314.86 196.56,314.78 196.89,314.66 197.22,314.81 197.56,315.20 197.89,315.88 198.23,316.46 198.56,317.34 198.90,317.97 199.24,318.74 199.57,319.23 199.91,319.71 200.24,319.57 200.57,320.06 200.91,319.98 201.25,319.98 201.58,320.04 201.92,319.65 202.25,319.37 202.58,319.95 202.92,320.43 203.25,321.11 203.59,321.79 203.93,322.62 204.26,323.30 204.59,323.80 204.93,324.29 205.26,324.89 205.60,324.49 205.94,324.97 206.27,325.04 206.61,324.65 206.94,323.96 207.28,323.77 207.61,323.52 207.94,323.62 208.28,324.40 208.62,325.08 208.95,325.76 209.28,325.95 209.62,326.63 209.95,327.21 210.29,327.70 210.62,328.30 210.96,328.86 211.30,329.35 211.63,330.13 211.97,330.71 212.30,331.21 212.63,331.69 212.97,332.45 213.31,333.13 213.64,333.91 213.97,334.59 214.31,335.24 214.65,335.92 214.98,336.24 215.31,336.56 215.65,336.17 215.99,336.97 216.32,337.46 216.66,338.04 216.99,338.63 217.32,339.34 217.66,340.12 218.00,340.90 218.33,341.60 218.66,342.30 219.00,343.16 219.34,343.65 219.67,344.33 220.00,345.03 220.34,345.51 220.68,345.96 221.01,346.54 221.34,347.32 221.68,348.00 222.01,348.58 222.35,349.46 222.69,350.23 223.02,351.01 223.35,351.54 223.69,352.22 224.03,352.90 224.36,353.68 224.69,354.44 225.03,355.12 225.37,355.60 225.70,356.54 226.03,357.06 226.37,357.76 226.71,358.34 227.04,359.02 227.38,359.66 227.71,360.44 228.04,361.22 228.38,361.77 228.72,362.45 229.05,362.84 229.38,362.99 229.72,363.67 230.06,364.44 230.39,364.88 230.72,365.56 231.06,366.24 231.40,366.92 231.73,367.70 232.06,368.28 232.40,368.79 232.74,369.47 233.07,370.37 233.41,371.18 233.74,371.96 234.07,372.64 234.41,373.42 234.75,374.19 235.08,374.97 235.41,375.84 235.75,376.62 236.09,377.30 236.42,377.87 236.75,378.17 237.09,378.22 237.43,378.13 237.76,378.22 238.09,377.93 238.43,378.44 238.76,378.95 239.10,379.63 239.44,380.23 239.77,380.81 240.10,381.49 240.44,382.07 240.78,382.09 241.11,381.48 241.44,381.28 241.78,381.48 242.12,381.58 242.45,381.35 242.78,380.96 243.12,380.38 243.46,380.19 243.79,379.80 244.12,380.38 244.46,381.26 244.79,381.94 245.13,382.62 245.47,383.40 245.80,384.08 246.13,384.79 246.47,385.47 246.81,386.09 247.14,386.87 247.47,386.91 247.81,387.10 248.15,386.52 248.48,385.92 248.81,386.29 249.15,386.77 249.49,386.97 249.82,386.97 250.16,386.87 250.49,386.77 250.82,387.06 251.16,387.06 251.50,387.57 251.83,388.25 252.16,388.05 252.50,387.51 252.84,387.31 253.17,387.31 253.50,387.41 253.84,387.92 254.18,388.01 254.51,388.56 254.84,389.24 255.18,389.95 255.51,390.92 255.85,391.11 256.19,391.60 256.52,392.28 256.86,392.96 257.19,393.68 257.52,394.45 257.86,395.04 258.19,395.60 258.53,396.09 258.87,396.96 259.20,397.64 259.53,397.48 259.87,397.97 260.21,397.78 260.54,397.97 260.88,398.06 261.21,397.39 261.54,396.61 261.88,395.74 262.22,395.06 262.55,394.28 262.88,393.63 263.22,392.85 263.56,392.42 263.89,392.33 264.23,392.49 264.56,392.01 264.89,391.90 265.23,391.73 265.56,391.18 265.90,390.50 266.24,390.21 266.57,390.02 266.90,389.85 267.24,389.39 267.57,389.39 267.91,389.36 268.25,389.05 268.58,388.76 268.91,388.08 269.25,387.69 269.59,387.33 269.92,387.25 270.25,387.73 270.59,388.44 270.93,389.22 271.26,390.19 271.60,389.98 271.93,389.54 272.26,389.53 272.60,390.24 272.94,391.11 273.27,391.10 273.61,390.65 273.94,391.33 274.27,392.10 274.61,392.41 274.94,392.58 275.28,393.36 275.62,393.76 275.95,394.64 276.28,395.22 276.62,395.71 276.96,396.03 277.29,396.61 277.62,397.30 277.96,397.89 278.29,398.57 278.63,398.49 278.97,398.69 279.30,398.51 279.63,398.22 279.97,397.83 280.31,396.96 280.64,396.09 280.98,395.59 281.31,395.69 281.64,395.05 281.98,395.05 282.31,394.56 282.65,394.27 282.99,393.78 283.32,393.69 283.65,393.97 283.99,394.16 284.32,394.53 284.66,395.18 285.00,395.64 285.33,396.12 285.66,396.42 286.00,396.31 286.34,396.41 286.67,396.70 287.00,397.57 287.34,397.96 287.68,398.54 288.01,398.35 288.35,397.66 288.68,397.14 289.01,396.46 289.35,395.74 289.69,395.09 290.02,394.30 290.36,394.49 290.69,394.23 291.02,393.84 291.36,393.36 291.69,393.55 292.03,393.30 292.37,392.52 292.70,391.60 293.03,390.82 293.37,390.56 293.71,390.37 294.04,390.23 294.38,389.65 294.71,389.45 295.04,389.06 295.38,388.82 295.72,388.63 296.05,388.59 296.38,387.98 296.72,387.26 297.06,386.69 297.39,385.92 297.73,385.24 298.06,384.63 298.39,383.78 298.73,383.38 299.06,382.60 299.40,382.02 299.74,381.54 300.07,381.05 300.40,380.32 300.74,379.74 301.07,378.97 301.41,378.20 301.75,377.32 302.08,376.61 302.41,375.86 302.75,374.90 303.09,374.13 303.42,373.35 303.75,372.77 304.09,372.18 304.43,371.66 304.76,370.87 305.10,370.09 305.43,369.32 305.76,368.74 306.10,368.06 306.44,367.56 306.77,367.07 307.11,366.20 307.44,365.60 307.77,365.02 308.11,364.33 308.44,363.57 308.78,362.95 309.12,362.79 309.45,361.92 309.78,361.20 310.12,360.42 310.46,359.74 310.79,359.24 311.12,358.56 311.46,357.58 311.79,356.81 312.13,356.23 312.47,355.36 312.80,354.68 313.13,354.02 313.47,353.48 313.81,352.51 314.14,351.53 314.48,350.99 314.81,350.21 315.14,349.44 315.48,348.62 315.81,347.94 316.15,347.16 316.49,346.39 316.82,345.51 317.15,344.89 317.49,344.02 317.82,342.97 318.16,342.19 318.50,341.32 318.83,340.54 319.16,340.03 319.50,339.27 319.84,338.49 320.17,337.69 320.50,336.82 320.84,335.87 321.18,335.38 321.51,334.79 321.85,334.11 322.18,333.33 322.51,332.80 322.85,332.02 323.19,331.24 323.52,330.59 323.86,329.72 324.19,329.05 324.52,328.25 324.86,327.48 325.19,326.70 325.53,326.00 325.87,325.42 326.20,324.58 326.53,323.71 326.87,323.22 327.21,322.64 327.54,322.06 327.88,321.28 328.21,320.50 328.54,319.92 328.88,319.25 329.22,318.59 329.55,318.01 329.88,317.23 330.22,316.62 330.56,316.23 330.89,315.65 331.23,315.00 331.56,314.42 331.89,313.74 332.23,312.96 332.56,312.34 332.90,311.47 333.24,310.50 333.57,309.91 333.90,309.32 334.24,308.45 334.57,307.75 334.91,306.97 335.25,306.29 335.58,305.48 335.91,305.09 336.25,304.41 336.59,303.73 336.92,303.24 337.25,302.77 337.59,302.09 337.93,301.21 338.26,300.53 338.60,299.66 338.93,298.88 339.26,298.11 339.60,297.43 339.94,296.85 340.27,295.98 340.61,295.20 340.94,294.52 341.27,293.74 341.61,293.01 341.94,292.62 342.28,292.23 342.62,291.65 342.95,291.85 343.29,292.69 343.62,293.50 343.95,294.12 344.29,294.22 344.62,294.41 344.96,293.73 345.30,293.96 345.63,294.05 345.96,294.05 346.30,293.96 346.63,294.20 346.97,294.10 347.31,294.14 347.64,294.15 347.98,294.11 348.31,293.82 348.64,293.41 348.98,293.02 349.31,293.02 349.65,293.12 349.99,293.06 350.32,293.24 350.65,293.08 350.99,292.99 351.32,292.89 351.66,292.70 352.00,292.61 352.33,292.61 352.67,292.41 353.00,292.22 353.33,292.08 353.67,291.74 354.00,291.16 354.34,290.38 354.68,289.45 355.01,289.24 355.35,288.56 355.68,288.27 356.01,287.68 356.35,287.00 356.69,286.32 357.02,285.41 357.36,284.54 357.69,283.66 358.02,282.98 358.36,282.01 358.69,281.23 359.03,280.85 359.37,280.46 359.70,280.07 360.04,279.39 360.37,278.71 360.70,278.62 361.04,278.66 361.38,278.66 361.71,278.76 362.05,278.76 362.38,278.73 362.71,278.63 363.05,278.76 363.38,278.96 363.72,278.96 364.06,278.82 364.39,278.92 364.73,278.82 365.06,278.95 365.39,278.56 365.73,277.96 366.06,277.34 366.40,277.05 366.74,276.27 367.07,275.78 367.40,275.40 367.74,274.81 368.07,273.99 368.41,273.13 368.75,272.42 369.08,272.04 369.42,271.75 369.75,271.75 370.08,270.88 370.42,270.45 370.75,270.36 371.09,269.97 371.43,270.06 371.76,269.38 372.10,268.97 372.43,268.32 372.76,267.64 373.10,266.86 373.44,266.28 373.77,265.40 374.11,264.82 374.44,264.33 374.77,263.46 375.11,262.78 375.44,262.10 375.78,261.15 376.12,260.47 376.45,259.95 376.79,259.27 377.12,258.50 377.45,257.72 377.79,256.97 378.12,256.58 378.46,256.01 378.80,255.72 379.13,254.90 379.46,254.42 379.80,253.71 380.13,252.84 380.47,252.07 380.81,251.29 381.14,250.71 381.48,250.09 381.81,249.66 382.14,248.89 382.48,248.60 382.81,247.63 383.15,246.91 383.49,246.18 383.82,245.40 384.15,244.62 384.49,244.02 384.82,243.54 385.16,243.05 385.50,242.37 385.83,242.33 386.17,242.30 386.50,242.17 386.83,242.08 387.17,241.30 387.50,240.43 387.84,239.71 388.18,239.23 388.51,239.38 388.85,239.28 389.18,239.60 389.51,239.79 389.85,239.50 390.19,239.40 390.52,238.92 390.86,238.43 391.19,238.53 391.52,238.77 391.86,238.57 392.19,238.37 392.53,237.98 392.87,237.11 393.20,237.01 393.54,237.01 393.87,237.69 394.20,237.96 394.54,237.91 394.88,237.98 395.21,238.21 395.55,238.14 395.88,237.94 396.21,237.90 396.55,238.05 396.88,237.88 397.22,237.88 397.56,238.54 397.89,238.43 398.23,238.33 398.56,238.33 398.89,238.25 399.23,238.29 399.56,238.45 399.90,238.34 400.24,238.36 400.57,238.26 400.90,238.75 401.24,238.36 401.57,237.58 401.91,237.10 402.25,236.42 402.58,235.84 402.92,234.96 403.25,234.57 403.58,233.86 403.92,233.21 404.25,232.63 404.59,232.05 404.93,231.27 405.26,230.40 405.60,229.72 405.93,228.84 406.26,228.07 406.60,227.29 406.94,226.61 407.27,225.97 407.61,225.19 407.94,224.61 408.27,223.83 408.61,223.03 408.94,222.20 409.28,221.81 409.62,221.13 409.95,220.35 410.29,219.48 410.62,218.80 410.95,218.12 411.29,217.25 411.62,216.45 411.96,215.86 412.30,215.27 412.63,214.50 412.96,213.72 413.30,212.94 413.63,212.23 413.97,211.66 414.31,210.98 414.64,210.20 414.98,209.52 415.31,208.75 415.64,208.17 415.98,207.78 416.31,207.18 416.65,206.41 416.99,205.73 417.32,205.12 417.65,204.45 417.99,203.96 418.32,203.09 418.66,202.41 419.00,202.02 419.33,201.14 419.67,200.56 420.00,199.78 420.33,199.01 420.67,198.42 421.00,197.88 421.34,197.10 421.68,196.23 422.01,195.45 422.35,194.97 422.68,194.17 423.01,193.39 423.35,192.62 423.69,191.94 424.02,191.23 424.36,190.64 424.69,189.87 425.02,189.11 425.36,188.53 425.69,187.85 426.03,187.17 426.37,186.49 426.70,185.81 427.04,185.17 427.37,184.43 427.70,183.84 428.04,183.22 428.38,182.54 428.71,182.15 429.05,181.55 429.38,180.68 429.71,180.10 430.05,179.12 430.38,178.44 430.72,177.67 431.06,177.18 431.39,176.60 431.73,176.13 432.06,175.53 432.39,174.75 432.73,173.98 433.06,173.25 433.40,172.47 433.74,171.87 434.07,171.29 434.40,170.71 434.74,170.03 435.07,169.16 435.41,168.50 435.75,167.82 436.08,167.33 436.42,166.75 436.75,165.88 437.08,164.90 437.42,164.13 437.75,163.34 438.09,162.68 438.43,161.94 438.76,161.07 439.10,160.68 439.43,160.00 439.76,159.42 440.10,158.93 440.44,158.06 440.77,157.56 441.11,156.78 441.44,156.11 441.77,155.43 442.11,154.75 442.44,153.87 442.78,153.39 443.12,152.80 443.45,151.93 443.79,151.25 444.12,150.57 444.45,149.80 444.79,149.02 445.12,148.64 445.46,148.09 445.80,147.51 446.13,146.64 446.46,145.77 446.80,145.19 447.13,144.70 447.47,143.94 447.81,143.45 448.14,142.68 448.48,141.93 448.81,141.16 449.14,140.77 449.48,140.95 449.81,141.21 450.15,141.14 450.49,141.53 450.82,141.38 451.15,141.49 451.49,141.86 451.82,141.47 452.16,141.90 452.50,141.51 452.83,141.59 453.17,141.50 453.50,141.28 453.83,141.28 454.17,141.97 454.50,141.97 454.84,142.42 455.18,142.81 455.51,142.91 455.85,142.62 456.18,143.30 456.51,143.82 456.85,144.69 457.19,145.47 457.52,145.99 457.86,146.77 458.19,147.45 458.52,147.84 458.86,148.42 459.19,148.52 459.53,148.62 459.87,148.70 460.20,148.73 460.54,148.83 460.87,148.88 461.20,148.82 461.54,148.86 461.88,148.98 462.21,149.05 462.55,149.15 462.88,149.25 463.21,149.25 463.55,149.64 463.88,149.54 464.22,149.06 464.56,149.16 464.89,148.95 465.23,148.89 465.56,148.76 465.89,148.86 466.23,148.67 466.56,149.05 466.90,149.05 467.24,149.15 467.57,149.58 467.90,149.75 468.24,149.66 468.57,149.66 468.91,149.56 469.25,149.46 469.58,149.66 469.92,149.83 470.25,149.91 470.58,150.20 470.92,150.30 471.25,150.20 471.59,150.20 471.93,149.52 472.26,149.52 472.60,149.33 472.93,149.42 473.26,149.42 473.60,149.55 473.94,149.64 474.27,149.48 474.61,149.71 474.94,150.20 475.27,150.98 475.61,151.64 475.94,152.41 476.28,153.09 476.62,153.18 476.95,153.18 477.29,153.50 477.62,154.33 477.95,155.01 478.29,155.78 478.62,156.46 478.96,157.14 479.30,158.01 479.63,158.74 479.96,159.22 480.30,159.90 480.63,160.68 480.97,161.46 481.31,162.43 481.64,163.30 481.98,163.81 482.31,164.78 482.64,165.24 482.98,166.02 483.31,166.80 483.65,167.48 483.99,168.06 484.32,168.98 484.65,169.57 484.99,169.91 485.32,170.78 485.66,171.34 486.00,172.12 486.33,172.80 486.67,173.51 487.00,174.19 487.33,174.97 487.67,175.74 488.00,176.62 488.34,177.49 488.68,178.29 489.01,179.13 489.35,179.80 489.68,180.58 490.01,181.36 490.35,181.91 490.69,182.59 491.02,183.37 491.36,184.02 491.69,184.67 492.02,185.45 492.36,185.91 492.69,186.74 493.03,187.61 493.37,188.27 493.70,189.05 494.04,189.83 494.37,190.51 494.70,191.20 495.04,191.88 495.38,192.65 495.71,193.33 496.05,194.21 496.38,194.69 496.71,195.38 497.05,195.67 497.38,196.35 497.72,197.13 498.06,197.91 498.39,198.49 498.73,199.46 499.06,200.22 499.39,200.92 499.73,201.70 500.06,202.41 500.40,203.07 500.74,203.52 501.07,204.30 501.40,204.79 501.74,205.25 502.07,206.03 502.41,207.00 502.75,207.78 503.08,208.65 503.42,209.30 503.75,210.08 504.08,210.76 504.42,211.54 504.75,212.31 505.09,213.09 505.43,213.87 505.76,214.70 506.10,215.28 506.43,215.69 506.76,216.54 507.10,217.22 507.44,217.99 507.77,218.58 508.11,218.73 508.44,219.05 508.77,219.64 509.11,220.32 509.44,220.90 509.78,221.48 510.12,222.26 510.45,222.84 510.79,223.23 511.12,223.38 511.45,223.27 511.79,223.58 512.12,223.29 512.46,223.58 512.80,223.99 513.13,224.18 513.46,224.02 513.80,224.13 514.13,224.10 514.47,224.02 514.81,224.11 515.14,224.41 515.48,224.19 515.81,224.09 516.14,223.71 516.48,223.41 516.82,223.41 517.15,223.51 517.49,223.12 517.82,223.32 518.15,223.71 518.49,223.61 518.83,223.65 519.16,223.45 519.50,223.94 519.83,224.72 520.16,225.44 520.50,226.03 520.84,226.69 521.17,227.37 521.50,227.71 521.84,227.88 522.17,228.02 522.51,228.21 522.85,228.04 523.18,227.88 523.51,227.69 523.85,227.72 524.18,227.72 524.52,227.63 524.86,227.84 525.19,227.70 525.52,228.11 525.86,228.01 526.19,228.15 526.53,228.18 526.87,227.99 527.20,228.38 527.54,227.93 527.87,227.23 528.20,227.13 528.54,226.95 528.88,227.01 529.21,227.24 529.55,227.14 529.88,227.30 530.21,227.40 530.55,227.78 530.88,227.40 531.22,227.40 531.56,227.57 531.89,227.49 532.23,226.72 532.56,226.04 532.89,226.08 533.23,225.99 533.57,226.10 533.90,225.72 534.24,225.72 534.57,226.43 534.90,227.02 535.24,227.63 535.58,228.50 535.91,229.17 536.25,229.95 536.58,230.44 536.91,230.92 537.25,231.02 537.59,231.21 537.92,231.12 538.25,231.02 538.59,230.73 538.92,230.55 539.26,230.75 539.60,230.63 539.93,230.93 540.26,230.82 540.60,231.21 540.93,230.82 541.27,231.06 541.61,230.84 541.94,230.75 542.27,230.99 542.61,230.75 542.94,230.46 543.28,230.22 543.62,230.39 543.95,230.87 544.29,231.21 544.62,231.50 544.95,231.88 545.29,231.69 545.62,231.40 545.96,231.30 546.30,231.23 546.63,231.48 546.96,231.62 547.30,231.67 547.63,231.78 547.97,231.49 548.31,231.58 548.64,231.73 548.98,231.53 549.31,231.44 549.64,231.34 549.98,231.63 550.32,232.04 550.65,232.23 550.99,232.33 551.32,232.58 551.65,233.26 551.99,233.94 552.33,234.82 552.66,235.30 553.00,235.89 553.33,236.47 553.66,236.86 554.00,237.73 554.34,238.60 554.67,239.28 555.00,239.96 555.34,240.74 555.67,241.13 556.01,241.63 556.35,242.31 556.68,242.70 557.01,243.33 557.35,244.06 557.68,244.84 558.02,245.60 558.36,246.40 558.69,246.89 559.02,247.57 559.36,248.15 559.69,248.54 560.03,249.22 560.37,249.92 560.70,250.49 561.04,251.17 561.37,251.95 561.70,252.53 562.04,253.41 562.38,254.09 562.71,254.86 563.05,255.54 563.38,256.26 563.71,257.04 564.05,257.82 564.38,258.59 564.72,259.47 565.06,260.05 565.39,260.63 565.73,261.51 566.06,262.19 566.39,262.77 566.73,263.74 567.07,264.52 567.40,264.95 567.74,265.72 568.07,266.11 568.40,266.82 568.74,267.14 569.08,267.82 569.41,268.60 569.75,269.47 570.08,270.32 570.41,270.41 570.75,270.71 571.09,270.47 571.42,270.86 571.75,270.49 572.09,269.89 572.42,269.54 572.76,269.57 573.10,269.86 573.43,269.86 573.76,269.87 574.10,270.06 574.43,269.77 574.77,269.52 575.11,269.44 575.44,268.96 575.77,268.76 576.11,268.89 576.44,268.83 576.78,268.89 577.12,268.69 577.45,268.64 577.79,268.92 578.12,268.48 578.45,267.90 578.79,267.11 579.12,266.61 579.46,265.83 579.80,264.96 580.13,264.37 580.46,263.53 580.80,262.79 581.13,262.30 581.47,261.69 581.81,261.01 582.14,260.25 582.48,259.48 582.81,258.80 583.14,258.22 583.48,257.74 583.82,256.86 584.15,256.18 584.49,255.47 584.82,254.79 585.15,254.11 585.49,253.62 585.83,252.84 586.16,252.15 586.50,251.19 586.83,250.61 587.16,250.42 587.50,249.44 587.84,248.67 588.17,247.99 588.50,247.02 588.84,246.24 589.17,245.73 589.51,245.19 589.85,244.35 590.18,243.67 590.51,242.90 590.85,242.31 591.18,241.54 591.52,240.86 591.86,240.18 592.19,239.50 592.52,238.57 592.86,237.59 593.19,237.01 593.53,236.14 593.87,235.46 594.20,234.58 594.54,233.90 594.87,233.10 595.20,232.32 595.54,231.54 595.88,230.93 596.21,230.35 596.55,229.47 596.88,228.98 597.22,229.06 597.55,229.06 597.88,229.15 598.22,228.77 598.55,228.04 598.89,227.51 599.23,226.74 599.56,226.08 599.89,225.21 600.23,224.53 600.57,224.09 600.90,223.32 601.24,222.54 601.57,221.90 601.90,221.51 602.24,220.95 602.58,220.27 602.91,219.49 603.25,218.71 603.58,217.94 603.91,217.16 604.25,216.48 604.59,215.70 604.92,215.02 605.25,214.40 605.59,213.75 605.92,212.88 606.26,212.20 606.60,211.32 606.93,210.84 607.26,209.96 607.60,209.38 607.93,208.61 608.27,208.03 608.61,207.31 608.94,206.68 609.27,205.99 609.61,205.42 609.95,204.37 610.28,203.49 610.62,202.91 610.95,202.42 611.28,201.65 611.62,201.16 611.96,200.29 612.29,199.41 612.62,198.54 612.96,197.76 613.29,197.08 613.63,196.31 613.97,195.33 614.30,194.75 614.63,194.30 614.97,193.58 615.30,192.72 615.64,191.85 615.98,191.17 616.31,190.65 616.64,190.17 616.98,189.49 617.32,188.71 617.65,188.03 617.99,187.35 618.32,186.57 618.65,185.89 618.99,185.24 619.33,184.54 619.66,183.77 620.00,182.80 620.33,181.82 620.66,181.23 621.00,180.63 621.34,179.85 621.67,179.46 622.00,178.88 622.34,178.10 622.67,177.52 623.01,176.94 623.35,176.16 623.68,175.48 624.01,174.61 624.35,174.00 624.68,173.30 625.02,172.52 625.36,171.80 625.69,171.29 626.02,170.51 626.36,169.83 626.70,169.15 627.03,168.37 627.37,167.60 627.70,166.75 628.03,165.94 628.37,165.07 628.71,164.39 629.04,163.52 629.38,162.74 629.71,162.32 630.04,161.74 630.38,161.33 630.72,160.50 631.05,159.92 631.38,159.05 631.72,158.47 632.05,157.79 632.39,157.20 632.73,156.46 633.06,155.73 633.39,154.97 633.73,154.48 634.07,153.80 634.40,153.22 634.74,152.44 635.07,151.83 635.40,151.25 635.74,150.69 636.08,149.71 636.41,149.14 636.75,148.43 637.08,147.74 637.41,147.16 637.75,146.48 638.09,145.70 638.42,145.02 638.75,144.73 639.09,143.86 639.42,143.01 639.76,142.55 640.10,141.90 640.43,141.69 640.76,141.22 641.10,140.28 641.43,139.69 641.77,138.91 642.11,138.34 642.44,137.37 642.77,136.64 643.11,136.01 643.45,135.23 643.78,134.46 644.12,133.48 644.45,132.71 644.78,131.74 645.12,131.15 645.46,130.38 645.79,129.51 646.12,128.73 646.46,127.86 646.79,126.99 647.13,126.50 647.47,125.72 647.80,124.85 648.13,124.17 648.47,123.20 648.80,122.91 649.14,122.03 649.48,121.33 649.81,120.55 650.14,119.74 650.48,118.96 650.82,118.48 651.15,117.98 651.49,117.21 651.82,116.62 652.15,115.85 652.49,115.26 652.83,114.58 653.16,113.90 653.50,113.22 653.83,112.51 654.16,112.03 654.50,111.15 654.84,110.47 655.17,109.89 655.50,109.12 655.84,108.44 656.17,107.76 656.51,107.08 656.85,106.40 657.18,105.74 657.51,105.06 657.85,104.24 658.18,103.37 658.52,102.69 658.86,102.24 659.19,101.56 659.52,100.90 659.86,100.02 660.20,99.33 660.53,98.56 660.87,97.88 661.20,97.10 661.53,96.41 661.87,95.63 662.21,94.67 662.54,94.09 662.88,93.31 663.21,92.86 663.54,92.20 663.88,91.61 664.22,90.84 664.55,90.45 664.88,89.77 665.22,89.24 665.55,88.59 665.89,88.98 666.23,89.20 666.56,89.50 666.89,90.18 667.23,90.37 667.57,90.19 667.90,90.48 668.24,90.86 668.57,91.09 668.90,91.32 669.24,91.22 669.58,91.65 669.91,91.85 670.25,91.78 670.58,91.77 670.91,91.67 671.25,91.96 671.59,92.23 671.92,92.04 672.25,91.94 672.59,92.33 672.92,92.72 673.26,93.30 673.60,93.69 673.93,94.50 674.26,95.35 674.60,95.39 674.93,95.49 675.27,95.69 675.61,96.02 675.94,96.20 676.27,95.32 676.61,94.84 676.95,94.25 677.28,93.46 677.62,92.78 677.95,92.10 678.28,91.48 678.62,90.88 678.96,90.11 679.29,89.62 679.62,89.07 679.96,88.81 680.29,89.29 680.63,89.73 680.97,89.85 681.30,90.33 681.63,90.80 681.97,91.48 682.30,91.67 682.64,91.87 682.98,92.21 683.31,92.67 683.64,92.78 683.98,92.89 684.32,92.89 684.65,93.00 684.99,92.71 685.32,93.10 685.65,93.57 685.99,93.38 686.33,93.96 686.66,94.35 687.00,94.41 687.33,94.90 687.66,95.38 688.00,95.58 688.34,95.77 688.67,95.71 689.00,95.32 689.34,95.36 689.67,95.62 690.01,95.68 690.35,95.63 690.68,95.73 691.01,95.63 691.35,95.19 691.68,94.41 692.02,93.85 692.36,93.65 692.69,92.97 693.02,92.22 693.36,91.84 693.70,92.32 694.03,93.10 694.37,93.15 694.70,93.24 695.03,93.63 695.37,93.88 695.71,93.89 696.04,94.45 696.38,94.92 696.71,94.72 697.04,94.24 697.38,94.02 697.72,93.84 698.05,94.37 698.38,93.89 698.72,94.18 699.05,94.15 699.39,93.66 699.73,92.98 700.06,92.40 700.39,91.82 700.73,91.04 701.07,90.55 701.40,90.16 701.74,89.67 702.07,88.80 702.40,88.11 702.74,87.43 703.08,86.75 703.41,86.15 703.75,85.77 704.08,84.99 704.41,84.31 704.75,83.92 705.09,83.34 705.42,82.66 705.75,82.70 706.09,82.27 706.42,81.40 706.76,80.91 707.10,80.23 707.43,79.84 707.76,79.29 708.10,78.80 708.43,78.36 708.77,77.88 709.11,77.26 709.44,76.80 709.77,76.16 710.11,75.53 710.45,75.23 710.78,74.74 711.12,73.87 711.45,73.09 711.78,72.31 712.12,71.93 712.46,71.93 712.79,72.17 713.12,72.76 713.46,73.09 713.79,73.49 714.13,73.29 714.47,73.39 714.80,74.10 715.13,74.68 715.47,75.46 715.80,76.14 716.14,76.72 716.48,77.40 716.81,78.18 717.14,79.05 717.48,79.83 717.82,80.61 718.15,81.03 718.49,80.93 718.82,80.07 719.15,80.17 719.49,80.75 719.83,80.99 720.16,81.86 720.50,81.42 720.83,80.63 721.16,80.03 721.50,79.35 721.84,78.48 722.17,77.90 722.50,77.51 722.84,77.02 723.17,76.34 723.51,76.05 723.85,75.59 724.18,75.00 724.51,74.19 724.85,73.76 725.18,73.96 725.52,74.73 725.86,74.73 726.19,75.31 726.52,75.90 726.86,76.73 727.20,77.56 727.53,78.24 727.87,79.02 728.20,79.70 728.53,80.08 728.87,80.38 729.21,80.96 729.54,81.35 729.88,81.93 730.21,81.73 730.54,80.85 730.88,80.65 731.22,80.84 731.55,80.94 731.88,80.73 732.22,81.01 732.55,81.59 732.89,81.30 733.23,80.54 733.56,79.86 733.89,79.57 734.23,79.93 734.57,79.93 734.90,80.41 735.24,80.76 735.57,81.44 735.90,81.73 736.24,82.05 736.58,82.63 736.91,82.90 737.25,82.41 737.58,81.54 737.91,80.91 738.25,80.28 738.59,79.50 738.92,79.33 739.25,79.62 739.59,80.49 739.92,81.27 740.26,81.17 740.60,81.56 740.93,82.20 741.26,82.78 741.60,83.16 741.93,83.94 742.27,84.43 742.61,85.01 742.94,85.30 743.27,85.20 743.61,85.79 743.95,86.26 744.28,86.36 744.62,86.59 744.95,87.37 745.28,87.58 745.62,87.86 745.96,88.44 746.29,88.49 746.62,88.74 746.96,89.01 747.29,88.53 747.63,87.95 747.97,87.08 748.30,86.40 748.63,85.72 748.97,85.52 749.30,85.81 749.64,86.28 749.98,86.20 750.31,86.79 750.64,86.98 750.98,87.36 751.32,87.46 751.65,87.90 751.99,87.85 752.32,88.20 752.65,88.59 752.99,89.17 753.33,89.37 753.66,89.66 754.00,90.15 754.33,90.29 754.66,90.39 755.00,91.03 755.00,259.17"/>
<line x1="783" y1="82" x2="809" y2="82" stroke="#dc2626" stroke-width="3"/>
<text x="817" y="86" font-family="Arial" font-size="13" fill="#111827">Avellaneda Stoikov</text>
<polyline fill="none" stroke="#7c3aed" stroke-width="2" points=""/>
<line x1="783" y1="106" x2="809" y2="106" stroke="#7c3aed" stroke-width="3"/>
<text x="817" y="110" font-family="Arial" font-size="13" fill="#111827">Calibrated Avellaneda Stoikov</text>
<text x="420.0" y="518" text-anchor="middle" font-family="Arial" font-size="14" fill="#111827">Event index</text>
<text x="22" y="256.0" text-anchor="middle" transform="rotate(-90 22 256.0)" font-family="Arial" font-size="14" fill="#111827">Inventory</text>
</svg>
