<svg xmlns="http://www.w3.org/2000/svg" width="940" height="540" viewBox="0 0 940 540">
<rect width="100%" height="100%" fill="#ffffff"/>
<text x="470.0" y="26" text-anchor="middle" font-family="Arial" font-size="18" fill="#111827">Trending Cumulative PnL After Fees</text>
<line x1="85" y1="470" x2="755" y2="470" stroke="#111827" stroke-width="1"/>
<line x1="85" y1="42" x2="85" y2="470" stroke="#111827" stroke-width="1"/>
<line x1="85.00" y1="42" x2="85.00" y2="470" stroke="#e5e7eb" stroke-width="1"/>
<text x="85.00" y="494" text-anchor="middle" font-family="Arial" font-size="12" fill="#374151">0</text>
<line x1="252.50" y1="42" x2="252.50" y2="470" stroke="#e5e7eb" stroke-width="1"/>
<text x="252.50" y="494" text-anchor="middle" font-family="Arial" font-size="12" fill="#374151">50000</text>
<line x1="420.00" y1="42" x2="420.00" y2="470" stroke="#e5e7eb" stroke-width="1"/>
<text x="420.00" y="494" text-anchor="middle" font-family="Arial" font-size="12" fill="#374151">100000</text>
<line x1="587.50" y1="42" x2="587.50" y2="470" stroke="#e5e7eb" stroke-width="1"/>
<text x="587.50" y="494" text-anchor="middle" font-family="Arial" font-size="12" fill="#374151">150000</text>
<line x1="755.00" y1="42" x2="755.00" y2="470" stroke="#e5e7eb" stroke-width="1"/>
<text x="755.00" y="494" text-anchor="middle" font-family="Arial" font-size="12" fill="#374151">200000</text>
<line x1="85" y1="470.00" x2="755" y2="470.00" stroke="#e5e7eb" stroke-width="1"/>
<text x="73" y="474.00" text-anchor="end" font-family="Arial" font-size="12" fill="#374151">-2303494</text>
<line x1="85" y1="363.00" x2="755" y2="363.00" stroke="#e5e7eb" stroke-width="1"/>
<text x="73" y="367.00" text-anchor="end" font-family="Arial" font-size="12" fill="#374151">44409</text>
<line x1="85" y1="256.00" x2="755" y2="256.00" stroke="#e5e7eb" stroke-width="1"/>
<text x="73" y="260.00" text-anchor="end" font-family="Arial" font-size="12" fill="#374151">2392311</text>
<line x1="85" y1="149.00" x2="755" y2="149.00" stroke="#e5e7eb" stroke-width="1"/>
<text x="73" y="153.00" text-anchor="end" font-family="Arial" font-size="12" fill="#374151">4740214</text>
<line x1="85" y1="42.00" x2="755" y2="42.00" stroke="#e5e7eb" stroke-width="1"/>
<text x="73" y="46.00" text-anchor="end" font-family="Arial" font-size="12" fill="#374151">7088117</text>
<polyline fill="none" stroke="#2563eb" stroke-width="2" points="85.00,365.02 85.33,364.99 85.67,364.95 86.00,364.90 86.34,364.87 86.67,364.85 87.01,364.83 87.34,364.80 87.68,364.77 88.02,364.75 88.35,364.73 88.69,364.68 89.02,364.66 89.36,364.64 89.69,364.60 90.03,364.59 90.36,364.56 90.69,364.52 91.03,364.48 91.36,364.45 91.70,364.42 92.03,364.38 92.37,364.37 92.70,364.35 93.04,364.31 93.38,364.24 93.71,364.17 94.05,364.17 94.38,364.17 94.72,364.03 95.05,363.96 95.39,363.94 95.72,363.70 96.06,363.40 96.39,363.08 96.72,362.94 97.06,362.96 97.39,362.98 97.73,362.18 98.06,362.49 98.40,362.62 98.73,362.35 99.07,361.39 99.41,361.47 99.74,361.01 100.08,360.76 100.41,360.88 100.75,360.09 101.08,359.66 101.41,359.82 101.75,359.98 102.09,359.85 102.42,359.55 102.75,359.45 103.09,359.00 103.42,359.47 103.76,358.80 104.09,357.66 104.43,357.92 104.77,358.47 105.10,359.42 105.44,359.48 105.77,359.24 106.11,358.30 106.44,358.79 106.78,358.12 107.11,357.44 107.44,358.30 107.78,357.19 108.11,356.77 108.45,355.92 108.78,356.60 109.12,355.98 109.45,357.83 109.79,358.19 110.12,358.46 110.46,357.23 110.80,359.00 111.13,357.27 111.47,358.50 111.80,358.64 112.14,359.38 112.47,358.35 112.81,360.85 113.14,361.29 113.47,361.30 113.81,360.19 114.14,360.05 114.48,360.91 114.81,360.95 115.15,362.51 115.48,361.14 115.82,361.55 116.16,357.88 116.49,360.56 116.83,360.12 117.16,361.68 117.50,360.13 117.83,359.65 118.16,359.97 118.50,358.03 118.84,356.94 119.17,358.99 119.50,358.46 119.84,359.02 120.17,359.57 120.51,360.08 120.84,360.87 121.18,361.16 121.52,360.69 121.85,360.93 122.19,362.23 122.52,363.53 122.85,366.02 123.19,366.23 123.53,365.78 123.86,364.53 124.19,363.35 124.53,364.09 124.87,364.56 125.20,364.36 125.53,364.60 125.87,364.80 126.20,363.94 126.54,363.92 126.88,364.21 127.21,364.27 127.55,364.95 127.88,365.12 128.22,365.00 128.55,364.35 128.88,363.50 129.22,363.64 129.56,363.57 129.89,362.35 130.22,363.02 130.56,362.73 130.90,362.35 131.23,362.78 131.56,362.67 131.90,362.91 132.24,362.70 132.57,363.29 132.91,363.09 133.24,363.28 133.57,363.31 133.91,363.55 134.25,363.31 134.58,362.94 134.91,362.76 135.25,362.89 135.59,363.45 135.92,363.61 136.25,363.54 136.59,363.96 136.93,364.39 137.26,364.06 137.59,364.90 137.93,364.47 138.26,364.19 138.60,363.97 138.94,363.51 139.27,363.50 139.60,363.20 139.94,363.33 140.28,363.08 140.61,362.99 140.94,363.13 141.28,363.10 141.62,363.03 141.95,363.57 142.28,363.50 142.62,363.80 142.95,363.49 143.29,363.41 143.62,363.22 143.96,363.45 144.30,363.30 144.63,363.24 144.97,362.85 145.30,362.77 145.63,362.67 145.97,362.10 146.31,362.25 146.64,362.35 146.97,362.63 147.31,362.62 147.65,362.42 147.98,362.23 148.31,361.49 148.65,361.66 148.99,361.93 149.32,361.95 149.66,361.86 149.99,361.97 150.32,361.73 150.66,361.74 151.00,361.93 151.33,362.14 151.67,361.96 152.00,361.61 152.33,361.45 152.67,361.65 153.00,361.31 153.34,361.56 153.68,361.44 154.01,361.61 154.34,361.56 154.68,361.60 155.01,361.14 155.35,360.85 155.69,361.43 156.02,361.23 156.36,360.93 156.69,360.77 157.03,360.85 157.36,360.47 157.69,359.93 158.03,359.48 158.37,359.41 158.70,359.72 159.03,360.05 159.37,360.17 159.70,360.34 160.04,360.80 160.38,361.04 160.71,361.13 161.05,361.52 161.38,362.37 161.72,362.67 162.05,362.73 162.38,362.85 162.72,363.50 163.06,363.48 163.39,363.77 163.72,363.61 164.06,363.88 164.39,363.91 164.73,364.06 165.06,364.09 165.40,363.88 165.74,363.98 166.07,363.82 166.41,363.77 166.74,363.61 167.07,363.48 167.41,363.35 167.75,363.33 168.08,363.28 168.42,363.27 168.75,363.20 169.08,363.16 169.42,363.02 169.75,363.10 170.09,362.97 170.43,362.76 170.76,363.00 171.09,363.14 171.43,363.03 171.76,362.52 172.10,362.51 172.44,362.40 172.77,362.54 173.11,362.03 173.44,361.94 173.78,362.12 174.11,362.30 174.44,360.97 174.78,361.04 175.12,361.65 175.45,361.06 175.78,360.89 176.12,359.66 176.45,359.43 176.79,358.36 177.12,356.78 177.46,355.65 177.80,356.62 178.13,356.68 178.47,356.35 178.80,357.01 179.13,356.15 179.47,354.85 179.81,355.46 180.14,354.97 180.47,354.70 180.81,355.10 181.14,355.07 181.48,353.61 181.81,354.69 182.15,352.52 182.49,353.11 182.82,351.56 183.16,349.16 183.49,351.70 183.82,349.95 184.16,351.06 184.50,349.86 184.83,351.18 185.17,350.53 185.50,350.06 185.83,348.70 186.17,349.00 186.50,353.41 186.84,354.23 187.18,355.49 187.51,354.09 187.84,354.12 188.18,350.24 188.51,349.43 188.85,351.05 189.19,351.31 189.52,352.18 189.86,349.94 190.19,352.75 190.53,354.43 190.86,353.82 191.19,353.53 191.53,352.96 191.87,353.86 192.20,355.03 192.53,361.16 192.87,361.35 193.20,362.28 193.54,360.48 193.88,362.00 194.21,363.74 194.55,364.02 194.88,360.61 195.22,360.63 195.55,361.47 195.88,360.61 196.22,356.57 196.56,358.06 196.89,355.51 197.22,356.32 197.56,353.41 197.89,352.13 198.23,351.12 198.56,352.64 198.90,351.16 199.24,348.72 199.57,352.67 199.91,354.37 200.24,354.90 200.57,357.18 200.91,354.63 201.25,358.57 201.58,355.58 201.92,354.37 202.25,352.95 202.58,350.62 202.92,351.14 203.25,350.49 203.59,348.68 203.93,349.05 204.26,349.82 204.59,349.85 204.93,349.47 205.26,353.92 205.60,354.38 205.94,354.02 206.27,356.16 206.61,359.20 206.94,360.81 207.28,355.84 207.61,352.22 207.94,351.71 208.28,346.57 208.62,347.53 208.95,347.99 209.28,348.63 209.62,347.34 209.95,352.30 210.29,347.76 210.62,347.54 210.96,343.57 211.30,339.97 211.63,339.04 211.97,340.32 212.30,339.37 212.63,340.63 212.97,345.88 213.31,344.34 213.64,341.59 213.97,345.26 214.31,343.51 214.65,342.62 214.98,346.06 215.31,347.49 215.65,346.21 215.99,343.23 216.32,344.90 216.66,344.84 216.99,343.24 217.32,340.59 217.66,335.34 218.00,338.02 218.33,333.97 218.66,329.25 219.00,326.11 219.34,327.58 219.67,320.67 220.00,319.46 220.34,320.73 220.68,319.75 221.01,317.43 221.34,315.29 221.68,313.11 222.01,315.26 222.35,319.28 222.69,322.29 223.02,326.53 223.35,325.15 223.69,329.53 224.03,324.67 224.36,330.45 224.69,326.79 225.03,324.85 225.37,321.82 225.70,322.34 226.03,321.26 226.37,325.57 226.71,329.16 227.04,326.44 227.38,328.99 227.71,332.66 228.04,332.78 228.38,332.05 228.72,333.34 229.05,338.40 229.38,331.67 229.72,329.63 230.06,327.14 230.39,322.21 230.72,316.35 231.06,317.15 231.40,315.24 231.73,314.54 232.06,310.86 232.40,307.96 232.74,311.04 233.07,307.11 233.41,301.55 233.74,302.83 234.07,303.27 234.41,302.42 234.75,310.64 235.08,310.18 235.41,314.35 235.75,320.33 236.09,317.28 236.42,320.30 236.75,325.36 237.09,329.87 237.43,329.62 237.76,331.30 238.09,325.81 238.43,315.08 238.76,315.39 239.10,321.13 239.44,320.83 239.77,311.96 240.10,310.74 240.44,316.14 240.78,323.58 241.11,330.60 241.44,324.75 241.78,326.22 242.12,332.16 242.45,331.02 242.78,323.61 243.12,333.57 243.46,320.16 243.79,320.19 244.12,313.69 244.46,308.97 244.79,302.40 245.13,302.41 245.47,303.50 245.80,304.50 246.13,307.23 246.47,311.18 246.81,312.57 247.14,313.49 247.47,315.92 247.81,311.26 248.15,323.16 248.48,325.34 248.81,308.82 249.15,311.19 249.49,308.17 249.82,320.53 250.16,317.34 250.49,311.48 250.82,314.87 251.16,313.11 251.50,307.14 251.83,311.45 252.16,316.02 252.50,320.15 252.84,307.55 253.17,316.50 253.50,308.25 253.84,307.56 254.18,300.88 254.51,300.19 254.84,301.31 255.18,299.57 255.51,298.05 255.85,302.47 256.19,302.43 256.52,292.14 256.86,284.93 257.19,283.65 257.52,276.99 257.86,288.05 258.19,296.22 258.53,294.88 258.87,291.09 259.20,297.62 259.53,293.91 259.87,295.65 260.21,307.35 260.54,305.81 260.88,312.18 261.21,314.93 261.54,316.38 261.88,326.19 262.22,328.44 262.55,321.42 262.88,322.57 263.22,324.92 263.56,316.14 263.89,313.00 264.23,310.52 264.56,312.68 264.89,302.07 265.23,309.33 265.56,303.63 265.90,310.05 266.24,309.21 266.57,298.52 266.90,313.39 267.24,311.18 267.57,305.84 267.91,305.37 268.25,300.12 268.58,309.64 268.91,306.65 269.25,302.43 269.59,301.11 269.92,295.79 270.25,288.03 270.59,285.73 270.93,282.46 271.26,288.00 271.60,296.06 271.93,300.59 272.26,288.39 272.60,289.58 272.94,283.93 273.27,294.96 273.61,292.42 273.94,289.39 274.27,287.25 274.61,297.05 274.94,287.10 275.28,282.61 275.62,285.23 275.95,284.15 276.28,285.74 276.62,289.76 276.96,273.93 277.29,267.63 277.62,276.26 277.96,277.36 278.29,284.25 278.63,284.29 278.97,286.59 279.30,297.51 279.63,298.21 279.97,294.84 280.31,303.93 280.64,307.79 280.98,297.04 281.31,295.90 281.64,294.15 281.98,299.26 282.31,301.28 282.65,293.58 282.99,288.49 283.32,284.78 283.65,289.33 283.99,282.78 284.32,274.36 284.66,270.22 285.00,276.00 285.33,287.24 285.66,284.12 286.00,280.64 286.34,284.11 286.67,278.38 287.00,277.53 287.34,277.27 287.68,283.35 288.01,290.78 288.35,286.66 288.68,291.44 289.01,301.77 289.35,305.17 289.69,301.18 290.02,299.98 290.36,291.62 290.69,299.27 291.02,296.45 291.36,291.11 291.69,290.44 292.03,302.33 292.37,301.51 292.70,306.19 293.03,302.82 293.37,299.13 293.71,285.38 294.04,283.09 294.38,290.44 294.71,297.90 295.04,295.08 295.38,294.56 295.72,291.20 296.05,298.88 296.38,305.04 296.72,317.14 297.06,318.45 297.39,315.74 297.73,319.07 298.06,328.18 298.39,313.18 298.73,308.05 299.06,308.78 299.40,308.31 299.74,320.02 300.07,318.60 300.40,331.96 300.74,321.98 301.07,331.87 301.41,338.63 301.75,340.29 302.08,355.03 302.41,357.67 302.75,360.95 303.09,361.12 303.42,361.02 303.75,357.24 304.09,350.72 304.43,351.39 304.76,349.72 305.10,351.14 305.43,355.38 305.76,361.22 306.10,361.31 306.44,372.66 306.77,378.92 307.11,369.85 307.44,365.12 307.77,376.63 308.11,381.47 308.44,383.83 308.78,388.39 309.12,389.88 309.45,387.12 309.78,387.40 310.12,392.89 310.46,393.28 310.79,382.34 311.12,373.74 311.46,370.30 311.79,370.20 312.13,369.40 312.47,379.49 312.80,380.78 313.13,387.36 313.47,387.32 313.81,383.83 314.14,385.18 314.48,385.01 314.81,388.92 315.14,397.92 315.48,405.47 315.81,408.38 316.15,411.79 316.49,401.12 316.82,390.35 317.15,396.13 317.49,406.77 317.82,412.51 318.16,412.92 318.50,419.58 318.83,416.41 319.16,411.64 319.50,417.75 319.84,410.89 320.17,411.54 320.50,405.89 320.84,418.56 321.18,414.85 321.51,426.32 321.85,434.17 322.18,434.59 322.51,440.48 322.85,434.62 323.19,435.19 323.52,440.08 323.86,437.95 324.19,432.27 324.52,429.39 324.86,429.56 325.19,432.33 325.53,427.11 325.87,424.11 326.20,416.66 326.53,412.56 326.87,415.89 327.21,412.89 327.54,411.91 327.88,409.34 328.21,410.04 328.54,406.72 328.88,409.28 329.22,411.68 329.55,407.02 329.88,403.45 330.22,401.58 330.56,397.18 330.89,394.03 331.23,392.71 331.56,392.25 331.89,398.18 332.23,404.49 332.56,402.14 332.90,399.55 333.24,405.63 333.57,399.29 333.90,397.99 334.24,403.24 334.57,401.35 334.91,404.84 335.25,404.01 335.58,408.38 335.91,407.03 336.25,406.52 336.59,405.37 336.92,402.02 337.25,403.99 337.59,403.85 337.93,404.81 338.26,405.09 338.60,402.60 338.93,400.61 339.26,401.34 339.60,398.00 339.94,400.38 340.27,402.32 340.61,399.60 340.94,401.54 341.27,401.26 341.61,396.84 341.94,396.83 342.28,393.57 342.62,389.32 342.95,385.96 343.29,379.67 343.62,377.53 343.95,381.23 344.29,380.09 344.62,380.74 344.96,382.07 345.30,383.30 345.63,381.18 345.96,384.44 346.30,379.35 346.63,378.33 346.97,383.14 347.31,384.78 347.64,386.88 347.98,390.71 348.31,390.40 348.64,395.03 348.98,389.93 349.31,386.58 349.65,387.76 349.99,388.69 350.32,387.97 350.65,390.64 350.99,388.16 351.32,387.66 351.66,388.65 352.00,387.26 352.33,388.22 352.67,388.73 353.00,391.98 353.33,393.53 353.67,395.32 354.00,394.95 354.34,401.33 354.68,404.48 355.01,405.99 355.35,403.12 355.68,404.47 356.01,405.03 356.35,403.78 356.69,402.12 357.02,396.98 357.36,397.22 357.69,397.39 358.02,396.97 358.36,396.93 358.69,396.50 359.03,395.79 359.37,397.24 359.70,395.90 360.04,396.71 360.37,395.79 360.70,391.01 361.04,391.35 361.38,390.58 361.71,393.31 362.05,391.35 362.38,388.58 362.71,390.88 363.05,393.01 363.38,393.31 363.72,391.72 364.06,392.25 364.39,391.58 364.73,391.96 365.06,393.79 365.39,397.06 365.73,401.14 366.06,396.95 366.40,396.97 366.74,400.91 367.07,402.02 367.40,398.65 367.74,399.37 368.07,401.12 368.41,401.47 368.75,398.59 369.08,395.76 369.42,396.36 369.75,398.06 370.08,397.98 370.42,395.98 370.75,395.52 371.09,398.22 371.43,398.55 371.76,400.65 372.10,400.19 372.43,401.44 372.76,401.81 373.10,402.12 373.44,401.55 373.77,402.89 374.11,402.21 374.44,403.82 374.77,404.74 375.11,407.32 375.44,409.40 375.78,410.53 376.12,411.47 376.45,411.03 376.79,410.03 377.12,412.93 377.45,411.46 377.79,409.96 378.12,410.08 378.46,411.52 378.80,411.84 379.13,411.78 379.46,411.64 379.80,410.90 380.13,410.18 380.47,411.17 380.81,409.52 381.14,409.38 381.48,407.42 381.81,409.38 382.14,408.89 382.48,407.86 382.81,406.64 383.15,406.36 383.49,406.29 383.82,406.57 384.15,405.56 384.49,405.79 384.82,404.58 385.16,402.67 385.50,403.23 385.83,402.07 386.17,401.19 386.50,402.48 386.83,403.95 387.17,404.97 387.50,403.49 387.84,404.16 388.18,402.88 388.51,401.55 388.85,401.30 389.18,401.11 389.51,402.16 389.85,402.45 390.19,402.50 390.52,402.96 390.86,402.30 391.19,402.05 391.52,401.37 391.86,400.29 392.19,401.41 392.53,403.75 392.87,402.83 393.20,402.65 393.54,401.00 393.87,400.57 394.20,400.46 394.54,400.73 394.88,400.19 395.21,400.54 395.55,399.91 395.88,400.26 396.21,399.62 396.55,399.90 396.88,399.25 397.22,399.36 397.56,399.80 397.89,399.95 398.23,400.05 398.56,401.55 398.89,401.67 399.23,401.28 399.56,401.30 399.90,401.11 400.24,401.95 400.57,401.15 400.90,401.88 401.24,403.57 401.57,403.33 401.91,404.27 402.25,403.47 402.58,403.81 402.92,403.72 403.25,404.47 403.58,403.65 403.92,404.14 404.25,403.82 404.59,404.77 404.93,404.92 405.26,404.84 405.60,405.51 405.93,405.81 406.26,405.77 406.60,404.96 406.94,404.74 407.27,405.22 407.61,404.77 407.94,404.40 408.27,404.57 408.61,404.78 408.94,404.18 409.28,403.93 409.62,403.89 409.95,403.87 410.29,403.79 410.62,403.58 410.95,403.41 411.29,403.26 411.62,403.07 411.96,402.90 412.30,402.75 412.63,402.56 412.96,402.32 413.30,401.99 413.63,401.76 413.97,401.23 414.31,400.78 414.64,400.38 414.98,400.23 415.31,399.53 415.64,398.73 415.98,398.41 416.31,397.78 416.65,397.23 416.99,397.01 417.32,396.55 417.65,394.78 417.99,394.45 418.32,394.65 418.66,393.57 419.00,392.92 419.33,392.45 419.67,391.91 420.00,391.25 420.33,389.90 420.67,388.64 421.00,389.03 421.34,387.31 421.68,386.06 422.01,384.49 422.35,384.85 422.68,383.25 423.01,381.64 423.35,381.69 423.69,381.24 424.02,379.84 424.36,378.29 424.69,378.57 425.02,377.55 425.36,376.89 425.69,375.57 426.03,373.19 426.37,372.60 426.70,374.33 427.04,374.86 427.37,374.02 427.70,374.00 428.04,375.39 428.38,375.77 428.71,374.32 429.05,375.30 429.38,373.03 429.71,371.41 430.05,372.34 430.38,370.82 430.72,369.15 431.06,367.97 431.39,368.33 431.73,366.23 432.06,366.15 432.39,366.36 432.73,367.87 433.06,366.93 433.40,364.83 433.74,368.91 434.07,364.39 434.40,360.92 434.74,361.97 435.07,363.06 435.41,362.78 435.75,360.15 436.08,362.11 436.42,360.13 436.75,360.46 437.08,356.37 437.42,356.92 437.75,358.46 438.09,356.01 438.43,357.10 438.76,359.54 439.10,356.43 439.43,356.73 439.76,354.86 440.10,352.31 440.44,350.50 440.77,351.99 441.11,350.76 441.44,354.68 441.77,352.29 442.11,354.99 442.44,353.05 442.78,352.87 443.12,350.84 443.45,350.37 443.79,350.68 444.12,351.80 444.45,355.23 444.79,349.96 445.12,350.20 445.46,348.40 445.80,348.50 446.13,347.34 446.46,344.00 446.80,342.71 447.13,347.18 447.47,349.08 447.81,345.52 448.14,347.54 448.48,348.00 448.81,352.52 449.14,358.21 449.48,357.27 449.81,355.66 450.15,358.41 450.49,357.99 450.82,356.69 451.15,358.82 451.49,364.58 451.82,360.44 452.16,360.11 452.50,360.51 452.83,356.61 453.17,356.06 453.50,352.13 453.83,352.46 454.17,350.99 454.50,353.08 454.84,360.40 455.18,359.91 455.51,353.94 455.85,351.33 456.18,357.49 456.51,362.38 456.85,364.97 457.19,368.58 457.52,371.00 457.86,371.58 458.19,367.06 458.52,369.23 458.86,367.70 459.19,368.14 459.53,360.55 459.87,360.71 460.20,355.90 460.54,356.24 460.87,354.45 461.20,351.07 461.54,355.65 461.88,354.36 462.21,350.68 462.55,351.71 462.88,351.61 463.21,352.34 463.55,350.53 463.88,353.92 464.22,352.86 464.56,353.44 464.89,348.71 465.23,351.19 465.56,351.41 465.89,354.12 466.23,354.50 466.56,359.75 466.90,360.90 467.24,362.19 467.57,362.40 467.90,359.91 468.24,354.85 468.57,355.89 468.91,352.48 469.25,352.56 469.58,353.17 469.92,351.96 470.25,353.71 470.58,348.33 470.92,348.59 471.25,348.52 471.59,345.17 471.93,341.86 472.26,345.42 472.60,348.35 472.93,346.48 473.26,346.40 473.60,345.91 473.94,350.76 474.27,354.02 474.61,357.83 474.94,358.72 475.27,362.02 475.61,366.72 475.94,364.99 476.28,361.32 476.62,358.35 476.95,362.44 477.29,366.55 477.62,365.31 477.95,367.05 478.29,374.27 478.62,376.94 478.96,372.74 479.30,374.24 479.63,372.57 479.96,374.77 480.30,376.41 480.63,372.43 480.97,369.89 481.31,370.54 481.64,371.20 481.98,369.51 482.31,370.74 482.64,368.52 482.98,371.84 483.31,373.05 483.65,371.46 483.99,373.78 484.32,373.83 484.65,375.13 484.99,376.32 485.32,377.49 485.66,380.25 486.00,382.87 486.33,383.29 486.67,387.53 487.00,392.29 487.33,391.40 487.67,388.49 488.00,385.12 488.34,384.34 488.68,385.15 489.01,388.02 489.35,390.28 489.68,389.88 490.01,389.49 490.35,392.40 490.69,392.43 491.02,394.25 491.36,393.97 491.69,396.78 492.02,395.77 492.36,398.96 492.69,400.15 493.03,402.08 493.37,402.89 493.70,402.09 494.04,403.22 494.37,404.08 494.70,404.22 495.04,403.02 495.38,405.99 495.71,404.72 496.05,402.55 496.38,402.11 496.71,399.47 497.05,399.85 497.38,400.52 497.72,401.72 498.06,402.11 498.39,404.07 498.73,402.10 499.06,401.42 499.39,401.10 499.73,401.07 500.06,400.84 500.40,401.24 500.74,402.17 501.07,400.92 501.40,398.48 501.74,398.25 502.07,397.92 502.41,397.02 502.75,396.70 503.08,396.80 503.42,397.15 503.75,396.14 504.08,395.32 504.42,395.83 504.75,397.00 505.09,397.07 505.43,396.82 505.76,397.27 506.10,396.54 506.43,395.60 506.76,396.17 507.10,395.54 507.44,394.66 507.77,394.84 508.11,396.06 508.44,395.55 508.77,395.78 509.11,396.18 509.44,396.56 509.78,396.27 510.12,395.51 510.45,396.05 510.79,395.89 511.12,395.09 511.45,395.32 511.79,395.40 512.12,395.28 512.46,394.72 512.80,395.12 513.13,395.23 513.46,394.51 513.80,395.19 514.13,394.62 514.47,394.15 514.81,394.66 515.14,393.66 515.48,393.83 515.81,394.01 516.14,394.27 516.48,394.19 516.82,394.66 517.15,394.34 517.49,393.45 517.82,393.00 518.15,393.73 518.49,393.74 518.83,393.58 519.16,394.47 519.50,395.33 519.83,396.13 520.16,396.63 520.50,396.49 520.84,396.47 521.17,396.14 521.50,395.17 521.84,394.79 522.17,394.86 522.51,394.87 522.85,394.38 523.18,394.21 523.51,394.63 523.85,394.67 524.18,395.13 524.52,394.85 524.86,395.03 525.19,394.73 525.52,393.89 525.86,394.26 526.19,394.72 526.53,393.97 526.87,393.71 527.20,393.25 527.54,392.82 527.87,393.05 528.20,393.05 528.54,393.30 528.88,393.33 529.21,393.45 529.55,393.36 529.88,393.66 530.21,393.71 530.55,392.88 530.88,392.85 531.22,392.75 531.56,392.20 531.89,392.40 532.23,391.89 532.56,392.54 532.89,392.62 533.23,393.94 533.57,393.87 533.90,393.87 534.24,394.98 534.57,394.90 534.90,395.16 535.24,395.51 535.58,395.87 535.91,395.96 536.25,396.02 536.58,395.90 536.91,394.92 537.25,394.41 537.59,394.31 537.92,394.54 538.25,394.65 538.59,394.61 538.92,394.28 539.26,394.01 539.60,394.29 539.93,393.99 540.26,393.81 540.60,393.67 540.93,393.60 541.27,393.66 541.61,393.62 541.94,393.29 542.27,393.58 542.61,393.46 542.94,393.52 543.28,393.75 543.62,394.09 543.95,393.81 544.29,393.37 544.62,393.41 544.95,393.31 545.29,393.46 545.62,393.73 545.96,394.11 546.30,394.35 546.63,394.70 546.96,394.27 547.30,394.47 547.63,394.05 547.97,394.09 548.31,393.74 548.64,393.74 548.98,393.93 549.31,393.39 549.64,393.71 549.98,394.27 550.32,393.94 550.65,394.03 550.99,394.19 551.32,394.63 551.65,394.52 551.99,394.41 552.33,394.53 552.66,394.60 553.00,394.71 553.33,394.76 553.66,394.81 554.00,394.78 554.34,394.65 554.67,394.61 555.00,394.53 555.34,394.42 555.67,394.36 556.01,394.31 556.35,394.21 556.68,394.19 557.01,394.06 557.35,394.04 557.68,393.97 558.02,394.15 558.36,394.18 558.69,394.23 559.02,394.23 559.36,394.43 559.69,393.95 560.03,393.57 560.37,393.53 560.70,393.77 561.04,393.01 561.37,392.92 561.70,392.35 562.04,392.51 562.38,392.47 562.71,391.44 563.05,391.32 563.38,390.88 563.71,390.07 564.05,391.37 564.38,391.80 564.72,391.13 565.06,391.91 565.39,391.20 565.73,390.91 566.06,390.46 566.39,390.21 566.73,391.16 567.07,390.56 567.40,391.33 567.74,391.70 568.07,392.94 568.40,393.95 568.74,392.84 569.08,393.12 569.41,392.61 569.75,392.20 570.08,393.78 570.41,394.93 570.75,396.53 571.09,396.51 571.42,397.01 571.75,398.56 572.09,397.85 572.42,396.44 572.76,394.70 573.10,393.67 573.43,395.88 573.76,397.26 574.10,396.64 574.43,396.02 574.77,397.40 575.11,398.18 575.44,398.02 575.77,397.77 576.11,396.97 576.44,396.88 576.78,396.37 577.12,395.98 577.45,395.92 577.79,397.64 578.12,399.11 578.45,400.26 578.79,400.59 579.12,401.14 579.46,401.22 579.80,401.11 580.13,400.91 580.46,399.46 580.80,400.08 581.13,398.75 581.47,399.47 581.81,400.73 582.14,401.17 582.48,401.77 582.81,402.21 583.14,401.89 583.48,401.55 583.82,401.14 584.15,401.24 584.49,401.69 584.82,402.01 585.15,401.73 585.49,401.79 585.83,401.38 586.16,401.85 586.50,401.67 586.83,401.59 587.16,401.17 587.50,401.15 587.84,401.21 588.17,401.65 588.50,401.29 588.84,401.20 589.17,401.01 589.51,401.06 589.85,400.87 590.18,400.96 590.51,400.84 590.85,400.86 591.18,400.63 591.52,400.47 591.86,400.26 592.19,400.15 592.52,399.93 592.86,399.89 593.19,399.80 593.53,400.01 593.87,400.01 594.20,399.83 594.54,399.92 594.87,399.10 595.20,399.46 595.54,399.93 595.88,400.07 596.21,400.38 596.55,400.31 596.88,400.23 597.22,400.97 597.55,400.43 597.88,400.38 598.22,399.96 598.55,400.05 598.89,399.55 599.23,398.31 599.56,398.24 599.89,398.57 600.23,397.75 600.57,397.42 600.90,397.59 601.24,396.91 601.57,397.97 601.90,398.75 602.24,399.00 602.58,398.34 602.91,397.03 603.25,397.33 603.58,396.98 603.91,398.11 604.25,397.09 604.59,396.60 604.92,395.29 605.25,395.23 605.59,394.89 605.92,390.95 606.26,390.37 606.60,388.37 606.93,389.02 607.26,390.16 607.60,390.31 607.93,387.89 608.27,388.14 608.61,388.59 608.94,386.07 609.27,384.94 609.61,385.63 609.95,386.95 610.28,386.18 610.62,382.97 610.95,382.76 611.28,379.64 611.62,376.24 611.96,375.79 612.29,374.66 612.62,374.36 612.96,374.46 613.29,373.64 613.63,371.80 613.97,372.21 614.30,370.93 614.63,371.87 614.97,373.90 615.30,374.48 615.64,373.94 615.98,371.21 616.31,374.58 616.64,373.47 616.98,373.31 617.32,370.03 617.65,366.08 617.99,367.73 618.32,365.87 618.65,367.25 618.99,366.38 619.33,364.72 619.66,365.67 620.00,365.19 620.33,360.08 620.66,355.83 621.00,353.43 621.34,350.07 621.67,353.38 622.00,348.75 622.34,344.27 622.67,343.87 623.01,341.28 623.35,340.39 623.68,342.12 624.01,340.20 624.35,333.02 624.68,337.79 625.02,337.29 625.36,337.24 625.69,332.86 626.02,331.38 626.36,330.04 626.70,324.74 627.03,323.09 627.37,322.97 627.70,323.69 628.03,322.85 628.37,318.28 628.71,319.74 629.04,319.82 629.38,317.80 629.71,315.41 630.04,320.68 630.38,315.77 630.72,310.35 631.05,308.92 631.38,307.51 631.72,310.48 632.05,312.19 632.39,313.23 632.73,309.21 633.06,305.80 633.39,305.25 633.73,300.98 634.07,305.87 634.40,302.84 634.74,300.27 635.07,304.56 635.40,302.53 635.74,308.93 636.08,306.36 636.41,305.73 636.75,311.07 637.08,306.19 637.41,306.57 637.75,300.22 638.09,293.61 638.42,288.79 638.75,283.64 639.09,285.99 639.42,281.34 639.76,285.40 640.10,279.83 640.43,279.91 640.76,280.99 641.10,278.94 641.43,274.72 641.77,271.84 642.11,274.25 642.44,269.93 642.77,274.48 643.11,276.01 643.45,270.24 643.78,269.21 644.12,268.92 644.45,271.32 644.78,272.69 645.12,269.07 645.46,268.21 645.79,268.48 646.12,265.49 646.46,268.00 646.79,261.30 647.13,259.00 647.47,265.55 647.80,266.73 648.13,264.62 648.47,263.49 648.80,264.85 649.14,269.47 649.48,266.94 649.81,272.01 650.14,273.33 650.48,271.98 650.82,264.60 651.15,262.11 651.49,267.17 651.82,268.24 652.15,264.00 652.49,263.10 652.83,268.83 653.16,266.46 653.50,261.71 653.83,257.67 654.16,257.92 654.50,250.43 654.84,245.39 655.17,243.50 655.50,242.97 655.84,244.35 656.17,250.79 656.51,237.70 656.85,238.46 657.18,235.32 657.51,229.26 657.85,218.99 658.18,210.86 658.52,218.30 658.86,219.00 659.19,218.47 659.52,224.63 659.86,223.55 660.20,221.27 660.53,218.77 660.87,226.45 661.20,228.50 661.53,223.93 661.87,224.76 662.21,218.15 662.54,217.92 662.88,223.72 663.21,220.05 663.54,213.69 663.88,218.93 664.22,222.01 664.55,224.90 664.88,225.64 665.22,229.92 665.55,238.48 665.89,241.70 666.23,254.90 666.56,255.89 666.89,261.09 667.23,253.51 667.57,253.02 667.90,255.09 668.24,246.62 668.57,242.72 668.90,234.62 669.24,239.82 669.58,244.37 669.91,238.45 670.25,236.16 670.58,238.93 670.91,240.84 671.25,240.55 671.59,232.88 671.92,232.51 672.25,234.83 672.59,231.83 672.92,231.34 673.26,241.39 673.60,246.75 673.93,250.28 674.26,232.21 674.60,236.78 674.93,232.83 675.27,233.80 675.61,228.53 675.94,230.47 676.27,214.37 676.61,207.72 676.95,209.53 677.28,213.41 677.62,207.70 677.95,208.35 678.28,204.37 678.62,209.25 678.96,210.91 679.29,216.10 679.62,217.05 679.96,218.50 680.29,230.05 680.63,230.55 680.97,232.80 681.30,231.14 681.63,224.51 681.97,226.94 682.30,225.81 682.64,225.94 682.98,229.61 683.31,229.38 683.64,221.58 683.98,225.91 684.32,218.40 684.65,219.22 684.99,221.35 685.32,219.92 685.65,218.30 685.99,226.42 686.33,226.80 686.66,231.78 687.00,223.20 687.33,216.65 687.66,228.49 688.00,219.36 688.34,213.60 688.67,212.20 689.00,218.30 689.34,221.74 689.67,215.42 690.01,214.50 690.35,222.70 690.68,222.66 691.01,220.58 691.35,200.94 691.68,208.63 692.02,209.16 692.36,210.01 692.69,206.47 693.02,210.11 693.36,214.27 693.70,216.10 694.03,215.51 694.37,214.38 694.70,223.31 695.03,219.71 695.37,220.03 695.71,216.92 696.04,218.30 696.38,209.36 696.71,203.81 697.04,211.22 697.38,207.77 697.72,207.57 698.05,207.76 698.38,204.04 698.72,213.49 699.05,209.19 699.39,200.61 699.73,201.38 700.06,201.60 700.39,193.16 700.73,196.55 701.07,194.38 701.40,201.65 701.74,203.32 702.07,197.51 702.40,191.58 702.74,193.53 703.08,189.60 703.41,192.91 703.75,186.31 704.08,184.95 704.41,181.40 704.75,183.17 705.09,188.83 705.42,195.17 705.75,201.47 706.09,182.56 706.42,175.74 706.76,169.00 707.10,177.42 707.43,178.19 707.76,182.22 708.10,175.73 708.43,185.00 708.77,180.21 709.11,171.52 709.44,175.39 709.77,185.12 710.11,178.29 710.45,173.96 710.78,173.12 711.12,176.75 711.45,173.48 711.78,175.71 712.12,183.22 712.46,181.32 712.79,183.09 713.12,187.02 713.46,183.63 713.79,189.61 714.13,186.06 714.47,202.40 714.80,208.52 715.13,209.47 715.47,217.53 715.80,236.70 716.14,244.06 716.48,228.33 716.81,225.22 717.14,220.46 717.48,212.49 717.82,207.48 718.15,188.40 718.49,186.17 718.82,189.27 719.15,198.29 719.49,198.05 719.83,197.00 720.16,185.41 720.50,173.36 720.83,173.30 721.16,173.22 721.50,162.23 721.84,160.63 722.17,163.61 722.50,176.21 722.84,173.54 723.17,170.86 723.51,157.27 723.85,161.30 724.18,162.61 724.51,172.18 724.85,176.26 725.18,184.71 725.52,177.75 725.86,186.31 726.19,195.53 726.52,202.09 726.86,209.19 727.20,213.26 727.53,210.84 727.87,211.22 728.20,202.11 728.53,204.37 728.87,208.98 729.21,205.96 729.54,195.60 729.88,185.55 730.21,170.10 730.54,175.54 730.88,183.26 731.22,185.83 731.55,191.64 731.88,193.19 732.22,181.59 732.55,180.16 732.89,172.21 733.23,169.52 733.56,167.08 733.89,178.25 734.23,180.20 734.57,185.70 734.90,195.88 735.24,194.01 735.57,186.50 735.90,184.26 736.24,184.21 736.58,179.69 736.91,169.99 737.25,169.09 737.58,170.03 737.91,164.21 738.25,166.92 738.59,166.63 738.92,171.28 739.25,176.43 739.59,179.22 739.92,180.87 740.26,185.88 740.60,186.31 740.93,191.60 741.26,193.25 741.60,197.35 741.93,185.94 742.27,196.66 742.61,195.84 742.94,187.14 743.27,197.93 743.61,205.85 743.95,195.04 744.28,198.82 744.62,196.75 744.95,198.64 745.28,199.53 745.62,189.54 745.96,192.32 746.29,185.23 746.62,179.81 746.96,173.40 747.29,168.85 747.63,171.10 747.97,158.36 748.30,162.87 748.63,162.20 748.97,175.95 749.30,184.25 749.64,186.54 749.98,180.72 750.31,194.37 750.64,182.16 750.98,175.93 751.32,177.60 751.65,187.81 751.99,184.45 752.32,175.27 752.65,180.63 752.99,181.74 753.33,183.64 753.66,187.12 754.00,179.14 754.33,188.36 754.66,186.62 755.00,192.23 755.00,216.15"/>
<line x1="783" y1="58" x2="809" y2="58" stroke="#2563eb" stroke-width="3"/>
<text x="817" y="62" font-family="Arial" font-size="13" fill="#111827">Naive</text>
<polyline fill="none" stroke="#dc2626" stroke-width="2" points="85.00,365.02 85.33,364.99 85.67,364.95 86.00,364.92 86.34,364.88 86.67,364.87 87.01,364.85 87.34,364.83 87.68,364.80 88.02,364.78 88.35,364.76 88.69,364.72 89.02,364.70 89.36,364.68 89.69,364.65 90.03,364.64 90.36,364.61 90.69,364.58 91.03,364.54 91.36,364.52 91.70,364.48 92.03,364.45 92.37,364.44 92.70,364.41 93.04,364.38 93.38,364.33 93.71,364.27 94.05,364.26 94.38,364.26 94.72,364.14 95.05,364.07 95.39,364.05 95.72,363.82 96.06,363.54 96.39,363.23 96.72,363.09 97.06,363.11 97.39,363.13 97.73,362.35 98.06,362.64 98.40,362.77 98.73,362.51 99.07,361.56 99.41,361.64 99.74,361.20 100.08,360.95 100.41,361.06 100.75,360.29 101.08,359.87 101.41,360.02 101.75,360.18 102.09,360.04 102.42,359.74 102.75,359.64 103.09,359.19 103.42,359.64 103.76,359.00 104.09,357.92 104.43,358.16 104.77,358.68 105.10,359.58 105.44,359.64 105.77,359.41 106.11,358.52 106.44,358.98 106.78,358.36 107.11,357.72 107.44,358.52 107.78,357.48 108.11,357.09 108.45,356.31 108.78,356.93 109.12,356.36 109.45,358.02 109.79,358.35 110.12,358.59 110.46,357.48 110.80,359.09 111.13,357.53 111.47,358.62 111.80,358.75 112.14,359.40 112.47,358.50 112.81,360.70 113.14,361.09 113.47,361.11 113.81,360.14 114.14,360.02 114.48,360.77 114.81,360.79 115.15,362.16 115.48,361.01 115.82,361.35 116.16,358.23 116.49,360.51 116.83,360.14 117.16,361.47 117.50,360.15 117.83,359.75 118.16,360.02 118.50,358.39 118.84,357.48 119.17,359.19 119.50,358.75 119.84,359.21 120.17,359.66 120.51,360.08 120.84,360.72 121.18,360.97 121.52,360.58 121.85,360.78 122.19,361.86 122.52,362.93 122.85,364.96 123.19,365.11 123.53,364.73 123.86,363.73 124.19,362.79 124.53,363.37 124.87,363.73 125.20,363.58 125.53,363.76 125.87,363.90 126.20,363.26 126.54,363.24 126.88,363.45 127.21,363.49 127.55,363.98 127.88,364.07 128.22,363.98 128.55,363.55 128.88,362.98 129.22,363.06 129.56,363.01 129.89,362.21 130.22,362.64 130.56,362.44 130.90,362.20 131.23,362.45 131.56,362.38 131.90,362.52 132.24,362.38 132.57,362.75 132.91,362.61 133.24,362.72 133.57,362.73 133.91,362.87 134.25,362.72 134.58,362.49 134.91,362.37 135.25,362.44 135.59,362.74 135.92,362.82 136.25,362.79 136.59,363.01 136.93,363.23 137.26,363.06 137.59,363.41 137.93,363.20 138.26,363.08 138.60,363.01 138.94,362.86 139.27,362.84 139.60,362.73 139.94,362.75 140.28,362.66 140.61,362.62 140.94,362.63 141.28,362.60 141.62,362.56 141.95,362.70 142.28,362.67 142.62,362.73 142.95,362.65 143.29,362.62 143.62,362.56 143.96,362.57 144.30,362.53 144.63,362.50 144.97,362.41 145.30,362.37 145.63,362.34 145.97,362.22 146.31,362.23 146.64,362.23 146.97,362.25 147.31,362.23 147.65,362.17 147.98,362.12 148.31,362.00 148.65,362.03 148.99,362.07 149.32,362.07 149.66,362.03 149.99,362.03 150.32,361.96 150.66,361.94 151.00,361.95 151.33,361.97 151.67,361.91 152.00,361.81 152.33,361.75 152.67,361.78 153.00,361.68 153.34,361.71 153.68,361.66 154.01,361.68 154.34,361.64 154.68,361.63 155.01,361.52 155.35,361.46 155.69,361.52 156.02,361.47 156.36,361.41 156.69,361.36 157.03,361.35 157.36,361.30 157.69,361.16 158.03,360.99 158.37,360.92 158.70,360.98 159.03,361.09 159.37,361.12 159.70,361.20 160.04,361.41 160.38,361.52 160.71,361.55 161.05,361.75 161.38,362.18 161.72,362.32 162.05,362.33 162.38,362.38 162.72,362.64 163.06,362.59 163.39,362.65 163.72,362.56 164.06,362.56 164.39,362.49 164.73,362.43 165.06,362.35 165.40,362.24 165.74,362.05 166.07,361.96 166.41,361.71 166.74,361.74 167.07,361.81 167.41,361.99 167.75,361.71 168.08,362.02 168.42,362.12 168.75,361.92 169.08,361.86 169.42,361.54 169.75,361.81 170.09,361.56 170.43,361.18 170.76,361.69 171.09,361.97 171.43,361.78 171.76,360.92 172.10,360.94 172.44,360.80 172.77,361.04 173.11,360.28 173.44,360.17 173.78,360.47 174.11,360.75 174.44,358.87 174.78,359.01 175.12,359.90 175.45,359.11 175.78,358.91 176.12,357.28 176.45,357.03 176.79,355.67 177.12,353.65 177.46,352.24 177.80,353.55 178.13,353.69 178.47,353.32 178.80,354.21 179.13,353.16 179.47,351.59 179.81,352.39 180.14,351.83 180.47,351.55 180.81,352.06 181.14,352.06 181.48,350.32 181.81,351.67 182.15,349.09 182.49,349.83 182.82,348.03 183.16,345.22 183.49,348.26 183.82,346.24 184.16,347.57 184.50,346.20 184.83,347.78 185.17,347.06 185.50,346.55 185.83,345.00 186.17,345.39 186.50,350.49 186.84,351.45 187.18,352.91 187.51,351.33 187.84,351.36 188.18,346.95 188.51,346.04 188.85,347.90 189.19,348.21 189.52,349.21 189.86,346.68 190.19,349.87 190.53,351.77 190.86,351.09 191.19,350.77 191.53,350.14 191.87,351.14 192.20,352.45 192.53,359.31 192.87,359.54 193.20,360.59 193.54,358.63 193.88,360.30 194.21,362.24 194.55,362.58 194.88,358.94 195.22,358.97 195.55,359.87 195.88,358.96 196.22,354.64 196.56,356.23 196.89,353.52 197.22,354.36 197.56,351.31 197.89,349.98 198.23,348.94 198.56,350.51 198.90,348.98 199.24,346.48 199.57,350.54 199.91,352.29 200.24,352.82 200.57,355.11 200.91,352.52 201.25,356.49 201.58,353.49 201.92,352.31 202.25,350.91 202.58,348.61 202.92,349.12 203.25,348.48 203.59,346.70 203.93,347.07 204.26,347.82 204.59,347.85 204.93,347.47 205.26,351.82 205.60,352.28 205.94,351.90 206.27,353.98 206.61,356.94 206.94,358.51 207.28,353.80 207.61,350.36 207.94,349.86 208.28,345.02 208.62,345.92 208.95,346.35 209.28,346.95 209.62,345.74 209.95,350.37 210.29,346.11 210.62,345.90 210.96,342.18 211.30,338.82 211.63,337.94 211.97,339.14 212.30,338.25 212.63,339.42 212.97,344.32 213.31,342.87 213.64,340.30 213.97,343.74 214.31,342.08 214.65,341.24 214.98,344.46 215.31,345.80 215.65,344.62 215.99,341.86 216.32,343.40 216.66,343.32 216.99,341.85 217.32,339.40 217.66,334.58 218.00,337.03 218.33,333.29 218.66,328.96 219.00,326.06 219.34,327.41 219.67,321.02 220.00,319.90 220.34,321.06 220.68,320.17 221.01,318.02 221.34,316.02 221.68,314.00 222.01,315.97 222.35,319.67 222.69,322.43 223.02,326.35 223.35,325.07 223.69,329.12 224.03,324.61 224.36,329.96 224.69,326.55 225.03,324.75 225.37,321.93 225.70,322.40 226.03,321.38 226.37,325.39 226.71,328.72 227.04,326.18 227.38,328.56 227.71,331.97 228.04,332.07 228.38,331.39 228.72,332.57 229.05,337.26 229.38,331.03 229.72,329.13 230.06,326.83 230.39,322.28 230.72,316.87 231.06,317.60 231.40,315.82 231.73,315.16 232.06,311.76 232.40,309.07 232.74,311.91 233.07,308.25 233.41,303.09 233.74,304.26 234.07,304.66 234.41,303.85 234.75,311.47 235.08,311.03 235.41,314.89 235.75,320.44 236.09,317.59 236.42,320.40 236.75,325.11 237.09,329.26 237.43,329.03 237.76,330.57 238.09,325.56 238.43,315.83 238.76,316.11 239.10,321.30 239.44,321.00 239.77,312.96 240.10,311.85 240.44,316.73 240.78,323.48 241.11,329.85 241.44,324.62 241.78,325.92 242.12,331.19 242.45,330.20 242.78,323.64 243.12,332.41 243.46,320.66 243.79,320.71 244.12,315.04 244.46,310.92 244.79,305.19 245.13,305.19 245.47,306.12 245.80,306.98 246.13,309.35 246.47,312.79 246.81,313.99 247.14,314.78 247.47,316.91 247.81,312.85 248.15,323.20 248.48,325.13 248.81,310.90 249.15,312.93 249.49,310.34 249.82,320.94 250.16,318.23 250.49,313.26 250.82,316.13 251.16,314.64 251.50,309.60 251.83,313.21 252.16,317.05 252.50,320.53 252.84,310.04 253.17,317.49 253.50,310.64 253.84,310.06 254.18,304.55 254.51,303.97 254.84,304.89 255.18,303.43 255.51,302.14 255.85,305.82 256.19,305.79 256.52,297.23 256.86,291.22 257.19,290.14 257.52,284.58 257.86,293.75 258.19,300.55 258.53,299.43 258.87,296.24 259.20,301.68 259.53,298.62 259.87,300.06 260.21,309.80 260.54,308.50 260.88,313.77 261.21,316.09 261.54,317.33 261.88,325.45 262.22,327.32 262.55,321.57 262.88,322.54 263.22,324.51 263.56,317.37 263.89,314.82 264.23,312.79 264.56,314.57 264.89,305.94 265.23,311.84 265.56,307.26 265.90,312.46 266.24,311.83 266.57,303.26 266.90,315.18 267.24,313.43 267.57,309.18 267.91,308.81 268.25,304.65 268.58,312.23 268.91,309.90 269.25,306.60 269.59,305.59 269.92,301.42 270.25,295.32 270.59,293.50 270.93,290.91 271.26,295.25 271.60,301.61 271.93,305.18 272.26,295.65 272.60,296.56 272.94,292.12 273.27,300.75 273.61,298.78 273.94,296.40 274.27,294.71 274.61,302.34 274.94,294.57 275.28,291.05 275.62,293.09 275.95,292.23 276.28,293.45 276.62,296.59 276.96,284.18 277.29,279.22 277.62,285.97 277.96,286.82 278.29,292.21 278.63,292.26 278.97,294.08 279.30,302.62 279.63,303.17 279.97,300.54 280.31,307.65 280.64,310.69 280.98,302.34 281.31,301.45 281.64,300.11 281.98,304.07 282.31,305.66 282.65,299.72 282.99,295.80 283.32,292.95 283.65,296.46 283.99,291.42 284.32,284.93 284.66,281.72 285.00,286.17 285.33,294.83 285.66,292.41 286.00,289.76 286.34,292.44 286.67,288.04 287.00,287.36 287.34,287.16 287.68,291.83 288.01,297.54 288.35,294.38 288.68,298.06 289.01,306.02 289.35,308.63 289.69,305.58 290.02,304.69 290.36,298.29 290.69,304.13 291.02,302.00 291.36,297.93 291.69,297.42 292.03,306.49 292.37,305.88 292.70,309.45 293.03,306.93 293.37,304.14 293.71,293.75 294.04,292.02 294.38,297.59 294.71,303.22 295.04,301.09 295.38,300.69 295.72,298.17 296.05,303.94 296.38,308.58 296.72,317.66 297.06,318.64 297.39,316.62 297.73,319.11 298.06,325.91 298.39,314.74 298.73,310.93 299.06,311.50 299.40,311.17 299.74,319.83 300.07,318.79 300.40,328.64 300.74,321.29 301.07,328.56 301.41,333.51 301.75,334.71 302.08,345.46 302.41,347.36 302.75,349.70 303.09,349.78 303.42,349.66 303.75,346.89 304.09,342.17 304.43,342.63 304.76,341.40 305.10,342.40 305.43,345.42 305.76,349.59 306.10,349.62 306.44,357.71 306.77,362.15 307.11,355.59 307.44,352.18 307.77,360.33 308.11,363.70 308.44,365.30 308.78,368.49 309.12,369.58 309.45,367.54 309.78,367.67 310.12,371.45 310.46,371.64 310.79,363.96 311.12,357.88 311.46,355.42 311.79,355.30 312.13,354.72 312.47,361.64 312.80,362.48 313.13,366.96 313.47,366.88 313.81,364.40 314.14,365.23 314.48,365.06 314.81,367.62 315.14,373.64 315.48,378.65 315.81,380.51 316.15,382.69 316.49,375.42 316.82,368.10 317.15,371.89 317.49,378.86 317.82,382.50 318.16,382.64 318.50,386.87 318.83,384.65 319.16,381.45 319.50,385.30 319.84,380.71 320.17,381.01 320.50,377.22 320.84,385.21 321.18,382.75 321.51,389.96 321.85,394.82 322.18,394.90 322.51,398.50 322.85,394.61 323.19,394.78 323.52,397.69 323.86,396.14 324.19,392.45 324.52,390.49 324.86,390.43 325.19,391.95 325.53,388.60 325.87,386.66 326.20,381.99 326.53,379.38 326.87,381.30 327.21,379.40 327.54,378.74 327.88,377.11 328.21,377.42 328.54,375.37 328.88,376.78 329.22,378.09 329.55,375.32 329.88,373.18 330.22,372.05 330.56,369.50 330.89,367.68 331.23,366.89 331.56,366.60 331.89,369.89 332.23,373.35 332.56,371.99 332.90,370.50 333.24,373.74 333.57,370.26 333.90,369.52 334.24,372.26 334.57,371.20 334.91,372.98 335.25,372.49 335.58,374.68 335.91,373.94 336.25,373.62 336.59,372.98 336.92,371.24 337.25,372.18 337.59,372.06 337.93,372.47 338.26,372.55 338.60,371.27 338.93,370.26 339.26,370.57 339.60,368.96 339.94,370.04 340.27,370.89 340.61,369.60 340.94,370.44 341.27,370.27 341.61,368.29 341.94,368.28 342.28,366.86 342.62,365.04 342.95,363.58 343.29,360.85 343.62,359.89 343.95,361.51 344.29,360.99 344.62,361.27 344.96,361.86 345.30,362.38 345.63,361.43 345.96,362.84 346.30,360.60 346.63,360.13 346.97,362.22 347.31,362.92 347.64,363.82 347.98,365.48 348.31,365.34 348.64,367.34 348.98,365.14 349.31,363.69 349.65,364.17 349.99,364.56 350.32,364.23 350.65,365.36 350.99,364.28 351.32,364.06 351.66,364.47 352.00,363.86 352.33,364.25 352.67,364.46 353.00,365.82 353.33,366.46 353.67,367.22 354.00,367.06 354.34,369.68 354.68,370.91 355.01,371.50 355.35,370.31 355.68,370.83 356.01,371.00 356.35,370.48 356.69,369.82 357.02,367.89 357.36,367.98 357.69,368.04 358.02,367.90 358.36,367.88 358.69,367.74 359.03,367.50 359.37,367.96 359.70,367.52 360.04,367.77 360.37,367.48 360.70,366.03 361.04,366.11 361.38,365.85 361.71,366.65 362.05,366.04 362.38,365.18 362.71,365.86 363.05,366.48 363.38,366.55 363.72,366.05 364.06,366.19 364.39,365.97 364.73,366.06 365.06,366.60 365.39,367.59 365.73,368.78 366.06,367.56 366.40,367.55 366.74,368.63 367.07,368.92 367.40,368.02 367.74,368.20 368.07,368.62 368.41,368.68 368.75,368.00 369.08,367.37 369.42,367.48 369.75,367.83 370.08,367.82 370.42,367.38 370.75,367.27 371.09,367.78 371.43,367.82 371.76,368.21 372.10,368.12 372.43,368.32 372.76,368.36 373.10,368.38 373.44,368.28 373.77,368.42 374.11,368.31 374.44,368.46 374.77,368.48 375.11,368.61 375.44,368.65 375.78,368.52 376.12,368.41 376.45,368.28 376.79,368.13 377.12,367.93 377.45,367.77 377.79,367.66 378.12,367.57 378.46,367.34 378.80,367.23 379.13,367.02 379.46,366.90 379.80,366.81 380.13,366.70 380.47,366.33 380.81,366.45 381.14,366.35 381.48,366.70 381.81,366.10 382.14,366.05 382.48,366.30 382.81,366.52 383.15,366.52 383.49,366.43 383.82,366.19 384.15,366.53 384.49,366.34 384.82,366.91 385.16,367.93 385.50,367.57 385.83,368.24 386.17,368.71 386.50,367.87 386.83,366.94 387.17,366.21 387.50,367.17 387.84,366.63 388.18,367.61 388.51,368.69 388.85,368.84 389.18,368.95 389.51,368.08 389.85,367.80 390.19,367.71 390.52,367.27 390.86,367.82 391.19,368.00 391.52,368.53 391.86,369.41 392.19,368.36 392.53,366.16 392.87,367.02 393.20,367.15 393.54,368.82 393.87,369.23 394.20,369.29 394.54,368.96 394.88,369.42 395.21,369.02 395.55,369.56 395.88,369.15 396.21,369.73 396.55,369.39 396.88,369.97 397.22,369.80 397.56,369.40 397.89,369.20 398.23,369.05 398.56,367.57 398.89,367.40 399.23,367.70 399.56,367.61 399.90,367.74 400.24,366.89 400.57,367.58 400.90,366.88 401.24,365.26 401.57,365.43 401.91,364.38 402.25,365.18 402.58,364.72 402.92,364.72 403.25,363.65 403.58,364.66 403.92,363.83 404.25,364.20 404.59,362.47 404.93,361.89 405.26,361.67 405.60,359.88 405.93,358.55 406.26,357.97 406.60,359.57 406.94,359.73 407.27,357.57 407.61,358.41 407.94,359.29 408.27,357.74 408.61,355.53 408.94,357.68 409.28,358.77 409.62,358.01 409.95,356.72 410.29,355.19 410.62,355.83 410.95,356.11 411.29,354.50 411.62,353.77 411.96,352.48 412.30,352.53 412.63,352.82 412.96,352.03 413.30,350.08 413.63,349.78 413.97,346.01 414.31,344.00 414.64,343.04 414.98,343.74 415.31,340.86 415.64,337.23 415.98,336.29 416.31,334.16 416.65,333.10 416.99,333.54 417.32,332.58 417.65,325.78 417.99,325.44 418.32,328.16 418.66,325.04 419.00,323.16 419.33,323.01 419.67,322.06 420.00,321.04 420.33,317.66 420.67,314.37 421.00,316.64 421.34,312.32 421.68,309.83 422.01,306.31 422.35,308.23 422.68,304.77 423.01,301.37 423.35,302.74 423.69,302.50 424.02,299.74 424.36,296.45 424.69,298.31 425.02,296.71 425.36,295.83 425.69,293.40 426.03,288.42 426.37,287.92 426.70,292.98 427.04,295.02 427.37,293.87 427.70,294.46 428.04,298.33 428.38,299.84 428.71,296.91 429.05,299.67 429.38,295.43 429.71,292.43 430.05,295.30 430.38,292.62 430.72,289.76 431.06,287.71 431.39,288.96 431.73,285.02 432.06,285.37 432.39,286.43 432.73,290.09 433.06,288.74 433.40,285.15 433.74,293.60 434.07,285.15 434.40,278.82 434.74,281.34 435.07,284.02 435.41,283.94 435.75,279.41 436.08,283.39 436.42,280.06 436.75,281.20 437.08,274.27 437.42,275.76 437.75,279.02 438.09,274.98 438.43,277.34 438.76,282.14 439.10,276.80 439.43,277.68 439.76,274.69 440.10,270.47 440.44,267.77 440.77,270.60 441.11,268.87 441.44,275.91 441.77,272.11 442.11,276.99 442.44,274.04 442.78,273.93 443.12,270.74 443.45,270.29 443.79,271.05 444.12,273.15 444.45,279.03 444.79,270.62 445.12,271.13 445.46,268.36 445.80,268.69 446.13,267.05 446.46,261.90 446.80,259.98 447.13,267.25 447.47,270.37 447.81,264.82 448.14,268.12 448.48,268.92 448.81,276.09 449.14,285.04 449.48,283.61 449.81,281.15 450.15,285.33 450.49,284.75 450.82,282.78 451.15,286.04 451.49,294.81 451.82,288.55 452.16,288.09 452.50,288.70 452.83,282.86 453.17,282.06 453.50,276.19 453.83,276.69 454.17,274.51 454.50,277.60 454.84,288.37 455.18,287.70 455.51,278.96 455.85,275.13 456.18,284.19 456.51,291.34 456.85,295.18 457.19,300.49 457.52,304.06 457.86,304.93 458.19,298.28 458.52,301.53 458.86,299.33 459.19,300.00 459.53,288.95 459.87,289.20 460.20,282.21 460.54,282.74 460.87,280.15 461.20,275.31 461.54,281.82 461.88,280.01 462.21,274.80 462.55,276.26 462.88,276.13 463.21,277.17 463.55,274.66 463.88,279.42 464.22,277.94 464.56,278.78 464.89,272.17 465.23,275.64 465.56,275.94 465.89,279.74 466.23,280.28 466.56,287.60 466.90,289.21 467.24,291.02 467.57,291.35 467.90,287.93 468.24,280.95 468.57,282.41 468.91,277.72 469.25,277.83 469.58,278.69 469.92,277.06 470.25,279.48 470.58,272.11 470.92,272.47 471.25,272.38 471.59,267.81 471.93,263.32 472.26,268.14 472.60,272.08 472.93,269.60 473.26,269.48 473.60,268.82 473.94,275.22 474.27,279.51 474.61,284.55 474.94,285.74 475.27,290.09 475.61,296.22 475.94,293.98 476.28,289.23 476.62,285.39 476.95,290.71 477.29,296.06 477.62,294.49 477.95,296.75 478.29,306.08 478.62,309.55 478.96,304.13 479.30,306.09 479.63,303.93 479.96,306.82 480.30,308.99 480.63,303.79 480.97,300.47 481.31,301.35 481.64,302.25 481.98,300.02 482.31,301.69 482.64,298.78 482.98,303.19 483.31,304.81 483.65,302.70 483.99,305.80 484.32,305.88 484.65,307.62 484.99,309.22 485.32,310.81 485.66,314.54 486.00,318.10 486.33,318.69 486.67,324.48 487.00,331.05 487.33,329.92 487.67,326.01 488.00,321.45 488.34,320.43 488.68,321.60 489.01,325.66 489.35,328.88 489.68,328.41 490.01,327.94 490.35,332.10 490.69,332.23 491.02,334.92 491.36,334.60 491.69,338.73 492.02,337.40 492.36,342.09 492.69,343.98 493.03,346.97 493.37,348.31 493.70,347.32 494.04,349.18 494.37,350.62 494.70,351.01 495.04,349.40 495.38,354.09 495.71,352.37 496.05,349.30 496.38,348.74 496.71,344.85 497.05,345.51 497.38,346.71 497.72,348.78 498.06,349.62 498.39,352.89 498.73,350.03 499.06,349.14 499.39,348.81 499.73,348.97 500.06,348.79 500.40,349.63 500.74,351.31 501.07,349.42 501.40,345.43 501.74,345.12 502.07,344.69 502.41,343.28 502.75,342.83 503.08,343.11 503.42,343.83 503.75,342.05 504.08,340.59 504.42,341.60 504.75,343.93 505.09,344.13 505.43,343.73 505.76,344.72 506.10,343.27 506.43,341.36 506.76,342.58 507.10,341.27 507.44,339.40 507.77,339.84 508.11,342.59 508.44,341.47 508.77,342.06 509.11,342.99 509.44,343.89 509.78,343.23 510.12,341.38 510.45,342.79 510.79,342.46 511.12,340.54 511.45,341.15 511.79,341.42 512.12,341.16 512.46,339.81 512.80,340.87 513.13,341.22 513.46,339.42 513.80,341.24 514.13,339.84 514.47,338.65 514.81,340.01 515.14,337.47 515.48,337.97 515.81,338.48 516.14,339.19 516.48,339.07 516.82,340.28 517.15,339.54 517.49,337.38 517.82,336.29 518.15,338.12 518.49,338.20 518.83,337.84 519.16,340.09 519.50,342.22 519.83,344.29 520.16,345.67 520.50,345.36 520.84,345.38 521.17,344.46 521.50,341.57 521.84,340.51 522.17,340.80 522.51,340.93 522.85,339.46 523.18,338.97 523.51,340.32 523.85,340.53 524.18,342.01 524.52,341.22 524.86,341.86 525.19,341.01 525.52,338.48 525.86,339.74 526.19,341.22 526.53,338.93 526.87,338.22 527.20,336.84 527.54,335.62 527.87,336.32 528.20,336.36 528.54,337.08 528.88,337.22 529.21,337.58 529.55,337.36 529.88,338.23 530.21,338.43 530.55,336.21 530.88,336.20 531.22,335.96 531.56,334.50 531.89,335.08 532.23,333.79 532.56,335.41 532.89,335.63 533.23,338.81 533.57,338.70 533.90,338.76 534.24,341.40 534.57,341.28 534.90,341.92 535.24,342.83 535.58,343.82 535.91,344.13 536.25,344.38 536.58,344.10 536.91,341.12 537.25,339.56 537.59,339.31 537.92,340.11 538.25,340.51 538.59,340.49 538.92,339.55 539.26,338.81 539.60,339.71 539.93,338.85 540.26,338.38 540.60,338.01 540.93,337.87 541.27,338.11 541.61,338.06 541.94,337.14 542.27,338.07 542.61,337.77 542.94,338.02 543.28,338.75 543.62,339.79 543.95,339.04 544.29,337.80 544.62,337.98 544.95,337.72 545.29,338.29 545.62,339.22 545.96,340.50 546.30,341.31 546.63,342.44 546.96,341.14 547.30,341.86 547.63,340.58 547.97,340.77 548.31,339.75 548.64,339.82 548.98,340.50 549.31,338.87 549.64,339.95 549.98,341.72 550.32,340.77 550.65,341.10 550.99,341.74 551.32,343.26 551.65,342.94 551.99,342.54 552.33,343.08 552.66,343.43 553.00,344.10 553.33,344.49 553.66,344.93 554.00,345.29 554.34,344.89 554.67,345.34 555.00,345.50 555.34,345.94 555.67,345.82 556.01,345.41 556.35,345.38 556.68,345.03 557.01,345.25 557.35,344.78 557.68,344.63 558.02,343.82 558.36,343.60 558.69,343.46 559.02,343.39 559.36,343.04 559.69,343.69 560.03,344.08 560.37,343.98 560.70,343.67 561.04,344.19 561.37,344.09 561.70,344.30 562.04,344.01 562.38,343.90 562.71,344.08 563.05,343.94 563.38,343.86 563.71,343.78 564.05,343.48 564.38,343.34 564.72,343.22 565.06,343.18 565.39,343.07 565.73,342.93 566.06,342.79 566.39,342.67 566.73,342.73 567.07,342.53 567.40,342.67 567.74,342.71 568.07,343.03 568.40,343.31 568.74,342.96 569.08,343.04 569.41,342.86 569.75,342.70 570.08,343.26 570.41,343.68 570.75,344.27 571.09,344.24 571.42,344.42 571.75,345.00 572.09,344.74 572.42,344.21 572.76,343.58 573.10,343.19 573.43,343.98 573.76,344.46 574.10,344.22 574.43,343.98 574.77,344.45 575.11,344.71 575.44,344.65 575.77,344.55 576.11,344.26 576.44,344.21 576.78,344.02 577.12,343.87 577.45,343.83 577.79,344.41 578.12,344.90 578.45,345.26 578.79,345.33 579.12,345.46 579.46,345.44 579.80,345.35 580.13,345.27 580.46,344.95 580.80,345.04 581.13,344.81 581.47,344.89 581.81,345.00 582.14,344.97 582.48,344.91 582.81,344.82 583.14,344.75 583.48,344.71 583.82,344.66 584.15,344.57 584.49,344.38 584.82,344.17 585.15,344.13 585.49,344.02 585.83,344.06 586.16,343.66 586.50,343.53 586.83,343.45 587.16,343.75 587.50,343.58 587.84,343.32 588.17,342.44 588.50,342.61 588.84,342.43 589.17,342.66 589.51,342.23 589.85,342.35 590.18,341.35 590.51,341.00 590.85,339.53 591.18,339.81 591.52,340.28 591.86,337.79 592.19,339.20 592.52,338.89 592.86,339.90 593.19,339.84 593.53,341.43 593.87,341.63 594.20,341.06 594.54,341.55 594.87,338.89 595.20,340.28 595.54,341.86 595.88,342.29 596.21,343.18 596.55,343.00 596.88,342.82 597.22,344.70 597.55,343.37 597.88,343.27 598.22,342.28 598.55,342.52 598.89,341.38 599.23,338.66 599.56,338.59 599.89,339.39 600.23,337.76 600.57,337.16 600.90,337.60 601.24,336.37 601.57,338.47 601.90,340.00 602.24,340.48 602.58,339.31 602.91,336.98 603.25,337.60 603.58,337.04 603.91,339.05 604.25,337.34 604.59,336.57 604.92,334.42 605.25,334.39 605.59,333.90 605.92,327.59 606.26,326.78 606.60,323.76 606.93,324.88 607.26,326.82 607.60,327.14 607.93,323.53 608.27,324.01 608.61,324.82 608.94,321.10 609.27,319.53 609.61,320.66 609.95,322.78 610.28,321.78 610.62,317.16 610.95,316.94 611.28,312.57 611.62,307.77 611.96,307.32 612.29,305.91 612.62,305.66 612.96,305.97 613.29,304.96 613.63,302.55 613.97,303.33 614.30,301.67 614.63,303.05 614.97,305.97 615.30,306.90 615.64,306.30 615.98,302.71 616.31,307.33 616.64,305.91 616.98,305.78 617.32,301.51 617.65,296.35 617.99,298.66 618.32,296.31 618.65,298.25 618.99,297.19 619.33,295.12 619.66,296.47 620.00,295.99 620.33,289.48 620.66,284.08 621.00,281.09 621.34,276.90 621.67,281.23 622.00,275.38 622.34,269.80 622.67,269.39 623.01,266.21 623.35,265.24 623.68,267.56 624.01,265.30 624.35,256.35 624.68,262.50 625.02,262.02 625.36,262.10 625.69,256.70 626.02,254.99 626.36,253.45 626.70,246.98 627.03,245.09 627.37,245.10 627.70,246.15 628.03,245.26 628.37,239.79 628.71,241.72 629.04,241.98 629.38,239.64 629.71,236.79 630.04,243.34 630.38,237.40 630.72,230.93 631.05,229.29 631.38,227.73 631.72,231.43 632.05,233.61 632.39,234.96 632.73,230.21 633.06,226.20 633.39,225.65 633.73,220.57 634.07,226.54 634.40,222.97 634.74,219.98 635.07,225.19 635.40,222.83 635.74,230.54 636.08,227.55 636.41,226.86 636.75,233.28 637.08,227.53 637.41,228.02 637.75,220.54 638.09,212.77 638.42,207.12 638.75,201.07 639.09,203.93 639.42,198.53 639.76,203.37 640.10,196.87 640.43,196.98 640.76,198.31 641.10,196.00 641.43,191.10 641.77,187.80 642.11,190.68 642.44,185.73 642.77,191.12 643.11,192.96 643.45,186.30 643.78,185.17 644.12,184.92 644.45,187.79 644.78,189.46 645.12,185.31 645.46,184.37 645.79,184.76 646.12,181.35 646.46,184.33 646.79,176.66 647.13,174.04 647.47,181.66 647.80,183.09 648.13,180.70 648.47,179.47 648.80,181.06 649.14,186.41 649.48,183.55 649.81,189.40 650.14,190.95 650.48,189.44 650.82,181.02 651.15,178.19 651.49,184.01 651.82,185.23 652.15,180.46 652.49,179.49 652.83,186.05 653.16,183.37 653.50,178.00 653.83,173.43 654.16,173.73 654.50,165.25 654.84,159.55 655.17,157.43 655.50,156.86 655.84,158.41 656.17,165.73 656.51,150.90 656.85,151.78 657.18,148.20 657.51,141.36 657.85,129.77 658.18,120.63 658.52,129.07 658.86,129.92 659.19,129.34 659.52,136.31 659.86,135.12 660.20,132.58 660.53,129.79 660.87,138.42 661.20,140.74 661.53,135.62 661.87,136.57 662.21,129.18 662.54,128.94 662.88,135.45 663.21,131.35 663.54,124.24 663.88,130.13 664.22,133.58 664.55,136.82 664.88,137.65 665.22,142.45 665.55,152.02 665.89,155.65 666.23,170.32 666.56,171.45 666.89,177.26 667.23,168.94 667.57,168.40 667.90,170.70 668.24,161.41 668.57,157.12 668.90,148.27 669.24,153.96 669.58,158.94 669.91,152.50 670.25,150.02 670.58,153.04 670.91,155.12 671.25,154.82 671.59,146.55 671.92,146.17 672.25,148.67 672.59,145.48 672.92,145.00 673.26,155.71 673.60,161.40 673.93,165.18 674.26,146.11 674.60,150.94 674.93,146.79 675.27,147.83 675.61,142.31 675.94,144.36 676.27,127.56 676.61,120.64 676.95,122.52 677.28,126.58 677.62,120.64 677.95,121.31 678.28,117.17 678.62,122.25 678.96,123.96 679.29,129.36 679.62,130.36 679.96,131.88 680.29,143.87 680.63,144.43 680.97,146.76 681.30,145.06 681.63,138.25 681.97,140.77 682.30,139.62 682.64,139.75 682.98,143.55 683.31,143.33 683.64,135.31 683.98,139.76 684.32,132.04 684.65,132.90 684.99,135.08 685.32,133.62 685.65,131.97 685.99,140.29 686.33,140.70 686.66,145.81 687.00,137.04 687.33,130.35 687.66,142.46 688.00,133.15 688.34,127.29 688.67,125.89 689.00,132.09 689.34,135.58 689.67,129.18 690.01,128.25 690.35,136.56 690.68,136.53 691.01,134.42 691.35,114.54 691.68,122.32 692.02,122.86 692.36,123.73 692.69,120.15 693.02,123.82 693.36,128.01 693.70,129.86 694.03,129.30 694.37,128.16 694.70,137.15 695.03,133.55 695.37,133.88 695.71,130.75 696.04,132.14 696.38,123.17 696.71,117.60 697.04,125.03 697.38,121.57 697.72,121.38 698.05,121.59 698.38,117.86 698.72,127.33 699.05,123.02 699.39,114.43 699.73,115.20 700.06,115.41 700.39,106.97 700.73,110.37 701.07,108.19 701.40,115.47 701.74,117.14 702.07,111.34 702.40,105.42 702.74,107.36 703.08,103.44 703.41,106.74 703.75,100.15 704.08,98.79 704.41,95.23 704.75,97.01 705.09,102.66 705.42,108.98 705.75,115.28 706.09,96.42 706.42,89.61 706.76,82.88 707.10,91.30 707.43,92.06 707.76,96.07 708.10,89.60 708.43,98.84 708.77,94.05 709.11,85.38 709.44,89.24 709.77,98.95 710.11,92.13 710.45,87.80 710.78,86.96 711.12,90.59 711.45,87.32 711.78,89.54 712.12,97.05 712.46,95.15 712.79,96.93 713.12,100.86 713.46,97.50 713.79,103.47 714.13,99.96 714.47,116.18 714.80,122.27 715.13,123.21 715.47,131.22 715.80,150.26 716.14,157.55 716.48,141.95 716.81,138.86 717.14,134.14 717.48,126.24 717.82,121.28 718.15,102.36 718.49,100.15 718.82,103.22 719.15,112.17 719.49,111.93 719.83,110.89 720.16,99.41 720.50,87.47 720.83,87.41 721.16,87.33 721.50,76.44 721.84,74.85 722.17,77.81 722.50,90.29 722.84,87.64 723.17,84.99 723.51,71.52 723.85,75.50 724.18,76.78 724.51,86.27 724.85,90.32 725.18,98.71 725.52,91.81 725.86,100.30 726.19,109.45 726.52,115.95 726.86,123.00 727.20,127.03 727.53,124.63 727.87,125.01 728.20,115.98 728.53,118.23 728.87,122.79 729.21,119.81 729.54,109.55 729.88,99.59 730.21,84.29 730.54,89.67 730.88,97.33 731.22,99.88 731.55,105.64 731.88,107.17 732.22,95.68 732.55,94.26 732.89,86.39 733.23,83.73 733.56,81.30 733.89,92.38 734.23,94.32 734.57,99.76 734.90,109.84 735.24,107.99 735.57,100.56 735.90,98.33 736.24,98.28 736.58,93.80 736.91,84.20 737.25,83.30 737.58,84.24 737.91,78.47 738.25,81.15 738.59,80.87 738.92,85.48 739.25,90.58 739.59,93.35 739.92,94.99 740.26,99.95 740.60,100.36 740.93,105.61 741.26,107.24 741.60,111.31 741.93,100.00 742.27,110.63 742.61,109.82 742.94,101.19 743.27,111.89 743.61,119.75 743.95,109.03 744.28,112.77 744.62,110.71 744.95,112.59 745.28,113.47 745.62,103.56 745.96,106.33 746.29,99.28 746.62,93.89 746.96,87.52 747.29,83.00 747.63,85.23 747.97,72.56 748.30,77.05 748.63,76.38 748.97,90.06 749.30,98.32 749.64,100.59 749.98,94.80 750.31,108.38 750.64,96.25 750.98,90.04 751.32,91.72 751.65,101.87 751.99,98.53 752.32,89.41 752.65,94.73 752.99,95.84 753.33,97.73 753.66,101.19 754.00,93.25 754.33,102.42 754.66,100.70 755.00,106.29 755.00,130.05"/>
<line x1="783" y1="82" x2="809" y2="82" stroke="#dc2626" stroke-width="3"/>
<text x="817" y="86" font-family="Arial" font-size="13" fill="#111827">Avellaneda Stoikov</text>
<polyline fill="none" stroke="#7c3aed" stroke-width="2" points=""/>
<line x1="783" y1="106" x2="809" y2="106" stroke="#7c3aed" stroke-width="3"/>
<text x="817" y="110" font-family="Arial" font-size="13" fill="#111827">Calibrated Avellaneda Stoikov</text>
<text x="420.0" y="518" text-anchor="middle" font-family="Arial" font-size="14" fill="#111827">Event index</text>
<text x="22" y="256.0" text-anchor="middle" transform="rotate(-90 22 256.0)" font-family="Arial" font-size="14" fill="#111827">Net PnL after fees</text>
</svg>
