<svg xmlns="http://www.w3.org/2000/svg" width="940" height="540" viewBox="0 0 940 540">
<rect width="100%" height="100%" fill="#ffffff"/>
<text x="470.0" y="26" text-anchor="middle" font-family="Arial" font-size="18" fill="#111827">Low Volatility Cumulative PnL After Fees</text>
<line x1="85" y1="470" x2="755" y2="470" stroke="#111827" stroke-width="1"/>
<line x1="85" y1="42" x2="85" y2="470" stroke="#111827" stroke-width="1"/>
<line x1="85.00" y1="42" x2="85.00" y2="470" stroke="#e5e7eb" stroke-width="1"/>
<text x="85.00" y="494" text-anchor="middle" font-family="Arial" font-size="12" fill="#374151">0</text>
<line x1="252.50" y1="42" x2="252.50" y2="470" stroke="#e5e7eb" stroke-width="1"/>
<text x="252.50" y="494" text-anchor="middle" font-family="Arial" font-size="12" fill="#374151">50000</text>
<line x1="420.00" y1="42" x2="420.00" y2="470" stroke="#e5e7eb" stroke-width="1"/>
<text x="420.00" y="494" text-anchor="middle" font-family="Arial" font-size="12" fill="#374151">100000</text>
<line x1="587.50" y1="42" x2="587.50" y2="470" stroke="#e5e7eb" stroke-width="1"/>
<text x="587.50" y="494" text-anchor="middle" font-family="Arial" font-size="12" fill="#374151">149999</text>
<line x1="755.00" y1="42" x2="755.00" y2="470" stroke="#e5e7eb" stroke-width="1"/>
<text x="755.00" y="494" text-anchor="middle" font-family="Arial" font-size="12" fill="#374151">199999</text>
<line x1="85" y1="470.00" x2="755" y2="470.00" stroke="#e5e7eb" stroke-width="1"/>
<text x="73" y="474.00" text-anchor="end" font-family="Arial" font-size="12" fill="#374151">-1439303</text>
<line x1="85" y1="363.00" x2="755" y2="363.00" stroke="#e5e7eb" stroke-width="1"/>
<text x="73" y="367.00" text-anchor="end" font-family="Arial" font-size="12" fill="#374151">3407674</text>
<line x1="85" y1="256.00" x2="755" y2="256.00" stroke="#e5e7eb" stroke-width="1"/>
<text x="73" y="260.00" text-anchor="end" font-family="Arial" font-size="12" fill="#374151">8254650</text>
<line x1="85" y1="149.00" x2="755" y2="149.00" stroke="#e5e7eb" stroke-width="1"/>
<text x="73" y="153.00" text-anchor="end" font-family="Arial" font-size="12" fill="#374151">13101627</text>
<line x1="85" y1="42.00" x2="755" y2="42.00" stroke="#e5e7eb" stroke-width="1"/>
<text x="73" y="46.00" text-anchor="end" font-family="Arial" font-size="12" fill="#374151">17948604</text>
<polyline fill="none" stroke="#2563eb" stroke-width="2" points="85.00,438.23 85.34,438.21 85.67,438.19 86.01,438.18 86.34,438.17 86.68,438.15 87.01,438.13 87.35,438.12 87.68,438.10 88.02,438.08 88.35,438.06 88.69,438.05 89.02,438.03 89.36,438.02 89.69,438.01 90.03,437.97 90.36,437.95 90.70,437.93 91.03,437.90 91.37,437.87 91.70,437.88 92.04,437.85 92.37,437.84 92.71,437.84 93.04,437.84 93.38,437.83 93.71,437.80 94.05,437.83 94.38,437.80 94.72,437.79 95.05,437.78 95.39,437.77 95.72,437.71 96.06,437.72 96.39,437.69 96.73,437.66 97.06,437.69 97.40,437.70 97.73,437.69 98.07,437.67 98.40,437.68 98.74,437.66 99.07,437.64 99.41,437.64 99.74,437.61 100.08,437.63 100.41,437.57 100.75,437.59 101.08,437.57 101.42,437.55 101.75,437.50 102.09,437.48 102.42,437.50 102.76,437.50 103.09,437.48 103.43,437.44 103.76,437.47 104.10,437.44 104.43,437.46 104.77,437.48 105.10,437.48 105.44,437.48 105.77,437.47 106.11,437.45 106.44,437.45 106.78,437.43 107.11,437.39 107.45,437.41 107.78,437.44 108.12,437.44 108.45,437.44 108.79,437.44 109.12,437.42 109.46,437.41 109.79,437.39 110.13,437.38 110.46,437.35 110.80,437.35 111.13,437.32 111.47,437.31 111.80,437.29 112.14,437.28 112.47,437.26 112.81,437.25 113.14,437.23 113.48,437.22 113.81,437.21 114.15,437.19 114.48,437.18 114.82,437.16 115.15,437.14 115.49,437.13 115.82,437.11 116.16,437.09 116.49,437.09 116.83,437.08 117.16,437.06 117.50,437.06 117.83,437.06 118.17,437.05 118.50,437.04 118.84,437.02 119.17,437.01 119.51,437.01 119.84,437.08 120.18,437.05 120.51,437.05 120.85,437.00 121.18,437.01 121.52,437.02 121.85,436.96 122.19,436.92 122.52,436.87 122.86,436.88 123.19,436.87 123.53,436.86 123.86,436.83 124.20,436.83 124.53,436.88 124.87,436.90 125.20,436.87 125.54,436.87 125.87,436.84 126.21,436.90 126.54,436.86 126.88,436.87 127.21,436.86 127.55,436.82 127.88,436.82 128.22,436.81 128.55,436.77 128.89,436.74 129.22,436.71 129.56,436.70 129.89,436.71 130.23,436.81 130.56,436.74 130.90,436.72 131.23,436.63 131.57,436.66 131.90,436.66 132.24,436.69 132.57,436.71 132.91,436.74 133.24,436.65 133.58,436.62 133.91,436.66 134.25,436.67 134.58,436.60 134.92,436.53 135.25,436.51 135.59,436.56 135.92,436.50 136.26,436.42 136.59,436.44 136.93,436.39 137.26,436.25 137.60,436.18 137.93,436.11 138.27,436.03 138.60,436.11 138.94,436.13 139.27,436.12 139.61,435.98 139.94,435.95 140.28,435.98 140.61,435.87 140.95,435.95 141.28,435.93 141.62,435.96 141.95,435.95 142.29,435.90 142.62,435.76 142.96,435.71 143.29,435.63 143.63,435.57 143.96,435.61 144.30,435.59 144.63,435.55 144.97,435.69 145.30,435.69 145.64,435.66 145.97,435.83 146.31,435.82 146.64,435.79 146.98,435.71 147.31,435.87 147.65,435.78 147.98,435.68 148.32,435.55 148.65,435.49 148.99,435.38 149.32,435.20 149.66,435.27 149.99,435.28 150.33,435.35 150.66,435.35 151.00,435.43 151.33,435.27 151.67,435.21 152.00,435.26 152.34,435.28 152.67,435.39 153.01,435.41 153.34,435.61 153.68,435.41 154.01,435.35 154.35,435.31 154.68,435.41 155.02,435.46 155.35,435.31 155.69,435.38 156.02,435.05 156.36,435.10 156.69,435.02 157.03,435.01 157.36,435.18 157.70,435.12 158.03,435.05 158.37,434.94 158.70,434.98 159.04,435.12 159.37,435.06 159.71,435.10 160.04,434.97 160.38,434.94 160.71,434.71 161.05,434.61 161.38,434.79 161.72,434.84 162.05,434.71 162.39,434.78 162.72,434.76 163.06,434.61 163.39,434.48 163.73,434.37 164.06,434.45 164.40,434.79 164.73,434.74 165.07,434.88 165.40,434.91 165.74,435.08 166.07,434.91 166.41,435.01 166.74,434.97 167.08,434.63 167.41,434.42 167.75,434.57 168.08,434.43 168.42,434.30 168.75,434.49 169.09,434.68 169.42,434.88 169.76,434.81 170.09,434.62 170.43,434.42 170.76,434.29 171.10,434.43 171.43,434.44 171.77,434.45 172.10,434.48 172.44,434.51 172.77,434.59 173.11,434.52 173.44,434.36 173.78,434.28 174.11,434.18 174.45,434.24 174.78,434.22 175.12,433.86 175.45,434.16 175.79,434.10 176.12,434.05 176.46,434.00 176.79,434.09 177.13,434.29 177.46,434.06 177.80,434.27 178.13,434.15 178.47,433.94 178.80,433.83 179.14,433.64 179.47,433.43 179.81,433.14 180.14,433.01 180.48,433.15 180.81,433.47 181.15,433.35 181.48,433.19 181.82,433.20 182.15,433.28 182.49,433.25 182.82,433.61 183.16,433.46 183.49,433.28 183.83,433.31 184.16,433.12 184.50,432.85 184.83,432.73 185.17,432.61 185.50,432.45 185.84,432.70 186.17,432.86 186.51,433.07 186.84,433.13 187.18,432.92 187.51,433.16 187.85,432.68 188.18,432.72 188.52,432.36 188.85,431.68 189.19,431.91 189.52,432.03 189.86,431.73 190.19,431.21 190.53,430.45 190.86,430.41 191.20,430.84 191.53,430.66 191.87,431.24 192.20,431.95 192.54,431.44 192.87,431.82 193.21,431.09 193.54,431.77 193.88,431.52 194.21,431.34 194.55,431.45 194.88,431.23 195.22,430.30 195.55,429.40 195.89,428.71 196.22,427.85 196.56,427.56 196.89,428.03 197.23,428.50 197.56,427.93 197.90,427.79 198.23,428.47 198.57,428.03 198.90,428.61 199.24,429.32 199.57,429.67 199.91,429.00 200.24,428.76 200.58,428.30 200.91,428.80 201.25,428.91 201.58,428.47 201.92,428.39 202.25,428.41 202.59,428.71 202.92,429.00 203.26,429.60 203.59,430.07 203.93,430.43 204.26,429.30 204.60,428.55 204.93,428.38 205.27,428.69 205.60,428.53 205.94,429.19 206.27,430.56 206.61,430.67 206.94,431.57 207.28,431.49 207.61,432.01 207.95,432.75 208.28,432.03 208.62,431.70 208.95,432.65 209.29,433.33 209.62,434.62 209.96,434.89 210.29,435.21 210.63,435.30 210.96,435.61 211.30,434.86 211.63,435.09 211.97,435.97 212.30,435.91 212.64,435.44 212.97,435.61 213.31,435.96 213.64,435.48 213.98,436.07 214.31,435.58 214.65,436.75 214.98,436.42 215.32,435.93 215.65,436.22 215.99,436.56 216.32,435.85 216.66,436.84 216.99,436.36 217.33,436.28 217.66,435.79 218.00,435.17 218.33,435.64 218.67,434.93 219.00,435.08 219.34,435.49 219.67,435.52 220.01,435.33 220.34,434.68 220.68,435.27 221.01,434.96 221.35,435.06 221.68,434.77 222.02,435.29 222.35,434.52 222.69,434.28 223.02,435.01 223.36,435.31 223.69,435.45 224.03,435.27 224.36,434.83 224.70,434.65 225.03,434.07 225.37,433.95 225.70,432.51 226.04,433.00 226.37,432.96 226.71,433.15 227.04,431.68 227.38,431.31 227.71,430.59 228.05,430.42 228.38,430.26 228.72,430.37 229.05,431.56 229.39,431.40 229.72,430.76 230.06,430.90 230.39,432.11 230.73,431.43 231.06,430.80 231.40,431.38 231.73,432.00 232.07,431.48 232.40,430.96 232.74,431.67 233.07,432.30 233.41,431.72 233.74,431.18 234.08,431.75 234.41,430.22 234.75,429.81 235.08,430.30 235.42,429.35 235.75,429.89 236.09,430.88 236.42,430.56 236.76,429.63 237.09,428.95 237.43,428.90 237.76,429.84 238.10,430.06 238.43,429.18 238.77,429.11 239.10,429.54 239.44,429.49 239.77,429.07 240.11,429.71 240.44,429.73 240.78,429.37 241.11,430.10 241.45,429.27 241.78,428.55 242.12,429.37 242.45,429.48 242.79,428.90 243.12,429.48 243.46,430.40 243.79,430.51 244.13,429.32 244.46,429.01 244.80,429.75 245.13,429.48 245.47,430.13 245.80,430.48 246.14,431.13 246.47,432.24 246.81,432.59 247.14,431.98 247.48,431.43 247.81,432.34 248.15,432.40 248.48,432.43 248.82,432.65 249.15,432.89 249.49,432.13 249.82,430.08 250.16,430.37 250.49,429.57 250.83,430.58 251.16,429.59 251.50,428.57 251.83,428.52 252.17,427.76 252.50,427.33 252.84,427.58 253.17,427.76 253.51,427.36 253.84,428.49 254.18,427.99 254.51,426.31 254.85,425.26 255.18,425.59 255.52,425.57 255.85,424.08 256.19,423.04 256.52,422.43 256.86,422.46 257.19,422.24 257.53,423.31 257.86,423.88 258.20,422.76 258.53,422.92 258.87,421.79 259.20,420.91 259.54,420.84 259.87,420.33 260.21,420.41 260.54,421.76 260.88,422.06 261.21,422.03 261.55,422.59 261.88,422.37 262.22,421.51 262.55,419.84 262.89,419.45 263.22,419.36 263.56,418.62 263.89,416.89 264.23,417.08 264.56,417.10 264.90,418.55 265.23,417.03 265.57,416.85 265.90,416.49 266.24,417.20 266.57,419.85 266.91,418.99 267.24,421.11 267.58,420.23 267.91,418.78 268.25,417.13 268.58,418.28 268.92,420.14 269.25,419.34 269.59,420.09 269.92,420.13 270.26,422.70 270.59,422.75 270.93,421.22 271.26,419.70 271.60,419.43 271.93,420.16 272.27,419.05 272.60,418.67 272.94,417.61 273.27,417.60 273.61,418.04 273.94,420.30 274.28,423.04 274.61,423.99 274.95,422.74 275.28,422.63 275.62,421.52 275.95,422.18 276.29,420.76 276.62,421.13 276.96,421.52 277.29,421.89 277.63,421.41 277.96,420.49 278.30,420.99 278.63,422.47 278.97,421.73 279.30,425.24 279.64,424.97 279.97,425.24 280.31,425.66 280.64,424.99 280.98,425.12 281.31,424.46 281.65,422.10 281.98,422.92 282.32,424.47 282.65,424.56 282.99,424.79 283.32,424.64 283.66,423.51 283.99,423.51 284.33,425.72 284.66,425.64 285.00,426.70 285.33,429.12 285.67,428.33 286.00,426.79 286.34,427.50 286.67,426.53 287.01,427.18 287.34,428.43 287.68,429.57 288.01,431.57 288.35,432.68 288.68,433.65 289.02,431.86 289.35,430.36 289.69,431.36 290.02,430.94 290.36,429.87 290.69,429.85 291.03,430.97 291.36,432.71 291.70,433.98 292.03,434.76 292.37,433.43 292.70,431.84 293.04,430.82 293.37,429.52 293.71,430.52 294.04,432.23 294.38,431.21 294.71,430.91 295.05,427.78 295.38,428.84 295.72,429.18 296.05,428.41 296.39,429.40 296.72,431.36 297.06,433.10 297.39,431.51 297.73,431.31 298.06,432.39 298.40,433.99 298.73,432.87 299.07,431.48 299.40,431.54 299.74,430.43 300.07,426.96 300.41,429.43 300.74,430.22 301.08,430.33 301.41,431.11 301.75,429.95 302.08,430.35 302.42,429.50 302.75,430.84 303.09,430.32 303.42,429.83 303.76,429.34 304.09,427.73 304.43,429.02 304.76,429.13 305.10,430.96 305.43,431.50 305.77,434.05 306.10,434.36 306.44,434.84 306.77,434.22 307.11,435.37 307.44,436.82 307.78,438.56 308.11,438.05 308.45,438.84 308.78,437.50 309.12,435.36 309.45,433.48 309.79,433.81 310.12,435.22 310.46,436.85 310.79,439.32 311.13,438.86 311.46,438.45 311.80,438.69 312.13,438.88 312.47,438.40 312.80,438.84 313.14,436.08 313.47,436.28 313.81,436.98 314.14,438.09 314.48,438.48 314.81,438.18 315.15,438.50 315.48,438.61 315.82,437.85 316.15,436.90 316.49,437.31 316.82,436.19 317.16,437.27 317.49,438.47 317.83,439.00 318.16,439.66 318.50,439.60 318.83,440.48 319.17,437.91 319.50,438.54 319.84,436.98 320.17,436.32 320.51,435.57 320.84,435.31 321.18,433.42 321.51,432.37 321.85,432.22 322.18,432.72 322.52,432.72 322.85,432.42 323.19,430.30 323.52,429.91 323.86,429.14 324.19,429.25 324.53,427.73 324.86,427.77 325.20,427.35 325.53,426.07 325.87,423.94 326.20,424.31 326.54,423.28 326.87,423.36 327.21,424.16 327.54,424.55 327.88,424.72 328.21,425.69 328.55,426.05 328.88,425.68 329.22,426.03 329.55,427.03 329.89,427.23 330.22,428.74 330.56,426.65 330.89,427.09 331.23,426.22 331.56,427.86 331.90,426.25 332.23,426.07 332.57,425.38 332.90,424.98 333.24,424.57 333.57,425.86 333.91,425.83 334.24,426.77 334.58,426.12 334.91,425.92 335.25,424.54 335.58,423.31 335.92,422.10 336.25,421.20 336.59,419.65 336.92,420.31 337.26,419.64 337.59,416.88 337.93,416.37 338.26,415.16 338.60,416.29 338.93,413.67 339.27,413.97 339.60,415.99 339.94,414.95 340.27,413.96 340.61,412.97 340.94,413.67 341.28,413.36 341.61,412.87 341.95,411.43 342.28,411.52 342.62,410.05 342.95,408.52 343.29,410.23 343.62,411.55 343.96,410.69 344.29,407.90 344.63,406.40 344.96,404.05 345.30,405.80 345.63,405.52 345.97,407.69 346.30,407.46 346.64,407.51 346.97,409.66 347.31,408.46 347.64,409.18 347.98,410.69 348.31,409.55 348.65,412.15 348.98,411.04 349.32,410.62 349.65,411.37 349.99,408.60 350.32,409.44 350.66,409.89 350.99,411.98 351.33,413.40 351.66,413.01 352.00,413.32 352.33,413.92 352.67,411.52 353.00,411.19 353.34,407.29 353.67,408.45 354.01,406.06 354.34,405.98 354.68,406.47 355.01,406.13 355.35,406.56 355.68,408.27 356.02,412.02 356.35,413.17 356.69,414.35 357.02,414.59 357.36,415.55 357.69,415.30 358.03,412.88 358.36,410.62 358.70,408.87 359.03,407.13 359.37,404.74 359.70,403.31 360.04,404.86 360.37,403.28 360.71,401.21 361.04,402.46 361.38,400.90 361.71,399.88 362.05,397.49 362.38,397.44 362.72,399.92 363.05,399.32 363.39,398.44 363.72,396.54 364.06,396.22 364.39,395.43 364.73,396.75 365.06,395.55 365.40,394.32 365.73,393.90 366.07,391.78 366.40,394.84 366.74,396.46 367.07,395.75 367.41,394.47 367.74,392.55 368.08,390.29 368.41,386.89 368.75,385.96 369.08,387.95 369.42,385.43 369.75,386.96 370.09,386.02 370.42,386.81 370.76,385.33 371.09,384.25 371.43,380.08 371.76,380.52 372.10,380.22 372.43,379.29 372.77,376.75 373.10,375.41 373.44,377.00 373.77,378.03 374.11,376.68 374.44,377.47 374.78,378.32 375.11,377.17 375.45,377.67 375.78,380.16 376.12,379.84 376.45,380.39 376.79,381.11 377.12,381.94 377.46,384.92 377.79,382.57 378.13,381.75 378.46,381.41 378.80,383.15 379.13,381.56 379.47,378.48 379.80,375.08 380.14,373.82 380.47,374.02 380.81,375.91 381.14,376.36 381.48,377.58 381.81,380.24 382.15,375.01 382.48,374.71 382.82,371.06 383.15,375.67 383.49,374.79 383.82,373.39 384.16,373.70 384.49,374.99 384.83,376.92 385.16,379.66 385.50,379.61 385.83,378.53 386.17,379.49 386.50,380.55 386.84,380.12 387.17,378.76 387.51,376.52 387.84,376.52 388.18,375.31 388.51,372.05 388.85,369.44 389.18,370.90 389.52,367.77 389.85,365.32 390.19,365.56 390.52,365.80 390.86,363.44 391.19,359.29 391.53,360.36 391.86,358.31 392.20,356.03 392.53,356.75 392.87,357.99 393.20,355.28 393.54,355.72 393.87,353.81 394.21,356.93 394.54,360.28 394.88,358.58 395.21,356.88 395.55,353.23 395.88,353.14 396.22,354.17 396.55,359.97 396.89,359.34 397.22,355.21 397.56,357.43 397.89,359.70 398.23,358.74 398.56,359.86 398.90,360.97 399.23,362.18 399.57,361.05 399.90,360.90 400.24,359.04 400.57,361.21 400.91,357.70 401.24,358.24 401.58,358.71 401.91,354.58 402.25,347.78 402.58,345.01 402.92,345.46 403.25,342.92 403.59,340.79 403.92,342.75 404.26,346.68 404.59,345.08 404.93,342.02 405.26,342.47 405.60,339.55 405.93,336.32 406.27,332.62 406.60,333.78 406.94,332.31 407.27,331.92 407.61,326.78 407.94,325.33 408.28,326.77 408.61,325.56 408.95,322.51 409.28,320.62 409.62,321.51 409.95,320.70 410.29,320.95 410.62,318.92 410.96,317.69 411.29,320.36 411.63,318.47 411.96,315.39 412.30,316.47 412.63,315.92 412.97,312.13 413.30,309.97 413.64,311.76 413.97,312.58 414.31,315.08 414.64,317.54 414.98,310.52 415.31,313.14 415.65,314.76 415.98,318.08 416.32,323.91 416.65,321.10 416.99,323.62 417.32,324.03 417.66,322.91 417.99,325.64 418.33,330.57 418.66,328.98 419.00,329.77 419.33,330.12 419.67,331.35 420.00,335.08 420.34,334.43 420.67,334.56 421.01,336.65 421.34,338.97 421.68,339.16 422.01,336.14 422.35,338.46 422.68,335.87 423.02,332.23 423.35,329.82 423.69,331.83 424.02,332.69 424.36,335.24 424.69,332.46 425.03,331.71 425.36,329.90 425.70,329.53 426.03,328.62 426.37,331.51 426.70,334.41 427.04,333.36 427.37,334.27 427.71,327.77 428.04,328.87 428.38,326.52 428.71,327.10 429.05,325.11 429.38,323.78 429.72,320.35 430.05,322.96 430.39,321.92 430.72,317.59 431.06,321.85 431.39,325.08 431.73,318.30 432.06,314.45 432.40,310.88 432.73,307.29 433.07,304.07 433.40,308.30 433.74,308.56 434.07,312.83 434.41,315.20 434.74,311.17 435.08,313.98 435.41,313.94 435.75,317.49 436.08,310.98 436.42,309.04 436.75,312.18 437.09,313.30 437.42,313.99 437.76,309.41 438.09,307.59 438.43,307.59 438.76,310.58 439.10,313.25 439.43,314.70 439.77,317.08 440.10,316.94 440.44,317.70 440.77,315.22 441.11,313.21 441.44,312.37 441.78,314.66 442.11,316.80 442.45,319.41 442.78,326.23 443.12,327.16 443.45,330.79 443.79,333.92 444.12,328.64 444.46,335.91 444.79,340.20 445.13,339.31 445.46,338.51 445.80,340.93 446.13,341.18 446.47,344.33 446.80,338.61 447.14,342.98 447.47,345.18 447.81,347.55 448.14,342.77 448.48,339.39 448.81,335.44 449.15,335.49 449.48,331.01 449.82,332.36 450.15,330.27 450.49,332.12 450.82,328.61 451.16,328.43 451.49,330.68 451.83,331.43 452.16,333.01 452.50,335.23 452.83,334.82 453.17,335.81 453.50,332.16 453.84,335.40 454.17,336.19 454.51,338.79 454.84,339.82 455.18,339.98 455.51,338.44 455.85,335.08 456.18,328.15 456.52,326.05 456.85,330.92 457.19,328.31 457.52,329.18 457.86,329.41 458.19,335.70 458.53,334.78 458.86,341.15 459.20,343.98 459.53,339.58 459.87,336.79 460.20,336.66 460.54,338.87 460.87,338.13 461.21,338.68 461.54,338.60 461.88,341.61 462.21,339.21 462.55,335.64 462.88,329.06 463.22,332.88 463.55,329.62 463.89,326.35 464.22,326.39 464.56,325.81 464.89,325.12 465.23,320.88 465.56,313.70 465.90,312.60 466.23,312.19 466.57,315.18 466.90,312.45 467.24,312.17 467.57,312.36 467.91,314.45 468.24,315.42 468.58,317.28 468.91,315.05 469.25,314.68 469.58,308.71 469.92,308.05 470.25,306.57 470.59,304.78 470.92,306.87 471.26,309.51 471.59,305.45 471.93,307.75 472.26,303.32 472.60,301.09 472.93,301.79 473.27,305.73 473.60,303.73 473.94,303.51 474.27,302.15 474.61,299.56 474.94,300.78 475.28,295.82 475.61,297.55 475.95,299.33 476.28,297.42 476.62,298.49 476.95,297.06 477.29,294.98 477.62,293.06 477.96,295.45 478.29,299.69 478.63,302.42 478.96,298.40 479.30,295.22 479.63,292.92 479.97,290.51 480.30,289.07 480.64,284.25 480.97,283.59 481.31,281.99 481.64,279.52 481.98,282.34 482.31,284.32 482.65,284.83 482.98,288.56 483.32,288.50 483.65,294.70 483.99,293.06 484.32,300.49 484.66,296.23 484.99,298.37 485.33,293.98 485.66,300.49 486.00,299.60 486.33,293.53 486.67,291.61 487.00,292.66 487.34,294.45 487.67,290.26 488.01,290.70 488.34,290.51 488.68,292.32 489.01,290.65 489.35,285.87 489.68,286.22 490.02,285.45 490.35,284.56 490.69,292.90 491.02,298.38 491.36,296.45 491.69,293.10 492.03,294.53 492.36,296.16 492.70,296.26 493.03,296.65 493.37,290.26 493.70,284.51 494.04,289.00 494.37,285.39 494.71,288.67 495.04,289.97 495.38,281.89 495.71,279.10 496.05,280.08 496.38,274.20 496.72,273.33 497.05,275.19 497.39,270.30 497.72,274.08 498.06,274.27 498.39,270.82 498.73,264.81 499.06,262.18 499.40,258.67 499.73,263.43 500.07,265.15 500.40,266.23 500.74,264.74 501.07,264.37 501.41,265.75 501.74,266.33 502.08,268.16 502.41,265.61 502.75,265.06 503.08,263.30 503.42,263.72 503.75,265.82 504.09,263.80 504.42,264.57 504.76,267.41 505.09,274.12 505.43,268.24 505.76,265.58 506.10,265.02 506.43,256.13 506.77,257.00 507.10,250.55 507.44,257.02 507.77,257.25 508.11,255.34 508.44,253.96 508.78,248.14 509.11,249.77 509.45,247.74 509.78,243.32 510.12,244.57 510.45,242.14 510.79,234.89 511.12,234.91 511.46,232.00 511.79,233.03 512.13,237.38 512.46,239.74 512.80,238.10 513.13,231.27 513.47,229.87 513.80,225.96 514.14,227.06 514.47,227.30 514.81,227.51 515.14,234.69 515.48,232.10 515.81,237.60 516.15,239.69 516.48,238.22 516.82,239.15 517.15,239.27 517.49,233.22 517.82,236.35 518.16,231.25 518.49,232.62 518.83,232.38 519.16,231.18 519.50,229.83 519.83,232.91 520.17,237.82 520.50,232.40 520.84,235.16 521.17,230.99 521.51,230.61 521.84,223.51 522.18,228.96 522.51,232.62 522.85,230.07 523.18,222.19 523.52,219.29 523.85,219.72 524.19,217.93 524.52,208.40 524.86,208.93 525.19,208.38 525.53,213.87 525.86,204.82 526.20,199.13 526.53,195.46 526.87,199.43 527.20,200.01 527.54,195.20 527.87,201.87 528.21,204.45 528.54,207.14 528.88,202.20 529.21,199.81 529.55,195.11 529.88,202.61 530.22,197.54 530.55,204.80 530.89,206.33 531.22,201.52 531.56,208.27 531.89,210.20 532.23,213.28 532.56,212.99 532.90,208.41 533.23,208.65 533.57,207.42 533.90,205.56 534.24,204.03 534.57,205.31 534.91,207.68 535.24,210.01 535.58,211.80 535.91,204.21 536.25,209.61 536.58,212.64 536.92,213.87 537.25,223.01 537.59,223.06 537.92,221.30 538.26,228.28 538.59,221.09 538.93,220.47 539.26,221.48 539.60,217.38 539.93,212.47 540.27,211.03 540.60,208.57 540.94,208.55 541.27,206.30 541.61,201.03 541.94,201.56 542.28,198.63 542.61,200.41 542.95,197.70 543.28,203.08 543.62,200.81 543.95,192.19 544.29,182.94 544.62,184.77 544.96,183.60 545.29,179.15 545.63,181.39 545.96,172.50 546.30,174.51 546.63,170.65 546.97,169.81 547.30,165.76 547.64,160.88 547.97,152.21 548.31,149.92 548.64,150.89 548.98,145.92 549.31,143.27 549.65,140.21 549.98,143.90 550.32,147.25 550.65,144.23 550.99,143.34 551.32,142.55 551.66,145.14 551.99,141.78 552.33,138.18 552.66,131.44 553.00,128.23 553.33,120.18 553.67,118.94 554.00,127.02 554.34,124.85 554.67,116.02 555.01,117.17 555.34,112.58 555.68,110.82 556.01,107.79 556.35,108.62 556.68,106.27 557.02,104.67 557.35,95.77 557.69,104.70 558.02,97.60 558.36,103.89 558.69,96.42 559.03,97.19 559.36,94.70 559.70,96.65 560.03,102.66 560.37,101.37 560.70,100.88 561.04,102.25 561.37,97.41 561.71,100.21 562.04,104.32 562.38,109.17 562.71,109.83 563.05,102.03 563.38,112.47 563.72,108.30 564.05,107.21 564.39,105.38 564.72,104.87 565.06,99.74 565.39,99.38 565.73,105.27 566.06,105.33 566.40,112.09 566.73,117.65 567.07,112.62 567.40,110.85 567.74,98.96 568.07,87.98 568.41,88.65 568.74,90.22 569.08,88.50 569.41,98.63 569.75,102.19 570.08,105.40 570.42,104.96 570.75,106.48 571.09,108.09 571.42,110.65 571.76,114.87 572.09,113.79 572.43,108.83 572.76,106.80 573.10,103.58 573.43,109.97 573.77,117.61 574.10,115.26 574.44,109.50 574.77,103.17 575.11,106.98 575.44,105.27 575.78,108.04 576.11,110.45 576.45,111.96 576.78,109.49 577.12,114.63 577.45,121.15 577.79,119.24 578.12,123.58 578.46,123.00 578.79,124.76 579.13,116.43 579.46,114.14 579.80,105.74 580.13,105.07 580.47,105.93 580.80,95.89 581.14,88.97 581.47,83.06 581.81,78.55 582.14,79.55 582.48,84.98 582.81,84.35 583.15,87.51 583.48,83.14 583.82,79.11 584.15,81.12 584.49,92.99 584.82,95.30 585.16,88.14 585.49,96.93 585.83,92.95 586.16,102.49 586.50,100.87 586.83,103.52 587.17,106.57 587.50,100.21 587.84,102.82 588.17,102.27 588.51,106.33 588.84,102.51 589.18,92.70 589.51,87.55 589.85,93.06 590.18,99.04 590.52,96.51 590.85,102.80 591.19,92.44 591.52,95.25 591.86,92.89 592.19,94.21 592.53,88.20 592.86,94.89 593.20,96.19 593.53,95.27 593.87,96.13 594.20,99.83 594.54,114.49 594.87,117.67 595.21,116.66 595.54,117.48 595.88,119.12 596.21,125.46 596.55,124.94 596.88,133.58 597.22,135.92 597.55,144.83 597.89,144.06 598.22,139.84 598.56,136.81 598.89,129.51 599.23,126.26 599.56,128.97 599.90,130.31 600.23,132.84 600.57,140.86 600.90,145.24 601.24,135.62 601.57,137.78 601.91,143.33 602.24,139.92 602.58,148.90 602.91,139.72 603.25,145.81 603.58,140.27 603.92,139.39 604.25,134.07 604.59,131.38 604.92,134.02 605.26,136.21 605.59,142.46 605.93,140.61 606.26,135.13 606.60,129.30 606.93,134.85 607.27,134.65 607.60,136.85 607.94,134.67 608.27,140.30 608.61,136.30 608.94,129.41 609.28,138.22 609.61,141.97 609.95,137.33 610.28,131.04 610.62,140.53 610.95,143.95 611.29,149.22 611.62,145.81 611.96,138.01 612.29,148.92 612.63,142.77 612.96,138.23 613.30,140.84 613.63,136.44 613.97,127.54 614.30,129.74 614.64,126.74 614.97,125.17 615.31,129.85 615.64,131.72 615.98,121.32 616.31,120.10 616.65,121.43 616.98,127.39 617.32,128.64 617.65,131.34 617.99,135.51 618.32,131.12 618.66,134.04 618.99,130.64 619.33,121.71 619.66,127.65 620.00,117.18 620.33,105.60 620.67,109.46 621.00,110.39 621.34,104.31 621.67,111.04 622.01,106.90 622.34,109.31 622.68,104.24 623.01,117.24 623.35,121.07 623.68,121.38 624.02,117.51 624.35,119.03 624.69,117.38 625.02,113.09 625.36,112.47 625.69,105.24 626.03,110.78 626.36,114.03 626.70,96.50 627.03,95.57 627.37,103.59 627.70,107.53 628.04,96.70 628.37,100.81 628.71,98.06 629.04,92.15 629.38,97.62 629.71,88.55 630.05,82.39 630.38,87.75 630.72,92.44 631.05,81.43 631.39,88.06 631.72,92.35 632.06,90.79 632.39,92.58 632.73,91.86 633.06,91.47 633.40,80.61 633.73,90.93 634.07,89.59 634.40,94.39 634.74,95.11 635.07,93.95 635.41,95.46 635.74,108.35 636.08,106.71 636.41,107.00 636.75,118.91 637.08,126.02 637.42,121.11 637.75,125.53 638.09,121.62 638.42,122.28 638.76,126.90 639.09,137.46 639.43,141.38 639.76,144.14 640.10,138.96 640.43,140.59 640.77,142.66 641.10,153.30 641.44,153.93 641.77,161.02 642.11,151.99 642.44,159.79 642.78,159.37 643.11,158.31 643.45,154.34 643.78,156.78 644.12,151.23 644.45,156.02 644.79,155.61 645.12,153.66 645.46,158.58 645.79,162.06 646.13,163.32 646.46,164.64 646.80,171.18 647.13,169.10 647.47,174.17 647.80,176.39 648.14,179.96 648.47,179.24 648.81,173.57 649.14,179.21 649.48,180.18 649.81,184.12 650.15,168.62 650.48,175.45 650.82,166.91 651.15,175.54 651.49,181.10 651.82,179.19 652.16,174.89 652.49,175.98 652.83,174.91 653.16,173.19 653.50,176.03 653.83,174.72 654.17,171.38 654.50,161.80 654.84,163.45 655.17,166.01 655.51,170.27 655.84,157.24 656.18,158.26 656.51,161.94 656.85,158.65 657.18,153.09 657.52,160.55 657.85,164.54 658.19,158.51 658.52,158.93 658.86,154.63 659.19,148.14 659.53,149.51 659.86,141.87 660.20,136.60 660.53,132.29 660.87,132.12 661.20,130.34 661.54,123.53 661.87,124.04 662.21,122.18 662.54,120.89 662.88,119.69 663.21,121.60 663.55,110.87 663.88,120.41 664.22,109.15 664.55,89.14 664.89,98.64 665.22,100.00 665.56,94.58 665.89,92.53 666.23,93.53 666.56,90.60 666.90,85.38 667.23,80.93 667.57,84.25 667.90,91.53 668.24,91.44 668.57,86.51 668.91,91.82 669.24,91.89 669.58,90.26 669.91,88.28 670.25,94.20 670.58,105.91 670.92,103.93 671.25,98.42 671.59,92.06 671.92,93.47 672.26,85.39 672.59,83.81 672.93,82.12 673.26,89.74 673.60,86.42 673.93,84.78 674.27,88.28 674.60,90.41 674.94,93.43 675.27,89.01 675.61,85.93 675.94,85.43 676.28,83.36 676.61,87.17 676.95,87.49 677.28,90.61 677.62,89.79 677.95,80.20 678.29,82.46 678.62,79.04 678.96,71.52 679.29,72.67 679.63,73.23 679.96,80.25 680.30,86.80 680.63,87.00 680.97,82.42 681.30,89.60 681.64,92.96 681.97,93.47 682.31,92.71 682.64,106.22 682.98,104.83 683.31,107.67 683.65,102.16 683.98,91.60 684.32,99.64 684.65,93.60 684.99,95.36 685.32,99.10 685.66,87.96 685.99,82.68 686.33,79.26 686.66,80.08 687.00,75.67 687.33,77.64 687.67,78.09 688.00,73.08 688.34,77.24 688.67,83.37 689.01,92.32 689.34,102.65 689.68,105.94 690.01,101.70 690.35,95.47 690.68,95.37 691.02,94.94 691.35,91.51 691.69,80.49 692.02,79.92 692.36,85.97 692.69,84.83 693.03,84.34 693.36,86.36 693.70,95.94 694.03,94.31 694.37,103.62 694.70,100.09 695.04,95.70 695.37,106.22 695.71,116.17 696.04,108.18 696.38,105.16 696.71,108.98 697.05,110.44 697.38,117.60 697.72,115.82 698.05,125.38 698.39,122.61 698.72,122.27 699.06,121.75 699.39,120.95 699.73,120.98 700.06,127.25 700.40,122.48 700.73,136.62 701.07,133.70 701.40,136.63 701.74,142.14 702.07,141.24 702.41,146.61 702.74,133.82 703.08,132.66 703.41,130.52 703.75,132.18 704.08,129.48 704.42,124.35 704.75,125.72 705.09,125.71 705.42,117.94 705.76,104.47 706.09,102.39 706.43,108.39 706.76,113.14 707.10,109.09 707.43,111.97 707.77,105.86 708.10,105.51 708.44,109.18 708.77,106.46 709.11,104.67 709.44,103.35 709.78,105.47 710.11,107.53 710.45,101.99 710.78,85.96 711.12,79.92 711.45,79.59 711.79,86.92 712.12,83.84 712.46,89.12 712.79,96.48 713.13,88.12 713.46,101.01 713.80,102.01 714.13,106.46 714.47,110.81 714.80,107.15 715.14,107.18 715.47,107.72 715.81,110.38 716.14,107.92 716.48,117.71 716.81,120.40 717.15,121.38 717.48,123.71 717.82,135.13 718.15,133.00 718.49,146.36 718.82,149.03 719.16,148.74 719.49,161.70 719.83,168.73 720.16,174.50 720.50,177.62 720.83,169.85 721.17,158.63 721.50,160.73 721.84,162.31 722.17,165.59 722.51,164.36 722.84,164.00 723.18,164.17 723.51,161.98 723.85,160.28 724.18,165.24 724.52,170.59 724.85,170.38 725.19,176.71 725.52,178.97 725.86,185.00 726.19,183.08 726.53,187.18 726.86,186.42 727.20,196.42 727.53,194.19 727.87,194.78 728.20,196.91 728.54,191.52 728.87,194.10 729.21,187.03 729.54,186.06 729.88,184.44 730.21,186.20 730.55,198.05 730.88,197.41 731.22,197.61 731.55,195.52 731.89,201.98 732.22,205.25 732.56,201.10 732.89,214.30 733.23,220.04 733.56,230.01 733.90,231.73 734.23,234.74 734.57,235.11 734.90,224.09 735.24,214.89 735.57,210.20 735.91,210.87 736.24,210.42 736.58,205.77 736.91,190.73 737.25,185.86 737.58,182.48 737.92,188.80 738.25,189.41 738.59,186.34 738.92,188.67 739.26,199.75 739.59,195.30 739.93,184.51 740.26,186.57 740.60,186.87 740.93,175.73 741.27,168.47 741.60,169.95 741.94,171.23 742.27,169.91 742.61,186.74 742.94,182.83 743.28,186.47 743.61,181.85 743.95,186.86 744.28,172.99 744.62,173.68 744.95,176.13 745.29,179.49 745.62,179.54 745.96,180.25 746.29,178.47 746.63,188.70 746.96,183.23 747.30,184.50 747.63,180.98 747.97,183.70 748.30,182.26 748.64,175.22 748.97,177.21 749.31,172.63 749.64,178.52 749.98,179.66 750.31,171.82 750.65,171.28 750.98,178.67 751.32,185.49 751.65,181.93 751.99,178.31 752.32,177.07 752.66,183.35 752.99,185.37 753.33,184.80 753.66,179.82 754.00,179.14 754.33,177.71 754.67,171.84 755.00,161.13"/>
<line x1="783" y1="58" x2="809" y2="58" stroke="#2563eb" stroke-width="3"/>
<text x="817" y="62" font-family="Arial" font-size="13" fill="#111827">Naive</text>
<polyline fill="none" stroke="#dc2626" stroke-width="2" points="85.00,438.23 85.34,438.21 85.67,438.20 86.01,438.18 86.34,438.17 86.68,438.16 87.01,438.14 87.35,438.13 87.68,438.11 88.02,438.09 88.35,438.08 88.69,438.06 89.02,438.05 89.36,438.05 89.69,438.03 90.03,437.99 90.36,437.98 90.70,437.96 91.03,437.93 91.37,437.90 91.70,437.91 92.04,437.89 92.37,437.88 92.71,437.88 93.04,437.88 93.38,437.87 93.71,437.84 94.05,437.87 94.38,437.85 94.72,437.83 95.05,437.83 95.39,437.82 95.72,437.76 96.06,437.77 96.39,437.75 96.73,437.71 97.06,437.75 97.40,437.76 97.73,437.75 98.07,437.74 98.40,437.74 98.74,437.73 99.07,437.71 99.41,437.71 99.74,437.68 100.08,437.71 100.41,437.64 100.75,437.67 101.08,437.65 101.42,437.63 101.75,437.58 102.09,437.57 102.42,437.59 102.76,437.59 103.09,437.57 103.43,437.52 103.76,437.56 104.10,437.53 104.43,437.55 104.77,437.58 105.10,437.58 105.44,437.58 105.77,437.57 106.11,437.55 106.44,437.56 106.78,437.54 107.11,437.49 107.45,437.52 107.78,437.55 108.12,437.55 108.45,437.55 108.79,437.55 109.12,437.53 109.46,437.52 109.79,437.50 110.13,437.49 110.46,437.47 110.80,437.47 111.13,437.44 111.47,437.43 111.80,437.41 112.14,437.40 112.47,437.38 112.81,437.38 113.14,437.36 113.48,437.35 113.81,437.34 114.15,437.33 114.48,437.32 114.82,437.30 115.15,437.29 115.49,437.28 115.82,437.25 116.16,437.24 116.49,437.24 116.83,437.24 117.16,437.23 117.50,437.24 117.83,437.23 118.17,437.22 118.50,437.22 118.84,437.20 119.17,437.19 119.51,437.19 119.84,437.25 120.18,437.22 120.51,437.22 120.85,437.18 121.18,437.19 121.52,437.20 121.85,437.14 122.19,437.11 122.52,437.06 122.86,437.07 123.19,437.06 123.53,437.05 123.86,437.03 124.20,437.03 124.53,437.07 124.87,437.08 125.20,437.06 125.54,437.06 125.87,437.04 126.21,437.09 126.54,437.06 126.88,437.06 127.21,437.05 127.55,437.02 127.88,437.01 128.22,437.01 128.55,436.97 128.89,436.94 129.22,436.92 129.56,436.91 129.89,436.92 130.23,437.01 130.56,436.94 130.90,436.93 131.23,436.84 131.57,436.87 131.90,436.87 132.24,436.90 132.57,436.91 132.91,436.94 133.24,436.86 133.58,436.84 133.91,436.87 134.25,436.88 134.58,436.82 134.92,436.76 135.25,436.73 135.59,436.78 135.92,436.73 136.26,436.66 136.59,436.67 136.93,436.63 137.26,436.51 137.60,436.44 137.93,436.38 138.27,436.31 138.60,436.38 138.94,436.39 139.27,436.38 139.61,436.26 139.94,436.23 140.28,436.25 140.61,436.16 140.95,436.23 141.28,436.21 141.62,436.24 141.95,436.23 142.29,436.18 142.62,436.06 142.96,436.01 143.29,435.94 143.63,435.88 143.96,435.92 144.30,435.90 144.63,435.87 144.97,435.99 145.30,435.99 145.64,435.97 145.97,436.12 146.31,436.12 146.64,436.09 146.98,436.01 147.31,436.17 147.65,436.08 147.98,435.99 148.32,435.87 148.65,435.82 148.99,435.71 149.32,435.55 149.66,435.61 149.99,435.62 150.33,435.69 150.66,435.68 151.00,435.76 151.33,435.62 151.67,435.56 152.00,435.60 152.34,435.62 152.67,435.72 153.01,435.74 153.34,435.92 153.68,435.74 154.01,435.69 154.35,435.65 154.68,435.74 155.02,435.79 155.35,435.65 155.69,435.71 156.02,435.41 156.36,435.45 156.69,435.38 157.03,435.37 157.36,435.51 157.70,435.46 158.03,435.40 158.37,435.31 158.70,435.34 159.04,435.46 159.37,435.40 159.71,435.43 160.04,435.32 160.38,435.30 160.71,435.10 161.05,435.01 161.38,435.16 161.72,435.21 162.05,435.09 162.39,435.16 162.72,435.13 163.06,435.01 163.39,434.90 163.73,434.80 164.06,434.86 164.40,435.15 164.73,435.10 165.07,435.22 165.40,435.24 165.74,435.39 166.07,435.24 166.41,435.33 166.74,435.30 167.08,435.00 167.41,434.82 167.75,434.95 168.08,434.83 168.42,434.72 168.75,434.88 169.09,435.04 169.42,435.20 169.76,435.14 170.09,434.99 170.43,434.82 170.76,434.71 171.10,434.83 171.43,434.83 171.77,434.84 172.10,434.86 172.44,434.88 172.77,434.95 173.11,434.90 173.44,434.76 173.78,434.69 174.11,434.61 174.45,434.65 174.78,434.64 175.12,434.34 175.45,434.59 175.79,434.54 176.12,434.49 176.46,434.46 176.79,434.53 177.13,434.69 177.46,434.50 177.80,434.67 178.13,434.57 178.47,434.40 178.80,434.31 179.14,434.15 179.47,433.98 179.81,433.74 180.14,433.63 180.48,433.75 180.81,434.01 181.15,433.91 181.48,433.77 181.82,433.78 182.15,433.84 182.49,433.82 182.82,434.13 183.16,434.00 183.49,433.84 183.83,433.86 184.16,433.70 184.50,433.47 184.83,433.36 185.17,433.25 185.50,433.11 185.84,433.33 186.17,433.46 186.51,433.65 186.84,433.71 187.18,433.52 187.51,433.73 187.85,433.30 188.18,433.34 188.52,433.01 188.85,432.40 189.19,432.60 189.52,432.71 189.86,432.44 190.19,431.97 190.53,431.28 190.86,431.24 191.20,431.63 191.53,431.46 191.87,431.98 192.20,432.63 192.54,432.16 192.87,432.51 193.21,431.84 193.54,432.46 193.88,432.23 194.21,432.06 194.55,432.16 194.88,431.96 195.22,431.10 195.55,430.27 195.89,429.63 196.22,428.82 196.56,428.55 196.89,428.98 197.23,429.42 197.56,428.89 197.90,428.75 198.23,429.38 198.57,428.97 198.90,429.50 199.24,430.16 199.57,430.49 199.91,429.86 200.24,429.63 200.58,429.20 200.91,429.66 201.25,429.77 201.58,429.36 201.92,429.28 202.25,429.30 202.59,429.57 202.92,429.84 203.26,430.40 203.59,430.84 203.93,431.19 204.26,430.12 204.60,429.41 204.93,429.25 205.27,429.54 205.60,429.39 205.94,430.01 206.27,431.31 206.61,431.41 206.94,432.26 207.28,432.18 207.61,432.66 207.95,433.36 208.28,432.68 208.62,432.37 208.95,433.26 209.29,433.89 209.62,435.10 209.96,435.36 210.29,435.66 210.63,435.75 210.96,436.04 211.30,435.35 211.63,435.56 211.97,436.38 212.30,436.32 212.64,435.90 212.97,436.05 213.31,436.37 213.64,435.94 213.98,436.48 214.31,436.04 214.65,437.09 214.98,436.80 215.32,436.36 215.65,436.62 215.99,436.93 216.32,436.31 216.66,437.18 216.99,436.76 217.33,436.69 217.66,436.26 218.00,435.71 218.33,436.13 218.67,435.50 219.00,435.64 219.34,435.99 219.67,436.02 220.01,435.85 220.34,435.28 220.68,435.80 221.01,435.53 221.35,435.61 221.68,435.36 222.02,435.81 222.35,435.13 222.69,434.92 223.02,435.57 223.36,435.83 223.69,435.95 224.03,435.80 224.36,435.41 224.70,435.25 225.03,434.74 225.37,434.64 225.70,433.36 226.04,433.79 226.37,433.76 226.71,433.93 227.04,432.64 227.38,432.31 227.71,431.68 228.05,431.52 228.38,431.38 228.72,431.48 229.05,432.51 229.39,432.37 229.72,431.81 230.06,431.93 230.39,432.99 230.73,432.39 231.06,431.84 231.40,432.34 231.73,432.88 232.07,432.43 232.40,431.98 232.74,432.60 233.07,433.15 233.41,432.64 233.74,432.17 234.08,432.67 234.41,431.33 234.75,430.97 235.08,431.40 235.42,430.57 235.75,431.03 236.09,431.88 236.42,431.61 236.76,430.80 237.09,430.21 237.43,430.17 237.76,430.98 238.10,431.16 238.43,430.40 238.77,430.34 239.10,430.71 239.44,430.66 239.77,430.30 240.11,430.83 240.44,430.85 240.78,430.54 241.11,431.15 241.45,430.45 241.78,429.84 242.12,430.53 242.45,430.62 242.79,430.13 243.12,430.61 243.46,431.37 243.79,431.46 244.13,430.47 244.46,430.21 244.80,430.82 245.13,430.59 245.47,431.13 245.80,431.42 246.14,431.95 246.47,432.87 246.81,433.16 247.14,432.65 247.48,432.20 247.81,432.95 248.15,433.00 248.48,433.02 248.82,433.20 249.15,433.40 249.49,432.77 249.82,431.06 250.16,431.31 250.49,430.64 250.83,431.48 251.16,430.66 251.50,429.81 251.83,429.76 252.17,429.13 252.50,428.78 252.84,428.98 253.17,429.13 253.51,428.79 253.84,429.71 254.18,429.30 254.51,427.93 254.85,427.07 255.18,427.34 255.52,427.32 255.85,426.10 256.19,425.24 256.52,424.73 256.86,424.75 257.19,424.56 257.53,425.44 257.86,425.90 258.20,424.97 258.53,425.09 258.87,424.15 259.20,423.41 259.54,423.35 259.87,422.92 260.21,422.97 260.54,424.10 260.88,424.34 261.21,424.31 261.55,424.77 261.88,424.58 262.22,423.86 262.55,422.44 262.89,422.11 263.22,422.02 263.56,421.39 263.89,419.92 264.23,420.07 264.56,420.08 264.90,421.30 265.23,420.00 265.57,419.84 265.90,419.53 266.24,420.13 266.57,422.38 266.91,421.64 267.24,423.44 267.58,422.69 267.91,421.45 268.25,420.02 268.58,421.00 268.92,422.60 269.25,421.91 269.59,422.55 269.92,422.58 270.26,424.79 270.59,424.83 270.93,423.51 271.26,422.19 271.60,421.96 271.93,422.58 272.27,421.62 272.60,421.29 272.94,420.37 273.27,420.35 273.61,420.73 273.94,422.69 274.28,425.07 274.61,425.89 274.95,424.80 275.28,424.70 275.62,423.73 275.95,424.30 276.29,423.06 276.62,423.38 276.96,423.72 277.29,424.04 277.63,423.62 277.96,422.81 278.30,423.25 278.63,424.54 278.97,423.89 279.30,426.97 279.64,426.73 279.97,426.97 280.31,427.34 280.64,426.75 280.98,426.86 281.31,426.29 281.65,424.22 281.98,424.93 282.32,426.28 282.65,426.36 282.99,426.56 283.32,426.43 283.66,425.44 283.99,425.44 284.33,427.35 284.66,427.28 285.00,428.19 285.33,430.29 285.67,429.61 286.00,428.28 286.34,428.89 286.67,428.05 287.01,428.61 287.34,429.69 287.68,430.67 288.01,432.40 288.35,433.37 288.68,434.20 289.02,432.67 289.35,431.39 289.69,432.25 290.02,431.89 290.36,430.97 290.69,430.95 291.03,431.91 291.36,433.40 291.70,434.49 292.03,435.17 292.37,434.04 292.70,432.69 293.04,431.82 293.37,430.72 293.71,431.57 294.04,433.01 294.38,432.15 294.71,431.89 295.05,429.24 295.38,430.14 295.72,430.43 296.05,429.77 296.39,430.61 296.72,432.27 297.06,433.74 297.39,432.40 297.73,432.23 298.06,433.14 298.40,434.51 298.73,433.57 299.07,432.39 299.40,432.44 299.74,431.51 300.07,428.59 300.41,430.67 300.74,431.32 301.08,431.42 301.41,432.08 301.75,431.09 302.08,431.43 302.42,430.71 302.75,431.84 303.09,431.40 303.42,430.98 303.76,430.57 304.09,429.22 304.43,430.30 304.76,430.40 305.10,431.93 305.43,432.39 305.77,434.53 306.10,434.80 306.44,435.21 306.77,434.70 307.11,435.66 307.44,436.88 307.78,438.32 308.11,437.89 308.45,438.55 308.78,437.44 309.12,435.67 309.45,434.12 309.79,434.39 310.12,435.56 310.46,436.90 310.79,438.94 311.13,438.56 311.46,438.22 311.80,438.42 312.13,438.57 312.47,438.18 312.80,438.54 313.14,436.28 313.47,436.44 313.81,437.02 314.14,437.93 314.48,438.25 314.81,438.00 315.15,438.27 315.48,438.35 315.82,437.74 316.15,436.97 316.49,437.31 316.82,436.41 317.16,437.28 317.49,438.24 317.83,438.67 318.16,439.20 318.50,439.15 318.83,439.85 319.17,437.80 319.50,438.31 319.84,437.07 320.17,436.55 320.51,435.96 320.84,435.75 321.18,434.26 321.51,433.43 321.85,433.31 322.18,433.71 322.52,433.70 322.85,433.46 323.19,431.79 323.52,431.48 323.86,430.87 324.19,430.95 324.53,429.75 324.86,429.78 325.20,429.44 325.53,428.43 325.87,426.74 326.20,427.03 326.54,426.21 326.87,426.27 327.21,426.90 327.54,427.21 327.88,427.34 328.21,428.11 328.55,428.39 328.88,428.09 329.22,428.38 329.55,429.17 329.89,429.33 330.22,430.53 330.56,428.86 330.89,429.20 331.23,428.50 331.56,429.81 331.90,428.52 332.23,428.38 332.57,427.82 332.90,427.50 333.24,427.17 333.57,428.18 333.91,428.16 334.24,428.90 334.58,428.38 334.91,428.21 335.25,427.13 335.58,426.15 335.92,425.19 336.25,424.48 336.59,423.25 336.92,423.77 337.26,423.23 337.59,421.04 337.93,420.63 338.26,419.66 338.60,420.56 338.93,418.46 339.27,418.69 339.60,420.30 339.94,419.47 340.27,418.66 340.61,417.86 340.94,418.41 341.28,418.16 341.61,417.75 341.95,416.59 342.28,416.64 342.62,415.45 342.95,414.20 343.29,415.57 343.62,416.63 343.96,415.93 344.29,413.66 344.63,412.43 344.96,410.51 345.30,411.91 345.63,411.67 345.97,413.42 346.30,413.23 346.64,413.26 346.97,415.00 347.31,414.01 347.64,414.59 347.98,415.82 348.31,414.88 348.65,417.00 348.98,416.08 349.32,415.73 349.65,416.34 349.99,414.05 350.32,414.73 350.66,415.09 350.99,416.81 351.33,417.98 351.66,417.65 352.00,417.90 352.33,418.39 352.67,416.39 353.00,416.12 353.34,412.86 353.67,413.82 354.01,411.81 354.34,411.73 354.68,412.14 355.01,411.84 355.35,412.19 355.68,413.61 356.02,416.75 356.35,417.70 356.69,418.69 357.02,418.89 357.36,419.70 357.69,419.48 358.03,417.44 358.36,415.54 358.70,414.05 359.03,412.58 359.37,410.55 359.70,409.33 360.04,410.64 360.37,409.30 360.71,407.54 361.04,408.59 361.38,407.27 361.71,406.39 362.05,404.36 362.38,404.30 362.72,406.40 363.05,405.88 363.39,405.12 363.72,403.49 364.06,403.20 364.39,402.52 364.73,403.64 365.06,402.60 365.40,401.55 365.73,401.17 366.07,399.35 366.40,401.95 366.74,403.33 367.07,402.71 367.41,401.60 367.74,399.95 368.08,398.01 368.41,395.08 368.75,394.27 369.08,395.96 369.42,393.78 369.75,395.09 370.09,394.26 370.42,394.92 370.76,393.63 371.09,392.69 371.43,389.08 371.76,389.43 372.10,389.16 372.43,388.34 372.77,386.12 373.10,384.94 373.44,386.30 373.77,387.18 374.11,386.00 374.44,386.67 374.78,387.38 375.11,386.37 375.45,386.79 375.78,388.94 376.12,388.65 376.45,389.10 376.79,389.72 377.12,390.43 377.46,393.00 377.79,390.94 378.13,390.21 378.46,389.91 378.80,391.42 379.13,390.02 379.47,387.31 379.80,384.33 380.14,383.22 380.47,383.38 380.81,385.02 381.14,385.40 381.48,386.45 381.81,388.77 382.15,384.17 382.48,383.90 382.82,380.69 383.15,384.72 383.49,383.93 383.82,382.69 384.16,382.95 384.49,384.07 384.83,385.76 385.16,388.15 385.50,388.09 385.83,387.14 386.17,387.97 386.50,388.90 386.84,388.51 387.17,387.30 387.51,385.32 387.84,385.31 388.18,384.24 388.51,381.35 388.85,379.04 389.18,380.32 389.52,377.55 389.85,375.37 390.19,375.57 390.52,375.76 390.86,373.67 391.19,370.01 391.53,370.92 391.86,369.09 392.20,367.07 392.53,367.68 392.87,368.77 393.20,366.34 393.54,366.72 393.87,365.02 394.21,367.77 394.54,370.72 394.88,369.21 395.21,367.68 395.55,364.42 395.88,364.33 396.22,365.24 396.55,370.38 396.89,369.81 397.22,366.13 397.56,368.09 397.89,370.10 398.23,369.23 398.56,370.22 398.90,371.19 399.23,372.25 399.57,371.23 399.90,371.09 400.24,369.41 400.57,371.34 400.91,368.20 401.24,368.67 401.58,369.08 401.91,365.38 402.25,359.29 402.58,356.80 402.92,357.19 403.25,354.91 403.59,352.99 403.92,354.73 404.26,358.24 404.59,356.77 404.93,354.02 405.26,354.40 405.60,351.77 405.93,348.86 406.27,345.53 406.60,346.55 406.94,345.21 407.27,344.85 407.61,340.21 407.94,338.89 408.28,340.16 408.61,339.06 408.95,336.30 409.28,334.59 409.62,335.37 409.95,334.62 410.29,334.83 410.62,332.98 410.96,331.86 411.29,334.26 411.63,332.54 411.96,329.74 412.30,330.70 412.63,330.19 412.97,326.76 413.30,324.79 413.64,326.39 413.97,327.11 414.31,329.36 414.64,331.56 414.98,325.21 415.31,327.57 415.65,329.01 415.98,332.00 416.32,337.26 416.65,334.71 416.99,336.98 417.32,337.34 417.66,336.31 417.99,338.78 418.33,343.24 418.66,341.79 419.00,342.51 419.33,342.82 419.67,343.92 420.00,347.30 420.34,346.70 420.67,346.79 421.01,348.68 421.34,350.76 421.68,350.93 422.01,348.17 422.35,350.28 422.68,347.91 423.02,344.60 423.35,342.40 423.69,344.22 424.02,345.00 424.36,347.32 424.69,344.78 425.03,344.09 425.36,342.44 425.70,342.10 426.03,341.26 426.37,343.89 426.70,346.54 427.04,345.57 427.37,346.40 427.71,340.46 428.04,341.46 428.38,339.31 428.71,339.83 429.05,338.00 429.38,336.79 429.72,333.65 430.05,336.02 430.39,335.07 430.72,331.11 431.06,335.00 431.39,337.94 431.73,331.74 432.06,328.20 432.40,324.93 432.73,321.63 433.07,318.68 433.40,322.55 433.74,322.78 434.07,326.68 434.41,328.85 434.74,325.15 435.08,327.72 435.41,327.68 435.75,330.93 436.08,324.95 436.42,323.16 436.75,326.04 437.09,327.06 437.42,327.68 437.76,323.48 438.09,321.79 438.43,321.80 438.76,324.54 439.10,326.99 439.43,328.32 439.77,330.50 440.10,330.37 440.44,331.07 440.77,328.78 441.11,326.93 441.44,326.15 441.78,328.25 442.11,330.22 442.45,332.62 442.78,338.90 443.12,339.75 443.45,343.09 443.79,345.96 444.12,341.11 444.46,347.77 444.79,351.71 445.13,350.90 445.46,350.16 445.80,352.39 446.13,352.61 446.47,355.50 446.80,350.26 447.14,354.26 447.47,356.28 447.81,358.45 448.14,354.07 448.48,350.97 448.81,347.36 449.15,347.40 449.48,343.30 449.82,344.53 450.15,342.62 450.49,344.30 450.82,341.09 451.16,340.92 451.49,342.96 451.83,343.64 452.16,345.07 452.50,347.10 452.83,346.72 453.17,347.62 453.50,344.31 453.84,347.25 454.17,347.96 454.51,350.32 454.84,351.26 455.18,351.41 455.51,350.02 455.85,346.97 456.18,340.70 456.52,338.79 456.85,343.20 457.19,340.83 457.52,341.61 457.86,341.83 458.19,347.52 458.53,346.69 458.86,352.44 459.20,355.00 459.53,351.03 459.87,348.52 460.20,348.40 460.54,350.39 460.87,349.73 461.21,350.22 461.54,350.16 461.88,352.87 462.21,350.71 462.55,347.49 462.88,341.57 463.22,345.00 463.55,342.06 463.89,339.11 464.22,339.14 464.56,338.63 464.89,338.01 465.23,334.20 465.56,327.77 465.90,326.78 466.23,326.40 466.57,329.08 466.90,326.63 467.24,326.37 467.57,326.55 467.91,328.42 468.24,329.28 468.58,330.94 468.91,328.94 469.25,328.60 469.58,323.24 469.92,322.64 470.25,321.32 470.59,319.71 470.92,321.58 471.26,323.95 471.59,320.30 471.93,322.36 472.26,318.38 472.60,316.38 472.93,317.01 473.27,320.54 473.60,318.74 473.94,318.54 474.27,317.31 474.61,314.98 474.94,316.08 475.28,311.60 475.61,313.16 475.95,314.76 476.28,313.03 476.62,314.00 476.95,312.70 477.29,310.83 477.62,309.09 477.96,311.24 478.29,315.06 478.63,317.53 478.96,313.90 479.30,311.03 479.63,308.94 479.97,306.77 480.30,305.46 480.64,301.11 480.97,300.51 481.31,299.06 481.64,296.82 481.98,299.37 482.31,301.14 482.65,301.60 482.98,304.97 483.32,304.91 483.65,310.51 483.99,309.03 484.32,315.75 484.66,311.89 484.99,313.83 485.33,309.85 485.66,315.75 486.00,314.94 486.33,309.44 486.67,307.70 487.00,308.64 487.34,310.27 487.67,306.46 488.01,306.86 488.34,306.69 488.68,308.33 489.01,306.81 489.35,302.47 489.68,302.78 490.02,302.08 490.35,301.27 490.69,308.84 491.02,313.81 491.36,312.05 491.69,309.00 492.03,310.30 492.36,311.78 492.70,311.86 493.03,312.21 493.37,306.41 493.70,301.18 494.04,305.26 494.37,301.97 494.71,304.95 495.04,306.14 495.38,298.78 495.71,296.24 496.05,297.12 496.38,291.77 496.72,290.99 497.05,292.68 497.39,288.22 497.72,291.66 498.06,291.83 498.39,288.68 498.73,283.20 499.06,280.80 499.40,277.60 499.73,281.92 500.07,283.49 500.40,284.47 500.74,283.10 501.07,282.76 501.41,284.01 501.74,284.54 502.08,286.21 502.41,283.87 502.75,283.37 503.08,281.75 503.42,282.13 503.75,284.05 504.09,282.20 504.42,282.90 504.76,285.49 505.09,291.61 505.43,286.24 505.76,283.81 506.10,283.29 506.43,275.17 506.77,275.95 507.10,270.05 507.44,275.96 507.77,276.16 508.11,274.42 508.44,273.15 508.78,267.82 509.11,269.31 509.45,267.44 509.78,263.39 510.12,264.53 510.45,262.30 510.79,255.65 511.12,255.66 511.46,253.00 511.79,253.93 512.13,257.91 512.46,260.07 512.80,258.55 513.13,252.29 513.47,251.00 513.80,247.40 514.14,248.41 514.47,248.63 514.81,248.80 515.14,255.39 515.48,253.01 515.81,258.05 516.15,259.96 516.48,258.62 516.82,259.47 517.15,259.58 517.49,254.02 517.82,256.88 518.16,252.20 518.49,253.45 518.83,253.22 519.16,252.11 519.50,250.87 519.83,253.69 520.17,258.20 520.50,253.21 520.84,255.74 521.17,251.90 521.51,251.55 521.84,245.02 522.18,250.02 522.51,253.38 522.85,251.03 523.18,243.78 523.52,241.11 523.85,241.49 524.19,239.84 524.52,231.06 524.86,231.55 525.19,231.03 525.53,236.08 525.86,227.73 526.20,222.49 526.53,219.10 526.87,222.75 527.20,223.28 527.54,218.84 527.87,224.98 528.21,227.34 528.54,229.82 528.88,225.26 529.21,223.04 529.55,218.70 529.88,225.61 530.22,220.93 530.55,227.61 530.89,229.02 531.22,224.58 531.56,230.80 531.89,232.57 532.23,235.41 532.56,235.14 532.90,230.90 533.23,231.12 533.57,229.98 533.90,228.26 534.24,226.84 534.57,228.03 534.91,230.22 535.24,232.36 535.58,234.01 535.91,227.00 536.25,231.98 536.58,234.77 536.92,235.90 537.25,244.34 537.59,244.39 537.92,242.76 538.26,249.21 538.59,242.56 538.93,241.98 539.26,242.91 539.60,239.12 539.93,234.57 540.27,233.24 540.60,230.96 540.94,230.94 541.27,228.85 541.61,223.97 541.94,224.46 542.28,221.74 542.61,223.38 542.95,220.87 543.28,225.85 543.62,223.74 543.95,215.76 544.29,207.19 544.62,208.87 544.96,207.78 545.29,203.66 545.63,205.73 545.96,197.48 546.30,199.34 546.63,195.76 546.97,194.97 547.30,191.21 547.64,186.68 547.97,178.63 548.31,176.50 548.64,177.39 548.98,172.77 549.31,170.30 549.65,167.45 549.98,170.87 550.32,173.97 550.65,171.18 550.99,170.34 551.32,169.60 551.66,172.00 551.99,168.87 552.33,165.52 552.66,159.26 553.00,156.27 553.33,148.78 553.67,147.62 554.00,155.11 554.34,153.08 554.67,144.88 555.01,145.93 555.34,141.66 555.68,140.01 556.01,137.19 556.35,137.95 556.68,135.76 557.02,134.26 557.35,125.98 557.69,134.26 558.02,127.65 558.36,133.49 558.69,126.54 559.03,127.24 559.36,124.92 559.70,126.73 560.03,132.30 560.37,131.09 560.70,130.63 561.04,131.90 561.37,127.39 561.71,129.99 562.04,133.81 562.38,138.31 562.71,138.92 563.05,131.65 563.38,141.39 563.72,137.49 564.05,136.47 564.39,134.76 564.72,134.28 565.06,129.50 565.39,129.15 565.73,134.64 566.06,134.69 566.40,140.99 566.73,146.16 567.07,141.46 567.40,139.81 567.74,128.73 568.07,118.49 568.41,119.11 568.74,120.56 569.08,118.95 569.41,128.39 569.75,131.70 570.08,134.69 570.42,134.27 570.75,135.69 571.09,137.18 571.42,139.56 571.76,143.49 572.09,142.48 572.43,137.85 572.76,135.95 573.10,132.94 573.43,138.90 573.77,146.02 574.10,143.83 574.44,138.45 574.77,132.53 575.11,136.10 575.44,134.50 575.78,137.08 576.11,139.32 576.45,140.73 576.78,138.42 577.12,143.21 577.45,149.30 577.79,147.51 578.12,151.56 578.46,151.02 578.79,152.67 579.13,144.88 579.46,142.74 579.80,134.88 580.13,134.25 580.47,135.05 580.80,125.66 581.14,119.19 581.47,113.66 581.81,109.43 582.14,110.36 582.48,115.44 582.81,114.85 583.15,117.80 583.48,113.71 583.82,109.93 584.15,111.81 584.49,122.91 584.82,125.08 585.16,118.37 585.49,126.59 585.83,122.86 586.16,131.80 586.50,130.27 586.83,132.75 587.17,135.60 587.50,129.65 587.84,132.09 588.17,131.58 588.51,135.38 588.84,131.79 589.18,122.61 589.51,117.78 589.85,122.93 590.18,128.54 590.52,126.16 590.85,132.05 591.19,122.34 591.52,124.98 591.86,122.76 592.19,124.00 592.53,118.36 592.86,124.63 593.20,125.84 593.53,124.98 593.87,125.79 594.20,129.26 594.54,143.01 594.87,145.98 595.21,145.03 595.54,145.80 595.88,147.33 596.21,153.28 596.55,152.80 596.88,160.88 597.22,163.08 597.55,171.44 597.89,170.74 598.22,166.80 598.56,163.97 598.89,157.15 599.23,154.13 599.56,156.66 599.90,157.90 600.23,160.27 600.57,167.76 600.90,171.85 601.24,162.87 601.57,164.88 601.91,170.07 602.24,166.89 602.58,175.26 602.91,166.70 603.25,172.39 603.58,167.23 603.92,166.41 604.25,161.46 604.59,158.95 604.92,161.41 605.26,163.46 605.59,169.28 605.93,167.55 606.26,162.45 606.60,157.01 606.93,162.18 607.27,161.99 607.60,164.05 607.94,162.01 608.27,167.26 608.61,163.54 608.94,157.12 609.28,165.33 609.61,168.83 609.95,164.51 610.28,158.66 610.62,167.50 610.95,170.68 611.29,175.59 611.62,172.42 611.96,165.15 612.29,175.32 612.63,169.59 612.96,165.36 613.30,167.79 613.63,163.69 613.97,155.40 614.30,157.45 614.64,154.66 614.97,153.20 615.31,157.56 615.64,159.30 615.98,149.62 616.31,148.48 616.65,149.72 616.98,155.27 617.32,156.44 617.65,158.95 617.99,162.84 618.32,158.75 618.66,161.47 618.99,158.30 619.33,149.99 619.66,155.52 620.00,145.78 620.33,135.01 620.67,138.60 621.00,139.46 621.34,133.80 621.67,140.06 622.01,136.21 622.34,138.46 622.68,133.74 623.01,145.84 623.35,149.40 623.68,149.69 624.02,146.09 624.35,147.50 624.69,145.97 625.02,141.98 625.36,141.40 625.69,134.68 626.03,139.83 626.36,142.86 626.70,126.55 627.03,125.68 627.37,133.11 627.70,136.77 628.04,126.72 628.37,130.54 628.71,128.00 629.04,122.51 629.38,127.57 629.71,119.17 630.05,113.45 630.38,118.41 630.72,122.75 631.05,112.56 631.39,118.69 631.72,122.65 632.06,121.21 632.39,122.85 632.73,122.18 633.06,121.81 633.40,111.81 633.73,121.30 634.07,120.07 634.40,124.47 634.74,125.14 635.07,124.07 635.41,125.47 635.74,137.32 636.08,135.81 636.41,136.06 636.75,147.02 637.08,153.55 637.42,149.03 637.75,153.10 638.09,149.51 638.42,150.11 638.76,154.36 639.09,164.06 639.43,167.67 639.76,170.22 640.10,165.47 640.43,166.96 640.77,168.86 641.10,178.62 641.44,179.20 641.77,185.70 642.11,177.43 642.44,184.58 642.78,184.20 643.11,183.23 643.45,179.61 643.78,181.85 644.12,176.78 644.45,181.16 644.79,180.79 645.12,179.02 645.46,183.52 645.79,186.70 646.13,187.86 646.46,189.07 646.80,195.04 647.13,193.14 647.47,197.76 647.80,199.79 648.14,203.04 648.47,202.38 648.81,197.21 649.14,202.36 649.48,203.24 649.81,206.83 650.15,192.71 650.48,198.93 650.82,191.16 651.15,199.02 651.49,204.09 651.82,202.35 652.16,198.44 652.49,199.43 652.83,198.46 653.16,196.90 653.50,199.49 653.83,198.30 654.17,195.27 654.50,186.56 654.84,188.07 655.17,190.40 655.51,194.27 655.84,182.45 656.18,183.37 656.51,186.71 656.85,183.72 657.18,178.68 657.52,185.45 657.85,189.08 658.19,183.60 658.52,183.98 658.86,180.08 659.19,174.19 659.53,175.43 659.86,168.50 660.20,163.71 660.53,159.80 660.87,159.64 661.20,158.02 661.54,151.84 661.87,152.29 662.21,150.60 662.54,149.43 662.88,148.34 663.21,150.06 663.55,140.36 663.88,148.98 664.22,138.80 664.55,120.75 664.89,129.32 665.22,130.54 665.56,125.65 665.89,123.80 666.23,124.70 666.56,122.05 666.90,117.34 667.23,113.32 667.57,116.31 667.90,122.89 668.24,122.80 668.57,118.35 668.91,123.14 669.24,123.20 669.58,121.72 669.91,119.93 670.25,125.29 670.58,135.86 670.92,134.08 671.25,129.09 671.59,123.34 671.92,124.61 672.26,117.31 672.59,115.88 672.93,114.35 673.26,121.23 673.60,118.23 673.93,116.74 674.27,119.90 674.60,121.83 674.94,124.56 675.27,120.56 675.61,117.76 675.94,117.31 676.28,115.43 676.61,118.88 676.95,119.17 677.28,121.99 677.62,121.25 677.95,112.57 678.29,114.61 678.62,111.52 678.96,104.71 679.29,105.75 679.63,106.26 679.96,112.60 680.30,118.53 680.63,118.70 680.97,114.56 681.30,121.04 681.64,124.08 681.97,124.54 682.31,123.85 682.64,136.05 682.98,134.79 683.31,137.36 683.65,132.39 683.98,122.84 684.32,130.11 684.65,124.65 684.99,126.24 685.32,129.62 685.66,119.56 685.99,114.79 686.33,111.70 686.66,112.44 687.00,108.45 687.33,110.23 687.67,110.63 688.00,106.11 688.34,109.86 688.67,115.39 689.01,123.47 689.34,132.79 689.68,135.76 690.01,131.93 690.35,126.31 690.68,126.22 691.02,125.83 691.35,122.74 691.69,112.79 692.02,112.27 692.36,117.73 692.69,116.69 693.03,116.25 693.36,118.07 693.70,126.72 694.03,125.24 694.37,133.64 694.70,130.46 695.04,126.50 695.37,135.99 695.71,144.97 696.04,137.75 696.38,135.03 696.71,138.48 697.05,139.79 697.38,146.26 697.72,144.65 698.05,153.28 698.39,150.77 698.72,150.47 699.06,149.99 699.39,149.27 699.73,149.30 700.06,154.96 700.40,150.66 700.73,163.41 701.07,160.78 701.40,163.43 701.74,168.40 702.07,167.59 702.41,172.43 702.74,160.91 703.08,159.86 703.41,157.94 703.75,159.43 704.08,156.99 704.42,152.38 704.75,153.61 705.09,153.60 705.42,146.60 705.76,134.46 706.09,132.59 706.43,138.00 706.76,142.28 707.10,138.62 707.43,141.22 707.77,135.72 708.10,135.40 708.44,138.71 708.77,136.26 709.11,134.64 709.44,133.46 709.78,135.37 710.11,137.22 710.45,132.23 710.78,117.79 711.12,112.34 711.45,112.04 711.79,118.65 712.12,115.88 712.46,120.63 712.79,127.26 713.13,119.73 713.46,131.34 713.80,132.24 714.13,136.25 714.47,140.16 714.80,136.87 715.14,136.90 715.47,137.39 715.81,139.78 716.14,137.57 716.48,146.39 716.81,148.81 717.15,149.69 717.48,151.79 717.82,162.07 718.15,160.15 718.49,172.19 718.82,174.60 719.16,174.34 719.49,186.00 719.83,192.33 720.16,197.51 720.50,200.33 720.83,193.33 721.17,183.24 721.50,185.13 721.84,186.54 722.17,189.49 722.51,188.39 722.84,188.06 723.18,188.21 723.51,186.24 723.85,184.71 724.18,189.17 724.52,193.97 724.85,193.78 725.19,199.46 725.52,201.49 725.86,206.91 726.19,205.18 726.53,208.85 726.86,208.17 727.20,217.15 727.53,215.14 727.87,215.67 728.20,217.57 728.54,212.74 728.87,215.04 729.21,208.70 729.54,207.83 729.88,206.37 730.21,207.95 730.55,218.56 730.88,217.99 731.22,218.16 731.55,216.29 731.89,222.07 732.22,224.99 732.56,221.27 732.89,233.09 733.23,238.22 733.56,247.15 733.90,248.67 734.23,251.37 734.57,251.70 734.90,241.83 735.24,233.59 735.57,229.38 735.91,229.98 736.24,229.57 736.58,225.41 736.91,211.95 737.25,207.59 737.58,204.57 737.92,210.22 738.25,210.76 738.59,208.02 738.92,210.10 739.26,220.00 739.59,216.02 739.93,206.38 740.26,208.22 740.60,208.48 740.93,198.53 741.27,192.06 741.60,193.37 741.94,194.52 742.27,193.35 742.61,208.37 742.94,204.87 743.28,208.12 743.61,204.00 743.95,208.47 744.28,196.09 744.62,196.71 744.95,198.90 745.29,201.90 745.62,201.94 745.96,202.58 746.29,200.99 746.63,210.10 746.96,205.23 747.30,206.36 747.63,203.22 747.97,205.65 748.30,204.36 748.64,198.09 748.97,199.87 749.31,195.78 749.64,201.03 749.98,202.04 750.31,195.06 750.65,194.57 750.98,201.17 751.32,207.24 751.65,204.07 751.99,200.85 752.32,199.74 752.66,205.33 752.99,207.14 753.33,206.62 753.66,202.19 754.00,201.59 754.33,200.31 754.67,195.09 755.00,185.55"/>
<line x1="783" y1="82" x2="809" y2="82" stroke="#dc2626" stroke-width="3"/>
<text x="817" y="86" font-family="Arial" font-size="13" fill="#111827">Avellaneda Stoikov</text>
<text x="420.0" y="518" text-anchor="middle" font-family="Arial" font-size="14" fill="#111827">Event index</text>
<text x="22" y="256.0" text-anchor="middle" transform="rotate(-90 22 256.0)" font-family="Arial" font-size="14" fill="#111827">Net PnL after fees</text>
</svg>
