<svg xmlns="http://www.w3.org/2000/svg" width="940" height="540" viewBox="0 0 940 540">
<rect width="100%" height="100%" fill="#ffffff"/>
<text x="470.0" y="26" text-anchor="middle" font-family="Arial" font-size="18" fill="#111827">Trending Cumulative PnL After Fees</text>
<line x1="85" y1="470" x2="755" y2="470" stroke="#111827" stroke-width="1"/>
<line x1="85" y1="42" x2="85" y2="470" stroke="#111827" stroke-width="1"/>
<line x1="85.00" y1="42" x2="85.00" y2="470" stroke="#e5e7eb" stroke-width="1"/>
<text x="85.00" y="494" text-anchor="middle" font-family="Arial" font-size="12" fill="#374151">0</text>
<line x1="252.50" y1="42" x2="252.50" y2="470" stroke="#e5e7eb" stroke-width="1"/>
<text x="252.50" y="494" text-anchor="middle" font-family="Arial" font-size="12" fill="#374151">50000</text>
<line x1="420.00" y1="42" x2="420.00" y2="470" stroke="#e5e7eb" stroke-width="1"/>
<text x="420.00" y="494" text-anchor="middle" font-family="Arial" font-size="12" fill="#374151">100000</text>
<line x1="587.50" y1="42" x2="587.50" y2="470" stroke="#e5e7eb" stroke-width="1"/>
<text x="587.50" y="494" text-anchor="middle" font-family="Arial" font-size="12" fill="#374151">149999</text>
<line x1="755.00" y1="42" x2="755.00" y2="470" stroke="#e5e7eb" stroke-width="1"/>
<text x="755.00" y="494" text-anchor="middle" font-family="Arial" font-size="12" fill="#374151">199999</text>
<line x1="85" y1="470.00" x2="755" y2="470.00" stroke="#e5e7eb" stroke-width="1"/>
<text x="73" y="474.00" text-anchor="end" font-family="Arial" font-size="12" fill="#374151">-3562469</text>
<line x1="85" y1="363.00" x2="755" y2="363.00" stroke="#e5e7eb" stroke-width="1"/>
<text x="73" y="367.00" text-anchor="end" font-family="Arial" font-size="12" fill="#374151">-859007</text>
<line x1="85" y1="256.00" x2="755" y2="256.00" stroke="#e5e7eb" stroke-width="1"/>
<text x="73" y="260.00" text-anchor="end" font-family="Arial" font-size="12" fill="#374151">1844454</text>
<line x1="85" y1="149.00" x2="755" y2="149.00" stroke="#e5e7eb" stroke-width="1"/>
<text x="73" y="153.00" text-anchor="end" font-family="Arial" font-size="12" fill="#374151">4547916</text>
<line x1="85" y1="42.00" x2="755" y2="42.00" stroke="#e5e7eb" stroke-width="1"/>
<text x="73" y="46.00" text-anchor="end" font-family="Arial" font-size="12" fill="#374151">7251377</text>
<polyline fill="none" stroke="#2563eb" stroke-width="2" points="85.00,329.00 85.34,328.97 85.67,328.93 86.01,328.90 86.34,328.87 86.68,328.85 87.01,328.83 87.35,328.81 87.68,328.78 88.02,328.76 88.35,328.74 88.69,328.70 89.02,328.69 89.36,328.66 89.69,328.63 90.03,328.62 90.36,328.60 90.70,328.56 91.03,328.53 91.37,328.51 91.70,328.48 92.04,328.45 92.37,328.43 92.71,328.41 93.04,328.38 93.38,328.32 93.71,328.26 94.05,328.26 94.38,328.26 94.72,328.14 95.05,328.08 95.39,328.06 95.72,327.85 96.06,327.59 96.39,327.31 96.73,327.19 97.06,327.21 97.40,327.23 97.73,326.53 98.07,326.80 98.40,326.91 98.74,326.68 99.07,325.84 99.41,325.91 99.74,325.52 100.08,325.30 100.41,325.40 100.75,324.72 101.08,324.35 101.42,324.48 101.75,324.62 102.09,324.51 102.42,324.24 102.76,324.16 103.09,323.77 103.43,324.18 103.76,323.59 104.10,322.61 104.43,322.83 104.77,323.31 105.10,324.14 105.44,324.19 105.77,323.97 106.11,323.16 106.44,323.59 106.78,323.01 107.11,322.41 107.45,323.16 107.78,322.19 108.12,321.84 108.45,321.09 108.79,321.68 109.12,321.15 109.46,322.75 109.79,323.07 110.13,323.30 110.46,322.23 110.80,323.77 111.13,322.27 111.47,323.33 111.80,323.46 112.14,324.10 112.47,323.21 112.81,325.38 113.14,325.76 113.48,325.76 113.81,324.80 114.15,324.68 114.48,325.43 114.82,325.46 115.15,326.82 115.49,325.63 115.82,325.98 116.16,322.79 116.49,325.13 116.83,324.74 117.16,326.10 117.50,324.75 117.83,324.33 118.17,324.61 118.50,322.93 118.84,321.98 119.17,323.76 119.51,323.30 119.84,323.79 120.18,324.27 120.51,324.71 120.85,325.39 121.18,325.65 121.52,325.24 121.85,325.45 122.19,326.58 122.52,327.70 122.86,329.87 123.19,330.05 123.53,329.66 123.86,328.57 124.20,327.55 124.53,328.19 124.87,328.60 125.20,328.42 125.54,328.64 125.87,328.81 126.21,328.06 126.54,328.04 126.88,328.30 127.21,328.34 127.55,328.94 127.88,329.08 128.22,328.98 128.55,328.42 128.89,327.68 129.22,327.80 129.56,327.74 129.89,326.68 130.23,327.26 130.56,327.01 130.90,326.68 131.23,327.05 131.57,326.96 131.90,327.17 132.24,326.99 132.57,327.50 132.91,327.32 133.24,327.49 133.58,327.52 133.91,327.72 134.25,327.51 134.58,327.19 134.92,327.03 135.25,327.15 135.59,327.63 135.92,327.77 136.26,327.72 136.59,328.07 136.93,328.45 137.26,328.17 137.60,328.90 137.93,328.52 138.27,328.28 138.60,328.09 138.94,327.69 139.27,327.68 139.61,327.42 139.94,327.53 140.28,327.31 140.61,327.24 140.95,327.35 141.28,327.33 141.62,327.27 141.95,327.74 142.29,327.68 142.62,327.94 142.96,327.67 143.29,327.60 143.63,327.44 143.96,327.64 144.30,327.50 144.63,327.45 144.97,327.11 145.30,327.04 145.64,326.96 145.97,326.47 146.31,326.60 146.64,326.68 146.98,326.92 147.31,326.92 147.65,326.74 147.98,326.57 148.32,325.93 148.65,326.08 148.99,326.31 149.32,326.33 149.66,326.25 149.99,326.35 150.33,326.14 150.66,326.15 151.00,326.32 151.33,326.49 151.67,326.34 152.00,326.04 152.34,325.90 152.67,326.07 153.01,325.78 153.34,325.99 153.68,325.89 154.01,326.03 154.35,325.99 154.68,326.03 155.02,325.63 155.35,325.38 155.69,325.88 156.02,325.71 156.36,325.45 156.69,325.30 157.03,325.38 157.36,325.05 157.70,324.58 158.03,324.19 158.37,324.12 158.70,324.40 159.04,324.69 159.37,324.78 159.71,324.93 160.04,325.33 160.38,325.55 160.71,325.62 161.05,325.96 161.38,326.70 161.72,326.96 162.05,327.01 162.39,327.11 162.72,327.68 163.06,327.66 163.39,327.92 163.73,327.77 164.06,328.00 164.40,328.03 164.73,328.16 165.07,328.19 165.40,328.00 165.74,328.10 166.07,327.96 166.41,327.91 166.74,327.78 167.08,327.66 167.41,327.54 167.75,327.53 168.08,327.48 168.42,327.48 168.75,327.42 169.09,327.38 169.42,327.26 169.76,327.33 170.09,327.22 170.43,327.04 170.76,327.25 171.10,327.37 171.43,327.27 171.77,326.83 172.10,326.82 172.44,326.73 172.77,326.84 173.11,326.40 173.44,326.32 173.78,326.48 174.11,326.63 174.45,325.48 174.78,325.54 175.12,326.07 175.45,325.56 175.79,325.41 176.12,324.34 176.46,324.15 176.79,323.22 177.13,321.84 177.46,320.86 177.80,321.71 178.13,321.75 178.47,321.47 178.80,322.05 179.14,321.29 179.47,320.17 179.81,320.70 180.14,320.27 180.48,320.04 180.81,320.39 181.15,320.36 181.48,319.09 181.82,320.02 182.15,318.14 182.49,318.66 182.82,317.31 183.16,315.22 183.49,317.43 183.83,315.91 184.16,316.87 184.50,315.83 184.83,316.98 185.17,316.41 185.50,316.00 185.84,314.82 186.17,315.09 186.51,318.91 186.84,319.62 187.18,320.72 187.51,319.51 187.85,319.53 188.18,316.17 188.52,315.46 188.85,316.86 189.19,317.09 189.52,317.85 189.86,315.90 190.19,318.34 190.53,319.80 190.86,319.27 191.20,319.02 191.53,318.53 191.87,319.31 192.20,320.32 192.54,325.65 192.87,325.81 193.21,326.62 193.54,325.05 193.88,326.37 194.21,327.89 194.55,328.13 194.88,325.16 195.22,325.19 195.55,325.91 195.89,325.17 196.22,321.66 196.56,322.95 196.89,320.74 197.23,321.44 197.56,318.91 197.90,317.80 198.23,316.93 198.57,318.24 198.90,316.96 199.24,314.84 199.57,318.27 199.91,319.75 200.24,320.21 200.58,322.19 200.91,319.97 201.25,323.40 201.58,320.80 201.92,319.75 202.25,318.51 202.59,316.50 202.92,316.94 203.26,316.38 203.59,314.80 203.93,315.13 204.26,315.80 204.60,315.82 204.93,315.49 205.27,319.36 205.60,319.76 205.94,319.44 206.27,321.31 206.61,323.95 206.94,325.34 207.28,321.03 207.61,317.88 207.95,317.44 208.28,312.97 208.62,313.81 208.95,314.21 209.29,314.76 209.62,313.64 209.96,317.95 210.29,314.01 210.63,313.82 210.96,310.37 211.30,307.24 211.63,306.43 211.97,307.54 212.30,306.72 212.64,307.82 212.97,312.37 213.31,311.04 213.64,308.65 213.98,311.84 214.31,310.32 214.65,309.54 214.98,312.53 215.32,313.77 215.65,312.66 215.99,310.08 216.32,311.53 216.66,311.47 216.99,310.08 217.33,307.78 217.66,303.23 218.00,305.55 218.33,302.03 218.67,297.93 219.00,295.20 219.34,296.48 219.67,290.48 220.01,289.43 220.34,290.53 220.68,289.68 221.01,287.67 221.35,285.81 221.68,283.92 222.02,285.78 222.35,289.27 222.69,291.88 223.02,295.57 223.36,294.37 223.69,298.18 224.03,293.96 224.36,298.98 224.70,295.79 225.03,294.11 225.37,291.48 225.70,291.93 226.04,290.99 226.37,294.74 226.71,297.85 227.04,295.49 227.38,297.71 227.71,300.89 228.05,301.00 228.38,300.37 228.72,301.48 229.05,305.88 229.39,300.04 229.72,298.27 230.06,296.10 230.39,291.83 230.73,286.73 231.06,287.43 231.40,285.77 231.73,285.16 232.07,281.96 232.40,279.45 232.74,282.12 233.07,278.71 233.41,273.88 233.74,274.99 234.08,275.38 234.41,274.63 234.75,281.78 235.08,281.37 235.42,285.00 235.75,290.19 236.09,287.54 236.42,290.16 236.76,294.56 237.09,298.47 237.43,298.26 237.76,299.74 238.10,294.96 238.43,285.63 238.77,285.89 239.10,290.89 239.44,290.63 239.77,282.91 240.11,281.85 240.44,286.55 240.78,293.02 241.11,299.14 241.45,294.05 241.78,295.34 242.12,300.52 242.45,299.53 242.79,293.08 243.12,301.77 243.46,290.06 243.79,290.09 244.13,284.40 244.46,280.28 244.80,274.53 245.13,274.55 245.47,275.50 245.80,276.38 246.14,278.77 246.47,282.22 246.81,283.43 247.14,284.23 247.48,286.36 247.81,282.28 248.15,292.70 248.48,294.64 248.82,280.09 249.15,282.18 249.49,279.53 249.82,290.43 250.16,287.63 250.49,282.45 250.83,285.46 251.16,283.90 251.50,278.63 251.83,282.45 252.17,286.51 252.50,290.16 252.84,278.97 253.17,286.93 253.51,279.56 253.84,278.95 254.18,272.99 254.51,272.38 254.85,273.38 255.18,271.83 255.52,270.48 255.85,274.42 256.19,274.39 256.52,265.22 256.86,258.79 257.19,257.65 257.53,251.72 257.86,261.58 258.20,268.87 258.53,267.67 258.87,264.30 259.20,270.12 259.54,266.80 259.87,268.36 260.21,278.80 260.54,277.43 260.88,283.18 261.21,285.64 261.55,286.91 261.88,295.79 262.22,297.80 262.55,291.35 262.89,292.38 263.22,294.53 263.56,286.43 263.89,283.54 264.23,281.26 264.56,283.23 264.90,273.44 265.23,280.17 265.57,274.88 265.90,280.86 266.24,280.08 266.57,270.08 266.91,284.06 267.24,281.98 267.58,276.97 267.91,276.53 268.25,271.58 268.58,280.65 268.92,277.79 269.25,273.77 269.59,272.51 269.92,267.39 270.26,259.92 270.59,257.72 270.93,254.57 271.26,259.92 271.60,267.67 271.93,272.05 272.27,260.26 272.60,261.43 272.94,255.98 273.27,266.64 273.61,264.14 273.94,261.21 274.28,259.16 274.61,268.68 274.95,258.99 275.28,254.62 275.62,257.19 275.95,256.15 276.29,257.69 276.62,261.62 276.96,246.20 277.29,240.07 277.63,248.50 277.96,249.58 278.30,256.29 278.63,256.33 278.97,258.60 279.30,269.25 279.64,269.93 279.97,266.60 280.31,275.56 280.64,279.32 280.98,268.59 281.31,267.47 281.65,265.68 281.98,270.87 282.32,272.88 282.65,265.08 282.99,259.87 283.32,256.07 283.66,260.76 283.99,254.05 284.33,245.43 284.66,241.20 285.00,247.13 285.33,258.66 285.67,255.48 286.00,251.92 286.34,255.49 286.67,249.62 287.01,248.76 287.34,248.51 287.68,254.79 288.01,262.40 288.35,258.10 288.68,263.04 289.02,273.79 289.35,277.31 289.69,273.05 290.02,271.74 290.36,262.93 290.69,271.02 291.03,268.02 291.36,262.32 291.70,261.65 292.03,274.33 292.37,273.36 292.70,278.35 293.04,274.66 293.37,270.66 293.71,255.75 294.04,253.24 294.38,261.27 294.71,269.47 295.05,266.35 295.38,265.77 295.72,262.05 296.05,270.52 296.39,277.30 296.72,290.68 297.06,292.12 297.39,289.08 297.73,292.76 298.06,302.90 298.40,286.14 298.73,280.35 299.07,281.15 299.40,280.59 299.74,293.76 300.07,292.15 300.41,307.24 300.74,295.94 301.08,307.13 301.41,314.81 301.75,316.71 302.08,333.48 302.42,336.52 302.75,340.31 303.09,340.55 303.42,340.48 303.76,336.15 304.09,328.74 304.43,329.52 304.76,327.64 305.10,329.29 305.43,334.20 305.77,340.93 306.10,341.08 306.44,354.18 306.77,361.44 307.11,351.05 307.44,345.62 307.78,358.98 308.11,364.65 308.45,367.50 308.78,372.87 309.12,374.64 309.45,371.51 309.79,371.91 310.12,378.41 310.46,378.93 310.79,366.18 311.13,356.15 311.46,352.18 311.80,352.11 312.13,351.21 312.47,363.18 312.80,364.80 313.14,372.64 313.47,372.62 313.81,368.58 314.14,370.27 314.48,370.09 314.81,374.77 315.15,385.59 315.48,394.72 315.82,398.29 316.15,402.51 316.49,389.82 316.82,376.98 317.16,384.01 317.49,396.96 317.83,404.06 318.16,404.68 318.50,412.90 318.83,409.20 319.17,403.47 319.50,411.05 319.84,402.81 320.17,403.74 320.51,396.95 320.84,412.67 321.18,408.19 321.51,422.43 321.85,432.28 322.18,432.99 322.52,440.41 322.85,433.33 323.19,434.23 323.52,440.48 323.86,438.04 324.19,431.10 324.53,427.68 324.86,428.07 325.20,431.74 325.53,425.31 325.87,421.64 326.20,412.37 326.54,407.32 326.87,411.63 327.21,407.90 327.54,406.75 327.88,403.58 328.21,404.58 328.55,400.36 328.88,403.73 329.22,406.92 329.55,400.98 329.89,396.45 330.22,394.08 330.56,388.41 330.89,384.36 331.23,382.66 331.56,382.08 331.90,389.90 332.23,398.25 332.57,395.20 332.90,391.86 333.24,399.99 333.57,391.63 333.91,389.93 334.24,396.95 334.58,394.51 334.91,399.26 335.25,398.20 335.58,404.17 335.92,402.39 336.25,401.77 336.59,400.28 336.92,395.76 337.26,398.44 337.59,398.31 337.93,399.70 338.26,400.14 338.60,396.78 338.93,394.07 339.27,395.15 339.60,390.52 339.94,393.88 340.27,396.66 340.61,392.87 340.94,395.65 341.28,395.31 341.61,389.03 341.95,389.02 342.28,384.38 342.62,378.31 342.95,373.50 343.29,364.55 343.62,361.51 343.96,366.76 344.29,365.16 344.63,366.09 344.96,367.97 345.30,369.73 345.63,366.75 345.97,371.35 346.30,364.21 346.64,362.78 346.97,369.55 347.31,371.87 347.64,374.83 347.98,380.21 348.31,379.80 348.65,386.31 348.98,379.14 349.32,374.44 349.65,376.12 349.99,377.46 350.32,376.46 350.66,380.24 350.99,376.76 351.33,376.08 351.66,377.49 352.00,375.54 352.33,376.92 352.67,377.66 353.00,382.28 353.34,384.49 353.67,387.04 354.01,386.51 354.34,395.63 354.68,400.17 355.01,402.36 355.35,398.25 355.68,400.23 356.02,401.06 356.35,399.29 356.69,396.91 357.02,389.42 357.36,389.79 357.69,390.05 358.03,389.43 358.36,389.39 358.70,388.74 359.03,387.69 359.37,389.88 359.70,387.89 360.04,389.11 360.37,387.74 360.71,380.49 361.04,381.04 361.38,379.90 361.71,384.07 362.05,381.10 362.38,376.92 362.72,380.43 363.05,383.69 363.39,384.17 363.72,381.78 364.06,382.59 364.39,381.60 364.73,382.21 365.06,385.00 365.40,389.97 365.73,396.19 366.07,389.79 366.40,389.85 366.74,395.92 367.07,397.64 367.41,392.44 367.74,393.56 368.08,396.33 368.41,396.90 368.75,392.35 369.08,387.85 369.42,388.83 369.75,391.56 370.09,391.45 370.42,388.24 370.76,387.53 371.09,391.92 371.43,392.48 371.76,395.90 372.10,395.17 372.43,397.24 372.77,397.86 373.10,398.41 373.44,397.47 373.77,399.75 374.11,398.64 374.44,401.40 374.78,403.03 375.11,407.57 375.45,411.28 375.78,413.44 376.12,415.24 376.45,414.56 376.79,412.91 377.12,418.33 377.46,415.83 377.79,413.23 378.13,413.53 378.46,416.33 378.80,417.07 379.13,417.17 379.47,417.03 379.80,415.75 380.14,414.55 380.47,416.70 380.81,413.59 381.14,413.45 381.48,409.57 381.81,413.65 382.15,412.81 382.48,410.73 382.82,408.33 383.15,407.83 383.49,407.78 383.82,408.51 384.16,406.37 384.49,406.97 384.83,404.25 385.16,399.85 385.50,401.20 385.83,398.47 386.17,396.46 386.50,399.57 386.84,403.10 387.17,405.64 387.51,402.05 387.84,403.78 388.18,400.54 388.51,397.10 388.85,396.51 389.18,396.06 389.52,398.80 389.85,399.59 390.19,399.77 390.52,401.01 390.86,399.28 391.19,398.66 391.53,396.91 391.86,394.08 392.20,397.15 392.53,403.53 392.87,401.02 393.20,400.57 393.54,395.91 393.87,394.74 394.21,394.48 394.54,395.29 394.88,393.86 395.21,394.90 395.55,393.22 395.88,394.26 396.22,392.53 396.55,393.38 396.89,391.62 397.22,392.00 397.56,393.21 397.89,393.69 398.23,394.01 398.56,398.21 398.90,398.61 399.23,397.60 399.57,397.74 399.90,397.26 400.24,399.65 400.57,397.49 400.91,399.52 401.24,404.23 401.58,403.63 401.91,406.39 402.25,404.14 402.58,405.20 402.92,405.03 403.25,407.47 403.59,404.98 403.92,406.68 404.26,405.73 404.59,409.17 404.93,410.03 405.26,410.10 405.60,413.09 405.93,414.93 406.27,415.43 406.60,412.37 406.94,411.81 407.27,414.81 407.61,413.14 407.94,411.62 408.28,413.44 408.61,415.98 408.95,412.77 409.28,411.24 409.62,411.95 409.95,413.17 410.29,414.53 410.62,413.50 410.96,412.91 411.29,414.22 411.63,414.57 411.96,415.54 412.30,415.20 412.63,414.57 412.97,414.91 413.30,416.20 413.64,416.07 413.97,418.79 414.31,419.93 414.64,420.13 414.98,419.16 415.31,420.69 415.65,422.77 415.98,423.10 416.32,424.02 416.65,424.04 416.99,423.20 417.32,423.30 417.66,426.69 417.99,426.42 418.33,424.12 418.66,425.19 419.00,425.82 419.33,425.09 419.67,425.03 420.00,424.81 420.34,425.63 420.67,426.52 421.01,425.02 421.34,426.08 421.68,426.20 422.01,426.75 422.35,425.54 422.68,425.98 423.02,426.34 423.35,425.08 423.69,424.48 424.02,424.61 424.36,424.97 424.69,423.66 425.03,423.34 425.36,422.99 425.70,422.92 426.03,423.40 426.37,422.80 426.70,421.04 427.04,420.03 427.37,419.60 427.71,418.98 428.04,417.77 428.38,416.99 428.71,417.16 429.05,416.28 429.38,416.24 429.72,416.20 430.05,415.10 430.39,414.91 430.72,414.63 431.06,414.46 431.39,413.89 431.73,413.89 432.06,413.39 432.40,412.73 432.73,411.94 433.07,411.52 433.40,411.17 433.74,410.42 434.07,410.35 434.41,410.14 434.74,409.61 435.08,408.99 435.41,408.57 435.75,408.14 436.08,407.85 436.42,407.47 436.75,406.95 437.09,406.18 437.42,405.74 437.76,405.40 438.09,404.84 438.43,404.54 438.76,404.35 439.10,403.82 439.43,403.52 439.77,403.00 440.10,402.41 440.44,401.71 440.77,401.69 441.11,401.13 441.44,401.48 441.78,400.77 442.11,401.00 442.45,400.29 442.78,400.08 443.12,399.44 443.45,399.02 443.79,398.84 444.12,398.87 444.46,399.44 444.79,397.95 445.13,397.89 445.46,397.28 445.80,397.15 446.13,396.61 446.47,395.48 446.80,394.97 447.14,396.12 447.47,396.53 447.81,395.41 448.14,395.91 448.48,395.98 448.81,397.31 449.15,399.08 449.48,398.76 449.82,398.23 450.15,399.13 450.49,398.97 450.82,398.52 451.16,399.21 451.49,401.09 451.83,399.70 452.16,399.58 452.50,399.69 452.83,398.37 453.17,398.16 453.50,396.82 453.84,396.92 454.17,396.42 454.51,397.13 454.84,399.64 455.18,399.46 455.51,397.39 455.85,396.48 456.18,398.59 456.52,400.26 456.85,401.13 457.19,402.32 457.52,403.11 457.86,403.28 458.19,401.83 458.53,402.49 458.86,401.99 459.20,402.12 459.53,399.68 459.87,399.71 460.20,398.16 460.54,398.24 460.87,397.66 461.21,396.54 461.54,398.05 461.88,397.60 462.21,396.37 462.55,396.70 462.88,396.65 463.22,396.88 463.55,396.25 463.89,397.37 464.22,397.00 464.56,397.18 464.89,395.56 465.23,396.39 465.56,396.45 465.90,397.36 466.23,397.47 466.57,399.26 466.90,399.64 467.24,400.07 467.57,400.12 467.91,399.25 468.24,397.50 468.58,397.84 468.91,396.65 469.25,396.66 469.58,396.85 469.92,396.42 470.25,397.01 470.59,395.14 470.92,395.22 471.26,395.19 471.59,394.02 471.93,392.83 472.26,394.09 472.60,395.15 472.93,394.45 473.27,394.41 473.60,394.23 473.94,396.01 474.27,397.19 474.61,398.58 474.94,398.90 475.28,400.10 475.61,401.82 475.95,401.18 476.28,399.85 476.62,398.76 476.95,400.22 477.29,401.69 477.62,401.23 477.96,401.84 478.29,404.36 478.63,405.25 478.96,403.78 479.30,404.26 479.63,403.68 479.97,404.39 480.30,404.89 480.64,403.60 480.97,402.80 481.31,402.99 481.64,403.17 481.98,402.66 482.31,403.00 482.65,402.36 482.98,403.27 483.32,403.60 483.65,403.16 483.99,403.76 484.32,403.76 484.66,404.07 484.99,404.36 485.33,404.60 485.66,405.21 486.00,405.73 486.33,405.75 486.67,406.57 487.00,407.43 487.34,407.11 487.67,406.42 488.01,405.69 488.34,405.45 488.68,405.48 489.01,405.79 489.35,405.99 489.68,405.79 490.02,405.60 490.35,405.81 490.69,405.66 491.02,405.64 491.36,405.45 491.69,405.47 492.03,405.17 492.36,405.19 492.70,404.95 493.03,404.66 493.37,404.39 493.70,404.05 494.04,403.69 494.37,403.35 494.71,403.01 495.04,402.74 495.38,402.14 495.71,401.88 496.05,401.66 496.38,401.47 496.72,401.51 497.05,401.33 497.39,400.92 497.72,400.35 498.06,399.89 498.39,399.16 498.73,399.10 499.06,398.89 499.40,398.64 499.73,398.27 500.07,398.00 500.40,397.53 500.74,396.94 501.07,397.05 501.41,397.85 501.74,397.78 502.08,397.67 502.41,397.84 502.75,397.82 503.08,397.55 503.42,397.19 503.75,397.71 504.09,398.19 504.42,397.70 504.76,396.60 505.09,396.39 505.43,396.47 505.76,395.87 506.10,396.54 506.43,397.53 506.77,396.82 507.10,397.54 507.44,398.64 507.77,398.35 508.11,396.56 508.44,397.26 508.78,396.82 509.11,396.17 509.45,395.51 509.78,395.98 510.12,397.38 510.45,396.26 510.79,396.46 511.12,397.96 511.46,397.41 511.79,397.14 512.13,397.30 512.46,398.37 512.80,397.43 513.13,397.06 513.47,398.53 513.80,396.94 514.14,398.06 514.47,399.04 514.81,397.84 515.14,399.95 515.48,399.47 515.81,398.98 516.15,398.33 516.48,398.36 516.82,397.32 517.15,397.88 517.49,399.58 517.82,400.42 518.16,398.91 518.49,398.79 518.83,399.05 519.16,397.15 519.50,395.40 519.83,393.60 520.17,392.29 520.50,392.50 520.84,392.44 521.17,393.32 521.51,396.25 521.84,397.27 522.18,396.90 522.51,396.69 522.85,398.21 523.18,398.68 523.52,397.21 523.85,396.94 524.19,395.34 524.52,396.08 524.86,395.36 525.19,396.19 525.53,398.78 525.86,397.38 526.20,395.76 526.53,398.13 526.87,398.81 527.20,400.22 527.54,401.44 527.87,400.71 528.21,400.61 528.54,399.88 528.88,399.69 529.21,399.28 529.55,399.46 529.88,398.56 530.22,398.29 530.55,400.47 530.89,400.43 531.22,400.62 531.56,402.03 531.89,401.41 532.23,402.61 532.56,401.11 532.90,400.86 533.23,397.98 533.57,398.04 533.90,397.92 534.24,395.55 534.57,395.60 534.91,394.99 535.24,394.09 535.58,393.03 535.91,392.63 536.25,392.26 536.58,392.54 536.92,396.03 537.25,397.84 537.59,398.11 537.92,397.06 538.26,396.53 538.59,396.48 538.93,397.50 539.26,398.31 539.60,397.21 539.93,398.18 540.27,398.67 540.60,399.05 540.94,399.17 541.27,398.83 541.61,398.82 541.94,399.83 542.28,398.69 542.61,398.99 542.95,398.63 543.28,397.72 543.62,396.47 543.95,397.28 544.29,398.69 544.62,398.41 544.96,398.69 545.29,397.91 545.63,396.69 545.96,395.06 546.30,394.01 546.63,392.61 546.97,394.18 547.30,393.21 547.64,394.75 547.97,394.44 548.31,395.64 548.64,395.48 548.98,394.58 549.31,396.54 549.65,395.15 549.98,392.92 550.32,394.06 550.65,393.58 550.99,392.68 551.32,390.64 551.66,391.03 551.99,391.57 552.33,390.75 552.66,390.18 553.00,389.06 553.33,388.32 553.67,387.48 554.00,386.59 554.34,387.08 554.67,385.95 555.01,385.35 555.34,384.02 555.68,384.10 556.01,384.82 556.35,384.58 556.68,385.31 557.02,384.41 557.35,385.40 557.69,385.54 558.02,387.92 558.36,388.53 558.69,388.96 559.03,389.14 559.36,390.53 559.70,387.59 560.03,385.50 560.37,385.61 560.70,387.05 561.04,383.51 561.37,383.44 561.71,381.20 562.04,382.34 562.38,382.46 562.71,378.82 563.05,378.78 563.38,377.58 563.72,375.22 564.05,380.00 564.39,381.66 564.72,379.82 565.06,382.35 565.39,380.40 565.73,379.77 566.06,378.69 566.40,378.20 566.73,381.00 567.07,379.59 567.40,381.69 567.74,382.74 568.07,385.90 568.41,388.45 568.74,385.78 569.08,386.47 569.41,385.29 569.75,384.39 570.08,388.02 570.42,390.66 570.75,394.30 571.09,394.31 571.42,395.48 571.76,398.97 572.09,397.37 572.43,394.19 572.76,390.24 573.10,387.89 573.43,392.99 573.77,396.16 574.10,394.80 574.44,393.42 574.77,396.66 575.11,398.49 575.44,398.13 575.78,397.57 576.11,395.76 576.45,395.61 576.78,394.47 577.12,393.59 577.45,393.49 577.79,397.56 578.12,401.01 578.46,403.76 578.79,404.62 579.13,406.02 579.46,406.33 579.80,406.16 580.13,405.75 580.47,401.98 580.80,403.68 581.14,400.08 581.47,402.15 581.81,405.81 582.14,407.24 582.48,409.22 582.81,410.79 583.15,409.97 583.48,409.00 583.82,407.83 584.15,408.36 584.49,410.17 584.82,411.64 585.16,410.86 585.49,411.27 585.83,409.91 586.16,412.25 586.50,412.00 586.83,411.93 587.17,410.00 587.50,410.30 587.84,411.08 588.17,414.46 588.51,412.95 588.84,413.09 589.18,411.95 589.51,413.09 589.85,412.22 590.18,414.75 590.52,415.18 590.85,418.54 591.19,417.19 591.52,415.62 591.86,420.59 592.19,417.08 592.53,417.07 592.86,414.69 593.20,414.54 593.53,411.61 593.87,411.16 594.20,411.86 594.54,411.05 594.87,414.49 595.21,412.46 595.54,410.38 595.88,409.83 596.21,408.80 596.55,408.98 596.88,409.15 597.22,407.17 597.55,408.52 597.89,408.59 598.22,409.54 598.56,409.27 598.89,410.33 599.23,412.70 599.56,412.63 599.90,411.82 600.23,412.99 600.57,413.36 600.90,412.86 601.24,413.55 601.57,412.03 601.91,410.98 602.24,410.63 602.58,411.29 602.91,412.53 603.25,412.07 603.58,412.25 603.92,411.15 604.25,411.89 604.59,412.13 604.92,412.94 605.26,412.82 605.59,412.89 605.93,415.00 606.26,415.04 606.60,415.69 606.93,415.15 607.27,414.26 607.60,413.99 607.94,414.69 608.27,414.36 608.61,413.93 608.94,414.53 609.28,414.59 609.61,414.15 609.95,413.41 610.28,413.30 610.62,413.78 610.95,413.63 611.29,413.86 611.62,414.19 611.96,413.80 612.29,413.49 612.63,413.07 612.96,412.68 613.30,412.41 613.63,412.14 613.97,411.66 614.30,411.42 614.64,411.19 614.97,410.88 615.31,410.57 615.64,410.24 615.98,409.89 616.31,409.86 616.65,409.64 616.98,409.41 617.32,408.90 617.65,408.30 617.99,408.20 618.32,407.71 618.66,407.63 618.99,407.29 619.33,406.82 619.66,406.69 620.00,406.29 620.33,405.10 620.67,404.13 621.00,403.44 621.34,402.46 621.67,402.94 622.01,401.76 622.34,400.47 622.68,400.11 623.01,399.26 623.35,398.69 623.68,398.78 624.02,397.92 624.35,395.84 624.69,396.72 625.02,396.25 625.36,395.92 625.69,394.49 626.03,393.73 626.36,393.04 626.70,391.18 627.03,390.31 627.37,389.91 627.70,389.75 628.04,389.13 628.37,387.27 628.71,387.44 629.04,387.09 629.38,386.08 629.71,385.09 630.05,386.67 630.38,384.80 630.72,382.55 631.05,381.79 631.39,380.92 631.72,381.78 632.06,382.16 632.39,382.35 632.73,380.57 633.06,379.01 633.40,378.54 633.73,376.71 634.07,378.42 634.40,377.04 634.74,375.79 635.07,377.35 635.41,376.37 635.74,378.86 636.08,377.58 636.41,377.20 636.75,379.31 637.08,377.11 637.42,377.16 637.75,374.30 638.09,371.27 638.42,369.01 638.76,366.68 639.09,367.49 639.43,365.21 639.76,366.91 640.10,364.24 640.43,364.22 640.77,364.59 641.10,363.43 641.44,361.34 641.77,359.81 642.11,360.78 642.44,358.52 642.78,360.48 643.11,361.06 643.45,358.13 643.78,357.46 644.12,357.09 644.45,358.08 644.79,358.55 645.12,356.65 645.46,356.07 645.79,356.02 646.13,354.37 646.46,355.45 646.80,351.90 647.13,350.63 647.47,353.81 647.80,354.26 648.14,353.05 648.47,352.30 648.81,352.96 649.14,355.21 649.48,353.79 649.81,356.34 650.15,356.93 650.48,356.13 650.82,352.15 651.15,350.76 651.49,353.36 651.82,353.85 652.16,351.48 652.49,350.92 652.83,353.93 653.16,352.58 653.50,349.94 653.83,347.66 654.17,347.75 654.50,343.55 654.84,340.69 655.17,339.58 655.51,339.21 655.84,339.92 656.18,343.45 656.51,336.08 656.85,336.43 657.18,334.63 657.52,331.14 657.85,325.24 658.19,320.52 658.52,324.67 658.86,325.01 659.19,324.64 659.53,328.12 659.86,327.43 660.20,326.07 660.53,324.56 660.87,328.94 661.20,330.08 661.54,327.38 661.87,327.82 662.21,323.90 662.54,323.72 662.88,327.08 663.21,324.89 663.55,321.10 663.88,324.16 664.22,325.93 664.55,327.63 664.89,328.04 665.22,330.58 665.56,335.67 665.89,337.60 666.23,345.53 666.56,346.11 666.90,349.22 667.23,344.65 667.57,344.34 667.90,345.60 668.24,340.47 668.57,338.11 668.91,333.21 669.24,336.36 669.58,339.14 669.91,335.51 670.25,334.11 670.58,335.81 670.92,337.01 671.25,336.82 671.59,332.01 671.92,331.78 672.26,333.24 672.59,331.33 672.93,331.02 673.26,337.43 673.60,340.84 673.93,343.08 674.27,331.41 674.60,334.38 674.94,331.82 675.27,332.43 675.61,328.98 675.94,330.25 676.28,319.64 676.61,315.24 676.95,316.42 677.28,318.96 677.62,315.17 677.95,315.58 678.29,312.92 678.62,316.14 678.96,317.21 679.29,320.67 679.63,321.30 679.96,322.26 680.30,330.00 680.63,330.34 680.97,331.85 681.30,330.71 681.64,326.22 681.97,327.86 682.31,327.07 682.64,327.15 682.98,329.68 683.31,329.51 683.65,324.12 683.98,327.10 684.32,321.89 684.65,322.47 684.99,323.97 685.32,322.95 685.66,321.80 685.99,327.62 686.33,327.89 686.66,331.44 687.00,325.29 687.33,320.57 687.67,329.14 688.00,322.51 688.34,318.31 688.67,317.30 689.01,321.76 689.34,324.30 689.68,319.64 690.01,318.96 690.35,325.06 690.68,325.02 691.02,323.47 691.35,308.83 691.69,314.57 692.02,314.97 692.36,315.62 692.69,312.97 693.03,315.71 693.36,318.85 693.70,320.21 694.03,319.75 694.37,318.89 694.70,325.71 695.04,322.94 695.37,323.17 695.71,320.77 696.04,321.82 696.38,314.89 696.71,310.58 697.05,316.36 697.38,313.67 697.72,313.53 698.05,313.66 698.39,310.72 698.72,318.20 699.06,314.78 699.39,307.94 699.73,308.55 700.06,308.73 700.40,301.96 700.73,304.68 701.07,302.93 701.40,308.77 701.74,310.11 702.07,305.46 702.41,300.69 702.74,302.26 703.08,299.10 703.41,301.76 703.75,296.46 704.08,295.36 704.42,292.50 704.75,293.92 705.09,298.48 705.42,303.59 705.76,308.67 706.09,293.35 706.43,287.83 706.76,282.37 707.10,289.19 707.43,289.80 707.77,293.07 708.10,287.80 708.44,295.33 708.77,291.44 709.11,284.38 709.44,287.52 709.78,295.41 710.11,289.85 710.45,286.32 710.78,285.62 711.12,288.58 711.45,285.91 711.79,287.72 712.12,293.85 712.46,292.26 712.79,293.69 713.13,296.88 713.46,294.05 713.80,299.01 714.13,296.06 714.47,309.74 714.80,314.83 715.14,315.59 715.47,322.38 715.81,338.62 716.14,344.83 716.48,331.51 716.81,328.87 717.15,324.81 717.48,317.99 717.82,313.66 718.15,297.34 718.49,295.43 718.82,298.12 719.16,305.91 719.49,305.69 719.83,304.77 720.16,294.58 720.50,283.96 720.83,283.92 721.17,283.86 721.50,274.18 721.84,272.78 722.17,275.40 722.51,286.49 722.84,284.14 723.18,281.80 723.51,269.83 723.85,273.35 724.18,274.50 724.52,282.94 724.85,286.54 725.19,294.00 725.52,287.75 725.86,295.39 726.19,303.63 726.53,309.51 726.86,315.89 727.20,319.55 727.53,317.36 727.87,317.65 728.20,309.31 728.54,311.34 728.87,315.54 729.21,312.72 729.54,303.16 729.88,293.87 730.21,279.56 730.55,284.61 730.88,291.78 731.22,294.19 731.55,299.64 731.89,301.12 732.22,290.17 732.56,288.78 732.89,281.21 733.23,278.67 733.56,276.36 733.90,287.01 734.23,288.87 734.57,294.15 734.90,303.91 735.24,302.05 735.57,294.73 735.91,292.51 736.24,292.46 736.58,288.02 736.91,278.43 737.25,277.55 737.58,278.52 737.92,272.78 738.25,275.47 738.59,275.20 738.92,279.80 739.26,284.89 739.59,287.62 739.93,289.23 740.26,294.29 740.60,294.69 740.93,300.00 741.27,301.63 741.60,305.78 741.94,294.04 742.27,304.99 742.61,304.09 742.94,295.09 743.28,306.24 743.61,314.41 743.95,303.16 744.28,307.07 744.62,304.88 744.95,306.82 745.29,307.75 745.62,297.27 745.96,300.15 746.29,292.68 746.63,286.97 746.96,280.18 747.30,275.35 747.63,277.77 747.97,264.23 748.30,269.05 748.64,268.35 748.97,282.97 749.31,291.83 749.64,294.24 749.98,288.00 750.31,302.62 750.65,289.44 750.98,282.66 751.32,284.49 751.65,295.59 751.99,291.93 752.32,281.90 752.66,287.79 752.99,288.99 753.33,291.08 753.66,294.90 754.00,286.04 754.33,296.25 754.67,294.32 755.00,300.52"/>
<line x1="783" y1="58" x2="809" y2="58" stroke="#2563eb" stroke-width="3"/>
<text x="817" y="62" font-family="Arial" font-size="13" fill="#111827">Naive</text>
<polyline fill="none" stroke="#dc2626" stroke-width="2" points="85.00,329.00 85.34,328.97 85.67,328.94 86.01,328.91 86.34,328.88 86.68,328.87 87.01,328.85 87.35,328.83 87.68,328.81 88.02,328.79 88.35,328.77 88.69,328.74 89.02,328.72 89.36,328.70 89.69,328.67 90.03,328.66 90.36,328.64 90.70,328.61 91.03,328.58 91.37,328.56 91.70,328.53 92.04,328.50 92.37,328.49 92.71,328.47 93.04,328.44 93.38,328.40 93.71,328.35 94.05,328.34 94.38,328.34 94.72,328.23 95.05,328.17 95.39,328.15 95.72,327.96 96.06,327.71 96.39,327.44 96.73,327.32 97.06,327.34 97.40,327.35 97.73,326.68 98.07,326.93 98.40,327.04 98.74,326.82 99.07,326.00 99.41,326.07 99.74,325.68 100.08,325.46 100.41,325.56 100.75,324.89 101.08,324.52 101.42,324.65 101.75,324.79 102.09,324.67 102.42,324.41 102.76,324.33 103.09,323.94 103.43,324.33 103.76,323.77 104.10,322.83 104.43,323.04 104.77,323.49 105.10,324.27 105.44,324.32 105.77,324.12 106.11,323.36 106.44,323.75 106.78,323.22 107.11,322.66 107.45,323.35 107.78,322.45 108.12,322.12 108.45,321.44 108.79,321.97 109.12,321.48 109.46,322.92 109.79,323.20 110.13,323.42 110.46,322.45 110.80,323.85 111.13,322.49 111.47,323.44 111.80,323.55 112.14,324.12 112.47,323.34 112.81,325.25 113.14,325.59 113.48,325.60 113.81,324.76 114.15,324.66 114.48,325.30 114.82,325.33 115.15,326.52 115.49,325.51 115.82,325.81 116.16,323.10 116.49,325.08 116.83,324.76 117.16,325.91 117.50,324.77 117.83,324.42 118.17,324.65 118.50,323.24 118.84,322.45 119.17,323.94 119.51,323.56 119.84,323.95 120.18,324.34 120.51,324.70 120.85,325.27 121.18,325.48 121.52,325.15 121.85,325.32 122.19,326.25 122.52,327.18 122.86,328.94 123.19,329.08 123.53,328.75 123.86,327.87 124.20,327.06 124.53,327.57 124.87,327.88 125.20,327.74 125.54,327.90 125.87,328.03 126.21,327.47 126.54,327.46 126.88,327.64 127.21,327.67 127.55,328.09 127.88,328.18 128.22,328.10 128.55,327.72 128.89,327.22 129.22,327.30 129.56,327.25 129.89,326.56 130.23,326.93 130.56,326.76 130.90,326.55 131.23,326.77 131.57,326.70 131.90,326.83 132.24,326.71 132.57,327.02 132.91,326.91 133.24,327.00 133.58,327.01 133.91,327.13 134.25,327.00 134.58,326.80 134.92,326.69 135.25,326.75 135.59,327.02 135.92,327.09 136.26,327.06 136.59,327.25 136.93,327.44 137.26,327.29 137.60,327.60 137.93,327.42 138.27,327.32 138.60,327.25 138.94,327.13 139.27,327.10 139.61,327.01 139.94,327.03 140.28,326.95 140.61,326.91 140.95,326.92 141.28,326.89 141.62,326.86 141.95,326.98 142.29,326.95 142.62,327.01 142.96,326.94 143.29,326.91 143.63,326.86 143.96,326.87 144.30,326.84 144.63,326.81 144.97,326.73 145.30,326.70 145.64,326.67 145.97,326.57 146.31,326.58 146.64,326.58 146.98,326.60 147.31,326.57 147.65,326.52 147.98,326.48 148.32,326.38 148.65,326.40 148.99,326.44 149.32,326.43 149.66,326.40 149.99,326.40 150.33,326.34 150.66,326.32 151.00,326.33 151.33,326.35 151.67,326.29 152.00,326.21 152.34,326.16 152.67,326.18 153.01,326.09 153.34,326.12 153.68,326.08 154.01,326.10 154.35,326.06 154.68,326.05 155.02,325.96 155.35,325.91 155.69,325.96 156.02,325.92 156.36,325.86 156.69,325.82 157.03,325.81 157.36,325.76 157.70,325.65 158.03,325.50 158.37,325.44 158.70,325.49 159.04,325.59 159.37,325.61 159.71,325.68 160.04,325.87 160.38,325.96 160.71,325.99 161.05,326.15 161.38,326.53 161.72,326.65 162.05,326.66 162.39,326.70 162.72,326.93 163.06,326.88 163.39,326.94 163.73,326.86 164.06,326.86 164.40,326.80 164.73,326.75 165.07,326.68 165.40,326.59 165.74,326.42 166.07,326.34 166.41,326.13 166.74,326.15 167.08,326.21 167.41,326.37 167.75,326.13 168.08,326.40 168.42,326.48 168.75,326.31 169.09,326.25 169.42,325.98 169.76,326.21 170.09,325.99 170.43,325.66 170.76,326.11 171.10,326.35 171.43,326.18 171.77,325.44 172.10,325.45 172.44,325.33 172.77,325.54 173.11,324.88 173.44,324.79 173.78,325.05 174.11,325.29 174.45,323.66 174.78,323.78 175.12,324.55 175.45,323.87 175.79,323.69 176.12,322.28 176.46,322.06 176.79,320.88 177.13,319.13 177.46,317.90 177.80,319.04 178.13,319.16 178.47,318.84 178.80,319.61 179.14,318.70 179.47,317.34 179.81,318.03 180.14,317.54 180.48,317.30 180.81,317.74 181.15,317.74 181.48,316.23 181.82,317.40 182.15,315.16 182.49,315.81 182.82,314.24 183.16,311.80 183.49,314.44 183.83,312.69 184.16,313.84 184.50,312.65 184.83,314.03 185.17,313.40 185.50,312.96 185.84,311.61 186.17,311.95 186.51,316.38 186.84,317.21 187.18,318.48 187.51,317.11 187.85,317.14 188.18,313.30 188.52,312.51 188.85,314.13 189.19,314.40 189.52,315.27 189.86,313.07 190.19,315.84 190.53,317.49 190.86,316.90 191.20,316.62 191.53,316.08 191.87,316.95 192.20,318.08 192.54,324.04 192.87,324.24 193.21,325.15 193.54,323.45 193.88,324.90 194.21,326.58 194.55,326.88 194.88,323.72 195.22,323.74 195.55,324.53 195.89,323.74 196.22,319.98 196.56,321.37 196.89,319.01 197.23,319.74 197.56,317.09 197.90,315.93 198.23,315.04 198.57,316.39 198.90,315.07 199.24,312.89 199.57,316.43 199.91,317.94 200.24,318.40 200.58,320.39 200.91,318.14 201.25,321.59 201.58,318.98 201.92,317.96 202.25,316.74 202.59,314.75 202.92,315.19 203.26,314.63 203.59,313.08 203.93,313.41 204.26,314.06 204.60,314.08 204.93,313.75 205.27,317.54 205.60,317.93 205.94,317.60 206.27,319.41 206.61,321.98 206.94,323.34 207.28,319.25 207.61,316.27 207.95,315.83 208.28,311.63 208.62,312.41 208.95,312.78 209.29,313.30 209.62,312.25 209.96,316.28 210.29,312.58 210.63,312.40 210.96,309.17 211.30,306.24 211.63,305.48 211.97,306.52 212.30,305.75 212.64,306.77 212.97,311.02 213.31,309.76 213.64,307.53 213.98,310.51 214.31,309.08 214.65,308.35 214.98,311.15 215.32,312.31 215.65,311.28 215.99,308.88 216.32,310.22 216.66,310.15 216.99,308.87 217.33,306.75 217.66,302.56 218.00,304.69 218.33,301.45 218.67,297.68 219.00,295.16 219.34,296.33 219.67,290.79 220.01,289.81 220.34,290.82 220.68,290.05 221.01,288.18 221.35,286.44 221.68,284.69 222.02,286.40 222.35,289.61 222.69,292.01 223.02,295.42 223.36,294.30 223.69,297.82 224.03,293.90 224.36,298.55 224.70,295.59 225.03,294.02 225.37,291.57 225.70,291.98 226.04,291.10 226.37,294.58 226.71,297.47 227.04,295.27 227.38,297.33 227.71,300.30 228.05,300.38 228.38,299.79 228.72,300.82 229.05,304.89 229.39,299.48 229.72,297.83 230.06,295.83 230.39,291.88 230.73,287.18 231.06,287.82 231.40,286.27 231.73,285.70 232.07,282.74 232.40,280.41 232.74,282.87 233.07,279.70 233.41,275.21 233.74,276.23 234.08,276.58 234.41,275.88 234.75,282.49 235.08,282.11 235.42,285.47 235.75,290.29 236.09,287.81 236.42,290.26 236.76,294.33 237.09,297.94 237.43,297.74 237.76,299.08 238.10,294.73 238.43,286.26 238.77,286.50 239.10,291.02 239.44,290.76 239.77,283.76 240.11,282.80 240.44,287.04 240.78,292.92 241.11,298.46 241.45,293.90 241.78,295.03 242.12,299.63 242.45,298.77 242.79,293.04 243.12,300.69 243.46,290.44 243.79,290.48 244.13,285.52 244.46,281.93 244.80,276.92 245.13,276.93 245.47,277.74 245.80,278.49 246.14,280.56 246.47,283.56 246.81,284.62 247.14,285.31 247.48,287.16 247.81,283.61 248.15,292.66 248.48,294.35 248.82,281.90 249.15,283.68 249.49,281.41 249.82,290.69 250.16,288.32 250.49,283.95 250.83,286.46 251.16,285.16 251.50,280.73 251.83,283.90 252.17,287.28 252.50,290.35 252.84,281.09 253.17,287.66 253.51,281.60 253.84,281.09 254.18,276.21 254.51,275.70 254.85,276.51 255.18,275.22 255.52,274.09 255.85,277.33 256.19,277.28 256.52,269.69 256.86,264.36 257.19,263.40 257.53,258.47 257.86,266.61 258.20,272.65 258.53,271.65 258.87,268.83 259.20,273.66 259.54,270.91 259.87,272.19 260.21,280.86 260.54,279.71 260.88,284.42 261.21,286.47 261.55,287.56 261.88,294.80 262.22,296.47 262.55,291.31 262.89,292.18 263.22,293.93 263.56,287.52 263.89,285.23 264.23,283.41 264.56,285.00 264.90,277.25 265.23,282.54 265.57,278.41 265.90,283.09 266.24,282.51 266.57,274.79 266.91,285.53 267.24,283.93 267.58,280.09 267.91,279.75 268.25,275.97 268.58,282.83 268.92,280.71 269.25,277.69 269.59,276.75 269.92,272.96 270.26,267.41 270.59,265.75 270.93,263.39 271.26,267.35 271.60,273.13 271.93,276.38 272.27,267.71 272.60,268.54 272.94,264.51 273.27,272.36 273.61,270.56 273.94,268.40 274.28,266.85 274.61,273.82 274.95,266.74 275.28,263.53 275.62,265.39 275.95,264.60 276.29,265.72 276.62,268.59 276.96,257.25 277.29,252.72 277.63,258.89 277.96,259.67 278.30,264.61 278.63,264.63 278.97,266.27 279.30,274.12 279.64,274.63 279.97,272.21 280.31,278.74 280.64,281.52 280.98,273.81 281.31,272.99 281.65,271.74 281.98,275.40 282.32,276.85 282.65,271.34 282.99,267.70 283.32,265.04 283.66,268.30 283.99,263.61 284.33,257.58 284.66,254.61 285.00,258.74 285.33,266.79 285.67,264.54 286.00,262.03 286.34,264.52 286.67,260.40 287.01,259.77 287.34,259.57 287.68,263.95 288.01,269.31 288.35,266.32 288.68,269.78 289.02,277.27 289.35,279.73 289.69,276.85 290.02,275.99 290.36,269.95 290.69,275.47 291.03,273.44 291.36,269.59 291.70,269.11 292.03,277.68 292.37,277.10 292.70,280.47 293.04,278.06 293.37,275.41 293.71,265.54 294.04,263.88 294.38,269.17 294.71,274.52 295.05,272.50 295.38,272.12 295.72,269.72 296.05,275.22 296.39,279.64 296.72,288.30 297.06,289.24 297.39,287.31 297.73,289.69 298.06,296.18 298.40,285.50 298.73,281.85 299.07,282.40 299.40,282.07 299.74,290.37 300.07,289.38 300.41,298.83 300.74,291.77 301.08,298.76 301.41,303.53 301.75,304.69 302.08,315.06 302.42,316.89 302.75,319.17 303.09,319.26 303.42,319.16 303.76,316.49 304.09,311.92 304.43,312.38 304.76,311.20 305.10,312.17 305.43,315.11 305.77,319.15 306.10,319.20 306.44,327.06 306.77,331.39 307.11,325.04 307.44,321.74 307.78,329.67 308.11,332.98 308.45,334.57 308.78,337.70 309.12,338.76 309.45,336.80 309.79,336.95 310.12,340.68 310.46,340.90 310.79,333.39 311.13,327.46 311.46,325.07 311.80,324.97 312.13,324.41 312.47,331.24 312.80,332.09 313.14,336.52 313.47,336.46 313.81,334.04 314.14,334.89 314.48,334.75 314.81,337.34 315.15,343.35 315.48,348.36 315.82,350.24 316.15,352.46 316.49,345.26 316.82,338.01 317.16,341.82 317.49,348.82 317.83,352.53 318.16,352.72 318.50,357.03 318.83,354.85 319.17,351.66 319.50,355.60 319.84,351.02 320.17,351.37 320.51,347.59 320.84,355.75 321.18,353.28 321.51,360.66 321.85,365.66 322.18,365.82 322.52,369.54 322.85,365.65 323.19,365.90 323.52,368.94 323.86,367.44 324.19,363.72 324.53,361.78 324.86,361.78 325.20,363.43 325.53,360.03 325.87,358.07 326.20,353.29 326.54,350.64 326.87,352.67 327.21,350.74 327.54,350.08 327.88,348.42 328.21,348.79 328.55,346.67 328.88,348.19 329.22,349.62 329.55,346.71 329.89,344.49 330.22,343.31 330.56,340.62 330.89,338.69 331.23,337.87 331.56,337.58 331.90,341.13 332.23,344.88 332.57,343.43 332.90,341.85 333.24,345.41 333.57,341.64 333.91,340.85 334.24,343.91 334.58,342.78 334.91,344.78 335.25,344.26 335.58,346.74 335.92,345.94 336.25,345.61 336.59,344.92 336.92,342.98 337.26,344.07 337.59,343.96 337.93,344.46 338.26,344.58 338.60,343.15 338.93,342.01 339.27,342.39 339.60,340.53 339.94,341.82 340.27,342.84 340.61,341.34 340.94,342.36 341.28,342.19 341.61,339.83 341.95,339.82 342.28,338.10 342.62,335.88 342.95,334.11 343.29,330.81 343.62,329.67 343.96,331.61 344.29,331.00 344.63,331.34 344.96,332.04 345.30,332.67 345.63,331.56 345.97,333.24 346.30,330.60 346.64,330.05 346.97,332.51 347.31,333.33 347.64,334.40 347.98,336.34 348.31,336.19 348.65,338.54 348.98,335.97 349.32,334.28 349.65,334.86 349.99,335.32 350.32,334.95 350.66,336.28 350.99,335.03 351.33,334.77 351.66,335.26 352.00,334.56 352.33,335.03 352.67,335.28 353.00,336.89 353.34,337.66 353.67,338.54 354.01,338.36 354.34,341.47 354.68,342.95 355.01,343.67 355.35,342.27 355.68,342.90 356.02,343.13 356.35,342.52 356.69,341.73 357.02,339.35 357.36,339.47 357.69,339.55 358.03,339.36 358.36,339.35 358.70,339.16 359.03,338.86 359.37,339.48 359.70,338.91 360.04,339.25 360.37,338.88 360.71,336.93 361.04,337.06 361.38,336.73 361.71,337.82 362.05,337.01 362.38,335.88 362.72,336.80 363.05,337.65 363.39,337.76 363.72,337.11 364.06,337.31 364.39,337.03 364.73,337.17 365.06,337.89 365.40,339.21 365.73,340.83 366.07,339.17 366.40,339.17 366.74,340.68 367.07,341.10 367.41,339.82 367.74,340.09 368.08,340.72 368.41,340.83 368.75,339.81 369.08,338.82 369.42,339.01 369.75,339.59 370.09,339.57 370.42,338.88 370.76,338.71 371.09,339.59 371.43,339.69 371.76,340.37 372.10,340.22 372.43,340.60 372.77,340.70 373.10,340.77 373.44,340.59 373.77,340.95 374.11,340.75 374.44,341.16 374.78,341.35 375.11,341.95 375.45,342.38 375.78,342.52 376.12,342.62 376.45,342.45 376.79,342.15 377.12,342.59 377.46,342.19 377.79,341.82 378.13,341.79 378.46,341.91 378.80,341.86 379.13,341.70 379.47,341.59 379.80,341.41 380.14,341.19 380.47,341.13 380.81,340.90 381.14,340.80 381.48,340.66 381.81,340.63 382.15,340.51 382.48,340.48 382.82,340.39 383.15,340.33 383.49,340.26 383.82,340.15 384.16,340.19 384.49,340.11 384.83,340.26 385.16,340.58 385.50,340.45 385.83,340.68 386.17,340.83 386.50,340.51 386.84,340.16 387.17,339.86 387.51,340.23 387.84,339.99 388.18,340.41 388.51,340.89 388.85,340.94 389.18,340.98 389.52,340.59 389.85,340.45 390.19,340.41 390.52,340.20 390.86,340.45 391.19,340.53 391.53,340.76 391.86,341.15 392.20,340.65 392.53,339.60 392.87,340.01 393.20,340.07 393.54,340.87 393.87,341.07 394.21,341.09 394.54,340.92 394.88,341.13 395.21,340.93 395.55,341.17 395.88,340.96 396.22,341.23 396.55,341.05 396.89,341.32 397.22,341.23 397.56,341.04 397.89,340.94 398.23,340.86 398.56,340.15 398.90,340.06 399.23,340.19 399.57,340.13 399.90,340.18 400.24,339.77 400.57,340.09 400.91,339.75 401.24,338.99 401.58,339.05 401.91,338.53 402.25,338.92 402.58,338.67 402.92,338.65 403.25,338.07 403.59,338.60 403.92,338.14 404.26,338.33 404.59,337.35 404.93,336.98 405.26,336.82 405.60,335.74 405.93,334.91 406.27,334.51 406.60,335.43 406.94,335.49 407.27,334.13 407.61,334.61 407.94,335.13 408.28,334.12 408.61,332.67 408.95,334.00 409.28,334.69 409.62,334.17 409.95,333.30 410.29,332.25 410.62,332.64 410.96,332.80 411.29,331.68 411.63,331.16 411.96,330.25 412.30,330.26 412.63,330.41 412.97,329.84 413.30,328.45 413.64,328.21 413.97,325.57 414.31,324.12 414.64,323.40 414.98,323.84 415.31,321.77 415.65,319.17 415.98,318.47 416.32,316.91 416.65,316.09 416.99,316.35 417.32,315.61 417.66,310.68 417.99,310.39 418.33,312.26 418.66,309.95 419.00,308.55 419.33,308.36 419.67,307.61 420.00,306.80 420.34,304.26 420.67,301.80 421.01,303.40 421.34,300.16 421.68,298.24 422.01,295.56 422.35,296.93 422.68,294.28 423.02,291.67 423.35,292.61 423.69,292.36 424.02,290.23 424.36,287.71 424.69,289.01 425.03,287.74 425.36,287.02 425.70,285.12 426.03,281.30 426.37,280.85 426.70,284.60 427.04,286.07 427.37,285.14 427.71,285.53 428.04,288.41 428.38,289.50 428.71,287.25 429.05,289.29 429.38,286.00 429.72,283.66 430.05,285.77 430.39,283.67 430.72,281.42 431.06,279.81 431.39,280.73 431.73,277.66 432.06,277.88 432.40,278.64 432.73,281.39 433.07,280.30 433.40,277.47 433.74,283.96 434.07,277.39 434.41,272.45 434.74,274.35 435.08,276.37 435.41,276.26 435.75,272.69 436.08,275.76 436.42,273.12 436.75,273.96 437.09,268.50 437.42,269.61 437.76,272.10 438.09,268.90 438.43,270.71 438.76,274.41 439.10,270.21 439.43,270.86 439.77,268.48 440.10,265.14 440.44,262.97 440.77,265.17 441.11,263.76 441.44,269.27 441.78,266.24 442.11,270.06 442.45,267.69 442.78,267.58 443.12,265.04 443.45,264.64 443.79,265.22 444.12,266.85 444.46,271.48 444.79,264.78 445.13,265.17 445.46,262.96 445.80,263.20 446.13,261.87 446.47,257.75 446.80,256.21 447.14,261.97 447.47,264.45 447.81,260.01 448.14,262.63 448.48,263.26 448.81,268.97 449.15,276.11 449.48,274.96 449.82,272.99 450.15,276.33 450.49,275.85 450.82,274.28 451.16,276.88 451.49,283.90 451.83,278.87 452.16,278.51 452.50,278.99 452.83,274.31 453.17,273.66 453.50,268.93 453.84,269.33 454.17,267.58 454.51,270.06 454.84,278.72 455.18,278.17 455.51,271.13 455.85,268.04 456.18,275.34 456.52,281.10 456.85,284.18 457.19,288.46 457.52,291.32 457.86,292.03 458.19,286.67 458.53,289.28 458.86,287.50 459.20,288.04 459.53,279.14 459.87,279.34 460.20,273.70 460.54,274.12 460.87,272.02 461.21,268.11 461.54,273.37 461.88,271.91 462.21,267.69 462.55,268.87 462.88,268.77 463.22,269.60 463.55,267.58 463.89,271.42 464.22,270.22 464.56,270.90 464.89,265.56 465.23,268.36 465.56,268.60 465.90,271.67 466.23,272.11 466.57,278.02 466.90,279.33 467.24,280.79 467.57,281.06 467.91,278.28 468.24,272.63 468.58,273.81 468.91,270.02 469.25,270.10 469.58,270.80 469.92,269.47 470.25,271.43 470.59,265.46 470.92,265.75 471.26,265.68 471.59,261.98 471.93,258.33 472.26,262.24 472.60,265.45 472.93,263.42 473.27,263.32 473.60,262.79 473.94,268.00 474.27,271.49 474.61,275.60 474.94,276.56 475.28,280.10 475.61,285.08 475.95,283.26 476.28,279.40 476.62,276.27 476.95,280.60 477.29,284.95 477.62,283.67 477.96,285.51 478.29,293.09 478.63,295.90 478.96,291.50 479.30,293.09 479.63,291.34 479.97,293.67 480.30,295.43 480.64,291.21 480.97,288.52 481.31,289.23 481.64,289.96 481.98,288.16 482.31,289.50 482.65,287.16 482.98,290.72 483.32,292.01 483.65,290.32 483.99,292.81 484.32,292.87 484.66,294.27 484.99,295.56 485.33,296.83 485.66,299.82 486.00,302.67 486.33,303.14 486.67,307.77 487.00,313.02 487.34,312.10 487.67,308.95 488.01,305.30 488.34,304.47 488.68,305.40 489.01,308.62 489.35,311.18 489.68,310.78 490.02,310.39 490.35,313.69 490.69,313.78 491.02,315.89 491.36,315.62 491.69,318.87 492.03,317.80 492.36,321.49 492.70,322.95 493.03,325.28 493.37,326.30 493.70,325.50 494.04,326.92 494.37,328.02 494.71,328.30 495.04,327.01 495.38,330.64 495.71,329.26 496.05,326.83 496.38,326.37 496.72,323.31 497.05,323.81 497.39,324.72 497.72,326.30 498.06,326.91 498.39,329.41 498.73,327.16 499.06,326.44 499.40,326.16 499.73,326.25 500.07,326.08 500.40,326.70 500.74,327.96 501.07,326.48 501.41,323.42 501.74,323.18 502.08,322.82 502.41,321.73 502.75,321.37 503.08,321.57 503.42,322.10 503.75,320.75 504.09,319.64 504.42,320.39 504.76,322.12 505.09,322.26 505.43,321.95 505.76,322.67 506.10,321.60 506.43,320.19 506.77,321.09 507.10,320.12 507.44,318.75 507.77,319.06 508.11,321.07 508.44,320.25 508.78,320.67 509.11,321.34 509.45,322.00 509.78,321.52 510.12,320.19 510.45,321.19 510.79,320.95 511.12,319.57 511.46,320.00 511.79,320.19 512.13,320.00 512.46,319.03 512.80,319.79 513.13,320.03 513.47,318.74 513.80,320.03 514.14,319.03 514.47,318.18 514.81,319.14 515.14,317.33 515.48,317.68 515.81,318.04 516.15,318.54 516.48,318.45 516.82,319.32 517.15,318.78 517.49,317.23 517.82,316.44 518.16,317.75 518.49,317.81 518.83,317.54 519.16,319.15 519.50,320.67 519.83,322.14 520.17,323.11 520.50,322.89 520.84,322.90 521.17,322.25 521.51,320.23 521.84,319.49 522.18,319.69 522.51,319.77 522.85,318.75 523.18,318.40 523.52,319.34 523.85,319.48 524.19,320.50 524.52,319.95 524.86,320.38 525.19,319.79 525.53,318.03 525.86,318.89 526.20,319.91 526.53,318.33 526.87,317.82 527.20,316.86 527.54,316.01 527.87,316.50 528.21,316.52 528.54,317.03 528.88,317.12 529.21,317.37 529.55,317.22 529.88,317.83 530.22,317.96 530.55,316.39 530.89,316.38 531.22,316.21 531.56,315.17 531.89,315.58 532.23,314.67 532.56,315.82 532.90,315.97 533.23,318.24 533.57,318.15 533.90,318.19 534.24,320.08 534.57,319.99 534.91,320.44 535.24,321.09 535.58,321.78 535.91,321.99 536.25,322.16 536.58,321.96 536.92,319.90 537.25,318.82 537.59,318.65 537.92,319.19 538.26,319.46 538.59,319.44 538.93,318.78 539.26,318.27 539.60,318.89 539.93,318.29 540.27,317.96 540.60,317.70 540.94,317.60 541.27,317.76 541.61,317.72 541.94,317.09 542.28,317.72 542.61,317.51 542.95,317.67 543.28,318.18 543.62,318.89 543.95,318.37 544.29,317.51 544.62,317.63 544.96,317.44 545.29,317.83 545.63,318.46 545.96,319.33 546.30,319.88 546.63,320.65 546.97,319.76 547.30,320.25 547.64,319.37 547.97,319.49 548.31,318.79 548.64,318.83 548.98,319.29 549.31,318.17 549.65,318.90 549.98,320.12 550.32,319.46 550.65,319.68 550.99,320.10 551.32,321.14 551.66,320.92 551.99,320.65 552.33,321.00 552.66,321.23 553.00,321.66 553.33,321.90 553.67,322.18 554.00,322.39 554.34,322.11 554.67,322.37 555.01,322.44 555.34,322.67 555.68,322.58 556.01,322.33 556.35,322.28 556.68,322.07 557.02,322.16 557.35,321.88 557.69,321.77 558.02,321.33 558.36,321.21 558.69,321.14 559.03,321.10 559.36,320.95 559.70,321.21 560.03,321.33 560.37,321.26 560.70,321.14 561.04,321.24 561.37,321.16 561.71,321.12 562.04,321.00 562.38,320.92 562.71,320.74 563.05,320.63 563.38,320.46 563.72,320.19 564.05,320.37 564.39,320.40 564.72,320.15 565.06,320.34 565.39,320.08 565.73,319.92 566.06,319.71 566.40,319.57 566.73,319.87 567.07,319.58 567.40,319.88 567.74,320.01 568.07,320.54 568.41,320.98 568.74,320.47 569.08,320.59 569.41,320.35 569.75,320.14 570.08,320.90 570.42,321.46 570.75,322.24 571.09,322.22 571.42,322.46 571.76,323.23 572.09,322.88 572.43,322.18 572.76,321.34 573.10,320.84 573.43,321.90 573.77,322.56 574.10,322.25 574.44,321.93 574.77,322.59 575.11,322.96 575.44,322.87 575.78,322.75 576.11,322.37 576.45,322.32 576.78,322.06 577.12,321.87 577.45,321.83 577.79,322.63 578.12,323.31 578.46,323.83 578.79,323.95 579.13,324.18 579.46,324.18 579.80,324.10 580.13,324.00 580.47,323.43 580.80,323.65 581.14,323.16 581.47,323.40 581.81,323.79 582.14,323.89 582.48,324.00 582.81,324.06 583.15,323.93 583.48,323.82 583.82,323.69 584.15,323.66 584.49,323.65 584.82,323.61 585.16,323.52 585.49,323.46 585.83,323.38 586.16,323.26 586.50,323.13 586.83,323.06 587.17,323.14 587.50,323.03 587.84,322.89 588.17,322.46 588.51,322.48 588.84,322.34 589.18,322.44 589.51,322.18 589.85,322.21 590.18,321.62 590.52,321.38 590.85,320.48 591.19,320.60 591.52,320.84 591.86,319.27 592.19,320.10 592.53,319.86 592.86,320.46 593.20,320.40 593.53,321.42 593.87,321.55 594.20,321.15 594.54,321.47 594.87,319.64 595.21,320.58 595.54,321.67 595.88,321.97 596.21,322.59 596.55,322.46 596.88,322.33 597.22,323.68 597.55,322.72 597.89,322.64 598.22,321.93 598.56,322.11 598.89,321.27 599.23,319.28 599.56,319.23 599.90,319.80 600.23,318.59 600.57,318.14 600.90,318.45 601.24,317.52 601.57,319.08 601.91,320.22 602.24,320.58 602.58,319.69 602.91,317.93 603.25,318.39 603.58,317.95 603.92,319.48 604.25,318.17 604.59,317.57 604.92,315.92 605.26,315.88 605.59,315.49 605.93,310.61 606.26,309.97 606.60,307.61 606.93,308.46 607.27,309.94 607.60,310.17 607.94,307.34 608.27,307.70 608.61,308.31 608.94,305.38 609.28,304.13 609.61,305.00 609.95,306.64 610.28,305.83 610.62,302.18 610.95,301.99 611.29,298.51 611.62,294.70 611.96,294.30 612.29,293.15 612.63,292.92 612.96,293.14 613.30,292.31 613.63,290.36 613.97,290.94 614.30,289.59 614.64,290.68 614.97,292.99 615.31,293.71 615.64,293.20 615.98,290.31 616.31,294.01 616.65,292.85 616.98,292.73 617.32,289.27 617.65,285.09 617.99,286.94 618.32,285.02 618.66,286.56 618.99,285.69 619.33,283.99 619.66,285.07 620.00,284.65 620.33,279.35 620.67,274.95 621.00,272.50 621.34,269.08 621.67,272.58 622.01,267.80 622.34,263.24 622.68,262.89 623.01,260.27 623.35,259.45 623.68,261.32 624.02,259.44 624.35,252.12 624.69,257.11 625.02,256.69 625.36,256.72 625.69,252.29 626.03,250.87 626.36,249.58 626.70,244.26 627.03,242.68 627.37,242.65 627.70,243.48 628.04,242.72 628.37,238.20 628.71,239.75 629.04,239.94 629.38,237.98 629.71,235.63 630.05,240.99 630.38,236.10 630.72,230.74 631.05,229.37 631.39,228.05 631.72,231.08 632.06,232.85 632.39,233.95 632.73,230.01 633.06,226.68 633.40,226.20 633.73,221.99 634.07,226.91 634.40,223.94 634.74,221.45 635.07,225.74 635.41,223.78 635.74,230.14 636.08,227.65 636.41,227.07 636.75,232.37 637.08,227.59 637.42,227.99 637.75,221.79 638.09,215.33 638.42,210.63 638.76,205.61 639.09,207.96 639.43,203.46 639.76,207.47 640.10,202.06 640.43,202.15 640.77,203.23 641.10,201.30 641.44,197.21 641.77,194.45 642.11,196.84 642.44,192.70 642.78,197.16 643.11,198.68 643.45,193.12 643.78,192.17 644.12,191.94 644.45,194.31 644.79,195.69 645.12,192.21 645.46,191.42 645.79,191.72 646.13,188.87 646.46,191.33 646.80,184.92 647.13,182.73 647.47,189.07 647.80,190.25 648.14,188.25 648.47,187.20 648.81,188.52 649.14,192.99 649.48,190.59 649.81,195.47 650.15,196.75 650.48,195.48 650.82,188.43 651.15,186.06 651.49,190.92 651.82,191.94 652.16,187.94 652.49,187.10 652.83,192.59 653.16,190.34 653.50,185.83 653.83,181.99 654.17,182.23 654.50,175.12 654.84,170.34 655.17,168.55 655.51,168.06 655.84,169.36 656.18,175.49 656.51,163.05 656.85,163.77 657.18,160.76 657.52,155.02 657.85,145.28 658.19,137.59 658.52,144.67 658.86,145.37 659.19,144.89 659.53,150.78 659.86,149.77 660.20,147.63 660.53,145.28 660.87,152.53 661.20,154.47 661.54,150.16 661.87,150.96 662.21,144.75 662.54,144.53 662.88,150.01 663.21,146.56 663.55,140.57 663.88,145.52 664.22,148.42 664.55,151.14 664.89,151.84 665.22,155.88 665.56,163.94 665.89,166.98 666.23,179.42 666.56,180.35 666.90,185.25 667.23,178.11 667.57,177.65 667.90,179.61 668.24,171.62 668.57,167.93 668.91,160.29 669.24,165.21 669.58,169.52 669.91,163.91 670.25,161.74 670.58,164.38 670.92,166.22 671.25,165.94 671.59,158.60 671.92,158.26 672.26,160.50 672.59,157.61 672.93,157.14 673.26,166.81 673.60,171.98 673.93,175.37 674.27,157.81 674.60,162.27 674.94,158.43 675.27,159.36 675.61,154.21 675.94,156.11 676.28,140.39 676.61,133.90 676.95,135.68 677.28,139.48 677.62,133.92 677.95,134.56 678.29,130.69 678.62,135.45 678.96,137.08 679.29,142.14 679.63,143.07 679.96,144.48 680.30,155.72 680.63,156.22 680.97,158.42 681.30,156.78 681.64,150.31 681.97,152.67 682.31,151.55 682.64,151.67 682.98,155.30 683.31,155.06 683.65,147.35 683.98,151.62 684.32,144.19 684.65,145.02 684.99,147.16 685.32,145.72 685.66,144.08 685.99,152.30 686.33,152.69 686.66,157.72 687.00,149.05 687.33,142.41 687.67,154.45 688.00,145.16 688.34,139.26 688.67,137.86 689.01,144.11 689.34,147.64 689.68,141.16 690.01,140.22 690.35,148.69 690.68,148.65 691.02,146.51 691.35,126.25 691.69,134.20 692.02,134.77 692.36,135.67 692.69,132.03 693.03,135.80 693.36,140.10 693.70,141.98 694.03,141.34 694.37,140.18 694.70,149.47 695.04,145.71 695.37,146.04 695.71,142.79 696.04,144.22 696.38,134.81 696.71,128.97 697.05,136.80 697.38,133.18 697.72,132.98 698.05,133.16 698.39,129.21 698.72,139.26 699.06,134.68 699.39,125.54 699.73,126.37 700.06,126.61 700.40,117.60 700.73,121.24 701.07,118.94 701.40,126.70 701.74,128.49 702.07,122.34 702.41,116.04 702.74,118.13 703.08,113.97 703.41,117.50 703.75,110.51 704.08,109.09 704.42,105.34 704.75,107.23 705.09,113.23 705.42,119.95 705.76,126.63 706.09,106.56 706.43,99.34 706.76,92.23 707.10,101.18 707.43,101.99 707.77,106.27 708.10,99.41 708.44,109.24 708.77,104.18 709.11,95.01 709.44,99.11 709.78,109.39 710.11,102.18 710.45,97.62 710.78,96.72 711.12,100.59 711.45,97.15 711.79,99.52 712.12,107.45 712.46,105.41 712.79,107.26 713.13,111.38 713.46,107.75 713.80,114.13 714.13,110.34 714.47,127.92 714.80,134.47 715.14,135.45 715.47,144.17 715.81,165.02 716.14,173.01 716.48,155.91 716.81,152.52 717.15,147.31 717.48,138.54 717.82,132.98 718.15,111.97 718.49,109.52 718.82,112.99 719.16,122.98 719.49,122.69 719.83,121.51 720.16,108.53 720.50,95.04 720.83,95.00 721.17,94.93 721.50,82.66 721.84,80.92 722.17,84.27 722.51,98.32 722.84,95.36 723.18,92.40 723.51,77.26 723.85,81.74 724.18,83.20 724.52,93.88 724.85,98.44 725.19,107.85 725.52,99.97 725.86,109.60 726.19,119.98 726.53,127.38 726.86,135.42 727.20,140.03 727.53,137.27 727.87,137.65 728.20,127.15 728.54,129.71 728.87,135.01 729.21,131.47 729.54,119.44 729.88,107.74 730.21,89.74 730.55,96.10 730.88,105.12 731.22,108.14 731.55,114.98 731.89,116.82 732.22,103.13 732.56,101.39 732.89,91.96 733.23,88.80 733.56,85.92 733.90,99.20 734.23,101.52 734.57,108.10 734.90,120.23 735.24,117.93 735.57,108.83 735.91,106.08 736.24,106.03 736.58,100.52 736.91,88.64 737.25,87.56 737.58,88.77 737.92,81.68 738.25,85.01 738.59,84.70 738.92,90.38 739.26,96.66 739.59,100.03 739.93,102.02 740.26,108.25 740.60,108.75 740.93,115.29 741.27,117.30 741.60,122.41 741.94,107.98 742.27,121.47 742.61,120.36 742.94,109.30 743.28,123.03 743.61,133.08 743.95,119.25 744.28,124.08 744.62,121.39 744.95,123.78 745.29,124.93 745.62,112.06 745.96,115.61 746.29,106.43 746.63,99.41 746.96,91.06 747.30,85.14 747.63,88.11 747.97,71.52 748.30,77.43 748.64,76.59 748.97,94.49 749.31,105.32 749.64,108.28 749.98,100.66 750.31,118.54 750.65,102.44 750.98,94.17 751.32,96.41 751.65,109.98 751.99,105.52 752.32,93.27 752.66,100.47 752.99,101.93 753.33,104.48 753.66,109.15 754.00,98.35 754.33,110.82 754.67,108.48 755.00,116.06"/>
<line x1="783" y1="82" x2="809" y2="82" stroke="#dc2626" stroke-width="3"/>
<text x="817" y="86" font-family="Arial" font-size="13" fill="#111827">Avellaneda Stoikov</text>
<text x="420.0" y="518" text-anchor="middle" font-family="Arial" font-size="14" fill="#111827">Event index</text>
<text x="22" y="256.0" text-anchor="middle" transform="rotate(-90 22 256.0)" font-family="Arial" font-size="14" fill="#111827">Net PnL after fees</text>
</svg>
