<svg xmlns="http://www.w3.org/2000/svg" width="900" height="520" viewBox="0 0 900 520">
<rect width="100%" height="100%" fill="#ffffff"/>
<text x="450.0" y="24" text-anchor="middle" font-family="Arial" font-size="18" fill="#111827">Order Processing Latency CDF</text>
<line x1="80" y1="450" x2="870" y2="450" stroke="#111827" stroke-width="1"/>
<line x1="80" y1="35" x2="80" y2="450" stroke="#111827" stroke-width="1"/>
<line x1="80.00" y1="35" x2="80.00" y2="450" stroke="#e5e7eb" stroke-width="1"/>
<text x="80.00" y="474" text-anchor="middle" font-family="Arial" font-size="12" fill="#374151">0.00</text>
<line x1="277.50" y1="35" x2="277.50" y2="450" stroke="#e5e7eb" stroke-width="1"/>
<text x="277.50" y="474" text-anchor="middle" font-family="Arial" font-size="12" fill="#374151">370.42</text>
<line x1="475.00" y1="35" x2="475.00" y2="450" stroke="#e5e7eb" stroke-width="1"/>
<text x="475.00" y="474" text-anchor="middle" font-family="Arial" font-size="12" fill="#374151">740.83</text>
<line x1="672.50" y1="35" x2="672.50" y2="450" stroke="#e5e7eb" stroke-width="1"/>
<text x="672.50" y="474" text-anchor="middle" font-family="Arial" font-size="12" fill="#374151">1111.25</text>
<line x1="870.00" y1="35" x2="870.00" y2="450" stroke="#e5e7eb" stroke-width="1"/>
<text x="870.00" y="474" text-anchor="middle" font-family="Arial" font-size="12" fill="#374151">1481.67</text>
<line x1="80" y1="450.00" x2="870" y2="450.00" stroke="#e5e7eb" stroke-width="1"/>
<text x="68" y="454.00" text-anchor="end" font-family="Arial" font-size="12" fill="#374151">0.00</text>
<line x1="80" y1="346.25" x2="870" y2="346.25" stroke="#e5e7eb" stroke-width="1"/>
<text x="68" y="350.25" text-anchor="end" font-family="Arial" font-size="12" fill="#374151">0.25</text>
<line x1="80" y1="242.50" x2="870" y2="242.50" stroke="#e5e7eb" stroke-width="1"/>
<text x="68" y="246.50" text-anchor="end" font-family="Arial" font-size="12" fill="#374151">0.50</text>
<line x1="80" y1="138.75" x2="870" y2="138.75" stroke="#e5e7eb" stroke-width="1"/>
<text x="68" y="142.75" text-anchor="end" font-family="Arial" font-size="12" fill="#374151">0.75</text>
<line x1="80" y1="35.00" x2="870" y2="35.00" stroke="#e5e7eb" stroke-width="1"/>
<text x="68" y="39.00" text-anchor="end" font-family="Arial" font-size="12" fill="#374151">1.00</text>
<polyline fill="none" stroke="#2563eb" stroke-width="2" points="80.00,450.00 80.02,449.58 80.02,449.17 80.02,448.75 80.02,448.34 80.02,447.92 80.02,447.51 80.02,447.09 80.02,446.68 80.02,446.26 80.02,445.85 80.02,445.43 80.02,445.02 80.02,444.60 80.02,444.18 80.02,443.77 80.02,443.35 80.02,442.94 80.02,442.52 80.02,442.11 80.02,441.69 80.02,441.28 80.02,440.86 80.02,440.45 80.02,440.03 80.02,439.61 80.02,439.20 80.02,438.78 80.02,438.37 80.02,437.95 80.02,437.54 80.02,437.12 80.02,436.71 80.02,436.29 80.02,435.88 80.02,435.46 80.02,435.05 80.02,434.63 80.02,434.21 80.02,433.80 80.02,433.38 80.02,432.97 80.02,432.55 80.04,432.14 80.04,431.72 80.04,431.31 80.04,430.89 80.04,430.48 80.04,430.06 80.04,429.64 80.04,429.23 80.04,428.81 80.04,428.40 80.04,427.98 80.04,427.57 80.04,427.15 80.04,426.74 80.04,426.32 80.04,425.91 80.04,425.49 80.04,425.08 80.04,424.66 80.04,424.24 80.04,423.83 80.04,423.41 80.04,423.00 80.04,422.58 80.04,422.17 80.04,421.75 80.04,421.34 80.04,420.92 80.04,420.51 80.04,420.09 80.04,419.67 80.04,419.26 80.04,418.84 80.04,418.43 80.04,418.01 80.04,417.60 80.04,417.18 80.04,416.77 80.04,416.35 80.04,415.94 80.04,415.52 80.04,415.11 80.04,414.69 80.04,414.27 80.04,413.86 80.04,413.44 80.04,413.03 80.04,412.61 80.04,412.20 80.04,411.78 80.04,411.37 80.04,410.95 80.04,410.54 80.04,410.12 80.04,409.70 80.04,409.29 80.04,408.87 80.04,408.46 80.04,408.04 80.04,407.63 80.04,407.21 80.04,406.80 80.04,406.38 80.04,405.97 80.04,405.55 80.04,405.14 80.04,404.72 80.04,404.30 80.04,403.89 80.04,403.47 80.04,403.06 80.04,402.64 80.04,402.23 80.04,401.81 80.04,401.40 80.04,400.98 80.04,400.57 80.04,400.15 80.04,399.73 80.04,399.32 80.04,398.90 80.04,398.49 80.04,398.07 80.04,397.66 80.04,397.24 80.04,396.83 80.04,396.41 80.04,396.00 80.04,395.58 80.04,395.17 80.04,394.75 80.04,394.33 80.04,393.92 80.04,393.50 80.04,393.09 80.04,392.67 80.04,392.26 80.04,391.84 80.04,391.43 80.04,391.01 80.04,390.60 80.04,390.18 80.04,389.76 80.04,389.35 80.04,388.93 80.04,388.52 80.04,388.10 80.04,387.69 80.04,387.27 80.04,386.86 80.04,386.44 80.04,386.03 80.04,385.61 80.04,385.20 80.04,384.78 80.04,384.36 80.04,383.95 80.04,383.53 80.04,383.12 80.04,382.70 80.04,382.29 80.04,381.87 80.04,381.46 80.04,381.04 80.04,380.63 80.04,380.21 80.04,379.79 80.04,379.38 80.04,378.96 80.04,378.55 80.04,378.13 80.04,377.72 80.04,377.30 80.04,376.89 80.04,376.47 80.04,376.06 80.04,375.64 80.04,375.23 80.04,374.81 80.04,374.39 80.04,373.98 80.04,373.56 80.04,373.15 80.04,372.73 80.04,372.32 80.04,371.90 80.04,371.49 80.04,371.07 80.04,370.66 80.04,370.24 80.04,369.82 80.04,369.41 80.04,368.99 80.04,368.58 80.04,368.16 80.04,367.75 80.04,367.33 80.04,366.92 80.04,366.50 80.04,366.09 80.04,365.67 80.04,365.26 80.04,364.84 80.04,364.42 80.04,364.01 80.04,363.59 80.04,363.18 80.04,362.76 80.04,362.35 80.04,361.93 80.04,361.52 80.04,361.10 80.04,360.69 80.04,360.27 80.04,359.85 80.04,359.44 80.04,359.02 80.04,358.61 80.04,358.19 80.04,357.78 80.04,357.36 80.04,356.95 80.04,356.53 80.04,356.12 80.04,355.70 80.04,355.29 80.04,354.87 80.04,354.45 80.04,354.04 80.04,353.62 80.04,353.21 80.04,352.79 80.04,352.38 80.04,351.96 80.04,351.55 80.04,351.13 80.04,350.72 80.04,350.30 80.04,349.88 80.04,349.47 80.04,349.05 80.04,348.64 80.04,348.22 80.04,347.81 80.04,347.39 80.04,346.98 80.04,346.56 80.04,346.15 80.04,345.73 80.04,345.32 80.04,344.90 80.04,344.48 80.04,344.07 80.04,343.65 80.04,343.24 80.04,342.82 80.04,342.41 80.07,341.99 80.07,341.58 80.07,341.16 80.07,340.75 80.07,340.33 80.07,339.91 80.07,339.50 80.07,339.08 80.07,338.67 80.07,338.25 80.07,337.84 80.07,337.42 80.07,337.01 80.07,336.59 80.07,336.18 80.07,335.76 80.07,335.35 80.07,334.93 80.07,334.51 80.07,334.10 80.07,333.68 80.07,333.27 80.07,332.85 80.07,332.44 80.07,332.02 80.07,331.61 80.07,331.19 80.07,330.78 80.07,330.36 80.07,329.94 80.07,329.53 80.07,329.11 80.07,328.70 80.07,328.28 80.07,327.87 80.07,327.45 80.07,327.04 80.07,326.62 80.07,326.21 80.07,325.79 80.07,325.38 80.07,324.96 80.07,324.54 80.07,324.13 80.07,323.71 80.07,323.30 80.07,322.88 80.07,322.47 80.07,322.05 80.07,321.64 80.07,321.22 80.07,320.81 80.07,320.39 80.07,319.97 80.07,319.56 80.07,319.14 80.07,318.73 80.07,318.31 80.07,317.90 80.07,317.48 80.07,317.07 80.07,316.65 80.07,316.24 80.07,315.82 80.07,315.41 80.07,314.99 80.07,314.57 80.07,314.16 80.07,313.74 80.07,313.33 80.07,312.91 80.07,312.50 80.07,312.08 80.07,311.67 80.07,311.25 80.07,310.84 80.07,310.42 80.07,310.01 80.07,309.59 80.07,309.17 80.07,308.76 80.07,308.34 80.07,307.93 80.07,307.51 80.07,307.10 80.07,306.68 80.07,306.27 80.07,305.85 80.07,305.44 80.07,305.02 80.07,304.60 80.07,304.19 80.07,303.77 80.07,303.36 80.07,302.94 80.07,302.53 80.07,302.11 80.07,301.70 80.07,301.28 80.07,300.87 80.07,300.45 80.07,300.04 80.07,299.62 80.07,299.20 80.07,298.79 80.07,298.37 80.07,297.96 80.07,297.54 80.07,297.13 80.07,296.71 80.07,296.30 80.07,295.88 80.07,295.47 80.07,295.05 80.07,294.63 80.07,294.22 80.07,293.80 80.07,293.39 80.07,292.97 80.07,292.56 80.07,292.14 80.07,291.73 80.07,291.31 80.07,290.90 80.07,290.48 80.07,290.07 80.07,289.65 80.07,289.23 80.07,288.82 80.07,288.40 80.07,287.99 80.07,287.57 80.07,287.16 80.07,286.74 80.07,286.33 80.07,285.91 80.07,285.50 80.07,285.08 80.07,284.66 80.07,284.25 80.07,283.83 80.07,283.42 80.07,283.00 80.07,282.59 80.07,282.17 80.07,281.76 80.07,281.34 80.07,280.93 80.07,280.51 80.07,280.10 80.07,279.68 80.07,279.26 80.07,278.85 80.07,278.43 80.07,278.02 80.07,277.60 80.07,277.19 80.07,276.77 80.07,276.36 80.07,275.94 80.07,275.53 80.07,275.11 80.07,274.69 80.07,274.28 80.07,273.86 80.07,273.45 80.07,273.03 80.07,272.62 80.07,272.20 80.07,271.79 80.07,271.37 80.07,270.96 80.07,270.54 80.07,270.13 80.07,269.71 80.07,269.29 80.07,268.88 80.07,268.46 80.07,268.05 80.07,267.63 80.07,267.22 80.07,266.80 80.07,266.39 80.07,265.97 80.07,265.56 80.07,265.14 80.07,264.72 80.07,264.31 80.07,263.89 80.07,263.48 80.07,263.06 80.07,262.65 80.07,262.23 80.07,261.82 80.07,261.40 80.07,260.99 80.07,260.57 80.07,260.16 80.07,259.74 80.07,259.32 80.07,258.91 80.07,258.49 80.07,258.08 80.07,257.66 80.07,257.25 80.07,256.83 80.07,256.42 80.07,256.00 80.07,255.59 80.07,255.17 80.07,254.75 80.07,254.34 80.07,253.92 80.07,253.51 80.07,253.09 80.07,252.68 80.07,252.26 80.07,251.85 80.07,251.43 80.07,251.02 80.07,250.60 80.07,250.19 80.07,249.77 80.07,249.35 80.07,248.94 80.07,248.52 80.07,248.11 80.07,247.69 80.07,247.28 80.07,246.86 80.07,246.45 80.07,246.03 80.07,245.62 80.07,245.20 80.07,244.78 80.07,244.37 80.07,243.95 80.07,243.54 80.07,243.12 80.07,242.71 80.07,242.29 80.07,241.88 80.07,241.46 80.07,241.05 80.07,240.63 80.07,240.22 80.07,239.80 80.07,239.38 80.07,238.97 80.07,238.55 80.07,238.14 80.07,237.72 80.07,237.31 80.07,236.89 80.07,236.48 80.07,236.06 80.07,235.65 80.07,235.23 80.07,234.81 80.07,234.40 80.07,233.98 80.07,233.57 80.07,233.15 80.07,232.74 80.07,232.32 80.07,231.91 80.07,231.49 80.07,231.08 80.07,230.66 80.07,230.25 80.07,229.83 80.07,229.41 80.07,229.00 80.07,228.58 80.07,228.17 80.07,227.75 80.07,227.34 80.07,226.92 80.07,226.51 80.07,226.09 80.07,225.68 80.07,225.26 80.07,224.84 80.07,224.43 80.07,224.01 80.07,223.60 80.07,223.18 80.07,222.77 80.07,222.35 80.07,221.94 80.07,221.52 80.07,221.11 80.07,220.69 80.07,220.28 80.07,219.86 80.07,219.44 80.07,219.03 80.07,218.61 80.07,218.20 80.07,217.78 80.07,217.37 80.07,216.95 80.07,216.54 80.07,216.12 80.07,215.71 80.07,215.29 80.07,214.87 80.07,214.46 80.07,214.04 80.07,213.63 80.07,213.21 80.07,212.80 80.07,212.38 80.07,211.97 80.07,211.55 80.07,211.14 80.07,210.72 80.07,210.31 80.09,209.89 80.09,209.47 80.09,209.06 80.09,208.64 80.09,208.23 80.09,207.81 80.09,207.40 80.09,206.98 80.09,206.57 80.09,206.15 80.09,205.74 80.09,205.32 80.09,204.90 80.09,204.49 80.09,204.07 80.09,203.66 80.09,203.24 80.09,202.83 80.09,202.41 80.09,202.00 80.09,201.58 80.09,201.17 80.09,200.75 80.09,200.34 80.09,199.92 80.09,199.50 80.09,199.09 80.09,198.67 80.09,198.26 80.09,197.84 80.09,197.43 80.09,197.01 80.09,196.60 80.09,196.18 80.09,195.77 80.09,195.35 80.09,194.93 80.09,194.52 80.09,194.10 80.09,193.69 80.09,193.27 80.09,192.86 80.09,192.44 80.09,192.03 80.09,191.61 80.09,191.20 80.09,190.78 80.09,190.37 80.09,189.95 80.09,189.53 80.09,189.12 80.09,188.70 80.09,188.29 80.09,187.87 80.09,187.46 80.09,187.04 80.09,186.63 80.09,186.21 80.09,185.80 80.09,185.38 80.09,184.96 80.09,184.55 80.09,184.13 80.09,183.72 80.09,183.30 80.09,182.89 80.09,182.47 80.09,182.06 80.09,181.64 80.09,181.23 80.09,180.81 80.09,180.40 80.09,179.98 80.09,179.56 80.09,179.15 80.09,178.73 80.09,178.32 80.09,177.90 80.09,177.49 80.09,177.07 80.09,176.66 80.09,176.24 80.09,175.83 80.09,175.41 80.09,174.99 80.09,174.58 80.09,174.16 80.09,173.75 80.09,173.33 80.09,172.92 80.09,172.50 80.09,172.09 80.09,171.67 80.09,171.26 80.09,170.84 80.09,170.43 80.09,170.01 80.09,169.59 80.09,169.18 80.09,168.76 80.09,168.35 80.09,167.93 80.09,167.52 80.09,167.10 80.09,166.69 80.09,166.27 80.09,165.86 80.09,165.44 80.09,165.03 80.09,164.61 80.09,164.19 80.09,163.78 80.09,163.36 80.09,162.95 80.09,162.53 80.09,162.12 80.09,161.70 80.09,161.29 80.09,160.87 80.11,160.46 80.11,160.04 80.11,159.62 80.11,159.21 80.11,158.79 80.11,158.38 80.11,157.96 80.11,157.55 80.11,157.13 80.11,156.72 80.11,156.30 80.11,155.89 80.11,155.47 80.11,155.06 80.11,154.64 80.11,154.22 80.11,153.81 80.11,153.39 80.11,152.98 80.11,152.56 80.11,152.15 80.11,151.73 80.11,151.32 80.11,150.90 80.11,150.49 80.11,150.07 80.11,149.65 80.11,149.24 80.11,148.82 80.11,148.41 80.11,147.99 80.11,147.58 80.11,147.16 80.11,146.75 80.11,146.33 80.11,145.92 80.11,145.50 80.11,145.09 80.11,144.67 80.11,144.25 80.11,143.84 80.11,143.42 80.11,143.01 80.11,142.59 80.11,142.18 80.11,141.76 80.11,141.35 80.11,140.93 80.11,140.52 80.11,140.10 80.11,139.68 80.11,139.27 80.11,138.85 80.11,138.44 80.11,138.02 80.11,137.61 80.11,137.19 80.11,136.78 80.11,136.36 80.11,135.95 80.11,135.53 80.11,135.12 80.11,134.70 80.11,134.28 80.13,133.87 80.13,133.45 80.13,133.04 80.13,132.62 80.13,132.21 80.13,131.79 80.13,131.38 80.13,130.96 80.13,130.55 80.13,130.13 80.13,129.71 80.13,129.30 80.13,128.88 80.13,128.47 80.13,128.05 80.13,127.64 80.13,127.22 80.13,126.81 80.13,126.39 80.13,125.98 80.13,125.56 80.13,125.15 80.13,124.73 80.13,124.31 80.13,123.90 80.13,123.48 80.13,123.07 80.13,122.65 80.13,122.24 80.13,121.82 80.13,121.41 80.13,120.99 80.13,120.58 80.13,120.16 80.13,119.74 80.13,119.33 80.13,118.91 80.13,118.50 80.13,118.08 80.13,117.67 80.13,117.25 80.13,116.84 80.13,116.42 80.13,116.01 80.13,115.59 80.13,115.18 80.13,114.76 80.13,114.34 80.13,113.93 80.13,113.51 80.13,113.10 80.13,112.68 80.13,112.27 80.13,111.85 80.16,111.44 80.16,111.02 80.16,110.61 80.16,110.19 80.16,109.77 80.16,109.36 80.16,108.94 80.16,108.53 80.16,108.11 80.16,107.70 80.16,107.28 80.16,106.87 80.16,106.45 80.16,106.04 80.16,105.62 80.16,105.21 80.16,104.79 80.16,104.37 80.16,103.96 80.16,103.54 80.16,103.13 80.16,102.71 80.16,102.30 80.16,101.88 80.16,101.47 80.16,101.05 80.16,100.64 80.16,100.22 80.16,99.80 80.16,99.39 80.16,98.97 80.16,98.56 80.16,98.14 80.16,97.73 80.16,97.31 80.18,96.90 80.18,96.48 80.18,96.07 80.18,95.65 80.18,95.24 80.18,94.82 80.18,94.40 80.18,93.99 80.18,93.57 80.18,93.16 80.18,92.74 80.18,92.33 80.18,91.91 80.18,91.50 80.18,91.08 80.18,90.67 80.18,90.25 80.18,89.83 80.18,89.42 80.18,89.00 80.18,88.59 80.18,88.17 80.18,87.76 80.18,87.34 80.18,86.93 80.18,86.51 80.18,86.10 80.18,85.68 80.18,85.27 80.18,84.85 80.18,84.43 80.18,84.02 80.20,83.60 80.20,83.19 80.20,82.77 80.20,82.36 80.20,81.94 80.20,81.53 80.20,81.11 80.20,80.70 80.20,80.28 80.20,79.86 80.20,79.45 80.20,79.03 80.20,78.62 80.20,78.20 80.20,77.79 80.20,77.37 80.20,76.96 80.20,76.54 80.20,76.13 80.20,75.71 80.20,75.30 80.20,74.88 80.20,74.46 80.20,74.05 80.20,73.63 80.20,73.22 80.22,72.80 80.22,72.39 80.22,71.97 80.22,71.56 80.22,71.14 80.22,70.73 80.22,70.31 80.22,69.89 80.22,69.48 80.22,69.06 80.22,68.65 80.22,68.23 80.22,67.82 80.22,67.40 80.22,66.99 80.22,66.57 80.22,66.16 80.22,65.74 80.22,65.33 80.24,64.91 80.24,64.49 80.24,64.08 80.24,63.66 80.24,63.25 80.24,62.83 80.24,62.42 80.24,62.00 80.24,61.59 80.24,61.17 80.24,60.76 80.24,60.34 80.24,59.92 80.24,59.51 80.27,59.09 80.27,58.68 80.27,58.26 80.27,57.85 80.27,57.43 80.27,57.02 80.27,56.60 80.27,56.19 80.27,55.77 80.27,55.36 80.27,54.94 80.27,54.52 80.29,54.11 80.29,53.69 80.29,53.28 80.29,52.86 80.29,52.45 80.29,52.03 80.29,51.62 80.29,51.20 80.29,50.79 80.31,50.37 80.31,49.95 80.31,49.54 80.31,49.12 80.31,48.71 80.31,48.29 80.33,47.88 80.33,47.46 80.33,47.05 80.33,46.63 80.33,46.22 80.33,45.80 80.36,45.39 80.36,44.97 80.36,44.55 80.36,44.14 80.36,43.72 80.38,43.31 80.38,42.89 80.38,42.48 80.40,42.06 80.40,41.65 80.40,41.23 80.42,40.82 80.42,40.40 80.44,39.98 80.44,39.57 80.47,39.15 80.49,38.74 80.51,38.32 80.53,37.91 80.56,37.49 80.60,37.08 80.62,36.66 80.67,36.25 80.73,35.83 80.84,35.42 870.00,35.00"/>
<text x="475.0" y="498" text-anchor="middle" font-family="Arial" font-size="14" fill="#111827">Latency microseconds</text>
<text x="20" y="242.5" text-anchor="middle" transform="rotate(-90 20 242.5)" font-family="Arial" font-size="14" fill="#111827">Cumulative share</text>
</svg>
