<svg xmlns="http://www.w3.org/2000/svg" width="900" height="520" viewBox="0 0 900 520">
<rect width="100%" height="100%" fill="#ffffff"/>
<text x="450.0" y="24" text-anchor="middle" font-family="Arial" font-size="18" fill="#111827">Order Processing Latency CDF</text>
<line x1="80" y1="450" x2="870" y2="450" stroke="#111827" stroke-width="1"/>
<line x1="80" y1="35" x2="80" y2="450" stroke="#111827" stroke-width="1"/>
<line x1="80.00" y1="35" x2="80.00" y2="450" stroke="#e5e7eb" stroke-width="1"/>
<text x="80.00" y="474" text-anchor="middle" font-family="Arial" font-size="12" fill="#374151">0.00</text>
<line x1="277.50" y1="35" x2="277.50" y2="450" stroke="#e5e7eb" stroke-width="1"/>
<text x="277.50" y="474" text-anchor="middle" font-family="Arial" font-size="12" fill="#374151">555.74</text>
<line x1="475.00" y1="35" x2="475.00" y2="450" stroke="#e5e7eb" stroke-width="1"/>
<text x="475.00" y="474" text-anchor="middle" font-family="Arial" font-size="12" fill="#374151">1111.48</text>
<line x1="672.50" y1="35" x2="672.50" y2="450" stroke="#e5e7eb" stroke-width="1"/>
<text x="672.50" y="474" text-anchor="middle" font-family="Arial" font-size="12" fill="#374151">1667.22</text>
<line x1="870.00" y1="35" x2="870.00" y2="450" stroke="#e5e7eb" stroke-width="1"/>
<text x="870.00" y="474" text-anchor="middle" font-family="Arial" font-size="12" fill="#374151">2222.96</text>
<line x1="80" y1="450.00" x2="870" y2="450.00" stroke="#e5e7eb" stroke-width="1"/>
<text x="68" y="454.00" text-anchor="end" font-family="Arial" font-size="12" fill="#374151">0.00</text>
<line x1="80" y1="346.25" x2="870" y2="346.25" stroke="#e5e7eb" stroke-width="1"/>
<text x="68" y="350.25" text-anchor="end" font-family="Arial" font-size="12" fill="#374151">0.25</text>
<line x1="80" y1="242.50" x2="870" y2="242.50" stroke="#e5e7eb" stroke-width="1"/>
<text x="68" y="246.50" text-anchor="end" font-family="Arial" font-size="12" fill="#374151">0.50</text>
<line x1="80" y1="138.75" x2="870" y2="138.75" stroke="#e5e7eb" stroke-width="1"/>
<text x="68" y="142.75" text-anchor="end" font-family="Arial" font-size="12" fill="#374151">0.75</text>
<line x1="80" y1="35.00" x2="870" y2="35.00" stroke="#e5e7eb" stroke-width="1"/>
<text x="68" y="39.00" text-anchor="end" font-family="Arial" font-size="12" fill="#374151">1.00</text>
<polyline fill="none" stroke="#2563eb" stroke-width="2" points="80.00,450.00 80.01,449.58 80.01,449.17 80.01,448.75 80.01,448.34 80.01,447.92 80.01,447.51 80.01,447.09 80.01,446.68 80.01,446.26 80.01,445.85 80.01,445.43 80.01,445.02 80.01,444.60 80.01,444.18 80.01,443.77 80.01,443.35 80.01,442.94 80.01,442.52 80.01,442.11 80.01,441.69 80.01,441.28 80.01,440.86 80.01,440.45 80.01,440.03 80.01,439.61 80.01,439.20 80.01,438.78 80.01,438.37 80.01,437.95 80.01,437.54 80.01,437.12 80.01,436.71 80.03,436.29 80.03,435.88 80.03,435.46 80.03,435.05 80.03,434.63 80.03,434.21 80.03,433.80 80.03,433.38 80.03,432.97 80.03,432.55 80.03,432.14 80.03,431.72 80.03,431.31 80.03,430.89 80.03,430.48 80.03,430.06 80.03,429.64 80.03,429.23 80.03,428.81 80.03,428.40 80.03,427.98 80.03,427.57 80.03,427.15 80.03,426.74 80.03,426.32 80.03,425.91 80.03,425.49 80.03,425.08 80.03,424.66 80.03,424.24 80.03,423.83 80.03,423.41 80.03,423.00 80.03,422.58 80.03,422.17 80.03,421.75 80.03,421.34 80.03,420.92 80.03,420.51 80.03,420.09 80.03,419.67 80.03,419.26 80.03,418.84 80.03,418.43 80.03,418.01 80.03,417.60 80.03,417.18 80.03,416.77 80.03,416.35 80.03,415.94 80.03,415.52 80.03,415.11 80.03,414.69 80.03,414.27 80.03,413.86 80.03,413.44 80.03,413.03 80.03,412.61 80.03,412.20 80.03,411.78 80.03,411.37 80.03,410.95 80.03,410.54 80.03,410.12 80.03,409.70 80.03,409.29 80.03,408.87 80.03,408.46 80.03,408.04 80.03,407.63 80.03,407.21 80.03,406.80 80.03,406.38 80.03,405.97 80.03,405.55 80.03,405.14 80.03,404.72 80.03,404.30 80.03,403.89 80.03,403.47 80.03,403.06 80.03,402.64 80.03,402.23 80.03,401.81 80.03,401.40 80.03,400.98 80.03,400.57 80.03,400.15 80.03,399.73 80.03,399.32 80.03,398.90 80.03,398.49 80.03,398.07 80.03,397.66 80.03,397.24 80.03,396.83 80.03,396.41 80.03,396.00 80.03,395.58 80.03,395.17 80.03,394.75 80.03,394.33 80.03,393.92 80.03,393.50 80.03,393.09 80.03,392.67 80.03,392.26 80.03,391.84 80.03,391.43 80.03,391.01 80.03,390.60 80.03,390.18 80.03,389.76 80.03,389.35 80.03,388.93 80.03,388.52 80.03,388.10 80.03,387.69 80.03,387.27 80.03,386.86 80.03,386.44 80.03,386.03 80.03,385.61 80.03,385.20 80.03,384.78 80.03,384.36 80.03,383.95 80.03,383.53 80.03,383.12 80.03,382.70 80.03,382.29 80.03,381.87 80.03,381.46 80.03,381.04 80.03,380.63 80.03,380.21 80.03,379.79 80.03,379.38 80.03,378.96 80.03,378.55 80.03,378.13 80.03,377.72 80.03,377.30 80.03,376.89 80.03,376.47 80.03,376.06 80.03,375.64 80.03,375.23 80.03,374.81 80.03,374.39 80.03,373.98 80.03,373.56 80.03,373.15 80.03,372.73 80.03,372.32 80.03,371.90 80.03,371.49 80.03,371.07 80.03,370.66 80.03,370.24 80.03,369.82 80.03,369.41 80.03,368.99 80.03,368.58 80.03,368.16 80.03,367.75 80.03,367.33 80.03,366.92 80.03,366.50 80.03,366.09 80.03,365.67 80.03,365.26 80.03,364.84 80.03,364.42 80.03,364.01 80.03,363.59 80.03,363.18 80.03,362.76 80.03,362.35 80.03,361.93 80.04,361.52 80.04,361.10 80.04,360.69 80.04,360.27 80.04,359.85 80.04,359.44 80.04,359.02 80.04,358.61 80.04,358.19 80.04,357.78 80.04,357.36 80.04,356.95 80.04,356.53 80.04,356.12 80.04,355.70 80.04,355.29 80.04,354.87 80.04,354.45 80.04,354.04 80.04,353.62 80.04,353.21 80.04,352.79 80.04,352.38 80.04,351.96 80.04,351.55 80.04,351.13 80.04,350.72 80.04,350.30 80.04,349.88 80.04,349.47 80.04,349.05 80.04,348.64 80.04,348.22 80.04,347.81 80.04,347.39 80.04,346.98 80.04,346.56 80.04,346.15 80.04,345.73 80.04,345.32 80.04,344.90 80.04,344.48 80.04,344.07 80.04,343.65 80.04,343.24 80.04,342.82 80.04,342.41 80.04,341.99 80.04,341.58 80.04,341.16 80.04,340.75 80.04,340.33 80.04,339.91 80.04,339.50 80.04,339.08 80.04,338.67 80.04,338.25 80.04,337.84 80.04,337.42 80.04,337.01 80.04,336.59 80.04,336.18 80.04,335.76 80.04,335.35 80.04,334.93 80.04,334.51 80.04,334.10 80.04,333.68 80.04,333.27 80.04,332.85 80.04,332.44 80.04,332.02 80.04,331.61 80.04,331.19 80.04,330.78 80.04,330.36 80.04,329.94 80.04,329.53 80.04,329.11 80.04,328.70 80.04,328.28 80.04,327.87 80.04,327.45 80.04,327.04 80.04,326.62 80.04,326.21 80.04,325.79 80.04,325.38 80.04,324.96 80.04,324.54 80.04,324.13 80.04,323.71 80.04,323.30 80.04,322.88 80.04,322.47 80.04,322.05 80.04,321.64 80.04,321.22 80.04,320.81 80.04,320.39 80.04,319.97 80.04,319.56 80.04,319.14 80.04,318.73 80.04,318.31 80.04,317.90 80.04,317.48 80.04,317.07 80.04,316.65 80.04,316.24 80.04,315.82 80.04,315.41 80.04,314.99 80.04,314.57 80.04,314.16 80.04,313.74 80.04,313.33 80.04,312.91 80.04,312.50 80.04,312.08 80.04,311.67 80.04,311.25 80.04,310.84 80.04,310.42 80.04,310.01 80.04,309.59 80.04,309.17 80.04,308.76 80.04,308.34 80.04,307.93 80.04,307.51 80.04,307.10 80.04,306.68 80.04,306.27 80.04,305.85 80.04,305.44 80.04,305.02 80.04,304.60 80.04,304.19 80.04,303.77 80.04,303.36 80.04,302.94 80.04,302.53 80.04,302.11 80.04,301.70 80.04,301.28 80.04,300.87 80.04,300.45 80.04,300.04 80.04,299.62 80.04,299.20 80.04,298.79 80.04,298.37 80.04,297.96 80.04,297.54 80.04,297.13 80.04,296.71 80.04,296.30 80.04,295.88 80.04,295.47 80.04,295.05 80.04,294.63 80.04,294.22 80.04,293.80 80.04,293.39 80.04,292.97 80.04,292.56 80.04,292.14 80.04,291.73 80.04,291.31 80.04,290.90 80.04,290.48 80.04,290.07 80.04,289.65 80.04,289.23 80.04,288.82 80.04,288.40 80.04,287.99 80.04,287.57 80.04,287.16 80.04,286.74 80.04,286.33 80.04,285.91 80.04,285.50 80.04,285.08 80.04,284.66 80.04,284.25 80.04,283.83 80.04,283.42 80.04,283.00 80.04,282.59 80.04,282.17 80.04,281.76 80.04,281.34 80.04,280.93 80.04,280.51 80.04,280.10 80.04,279.68 80.04,279.26 80.04,278.85 80.04,278.43 80.04,278.02 80.04,277.60 80.04,277.19 80.04,276.77 80.04,276.36 80.04,275.94 80.04,275.53 80.04,275.11 80.04,274.69 80.04,274.28 80.04,273.86 80.04,273.45 80.04,273.03 80.04,272.62 80.04,272.20 80.04,271.79 80.04,271.37 80.04,270.96 80.04,270.54 80.04,270.13 80.04,269.71 80.04,269.29 80.04,268.88 80.04,268.46 80.04,268.05 80.04,267.63 80.04,267.22 80.04,266.80 80.04,266.39 80.04,265.97 80.04,265.56 80.04,265.14 80.04,264.72 80.04,264.31 80.04,263.89 80.04,263.48 80.04,263.06 80.04,262.65 80.04,262.23 80.04,261.82 80.04,261.40 80.04,260.99 80.04,260.57 80.04,260.16 80.04,259.74 80.04,259.32 80.04,258.91 80.04,258.49 80.04,258.08 80.04,257.66 80.04,257.25 80.04,256.83 80.04,256.42 80.04,256.00 80.04,255.59 80.04,255.17 80.04,254.75 80.04,254.34 80.04,253.92 80.04,253.51 80.04,253.09 80.04,252.68 80.04,252.26 80.04,251.85 80.04,251.43 80.04,251.02 80.04,250.60 80.04,250.19 80.04,249.77 80.04,249.35 80.04,248.94 80.04,248.52 80.04,248.11 80.04,247.69 80.04,247.28 80.04,246.86 80.04,246.45 80.04,246.03 80.04,245.62 80.04,245.20 80.04,244.78 80.04,244.37 80.04,243.95 80.04,243.54 80.04,243.12 80.04,242.71 80.04,242.29 80.06,241.88 80.06,241.46 80.06,241.05 80.06,240.63 80.06,240.22 80.06,239.80 80.06,239.38 80.06,238.97 80.06,238.55 80.06,238.14 80.06,237.72 80.06,237.31 80.06,236.89 80.06,236.48 80.06,236.06 80.06,235.65 80.06,235.23 80.06,234.81 80.06,234.40 80.06,233.98 80.06,233.57 80.06,233.15 80.06,232.74 80.06,232.32 80.06,231.91 80.06,231.49 80.06,231.08 80.06,230.66 80.06,230.25 80.06,229.83 80.06,229.41 80.06,229.00 80.06,228.58 80.06,228.17 80.06,227.75 80.06,227.34 80.06,226.92 80.06,226.51 80.06,226.09 80.06,225.68 80.06,225.26 80.06,224.84 80.06,224.43 80.06,224.01 80.06,223.60 80.06,223.18 80.06,222.77 80.06,222.35 80.06,221.94 80.06,221.52 80.06,221.11 80.06,220.69 80.06,220.28 80.06,219.86 80.06,219.44 80.06,219.03 80.06,218.61 80.06,218.20 80.06,217.78 80.06,217.37 80.06,216.95 80.06,216.54 80.06,216.12 80.06,215.71 80.06,215.29 80.06,214.87 80.06,214.46 80.06,214.04 80.06,213.63 80.06,213.21 80.06,212.80 80.06,212.38 80.06,211.97 80.06,211.55 80.06,211.14 80.06,210.72 80.06,210.31 80.06,209.89 80.06,209.47 80.06,209.06 80.06,208.64 80.06,208.23 80.06,207.81 80.06,207.40 80.06,206.98 80.06,206.57 80.06,206.15 80.06,205.74 80.06,205.32 80.06,204.90 80.06,204.49 80.06,204.07 80.06,203.66 80.06,203.24 80.06,202.83 80.06,202.41 80.06,202.00 80.06,201.58 80.06,201.17 80.06,200.75 80.06,200.34 80.06,199.92 80.06,199.50 80.06,199.09 80.06,198.67 80.07,198.26 80.07,197.84 80.07,197.43 80.07,197.01 80.07,196.60 80.07,196.18 80.07,195.77 80.07,195.35 80.07,194.93 80.07,194.52 80.07,194.10 80.07,193.69 80.07,193.27 80.07,192.86 80.07,192.44 80.07,192.03 80.07,191.61 80.07,191.20 80.07,190.78 80.07,190.37 80.07,189.95 80.07,189.53 80.07,189.12 80.07,188.70 80.07,188.29 80.07,187.87 80.07,187.46 80.07,187.04 80.07,186.63 80.07,186.21 80.07,185.80 80.07,185.38 80.07,184.96 80.07,184.55 80.07,184.13 80.07,183.72 80.07,183.30 80.07,182.89 80.07,182.47 80.07,182.06 80.07,181.64 80.07,181.23 80.07,180.81 80.07,180.40 80.07,179.98 80.07,179.56 80.07,179.15 80.07,178.73 80.07,178.32 80.07,177.90 80.07,177.49 80.07,177.07 80.07,176.66 80.07,176.24 80.07,175.83 80.07,175.41 80.07,174.99 80.07,174.58 80.07,174.16 80.07,173.75 80.07,173.33 80.07,172.92 80.09,172.50 80.09,172.09 80.09,171.67 80.09,171.26 80.09,170.84 80.09,170.43 80.09,170.01 80.09,169.59 80.09,169.18 80.09,168.76 80.09,168.35 80.09,167.93 80.09,167.52 80.09,167.10 80.09,166.69 80.09,166.27 80.09,165.86 80.09,165.44 80.09,165.03 80.09,164.61 80.09,164.19 80.09,163.78 80.09,163.36 80.09,162.95 80.09,162.53 80.09,162.12 80.09,161.70 80.09,161.29 80.09,160.87 80.09,160.46 80.09,160.04 80.09,159.62 80.09,159.21 80.09,158.79 80.09,158.38 80.09,157.96 80.09,157.55 80.09,157.13 80.09,156.72 80.09,156.30 80.09,155.89 80.09,155.47 80.09,155.06 80.09,154.64 80.09,154.22 80.09,153.81 80.09,153.39 80.09,152.98 80.09,152.56 80.09,152.15 80.09,151.73 80.09,151.32 80.09,150.90 80.09,150.49 80.09,150.07 80.09,149.65 80.09,149.24 80.10,148.82 80.10,148.41 80.10,147.99 80.10,147.58 80.10,147.16 80.10,146.75 80.10,146.33 80.10,145.92 80.10,145.50 80.10,145.09 80.10,144.67 80.10,144.25 80.10,143.84 80.10,143.42 80.10,143.01 80.10,142.59 80.10,142.18 80.10,141.76 80.10,141.35 80.10,140.93 80.10,140.52 80.10,140.10 80.10,139.68 80.10,139.27 80.10,138.85 80.10,138.44 80.10,138.02 80.10,137.61 80.10,137.19 80.10,136.78 80.10,136.36 80.10,135.95 80.10,135.53 80.10,135.12 80.10,134.70 80.10,134.28 80.10,133.87 80.10,133.45 80.10,133.04 80.12,132.62 80.12,132.21 80.12,131.79 80.12,131.38 80.12,130.96 80.12,130.55 80.12,130.13 80.12,129.71 80.12,129.30 80.12,128.88 80.12,128.47 80.12,128.05 80.12,127.64 80.12,127.22 80.12,126.81 80.12,126.39 80.12,125.98 80.12,125.56 80.12,125.15 80.12,124.73 80.12,124.31 80.12,123.90 80.12,123.48 80.12,123.07 80.12,122.65 80.12,122.24 80.12,121.82 80.12,121.41 80.12,120.99 80.12,120.58 80.12,120.16 80.12,119.74 80.12,119.33 80.12,118.91 80.12,118.50 80.12,118.08 80.12,117.67 80.12,117.25 80.13,116.84 80.13,116.42 80.13,116.01 80.13,115.59 80.13,115.18 80.13,114.76 80.13,114.34 80.13,113.93 80.13,113.51 80.13,113.10 80.13,112.68 80.13,112.27 80.13,111.85 80.13,111.44 80.13,111.02 80.13,110.61 80.13,110.19 80.13,109.77 80.13,109.36 80.13,108.94 80.13,108.53 80.13,108.11 80.13,107.70 80.13,107.28 80.13,106.87 80.13,106.45 80.13,106.04 80.13,105.62 80.13,105.21 80.13,104.79 80.13,104.37 80.13,103.96 80.13,103.54 80.13,103.13 80.15,102.71 80.15,102.30 80.15,101.88 80.15,101.47 80.15,101.05 80.15,100.64 80.15,100.22 80.15,99.80 80.15,99.39 80.15,98.97 80.15,98.56 80.15,98.14 80.15,97.73 80.15,97.31 80.15,96.90 80.15,96.48 80.15,96.07 80.15,95.65 80.15,95.24 80.15,94.82 80.15,94.40 80.15,93.99 80.15,93.57 80.15,93.16 80.15,92.74 80.15,92.33 80.15,91.91 80.15,91.50 80.16,91.08 80.16,90.67 80.16,90.25 80.16,89.83 80.16,89.42 80.16,89.00 80.16,88.59 80.16,88.17 80.16,87.76 80.16,87.34 80.16,86.93 80.16,86.51 80.16,86.10 80.16,85.68 80.16,85.27 80.16,84.85 80.16,84.43 80.16,84.02 80.16,83.60 80.16,83.19 80.16,82.77 80.16,82.36 80.16,81.94 80.18,81.53 80.18,81.11 80.18,80.70 80.18,80.28 80.18,79.86 80.18,79.45 80.18,79.03 80.18,78.62 80.18,78.20 80.18,77.79 80.18,77.37 80.18,76.96 80.18,76.54 80.18,76.13 80.18,75.71 80.18,75.30 80.18,74.88 80.18,74.46 80.18,74.05 80.19,73.63 80.19,73.22 80.19,72.80 80.19,72.39 80.19,71.97 80.19,71.56 80.19,71.14 80.19,70.73 80.19,70.31 80.19,69.89 80.19,69.48 80.19,69.06 80.19,68.65 80.19,68.23 80.19,67.82 80.19,67.40 80.21,66.99 80.21,66.57 80.21,66.16 80.21,65.74 80.21,65.33 80.21,64.91 80.21,64.49 80.21,64.08 80.21,63.66 80.21,63.25 80.21,62.83 80.22,62.42 80.22,62.00 80.22,61.59 80.22,61.17 80.22,60.76 80.22,60.34 80.22,59.92 80.22,59.51 80.22,59.09 80.22,58.68 80.24,58.26 80.24,57.85 80.24,57.43 80.24,57.02 80.24,56.60 80.24,56.19 80.24,55.77 80.25,55.36 80.25,54.94 80.25,54.52 80.25,54.11 80.25,53.69 80.25,53.28 80.25,52.86 80.27,52.45 80.27,52.03 80.27,51.62 80.27,51.20 80.27,50.79 80.28,50.37 80.28,49.95 80.28,49.54 80.28,49.12 80.28,48.71 80.30,48.29 80.30,47.88 80.30,47.46 80.30,47.05 80.31,46.63 80.31,46.22 80.31,45.80 80.31,45.39 80.33,44.97 80.33,44.55 80.33,44.14 80.34,43.72 80.34,43.31 80.36,42.89 80.36,42.48 80.37,42.06 80.37,41.65 80.38,41.23 80.38,40.82 80.40,40.40 80.40,39.98 80.41,39.57 80.43,39.15 80.44,38.74 80.46,38.32 80.47,37.91 80.49,37.49 80.50,37.08 80.53,36.66 80.58,36.25 80.64,35.83 80.80,35.42 870.00,35.00"/>
<text x="475.0" y="498" text-anchor="middle" font-family="Arial" font-size="14" fill="#111827">Latency microseconds</text>
<text x="20" y="242.5" text-anchor="middle" transform="rotate(-90 20 242.5)" font-family="Arial" font-size="14" fill="#111827">Cumulative share</text>
</svg>
