<svg xmlns="http://www.w3.org/2000/svg" width="900" height="520" viewBox="0 0 900 520">
<rect width="100%" height="100%" fill="#ffffff"/>
<text x="450.0" y="24" text-anchor="middle" font-family="Arial" font-size="18" fill="#111827">Order Processing Latency CDF</text>
<line x1="80" y1="450" x2="870" y2="450" stroke="#111827" stroke-width="1"/>
<line x1="80" y1="35" x2="80" y2="450" stroke="#111827" stroke-width="1"/>
<line x1="80.00" y1="35" x2="80.00" y2="450" stroke="#e5e7eb" stroke-width="1"/>
<text x="80.00" y="474" text-anchor="middle" font-family="Arial" font-size="12" fill="#374151">0.00</text>
<line x1="277.50" y1="35" x2="277.50" y2="450" stroke="#e5e7eb" stroke-width="1"/>
<text x="277.50" y="474" text-anchor="middle" font-family="Arial" font-size="12" fill="#374151">618.68</text>
<line x1="475.00" y1="35" x2="475.00" y2="450" stroke="#e5e7eb" stroke-width="1"/>
<text x="475.00" y="474" text-anchor="middle" font-family="Arial" font-size="12" fill="#374151">1237.35</text>
<line x1="672.50" y1="35" x2="672.50" y2="450" stroke="#e5e7eb" stroke-width="1"/>
<text x="672.50" y="474" text-anchor="middle" font-family="Arial" font-size="12" fill="#374151">1856.03</text>
<line x1="870.00" y1="35" x2="870.00" y2="450" stroke="#e5e7eb" stroke-width="1"/>
<text x="870.00" y="474" text-anchor="middle" font-family="Arial" font-size="12" fill="#374151">2474.71</text>
<line x1="80" y1="450.00" x2="870" y2="450.00" stroke="#e5e7eb" stroke-width="1"/>
<text x="68" y="454.00" text-anchor="end" font-family="Arial" font-size="12" fill="#374151">0.00</text>
<line x1="80" y1="346.25" x2="870" y2="346.25" stroke="#e5e7eb" stroke-width="1"/>
<text x="68" y="350.25" text-anchor="end" font-family="Arial" font-size="12" fill="#374151">0.25</text>
<line x1="80" y1="242.50" x2="870" y2="242.50" stroke="#e5e7eb" stroke-width="1"/>
<text x="68" y="246.50" text-anchor="end" font-family="Arial" font-size="12" fill="#374151">0.50</text>
<line x1="80" y1="138.75" x2="870" y2="138.75" stroke="#e5e7eb" stroke-width="1"/>
<text x="68" y="142.75" text-anchor="end" font-family="Arial" font-size="12" fill="#374151">0.75</text>
<line x1="80" y1="35.00" x2="870" y2="35.00" stroke="#e5e7eb" stroke-width="1"/>
<text x="68" y="39.00" text-anchor="end" font-family="Arial" font-size="12" fill="#374151">1.00</text>
<polyline fill="none" stroke="#2563eb" stroke-width="2" points="80.00,450.00 80.01,449.58 80.01,449.17 80.01,448.75 80.01,448.34 80.01,447.92 80.01,447.51 80.01,447.09 80.01,446.68 80.01,446.26 80.01,445.85 80.01,445.43 80.01,445.02 80.01,444.60 80.01,444.18 80.01,443.77 80.01,443.35 80.01,442.94 80.01,442.52 80.01,442.11 80.01,441.69 80.01,441.28 80.01,440.86 80.01,440.45 80.01,440.03 80.01,439.61 80.01,439.20 80.01,438.78 80.01,438.37 80.01,437.95 80.01,437.54 80.01,437.12 80.03,436.71 80.03,436.29 80.03,435.88 80.03,435.46 80.03,435.05 80.03,434.63 80.03,434.21 80.03,433.80 80.03,433.38 80.03,432.97 80.03,432.55 80.03,432.14 80.03,431.72 80.03,431.31 80.03,430.89 80.03,430.48 80.03,430.06 80.03,429.64 80.03,429.23 80.03,428.81 80.03,428.40 80.03,427.98 80.03,427.57 80.03,427.15 80.03,426.74 80.03,426.32 80.03,425.91 80.03,425.49 80.03,425.08 80.03,424.66 80.03,424.24 80.03,423.83 80.03,423.41 80.03,423.00 80.03,422.58 80.03,422.17 80.03,421.75 80.03,421.34 80.03,420.92 80.03,420.51 80.03,420.09 80.03,419.67 80.03,419.26 80.03,418.84 80.03,418.43 80.03,418.01 80.03,417.60 80.03,417.18 80.03,416.77 80.03,416.35 80.03,415.94 80.03,415.52 80.03,415.11 80.03,414.69 80.03,414.27 80.03,413.86 80.03,413.44 80.03,413.03 80.03,412.61 80.03,412.20 80.03,411.78 80.03,411.37 80.03,410.95 80.03,410.54 80.03,410.12 80.03,409.70 80.03,409.29 80.03,408.87 80.03,408.46 80.03,408.04 80.03,407.63 80.03,407.21 80.03,406.80 80.03,406.38 80.03,405.97 80.03,405.55 80.03,405.14 80.03,404.72 80.03,404.30 80.03,403.89 80.03,403.47 80.03,403.06 80.03,402.64 80.03,402.23 80.03,401.81 80.03,401.40 80.03,400.98 80.03,400.57 80.03,400.15 80.03,399.73 80.03,399.32 80.03,398.90 80.03,398.49 80.03,398.07 80.03,397.66 80.03,397.24 80.03,396.83 80.03,396.41 80.03,396.00 80.03,395.58 80.03,395.17 80.03,394.75 80.03,394.33 80.03,393.92 80.03,393.50 80.03,393.09 80.03,392.67 80.03,392.26 80.03,391.84 80.03,391.43 80.03,391.01 80.03,390.60 80.03,390.18 80.03,389.76 80.03,389.35 80.03,388.93 80.03,388.52 80.03,388.10 80.03,387.69 80.03,387.27 80.03,386.86 80.03,386.44 80.03,386.03 80.03,385.61 80.03,385.20 80.03,384.78 80.03,384.36 80.03,383.95 80.03,383.53 80.03,383.12 80.03,382.70 80.03,382.29 80.03,381.87 80.03,381.46 80.03,381.04 80.03,380.63 80.03,380.21 80.03,379.79 80.03,379.38 80.03,378.96 80.03,378.55 80.03,378.13 80.03,377.72 80.03,377.30 80.03,376.89 80.03,376.47 80.03,376.06 80.03,375.64 80.03,375.23 80.03,374.81 80.03,374.39 80.03,373.98 80.03,373.56 80.03,373.15 80.03,372.73 80.03,372.32 80.03,371.90 80.03,371.49 80.03,371.07 80.03,370.66 80.03,370.24 80.03,369.82 80.03,369.41 80.03,368.99 80.03,368.58 80.03,368.16 80.03,367.75 80.03,367.33 80.03,366.92 80.03,366.50 80.03,366.09 80.03,365.67 80.03,365.26 80.03,364.84 80.03,364.42 80.03,364.01 80.03,363.59 80.03,363.18 80.03,362.76 80.03,362.35 80.03,361.93 80.03,361.52 80.03,361.10 80.03,360.69 80.03,360.27 80.03,359.85 80.03,359.44 80.03,359.02 80.03,358.61 80.03,358.19 80.04,357.78 80.04,357.36 80.04,356.95 80.04,356.53 80.04,356.12 80.04,355.70 80.04,355.29 80.04,354.87 80.04,354.45 80.04,354.04 80.04,353.62 80.04,353.21 80.04,352.79 80.04,352.38 80.04,351.96 80.04,351.55 80.04,351.13 80.04,350.72 80.04,350.30 80.04,349.88 80.04,349.47 80.04,349.05 80.04,348.64 80.04,348.22 80.04,347.81 80.04,347.39 80.04,346.98 80.04,346.56 80.04,346.15 80.04,345.73 80.04,345.32 80.04,344.90 80.04,344.48 80.04,344.07 80.04,343.65 80.04,343.24 80.04,342.82 80.04,342.41 80.04,341.99 80.04,341.58 80.04,341.16 80.04,340.75 80.04,340.33 80.04,339.91 80.04,339.50 80.04,339.08 80.04,338.67 80.04,338.25 80.04,337.84 80.04,337.42 80.04,337.01 80.04,336.59 80.04,336.18 80.04,335.76 80.04,335.35 80.04,334.93 80.04,334.51 80.04,334.10 80.04,333.68 80.04,333.27 80.04,332.85 80.04,332.44 80.04,332.02 80.04,331.61 80.04,331.19 80.04,330.78 80.04,330.36 80.04,329.94 80.04,329.53 80.04,329.11 80.04,328.70 80.04,328.28 80.04,327.87 80.04,327.45 80.04,327.04 80.04,326.62 80.04,326.21 80.04,325.79 80.04,325.38 80.04,324.96 80.04,324.54 80.04,324.13 80.04,323.71 80.04,323.30 80.04,322.88 80.04,322.47 80.04,322.05 80.04,321.64 80.04,321.22 80.04,320.81 80.04,320.39 80.04,319.97 80.04,319.56 80.04,319.14 80.04,318.73 80.04,318.31 80.04,317.90 80.04,317.48 80.04,317.07 80.04,316.65 80.04,316.24 80.04,315.82 80.04,315.41 80.04,314.99 80.04,314.57 80.04,314.16 80.04,313.74 80.04,313.33 80.04,312.91 80.04,312.50 80.04,312.08 80.04,311.67 80.04,311.25 80.04,310.84 80.04,310.42 80.04,310.01 80.04,309.59 80.04,309.17 80.04,308.76 80.04,308.34 80.04,307.93 80.04,307.51 80.04,307.10 80.04,306.68 80.04,306.27 80.04,305.85 80.04,305.44 80.04,305.02 80.04,304.60 80.04,304.19 80.04,303.77 80.04,303.36 80.04,302.94 80.04,302.53 80.04,302.11 80.04,301.70 80.04,301.28 80.04,300.87 80.04,300.45 80.04,300.04 80.04,299.62 80.04,299.20 80.04,298.79 80.04,298.37 80.04,297.96 80.04,297.54 80.04,297.13 80.04,296.71 80.04,296.30 80.04,295.88 80.04,295.47 80.04,295.05 80.04,294.63 80.04,294.22 80.04,293.80 80.04,293.39 80.04,292.97 80.04,292.56 80.04,292.14 80.04,291.73 80.04,291.31 80.04,290.90 80.04,290.48 80.04,290.07 80.04,289.65 80.04,289.23 80.04,288.82 80.04,288.40 80.04,287.99 80.04,287.57 80.04,287.16 80.04,286.74 80.04,286.33 80.04,285.91 80.04,285.50 80.04,285.08 80.04,284.66 80.04,284.25 80.04,283.83 80.04,283.42 80.04,283.00 80.04,282.59 80.04,282.17 80.04,281.76 80.04,281.34 80.04,280.93 80.04,280.51 80.04,280.10 80.04,279.68 80.04,279.26 80.04,278.85 80.04,278.43 80.04,278.02 80.04,277.60 80.04,277.19 80.04,276.77 80.04,276.36 80.04,275.94 80.04,275.53 80.04,275.11 80.04,274.69 80.04,274.28 80.04,273.86 80.04,273.45 80.04,273.03 80.04,272.62 80.04,272.20 80.04,271.79 80.04,271.37 80.04,270.96 80.04,270.54 80.04,270.13 80.04,269.71 80.04,269.29 80.04,268.88 80.04,268.46 80.04,268.05 80.04,267.63 80.04,267.22 80.04,266.80 80.04,266.39 80.04,265.97 80.04,265.56 80.04,265.14 80.04,264.72 80.04,264.31 80.04,263.89 80.04,263.48 80.04,263.06 80.04,262.65 80.04,262.23 80.04,261.82 80.04,261.40 80.04,260.99 80.04,260.57 80.04,260.16 80.04,259.74 80.04,259.32 80.04,258.91 80.04,258.49 80.04,258.08 80.04,257.66 80.04,257.25 80.04,256.83 80.04,256.42 80.04,256.00 80.04,255.59 80.04,255.17 80.04,254.75 80.04,254.34 80.04,253.92 80.04,253.51 80.04,253.09 80.04,252.68 80.04,252.26 80.04,251.85 80.04,251.43 80.04,251.02 80.04,250.60 80.04,250.19 80.04,249.77 80.04,249.35 80.04,248.94 80.04,248.52 80.04,248.11 80.04,247.69 80.04,247.28 80.04,246.86 80.04,246.45 80.04,246.03 80.04,245.62 80.04,245.20 80.04,244.78 80.04,244.37 80.04,243.95 80.04,243.54 80.04,243.12 80.04,242.71 80.04,242.29 80.04,241.88 80.04,241.46 80.04,241.05 80.04,240.63 80.04,240.22 80.04,239.80 80.04,239.38 80.04,238.97 80.04,238.55 80.04,238.14 80.04,237.72 80.04,237.31 80.04,236.89 80.04,236.48 80.04,236.06 80.04,235.65 80.05,235.23 80.05,234.81 80.05,234.40 80.05,233.98 80.05,233.57 80.05,233.15 80.05,232.74 80.05,232.32 80.05,231.91 80.05,231.49 80.05,231.08 80.05,230.66 80.05,230.25 80.05,229.83 80.05,229.41 80.05,229.00 80.05,228.58 80.05,228.17 80.05,227.75 80.05,227.34 80.05,226.92 80.05,226.51 80.05,226.09 80.05,225.68 80.05,225.26 80.05,224.84 80.05,224.43 80.05,224.01 80.05,223.60 80.05,223.18 80.05,222.77 80.05,222.35 80.05,221.94 80.05,221.52 80.05,221.11 80.05,220.69 80.05,220.28 80.05,219.86 80.05,219.44 80.05,219.03 80.05,218.61 80.05,218.20 80.05,217.78 80.05,217.37 80.05,216.95 80.05,216.54 80.05,216.12 80.05,215.71 80.05,215.29 80.05,214.87 80.05,214.46 80.05,214.04 80.05,213.63 80.05,213.21 80.05,212.80 80.05,212.38 80.05,211.97 80.05,211.55 80.05,211.14 80.05,210.72 80.05,210.31 80.05,209.89 80.05,209.47 80.05,209.06 80.05,208.64 80.05,208.23 80.05,207.81 80.05,207.40 80.05,206.98 80.05,206.57 80.05,206.15 80.05,205.74 80.05,205.32 80.05,204.90 80.05,204.49 80.05,204.07 80.05,203.66 80.05,203.24 80.05,202.83 80.05,202.41 80.05,202.00 80.05,201.58 80.05,201.17 80.05,200.75 80.05,200.34 80.05,199.92 80.05,199.50 80.05,199.09 80.05,198.67 80.05,198.26 80.05,197.84 80.05,197.43 80.05,197.01 80.05,196.60 80.05,196.18 80.05,195.77 80.05,195.35 80.05,194.93 80.05,194.52 80.05,194.10 80.05,193.69 80.05,193.27 80.05,192.86 80.05,192.44 80.05,192.03 80.05,191.61 80.05,191.20 80.05,190.78 80.05,190.37 80.05,189.95 80.05,189.53 80.07,189.12 80.07,188.70 80.07,188.29 80.07,187.87 80.07,187.46 80.07,187.04 80.07,186.63 80.07,186.21 80.07,185.80 80.07,185.38 80.07,184.96 80.07,184.55 80.07,184.13 80.07,183.72 80.07,183.30 80.07,182.89 80.07,182.47 80.07,182.06 80.07,181.64 80.07,181.23 80.07,180.81 80.07,180.40 80.07,179.98 80.07,179.56 80.07,179.15 80.07,178.73 80.07,178.32 80.07,177.90 80.07,177.49 80.07,177.07 80.07,176.66 80.07,176.24 80.07,175.83 80.07,175.41 80.07,174.99 80.07,174.58 80.07,174.16 80.07,173.75 80.07,173.33 80.07,172.92 80.07,172.50 80.07,172.09 80.07,171.67 80.07,171.26 80.07,170.84 80.07,170.43 80.07,170.01 80.07,169.59 80.07,169.18 80.07,168.76 80.07,168.35 80.07,167.93 80.07,167.52 80.07,167.10 80.07,166.69 80.07,166.27 80.07,165.86 80.07,165.44 80.07,165.03 80.07,164.61 80.07,164.19 80.07,163.78 80.07,163.36 80.07,162.95 80.08,162.53 80.08,162.12 80.08,161.70 80.08,161.29 80.08,160.87 80.08,160.46 80.08,160.04 80.08,159.62 80.08,159.21 80.08,158.79 80.08,158.38 80.08,157.96 80.08,157.55 80.08,157.13 80.08,156.72 80.08,156.30 80.08,155.89 80.08,155.47 80.08,155.06 80.08,154.64 80.08,154.22 80.08,153.81 80.08,153.39 80.08,152.98 80.08,152.56 80.08,152.15 80.08,151.73 80.08,151.32 80.08,150.90 80.08,150.49 80.08,150.07 80.08,149.65 80.08,149.24 80.08,148.82 80.08,148.41 80.08,147.99 80.08,147.58 80.08,147.16 80.08,146.75 80.08,146.33 80.08,145.92 80.08,145.50 80.08,145.09 80.08,144.67 80.08,144.25 80.08,143.84 80.08,143.42 80.08,143.01 80.08,142.59 80.08,142.18 80.08,141.76 80.08,141.35 80.08,140.93 80.09,140.52 80.09,140.10 80.09,139.68 80.09,139.27 80.09,138.85 80.09,138.44 80.09,138.02 80.09,137.61 80.09,137.19 80.09,136.78 80.09,136.36 80.09,135.95 80.09,135.53 80.09,135.12 80.09,134.70 80.09,134.28 80.09,133.87 80.09,133.45 80.09,133.04 80.09,132.62 80.09,132.21 80.09,131.79 80.09,131.38 80.09,130.96 80.09,130.55 80.09,130.13 80.09,129.71 80.09,129.30 80.09,128.88 80.09,128.47 80.09,128.05 80.09,127.64 80.09,127.22 80.09,126.81 80.09,126.39 80.09,125.98 80.11,125.56 80.11,125.15 80.11,124.73 80.11,124.31 80.11,123.90 80.11,123.48 80.11,123.07 80.11,122.65 80.11,122.24 80.11,121.82 80.11,121.41 80.11,120.99 80.11,120.58 80.11,120.16 80.11,119.74 80.11,119.33 80.11,118.91 80.11,118.50 80.11,118.08 80.11,117.67 80.11,117.25 80.11,116.84 80.11,116.42 80.11,116.01 80.11,115.59 80.11,115.18 80.11,114.76 80.11,114.34 80.11,113.93 80.11,113.51 80.11,113.10 80.11,112.68 80.11,112.27 80.11,111.85 80.11,111.44 80.12,111.02 80.12,110.61 80.12,110.19 80.12,109.77 80.12,109.36 80.12,108.94 80.12,108.53 80.12,108.11 80.12,107.70 80.12,107.28 80.12,106.87 80.12,106.45 80.12,106.04 80.12,105.62 80.12,105.21 80.12,104.79 80.12,104.37 80.12,103.96 80.12,103.54 80.12,103.13 80.12,102.71 80.12,102.30 80.12,101.88 80.12,101.47 80.12,101.05 80.12,100.64 80.12,100.22 80.12,99.80 80.12,99.39 80.12,98.97 80.12,98.56 80.12,98.14 80.12,97.73 80.13,97.31 80.13,96.90 80.13,96.48 80.13,96.07 80.13,95.65 80.13,95.24 80.13,94.82 80.13,94.40 80.13,93.99 80.13,93.57 80.13,93.16 80.13,92.74 80.13,92.33 80.13,91.91 80.13,91.50 80.13,91.08 80.13,90.67 80.13,90.25 80.13,89.83 80.13,89.42 80.13,89.00 80.13,88.59 80.13,88.17 80.13,87.76 80.13,87.34 80.13,86.93 80.15,86.51 80.15,86.10 80.15,85.68 80.15,85.27 80.15,84.85 80.15,84.43 80.15,84.02 80.15,83.60 80.15,83.19 80.15,82.77 80.15,82.36 80.15,81.94 80.15,81.53 80.15,81.11 80.15,80.70 80.15,80.28 80.15,79.86 80.15,79.45 80.15,79.03 80.15,78.62 80.15,78.20 80.15,77.79 80.16,77.37 80.16,76.96 80.16,76.54 80.16,76.13 80.16,75.71 80.16,75.30 80.16,74.88 80.16,74.46 80.16,74.05 80.16,73.63 80.16,73.22 80.16,72.80 80.16,72.39 80.16,71.97 80.16,71.56 80.16,71.14 80.16,70.73 80.16,70.31 80.17,69.89 80.17,69.48 80.17,69.06 80.17,68.65 80.17,68.23 80.17,67.82 80.17,67.40 80.17,66.99 80.17,66.57 80.17,66.16 80.17,65.74 80.17,65.33 80.17,64.91 80.17,64.49 80.19,64.08 80.19,63.66 80.19,63.25 80.19,62.83 80.19,62.42 80.19,62.00 80.19,61.59 80.19,61.17 80.19,60.76 80.19,60.34 80.19,59.92 80.20,59.51 80.20,59.09 80.20,58.68 80.20,58.26 80.20,57.85 80.20,57.43 80.20,57.02 80.20,56.60 80.21,56.19 80.21,55.77 80.21,55.36 80.21,54.94 80.21,54.52 80.21,54.11 80.21,53.69 80.23,53.28 80.23,52.86 80.23,52.45 80.23,52.03 80.23,51.62 80.24,51.20 80.24,50.79 80.24,50.37 80.24,49.95 80.24,49.54 80.25,49.12 80.25,48.71 80.25,48.29 80.25,47.88 80.27,47.46 80.27,47.05 80.27,46.63 80.28,46.22 80.28,45.80 80.28,45.39 80.29,44.97 80.29,44.55 80.29,44.14 80.31,43.72 80.31,43.31 80.31,42.89 80.32,42.48 80.32,42.06 80.33,41.65 80.33,41.23 80.35,40.82 80.36,40.40 80.36,39.98 80.37,39.57 80.39,39.15 80.39,38.74 80.40,38.32 80.41,37.91 80.44,37.49 80.45,37.08 80.48,36.66 80.51,36.25 80.56,35.83 80.66,35.42 870.00,35.00"/>
<text x="475.0" y="498" text-anchor="middle" font-family="Arial" font-size="14" fill="#111827">Latency microseconds</text>
<text x="20" y="242.5" text-anchor="middle" transform="rotate(-90 20 242.5)" font-family="Arial" font-size="14" fill="#111827">Cumulative share</text>
</svg>
