<svg xmlns="http://www.w3.org/2000/svg" width="940" height="720" viewBox="0 0 940 720">
<rect width="100%" height="100%" fill="#ffffff"/>
<text x="470.0" y="26" text-anchor="middle" font-family="Arial" font-size="18" fill="#111827">Avellaneda Stoikov Trending Inventory And Reservation Skew</text>
<line x1="85" y1="228.67" x2="900" y2="228.67" stroke="#111827" stroke-width="1"/>
<line x1="85" y1="46.00" x2="85" y2="228.67" stroke="#111827" stroke-width="1"/>
<text x="73" y="60.00" text-anchor="end" font-family="Arial" font-size="12" fill="#111827">Inventory</text>
<line x1="85" y1="228.67" x2="900" y2="228.67" stroke="#e5e7eb" stroke-width="1"/>
<text x="73" y="232.67" text-anchor="end" font-family="Arial" font-size="11" fill="#374151">-12524</text>
<line x1="85" y1="137.33" x2="900" y2="137.33" stroke="#e5e7eb" stroke-width="1"/>
<text x="73" y="141.33" text-anchor="end" font-family="Arial" font-size="11" fill="#374151">6658</text>
<line x1="85" y1="46.00" x2="900" y2="46.00" stroke="#e5e7eb" stroke-width="1"/>
<text x="73" y="50.00" text-anchor="end" font-family="Arial" font-size="11" fill="#374151">25840</text>
<polyline fill="none" stroke="#2563eb" stroke-width="2" points="85.00,169.04 85.41,168.94 85.82,169.01 86.22,169.01 86.63,169.01 87.04,169.08 87.45,168.98 87.85,169.07 88.26,169.07 88.67,169.17 89.08,169.17 89.48,169.17 89.89,169.36 90.30,169.36 90.71,169.41 91.11,169.36 91.52,169.31 91.93,169.22 92.34,168.98 92.74,168.98 93.15,168.93 93.56,168.84 93.97,168.74 94.37,168.74 94.78,168.64 95.19,168.39 95.60,168.29 96.00,168.15 96.41,168.01 96.82,167.96 97.23,167.77 97.63,167.44 98.04,167.39 98.45,167.39 98.86,167.34 99.26,167.05 99.67,166.90 100.08,166.61 100.49,166.22 100.89,165.94 101.30,165.82 101.71,165.47 102.12,165.18 102.52,164.95 102.93,164.75 103.34,164.66 103.75,164.37 104.15,164.37 104.56,164.15 104.97,164.11 105.38,164.11 105.78,164.03 106.19,163.94 106.60,163.60 107.01,163.32 107.41,162.94 107.82,162.84 108.23,162.79 108.64,162.70 109.04,162.70 109.45,162.70 109.86,162.70 110.27,162.70 110.67,162.70 111.08,162.70 111.49,162.70 111.90,162.70 112.30,162.70 112.71,162.57 113.12,162.26 113.53,162.26 113.93,162.22 114.34,162.12 114.75,162.12 115.16,162.12 115.56,162.12 115.97,162.12 116.38,162.12 116.79,162.12 117.19,162.12 117.60,162.12 118.01,162.26 118.42,162.36 118.82,162.44 119.23,162.58 119.64,162.77 120.05,162.96 120.45,162.96 120.86,163.15 121.27,163.25 121.68,163.54 122.08,163.73 122.49,163.82 122.90,163.58 123.31,163.73 123.71,163.72 124.12,163.84 124.53,163.98 124.94,164.03 125.34,164.16 125.75,164.16 126.16,164.16 126.57,164.16 126.97,164.21 127.38,164.21 127.79,164.21 128.20,164.40 128.60,164.59 129.01,164.68 129.42,164.78 129.83,164.83 130.23,165.11 130.64,165.25 131.05,165.42 131.46,165.65 131.86,165.99 132.27,166.25 132.68,166.47 133.09,166.66 133.49,166.76 133.90,166.95 134.31,167.04 134.72,167.09 135.12,167.24 135.53,167.24 135.94,167.24 136.35,167.33 136.75,167.57 137.16,167.66 137.57,167.83 137.98,167.83 138.38,167.83 138.79,167.83 139.20,167.83 139.61,167.83 140.01,167.83 140.42,167.83 140.83,167.83 141.24,167.80 141.64,167.80 142.05,167.80 142.46,167.80 142.87,167.94 143.27,168.04 143.68,168.04 144.09,168.04 144.50,168.33 144.90,168.52 145.31,168.66 145.72,168.75 146.13,168.90 146.53,168.90 146.94,168.94 147.35,168.99 147.76,168.99 148.16,169.09 148.57,169.09 148.98,169.28 149.39,169.53 149.79,169.63 150.20,169.84 150.61,169.96 151.02,169.96 151.42,169.96 151.83,169.96 152.24,169.96 152.65,169.96 153.05,169.96 153.46,169.96 153.87,169.96 154.28,169.96 154.68,170.11 155.09,170.25 155.50,170.30 155.91,170.49 156.31,170.76 156.72,170.91 157.13,171.14 157.54,171.14 157.94,171.14 158.35,171.14 158.76,171.10 159.17,171.00 159.57,170.86 159.98,170.86 160.39,170.86 160.80,170.95 161.20,170.91 161.61,170.91 162.02,170.81 162.43,170.81 162.83,170.81 163.24,170.81 163.65,170.81 164.06,170.81 164.46,170.81 164.87,170.81 165.28,170.81 165.69,170.81 166.09,170.81 166.50,170.72 166.91,170.67 167.32,170.43 167.72,170.29 168.13,170.29 168.54,170.19 168.95,170.19 169.35,170.10 169.76,170.10 170.17,170.04 170.58,169.94 170.98,169.66 171.39,169.64 171.80,169.52 172.21,169.44 172.61,169.34 173.02,169.15 173.43,169.10 173.84,168.86 174.24,168.72 174.65,168.53 175.06,168.53 175.47,168.53 175.87,168.53 176.28,168.53 176.69,168.53 177.10,168.53 177.50,168.53 177.91,168.58 178.32,168.67 178.73,168.67 179.13,168.67 179.54,168.72 179.95,169.08 180.36,169.30 180.76,169.49 181.17,169.81 181.58,170.19 181.99,170.53 182.39,170.78 182.80,171.17 183.21,171.55 183.62,171.83 184.02,172.26 184.43,172.50 184.84,172.73 185.25,173.06 185.65,173.30 186.06,173.63 186.47,173.77 186.88,174.01 187.28,174.28 187.69,174.52 188.10,174.75 188.51,174.80 188.91,174.99 189.32,175.18 189.73,175.23 190.14,175.26 190.54,175.45 190.95,175.45 191.36,175.64 191.77,175.79 192.17,175.79 192.58,175.89 192.99,175.93 193.40,176.17 193.80,176.36 194.21,176.70 194.62,176.93 195.03,177.05 195.43,177.20 195.84,177.43 196.25,177.82 196.66,178.22 197.06,178.61 197.47,178.88 197.88,179.16 198.29,179.59 198.69,179.97 199.10,180.31 199.51,180.59 199.92,180.92 200.32,181.21 200.73,181.54 201.14,182.04 201.55,182.23 201.95,182.61 202.36,182.90 202.77,183.32 203.18,183.63 203.58,183.97 203.99,184.40 204.40,184.78 204.81,185.01 205.21,185.41 205.62,185.66 206.03,186.04 206.44,186.51 206.84,186.85 207.25,187.28 207.66,187.65 208.07,188.03 208.47,188.46 208.88,188.65 209.29,188.98 209.70,189.43 210.10,189.48 210.51,189.58 210.92,189.91 211.33,190.29 211.73,190.58 212.14,190.77 212.55,190.89 212.96,190.93 213.36,190.93 213.77,191.03 214.18,191.17 214.59,191.28 214.99,191.35 215.40,191.68 215.81,191.73 216.22,191.73 216.62,191.68 217.03,191.63 217.44,191.60 217.85,191.50 218.25,191.26 218.66,191.17 219.07,191.17 219.48,190.88 219.88,190.88 220.29,190.98 220.70,191.02 221.11,191.17 221.51,191.21 221.92,191.21 222.33,191.45 222.74,191.60 223.14,191.79 223.55,191.83 223.96,192.09 224.37,192.13 224.77,192.13 225.18,192.13 225.59,192.13 226.00,192.18 226.40,192.18 226.81,192.18 227.22,192.18 227.63,192.18 228.03,192.18 228.44,192.18 228.85,192.18 229.26,192.23 229.66,192.23 230.07,192.28 230.48,192.32 230.89,192.32 231.29,192.32 231.70,192.32 232.11,192.32 232.52,192.32 232.92,192.32 233.33,192.28 233.74,192.28 234.15,192.28 234.55,192.32 234.96,192.49 235.37,192.60 235.78,192.75 236.18,192.75 236.59,192.75 237.00,192.75 237.41,192.75 237.81,192.80 238.22,192.80 238.63,192.85 239.04,193.14 239.44,193.23 239.85,193.23 240.26,193.33 240.67,193.42 241.07,193.52 241.48,193.66 241.89,193.85 242.30,193.85 242.70,193.85 243.11,193.85 243.52,193.85 243.93,193.85 244.33,193.90 244.74,193.90 245.15,193.90 245.56,193.90 245.96,193.99 246.37,194.33 246.78,194.61 247.19,194.61 247.59,194.99 248.00,195.38 248.41,195.61 248.82,195.95 249.22,196.29 249.63,196.55 250.04,196.82 250.45,197.10 250.85,197.48 251.26,197.82 251.67,198.10 252.08,198.53 252.48,198.96 252.89,199.34 253.30,199.44 253.71,199.68 254.11,199.86 254.52,200.09 254.93,200.43 255.34,200.57 255.74,200.86 256.15,201.22 256.56,201.46 256.97,201.73 257.37,201.87 257.78,201.92 258.19,202.14 258.60,202.42 259.00,202.60 259.41,202.69 259.82,202.79 260.23,202.84 260.63,202.84 261.04,203.02 261.45,203.10 261.86,203.10 262.26,203.34 262.67,203.67 263.08,204.01 263.49,204.39 263.89,204.67 264.30,204.93 264.71,205.26 265.12,205.70 265.52,206.10 265.93,206.48 266.34,206.77 266.75,207.15 267.15,207.53 267.56,207.91 267.97,208.26 268.38,208.51 268.78,208.72 269.19,208.79 269.60,208.79 270.01,208.79 270.41,208.79 270.82,208.79 271.23,208.79 271.64,208.88 272.04,209.03 272.45,209.03 272.86,209.03 273.27,209.22 273.67,209.55 274.08,209.55 274.49,209.55 274.90,209.55 275.30,209.55 275.71,209.55 276.12,209.55 276.53,209.55 276.93,209.55 277.34,209.55 277.75,209.55 278.16,209.55 278.56,209.60 278.97,209.94 279.38,210.22 279.79,210.36 280.19,210.60 280.60,210.84 281.01,210.84 281.42,211.05 281.82,211.05 282.23,211.05 282.64,211.05 283.05,211.05 283.45,211.05 283.86,211.05 284.27,211.09 284.68,211.14 285.08,211.14 285.49,211.14 285.90,211.14 286.31,211.14 286.71,211.14 287.12,211.14 287.53,211.14 287.94,211.38 288.34,211.38 288.75,211.38 289.16,211.43 289.57,211.52 289.97,211.52 290.38,211.52 290.79,211.52 291.20,211.52 291.60,211.62 292.01,211.80 292.42,211.94 292.83,211.94 293.23,211.94 293.64,211.99 294.05,212.23 294.46,212.58 294.86,212.86 295.27,213.10 295.68,213.20 296.09,213.25 296.49,213.25 296.90,213.53 297.31,213.53 297.72,213.53 298.12,213.53 298.53,213.53 298.94,213.53 299.35,213.53 299.75,213.53 300.16,213.51 300.57,213.48 300.98,213.24 301.38,213.19 301.79,213.19 302.20,213.15 302.61,213.15 303.01,213.15 303.42,213.15 303.83,213.24 304.24,213.29 304.64,213.29 305.05,213.29 305.46,213.29 305.87,213.29 306.27,213.34 306.68,213.34 307.09,213.34 307.50,213.34 307.90,213.34 308.31,213.34 308.72,213.34 309.13,213.34 309.53,213.34 309.94,213.34 310.35,213.34 310.76,213.34 311.16,213.55 311.57,213.96 311.98,213.96 312.39,213.96 312.79,213.96 313.20,213.96 313.61,214.15 314.02,214.25 314.42,214.25 314.83,214.25 315.24,214.30 315.65,214.39 316.05,214.46 316.46,214.60 316.87,214.79 317.28,215.08 317.68,215.17 318.09,215.17 318.50,215.17 318.91,215.27 319.31,215.42 319.72,215.68 320.13,215.73 320.54,215.73 320.94,215.73 321.35,215.73 321.76,215.73 322.17,215.73 322.57,215.73 322.98,215.69 323.39,215.69 323.80,215.69 324.20,215.69 324.61,215.69 325.02,215.69 325.43,215.69 325.83,215.69 326.24,215.74 326.65,215.74 327.06,215.74 327.46,215.74 327.87,215.93 328.28,215.93 328.69,215.97 329.09,215.97 329.50,215.97 329.91,215.97 330.32,215.97 330.72,216.02 331.13,216.02 331.54,216.07 331.95,216.07 332.35,216.07 332.76,216.07 333.17,216.07 333.58,215.97 333.98,215.97 334.39,215.97 334.80,215.97 335.21,215.97 335.61,215.97 336.02,215.97 336.43,215.97 336.84,215.97 337.24,215.93 337.65,215.93 338.06,215.78 338.47,215.78 338.87,215.83 339.28,215.83 339.69,215.83 340.10,215.83 340.50,215.83 340.91,215.83 341.32,215.83 341.73,215.83 342.13,215.71 342.54,215.50 342.95,215.32 343.36,215.11 343.76,214.96 344.17,214.82 344.58,214.39 344.99,214.25 345.39,214.05 345.80,213.91 346.21,213.86 346.62,213.82 347.02,213.72 347.43,213.53 347.84,213.39 348.25,213.05 348.65,212.67 349.06,212.33 349.47,211.96 349.88,211.49 350.28,211.11 350.69,210.73 351.10,210.39 351.51,210.11 351.91,209.85 352.32,209.46 352.73,209.08 353.14,208.70 353.54,208.42 353.95,208.09 354.36,207.84 354.77,207.60 355.17,207.17 355.58,206.88 355.99,206.59 356.40,206.26 356.80,205.88 357.21,205.53 357.62,205.37 358.03,204.94 358.43,204.58 358.84,204.20 359.25,203.87 359.66,203.57 360.06,203.24 360.47,202.76 360.88,202.38 361.29,202.10 361.69,201.67 362.10,201.34 362.51,201.01 362.92,200.75 363.32,200.27 363.73,199.79 364.14,199.43 364.55,199.05 364.95,198.67 365.36,198.27 365.77,197.94 366.18,197.56 366.58,197.18 366.99,196.75 367.40,196.44 367.81,196.01 368.21,195.50 368.62,195.12 369.03,194.69 369.44,194.31 369.84,194.06 370.25,193.69 370.66,193.30 371.07,192.91 371.47,192.49 371.88,192.02 372.29,191.78 372.70,191.49 373.10,191.16 373.51,190.78 373.92,190.51 374.33,190.13 374.73,189.75 375.14,189.43 375.55,189.00 375.96,188.68 376.36,188.29 376.77,187.90 377.18,187.52 377.59,187.18 377.99,186.90 378.40,186.49 378.81,186.06 379.22,185.82 379.62,185.53 380.03,185.25 380.44,184.87 380.85,184.49 381.25,184.20 381.66,183.87 382.07,183.55 382.48,183.26 382.88,182.88 383.29,182.58 383.70,182.44 384.11,182.15 384.51,181.84 384.92,181.60 385.33,181.27 385.74,180.89 386.14,180.58 386.55,180.19 386.96,179.76 387.37,179.47 387.77,179.19 388.18,178.76 388.59,178.42 389.00,178.04 389.40,177.71 389.81,177.31 390.22,177.16 390.63,176.78 391.03,176.44 391.44,176.21 391.85,175.97 392.26,175.64 392.66,175.26 393.07,174.93 393.48,174.50 393.89,174.28 394.29,173.95 394.70,173.67 395.11,173.47 395.52,173.05 395.92,172.72 396.33,172.39 396.74,172.05 397.15,171.82 397.55,171.82 397.96,171.82 398.37,171.82 398.78,171.82 399.18,172.01 399.59,172.16 400.00,172.31 400.41,172.50 400.81,172.50 401.22,172.50 401.63,172.50 402.04,172.50 402.44,172.50 402.85,172.54 403.26,172.73 403.67,172.73 404.07,172.73 404.48,172.73 404.89,172.63 405.30,172.45 405.70,172.41 406.11,172.31 406.52,172.31 406.93,172.36 407.33,172.22 407.74,172.17 408.15,172.03 408.56,171.79 408.96,171.79 409.37,171.79 409.78,171.79 410.19,171.69 410.59,171.45 411.00,171.33 411.41,171.10 411.82,171.10 412.22,171.06 412.63,170.87 413.04,170.51 413.45,170.40 413.85,170.12 414.26,170.12 414.67,169.88 415.08,169.64 415.48,169.34 415.89,169.23 416.30,169.23 416.71,169.04 417.11,168.99 417.52,168.99 417.93,168.75 418.34,168.75 418.74,168.75 419.15,168.75 419.56,168.75 419.97,168.65 420.37,168.61 420.78,168.61 421.19,168.61 421.60,168.61 422.00,168.61 422.41,168.61 422.82,168.61 423.23,168.61 423.63,168.61 424.04,168.61 424.45,168.61 424.86,168.61 425.26,168.61 425.67,168.61 426.08,168.32 426.49,168.10 426.89,168.00 427.30,168.00 427.71,167.76 428.12,167.57 428.52,167.53 428.93,167.53 429.34,167.43 429.75,167.34 430.15,167.34 430.56,167.34 430.97,167.34 431.38,167.34 431.78,167.05 432.19,167.05 432.60,167.05 433.01,167.00 433.41,167.00 433.82,166.76 434.23,166.67 434.64,166.53 435.04,166.29 435.45,166.12 435.86,166.03 436.27,165.79 436.67,165.55 437.08,165.55 437.49,165.22 437.90,164.93 438.30,164.60 438.71,164.13 439.12,163.80 439.53,163.59 439.93,163.26 440.34,162.88 440.75,162.54 441.16,162.17 441.56,161.98 441.97,161.70 442.38,161.60 442.79,161.20 443.19,161.00 443.60,160.69 444.01,160.26 444.42,159.93 444.82,159.55 445.23,159.26 445.64,158.96 446.05,158.72 446.45,158.35 446.86,158.20 447.27,157.78 447.68,157.47 448.08,157.37 448.49,157.05 448.90,156.66 449.31,156.66 449.71,156.61 450.12,156.61 450.53,156.61 450.94,156.61 451.34,156.61 451.75,156.61 452.16,156.61 452.57,156.59 452.97,156.31 453.38,156.21 453.79,156.21 454.20,156.21 454.60,156.21 455.01,156.21 455.42,156.21 455.83,156.21 456.23,156.21 456.64,156.16 457.05,156.16 457.46,156.16 457.86,156.16 458.27,156.16 458.68,156.16 459.09,156.16 459.49,156.16 459.90,156.16 460.31,156.16 460.72,156.16 461.12,156.35 461.53,156.35 461.94,156.35 462.35,156.35 462.75,156.44 463.16,156.63 463.57,156.63 463.98,156.63 464.38,156.63 464.79,156.63 465.20,156.68 465.61,156.68 466.01,156.68 466.42,156.60 466.83,156.54 467.24,156.54 467.64,156.54 468.05,156.25 468.46,156.11 468.87,156.11 469.27,156.11 469.68,156.11 470.09,155.90 470.50,155.90 470.90,155.78 471.31,155.78 471.72,155.78 472.13,155.68 472.53,155.45 472.94,155.40 473.35,155.40 473.76,155.30 474.16,154.92 474.57,154.50 474.98,154.17 475.39,153.74 475.79,153.36 476.20,153.00 476.61,152.67 477.02,152.36 477.42,151.97 477.83,151.69 478.24,151.31 478.65,150.91 479.05,150.51 479.46,150.32 479.87,149.98 480.28,149.64 480.68,149.21 481.09,148.88 481.50,148.55 481.91,148.12 482.31,147.73 482.72,147.44 483.13,147.17 483.54,146.78 483.94,146.40 484.35,146.02 484.76,145.66 485.17,145.38 485.57,145.04 485.98,144.66 486.39,144.33 486.80,143.95 487.20,143.66 487.61,143.47 488.02,143.18 488.43,142.80 488.83,142.47 489.24,142.17 489.65,141.84 490.06,141.60 490.46,141.17 490.87,140.84 491.28,140.65 491.69,140.22 492.09,139.93 492.50,139.55 492.91,139.17 493.32,138.89 493.72,138.62 494.13,138.24 494.54,137.81 494.95,137.43 495.35,137.19 495.76,136.80 496.17,136.42 496.58,136.04 496.98,135.70 497.39,135.36 497.80,135.07 498.21,134.69 498.61,134.32 499.02,134.03 499.43,133.70 499.84,133.37 500.24,133.03 500.65,132.70 501.06,132.39 501.47,132.02 501.87,131.74 502.28,131.43 502.69,131.10 503.10,130.91 503.50,130.61 503.91,130.19 504.32,129.90 504.73,129.42 505.13,129.09 505.54,128.71 505.95,128.47 506.36,128.19 506.76,127.96 507.17,127.66 507.58,127.28 507.99,126.90 508.39,126.54 508.80,126.16 509.21,125.87 509.62,125.58 510.02,125.30 510.43,124.97 510.84,124.54 511.25,124.22 511.65,123.88 512.06,123.64 512.47,123.36 512.88,122.93 513.28,122.45 513.69,122.07 514.10,121.69 514.51,121.36 514.91,121.00 515.32,120.57 515.73,120.38 516.14,120.05 516.54,119.76 516.95,119.53 517.36,119.10 517.77,118.85 518.17,118.47 518.58,118.14 518.99,117.81 519.40,117.47 519.80,117.04 520.21,116.81 520.62,116.52 521.03,116.09 521.43,115.76 521.84,115.43 522.25,115.10 522.66,114.72 523.06,114.53 523.47,114.26 523.88,113.97 524.29,113.55 524.69,113.12 525.10,112.85 525.51,112.61 525.92,112.33 526.32,112.28 526.73,112.24 527.14,112.24 527.55,112.24 527.95,112.24 528.36,112.24 528.77,112.24 529.18,112.24 529.58,112.43 529.99,112.43 530.40,112.43 530.81,112.66 531.21,112.66 531.62,112.66 532.03,112.90 532.44,113.00 532.84,113.00 533.25,112.86 533.66,112.86 534.07,112.86 534.47,112.86 534.88,112.91 535.29,113.21 535.70,113.31 536.10,113.17 536.51,113.26 536.92,113.50 537.33,113.69 537.73,113.93 538.14,114.03 538.55,114.28 538.96,114.33 539.36,114.50 539.77,114.79 540.18,114.88 540.59,114.88 540.99,114.84 541.40,114.84 541.81,114.84 542.22,114.84 542.62,114.79 543.03,114.79 543.44,114.79 543.85,114.50 544.25,114.26 544.66,114.17 545.07,114.07 545.48,114.03 545.88,113.91 546.29,113.60 546.70,113.51 547.11,113.37 547.51,113.37 547.92,113.33 548.33,113.14 548.74,113.21 549.14,113.31 549.55,113.55 549.96,113.69 550.37,113.99 550.77,114.09 551.18,114.37 551.59,114.28 552.00,114.09 552.40,114.02 552.81,113.87 553.22,113.82 553.63,113.72 554.03,113.63 554.44,113.63 554.85,113.63 555.26,113.58 555.66,113.48 556.07,113.43 556.48,113.43 556.89,113.43 557.29,113.43 557.70,113.40 558.11,113.35 558.52,113.35 558.92,113.54 559.33,113.78 559.74,114.08 560.15,114.22 560.55,114.48 560.96,114.57 561.37,114.79 561.78,114.88 562.18,114.93 562.59,115.08 563.00,115.22 563.41,115.55 563.81,115.89 564.22,116.13 564.63,116.50 565.04,116.84 565.44,116.94 565.85,117.04 566.26,117.26 566.67,117.42 567.07,117.60 567.48,117.98 567.89,118.03 568.30,118.36 568.70,118.41 569.11,118.70 569.52,118.94 569.93,119.17 570.33,119.36 570.74,119.69 571.15,119.80 571.56,119.89 571.96,120.27 572.37,120.55 572.78,120.93 573.19,121.26 573.59,121.61 574.00,121.94 574.41,122.33 574.82,122.71 575.22,123.13 575.63,123.56 576.04,123.95 576.45,124.37 576.85,124.70 577.26,125.08 577.67,125.46 578.08,125.73 578.48,126.06 578.89,126.44 579.30,126.76 579.71,127.08 580.11,127.46 580.52,127.69 580.93,128.10 581.34,128.52 581.74,128.85 582.15,129.23 582.56,129.61 582.97,129.94 583.37,130.28 583.78,130.61 584.19,131.00 584.60,131.33 585.01,131.76 585.41,132.00 585.82,132.33 586.23,132.48 586.64,132.81 587.04,133.19 587.45,133.57 587.86,133.86 588.27,134.33 588.67,134.71 589.08,135.05 589.49,135.43 589.90,135.78 590.30,136.10 590.71,136.32 591.12,136.70 591.53,136.99 591.93,137.27 592.34,137.60 592.75,138.08 593.16,138.46 593.56,138.89 593.97,139.20 594.38,139.59 594.79,139.92 595.19,140.25 595.60,140.63 596.01,140.87 596.42,141.25 596.82,141.61 597.23,141.85 597.64,141.85 598.05,141.95 598.45,141.95 598.86,141.95 599.27,141.95 599.68,142.09 600.08,142.29 600.49,142.62 600.90,142.71 601.31,142.95 601.71,143.01 602.12,143.20 602.53,143.37 602.94,143.66 603.34,143.92 603.75,144.06 604.16,144.34 604.57,144.34 604.97,144.44 605.38,144.68 605.79,145.06 606.20,145.15 606.60,145.29 607.01,145.34 607.42,145.39 607.83,145.28 608.23,145.18 608.64,145.04 609.05,144.90 609.46,144.76 609.86,144.87 610.27,144.91 610.68,144.87 611.09,144.82 611.49,144.82 611.90,144.82 612.31,144.82 612.72,144.82 613.12,144.87 613.53,144.87 613.94,145.13 614.35,145.43 614.75,145.52 615.16,145.57 615.57,145.57 615.98,145.57 616.38,145.57 616.79,145.57 617.20,145.57 617.61,145.57 618.01,145.38 618.42,145.33 618.83,145.33 619.24,145.38 619.64,145.38 620.05,145.38 620.46,145.38 620.87,145.38 621.27,145.38 621.68,145.48 622.09,145.52 622.50,145.28 622.90,145.14 623.31,145.14 623.72,145.00 624.13,144.95 624.53,144.95 624.94,144.95 625.35,144.95 625.76,144.95 626.16,144.95 626.57,145.00 626.98,145.00 627.39,144.95 627.79,144.86 628.20,144.67 628.61,144.67 629.02,144.52 629.42,144.38 629.83,144.33 630.24,144.33 630.65,144.52 631.05,144.52 631.46,144.67 631.87,145.03 632.28,145.22 632.68,145.34 633.09,145.62 633.50,145.72 633.91,145.96 634.31,146.00 634.72,146.00 635.13,146.00 635.54,146.00 635.94,146.00 636.35,146.00 636.76,146.00 637.17,146.00 637.57,146.00 637.98,145.96 638.39,145.96 638.80,145.96 639.20,145.96 639.61,145.96 640.02,145.96 640.43,145.86 640.83,145.86 641.24,145.86 641.65,145.86 642.06,145.86 642.46,145.67 642.87,145.68 643.28,145.73 643.69,145.97 644.09,146.01 644.50,146.01 644.91,146.01 645.32,146.01 645.72,146.20 646.13,146.41 646.54,146.50 646.95,146.50 647.35,146.50 647.76,146.50 648.17,146.50 648.58,146.50 648.98,146.50 649.39,146.50 649.80,146.50 650.21,146.50 650.61,146.65 651.02,146.79 651.43,146.98 651.84,147.36 652.24,147.41 652.65,147.41 653.06,147.55 653.47,147.79 653.87,147.93 654.28,147.93 654.69,147.93 655.10,148.08 655.50,148.46 655.91,148.83 656.32,149.07 656.73,149.40 657.13,149.78 657.54,149.97 657.95,150.17 658.36,150.50 658.76,150.69 659.17,150.90 659.58,151.26 659.99,151.42 660.39,151.70 660.80,151.84 661.21,151.94 661.62,151.94 662.02,151.98 662.43,151.98 662.84,152.17 663.25,152.36 663.65,152.50 664.06,152.65 664.47,153.03 664.88,153.31 665.28,153.74 665.69,154.03 666.10,154.41 666.51,154.74 666.91,155.09 667.32,155.47 667.73,155.76 668.14,156.14 668.54,156.52 668.95,156.74 669.36,156.97 669.77,157.40 670.17,157.78 670.58,158.12 670.99,158.59 671.40,158.93 671.80,159.02 672.21,159.21 672.62,159.31 673.03,159.31 673.43,159.36 673.84,159.36 674.25,159.50 674.66,159.83 675.06,160.02 675.47,160.02 675.88,160.02 676.29,160.02 676.69,160.02 677.10,160.02 677.51,160.02 677.92,160.02 678.32,160.02 678.73,160.07 679.14,160.07 679.55,160.07 679.95,159.97 680.36,159.97 680.77,159.97 681.18,159.93 681.58,159.78 681.99,159.78 682.40,159.74 682.81,159.74 683.21,159.74 683.62,159.74 684.03,159.74 684.44,159.74 684.84,159.55 685.25,159.45 685.66,159.40 686.07,159.26 686.47,159.15 686.88,158.91 687.29,158.86 687.70,158.63 688.10,158.58 688.51,158.58 688.92,158.44 689.33,158.35 689.73,158.30 690.14,158.11 690.55,157.78 690.96,157.50 691.36,157.30 691.77,156.87 692.18,156.58 692.59,156.27 692.99,155.94 693.40,155.61 693.81,155.37 694.22,155.03 694.62,154.69 695.03,154.27 695.44,153.98 695.85,153.93 696.25,153.52 696.66,153.18 697.07,152.85 697.48,152.37 697.88,152.04 698.29,151.79 698.70,151.53 699.11,151.12 699.51,150.78 699.92,150.40 700.33,150.12 700.74,149.74 701.14,149.40 701.55,149.07 701.96,148.74 702.37,148.26 702.77,147.78 703.18,147.50 703.59,147.20 704.00,146.88 704.40,146.59 704.81,146.49 705.22,146.17 705.63,145.88 706.03,145.55 706.44,145.55 706.85,145.55 707.26,145.55 707.66,145.50 708.07,145.50 708.48,145.40 708.89,145.40 709.29,145.34 709.70,145.24 710.11,145.24 710.52,145.05 710.92,144.78 711.33,144.49 711.74,144.39 712.15,144.20 712.55,143.87 712.96,143.49 713.37,143.32 713.78,143.32 714.18,143.32 714.59,143.27 715.00,142.89 715.41,142.56 715.81,142.22 716.22,142.22 716.63,141.89 717.04,141.60 717.44,141.32 717.85,141.06 718.26,140.74 718.67,140.31 719.07,139.98 719.48,139.50 719.89,139.27 720.30,138.84 720.70,138.55 721.11,138.18 721.52,137.89 721.93,137.54 722.33,137.23 722.74,136.89 723.15,136.61 723.56,136.10 723.96,135.67 724.37,135.38 724.78,135.14 725.19,134.76 725.59,134.52 726.00,134.10 726.41,133.67 726.82,133.24 727.22,132.86 727.63,132.52 728.04,132.14 728.45,131.67 728.85,131.38 729.26,131.16 729.67,130.81 730.08,130.39 730.48,129.96 730.89,129.62 731.30,129.37 731.71,129.13 732.11,128.80 732.52,128.42 732.93,128.09 733.34,127.75 733.74,127.37 734.15,127.04 734.56,126.72 734.97,126.38 735.37,126.00 735.78,125.52 736.19,125.04 736.60,124.75 737.00,124.46 737.41,124.08 737.82,123.89 738.23,123.60 738.63,123.22 739.04,122.93 739.45,122.65 739.86,122.27 740.26,121.93 740.67,121.51 741.08,121.21 741.49,120.86 741.89,120.48 742.30,120.13 742.71,119.88 743.12,119.50 743.52,119.16 743.93,118.83 744.34,118.45 744.75,118.07 745.15,117.65 745.56,117.26 745.97,116.83 746.38,116.50 746.78,116.07 747.19,115.69 747.60,115.48 748.01,115.20 748.41,115.00 748.82,114.59 749.23,114.31 749.64,113.88 750.04,113.59 750.45,113.26 750.86,112.97 751.27,112.61 751.67,112.25 752.08,111.88 752.49,111.64 752.90,111.31 753.30,111.02 753.71,110.64 754.12,110.34 754.53,110.05 754.93,109.78 755.34,109.30 755.75,109.02 756.16,108.67 756.56,108.38 756.97,108.09 757.38,107.76 757.79,107.38 758.19,107.05 758.60,106.90 759.01,106.47 759.42,106.06 759.82,105.83 760.23,105.51 760.64,105.41 761.05,105.18 761.45,104.72 761.86,104.43 762.27,104.05 762.68,103.77 763.08,103.29 763.49,102.94 763.90,102.63 764.31,102.25 764.71,101.87 765.12,101.39 765.53,101.01 765.94,100.53 766.34,100.25 766.75,99.87 767.16,99.44 767.57,99.06 767.97,98.63 768.38,98.20 768.79,97.97 769.20,97.58 769.60,97.16 770.01,96.82 770.42,96.35 770.83,96.20 771.23,95.78 771.64,95.43 772.05,95.05 772.46,94.68 772.86,94.30 773.27,94.07 773.68,93.82 774.09,93.44 774.49,93.16 774.90,92.73 775.31,92.40 775.72,92.02 776.12,91.69 776.53,91.36 776.94,91.01 777.35,90.77 777.75,90.34 778.16,90.01 778.57,89.72 778.98,89.34 779.38,89.01 779.79,88.68 780.20,88.34 780.61,88.01 781.01,87.69 781.42,87.36 781.83,86.95 782.24,86.52 782.64,86.19 783.05,85.88 783.46,85.54 783.87,85.21 784.27,84.78 784.68,84.44 785.09,84.06 785.50,83.73 785.90,83.35 786.31,83.01 786.72,82.63 787.13,82.16 787.53,81.87 787.94,81.49 788.35,81.31 788.76,80.99 789.16,80.71 789.57,80.32 789.98,80.23 790.39,79.94 790.79,79.94 791.20,79.75 791.61,79.75 792.02,79.75 792.42,79.75 792.83,79.81 793.24,79.81 793.65,79.81 794.05,79.81 794.46,79.81 794.87,79.76 795.28,79.65 795.68,79.65 796.09,79.65 796.50,79.65 796.91,79.51 797.31,79.41 797.72,79.13 798.13,79.13 798.54,79.13 798.94,79.13 799.35,79.13 799.76,79.13 800.17,79.13 800.57,79.13 800.98,79.13 801.39,79.13 801.80,79.13 802.20,79.13 802.61,79.13 803.02,79.13 803.43,79.09 803.83,79.09 804.24,78.94 804.65,78.85 805.06,78.56 805.46,78.33 805.87,78.09 806.28,77.76 806.69,77.47 807.09,77.28 807.50,77.12 807.91,77.12 808.32,77.12 808.72,77.07 809.13,77.07 809.54,77.07 809.95,77.07 810.35,77.07 810.76,77.07 811.17,77.07 811.58,77.07 811.98,77.02 812.39,77.02 812.80,76.98 813.21,76.98 813.61,76.98 814.02,76.74 814.43,76.69 814.84,76.41 815.24,76.31 815.65,76.31 816.06,76.08 816.47,76.03 816.87,76.03 817.28,75.84 817.69,75.70 818.10,75.70 818.50,75.65 818.91,75.60 819.32,75.60 819.73,75.60 820.13,75.60 820.54,75.55 820.95,75.44 821.36,75.44 821.76,75.44 822.17,75.06 822.58,74.87 822.99,74.67 823.39,74.60 823.80,74.46 824.21,74.27 824.62,74.12 825.02,74.12 825.43,74.12 825.84,74.12 826.25,74.12 826.65,74.12 827.06,74.12 827.47,74.12 827.88,74.12 828.28,74.12 828.69,74.12 829.10,74.07 829.51,74.02 829.91,73.97 830.32,73.83 830.73,73.83 831.14,73.83 831.54,73.83 831.95,73.83 832.36,73.78 832.77,73.54 833.17,73.37 833.58,73.37 833.99,73.13 834.40,73.03 834.80,72.98 835.21,72.98 835.62,72.82 836.03,72.58 836.43,72.29 836.84,72.01 837.25,71.84 837.66,71.84 838.06,71.79 838.47,71.51 838.88,71.32 839.29,71.13 839.69,70.80 840.10,70.68 840.51,70.58 840.92,70.29 841.32,70.01 841.73,69.77 842.14,69.53 842.55,69.43 842.95,69.29 843.36,69.20 843.77,69.20 844.18,68.94 844.58,68.76 844.99,68.57 845.40,68.48 845.81,68.35 846.21,68.12 846.62,67.83 847.03,67.45 847.44,67.07 847.84,66.95 848.25,66.85 848.66,66.81 849.07,66.81 849.47,66.81 849.88,66.81 850.29,66.61 850.70,66.58 851.10,66.58 851.51,66.58 851.92,66.67 852.33,66.67 852.73,66.86 853.14,67.12 853.55,67.32 853.96,67.42 854.36,67.46 854.77,67.46 855.18,67.37 855.59,67.04 855.99,66.62 856.40,66.29 856.81,66.15 857.22,66.01 857.62,66.01 858.03,65.77 858.44,65.63 858.85,65.34 859.25,65.00 859.66,64.58 860.07,64.32 860.48,64.18 860.88,64.04 861.29,64.04 861.70,63.94 862.11,63.61 862.51,63.37 862.92,63.03 863.33,63.03 863.74,63.03 864.14,63.03 864.55,63.03 864.96,63.03 865.37,63.03 865.77,63.03 866.18,63.17 866.59,63.31 867.00,63.31 867.40,63.31 867.81,63.31 868.22,63.31 868.63,63.31 869.03,63.31 869.44,63.26 869.85,63.22 870.26,62.99 870.66,62.75 871.07,62.56 871.48,62.23 871.89,62.23 872.29,62.18 872.70,62.14 873.11,61.99 873.52,61.72 873.92,61.72 874.33,61.72 874.74,61.72 875.15,61.72 875.55,61.72 875.96,61.72 876.37,61.72 876.78,61.68 877.18,61.68 877.59,61.68 878.00,61.68 878.41,61.68 878.81,61.49 879.22,61.30 879.63,61.16 880.04,61.02 880.44,60.90 880.85,60.85 881.26,60.85 881.67,60.85 882.07,60.85 882.48,60.85 882.89,60.85 883.30,60.85 883.70,60.85 884.11,60.85 884.52,60.85 884.93,60.90 885.33,60.90 885.74,60.90 886.15,60.90 886.56,60.90 886.96,60.90 887.37,60.90 887.78,60.90 888.19,60.90 888.59,60.90 889.00,60.90 889.41,60.85 889.82,60.81 890.22,60.66 890.63,60.45 891.04,60.16 891.45,59.83 891.85,59.64 892.26,59.43 892.67,59.27 893.08,59.27 893.48,59.27 893.89,59.27 894.30,59.27 894.71,59.27 895.11,59.22 895.52,58.98 895.93,58.93 896.34,58.84 896.74,58.84 897.15,58.69 897.56,58.69 897.97,58.65 898.37,58.65 898.78,58.65 899.19,58.60 899.60,58.60 900.00,58.60"/>
<line x1="85" y1="445.33" x2="900" y2="445.33" stroke="#111827" stroke-width="1"/>
<line x1="85" y1="262.67" x2="85" y2="445.33" stroke="#111827" stroke-width="1"/>
<text x="73" y="276.67" text-anchor="end" font-family="Arial" font-size="12" fill="#111827">Reservation skew ticks</text>
<line x1="85" y1="445.33" x2="900" y2="445.33" stroke="#e5e7eb" stroke-width="1"/>
<text x="73" y="449.33" text-anchor="end" font-family="Arial" font-size="11" fill="#374151">-10</text>
<line x1="85" y1="354.00" x2="900" y2="354.00" stroke="#e5e7eb" stroke-width="1"/>
<text x="73" y="358.00" text-anchor="end" font-family="Arial" font-size="11" fill="#374151">-1</text>
<line x1="85" y1="262.67" x2="900" y2="262.67" stroke="#e5e7eb" stroke-width="1"/>
<text x="73" y="266.67" text-anchor="end" font-family="Arial" font-size="11" fill="#374151">8</text>
<polyline fill="none" stroke="#dc2626" stroke-width="2" points="85.00,344.44 85.41,344.19 85.82,344.38 86.22,344.38 86.63,344.38 87.04,344.57 87.45,344.29 87.85,344.54 88.26,344.54 88.67,344.79 89.08,344.79 89.48,344.79 89.89,345.30 90.30,345.30 90.71,345.42 91.11,345.29 91.52,345.17 91.93,344.92 92.34,344.29 92.74,344.29 93.15,344.16 93.56,343.91 93.97,343.66 94.37,343.66 94.78,343.42 95.19,342.74 95.60,342.49 96.00,342.12 96.41,341.75 96.82,341.62 97.23,341.12 97.63,340.25 98.04,340.13 98.45,340.13 98.86,340.01 99.26,339.27 99.67,338.86 100.08,338.12 100.49,337.09 100.89,336.37 101.30,336.06 101.71,335.16 102.12,334.42 102.52,333.80 102.93,333.31 103.34,333.07 103.75,332.34 104.15,332.34 104.56,331.78 104.97,331.66 105.38,331.67 105.78,331.48 106.19,331.24 106.60,330.38 107.01,329.65 107.41,328.67 107.82,328.44 108.23,328.32 108.64,328.08 109.04,328.09 109.45,328.10 109.86,328.11 110.27,328.12 110.67,328.13 111.08,328.14 111.49,328.14 111.90,328.15 112.30,328.16 112.71,327.85 113.12,327.07 113.53,327.07 113.93,326.96 114.34,326.73 114.75,326.74 115.16,326.74 115.56,326.75 115.97,326.76 116.38,326.77 116.79,326.78 117.19,326.79 117.60,326.80 118.01,327.17 118.42,327.43 118.82,327.64 119.23,328.01 119.64,328.51 120.05,329.00 120.45,329.01 120.86,329.50 121.27,329.75 121.68,330.48 122.08,330.97 122.49,331.22 122.90,330.62 123.31,330.99 123.71,330.99 124.12,331.28 124.53,331.65 124.94,331.78 125.34,332.12 125.75,332.13 126.16,332.14 126.57,332.14 126.97,332.27 127.38,332.28 127.79,332.28 128.20,332.77 128.60,333.25 129.01,333.50 129.42,333.74 129.83,333.87 130.23,334.59 130.64,334.95 131.05,335.37 131.46,335.97 131.86,336.81 132.27,337.47 132.68,338.03 133.09,338.51 133.49,338.75 133.90,339.23 134.31,339.47 134.72,339.59 135.12,339.95 135.53,339.95 135.94,339.96 136.35,340.20 136.75,340.79 137.16,341.03 137.57,341.45 137.98,341.45 138.38,341.45 138.79,341.45 139.20,341.45 139.61,341.45 140.01,341.45 140.42,341.46 140.83,341.46 141.24,341.39 141.64,341.39 142.05,341.39 142.46,341.39 142.87,341.75 143.27,341.98 143.68,341.99 144.09,341.99 144.50,342.69 144.90,343.17 145.31,343.53 145.72,343.75 146.13,344.10 146.53,344.10 146.94,344.21 147.35,344.34 147.76,344.34 148.16,344.57 148.57,344.57 148.98,345.04 149.39,345.65 149.79,345.88 150.20,346.41 150.61,346.71 151.02,346.71 151.42,346.71 151.83,346.71 152.24,346.70 152.65,346.70 153.05,346.70 153.46,346.70 153.87,346.70 154.28,346.70 154.68,347.04 155.09,347.39 155.50,347.50 155.91,347.96 156.31,348.63 156.72,348.98 157.13,349.55 157.54,349.55 157.94,349.55 158.35,349.54 158.76,349.42 159.17,349.19 159.57,348.84 159.98,348.84 160.39,348.84 160.80,349.07 161.20,348.95 161.61,348.95 162.02,348.71 162.43,348.71 162.83,348.71 163.24,348.71 163.65,348.71 164.06,348.70 164.46,348.70 164.87,348.70 165.28,348.70 165.69,348.69 166.09,348.69 166.50,348.46 166.91,348.35 167.32,347.77 167.72,347.43 168.13,347.43 168.54,347.20 168.95,347.20 169.35,346.97 169.76,346.97 170.17,346.83 170.58,346.60 170.98,345.92 171.39,345.88 171.80,345.59 172.21,345.39 172.61,345.16 173.02,344.71 173.43,344.60 173.84,344.03 174.24,343.70 174.65,343.25 175.06,343.25 175.47,343.25 175.87,343.25 176.28,343.25 176.69,343.25 177.10,343.25 177.50,343.25 177.91,343.36 178.32,343.59 178.73,343.59 179.13,343.59 179.54,343.70 179.95,344.55 180.36,345.06 180.76,345.50 181.17,346.26 181.58,347.15 181.99,347.93 182.39,348.53 182.80,349.43 183.21,350.32 183.62,350.98 184.02,351.98 184.43,352.53 184.84,353.06 185.25,353.83 185.65,354.38 186.06,355.14 186.47,355.46 186.88,356.01 187.28,356.63 187.69,357.17 188.10,357.72 188.51,357.82 188.91,358.25 189.32,358.69 189.73,358.79 190.14,358.85 190.54,359.28 190.95,359.27 191.36,359.70 191.77,360.05 192.17,360.04 192.58,360.25 192.99,360.35 193.40,360.89 193.80,361.32 194.21,362.07 194.62,362.61 195.03,362.87 195.43,363.19 195.84,363.73 196.25,364.59 196.66,365.52 197.06,366.38 197.47,366.99 197.88,367.63 198.29,368.60 198.69,369.45 199.10,370.20 199.51,370.84 199.92,371.59 200.32,372.22 200.73,372.96 201.14,374.08 201.55,374.49 201.95,375.34 202.36,375.98 202.77,376.93 203.18,377.62 203.58,378.35 203.99,379.31 204.40,380.15 204.81,380.67 205.21,381.55 205.62,382.08 206.03,382.92 206.44,383.98 206.84,384.71 207.25,385.65 207.66,386.46 208.07,387.30 208.47,388.24 208.88,388.64 209.29,389.37 209.70,390.36 210.10,390.44 210.51,390.63 210.92,391.35 211.33,392.18 211.73,392.79 212.14,393.19 212.55,393.43 212.96,393.50 213.36,393.48 213.77,393.66 214.18,393.95 214.59,394.15 214.99,394.28 215.40,395.00 215.81,395.07 216.22,395.04 216.62,394.91 217.03,394.77 217.44,394.67 217.85,394.42 218.25,393.86 218.66,393.62 219.07,393.59 219.48,392.92 219.88,392.89 220.29,393.08 220.70,393.15 221.11,393.44 221.51,393.51 221.92,393.49 222.33,393.98 222.74,394.27 223.14,394.66 223.55,394.73 223.96,395.26 224.37,395.33 224.77,395.30 225.18,395.27 225.59,395.24 226.00,395.32 226.40,395.28 226.81,395.25 227.22,395.22 227.63,395.19 228.03,395.16 228.44,395.13 228.85,395.10 229.26,395.17 229.66,395.14 230.07,395.22 230.48,395.29 230.89,395.26 231.29,395.23 231.70,395.20 232.11,395.16 232.52,395.13 232.92,395.10 233.33,394.97 233.74,394.94 234.15,394.91 234.55,394.98 234.96,395.32 235.37,395.53 235.78,395.80 236.18,395.77 236.59,395.74 237.00,395.71 237.41,395.68 237.81,395.77 238.22,395.74 238.63,395.81 239.04,396.39 239.44,396.57 239.85,396.53 240.26,396.71 240.67,396.88 241.07,397.05 241.48,397.33 241.89,397.70 242.30,397.67 242.70,397.64 243.11,397.60 243.52,397.57 243.93,397.54 244.33,397.61 244.74,397.57 245.15,397.54 245.56,397.51 245.96,397.68 246.37,398.35 246.78,398.93 247.19,398.90 247.59,399.67 248.00,400.45 248.41,400.92 248.82,401.59 249.22,402.28 249.63,402.79 250.04,403.33 250.45,403.90 250.85,404.67 251.26,405.34 251.67,405.90 252.08,406.77 252.48,407.63 252.89,408.40 253.30,408.56 253.71,409.02 254.11,409.36 254.52,409.82 254.93,410.48 255.34,410.74 255.74,411.30 256.15,412.02 256.56,412.48 256.97,413.00 257.37,413.25 257.78,413.31 258.19,413.72 258.60,414.28 259.00,414.60 259.41,414.76 259.82,414.91 260.23,414.96 260.63,414.92 261.04,415.25 261.45,415.39 261.86,415.34 262.26,415.79 262.67,416.44 263.08,417.08 263.49,417.83 263.89,418.37 264.30,418.85 264.71,419.49 265.12,420.35 265.52,421.13 265.93,421.87 266.34,422.41 266.75,423.14 267.15,423.88 267.56,424.61 267.97,425.28 268.38,425.75 268.78,426.14 269.19,426.22 269.60,426.17 270.01,426.11 270.41,426.06 270.82,426.01 271.23,425.96 271.64,426.10 272.04,426.34 272.45,426.28 272.86,426.23 273.27,426.57 273.67,427.20 274.08,427.14 274.49,427.09 274.90,427.03 275.30,426.98 275.71,426.93 276.12,426.87 276.53,426.82 276.93,426.76 277.34,426.71 277.75,426.66 278.16,426.60 278.56,426.65 278.97,427.28 279.38,427.80 279.79,428.02 280.19,428.45 280.60,428.88 281.01,428.82 281.42,429.19 281.82,429.13 282.23,429.08 282.64,429.02 283.05,428.96 283.45,428.91 283.86,428.85 284.27,428.89 284.68,428.93 285.08,428.88 285.49,428.82 285.90,428.76 286.31,428.71 286.71,428.65 287.12,428.60 287.53,428.54 287.94,428.96 288.34,428.90 288.75,428.85 289.16,428.89 289.57,429.02 289.97,428.96 290.38,428.91 290.79,428.85 291.20,428.79 291.60,428.93 292.01,429.23 292.42,429.45 292.83,429.40 293.23,429.34 293.64,429.38 294.05,429.79 294.46,430.43 294.86,430.94 295.27,431.35 295.68,431.48 296.09,431.51 296.49,431.45 296.90,431.96 297.31,431.90 297.72,431.84 298.12,431.78 298.53,431.72 298.94,431.66 299.35,431.60 299.75,431.54 300.16,431.44 300.57,431.32 300.98,430.80 301.38,430.64 301.79,430.59 302.20,430.43 302.61,430.38 303.01,430.32 303.42,430.26 303.83,430.39 304.24,430.42 304.64,430.36 305.05,430.30 305.46,430.24 305.87,430.18 306.27,430.22 306.68,430.16 307.09,430.10 307.50,430.04 307.90,429.98 308.31,429.92 308.72,429.86 309.13,429.81 309.53,429.75 309.94,429.69 310.35,429.63 310.76,429.57 311.16,429.92 311.57,430.66 311.98,430.60 312.39,430.54 312.79,430.48 313.20,430.42 313.61,430.72 314.02,430.85 314.42,430.79 314.83,430.73 315.24,430.76 315.65,430.88 316.05,430.94 316.46,431.16 316.87,431.46 317.28,431.94 317.68,432.06 318.09,432.00 318.50,431.94 318.91,432.06 319.31,432.27 319.72,432.71 320.13,432.74 320.54,432.67 320.94,432.61 321.35,432.55 321.76,432.49 322.17,432.43 322.57,432.36 322.98,432.23 323.39,432.17 323.80,432.11 324.20,432.04 324.61,431.98 325.02,431.92 325.43,431.86 325.83,431.80 326.24,431.82 326.65,431.76 327.06,431.70 327.46,431.64 327.87,431.93 328.28,431.87 328.69,431.89 329.09,431.83 329.50,431.77 329.91,431.71 330.32,431.64 330.72,431.67 331.13,431.61 331.54,431.63 331.95,431.57 332.35,431.51 332.76,431.45 333.17,431.38 333.58,431.15 333.98,431.08 334.39,431.02 334.80,430.96 335.21,430.90 335.61,430.83 336.02,430.77 336.43,430.71 336.84,430.65 337.24,430.50 337.65,430.43 338.06,430.11 338.47,430.05 338.87,430.07 339.28,430.01 339.69,429.95 340.10,429.89 340.50,429.82 340.91,429.76 341.32,429.70 341.73,429.64 342.13,429.35 342.54,428.91 342.95,428.52 343.36,428.08 343.76,427.75 344.17,427.43 344.58,426.60 344.99,426.28 345.39,425.87 345.80,425.55 346.21,425.40 346.62,425.26 347.02,425.03 347.43,424.62 347.84,424.31 348.25,423.65 348.65,422.90 349.06,422.22 349.47,421.51 349.88,420.60 350.28,419.86 350.69,419.13 351.10,418.47 351.51,417.91 351.91,417.39 352.32,416.65 352.73,415.92 353.14,415.18 353.54,414.63 353.95,413.99 354.36,413.49 354.77,413.02 355.17,412.21 355.58,411.63 355.99,411.07 356.40,410.42 356.80,409.72 357.21,409.04 357.62,408.70 358.03,407.90 358.43,407.23 358.84,406.51 359.25,405.87 359.66,405.30 360.06,404.66 360.47,403.78 360.88,403.07 361.29,402.53 361.69,401.73 362.10,401.10 362.51,400.49 362.92,399.98 363.32,399.11 363.73,398.23 364.14,397.56 364.55,396.85 364.95,396.15 365.36,395.41 365.77,394.79 366.18,394.09 366.58,393.39 366.99,392.61 367.40,392.04 367.81,391.26 368.21,390.34 368.62,389.64 369.03,388.86 369.44,388.17 369.84,387.71 370.25,387.03 370.66,386.34 371.07,385.63 371.47,384.86 371.88,384.02 372.29,383.58 372.70,383.05 373.10,382.45 373.51,381.77 373.92,381.29 374.33,380.61 374.73,379.93 375.14,379.35 375.55,378.59 375.96,378.01 376.36,377.31 376.77,376.64 377.18,375.96 377.59,375.36 377.99,374.84 378.40,374.12 378.81,373.37 379.22,372.95 379.62,372.44 380.03,371.93 380.44,371.27 380.85,370.60 381.25,370.10 381.66,369.52 382.07,368.95 382.48,368.45 382.88,367.79 383.29,367.27 383.70,367.01 384.11,366.51 384.51,365.96 384.92,365.55 385.33,364.97 385.74,364.32 386.14,363.79 386.55,363.12 386.96,362.39 387.37,361.89 387.77,361.41 388.18,360.68 388.59,360.09 389.00,359.45 389.40,358.88 389.81,358.20 390.22,357.94 390.63,357.30 391.03,356.74 391.44,356.33 391.85,355.94 392.26,355.38 392.66,354.74 393.07,354.18 393.48,353.46 393.89,353.10 394.29,352.55 394.70,352.07 395.11,351.74 395.52,351.05 395.92,350.50 396.33,349.95 396.74,349.39 397.15,349.01 397.55,349.00 397.96,349.00 398.37,349.00 398.78,348.99 399.18,349.30 399.59,349.55 400.00,349.77 400.41,350.08 400.81,350.08 401.22,350.07 401.63,350.07 402.04,350.06 402.44,350.06 402.85,350.13 403.26,350.43 403.67,350.43 404.07,350.42 404.48,350.42 404.89,350.25 405.30,349.96 405.70,349.87 406.11,349.72 406.52,349.71 406.93,349.78 407.33,349.55 407.74,349.47 408.15,349.24 408.56,348.85 408.96,348.85 409.37,348.84 409.78,348.84 410.19,348.68 410.59,348.30 411.00,348.11 411.41,347.73 411.82,347.72 412.22,347.66 412.63,347.35 413.04,346.78 413.45,346.61 413.85,346.15 414.26,346.15 414.67,345.77 415.08,345.40 415.48,344.93 415.89,344.74 416.30,344.74 416.71,344.44 417.11,344.37 417.52,344.37 417.93,343.99 418.34,343.99 418.74,343.99 419.15,343.99 419.56,343.99 419.97,343.84 420.37,343.77 420.78,343.77 421.19,343.77 421.60,343.77 422.00,343.77 422.41,343.77 422.82,343.77 423.23,343.77 423.63,343.77 424.04,343.78 424.45,343.78 424.86,343.78 425.26,343.78 425.67,343.78 426.08,343.34 426.49,342.99 426.89,342.85 427.30,342.85 427.71,342.48 428.12,342.19 428.52,342.12 428.93,342.12 429.34,341.98 429.75,341.83 430.15,341.84 430.56,341.84 430.97,341.84 431.38,341.84 431.78,341.41 432.19,341.41 432.60,341.41 433.01,341.34 433.41,341.35 433.82,340.99 434.23,340.85 434.64,340.63 435.04,340.27 435.45,340.03 435.86,339.89 436.27,339.53 436.67,339.17 437.08,339.18 437.49,338.68 437.90,338.26 438.30,337.76 438.71,337.06 439.12,336.57 439.53,336.27 439.93,335.77 440.34,335.21 440.75,334.71 441.16,334.17 441.56,333.89 441.97,333.48 442.38,333.35 442.79,332.76 443.19,332.47 443.60,332.02 444.01,331.40 444.42,330.91 444.82,330.36 445.23,329.94 445.64,329.51 446.05,329.17 446.45,328.63 446.86,328.43 447.27,327.82 447.68,327.38 448.08,327.26 448.49,326.79 448.90,326.24 449.31,326.25 449.71,326.20 450.12,326.21 450.53,326.23 450.94,326.25 451.34,326.26 451.75,326.28 452.16,326.30 452.57,326.29 452.97,325.89 453.38,325.76 453.79,325.78 454.20,325.80 454.60,325.82 455.01,325.83 455.42,325.85 455.83,325.87 456.23,325.88 456.64,325.83 457.05,325.85 457.46,325.87 457.86,325.88 458.27,325.90 458.68,325.92 459.09,325.93 459.49,325.95 459.90,325.97 460.31,325.99 460.72,326.00 461.12,326.28 461.53,326.30 461.94,326.31 462.35,326.33 462.75,326.48 463.16,326.77 463.57,326.79 463.98,326.80 464.38,326.82 464.79,326.84 465.20,326.92 465.61,326.94 466.01,326.95 466.42,326.86 466.83,326.78 467.24,326.80 467.64,326.82 468.05,326.43 468.46,326.25 468.87,326.26 469.27,326.28 469.68,326.30 470.09,326.03 470.50,326.05 470.90,325.89 471.31,325.91 471.72,325.93 472.13,325.81 472.53,325.50 472.94,325.45 473.35,325.47 473.76,325.35 474.16,324.84 474.57,324.27 474.98,323.83 475.39,323.26 475.79,322.75 476.20,322.28 476.61,321.84 477.02,321.43 477.42,320.93 477.83,320.56 478.24,320.06 478.65,319.54 479.05,319.01 479.46,318.77 479.87,318.34 480.28,317.90 480.68,317.33 481.09,316.91 481.50,316.48 481.91,315.92 482.31,315.42 482.72,315.06 483.13,314.71 483.54,314.22 483.94,313.73 484.35,313.25 484.76,312.78 485.17,312.43 485.57,312.01 485.98,311.53 486.39,311.11 486.80,310.63 487.20,310.28 487.61,310.06 488.02,309.70 488.43,309.23 488.83,308.81 489.24,308.45 489.65,308.04 490.06,307.76 490.46,307.23 490.87,306.82 491.28,306.60 491.69,306.07 492.09,305.73 492.50,305.26 492.91,304.79 493.32,304.45 493.72,304.14 494.13,303.68 494.54,303.15 494.95,302.69 495.35,302.42 495.76,301.95 496.17,301.49 496.58,301.03 496.98,300.63 497.39,300.22 497.80,299.89 498.21,299.44 498.61,299.00 499.02,298.67 499.43,298.28 499.84,297.89 500.24,297.51 500.65,297.12 501.06,296.76 501.47,296.34 501.87,296.02 502.28,295.67 502.69,295.29 503.10,295.09 503.50,294.76 503.91,294.26 504.32,293.94 504.73,293.38 505.13,293.00 505.54,292.57 505.95,292.31 506.36,292.00 506.76,291.76 507.17,291.44 507.58,291.01 507.99,290.58 508.39,290.18 508.80,289.75 509.21,289.43 509.62,289.12 510.02,288.82 510.43,288.46 510.84,287.97 511.25,287.62 511.65,287.26 512.06,287.01 512.47,286.71 512.88,286.23 513.28,285.69 513.69,285.28 514.10,284.85 514.51,284.51 514.91,284.12 515.32,283.64 515.73,283.47 516.14,283.12 516.54,282.83 516.95,282.59 517.36,282.12 517.77,281.89 518.17,281.48 518.58,281.13 518.99,280.79 519.40,280.44 519.80,279.98 520.21,279.75 520.62,279.47 521.03,279.01 521.43,278.67 521.84,278.33 522.25,277.99 522.66,277.60 523.06,277.44 523.47,277.18 523.88,276.90 524.29,276.46 524.69,276.01 525.10,275.75 525.51,275.53 525.92,275.26 526.32,275.28 526.73,275.30 527.14,275.37 527.55,275.45 527.95,275.53 528.36,275.60 528.77,275.68 529.18,275.75 529.58,276.06 529.99,276.13 530.40,276.21 530.81,276.57 531.21,276.64 531.62,276.72 532.03,277.07 532.44,277.27 532.84,277.35 533.25,277.25 533.66,277.33 534.07,277.40 534.47,277.48 534.88,277.61 535.29,278.04 535.70,278.24 536.10,278.14 536.51,278.33 536.92,278.69 537.33,278.98 537.73,279.34 538.14,279.53 538.55,279.90 538.96,280.02 539.36,280.30 539.77,280.71 540.18,280.90 540.59,280.97 540.99,280.98 541.40,281.06 541.81,281.13 542.22,281.20 542.62,281.22 543.03,281.29 543.44,281.36 543.85,281.10 544.25,280.90 544.66,280.86 545.07,280.82 545.48,280.84 545.88,280.78 546.29,280.50 546.70,280.46 547.11,280.38 547.51,280.46 547.92,280.48 548.33,280.33 548.74,280.49 549.14,280.68 549.55,281.02 549.96,281.26 550.37,281.68 550.77,281.86 551.18,282.26 551.59,282.22 552.00,282.08 552.40,282.07 552.81,281.98 553.22,281.99 553.63,281.96 554.03,281.93 554.44,282.00 554.85,282.07 555.26,282.09 555.66,282.05 556.07,282.07 556.48,282.15 556.89,282.22 557.29,282.30 557.70,282.33 558.11,282.35 558.52,282.43 558.92,282.71 559.33,283.05 559.74,283.46 560.15,283.68 560.55,284.05 560.96,284.22 561.37,284.53 561.78,284.71 562.18,284.84 562.59,285.07 563.00,285.30 563.41,285.74 563.81,286.17 564.22,286.50 564.63,286.99 565.04,287.43 565.44,287.60 565.85,287.78 566.26,288.09 566.67,288.33 567.07,288.60 567.48,289.08 567.89,289.20 568.30,289.63 568.70,289.75 569.11,290.12 569.52,290.45 569.93,290.77 570.33,291.04 570.74,291.46 571.15,291.64 571.56,291.80 571.96,292.28 572.37,292.64 572.78,293.11 573.19,293.53 573.59,293.96 574.00,294.38 574.41,294.84 574.82,295.31 575.22,295.83 575.63,296.34 576.04,296.81 576.45,297.31 576.85,297.72 577.26,298.17 577.67,298.63 578.08,298.98 578.48,299.38 578.89,299.84 579.30,300.23 579.71,300.62 580.11,301.07 580.52,301.37 580.93,301.84 581.34,302.34 581.74,302.73 582.15,303.18 582.56,303.63 582.97,304.02 583.37,304.42 583.78,304.82 584.19,305.26 584.60,305.66 585.01,306.15 585.41,306.44 585.82,306.84 586.23,307.03 586.64,307.42 587.04,307.86 587.45,308.29 587.86,308.63 588.27,309.16 588.67,309.59 589.08,309.98 589.49,310.41 589.90,310.81 590.30,311.18 590.71,311.45 591.12,311.87 591.53,312.20 591.93,312.52 592.34,312.90 592.75,313.42 593.16,313.84 593.56,314.31 593.97,314.67 594.38,315.09 594.79,315.46 595.19,315.83 595.60,316.25 596.01,316.52 596.42,316.93 596.82,317.33 597.23,317.60 597.64,317.64 598.05,317.77 598.45,317.80 598.86,317.84 599.27,317.87 599.68,318.05 600.08,318.28 600.49,318.64 600.90,318.77 601.31,319.03 601.71,319.13 602.12,319.35 602.53,319.54 602.94,319.85 603.34,320.14 603.75,320.31 604.16,320.62 604.57,320.65 604.97,320.77 605.38,321.04 605.79,321.43 606.20,321.56 606.60,321.73 607.01,321.80 607.42,321.88 607.83,321.81 608.23,321.75 608.64,321.64 609.05,321.54 609.46,321.44 609.86,321.57 610.27,321.65 610.68,321.64 611.09,321.62 611.49,321.66 611.90,321.69 612.31,321.72 612.72,321.75 613.12,321.83 613.53,321.86 613.94,322.14 614.35,322.45 614.75,322.57 615.16,322.64 615.57,322.68 615.98,322.71 616.38,322.74 616.79,322.77 617.20,322.80 617.61,322.83 618.01,322.69 618.42,322.67 618.83,322.71 619.24,322.78 619.64,322.81 620.05,322.84 620.46,322.88 620.87,322.91 621.27,322.94 621.68,323.06 622.09,323.13 622.50,322.95 622.90,322.85 623.31,322.88 623.72,322.78 624.13,322.77 624.53,322.81 624.94,322.84 625.35,322.87 625.76,322.90 626.16,322.93 626.57,323.01 626.98,323.04 627.39,323.03 627.79,322.98 628.20,322.84 628.61,322.87 629.02,322.78 629.42,322.69 629.83,322.68 630.24,322.71 630.65,322.91 631.05,322.94 631.46,323.10 631.87,323.45 632.28,323.65 632.68,323.78 633.09,324.06 633.50,324.18 633.91,324.41 634.31,324.49 634.72,324.52 635.13,324.55 635.54,324.58 635.94,324.61 636.35,324.64 636.76,324.67 637.17,324.70 637.57,324.73 637.98,324.72 638.39,324.75 638.80,324.78 639.20,324.81 639.61,324.84 640.02,324.87 640.43,324.82 640.83,324.85 641.24,324.88 641.65,324.92 642.06,324.95 642.46,324.82 642.87,324.86 643.28,324.93 643.69,325.16 644.09,325.23 644.50,325.26 644.91,325.29 645.32,325.32 645.72,325.51 646.13,325.71 646.54,325.82 646.95,325.85 647.35,325.88 647.76,325.91 648.17,325.94 648.58,325.97 648.98,326.00 649.39,326.03 649.80,326.06 650.21,326.09 650.61,326.23 651.02,326.38 651.43,326.56 651.84,326.90 652.24,326.97 652.65,327.00 653.06,327.14 653.47,327.36 653.87,327.50 654.28,327.53 654.69,327.56 655.10,327.70 655.50,328.03 655.91,328.35 656.32,328.57 656.73,328.86 657.13,329.19 657.54,329.37 657.95,329.55 658.36,329.83 658.76,330.01 659.17,330.20 659.58,330.50 659.99,330.65 660.39,330.90 660.80,331.03 661.21,331.13 661.62,331.15 662.02,331.20 662.43,331.23 662.84,331.40 663.25,331.57 663.65,331.70 664.06,331.83 664.47,332.14 664.88,332.38 665.28,332.73 665.69,332.97 666.10,333.28 666.51,333.56 666.91,333.84 667.32,334.15 667.73,334.39 668.14,334.69 668.54,335.00 668.95,335.17 669.36,335.37 669.77,335.71 670.17,336.01 670.58,336.27 670.99,336.64 671.40,336.90 671.80,336.99 672.21,337.14 672.62,337.23 673.03,337.24 673.43,337.29 673.84,337.30 674.25,337.42 674.66,337.68 675.06,337.83 675.47,337.84 675.88,337.85 676.29,337.86 676.69,337.88 677.10,337.89 677.51,337.90 677.92,337.91 678.32,337.92 678.73,337.97 679.14,337.98 679.55,337.99 679.95,337.94 680.36,337.95 680.77,337.96 681.18,337.94 681.58,337.85 681.99,337.86 682.40,337.84 682.81,337.85 683.21,337.87 683.62,337.88 684.03,337.89 684.44,337.90 684.84,337.78 685.25,337.73 685.66,337.70 686.07,337.62 686.47,337.55 686.88,337.40 687.29,337.38 687.70,337.24 688.10,337.22 688.51,337.23 688.92,337.15 689.33,337.10 689.73,337.08 690.14,336.97 690.55,336.75 690.96,336.58 691.36,336.45 691.77,336.18 692.18,336.00 692.59,335.81 692.99,335.60 693.40,335.39 693.81,335.25 694.22,335.04 694.62,334.84 695.03,334.57 695.44,334.40 695.85,334.38 696.25,334.13 696.66,333.93 697.07,333.73 697.48,333.44 697.88,333.24 698.29,333.10 698.70,332.95 699.11,332.70 699.51,332.51 699.92,332.28 700.33,332.12 700.74,331.90 701.14,331.71 701.55,331.52 701.96,331.33 702.37,331.05 702.77,330.77 703.18,330.62 703.59,330.46 704.00,330.28 704.40,330.12 704.81,330.09 705.22,329.91 705.63,329.76 706.03,329.58 706.44,329.61 706.85,329.65 707.26,329.68 707.66,329.68 708.07,329.71 708.48,329.68 708.89,329.71 709.29,329.70 709.70,329.67 710.11,329.71 710.52,329.62 710.92,329.48 711.33,329.34 711.74,329.31 712.15,329.23 712.55,329.06 712.96,328.86 713.37,328.79 713.78,328.82 714.18,328.86 714.59,328.86 715.00,328.67 715.41,328.50 715.81,328.34 716.22,328.37 716.63,328.21 717.04,328.07 717.44,327.94 717.85,327.82 718.26,327.67 718.67,327.46 719.07,327.30 719.48,327.06 719.89,326.96 720.30,326.74 720.70,326.62 721.11,326.44 721.52,326.31 721.93,326.15 722.33,326.01 722.74,325.86 723.15,325.74 723.56,325.49 723.96,325.28 724.37,325.16 724.78,325.07 725.19,324.90 725.59,324.81 726.00,324.61 726.41,324.42 726.82,324.22 727.22,324.06 727.63,323.92 728.04,323.75 728.45,323.53 728.85,323.42 729.26,323.35 729.67,323.20 730.08,323.02 730.48,322.84 730.89,322.71 731.30,322.62 731.71,322.54 732.11,322.41 732.52,322.26 732.93,322.13 733.34,322.00 733.74,321.85 734.15,321.73 734.56,321.61 734.97,321.48 735.37,321.33 735.78,321.14 736.19,320.94 736.60,320.84 737.00,320.75 737.41,320.60 737.82,320.56 738.23,320.47 738.63,320.33 739.04,320.24 739.45,320.15 739.86,320.02 740.26,319.90 740.67,319.74 741.08,319.65 741.49,319.54 741.89,319.41 742.30,319.29 742.71,319.23 743.12,319.10 743.52,318.99 743.93,318.89 744.34,318.76 744.75,318.64 745.15,318.49 745.56,318.36 745.97,318.22 746.38,318.12 746.78,317.97 747.19,317.86 747.60,317.82 748.01,317.75 748.41,317.73 748.82,317.60 749.23,317.53 749.64,317.39 750.04,317.33 750.45,317.24 750.86,317.17 751.27,317.07 751.67,316.97 752.08,316.87 752.49,316.83 752.90,316.75 753.30,316.69 753.71,316.58 754.12,316.52 754.53,316.46 754.93,316.41 755.34,316.26 755.75,316.21 756.16,316.13 756.56,316.07 756.97,316.01 757.38,315.94 757.79,315.85 758.19,315.77 758.60,315.79 759.01,315.68 759.42,315.57 759.82,315.55 760.23,315.49 760.64,315.53 761.05,315.50 761.45,315.38 761.86,315.34 762.27,315.25 762.68,315.21 763.08,315.09 763.49,315.01 763.90,314.97 764.31,314.88 764.71,314.81 765.12,314.69 765.53,314.61 765.94,314.49 766.34,314.46 766.75,314.38 767.16,314.29 767.57,314.22 767.97,314.13 768.38,314.04 768.79,314.03 769.20,313.96 769.60,313.87 770.01,313.83 770.42,313.72 770.83,313.76 771.23,313.68 771.64,313.63 772.05,313.57 772.46,313.52 772.86,313.46 773.27,313.46 773.68,313.46 774.09,313.40 774.49,313.38 774.90,313.31 775.31,313.28 775.72,313.23 776.12,313.19 776.53,313.16 776.94,313.13 777.35,313.14 777.75,313.07 778.16,313.04 778.57,313.03 778.98,312.99 779.38,312.96 779.79,312.94 780.20,312.91 780.61,312.89 781.01,312.88 781.42,312.86 781.83,312.81 782.24,312.75 782.64,312.73 783.05,312.72 783.46,312.71 783.87,312.69 784.27,312.64 784.68,312.63 785.09,312.60 785.50,312.59 785.90,312.56 786.31,312.55 786.72,312.52 787.13,312.46 787.53,312.47 787.94,312.45 788.35,312.50 788.76,312.50 789.16,312.51 789.57,312.49 789.98,312.58 790.39,312.59 790.79,312.71 791.20,312.76 791.61,312.88 792.02,313.00 792.42,313.12 792.83,313.26 793.24,313.37 793.65,313.49 794.05,313.61 794.46,313.73 794.87,313.83 795.28,313.91 795.68,314.03 796.09,314.15 796.50,314.27 796.91,314.34 797.31,314.43 797.72,314.45 798.13,314.57 798.54,314.69 798.94,314.81 799.35,314.93 799.76,315.05 800.17,315.17 800.57,315.29 800.98,315.41 801.39,315.53 801.80,315.65 802.20,315.77 802.61,315.89 803.02,316.01 803.43,316.11 803.83,316.23 804.24,316.31 804.65,316.40 805.06,316.43 805.46,316.48 805.87,316.52 806.28,316.54 806.69,316.58 807.09,316.64 807.50,316.71 807.91,316.84 808.32,316.96 808.72,317.07 809.13,317.19 809.54,317.31 809.95,317.43 810.35,317.55 810.76,317.68 811.17,317.80 811.58,317.92 811.98,318.03 812.39,318.15 812.80,318.26 813.21,318.38 813.61,318.51 814.02,318.56 814.43,318.67 814.84,318.71 815.24,318.81 815.65,318.93 816.06,318.99 816.47,319.10 816.87,319.23 817.28,319.30 817.69,319.39 818.10,319.51 818.50,319.62 818.91,319.73 819.32,319.86 819.73,319.98 820.13,320.10 820.54,320.22 820.95,320.31 821.36,320.44 821.76,320.56 822.17,320.59 822.58,320.66 822.99,320.74 823.39,320.85 823.80,320.94 824.21,321.02 824.62,321.11 825.02,321.23 825.43,321.36 825.84,321.48 826.25,321.61 826.65,321.74 827.06,321.86 827.47,321.99 827.88,322.11 828.28,322.24 828.69,322.37 829.10,322.48 829.51,322.60 829.91,322.71 830.32,322.81 830.73,322.93 831.14,323.06 831.54,323.19 831.95,323.31 832.36,323.43 832.77,323.50 833.17,323.59 833.58,323.72 833.99,323.79 834.40,323.90 834.80,324.02 835.21,324.15 835.62,324.24 836.03,324.32 836.43,324.39 836.84,324.46 837.25,324.55 837.66,324.68 838.06,324.80 838.47,324.87 838.88,324.96 839.29,325.06 839.69,325.12 840.10,325.23 840.51,325.34 840.92,325.41 841.32,325.49 841.73,325.58 842.14,325.66 842.55,325.78 842.95,325.88 843.36,326.00 843.77,326.13 844.18,326.22 844.58,326.32 844.99,326.42 845.40,326.53 845.81,326.65 846.21,326.74 846.62,326.82 847.03,326.89 847.44,326.96 847.84,327.08 848.25,327.20 848.66,327.32 849.07,327.46 849.47,327.60 849.88,327.73 850.29,327.84 850.70,327.97 851.10,328.10 851.51,328.24 851.92,328.39 852.33,328.53 852.73,328.69 853.14,328.87 853.55,329.03 853.96,329.18 854.36,329.32 854.77,329.46 855.18,329.58 855.59,329.67 855.99,329.74 856.40,329.83 856.81,329.95 857.22,330.07 857.62,330.20 858.03,330.31 858.44,330.43 858.85,330.52 859.25,330.62 859.66,330.70 860.07,330.80 860.48,330.93 860.88,331.05 861.29,331.19 861.70,331.31 862.11,331.41 862.51,331.52 862.92,331.62 863.33,331.76 863.74,331.90 864.14,332.04 864.55,332.19 864.96,332.33 865.37,332.47 865.77,332.61 866.18,332.76 866.59,332.92 867.00,333.06 867.40,333.20 867.81,333.34 868.22,333.48 868.63,333.62 869.03,333.76 869.44,333.90 869.85,334.04 870.26,334.15 870.66,334.27 871.07,334.40 871.48,334.51 871.89,334.65 872.29,334.79 872.70,334.92 873.11,335.05 873.52,335.17 873.92,335.31 874.33,335.46 874.74,335.60 875.15,335.74 875.55,335.88 875.96,336.03 876.37,336.17 876.78,336.31 877.18,336.45 877.59,336.60 878.00,336.74 878.41,336.88 878.81,337.01 879.22,337.14 879.63,337.27 880.04,337.41 880.44,337.54 880.85,337.69 881.26,337.83 881.67,337.97 882.07,338.12 882.48,338.26 882.89,338.40 883.30,338.55 883.70,338.69 884.11,338.84 884.52,338.98 884.93,339.12 885.33,339.27 885.74,339.41 886.15,339.56 886.56,339.70 886.96,339.84 887.37,339.99 887.78,340.13 888.19,340.27 888.59,340.42 889.00,340.56 889.41,340.70 889.82,340.85 890.22,340.99 890.63,341.12 891.04,341.26 891.45,341.39 891.85,341.53 892.26,341.67 892.67,341.82 893.08,341.96 893.48,342.11 893.89,342.25 894.30,342.40 894.71,342.55 895.11,342.69 895.52,342.83 895.93,342.98 896.34,343.12 896.74,343.27 897.15,343.42 897.56,343.56 897.97,343.71 898.37,343.86 898.78,344.00 899.19,344.15 899.60,344.30 900.00,344.44"/>
<line x1="85" y1="662.00" x2="900" y2="662.00" stroke="#111827" stroke-width="1"/>
<line x1="85" y1="479.33" x2="85" y2="662.00" stroke="#111827" stroke-width="1"/>
<text x="73" y="493.33" text-anchor="end" font-family="Arial" font-size="12" fill="#111827">Reference mid</text>
<line x1="85" y1="662.00" x2="900" y2="662.00" stroke="#e5e7eb" stroke-width="1"/>
<text x="73" y="666.00" text-anchor="end" font-family="Arial" font-size="11" fill="#374151">99822</text>
<line x1="85" y1="570.67" x2="900" y2="570.67" stroke="#e5e7eb" stroke-width="1"/>
<text x="73" y="574.67" text-anchor="end" font-family="Arial" font-size="11" fill="#374151">100250</text>
<line x1="85" y1="479.33" x2="900" y2="479.33" stroke="#e5e7eb" stroke-width="1"/>
<text x="73" y="483.33" text-anchor="end" font-family="Arial" font-size="11" fill="#374151">100679</text>
<polyline fill="none" stroke="#059669" stroke-width="2" points="85.00,623.99 85.41,624.59 85.82,626.03 86.22,627.02 86.63,627.24 87.04,625.59 87.45,624.03 87.85,623.54 88.26,625.45 88.67,626.11 89.08,623.53 89.48,625.63 89.89,624.41 90.30,623.90 90.71,625.24 91.11,622.06 91.52,620.85 91.93,621.61 92.34,619.91 92.74,621.16 93.15,618.68 93.56,617.66 93.97,615.94 94.37,616.79 94.78,616.87 95.19,614.34 95.60,612.53 96.00,612.77 96.41,612.86 96.82,610.65 97.23,610.15 97.63,610.47 98.04,608.39 98.45,606.24 98.86,604.27 99.26,603.99 99.67,604.50 100.08,604.91 100.49,601.31 100.89,603.05 101.30,603.79 101.71,602.94 102.12,599.57 102.52,600.03 102.93,598.68 103.34,598.06 103.75,598.55 104.15,596.33 104.56,595.29 104.97,595.80 105.38,596.30 105.78,596.01 106.19,595.33 106.60,595.19 107.01,594.23 107.41,595.32 107.82,593.95 108.23,591.68 108.64,592.23 109.04,593.31 109.45,595.17 109.86,595.36 110.27,594.94 110.67,593.21 111.08,594.19 111.49,593.01 111.90,591.78 112.30,593.41 112.71,591.40 113.12,590.69 113.53,589.19 113.93,590.38 114.34,589.39 114.75,592.42 115.16,593.06 115.56,593.55 115.97,591.62 116.38,594.49 116.79,591.75 117.19,593.74 117.60,594.01 118.01,595.24 118.42,593.64 118.82,597.68 119.23,598.41 119.64,598.46 120.05,596.75 120.45,596.60 120.86,598.02 121.27,598.11 121.68,600.65 122.08,598.49 122.49,599.18 122.90,593.25 123.31,597.71 123.71,597.03 124.12,599.66 124.53,597.17 124.94,596.42 125.34,597.00 125.75,593.80 126.16,592.05 126.57,595.52 126.97,594.69 127.38,595.70 127.79,596.65 128.20,597.55 128.60,598.89 129.01,599.42 129.42,598.68 129.83,599.12 130.23,601.36 130.64,603.59 131.05,607.99 131.46,608.50 131.86,607.87 132.27,605.58 132.68,603.31 133.09,604.87 133.49,605.89 133.90,605.56 134.31,606.17 134.72,606.68 135.12,604.67 135.53,604.65 135.94,605.46 136.35,605.66 136.75,607.58 137.16,608.16 137.57,607.92 137.98,606.03 138.38,603.41 138.79,603.95 139.20,603.82 139.61,600.16 140.01,602.29 140.42,601.44 140.83,600.33 141.24,601.82 141.64,601.59 142.05,602.48 142.46,601.88 142.87,603.92 143.27,603.41 143.68,604.16 144.09,604.38 144.50,605.22 144.90,604.52 145.31,603.36 145.72,602.86 146.13,603.45 146.53,605.52 146.94,606.19 147.35,605.97 147.76,607.61 148.16,609.37 148.57,608.12 148.98,612.05 149.39,610.24 149.79,608.93 150.20,607.83 150.61,605.21 151.02,605.36 151.42,603.82 151.83,604.82 152.24,603.55 152.65,603.20 153.05,604.16 153.46,604.23 153.87,604.04 154.28,607.22 154.68,606.90 155.09,608.76 155.50,606.98 155.91,606.64 156.31,605.63 156.72,607.40 157.13,606.52 157.54,606.31 157.94,603.95 158.35,603.65 158.76,603.16 159.17,599.52 159.57,600.64 159.98,601.42 160.39,603.46 160.80,603.70 161.20,602.59 161.61,601.46 162.02,596.61 162.43,597.79 162.83,599.51 163.24,599.76 163.65,599.35 164.06,600.20 164.46,598.87 164.87,599.19 165.28,600.63 165.69,602.06 166.09,601.20 166.50,599.33 166.91,598.53 167.32,599.90 167.72,598.07 168.13,599.83 168.54,599.27 168.95,600.42 169.35,600.40 169.76,600.87 170.17,598.16 170.58,596.38 170.98,600.43 171.39,599.31 171.80,597.47 172.21,596.58 172.61,597.32 173.02,594.86 173.43,591.77 173.84,589.64 174.24,589.60 174.65,591.55 175.06,593.22 175.47,593.86 175.87,594.61 176.28,596.44 176.69,597.50 177.10,597.92 177.50,599.43 177.91,602.62 178.32,603.83 178.73,604.16 179.13,604.74 179.54,607.66 179.95,607.89 180.36,609.61 180.76,609.08 181.17,611.07 181.58,611.87 181.99,613.45 182.39,614.27 182.80,613.46 183.21,615.70 183.62,615.17 184.02,616.65 184.43,615.27 184.84,613.81 185.25,611.39 185.65,613.32 186.06,610.62 186.47,609.80 186.88,610.83 187.28,611.00 187.69,612.29 188.10,610.91 188.51,611.86 188.91,613.13 189.32,611.06 189.73,610.07 190.14,610.63 190.54,613.19 190.95,613.02 191.36,613.27 191.77,612.46 192.17,614.35 192.58,614.48 192.99,613.62 193.40,612.85 193.80,617.02 194.21,616.47 194.62,614.40 195.03,615.91 195.43,616.13 195.84,619.12 196.25,619.33 196.66,621.51 197.06,624.73 197.47,626.87 197.88,624.34 198.29,623.73 198.69,623.98 199.10,622.34 199.51,623.70 199.92,625.77 200.32,624.39 200.73,624.94 201.14,624.96 201.55,624.17 201.95,623.93 202.36,626.04 202.77,624.02 203.18,627.12 203.58,625.96 203.99,627.87 204.40,630.92 204.81,627.18 205.21,629.23 205.62,627.56 206.03,628.86 206.44,626.83 206.84,627.40 207.25,627.71 207.66,629.10 208.07,628.49 208.47,623.23 208.88,622.20 209.29,620.72 209.70,622.13 210.10,622.06 210.51,626.11 210.92,626.83 211.33,625.02 211.73,624.67 212.14,623.70 212.55,625.85 212.96,623.02 213.36,621.34 213.77,621.85 214.18,622.08 214.59,622.55 214.99,621.72 215.40,620.64 215.81,615.25 216.22,615.06 216.62,614.21 217.03,615.75 217.44,614.40 217.85,612.84 218.25,612.56 218.66,615.52 219.07,615.48 219.48,614.71 219.88,615.43 220.29,618.94 220.70,617.62 221.11,619.82 221.51,619.12 221.92,621.56 222.33,622.60 222.74,623.39 223.14,622.12 223.55,623.27 223.96,625.15 224.37,622.03 224.77,620.71 225.18,620.29 225.59,618.54 226.00,620.46 226.40,617.48 226.81,619.70 227.22,620.57 227.63,621.62 228.03,623.32 228.44,622.93 228.85,623.38 229.26,624.64 229.66,624.34 230.07,623.77 230.48,623.73 230.89,623.98 231.29,620.93 231.70,620.61 232.11,620.85 232.52,619.38 232.92,617.33 233.33,616.24 233.74,619.54 234.15,621.94 234.55,622.27 234.96,625.63 235.37,624.98 235.78,624.66 236.18,624.24 236.59,625.04 237.00,621.91 237.41,624.73 237.81,624.84 238.22,627.25 238.63,629.40 239.04,629.89 239.44,629.08 239.85,629.61 240.26,628.83 240.67,625.74 241.07,626.61 241.48,628.15 241.89,626.05 242.30,627.02 242.70,627.49 243.11,625.57 243.52,624.78 243.93,625.47 244.33,627.06 244.74,626.16 245.15,626.18 245.56,627.01 245.96,628.37 246.37,631.05 246.78,629.63 247.19,631.65 247.59,633.97 248.00,635.46 248.41,634.68 248.82,638.01 249.22,638.51 249.63,637.84 250.04,638.24 250.45,639.28 250.85,640.21 251.26,641.14 251.67,640.05 252.08,638.07 252.48,636.60 252.89,634.59 253.30,635.18 253.71,633.15 254.11,635.30 254.52,632.67 254.93,634.26 255.34,635.08 255.74,636.38 256.15,636.08 256.56,636.51 256.97,634.61 257.37,633.06 257.78,634.18 258.19,633.08 258.60,631.52 259.00,631.46 259.41,631.74 259.82,631.20 260.23,629.13 260.63,631.84 261.04,632.65 261.45,633.62 261.86,635.56 262.26,637.83 262.67,637.47 263.08,638.18 263.49,638.40 263.89,639.77 264.30,640.84 264.71,639.61 265.12,641.04 265.52,643.06 265.93,642.51 266.34,642.28 266.75,642.53 267.15,639.45 267.56,639.57 267.97,638.01 268.38,635.82 268.78,636.90 269.19,635.80 269.60,633.99 270.01,632.40 270.41,632.47 270.82,631.88 271.23,633.78 271.64,637.48 272.04,637.35 272.45,635.36 272.86,635.45 273.27,638.44 273.67,638.82 274.08,636.99 274.49,634.50 274.90,632.14 275.30,634.09 275.71,633.59 276.12,631.61 276.53,631.98 276.93,634.42 277.34,631.14 277.75,635.54 278.16,635.53 278.56,637.64 278.97,639.15 279.38,641.24 279.79,641.20 280.19,640.82 280.60,640.48 281.01,639.59 281.42,638.32 281.82,637.88 282.23,637.57 282.64,636.81 283.05,638.25 283.45,634.57 283.86,633.89 284.27,638.97 284.68,638.23 285.08,639.14 285.49,635.37 285.90,636.32 286.31,638.09 286.71,637.06 287.12,637.58 287.53,639.35 287.94,638.05 288.34,636.69 288.75,635.47 289.16,639.18 289.57,636.54 289.97,638.97 290.38,639.16 290.79,641.09 291.20,641.28 291.60,640.93 292.01,641.42 292.42,641.83 292.83,640.56 293.23,640.55 293.64,643.45 294.05,645.46 294.46,645.78 294.86,647.60 295.27,644.49 295.68,642.20 296.09,642.56 296.49,643.58 296.90,641.77 297.31,642.78 297.72,642.29 298.12,639.10 298.53,639.51 298.94,637.77 299.35,637.02 299.75,636.63 300.16,633.95 300.57,633.33 300.98,635.27 301.38,634.95 301.79,634.29 302.20,636.72 302.61,637.59 303.01,638.27 303.42,637.66 303.83,640.61 304.24,638.59 304.64,640.16 305.05,638.38 305.46,638.60 305.87,641.56 306.27,637.42 306.68,638.03 307.09,639.50 307.50,639.62 307.90,641.07 308.31,638.42 308.72,639.24 309.13,640.41 309.53,640.77 309.94,642.24 310.35,644.38 310.76,645.00 311.16,645.88 311.57,644.33 311.98,642.13 312.39,640.89 312.79,644.20 313.20,643.86 313.61,645.37 314.02,642.39 314.42,643.08 314.83,643.88 315.24,644.43 315.65,641.81 316.05,644.44 316.46,645.61 316.87,644.91 317.28,645.17 317.68,644.74 318.09,643.68 318.50,647.79 318.91,649.40 319.31,647.14 319.72,646.84 320.13,645.06 320.54,645.04 320.94,644.43 321.35,641.64 321.76,641.47 322.17,642.33 322.57,640.00 322.98,639.02 323.39,641.79 323.80,642.08 324.20,642.54 324.61,641.20 325.02,640.68 325.43,642.67 325.83,644.00 326.24,644.96 326.65,643.76 327.06,645.45 327.46,647.62 327.87,648.67 328.28,647.17 328.69,644.28 329.09,645.06 329.50,645.94 329.91,645.05 330.32,646.49 330.72,646.69 331.13,646.74 331.54,645.20 331.95,643.34 332.35,644.38 332.76,643.18 333.17,640.57 333.58,639.71 333.98,640.74 334.39,641.05 334.80,643.18 335.21,641.22 335.61,641.94 336.02,643.32 336.43,643.48 336.84,640.41 337.24,640.63 337.65,639.43 338.06,640.31 338.47,641.27 338.87,644.86 339.28,645.46 339.69,643.53 340.10,641.56 340.50,642.30 340.91,642.43 341.32,643.31 341.73,641.28 342.13,639.66 342.54,636.45 342.95,636.10 343.36,636.83 343.76,635.94 344.17,633.48 344.58,637.54 344.99,638.94 345.39,638.74 345.80,638.87 346.21,635.66 346.62,636.05 347.02,632.36 347.43,635.12 347.84,632.37 348.25,630.47 348.65,629.98 349.06,625.80 349.47,625.01 349.88,624.02 350.28,623.92 350.69,623.90 351.10,624.96 351.51,626.82 351.91,626.60 352.32,627.06 352.73,626.61 353.14,625.32 353.54,623.56 353.95,623.49 354.36,620.06 354.77,618.14 355.17,620.81 355.58,622.20 355.99,618.66 356.40,617.11 356.80,616.32 357.21,614.83 357.62,614.33 358.03,615.10 358.43,614.93 358.84,613.12 359.25,612.92 359.66,616.32 360.06,619.01 360.47,620.04 360.88,620.02 361.29,620.24 361.69,616.88 362.10,616.40 362.51,614.16 362.92,614.12 363.32,615.18 363.73,614.63 364.14,614.63 364.55,613.23 364.95,610.08 365.36,607.37 365.77,606.27 366.18,604.95 366.58,608.55 366.99,612.21 367.40,610.09 367.81,606.19 368.21,603.97 368.62,603.68 369.03,601.11 369.44,602.11 369.84,603.77 370.25,601.37 370.66,603.77 371.07,603.39 371.47,605.37 371.88,600.40 372.29,601.72 372.70,597.21 373.10,594.03 373.51,593.67 373.92,591.23 374.33,593.32 374.73,592.90 375.14,590.78 375.55,591.39 375.96,593.50 376.36,594.47 376.77,594.21 377.18,592.88 377.59,594.86 377.99,595.98 378.40,598.92 378.81,600.48 379.22,598.98 379.62,600.16 380.03,600.47 380.44,601.45 380.85,601.03 381.25,602.41 381.66,601.19 382.07,600.02 382.48,602.01 382.88,603.51 383.29,604.29 383.70,606.25 384.11,607.63 384.51,608.21 384.92,608.39 385.33,605.59 385.74,602.57 386.14,603.61 386.55,604.76 386.96,601.76 387.37,604.76 387.77,605.35 388.18,602.72 388.59,603.59 389.00,601.78 389.40,602.13 389.81,599.84 390.22,600.48 390.63,600.66 391.03,601.18 391.44,602.87 391.85,601.82 392.26,601.83 392.66,601.24 393.07,601.03 393.48,602.29 393.89,603.32 394.29,602.86 394.70,604.68 395.11,603.31 395.52,602.15 395.92,603.65 396.33,602.49 396.74,602.60 397.15,605.16 397.55,605.15 397.96,607.07 398.37,609.59 398.78,611.59 399.18,615.29 399.59,616.53 400.00,614.38 400.41,615.02 400.81,614.64 401.22,613.87 401.63,613.14 402.04,614.34 402.44,612.46 402.85,615.35 403.26,615.92 403.67,613.17 404.07,612.22 404.48,611.01 404.89,608.82 405.30,608.98 405.70,606.32 406.11,609.24 406.52,611.14 406.93,610.44 407.33,609.88 407.74,610.28 408.15,608.73 408.56,610.13 408.96,610.40 409.37,609.81 409.78,610.60 410.19,610.02 410.59,609.71 411.00,607.80 411.41,606.88 411.82,605.82 412.22,606.04 412.63,602.23 413.04,600.30 413.45,599.37 413.85,601.07 414.26,600.22 414.67,599.84 415.08,600.57 415.48,601.57 415.89,604.79 416.30,604.63 416.71,604.51 417.11,604.78 417.52,604.79 417.93,605.08 418.34,605.54 418.74,604.55 419.15,605.44 419.56,604.88 419.97,605.50 420.37,608.83 420.78,608.57 421.19,609.08 421.60,607.14 422.00,608.49 422.41,610.41 422.82,608.78 423.23,607.26 423.63,607.03 424.04,608.12 424.45,607.73 424.86,608.18 425.26,607.88 425.67,606.59 426.08,604.29 426.49,601.41 426.89,604.37 427.30,604.34 427.71,601.48 428.12,600.66 428.52,603.11 428.93,602.57 429.34,601.24 429.75,600.94 430.15,603.15 430.56,605.34 430.97,604.85 431.38,603.49 431.78,603.55 432.19,605.12 432.60,605.46 433.01,603.26 433.41,602.97 433.82,601.25 434.23,601.61 434.64,600.55 435.04,600.22 435.45,599.92 435.86,600.40 436.27,599.19 436.67,599.76 437.08,598.29 437.49,597.39 437.90,594.93 438.30,592.87 438.71,591.61 439.12,590.55 439.53,590.87 439.93,591.71 440.34,588.59 440.75,589.90 441.16,591.30 441.56,591.09 441.97,589.42 442.38,588.92 442.79,588.76 443.19,588.78 443.60,589.45 444.01,590.07 444.42,588.69 444.82,590.48 445.23,590.51 445.64,592.84 446.05,590.26 446.45,590.70 446.86,591.99 447.27,593.44 447.68,593.72 448.08,593.70 448.49,593.17 448.90,594.54 449.31,594.10 449.71,595.90 450.12,598.85 450.53,597.93 450.94,599.78 451.34,601.13 451.75,598.98 452.16,596.55 452.57,594.77 452.97,597.25 453.38,596.02 453.79,598.31 454.20,600.77 454.60,601.17 455.01,601.48 455.42,599.51 455.83,598.93 456.23,598.79 456.64,597.88 457.05,599.13 457.46,599.57 457.86,600.82 458.27,602.85 458.68,600.59 459.09,595.90 459.49,597.74 459.90,598.07 460.31,601.55 460.72,602.42 461.12,602.60 461.53,601.97 461.94,603.01 462.35,602.22 462.75,603.44 463.16,602.65 463.57,603.92 463.98,603.27 464.38,604.55 464.79,604.25 465.20,603.35 465.61,602.97 466.01,602.71 466.42,599.57 466.83,599.25 467.24,599.98 467.64,599.86 468.05,600.19 468.46,598.40 468.87,599.98 469.27,598.46 469.68,594.95 470.09,595.38 470.50,593.27 470.90,594.96 471.31,594.12 471.72,594.22 472.13,592.28 472.53,594.22 472.94,592.83 473.35,593.56 473.76,590.73 474.16,589.94 474.57,589.79 474.98,587.18 475.39,585.46 475.79,584.88 476.20,587.43 476.61,587.83 477.02,585.03 477.42,586.41 477.83,587.72 478.24,585.91 478.65,583.34 479.05,586.25 479.46,587.68 479.87,586.90 480.28,585.56 480.68,584.01 481.09,584.92 481.50,585.40 481.91,583.84 482.31,583.28 482.72,582.08 483.13,582.30 483.54,582.80 483.94,582.22 484.35,580.50 484.76,580.43 485.17,576.99 485.57,575.33 485.98,574.75 486.39,575.64 486.80,573.33 487.20,570.33 487.61,569.67 488.02,568.08 488.43,567.54 488.83,568.25 489.24,567.71 489.65,562.38 490.06,562.37 490.46,565.04 490.87,562.86 491.28,561.57 491.69,561.92 492.09,561.47 492.50,561.09 492.91,558.93 493.32,556.78 493.72,558.78 494.13,556.02 494.54,554.71 494.95,552.64 495.35,554.29 495.76,552.31 496.17,550.41 496.58,551.82 496.98,552.04 497.39,550.59 497.80,548.74 498.21,550.42 498.61,549.80 499.02,549.57 499.43,548.40 499.84,545.64 500.24,545.73 500.65,549.27 501.06,550.85 501.47,550.53 501.87,551.18 502.28,553.80 502.69,555.00 503.10,553.44 503.50,555.32 503.91,553.23 504.32,551.76 504.73,553.82 505.13,552.59 505.54,551.33 505.95,550.40 506.36,551.35 506.76,549.39 507.17,549.85 507.58,550.76 507.99,553.03 508.39,552.59 508.80,551.01 509.21,555.65 509.62,551.47 510.02,548.44 510.43,550.00 510.84,551.69 511.25,551.89 511.65,549.88 512.06,552.03 512.47,550.59 512.88,551.45 513.28,548.44 513.69,549.43 514.10,551.24 514.51,549.55 514.91,550.90 515.32,553.40 515.73,551.05 516.14,551.65 516.54,550.46 516.95,548.69 517.36,547.75 517.77,549.17 518.17,548.63 518.58,551.93 518.99,550.44 519.40,552.74 519.80,551.67 520.21,551.74 520.62,550.51 521.03,550.53 521.43,551.01 521.84,552.04 522.25,554.64 522.66,551.30 523.06,551.58 523.47,550.55 523.88,550.79 524.29,550.27 524.69,548.35 525.10,547.68 525.51,550.63 525.92,551.95 526.32,549.80 526.73,551.16 527.14,551.52 527.55,554.32 527.95,557.77 528.36,557.22 528.77,556.29 529.18,557.90 529.58,557.69 529.99,556.94 530.40,558.20 530.81,561.60 531.21,559.19 531.62,559.02 532.03,559.27 532.44,557.03 532.84,556.74 533.25,554.49 533.66,554.69 534.07,553.85 534.47,555.05 534.88,559.24 535.29,558.98 535.70,555.58 536.10,554.10 536.51,557.63 536.92,560.44 537.33,561.95 537.73,564.07 538.14,565.50 538.55,565.86 538.96,563.16 539.36,564.49 539.77,563.59 540.18,563.87 540.59,559.35 540.99,559.46 541.40,556.60 541.81,556.82 542.22,555.77 542.62,553.78 543.03,556.48 543.44,555.75 543.85,553.60 544.25,554.22 544.66,554.18 545.07,554.62 545.48,553.59 545.88,555.58 546.29,554.98 546.70,555.34 547.11,552.63 547.51,554.07 547.92,554.21 548.33,555.78 548.74,556.02 549.14,559.04 549.55,559.72 549.96,560.47 550.37,560.61 550.77,559.20 551.18,556.32 551.59,556.93 552.00,555.01 552.40,555.06 552.81,555.43 553.22,554.76 553.63,555.78 554.03,552.72 554.44,552.88 554.85,552.85 555.26,550.95 555.66,549.10 556.07,551.10 556.48,552.74 556.89,551.72 557.29,551.68 557.70,551.42 558.11,554.09 558.52,555.88 558.92,557.98 559.33,558.48 559.74,560.29 560.15,562.87 560.55,561.93 560.96,559.90 561.37,558.27 561.78,560.56 562.18,562.86 562.59,562.19 563.00,563.17 563.41,567.27 563.81,568.82 564.22,566.44 564.63,567.34 565.04,566.39 565.44,567.71 565.85,568.72 566.26,566.35 566.67,564.82 567.07,565.23 567.48,565.66 567.89,564.60 568.30,565.40 568.70,564.00 569.11,566.15 569.52,566.94 569.93,565.91 570.33,567.46 570.74,567.51 571.15,568.40 571.56,569.22 571.96,570.06 572.37,572.02 572.78,573.92 573.19,574.29 573.59,577.42 574.00,581.01 574.41,580.52 574.82,578.51 575.22,576.11 575.63,575.63 576.04,576.36 576.45,578.75 576.85,580.68 577.26,580.52 577.67,580.36 578.08,582.89 578.48,583.08 578.89,584.83 579.30,584.77 579.71,587.42 580.11,586.78 580.52,589.79 580.93,591.19 581.34,593.33 581.74,594.40 582.15,594.01 582.56,595.47 582.97,596.66 583.37,597.16 583.78,596.32 584.19,599.79 584.60,598.88 585.01,597.06 585.41,596.84 585.82,594.30 586.23,594.86 586.64,595.93 587.04,597.70 587.45,598.58 587.86,601.23 588.27,599.43 588.67,599.01 589.08,598.98 589.49,599.36 589.90,599.44 590.30,600.34 590.71,601.85 591.12,600.55 591.53,597.37 591.93,597.22 592.34,597.02 592.75,595.99 593.16,595.70 593.56,596.09 593.97,596.83 594.38,595.30 594.79,594.00 595.19,595.01 595.60,597.33 596.01,597.62 596.42,597.30 596.82,598.39 597.23,596.96 597.64,594.98 598.05,596.30 598.45,594.91 598.86,592.87 599.27,593.37 599.68,596.48 600.08,595.23 600.49,595.93 600.90,597.02 601.31,598.09 601.71,597.31 602.12,595.06 602.53,596.80 602.94,596.42 603.34,594.03 603.75,594.84 604.16,595.23 604.57,594.93 604.97,593.23 605.38,594.64 605.79,595.14 606.20,592.85 606.60,595.24 607.01,593.47 607.42,591.96 607.83,593.75 608.23,590.49 608.64,591.18 609.05,591.89 609.46,592.84 609.86,592.74 610.27,594.32 610.68,593.41 611.09,590.71 611.49,589.36 611.90,591.70 612.31,591.84 612.72,591.40 613.12,594.33 613.53,597.05 613.94,599.78 614.35,601.68 614.75,601.32 615.16,601.37 615.57,600.10 615.98,595.97 616.38,594.49 616.79,594.96 617.20,595.20 617.61,593.08 618.01,592.40 618.42,594.40 618.83,594.75 619.24,596.93 619.64,595.85 620.05,596.81 620.46,595.62 620.87,591.99 621.27,593.87 621.68,596.08 622.09,592.77 622.50,591.78 622.90,589.81 623.31,588.07 623.72,589.09 624.13,589.19 624.53,590.23 624.94,590.47 625.35,591.02 625.76,590.75 626.16,592.02 626.57,592.35 626.98,589.19 627.39,589.21 627.79,588.90 628.20,586.83 628.61,587.70 629.02,585.91 629.42,588.17 629.83,588.51 630.24,592.91 630.65,592.78 631.05,592.92 631.46,596.56 631.87,596.43 632.28,597.34 632.68,598.66 633.09,600.16 633.50,600.67 633.91,601.13 634.31,600.73 634.72,595.97 635.13,593.51 635.54,593.13 635.94,594.49 636.35,595.18 636.76,595.19 637.17,593.76 637.57,592.63 637.98,594.09 638.39,592.74 638.80,592.04 639.20,591.49 639.61,591.30 640.02,591.72 640.43,591.70 640.83,590.28 641.24,591.80 641.65,591.36 642.06,591.81 642.46,593.02 642.87,594.70 643.28,593.56 643.69,591.61 644.09,591.94 644.50,591.54 644.91,592.54 645.32,594.13 645.72,596.27 646.13,597.64 646.54,599.51 646.95,597.38 647.35,598.63 647.76,596.55 648.17,596.92 648.58,595.28 648.98,595.45 649.39,596.62 649.80,593.96 650.21,595.79 650.61,598.75 651.02,597.20 651.43,597.80 651.84,598.94 652.24,601.59 652.65,601.06 653.06,600.36 653.47,601.37 653.87,602.06 654.28,603.40 654.69,604.24 655.10,605.21 655.50,606.16 655.91,605.50 656.32,606.70 656.73,607.28 657.13,608.62 657.54,608.48 657.95,607.64 658.36,607.81 658.76,607.00 659.17,607.85 659.58,606.76 659.99,606.54 660.39,604.11 660.80,603.48 661.21,603.04 661.62,602.86 662.02,601.52 662.43,604.29 662.84,606.19 663.25,606.05 663.65,604.69 664.06,607.85 664.47,607.83 664.88,609.74 665.28,608.65 665.69,608.48 666.10,611.47 666.51,611.41 666.91,612.30 667.32,614.11 667.73,610.13 668.14,608.72 668.54,610.10 668.95,608.06 669.36,609.53 669.77,609.93 670.17,610.69 670.58,611.00 670.99,608.82 671.40,609.80 671.80,608.24 672.21,607.44 672.62,605.16 673.03,603.34 673.43,605.20 673.84,604.71 674.25,605.52 674.66,606.12 675.06,603.65 675.47,601.85 675.88,599.38 676.29,599.35 676.69,598.55 677.10,596.20 677.51,597.28 677.92,599.42 678.32,602.09 678.73,603.68 679.14,600.21 679.55,598.04 679.95,598.95 680.36,599.86 680.77,597.64 681.18,596.37 681.58,596.61 681.99,596.98 682.40,598.21 682.81,598.29 683.21,599.05 683.62,599.64 684.03,599.69 684.44,596.88 684.84,594.51 685.25,592.58 685.66,591.96 686.07,590.94 686.47,590.68 686.88,590.76 687.29,591.03 687.70,593.77 688.10,592.49 688.51,595.17 688.92,593.60 689.33,590.79 689.73,589.64 690.14,588.04 690.55,586.74 690.96,587.34 691.36,588.08 691.77,588.97 692.18,588.49 692.59,586.93 692.99,585.63 693.40,586.22 693.81,585.81 694.22,586.92 694.62,584.80 695.03,584.91 695.44,584.90 695.85,586.62 696.25,586.27 696.66,585.47 697.07,582.19 697.48,583.50 697.88,583.27 698.29,584.33 698.70,583.14 699.11,583.91 699.51,581.23 699.92,580.64 700.33,576.97 700.74,578.24 701.14,579.81 701.55,574.17 701.96,577.90 702.37,577.70 702.77,580.27 703.18,580.36 703.59,583.76 704.00,584.25 704.40,583.31 704.81,584.28 705.22,579.75 705.63,582.30 706.03,585.02 706.44,585.76 706.85,587.18 707.26,586.91 707.66,586.66 708.07,589.53 708.48,587.53 708.89,587.41 709.29,585.97 709.70,586.35 710.11,584.72 710.52,580.94 710.92,580.96 711.33,582.16 711.74,580.09 712.15,579.39 712.55,580.08 712.96,578.69 713.37,581.36 713.78,583.26 714.18,583.86 714.59,582.52 715.00,579.92 715.41,580.71 715.81,580.18 716.22,582.45 716.63,580.67 717.04,579.95 717.44,577.82 717.85,577.89 718.26,577.49 718.67,571.44 719.07,570.84 719.48,568.23 719.89,569.44 720.30,571.50 720.70,571.94 721.11,568.87 721.52,569.47 721.93,570.37 722.33,567.31 722.74,566.18 723.15,567.32 723.56,569.37 723.96,568.77 724.37,565.18 724.78,565.16 725.19,561.93 725.59,558.35 726.00,558.35 726.41,557.62 726.82,557.78 727.22,558.31 727.63,557.82 728.04,556.37 728.45,557.29 728.85,556.33 729.26,557.47 729.67,559.74 730.08,560.64 730.48,560.48 730.89,558.28 731.30,561.50 731.71,560.69 732.11,560.79 732.52,558.23 732.93,555.13 733.34,556.82 733.74,555.58 734.15,556.99 734.56,556.53 734.97,555.46 735.37,556.51 735.78,556.49 736.19,552.93 736.60,549.96 737.00,548.44 737.41,546.32 737.82,548.93 738.23,545.82 738.63,542.98 739.04,542.99 739.45,541.46 739.86,541.25 740.26,542.78 740.67,541.90 741.08,537.36 741.49,540.92 741.89,540.96 742.30,541.28 742.71,538.68 743.12,538.10 743.52,537.59 743.93,534.59 744.34,533.97 744.75,534.29 745.15,535.15 745.56,535.03 745.97,532.73 746.38,533.92 746.78,534.38 747.19,533.57 747.60,532.39 748.01,535.66 748.41,533.04 748.82,530.35 749.23,529.82 749.64,529.44 750.04,531.32 750.45,532.53 750.86,533.31 751.27,531.43 751.67,529.90 752.08,529.89 752.49,527.83 752.90,530.62 753.30,529.24 753.71,528.17 754.12,530.54 754.53,529.68 754.93,533.04 755.34,531.99 755.75,531.82 756.16,534.59 756.56,532.35 756.97,532.65 757.38,529.75 757.79,526.79 758.19,524.68 758.60,522.34 759.01,523.68 759.42,521.76 759.82,523.76 760.23,521.38 760.64,521.48 761.05,522.10 761.45,521.43 761.86,519.70 762.27,518.64 762.68,519.86 763.08,518.24 763.49,520.41 763.90,521.23 764.31,518.95 764.71,518.71 765.12,518.83 765.53,520.02 765.94,520.82 766.34,519.45 766.75,519.28 767.16,519.58 767.57,518.54 767.97,519.74 768.38,517.26 768.79,516.46 769.20,519.21 769.60,519.84 770.01,519.15 770.42,518.90 770.83,519.48 771.23,521.39 771.64,520.55 772.05,522.58 772.46,523.18 772.86,522.78 773.27,520.11 773.68,519.27 774.09,521.23 774.49,521.68 774.90,520.25 775.31,520.01 775.72,522.15 776.12,521.37 776.53,519.75 776.94,518.40 777.35,518.54 777.75,516.01 778.16,514.34 778.57,513.76 778.98,513.67 779.38,514.20 779.79,516.46 780.20,512.08 780.61,512.41 781.01,511.40 781.42,509.45 781.83,506.14 782.24,503.58 782.64,506.11 783.05,506.40 783.46,506.31 783.87,508.37 784.27,508.10 784.68,507.43 785.09,506.70 785.50,509.18 785.90,509.88 786.31,508.49 786.72,508.80 787.13,506.82 787.53,506.79 787.94,508.62 788.35,507.53 788.76,505.63 789.16,507.27 789.57,508.24 789.98,509.13 790.39,509.38 790.79,510.68 791.20,513.25 791.61,514.22 792.02,518.14 792.42,518.44 792.83,519.99 793.24,517.76 793.65,517.62 794.05,518.25 794.46,515.74 794.87,514.59 795.28,512.20 795.68,513.74 796.09,515.09 796.50,513.35 796.91,512.68 797.31,513.51 797.72,514.08 798.13,514.00 798.54,511.75 798.94,511.66 799.35,512.35 799.76,511.48 800.17,511.34 800.57,514.26 800.98,515.83 801.39,516.86 801.80,511.57 802.20,512.92 802.61,511.77 803.02,512.06 803.43,510.52 803.83,511.09 804.24,506.44 804.65,504.55 805.06,505.09 805.46,506.24 805.87,504.63 806.28,504.84 806.69,503.75 807.09,505.14 807.50,505.63 807.91,507.09 808.32,507.37 808.72,507.78 809.13,510.98 809.54,511.13 809.95,511.76 810.35,511.30 810.76,509.46 811.17,510.14 811.58,509.82 811.98,509.86 812.39,510.90 812.80,510.84 813.21,508.66 813.61,509.88 814.02,507.78 814.43,508.02 814.84,508.63 815.24,508.23 815.65,507.77 816.06,510.07 816.47,510.18 816.87,511.59 817.28,509.18 817.69,507.33 818.10,510.68 818.50,508.11 818.91,506.48 819.32,506.10 819.73,507.82 820.13,508.79 820.54,507.02 820.95,506.77 821.36,509.09 821.76,509.09 822.17,508.51 822.58,503.01 822.99,505.17 823.39,505.34 823.80,505.59 824.21,504.62 824.62,505.63 825.02,506.78 825.43,507.28 825.84,507.11 826.25,506.81 826.65,509.28 827.06,508.29 827.47,508.38 827.88,507.53 828.28,507.91 828.69,505.43 829.10,503.90 829.51,505.96 829.91,505.02 830.32,504.97 830.73,505.03 831.14,504.01 831.54,506.61 831.95,505.43 832.36,503.08 832.77,503.31 833.17,503.38 833.58,501.09 833.99,502.03 834.40,501.46 834.80,503.43 835.21,503.89 835.62,502.36 836.03,500.80 836.43,501.33 836.84,500.31 837.25,501.20 837.66,499.48 838.06,499.15 838.47,498.25 838.88,498.72 839.29,500.20 839.69,501.85 840.10,503.47 840.51,498.63 840.92,496.92 841.32,495.22 841.73,497.39 842.14,497.60 842.55,498.63 842.95,497.02 843.36,499.35 843.77,498.17 844.18,496.02 844.58,497.00 844.99,499.43 845.40,497.75 845.81,496.70 846.21,496.51 846.62,497.42 847.03,496.65 847.44,497.22 847.84,499.05 848.25,498.59 848.66,499.02 849.07,499.97 849.47,499.15 849.88,500.61 850.29,499.76 850.70,503.73 851.10,505.21 851.51,505.43 851.92,507.40 852.33,512.12 852.73,513.95 853.14,510.07 853.55,509.29 853.96,508.10 854.36,506.09 854.77,504.82 855.18,500.00 855.59,499.45 855.99,500.25 856.40,502.52 856.81,502.46 857.22,502.20 857.62,499.25 858.03,496.21 858.44,496.22 858.85,496.22 859.25,493.48 859.66,493.12 860.07,493.89 860.48,497.02 860.88,496.37 861.29,495.73 861.70,492.40 862.11,493.40 862.51,493.74 862.92,496.10 863.33,497.10 863.74,499.16 864.14,497.45 864.55,499.54 864.96,501.79 865.37,503.40 865.77,505.14 866.18,506.15 866.59,505.54 867.00,505.63 867.40,503.34 867.81,503.91 868.22,505.07 868.63,504.30 869.03,501.69 869.44,499.14 869.85,495.22 870.26,496.62 870.66,498.57 871.07,499.23 871.48,500.70 871.89,501.10 872.29,498.17 872.70,497.81 873.11,495.80 873.52,495.14 873.92,494.54 874.33,497.36 874.74,497.85 875.15,499.23 875.55,501.79 875.96,501.31 876.37,499.41 876.78,498.83 877.18,498.82 877.59,497.67 878.00,495.20 878.41,494.98 878.81,495.24 879.22,493.78 879.63,494.48 880.04,494.43 880.44,495.60 880.85,496.89 881.26,497.58 881.67,497.99 882.07,499.27 882.48,499.37 882.89,500.71 883.30,501.13 883.70,502.18 884.11,499.24 884.52,502.00 884.93,501.77 885.33,499.52 885.74,502.33 886.15,504.38 886.56,501.56 886.96,502.55 887.37,502.01 887.78,502.50 888.19,502.74 888.59,500.12 889.00,500.85 889.41,498.98 889.82,497.55 890.22,495.86 890.63,494.66 891.04,495.27 891.45,491.93 891.85,493.13 892.26,492.97 892.67,496.56 893.08,498.72 893.48,499.31 893.89,497.80 894.30,501.37 894.71,498.17 895.11,496.53 895.52,496.98 895.93,499.67 896.34,498.79 896.74,496.37 897.15,497.79 897.56,498.09 897.97,498.60 898.37,499.52 898.78,497.40 899.19,499.87 899.60,499.41 900.00,500.92"/>
<text x="85.00" y="696" text-anchor="middle" font-family="Arial" font-size="12" fill="#374151">0</text>
<text x="288.75" y="696" text-anchor="middle" font-family="Arial" font-size="12" fill="#374151">50000</text>
<text x="492.50" y="696" text-anchor="middle" font-family="Arial" font-size="12" fill="#374151">100000</text>
<text x="696.25" y="696" text-anchor="middle" font-family="Arial" font-size="12" fill="#374151">149999</text>
<text x="900.00" y="696" text-anchor="middle" font-family="Arial" font-size="12" fill="#374151">199999</text>
<text x="492.5" y="716" text-anchor="middle" font-family="Arial" font-size="14" fill="#111827">Event index</text>
</svg>
