<svg xmlns="http://www.w3.org/2000/svg" width="940" height="540" viewBox="0 0 940 540">
<rect width="100%" height="100%" fill="#ffffff"/>
<text x="470.0" y="26" text-anchor="middle" font-family="Arial" font-size="18" fill="#111827">Calibrated Avellaneda Stoikov Inventory By Regime</text>
<line x1="85" y1="470" x2="785" y2="470" stroke="#111827" stroke-width="1"/>
<line x1="85" y1="42" x2="85" y2="470" stroke="#111827" stroke-width="1"/>
<line x1="85.00" y1="42" x2="85.00" y2="470" stroke="#e5e7eb" stroke-width="1"/>
<text x="85.00" y="494" text-anchor="middle" font-family="Arial" font-size="12" fill="#374151">0</text>
<line x1="260.00" y1="42" x2="260.00" y2="470" stroke="#e5e7eb" stroke-width="1"/>
<text x="260.00" y="494" text-anchor="middle" font-family="Arial" font-size="12" fill="#374151">50000</text>
<line x1="435.00" y1="42" x2="435.00" y2="470" stroke="#e5e7eb" stroke-width="1"/>
<text x="435.00" y="494" text-anchor="middle" font-family="Arial" font-size="12" fill="#374151">100000</text>
<line x1="610.00" y1="42" x2="610.00" y2="470" stroke="#e5e7eb" stroke-width="1"/>
<text x="610.00" y="494" text-anchor="middle" font-family="Arial" font-size="12" fill="#374151">149999</text>
<line x1="785.00" y1="42" x2="785.00" y2="470" stroke="#e5e7eb" stroke-width="1"/>
<text x="785.00" y="494" text-anchor="middle" font-family="Arial" font-size="12" fill="#374151">199999</text>
<line x1="85" y1="470.00" x2="785" y2="470.00" stroke="#e5e7eb" stroke-width="1"/>
<text x="73" y="474.00" text-anchor="end" font-family="Arial" font-size="12" fill="#374151">-14644</text>
<line x1="85" y1="363.00" x2="785" y2="363.00" stroke="#e5e7eb" stroke-width="1"/>
<text x="73" y="367.00" text-anchor="end" font-family="Arial" font-size="12" fill="#374151">2634</text>
<line x1="85" y1="256.00" x2="785" y2="256.00" stroke="#e5e7eb" stroke-width="1"/>
<text x="73" y="260.00" text-anchor="end" font-family="Arial" font-size="12" fill="#374151">19912</text>
<line x1="85" y1="149.00" x2="785" y2="149.00" stroke="#e5e7eb" stroke-width="1"/>
<text x="73" y="153.00" text-anchor="end" font-family="Arial" font-size="12" fill="#374151">37190</text>
<line x1="85" y1="42.00" x2="785" y2="42.00" stroke="#e5e7eb" stroke-width="1"/>
<text x="73" y="46.00" text-anchor="end" font-family="Arial" font-size="12" fill="#374151">54468</text>
<polyline fill="none" stroke="#2563eb" stroke-width="2" points="85.00,379.31 85.35,379.35 85.70,379.23 86.05,379.35 86.40,379.54 86.75,379.63 87.10,379.75 87.45,379.63 87.80,379.10 88.15,378.72 88.50,378.47 88.85,378.47 89.20,378.41 89.55,378.35 89.90,378.35 90.25,378.47 90.60,378.70 90.95,379.07 91.30,379.44 91.65,379.89 92.00,380.04 92.35,380.04 92.70,380.10 93.05,380.10 93.40,380.16 93.75,380.34 94.10,380.36 94.45,380.42 94.80,380.36 95.15,380.17 95.50,379.90 95.85,379.84 96.20,379.59 96.55,379.59 96.90,379.60 97.25,379.86 97.60,379.61 97.95,379.61 98.30,379.61 98.65,379.61 99.00,379.61 99.35,379.38 99.70,379.38 100.05,379.14 100.40,379.14 100.75,378.83 101.10,378.83 101.45,378.52 101.80,378.52 102.15,378.32 102.50,378.20 102.85,378.20 103.20,378.26 103.55,378.26 103.90,378.13 104.25,378.13 104.60,378.09 104.95,377.84 105.30,377.53 105.65,377.47 106.00,377.47 106.35,377.35 106.70,376.77 107.05,376.71 107.40,376.34 107.75,376.21 108.10,375.90 108.45,375.69 108.80,375.63 109.15,375.50 109.50,375.34 109.85,374.91 110.20,374.91 110.55,374.78 110.90,374.55 111.25,374.35 111.60,374.23 111.95,374.23 112.30,374.23 112.65,374.23 113.00,374.23 113.35,374.23 113.70,374.23 114.05,374.23 114.40,374.23 114.75,374.23 115.10,374.22 115.45,374.22 115.80,374.22 116.15,374.03 116.50,374.03 116.85,373.97 117.20,373.97 117.55,373.97 117.90,373.97 118.25,373.60 118.60,373.41 118.95,373.10 119.30,373.10 119.65,373.10 120.00,372.98 120.35,372.79 120.70,372.79 121.05,372.79 121.40,372.79 121.75,372.79 122.10,372.79 122.45,372.73 122.80,372.54 123.15,372.54 123.50,372.54 123.85,372.54 124.20,372.48 124.55,372.48 124.90,372.48 125.25,372.48 125.60,372.23 125.95,372.17 126.30,372.11 126.65,372.11 127.00,372.11 127.35,372.17 127.70,372.23 128.05,372.23 128.40,372.54 128.75,372.73 129.10,372.91 129.45,372.91 129.80,373.22 130.15,373.53 130.50,373.65 130.85,373.77 131.20,373.96 131.55,373.93 131.90,373.93 132.25,373.93 132.60,373.93 132.95,374.05 133.30,374.18 133.65,374.18 134.00,374.18 134.35,374.18 134.70,374.18 135.05,374.24 135.40,374.24 135.75,374.24 136.10,374.24 136.45,374.24 136.80,374.36 137.15,374.36 137.50,374.36 137.85,374.55 138.20,374.67 138.55,374.63 138.90,374.38 139.25,374.32 139.60,374.32 139.95,373.89 140.30,373.64 140.65,373.27 141.00,373.08 141.35,373.08 141.70,373.08 142.05,372.65 142.40,372.40 142.75,372.09 143.10,372.09 143.45,372.03 143.80,372.03 144.15,372.03 144.50,371.91 144.85,371.85 145.20,371.54 145.55,371.23 145.90,371.07 146.25,371.07 146.60,371.07 146.95,371.07 147.30,370.94 147.65,370.70 148.00,370.60 148.35,370.60 148.70,370.60 149.05,370.60 149.40,370.60 149.75,370.36 150.10,370.36 150.45,370.36 150.80,370.26 151.15,370.02 151.50,370.02 151.85,369.64 152.20,369.33 152.55,369.33 152.90,369.33 153.25,369.33 153.60,369.33 153.95,369.33 154.30,369.33 154.65,369.33 155.00,369.27 155.35,369.27 155.70,369.27 156.05,369.27 156.40,369.27 156.75,369.27 157.10,369.27 157.45,369.27 157.80,369.09 158.15,369.09 158.50,369.09 158.85,369.09 159.20,369.09 159.55,369.09 159.90,368.96 160.25,368.96 160.60,368.90 160.95,368.70 161.30,368.42 161.65,368.42 162.00,368.42 162.35,368.42 162.70,368.42 163.05,368.36 163.40,368.18 163.75,367.99 164.10,367.88 164.45,367.70 164.80,367.51 165.15,367.51 165.50,367.51 165.85,367.51 166.20,367.51 166.55,367.51 166.90,367.51 167.25,367.51 167.60,367.51 167.95,367.51 168.30,367.51 168.65,367.51 169.00,367.51 169.35,367.51 169.70,367.51 170.05,367.51 170.40,367.51 170.75,367.51 171.10,367.02 171.45,366.77 171.80,366.77 172.15,366.71 172.50,366.58 172.85,366.58 173.20,366.58 173.55,366.58 173.90,366.58 174.25,366.52 174.60,366.52 174.95,366.52 175.30,366.52 175.65,366.52 176.00,366.52 176.35,366.52 176.70,366.52 177.05,366.52 177.40,366.52 177.75,366.52 178.10,366.27 178.45,365.90 178.80,365.90 179.15,365.66 179.50,365.47 179.85,365.47 180.20,365.47 180.55,365.47 180.90,365.47 181.25,365.47 181.60,365.47 181.95,365.47 182.30,365.47 182.65,365.47 183.00,365.47 183.35,365.35 183.70,365.35 184.05,365.35 184.40,365.16 184.75,364.66 185.10,364.66 185.45,364.48 185.80,364.32 186.15,364.26 186.50,364.13 186.85,364.07 187.20,364.07 187.55,364.07 187.90,364.07 188.25,364.01 188.60,363.95 188.95,363.76 189.30,363.44 189.65,363.32 190.00,363.13 190.35,363.04 190.70,362.73 191.05,362.73 191.40,362.55 191.75,362.48 192.10,362.37 192.45,362.37 192.80,362.37 193.15,362.25 193.50,362.25 193.85,362.25 194.20,362.25 194.55,362.13 194.90,361.87 195.25,361.62 195.60,361.10 195.95,360.79 196.30,360.63 196.65,360.32 197.00,360.32 197.35,360.20 197.70,360.20 198.05,360.20 198.40,360.20 198.75,360.14 199.10,360.01 199.45,359.77 199.80,359.64 200.15,359.23 200.50,358.92 200.85,358.68 201.20,358.35 201.55,357.79 201.90,357.60 202.25,357.11 202.60,356.74 202.95,356.24 203.30,355.99 203.65,355.50 204.00,355.25 204.35,355.19 204.70,355.19 205.05,355.00 205.40,354.88 205.75,354.64 206.10,354.27 206.45,353.71 206.80,353.42 207.15,353.29 207.50,353.05 207.85,352.99 208.20,352.61 208.55,352.61 208.90,352.61 209.25,352.61 209.60,352.49 209.95,352.24 210.30,352.06 210.65,351.94 211.00,351.57 211.35,351.57 211.70,351.57 212.05,351.57 212.40,351.57 212.75,351.57 213.10,351.57 213.45,351.57 213.80,351.57 214.15,351.57 214.50,351.57 214.85,351.57 215.20,351.57 215.55,351.69 215.90,351.77 216.25,351.89 216.60,351.89 216.95,352.16 217.30,352.40 217.65,352.42 218.00,352.42 218.35,352.48 218.70,352.48 219.05,352.48 219.40,352.48 219.75,352.48 220.10,352.48 220.45,352.48 220.80,352.55 221.15,352.69 221.50,352.76 221.85,352.94 222.20,352.94 222.55,353.13 222.90,353.25 223.25,353.31 223.60,353.31 223.95,353.31 224.30,353.31 224.65,353.31 225.00,353.31 225.35,353.31 225.70,353.31 226.05,353.44 226.40,353.44 226.75,353.44 227.10,353.44 227.45,353.44 227.80,353.44 228.15,353.44 228.50,353.44 228.85,353.44 229.20,353.44 229.55,353.44 229.90,353.44 230.25,353.44 230.60,353.44 230.95,353.44 231.30,353.44 231.65,353.44 232.00,353.44 232.35,353.44 232.70,353.44 233.05,353.44 233.40,353.44 233.75,353.08 234.10,352.83 234.45,352.47 234.80,352.06 235.15,351.87 235.50,351.87 235.85,351.87 236.20,351.87 236.55,351.87 236.90,351.75 237.25,351.62 237.60,351.14 237.95,350.82 238.30,350.70 238.65,350.48 239.00,350.36 239.35,350.05 239.70,349.86 240.05,349.68 240.40,349.55 240.75,349.12 241.10,349.01 241.45,348.72 241.80,348.66 242.15,348.66 242.50,348.41 242.85,348.24 243.20,348.24 243.55,347.62 243.90,347.41 244.25,347.28 244.60,347.28 244.95,347.28 245.30,347.13 245.65,347.10 246.00,347.08 246.35,347.08 246.70,347.08 247.05,347.08 247.40,347.08 247.75,347.08 248.10,347.02 248.45,346.95 248.80,346.58 249.15,346.15 249.50,346.15 249.85,345.96 250.20,345.90 250.55,345.73 250.90,345.68 251.25,345.68 251.60,345.37 251.95,345.37 252.30,345.19 252.65,344.81 253.00,344.62 253.35,344.62 253.70,344.62 254.05,344.62 254.40,344.62 254.75,344.56 255.10,344.56 255.45,344.56 255.80,344.56 256.15,344.56 256.50,344.62 256.85,344.62 257.20,344.44 257.55,344.20 257.90,343.79 258.25,343.79 258.60,343.61 258.95,343.18 259.30,342.93 259.65,342.93 260.00,342.57 260.35,342.26 260.70,342.14 261.05,341.61 261.40,341.61 261.75,341.55 262.10,341.49 262.45,341.36 262.80,341.11 263.15,340.93 263.50,340.81 263.85,340.81 264.20,340.69 264.55,340.28 264.90,339.95 265.25,339.64 265.60,339.34 265.95,339.28 266.30,338.91 266.65,338.85 267.00,338.54 267.35,338.54 267.70,338.31 268.05,337.81 268.40,337.64 268.75,337.50 269.10,337.50 269.45,337.50 269.80,337.50 270.15,337.50 270.50,337.42 270.85,337.12 271.20,336.81 271.55,336.50 271.90,336.24 272.25,335.68 272.60,335.16 272.95,334.67 273.30,334.30 273.65,333.93 274.00,333.43 274.35,332.88 274.70,332.64 275.05,332.37 275.40,332.00 275.75,331.89 276.10,331.89 276.45,331.45 276.80,331.08 277.15,330.90 277.50,330.72 277.85,330.59 278.20,330.41 278.55,330.41 278.90,330.41 279.25,330.41 279.60,330.34 279.95,330.16 280.30,329.79 280.65,329.79 281.00,329.79 281.35,329.48 281.70,329.23 282.05,328.80 282.40,328.49 282.75,328.49 283.10,328.49 283.45,328.49 283.80,328.49 284.15,328.49 284.50,328.49 284.85,328.49 285.20,328.49 285.55,328.49 285.90,328.42 286.25,328.36 286.60,328.18 286.95,328.18 287.30,328.18 287.65,328.18 288.00,328.18 288.35,328.18 288.70,328.18 289.05,328.18 289.40,328.18 289.75,328.18 290.10,328.18 290.45,328.18 290.80,328.03 291.15,328.03 291.50,328.03 291.85,328.03 292.20,328.03 292.55,328.03 292.90,328.03 293.25,328.03 293.60,328.03 293.95,328.03 294.30,328.03 294.65,328.03 295.00,328.03 295.35,328.03 295.70,328.03 296.05,328.03 296.40,328.03 296.75,328.03 297.10,328.25 297.45,328.68 297.80,328.75 298.15,328.75 298.50,328.75 298.85,328.88 299.20,329.12 299.55,329.19 299.90,329.19 300.25,329.25 300.60,329.25 300.95,329.37 301.30,329.74 301.65,329.99 302.00,330.42 302.35,330.55 302.70,330.55 303.05,330.58 303.40,330.64 303.75,330.64 304.10,330.89 304.45,330.89 304.80,330.89 305.15,330.89 305.50,330.89 305.85,330.89 306.20,331.08 306.55,331.50 306.90,331.87 307.25,331.87 307.60,331.87 307.95,331.94 308.30,332.00 308.65,332.00 309.00,332.00 309.35,332.12 309.70,332.12 310.05,332.12 310.40,332.12 310.75,332.12 311.10,332.18 311.45,332.18 311.80,332.18 312.15,332.25 312.50,332.49 312.85,332.80 313.20,333.05 313.55,333.11 313.90,333.11 314.25,333.11 314.60,333.24 314.95,333.36 315.30,333.48 315.65,333.67 316.00,333.73 316.35,333.86 316.70,333.86 317.05,333.86 317.40,334.23 317.75,334.35 318.10,334.62 318.45,334.87 318.80,334.93 319.15,335.06 319.50,335.06 319.85,335.06 320.20,335.06 320.55,335.12 320.90,335.12 321.25,335.12 321.60,335.12 321.95,335.27 322.30,335.50 322.65,335.56 323.00,335.78 323.35,335.84 323.70,335.84 324.05,335.84 324.40,335.84 324.75,336.06 325.10,336.31 325.45,336.43 325.80,336.74 326.15,336.93 326.50,336.93 326.85,336.93 327.20,336.93 327.55,337.05 327.90,337.37 328.25,337.45 328.60,337.95 328.95,338.13 329.30,338.13 329.65,338.13 330.00,338.13 330.35,338.13 330.70,338.13 331.05,338.13 331.40,338.13 331.75,338.13 332.10,338.13 332.45,338.13 332.80,338.13 333.15,338.13 333.50,338.13 333.85,338.07 334.20,337.88 334.55,337.88 334.90,337.70 335.25,337.51 335.60,337.32 335.95,337.19 336.30,336.83 336.65,336.77 337.00,336.33 337.35,336.33 337.70,336.29 338.05,336.29 338.40,336.29 338.75,336.23 339.10,336.23 339.45,336.23 339.80,336.10 340.15,336.10 340.50,336.10 340.85,336.10 341.20,336.04 341.55,336.04 341.90,336.04 342.25,335.73 342.60,335.65 342.95,335.46 343.30,335.27 343.65,335.09 344.00,334.72 344.35,334.41 344.70,334.04 345.05,334.04 345.40,333.97 345.75,333.85 346.10,333.69 346.45,333.57 346.80,333.45 347.15,333.45 347.50,333.26 347.85,333.26 348.20,333.01 348.55,332.95 348.90,332.64 349.25,332.52 349.60,332.15 349.95,331.97 350.30,331.90 350.65,331.69 351.00,331.39 351.35,331.09 351.70,330.77 352.05,330.46 352.40,330.02 352.75,329.65 353.10,329.09 353.45,328.85 353.80,328.41 354.15,327.85 354.50,327.48 354.85,327.05 355.20,326.68 355.55,326.33 355.90,326.02 356.25,325.63 356.60,325.19 356.95,324.70 357.30,324.32 357.65,323.89 358.00,323.55 358.35,322.99 358.70,322.62 359.05,322.25 359.40,321.80 359.75,321.43 360.10,321.06 360.45,320.51 360.80,320.20 361.15,319.95 361.50,319.35 361.85,318.98 362.20,318.55 362.55,318.18 362.90,317.93 363.25,317.43 363.60,317.12 363.95,316.69 364.30,316.44 364.65,316.14 365.00,316.02 365.35,315.72 365.70,315.35 366.05,314.91 366.40,314.35 366.75,313.93 367.10,313.43 367.45,312.87 367.80,312.56 368.15,312.11 368.50,311.86 368.85,311.67 369.20,311.67 369.55,311.61 369.90,311.49 370.25,311.18 370.60,310.99 370.95,310.76 371.30,310.58 371.65,310.14 372.00,309.69 372.35,309.40 372.70,308.94 373.05,308.50 373.40,308.03 373.75,307.62 374.10,307.13 374.45,306.82 374.80,306.32 375.15,306.07 375.50,305.63 375.85,305.07 376.20,304.71 376.55,304.15 376.90,303.84 377.25,303.49 377.60,303.00 377.95,302.68 378.30,302.31 378.65,301.78 379.00,301.54 379.35,301.23 379.70,300.85 380.05,300.42 380.40,300.01 380.75,299.62 381.10,299.33 381.45,298.77 381.80,298.40 382.15,298.03 382.50,297.47 382.85,296.99 383.20,296.58 383.55,296.08 383.90,295.71 384.25,295.21 384.60,294.59 384.95,294.18 385.30,293.68 385.65,293.12 386.00,292.69 386.35,292.31 386.70,291.97 387.05,291.66 387.40,291.10 387.75,290.64 388.10,290.15 388.45,289.90 388.80,289.48 389.15,288.93 389.50,288.44 389.85,287.89 390.20,287.52 390.55,286.90 390.90,286.47 391.25,286.10 391.60,285.66 391.95,285.29 392.30,284.98 392.65,284.42 393.00,284.05 393.35,283.52 393.70,283.23 394.05,282.83 394.40,282.46 394.75,282.09 395.10,281.66 395.45,281.23 395.80,280.55 396.15,280.31 396.50,279.85 396.85,279.48 397.20,279.05 397.55,278.55 397.90,278.12 398.25,277.85 398.60,277.36 398.95,276.86 399.30,276.55 399.65,276.12 400.00,275.76 400.35,275.33 400.70,274.77 401.05,274.39 401.40,274.01 401.75,273.72 402.10,273.28 402.45,272.97 402.80,272.66 403.15,272.23 403.50,271.74 403.85,271.36 404.20,270.87 404.55,270.39 404.90,269.82 405.25,269.26 405.60,268.83 405.95,268.45 406.30,267.90 406.65,267.52 407.00,266.91 407.35,266.53 407.70,266.22 408.05,265.80 408.40,265.39 408.75,265.08 409.10,264.71 409.45,264.21 409.80,263.84 410.15,263.34 410.50,263.07 410.85,262.64 411.20,262.33 411.55,261.90 411.90,261.41 412.25,261.06 412.60,260.65 412.95,260.09 413.30,259.66 413.65,259.06 414.00,258.63 414.35,258.13 414.70,257.76 415.05,257.28 415.40,256.97 415.75,256.57 416.10,256.14 416.45,255.79 416.80,255.31 417.15,254.88 417.50,254.56 417.85,254.25 418.20,253.88 418.55,253.54 418.90,252.98 419.25,252.61 419.60,251.96 419.95,251.52 420.30,251.03 420.65,250.61 421.00,250.13 421.35,249.63 421.70,249.20 422.05,248.70 422.40,248.15 422.75,247.65 423.10,247.16 423.45,246.72 423.80,246.41 424.15,245.86 424.50,245.39 424.85,244.90 425.20,244.49 425.55,244.04 425.90,243.82 426.25,243.23 426.60,242.80 426.95,242.34 427.30,241.97 427.65,241.66 428.00,241.22 428.35,240.67 428.70,240.18 429.05,239.83 429.40,239.34 429.75,238.90 430.10,238.59 430.45,238.03 430.80,237.60 431.15,237.35 431.50,236.92 431.85,236.42 432.20,236.12 432.55,235.62 432.90,235.25 433.25,234.81 433.60,234.44 433.95,234.01 434.30,233.45 434.65,232.94 435.00,232.57 435.35,232.24 435.70,231.85 436.05,231.35 436.40,230.92 436.75,230.55 437.10,230.37 437.45,230.24 437.80,229.75 438.15,229.38 438.50,229.07 438.85,228.57 439.20,228.19 439.55,227.82 439.90,227.51 440.25,227.08 440.60,226.67 440.95,226.42 441.30,226.18 441.65,225.62 442.00,225.49 442.35,225.25 442.70,224.75 443.05,224.26 443.40,224.01 443.75,223.64 444.10,223.10 444.45,222.66 444.80,222.23 445.15,221.87 445.50,221.51 445.85,221.14 446.20,220.65 446.55,220.15 446.90,219.65 447.25,219.20 447.60,218.99 447.95,218.43 448.30,217.98 448.65,217.48 449.00,216.90 449.35,216.59 449.70,215.97 450.05,215.46 450.40,215.08 450.75,214.58 451.10,214.09 451.45,213.60 451.80,212.98 452.15,212.49 452.50,211.99 452.85,211.50 453.20,210.97 453.55,210.53 453.90,210.08 454.25,209.71 454.60,209.21 454.95,208.90 455.30,208.47 455.65,208.10 456.00,207.98 456.35,207.50 456.70,207.37 457.05,207.00 457.40,206.57 457.75,206.12 458.10,205.75 458.45,205.44 458.80,205.05 459.15,204.56 459.50,204.56 459.85,204.56 460.20,204.50 460.55,204.44 460.90,204.44 461.25,204.44 461.60,204.44 461.95,204.44 462.30,204.44 462.65,204.44 463.00,204.44 463.35,204.44 463.70,204.44 464.05,204.44 464.40,204.44 464.75,204.44 465.10,204.44 465.45,204.38 465.80,204.32 466.15,204.19 466.50,204.13 466.85,204.07 467.20,204.01 467.55,203.94 467.90,203.76 468.25,203.70 468.60,203.70 468.95,203.70 469.30,203.70 469.65,203.70 470.00,203.63 470.35,203.63 470.70,203.45 471.05,203.45 471.40,203.45 471.75,203.45 472.10,203.45 472.45,203.45 472.80,203.45 473.15,203.32 473.50,203.14 473.85,203.14 474.20,203.08 474.55,203.08 474.90,203.08 475.25,203.08 475.60,203.08 475.95,203.08 476.30,203.14 476.65,203.14 477.00,203.14 477.35,203.14 477.70,203.14 478.05,203.14 478.40,203.14 478.75,203.14 479.10,203.14 479.45,203.14 479.80,203.14 480.15,203.14 480.50,203.08 480.85,202.89 481.20,202.83 481.55,202.83 481.90,202.83 482.25,202.83 482.60,202.83 482.95,202.83 483.30,202.83 483.65,202.83 484.00,202.83 484.35,202.83 484.70,202.83 485.05,202.83 485.40,202.77 485.75,202.64 486.10,202.64 486.45,202.64 486.80,202.64 487.15,202.49 487.50,202.12 487.85,201.99 488.20,201.87 488.55,201.87 488.90,201.56 489.25,201.37 489.60,201.37 489.95,201.31 490.30,200.94 490.65,200.94 491.00,200.70 491.35,200.58 491.70,200.58 492.05,200.52 492.40,200.09 492.75,200.09 493.10,200.09 493.45,200.09 493.80,200.02 494.15,199.65 494.50,199.27 494.85,198.90 495.20,198.53 495.55,198.50 495.90,198.44 496.25,198.44 496.60,198.44 496.95,198.38 497.30,198.13 497.65,198.07 498.00,197.70 498.35,197.21 498.70,196.83 499.05,196.56 499.40,196.11 499.75,195.71 500.10,195.21 500.45,194.85 500.80,194.48 501.15,194.11 501.50,193.99 501.85,193.96 502.20,193.96 502.55,193.96 502.90,193.96 503.25,193.90 503.60,193.77 503.95,193.77 504.30,193.77 504.65,193.54 505.00,193.11 505.35,192.92 505.70,192.61 506.05,192.55 506.40,192.55 506.75,192.55 507.10,192.42 507.45,192.06 507.80,191.63 508.15,191.50 508.50,191.15 508.85,190.80 509.20,190.80 509.55,190.80 509.90,190.61 510.25,190.61 510.60,190.61 510.95,190.61 511.30,190.61 511.65,190.55 512.00,190.24 512.35,189.81 512.70,189.81 513.05,189.68 513.40,189.48 513.75,189.40 514.10,189.32 514.45,189.01 514.80,188.58 515.15,188.52 515.50,187.96 515.85,187.53 516.20,187.03 516.55,186.54 516.90,186.28 517.25,185.91 517.60,185.48 517.95,184.98 518.30,184.49 518.65,184.11 519.00,183.74 519.35,183.25 519.70,182.77 520.05,182.40 520.40,182.03 520.75,181.72 521.10,181.36 521.45,180.91 521.80,180.55 522.15,180.23 522.50,179.86 522.85,179.66 523.20,179.22 523.55,178.85 523.90,178.60 524.25,178.42 524.60,177.98 524.95,177.53 525.30,177.10 525.65,176.55 526.00,176.11 526.35,175.56 526.70,175.18 527.05,174.63 527.40,174.26 527.75,173.99 528.10,173.56 528.45,173.12 528.80,172.51 529.15,172.08 529.50,171.52 529.85,171.15 530.20,170.90 530.55,170.40 530.90,169.85 531.25,169.56 531.60,169.19 531.95,168.76 532.30,168.32 532.65,167.83 533.00,167.33 533.35,166.97 533.70,166.66 534.05,166.18 534.40,165.77 534.75,165.40 535.10,164.90 535.45,164.47 535.80,163.98 536.15,163.58 536.50,163.08 536.85,162.71 537.20,162.33 537.55,161.96 537.90,161.47 538.25,160.98 538.60,160.55 538.95,160.12 539.30,159.75 539.65,159.37 540.00,158.94 540.35,158.57 540.70,158.01 541.05,157.42 541.40,156.93 541.75,156.45 542.10,156.08 542.45,155.71 542.80,155.40 543.15,155.01 543.50,154.58 543.85,154.09 544.20,153.53 544.55,152.98 544.90,152.48 545.25,152.15 545.60,151.57 545.95,151.17 546.30,150.74 546.65,150.36 547.00,149.81 547.35,149.36 547.70,148.93 548.05,148.43 548.40,147.91 548.75,147.48 549.10,147.01 549.45,146.38 549.80,145.77 550.15,145.50 550.50,145.01 550.85,144.61 551.20,144.30 551.55,143.99 551.90,143.38 552.25,142.99 552.60,142.56 552.95,141.97 553.30,141.42 553.65,141.04 554.00,140.70 554.35,140.33 554.70,139.77 555.05,139.40 555.40,138.97 555.75,138.47 556.10,138.04 556.45,137.54 556.80,136.97 557.15,136.47 557.50,136.29 557.85,135.98 558.20,135.98 558.55,135.98 558.90,135.85 559.25,135.41 559.60,135.23 559.95,134.67 560.30,134.18 560.65,134.05 561.00,133.68 561.35,133.25 561.70,132.94 562.05,132.75 562.40,132.19 562.75,131.82 563.10,131.51 563.45,131.14 563.80,130.71 564.15,130.46 564.50,130.03 564.85,129.66 565.20,129.10 565.55,128.66 565.90,128.23 566.25,127.74 566.60,127.43 566.95,126.87 567.30,126.46 567.65,126.03 568.00,125.49 568.35,125.12 568.70,124.56 569.05,124.12 569.40,123.51 569.75,123.02 570.10,122.52 570.45,121.96 570.80,121.53 571.15,121.08 571.50,120.65 571.85,120.37 572.20,119.92 572.55,119.36 572.90,118.90 573.25,118.46 573.60,118.12 573.95,117.57 574.30,117.07 574.65,116.51 575.00,116.04 575.35,115.45 575.70,115.11 576.05,114.55 576.40,114.00 576.75,113.63 577.10,113.26 577.45,112.89 577.80,112.46 578.15,111.89 578.50,111.40 578.85,110.74 579.20,110.43 579.55,110.00 579.90,109.50 580.25,109.07 580.60,108.57 580.95,108.20 581.30,107.71 581.65,107.16 582.00,106.66 582.35,106.23 582.70,105.86 583.05,105.52 583.40,104.96 583.75,104.68 584.10,104.28 584.45,103.86 584.80,103.60 585.15,103.11 585.50,102.70 585.85,102.27 586.20,101.71 586.55,101.34 586.90,100.85 587.25,100.51 587.60,100.20 587.95,99.68 588.30,99.26 588.65,98.77 589.00,98.36 589.35,97.83 589.70,97.46 590.05,97.17 590.40,96.73 590.75,96.23 591.10,95.80 591.45,95.30 591.80,94.85 592.15,94.37 592.50,93.79 592.85,93.36 593.20,92.80 593.55,92.36 593.90,91.87 594.25,91.48 594.60,91.17 594.95,90.67 595.30,90.18 595.65,89.75 596.00,89.33 596.35,88.94 596.70,88.50 597.05,88.13 597.40,87.64 597.75,87.15 598.10,86.84 598.45,86.28 598.80,85.90 599.15,85.41 599.50,85.15 599.85,84.76 600.20,84.45 600.55,84.20 600.90,84.08 601.25,83.77 601.60,83.39 601.95,83.15 602.30,82.63 602.65,82.16 603.00,81.78 603.35,81.48 603.70,80.92 604.05,80.42 604.40,79.99 604.75,79.49 605.10,79.12 605.45,78.81 605.80,78.32 606.15,77.82 606.50,77.38 606.85,77.13 607.20,76.94 607.55,76.51 607.90,76.03 608.25,75.60 608.60,75.60 608.95,75.35 609.30,74.90 609.65,74.55 610.00,74.43 610.35,74.12 610.70,73.68 611.05,73.31 611.40,73.31 611.75,73.31 612.10,73.31 612.45,73.19 612.80,73.13 613.15,73.07 613.50,73.07 613.85,73.07 614.20,72.94 614.55,72.94 614.90,72.94 615.25,72.63 615.60,72.32 615.95,72.20 616.30,71.95 616.65,71.52 617.00,71.52 617.35,71.52 617.70,71.52 618.05,71.52 618.40,71.52 618.75,71.52 619.10,71.52 619.45,71.52 619.80,71.52 620.15,71.52 620.50,71.52 620.85,71.65 621.20,71.93 621.55,71.93 621.90,71.93 622.25,71.93 622.60,71.93 622.95,71.93 623.30,71.93 623.65,72.05 624.00,72.09 624.35,72.40 624.70,72.40 625.05,72.40 625.40,72.71 625.75,72.84 626.10,73.27 626.45,73.37 626.80,73.68 627.15,74.12 627.50,74.12 627.85,74.12 628.20,74.12 628.55,74.12 628.90,74.19 629.25,74.50 629.60,74.56 629.95,74.56 630.30,74.56 630.65,74.56 631.00,74.56 631.35,74.74 631.70,74.76 632.05,75.15 632.40,75.15 632.75,75.39 633.10,75.39 633.45,75.39 633.80,75.39 634.15,75.54 634.50,75.72 634.85,75.91 635.20,75.99 635.55,76.49 635.90,76.80 636.25,76.99 636.60,77.05 636.95,77.11 637.30,77.11 637.65,76.99 638.00,76.92 638.35,76.92 638.70,76.92 639.05,76.92 639.40,77.13 639.75,77.13 640.10,77.13 640.45,77.13 640.80,77.13 641.15,77.13 641.50,77.26 641.85,77.31 642.20,77.31 642.55,77.59 642.90,77.65 643.25,77.53 643.60,77.28 643.95,76.94 644.30,76.87 644.65,76.69 645.00,76.68 645.35,76.61 645.70,76.37 646.05,76.37 646.40,76.37 646.75,76.37 647.10,76.37 647.45,76.37 647.80,76.37 648.15,76.37 648.50,76.37 648.85,76.37 649.20,76.37 649.55,76.37 649.90,76.37 650.25,76.37 650.60,76.37 650.95,76.30 651.30,76.18 651.65,76.12 652.00,76.12 652.35,76.12 652.70,76.12 653.05,76.12 653.40,75.99 653.75,75.97 654.10,75.78 654.45,75.78 654.80,75.78 655.15,75.78 655.50,75.78 655.85,75.78 656.20,75.78 656.55,75.78 656.90,75.78 657.25,75.72 657.60,75.72 657.95,75.41 658.30,75.41 658.65,75.41 659.00,75.41 659.35,75.41 659.70,75.41 660.05,75.41 660.40,75.41 660.75,75.41 661.10,75.41 661.45,75.41 661.80,75.70 662.15,75.92 662.50,76.35 662.85,76.35 663.20,76.42 663.55,76.42 663.90,76.42 664.25,76.73 664.60,76.97 664.95,77.10 665.30,77.42 665.65,77.42 666.00,77.42 666.35,77.42 666.70,77.42 667.05,77.42 667.40,77.48 667.75,77.48 668.10,77.48 668.45,77.67 668.80,77.67 669.15,77.79 669.50,78.07 669.85,78.22 670.20,78.41 670.55,78.68 670.90,78.92 671.25,78.99 671.60,79.05 671.95,79.05 672.30,79.17 672.65,79.23 673.00,79.48 673.35,79.67 673.70,79.67 674.05,79.67 674.40,79.91 674.75,80.12 675.10,80.24 675.45,80.24 675.80,80.24 676.15,80.24 676.50,80.37 676.85,80.56 677.20,80.74 677.55,80.99 677.90,81.24 678.25,81.61 678.60,81.80 678.95,81.85 679.30,81.98 679.65,81.98 680.00,81.98 680.35,82.10 680.70,82.16 681.05,82.22 681.40,82.22 681.75,82.22 682.10,82.22 682.45,82.35 682.80,82.35 683.15,82.35 683.50,82.70 683.85,82.89 684.20,82.89 684.55,82.89 684.90,82.89 685.25,82.89 685.60,82.89 685.95,82.89 686.30,82.83 686.65,82.39 687.00,82.27 687.35,81.83 687.70,81.77 688.05,81.77 688.40,81.77 688.75,81.77 689.10,81.77 689.45,81.46 689.80,81.22 690.15,81.09 690.50,81.09 690.85,81.09 691.20,81.09 691.55,80.91 691.90,80.91 692.25,80.66 692.60,80.53 692.95,80.41 693.30,79.91 693.65,79.42 694.00,79.37 694.35,79.37 694.70,79.10 695.05,79.10 695.40,79.10 695.75,79.10 696.10,78.85 696.45,78.62 696.80,78.62 697.15,78.62 697.50,78.62 697.85,78.62 698.20,78.62 698.55,78.62 698.90,78.62 699.25,78.43 699.60,78.43 699.95,78.43 700.30,78.43 700.65,78.43 701.00,78.43 701.35,78.43 701.70,78.43 702.05,78.43 702.40,78.43 702.75,78.43 703.10,78.43 703.45,78.43 703.80,78.43 704.15,78.43 704.50,78.43 704.85,78.25 705.20,78.25 705.55,78.00 705.90,78.00 706.25,78.00 706.60,78.00 706.95,78.00 707.30,78.00 707.65,78.00 708.00,78.00 708.35,78.00 708.70,78.00 709.05,78.00 709.40,78.00 709.75,78.00 710.10,78.00 710.45,78.00 710.80,78.00 711.15,78.00 711.50,78.00 711.85,78.00 712.20,78.00 712.55,78.00 712.90,77.88 713.25,77.75 713.60,77.57 713.95,77.14 714.30,76.95 714.65,76.83 715.00,76.77 715.35,76.77 715.70,76.77 716.05,76.77 716.40,76.77 716.75,76.77 717.10,76.77 717.45,76.77 717.80,76.77 718.15,76.77 718.50,76.77 718.85,76.63 719.20,76.44 719.55,76.39 719.90,76.08 720.25,75.83 720.60,75.83 720.95,75.46 721.30,75.46 721.65,75.46 722.00,75.46 722.35,75.39 722.70,75.39 723.05,75.39 723.40,75.52 723.75,75.52 724.10,75.52 724.45,75.52 724.80,75.52 725.15,75.83 725.50,75.89 725.85,76.01 726.20,76.20 726.55,76.45 726.90,76.45 727.25,76.45 727.60,76.56 727.95,76.69 728.30,76.77 728.65,76.95 729.00,77.08 729.35,77.26 729.70,77.53 730.05,77.71 730.40,77.71 730.75,77.83 731.10,77.89 731.45,77.89 731.80,78.06 732.15,78.30 732.50,78.30 732.85,78.32 733.20,78.32 733.55,78.32 733.90,78.26 734.25,78.20 734.60,78.20 734.95,78.20 735.30,78.20 735.65,78.20 736.00,78.14 736.35,78.14 736.70,78.14 737.05,78.14 737.40,78.14 737.75,78.14 738.10,78.14 738.45,78.14 738.80,78.14 739.15,78.08 739.50,77.77 739.85,77.52 740.20,77.52 740.55,77.39 740.90,77.39 741.25,77.27 741.60,77.21 741.95,77.21 742.30,77.21 742.65,77.21 743.00,77.21 743.35,77.21 743.70,77.21 744.05,77.21 744.40,77.21 744.75,77.21 745.10,77.52 745.45,77.74 745.80,77.74 746.15,78.02 746.50,78.08 746.85,78.22 747.20,78.29 747.55,78.53 747.90,78.99 748.25,79.11 748.60,79.60 748.95,79.96 749.30,80.21 749.65,80.27 750.00,80.64 750.35,80.97 750.70,80.97 751.05,80.97 751.40,80.97 751.75,80.97 752.10,81.40 752.45,81.43 752.80,81.43 753.15,81.49 753.50,81.62 753.85,82.18 754.20,82.58 754.55,83.02 754.90,83.17 755.25,83.17 755.60,83.41 755.95,83.79 756.30,83.85 756.65,84.03 757.00,84.47 757.35,84.65 757.70,85.11 758.05,85.11 758.40,85.11 758.75,85.19 759.10,85.56 759.45,86.04 759.80,86.45 760.15,86.63 760.50,87.01 760.85,87.50 761.20,87.92 761.55,88.31 761.90,88.62 762.25,89.06 762.60,89.54 762.95,90.10 763.30,90.34 763.65,90.78 764.00,91.11 764.35,91.61 764.70,92.05 765.05,92.36 765.40,92.67 765.75,93.22 766.10,93.65 766.45,93.93 766.80,94.18 767.15,94.49 767.50,94.61 767.85,94.73 768.20,94.92 768.55,95.33 768.90,95.67 769.25,95.98 769.60,95.98 769.95,96.10 770.30,96.10 770.65,96.10 771.00,96.10 771.35,96.10 771.70,96.10 772.05,96.16 772.40,96.16 772.75,96.36 773.10,96.54 773.45,96.54 773.80,96.54 774.15,96.54 774.50,96.54 774.85,96.54 775.20,96.54 775.55,96.81 775.90,97.06 776.25,97.15 776.60,97.33 776.95,97.66 777.30,97.66 777.65,97.73 778.00,97.73 778.35,97.73 778.70,97.73 779.05,97.91 779.40,98.31 779.75,98.31 780.10,98.31 780.45,98.31 780.80,98.49 781.15,98.49 781.50,98.55 781.85,98.68 782.20,98.86 782.55,98.99 782.90,99.16 783.25,99.16 783.60,99.16 783.95,99.16 784.30,99.16 784.65,99.16 785.00,99.16"/>
<line x1="813" y1="54" x2="839" y2="54" stroke="#2563eb" stroke-width="3"/>
<text x="847" y="58" font-family="Arial" font-size="13" fill="#111827">low volatility</text>
<polyline fill="none" stroke="#dc2626" stroke-width="2" points="85.00,379.31 85.35,379.06 85.70,379.25 86.05,379.25 86.40,379.62 86.75,379.99 87.10,380.42 87.45,380.79 87.80,381.02 88.15,381.14 88.50,381.21 88.85,381.14 89.20,380.96 89.55,380.65 89.90,380.34 90.25,380.09 90.60,379.84 90.95,380.10 91.30,380.53 91.65,380.61 92.00,380.61 92.35,380.61 92.70,380.61 93.05,380.61 93.40,380.61 93.75,380.55 94.10,380.55 94.45,380.24 94.80,380.18 95.15,380.07 95.50,379.82 95.85,379.57 96.20,379.26 96.55,379.08 96.90,378.70 97.25,378.58 97.60,378.39 97.95,377.94 98.30,377.69 98.65,377.47 99.00,377.23 99.35,377.17 99.70,377.11 100.05,376.80 100.40,376.36 100.75,376.36 101.10,376.42 101.45,376.80 101.80,377.21 102.15,377.21 102.50,377.77 102.85,378.02 103.20,378.58 103.55,379.02 103.90,379.27 104.25,379.14 104.60,378.96 104.95,378.94 105.30,378.78 105.65,378.78 106.00,378.78 106.35,378.78 106.70,379.15 107.05,379.15 107.40,379.21 107.75,379.39 108.10,379.64 108.45,379.64 108.80,379.52 109.15,379.52 109.50,379.52 109.85,379.37 110.20,379.30 110.55,379.12 110.90,379.06 111.25,378.93 111.60,378.68 111.95,378.68 112.30,378.42 112.65,378.74 113.00,378.93 113.35,378.93 113.70,378.70 114.05,379.07 114.40,379.19 114.75,379.07 115.10,378.85 115.45,378.85 115.80,378.85 116.15,378.85 116.50,378.91 116.85,379.16 117.20,379.28 117.55,379.57 117.90,380.07 118.25,380.38 118.60,380.81 118.95,381.18 119.30,381.37 119.65,381.80 120.00,381.99 120.35,382.49 120.70,382.62 121.05,382.82 121.40,383.07 121.75,383.26 122.10,383.69 122.45,384.00 122.80,384.18 123.15,384.62 123.50,384.99 123.85,385.40 124.20,385.54 124.55,385.54 124.90,385.54 125.25,385.66 125.60,385.85 125.95,385.85 126.30,386.10 126.65,386.41 127.00,386.59 127.35,386.59 127.70,386.59 128.05,386.22 128.40,385.85 128.75,385.37 129.10,385.06 129.45,385.06 129.80,385.06 130.15,384.91 130.50,384.73 130.85,384.49 131.20,384.36 131.55,384.18 131.90,384.05 132.25,383.68 132.60,383.06 132.95,382.57 133.30,382.31 133.65,382.31 134.00,382.18 134.35,382.18 134.70,382.18 135.05,382.31 135.40,382.56 135.75,382.62 136.10,382.62 136.45,382.69 136.80,382.69 137.15,382.81 137.50,382.81 137.85,382.81 138.20,382.87 138.55,382.92 138.90,382.98 139.25,383.17 139.60,383.17 139.95,383.11 140.30,382.86 140.65,382.92 141.00,382.92 141.35,383.00 141.70,383.13 142.05,383.13 142.40,383.31 142.75,383.57 143.10,384.13 143.45,384.56 143.80,384.81 144.15,385.31 144.50,385.86 144.85,386.23 145.20,386.59 145.55,387.09 145.90,387.46 146.25,387.89 146.60,388.20 146.95,388.64 147.30,388.84 147.65,389.03 148.00,389.03 148.35,389.09 148.70,389.34 149.05,389.65 149.40,389.77 149.75,389.58 150.10,389.58 150.45,389.58 150.80,389.58 151.15,389.58 151.50,389.58 151.85,389.75 152.20,389.75 152.55,389.81 152.90,389.93 153.25,389.93 153.60,389.93 153.95,389.93 154.30,389.93 154.65,389.93 155.00,389.93 155.35,390.24 155.70,390.49 156.05,390.49 156.40,390.49 156.75,390.49 157.10,390.55 157.45,390.61 157.80,390.61 158.15,390.74 158.50,390.74 158.85,391.23 159.20,391.42 159.55,391.42 159.90,391.42 160.25,391.55 160.60,391.80 160.95,392.05 161.30,392.05 161.65,392.17 162.00,392.30 162.35,392.42 162.70,392.79 163.05,393.04 163.40,393.41 163.75,393.41 164.10,393.35 164.45,393.11 164.80,393.11 165.15,393.05 165.50,392.68 165.85,392.25 166.20,392.00 166.55,391.65 166.90,391.34 167.25,391.28 167.60,391.64 167.95,391.70 168.30,391.70 168.65,391.64 169.00,391.47 169.35,391.16 169.70,390.70 170.05,390.20 170.40,389.92 170.75,389.62 171.10,389.46 171.45,389.27 171.80,389.15 172.15,388.72 172.50,388.22 172.85,387.79 173.20,387.35 173.55,386.91 173.90,386.48 174.25,385.95 174.60,385.58 174.95,385.21 175.30,384.90 175.65,384.46 176.00,384.05 176.35,383.55 176.70,383.06 177.05,382.68 177.40,382.19 177.75,381.69 178.10,381.32 178.45,380.95 178.80,380.58 179.15,380.09 179.50,379.64 179.85,379.09 180.20,378.82 180.55,378.45 180.90,377.95 181.25,377.58 181.60,377.04 181.95,376.65 182.30,376.40 182.65,375.97 183.00,375.66 183.35,375.40 183.70,375.03 184.05,374.72 184.40,374.47 184.75,374.04 185.10,373.67 185.45,373.24 185.80,372.91 186.15,372.47 186.50,372.13 186.85,371.82 187.20,371.58 187.55,371.20 187.90,371.02 188.25,370.46 188.60,370.39 188.95,370.20 189.30,370.14 189.65,370.02 190.00,369.77 190.35,369.27 190.70,369.02 191.05,368.84 191.40,368.55 191.75,368.07 192.10,367.53 192.45,367.22 192.80,366.86 193.15,366.42 193.50,365.93 193.85,365.62 194.20,365.06 194.55,364.57 194.90,364.24 195.25,364.05 195.60,363.49 195.95,363.12 196.30,362.57 196.65,362.03 197.00,361.72 197.35,361.43 197.70,361.12 198.05,361.05 198.40,360.81 198.75,360.37 199.10,360.13 199.45,360.00 199.80,359.94 200.15,359.44 200.50,358.82 200.85,358.69 201.20,358.57 201.55,358.32 201.90,358.32 202.25,358.32 202.60,358.57 202.95,358.69 203.30,358.69 203.65,358.45 204.00,358.26 204.35,357.89 204.70,357.83 205.05,357.64 205.40,357.33 205.75,357.33 206.10,357.27 206.45,357.27 206.80,357.27 207.15,357.08 207.50,356.71 207.85,356.34 208.20,356.09 208.55,355.54 208.90,355.10 209.25,354.67 209.60,354.17 209.95,353.74 210.30,353.18 210.65,352.75 211.00,352.25 211.35,351.81 211.70,351.31 212.05,350.82 212.40,350.45 212.75,349.83 213.10,349.33 213.45,348.89 213.80,348.64 214.15,348.39 214.50,348.39 214.85,348.39 215.20,348.39 215.55,348.39 215.90,348.33 216.25,348.33 216.60,348.33 216.95,348.33 217.30,348.33 217.65,348.27 218.00,348.22 218.35,348.22 218.70,348.22 219.05,348.36 219.40,348.36 219.75,348.30 220.10,348.24 220.45,348.17 220.80,348.17 221.15,348.17 221.50,347.74 221.85,347.43 222.20,347.26 222.55,347.19 222.90,347.13 223.25,347.13 223.60,347.13 223.95,347.01 224.30,346.70 224.65,346.70 225.00,346.70 225.35,346.82 225.70,346.82 226.05,346.82 226.40,346.70 226.75,346.40 227.10,346.33 227.45,346.09 227.80,346.09 228.15,346.30 228.50,346.55 228.85,346.92 229.20,347.42 229.55,347.67 229.90,348.10 230.25,348.72 230.60,349.11 230.95,349.54 231.30,349.86 231.65,350.21 232.00,350.77 232.35,351.18 232.70,351.56 233.05,351.99 233.40,352.48 233.75,352.92 234.10,353.36 234.45,353.85 234.80,354.09 235.15,354.75 235.50,355.15 235.85,355.40 236.20,355.71 236.55,356.11 236.90,356.55 237.25,357.10 237.60,357.54 237.95,357.98 238.30,358.49 238.65,358.99 239.00,359.34 239.35,359.71 239.70,360.07 240.05,360.19 240.40,360.44 240.75,360.76 241.10,361.10 241.45,361.66 241.80,362.03 242.15,362.58 242.50,363.02 242.85,363.02 243.20,363.02 243.55,362.91 243.90,362.53 244.25,362.16 244.60,361.79 244.95,361.30 245.30,360.68 245.65,360.18 246.00,359.75 246.35,359.75 246.70,359.75 247.05,359.75 247.40,360.13 247.75,360.19 248.10,360.19 248.45,360.13 248.80,360.13 249.15,360.06 249.50,359.69 249.85,359.32 250.20,359.02 250.55,358.65 250.90,358.28 251.25,358.00 251.60,357.63 251.95,357.25 252.30,356.73 252.65,356.48 253.00,356.03 253.35,355.57 253.70,354.95 254.05,354.76 254.40,354.45 254.75,353.96 255.10,353.34 255.45,352.97 255.80,352.47 256.15,352.03 256.50,351.47 256.85,351.17 257.20,350.81 257.55,350.28 257.90,349.73 258.25,349.52 258.60,349.11 258.95,348.55 259.30,348.06 259.65,347.68 260.00,347.31 260.35,346.95 260.70,346.39 261.05,346.05 261.40,345.62 261.75,345.08 262.10,344.71 262.45,344.43 262.80,343.98 263.15,343.68 263.50,343.24 263.85,342.75 264.20,342.56 264.55,342.13 264.90,342.02 265.25,342.02 265.60,342.46 265.95,342.84 266.30,343.39 266.65,343.81 267.00,344.25 267.35,344.56 267.70,344.68 268.05,345.18 268.40,345.60 268.75,345.97 269.10,346.35 269.45,346.70 269.80,347.02 270.15,347.39 270.50,347.60 270.85,347.72 271.20,348.09 271.55,348.45 271.90,348.92 272.25,349.48 272.60,349.73 272.95,349.79 273.30,349.67 273.65,349.73 274.00,349.73 274.35,349.73 274.70,349.73 275.05,349.79 275.40,349.58 275.75,349.39 276.10,349.39 276.45,349.76 276.80,350.14 277.15,350.51 277.50,350.81 277.85,351.24 278.20,351.62 278.55,351.86 278.90,352.17 279.25,352.24 279.60,352.36 279.95,352.85 280.30,353.18 280.65,353.54 281.00,354.10 281.35,354.35 281.70,354.80 282.05,354.99 282.40,355.29 282.75,355.35 283.10,355.16 283.45,354.92 283.80,354.92 284.15,355.10 284.50,355.10 284.85,354.98 285.20,354.86 285.55,354.61 285.90,354.32 286.25,354.07 286.60,354.07 286.95,354.13 287.30,354.13 287.65,353.82 288.00,353.70 288.35,353.45 288.70,353.45 289.05,353.45 289.40,353.45 289.75,353.45 290.10,353.33 290.45,353.20 290.80,353.20 291.15,353.20 291.50,352.64 291.85,352.27 292.20,352.03 292.55,351.47 292.90,351.05 293.25,350.68 293.60,350.23 293.95,349.86 294.30,349.42 294.65,349.24 295.00,349.05 295.35,348.90 295.70,348.54 296.05,348.29 296.40,348.22 296.75,348.16 297.10,348.35 297.45,348.35 297.80,348.35 298.15,348.47 298.50,348.83 298.85,349.02 299.20,349.45 299.55,349.42 299.90,349.30 300.25,349.30 300.60,349.30 300.95,349.30 301.30,349.30 301.65,349.30 302.00,348.80 302.35,348.68 302.70,348.68 303.05,348.68 303.40,348.56 303.75,348.12 304.10,347.63 304.45,347.32 304.80,347.26 305.15,347.26 305.50,347.26 305.85,347.19 306.20,347.19 306.55,347.19 306.90,347.19 307.25,347.19 307.60,347.44 307.95,347.72 308.30,348.11 308.65,348.37 309.00,348.87 309.35,349.42 309.70,349.73 310.05,350.04 310.40,350.59 310.75,350.97 311.10,351.46 311.45,351.86 311.80,352.17 312.15,352.61 312.50,352.95 312.85,353.21 313.20,353.59 313.55,354.08 313.90,354.14 314.25,354.58 314.60,354.83 314.95,354.89 315.30,355.19 315.65,355.38 316.00,355.57 316.35,355.57 316.70,355.57 317.05,355.19 317.40,354.94 317.75,355.00 318.10,355.07 318.45,354.88 318.80,354.32 319.15,354.03 319.50,353.60 319.85,353.16 320.20,352.61 320.55,352.27 320.90,351.77 321.25,351.34 321.60,350.78 321.95,350.38 322.30,350.15 322.65,349.72 323.00,349.43 323.35,348.96 323.70,348.59 324.05,348.28 324.40,347.79 324.75,347.48 325.10,347.42 325.45,347.23 325.80,347.23 326.15,346.92 326.50,346.61 326.85,346.11 327.20,345.80 327.55,345.49 327.90,345.12 328.25,344.75 328.60,344.62 328.95,344.56 329.30,344.25 329.65,344.16 330.00,344.16 330.35,343.97 330.70,343.97 331.05,343.97 331.40,343.97 331.75,343.97 332.10,343.97 332.45,343.73 332.80,343.60 333.15,343.59 333.50,343.22 333.85,342.74 334.20,342.27 334.55,341.78 334.90,341.47 335.25,340.97 335.60,340.56 335.95,340.00 336.30,339.63 336.65,339.20 337.00,338.70 337.35,338.27 337.70,337.71 338.05,337.42 338.40,336.98 338.75,336.67 339.10,336.36 339.45,335.99 339.80,335.51 340.15,334.95 340.50,334.46 340.85,334.11 341.20,333.74 341.55,333.18 341.90,332.87 342.25,332.87 342.60,332.81 342.95,332.38 343.30,332.00 343.65,331.64 344.00,331.27 344.35,330.65 344.70,330.10 345.05,329.73 345.40,329.36 345.75,328.86 346.10,328.62 346.45,328.49 346.80,328.24 347.15,327.81 347.50,327.19 347.85,326.70 348.20,326.33 348.55,325.77 348.90,325.37 349.25,324.93 349.60,324.44 349.95,324.06 350.30,323.61 350.65,323.23 351.00,322.74 351.35,322.39 351.70,321.90 352.05,321.34 352.40,320.78 352.75,320.35 353.10,319.73 353.45,319.36 353.80,319.07 354.15,318.51 354.50,318.08 354.85,317.58 355.20,317.15 355.55,316.53 355.90,316.04 356.25,315.61 356.60,315.54 356.95,316.01 357.30,316.32 357.65,316.44 358.00,316.57 358.35,316.94 358.70,317.43 359.05,317.80 359.40,317.87 359.75,317.99 360.10,318.05 360.45,318.34 360.80,318.73 361.15,319.10 361.50,319.54 361.85,319.91 362.20,320.47 362.55,320.84 362.90,321.28 363.25,321.84 363.60,322.21 363.95,322.65 364.30,323.06 364.65,323.61 365.00,324.17 365.35,324.52 365.70,325.04 366.05,325.41 366.40,325.79 366.75,326.22 367.10,326.53 367.45,326.96 367.80,327.40 368.15,327.82 368.50,328.26 368.85,328.81 369.20,329.12 369.55,329.66 369.90,329.80 370.25,330.22 370.60,330.57 370.95,331.12 371.30,331.43 371.65,331.43 372.00,331.31 372.35,330.94 372.70,330.94 373.05,330.94 373.40,331.25 373.75,331.56 374.10,331.93 374.45,332.25 374.80,332.62 375.15,333.12 375.50,333.68 375.85,333.58 376.20,333.55 376.55,333.55 376.90,333.48 377.25,333.08 377.60,333.06 377.95,332.99 378.30,332.99 378.65,332.99 379.00,332.99 379.35,332.99 379.70,332.99 380.05,332.99 380.40,332.99 380.75,332.93 381.10,332.93 381.45,332.93 381.80,332.81 382.15,332.81 382.50,332.81 382.85,332.81 383.20,332.81 383.55,332.93 383.90,332.99 384.25,332.99 384.60,333.37 384.95,333.61 385.30,334.17 385.65,334.62 386.00,334.80 386.35,335.11 386.70,335.54 387.05,335.97 387.40,335.99 387.75,336.18 388.10,336.55 388.45,336.85 388.80,337.29 389.15,337.53 389.50,337.91 389.85,338.09 390.20,338.17 390.55,338.51 390.90,338.95 391.25,339.26 391.60,339.44 391.95,340.00 392.30,340.49 392.65,340.85 393.00,340.92 393.35,341.16 393.70,341.36 394.05,341.86 394.40,342.23 394.75,342.66 395.10,342.95 395.45,343.19 395.80,343.45 396.15,343.58 396.50,343.73 396.85,343.91 397.20,344.28 397.55,344.51 397.90,345.00 398.25,345.44 398.60,345.92 398.95,346.23 399.30,346.79 399.65,347.14 400.00,347.51 400.35,348.01 400.70,348.44 401.05,348.69 401.40,348.69 401.75,348.72 402.10,348.75 402.45,348.75 402.80,348.75 403.15,348.75 403.50,348.53 403.85,348.53 404.20,348.66 404.55,348.85 404.90,349.03 405.25,349.03 405.60,349.22 405.95,349.28 406.30,349.28 406.65,349.28 407.00,349.22 407.35,348.91 407.70,348.66 408.05,348.41 408.40,348.90 408.75,349.21 409.10,349.52 409.45,349.96 409.80,350.51 410.15,350.95 410.50,351.38 410.85,351.69 411.20,352.12 411.55,352.56 411.90,352.99 412.25,353.30 412.60,353.61 412.95,353.90 413.30,354.15 413.65,354.47 414.00,354.77 414.35,355.02 414.70,355.46 415.05,356.01 415.40,356.45 415.75,356.57 416.10,356.57 416.45,356.57 416.80,356.57 417.15,356.57 417.50,356.57 417.85,356.57 418.20,356.88 418.55,357.25 418.90,357.56 419.25,357.62 419.60,357.90 419.95,358.33 420.30,358.69 420.65,359.13 421.00,359.58 421.35,360.02 421.70,360.52 422.05,360.89 422.40,361.51 422.75,362.06 423.10,362.57 423.45,363.00 423.80,363.55 424.15,363.92 424.50,364.35 424.85,364.79 425.20,365.47 425.55,365.78 425.90,366.21 426.25,366.48 426.60,366.91 426.95,367.41 427.30,367.84 427.65,368.31 428.00,368.81 428.35,369.18 428.70,369.67 429.05,370.11 429.40,370.58 429.75,370.89 430.10,371.48 430.45,372.04 430.80,372.54 431.15,372.85 431.50,373.16 431.85,373.59 432.20,374.03 432.55,374.52 432.90,374.90 433.25,375.27 433.60,375.76 433.95,376.26 434.30,376.57 434.65,377.00 435.00,377.43 435.35,377.74 435.70,377.81 436.05,377.99 436.40,378.38 436.75,378.56 437.10,378.44 437.45,378.50 437.80,378.62 438.15,378.62 438.50,378.62 438.85,378.62 439.20,378.56 439.55,378.85 439.90,378.85 440.25,379.09 440.60,379.34 440.95,379.34 441.30,379.67 441.65,380.17 442.00,380.29 442.35,380.51 442.70,380.82 443.05,381.19 443.40,381.63 443.75,381.94 444.10,382.25 444.45,382.62 444.80,383.12 445.15,383.43 445.50,383.84 445.85,384.34 446.20,384.83 446.55,385.22 446.90,385.68 447.25,386.30 447.60,386.42 447.95,386.92 448.30,387.22 448.65,387.84 449.00,387.91 449.35,387.91 449.70,388.33 450.05,388.95 450.40,389.45 450.75,389.82 451.10,390.30 451.45,390.66 451.80,391.09 452.15,391.58 452.50,392.08 452.85,392.51 453.20,393.01 453.55,393.44 453.90,393.91 454.25,394.35 454.60,394.77 454.95,395.26 455.30,395.76 455.65,396.19 456.00,396.63 456.35,396.86 456.70,397.29 457.05,397.79 457.40,398.41 457.75,398.76 458.10,399.16 458.45,399.72 458.80,400.21 459.15,400.71 459.50,400.96 459.85,401.46 460.20,401.95 460.55,402.45 460.90,402.78 461.25,403.25 461.60,403.81 461.95,404.18 462.30,404.37 462.65,404.62 463.00,404.56 463.35,404.37 463.70,404.37 464.05,404.19 464.40,403.82 464.75,403.79 465.10,403.46 465.45,403.21 465.80,402.97 466.15,402.79 466.50,402.79 466.85,402.66 467.20,402.66 467.55,402.73 467.90,402.79 468.25,402.79 468.60,402.79 468.95,402.79 469.30,402.85 469.65,403.28 470.00,403.84 470.35,404.15 470.70,404.59 471.05,405.08 471.40,405.46 471.75,405.83 472.10,406.08 472.45,406.08 472.80,406.08 473.15,406.08 473.50,406.27 473.85,406.39 474.20,406.39 474.55,406.39 474.90,406.47 475.25,406.97 475.60,407.41 475.95,407.96 476.30,408.03 476.65,408.28 477.00,408.65 477.35,408.90 477.70,409.09 478.05,409.21 478.40,409.46 478.75,409.52 479.10,409.52 479.45,409.52 479.80,409.52 480.15,409.40 480.50,408.86 480.85,408.44 481.20,408.32 481.55,407.95 481.90,407.95 482.25,407.64 482.60,407.64 482.95,407.64 483.30,407.70 483.65,407.87 484.00,408.12 484.35,408.43 484.70,408.89 485.05,409.39 485.40,409.81 485.75,410.06 486.10,410.06 486.45,410.31 486.80,410.68 487.15,410.68 487.50,410.68 487.85,410.73 488.20,410.85 488.55,410.97 488.90,411.16 489.25,411.46 489.60,411.77 489.95,412.28 490.30,412.74 490.65,413.20 491.00,413.63 491.35,414.06 491.70,414.11 492.05,414.11 492.40,413.99 492.75,414.11 493.10,413.74 493.45,413.49 493.80,413.25 494.15,413.19 494.50,413.00 494.85,413.00 495.20,413.48 495.55,413.82 495.90,414.26 496.25,414.69 496.60,414.75 496.95,414.75 497.30,414.75 497.65,414.75 498.00,414.75 498.35,414.75 498.70,414.75 499.05,414.69 499.40,414.69 499.75,414.88 500.10,414.88 500.45,414.50 500.80,414.19 501.15,414.01 501.50,413.88 501.85,413.51 502.20,413.27 502.55,412.83 502.90,412.40 503.25,411.92 503.60,411.59 503.95,411.10 504.30,410.60 504.65,410.14 505.00,409.82 505.35,409.49 505.70,409.18 506.05,408.81 506.40,408.63 506.75,408.50 507.10,408.50 507.45,408.50 507.80,408.57 508.15,408.57 508.50,408.50 508.85,408.44 509.20,408.50 509.55,408.56 509.90,408.27 510.25,408.05 510.60,407.86 510.95,407.74 511.30,407.74 511.65,407.83 512.00,407.90 512.35,407.96 512.70,408.14 513.05,408.64 513.40,409.13 513.75,409.63 514.10,410.13 514.45,410.19 514.80,410.31 515.15,410.62 515.50,410.75 515.85,410.75 516.20,410.75 516.55,410.62 516.90,410.62 517.25,410.62 517.60,410.62 517.95,410.81 518.30,410.87 518.65,410.87 519.00,410.87 519.35,410.99 519.70,411.55 520.05,411.55 520.40,411.43 520.75,411.24 521.10,411.24 521.45,410.99 521.80,410.99 522.15,410.81 522.50,410.62 522.85,410.62 523.20,410.62 523.55,410.62 523.90,410.74 524.25,410.24 524.60,410.07 524.95,410.01 525.30,409.70 525.65,409.54 526.00,409.48 526.35,409.40 526.70,409.09 527.05,409.09 527.40,409.40 527.75,409.52 528.10,409.52 528.45,409.52 528.80,409.40 529.15,409.33 529.50,408.84 529.85,408.49 530.20,408.10 530.55,407.72 530.90,407.48 531.25,407.39 531.60,407.39 531.95,407.39 532.30,407.51 532.65,407.51 533.00,407.20 533.35,406.96 533.70,406.55 534.05,406.11 534.40,405.76 534.75,405.26 535.10,404.77 535.45,404.21 535.80,403.72 536.15,403.31 536.50,402.87 536.85,402.25 537.20,401.69 537.55,401.26 537.90,400.82 538.25,400.40 538.60,400.09 538.95,399.84 539.30,399.34 539.65,399.29 540.00,398.80 540.35,398.37 540.70,398.07 541.05,397.91 541.40,397.54 541.75,397.02 542.10,396.49 542.45,396.01 542.80,395.46 543.15,395.06 543.50,394.56 543.85,394.13 544.20,393.76 544.55,393.51 544.90,393.39 545.25,393.20 545.60,393.02 545.95,392.77 546.30,392.77 546.65,392.58 547.00,392.52 547.35,392.52 547.70,392.58 548.05,392.85 548.40,393.08 548.75,393.32 549.10,393.51 549.45,394.07 549.80,394.48 550.15,394.91 550.50,395.28 550.85,395.65 551.20,396.02 551.55,396.58 551.90,396.82 552.25,397.20 552.60,397.57 552.95,397.94 553.30,398.08 553.65,398.39 554.00,398.70 554.35,399.20 554.70,399.52 555.05,400.10 555.40,400.53 555.75,400.90 556.10,401.34 556.45,401.83 556.80,402.34 557.15,402.83 557.50,403.23 557.85,403.23 558.20,403.23 558.55,403.23 558.90,403.51 559.25,403.57 559.60,403.57 559.95,403.57 560.30,403.39 560.65,403.39 561.00,403.33 561.35,403.33 561.70,403.14 562.05,403.08 562.40,403.02 562.75,402.71 563.10,402.46 563.45,401.95 563.80,401.58 564.15,401.33 564.50,400.96 564.85,400.53 565.20,400.04 565.55,399.56 565.90,399.07 566.25,398.57 566.60,398.20 566.95,397.73 567.30,397.39 567.65,397.07 568.00,396.69 568.35,396.32 568.70,396.01 569.05,395.58 569.40,395.13 569.75,394.84 570.10,394.40 570.45,393.91 570.80,393.80 571.15,393.74 571.50,393.73 571.85,393.61 572.20,393.61 572.55,393.49 572.90,393.19 573.25,392.63 573.60,392.21 573.95,391.84 574.30,391.81 574.65,391.71 575.00,391.78 575.35,391.84 575.70,391.84 576.05,391.90 576.40,392.02 576.75,392.15 577.10,392.27 577.45,392.27 577.80,392.02 578.15,391.90 578.50,391.90 578.85,391.90 579.20,392.02 579.55,392.02 579.90,392.33 580.25,392.52 580.60,392.52 580.95,392.77 581.30,392.77 581.65,392.90 582.00,392.90 582.35,392.92 582.70,392.92 583.05,392.92 583.40,392.92 583.75,393.10 584.10,393.35 584.45,393.63 584.80,393.96 585.15,394.40 585.50,394.89 585.85,395.51 586.20,395.88 586.55,396.25 586.90,396.81 587.25,397.03 587.60,397.29 587.95,397.72 588.30,398.09 588.65,398.58 589.00,399.03 589.35,399.59 589.70,400.10 590.05,400.66 590.40,401.15 590.75,401.40 591.10,401.96 591.45,402.27 591.80,402.66 592.15,403.28 592.50,403.72 592.85,404.17 593.20,404.42 593.55,404.68 593.90,405.01 594.25,405.32 594.60,405.72 594.95,406.09 595.30,406.31 595.65,406.81 596.00,407.21 596.35,407.64 596.70,407.89 597.05,408.39 597.40,408.66 597.75,408.66 598.10,408.66 598.45,408.79 598.80,409.24 599.15,409.61 599.50,410.05 599.85,410.55 600.20,410.79 600.55,411.23 600.90,411.72 601.25,412.16 601.60,412.47 601.95,412.89 602.30,413.45 602.65,413.73 603.00,414.10 603.35,414.49 603.70,414.86 604.05,415.17 604.40,415.17 604.75,415.23 605.10,415.23 605.45,415.23 605.80,415.23 606.15,415.23 606.50,415.30 606.85,415.30 607.20,415.30 607.55,414.99 607.90,414.74 608.25,414.49 608.60,414.12 608.95,413.69 609.30,413.62 609.65,413.38 610.00,412.94 610.35,412.88 610.70,412.63 611.05,412.34 611.40,412.00 611.75,411.62 612.10,411.27 612.45,411.15 612.80,411.15 613.15,411.21 613.50,411.21 613.85,411.21 614.20,411.02 614.55,411.02 614.90,410.84 615.25,410.57 615.60,410.57 615.95,410.69 616.30,410.75 616.65,410.69 617.00,411.11 617.35,411.11 617.70,410.86 618.05,410.37 618.40,409.81 618.75,409.14 619.10,408.71 619.45,408.27 619.80,407.78 620.15,407.22 620.50,406.73 620.85,406.11 621.20,405.67 621.55,405.05 621.90,404.64 622.25,404.21 622.60,403.65 622.95,403.21 623.30,402.78 623.65,402.41 624.00,402.04 624.35,401.67 624.70,401.11 625.05,400.68 625.40,400.43 625.75,400.22 626.10,399.74 626.45,399.43 626.80,399.28 627.15,399.22 627.50,399.34 627.85,399.34 628.20,399.34 628.55,399.34 628.90,399.41 629.25,399.41 629.60,399.41 629.95,399.41 630.30,399.41 630.65,399.51 631.00,399.63 631.35,399.63 631.70,399.44 632.05,399.38 632.40,399.26 632.75,398.95 633.10,398.51 633.45,398.51 633.80,398.51 634.15,398.64 634.50,398.51 634.85,398.51 635.20,398.51 635.55,397.90 635.90,397.46 636.25,397.09 636.60,396.66 636.95,396.31 637.30,396.25 637.65,396.00 638.00,395.78 638.35,395.47 638.70,395.29 639.05,395.10 639.40,394.54 639.75,394.15 640.10,393.72 640.45,393.29 640.80,393.04 641.15,392.98 641.50,392.67 641.85,392.67 642.20,392.67 642.55,392.48 642.90,392.48 643.25,392.05 643.60,391.62 643.95,391.14 644.30,390.77 644.65,390.41 645.00,389.92 645.35,389.30 645.70,388.99 646.05,388.66 646.40,388.22 646.75,387.78 647.10,387.35 647.45,386.98 647.80,386.62 648.15,386.25 648.50,385.88 648.85,385.45 649.20,385.03 649.55,384.72 649.90,384.35 650.25,383.91 650.60,383.51 650.95,383.08 651.30,382.65 651.65,382.52 652.00,382.11 652.35,381.73 652.70,381.21 653.05,380.77 653.40,380.52 653.75,380.40 654.10,380.34 654.45,380.34 654.80,380.34 655.15,380.34 655.50,380.28 655.85,380.28 656.20,380.08 656.55,379.77 656.90,379.71 657.25,379.65 657.60,379.22 657.95,378.78 658.30,378.35 658.65,378.05 659.00,377.99 659.35,377.69 659.70,377.25 660.05,376.83 660.40,376.33 660.75,375.96 661.10,375.64 661.45,375.22 661.80,375.03 662.15,374.62 662.50,374.18 662.85,373.69 663.20,373.19 663.55,372.87 663.90,372.44 664.25,371.99 664.60,371.61 664.95,371.24 665.30,370.99 665.65,370.55 666.00,370.06 666.35,369.50 666.70,369.01 667.05,368.58 667.40,368.15 667.75,367.72 668.10,367.38 668.45,367.08 668.80,366.58 669.15,366.18 669.50,365.69 669.85,365.19 670.20,364.70 670.55,364.08 670.90,363.83 671.25,363.47 671.60,363.10 671.95,362.64 672.30,362.16 672.65,361.60 673.00,361.17 673.35,360.64 673.70,360.08 674.05,359.46 674.40,359.21 674.75,358.53 675.10,358.04 675.45,357.60 675.80,357.11 676.15,356.68 676.50,356.18 676.85,355.64 677.20,355.28 677.55,354.97 677.90,354.69 678.25,354.53 678.60,354.41 678.95,354.35 679.30,354.17 679.65,354.11 680.00,354.11 680.35,354.11 680.70,353.98 681.05,353.73 681.40,353.67 681.75,353.67 682.10,353.92 682.45,353.92 682.80,354.04 683.15,354.13 683.50,354.32 683.85,354.32 684.20,354.25 684.55,354.03 684.90,353.78 685.25,353.42 685.60,353.18 685.95,353.12 686.30,353.12 686.65,352.99 687.00,352.99 687.35,352.93 687.70,352.93 688.05,352.93 688.40,352.93 688.75,352.99 689.10,353.12 689.45,353.37 689.80,353.74 690.15,353.80 690.50,354.11 690.85,354.17 691.20,354.24 691.55,354.17 691.90,353.93 692.25,353.93 692.60,353.93 692.95,353.86 693.30,353.74 693.65,354.17 694.00,354.30 694.35,354.30 694.70,354.30 695.05,354.17 695.40,354.17 695.75,354.11 696.10,354.17 696.45,354.30 696.80,354.42 697.15,354.61 697.50,355.04 697.85,355.25 698.20,355.49 698.55,355.68 698.90,355.91 699.25,356.30 699.60,356.56 699.95,356.70 700.30,356.89 700.65,357.20 701.00,357.33 701.35,357.33 701.70,357.33 702.05,357.26 702.40,357.02 702.75,356.94 703.10,356.94 703.45,357.25 703.80,357.41 704.15,357.28 704.50,357.28 704.85,357.28 705.20,357.16 705.55,357.16 705.90,357.59 706.25,357.84 706.60,358.46 706.95,358.58 707.30,358.89 707.65,359.45 708.00,359.89 708.35,360.38 708.70,360.67 709.05,360.92 709.40,361.40 709.75,361.83 710.10,362.39 710.45,363.04 710.80,363.44 711.15,363.81 711.50,364.37 711.85,364.74 712.20,365.23 712.55,365.80 712.90,366.23 713.25,366.60 713.60,367.09 713.95,367.27 714.30,367.83 714.65,368.32 715.00,368.63 715.35,369.12 715.70,369.49 716.05,369.99 716.40,370.57 716.75,370.94 717.10,371.43 717.45,371.87 717.80,372.36 718.15,372.67 718.50,373.04 718.85,373.40 719.20,373.59 719.55,373.59 719.90,373.59 720.25,373.59 720.60,373.99 720.95,373.99 721.30,373.93 721.65,373.93 722.00,373.87 722.35,373.68 722.70,373.50 723.05,373.25 723.40,373.12 723.75,372.69 724.10,372.32 724.45,372.13 724.80,371.95 725.15,371.58 725.50,371.20 725.85,371.20 726.20,370.96 726.55,370.65 726.90,370.34 727.25,370.03 727.60,369.97 727.95,369.60 728.30,369.12 728.65,368.67 729.00,368.36 729.35,368.18 729.70,368.18 730.05,368.18 730.40,368.18 730.75,367.80 731.10,367.80 731.45,367.66 731.80,367.72 732.15,367.84 732.50,367.84 732.85,368.02 733.20,368.08 733.55,368.21 733.90,368.39 734.25,368.14 734.60,367.93 734.95,367.87 735.30,367.38 735.65,367.16 736.00,367.06 736.35,366.94 736.70,366.57 737.05,366.32 737.40,366.13 737.75,365.95 738.10,365.76 738.45,365.70 738.80,365.70 739.15,365.94 739.50,366.19 739.85,366.63 740.20,367.07 740.55,367.13 740.90,367.38 741.25,367.50 741.60,367.90 741.95,368.09 742.30,368.28 742.65,368.52 743.00,368.71 743.35,368.83 743.70,369.07 744.05,369.07 744.40,369.07 744.75,369.13 745.10,369.13 745.45,369.13 745.80,369.19 746.15,369.36 746.50,369.17 746.85,369.36 747.20,369.54 747.55,369.92 747.90,370.16 748.25,370.16 748.60,370.16 748.95,370.16 749.30,369.81 749.65,369.75 750.00,369.69 750.35,369.81 750.70,369.81 751.05,369.87 751.40,370.06 751.75,370.06 752.10,370.06 752.45,369.72 752.80,369.41 753.15,369.36 753.50,369.30 753.85,369.59 754.20,369.65 754.55,369.65 754.90,369.59 755.25,369.28 755.60,369.53 755.95,369.46 756.30,369.32 756.65,369.14 757.00,368.83 757.35,368.97 757.70,369.22 758.05,369.28 758.40,369.28 758.75,369.28 759.10,369.28 759.45,369.47 759.80,369.66 760.15,369.66 760.50,369.59 760.85,369.59 761.20,369.41 761.55,369.22 761.90,369.28 762.25,369.22 762.60,369.10 762.95,368.77 763.30,368.46 763.65,368.46 764.00,368.31 764.35,368.18 764.70,368.06 765.05,367.75 765.40,367.50 765.75,367.50 766.10,367.69 766.45,368.04 766.80,368.36 767.15,368.73 767.50,368.80 767.85,368.80 768.20,368.84 768.55,368.84 768.90,368.84 769.25,369.09 769.60,369.52 769.95,369.52 770.30,369.58 770.65,369.95 771.00,370.57 771.35,370.94 771.70,371.56 772.05,371.94 772.40,372.25 772.75,372.78 773.10,373.22 773.45,373.65 773.80,373.84 774.15,374.08 774.50,374.26 774.85,374.26 775.20,374.26 775.55,373.97 775.90,373.59 776.25,373.53 776.60,373.35 776.95,372.88 777.30,372.63 777.65,372.36 778.00,372.23 778.35,372.11 778.70,371.82 779.05,371.38 779.40,370.95 779.75,370.70 780.10,370.34 780.45,370.34 780.80,370.34 781.15,370.34 781.50,370.28 781.85,369.84 782.20,369.59 782.55,369.45 782.90,368.97 783.25,369.03 783.60,369.03 783.95,369.12 784.30,369.12 784.65,369.31 785.00,369.31"/>
<line x1="813" y1="78" x2="839" y2="78" stroke="#dc2626" stroke-width="3"/>
<text x="847" y="82" font-family="Arial" font-size="13" fill="#111827">high volatility</text>
<polyline fill="none" stroke="#059669" stroke-width="2" points="85.00,379.31 85.35,379.19 85.70,379.28 86.05,379.28 86.40,379.28 86.75,379.37 87.10,379.24 87.45,379.36 87.80,379.36 88.15,379.48 88.50,379.48 88.85,379.48 89.20,379.73 89.55,379.73 89.90,379.79 90.25,379.73 90.60,379.67 90.95,379.55 91.30,379.24 91.65,379.24 92.00,379.17 92.35,379.05 92.70,378.93 93.05,378.93 93.40,378.80 93.75,378.47 94.10,378.34 94.45,378.16 94.80,377.97 95.15,377.91 95.50,377.66 95.85,377.23 96.20,377.17 96.55,377.17 96.90,377.11 97.25,376.73 97.60,376.53 97.95,376.16 98.30,375.64 98.65,375.29 99.00,375.12 99.35,374.67 99.70,374.30 100.05,373.99 100.40,373.74 100.75,373.62 101.10,373.25 101.45,373.25 101.80,372.96 102.15,372.90 102.50,372.90 102.85,372.80 103.20,372.68 103.55,372.24 103.90,371.87 104.25,371.38 104.60,371.25 104.95,371.19 105.30,371.07 105.65,371.07 106.00,371.07 106.35,371.07 106.70,371.07 107.05,371.07 107.40,371.07 107.75,371.07 108.10,371.07 108.45,371.07 108.80,370.91 109.15,370.50 109.50,370.50 109.85,370.44 110.20,370.32 110.55,370.32 110.90,370.32 111.25,370.32 111.60,370.32 111.95,370.32 112.30,370.32 112.65,370.32 113.00,370.32 113.35,370.50 113.70,370.63 114.05,370.73 114.40,370.92 114.75,371.17 115.10,371.41 115.45,371.41 115.80,371.66 116.15,371.79 116.50,372.16 116.85,372.41 117.20,372.53 117.55,372.22 117.90,372.41 118.25,372.40 118.60,372.55 118.95,372.73 119.30,372.80 119.65,372.97 120.00,372.97 120.35,372.97 120.70,372.97 121.05,373.03 121.40,373.03 121.75,373.03 122.10,373.28 122.45,373.53 122.80,373.65 123.15,373.77 123.50,373.84 123.85,374.21 124.20,374.39 124.55,374.60 124.90,374.91 125.25,375.35 125.60,375.69 125.95,375.98 126.30,376.23 126.65,376.35 127.00,376.60 127.35,376.72 127.70,376.78 128.05,376.97 128.40,376.97 128.75,376.97 129.10,377.09 129.45,377.40 129.80,377.53 130.15,377.74 130.50,377.74 130.85,377.74 131.20,377.74 131.55,377.74 131.90,377.74 132.25,377.74 132.60,377.74 132.95,377.74 133.30,377.71 133.65,377.71 134.00,377.71 134.35,377.71 134.70,377.89 135.05,378.02 135.40,378.02 135.75,378.02 136.10,378.39 136.45,378.64 136.80,378.83 137.15,378.95 137.50,379.13 137.85,379.13 138.20,379.19 138.55,379.25 138.90,379.25 139.25,379.38 139.60,379.38 139.95,379.63 140.30,379.95 140.65,380.08 141.00,380.36 141.35,380.52 141.70,380.52 142.05,380.52 142.40,380.52 142.75,380.52 143.10,380.52 143.45,380.52 143.80,380.52 144.15,380.52 144.50,380.52 144.85,380.70 145.20,380.89 145.55,380.95 145.90,381.20 146.25,381.56 146.60,381.74 146.95,382.05 147.30,382.05 147.65,382.05 148.00,382.05 148.35,381.99 148.70,381.87 149.05,381.68 149.40,381.68 149.75,381.68 150.10,381.81 150.45,381.74 150.80,381.74 151.15,381.62 151.50,381.62 151.85,381.62 152.20,381.62 152.55,381.62 152.90,381.62 153.25,381.62 153.60,381.62 153.95,381.62 154.30,381.62 154.65,381.62 155.00,381.50 155.35,381.43 155.70,381.13 156.05,380.94 156.40,380.94 156.75,380.82 157.10,380.82 157.45,380.69 157.80,380.69 158.15,380.62 158.50,380.49 158.85,380.12 159.20,380.10 159.55,379.94 159.90,379.83 160.25,379.71 160.60,379.46 160.95,379.40 161.30,379.09 161.65,378.90 162.00,378.65 162.35,378.65 162.70,378.65 163.05,378.65 163.40,378.65 163.75,378.65 164.10,378.65 164.45,378.65 164.80,378.72 165.15,378.84 165.50,378.84 165.85,378.84 166.20,378.90 166.55,379.37 166.90,379.65 167.25,379.90 167.60,380.32 167.95,380.82 168.30,381.25 168.65,381.58 169.00,382.08 169.35,382.58 169.70,382.95 170.05,383.51 170.40,383.82 170.75,384.12 171.10,384.55 171.45,384.86 171.80,385.29 172.15,385.47 172.50,385.78 172.85,386.13 173.20,386.44 173.55,386.75 173.90,386.81 174.25,387.06 174.60,387.31 174.95,387.37 175.30,387.40 175.65,387.65 176.00,387.65 176.35,387.90 176.70,388.10 177.05,388.10 177.40,388.22 177.75,388.28 178.10,388.59 178.45,388.84 178.80,389.27 179.15,389.58 179.50,389.74 179.85,389.92 180.20,390.23 180.55,390.73 180.90,391.26 181.25,391.76 181.60,392.11 181.95,392.48 182.30,393.04 182.65,393.54 183.00,393.97 183.35,394.34 183.70,394.77 184.05,395.15 184.40,395.58 184.75,396.22 185.10,396.47 185.45,396.97 185.80,397.34 186.15,397.90 186.50,398.30 186.85,398.73 187.20,399.29 187.55,399.78 187.90,400.09 188.25,400.61 188.60,400.93 188.95,401.42 189.30,402.04 189.65,402.48 190.00,403.04 190.35,403.52 190.70,404.01 191.05,404.57 191.40,404.82 191.75,405.25 192.10,405.84 192.45,405.90 192.80,406.03 193.15,406.46 193.50,406.96 193.85,407.33 194.20,407.57 194.55,407.73 194.90,407.79 195.25,407.79 195.60,407.91 195.95,408.10 196.30,408.24 196.65,408.33 197.00,408.76 197.35,408.83 197.70,408.83 198.05,408.76 198.40,408.70 198.75,408.66 199.10,408.53 199.45,408.22 199.80,408.09 200.15,408.09 200.50,407.72 200.85,407.72 201.20,407.85 201.55,407.91 201.90,408.09 202.25,408.16 202.60,408.16 202.95,408.47 203.30,408.65 203.65,408.90 204.00,408.96 204.35,409.29 204.70,409.35 205.05,409.35 205.40,409.35 205.75,409.35 206.10,409.41 206.45,409.41 206.80,409.41 207.15,409.41 207.50,409.41 207.85,409.41 208.20,409.41 208.55,409.41 208.90,409.48 209.25,409.48 209.60,409.54 209.95,409.60 210.30,409.60 210.65,409.60 211.00,409.60 211.35,409.60 211.70,409.60 212.05,409.60 212.40,409.54 212.75,409.54 213.10,409.54 213.45,409.60 213.80,409.82 214.15,409.96 214.50,410.15 214.85,410.15 215.20,410.15 215.55,410.15 215.90,410.15 216.25,410.22 216.60,410.22 216.95,410.29 217.30,410.66 217.65,410.78 218.00,410.78 218.35,410.91 218.70,411.03 219.05,411.15 219.40,411.34 219.75,411.59 220.10,411.59 220.45,411.59 220.80,411.59 221.15,411.59 221.50,411.59 221.85,411.65 222.20,411.65 222.55,411.65 222.90,411.65 223.25,411.77 223.60,412.21 223.95,412.58 224.30,412.58 224.65,413.07 225.00,413.57 225.35,413.88 225.70,414.31 226.05,414.76 226.40,415.09 226.75,415.45 227.10,415.82 227.45,416.31 227.80,416.75 228.15,417.12 228.50,417.67 228.85,418.23 229.20,418.73 229.55,418.85 229.90,419.16 230.25,419.40 230.60,419.71 230.95,420.14 231.30,420.33 231.65,420.70 232.00,421.17 232.35,421.48 232.70,421.83 233.05,422.02 233.40,422.08 233.75,422.36 234.10,422.73 234.45,422.96 234.80,423.09 235.15,423.21 235.50,423.27 235.85,423.27 236.20,423.51 236.55,423.62 236.90,423.62 237.25,423.93 237.60,424.36 237.95,424.80 238.30,425.29 238.65,425.66 239.00,425.99 239.35,426.43 239.70,426.99 240.05,427.52 240.40,428.01 240.75,428.38 241.10,428.88 241.45,429.37 241.80,429.87 242.15,430.32 242.50,430.65 242.85,430.93 243.20,431.01 243.55,431.01 243.90,431.01 244.25,431.01 244.60,431.01 244.95,431.01 245.30,431.14 245.65,431.32 246.00,431.32 246.35,431.32 246.70,431.57 247.05,432.00 247.40,432.00 247.75,432.00 248.10,432.00 248.45,432.00 248.80,432.00 249.15,432.00 249.50,432.00 249.85,432.00 250.20,432.00 250.55,432.00 250.90,432.00 251.25,432.07 251.60,432.51 251.95,432.88 252.30,433.06 252.65,433.37 253.00,433.68 253.35,433.68 253.70,433.95 254.05,433.95 254.40,433.95 254.75,433.95 255.10,433.95 255.45,433.95 255.80,433.95 256.15,434.01 256.50,434.07 256.85,434.07 257.20,434.07 257.55,434.07 257.90,434.07 258.25,434.07 258.60,434.07 258.95,434.07 259.30,434.38 259.65,434.38 260.00,434.38 260.35,434.44 260.70,434.57 261.05,434.57 261.40,434.57 261.75,434.57 262.10,434.57 262.45,434.69 262.80,434.93 263.15,435.11 263.50,435.11 263.85,435.11 264.20,435.18 264.55,435.49 264.90,435.94 265.25,436.32 265.60,436.62 265.95,436.75 266.30,436.81 266.65,436.81 267.00,437.18 267.35,437.18 267.70,437.18 268.05,437.18 268.40,437.18 268.75,437.18 269.10,437.18 269.45,437.18 269.80,437.16 270.15,437.11 270.50,436.80 270.85,436.74 271.20,436.74 271.55,436.68 271.90,436.68 272.25,436.68 272.60,436.68 272.95,436.80 273.30,436.87 273.65,436.87 274.00,436.87 274.35,436.87 274.70,436.87 275.05,436.93 275.40,436.93 275.75,436.93 276.10,436.93 276.45,436.93 276.80,436.93 277.15,436.93 277.50,436.93 277.85,436.93 278.20,436.93 278.55,436.93 278.90,436.93 279.25,437.21 279.60,437.75 279.95,437.75 280.30,437.75 280.65,437.75 281.00,437.75 281.35,437.99 281.70,438.12 282.05,438.12 282.40,438.12 282.75,438.18 283.10,438.30 283.45,438.39 283.80,438.58 284.15,438.82 284.50,439.19 284.85,439.32 285.20,439.32 285.55,439.32 285.90,439.44 286.25,439.63 286.60,439.97 286.95,440.04 287.30,440.04 287.65,440.04 288.00,440.04 288.35,440.04 288.70,440.04 289.05,440.04 289.40,439.99 289.75,439.99 290.10,439.99 290.45,439.99 290.80,439.99 291.15,439.99 291.50,439.99 291.85,439.99 292.20,440.05 292.55,440.05 292.90,440.05 293.25,440.05 293.60,440.30 293.95,440.30 294.30,440.36 294.65,440.36 295.00,440.36 295.35,440.36 295.70,440.36 296.05,440.42 296.40,440.42 296.75,440.48 297.10,440.48 297.45,440.48 297.80,440.48 298.15,440.48 298.50,440.36 298.85,440.36 299.20,440.36 299.55,440.36 299.90,440.36 300.25,440.36 300.60,440.36 300.95,440.36 301.30,440.36 301.65,440.30 302.00,440.30 302.35,440.11 302.70,440.11 303.05,440.17 303.40,440.17 303.75,440.17 304.10,440.17 304.45,440.17 304.80,440.17 305.15,440.17 305.50,440.17 305.85,440.01 306.20,439.74 306.55,439.50 306.90,439.23 307.25,439.05 307.60,438.86 307.95,438.30 308.30,438.12 308.65,437.86 309.00,437.68 309.35,437.62 309.70,437.55 310.05,437.43 310.40,437.18 310.75,437.00 311.10,436.56 311.45,436.07 311.80,435.62 312.15,435.14 312.50,434.53 312.85,434.03 313.20,433.53 313.55,433.10 313.90,432.73 314.25,432.39 314.60,431.89 314.95,431.40 315.30,430.90 315.65,430.54 316.00,430.10 316.35,429.78 316.70,429.47 317.05,428.91 317.40,428.53 317.75,428.16 318.10,427.72 318.45,427.24 318.80,426.78 319.15,426.56 319.50,426.00 319.85,425.55 320.20,425.05 320.55,424.62 320.90,424.23 321.25,423.79 321.60,423.17 321.95,422.68 322.30,422.31 322.65,421.76 323.00,421.32 323.35,420.90 323.70,420.55 324.05,419.94 324.40,419.32 324.75,418.85 325.10,418.35 325.45,417.85 325.80,417.33 326.15,416.90 326.50,416.41 326.85,415.91 327.20,415.35 327.55,414.96 327.90,414.40 328.25,413.73 328.60,413.23 328.95,412.68 329.30,412.18 329.65,411.86 330.00,411.37 330.35,410.88 330.70,410.37 331.05,409.81 331.40,409.20 331.75,408.89 332.10,408.52 332.45,408.08 332.80,407.59 333.15,407.25 333.50,406.75 333.85,406.26 334.20,405.84 334.55,405.28 334.90,404.86 335.25,404.35 335.60,403.85 335.95,403.36 336.30,402.91 336.65,402.54 337.00,402.01 337.35,401.45 337.70,401.14 338.05,400.77 338.40,400.40 338.75,399.90 339.10,399.41 339.45,399.03 339.80,398.61 340.15,398.19 340.50,397.81 340.85,397.32 341.20,396.93 341.55,396.74 341.90,396.37 342.25,395.96 342.60,395.65 342.95,395.22 343.30,394.72 343.65,394.33 344.00,393.82 344.35,393.26 344.70,392.89 345.05,392.52 345.40,391.96 345.75,391.52 346.10,391.02 346.45,390.59 346.80,390.07 347.15,389.88 347.50,389.38 347.85,388.95 348.20,388.64 348.55,388.33 348.90,387.90 349.25,387.40 349.60,386.97 349.95,386.41 350.30,386.13 350.65,385.71 351.00,385.34 351.35,385.08 351.70,384.54 352.05,384.10 352.40,383.67 352.75,383.24 353.10,382.93 353.45,382.93 353.80,382.93 354.15,382.93 354.50,382.93 354.85,383.18 355.20,383.38 355.55,383.56 355.90,383.81 356.25,383.81 356.60,383.81 356.95,383.81 357.30,383.81 357.65,383.81 358.00,383.87 358.35,384.12 358.70,384.12 359.05,384.12 359.40,384.12 359.75,383.99 360.10,383.76 360.45,383.70 360.80,383.57 361.15,383.57 361.50,383.63 361.85,383.45 362.20,383.39 362.55,383.20 362.90,382.89 363.25,382.89 363.60,382.89 363.95,382.89 364.30,382.77 364.65,382.46 365.00,382.30 365.35,381.99 365.70,381.99 366.05,381.94 366.40,381.69 366.75,381.22 367.10,381.09 367.45,380.72 367.80,380.72 368.15,380.41 368.50,380.10 368.85,379.71 369.20,379.56 369.55,379.56 369.90,379.31 370.25,379.25 370.60,379.25 370.95,378.94 371.30,378.94 371.65,378.94 372.00,378.94 372.35,378.94 372.70,378.82 373.05,378.75 373.40,378.75 373.75,378.75 374.10,378.75 374.45,378.75 374.80,378.75 375.15,378.75 375.50,378.75 375.85,378.75 376.20,378.75 376.55,378.75 376.90,378.75 377.25,378.75 377.60,378.75 377.95,378.38 378.30,378.09 378.65,377.97 379.00,377.97 379.35,377.66 379.70,377.41 380.05,377.35 380.40,377.35 380.75,377.22 381.10,377.10 381.45,377.10 381.80,377.10 382.15,377.10 382.50,377.10 382.85,376.73 383.20,376.73 383.55,376.73 383.90,376.67 384.25,376.67 384.60,376.36 384.95,376.23 385.30,376.05 385.65,375.74 386.00,375.52 386.35,375.40 386.70,375.09 387.05,374.78 387.40,374.78 387.75,374.34 388.10,373.97 388.45,373.54 388.80,372.93 389.15,372.50 389.50,372.23 389.85,371.80 390.20,371.30 390.55,370.86 390.90,370.38 391.25,370.13 391.60,369.77 391.95,369.64 392.30,369.12 392.65,368.86 393.00,368.45 393.35,367.90 393.70,367.47 394.05,366.97 394.40,366.60 394.75,366.21 395.10,365.90 395.45,365.41 395.80,365.22 396.15,364.67 396.50,364.27 396.85,364.14 397.20,363.72 397.55,363.22 397.90,363.22 398.25,363.15 398.60,363.15 398.95,363.15 399.30,363.15 399.65,363.15 400.00,363.15 400.35,363.15 400.70,363.13 401.05,362.76 401.40,362.63 401.75,362.63 402.10,362.63 402.45,362.63 402.80,362.63 403.15,362.63 403.50,362.63 403.85,362.63 404.20,362.57 404.55,362.57 404.90,362.57 405.25,362.57 405.60,362.57 405.95,362.57 406.30,362.57 406.65,362.57 407.00,362.57 407.35,362.57 407.70,362.57 408.05,362.81 408.40,362.81 408.75,362.81 409.10,362.81 409.45,362.93 409.80,363.18 410.15,363.18 410.50,363.18 410.85,363.18 411.20,363.18 411.55,363.24 411.90,363.24 412.25,363.24 412.60,363.14 412.95,363.05 413.30,363.05 413.65,363.05 414.00,362.68 414.35,362.50 414.70,362.50 415.05,362.50 415.40,362.50 415.75,362.23 416.10,362.23 416.45,362.07 416.80,362.07 417.15,362.07 417.50,361.95 417.85,361.64 418.20,361.57 418.55,361.57 418.90,361.45 419.25,360.96 419.60,360.40 419.95,359.97 420.30,359.41 420.65,358.92 421.00,358.46 421.35,358.03 421.70,357.62 422.05,357.12 422.40,356.75 422.75,356.25 423.10,355.74 423.45,355.21 423.80,354.97 424.15,354.53 424.50,354.09 424.85,353.53 425.20,353.10 425.55,352.66 425.90,352.11 426.25,351.60 426.60,351.23 426.95,350.87 427.30,350.37 427.65,349.88 428.00,349.38 428.35,348.90 428.70,348.54 429.05,348.11 429.40,347.61 429.75,347.18 430.10,346.68 430.45,346.31 430.80,346.06 431.15,345.68 431.50,345.19 431.85,344.75 432.20,344.37 432.55,343.94 432.90,343.63 433.25,343.07 433.60,342.64 433.95,342.39 434.30,341.83 434.65,341.46 435.00,340.96 435.35,340.47 435.70,340.10 436.05,339.75 436.40,339.26 436.75,338.70 437.10,338.20 437.45,337.89 437.80,337.39 438.15,336.89 438.50,336.39 438.85,335.96 439.20,335.51 439.55,335.14 439.90,334.64 440.25,334.16 440.60,333.79 440.95,333.35 441.30,332.92 441.65,332.49 442.00,332.05 442.35,331.64 442.70,331.17 443.05,330.80 443.40,330.41 443.75,329.97 444.10,329.72 444.45,329.34 444.80,328.78 445.15,328.41 445.50,327.79 445.85,327.36 446.20,326.86 446.55,326.55 446.90,326.18 447.25,325.89 447.60,325.50 447.95,325.01 448.30,324.51 448.65,324.05 449.00,323.55 449.35,323.17 449.70,322.80 450.05,322.43 450.40,322.00 450.75,321.44 451.10,321.02 451.45,320.58 451.80,320.27 452.15,319.90 452.50,319.35 452.85,318.73 453.20,318.23 453.55,317.73 453.90,317.31 454.25,316.84 454.60,316.28 454.95,316.03 455.30,315.60 455.65,315.23 456.00,314.92 456.35,314.36 456.70,314.04 457.05,313.55 457.40,313.12 457.75,312.68 458.10,312.25 458.45,311.69 458.80,311.38 459.15,311.01 459.50,310.45 459.85,310.02 460.20,309.59 460.55,309.16 460.90,308.66 461.25,308.42 461.60,308.07 461.95,307.70 462.30,307.15 462.65,306.59 463.00,306.24 463.35,305.93 463.70,305.56 464.05,305.50 464.40,305.44 464.75,305.44 465.10,305.44 465.45,305.44 465.80,305.44 466.15,305.44 466.50,305.44 466.85,305.68 467.20,305.68 467.55,305.68 467.90,305.99 468.25,305.99 468.60,305.99 468.95,306.30 469.30,306.43 469.65,306.43 470.00,306.25 470.35,306.25 470.70,306.25 471.05,306.25 471.40,306.31 471.75,306.70 472.10,306.84 472.45,306.65 472.80,306.77 473.15,307.08 473.50,307.33 473.85,307.64 474.20,307.77 474.55,308.09 474.90,308.16 475.25,308.38 475.60,308.76 475.95,308.88 476.30,308.88 476.65,308.82 477.00,308.82 477.35,308.82 477.70,308.82 478.05,308.76 478.40,308.76 478.75,308.76 479.10,308.38 479.45,308.08 479.80,307.95 480.15,307.83 480.50,307.77 480.85,307.61 481.20,307.21 481.55,307.09 481.90,306.92 482.25,306.92 482.60,306.86 482.95,306.61 483.30,306.71 483.65,306.83 484.00,307.14 484.35,307.33 484.70,307.72 485.05,307.85 485.40,308.22 485.75,308.09 486.10,307.85 486.45,307.75 486.80,307.57 487.15,307.49 487.50,307.37 487.85,307.25 488.20,307.25 488.55,307.25 488.90,307.18 489.25,307.05 489.60,306.99 489.95,306.99 490.30,306.99 490.65,306.99 491.00,306.95 491.35,306.89 491.70,306.89 492.05,307.13 492.40,307.44 492.75,307.84 493.10,308.01 493.45,308.35 493.80,308.48 494.15,308.76 494.50,308.88 494.85,308.94 495.20,309.13 495.55,309.32 495.90,309.75 496.25,310.19 496.60,310.50 496.95,310.99 497.30,311.43 497.65,311.56 498.00,311.69 498.35,311.98 498.70,312.17 499.05,312.42 499.40,312.91 499.75,312.97 500.10,313.41 500.45,313.47 500.80,313.84 501.15,314.15 501.50,314.46 501.85,314.71 502.20,315.13 502.55,315.27 502.90,315.39 503.25,315.89 503.60,316.25 503.95,316.74 504.30,317.18 504.65,317.63 505.00,318.06 505.35,318.56 505.70,319.05 506.05,319.61 506.40,320.17 506.75,320.68 507.10,321.22 507.45,321.64 507.80,322.14 508.15,322.63 508.50,322.99 508.85,323.42 509.20,323.92 509.55,324.33 509.90,324.75 510.25,325.24 510.60,325.54 510.95,326.07 511.30,326.62 511.65,327.04 512.00,327.54 512.35,328.03 512.70,328.47 513.05,328.91 513.40,329.34 513.75,329.84 514.10,330.27 514.45,330.83 514.80,331.14 515.15,331.58 515.50,331.76 515.85,332.20 516.20,332.69 516.55,333.19 516.90,333.56 517.25,334.18 517.60,334.66 517.95,335.11 518.30,335.60 518.65,336.05 519.00,336.48 519.35,336.77 519.70,337.26 520.05,337.63 520.40,337.99 520.75,338.43 521.10,339.05 521.45,339.54 521.80,340.10 522.15,340.51 522.50,341.01 522.85,341.44 523.20,341.88 523.55,342.37 523.90,342.68 524.25,343.18 524.60,343.65 524.95,343.96 525.30,343.96 525.65,344.08 526.00,344.08 526.35,344.08 526.70,344.08 527.05,344.27 527.40,344.52 527.75,344.95 528.10,345.08 528.45,345.39 528.80,345.47 529.15,345.71 529.50,345.93 529.85,346.30 530.20,346.64 530.55,346.82 530.90,347.19 531.25,347.19 531.60,347.32 531.95,347.63 532.30,348.12 532.65,348.25 533.00,348.43 533.35,348.50 533.70,348.56 534.05,348.41 534.40,348.29 534.75,348.11 535.10,347.92 535.45,347.73 535.80,347.88 536.15,347.94 536.50,347.88 536.85,347.81 537.20,347.81 537.55,347.81 537.90,347.81 538.25,347.81 538.60,347.88 538.95,347.88 539.30,348.22 539.65,348.61 540.00,348.73 540.35,348.79 540.70,348.79 541.05,348.79 541.40,348.79 541.75,348.79 542.10,348.79 542.45,348.79 542.80,348.54 543.15,348.48 543.50,348.48 543.85,348.54 544.20,348.54 544.55,348.54 544.90,348.54 545.25,348.54 545.60,348.54 545.95,348.67 546.30,348.73 546.65,348.42 547.00,348.24 547.35,348.24 547.70,348.05 548.05,347.99 548.40,347.99 548.75,347.99 549.10,347.99 549.45,347.99 549.80,347.99 550.15,348.05 550.50,348.05 550.85,347.99 551.20,347.86 551.55,347.62 551.90,347.62 552.25,347.43 552.60,347.24 552.95,347.18 553.30,347.18 553.65,347.43 554.00,347.43 554.35,347.62 554.70,348.09 555.05,348.34 555.40,348.49 555.75,348.86 556.10,348.98 556.45,349.29 556.80,349.36 557.15,349.36 557.50,349.36 557.85,349.36 558.20,349.36 558.55,349.36 558.90,349.36 559.25,349.36 559.60,349.36 559.95,349.29 560.30,349.29 560.65,349.29 561.00,349.29 561.35,349.29 561.70,349.29 562.05,349.17 562.40,349.17 562.75,349.17 563.10,349.17 563.45,349.17 563.80,348.92 564.15,348.93 564.50,349.00 564.85,349.31 565.20,349.37 565.55,349.37 565.90,349.37 566.25,349.37 566.60,349.62 566.95,349.88 567.30,350.01 567.65,350.01 568.00,350.01 568.35,350.01 568.70,350.01 569.05,350.01 569.40,350.01 569.75,350.01 570.10,350.01 570.45,350.01 570.80,350.19 571.15,350.38 571.50,350.63 571.85,351.12 572.20,351.18 572.55,351.18 572.90,351.37 573.25,351.68 573.60,351.86 573.95,351.86 574.30,351.86 574.65,352.05 575.00,352.55 575.35,353.03 575.70,353.34 576.05,353.77 576.40,354.27 576.75,354.51 577.10,354.77 577.45,355.20 577.80,355.45 578.15,355.73 578.50,356.19 578.85,356.40 579.20,356.77 579.55,356.95 579.90,357.07 580.25,357.07 580.60,357.13 580.95,357.13 581.30,357.38 581.65,357.62 582.00,357.81 582.35,357.99 582.70,358.49 583.05,358.86 583.40,359.42 583.75,359.79 584.10,360.29 584.45,360.72 584.80,361.18 585.15,361.67 585.50,362.05 585.85,362.54 586.20,363.04 586.55,363.31 586.90,363.62 587.25,364.18 587.60,364.68 587.95,365.11 588.30,365.73 588.65,366.16 589.00,366.29 589.35,366.53 589.70,366.66 590.05,366.66 590.40,366.72 590.75,366.72 591.10,366.91 591.45,367.34 591.80,367.59 592.15,367.59 592.50,367.59 592.85,367.59 593.20,367.59 593.55,367.59 593.90,367.59 594.25,367.59 594.60,367.59 594.95,367.65 595.30,367.65 595.65,367.65 596.00,367.53 596.35,367.53 596.70,367.53 597.05,367.46 597.40,367.28 597.75,367.28 598.10,367.22 598.45,367.22 598.80,367.22 599.15,367.22 599.50,367.22 599.85,367.22 600.20,366.97 600.55,366.84 600.90,366.78 601.25,366.59 601.60,366.45 601.95,366.14 602.30,366.08 602.65,365.78 603.00,365.72 603.35,365.72 603.70,365.53 604.05,365.41 604.40,365.35 604.75,365.10 605.10,364.67 605.45,364.31 605.80,364.05 606.15,363.49 606.50,363.12 606.85,362.71 607.20,362.28 607.55,361.85 607.90,361.54 608.25,361.10 608.60,360.66 608.95,360.10 609.30,359.73 609.65,359.67 610.00,359.13 610.35,358.69 610.70,358.26 611.05,357.64 611.40,357.21 611.75,356.89 612.10,356.54 612.45,356.01 612.80,355.57 613.15,355.08 613.50,354.71 613.85,354.21 614.20,353.78 614.55,353.34 614.90,352.91 615.25,352.29 615.60,351.67 615.95,351.30 616.30,350.92 616.65,350.49 617.00,350.12 617.35,349.99 617.70,349.57 618.05,349.20 618.40,348.76 618.75,348.76 619.10,348.76 619.45,348.76 619.80,348.70 620.15,348.70 620.50,348.58 620.85,348.58 621.20,348.49 621.55,348.37 621.90,348.37 622.25,348.12 622.60,347.76 622.95,347.39 623.30,347.26 623.65,347.02 624.00,346.58 624.35,346.09 624.70,345.86 625.05,345.86 625.40,345.86 625.75,345.80 626.10,345.31 626.45,344.87 626.80,344.44 627.15,344.44 627.50,344.01 627.85,343.63 628.20,343.26 628.55,342.93 628.90,342.51 629.25,341.96 629.60,341.52 629.95,340.90 630.30,340.59 630.65,340.04 631.00,339.66 631.35,339.18 631.70,338.80 632.05,338.35 632.40,337.94 632.75,337.50 633.10,337.14 633.45,336.47 633.80,335.91 634.15,335.54 634.50,335.23 634.85,334.73 635.20,334.43 635.55,333.87 635.90,333.31 636.25,332.75 636.60,332.26 636.95,331.82 637.30,331.33 637.65,330.71 638.00,330.34 638.35,330.05 638.70,329.59 639.05,329.04 639.40,328.49 639.75,328.05 640.10,327.72 640.45,327.42 640.80,326.98 641.15,326.49 641.50,326.05 641.85,325.62 642.20,325.12 642.55,324.69 642.90,324.28 643.25,323.83 643.60,323.33 643.95,322.71 644.30,322.10 644.65,321.72 645.00,321.33 645.35,320.84 645.70,320.59 646.05,320.22 646.40,319.72 646.75,319.35 647.10,318.98 647.45,318.49 647.80,318.05 648.15,317.49 648.50,317.10 648.85,316.66 649.20,316.16 649.55,315.70 649.90,315.38 650.25,314.88 650.60,314.45 650.95,314.01 651.30,313.52 651.65,313.02 652.00,312.48 652.35,311.97 652.70,311.41 653.05,310.98 653.40,310.42 653.75,309.93 654.10,309.66 654.45,309.29 654.80,309.03 655.15,308.50 655.50,308.13 655.85,307.57 656.20,307.20 656.55,306.77 656.90,306.40 657.25,305.93 657.60,305.46 657.95,304.97 658.30,304.66 658.65,304.23 659.00,303.86 659.35,303.36 659.70,302.97 660.05,302.60 660.40,302.24 660.75,301.62 661.10,301.26 661.45,300.80 661.80,300.42 662.15,300.05 662.50,299.62 662.85,299.12 663.20,298.69 663.55,298.50 663.90,297.94 664.25,297.40 664.60,297.11 664.95,296.69 665.30,296.56 665.65,296.26 666.00,295.66 666.35,295.29 666.70,294.79 667.05,294.43 667.40,293.81 667.75,293.34 668.10,292.94 668.45,292.44 668.80,291.95 669.15,291.33 669.50,290.83 669.85,290.22 670.20,289.84 670.55,289.35 670.90,288.80 671.25,288.30 671.60,287.74 671.95,287.19 672.30,286.88 672.65,286.38 673.00,285.82 673.35,285.39 673.70,284.77 674.05,284.59 674.40,284.03 674.75,283.58 675.10,283.08 675.45,282.61 675.80,282.11 676.15,281.81 676.50,281.49 676.85,280.99 677.20,280.62 677.55,280.07 677.90,279.64 678.25,279.15 678.60,278.72 678.95,278.28 679.30,277.83 679.65,277.52 680.00,276.96 680.35,276.53 680.70,276.16 681.05,275.66 681.40,275.23 681.75,274.80 682.10,274.36 682.45,273.93 682.80,273.51 683.15,273.08 683.50,272.55 683.85,272.00 684.20,271.56 684.55,271.15 684.90,270.72 685.25,270.29 685.60,269.73 685.95,269.29 686.30,268.79 686.65,268.36 687.00,267.87 687.35,267.43 687.70,266.93 688.05,266.32 688.40,265.95 688.75,265.45 689.10,265.22 689.45,264.80 689.80,264.43 690.15,263.93 690.50,263.81 690.85,263.44 691.20,263.44 691.55,263.19 691.90,263.19 692.25,263.19 692.60,263.19 692.95,263.26 693.30,263.26 693.65,263.26 694.00,263.26 694.35,263.26 694.70,263.20 695.05,263.06 695.40,263.06 695.75,263.06 696.10,263.06 696.45,262.87 696.80,262.75 697.15,262.38 697.50,262.38 697.85,262.38 698.20,262.38 698.55,262.38 698.90,262.38 699.25,262.38 699.60,262.38 699.95,262.38 700.30,262.38 700.65,262.38 701.00,262.38 701.35,262.38 701.70,262.38 702.05,262.32 702.40,262.32 702.75,262.14 703.10,262.01 703.45,261.64 703.80,261.34 704.15,261.03 704.50,260.60 704.85,260.22 705.20,259.98 705.55,259.77 705.90,259.77 706.25,259.77 706.60,259.70 706.95,259.70 707.30,259.70 707.65,259.70 708.00,259.70 708.35,259.70 708.70,259.70 709.05,259.70 709.40,259.64 709.75,259.64 710.10,259.58 710.45,259.58 710.80,259.58 711.15,259.27 711.50,259.21 711.85,258.84 712.20,258.71 712.55,258.71 712.90,258.41 713.25,258.35 713.60,258.35 713.95,258.10 714.30,257.91 714.65,257.91 715.00,257.85 715.35,257.79 715.70,257.79 716.05,257.79 716.40,257.79 716.75,257.73 717.10,257.58 717.45,257.58 717.80,257.58 718.15,257.08 718.50,256.84 718.85,256.58 719.20,256.49 719.55,256.30 719.90,256.06 720.25,255.86 720.60,255.86 720.95,255.86 721.30,255.86 721.65,255.86 722.00,255.86 722.35,255.86 722.70,255.86 723.05,255.86 723.40,255.86 723.75,255.86 724.10,255.80 724.45,255.73 724.80,255.67 725.15,255.49 725.50,255.49 725.85,255.49 726.20,255.49 726.55,255.49 726.90,255.42 727.25,255.11 727.60,254.89 727.95,254.89 728.30,254.58 728.65,254.45 729.00,254.38 729.35,254.38 729.70,254.17 730.05,253.86 730.40,253.49 730.75,253.11 731.10,252.90 731.45,252.90 731.80,252.84 732.15,252.47 732.50,252.22 732.85,251.97 733.20,251.54 733.55,251.39 733.90,251.26 734.25,250.88 734.60,250.51 734.95,250.20 735.30,249.89 735.65,249.77 736.00,249.58 736.35,249.46 736.70,249.46 737.05,249.13 737.40,248.90 737.75,248.65 738.10,248.53 738.45,248.36 738.80,248.05 739.15,247.68 739.50,247.19 739.85,246.69 740.20,246.54 740.55,246.41 740.90,246.35 741.25,246.35 741.60,246.35 741.95,246.35 742.30,246.10 742.65,246.05 743.00,246.05 743.35,246.05 743.70,246.18 744.05,246.18 744.40,246.43 744.75,246.75 745.10,247.02 745.45,247.14 745.80,247.21 746.15,247.21 746.50,247.08 746.85,246.65 747.20,246.10 747.55,245.68 747.90,245.50 748.25,245.32 748.60,245.32 748.95,245.01 749.30,244.82 749.65,244.44 750.00,244.00 750.35,243.45 750.70,243.12 751.05,242.93 751.40,242.75 751.75,242.75 752.10,242.62 752.45,242.19 752.80,241.88 753.15,241.43 753.50,241.43 753.85,241.43 754.20,241.43 754.55,241.43 754.90,241.43 755.25,241.43 755.60,241.43 755.95,241.62 756.30,241.81 756.65,241.81 757.00,241.81 757.35,241.81 757.70,241.81 758.05,241.81 758.40,241.81 758.75,241.74 759.10,241.68 759.45,241.39 759.80,241.08 760.15,240.83 760.50,240.40 760.85,240.40 761.20,240.34 761.55,240.28 761.90,240.09 762.25,239.73 762.60,239.73 762.95,239.73 763.30,239.73 763.65,239.73 764.00,239.73 764.35,239.73 764.70,239.73 765.05,239.69 765.40,239.69 765.75,239.69 766.10,239.69 766.45,239.69 766.80,239.44 767.15,239.19 767.50,239.01 767.85,238.82 768.20,238.67 768.55,238.61 768.90,238.61 769.25,238.61 769.60,238.61 769.95,238.61 770.30,238.61 770.65,238.61 771.00,238.61 771.35,238.61 771.70,238.61 772.05,238.67 772.40,238.67 772.75,238.67 773.10,238.67 773.45,238.67 773.80,238.67 774.15,238.67 774.50,238.67 774.85,238.67 775.20,238.67 775.55,238.67 775.90,238.61 776.25,238.55 776.60,238.36 776.95,238.08 777.30,237.71 777.65,237.28 778.00,237.03 778.35,236.76 778.70,236.55 779.05,236.55 779.40,236.55 779.75,236.55 780.10,236.55 780.45,236.55 780.80,236.49 781.15,236.17 781.50,236.11 781.85,235.98 782.20,235.98 782.55,235.80 782.90,235.80 783.25,235.74 783.60,235.74 783.95,235.74 784.30,235.68 784.65,235.68 785.00,235.68"/>
<line x1="813" y1="102" x2="839" y2="102" stroke="#059669" stroke-width="3"/>
<text x="847" y="106" font-family="Arial" font-size="13" fill="#111827">trending</text>
<text x="435.0" y="518" text-anchor="middle" font-family="Arial" font-size="14" fill="#111827">Event index</text>
<text x="22" y="256.0" text-anchor="middle" transform="rotate(-90 22 256.0)" font-family="Arial" font-size="14" fill="#111827">Inventory</text>
</svg>
