<svg xmlns="http://www.w3.org/2000/svg" width="940" height="540" viewBox="0 0 940 540">
<rect width="100%" height="100%" fill="#ffffff"/>
<text x="470.0" y="26" text-anchor="middle" font-family="Arial" font-size="18" fill="#111827">Calibrated Avellaneda Stoikov Cumulative PnL After Fees By Regime</text>
<line x1="85" y1="470" x2="785" y2="470" stroke="#111827" stroke-width="1"/>
<line x1="85" y1="42" x2="85" y2="470" stroke="#111827" stroke-width="1"/>
<line x1="85.00" y1="42" x2="85.00" y2="470" stroke="#e5e7eb" stroke-width="1"/>
<text x="85.00" y="494" text-anchor="middle" font-family="Arial" font-size="12" fill="#374151">0</text>
<line x1="260.00" y1="42" x2="260.00" y2="470" stroke="#e5e7eb" stroke-width="1"/>
<text x="260.00" y="494" text-anchor="middle" font-family="Arial" font-size="12" fill="#374151">50000</text>
<line x1="435.00" y1="42" x2="435.00" y2="470" stroke="#e5e7eb" stroke-width="1"/>
<text x="435.00" y="494" text-anchor="middle" font-family="Arial" font-size="12" fill="#374151">100000</text>
<line x1="610.00" y1="42" x2="610.00" y2="470" stroke="#e5e7eb" stroke-width="1"/>
<text x="610.00" y="494" text-anchor="middle" font-family="Arial" font-size="12" fill="#374151">149999</text>
<line x1="785.00" y1="42" x2="785.00" y2="470" stroke="#e5e7eb" stroke-width="1"/>
<text x="785.00" y="494" text-anchor="middle" font-family="Arial" font-size="12" fill="#374151">199999</text>
<line x1="85" y1="470.00" x2="785" y2="470.00" stroke="#e5e7eb" stroke-width="1"/>
<text x="73" y="474.00" text-anchor="end" font-family="Arial" font-size="12" fill="#374151">-1292299</text>
<line x1="85" y1="363.00" x2="785" y2="363.00" stroke="#e5e7eb" stroke-width="1"/>
<text x="73" y="367.00" text-anchor="end" font-family="Arial" font-size="12" fill="#374151">2436546</text>
<line x1="85" y1="256.00" x2="785" y2="256.00" stroke="#e5e7eb" stroke-width="1"/>
<text x="73" y="260.00" text-anchor="end" font-family="Arial" font-size="12" fill="#374151">6165392</text>
<line x1="85" y1="149.00" x2="785" y2="149.00" stroke="#e5e7eb" stroke-width="1"/>
<text x="73" y="153.00" text-anchor="end" font-family="Arial" font-size="12" fill="#374151">9894237</text>
<line x1="85" y1="42.00" x2="785" y2="42.00" stroke="#e5e7eb" stroke-width="1"/>
<text x="73" y="46.00" text-anchor="end" font-family="Arial" font-size="12" fill="#374151">13623082</text>
<polyline fill="none" stroke="#2563eb" stroke-width="2" points="85.00,432.92 85.35,432.81 85.70,432.73 86.05,432.72 86.40,432.69 86.75,432.68 87.10,432.66 87.45,432.64 87.80,432.57 88.15,432.50 88.50,432.45 88.85,432.47 89.20,432.40 89.55,432.38 89.90,432.38 90.25,432.42 90.60,432.38 90.95,432.33 91.30,432.28 91.65,432.22 92.00,432.21 92.35,432.20 92.70,432.19 93.05,432.14 93.40,432.12 93.75,432.10 94.10,432.08 94.45,432.11 94.80,432.09 95.15,432.03 95.50,432.00 95.85,431.99 96.20,431.94 96.55,431.94 96.90,431.91 97.25,431.81 97.60,431.79 97.95,431.80 98.30,431.80 98.65,431.80 99.00,431.80 99.35,431.77 99.70,431.77 100.05,431.73 100.40,431.74 100.75,431.68 101.10,431.69 101.45,431.63 101.80,431.64 102.15,431.61 102.50,431.62 102.85,431.62 103.20,431.59 103.55,431.58 103.90,431.57 104.25,431.59 104.60,431.55 104.95,431.53 105.30,431.44 105.65,431.38 106.00,431.37 106.35,431.34 106.70,431.24 107.05,431.24 107.40,431.15 107.75,431.15 108.10,431.16 108.45,431.04 108.80,430.94 109.15,430.90 109.50,430.84 109.85,430.74 110.20,430.83 110.55,430.79 110.90,430.81 111.25,430.71 111.60,430.77 111.95,430.70 112.30,430.76 112.65,430.72 113.00,430.76 113.35,430.72 113.70,430.77 114.05,430.71 114.40,430.74 114.75,430.72 115.10,430.65 115.45,430.66 115.80,430.62 116.15,430.56 116.50,430.57 116.85,430.53 117.20,430.59 117.55,430.57 117.90,430.48 118.25,430.32 118.60,430.26 118.95,430.00 119.30,430.04 119.65,430.01 120.00,430.04 120.35,429.92 120.70,429.90 121.05,429.93 121.40,430.22 121.75,430.19 122.10,430.24 122.45,430.14 122.80,430.20 123.15,430.27 123.50,430.14 123.85,430.07 124.20,429.92 124.55,430.02 124.90,430.02 125.25,430.05 125.60,429.98 125.95,430.04 126.30,430.21 126.65,430.31 127.00,430.27 127.35,430.29 127.70,430.26 128.05,430.51 128.40,430.41 128.75,430.44 129.10,430.43 129.45,430.37 129.80,430.35 130.15,430.33 130.50,430.24 130.85,430.19 131.20,430.14 131.55,430.13 131.90,430.19 132.25,430.44 132.60,430.32 132.95,430.31 133.30,430.12 133.65,430.22 134.00,430.24 134.35,430.32 134.70,430.38 135.05,430.46 135.40,430.32 135.75,430.29 136.10,430.38 136.45,430.44 136.80,430.33 137.15,430.24 137.50,430.22 137.85,430.31 138.20,430.24 138.55,430.12 138.90,430.13 139.25,430.07 139.60,429.84 139.95,429.67 140.30,429.54 140.65,429.37 141.00,429.52 141.35,429.58 141.70,429.59 142.05,429.30 142.40,429.23 142.75,429.28 143.10,429.10 143.45,429.28 143.80,429.27 144.15,429.37 144.50,429.35 144.85,429.27 145.20,428.98 145.55,428.85 145.90,428.66 146.25,428.57 146.60,428.65 146.95,428.64 147.30,428.56 147.65,428.76 148.00,428.77 148.35,428.75 148.70,429.06 149.05,429.06 149.40,429.04 149.75,428.89 150.10,429.21 150.45,429.07 150.80,428.92 151.15,428.66 151.50,428.57 151.85,428.31 152.20,427.93 152.55,428.08 152.90,428.11 153.25,428.24 153.60,428.25 153.95,428.40 154.30,428.17 154.65,428.08 155.00,428.15 155.35,428.20 155.70,428.37 156.05,428.42 156.40,428.70 156.75,428.46 157.10,428.40 157.45,428.36 157.80,428.48 158.15,428.57 158.50,428.39 158.85,428.50 159.20,428.09 159.55,428.16 159.90,428.06 160.25,428.05 160.60,428.28 160.95,428.20 161.30,428.09 161.65,427.97 162.00,428.04 162.35,428.25 162.70,428.20 163.05,428.26 163.40,428.08 163.75,428.04 164.10,427.72 164.45,427.57 164.80,427.80 165.15,427.89 165.50,427.74 165.85,427.86 166.20,427.85 166.55,427.68 166.90,427.52 167.25,427.39 167.60,427.50 167.95,427.94 168.30,427.89 168.65,428.08 169.00,428.13 169.35,428.37 169.70,428.17 170.05,428.32 170.40,428.29 170.75,427.88 171.10,427.57 171.45,427.75 171.80,427.59 172.15,427.43 172.50,427.70 172.85,427.98 173.20,428.27 173.55,428.20 173.90,427.96 174.25,427.69 174.60,427.54 174.95,427.76 175.30,427.80 175.65,427.84 176.00,427.90 176.35,427.97 176.70,428.11 177.05,428.04 177.40,427.82 177.75,427.72 178.10,427.58 178.45,427.63 178.80,427.62 179.15,427.07 179.50,427.52 179.85,427.45 180.20,427.39 180.55,427.35 180.90,427.51 181.25,427.86 181.60,427.50 181.95,427.87 182.30,427.70 182.65,427.39 183.00,427.24 183.35,426.93 183.70,426.61 184.05,426.15 184.40,425.93 184.75,426.11 185.10,426.60 185.45,426.41 185.80,426.16 186.15,426.18 186.50,426.28 186.85,426.25 187.20,426.74 187.55,426.57 187.90,426.34 188.25,426.38 188.60,426.16 188.95,425.82 189.30,425.64 189.65,425.50 190.00,425.31 190.35,425.59 190.70,425.73 191.05,425.96 191.40,426.01 191.75,425.78 192.10,426.02 192.45,425.54 192.80,425.59 193.15,425.21 193.50,424.57 193.85,424.81 194.20,424.94 194.55,424.65 194.90,424.16 195.25,423.47 195.60,423.40 195.95,423.79 196.30,423.63 196.65,424.15 197.00,424.81 197.35,424.34 197.70,424.69 198.05,424.06 198.40,424.67 198.75,424.46 199.10,424.30 199.45,424.37 199.80,424.18 200.15,423.37 200.50,422.61 200.85,422.02 201.20,421.28 201.55,421.01 201.90,421.41 202.25,421.79 202.60,421.29 202.95,421.14 203.30,421.74 203.65,421.34 204.00,421.83 204.35,422.47 204.70,422.78 205.05,422.20 205.40,422.00 205.75,421.61 206.10,422.00 206.45,422.06 206.80,421.66 207.15,421.61 207.50,421.63 207.85,421.88 208.20,422.10 208.55,422.62 208.90,423.03 209.25,423.33 209.60,422.40 209.95,421.77 210.30,421.63 210.65,421.88 211.00,421.72 211.35,422.27 211.70,423.37 212.05,423.47 212.40,424.18 212.75,424.13 213.10,424.54 213.45,425.14 213.80,424.59 214.15,424.34 214.50,425.10 214.85,425.64 215.20,426.67 215.55,426.88 215.90,427.12 216.25,427.19 216.60,427.44 216.95,426.82 217.30,426.97 217.65,427.66 218.00,427.62 218.35,427.26 218.70,427.39 219.05,427.68 219.40,427.31 219.75,427.78 220.10,427.41 220.45,428.33 220.80,428.07 221.15,427.67 221.50,427.90 221.85,428.15 222.20,427.60 222.55,428.37 222.90,427.98 223.25,427.92 223.60,427.55 223.95,427.07 224.30,427.45 224.65,426.91 225.00,427.04 225.35,427.37 225.70,427.41 226.05,427.26 226.40,426.76 226.75,427.24 227.10,427.01 227.45,427.09 227.80,426.89 228.15,427.29 228.50,426.71 228.85,426.53 229.20,427.11 229.55,427.35 229.90,427.47 230.25,427.34 230.60,427.01 230.95,426.88 231.30,426.45 231.65,426.37 232.00,425.25 232.35,425.65 232.70,425.63 233.05,425.79 233.40,424.66 233.75,424.33 234.10,423.73 234.45,423.55 234.80,423.36 235.15,423.44 235.50,424.40 235.85,424.28 236.20,423.79 236.55,423.91 236.90,424.87 237.25,424.32 237.60,423.76 237.95,424.20 238.30,424.70 238.65,424.25 239.00,423.82 239.35,424.38 239.70,424.90 240.05,424.39 240.40,423.92 240.75,424.38 241.10,423.04 241.45,422.64 241.80,423.08 242.15,422.25 242.50,422.69 242.85,423.53 243.20,423.27 243.55,422.38 243.90,421.76 244.25,421.70 244.60,422.53 244.95,422.72 245.30,421.95 245.65,421.89 246.00,422.27 246.35,422.23 246.70,421.89 247.05,422.42 247.40,422.45 247.75,422.17 248.10,422.76 248.45,422.08 248.80,421.45 249.15,422.07 249.50,422.16 249.85,421.67 250.20,422.14 250.55,422.88 250.90,422.98 251.25,422.01 251.60,421.72 251.95,422.34 252.30,422.10 252.65,422.59 253.00,422.88 253.35,423.43 253.70,424.38 254.05,424.70 254.40,424.19 254.75,423.74 255.10,424.52 255.45,424.59 255.80,424.63 256.15,424.83 256.50,425.03 256.85,424.40 257.20,422.66 257.55,422.89 257.90,422.17 258.25,423.05 258.60,422.18 258.95,421.25 259.30,421.17 259.65,420.51 260.00,420.09 260.35,420.27 260.70,420.42 261.05,420.00 261.40,420.98 261.75,420.56 262.10,419.11 262.45,418.20 262.80,418.46 263.15,418.42 263.50,417.14 263.85,416.27 264.20,415.76 264.55,415.76 264.90,415.56 265.25,416.44 265.60,416.90 265.95,415.97 266.30,416.08 266.65,415.14 267.00,414.41 267.35,414.37 267.70,413.95 268.05,413.99 268.40,415.12 268.75,415.37 269.10,415.37 269.45,415.84 269.80,415.68 270.15,415.01 270.50,413.68 270.85,413.37 271.20,413.28 271.55,412.67 271.90,411.26 272.25,411.39 272.60,411.38 272.95,412.54 273.30,411.27 273.65,411.11 274.00,410.79 274.35,411.36 274.70,413.55 275.05,412.83 275.40,414.56 275.75,413.83 276.10,412.67 276.45,411.28 276.80,412.21 277.15,413.74 277.50,413.09 277.85,413.69 278.20,413.72 278.55,415.84 278.90,415.89 279.25,414.65 279.60,413.43 279.95,413.21 280.30,413.76 280.65,412.89 281.00,412.61 281.35,411.74 281.70,411.72 282.05,412.05 282.40,413.84 282.75,416.04 283.10,416.81 283.45,415.82 283.80,415.74 284.15,414.87 284.50,415.39 284.85,414.30 285.20,414.60 285.55,414.90 285.90,415.19 286.25,414.82 286.60,414.10 286.95,414.50 287.30,415.62 287.65,415.07 288.00,417.71 288.35,417.52 288.70,417.74 289.05,418.06 289.40,417.57 289.75,417.68 290.10,417.20 290.45,415.43 290.80,416.03 291.15,417.19 291.50,417.27 291.85,417.45 292.20,417.35 292.55,416.52 292.90,416.53 293.25,418.17 293.60,418.12 293.95,418.91 294.30,420.72 294.65,420.14 295.00,419.01 295.35,419.55 295.70,418.85 296.05,419.34 296.40,420.28 296.75,421.13 297.10,422.59 297.45,423.36 297.80,424.06 298.15,422.75 298.50,421.66 298.85,422.39 299.20,422.06 299.55,421.28 299.90,421.28 300.25,422.10 300.60,423.38 300.95,424.29 301.30,424.82 301.65,423.82 302.00,422.62 302.35,421.89 302.70,420.96 303.05,421.69 303.40,422.92 303.75,422.20 304.10,421.96 304.45,419.74 304.80,420.50 305.15,420.76 305.50,420.22 305.85,420.94 306.20,422.33 306.55,423.52 306.90,422.35 307.25,422.22 307.60,422.99 307.95,424.12 308.30,423.34 308.65,422.37 309.00,422.42 309.35,421.64 309.70,419.23 310.05,420.97 310.40,421.52 310.75,421.61 311.10,422.16 311.45,421.37 311.80,421.65 312.15,421.07 312.50,421.97 312.85,421.58 313.20,421.22 313.55,420.90 313.90,419.82 314.25,420.70 314.60,420.77 314.95,422.00 315.30,422.35 315.65,424.04 316.00,424.24 316.35,424.56 316.70,424.15 317.05,424.93 317.40,425.86 317.75,427.01 318.10,426.63 318.45,427.14 318.80,426.24 319.15,424.79 319.50,423.53 319.85,423.77 320.20,424.72 320.55,425.81 320.90,427.49 321.25,427.19 321.60,426.92 321.95,427.07 322.30,427.17 322.65,426.84 323.00,427.12 323.35,425.21 323.70,425.35 324.05,425.85 324.40,426.63 324.75,426.88 325.10,426.64 325.45,426.86 325.80,426.90 326.15,426.34 326.50,425.68 326.85,425.98 327.20,425.18 327.55,425.95 327.90,426.77 328.25,427.15 328.60,427.56 328.95,427.50 329.30,428.14 329.65,426.29 330.00,426.75 330.35,425.61 330.70,425.15 331.05,424.60 331.40,424.43 331.75,423.06 332.10,422.31 332.45,422.21 332.80,422.59 333.15,422.59 333.50,422.39 333.85,420.85 334.20,420.54 334.55,419.99 334.90,420.05 335.25,418.91 335.60,418.92 335.95,418.60 336.30,417.62 336.65,416.06 337.00,416.28 337.35,415.55 337.70,415.61 338.05,416.20 338.40,416.49 338.75,416.61 339.10,417.31 339.45,417.57 339.80,417.30 340.15,417.55 340.50,418.25 340.85,418.40 341.20,419.44 341.55,418.01 341.90,418.32 342.25,417.68 342.60,418.82 342.95,417.68 343.30,417.53 343.65,417.03 344.00,416.70 344.35,416.37 344.70,417.24 345.05,417.23 345.40,417.90 345.75,417.43 346.10,417.27 346.45,416.28 346.80,415.39 347.15,414.53 347.50,413.88 347.85,412.79 348.20,413.23 348.55,412.76 348.90,410.79 349.25,410.42 349.60,409.54 349.95,410.33 350.30,408.48 350.65,408.69 351.00,410.10 351.35,409.35 351.70,408.63 352.05,407.90 352.40,408.37 352.75,408.13 353.10,407.74 353.45,406.70 353.80,406.73 354.15,405.63 354.50,404.50 354.85,405.72 355.20,406.66 355.55,406.00 355.90,403.93 356.25,402.80 356.60,401.03 356.95,402.29 357.30,402.05 357.65,403.65 358.00,403.46 358.35,403.46 358.70,405.06 359.05,404.13 359.40,404.66 359.75,405.79 360.10,404.90 360.45,406.84 360.80,405.97 361.15,405.63 361.50,406.17 361.85,404.01 362.20,404.63 362.55,404.96 362.90,406.56 363.25,407.62 363.60,407.30 363.95,407.50 364.30,407.95 364.65,406.06 365.00,405.81 365.35,402.77 365.70,403.65 366.05,401.76 366.40,401.66 366.75,402.03 367.10,401.73 367.45,402.04 367.80,403.38 368.15,406.32 368.50,407.22 368.85,408.15 369.20,408.35 369.55,409.11 369.90,408.91 370.25,406.98 370.60,405.20 370.95,403.82 371.30,402.45 371.65,400.54 372.00,399.40 372.35,400.60 372.70,399.33 373.05,397.66 373.40,398.62 373.75,397.34 374.10,396.50 374.45,394.56 374.80,394.49 375.15,396.46 375.50,395.95 375.85,395.20 376.20,393.64 376.55,393.34 376.90,392.67 377.25,393.73 377.60,392.72 377.95,391.69 378.30,391.31 378.65,389.54 379.00,392.03 379.35,393.35 379.70,392.75 380.05,391.66 380.40,390.02 380.75,388.11 381.10,385.28 381.45,384.43 381.80,386.06 382.15,383.92 382.50,385.16 382.85,384.32 383.20,384.95 383.55,383.67 383.90,382.71 384.25,379.15 384.60,379.47 384.95,379.18 385.30,378.34 385.65,376.11 386.00,374.92 386.35,376.24 386.70,377.08 387.05,375.91 387.40,376.52 387.75,377.20 388.10,376.16 388.45,376.57 388.80,378.68 389.15,378.35 389.50,378.78 389.85,379.36 390.20,380.05 390.55,382.59 390.90,380.51 391.25,379.77 391.60,379.44 391.95,380.95 392.30,379.52 392.65,376.79 393.00,373.77 393.35,372.61 393.70,372.79 394.05,374.42 394.40,374.80 394.75,375.86 395.10,378.18 395.45,373.50 395.80,373.17 396.15,369.90 396.50,373.96 396.85,373.18 397.20,371.89 397.55,372.13 397.90,373.23 398.25,374.94 398.60,377.36 398.95,377.28 399.30,376.29 399.65,377.13 400.00,378.06 400.35,377.67 400.70,376.41 401.05,374.36 401.40,374.34 401.75,373.23 402.10,370.23 402.45,367.84 402.80,369.15 403.15,366.25 403.50,363.98 403.85,364.16 404.20,364.34 404.55,362.15 404.90,358.29 405.25,359.23 405.60,357.31 405.95,355.20 406.30,355.80 406.65,356.91 407.00,354.36 407.35,354.74 407.70,352.94 408.05,355.78 408.40,358.87 408.75,357.28 409.10,355.69 409.45,352.25 409.80,352.14 410.15,353.05 410.50,358.41 410.85,357.80 411.20,353.93 411.55,355.96 411.90,358.04 412.25,357.12 412.60,358.13 412.95,359.13 413.30,360.25 413.65,359.15 414.00,358.98 414.35,357.21 414.70,359.23 415.05,355.90 415.40,356.38 415.75,356.80 416.10,352.88 416.45,346.42 416.80,343.76 417.15,344.15 417.50,341.72 417.85,339.67 418.20,341.50 418.55,345.22 418.90,343.64 419.25,340.70 419.60,341.07 419.95,338.25 420.30,335.13 420.65,331.56 421.00,332.62 421.35,331.17 421.70,330.76 422.05,325.78 422.40,324.33 422.75,325.67 423.10,324.45 423.45,321.48 423.80,319.62 424.15,320.43 424.50,319.60 424.85,319.80 425.20,317.79 425.55,316.56 425.90,319.12 426.25,317.24 426.60,314.21 426.95,315.22 427.30,314.64 427.65,310.93 428.00,308.79 428.35,310.48 428.70,311.23 429.05,313.64 429.40,316.00 429.75,309.11 430.10,311.65 430.45,313.19 430.80,316.41 431.15,322.13 431.50,319.35 431.85,321.80 432.20,322.20 432.55,321.07 432.90,323.74 433.25,328.59 433.60,327.02 433.95,327.78 434.30,328.10 434.65,329.31 435.00,332.98 435.35,332.32 435.70,332.44 436.05,334.49 436.40,336.74 436.75,336.94 437.10,333.95 437.45,336.27 437.80,333.70 438.15,330.07 438.50,327.69 438.85,329.66 439.20,330.51 439.55,333.05 439.90,330.29 440.25,329.53 440.60,327.74 440.95,327.37 441.30,326.46 441.65,329.30 442.00,332.20 442.35,331.15 442.70,332.03 443.05,325.55 443.40,326.65 443.75,324.33 444.10,324.88 444.45,322.89 444.80,321.55 445.15,318.12 445.50,320.71 445.85,319.67 446.20,315.35 446.55,319.58 446.90,322.77 447.25,316.00 447.60,312.17 447.95,308.58 448.30,304.97 448.65,301.74 449.00,305.95 449.35,306.19 449.70,310.45 450.05,312.82 450.40,308.76 450.75,311.56 451.10,311.52 451.45,315.07 451.80,308.50 452.15,306.52 452.50,309.68 452.85,310.78 453.20,311.45 453.55,306.81 453.90,304.97 454.25,304.96 454.60,307.96 454.95,310.66 455.30,312.11 455.65,314.49 456.00,314.36 456.35,315.09 456.70,312.58 457.05,310.55 457.40,309.67 457.75,311.96 458.10,314.10 458.45,316.73 458.80,323.57 459.15,324.44 459.50,328.12 459.85,331.29 460.20,325.97 460.55,333.27 460.90,337.61 461.25,336.73 461.60,335.93 461.95,338.39 462.30,338.66 462.65,341.83 463.00,336.11 463.35,340.52 463.70,342.75 464.05,345.15 464.40,340.36 464.75,336.98 465.10,333.04 465.45,333.10 465.80,328.60 466.15,329.95 466.50,327.86 466.85,329.71 467.20,326.19 467.55,326.01 467.90,328.24 468.25,328.99 468.60,330.57 468.95,332.82 469.30,332.42 469.65,333.43 470.00,329.79 470.35,333.04 470.70,333.81 471.05,336.43 471.40,337.48 471.75,337.65 472.10,336.12 472.45,332.78 472.80,325.87 473.15,323.77 473.50,328.62 473.85,326.02 474.20,326.88 474.55,327.14 474.90,333.44 475.25,332.53 475.60,338.92 475.95,341.77 476.30,337.37 476.65,334.59 477.00,334.48 477.35,336.71 477.70,335.98 478.05,336.54 478.40,336.49 478.75,339.51 479.10,337.13 479.45,333.56 479.80,326.98 480.15,330.82 480.50,327.56 480.85,324.27 481.20,324.31 481.55,323.74 481.90,323.06 482.25,318.82 482.60,311.66 482.95,310.58 483.30,310.19 483.65,313.18 484.00,310.48 484.35,310.22 484.70,310.42 485.05,312.49 485.40,313.45 485.75,315.27 486.10,313.08 486.45,312.72 486.80,306.90 487.15,306.24 487.50,304.76 487.85,303.02 488.20,305.06 488.55,307.65 488.90,303.66 489.25,305.89 489.60,301.61 489.95,299.47 490.30,300.12 490.65,303.95 491.00,302.00 491.35,301.79 491.70,300.50 492.05,298.03 492.40,299.17 492.75,294.43 493.10,296.12 493.45,297.86 493.80,296.05 494.15,297.04 494.50,295.64 494.85,293.62 495.20,291.75 495.55,294.04 495.90,298.11 496.25,300.74 496.60,296.93 496.95,293.91 497.30,291.71 497.65,289.44 498.00,288.05 498.35,283.44 498.70,282.79 499.05,281.26 499.40,278.90 499.75,281.57 500.10,283.42 500.45,283.89 500.80,287.43 501.15,287.35 501.50,293.27 501.85,291.73 502.20,298.81 502.55,294.78 502.90,296.83 503.25,292.67 503.60,298.82 503.95,298.00 504.30,292.28 504.65,290.47 505.00,291.41 505.35,293.09 505.70,289.12 506.05,289.56 506.40,289.40 506.75,291.13 507.10,289.56 507.45,285.06 507.80,285.36 508.15,284.65 508.50,283.79 508.85,291.57 509.20,296.71 509.55,294.92 509.90,291.79 510.25,293.13 510.60,294.66 510.95,294.76 511.30,295.13 511.65,289.24 512.00,283.89 512.35,288.00 512.70,284.68 513.05,287.71 513.40,288.91 513.75,281.46 514.10,278.90 514.45,279.77 514.80,274.32 515.15,273.53 515.50,275.20 515.85,270.66 516.20,274.14 516.55,274.29 516.90,271.10 517.25,265.52 517.60,263.08 517.95,259.81 518.30,264.18 518.65,265.77 519.00,266.75 519.35,265.34 519.70,264.97 520.05,266.23 520.40,266.74 520.75,268.43 521.10,266.04 521.45,265.51 521.80,263.87 522.15,264.24 522.50,266.18 522.85,264.30 523.20,264.99 523.55,267.61 523.90,273.84 524.25,268.37 524.60,265.87 524.95,265.32 525.30,257.01 525.65,257.79 526.00,251.75 526.35,257.76 526.70,257.96 527.05,256.16 527.40,254.85 527.75,249.38 528.10,250.89 528.45,248.96 528.80,244.79 529.15,245.93 529.50,243.63 529.85,236.79 530.20,236.79 530.55,234.04 530.90,234.97 531.25,239.05 531.60,241.25 531.95,239.68 532.30,233.21 532.65,231.87 533.00,228.14 533.35,229.16 533.70,229.35 534.05,229.51 534.40,236.29 534.75,233.82 535.10,239.00 535.45,240.97 535.80,239.54 536.15,240.42 536.50,240.51 536.85,234.74 537.20,237.70 537.55,232.83 537.90,234.11 538.25,233.87 538.60,232.70 538.95,231.39 539.30,234.31 539.65,238.99 540.00,233.80 540.35,236.41 540.70,232.40 541.05,232.02 541.40,225.19 541.75,230.38 542.10,233.86 542.45,231.41 542.80,223.84 543.15,221.04 543.50,221.43 543.85,219.68 544.20,210.50 544.55,210.98 544.90,210.43 545.25,215.68 545.60,206.93 545.95,201.43 546.30,197.88 546.65,201.66 547.00,202.17 547.35,197.50 547.70,203.92 548.05,206.37 548.40,208.94 548.75,204.15 549.10,201.79 549.45,197.20 549.80,204.41 550.15,199.49 550.50,206.49 550.85,207.96 551.20,203.28 551.55,209.80 551.90,211.65 552.25,214.63 552.60,214.33 552.95,209.84 553.30,210.05 553.65,208.83 554.00,207.01 554.35,205.50 554.70,206.71 555.05,209.01 555.40,211.26 555.75,212.99 556.10,205.56 556.45,210.81 556.80,213.75 557.15,214.93 557.50,223.88 557.85,223.93 558.20,222.24 558.55,229.09 558.90,222.10 559.25,221.47 559.60,222.46 559.95,218.42 560.30,213.60 560.65,212.19 561.00,209.78 561.35,209.74 561.70,207.53 562.05,202.38 562.40,202.88 562.75,199.99 563.10,201.71 563.45,199.04 563.80,204.29 564.15,202.06 564.50,193.59 564.85,184.51 565.20,186.27 565.55,185.10 565.90,180.71 566.25,182.88 566.60,174.13 566.95,176.07 567.30,172.26 567.65,171.39 568.00,167.38 568.35,162.55 568.70,153.96 569.05,151.68 569.40,152.59 569.75,147.65 570.10,145.00 570.45,141.93 570.80,145.54 571.15,148.82 571.50,145.80 571.85,144.90 572.20,144.08 572.55,146.60 572.90,143.24 573.25,139.64 573.60,132.94 573.95,129.71 574.30,121.66 574.65,120.39 575.00,128.37 575.35,126.16 575.70,117.37 576.05,118.46 576.40,113.85 576.75,112.06 577.10,109.01 577.45,109.80 577.80,107.42 578.15,105.78 578.50,96.87 578.85,105.71 579.20,98.60 579.55,104.84 579.90,97.34 580.25,98.07 580.60,95.54 580.95,97.46 581.30,103.41 581.65,102.07 582.00,101.55 582.35,102.89 582.70,98.01 583.05,100.79 583.40,104.87 583.75,109.71 584.10,110.35 584.45,102.49 584.80,112.96 585.15,108.73 585.50,107.63 585.85,105.76 586.20,105.22 586.55,100.04 586.90,99.64 587.25,105.55 587.60,105.59 587.95,112.37 588.30,117.95 588.65,112.85 589.00,111.04 589.35,99.04 589.70,87.94 590.05,88.59 590.40,90.15 590.75,88.39 591.10,98.59 591.45,102.16 591.80,105.38 592.15,104.92 592.50,106.42 592.85,108.03 593.20,110.59 593.55,114.85 593.90,113.74 594.25,108.71 594.60,106.64 594.95,103.35 595.30,109.81 595.65,117.55 596.00,115.15 596.35,109.28 596.70,102.84 597.05,106.70 597.40,104.94 597.75,107.74 598.10,110.18 598.45,111.70 598.80,109.19 599.15,114.38 599.50,121.00 599.85,119.04 600.20,123.43 600.55,122.83 600.90,124.63 601.25,116.15 601.60,113.81 601.95,105.26 602.30,104.56 602.65,105.41 603.00,95.19 603.35,88.14 603.70,82.10 604.05,77.48 604.40,78.48 604.75,84.00 605.10,83.34 605.45,86.57 605.80,82.10 606.15,77.97 606.50,80.01 606.85,92.09 607.20,94.47 607.55,87.14 607.90,96.07 608.25,91.97 608.60,101.73 608.95,100.08 609.30,102.74 609.65,105.81 610.00,99.35 610.35,101.97 610.70,101.38 611.05,105.48 611.40,101.60 611.75,91.67 612.10,86.46 612.45,92.06 612.80,98.15 613.15,95.60 613.50,101.98 613.85,91.53 614.20,94.37 614.55,92.01 614.90,93.36 615.25,87.28 615.60,94.00 615.95,95.30 616.30,94.36 616.65,95.18 617.00,98.91 617.35,113.65 617.70,116.85 618.05,115.84 618.40,116.68 618.75,118.34 619.10,124.72 619.45,124.22 619.80,132.90 620.15,135.27 620.50,144.23 620.85,143.46 621.20,139.20 621.55,136.18 621.90,128.87 622.25,125.63 622.60,128.37 622.95,129.72 623.30,132.28 623.65,140.33 624.00,144.73 624.35,135.07 624.70,137.25 625.05,142.82 625.40,139.38 625.75,148.36 626.10,139.15 626.45,145.24 626.80,139.69 627.15,138.76 627.50,133.48 627.85,130.81 628.20,133.45 628.55,135.66 628.90,141.89 629.25,140.03 629.60,134.59 629.95,128.81 630.30,134.34 630.65,134.16 631.00,136.37 631.35,134.20 631.70,139.80 632.05,135.81 632.40,128.98 632.75,137.71 633.10,141.44 633.45,136.86 633.80,130.64 634.15,140.05 634.50,143.43 634.85,148.64 635.20,145.27 635.55,137.51 635.90,148.26 636.25,142.18 636.60,137.70 636.95,140.28 637.30,135.96 637.65,127.19 638.00,129.36 638.35,126.43 638.70,124.88 639.05,129.52 639.40,131.35 639.75,121.12 640.10,119.93 640.45,121.26 640.80,127.15 641.15,128.40 641.50,131.07 641.85,135.19 642.20,130.87 642.55,133.73 642.90,130.39 643.25,121.60 643.60,127.43 643.95,117.06 644.30,105.64 644.65,109.44 645.00,110.37 645.35,104.37 645.70,111.00 646.05,106.92 646.40,109.33 646.75,104.34 647.10,117.19 647.45,120.99 647.80,121.31 648.15,117.50 648.50,119.01 648.85,117.40 649.20,113.19 649.55,112.58 649.90,105.46 650.25,110.94 650.60,114.17 650.95,96.87 651.30,95.94 651.65,103.85 652.00,107.75 652.35,97.08 652.70,101.15 653.05,98.46 653.40,92.62 653.75,98.01 654.10,89.05 654.45,82.99 654.80,88.27 655.15,92.90 655.50,82.07 655.85,88.60 656.20,92.81 656.55,91.29 656.90,93.04 657.25,92.34 657.60,91.97 657.95,81.33 658.30,91.40 658.65,90.11 659.00,94.80 659.35,95.52 659.70,94.41 660.05,95.90 660.40,108.48 660.75,106.90 661.10,107.19 661.45,118.81 661.80,125.71 662.15,120.92 662.50,125.17 662.85,121.40 663.20,122.04 663.55,126.54 663.90,136.79 664.25,140.56 664.60,143.22 664.95,138.20 665.30,139.75 665.65,141.76 666.00,152.06 666.35,152.67 666.70,159.55 667.05,150.81 667.40,158.37 667.75,157.97 668.10,156.95 668.45,153.07 668.80,155.46 669.15,150.04 669.50,154.68 669.85,154.27 670.20,152.36 670.55,157.14 670.90,160.50 671.25,161.73 671.60,163.02 671.95,169.42 672.30,167.37 672.65,172.33 673.00,174.50 673.35,177.97 673.70,177.27 674.05,171.72 674.40,177.23 674.75,178.17 675.10,182.04 675.45,166.81 675.80,173.53 676.15,165.12 676.50,173.62 676.85,179.09 677.20,177.19 677.55,172.92 677.90,173.97 678.25,172.87 678.60,171.16 678.95,173.97 679.30,172.66 679.65,169.36 680.00,159.88 680.35,161.51 680.70,164.05 681.05,168.28 681.40,155.39 681.75,156.41 682.10,160.06 682.45,156.81 682.80,151.32 683.15,158.72 683.50,162.65 683.85,156.68 684.20,157.10 684.55,152.87 684.90,146.47 685.25,147.84 685.60,140.31 685.95,135.11 686.30,130.85 686.65,130.64 687.00,128.87 687.35,122.08 687.70,122.58 688.05,120.75 688.40,119.48 688.75,118.32 689.10,120.21 689.45,109.60 689.80,118.97 690.15,107.87 690.50,88.18 690.85,97.54 691.20,98.89 691.55,93.56 691.90,91.57 692.25,92.53 692.60,89.66 692.95,84.56 693.30,80.16 693.65,83.37 694.00,90.50 694.35,90.43 694.70,85.60 695.05,90.78 695.40,90.86 695.75,89.29 696.10,87.34 696.45,93.08 696.80,104.46 697.15,102.55 697.50,97.21 697.85,91.05 698.20,92.42 698.55,84.62 698.90,83.11 699.25,81.46 699.60,88.82 699.95,85.63 700.30,84.05 700.65,87.43 701.00,89.47 701.35,92.39 701.70,88.16 702.05,85.21 702.40,84.74 702.75,82.76 703.10,86.41 703.45,86.72 703.80,89.70 704.15,88.93 704.50,79.81 704.85,81.93 705.20,78.69 705.55,71.52 705.90,72.62 706.25,73.17 706.60,79.82 706.95,86.04 707.30,86.22 707.65,81.91 708.00,88.70 708.35,91.89 708.70,92.38 709.05,91.67 709.40,104.43 709.75,103.14 710.10,105.83 710.45,100.65 710.80,90.72 711.15,98.31 711.50,92.63 711.85,94.31 712.20,97.85 712.55,87.37 712.90,82.39 713.25,79.16 713.60,79.91 713.95,75.71 714.30,77.53 714.65,77.94 715.00,73.24 715.35,77.15 715.70,82.91 716.05,91.30 716.40,101.00 716.75,104.10 717.10,100.14 717.45,94.32 717.80,94.24 718.15,93.85 718.50,90.66 718.85,80.32 719.20,79.77 719.55,85.43 719.90,84.33 720.25,83.85 720.60,85.75 720.95,94.69 721.30,93.17 721.65,101.91 722.00,98.62 722.35,94.51 722.70,104.39 723.05,113.73 723.40,106.24 723.75,103.42 724.10,107.01 724.45,108.39 724.80,115.12 725.15,113.43 725.50,122.38 725.85,119.78 726.20,119.46 726.55,118.95 726.90,118.22 727.25,118.26 727.60,124.12 727.95,119.66 728.30,132.84 728.65,130.10 729.00,132.84 729.35,137.96 729.70,137.09 730.05,142.09 730.40,130.15 730.75,129.06 731.10,127.07 731.45,128.63 731.80,126.10 732.15,121.30 732.50,122.59 732.85,122.60 733.20,115.37 733.55,102.83 733.90,100.90 734.25,106.50 734.60,110.94 734.95,107.17 735.30,109.88 735.65,104.19 736.00,103.87 736.35,107.31 736.70,104.78 737.05,103.12 737.40,101.90 737.75,103.90 738.10,105.83 738.45,100.67 738.80,85.71 739.15,80.07 739.50,79.73 739.85,86.56 740.20,83.70 740.55,88.63 740.90,95.53 741.25,87.70 741.60,99.79 741.95,100.74 742.30,104.93 742.65,109.00 743.00,105.59 743.35,105.63 743.70,106.16 744.05,108.66 744.40,106.38 744.75,115.56 745.10,118.05 745.45,118.96 745.80,121.15 746.15,131.80 746.50,129.81 746.85,142.30 747.20,144.80 747.55,144.50 747.90,156.57 748.25,163.14 748.60,168.50 748.95,171.42 749.30,164.12 749.65,153.63 750.00,155.55 750.35,157.00 750.70,160.09 751.05,158.94 751.40,158.60 751.75,158.78 752.10,156.68 752.45,155.07 752.80,159.76 753.15,164.81 753.50,164.61 753.85,170.52 754.20,172.62 754.55,178.29 754.90,176.47 755.25,180.37 755.60,179.65 755.95,189.07 756.30,186.97 756.65,187.53 757.00,189.52 757.35,184.44 757.70,186.85 758.05,180.20 758.40,179.30 758.75,177.78 759.10,179.42 759.45,190.61 759.80,189.98 760.15,190.18 760.50,188.18 760.85,194.27 761.20,197.35 761.55,193.40 761.90,205.88 762.25,211.30 762.60,220.72 762.95,222.31 763.30,225.12 763.65,225.45 764.00,215.03 764.35,206.34 764.70,201.90 765.05,202.53 765.40,202.09 765.75,197.68 766.10,183.49 766.45,178.87 766.80,175.67 767.15,181.59 767.50,182.16 767.85,179.27 768.20,181.45 768.55,191.87 768.90,187.65 769.25,177.44 769.60,179.41 769.95,179.67 770.30,169.16 770.65,162.31 771.00,163.72 771.35,164.94 771.70,163.70 772.05,179.65 772.40,175.95 772.75,179.39 773.10,174.99 773.45,179.75 773.80,166.56 774.15,167.23 774.50,169.57 774.85,172.78 775.20,172.84 775.55,173.49 775.90,171.76 776.25,181.54 776.60,176.29 776.95,177.47 777.30,174.10 777.65,176.71 778.00,175.34 778.35,168.58 778.70,170.51 779.05,166.09 779.40,171.72 779.75,172.81 780.10,165.27 780.45,164.76 780.80,171.88 781.15,178.47 781.50,175.03 781.85,171.52 782.20,170.30 782.55,176.38 782.90,178.33 783.25,177.78 783.60,172.94 783.95,172.30 784.30,170.91 784.65,165.20 785.00,154.78"/>
<line x1="813" y1="54" x2="839" y2="54" stroke="#2563eb" stroke-width="3"/>
<text x="847" y="58" font-family="Arial" font-size="13" fill="#111827">low volatility</text>
<polyline fill="none" stroke="#dc2626" stroke-width="2" points="85.00,432.92 85.35,432.83 85.70,432.79 86.05,432.79 86.40,432.71 86.75,432.61 87.10,432.43 87.45,432.32 87.80,432.25 88.15,432.22 88.50,432.30 88.85,432.43 89.20,432.51 89.55,432.53 89.90,432.55 90.25,432.48 90.60,432.41 90.95,432.32 91.30,432.28 91.65,432.31 92.00,432.35 92.35,432.26 92.70,432.24 93.05,432.25 93.40,432.36 93.75,432.21 94.10,432.28 94.45,432.31 94.80,432.32 95.15,432.35 95.50,432.31 95.85,432.32 96.20,432.27 96.55,432.23 96.90,432.16 97.25,432.18 97.60,432.09 97.95,431.96 98.30,431.94 98.65,432.01 99.00,432.04 99.35,432.01 99.70,431.85 100.05,431.68 100.40,431.74 100.75,431.94 101.10,432.32 101.45,432.37 101.80,432.45 102.15,432.49 102.50,432.77 102.85,432.76 103.20,432.60 103.55,432.53 103.90,432.48 104.25,432.45 104.60,432.39 104.95,432.37 105.30,432.40 105.65,432.42 106.00,432.45 106.35,432.43 106.70,432.45 107.05,432.46 107.40,432.45 107.75,432.43 108.10,432.41 108.45,432.44 108.80,432.44 109.15,432.44 109.50,432.44 109.85,432.44 110.20,432.43 110.55,432.40 110.90,432.37 111.25,432.35 111.60,432.34 111.95,432.36 112.30,432.35 112.65,432.43 113.00,432.40 113.35,432.36 113.70,432.33 114.05,432.30 114.40,432.27 114.75,432.24 115.10,432.21 115.45,432.23 115.80,432.21 116.15,432.23 116.50,432.25 116.85,432.21 117.20,432.21 117.55,432.16 117.90,432.03 118.25,431.88 118.60,431.80 118.95,431.69 119.30,431.79 119.65,431.80 120.00,431.78 120.35,431.42 120.70,431.69 121.05,431.38 121.40,431.44 121.75,431.72 122.10,431.18 122.45,430.80 122.80,430.52 123.15,430.66 123.50,431.02 123.85,430.49 124.20,430.70 124.55,430.91 124.90,430.92 125.25,430.56 125.60,430.88 125.95,430.67 126.30,430.26 126.65,430.24 127.00,430.38 127.35,430.69 127.70,431.76 128.05,433.00 128.40,433.35 128.75,433.32 129.10,432.82 129.45,432.55 129.80,432.42 130.15,432.54 130.50,432.75 130.85,432.45 131.20,432.68 131.55,432.70 131.90,432.97 132.25,433.62 132.60,433.32 132.95,433.14 133.30,432.91 133.65,432.42 134.00,432.72 134.35,432.87 134.70,432.60 135.05,432.21 135.40,432.14 135.75,432.11 136.10,432.14 136.45,431.89 136.80,432.12 137.15,432.06 137.50,432.04 137.85,432.15 138.20,431.89 138.55,431.91 138.90,431.33 139.25,431.79 139.60,432.07 139.95,432.17 140.30,432.27 140.65,432.13 141.00,431.93 141.35,432.13 141.70,431.46 142.05,431.18 142.40,431.26 142.75,430.55 143.10,430.57 143.45,430.44 143.80,429.99 144.15,430.31 144.50,429.25 144.85,429.07 145.20,428.27 145.55,429.45 145.90,429.10 146.25,429.25 146.60,428.80 146.95,429.34 147.30,429.52 147.65,429.58 148.00,429.71 148.35,429.63 148.70,429.65 149.05,429.63 149.40,431.02 149.75,430.88 150.10,429.96 150.45,430.15 150.80,430.41 151.15,430.04 151.50,429.87 151.85,429.04 152.20,428.82 152.55,429.43 152.90,429.49 153.25,430.17 153.60,430.19 153.95,430.44 154.30,430.43 154.65,430.30 155.00,430.36 155.35,428.46 155.70,430.12 156.05,430.00 156.40,429.74 156.75,430.38 157.10,429.35 157.45,429.25 157.80,429.51 158.15,429.14 158.50,428.59 158.85,428.37 159.20,428.51 159.55,429.06 159.90,429.78 160.25,427.72 160.60,426.93 160.95,427.88 161.30,428.17 161.65,427.50 162.00,426.88 162.35,426.15 162.70,426.42 163.05,426.73 163.40,427.51 163.75,428.93 164.10,429.51 164.45,428.65 164.80,428.62 165.15,429.48 165.50,430.86 165.85,431.52 166.20,431.58 166.55,430.84 166.90,429.22 167.25,429.17 167.60,428.12 167.95,427.68 168.30,429.34 168.65,431.10 169.00,431.86 169.35,432.44 169.70,434.24 170.05,433.17 170.40,432.09 170.75,431.45 171.10,431.78 171.45,432.04 171.80,432.46 172.15,432.61 172.50,432.71 172.85,432.98 173.20,433.20 173.55,433.25 173.90,432.97 174.25,433.21 174.60,433.32 174.95,433.99 175.30,433.47 175.65,433.33 176.00,433.79 176.35,433.75 176.70,433.55 177.05,433.85 177.40,433.84 177.75,433.55 178.10,433.44 178.45,433.08 178.80,432.88 179.15,432.77 179.50,432.69 179.85,432.60 180.20,432.57 180.55,432.39 180.90,432.22 181.25,432.11 181.60,431.96 181.95,432.19 182.30,432.22 182.65,431.85 183.00,431.58 183.35,431.08 183.70,430.97 184.05,431.47 184.40,431.71 184.75,431.27 185.10,431.54 185.45,430.22 185.80,429.72 186.15,430.87 186.50,431.00 186.85,430.86 187.20,430.48 187.55,429.81 187.90,430.07 188.25,430.16 188.60,430.76 188.95,430.09 189.30,430.70 189.65,430.21 190.00,429.30 190.35,429.31 190.70,429.49 191.05,429.84 191.40,429.45 191.75,428.07 192.10,427.37 192.45,428.37 192.80,427.61 193.15,427.08 193.50,425.62 193.85,426.15 194.20,427.06 194.55,426.61 194.90,426.28 195.25,426.03 195.60,425.47 195.95,425.55 196.30,425.79 196.65,425.73 197.00,426.10 197.35,425.27 197.70,425.78 198.05,426.36 198.40,423.61 198.75,425.42 199.10,424.85 199.45,426.64 199.80,424.88 200.15,423.73 200.50,424.16 200.85,425.05 201.20,423.87 201.55,426.14 201.90,426.18 202.25,426.88 202.60,429.00 202.95,426.37 203.30,424.73 203.65,422.97 204.00,421.61 204.35,424.24 204.70,423.34 205.05,421.60 205.40,423.14 205.75,423.31 206.10,424.42 206.45,424.89 206.80,424.71 207.15,422.00 207.50,419.67 207.85,418.46 208.20,417.04 208.55,413.49 208.90,412.79 209.25,413.15 209.60,410.93 209.95,414.71 210.30,415.97 210.65,416.71 211.00,414.83 211.35,410.88 211.70,411.02 212.05,409.11 212.40,410.65 212.75,413.08 213.10,413.40 213.45,413.19 213.80,413.38 214.15,416.58 214.50,416.82 214.85,416.91 215.20,417.98 215.55,415.08 215.90,415.24 216.25,414.84 216.60,414.34 216.95,414.34 217.30,415.52 217.65,416.21 218.00,412.99 218.35,415.31 218.70,416.22 219.05,417.89 219.40,416.78 219.75,412.88 220.10,417.20 220.45,412.54 220.80,412.78 221.15,410.87 221.50,410.34 221.85,408.61 222.20,411.62 222.55,413.72 222.90,411.89 223.25,409.80 223.60,411.05 223.95,407.29 224.30,409.23 224.65,412.13 225.00,410.96 225.35,412.81 225.70,411.53 226.05,410.63 226.40,407.46 226.75,407.46 227.10,407.60 227.45,409.49 227.80,409.63 228.15,413.85 228.50,411.40 228.85,412.89 229.20,413.70 229.55,415.32 229.90,417.17 230.25,419.64 230.60,420.69 230.95,417.01 231.30,419.32 231.65,420.40 232.00,420.77 232.35,424.67 232.70,426.13 233.05,425.10 233.40,424.96 233.75,428.66 234.10,428.46 234.45,433.12 234.80,431.01 235.15,430.22 235.50,433.84 235.85,433.49 236.20,434.18 236.55,432.97 236.90,432.70 237.25,429.62 237.60,428.42 237.95,427.57 238.30,428.43 238.65,429.18 239.00,429.65 239.35,427.85 239.70,427.68 240.05,428.38 240.40,428.75 240.75,427.99 241.10,430.25 241.45,430.76 241.80,431.43 242.15,432.44 242.50,429.71 242.85,428.43 243.20,427.18 243.55,424.84 243.90,423.82 244.25,421.24 244.60,421.38 244.95,418.66 245.30,417.77 245.65,419.26 246.00,419.93 246.35,421.30 246.70,421.76 247.05,423.63 247.40,423.27 247.75,422.95 248.10,421.41 248.45,421.58 248.80,419.98 249.15,418.27 249.50,415.78 249.85,415.86 250.20,413.54 250.55,414.50 250.90,414.23 251.25,414.07 251.60,410.95 251.95,410.13 252.30,407.59 252.65,406.54 253.00,406.64 253.35,404.60 253.70,403.34 254.05,402.76 254.40,401.24 254.75,402.38 255.10,399.71 255.45,398.30 255.80,396.88 256.15,395.35 256.50,396.70 256.85,394.22 257.20,395.35 257.55,396.27 257.90,392.90 258.25,389.20 258.60,389.94 258.95,389.21 259.30,386.63 259.65,388.27 260.00,386.69 260.35,382.69 260.70,381.98 261.05,383.77 261.40,379.69 261.75,381.96 262.10,375.47 262.45,379.42 262.80,375.09 263.15,371.46 263.50,371.34 263.85,374.51 264.20,377.61 264.55,378.75 264.90,380.54 265.25,386.65 265.60,386.65 265.95,386.63 266.30,389.18 266.65,390.06 267.00,389.19 267.35,394.47 267.70,392.41 268.05,390.50 268.40,395.00 268.75,390.81 269.10,391.66 269.45,392.49 269.80,394.67 270.15,395.90 270.50,394.91 270.85,395.50 271.20,394.62 271.55,398.30 271.90,398.38 272.25,396.53 272.60,393.72 272.95,390.32 273.30,390.77 273.65,390.47 274.00,387.67 274.35,390.22 274.70,390.52 275.05,388.73 275.40,383.33 275.75,387.47 276.10,388.93 276.45,393.48 276.80,394.33 277.15,396.53 277.50,399.02 277.85,398.36 278.20,395.67 278.55,395.63 278.90,394.99 279.25,393.78 279.60,394.60 279.95,397.21 280.30,393.84 280.65,394.12 281.00,395.14 281.35,395.05 281.70,392.40 282.05,393.38 282.40,393.82 282.75,393.18 283.10,390.64 283.45,390.09 283.80,391.03 284.15,390.54 284.50,389.31 284.85,386.86 285.20,386.05 285.55,385.53 285.90,385.69 286.25,387.54 286.60,388.11 286.95,390.40 287.30,387.88 287.65,386.63 288.00,385.78 288.35,388.09 288.70,390.09 289.05,387.30 289.40,386.37 289.75,384.89 290.10,383.39 290.45,384.87 290.80,386.41 291.15,381.36 291.50,377.12 291.85,378.15 292.20,378.19 292.55,375.81 292.90,375.88 293.25,375.59 293.60,378.01 293.95,377.76 294.30,379.14 294.65,381.67 295.00,382.11 295.35,377.84 295.70,379.94 296.05,382.43 296.40,379.01 296.75,384.40 297.10,384.55 297.45,383.10 297.80,384.83 298.15,386.84 298.50,387.20 298.85,387.84 299.20,386.33 299.55,379.81 299.90,381.99 300.25,380.95 300.60,383.01 300.95,380.50 301.30,380.77 301.65,379.70 302.00,376.52 302.35,378.04 302.70,378.12 303.05,377.40 303.40,374.83 303.75,372.52 304.10,372.86 304.45,376.19 304.80,377.67 305.15,377.40 305.50,378.50 305.85,378.68 306.20,380.34 306.55,376.26 306.90,376.94 307.25,380.85 307.60,379.64 307.95,382.68 308.30,382.91 308.65,385.09 309.00,385.73 309.35,385.33 309.70,387.11 310.05,387.69 310.40,390.91 310.75,389.76 311.10,390.19 311.45,393.74 311.80,391.61 312.15,391.49 312.50,392.60 312.85,392.66 313.20,394.56 313.55,392.15 313.90,389.75 314.25,391.35 314.60,387.20 314.95,388.27 315.30,389.69 315.65,390.49 316.00,387.05 316.35,385.89 316.70,384.86 317.05,382.03 317.40,381.94 317.75,386.03 318.10,382.24 318.45,379.26 318.80,377.40 319.15,376.74 319.50,374.91 319.85,371.93 320.20,373.15 320.55,371.33 320.90,370.06 321.25,369.69 321.60,371.76 321.95,373.35 322.30,374.61 322.65,369.15 323.00,371.00 323.35,370.39 323.70,373.15 324.05,372.13 324.40,371.95 324.75,372.85 325.10,372.40 325.45,373.41 325.80,372.95 326.15,369.81 326.50,368.99 326.85,366.42 327.20,366.56 327.55,365.13 327.90,368.47 328.25,368.47 328.60,369.89 328.95,369.52 329.30,370.32 329.65,371.39 330.00,370.66 330.35,372.35 330.70,375.00 331.05,375.49 331.40,370.89 331.75,371.85 332.10,372.42 332.45,367.93 332.80,368.14 333.15,366.48 333.50,359.03 333.85,356.70 334.20,354.55 334.55,357.27 334.90,354.32 335.25,356.98 335.60,352.75 335.95,353.01 336.30,355.95 336.65,356.33 337.00,356.05 337.35,355.42 337.70,355.70 338.05,354.49 338.40,353.23 338.75,359.19 339.10,354.99 339.45,352.31 339.80,349.95 340.15,348.80 340.50,348.89 340.85,350.43 341.20,349.82 341.55,345.63 341.90,348.78 342.25,355.19 342.60,348.19 342.95,341.96 343.30,340.11 343.65,344.47 344.00,343.96 344.35,343.63 344.70,344.21 345.05,345.47 345.40,345.93 345.75,340.72 346.10,341.74 346.45,342.04 346.80,338.71 347.15,332.19 347.50,332.95 347.85,334.34 348.20,328.66 348.55,333.19 348.90,327.34 349.25,322.73 349.60,319.19 349.95,316.27 350.30,311.35 350.65,308.55 351.00,308.76 351.35,307.94 351.70,304.91 352.05,297.28 352.40,295.26 352.75,295.08 353.10,291.24 353.45,291.89 353.80,287.65 354.15,293.12 354.50,286.24 354.85,279.97 355.20,280.39 355.55,283.33 355.90,285.44 356.25,300.71 356.60,304.76 356.95,301.79 357.30,295.67 357.65,301.78 358.00,301.01 358.35,303.72 358.70,303.30 359.05,296.79 359.40,295.51 359.75,292.36 360.10,298.22 360.45,296.59 360.80,296.91 361.15,296.96 361.50,299.79 361.85,297.59 362.20,301.46 362.55,295.11 362.90,296.53 363.25,303.19 363.60,302.14 363.95,298.67 364.30,295.54 364.65,301.13 365.00,305.90 365.35,307.60 365.70,308.74 366.05,316.46 366.40,321.38 366.75,318.44 367.10,324.15 367.45,325.57 367.80,327.13 368.15,333.39 368.50,331.51 368.85,328.58 369.20,319.36 369.55,312.78 369.90,310.09 370.25,310.13 370.60,308.08 370.95,311.27 371.30,301.03 371.65,294.14 372.00,294.01 372.35,291.36 372.70,290.98 373.05,294.92 373.40,298.08 373.75,299.54 374.10,296.59 374.45,299.65 374.80,301.15 375.15,299.73 375.50,295.97 375.85,293.85 376.20,288.82 376.55,287.42 376.90,285.97 377.25,287.46 377.60,284.69 377.95,285.11 378.30,284.80 378.65,286.83 379.00,289.58 379.35,285.68 379.70,292.50 380.05,290.71 380.40,285.85 380.75,284.39 381.10,285.54 381.45,284.49 381.80,284.18 382.15,287.03 382.50,286.95 382.85,286.71 383.20,283.51 383.55,287.27 383.90,285.74 384.25,288.78 384.60,290.40 384.95,294.15 385.30,292.83 385.65,293.25 386.00,293.32 386.35,292.81 386.70,295.35 387.05,291.70 387.40,290.76 387.75,290.71 388.10,290.53 388.45,296.45 388.80,298.11 389.15,296.85 389.50,297.86 389.85,293.90 390.20,293.26 390.55,296.82 390.90,298.32 391.25,296.38 391.60,300.39 391.95,303.02 392.30,300.06 392.65,297.66 393.00,295.71 393.35,295.38 393.70,299.16 394.05,305.63 394.40,298.83 394.75,300.03 395.10,296.30 395.45,299.71 395.80,298.40 396.15,294.18 396.50,296.38 396.85,298.40 397.20,300.66 397.55,299.21 397.90,304.78 398.25,306.13 398.60,306.11 398.95,304.60 399.30,304.59 399.65,302.36 400.00,300.93 400.35,298.92 400.70,297.66 401.05,299.97 401.40,297.69 401.75,296.88 402.10,295.54 402.45,294.19 402.80,292.49 403.15,292.08 403.50,291.28 403.85,294.58 404.20,297.01 404.55,296.80 404.90,293.43 405.25,292.11 405.60,296.78 405.95,292.37 406.30,290.87 406.65,292.66 407.00,289.72 407.35,289.16 407.70,290.19 408.05,295.65 408.40,296.91 408.75,296.68 409.10,302.25 409.45,302.76 409.80,304.42 410.15,305.72 410.50,305.96 410.85,305.26 411.20,305.62 411.55,304.23 411.90,305.42 412.25,303.77 412.60,302.05 412.95,301.11 413.30,301.62 413.65,303.52 414.00,302.84 414.35,301.73 414.70,303.27 415.05,302.42 415.40,304.52 415.75,302.84 416.10,301.70 416.45,299.46 416.80,298.96 417.15,296.95 417.50,298.53 417.85,300.58 418.20,302.76 418.55,302.11 418.90,303.04 419.25,304.04 419.60,305.92 419.95,307.84 420.30,308.35 420.65,308.63 421.00,309.33 421.35,310.04 421.70,309.27 422.05,310.72 422.40,313.03 422.75,312.98 423.10,313.53 423.45,313.36 423.80,313.42 424.15,313.01 424.50,314.19 424.85,313.44 425.20,314.27 425.55,314.38 425.90,312.59 426.25,312.87 426.60,311.80 426.95,311.31 427.30,310.50 427.65,310.93 428.00,311.32 428.35,311.61 428.70,312.11 429.05,312.85 429.40,311.06 429.75,310.48 430.10,309.77 430.45,309.57 430.80,309.11 431.15,309.07 431.50,309.08 431.85,308.88 432.20,308.70 432.55,308.23 432.90,308.06 433.25,307.98 433.60,308.06 433.95,307.84 434.30,308.26 434.65,308.05 435.00,308.08 435.35,307.75 435.70,307.71 436.05,307.88 436.40,307.85 436.75,307.71 437.10,307.69 437.45,307.77 437.80,307.68 438.15,307.72 438.50,307.73 438.85,307.69 439.20,307.66 439.55,307.66 439.90,307.66 440.25,307.64 440.60,307.60 440.95,307.60 441.30,307.55 441.65,307.47 442.00,307.49 442.35,307.35 442.70,307.13 443.05,306.85 443.40,306.53 443.75,306.12 444.10,306.24 444.45,306.43 444.80,305.78 445.15,306.20 445.50,305.93 445.85,305.69 446.20,305.47 446.55,305.35 446.90,306.15 447.25,305.66 447.60,306.07 447.95,305.24 448.30,305.06 448.65,306.43 449.00,306.41 449.35,306.02 449.70,304.38 450.05,303.35 450.40,302.60 450.75,303.39 451.10,304.05 451.45,301.96 451.80,302.09 452.15,301.92 452.50,303.08 452.85,302.43 453.20,300.66 453.55,299.90 453.90,299.47 454.25,298.78 454.60,297.27 454.95,295.62 455.30,295.64 455.65,295.23 456.00,295.70 456.35,295.20 456.70,293.32 457.05,292.18 457.40,292.11 457.75,292.36 458.10,290.19 458.45,289.92 458.80,292.24 459.15,291.07 459.50,291.81 459.85,289.01 460.20,287.02 460.55,286.94 460.90,288.53 461.25,289.90 461.60,290.15 461.95,290.70 462.30,287.90 462.65,290.10 463.00,292.88 463.35,292.58 463.70,292.23 464.05,295.35 464.40,294.20 464.75,294.37 465.10,293.76 465.45,294.78 465.80,294.49 466.15,296.87 466.50,294.68 466.85,293.47 467.20,294.39 467.55,292.60 467.90,290.37 468.25,289.92 468.60,292.74 468.95,290.30 469.30,288.22 469.65,285.26 470.00,285.26 470.35,285.54 470.70,283.04 471.05,281.06 471.40,280.52 471.75,283.56 472.10,284.62 472.45,287.20 472.80,286.71 473.15,285.11 473.50,284.50 473.85,285.80 474.20,285.30 474.55,286.04 474.90,281.29 475.25,281.15 475.60,278.84 475.95,282.52 476.30,282.29 476.65,282.44 477.00,281.56 477.35,279.94 477.70,280.96 478.05,281.58 478.40,280.22 478.75,285.03 479.10,285.65 479.45,285.89 479.80,284.56 480.15,287.37 480.50,290.48 480.85,287.73 481.20,289.14 481.55,289.93 481.90,290.36 482.25,291.03 482.60,289.63 482.95,285.46 483.30,282.98 483.65,279.74 484.00,279.36 484.35,278.66 484.70,277.56 485.05,278.92 485.40,281.22 485.75,281.03 486.10,278.85 486.45,276.97 486.80,280.22 487.15,279.26 487.50,281.71 487.85,277.74 488.20,278.29 488.55,277.86 488.90,277.08 489.25,274.53 489.60,274.62 489.95,273.59 490.30,272.89 490.65,269.44 491.00,269.97 491.35,273.66 491.70,277.34 492.05,278.65 492.40,280.65 492.75,279.89 493.10,282.15 493.45,280.10 493.80,282.79 494.15,280.80 494.50,280.49 494.85,274.90 495.20,271.88 495.55,270.12 495.90,271.27 496.25,272.79 496.60,273.18 496.95,277.88 497.30,278.73 497.65,278.05 498.00,277.91 498.35,274.95 498.70,279.22 499.05,277.05 499.40,273.24 499.75,275.01 500.10,277.06 500.45,281.16 500.80,284.27 501.15,283.21 501.50,286.12 501.85,290.24 502.20,291.94 502.55,289.10 502.90,290.09 503.25,289.76 503.60,288.81 503.95,289.80 504.30,293.83 504.65,292.72 505.00,288.62 505.35,286.29 505.70,286.70 506.05,287.05 506.40,283.19 506.75,283.37 507.10,282.41 507.45,282.15 507.80,280.73 508.15,282.68 508.50,287.07 508.85,283.56 509.20,280.32 509.55,280.40 509.90,282.71 510.25,285.64 510.60,283.56 510.95,280.01 511.30,278.84 511.65,274.25 512.00,276.33 512.35,275.66 512.70,273.96 513.05,271.04 513.40,271.04 513.75,268.85 514.10,272.47 514.45,276.09 514.80,273.75 515.15,272.86 515.50,275.67 515.85,274.87 516.20,278.04 516.55,278.28 516.90,275.69 517.25,275.22 517.60,271.73 517.95,273.83 518.30,275.13 518.65,274.97 519.00,277.98 519.35,271.23 519.70,271.14 520.05,276.46 520.40,280.02 520.75,281.59 521.10,278.87 521.45,280.14 521.80,279.86 522.15,280.94 522.50,278.57 522.85,277.62 523.20,277.13 523.55,276.33 523.90,277.60 524.25,279.53 524.60,282.78 524.95,281.11 525.30,279.62 525.65,278.51 526.00,278.33 526.35,279.84 526.70,278.52 527.05,276.45 527.40,275.00 527.75,274.85 528.10,274.38 528.45,274.95 528.80,279.84 529.15,281.76 529.50,285.25 529.85,285.38 530.20,286.36 530.55,288.52 530.90,286.50 531.25,282.13 531.60,281.58 531.95,280.75 532.30,279.03 532.65,281.60 533.00,283.77 533.35,284.47 533.70,288.90 534.05,288.95 534.40,289.36 534.75,289.80 535.10,292.65 535.45,289.36 535.80,288.75 536.15,291.86 536.50,291.63 536.85,291.25 537.20,290.44 537.55,291.36 537.90,292.31 538.25,291.24 538.60,290.11 538.95,289.83 539.30,288.60 539.65,289.80 540.00,289.96 540.35,289.82 540.70,288.17 541.05,288.68 541.40,291.23 541.75,290.25 542.10,291.23 542.45,291.93 542.80,293.18 543.15,292.88 543.50,293.81 543.85,293.31 544.20,291.69 544.55,290.24 544.90,288.62 545.25,288.66 545.60,289.98 545.95,288.51 546.30,288.38 546.65,289.21 547.00,288.29 547.35,287.95 547.70,287.65 548.05,285.38 548.40,285.80 548.75,284.41 549.10,284.01 549.45,284.43 549.80,282.95 550.15,281.55 550.50,280.97 550.85,279.95 551.20,281.16 551.55,281.69 551.90,281.47 552.25,279.91 552.60,280.76 552.95,281.24 553.30,280.75 553.65,278.74 554.00,277.10 554.35,277.41 554.70,277.19 555.05,276.35 555.40,278.13 555.75,276.13 556.10,278.54 556.45,274.25 556.80,273.41 557.15,274.19 557.50,276.38 557.85,279.78 558.20,278.67 558.55,278.13 558.90,276.51 559.25,279.07 559.60,279.60 559.95,281.48 560.30,279.92 560.65,279.42 561.00,279.94 561.35,279.54 561.70,281.87 562.05,280.41 562.40,284.78 562.75,284.65 563.10,286.15 563.45,287.40 563.80,286.01 564.15,288.64 564.50,286.79 564.85,286.28 565.20,288.03 565.55,289.67 565.90,288.16 566.25,287.47 566.60,290.53 566.95,291.84 567.30,290.53 567.65,289.05 568.00,289.97 568.35,290.13 568.70,292.67 569.05,292.84 569.40,293.28 569.75,293.20 570.10,291.84 570.45,291.09 570.80,289.78 571.15,288.39 571.50,289.25 571.85,290.78 572.20,289.48 572.55,291.29 572.90,292.03 573.25,292.45 573.60,292.48 573.95,291.72 574.30,289.66 574.65,290.33 575.00,288.86 575.35,288.97 575.70,289.41 576.05,288.63 576.40,288.78 576.75,287.76 577.10,288.75 577.45,289.54 577.80,289.11 578.15,288.87 578.50,287.90 578.85,287.40 579.20,287.54 579.55,286.66 579.90,285.64 580.25,286.11 580.60,286.12 580.95,286.60 581.30,287.04 581.65,286.25 582.00,286.54 582.35,286.70 582.70,285.99 583.05,286.73 583.40,286.32 583.75,285.65 584.10,284.61 584.45,282.93 584.80,282.47 585.15,281.55 585.50,281.53 585.85,279.06 586.20,278.51 586.55,277.11 586.90,274.95 587.25,272.17 587.60,271.05 587.95,272.20 588.30,272.71 588.65,271.71 589.00,272.86 589.35,272.71 589.70,270.33 590.05,272.70 590.40,271.95 590.75,273.42 591.10,273.76 591.45,269.08 591.80,269.79 592.15,272.15 592.50,269.02 592.85,266.24 593.20,265.42 593.55,266.34 593.90,267.71 594.25,267.77 594.60,268.65 594.95,269.70 595.30,270.86 595.65,268.10 596.00,267.76 596.35,266.21 596.70,267.84 597.05,271.01 597.40,274.79 597.75,277.26 598.10,275.72 598.45,271.02 598.80,273.44 599.15,273.81 599.50,271.54 599.85,268.27 600.20,271.93 600.55,271.23 600.90,268.31 601.25,265.75 601.60,263.79 601.95,265.46 602.30,264.36 602.65,260.74 603.00,261.15 603.35,262.19 603.70,265.97 604.05,271.28 604.40,271.23 604.75,269.53 605.10,272.40 605.45,272.71 605.80,270.73 606.15,268.09 606.50,270.42 606.85,270.15 607.20,274.43 607.55,277.27 607.90,279.24 608.25,279.82 608.60,282.93 608.95,281.32 609.30,276.86 609.65,279.78 610.00,283.83 610.35,283.97 610.70,282.78 611.05,284.33 611.40,286.82 611.75,287.49 612.10,285.03 612.45,280.44 612.80,277.52 613.15,276.69 613.50,276.08 613.85,276.77 614.20,279.87 614.55,282.12 614.90,282.78 615.25,282.05 615.60,278.26 615.95,278.00 616.30,279.67 616.65,277.56 617.00,279.38 617.35,279.27 617.70,281.94 618.05,287.30 618.40,290.16 618.75,292.11 619.10,291.86 619.45,292.34 619.80,294.82 620.15,297.69 620.50,297.36 620.85,296.98 621.20,295.89 621.55,296.50 621.90,297.53 622.25,299.73 622.60,300.19 622.95,295.54 623.30,293.11 623.65,293.26 624.00,293.43 624.35,293.68 624.70,295.31 625.05,295.63 625.40,294.76 625.75,295.56 626.10,297.69 626.45,294.55 626.80,294.70 627.15,292.98 627.50,290.89 627.85,290.43 628.20,289.54 628.55,288.12 628.90,289.45 629.25,287.78 629.60,288.90 629.95,288.34 630.30,287.81 630.65,287.65 631.00,287.02 631.35,290.47 631.70,289.07 632.05,291.65 632.40,292.52 632.75,291.78 633.10,291.77 633.45,290.11 633.80,288.59 634.15,291.74 634.50,290.83 634.85,289.42 635.20,293.01 635.55,295.87 635.90,294.36 636.25,295.15 636.60,294.72 636.95,293.65 637.30,291.93 637.65,292.76 638.00,294.58 638.35,295.26 638.70,295.92 639.05,296.62 639.40,297.68 639.75,297.93 640.10,295.98 640.45,295.65 640.80,294.86 641.15,295.68 641.50,293.33 641.85,293.39 642.20,295.35 642.55,295.12 642.90,295.54 643.25,297.78 643.60,298.49 643.95,297.46 644.30,297.99 644.65,298.00 645.00,298.14 645.35,297.28 645.70,297.69 646.05,298.06 646.40,297.75 646.75,298.71 647.10,298.13 647.45,298.14 647.80,298.72 648.15,297.85 648.50,297.95 648.85,298.28 649.20,297.94 649.55,297.96 649.90,298.01 650.25,297.87 650.60,297.48 650.95,296.94 651.30,296.63 651.65,296.91 652.00,296.84 652.35,296.93 652.70,296.84 653.05,296.74 653.40,296.59 653.75,296.52 654.10,296.42 654.45,296.38 654.80,296.34 655.15,296.39 655.50,296.44 655.85,296.39 656.20,296.48 656.55,296.41 656.90,296.39 657.25,296.42 657.60,296.36 657.95,296.19 658.30,296.05 658.65,296.05 659.00,296.10 659.35,295.96 659.70,295.59 660.05,295.78 660.40,295.73 660.75,295.92 661.10,295.80 661.45,295.85 661.80,295.86 662.15,295.29 662.50,294.57 662.85,294.88 663.20,294.35 663.55,294.14 663.90,293.95 664.25,294.17 664.60,293.55 664.95,293.71 665.30,292.80 665.65,291.68 666.00,291.20 666.35,290.84 666.70,290.67 667.05,290.97 667.40,290.75 667.75,290.47 668.10,291.12 668.45,289.46 668.80,288.37 669.15,287.31 669.50,287.08 669.85,287.17 670.20,287.65 670.55,288.03 670.90,287.56 671.25,285.72 671.60,285.79 671.95,286.45 672.30,285.48 672.65,286.40 673.00,285.30 673.35,282.83 673.70,281.05 674.05,281.31 674.40,280.16 674.75,280.00 675.10,278.79 675.45,278.27 675.80,279.52 676.15,281.01 676.50,280.39 676.85,283.13 677.20,282.60 677.55,284.25 677.90,284.37 678.25,287.22 678.60,288.50 678.95,286.14 679.30,286.35 679.65,286.84 680.00,286.90 680.35,285.32 680.70,284.50 681.05,285.51 681.40,286.17 681.75,287.99 682.10,286.78 682.45,286.58 682.80,290.30 683.15,292.18 683.50,290.47 683.85,287.08 684.20,286.85 684.55,285.08 684.90,283.37 685.25,281.97 685.60,283.96 685.95,283.74 686.30,284.74 686.65,283.74 687.00,284.21 687.35,283.14 687.70,282.04 688.05,285.63 688.40,288.39 688.75,285.97 689.10,289.19 689.45,291.89 689.80,290.88 690.15,288.52 690.50,290.96 690.85,289.80 691.20,286.59 691.55,286.80 691.90,286.16 692.25,287.20 692.60,286.12 692.95,285.12 693.30,287.98 693.65,290.78 694.00,287.19 694.35,288.04 694.70,286.48 695.05,288.48 695.40,286.78 695.75,285.23 696.10,287.29 696.45,290.80 696.80,291.94 697.15,293.42 697.50,292.44 697.85,291.66 698.20,293.22 698.55,291.90 698.90,294.14 699.25,290.79 699.60,290.85 699.95,291.03 700.30,293.35 700.65,293.84 701.00,292.87 701.35,290.49 701.70,289.38 702.05,287.49 702.40,288.84 702.75,289.36 703.10,291.68 703.45,292.14 703.80,288.25 704.15,284.87 704.50,287.51 704.85,286.26 705.20,290.07 705.55,289.46 705.90,291.77 706.25,293.57 706.60,294.13 706.95,293.30 707.30,295.22 707.65,296.02 708.00,296.32 708.35,294.74 708.70,296.34 709.05,298.45 709.40,297.07 709.75,296.25 710.10,297.42 710.45,296.67 710.80,297.68 711.15,298.87 711.50,299.63 711.85,300.05 712.20,299.95 712.55,300.94 712.90,301.25 713.25,300.49 713.60,299.96 713.95,300.07 714.30,299.51 714.65,299.96 715.00,299.37 715.35,299.79 715.70,298.21 716.05,299.10 716.40,298.86 716.75,297.72 717.10,297.38 717.45,297.04 717.80,297.61 718.15,297.66 718.50,297.64 718.85,296.98 719.20,296.65 719.55,296.37 719.90,295.98 720.25,296.26 720.60,295.96 720.95,296.46 721.30,296.26 721.65,296.24 722.00,295.60 722.35,295.59 722.70,295.44 723.05,294.78 723.40,294.08 723.75,294.35 724.10,295.30 724.45,294.91 724.80,293.53 725.15,294.10 725.50,294.00 725.85,294.18 726.20,293.43 726.55,292.96 726.90,292.80 727.25,293.49 727.60,293.01 727.95,291.86 728.30,291.17 728.65,290.31 729.00,291.56 729.35,292.57 729.70,293.01 730.05,293.09 730.40,292.64 730.75,291.48 731.10,291.38 731.45,292.48 731.80,292.66 732.15,294.78 732.50,293.55 732.85,294.55 733.20,294.44 733.55,294.90 733.90,293.48 734.25,292.49 734.60,291.73 734.95,291.04 735.30,289.27 735.65,290.54 736.00,291.58 736.35,290.87 736.70,290.96 737.05,291.35 737.40,291.98 737.75,291.96 738.10,291.76 738.45,292.11 738.80,292.95 739.15,294.81 739.50,295.38 739.85,295.09 740.20,295.45 740.55,295.28 740.90,295.33 741.25,295.96 741.60,295.66 741.95,294.98 742.30,295.31 742.65,295.75 743.00,295.16 743.35,295.18 743.70,295.29 744.05,295.13 744.40,295.70 744.75,294.67 745.10,294.02 745.45,294.55 745.80,294.78 746.15,293.89 746.50,294.50 746.85,295.20 747.20,295.18 747.55,295.32 747.90,294.67 748.25,295.34 748.60,294.39 748.95,294.24 749.30,293.95 749.65,294.27 750.00,294.67 750.35,294.46 750.70,294.31 751.05,294.57 751.40,295.61 751.75,294.13 752.10,293.99 752.45,293.48 752.80,293.26 753.15,293.23 753.50,293.54 753.85,294.50 754.20,294.42 754.55,294.46 754.90,293.83 755.25,293.63 755.60,295.05 755.95,293.85 756.30,292.45 756.65,291.78 757.00,293.46 757.35,294.91 757.70,295.20 758.05,295.27 758.40,295.82 758.75,295.61 759.10,294.86 759.45,296.40 759.80,295.23 760.15,295.07 760.50,293.69 760.85,294.13 761.20,293.61 761.55,294.85 761.90,293.95 762.25,294.45 762.60,293.83 762.95,292.50 763.30,291.58 763.65,291.91 764.00,292.70 764.35,292.40 764.70,292.36 765.05,292.25 765.40,292.19 765.75,292.91 766.10,294.36 766.45,294.78 766.80,295.11 767.15,296.24 767.50,295.50 767.85,296.10 768.20,295.25 768.55,294.44 768.90,295.21 769.25,296.45 769.60,296.08 769.95,295.06 770.30,295.80 770.65,296.80 771.00,296.32 771.35,296.98 771.70,296.56 772.05,296.29 772.40,296.27 772.75,296.58 773.10,296.65 773.45,297.27 773.80,296.83 774.15,296.63 774.50,296.21 774.85,295.61 775.20,295.45 775.55,294.63 775.90,294.95 776.25,294.58 776.60,294.46 776.95,294.27 777.30,293.69 777.65,294.08 778.00,294.03 778.35,293.92 778.70,293.06 779.05,292.01 779.40,292.59 779.75,292.55 780.10,293.34 780.45,293.17 780.80,293.84 781.15,294.00 781.50,292.31 781.85,292.32 782.20,292.82 782.55,292.40 782.90,292.65 783.25,294.38 783.60,294.49 783.95,294.09 784.30,294.76 784.65,294.92 785.00,295.54"/>
<line x1="813" y1="78" x2="839" y2="78" stroke="#dc2626" stroke-width="3"/>
<text x="847" y="82" font-family="Arial" font-size="13" fill="#111827">high volatility</text>
<polyline fill="none" stroke="#059669" stroke-width="2" points="85.00,432.92 85.35,432.85 85.70,432.82 86.05,432.77 86.40,432.72 86.75,432.71 87.10,432.64 87.45,432.63 87.80,432.62 88.15,432.60 88.50,432.61 88.85,432.61 89.20,432.58 89.55,432.58 89.90,432.56 90.25,432.58 90.60,432.59 90.95,432.56 91.30,432.52 91.65,432.53 92.00,432.51 92.35,432.49 92.70,432.46 93.05,432.47 93.40,432.45 93.75,432.36 94.10,432.31 94.45,432.29 94.80,432.27 95.15,432.20 95.50,432.14 95.85,432.08 96.20,431.97 96.55,431.87 96.90,431.77 97.25,431.69 97.60,431.69 97.95,431.66 98.30,431.31 98.65,431.41 99.00,431.45 99.35,431.31 99.70,430.90 100.05,430.91 100.40,430.71 100.75,430.61 101.10,430.62 101.45,430.33 101.80,430.15 102.15,430.22 102.50,430.28 102.85,430.23 103.20,430.12 103.55,430.02 103.90,429.82 104.25,429.92 104.60,429.66 104.95,429.25 105.30,429.33 105.65,429.53 106.00,429.86 106.35,429.89 106.70,429.82 107.05,429.51 107.40,429.68 107.75,429.47 108.10,429.25 108.45,429.54 108.80,429.16 109.15,428.97 109.50,428.68 109.85,428.90 110.20,428.69 110.55,429.29 110.90,429.41 111.25,429.51 111.60,429.13 111.95,429.69 112.30,429.16 112.65,429.54 113.00,429.60 113.35,429.81 113.70,429.49 114.05,430.24 114.40,430.35 114.75,430.32 115.10,429.99 115.45,429.96 115.80,430.17 116.15,430.17 116.50,430.52 116.85,430.16 117.20,430.25 117.55,429.32 117.90,429.99 118.25,429.88 118.60,430.25 118.95,429.87 119.30,429.74 119.65,429.80 120.00,429.36 120.35,429.12 120.70,429.59 121.05,429.47 121.40,429.61 121.75,429.74 122.10,429.82 122.45,429.96 122.80,430.01 123.15,429.91 123.50,429.95 123.85,430.16 124.20,430.38 124.55,430.80 124.90,430.80 125.25,430.68 125.60,430.45 125.95,430.24 126.30,430.31 126.65,430.36 127.00,430.30 127.35,430.32 127.70,430.34 128.05,430.21 128.40,430.21 128.75,430.25 129.10,430.24 129.45,430.28 129.80,430.29 130.15,430.25 130.50,430.18 130.85,430.09 131.20,430.11 131.55,430.11 131.90,429.98 132.25,430.05 132.60,430.03 132.95,429.99 133.30,430.03 133.65,430.03 134.00,430.06 134.35,430.04 134.70,430.09 135.05,430.06 135.40,430.08 135.75,430.08 136.10,430.06 136.45,430.01 136.80,429.97 137.15,429.95 137.50,429.93 137.85,429.93 138.20,429.93 138.55,429.92 138.90,429.92 139.25,429.91 139.60,429.91 139.95,429.86 140.30,429.83 140.65,429.83 141.00,429.82 141.35,429.86 141.70,429.86 142.05,429.90 142.40,429.87 142.75,429.91 143.10,429.92 143.45,429.89 143.80,429.89 144.15,429.90 144.50,429.81 144.85,429.80 145.20,429.71 145.55,429.76 145.90,429.74 146.25,429.74 146.60,429.62 146.95,429.63 147.30,429.64 147.65,429.78 148.00,429.80 148.35,429.82 148.70,430.01 149.05,429.93 149.40,429.89 149.75,429.78 150.10,429.76 150.45,429.81 150.80,429.87 151.15,430.10 151.50,430.04 151.85,429.96 152.20,429.95 152.55,429.97 152.90,429.92 153.25,429.99 153.60,429.97 153.95,429.90 154.30,429.83 154.65,429.87 155.00,429.95 155.35,429.97 155.70,429.87 156.05,429.91 156.40,429.85 156.75,429.85 157.10,429.81 157.45,429.80 157.80,429.78 158.15,429.85 158.50,429.88 158.85,429.74 159.20,429.76 159.55,429.76 159.90,429.75 160.25,429.73 160.60,429.71 160.95,429.71 161.30,429.65 161.65,429.63 162.00,429.62 162.35,429.65 162.70,429.65 163.05,429.67 163.40,429.69 163.75,429.71 164.10,429.71 164.45,429.73 164.80,429.77 165.15,429.76 165.50,429.77 165.85,429.77 166.20,429.79 166.55,429.72 166.90,429.67 167.25,429.64 167.60,429.54 167.95,429.44 168.30,429.33 168.65,429.24 169.00,429.21 169.35,428.99 169.70,428.97 170.05,428.75 170.40,428.83 170.75,428.94 171.10,429.13 171.45,428.86 171.80,429.13 172.15,429.21 172.50,429.02 172.85,428.95 173.20,428.71 173.55,428.89 173.90,428.73 174.25,428.48 174.60,428.80 174.95,428.96 175.30,428.86 175.65,428.37 176.00,428.40 176.35,428.33 176.70,428.45 177.05,428.09 177.40,428.05 177.75,428.20 178.10,428.31 178.45,427.42 178.80,427.48 179.15,427.89 179.50,427.53 179.85,427.45 180.20,426.70 180.55,426.56 180.90,425.91 181.25,424.94 181.60,424.24 181.95,424.85 182.30,424.89 182.65,424.69 183.00,425.11 183.35,424.59 183.70,423.80 184.05,424.17 184.40,423.87 184.75,423.71 185.10,423.95 185.45,423.94 185.80,423.03 186.15,423.71 186.50,422.35 186.85,422.72 187.20,421.76 187.55,420.26 187.90,421.85 188.25,420.76 188.60,421.46 188.95,420.71 189.30,421.54 189.65,421.16 190.00,420.87 190.35,420.02 190.70,420.22 191.05,422.97 191.40,423.50 191.75,424.26 192.10,423.35 192.45,423.38 192.80,421.01 193.15,420.51 193.50,421.50 193.85,421.66 194.20,422.21 194.55,420.86 194.90,422.61 195.25,423.64 195.60,423.31 195.95,423.13 196.30,422.82 196.65,423.33 197.00,423.95 197.35,427.40 197.70,427.52 198.05,428.06 198.40,427.06 198.75,427.92 199.10,428.90 199.45,429.04 199.80,427.17 200.15,427.20 200.50,427.63 200.85,427.19 201.20,425.00 201.55,425.81 201.90,424.41 202.25,424.84 202.60,423.30 202.95,422.59 203.30,422.06 203.65,422.84 204.00,422.08 204.35,420.82 204.70,422.84 205.05,423.71 205.40,423.97 205.75,425.12 206.10,423.86 206.45,425.81 206.80,424.35 207.15,423.78 207.50,423.10 207.85,421.99 208.20,422.24 208.55,421.95 208.90,421.11 209.25,421.31 209.60,421.67 209.95,421.69 210.30,421.52 210.65,423.53 211.00,423.74 211.35,423.59 211.70,424.55 212.05,425.90 212.40,426.61 212.75,424.44 213.10,422.86 213.45,422.64 213.80,420.38 214.15,420.79 214.50,420.97 214.85,421.25 215.20,420.72 215.55,422.81 215.90,420.92 216.25,420.84 216.60,419.22 216.95,417.76 217.30,417.36 217.65,417.89 218.00,417.54 218.35,418.05 218.70,420.16 219.05,419.54 219.40,418.44 219.75,419.87 220.10,419.19 220.45,418.86 220.80,420.21 221.15,420.76 221.50,420.28 221.85,419.15 222.20,419.79 222.55,419.77 222.90,419.19 223.25,418.21 223.60,416.23 223.95,417.19 224.30,415.73 224.65,413.96 225.00,412.77 225.35,413.29 225.70,410.68 226.05,410.18 226.40,410.63 226.75,410.23 227.10,409.31 227.45,408.44 227.80,407.56 228.15,408.35 228.50,409.86 228.85,410.98 229.20,412.61 229.55,412.08 229.90,413.77 230.25,411.87 230.60,414.12 230.95,412.65 231.30,411.89 231.65,410.67 232.00,410.85 232.35,410.41 232.70,412.09 233.05,413.51 233.40,412.45 233.75,413.43 234.10,414.83 234.45,414.85 234.80,414.56 235.15,415.06 235.50,417.03 235.85,414.44 236.20,413.62 236.55,412.67 236.90,410.80 237.25,408.55 237.60,408.83 237.95,408.06 238.30,407.76 238.65,406.31 239.00,405.16 239.35,406.33 239.70,404.75 240.05,402.53 240.40,402.99 240.75,403.15 241.10,402.77 241.45,406.01 241.80,405.79 242.15,407.44 242.50,409.81 242.85,408.55 243.20,409.77 243.55,411.80 243.90,413.60 244.25,413.51 244.60,414.18 244.95,412.04 245.30,407.86 245.65,407.97 246.00,410.21 246.35,410.11 246.70,406.68 247.05,406.17 247.40,408.26 247.75,411.13 248.10,413.82 248.45,411.60 248.80,412.17 249.15,414.43 249.50,414.01 249.85,411.21 250.20,414.97 250.55,409.92 250.90,409.94 251.25,407.51 251.60,405.70 251.95,403.21 252.30,403.22 252.65,403.61 253.00,403.96 253.35,405.02 253.70,406.46 254.05,406.99 254.40,407.35 254.75,408.26 255.10,406.55 255.45,410.92 255.80,411.73 256.15,405.68 256.50,406.55 256.85,405.47 257.20,409.96 257.55,408.82 257.90,406.72 258.25,407.95 258.60,407.33 258.95,405.22 259.30,406.72 259.65,408.35 260.00,409.81 260.35,405.35 260.70,408.50 261.05,405.59 261.40,405.36 261.75,403.03 262.10,402.81 262.45,403.20 262.80,402.57 263.15,402.04 263.50,403.59 263.85,403.60 264.20,400.07 264.55,397.56 264.90,397.08 265.25,394.76 265.60,398.57 265.95,401.40 266.30,400.94 266.65,399.66 267.00,401.87 267.35,400.60 267.70,401.22 268.05,405.23 268.40,404.72 268.75,406.91 269.10,407.85 269.45,408.34 269.80,411.72 270.15,412.49 270.50,410.02 270.85,410.42 271.20,411.24 271.55,408.20 271.90,407.12 272.25,406.27 272.60,407.03 272.95,403.33 273.30,405.85 273.65,403.88 274.00,406.12 274.35,405.84 274.70,402.13 275.05,407.31 275.40,406.54 275.75,404.70 276.10,404.55 276.45,402.73 276.80,406.06 277.15,405.02 277.50,403.56 277.85,403.11 278.20,401.27 278.55,398.58 278.90,397.81 279.25,396.66 279.60,398.52 279.95,401.32 280.30,402.90 280.65,398.68 281.00,399.12 281.35,397.16 281.70,400.94 282.05,400.06 282.40,399.04 282.75,398.32 283.10,401.66 283.45,398.26 283.80,396.72 284.15,397.58 284.50,397.17 284.85,397.71 285.20,399.09 285.55,393.73 285.90,391.60 286.25,394.52 286.60,394.86 286.95,397.20 287.30,397.23 287.65,398.03 288.00,401.71 288.35,401.94 288.70,400.80 289.05,403.88 289.40,405.17 289.75,401.51 290.10,401.13 290.45,400.53 290.80,402.29 291.15,402.98 291.50,400.35 291.85,398.60 292.20,397.32 292.55,398.90 292.90,396.67 293.25,393.80 293.60,392.37 293.95,394.36 294.30,398.19 294.65,397.15 295.00,395.99 295.35,397.17 295.70,395.25 296.05,394.98 296.40,394.91 296.75,396.95 297.10,399.42 297.45,398.03 297.80,399.63 298.15,403.11 298.50,404.24 298.85,402.88 299.20,402.46 299.55,399.63 299.90,402.24 300.25,401.28 300.60,399.45 300.95,399.24 301.30,403.31 301.65,403.01 302.00,404.61 302.35,403.42 302.70,402.15 303.05,397.40 303.40,396.61 303.75,399.16 304.10,401.76 304.45,400.79 304.80,400.61 305.15,399.44 305.50,402.13 305.85,404.27 306.20,408.46 306.55,408.89 306.90,407.91 307.25,409.05 307.60,412.22 307.95,406.92 308.30,405.12 308.65,405.35 309.00,405.17 309.35,409.23 309.70,408.73 310.05,413.38 310.40,409.88 310.75,413.32 311.10,415.64 311.45,416.20 311.80,421.28 312.15,422.15 312.50,423.23 312.85,423.24 313.20,423.16 313.55,421.83 313.90,419.62 314.25,419.82 314.60,419.23 314.95,419.68 315.30,421.06 315.65,422.97 316.00,422.96 316.35,426.67 316.70,428.69 317.05,425.64 317.40,424.06 317.75,427.76 318.10,429.26 318.45,429.95 318.80,431.33 319.15,431.77 319.50,430.80 319.85,430.82 320.20,432.46 320.55,432.50 320.90,429.04 321.25,426.32 321.60,425.19 321.95,425.11 322.30,424.83 322.65,427.82 323.00,428.15 323.35,430.06 323.70,429.99 324.05,428.86 324.40,429.16 324.75,429.02 325.10,430.06 325.45,432.55 325.80,434.59 326.15,435.30 326.50,436.14 326.85,433.04 327.20,429.96 327.55,431.47 327.90,434.25 328.25,435.62 328.60,435.60 328.95,437.20 329.30,436.22 329.65,434.89 330.00,436.33 330.35,434.44 330.70,434.47 331.05,432.91 331.40,435.89 331.75,434.88 332.10,437.57 332.45,439.31 332.80,439.22 333.15,440.48 333.50,438.90 333.85,438.84 334.20,439.80 334.55,439.08 334.90,437.63 335.25,436.80 335.60,436.66 335.95,437.07 336.30,435.79 336.65,435.02 337.00,433.30 337.35,432.31 337.70,432.90 338.05,432.20 338.40,431.91 338.75,431.30 339.10,431.32 339.45,430.61 339.80,431.00 340.15,431.35 340.50,430.42 340.85,429.70 341.20,429.32 341.55,428.54 341.90,427.96 342.25,427.70 342.60,427.60 342.95,428.53 343.30,429.47 343.65,429.05 344.00,428.60 344.35,429.43 344.70,428.47 345.05,428.25 345.40,428.90 345.75,428.60 346.10,428.98 346.45,428.82 346.80,429.27 347.15,429.08 347.50,428.95 347.85,428.75 348.20,428.36 348.55,428.52 348.90,428.45 349.25,428.48 349.60,428.45 349.95,428.16 350.30,427.96 350.65,427.97 351.00,427.67 351.35,427.81 351.70,427.86 352.05,427.64 352.40,427.69 352.75,427.62 353.10,427.38 353.45,427.38 353.80,427.22 354.15,427.03 354.50,426.87 354.85,426.53 355.20,426.40 355.55,426.57 355.90,426.47 356.25,426.51 356.60,426.58 356.95,426.65 357.30,426.53 357.65,426.72 358.00,426.43 358.35,426.33 358.70,426.62 359.05,426.72 359.40,426.84 359.75,427.05 360.10,427.00 360.45,427.25 360.80,426.96 361.15,426.79 361.50,426.84 361.85,426.87 362.20,426.83 362.55,426.93 362.90,426.77 363.25,426.75 363.60,426.80 363.95,426.74 364.30,426.76 364.65,426.75 365.00,426.85 365.35,426.86 365.70,426.92 366.05,426.90 366.40,427.07 366.75,427.10 367.10,427.12 367.45,427.02 367.80,427.05 368.15,427.01 368.50,426.95 368.85,426.88 369.20,426.84 369.55,426.84 369.90,426.81 370.25,426.80 370.60,426.80 370.95,426.77 371.30,426.77 371.65,426.76 372.00,426.77 372.35,426.76 372.70,426.75 373.05,426.79 373.40,426.78 373.75,426.79 374.10,426.76 374.45,426.78 374.80,426.80 375.15,426.78 375.50,426.77 375.85,426.76 376.20,426.78 376.55,426.77 376.90,426.78 377.25,426.77 377.60,426.76 377.95,426.67 378.30,426.56 378.65,426.63 379.00,426.62 379.35,426.48 379.70,426.41 380.05,426.51 380.40,426.49 380.75,426.41 381.10,426.38 381.45,426.48 381.80,426.59 382.15,426.57 382.50,426.50 382.85,426.46 383.20,426.55 383.55,426.57 383.90,426.43 384.25,426.42 384.60,426.26 384.95,426.27 385.30,426.17 385.65,426.09 386.00,426.04 386.35,426.06 386.70,425.91 387.05,425.92 387.40,425.77 387.75,425.61 388.10,425.28 388.45,424.96 388.80,424.68 389.15,424.43 389.50,424.42 389.85,424.47 390.20,423.83 390.55,423.96 390.90,424.12 391.25,424.03 391.60,423.61 391.95,423.48 392.30,423.32 392.65,423.26 393.00,423.33 393.35,423.36 393.70,422.92 394.05,423.29 394.40,423.23 394.75,423.82 395.10,423.03 395.45,423.07 395.80,423.43 396.15,423.80 396.50,423.84 396.85,423.81 397.20,423.57 397.55,423.97 397.90,423.82 398.25,424.44 398.60,425.48 398.95,425.15 399.30,425.80 399.65,426.28 400.00,425.52 400.35,424.67 400.70,424.04 401.05,424.86 401.40,424.40 401.75,425.23 402.10,426.12 402.45,426.27 402.80,426.38 403.15,425.67 403.50,425.45 403.85,425.40 404.20,425.06 404.55,425.52 404.90,425.68 405.25,426.13 405.60,426.87 405.95,426.05 406.30,424.34 406.65,425.01 407.00,425.13 407.35,426.40 407.70,426.72 408.05,426.75 408.40,426.53 408.75,426.90 409.10,426.62 409.45,427.04 409.80,426.72 410.15,427.17 410.50,426.94 410.85,427.39 411.20,427.29 411.55,426.97 411.90,426.83 412.25,426.74 412.60,425.63 412.95,425.50 413.30,425.76 413.65,425.72 414.00,425.79 414.35,425.11 414.70,425.69 415.05,425.13 415.40,423.85 415.75,423.96 416.10,423.18 416.45,423.79 416.80,423.47 417.15,423.51 417.50,422.76 417.85,423.46 418.20,422.91 418.55,423.20 418.90,422.08 419.25,421.70 419.60,421.55 419.95,420.39 420.30,419.54 420.65,419.17 421.00,420.22 421.35,420.32 421.70,418.93 422.05,419.48 422.40,420.06 422.75,419.06 423.10,417.65 423.45,419.03 423.80,419.74 424.15,419.25 424.50,418.44 424.85,417.46 425.20,417.88 425.55,418.06 425.90,417.03 426.25,416.58 426.60,415.75 426.95,415.80 427.30,415.99 427.65,415.49 428.00,414.24 428.35,414.06 428.70,411.65 429.05,410.37 429.40,409.77 429.75,410.22 430.10,408.39 430.45,406.08 430.80,405.48 431.15,404.13 431.50,403.47 431.85,403.76 432.20,403.15 432.55,398.82 432.90,398.61 433.25,400.36 433.60,398.37 433.95,397.18 434.30,397.10 434.65,396.50 435.00,395.86 435.35,393.72 435.70,391.63 436.05,393.08 436.40,390.34 436.75,388.77 437.10,386.53 437.45,387.77 437.80,385.57 438.15,383.42 438.50,384.31 438.85,384.16 439.20,382.42 439.55,380.33 439.90,381.53 440.25,380.52 440.60,379.97 440.95,378.43 441.30,375.28 441.65,374.97 442.00,378.20 442.35,379.51 442.70,378.79 443.05,379.17 443.40,381.65 443.75,382.62 444.10,380.76 444.45,382.53 444.80,379.85 445.15,377.95 445.50,379.79 445.85,378.09 446.20,376.29 446.55,375.00 446.90,375.80 447.25,373.30 447.60,373.54 447.95,374.23 448.30,376.57 448.65,375.73 449.00,373.47 449.35,378.85 449.70,373.49 450.05,369.49 450.40,371.10 450.75,372.83 451.10,372.79 451.45,369.93 451.80,372.47 452.15,370.37 452.50,371.13 452.85,366.76 453.20,367.72 453.55,369.81 453.90,367.27 454.25,368.79 454.60,371.85 454.95,368.48 455.30,369.06 455.65,367.18 456.00,364.52 456.35,362.84 456.70,364.65 457.05,363.58 457.40,368.07 457.75,365.68 458.10,368.81 458.45,366.98 458.80,366.93 459.15,364.93 459.50,364.70 459.85,365.22 460.20,366.59 460.55,370.40 460.90,365.12 461.25,365.48 461.60,363.78 461.95,364.05 462.30,363.12 462.65,359.97 463.00,358.82 463.35,363.46 463.70,365.51 464.05,362.06 464.40,364.22 464.75,364.80 465.10,369.31 465.45,374.84 465.80,373.96 466.15,372.46 466.50,375.06 466.85,374.68 467.20,373.49 467.55,375.51 467.90,380.90 468.25,377.06 468.60,376.79 468.95,377.16 469.30,373.59 469.65,373.12 470.00,369.52 470.35,369.84 470.70,368.51 471.05,370.42 471.40,377.07 471.75,376.62 472.10,371.21 472.45,368.84 472.80,374.41 473.15,378.80 473.50,381.14 473.85,384.42 474.20,386.64 474.55,387.15 474.90,382.97 475.25,385.00 475.60,383.57 475.95,383.99 476.30,377.06 476.65,377.22 477.00,372.83 477.35,373.18 477.70,371.57 478.05,368.51 478.40,372.65 478.75,371.52 479.10,368.16 479.45,369.06 479.80,368.98 480.15,369.64 480.50,368.03 480.85,371.10 481.20,370.10 481.55,370.64 481.90,366.34 482.25,368.61 482.60,368.82 482.95,371.27 483.30,371.64 483.65,376.38 484.00,377.42 484.35,378.58 484.70,378.76 485.05,376.55 485.40,372.04 485.75,372.97 486.10,369.94 486.45,370.01 486.80,370.55 487.15,369.48 487.50,371.01 487.85,366.20 488.20,366.45 488.55,366.41 488.90,363.42 489.25,360.49 489.60,363.62 489.95,366.20 490.30,364.60 490.65,364.54 491.00,364.12 491.35,368.30 491.70,371.14 492.05,374.40 492.40,375.15 492.75,377.93 493.10,381.92 493.45,380.43 493.80,377.28 494.15,374.74 494.50,378.24 494.85,381.76 495.20,380.70 495.55,382.18 495.90,388.34 496.25,390.64 496.60,387.03 496.95,388.32 497.30,386.85 497.65,388.78 498.00,390.26 498.35,386.76 498.70,384.49 499.05,385.06 499.40,385.62 499.75,384.09 500.10,385.18 500.45,383.16 500.80,386.19 501.15,387.28 501.50,385.78 501.85,387.92 502.20,387.95 502.55,389.18 502.90,390.31 503.25,391.41 503.60,394.05 503.95,396.58 504.30,397.01 504.65,401.14 505.00,405.83 505.35,405.04 505.70,402.27 506.05,399.03 506.40,398.31 506.75,399.16 507.10,402.09 507.45,404.42 507.80,404.09 508.15,403.77 508.50,406.78 508.85,406.90 509.20,408.86 509.55,408.65 509.90,411.66 510.25,410.72 510.60,414.14 510.95,415.54 511.30,417.75 511.65,418.76 512.00,418.08 512.35,419.47 512.70,420.56 513.05,420.89 513.40,419.75 513.75,423.23 514.10,422.01 514.45,419.80 514.80,419.41 515.15,416.57 515.50,417.07 515.85,417.99 516.20,419.57 516.55,420.23 516.90,422.70 517.25,420.63 517.60,420.00 517.95,419.79 518.30,419.95 518.65,419.85 519.00,420.52 519.35,421.81 519.70,420.42 520.05,417.40 520.40,417.17 520.75,416.88 521.10,415.84 521.45,415.51 521.80,415.75 522.15,416.31 522.50,414.96 522.85,413.82 523.20,414.60 523.55,416.41 523.90,416.60 524.25,416.28 524.60,417.06 524.95,415.92 525.30,414.40 525.65,415.40 526.00,414.34 526.35,412.77 526.70,413.15 527.05,415.51 527.40,414.53 527.75,414.99 528.10,415.78 528.45,416.54 528.80,415.95 529.15,414.28 529.50,415.53 529.85,415.21 530.20,413.46 530.55,414.01 530.90,414.23 531.25,414.02 531.60,412.83 531.95,413.76 532.30,414.03 532.65,412.47 533.00,414.06 533.35,412.86 533.70,411.84 534.05,413.01 534.40,410.78 534.75,411.22 535.10,411.67 535.45,412.29 535.80,412.22 536.15,413.27 536.50,412.64 536.85,410.78 537.20,409.86 537.55,411.46 537.90,411.56 538.25,411.26 538.60,413.25 538.95,415.11 539.30,416.93 539.65,418.16 540.00,417.89 540.35,417.92 540.70,417.08 541.05,414.34 541.40,413.36 541.75,413.67 542.10,413.83 542.45,412.42 542.80,411.93 543.15,413.26 543.50,413.49 543.85,414.95 544.20,414.23 544.55,414.87 544.90,414.07 545.25,411.64 545.60,412.90 545.95,414.36 546.30,412.15 546.65,411.45 547.00,410.09 547.35,408.91 547.70,409.58 548.05,409.64 548.40,410.34 548.75,410.51 549.10,410.88 549.45,410.70 549.80,411.56 550.15,411.78 550.50,409.63 550.85,409.64 551.20,409.41 551.55,407.95 551.90,408.55 552.25,407.28 552.60,408.83 552.95,409.06 553.30,412.13 553.65,412.01 554.00,412.10 554.35,414.59 554.70,414.44 555.05,415.01 555.40,415.88 555.75,416.83 556.10,417.16 556.45,417.42 556.80,417.15 557.15,414.05 557.50,412.45 557.85,412.20 558.20,413.09 558.55,413.53 558.90,413.54 559.25,412.61 559.60,411.87 559.95,412.82 560.30,411.94 560.65,411.48 561.00,411.12 561.35,410.99 561.70,411.27 562.05,411.24 562.40,410.30 562.75,411.30 563.10,411.02 563.45,411.31 563.80,412.07 564.15,413.18 564.50,412.42 564.85,411.10 565.20,411.32 565.55,411.05 565.90,411.70 566.25,412.74 566.60,414.09 566.95,414.93 567.30,416.11 567.65,414.75 568.00,415.55 568.35,414.22 568.70,414.46 569.05,413.41 569.40,413.52 569.75,414.27 570.10,412.58 570.45,413.74 570.80,415.60 571.15,414.59 571.50,414.93 571.85,415.57 572.20,417.18 572.55,416.86 572.90,416.41 573.25,416.98 573.60,417.37 573.95,418.17 574.30,418.68 574.65,419.23 575.00,419.71 575.35,419.27 575.70,419.91 576.05,420.18 576.40,420.84 576.75,420.73 577.10,420.24 577.45,420.27 577.80,419.82 578.15,420.22 578.50,419.60 578.85,419.47 579.20,418.21 579.55,417.88 579.90,417.65 580.25,417.56 580.60,416.91 580.95,418.25 581.30,419.13 581.65,419.02 582.00,418.36 582.35,419.81 582.70,419.74 583.05,420.54 583.40,419.99 583.75,419.86 584.10,421.03 584.45,420.93 584.80,421.20 585.15,421.79 585.50,420.21 585.85,419.62 586.20,420.05 586.55,419.29 586.90,419.75 587.25,419.81 587.60,419.98 587.95,420.01 588.30,419.25 588.65,419.48 589.00,419.02 589.35,418.76 589.70,418.11 590.05,417.61 590.40,418.11 590.75,417.98 591.10,418.18 591.45,418.27 591.80,417.60 592.15,417.14 592.50,416.51 592.85,416.51 593.20,416.30 593.55,415.70 593.90,415.98 594.25,416.52 594.60,417.20 594.95,417.60 595.30,416.72 595.65,416.17 596.00,416.39 596.35,416.62 596.70,416.05 597.05,415.72 597.40,415.75 597.75,415.85 598.10,416.16 598.45,416.19 598.80,416.39 599.15,416.54 599.50,416.55 599.85,415.82 600.20,415.15 600.55,414.61 600.90,414.43 601.25,414.12 601.60,414.03 601.95,414.00 602.30,414.07 602.65,414.83 603.00,414.44 603.35,415.23 603.70,414.74 604.05,413.88 604.40,413.52 604.75,413.00 605.10,412.53 605.45,412.67 605.80,412.88 606.15,413.10 606.50,412.89 606.85,412.27 607.20,411.73 607.55,411.89 607.90,411.68 608.25,412.05 608.60,411.14 608.95,411.10 609.30,411.05 609.65,411.77 610.00,411.55 610.35,411.13 610.70,409.58 611.05,410.09 611.40,409.91 611.75,410.38 612.10,409.74 612.45,410.05 612.80,408.61 613.15,408.21 613.50,406.18 613.85,406.74 614.20,407.52 614.55,404.25 614.90,406.26 615.25,406.01 615.60,407.42 615.95,407.41 616.30,409.44 616.65,409.68 617.00,409.02 617.35,409.63 617.70,406.65 618.05,408.26 618.40,409.99 618.75,410.47 619.10,411.42 619.45,411.24 619.80,411.06 620.15,412.97 620.50,411.63 620.85,411.55 621.20,410.57 621.55,410.81 621.90,409.71 622.25,407.12 622.60,407.08 622.95,407.85 623.30,406.40 623.65,405.87 624.00,406.29 624.35,405.21 624.70,407.12 625.05,408.49 625.40,408.94 625.75,407.95 626.10,405.96 626.45,406.49 626.80,406.03 627.15,407.75 627.50,406.33 627.85,405.71 628.20,404.00 628.55,404.00 628.90,403.62 629.25,398.62 629.60,398.02 629.95,395.66 630.30,396.57 630.65,398.16 631.00,398.44 631.35,395.64 631.70,396.05 632.05,396.72 632.40,393.86 632.75,392.68 633.10,393.59 633.45,395.29 633.80,394.56 634.15,391.04 634.50,390.91 634.85,387.60 635.20,383.97 635.55,383.69 635.90,382.68 636.25,382.56 636.60,382.85 636.95,382.13 637.30,380.38 637.65,381.03 638.00,379.82 638.35,380.90 638.70,383.13 639.05,383.88 639.40,383.47 639.75,380.84 640.10,384.31 640.45,383.28 640.80,383.22 641.15,380.10 641.50,376.32 641.85,378.07 642.20,376.39 642.55,377.85 642.90,377.11 643.25,375.62 643.60,376.66 643.95,376.36 644.30,371.66 644.65,367.76 645.00,365.62 645.35,362.62 645.70,365.80 646.05,361.58 646.40,357.59 646.75,357.34 647.10,355.08 647.45,354.44 647.80,356.18 648.15,354.61 648.50,348.20 648.85,352.70 649.20,352.41 649.55,352.52 649.90,348.68 650.25,347.52 650.60,346.47 650.95,341.89 651.30,340.60 651.65,340.67 652.00,341.49 652.35,340.92 652.70,337.09 653.05,338.53 653.40,338.79 653.75,337.19 654.10,335.20 654.45,339.90 654.80,335.72 655.15,331.20 655.50,330.09 655.85,329.06 656.20,331.73 656.55,333.33 656.90,334.33 657.25,331.05 657.60,328.29 657.95,327.98 658.30,324.45 658.65,328.72 659.00,326.25 659.35,324.22 659.70,327.92 660.05,326.30 660.40,331.74 660.75,329.71 661.10,329.25 661.45,333.79 661.80,329.82 662.15,330.20 662.50,325.01 662.85,319.62 663.20,315.72 663.55,311.51 663.90,313.56 664.25,309.85 664.60,313.24 664.95,308.76 665.30,308.86 665.65,309.81 666.00,308.27 666.35,304.91 666.70,302.68 667.05,304.73 667.40,301.36 667.75,305.15 668.10,306.47 668.45,301.91 668.80,301.19 669.15,301.08 669.50,303.11 669.85,304.34 670.20,301.51 670.55,300.91 670.90,301.24 671.25,298.94 671.60,301.05 671.95,295.83 672.30,294.07 672.65,299.36 673.00,300.41 673.35,298.81 673.70,298.03 674.05,299.15 674.40,302.89 674.75,300.98 675.10,305.04 675.45,306.17 675.80,305.20 676.15,299.48 676.50,297.59 676.85,301.63 677.20,302.52 677.55,299.31 677.90,298.70 678.25,303.23 678.60,301.45 678.95,297.83 679.30,294.76 679.65,295.00 680.00,289.26 680.35,285.41 680.70,284.00 681.05,283.65 681.40,284.75 681.75,289.77 682.10,279.70 682.45,280.34 682.80,277.93 683.15,273.32 683.50,265.48 683.85,259.31 684.20,265.09 684.55,265.65 684.90,265.29 685.25,270.05 685.60,269.28 685.95,267.57 686.30,265.71 686.65,271.59 687.00,273.19 687.35,269.74 687.70,270.40 688.05,265.42 688.40,265.26 688.75,269.70 689.10,266.95 689.45,262.15 689.80,266.15 690.15,268.50 690.50,270.72 690.85,271.29 691.20,274.57 691.55,281.01 691.90,283.46 692.25,293.35 692.60,294.12 692.95,298.03 693.30,292.38 693.65,292.05 694.00,293.61 694.35,287.30 694.70,284.37 695.05,278.31 695.40,282.21 695.75,285.63 696.10,281.22 696.45,279.51 696.80,281.58 697.15,282.97 697.50,282.77 697.85,277.06 698.20,276.81 698.55,278.56 698.90,276.35 699.25,276.01 699.60,283.44 699.95,287.41 700.30,290.03 700.65,276.59 701.00,280.01 701.35,277.09 701.70,277.82 702.05,273.91 702.40,275.37 702.75,263.51 703.10,258.65 703.45,259.99 703.80,262.88 704.15,258.71 704.50,259.19 704.85,256.30 705.20,259.87 705.55,261.10 705.90,264.90 706.25,265.63 706.60,266.69 706.95,275.01 707.30,275.39 707.65,277.04 708.00,275.84 708.35,271.07 708.70,272.82 709.05,272.00 709.40,272.10 709.75,274.79 710.10,274.63 710.45,268.95 710.80,272.13 711.15,266.60 711.50,267.22 711.85,268.75 712.20,267.69 712.55,266.50 712.90,272.48 713.25,272.76 713.60,276.47 713.95,270.09 714.30,265.19 714.65,274.04 715.00,267.22 715.35,262.92 715.70,261.91 716.05,266.46 716.40,269.03 716.75,264.34 717.10,263.66 717.45,269.79 717.80,269.78 718.15,268.18 718.50,253.50 718.85,259.24 719.20,259.66 719.55,260.29 719.90,257.67 720.25,260.36 720.60,263.43 720.95,264.77 721.30,264.33 721.65,263.52 722.00,270.13 722.35,267.48 722.70,267.74 723.05,265.45 723.40,266.47 723.75,259.81 724.10,255.69 724.45,261.22 724.80,258.68 725.15,258.53 725.50,258.67 725.85,255.93 726.20,262.94 726.55,259.77 726.90,253.43 727.25,253.99 727.60,254.15 727.95,247.97 728.30,250.47 728.65,248.89 729.00,254.23 729.35,255.47 729.70,251.29 730.05,246.99 730.40,248.39 730.75,245.55 731.10,247.95 731.45,243.23 731.80,242.31 732.15,239.77 732.50,241.04 732.85,245.09 733.20,249.59 733.55,254.09 733.90,240.61 734.25,235.77 734.60,230.98 734.95,237.01 735.30,237.55 735.65,240.43 736.00,235.85 736.35,242.43 736.70,239.07 737.05,232.96 737.40,235.70 737.75,242.56 738.10,237.78 738.45,234.74 738.80,234.15 739.15,236.72 739.50,234.42 739.85,235.98 740.20,241.25 740.55,239.91 740.90,241.15 741.25,243.88 741.60,241.51 741.95,245.72 742.30,243.23 742.65,254.73 743.00,259.02 743.35,259.66 743.70,265.35 744.05,279.01 744.40,284.27 744.75,273.03 745.10,270.77 745.45,267.34 745.80,261.56 746.15,257.91 746.50,244.05 746.85,242.38 747.20,244.61 747.55,251.15 747.90,250.95 748.25,250.16 748.60,241.58 748.95,232.67 749.30,232.66 749.65,232.60 750.00,224.51 750.35,223.36 750.70,225.57 751.05,234.83 751.40,232.88 751.75,230.97 752.10,221.04 752.45,223.98 752.80,224.94 753.15,231.94 753.50,234.94 753.85,241.11 754.20,235.98 754.55,242.26 754.90,249.01 755.25,253.82 755.60,259.05 755.95,262.03 756.30,260.21 756.65,260.47 757.00,253.63 757.35,255.32 757.70,258.80 758.05,256.50 758.40,248.68 758.75,241.05 759.10,229.33 759.45,233.46 759.80,239.29 760.15,241.23 760.50,245.62 760.85,246.82 761.20,237.96 761.55,236.84 761.90,230.75 762.25,228.70 762.60,226.88 762.95,235.42 763.30,236.91 763.65,241.13 764.00,248.88 764.35,247.43 764.70,241.64 765.05,239.90 765.40,239.87 765.75,236.38 766.10,228.87 766.45,228.21 766.80,228.96 767.15,224.49 767.50,226.59 767.85,226.40 768.20,229.96 768.55,233.90 768.90,236.02 769.25,237.27 769.60,241.17 769.95,241.49 770.30,245.59 770.65,246.87 771.00,250.08 771.35,241.09 771.70,249.52 772.05,248.83 772.40,241.96 772.75,250.53 773.10,256.81 773.45,248.19 773.80,251.22 774.15,249.56 774.50,251.07 774.85,251.80 775.20,243.79 775.55,246.02 775.90,240.29 776.25,235.91 776.60,230.69 776.95,226.99 777.30,228.79 777.65,218.46 778.00,222.13 778.35,221.59 778.70,232.68 779.05,239.40 779.40,241.24 779.75,236.55 780.10,247.62 780.45,237.70 780.80,232.59 781.15,233.94 781.50,242.31 781.85,239.56 782.20,232.02 782.55,236.43 782.90,237.34 783.25,238.92 783.60,241.82 783.95,235.18 784.30,242.89 784.65,241.45 785.00,246.16"/>
<line x1="813" y1="102" x2="839" y2="102" stroke="#059669" stroke-width="3"/>
<text x="847" y="106" font-family="Arial" font-size="13" fill="#111827">trending</text>
<text x="435.0" y="518" text-anchor="middle" font-family="Arial" font-size="14" fill="#111827">Event index</text>
<text x="22" y="256.0" text-anchor="middle" transform="rotate(-90 22 256.0)" font-family="Arial" font-size="14" fill="#111827">Net PnL after fees</text>
</svg>
