<svg xmlns="http://www.w3.org/2000/svg" width="900" height="520" viewBox="0 0 900 520">
<rect width="100%" height="100%" fill="#ffffff"/>
<text x="450.0" y="24" text-anchor="middle" font-family="Arial" font-size="18" fill="#111827">Order Processing Latency CDF</text>
<line x1="80" y1="450" x2="870" y2="450" stroke="#111827" stroke-width="1"/>
<line x1="80" y1="35" x2="80" y2="450" stroke="#111827" stroke-width="1"/>
<line x1="80.00" y1="35" x2="80.00" y2="450" stroke="#e5e7eb" stroke-width="1"/>
<text x="80.00" y="474" text-anchor="middle" font-family="Arial" font-size="12" fill="#374151">0.00</text>
<line x1="277.50" y1="35" x2="277.50" y2="450" stroke="#e5e7eb" stroke-width="1"/>
<text x="277.50" y="474" text-anchor="middle" font-family="Arial" font-size="12" fill="#374151">970.80</text>
<line x1="475.00" y1="35" x2="475.00" y2="450" stroke="#e5e7eb" stroke-width="1"/>
<text x="475.00" y="474" text-anchor="middle" font-family="Arial" font-size="12" fill="#374151">1941.60</text>
<line x1="672.50" y1="35" x2="672.50" y2="450" stroke="#e5e7eb" stroke-width="1"/>
<text x="672.50" y="474" text-anchor="middle" font-family="Arial" font-size="12" fill="#374151">2912.41</text>
<line x1="870.00" y1="35" x2="870.00" y2="450" stroke="#e5e7eb" stroke-width="1"/>
<text x="870.00" y="474" text-anchor="middle" font-family="Arial" font-size="12" fill="#374151">3883.21</text>
<line x1="80" y1="450.00" x2="870" y2="450.00" stroke="#e5e7eb" stroke-width="1"/>
<text x="68" y="454.00" text-anchor="end" font-family="Arial" font-size="12" fill="#374151">0.00</text>
<line x1="80" y1="346.25" x2="870" y2="346.25" stroke="#e5e7eb" stroke-width="1"/>
<text x="68" y="350.25" text-anchor="end" font-family="Arial" font-size="12" fill="#374151">0.25</text>
<line x1="80" y1="242.50" x2="870" y2="242.50" stroke="#e5e7eb" stroke-width="1"/>
<text x="68" y="246.50" text-anchor="end" font-family="Arial" font-size="12" fill="#374151">0.50</text>
<line x1="80" y1="138.75" x2="870" y2="138.75" stroke="#e5e7eb" stroke-width="1"/>
<text x="68" y="142.75" text-anchor="end" font-family="Arial" font-size="12" fill="#374151">0.75</text>
<line x1="80" y1="35.00" x2="870" y2="35.00" stroke="#e5e7eb" stroke-width="1"/>
<text x="68" y="39.00" text-anchor="end" font-family="Arial" font-size="12" fill="#374151">1.00</text>
<polyline fill="none" stroke="#2563eb" stroke-width="2" points="80.00,450.00 80.01,449.58 80.01,449.17 80.01,448.75 80.01,448.34 80.01,447.92 80.01,447.51 80.01,447.09 80.01,446.68 80.01,446.26 80.01,445.85 80.01,445.43 80.01,445.02 80.01,444.60 80.01,444.18 80.01,443.77 80.01,443.35 80.01,442.94 80.01,442.52 80.01,442.11 80.01,441.69 80.01,441.28 80.01,440.86 80.01,440.45 80.01,440.03 80.01,439.61 80.01,439.20 80.01,438.78 80.01,438.37 80.01,437.95 80.01,437.54 80.01,437.12 80.01,436.71 80.01,436.29 80.01,435.88 80.01,435.46 80.01,435.05 80.01,434.63 80.01,434.21 80.01,433.80 80.01,433.38 80.01,432.97 80.01,432.55 80.01,432.14 80.01,431.72 80.01,431.31 80.01,430.89 80.01,430.48 80.01,430.06 80.01,429.64 80.01,429.23 80.01,428.81 80.01,428.40 80.01,427.98 80.01,427.57 80.01,427.15 80.01,426.74 80.01,426.32 80.01,425.91 80.01,425.49 80.01,425.08 80.01,424.66 80.01,424.24 80.01,423.83 80.01,423.41 80.01,423.00 80.01,422.58 80.01,422.17 80.01,421.75 80.01,421.34 80.01,420.92 80.01,420.51 80.01,420.09 80.01,419.67 80.01,419.26 80.01,418.84 80.01,418.43 80.01,418.01 80.01,417.60 80.01,417.18 80.01,416.77 80.01,416.35 80.01,415.94 80.01,415.52 80.01,415.11 80.01,414.69 80.01,414.27 80.01,413.86 80.01,413.44 80.01,413.03 80.01,412.61 80.01,412.20 80.01,411.78 80.01,411.37 80.01,410.95 80.01,410.54 80.01,410.12 80.01,409.70 80.01,409.29 80.01,408.87 80.01,408.46 80.01,408.04 80.01,407.63 80.01,407.21 80.02,406.80 80.02,406.38 80.02,405.97 80.02,405.55 80.02,405.14 80.02,404.72 80.02,404.30 80.02,403.89 80.02,403.47 80.02,403.06 80.02,402.64 80.02,402.23 80.02,401.81 80.02,401.40 80.02,400.98 80.02,400.57 80.02,400.15 80.02,399.73 80.02,399.32 80.02,398.90 80.02,398.49 80.02,398.07 80.02,397.66 80.02,397.24 80.02,396.83 80.02,396.41 80.02,396.00 80.02,395.58 80.02,395.17 80.02,394.75 80.02,394.33 80.02,393.92 80.02,393.50 80.02,393.09 80.02,392.67 80.02,392.26 80.02,391.84 80.02,391.43 80.02,391.01 80.02,390.60 80.02,390.18 80.02,389.76 80.02,389.35 80.02,388.93 80.02,388.52 80.02,388.10 80.02,387.69 80.02,387.27 80.02,386.86 80.02,386.44 80.02,386.03 80.02,385.61 80.02,385.20 80.02,384.78 80.02,384.36 80.02,383.95 80.02,383.53 80.02,383.12 80.02,382.70 80.02,382.29 80.02,381.87 80.02,381.46 80.02,381.04 80.02,380.63 80.02,380.21 80.02,379.79 80.02,379.38 80.02,378.96 80.02,378.55 80.02,378.13 80.02,377.72 80.02,377.30 80.02,376.89 80.02,376.47 80.02,376.06 80.02,375.64 80.02,375.23 80.02,374.81 80.02,374.39 80.02,373.98 80.02,373.56 80.02,373.15 80.02,372.73 80.02,372.32 80.02,371.90 80.02,371.49 80.02,371.07 80.02,370.66 80.02,370.24 80.02,369.82 80.02,369.41 80.02,368.99 80.02,368.58 80.02,368.16 80.02,367.75 80.02,367.33 80.02,366.92 80.02,366.50 80.02,366.09 80.02,365.67 80.02,365.26 80.02,364.84 80.02,364.42 80.02,364.01 80.02,363.59 80.02,363.18 80.02,362.76 80.02,362.35 80.02,361.93 80.02,361.52 80.02,361.10 80.02,360.69 80.02,360.27 80.02,359.85 80.02,359.44 80.02,359.02 80.02,358.61 80.02,358.19 80.02,357.78 80.02,357.36 80.02,356.95 80.02,356.53 80.02,356.12 80.02,355.70 80.02,355.29 80.02,354.87 80.02,354.45 80.02,354.04 80.02,353.62 80.02,353.21 80.02,352.79 80.02,352.38 80.02,351.96 80.02,351.55 80.02,351.13 80.02,350.72 80.02,350.30 80.02,349.88 80.02,349.47 80.02,349.05 80.02,348.64 80.02,348.22 80.02,347.81 80.02,347.39 80.02,346.98 80.02,346.56 80.02,346.15 80.02,345.73 80.02,345.32 80.02,344.90 80.02,344.48 80.02,344.07 80.02,343.65 80.02,343.24 80.02,342.82 80.02,342.41 80.02,341.99 80.02,341.58 80.02,341.16 80.02,340.75 80.02,340.33 80.02,339.91 80.02,339.50 80.02,339.08 80.02,338.67 80.02,338.25 80.02,337.84 80.02,337.42 80.02,337.01 80.02,336.59 80.02,336.18 80.02,335.76 80.02,335.35 80.02,334.93 80.02,334.51 80.02,334.10 80.02,333.68 80.02,333.27 80.02,332.85 80.02,332.44 80.02,332.02 80.02,331.61 80.02,331.19 80.02,330.78 80.02,330.36 80.02,329.94 80.02,329.53 80.02,329.11 80.02,328.70 80.02,328.28 80.02,327.87 80.02,327.45 80.02,327.04 80.02,326.62 80.02,326.21 80.02,325.79 80.02,325.38 80.02,324.96 80.02,324.54 80.02,324.13 80.02,323.71 80.02,323.30 80.02,322.88 80.02,322.47 80.02,322.05 80.02,321.64 80.02,321.22 80.02,320.81 80.02,320.39 80.02,319.97 80.02,319.56 80.02,319.14 80.02,318.73 80.02,318.31 80.02,317.90 80.02,317.48 80.02,317.07 80.02,316.65 80.02,316.24 80.02,315.82 80.02,315.41 80.02,314.99 80.02,314.57 80.02,314.16 80.02,313.74 80.02,313.33 80.02,312.91 80.02,312.50 80.02,312.08 80.02,311.67 80.02,311.25 80.02,310.84 80.02,310.42 80.02,310.01 80.02,309.59 80.02,309.17 80.02,308.76 80.02,308.34 80.02,307.93 80.02,307.51 80.02,307.10 80.02,306.68 80.02,306.27 80.02,305.85 80.02,305.44 80.02,305.02 80.02,304.60 80.02,304.19 80.02,303.77 80.02,303.36 80.02,302.94 80.02,302.53 80.02,302.11 80.02,301.70 80.02,301.28 80.02,300.87 80.02,300.45 80.02,300.04 80.02,299.62 80.02,299.20 80.02,298.79 80.02,298.37 80.02,297.96 80.02,297.54 80.02,297.13 80.02,296.71 80.02,296.30 80.02,295.88 80.02,295.47 80.02,295.05 80.02,294.63 80.02,294.22 80.02,293.80 80.02,293.39 80.02,292.97 80.02,292.56 80.02,292.14 80.02,291.73 80.02,291.31 80.02,290.90 80.02,290.48 80.02,290.07 80.02,289.65 80.02,289.23 80.02,288.82 80.02,288.40 80.02,287.99 80.02,287.57 80.02,287.16 80.02,286.74 80.02,286.33 80.02,285.91 80.02,285.50 80.02,285.08 80.02,284.66 80.02,284.25 80.02,283.83 80.02,283.42 80.02,283.00 80.02,282.59 80.02,282.17 80.02,281.76 80.02,281.34 80.02,280.93 80.02,280.51 80.02,280.10 80.02,279.68 80.02,279.26 80.02,278.85 80.02,278.43 80.02,278.02 80.02,277.60 80.02,277.19 80.02,276.77 80.02,276.36 80.02,275.94 80.02,275.53 80.02,275.11 80.02,274.69 80.02,274.28 80.02,273.86 80.02,273.45 80.02,273.03 80.02,272.62 80.02,272.20 80.02,271.79 80.02,271.37 80.02,270.96 80.02,270.54 80.02,270.13 80.02,269.71 80.02,269.29 80.02,268.88 80.02,268.46 80.02,268.05 80.02,267.63 80.02,267.22 80.02,266.80 80.02,266.39 80.02,265.97 80.02,265.56 80.02,265.14 80.02,264.72 80.02,264.31 80.02,263.89 80.02,263.48 80.02,263.06 80.02,262.65 80.02,262.23 80.02,261.82 80.02,261.40 80.02,260.99 80.02,260.57 80.02,260.16 80.02,259.74 80.02,259.32 80.02,258.91 80.02,258.49 80.02,258.08 80.02,257.66 80.02,257.25 80.02,256.83 80.02,256.42 80.02,256.00 80.02,255.59 80.02,255.17 80.02,254.75 80.02,254.34 80.02,253.92 80.02,253.51 80.02,253.09 80.02,252.68 80.02,252.26 80.02,251.85 80.02,251.43 80.02,251.02 80.02,250.60 80.02,250.19 80.02,249.77 80.02,249.35 80.02,248.94 80.02,248.52 80.02,248.11 80.02,247.69 80.02,247.28 80.02,246.86 80.02,246.45 80.02,246.03 80.02,245.62 80.02,245.20 80.02,244.78 80.02,244.37 80.02,243.95 80.02,243.54 80.02,243.12 80.02,242.71 80.02,242.29 80.02,241.88 80.02,241.46 80.02,241.05 80.02,240.63 80.02,240.22 80.02,239.80 80.02,239.38 80.02,238.97 80.02,238.55 80.02,238.14 80.02,237.72 80.02,237.31 80.02,236.89 80.02,236.48 80.03,236.06 80.03,235.65 80.03,235.23 80.03,234.81 80.03,234.40 80.03,233.98 80.03,233.57 80.03,233.15 80.03,232.74 80.03,232.32 80.03,231.91 80.03,231.49 80.03,231.08 80.03,230.66 80.03,230.25 80.03,229.83 80.03,229.41 80.03,229.00 80.03,228.58 80.03,228.17 80.03,227.75 80.03,227.34 80.03,226.92 80.03,226.51 80.03,226.09 80.03,225.68 80.03,225.26 80.03,224.84 80.03,224.43 80.03,224.01 80.03,223.60 80.03,223.18 80.03,222.77 80.03,222.35 80.03,221.94 80.03,221.52 80.03,221.11 80.03,220.69 80.03,220.28 80.03,219.86 80.03,219.44 80.03,219.03 80.03,218.61 80.03,218.20 80.03,217.78 80.03,217.37 80.03,216.95 80.03,216.54 80.03,216.12 80.03,215.71 80.03,215.29 80.03,214.87 80.03,214.46 80.03,214.04 80.03,213.63 80.03,213.21 80.03,212.80 80.03,212.38 80.03,211.97 80.03,211.55 80.03,211.14 80.03,210.72 80.03,210.31 80.03,209.89 80.03,209.47 80.03,209.06 80.03,208.64 80.03,208.23 80.03,207.81 80.03,207.40 80.03,206.98 80.03,206.57 80.03,206.15 80.03,205.74 80.03,205.32 80.03,204.90 80.03,204.49 80.03,204.07 80.03,203.66 80.03,203.24 80.03,202.83 80.03,202.41 80.03,202.00 80.03,201.58 80.03,201.17 80.03,200.75 80.03,200.34 80.03,199.92 80.03,199.50 80.03,199.09 80.03,198.67 80.03,198.26 80.03,197.84 80.03,197.43 80.03,197.01 80.03,196.60 80.03,196.18 80.03,195.77 80.03,195.35 80.03,194.93 80.03,194.52 80.03,194.10 80.03,193.69 80.03,193.27 80.03,192.86 80.03,192.44 80.03,192.03 80.03,191.61 80.03,191.20 80.03,190.78 80.03,190.37 80.03,189.95 80.03,189.53 80.03,189.12 80.03,188.70 80.03,188.29 80.03,187.87 80.03,187.46 80.03,187.04 80.03,186.63 80.03,186.21 80.03,185.80 80.03,185.38 80.03,184.96 80.03,184.55 80.03,184.13 80.03,183.72 80.03,183.30 80.03,182.89 80.03,182.47 80.03,182.06 80.03,181.64 80.03,181.23 80.03,180.81 80.03,180.40 80.03,179.98 80.03,179.56 80.03,179.15 80.03,178.73 80.03,178.32 80.03,177.90 80.03,177.49 80.03,177.07 80.03,176.66 80.03,176.24 80.03,175.83 80.03,175.41 80.03,174.99 80.03,174.58 80.03,174.16 80.03,173.75 80.03,173.33 80.03,172.92 80.03,172.50 80.03,172.09 80.03,171.67 80.03,171.26 80.03,170.84 80.03,170.43 80.03,170.01 80.03,169.59 80.03,169.18 80.03,168.76 80.03,168.35 80.03,167.93 80.03,167.52 80.03,167.10 80.03,166.69 80.03,166.27 80.03,165.86 80.03,165.44 80.03,165.03 80.03,164.61 80.03,164.19 80.03,163.78 80.03,163.36 80.03,162.95 80.03,162.53 80.03,162.12 80.03,161.70 80.03,161.29 80.03,160.87 80.03,160.46 80.03,160.04 80.03,159.62 80.03,159.21 80.03,158.79 80.03,158.38 80.03,157.96 80.03,157.55 80.03,157.13 80.03,156.72 80.03,156.30 80.03,155.89 80.03,155.47 80.03,155.06 80.03,154.64 80.03,154.22 80.03,153.81 80.03,153.39 80.03,152.98 80.03,152.56 80.03,152.15 80.03,151.73 80.03,151.32 80.03,150.90 80.03,150.49 80.03,150.07 80.03,149.65 80.03,149.24 80.03,148.82 80.03,148.41 80.03,147.99 80.03,147.58 80.03,147.16 80.03,146.75 80.03,146.33 80.03,145.92 80.03,145.50 80.03,145.09 80.03,144.67 80.03,144.25 80.03,143.84 80.03,143.42 80.03,143.01 80.03,142.59 80.03,142.18 80.03,141.76 80.03,141.35 80.03,140.93 80.03,140.52 80.03,140.10 80.03,139.68 80.03,139.27 80.03,138.85 80.03,138.44 80.03,138.02 80.03,137.61 80.03,137.19 80.03,136.78 80.03,136.36 80.03,135.95 80.03,135.53 80.03,135.12 80.03,134.70 80.04,134.28 80.04,133.87 80.04,133.45 80.04,133.04 80.04,132.62 80.04,132.21 80.04,131.79 80.04,131.38 80.04,130.96 80.04,130.55 80.04,130.13 80.04,129.71 80.04,129.30 80.04,128.88 80.04,128.47 80.04,128.05 80.04,127.64 80.04,127.22 80.04,126.81 80.04,126.39 80.04,125.98 80.04,125.56 80.04,125.15 80.04,124.73 80.04,124.31 80.04,123.90 80.04,123.48 80.04,123.07 80.04,122.65 80.04,122.24 80.04,121.82 80.04,121.41 80.04,120.99 80.04,120.58 80.04,120.16 80.04,119.74 80.04,119.33 80.04,118.91 80.04,118.50 80.04,118.08 80.04,117.67 80.04,117.25 80.04,116.84 80.04,116.42 80.04,116.01 80.04,115.59 80.04,115.18 80.04,114.76 80.04,114.34 80.04,113.93 80.05,113.51 80.05,113.10 80.05,112.68 80.05,112.27 80.05,111.85 80.05,111.44 80.05,111.02 80.05,110.61 80.05,110.19 80.05,109.77 80.05,109.36 80.05,108.94 80.05,108.53 80.05,108.11 80.05,107.70 80.05,107.28 80.05,106.87 80.05,106.45 80.05,106.04 80.05,105.62 80.05,105.21 80.05,104.79 80.05,104.37 80.05,103.96 80.05,103.54 80.05,103.13 80.05,102.71 80.05,102.30 80.05,101.88 80.05,101.47 80.05,101.05 80.05,100.64 80.05,100.22 80.05,99.80 80.05,99.39 80.05,98.97 80.05,98.56 80.05,98.14 80.05,97.73 80.05,97.31 80.05,96.90 80.05,96.48 80.05,96.07 80.05,95.65 80.05,95.24 80.05,94.82 80.05,94.40 80.06,93.99 80.06,93.57 80.06,93.16 80.06,92.74 80.06,92.33 80.06,91.91 80.06,91.50 80.06,91.08 80.06,90.67 80.06,90.25 80.06,89.83 80.06,89.42 80.06,89.00 80.06,88.59 80.06,88.17 80.06,87.76 80.06,87.34 80.06,86.93 80.06,86.51 80.06,86.10 80.06,85.68 80.06,85.27 80.06,84.85 80.06,84.43 80.06,84.02 80.06,83.60 80.06,83.19 80.06,82.77 80.06,82.36 80.06,81.94 80.06,81.53 80.07,81.11 80.07,80.70 80.07,80.28 80.07,79.86 80.07,79.45 80.07,79.03 80.07,78.62 80.07,78.20 80.07,77.79 80.07,77.37 80.07,76.96 80.07,76.54 80.07,76.13 80.07,75.71 80.07,75.30 80.07,74.88 80.07,74.46 80.07,74.05 80.07,73.63 80.07,73.22 80.07,72.80 80.07,72.39 80.07,71.97 80.07,71.56 80.07,71.14 80.07,70.73 80.08,70.31 80.08,69.89 80.08,69.48 80.08,69.06 80.08,68.65 80.08,68.23 80.08,67.82 80.08,67.40 80.08,66.99 80.08,66.57 80.08,66.16 80.08,65.74 80.08,65.33 80.08,64.91 80.08,64.49 80.08,64.08 80.08,63.66 80.08,63.25 80.08,62.83 80.08,62.42 80.08,62.00 80.08,61.59 80.08,61.17 80.08,60.76 80.08,60.34 80.08,59.92 80.08,59.51 80.08,59.09 80.08,58.68 80.08,58.26 80.08,57.85 80.08,57.43 80.08,57.02 80.09,56.60 80.09,56.19 80.09,55.77 80.09,55.36 80.09,54.94 80.09,54.52 80.09,54.11 80.09,53.69 80.09,53.28 80.09,52.86 80.09,52.45 80.10,52.03 80.10,51.62 80.10,51.20 80.10,50.79 80.10,50.37 80.10,49.95 80.10,49.54 80.10,49.12 80.11,48.71 80.11,48.29 80.11,47.88 80.11,47.46 80.11,47.05 80.11,46.63 80.11,46.22 80.12,45.80 80.12,45.39 80.12,44.97 80.12,44.55 80.12,44.14 80.13,43.72 80.13,43.31 80.13,42.89 80.13,42.48 80.13,42.06 80.14,41.65 80.14,41.23 80.14,40.82 80.14,40.40 80.14,39.98 80.15,39.57 80.16,39.15 80.16,38.74 80.17,38.32 80.18,37.91 80.19,37.49 80.20,37.08 80.22,36.66 80.23,36.25 80.25,35.83 80.29,35.42 870.00,35.00"/>
<text x="475.0" y="498" text-anchor="middle" font-family="Arial" font-size="14" fill="#111827">Latency microseconds</text>
<text x="20" y="242.5" text-anchor="middle" transform="rotate(-90 20 242.5)" font-family="Arial" font-size="14" fill="#111827">Cumulative share</text>
</svg>
