<svg xmlns="http://www.w3.org/2000/svg" width="940" height="720" viewBox="0 0 940 720">
<rect width="100%" height="100%" fill="#ffffff"/>
<text x="470.0" y="26" text-anchor="middle" font-family="Arial" font-size="18" fill="#111827">Avellaneda Stoikov Trending Inventory And Reservation Skew</text>
<line x1="85" y1="228.67" x2="900" y2="228.67" stroke="#111827" stroke-width="1"/>
<line x1="85" y1="46.00" x2="85" y2="228.67" stroke="#111827" stroke-width="1"/>
<text x="73" y="60.00" text-anchor="end" font-family="Arial" font-size="12" fill="#111827">Inventory</text>
<line x1="85" y1="228.67" x2="900" y2="228.67" stroke="#e5e7eb" stroke-width="1"/>
<text x="73" y="232.67" text-anchor="end" font-family="Arial" font-size="11" fill="#374151">-18892</text>
<line x1="85" y1="137.33" x2="900" y2="137.33" stroke="#e5e7eb" stroke-width="1"/>
<text x="73" y="141.33" text-anchor="end" font-family="Arial" font-size="11" fill="#374151">6186</text>
<line x1="85" y1="46.00" x2="900" y2="46.00" stroke="#e5e7eb" stroke-width="1"/>
<text x="73" y="50.00" text-anchor="end" font-family="Arial" font-size="11" fill="#374151">31264</text>
<polyline fill="none" stroke="#2563eb" stroke-width="2" points="85.00,159.86 85.41,159.86 85.82,159.81 86.22,159.81 86.63,159.84 87.04,159.84 87.45,159.76 87.85,159.64 88.26,159.64 88.67,159.69 89.08,159.68 89.48,159.87 89.89,159.90 90.30,159.87 90.71,159.88 91.11,159.81 91.52,159.80 91.93,159.65 92.34,159.59 92.74,159.63 93.15,159.53 93.56,159.53 93.97,159.49 94.37,159.44 94.78,159.33 95.19,159.15 95.60,159.00 96.00,158.80 96.41,158.61 96.82,158.36 97.23,158.03 97.63,157.71 98.04,157.53 98.45,157.32 98.86,157.07 99.26,156.74 99.67,156.48 100.08,156.18 100.49,155.85 100.89,155.59 101.30,155.34 101.71,154.98 102.12,154.72 102.52,154.54 102.93,154.28 103.34,154.03 103.75,153.77 104.15,153.59 104.56,153.30 104.97,153.07 105.38,152.82 105.78,152.55 106.19,152.24 106.60,151.91 107.01,151.62 107.41,151.36 107.82,151.33 108.23,151.07 108.64,150.85 109.04,150.63 109.45,150.85 109.86,150.74 110.27,150.80 110.67,150.68 111.08,150.64 111.49,150.68 111.90,150.57 112.30,150.49 112.71,150.38 113.12,150.11 113.53,149.98 113.93,149.69 114.34,149.45 114.75,149.27 115.16,149.20 115.56,149.14 115.97,149.18 116.38,149.30 116.79,149.25 117.19,149.29 117.60,149.25 118.01,149.29 118.42,149.43 118.82,149.39 119.23,149.57 119.64,149.73 120.05,149.99 120.45,150.01 120.86,149.93 121.27,149.89 121.68,150.07 122.08,150.36 122.49,150.55 122.90,150.58 123.31,150.66 123.71,150.80 124.12,151.02 124.53,151.13 124.94,151.29 125.34,151.24 125.75,151.24 126.16,151.35 126.57,151.61 126.97,151.59 127.38,151.56 127.79,151.38 128.20,151.29 128.60,151.25 129.01,151.33 129.42,151.36 129.83,151.58 130.23,151.87 130.64,152.12 131.05,152.33 131.46,152.58 131.86,152.95 132.27,153.22 132.68,153.51 133.09,153.80 133.49,154.05 133.90,154.41 134.31,154.59 134.72,154.77 135.12,155.04 135.53,155.19 135.94,155.30 136.35,155.54 136.75,155.79 137.16,156.09 137.57,156.31 137.98,156.49 138.38,156.51 138.79,156.54 139.20,156.50 139.61,156.39 140.01,156.45 140.42,156.62 140.83,156.75 141.24,156.73 141.64,156.74 142.05,156.81 142.46,156.83 142.87,156.90 143.27,156.93 143.68,156.98 144.09,157.05 144.50,157.27 144.90,157.38 145.31,157.35 145.72,157.51 146.13,157.52 146.53,157.63 146.94,157.79 147.35,158.04 147.76,158.29 148.16,158.51 148.57,158.77 148.98,159.10 149.39,159.36 149.79,159.54 150.20,159.80 150.61,159.83 151.02,159.76 151.42,159.83 151.83,159.86 152.24,159.83 152.65,159.85 153.05,159.78 153.46,159.67 153.87,159.71 154.28,159.62 154.68,159.87 155.09,160.11 155.50,160.30 155.91,160.48 156.31,160.70 156.72,160.73 157.13,160.68 157.54,160.61 157.94,160.46 158.35,160.57 158.76,160.57 159.17,160.59 159.57,160.31 159.98,160.40 160.39,160.51 160.80,160.54 161.20,160.43 161.61,160.54 162.02,160.43 162.43,160.25 162.83,160.18 163.24,160.03 163.65,160.06 164.06,160.10 164.46,160.17 164.87,160.13 165.28,160.16 165.69,160.05 166.09,159.98 166.50,160.02 166.91,160.06 167.32,159.98 167.72,159.91 168.13,159.90 168.54,159.88 168.95,159.79 169.35,159.90 169.76,160.04 170.17,160.00 170.58,160.00 170.98,159.92 171.39,159.96 171.80,160.05 172.21,159.98 172.61,160.07 173.02,159.78 173.43,159.56 173.84,159.31 174.24,159.13 174.65,158.84 175.06,158.63 175.47,158.44 175.87,158.22 176.28,157.97 176.69,157.90 177.10,157.75 177.50,157.79 177.91,158.01 178.32,158.15 178.73,158.34 179.13,158.53 179.54,158.67 179.95,158.98 180.36,159.19 180.76,159.40 181.17,159.69 181.58,159.99 181.99,160.20 182.39,160.40 182.80,160.70 183.21,160.99 183.62,161.24 184.02,161.57 184.43,161.75 184.84,161.93 185.25,162.24 185.65,162.46 186.06,162.75 186.47,163.04 186.88,163.37 187.28,163.66 187.69,163.98 188.10,164.24 188.51,164.49 188.91,164.78 189.32,165.11 189.73,165.26 190.14,165.51 190.54,165.81 190.95,166.06 191.36,166.31 191.77,166.60 192.17,166.82 192.58,167.04 192.99,167.30 193.40,167.55 193.80,167.84 194.21,168.13 194.62,168.37 195.03,168.63 195.43,168.92 195.84,169.17 196.25,169.46 196.66,169.78 197.06,170.07 197.47,170.27 197.88,170.49 198.29,170.82 198.69,171.11 199.10,171.37 199.51,171.62 199.92,171.88 200.32,172.08 200.73,172.34 201.14,172.72 201.55,172.79 201.95,173.08 202.36,173.30 202.77,173.63 203.18,173.86 203.58,174.12 203.99,174.44 204.40,174.74 204.81,174.92 205.21,175.22 205.62,175.41 206.03,175.70 206.44,176.07 206.84,176.36 207.25,176.68 207.66,176.97 208.07,177.26 208.47,177.59 208.88,177.84 209.29,178.16 209.70,178.52 210.10,178.67 210.51,178.78 210.92,179.03 211.33,179.31 211.73,179.53 212.14,179.79 212.55,179.95 212.96,180.24 213.36,180.54 213.77,180.91 214.18,181.16 214.59,181.42 214.99,181.63 215.40,181.99 215.81,181.88 216.22,181.69 216.62,181.44 217.03,181.36 217.44,181.26 217.85,180.96 218.25,180.64 218.66,180.56 219.07,180.56 219.48,180.49 219.88,180.52 220.29,180.59 220.70,180.53 221.11,180.55 221.51,180.66 221.92,180.84 222.33,181.13 222.74,181.28 223.14,181.61 223.55,181.84 223.96,182.13 224.37,182.32 224.77,182.49 225.18,182.52 225.59,182.70 226.00,182.70 226.40,182.66 226.81,182.63 227.22,182.45 227.63,182.27 228.03,182.49 228.44,182.67 228.85,182.93 229.26,183.18 229.66,183.46 230.07,183.71 230.48,183.90 230.89,184.08 231.29,184.31 231.70,184.13 232.11,184.26 232.52,184.25 232.92,184.03 233.33,183.77 233.74,183.66 234.15,183.59 234.55,183.80 234.96,184.10 235.37,184.28 235.78,184.50 236.18,184.57 236.59,184.82 237.00,185.04 237.41,185.23 237.81,185.45 238.22,185.60 238.63,185.82 239.04,186.11 239.44,186.33 239.85,186.51 240.26,186.69 240.67,186.98 241.07,187.23 241.48,187.52 241.89,187.78 242.30,187.96 242.70,188.22 243.11,188.37 243.52,188.40 243.93,188.40 244.33,188.74 244.74,188.91 245.15,189.09 245.56,189.34 245.96,189.60 246.37,189.89 246.78,190.18 247.19,190.44 247.59,190.74 248.00,191.07 248.41,191.25 248.82,191.50 249.22,191.77 249.63,191.95 250.04,192.16 250.45,192.37 250.85,192.67 251.26,192.92 251.67,193.14 252.08,193.47 252.48,193.76 252.89,194.05 253.30,194.25 253.71,194.50 254.11,194.76 254.52,195.05 254.93,195.34 255.34,195.59 255.74,195.77 256.15,196.12 256.56,196.32 256.97,196.58 257.37,196.80 257.78,197.05 258.19,197.29 258.60,197.55 259.00,197.83 259.41,197.94 259.82,198.15 260.23,198.34 260.63,198.50 261.04,198.76 261.45,199.05 261.86,199.19 262.26,199.45 262.67,199.70 263.08,199.96 263.49,200.25 263.89,200.47 264.30,200.66 264.71,200.91 265.12,201.25 265.52,201.56 265.93,201.85 266.34,202.10 266.75,202.39 267.15,202.68 267.56,202.98 267.97,203.30 268.38,203.60 268.78,203.85 269.19,203.99 269.60,204.07 270.01,204.25 270.41,204.22 270.82,204.25 271.23,204.15 271.64,204.44 272.04,204.63 272.45,204.88 272.86,205.11 273.27,205.33 273.67,205.58 274.08,205.76 274.49,205.84 274.90,205.59 275.30,205.51 275.71,205.59 276.12,205.59 276.53,205.50 276.93,205.36 277.34,205.25 277.75,205.18 278.16,205.25 278.56,205.50 278.97,205.84 279.38,206.09 279.79,206.34 280.19,206.64 280.60,206.89 281.01,207.08 281.42,207.34 281.82,207.55 282.23,207.84 282.64,208.02 283.05,208.13 283.45,208.06 283.86,207.83 284.27,208.01 284.68,208.19 285.08,208.37 285.49,208.55 285.90,208.48 286.31,208.55 286.71,208.77 287.12,208.95 287.53,209.20 287.94,209.49 288.34,209.57 288.75,209.36 289.16,209.36 289.57,209.40 289.97,209.51 290.38,209.62 290.79,209.67 291.20,209.87 291.60,210.13 292.01,210.39 292.42,210.76 292.83,210.80 293.23,210.98 293.64,211.23 294.05,211.49 294.46,211.76 294.86,212.05 295.27,212.27 295.68,212.49 296.09,212.67 296.49,212.96 296.90,213.21 297.31,213.21 297.72,213.40 298.12,213.40 298.53,213.51 298.94,213.50 299.35,213.21 299.75,212.92 300.16,212.59 300.57,212.34 300.98,212.05 301.38,211.84 301.79,211.59 302.20,211.39 302.61,211.35 303.01,211.39 303.42,211.14 303.83,211.21 304.24,211.22 304.64,211.04 305.05,210.78 305.46,210.64 305.87,210.60 306.27,210.65 306.68,210.44 307.09,210.44 307.50,210.42 307.90,210.35 308.31,210.24 308.72,210.02 309.13,209.87 309.53,209.74 309.94,209.78 310.35,209.96 310.76,210.18 311.16,210.47 311.57,210.84 311.98,210.88 312.39,210.93 312.79,210.97 313.20,211.22 313.61,211.55 314.02,211.73 314.42,211.56 314.83,211.82 315.24,212.14 315.65,212.33 316.05,212.46 316.46,212.75 316.87,212.94 317.28,213.27 317.68,213.49 318.09,213.74 318.50,213.85 318.91,214.07 319.31,214.33 319.72,214.55 320.13,214.81 320.54,215.03 320.94,215.25 321.35,215.25 321.76,215.13 322.17,214.98 322.57,214.65 322.98,214.36 323.39,214.10 323.80,214.10 324.20,213.86 324.61,213.86 325.02,213.68 325.43,213.57 325.83,213.39 326.24,213.39 326.65,213.57 327.06,213.79 327.46,213.89 327.87,214.14 328.28,214.31 328.69,214.56 329.09,214.78 329.50,214.90 329.91,215.05 330.32,215.19 330.72,215.52 331.13,215.78 331.54,216.07 331.95,215.92 332.35,215.78 332.76,215.61 333.17,215.36 333.58,215.09 333.98,214.85 334.39,214.55 334.80,214.62 335.21,214.52 335.61,214.31 336.02,214.09 336.43,214.16 336.84,214.07 337.24,213.77 337.65,213.43 338.06,213.21 338.47,213.10 338.87,213.06 339.28,212.95 339.69,212.70 340.10,212.62 340.50,212.42 340.91,212.33 341.32,212.18 341.73,212.16 342.13,211.92 342.54,211.65 342.95,211.44 343.36,211.15 343.76,210.90 344.17,210.67 344.58,210.35 344.99,210.17 345.39,209.87 345.80,209.62 346.21,209.36 346.62,209.18 347.02,208.91 347.43,208.69 347.84,208.40 348.25,208.11 348.65,207.78 349.06,207.52 349.47,207.24 349.88,206.88 350.28,206.59 350.69,206.29 351.10,206.08 351.51,205.86 351.91,205.66 352.32,205.37 352.73,205.07 353.14,204.78 353.54,204.57 353.95,204.31 354.36,204.12 354.77,203.94 355.17,203.61 355.58,203.39 355.99,203.17 356.40,202.91 356.80,202.63 357.21,202.39 357.62,202.34 358.03,202.01 358.43,201.74 358.84,201.45 359.25,201.19 359.66,201.00 360.06,200.75 360.47,200.38 360.88,200.09 361.29,199.88 361.69,199.55 362.10,199.29 362.51,199.05 362.92,198.84 363.32,198.48 363.73,198.11 364.14,197.91 364.55,197.62 364.95,197.33 365.36,197.02 365.77,196.77 366.18,196.48 366.58,196.18 366.99,195.86 367.40,195.62 367.81,195.30 368.21,194.90 368.62,194.61 369.03,194.28 369.44,193.99 369.84,193.80 370.25,193.51 370.66,193.22 371.07,192.92 371.47,192.60 371.88,192.24 372.29,192.06 372.70,191.84 373.10,191.58 373.51,191.29 373.92,191.09 374.33,190.80 374.73,190.51 375.14,190.26 375.55,189.93 375.96,189.68 376.36,189.38 376.77,189.09 377.18,188.80 377.59,188.54 377.99,188.32 378.40,188.01 378.81,187.68 379.22,187.50 379.62,187.28 380.03,187.06 380.44,186.77 380.85,186.48 381.25,186.26 381.66,186.01 382.07,185.76 382.48,185.54 382.88,185.25 383.29,185.02 383.70,184.88 384.11,184.66 384.51,184.42 384.92,184.20 385.33,183.94 385.74,183.65 386.14,183.42 386.55,183.09 386.96,182.73 387.37,182.50 387.77,182.29 388.18,181.99 388.59,181.73 389.00,181.44 389.40,181.19 389.81,180.88 390.22,180.73 390.63,180.48 391.03,180.22 391.44,180.04 391.85,179.86 392.26,179.61 392.66,179.28 393.07,179.03 393.48,178.70 393.89,178.41 394.29,178.12 394.70,177.86 395.11,177.65 395.52,177.32 395.92,177.03 396.33,176.77 396.74,176.48 397.15,176.20 397.55,176.06 397.96,175.95 398.37,175.66 398.78,175.77 399.18,176.08 399.59,176.38 400.00,176.62 400.41,176.80 400.81,176.91 401.22,176.72 401.63,176.69 402.04,176.69 402.44,176.72 402.85,176.64 403.26,176.82 403.67,176.78 404.07,176.75 404.48,176.68 404.89,176.63 405.30,176.42 405.70,176.16 406.11,175.87 406.52,175.87 406.93,175.91 407.33,175.87 407.74,175.92 408.15,175.86 408.56,175.82 408.96,175.75 409.37,175.61 409.78,175.57 410.19,175.54 410.59,175.46 411.00,175.36 411.41,175.17 411.82,174.97 412.22,174.75 412.63,174.46 413.04,174.11 413.45,174.03 413.85,173.78 414.26,173.67 414.67,173.45 415.08,173.20 415.48,172.94 415.89,172.60 416.30,172.27 416.71,171.94 417.11,171.69 417.52,171.32 417.93,171.03 418.34,170.81 418.74,170.60 419.15,170.30 419.56,170.09 419.97,169.72 420.37,169.65 420.78,169.67 421.19,169.63 421.60,169.63 422.00,169.56 422.41,169.55 422.82,169.51 423.23,169.56 423.63,169.52 424.04,169.52 424.45,169.51 424.86,169.55 425.26,169.46 425.67,169.51 426.08,169.32 426.49,169.10 426.89,168.83 427.30,168.65 427.71,168.36 428.12,168.17 428.52,168.03 428.93,167.81 429.34,167.50 429.75,167.18 430.15,166.91 430.56,166.73 430.97,166.44 431.38,166.41 431.78,166.09 432.19,165.92 432.60,165.85 433.01,165.67 433.41,165.56 433.82,165.30 434.23,165.18 434.64,164.90 435.04,164.65 435.45,164.36 435.86,164.14 436.27,163.81 436.67,163.59 437.08,163.41 437.49,163.08 437.90,162.83 438.30,162.61 438.71,162.25 439.12,162.00 439.53,161.80 439.93,161.55 440.34,161.26 440.75,160.97 441.16,160.69 441.56,160.54 441.97,160.33 442.38,160.22 442.79,159.91 443.19,159.73 443.60,159.46 444.01,159.14 444.42,158.85 444.82,158.56 445.23,158.34 445.64,158.11 446.05,157.94 446.45,157.66 446.86,157.55 447.27,157.18 447.68,156.91 448.08,156.64 448.49,156.35 448.90,156.05 449.31,155.83 449.71,155.65 450.12,155.47 450.53,155.21 450.94,155.20 451.34,155.18 451.75,155.11 452.16,154.97 452.57,154.68 452.97,154.35 453.38,154.08 453.79,153.90 454.20,153.92 454.60,154.03 455.01,154.15 455.42,154.22 455.83,154.04 456.23,153.82 456.64,153.50 457.05,153.28 457.46,153.31 457.86,153.37 458.27,153.29 458.68,153.22 459.09,153.06 459.49,152.78 459.90,152.53 460.31,152.56 460.72,152.86 461.12,153.10 461.53,153.19 461.94,153.24 462.35,153.32 462.75,153.30 463.16,153.22 463.57,153.18 463.98,153.21 464.38,153.29 464.79,153.32 465.20,153.61 465.61,153.50 466.01,153.46 466.42,153.46 466.83,153.43 467.24,153.48 467.64,153.54 468.05,153.50 468.46,153.51 468.87,153.51 469.27,153.80 469.68,153.54 470.09,153.25 470.50,153.07 470.90,152.82 471.31,152.60 471.72,152.27 472.13,152.12 472.53,151.85 472.94,151.65 473.35,151.43 473.76,151.21 474.16,150.92 474.57,150.59 474.98,150.34 475.39,150.01 475.79,149.72 476.20,149.43 476.61,149.17 477.02,148.93 477.42,148.64 477.83,148.42 478.24,148.13 478.65,147.83 479.05,147.52 479.46,147.37 479.87,147.12 480.28,146.83 480.68,146.50 481.09,146.25 481.50,145.99 481.91,145.66 482.31,145.36 482.72,145.14 483.13,144.92 483.54,144.63 483.94,144.34 484.35,144.05 484.76,143.78 485.17,143.57 485.57,143.31 485.98,143.02 486.39,142.77 486.80,142.48 487.20,142.26 487.61,142.11 488.02,141.89 488.43,141.60 488.83,141.34 489.24,141.12 489.65,140.86 490.06,140.68 490.46,140.35 490.87,140.10 491.28,139.95 491.69,139.62 492.09,139.41 492.50,139.11 492.91,138.82 493.32,138.60 493.72,138.40 494.13,138.11 494.54,137.78 494.95,137.49 495.35,137.31 495.76,137.01 496.17,136.72 496.58,136.43 496.98,136.17 497.39,135.91 497.80,135.69 498.21,135.40 498.61,135.11 499.02,134.89 499.43,134.64 499.84,134.38 500.24,134.13 500.65,133.87 501.06,133.63 501.47,133.36 501.87,133.14 502.28,132.90 502.69,132.65 503.10,132.50 503.50,132.28 503.91,131.95 504.32,131.73 504.73,131.37 505.13,131.11 505.54,130.82 505.95,130.64 506.36,130.42 506.76,130.25 507.17,130.02 507.58,129.73 507.99,129.44 508.39,129.16 508.80,128.87 509.21,128.65 509.62,128.43 510.02,128.21 510.43,127.96 510.84,127.63 511.25,127.38 511.65,127.13 512.06,126.95 512.47,126.73 512.88,126.40 513.28,126.04 513.69,125.74 514.10,125.45 514.51,125.20 514.91,124.93 515.32,124.60 515.73,124.45 516.14,124.20 516.54,123.98 516.95,123.80 517.36,123.47 517.77,123.28 518.17,122.99 518.58,122.74 518.99,122.48 519.40,122.23 519.80,121.90 520.21,121.72 520.62,121.50 521.03,121.17 521.43,120.92 521.84,120.66 522.25,120.37 522.66,120.08 523.06,119.94 523.47,119.73 523.88,119.51 524.29,119.19 524.69,118.86 525.10,118.64 525.51,118.46 525.92,118.17 526.32,117.95 526.73,117.67 527.14,117.39 527.55,117.09 527.95,116.91 528.36,116.98 528.77,117.17 529.18,117.22 529.58,117.40 529.99,117.35 530.40,117.40 530.81,117.60 531.21,117.46 531.62,117.68 532.03,117.53 532.44,117.57 532.84,117.54 533.25,117.42 533.66,117.42 534.07,117.46 534.47,117.46 534.88,117.67 535.29,117.85 535.70,117.89 536.10,117.82 536.51,118.07 536.92,118.33 537.33,118.65 537.73,118.95 538.14,119.14 538.55,119.43 538.96,119.69 539.36,119.94 539.77,120.23 540.18,120.34 540.59,120.45 540.99,120.49 541.40,120.52 541.81,120.55 542.22,120.63 542.62,120.48 543.03,120.39 543.44,120.50 543.85,120.53 544.25,120.53 544.66,120.53 545.07,120.53 545.48,120.75 545.88,120.72 546.29,120.57 546.70,120.64 547.11,120.64 547.51,120.67 547.92,120.62 548.33,120.66 548.74,120.58 549.14,120.77 549.55,120.84 549.96,120.88 550.37,121.11 550.77,121.18 551.18,121.14 551.59,121.17 552.00,121.13 552.40,121.09 552.81,121.20 553.22,121.31 553.63,121.33 554.03,121.48 554.44,121.52 554.85,121.48 555.26,121.41 555.66,121.15 556.07,121.04 556.48,120.90 556.89,121.00 557.29,120.89 557.70,120.82 558.11,120.82 558.52,120.80 558.92,120.98 559.33,121.27 559.74,121.60 560.15,121.84 560.55,122.14 560.96,122.39 561.37,122.50 561.78,122.54 562.18,122.75 562.59,123.10 563.00,123.36 563.41,123.65 563.81,123.90 564.22,124.16 564.63,124.48 565.04,124.75 565.44,124.90 565.85,125.15 566.26,125.45 566.67,125.74 567.07,126.10 567.48,126.43 567.89,126.62 568.30,126.98 568.70,127.16 569.11,127.49 569.52,127.78 569.93,128.03 570.33,128.25 570.74,128.60 571.15,128.81 571.56,128.94 571.96,129.27 572.37,129.48 572.78,129.77 573.19,130.03 573.59,130.29 574.00,130.55 574.41,130.84 574.82,131.13 575.22,131.46 575.63,131.79 576.04,132.09 576.45,132.40 576.85,132.65 577.26,132.94 577.67,133.24 578.08,133.44 578.48,133.70 578.89,133.99 579.30,134.23 579.71,134.48 580.11,134.77 580.52,134.94 580.93,135.25 581.34,135.58 581.74,135.83 582.15,136.12 582.56,136.41 582.97,136.67 583.37,136.93 583.78,137.18 584.19,137.47 584.60,137.73 585.01,138.05 585.41,138.24 585.82,138.50 586.23,138.60 586.64,138.86 587.04,139.15 587.45,139.44 587.86,139.66 588.27,140.02 588.67,140.31 589.08,140.57 589.49,140.86 589.90,141.13 590.30,141.38 590.71,141.55 591.12,141.84 591.53,142.02 591.93,142.20 592.34,142.49 592.75,142.85 593.16,143.14 593.56,143.47 593.97,143.71 594.38,144.01 594.79,144.26 595.19,144.55 595.60,144.84 596.01,145.13 596.42,145.43 596.82,145.74 597.23,145.96 597.64,146.11 598.05,146.43 598.45,146.68 598.86,147.01 599.27,147.30 599.68,147.54 600.08,147.66 600.49,148.03 600.90,148.28 601.31,148.50 601.71,148.72 602.12,149.01 602.53,149.37 602.94,149.67 603.34,149.79 603.75,149.75 604.16,149.91 604.57,149.80 604.97,149.91 605.38,150.06 605.79,150.17 606.20,150.11 606.60,150.15 607.01,150.16 607.42,150.12 607.83,150.20 608.23,150.27 608.64,150.23 609.05,150.19 609.46,150.04 609.86,149.93 610.27,149.93 610.68,149.97 611.09,149.79 611.49,149.75 611.90,149.86 612.31,149.84 612.72,149.95 613.12,149.88 613.53,150.06 613.94,150.35 614.35,150.62 614.75,150.84 615.16,151.09 615.57,151.34 615.98,151.51 616.38,151.54 616.79,151.60 617.20,151.67 617.61,151.64 618.01,151.58 618.42,151.51 618.83,151.48 619.24,151.48 619.64,151.45 620.05,151.53 620.46,151.51 620.87,151.66 621.27,151.66 621.68,151.72 622.09,151.69 622.50,151.62 622.90,151.55 623.31,151.34 623.72,151.08 624.13,150.86 624.53,150.72 624.94,150.71 625.35,150.79 625.76,150.72 626.16,150.85 626.57,150.93 626.98,151.11 627.39,150.96 627.79,150.98 628.20,150.97 628.61,150.84 629.02,150.55 629.42,150.26 629.83,150.09 630.24,150.13 630.65,150.35 631.05,150.16 631.46,150.20 631.87,150.56 632.28,150.78 632.68,151.01 633.09,151.34 633.50,151.58 633.91,151.87 634.31,152.05 634.72,152.31 635.13,152.23 635.54,152.20 635.94,152.16 636.35,152.16 636.76,152.05 637.17,151.98 637.57,152.06 637.98,152.00 638.39,152.22 638.80,152.19 639.20,152.34 639.61,152.19 640.02,152.28 640.43,152.20 640.83,152.21 641.24,152.33 641.65,152.26 642.06,152.15 642.46,152.07 642.87,152.14 643.28,152.32 643.69,152.45 644.09,152.56 644.50,152.74 644.91,152.74 645.32,152.66 645.72,152.62 646.13,152.74 646.54,152.94 646.95,153.07 647.35,152.94 647.76,153.05 648.17,152.94 648.58,152.94 648.98,152.98 649.39,152.98 649.80,152.98 650.21,152.87 650.61,152.98 651.02,153.12 651.43,153.27 651.84,153.34 652.24,153.57 652.65,153.83 653.06,154.05 653.47,154.37 653.87,154.56 654.28,154.77 654.69,154.99 655.10,155.14 655.50,155.47 655.91,155.79 656.32,156.05 656.73,156.30 657.13,156.60 657.54,156.74 657.95,156.93 658.36,157.19 658.76,157.33 659.17,157.57 659.58,157.84 659.99,158.13 660.39,158.42 660.80,158.72 661.21,158.90 661.62,159.11 662.02,159.33 662.43,159.47 662.84,159.73 663.25,159.99 663.65,160.20 664.06,160.46 664.47,160.75 664.88,160.97 665.28,161.30 665.69,161.55 666.10,161.84 666.51,162.10 666.91,162.37 667.32,162.66 667.73,162.95 668.14,163.24 668.54,163.61 668.95,163.82 669.36,164.04 669.77,164.37 670.17,164.66 670.58,164.92 670.99,165.28 671.40,165.57 671.80,165.73 672.21,166.02 672.62,166.17 673.03,166.29 673.43,166.59 673.84,166.80 674.25,167.10 674.66,167.42 675.06,167.73 675.47,167.80 675.88,167.87 676.29,167.71 676.69,167.82 677.10,167.65 677.51,167.42 677.92,167.18 678.32,167.24 678.73,167.38 679.14,167.42 679.55,167.42 679.95,167.42 680.36,167.31 680.77,167.22 681.18,167.04 681.58,166.82 681.99,166.64 682.40,166.61 682.81,166.59 683.21,166.61 683.62,166.54 684.03,166.43 684.44,166.50 684.84,166.30 685.25,166.08 685.66,165.79 686.07,165.60 686.47,165.31 686.88,164.98 687.29,164.76 687.70,164.44 688.10,164.17 688.51,163.88 688.92,163.55 689.33,163.29 689.73,163.01 690.14,162.72 690.55,162.46 690.96,162.25 691.36,162.07 691.77,161.74 692.18,161.48 692.59,161.21 692.99,160.96 693.40,160.70 693.81,160.52 694.22,160.23 694.62,159.97 695.03,159.61 695.44,159.39 695.85,159.25 696.25,158.88 696.66,158.59 697.07,158.34 697.48,157.97 697.88,157.72 698.29,157.53 698.70,157.32 699.11,157.01 699.51,156.76 699.92,156.46 700.33,156.25 700.74,155.95 701.14,155.70 701.55,155.44 701.96,155.19 702.37,154.84 702.77,154.48 703.18,154.26 703.59,153.93 704.00,153.68 704.40,153.35 704.81,153.10 705.22,152.79 705.63,152.50 706.03,152.21 706.44,152.01 706.85,151.76 707.26,151.43 707.66,151.24 708.07,151.23 708.48,151.19 708.89,150.98 709.29,150.72 709.70,150.45 710.11,150.25 710.52,149.96 710.92,149.72 711.33,149.39 711.74,149.13 712.15,148.97 712.55,148.68 712.96,148.39 713.37,148.22 713.78,148.07 714.18,147.90 714.59,147.57 715.00,147.28 715.41,146.99 715.81,146.70 716.22,146.41 716.63,146.15 717.04,145.86 717.44,145.60 717.85,145.37 718.26,145.13 718.67,144.80 719.07,144.54 719.48,144.22 719.89,144.03 720.30,143.71 720.70,143.49 721.11,143.20 721.52,142.98 721.93,142.71 722.33,142.48 722.74,142.22 723.15,142.00 723.56,141.61 723.96,141.28 724.37,141.06 724.78,140.88 725.19,140.59 725.59,140.41 726.00,140.08 726.41,139.75 726.82,139.42 727.22,139.13 727.63,138.88 728.04,138.59 728.45,138.22 728.85,138.00 729.26,137.83 729.67,137.56 730.08,137.24 730.48,136.91 730.89,136.66 731.30,136.47 731.71,136.28 732.11,136.03 732.52,135.74 732.93,135.48 733.34,135.23 733.74,134.94 734.15,134.68 734.56,134.44 734.97,134.18 735.37,133.88 735.78,133.52 736.19,133.16 736.60,132.93 737.00,132.71 737.41,132.42 737.82,132.27 738.23,132.05 738.63,131.76 739.04,131.54 739.45,131.32 739.86,131.03 740.26,130.78 740.67,130.45 741.08,130.22 741.49,129.96 741.89,129.67 742.30,129.40 742.71,129.20 743.12,128.91 743.52,128.66 743.93,128.40 744.34,128.11 744.75,127.82 745.15,127.50 745.56,127.20 745.97,126.87 746.38,126.62 746.78,126.29 747.19,126.00 747.60,125.84 748.01,125.62 748.41,125.47 748.82,125.16 749.23,124.94 749.64,124.62 750.04,124.40 750.45,124.14 750.86,123.92 751.27,123.65 751.67,123.37 752.08,123.09 752.49,122.90 752.90,122.65 753.30,122.43 753.71,122.14 754.12,121.91 754.53,121.69 754.93,121.48 755.34,121.12 755.75,120.90 756.16,120.63 756.56,120.38 756.97,120.16 757.38,119.90 757.79,119.61 758.19,119.36 758.60,119.25 759.01,118.92 759.42,118.60 759.82,118.43 760.23,118.18 760.64,118.11 761.05,117.93 761.45,117.58 761.86,117.36 762.27,117.07 762.68,116.85 763.08,116.49 763.49,116.21 763.90,115.98 764.31,115.69 764.71,115.39 765.12,115.03 765.53,114.74 765.94,114.37 766.34,114.16 766.75,113.86 767.16,113.54 767.57,113.25 767.97,112.92 768.38,112.59 768.79,112.41 769.20,112.12 769.60,111.79 770.01,111.54 770.42,111.17 770.83,111.06 771.23,110.74 771.64,110.47 772.05,110.18 772.46,109.88 772.86,109.59 773.27,109.41 773.68,109.22 774.09,108.93 774.49,108.71 774.90,108.38 775.31,108.14 775.72,107.84 776.12,107.59 776.53,107.33 776.94,107.07 777.35,106.89 777.75,106.56 778.16,106.30 778.57,106.09 778.98,105.79 779.38,105.58 779.79,105.32 780.20,105.10 780.61,104.85 781.01,104.66 781.42,104.41 781.83,104.10 782.24,103.77 782.64,103.52 783.05,103.31 783.46,103.06 783.87,102.84 784.27,102.51 784.68,102.25 785.09,101.96 785.50,101.71 785.90,101.42 786.31,101.16 786.72,100.87 787.13,100.51 787.53,100.29 787.94,100.00 788.35,99.82 788.76,99.58 789.16,99.36 789.57,99.07 789.98,98.92 790.39,98.67 790.79,98.47 791.20,98.21 791.61,97.96 792.02,97.81 792.42,97.81 792.83,97.78 793.24,97.81 793.65,97.71 794.05,97.67 794.46,97.78 794.87,97.76 795.28,97.52 795.68,97.34 796.09,97.16 796.50,97.01 796.91,96.72 797.31,96.54 797.72,96.25 798.13,95.99 798.54,95.80 798.94,95.59 799.35,95.33 799.76,95.15 800.17,94.93 800.57,94.64 800.98,94.71 801.39,94.83 801.80,95.01 802.20,94.79 802.61,94.57 803.02,94.32 803.43,94.19 803.83,93.98 804.24,93.65 804.65,93.43 805.06,93.21 805.46,92.89 805.87,92.63 806.28,92.38 806.69,92.14 807.09,91.90 807.50,91.61 807.91,91.43 808.32,91.15 808.72,90.97 809.13,90.87 809.54,90.79 809.95,90.69 810.35,90.80 810.76,90.58 811.17,90.58 811.58,90.53 811.98,90.39 812.39,90.23 812.80,90.25 813.21,90.18 813.61,90.02 814.02,89.77 814.43,89.52 814.84,89.15 815.24,89.04 815.65,88.90 816.06,88.57 816.47,88.59 816.87,88.70 817.28,88.69 817.69,88.51 818.10,88.40 818.50,88.36 818.91,88.14 819.32,87.87 819.73,87.61 820.13,87.39 820.54,87.27 820.95,87.01 821.36,86.84 821.76,86.88 822.17,86.84 822.58,86.56 822.99,86.27 823.39,85.95 823.80,85.70 824.21,85.37 824.62,85.01 825.02,84.72 825.43,84.65 825.84,84.61 826.25,84.39 826.65,84.35 827.06,84.43 827.47,84.52 827.88,84.48 828.28,84.55 828.69,84.47 829.10,84.22 829.51,84.00 829.91,83.70 830.32,83.48 830.73,83.21 831.14,82.92 831.54,82.74 831.95,82.48 832.36,82.26 832.77,81.97 833.17,81.72 833.58,81.43 833.99,81.13 834.40,80.95 834.80,80.73 835.21,80.40 835.62,80.03 836.03,79.78 836.43,79.52 836.84,79.27 837.25,79.07 837.66,78.96 838.06,78.66 838.47,78.41 838.88,78.23 839.29,78.01 839.69,77.72 840.10,77.43 840.51,77.17 840.92,76.92 841.32,76.73 841.73,76.44 842.14,76.26 842.55,76.04 842.95,75.86 843.36,75.71 843.77,75.53 844.18,75.30 844.58,75.12 844.99,74.83 845.40,74.58 845.81,74.47 846.21,74.22 846.62,73.89 847.03,73.60 847.44,73.31 847.84,73.09 848.25,72.87 848.66,72.64 849.07,72.46 849.47,72.21 849.88,71.99 850.29,71.66 850.70,71.33 851.10,71.33 851.51,71.44 851.92,71.70 852.33,71.95 852.73,72.21 853.14,72.46 853.55,72.75 853.96,73.08 854.36,73.26 854.77,73.41 855.18,73.26 855.59,72.97 855.99,72.65 856.40,72.36 856.81,72.16 857.22,71.91 857.62,71.80 858.03,71.44 858.44,71.17 858.85,70.95 859.25,70.69 859.66,70.37 860.07,70.13 860.48,69.95 860.88,69.76 861.29,69.55 861.70,69.44 862.11,69.18 862.51,68.96 862.92,68.67 863.33,68.51 863.74,68.26 864.14,68.11 864.55,67.78 864.96,67.67 865.37,67.78 865.77,68.07 866.18,68.38 866.59,68.63 867.00,68.79 867.40,68.86 867.81,68.79 868.22,68.73 868.63,68.73 869.03,68.84 869.44,68.69 869.85,68.47 870.26,68.14 870.66,67.85 871.07,67.56 871.48,67.27 871.89,67.08 872.29,66.93 872.70,66.70 873.11,66.40 873.52,66.11 873.92,65.86 874.33,65.57 874.74,65.43 875.15,65.06 875.55,65.03 875.96,64.95 876.37,65.08 876.78,64.94 877.18,64.61 877.59,64.46 878.00,64.33 878.41,64.15 878.81,63.82 879.22,63.58 879.63,63.35 880.04,63.02 880.44,62.83 880.85,62.65 881.26,62.58 881.67,62.31 882.07,61.98 882.48,62.08 882.89,62.17 883.30,62.25 883.70,62.09 884.11,62.17 884.52,62.14 884.93,62.25 885.33,62.14 885.74,62.10 886.15,62.10 886.56,62.17 886.96,62.21 887.37,62.08 887.78,62.15 888.19,62.18 888.59,62.25 889.00,62.36 889.41,62.31 889.82,62.09 890.22,61.83 890.63,61.54 891.04,61.29 891.45,60.96 891.85,60.68 892.26,60.42 892.67,60.09 893.08,60.02 893.48,59.88 893.89,59.77 894.30,59.81 894.71,59.68 895.11,59.61 895.52,59.28 895.93,59.24 896.34,59.18 896.74,59.11 897.15,58.85 897.56,58.71 897.97,58.60 898.37,58.63 898.78,58.74 899.19,58.67 899.60,58.67 900.00,58.85"/>
<line x1="85" y1="445.33" x2="900" y2="445.33" stroke="#111827" stroke-width="1"/>
<line x1="85" y1="262.67" x2="85" y2="445.33" stroke="#111827" stroke-width="1"/>
<text x="73" y="276.67" text-anchor="end" font-family="Arial" font-size="12" fill="#111827">Reservation skew ticks</text>
<line x1="85" y1="445.33" x2="900" y2="445.33" stroke="#e5e7eb" stroke-width="1"/>
<text x="73" y="449.33" text-anchor="end" font-family="Arial" font-size="11" fill="#374151">-16</text>
<line x1="85" y1="354.00" x2="900" y2="354.00" stroke="#e5e7eb" stroke-width="1"/>
<text x="73" y="358.00" text-anchor="end" font-family="Arial" font-size="11" fill="#374151">-4</text>
<line x1="85" y1="262.67" x2="900" y2="262.67" stroke="#e5e7eb" stroke-width="1"/>
<text x="73" y="266.67" text-anchor="end" font-family="Arial" font-size="11" fill="#374151">9</text>
<polyline fill="none" stroke="#dc2626" stroke-width="2" points="85.00,327.42 85.41,327.42 85.82,327.28 86.22,327.28 86.63,327.37 87.04,327.37 87.45,327.16 87.85,326.83 88.26,326.83 88.67,326.97 89.08,326.95 89.48,327.43 89.89,327.53 90.30,327.43 90.71,327.47 91.11,327.28 91.52,327.26 91.93,326.87 92.34,326.70 92.74,326.80 93.15,326.54 93.56,326.54 93.97,326.44 94.37,326.30 94.78,326.02 95.19,325.55 95.60,325.17 96.00,324.62 96.41,324.15 96.82,323.48 97.23,322.62 97.63,321.78 98.04,321.32 98.45,320.76 98.86,320.12 99.26,319.26 99.67,318.57 100.08,317.82 100.49,316.94 100.89,316.29 101.30,315.63 101.71,314.69 102.12,314.03 102.52,313.56 102.93,312.91 103.34,312.25 103.75,311.60 104.15,311.12 104.56,310.37 104.97,309.80 105.38,309.15 105.78,308.45 106.19,307.66 106.60,306.82 107.01,306.08 107.41,305.43 107.82,305.35 108.23,304.70 108.64,304.15 109.04,303.60 109.45,304.16 109.86,303.89 110.27,304.06 110.67,303.76 111.08,303.68 111.49,303.78 111.90,303.51 112.30,303.33 112.71,303.06 113.12,302.37 113.53,302.06 113.93,301.32 114.34,300.72 114.75,300.27 115.16,300.10 115.56,299.97 115.97,300.08 116.38,300.42 116.79,300.30 117.19,300.42 117.60,300.32 118.01,300.43 118.42,300.81 118.82,300.72 119.23,301.20 119.64,301.61 120.05,302.28 120.45,302.35 120.86,302.15 121.27,302.08 121.68,302.55 122.08,303.30 122.49,303.78 122.90,303.88 123.31,304.08 123.71,304.46 124.12,305.03 124.53,305.31 124.94,305.72 125.34,305.62 125.75,305.63 126.16,305.91 126.57,306.60 126.97,306.55 127.38,306.49 127.79,306.05 128.20,305.82 128.60,305.74 129.01,305.94 129.42,306.04 129.83,306.60 130.23,307.35 130.64,307.98 131.05,308.51 131.46,309.16 131.86,310.08 132.27,310.78 132.68,311.51 133.09,312.25 133.49,312.87 133.90,313.78 134.31,314.24 134.72,314.70 135.12,315.39 135.53,315.76 135.94,316.04 136.35,316.65 136.75,317.29 137.16,318.02 137.57,318.58 137.98,319.03 138.38,319.09 138.79,319.16 139.20,319.07 139.61,318.81 140.01,318.96 140.42,319.39 140.83,319.71 141.24,319.66 141.64,319.69 142.05,319.86 142.46,319.91 142.87,320.10 143.27,320.19 143.68,320.31 144.09,320.49 144.50,321.04 144.90,321.31 145.31,321.22 145.72,321.63 146.13,321.67 146.53,321.92 146.94,322.33 147.35,322.94 147.76,323.57 148.16,324.11 148.57,324.75 148.98,325.56 149.39,326.19 149.79,326.64 150.20,327.27 150.61,327.34 151.02,327.16 151.42,327.34 151.83,327.40 152.24,327.34 152.65,327.40 153.05,327.22 153.46,326.95 153.87,327.04 154.28,326.83 154.68,327.45 155.09,328.03 155.50,328.48 155.91,328.92 156.31,329.45 156.72,329.53 157.13,329.40 157.54,329.22 157.94,328.87 158.35,329.13 158.76,329.13 159.17,329.17 159.57,328.50 159.98,328.72 160.39,328.98 160.80,329.07 161.20,328.80 161.61,329.06 162.02,328.80 162.43,328.36 162.83,328.18 163.24,327.82 163.65,327.90 164.06,327.98 164.46,328.16 164.87,328.07 165.28,328.14 165.69,327.88 166.09,327.70 166.50,327.80 166.91,327.88 167.32,327.71 167.72,327.54 168.13,327.52 168.54,327.47 168.95,327.24 169.35,327.50 169.76,327.85 170.17,327.74 170.58,327.74 170.98,327.57 171.39,327.66 171.80,327.87 172.21,327.70 172.61,327.92 173.02,327.23 173.43,326.71 173.84,326.11 174.24,325.68 174.65,325.00 175.06,324.51 175.47,324.06 175.87,323.55 176.28,322.95 176.69,322.78 177.10,322.44 177.50,322.53 177.91,323.04 178.32,323.39 178.73,323.84 179.13,324.28 179.54,324.62 179.95,325.36 180.36,325.83 180.76,326.34 181.17,327.03 181.58,327.71 181.99,328.22 182.39,328.68 182.80,329.37 183.21,330.06 183.62,330.65 184.02,331.41 184.43,331.84 184.84,332.26 185.25,332.97 185.65,333.48 186.06,334.15 186.47,334.83 186.88,335.59 187.28,336.26 187.69,337.00 188.10,337.59 188.51,338.17 188.91,338.84 189.32,339.60 189.73,339.93 190.14,340.50 190.54,341.19 190.95,341.78 191.36,342.33 191.77,343.00 192.17,343.49 192.58,344.00 192.99,344.58 193.40,345.15 193.80,345.82 194.21,346.48 194.62,347.01 195.03,347.59 195.43,348.24 195.84,348.82 196.25,349.47 196.66,350.18 197.06,350.84 197.47,351.30 197.88,351.79 198.29,352.52 198.69,353.17 199.10,353.74 199.51,354.31 199.92,354.88 200.32,355.33 200.73,355.89 201.14,356.74 201.55,356.89 201.95,357.54 202.36,358.02 202.77,358.74 203.18,359.26 203.58,359.83 203.99,360.55 204.40,361.19 204.81,361.59 205.21,362.26 205.62,362.66 206.03,363.30 206.44,364.10 206.84,364.74 207.25,365.46 207.66,366.08 208.07,366.72 208.47,367.43 208.88,367.98 209.29,368.67 209.70,369.46 210.10,369.77 210.51,369.99 210.92,370.53 211.33,371.15 211.73,371.61 212.14,372.16 212.55,372.50 212.96,373.13 213.36,373.77 213.77,374.56 214.18,375.10 214.59,375.64 214.99,376.09 215.40,376.87 215.81,376.60 216.22,376.15 216.62,375.55 217.03,375.36 217.44,375.08 217.85,374.41 218.25,373.65 218.66,373.46 219.07,373.42 219.48,373.23 219.88,373.29 220.29,373.41 220.70,373.26 221.11,373.26 221.51,373.48 221.92,373.85 222.33,374.47 222.74,374.76 223.14,375.46 223.55,375.95 223.96,376.57 224.37,376.94 224.77,377.30 225.18,377.32 225.59,377.69 226.00,377.68 226.40,377.54 226.81,377.45 227.22,377.02 227.63,376.60 228.03,377.05 228.44,377.42 228.85,377.95 229.26,378.48 229.66,379.04 230.07,379.57 230.48,379.95 230.89,380.32 231.29,380.79 231.70,380.36 232.11,380.60 232.52,380.55 232.92,380.04 233.33,379.44 233.74,379.17 234.15,378.98 234.55,379.43 234.96,380.03 235.37,380.39 235.78,380.83 236.18,380.96 236.59,381.48 237.00,381.92 237.41,382.28 237.81,382.73 238.22,383.01 238.63,383.45 239.04,384.04 239.44,384.48 239.85,384.84 240.26,385.20 240.67,385.78 241.07,386.29 241.48,386.88 241.89,387.39 242.30,387.74 242.70,388.25 243.11,388.54 243.52,388.58 243.93,388.54 244.33,389.23 244.74,389.54 245.15,389.89 245.56,390.40 245.96,390.90 246.37,391.49 246.78,392.07 247.19,392.59 247.59,393.18 248.00,393.83 248.41,394.18 248.82,394.68 249.22,395.19 249.63,395.54 250.04,395.93 250.45,396.35 250.85,396.93 251.26,397.42 251.67,397.84 252.08,398.49 252.48,399.06 252.89,399.63 253.30,400.01 253.71,400.50 254.11,400.99 254.52,401.56 254.93,402.11 255.34,402.60 255.74,402.94 256.15,403.62 256.56,403.99 256.97,404.49 257.37,404.90 257.78,405.39 258.19,405.84 258.60,406.32 259.00,406.85 259.41,407.03 259.82,407.44 260.23,407.77 260.63,408.06 261.04,408.54 261.45,409.09 261.86,409.34 262.26,409.82 262.67,410.30 263.08,410.78 263.49,411.33 263.89,411.73 264.30,412.08 264.71,412.55 265.12,413.19 265.52,413.77 265.93,414.32 266.34,414.79 266.75,415.33 267.15,415.88 267.56,416.42 267.97,417.04 268.38,417.58 268.78,418.05 269.19,418.29 269.60,418.39 270.01,418.71 270.41,418.57 270.82,418.59 271.23,418.31 271.64,418.84 272.04,419.18 272.45,419.64 272.86,420.04 273.27,420.43 273.67,420.89 274.08,421.20 274.49,421.30 274.90,420.72 275.30,420.51 275.71,420.60 276.12,420.54 276.53,420.31 276.93,419.95 277.34,419.67 277.75,419.46 278.16,419.54 278.56,420.00 278.97,420.61 279.38,421.07 279.79,421.52 280.19,422.05 280.60,422.50 281.01,422.83 281.42,423.28 281.82,423.65 282.23,424.17 282.64,424.47 283.05,424.63 283.45,424.42 283.86,423.90 284.27,424.19 284.68,424.49 285.08,424.79 285.49,425.08 285.90,424.87 286.31,424.95 286.71,425.33 287.12,425.61 287.53,426.06 287.94,426.57 288.34,426.66 288.75,426.19 289.16,426.11 289.57,426.12 289.97,426.28 290.38,426.43 290.79,426.47 291.20,426.80 291.60,427.24 292.01,427.70 292.42,428.36 292.83,428.36 293.23,428.66 293.64,429.09 294.05,429.53 294.46,429.99 294.86,430.50 295.27,430.86 295.68,431.22 296.09,431.51 296.49,432.02 296.90,432.45 297.31,432.38 297.72,432.66 298.12,432.59 298.53,432.74 298.94,432.66 299.35,432.02 299.75,431.38 300.16,430.67 300.57,430.10 300.98,429.46 301.38,428.98 301.79,428.42 302.20,427.96 302.61,427.83 303.01,427.83 303.42,427.28 303.83,427.34 304.24,427.29 304.64,426.87 305.05,426.30 305.46,425.95 305.87,425.82 306.27,425.84 306.68,425.37 307.09,425.30 307.50,425.21 307.90,424.99 308.31,424.71 308.72,424.23 309.13,423.88 309.53,423.54 309.94,423.56 310.35,423.85 310.76,424.20 311.16,424.69 311.57,425.33 311.98,425.33 312.39,425.38 312.79,425.37 313.20,425.79 313.61,426.35 314.02,426.63 314.42,426.24 314.83,426.65 315.24,427.21 315.65,427.49 316.05,427.68 316.46,428.16 316.87,428.45 317.28,429.00 317.68,429.35 318.09,429.76 318.50,429.90 318.91,430.25 319.31,430.66 319.72,431.01 320.13,431.42 320.54,431.76 320.94,432.10 321.35,432.04 321.76,431.73 322.17,431.38 322.57,430.69 322.98,430.07 323.39,429.51 323.80,429.44 324.20,428.91 324.61,428.84 325.02,428.43 325.43,428.15 325.83,427.74 326.24,427.67 326.65,427.93 327.06,428.27 327.46,428.40 327.87,428.78 328.28,429.03 328.69,429.43 329.09,429.77 329.50,429.92 329.91,430.12 330.32,430.31 330.72,430.85 331.13,431.25 331.54,431.71 331.95,431.37 332.35,431.02 332.76,430.65 333.17,430.10 333.58,429.53 333.98,429.00 334.39,428.39 334.80,428.45 335.21,428.19 335.61,427.72 336.02,427.24 336.43,427.31 336.84,427.06 337.24,426.45 337.65,425.75 338.06,425.27 338.47,425.00 338.87,424.86 339.28,424.59 339.69,424.05 340.10,423.85 340.50,423.40 340.91,423.16 341.32,422.83 341.73,422.73 342.13,422.22 342.54,421.66 342.95,421.21 343.36,420.61 343.76,420.08 344.17,419.60 344.58,418.96 344.99,418.55 345.39,417.96 345.80,417.43 346.21,416.90 346.62,416.51 347.02,415.95 347.43,415.49 347.84,414.91 348.25,414.32 348.65,413.66 349.06,413.12 349.47,412.55 349.88,411.84 350.28,411.26 350.69,410.67 351.10,410.22 351.51,409.77 351.91,409.35 352.32,408.77 352.73,408.19 353.14,407.60 353.54,407.16 353.95,406.65 354.36,406.25 354.77,405.87 355.17,405.23 355.58,404.77 355.99,404.32 356.40,403.81 356.80,403.24 357.21,402.77 357.62,402.61 358.03,401.98 358.43,401.45 358.84,400.88 359.25,400.37 359.66,399.98 360.06,399.48 360.47,398.78 360.88,398.21 361.29,397.78 361.69,397.15 362.10,396.65 362.51,396.17 362.92,395.76 363.32,395.07 363.73,394.38 364.14,393.97 364.55,393.41 364.95,392.85 365.36,392.27 365.77,391.77 366.18,391.22 366.58,390.66 366.99,390.04 367.40,389.59 367.81,388.97 368.21,388.24 368.62,387.69 369.03,387.08 369.44,386.53 369.84,386.15 370.25,385.61 370.66,385.06 371.07,384.50 371.47,383.89 371.88,383.23 372.29,382.88 372.70,382.45 373.10,381.97 373.51,381.43 373.92,381.04 374.33,380.50 374.73,379.96 375.14,379.50 375.55,378.90 375.96,378.43 376.36,377.88 376.77,377.34 377.18,376.81 377.59,376.32 377.99,375.91 378.40,375.34 378.81,374.75 379.22,374.40 379.62,373.99 380.03,373.58 380.44,373.05 380.85,372.52 381.25,372.12 381.66,371.66 382.07,371.20 382.48,370.80 382.88,370.28 383.29,369.85 383.70,369.58 384.11,369.17 384.51,368.74 384.92,368.34 385.33,367.88 385.74,367.35 386.14,366.93 386.55,366.35 386.96,365.71 387.37,365.31 387.77,364.91 388.18,364.40 388.59,363.93 389.00,363.41 389.40,362.96 389.81,362.42 390.22,362.15 390.63,361.70 391.03,361.25 391.44,360.92 391.85,360.60 392.26,360.15 392.66,359.58 393.07,359.13 393.48,358.56 393.89,358.06 394.29,357.56 394.70,357.11 395.11,356.73 395.52,356.17 395.92,355.66 396.33,355.22 396.74,354.72 397.15,354.24 397.55,353.98 397.96,353.78 398.37,353.28 398.78,353.45 399.18,353.93 399.59,354.41 400.00,354.76 400.41,355.04 400.81,355.19 401.22,354.87 401.63,354.79 402.04,354.77 402.44,354.81 402.85,354.64 403.26,354.92 403.67,354.83 404.07,354.76 404.48,354.63 404.89,354.53 405.30,354.15 405.70,353.72 406.11,353.23 406.52,353.20 406.93,353.24 407.33,353.16 407.74,353.22 408.15,353.10 408.56,353.02 408.96,352.89 409.37,352.64 409.78,352.56 410.19,352.48 410.59,352.35 411.00,352.15 411.41,351.84 411.82,351.50 412.22,351.13 412.63,350.65 413.04,350.07 413.45,349.93 413.85,349.50 414.26,349.31 414.67,348.95 415.08,348.53 415.48,348.11 415.89,347.55 416.30,347.01 416.71,346.48 417.11,346.06 417.52,345.47 417.93,345.00 418.34,344.64 418.74,344.28 419.15,343.81 419.56,343.45 419.97,342.87 420.37,342.75 420.78,342.76 421.19,342.69 421.60,342.67 422.00,342.55 422.41,342.52 422.82,342.45 423.23,342.51 423.63,342.45 424.04,342.43 424.45,342.40 424.86,342.44 425.26,342.29 425.67,342.35 426.08,342.06 426.49,341.70 426.89,341.27 427.30,340.98 427.71,340.51 428.12,340.22 428.52,339.99 428.93,339.64 429.34,339.15 429.75,338.65 430.15,338.24 430.56,337.95 430.97,337.49 431.38,337.44 431.78,336.93 432.19,336.68 432.60,336.56 433.01,336.27 433.41,336.10 433.82,335.70 434.23,335.51 434.64,335.08 435.04,334.68 435.45,334.24 435.86,333.90 436.27,333.40 436.67,333.06 437.08,332.78 437.49,332.28 437.90,331.89 438.30,331.56 438.71,331.02 439.12,330.63 439.53,330.34 439.93,329.95 440.34,329.51 440.75,329.08 441.16,328.65 441.56,328.44 441.97,328.11 442.38,327.95 442.79,327.49 443.19,327.22 443.60,326.83 444.01,326.34 444.42,325.91 444.82,325.48 445.23,325.16 445.64,324.82 446.05,324.58 446.45,324.15 446.86,324.00 447.27,323.46 447.68,323.07 448.08,322.67 448.49,322.24 448.90,321.81 449.31,321.49 449.71,321.23 450.12,320.97 450.53,320.60 450.94,320.58 451.34,320.57 451.75,320.47 452.16,320.27 452.57,319.85 452.97,319.38 453.38,318.99 453.79,318.73 454.20,318.77 454.60,318.94 455.01,319.13 455.42,319.24 455.83,318.98 456.23,318.68 456.64,318.21 457.05,317.90 457.46,317.96 457.86,318.05 458.27,317.95 458.68,317.85 459.09,317.63 459.49,317.24 459.90,316.89 460.31,316.95 460.72,317.37 461.12,317.74 461.53,317.87 461.94,317.95 462.35,318.08 462.75,318.05 463.16,317.96 463.57,317.91 463.98,317.96 464.38,318.07 464.79,318.13 465.20,318.54 465.61,318.40 466.01,318.35 466.42,318.36 466.83,318.33 467.24,318.41 467.64,318.50 468.05,318.45 468.46,318.47 468.87,318.48 469.27,318.90 469.68,318.55 470.09,318.15 470.50,317.90 470.90,317.55 471.31,317.26 471.72,316.81 472.13,316.61 472.53,316.25 472.94,315.97 473.35,315.68 473.76,315.39 474.16,314.99 474.57,314.55 474.98,314.21 475.39,313.77 475.79,313.38 476.20,312.99 476.61,312.65 477.02,312.33 477.42,311.94 477.83,311.66 478.24,311.27 478.65,310.87 479.05,310.46 479.46,310.28 479.87,309.95 480.28,309.56 480.68,309.13 481.09,308.80 481.50,308.47 481.91,308.04 482.31,307.66 482.72,307.37 483.13,307.09 483.54,306.72 483.94,306.34 484.35,305.97 484.76,305.63 485.17,305.36 485.57,305.04 485.98,304.66 486.39,304.34 486.80,303.97 487.20,303.70 487.61,303.53 488.02,303.25 488.43,302.89 488.83,302.57 489.24,302.29 489.65,301.97 490.06,301.75 490.46,301.34 490.87,301.03 491.28,300.86 491.69,300.45 492.09,300.18 492.50,299.82 492.91,299.46 493.32,299.20 493.72,298.96 494.13,298.60 494.54,298.20 494.95,297.84 495.35,297.63 495.76,297.27 496.17,296.91 496.58,296.56 496.98,296.26 497.39,295.94 497.80,295.68 498.21,295.33 498.61,294.99 499.02,294.74 499.43,294.44 499.84,294.14 500.24,293.84 500.65,293.55 501.06,293.27 501.47,292.94 501.87,292.69 502.28,292.43 502.69,292.13 503.10,291.98 503.50,291.72 503.91,291.34 504.32,291.09 504.73,290.66 505.13,290.37 505.54,290.03 505.95,289.83 506.36,289.59 506.76,289.41 507.17,289.16 507.58,288.82 507.99,288.49 508.39,288.18 508.80,287.85 509.21,287.60 509.62,287.37 510.02,287.14 510.43,286.85 510.84,286.48 511.25,286.21 511.65,285.93 512.06,285.74 512.47,285.51 512.88,285.14 513.28,284.72 513.69,284.40 514.10,284.08 514.51,283.81 514.91,283.51 515.32,283.14 515.73,283.01 516.14,282.73 516.54,282.51 516.95,282.33 517.36,281.97 517.77,281.78 518.17,281.47 518.58,281.20 518.99,280.93 519.40,280.67 519.80,280.31 520.21,280.13 520.62,279.91 521.03,279.56 521.43,279.30 521.84,279.03 522.25,278.73 522.66,278.42 523.06,278.30 523.47,278.10 523.88,277.89 524.29,277.54 524.69,277.19 525.10,276.98 525.51,276.81 525.92,276.52 526.32,276.31 526.73,276.01 527.14,275.73 527.55,275.43 527.95,275.26 528.36,275.41 528.77,275.69 529.18,275.81 529.58,276.08 529.99,276.07 530.40,276.20 530.81,276.50 531.21,276.38 531.62,276.70 532.03,276.58 532.44,276.68 532.84,276.70 533.25,276.61 533.66,276.67 534.07,276.77 534.47,276.83 534.88,277.13 535.29,277.41 535.70,277.51 536.10,277.48 536.51,277.84 536.92,278.20 537.33,278.64 537.73,279.04 538.14,279.33 538.55,279.72 538.96,280.08 539.36,280.43 539.77,280.83 540.18,281.01 540.59,281.19 540.99,281.28 541.40,281.37 541.81,281.46 542.22,281.60 542.62,281.48 543.03,281.43 543.44,281.61 543.85,281.70 544.25,281.75 544.66,281.81 545.07,281.86 545.48,282.16 545.88,282.17 546.29,282.06 546.70,282.19 547.11,282.24 547.51,282.33 547.92,282.32 548.33,282.42 548.74,282.39 549.14,282.65 549.55,282.78 549.96,282.88 550.37,283.19 550.77,283.33 551.18,283.34 551.59,283.42 552.00,283.43 552.40,283.44 552.81,283.61 553.22,283.78 553.63,283.86 554.03,284.08 554.44,284.17 554.85,284.18 555.26,284.15 555.66,283.91 556.07,283.84 556.48,283.73 556.89,283.90 557.29,283.83 557.70,283.80 558.11,283.85 558.52,283.88 558.92,284.13 559.33,284.51 559.74,284.92 560.15,285.25 560.55,285.62 560.96,285.95 561.37,286.12 561.78,286.21 562.18,286.50 562.59,286.93 563.00,287.26 563.41,287.63 563.81,287.96 564.22,288.29 564.63,288.69 565.04,289.04 565.44,289.24 565.85,289.57 566.26,289.93 566.67,290.29 567.07,290.73 567.48,291.13 567.89,291.38 568.30,291.82 568.70,292.06 569.11,292.45 569.52,292.81 569.93,293.13 570.33,293.41 570.74,293.82 571.15,294.10 571.56,294.27 571.96,294.67 572.37,294.93 572.78,295.28 573.19,295.60 573.59,295.92 574.00,296.23 574.41,296.58 574.82,296.93 575.22,297.31 575.63,297.70 576.04,298.05 576.45,298.42 576.85,298.72 577.26,299.07 577.67,299.41 578.08,299.66 578.48,299.96 578.89,300.30 579.30,300.59 579.71,300.88 580.11,301.22 580.52,301.44 580.93,301.79 581.34,302.17 581.74,302.46 582.15,302.79 582.56,303.12 582.97,303.42 583.37,303.72 583.78,304.01 584.19,304.34 584.60,304.63 585.01,305.00 585.41,305.22 585.82,305.51 586.23,305.65 586.64,305.94 587.04,306.26 587.45,306.59 587.86,306.84 588.27,307.24 588.67,307.55 589.08,307.84 589.49,308.16 589.90,308.46 590.30,308.73 590.71,308.93 591.12,309.25 591.53,309.46 591.93,309.66 592.34,309.97 592.75,310.36 593.16,310.68 593.56,311.03 593.97,311.29 594.38,311.60 594.79,311.88 595.19,312.19 595.60,312.50 596.01,312.81 596.42,313.12 596.82,313.45 597.23,313.68 597.64,313.85 598.05,314.18 598.45,314.45 598.86,314.79 599.27,315.09 599.68,315.34 600.08,315.48 600.49,315.85 600.90,316.12 601.31,316.34 601.71,316.57 602.12,316.87 602.53,317.24 602.94,317.53 603.34,317.67 603.75,317.65 604.16,317.81 604.57,317.71 604.97,317.83 605.38,317.99 605.79,318.11 606.20,318.07 606.60,318.12 607.01,318.14 607.42,318.12 607.83,318.20 608.23,318.29 608.64,318.26 609.05,318.24 609.46,318.11 609.86,318.02 610.27,318.03 610.68,318.08 611.09,317.92 611.49,317.90 611.90,318.02 612.31,318.01 612.72,318.13 613.12,318.07 613.53,318.25 613.94,318.54 614.35,318.81 614.75,319.02 615.16,319.26 615.57,319.51 615.98,319.68 616.38,319.72 616.79,319.78 617.20,319.86 617.61,319.84 618.01,319.80 618.42,319.74 618.83,319.73 619.24,319.74 619.64,319.72 620.05,319.81 620.46,319.80 620.87,319.95 621.27,319.96 621.68,320.02 622.09,320.01 622.50,319.96 622.90,319.90 623.31,319.73 623.72,319.50 624.13,319.32 624.53,319.20 624.94,319.20 625.35,319.29 625.76,319.24 626.16,319.37 626.57,319.45 626.98,319.62 627.39,319.50 627.79,319.53 628.20,319.53 628.61,319.43 629.02,319.18 629.42,318.94 629.83,318.81 630.24,318.85 630.65,319.06 631.05,318.91 631.46,318.95 631.87,319.28 632.28,319.49 632.68,319.70 633.09,320.00 633.50,320.21 633.91,320.48 634.31,320.65 634.72,320.88 635.13,320.83 635.54,320.80 635.94,320.79 636.35,320.79 636.76,320.71 637.17,320.66 637.57,320.74 637.98,320.70 638.39,320.90 638.80,320.88 639.20,321.02 639.61,320.90 640.02,320.99 640.43,320.93 640.83,320.95 641.24,321.06 641.65,321.01 642.06,320.93 642.46,320.87 642.87,320.94 643.28,321.10 643.69,321.22 644.09,321.32 644.50,321.48 644.91,321.49 645.32,321.43 645.72,321.41 646.13,321.52 646.54,321.69 646.95,321.81 647.35,321.71 647.76,321.81 648.17,321.73 648.58,321.74 648.98,321.79 649.39,321.79 649.80,321.80 650.21,321.72 650.61,321.82 651.02,321.94 651.43,322.07 651.84,322.14 652.24,322.34 652.65,322.55 653.06,322.73 653.47,323.01 653.87,323.16 654.28,323.34 654.69,323.52 655.10,323.65 655.50,323.91 655.91,324.18 656.32,324.39 656.73,324.60 657.13,324.83 657.54,324.95 657.95,325.11 658.36,325.31 658.76,325.43 659.17,325.62 659.58,325.84 659.99,326.07 660.39,326.29 660.80,326.53 661.21,326.67 661.62,326.84 662.02,327.01 662.43,327.12 662.84,327.32 663.25,327.52 663.65,327.69 664.06,327.88 664.47,328.11 664.88,328.27 665.28,328.52 665.69,328.71 666.10,328.93 666.51,329.13 666.91,329.33 667.32,329.55 667.73,329.76 668.14,329.98 668.54,330.25 668.95,330.41 669.36,330.57 669.77,330.81 670.17,331.02 670.58,331.21 670.99,331.47 671.40,331.68 671.80,331.79 672.21,332.00 672.62,332.10 673.03,332.19 673.43,332.39 673.84,332.55 674.25,332.75 674.66,332.98 675.06,333.20 675.47,333.24 675.88,333.28 676.29,333.15 676.69,333.22 677.10,333.08 677.51,332.91 677.92,332.73 678.32,332.76 678.73,332.85 679.14,332.87 679.55,332.86 679.95,332.85 680.36,332.76 680.77,332.69 681.18,332.55 681.58,332.38 681.99,332.24 682.40,332.22 682.81,332.19 683.21,332.20 683.62,332.14 684.03,332.05 684.44,332.09 684.84,331.94 685.25,331.78 685.66,331.57 686.07,331.43 686.47,331.22 686.88,330.98 687.29,330.82 687.70,330.60 688.10,330.40 688.51,330.19 688.92,329.96 689.33,329.78 689.73,329.58 690.14,329.38 690.55,329.20 690.96,329.05 691.36,328.92 691.77,328.70 692.18,328.52 692.59,328.34 692.99,328.16 693.40,327.99 693.81,327.87 694.22,327.67 694.62,327.50 695.03,327.25 695.44,327.11 695.85,327.01 696.25,326.77 696.66,326.58 697.07,326.41 697.48,326.17 697.88,326.01 698.29,325.88 698.70,325.75 699.11,325.55 699.51,325.39 699.92,325.20 700.33,325.07 700.74,324.88 701.14,324.72 701.55,324.56 701.96,324.40 702.37,324.18 702.77,323.95 703.18,323.82 703.59,323.62 704.00,323.47 704.40,323.26 704.81,323.11 705.22,322.93 705.63,322.75 706.03,322.58 706.44,322.46 706.85,322.31 707.26,322.12 707.66,322.01 708.07,322.01 708.48,322.00 708.89,321.88 709.29,321.73 709.70,321.57 710.11,321.46 710.52,321.30 710.92,321.16 711.33,320.97 711.74,320.83 712.15,320.74 712.55,320.58 712.96,320.42 713.37,320.33 713.78,320.26 714.18,320.17 714.59,319.98 715.00,319.82 715.41,319.66 715.81,319.51 716.22,319.35 716.63,319.21 717.04,319.06 717.44,318.93 717.85,318.81 718.26,318.68 718.67,318.51 719.07,318.38 719.48,318.20 719.89,318.12 720.30,317.95 720.70,317.84 721.11,317.69 721.52,317.59 721.93,317.45 722.33,317.34 722.74,317.21 723.15,317.11 723.56,316.91 723.96,316.75 724.37,316.64 724.78,316.57 725.19,316.42 725.59,316.35 726.00,316.19 726.41,316.03 726.82,315.87 727.22,315.73 727.63,315.62 728.04,315.48 728.45,315.30 728.85,315.21 729.26,315.14 729.67,315.02 730.08,314.88 730.48,314.72 730.89,314.61 731.30,314.54 731.71,314.47 732.11,314.36 732.52,314.23 732.93,314.13 733.34,314.02 733.74,313.90 734.15,313.79 734.56,313.69 734.97,313.58 735.37,313.46 735.78,313.30 736.19,313.14 736.60,313.06 737.00,312.97 737.41,312.86 737.82,312.82 738.23,312.74 738.63,312.62 739.04,312.54 739.45,312.47 739.86,312.35 740.26,312.26 740.67,312.13 741.08,312.05 741.49,311.95 741.89,311.84 742.30,311.74 742.71,311.68 743.12,311.57 743.52,311.48 743.93,311.40 744.34,311.29 744.75,311.18 745.15,311.07 745.56,310.96 745.97,310.84 746.38,310.75 746.78,310.63 747.19,310.53 747.60,310.50 748.01,310.44 748.41,310.41 748.82,310.30 749.23,310.24 749.64,310.12 750.04,310.06 750.45,309.99 750.86,309.93 751.27,309.84 751.67,309.75 752.08,309.67 752.49,309.63 752.90,309.55 753.30,309.50 753.71,309.41 754.12,309.35 754.53,309.30 754.93,309.25 755.34,309.13 755.75,309.08 756.16,309.00 756.56,308.93 756.97,308.89 757.38,308.82 757.79,308.74 758.19,308.67 758.60,308.68 759.01,308.58 759.42,308.49 759.82,308.46 760.23,308.41 760.64,308.43 761.05,308.40 761.45,308.30 761.86,308.26 762.27,308.18 762.68,308.14 763.08,308.04 763.49,307.97 763.90,307.93 764.31,307.86 764.71,307.79 765.12,307.68 765.53,307.62 765.94,307.52 766.34,307.48 766.75,307.42 767.16,307.34 767.57,307.27 767.97,307.19 768.38,307.11 768.79,307.10 769.20,307.04 769.60,306.96 770.01,306.92 770.42,306.83 770.83,306.85 771.23,306.77 771.64,306.73 772.05,306.67 772.46,306.61 772.86,306.56 773.27,306.55 773.68,306.54 774.09,306.49 774.49,306.47 774.90,306.40 775.31,306.37 775.72,306.32 776.12,306.29 776.53,306.25 776.94,306.22 777.35,306.21 777.75,306.15 778.16,306.12 778.57,306.11 778.98,306.06 779.38,306.05 779.79,306.02 780.20,306.01 780.61,305.98 781.01,305.98 781.42,305.96 781.83,305.91 782.24,305.86 782.64,305.84 783.05,305.84 783.46,305.81 783.87,305.81 784.27,305.76 784.68,305.74 785.09,305.70 785.50,305.69 785.90,305.66 786.31,305.64 786.72,305.61 787.13,305.55 787.53,305.55 787.94,305.52 788.35,305.54 788.76,305.53 789.16,305.53 789.57,305.51 789.98,305.54 790.39,305.53 790.79,305.54 791.20,305.53 791.61,305.52 792.02,305.55 792.42,305.63 792.83,305.70 793.24,305.80 793.65,305.85 794.05,305.92 794.46,306.04 794.87,306.11 795.28,306.11 795.68,306.13 796.09,306.15 796.50,306.19 796.91,306.17 797.31,306.20 797.72,306.18 798.13,306.18 798.54,306.21 798.94,306.22 799.35,306.22 799.76,306.25 800.17,306.26 800.57,306.25 800.98,306.36 801.39,306.49 801.80,306.63 802.20,306.65 802.61,306.67 803.02,306.67 803.43,306.72 803.83,306.74 804.24,306.73 804.65,306.75 805.06,306.77 805.46,306.75 805.87,306.77 806.28,306.78 806.69,306.80 807.09,306.81 807.50,306.81 807.91,306.85 808.32,306.86 808.72,306.90 809.13,306.96 809.54,307.03 809.95,307.09 810.35,307.21 810.76,307.24 811.17,307.33 811.58,307.41 811.98,307.46 812.39,307.51 812.80,307.61 813.21,307.68 813.61,307.73 814.02,307.75 814.43,307.77 814.84,307.77 815.24,307.83 815.65,307.88 816.06,307.89 816.47,307.99 816.87,308.11 817.28,308.20 817.69,308.25 818.10,308.32 818.50,308.40 818.91,308.44 819.32,308.46 819.73,308.49 820.13,308.53 820.54,308.60 820.95,308.62 821.36,308.68 821.76,308.78 822.17,308.87 822.58,308.90 822.99,308.92 823.39,308.94 823.80,308.98 824.21,308.99 824.62,309.00 825.02,309.03 825.43,309.12 825.84,309.21 826.25,309.25 826.65,309.34 827.06,309.46 827.47,309.58 827.88,309.68 828.28,309.79 828.69,309.87 829.10,309.92 829.51,309.97 829.91,310.00 830.32,310.05 830.73,310.09 831.14,310.13 831.54,310.19 831.95,310.23 832.36,310.29 832.77,310.33 833.17,310.38 833.58,310.42 833.99,310.46 834.40,310.52 834.80,310.58 835.21,310.62 835.62,310.65 836.03,310.70 836.43,310.75 836.84,310.81 837.25,310.87 837.66,310.96 838.06,311.01 838.47,311.06 838.88,311.14 839.29,311.20 839.69,311.25 840.10,311.30 840.51,311.36 840.92,311.43 841.32,311.50 841.73,311.56 842.14,311.63 842.55,311.70 842.95,311.78 843.36,311.86 843.77,311.94 844.18,312.01 844.58,312.09 844.99,312.15 845.40,312.22 845.81,312.32 846.21,312.39 846.62,312.44 847.03,312.51 847.44,312.57 847.84,312.65 848.25,312.73 848.66,312.81 849.07,312.89 849.47,312.97 849.88,313.05 850.29,313.11 850.70,313.17 851.10,313.29 851.51,313.43 851.92,313.59 852.33,313.74 852.73,313.90 853.14,314.05 853.55,314.21 853.96,314.38 854.36,314.52 854.77,314.66 855.18,314.75 855.59,314.83 855.99,314.90 856.40,314.97 856.81,315.06 857.22,315.14 857.62,315.24 858.03,315.31 858.44,315.39 858.85,315.48 859.25,315.56 859.66,315.64 860.07,315.73 860.48,315.82 860.88,315.92 861.29,316.01 861.70,316.12 862.11,316.21 862.51,316.30 862.92,316.39 863.33,316.49 863.74,316.58 864.14,316.68 864.55,316.77 864.96,316.88 865.37,317.01 865.77,317.17 866.18,317.32 866.59,317.47 867.00,317.61 867.40,317.74 867.81,317.85 868.22,317.97 868.63,318.09 869.03,318.22 869.44,318.33 869.85,318.43 870.26,318.52 870.66,318.61 871.07,318.71 871.48,318.80 871.89,318.91 872.29,319.02 872.70,319.12 873.11,319.22 873.52,319.32 873.92,319.42 874.33,319.52 874.74,319.64 875.15,319.73 875.55,319.85 875.96,319.98 876.37,320.11 876.78,320.23 877.18,320.33 877.59,320.44 878.00,320.56 878.41,320.68 878.81,320.78 879.22,320.89 879.63,321.00 880.04,321.11 880.44,321.23 880.85,321.35 881.26,321.47 881.67,321.58 882.07,321.69 882.48,321.83 882.89,321.97 883.30,322.10 883.70,322.22 884.11,322.36 884.52,322.48 884.93,322.62 885.33,322.74 885.74,322.87 886.15,323.00 886.56,323.14 886.96,323.27 887.37,323.39 887.78,323.52 888.19,323.66 888.59,323.79 889.00,323.92 889.41,324.05 889.82,324.17 890.22,324.29 890.63,324.42 891.04,324.54 891.45,324.66 891.85,324.78 892.26,324.91 892.67,325.03 893.08,325.17 893.48,325.30 893.89,325.43 894.30,325.56 894.71,325.69 895.11,325.82 895.52,325.95 895.93,326.08 896.34,326.22 896.74,326.35 897.15,326.48 897.56,326.62 897.97,326.75 898.37,326.88 898.78,327.02 899.19,327.15 899.60,327.29 900.00,327.42"/>
<line x1="85" y1="662.00" x2="900" y2="662.00" stroke="#111827" stroke-width="1"/>
<line x1="85" y1="479.33" x2="85" y2="662.00" stroke="#111827" stroke-width="1"/>
<text x="73" y="493.33" text-anchor="end" font-family="Arial" font-size="12" fill="#111827">Reference mid</text>
<line x1="85" y1="662.00" x2="900" y2="662.00" stroke="#e5e7eb" stroke-width="1"/>
<text x="73" y="666.00" text-anchor="end" font-family="Arial" font-size="11" fill="#374151">99822</text>
<line x1="85" y1="570.67" x2="900" y2="570.67" stroke="#e5e7eb" stroke-width="1"/>
<text x="73" y="574.67" text-anchor="end" font-family="Arial" font-size="11" fill="#374151">100250</text>
<line x1="85" y1="479.33" x2="900" y2="479.33" stroke="#e5e7eb" stroke-width="1"/>
<text x="73" y="483.33" text-anchor="end" font-family="Arial" font-size="11" fill="#374151">100679</text>
<polyline fill="none" stroke="#059669" stroke-width="2" points="85.00,623.99 85.41,624.59 85.82,626.03 86.22,627.02 86.63,627.24 87.04,625.59 87.45,624.03 87.85,623.54 88.26,625.45 88.67,626.11 89.08,623.53 89.48,625.63 89.89,624.41 90.30,623.90 90.71,625.24 91.11,622.06 91.52,620.85 91.93,621.61 92.34,619.91 92.74,621.16 93.15,618.68 93.56,617.66 93.97,615.94 94.37,616.79 94.78,616.87 95.19,614.34 95.60,612.53 96.00,612.77 96.41,612.86 96.82,610.65 97.23,610.15 97.63,610.47 98.04,608.39 98.45,606.24 98.86,604.27 99.26,603.99 99.67,604.50 100.08,604.91 100.49,601.31 100.89,603.05 101.30,603.79 101.71,602.94 102.12,599.57 102.52,600.03 102.93,598.68 103.34,598.06 103.75,598.55 104.15,596.33 104.56,595.29 104.97,595.80 105.38,596.30 105.78,596.01 106.19,595.33 106.60,595.19 107.01,594.23 107.41,595.32 107.82,593.95 108.23,591.68 108.64,592.23 109.04,593.31 109.45,595.17 109.86,595.36 110.27,594.94 110.67,593.21 111.08,594.19 111.49,593.01 111.90,591.78 112.30,593.41 112.71,591.40 113.12,590.69 113.53,589.19 113.93,590.38 114.34,589.39 114.75,592.42 115.16,593.06 115.56,593.55 115.97,591.62 116.38,594.49 116.79,591.75 117.19,593.74 117.60,594.01 118.01,595.24 118.42,593.64 118.82,597.68 119.23,598.41 119.64,598.46 120.05,596.75 120.45,596.60 120.86,598.02 121.27,598.11 121.68,600.65 122.08,598.49 122.49,599.18 122.90,593.25 123.31,597.71 123.71,597.03 124.12,599.66 124.53,597.17 124.94,596.42 125.34,597.00 125.75,593.80 126.16,592.05 126.57,595.52 126.97,594.69 127.38,595.70 127.79,596.65 128.20,597.55 128.60,598.89 129.01,599.42 129.42,598.68 129.83,599.12 130.23,601.36 130.64,603.59 131.05,607.99 131.46,608.50 131.86,607.87 132.27,605.58 132.68,603.31 133.09,604.87 133.49,605.89 133.90,605.56 134.31,606.17 134.72,606.68 135.12,604.67 135.53,604.65 135.94,605.46 136.35,605.66 136.75,607.58 137.16,608.16 137.57,607.92 137.98,606.03 138.38,603.41 138.79,603.95 139.20,603.82 139.61,600.16 140.01,602.29 140.42,601.44 140.83,600.33 141.24,601.82 141.64,601.59 142.05,602.48 142.46,601.88 142.87,603.92 143.27,603.41 143.68,604.16 144.09,604.38 144.50,605.22 144.90,604.52 145.31,603.36 145.72,602.86 146.13,603.45 146.53,605.52 146.94,606.19 147.35,605.97 147.76,607.61 148.16,609.37 148.57,608.12 148.98,612.05 149.39,610.24 149.79,608.93 150.20,607.83 150.61,605.21 151.02,605.36 151.42,603.82 151.83,604.82 152.24,603.55 152.65,603.20 153.05,604.16 153.46,604.23 153.87,604.04 154.28,607.22 154.68,606.90 155.09,608.76 155.50,606.98 155.91,606.64 156.31,605.63 156.72,607.40 157.13,606.52 157.54,606.31 157.94,603.95 158.35,603.65 158.76,603.16 159.17,599.52 159.57,600.64 159.98,601.42 160.39,603.46 160.80,603.70 161.20,602.59 161.61,601.46 162.02,596.61 162.43,597.79 162.83,599.51 163.24,599.76 163.65,599.35 164.06,600.20 164.46,598.87 164.87,599.19 165.28,600.63 165.69,602.06 166.09,601.20 166.50,599.33 166.91,598.53 167.32,599.90 167.72,598.07 168.13,599.83 168.54,599.27 168.95,600.42 169.35,600.40 169.76,600.87 170.17,598.16 170.58,596.38 170.98,600.43 171.39,599.31 171.80,597.47 172.21,596.58 172.61,597.32 173.02,594.86 173.43,591.77 173.84,589.64 174.24,589.60 174.65,591.55 175.06,593.22 175.47,593.86 175.87,594.61 176.28,596.44 176.69,597.50 177.10,597.92 177.50,599.43 177.91,602.62 178.32,603.83 178.73,604.16 179.13,604.74 179.54,607.66 179.95,607.89 180.36,609.61 180.76,609.08 181.17,611.07 181.58,611.87 181.99,613.45 182.39,614.27 182.80,613.46 183.21,615.70 183.62,615.17 184.02,616.65 184.43,615.27 184.84,613.81 185.25,611.39 185.65,613.32 186.06,610.62 186.47,609.80 186.88,610.83 187.28,611.00 187.69,612.29 188.10,610.91 188.51,611.86 188.91,613.13 189.32,611.06 189.73,610.07 190.14,610.63 190.54,613.19 190.95,613.02 191.36,613.27 191.77,612.46 192.17,614.35 192.58,614.48 192.99,613.62 193.40,612.85 193.80,617.02 194.21,616.47 194.62,614.40 195.03,615.91 195.43,616.13 195.84,619.12 196.25,619.33 196.66,621.51 197.06,624.73 197.47,626.87 197.88,624.34 198.29,623.73 198.69,623.98 199.10,622.34 199.51,623.70 199.92,625.77 200.32,624.39 200.73,624.94 201.14,624.96 201.55,624.17 201.95,623.93 202.36,626.04 202.77,624.02 203.18,627.12 203.58,625.96 203.99,627.87 204.40,630.92 204.81,627.18 205.21,629.23 205.62,627.56 206.03,628.86 206.44,626.83 206.84,627.40 207.25,627.71 207.66,629.10 208.07,628.49 208.47,623.23 208.88,622.20 209.29,620.72 209.70,622.13 210.10,622.06 210.51,626.11 210.92,626.83 211.33,625.02 211.73,624.67 212.14,623.70 212.55,625.85 212.96,623.02 213.36,621.34 213.77,621.85 214.18,622.08 214.59,622.55 214.99,621.72 215.40,620.64 215.81,615.25 216.22,615.06 216.62,614.21 217.03,615.75 217.44,614.40 217.85,612.84 218.25,612.56 218.66,615.52 219.07,615.48 219.48,614.71 219.88,615.43 220.29,618.94 220.70,617.62 221.11,619.82 221.51,619.12 221.92,621.56 222.33,622.60 222.74,623.39 223.14,622.12 223.55,623.27 223.96,625.15 224.37,622.03 224.77,620.71 225.18,620.29 225.59,618.54 226.00,620.46 226.40,617.48 226.81,619.70 227.22,620.57 227.63,621.62 228.03,623.32 228.44,622.93 228.85,623.38 229.26,624.64 229.66,624.34 230.07,623.77 230.48,623.73 230.89,623.98 231.29,620.93 231.70,620.61 232.11,620.85 232.52,619.38 232.92,617.33 233.33,616.24 233.74,619.54 234.15,621.94 234.55,622.27 234.96,625.63 235.37,624.98 235.78,624.66 236.18,624.24 236.59,625.04 237.00,621.91 237.41,624.73 237.81,624.84 238.22,627.25 238.63,629.40 239.04,629.89 239.44,629.08 239.85,629.61 240.26,628.83 240.67,625.74 241.07,626.61 241.48,628.15 241.89,626.05 242.30,627.02 242.70,627.49 243.11,625.57 243.52,624.78 243.93,625.47 244.33,627.06 244.74,626.16 245.15,626.18 245.56,627.01 245.96,628.37 246.37,631.05 246.78,629.63 247.19,631.65 247.59,633.97 248.00,635.46 248.41,634.68 248.82,638.01 249.22,638.51 249.63,637.84 250.04,638.24 250.45,639.28 250.85,640.21 251.26,641.14 251.67,640.05 252.08,638.07 252.48,636.60 252.89,634.59 253.30,635.18 253.71,633.15 254.11,635.30 254.52,632.67 254.93,634.26 255.34,635.08 255.74,636.38 256.15,636.08 256.56,636.51 256.97,634.61 257.37,633.06 257.78,634.18 258.19,633.08 258.60,631.52 259.00,631.46 259.41,631.74 259.82,631.20 260.23,629.13 260.63,631.84 261.04,632.65 261.45,633.62 261.86,635.56 262.26,637.83 262.67,637.47 263.08,638.18 263.49,638.40 263.89,639.77 264.30,640.84 264.71,639.61 265.12,641.04 265.52,643.06 265.93,642.51 266.34,642.28 266.75,642.53 267.15,639.45 267.56,639.57 267.97,638.01 268.38,635.82 268.78,636.90 269.19,635.80 269.60,633.99 270.01,632.40 270.41,632.47 270.82,631.88 271.23,633.78 271.64,637.48 272.04,637.35 272.45,635.36 272.86,635.45 273.27,638.44 273.67,638.82 274.08,636.99 274.49,634.50 274.90,632.14 275.30,634.09 275.71,633.59 276.12,631.61 276.53,631.98 276.93,634.42 277.34,631.14 277.75,635.54 278.16,635.53 278.56,637.64 278.97,639.15 279.38,641.24 279.79,641.20 280.19,640.82 280.60,640.48 281.01,639.59 281.42,638.32 281.82,637.88 282.23,637.57 282.64,636.81 283.05,638.25 283.45,634.57 283.86,633.89 284.27,638.97 284.68,638.23 285.08,639.14 285.49,635.37 285.90,636.32 286.31,638.09 286.71,637.06 287.12,637.58 287.53,639.35 287.94,638.05 288.34,636.69 288.75,635.47 289.16,639.18 289.57,636.54 289.97,638.97 290.38,639.16 290.79,641.09 291.20,641.28 291.60,640.93 292.01,641.42 292.42,641.83 292.83,640.56 293.23,640.55 293.64,643.45 294.05,645.46 294.46,645.78 294.86,647.60 295.27,644.49 295.68,642.20 296.09,642.56 296.49,643.58 296.90,641.77 297.31,642.78 297.72,642.29 298.12,639.10 298.53,639.51 298.94,637.77 299.35,637.02 299.75,636.63 300.16,633.95 300.57,633.33 300.98,635.27 301.38,634.95 301.79,634.29 302.20,636.72 302.61,637.59 303.01,638.27 303.42,637.66 303.83,640.61 304.24,638.59 304.64,640.16 305.05,638.38 305.46,638.60 305.87,641.56 306.27,637.42 306.68,638.03 307.09,639.50 307.50,639.62 307.90,641.07 308.31,638.42 308.72,639.24 309.13,640.41 309.53,640.77 309.94,642.24 310.35,644.38 310.76,645.00 311.16,645.88 311.57,644.33 311.98,642.13 312.39,640.89 312.79,644.20 313.20,643.86 313.61,645.37 314.02,642.39 314.42,643.08 314.83,643.88 315.24,644.43 315.65,641.81 316.05,644.44 316.46,645.61 316.87,644.91 317.28,645.17 317.68,644.74 318.09,643.68 318.50,647.79 318.91,649.40 319.31,647.14 319.72,646.84 320.13,645.06 320.54,645.04 320.94,644.43 321.35,641.64 321.76,641.47 322.17,642.33 322.57,640.00 322.98,639.02 323.39,641.79 323.80,642.08 324.20,642.54 324.61,641.20 325.02,640.68 325.43,642.67 325.83,644.00 326.24,644.96 326.65,643.76 327.06,645.45 327.46,647.62 327.87,648.67 328.28,647.17 328.69,644.28 329.09,645.06 329.50,645.94 329.91,645.05 330.32,646.49 330.72,646.69 331.13,646.74 331.54,645.20 331.95,643.34 332.35,644.38 332.76,643.18 333.17,640.57 333.58,639.71 333.98,640.74 334.39,641.05 334.80,643.18 335.21,641.22 335.61,641.94 336.02,643.32 336.43,643.48 336.84,640.41 337.24,640.63 337.65,639.43 338.06,640.31 338.47,641.27 338.87,644.86 339.28,645.46 339.69,643.53 340.10,641.56 340.50,642.30 340.91,642.43 341.32,643.31 341.73,641.28 342.13,639.66 342.54,636.45 342.95,636.10 343.36,636.83 343.76,635.94 344.17,633.48 344.58,637.54 344.99,638.94 345.39,638.74 345.80,638.87 346.21,635.66 346.62,636.05 347.02,632.36 347.43,635.12 347.84,632.37 348.25,630.47 348.65,629.98 349.06,625.80 349.47,625.01 349.88,624.02 350.28,623.92 350.69,623.90 351.10,624.96 351.51,626.82 351.91,626.60 352.32,627.06 352.73,626.61 353.14,625.32 353.54,623.56 353.95,623.49 354.36,620.06 354.77,618.14 355.17,620.81 355.58,622.20 355.99,618.66 356.40,617.11 356.80,616.32 357.21,614.83 357.62,614.33 358.03,615.10 358.43,614.93 358.84,613.12 359.25,612.92 359.66,616.32 360.06,619.01 360.47,620.04 360.88,620.02 361.29,620.24 361.69,616.88 362.10,616.40 362.51,614.16 362.92,614.12 363.32,615.18 363.73,614.63 364.14,614.63 364.55,613.23 364.95,610.08 365.36,607.37 365.77,606.27 366.18,604.95 366.58,608.55 366.99,612.21 367.40,610.09 367.81,606.19 368.21,603.97 368.62,603.68 369.03,601.11 369.44,602.11 369.84,603.77 370.25,601.37 370.66,603.77 371.07,603.39 371.47,605.37 371.88,600.40 372.29,601.72 372.70,597.21 373.10,594.03 373.51,593.67 373.92,591.23 374.33,593.32 374.73,592.90 375.14,590.78 375.55,591.39 375.96,593.50 376.36,594.47 376.77,594.21 377.18,592.88 377.59,594.86 377.99,595.98 378.40,598.92 378.81,600.48 379.22,598.98 379.62,600.16 380.03,600.47 380.44,601.45 380.85,601.03 381.25,602.41 381.66,601.19 382.07,600.02 382.48,602.01 382.88,603.51 383.29,604.29 383.70,606.25 384.11,607.63 384.51,608.21 384.92,608.39 385.33,605.59 385.74,602.57 386.14,603.61 386.55,604.76 386.96,601.76 387.37,604.76 387.77,605.35 388.18,602.72 388.59,603.59 389.00,601.78 389.40,602.13 389.81,599.84 390.22,600.48 390.63,600.66 391.03,601.18 391.44,602.87 391.85,601.82 392.26,601.83 392.66,601.24 393.07,601.03 393.48,602.29 393.89,603.32 394.29,602.86 394.70,604.68 395.11,603.31 395.52,602.15 395.92,603.65 396.33,602.49 396.74,602.60 397.15,605.16 397.55,605.15 397.96,607.07 398.37,609.59 398.78,611.59 399.18,615.29 399.59,616.53 400.00,614.38 400.41,615.02 400.81,614.64 401.22,613.87 401.63,613.14 402.04,614.34 402.44,612.46 402.85,615.35 403.26,615.92 403.67,613.17 404.07,612.22 404.48,611.01 404.89,608.82 405.30,608.98 405.70,606.32 406.11,609.24 406.52,611.14 406.93,610.44 407.33,609.88 407.74,610.28 408.15,608.73 408.56,610.13 408.96,610.40 409.37,609.81 409.78,610.60 410.19,610.02 410.59,609.71 411.00,607.80 411.41,606.88 411.82,605.82 412.22,606.04 412.63,602.23 413.04,600.30 413.45,599.37 413.85,601.07 414.26,600.22 414.67,599.84 415.08,600.57 415.48,601.57 415.89,604.79 416.30,604.63 416.71,604.51 417.11,604.78 417.52,604.79 417.93,605.08 418.34,605.54 418.74,604.55 419.15,605.44 419.56,604.88 419.97,605.50 420.37,608.83 420.78,608.57 421.19,609.08 421.60,607.14 422.00,608.49 422.41,610.41 422.82,608.78 423.23,607.26 423.63,607.03 424.04,608.12 424.45,607.73 424.86,608.18 425.26,607.88 425.67,606.59 426.08,604.29 426.49,601.41 426.89,604.37 427.30,604.34 427.71,601.48 428.12,600.66 428.52,603.11 428.93,602.57 429.34,601.24 429.75,600.94 430.15,603.15 430.56,605.34 430.97,604.85 431.38,603.49 431.78,603.55 432.19,605.12 432.60,605.46 433.01,603.26 433.41,602.97 433.82,601.25 434.23,601.61 434.64,600.55 435.04,600.22 435.45,599.92 435.86,600.40 436.27,599.19 436.67,599.76 437.08,598.29 437.49,597.39 437.90,594.93 438.30,592.87 438.71,591.61 439.12,590.55 439.53,590.87 439.93,591.71 440.34,588.59 440.75,589.90 441.16,591.30 441.56,591.09 441.97,589.42 442.38,588.92 442.79,588.76 443.19,588.78 443.60,589.45 444.01,590.07 444.42,588.69 444.82,590.48 445.23,590.51 445.64,592.84 446.05,590.26 446.45,590.70 446.86,591.99 447.27,593.44 447.68,593.72 448.08,593.70 448.49,593.17 448.90,594.54 449.31,594.10 449.71,595.90 450.12,598.85 450.53,597.93 450.94,599.78 451.34,601.13 451.75,598.98 452.16,596.55 452.57,594.77 452.97,597.25 453.38,596.02 453.79,598.31 454.20,600.77 454.60,601.17 455.01,601.48 455.42,599.51 455.83,598.93 456.23,598.79 456.64,597.88 457.05,599.13 457.46,599.57 457.86,600.82 458.27,602.85 458.68,600.59 459.09,595.90 459.49,597.74 459.90,598.07 460.31,601.55 460.72,602.42 461.12,602.60 461.53,601.97 461.94,603.01 462.35,602.22 462.75,603.44 463.16,602.65 463.57,603.92 463.98,603.27 464.38,604.55 464.79,604.25 465.20,603.35 465.61,602.97 466.01,602.71 466.42,599.57 466.83,599.25 467.24,599.98 467.64,599.86 468.05,600.19 468.46,598.40 468.87,599.98 469.27,598.46 469.68,594.95 470.09,595.38 470.50,593.27 470.90,594.96 471.31,594.12 471.72,594.22 472.13,592.28 472.53,594.22 472.94,592.83 473.35,593.56 473.76,590.73 474.16,589.94 474.57,589.79 474.98,587.18 475.39,585.46 475.79,584.88 476.20,587.43 476.61,587.83 477.02,585.03 477.42,586.41 477.83,587.72 478.24,585.91 478.65,583.34 479.05,586.25 479.46,587.68 479.87,586.90 480.28,585.56 480.68,584.01 481.09,584.92 481.50,585.40 481.91,583.84 482.31,583.28 482.72,582.08 483.13,582.30 483.54,582.80 483.94,582.22 484.35,580.50 484.76,580.43 485.17,576.99 485.57,575.33 485.98,574.75 486.39,575.64 486.80,573.33 487.20,570.33 487.61,569.67 488.02,568.08 488.43,567.54 488.83,568.25 489.24,567.71 489.65,562.38 490.06,562.37 490.46,565.04 490.87,562.86 491.28,561.57 491.69,561.92 492.09,561.47 492.50,561.09 492.91,558.93 493.32,556.78 493.72,558.78 494.13,556.02 494.54,554.71 494.95,552.64 495.35,554.29 495.76,552.31 496.17,550.41 496.58,551.82 496.98,552.04 497.39,550.59 497.80,548.74 498.21,550.42 498.61,549.80 499.02,549.57 499.43,548.40 499.84,545.64 500.24,545.73 500.65,549.27 501.06,550.85 501.47,550.53 501.87,551.18 502.28,553.80 502.69,555.00 503.10,553.44 503.50,555.32 503.91,553.23 504.32,551.76 504.73,553.82 505.13,552.59 505.54,551.33 505.95,550.40 506.36,551.35 506.76,549.39 507.17,549.85 507.58,550.76 507.99,553.03 508.39,552.59 508.80,551.01 509.21,555.65 509.62,551.47 510.02,548.44 510.43,550.00 510.84,551.69 511.25,551.89 511.65,549.88 512.06,552.03 512.47,550.59 512.88,551.45 513.28,548.44 513.69,549.43 514.10,551.24 514.51,549.55 514.91,550.90 515.32,553.40 515.73,551.05 516.14,551.65 516.54,550.46 516.95,548.69 517.36,547.75 517.77,549.17 518.17,548.63 518.58,551.93 518.99,550.44 519.40,552.74 519.80,551.67 520.21,551.74 520.62,550.51 521.03,550.53 521.43,551.01 521.84,552.04 522.25,554.64 522.66,551.30 523.06,551.58 523.47,550.55 523.88,550.79 524.29,550.27 524.69,548.35 525.10,547.68 525.51,550.63 525.92,551.95 526.32,549.80 526.73,551.16 527.14,551.52 527.55,554.32 527.95,557.77 528.36,557.22 528.77,556.29 529.18,557.90 529.58,557.69 529.99,556.94 530.40,558.20 530.81,561.60 531.21,559.19 531.62,559.02 532.03,559.27 532.44,557.03 532.84,556.74 533.25,554.49 533.66,554.69 534.07,553.85 534.47,555.05 534.88,559.24 535.29,558.98 535.70,555.58 536.10,554.10 536.51,557.63 536.92,560.44 537.33,561.95 537.73,564.07 538.14,565.50 538.55,565.86 538.96,563.16 539.36,564.49 539.77,563.59 540.18,563.87 540.59,559.35 540.99,559.46 541.40,556.60 541.81,556.82 542.22,555.77 542.62,553.78 543.03,556.48 543.44,555.75 543.85,553.60 544.25,554.22 544.66,554.18 545.07,554.62 545.48,553.59 545.88,555.58 546.29,554.98 546.70,555.34 547.11,552.63 547.51,554.07 547.92,554.21 548.33,555.78 548.74,556.02 549.14,559.04 549.55,559.72 549.96,560.47 550.37,560.61 550.77,559.20 551.18,556.32 551.59,556.93 552.00,555.01 552.40,555.06 552.81,555.43 553.22,554.76 553.63,555.78 554.03,552.72 554.44,552.88 554.85,552.85 555.26,550.95 555.66,549.10 556.07,551.10 556.48,552.74 556.89,551.72 557.29,551.68 557.70,551.42 558.11,554.09 558.52,555.88 558.92,557.98 559.33,558.48 559.74,560.29 560.15,562.87 560.55,561.93 560.96,559.90 561.37,558.27 561.78,560.56 562.18,562.86 562.59,562.19 563.00,563.17 563.41,567.27 563.81,568.82 564.22,566.44 564.63,567.34 565.04,566.39 565.44,567.71 565.85,568.72 566.26,566.35 566.67,564.82 567.07,565.23 567.48,565.66 567.89,564.60 568.30,565.40 568.70,564.00 569.11,566.15 569.52,566.94 569.93,565.91 570.33,567.46 570.74,567.51 571.15,568.40 571.56,569.22 571.96,570.06 572.37,572.02 572.78,573.92 573.19,574.29 573.59,577.42 574.00,581.01 574.41,580.52 574.82,578.51 575.22,576.11 575.63,575.63 576.04,576.36 576.45,578.75 576.85,580.68 577.26,580.52 577.67,580.36 578.08,582.89 578.48,583.08 578.89,584.83 579.30,584.77 579.71,587.42 580.11,586.78 580.52,589.79 580.93,591.19 581.34,593.33 581.74,594.40 582.15,594.01 582.56,595.47 582.97,596.66 583.37,597.16 583.78,596.32 584.19,599.79 584.60,598.88 585.01,597.06 585.41,596.84 585.82,594.30 586.23,594.86 586.64,595.93 587.04,597.70 587.45,598.58 587.86,601.23 588.27,599.43 588.67,599.01 589.08,598.98 589.49,599.36 589.90,599.44 590.30,600.34 590.71,601.85 591.12,600.55 591.53,597.37 591.93,597.22 592.34,597.02 592.75,595.99 593.16,595.70 593.56,596.09 593.97,596.83 594.38,595.30 594.79,594.00 595.19,595.01 595.60,597.33 596.01,597.62 596.42,597.30 596.82,598.39 597.23,596.96 597.64,594.98 598.05,596.30 598.45,594.91 598.86,592.87 599.27,593.37 599.68,596.48 600.08,595.23 600.49,595.93 600.90,597.02 601.31,598.09 601.71,597.31 602.12,595.06 602.53,596.80 602.94,596.42 603.34,594.03 603.75,594.84 604.16,595.23 604.57,594.93 604.97,593.23 605.38,594.64 605.79,595.14 606.20,592.85 606.60,595.24 607.01,593.47 607.42,591.96 607.83,593.75 608.23,590.49 608.64,591.18 609.05,591.89 609.46,592.84 609.86,592.74 610.27,594.32 610.68,593.41 611.09,590.71 611.49,589.36 611.90,591.70 612.31,591.84 612.72,591.40 613.12,594.33 613.53,597.05 613.94,599.78 614.35,601.68 614.75,601.32 615.16,601.37 615.57,600.10 615.98,595.97 616.38,594.49 616.79,594.96 617.20,595.20 617.61,593.08 618.01,592.40 618.42,594.40 618.83,594.75 619.24,596.93 619.64,595.85 620.05,596.81 620.46,595.62 620.87,591.99 621.27,593.87 621.68,596.08 622.09,592.77 622.50,591.78 622.90,589.81 623.31,588.07 623.72,589.09 624.13,589.19 624.53,590.23 624.94,590.47 625.35,591.02 625.76,590.75 626.16,592.02 626.57,592.35 626.98,589.19 627.39,589.21 627.79,588.90 628.20,586.83 628.61,587.70 629.02,585.91 629.42,588.17 629.83,588.51 630.24,592.91 630.65,592.78 631.05,592.92 631.46,596.56 631.87,596.43 632.28,597.34 632.68,598.66 633.09,600.16 633.50,600.67 633.91,601.13 634.31,600.73 634.72,595.97 635.13,593.51 635.54,593.13 635.94,594.49 636.35,595.18 636.76,595.19 637.17,593.76 637.57,592.63 637.98,594.09 638.39,592.74 638.80,592.04 639.20,591.49 639.61,591.30 640.02,591.72 640.43,591.70 640.83,590.28 641.24,591.80 641.65,591.36 642.06,591.81 642.46,593.02 642.87,594.70 643.28,593.56 643.69,591.61 644.09,591.94 644.50,591.54 644.91,592.54 645.32,594.13 645.72,596.27 646.13,597.64 646.54,599.51 646.95,597.38 647.35,598.63 647.76,596.55 648.17,596.92 648.58,595.28 648.98,595.45 649.39,596.62 649.80,593.96 650.21,595.79 650.61,598.75 651.02,597.20 651.43,597.80 651.84,598.94 652.24,601.59 652.65,601.06 653.06,600.36 653.47,601.37 653.87,602.06 654.28,603.40 654.69,604.24 655.10,605.21 655.50,606.16 655.91,605.50 656.32,606.70 656.73,607.28 657.13,608.62 657.54,608.48 657.95,607.64 658.36,607.81 658.76,607.00 659.17,607.85 659.58,606.76 659.99,606.54 660.39,604.11 660.80,603.48 661.21,603.04 661.62,602.86 662.02,601.52 662.43,604.29 662.84,606.19 663.25,606.05 663.65,604.69 664.06,607.85 664.47,607.83 664.88,609.74 665.28,608.65 665.69,608.48 666.10,611.47 666.51,611.41 666.91,612.30 667.32,614.11 667.73,610.13 668.14,608.72 668.54,610.10 668.95,608.06 669.36,609.53 669.77,609.93 670.17,610.69 670.58,611.00 670.99,608.82 671.40,609.80 671.80,608.24 672.21,607.44 672.62,605.16 673.03,603.34 673.43,605.20 673.84,604.71 674.25,605.52 674.66,606.12 675.06,603.65 675.47,601.85 675.88,599.38 676.29,599.35 676.69,598.55 677.10,596.20 677.51,597.28 677.92,599.42 678.32,602.09 678.73,603.68 679.14,600.21 679.55,598.04 679.95,598.95 680.36,599.86 680.77,597.64 681.18,596.37 681.58,596.61 681.99,596.98 682.40,598.21 682.81,598.29 683.21,599.05 683.62,599.64 684.03,599.69 684.44,596.88 684.84,594.51 685.25,592.58 685.66,591.96 686.07,590.94 686.47,590.68 686.88,590.76 687.29,591.03 687.70,593.77 688.10,592.49 688.51,595.17 688.92,593.60 689.33,590.79 689.73,589.64 690.14,588.04 690.55,586.74 690.96,587.34 691.36,588.08 691.77,588.97 692.18,588.49 692.59,586.93 692.99,585.63 693.40,586.22 693.81,585.81 694.22,586.92 694.62,584.80 695.03,584.91 695.44,584.90 695.85,586.62 696.25,586.27 696.66,585.47 697.07,582.19 697.48,583.50 697.88,583.27 698.29,584.33 698.70,583.14 699.11,583.91 699.51,581.23 699.92,580.64 700.33,576.97 700.74,578.24 701.14,579.81 701.55,574.17 701.96,577.90 702.37,577.70 702.77,580.27 703.18,580.36 703.59,583.76 704.00,584.25 704.40,583.31 704.81,584.28 705.22,579.75 705.63,582.30 706.03,585.02 706.44,585.76 706.85,587.18 707.26,586.91 707.66,586.66 708.07,589.53 708.48,587.53 708.89,587.41 709.29,585.97 709.70,586.35 710.11,584.72 710.52,580.94 710.92,580.96 711.33,582.16 711.74,580.09 712.15,579.39 712.55,580.08 712.96,578.69 713.37,581.36 713.78,583.26 714.18,583.86 714.59,582.52 715.00,579.92 715.41,580.71 715.81,580.18 716.22,582.45 716.63,580.67 717.04,579.95 717.44,577.82 717.85,577.89 718.26,577.49 718.67,571.44 719.07,570.84 719.48,568.23 719.89,569.44 720.30,571.50 720.70,571.94 721.11,568.87 721.52,569.47 721.93,570.37 722.33,567.31 722.74,566.18 723.15,567.32 723.56,569.37 723.96,568.77 724.37,565.18 724.78,565.16 725.19,561.93 725.59,558.35 726.00,558.35 726.41,557.62 726.82,557.78 727.22,558.31 727.63,557.82 728.04,556.37 728.45,557.29 728.85,556.33 729.26,557.47 729.67,559.74 730.08,560.64 730.48,560.48 730.89,558.28 731.30,561.50 731.71,560.69 732.11,560.79 732.52,558.23 732.93,555.13 733.34,556.82 733.74,555.58 734.15,556.99 734.56,556.53 734.97,555.46 735.37,556.51 735.78,556.49 736.19,552.93 736.60,549.96 737.00,548.44 737.41,546.32 737.82,548.93 738.23,545.82 738.63,542.98 739.04,542.99 739.45,541.46 739.86,541.25 740.26,542.78 740.67,541.90 741.08,537.36 741.49,540.92 741.89,540.96 742.30,541.28 742.71,538.68 743.12,538.10 743.52,537.59 743.93,534.59 744.34,533.97 744.75,534.29 745.15,535.15 745.56,535.03 745.97,532.73 746.38,533.92 746.78,534.38 747.19,533.57 747.60,532.39 748.01,535.66 748.41,533.04 748.82,530.35 749.23,529.82 749.64,529.44 750.04,531.32 750.45,532.53 750.86,533.31 751.27,531.43 751.67,529.90 752.08,529.89 752.49,527.83 752.90,530.62 753.30,529.24 753.71,528.17 754.12,530.54 754.53,529.68 754.93,533.04 755.34,531.99 755.75,531.82 756.16,534.59 756.56,532.35 756.97,532.65 757.38,529.75 757.79,526.79 758.19,524.68 758.60,522.34 759.01,523.68 759.42,521.76 759.82,523.76 760.23,521.38 760.64,521.48 761.05,522.10 761.45,521.43 761.86,519.70 762.27,518.64 762.68,519.86 763.08,518.24 763.49,520.41 763.90,521.23 764.31,518.95 764.71,518.71 765.12,518.83 765.53,520.02 765.94,520.82 766.34,519.45 766.75,519.28 767.16,519.58 767.57,518.54 767.97,519.74 768.38,517.26 768.79,516.46 769.20,519.21 769.60,519.84 770.01,519.15 770.42,518.90 770.83,519.48 771.23,521.39 771.64,520.55 772.05,522.58 772.46,523.18 772.86,522.78 773.27,520.11 773.68,519.27 774.09,521.23 774.49,521.68 774.90,520.25 775.31,520.01 775.72,522.15 776.12,521.37 776.53,519.75 776.94,518.40 777.35,518.54 777.75,516.01 778.16,514.34 778.57,513.76 778.98,513.67 779.38,514.20 779.79,516.46 780.20,512.08 780.61,512.41 781.01,511.40 781.42,509.45 781.83,506.14 782.24,503.58 782.64,506.11 783.05,506.40 783.46,506.31 783.87,508.37 784.27,508.10 784.68,507.43 785.09,506.70 785.50,509.18 785.90,509.88 786.31,508.49 786.72,508.80 787.13,506.82 787.53,506.79 787.94,508.62 788.35,507.53 788.76,505.63 789.16,507.27 789.57,508.24 789.98,509.13 790.39,509.38 790.79,510.68 791.20,513.25 791.61,514.22 792.02,518.14 792.42,518.44 792.83,519.99 793.24,517.76 793.65,517.62 794.05,518.25 794.46,515.74 794.87,514.59 795.28,512.20 795.68,513.74 796.09,515.09 796.50,513.35 796.91,512.68 797.31,513.51 797.72,514.08 798.13,514.00 798.54,511.75 798.94,511.66 799.35,512.35 799.76,511.48 800.17,511.34 800.57,514.26 800.98,515.83 801.39,516.86 801.80,511.57 802.20,512.92 802.61,511.77 803.02,512.06 803.43,510.52 803.83,511.09 804.24,506.44 804.65,504.55 805.06,505.09 805.46,506.24 805.87,504.63 806.28,504.84 806.69,503.75 807.09,505.14 807.50,505.63 807.91,507.09 808.32,507.37 808.72,507.78 809.13,510.98 809.54,511.13 809.95,511.76 810.35,511.30 810.76,509.46 811.17,510.14 811.58,509.82 811.98,509.86 812.39,510.90 812.80,510.84 813.21,508.66 813.61,509.88 814.02,507.78 814.43,508.02 814.84,508.63 815.24,508.23 815.65,507.77 816.06,510.07 816.47,510.18 816.87,511.59 817.28,509.18 817.69,507.33 818.10,510.68 818.50,508.11 818.91,506.48 819.32,506.10 819.73,507.82 820.13,508.79 820.54,507.02 820.95,506.77 821.36,509.09 821.76,509.09 822.17,508.51 822.58,503.01 822.99,505.17 823.39,505.34 823.80,505.59 824.21,504.62 824.62,505.63 825.02,506.78 825.43,507.28 825.84,507.11 826.25,506.81 826.65,509.28 827.06,508.29 827.47,508.38 827.88,507.53 828.28,507.91 828.69,505.43 829.10,503.90 829.51,505.96 829.91,505.02 830.32,504.97 830.73,505.03 831.14,504.01 831.54,506.61 831.95,505.43 832.36,503.08 832.77,503.31 833.17,503.38 833.58,501.09 833.99,502.03 834.40,501.46 834.80,503.43 835.21,503.89 835.62,502.36 836.03,500.80 836.43,501.33 836.84,500.31 837.25,501.20 837.66,499.48 838.06,499.15 838.47,498.25 838.88,498.72 839.29,500.20 839.69,501.85 840.10,503.47 840.51,498.63 840.92,496.92 841.32,495.22 841.73,497.39 842.14,497.60 842.55,498.63 842.95,497.02 843.36,499.35 843.77,498.17 844.18,496.02 844.58,497.00 844.99,499.43 845.40,497.75 845.81,496.70 846.21,496.51 846.62,497.42 847.03,496.65 847.44,497.22 847.84,499.05 848.25,498.59 848.66,499.02 849.07,499.97 849.47,499.15 849.88,500.61 850.29,499.76 850.70,503.73 851.10,505.21 851.51,505.43 851.92,507.40 852.33,512.12 852.73,513.95 853.14,510.07 853.55,509.29 853.96,508.10 854.36,506.09 854.77,504.82 855.18,500.00 855.59,499.45 855.99,500.25 856.40,502.52 856.81,502.46 857.22,502.20 857.62,499.25 858.03,496.21 858.44,496.22 858.85,496.22 859.25,493.48 859.66,493.12 860.07,493.89 860.48,497.02 860.88,496.37 861.29,495.73 861.70,492.40 862.11,493.40 862.51,493.74 862.92,496.10 863.33,497.10 863.74,499.16 864.14,497.45 864.55,499.54 864.96,501.79 865.37,503.40 865.77,505.14 866.18,506.15 866.59,505.54 867.00,505.63 867.40,503.34 867.81,503.91 868.22,505.07 868.63,504.30 869.03,501.69 869.44,499.14 869.85,495.22 870.26,496.62 870.66,498.57 871.07,499.23 871.48,500.70 871.89,501.10 872.29,498.17 872.70,497.81 873.11,495.80 873.52,495.14 873.92,494.54 874.33,497.36 874.74,497.85 875.15,499.23 875.55,501.79 875.96,501.31 876.37,499.41 876.78,498.83 877.18,498.82 877.59,497.67 878.00,495.20 878.41,494.98 878.81,495.24 879.22,493.78 879.63,494.48 880.04,494.43 880.44,495.60 880.85,496.89 881.26,497.58 881.67,497.99 882.07,499.27 882.48,499.37 882.89,500.71 883.30,501.13 883.70,502.18 884.11,499.24 884.52,502.00 884.93,501.77 885.33,499.52 885.74,502.33 886.15,504.38 886.56,501.56 886.96,502.55 887.37,502.01 887.78,502.50 888.19,502.74 888.59,500.12 889.00,500.85 889.41,498.98 889.82,497.55 890.22,495.86 890.63,494.66 891.04,495.27 891.45,491.93 891.85,493.13 892.26,492.97 892.67,496.56 893.08,498.72 893.48,499.31 893.89,497.80 894.30,501.37 894.71,498.17 895.11,496.53 895.52,496.98 895.93,499.67 896.34,498.79 896.74,496.37 897.15,497.79 897.56,498.09 897.97,498.60 898.37,499.52 898.78,497.40 899.19,499.87 899.60,499.41 900.00,500.92"/>
<text x="85.00" y="696" text-anchor="middle" font-family="Arial" font-size="12" fill="#374151">0</text>
<text x="288.75" y="696" text-anchor="middle" font-family="Arial" font-size="12" fill="#374151">50000</text>
<text x="492.50" y="696" text-anchor="middle" font-family="Arial" font-size="12" fill="#374151">100000</text>
<text x="696.25" y="696" text-anchor="middle" font-family="Arial" font-size="12" fill="#374151">149999</text>
<text x="900.00" y="696" text-anchor="middle" font-family="Arial" font-size="12" fill="#374151">199999</text>
<text x="492.5" y="716" text-anchor="middle" font-family="Arial" font-size="14" fill="#111827">Event index</text>
</svg>
