<svg xmlns="http://www.w3.org/2000/svg" width="940" height="540" viewBox="0 0 940 540">
<rect width="100%" height="100%" fill="#ffffff"/>
<text x="470.0" y="26" text-anchor="middle" font-family="Arial" font-size="18" fill="#111827">Calibrated Avellaneda Stoikov Inventory By Regime</text>
<line x1="85" y1="470" x2="785" y2="470" stroke="#111827" stroke-width="1"/>
<line x1="85" y1="42" x2="85" y2="470" stroke="#111827" stroke-width="1"/>
<line x1="85.00" y1="42" x2="85.00" y2="470" stroke="#e5e7eb" stroke-width="1"/>
<text x="85.00" y="494" text-anchor="middle" font-family="Arial" font-size="12" fill="#374151">0</text>
<line x1="260.00" y1="42" x2="260.00" y2="470" stroke="#e5e7eb" stroke-width="1"/>
<text x="260.00" y="494" text-anchor="middle" font-family="Arial" font-size="12" fill="#374151">50000</text>
<line x1="435.00" y1="42" x2="435.00" y2="470" stroke="#e5e7eb" stroke-width="1"/>
<text x="435.00" y="494" text-anchor="middle" font-family="Arial" font-size="12" fill="#374151">100000</text>
<line x1="610.00" y1="42" x2="610.00" y2="470" stroke="#e5e7eb" stroke-width="1"/>
<text x="610.00" y="494" text-anchor="middle" font-family="Arial" font-size="12" fill="#374151">149999</text>
<line x1="785.00" y1="42" x2="785.00" y2="470" stroke="#e5e7eb" stroke-width="1"/>
<text x="785.00" y="494" text-anchor="middle" font-family="Arial" font-size="12" fill="#374151">199999</text>
<line x1="85" y1="470.00" x2="785" y2="470.00" stroke="#e5e7eb" stroke-width="1"/>
<text x="73" y="474.00" text-anchor="end" font-family="Arial" font-size="12" fill="#374151">-21602</text>
<line x1="85" y1="363.00" x2="785" y2="363.00" stroke="#e5e7eb" stroke-width="1"/>
<text x="73" y="367.00" text-anchor="end" font-family="Arial" font-size="12" fill="#374151">760</text>
<line x1="85" y1="256.00" x2="785" y2="256.00" stroke="#e5e7eb" stroke-width="1"/>
<text x="73" y="260.00" text-anchor="end" font-family="Arial" font-size="12" fill="#374151">23122</text>
<line x1="85" y1="149.00" x2="785" y2="149.00" stroke="#e5e7eb" stroke-width="1"/>
<text x="73" y="153.00" text-anchor="end" font-family="Arial" font-size="12" fill="#374151">45484</text>
<line x1="85" y1="42.00" x2="785" y2="42.00" stroke="#e5e7eb" stroke-width="1"/>
<text x="73" y="46.00" text-anchor="end" font-family="Arial" font-size="12" fill="#374151">67846</text>
<polyline fill="none" stroke="#2563eb" stroke-width="2" points="85.00,366.64 85.35,366.62 85.70,366.52 86.05,366.57 86.40,366.68 86.75,366.56 87.10,366.49 87.45,366.56 87.80,366.46 88.15,366.53 88.50,366.50 88.85,366.59 89.20,366.75 89.55,366.84 89.90,366.89 90.25,366.75 90.60,366.78 90.95,367.04 91.30,367.09 91.65,367.38 92.00,367.33 92.35,367.43 92.70,367.62 93.05,367.52 93.40,367.58 93.75,367.68 94.10,367.76 94.45,367.90 94.80,367.79 95.15,367.65 95.50,367.49 95.85,367.56 96.20,367.36 96.55,367.41 96.90,367.53 97.25,367.68 97.60,367.64 97.95,367.78 98.30,367.79 98.65,367.65 99.00,367.60 99.35,367.60 99.70,367.63 100.05,367.68 100.40,367.75 100.75,367.66 101.10,367.83 101.45,367.73 101.80,367.68 102.15,367.54 102.50,367.55 102.85,367.74 103.20,367.92 103.55,367.91 103.90,367.89 104.25,367.93 104.60,367.85 104.95,367.85 105.30,367.75 105.65,367.86 106.00,367.86 106.35,367.75 106.70,367.38 107.05,367.42 107.40,367.42 107.75,367.38 108.10,367.28 108.45,367.43 108.80,367.09 109.15,366.80 109.50,366.42 109.85,366.04 110.20,365.80 110.55,365.61 110.90,365.51 111.25,365.69 111.60,365.55 111.95,365.50 112.30,365.54 112.65,365.45 113.00,365.64 113.35,365.59 113.70,365.73 114.05,365.68 114.40,365.75 114.75,365.77 115.10,365.72 115.45,365.67 115.80,365.58 116.15,365.58 116.50,365.87 116.85,365.77 117.20,365.69 117.55,365.82 117.90,365.63 118.25,365.44 118.60,365.14 118.95,364.91 119.30,364.62 119.65,364.24 120.00,363.93 120.35,363.57 120.70,363.28 121.05,363.04 121.40,362.85 121.75,362.87 122.10,362.68 122.45,362.65 122.80,362.68 123.15,362.73 123.50,362.78 123.85,362.80 124.20,362.90 124.55,362.78 124.90,362.78 125.25,362.68 125.60,362.49 125.95,362.30 126.30,362.37 126.65,362.61 127.00,362.70 127.35,362.79 127.70,362.98 128.05,362.77 128.40,362.91 128.75,362.86 129.10,362.85 129.45,362.70 129.80,362.75 130.15,362.86 130.50,362.91 130.85,362.96 131.20,362.96 131.55,362.82 131.90,362.70 132.25,362.51 132.60,362.41 132.95,362.36 133.30,362.17 133.65,362.23 134.00,362.21 134.35,362.02 134.70,362.13 135.05,362.23 135.40,362.18 135.75,362.40 136.10,362.32 136.45,362.41 136.80,362.36 137.15,362.23 137.50,362.18 137.85,362.19 138.20,362.19 138.55,362.30 138.90,362.21 139.25,362.18 139.60,362.18 139.95,362.12 140.30,362.00 140.65,361.88 141.00,361.59 141.35,361.56 141.70,361.59 142.05,361.52 142.40,361.42 142.75,361.26 143.10,361.31 143.45,361.21 143.80,361.18 144.15,361.24 144.50,361.33 144.85,361.45 145.20,361.40 145.55,360.97 145.90,360.73 146.25,360.44 146.60,360.14 146.95,359.81 147.30,359.57 147.65,359.23 148.00,359.00 148.35,359.23 148.70,359.30 149.05,359.36 149.40,359.30 149.75,359.30 150.10,359.59 150.45,359.64 150.80,359.62 151.15,359.72 151.50,359.67 151.85,359.29 152.20,358.96 152.55,358.77 152.90,358.67 153.25,358.38 153.60,358.05 153.95,357.87 154.30,357.77 154.65,357.42 155.00,357.06 155.35,356.82 155.70,356.53 156.05,356.29 156.40,356.39 156.75,356.53 157.10,356.53 157.45,356.35 157.80,356.37 158.15,356.51 158.50,356.42 158.85,356.46 159.20,356.37 159.55,356.03 159.90,355.84 160.25,355.60 160.60,355.32 160.95,355.46 161.30,355.36 161.65,355.08 162.00,354.79 162.35,354.87 162.70,354.86 163.05,355.00 163.40,354.81 163.75,354.84 164.10,354.86 164.45,354.43 164.80,354.05 165.15,353.86 165.50,353.77 165.85,353.71 166.20,353.76 166.55,353.76 166.90,353.44 167.25,353.11 167.60,352.73 167.95,352.57 168.30,352.52 168.65,352.67 169.00,352.76 169.35,353.05 169.70,353.10 170.05,353.14 170.40,353.06 170.75,352.96 171.10,352.63 171.45,352.72 171.80,352.72 172.15,352.72 172.50,352.62 172.85,352.93 173.20,352.99 173.55,352.89 173.90,352.99 174.25,352.89 174.60,353.07 174.95,353.15 175.30,353.29 175.65,353.32 176.00,353.57 176.35,353.63 176.70,353.74 177.05,353.74 177.40,353.74 177.75,353.79 178.10,353.60 178.45,353.48 178.80,353.59 179.15,353.49 179.50,353.58 179.85,353.62 180.20,353.67 180.55,353.60 180.90,353.84 181.25,353.85 181.60,353.94 181.95,354.13 182.30,354.18 182.65,354.04 183.00,354.07 183.35,354.12 183.70,353.98 184.05,353.70 184.40,353.32 184.75,352.93 185.10,352.60 185.45,352.19 185.80,351.92 186.15,351.66 186.50,351.37 186.85,351.06 187.20,350.68 187.55,350.54 187.90,350.20 188.25,349.82 188.60,349.57 188.95,349.21 189.30,348.89 189.65,348.51 190.00,348.07 190.35,347.64 190.70,347.23 191.05,346.95 191.40,346.66 191.75,346.45 192.10,346.12 192.45,345.88 192.80,345.59 193.15,345.31 193.50,344.95 193.85,344.66 194.20,344.33 194.55,344.00 194.90,343.66 195.25,343.35 195.60,342.92 195.95,342.59 196.30,342.25 196.65,341.87 197.00,341.49 197.35,341.25 197.70,341.06 198.05,340.77 198.40,340.34 198.75,339.91 199.10,339.61 199.45,339.32 199.80,339.09 200.15,338.70 200.50,338.32 200.85,338.04 201.20,337.78 201.55,337.40 201.90,337.26 202.25,336.87 202.60,336.49 202.95,336.11 203.30,335.77 203.65,335.39 204.00,335.15 204.35,334.91 204.70,334.72 205.05,334.41 205.40,334.21 205.75,333.80 206.10,333.46 206.45,333.03 206.80,332.70 207.15,332.28 207.50,331.86 207.85,331.63 208.20,331.30 208.55,330.96 208.90,330.58 209.25,330.32 209.60,330.03 209.95,329.65 210.30,329.22 210.65,328.88 211.00,328.55 211.35,328.36 211.70,327.93 212.05,327.69 212.40,327.21 212.75,327.21 213.10,327.02 213.45,327.21 213.80,327.16 214.15,327.08 214.50,327.22 214.85,327.41 215.20,327.51 215.55,327.94 215.90,328.13 216.25,328.37 216.60,328.70 216.95,329.04 217.30,329.28 217.65,329.57 218.00,329.90 218.35,330.24 218.70,330.48 219.05,330.84 219.40,331.13 219.75,331.34 220.10,331.68 220.45,331.97 220.80,332.40 221.15,332.74 221.50,333.04 221.85,333.40 222.20,333.74 222.55,334.07 222.90,334.41 223.25,334.65 223.60,334.78 223.95,334.73 224.30,334.68 224.65,334.76 225.00,334.94 225.35,334.98 225.70,334.98 226.05,334.92 226.40,334.97 226.75,334.89 227.10,334.98 227.45,334.84 227.80,334.92 228.15,334.97 228.50,334.78 228.85,334.78 229.20,334.92 229.55,335.07 229.90,335.03 230.25,335.25 230.60,335.08 230.95,334.98 231.30,335.12 231.65,335.30 232.00,335.25 232.35,335.09 232.70,335.12 233.05,335.40 233.40,335.31 233.75,335.13 234.10,334.98 234.45,334.65 234.80,334.27 235.15,333.94 235.50,333.70 235.85,333.65 236.20,333.63 236.55,333.68 236.90,333.73 237.25,333.71 237.60,333.56 237.95,333.68 238.30,333.64 238.65,333.46 239.00,333.51 239.35,333.52 239.70,333.46 240.05,333.51 240.40,333.46 240.75,333.30 241.10,333.40 241.45,333.12 241.80,332.88 242.15,332.68 242.50,332.44 242.85,332.20 243.20,332.26 243.55,331.98 243.90,331.59 244.25,331.31 244.60,331.00 244.95,331.00 245.30,330.69 245.65,330.35 246.00,330.06 246.35,329.70 246.70,329.40 247.05,329.20 247.40,328.86 247.75,328.39 248.10,328.05 248.45,327.91 248.80,327.46 249.15,327.09 249.50,326.92 249.85,326.60 250.20,326.53 250.55,326.25 250.90,326.30 251.25,326.39 251.60,326.09 251.95,325.89 252.30,325.88 252.65,325.88 253.00,325.84 253.35,326.00 253.70,325.99 254.05,326.04 254.40,326.09 254.75,326.09 255.10,326.33 255.45,326.19 255.80,326.25 256.15,326.25 256.50,326.11 256.85,326.08 257.20,325.88 257.55,325.88 257.90,325.93 258.25,326.09 258.60,326.09 258.95,326.05 259.30,325.81 259.65,325.62 260.00,325.28 260.35,324.98 260.70,324.65 261.05,324.15 261.40,323.81 261.75,323.64 262.10,323.38 262.45,323.05 262.80,322.72 263.15,322.38 263.50,322.14 263.85,321.88 264.20,321.62 264.55,321.21 264.90,320.78 265.25,320.44 265.60,320.02 265.95,319.64 266.30,319.21 266.65,318.92 267.00,318.53 267.35,318.25 267.70,317.84 268.05,317.40 268.40,317.07 268.75,316.69 269.10,316.40 269.45,316.20 269.80,315.91 270.15,315.53 270.50,315.19 270.85,314.76 271.20,314.48 271.55,314.19 271.90,313.97 272.25,313.54 272.60,313.12 272.95,312.69 273.30,312.30 273.65,312.02 274.00,311.64 274.35,311.16 274.70,310.87 275.05,310.51 275.40,310.14 275.75,309.90 276.10,309.55 276.45,309.17 276.80,308.88 277.15,308.54 277.50,308.17 277.85,307.93 278.20,307.66 278.55,307.48 278.90,307.19 279.25,306.85 279.60,306.58 279.95,306.25 280.30,305.86 280.65,305.51 281.00,305.26 281.35,304.92 281.70,304.64 282.05,304.28 282.40,303.95 282.75,303.85 283.10,303.63 283.45,303.32 283.80,303.07 284.15,302.77 284.50,302.69 284.85,302.36 285.20,301.93 285.55,301.69 285.90,301.45 286.25,301.11 286.60,300.83 286.95,300.49 287.30,300.25 287.65,299.86 288.00,299.62 288.35,299.72 288.70,299.79 289.05,299.83 289.40,299.69 289.75,299.78 290.10,299.72 290.45,299.41 290.80,299.12 291.15,298.83 291.50,298.79 291.85,298.84 292.20,298.94 292.55,298.75 292.90,298.58 293.25,298.53 293.60,298.60 293.95,298.76 294.30,298.94 294.65,298.99 295.00,298.99 295.35,299.10 295.70,299.17 296.05,299.10 296.40,299.10 296.75,298.96 297.10,299.25 297.45,299.63 297.80,299.92 298.15,300.25 298.50,300.52 298.85,300.57 299.20,300.72 299.55,300.91 299.90,300.88 300.25,300.86 300.60,301.19 300.95,301.48 301.30,301.96 301.65,302.39 302.00,302.72 302.35,303.06 302.70,303.16 303.05,303.16 303.40,303.31 303.75,303.42 304.10,303.55 304.45,303.57 304.80,303.62 305.15,303.52 305.50,303.76 305.85,303.87 306.20,304.07 306.55,304.35 306.90,304.52 307.25,304.62 307.60,304.67 307.95,304.96 308.30,305.20 308.65,305.29 309.00,305.32 309.35,305.28 309.70,305.51 310.05,305.42 310.40,305.23 310.75,305.11 311.10,305.21 311.45,304.97 311.80,304.92 312.15,304.97 312.50,305.12 312.85,305.12 313.20,305.10 313.55,305.03 313.90,305.03 314.25,305.00 314.60,305.01 314.95,304.92 315.30,305.01 315.65,304.96 316.00,305.30 316.35,305.66 316.70,305.95 317.05,306.33 317.40,306.71 317.75,307.09 318.10,307.40 318.45,307.73 318.80,308.07 319.15,308.50 319.50,308.84 319.85,308.98 320.20,309.17 320.55,309.51 320.90,309.84 321.25,310.20 321.60,310.59 321.95,310.87 322.30,311.11 322.65,311.50 323.00,311.78 323.35,312.07 323.70,312.47 324.05,312.69 324.40,312.93 324.75,313.36 325.10,313.74 325.45,314.08 325.80,314.51 326.15,314.80 326.50,315.13 326.85,315.55 327.20,315.95 327.55,316.43 327.90,316.80 328.25,317.11 328.60,317.58 328.95,317.87 329.30,318.20 329.65,318.58 330.00,318.83 330.35,319.06 330.70,319.29 331.05,319.53 331.40,319.58 331.75,319.65 332.10,319.57 332.45,319.62 332.80,319.62 333.15,319.55 333.50,319.70 333.85,319.63 334.20,319.36 334.55,319.31 334.90,319.01 335.25,319.01 335.60,318.63 335.95,318.22 336.30,317.79 336.65,317.51 337.00,317.17 337.35,316.74 337.70,316.36 338.05,315.97 338.40,315.69 338.75,315.30 339.10,314.92 339.45,314.54 339.80,314.25 340.15,314.01 340.50,313.63 340.85,313.29 341.20,313.34 341.55,313.20 341.90,313.28 342.25,313.09 342.60,313.14 342.95,313.09 343.30,312.99 343.65,312.71 344.00,312.31 344.35,312.02 344.70,311.83 345.05,311.70 345.40,311.72 345.75,311.72 346.10,311.62 346.45,311.59 346.80,311.16 347.15,310.83 347.50,310.49 347.85,310.30 348.20,309.82 348.55,309.53 348.90,309.20 349.25,309.01 349.60,308.72 349.95,308.53 350.30,308.29 350.65,308.00 351.00,307.67 351.35,307.29 351.70,306.91 352.05,306.65 352.40,306.31 352.75,305.93 353.10,305.45 353.45,305.17 353.80,304.83 354.15,304.40 354.50,304.11 354.85,303.78 355.20,303.49 355.55,303.20 355.90,302.96 356.25,302.66 356.60,302.28 356.95,301.90 357.30,301.61 357.65,301.23 358.00,300.96 358.35,300.53 358.70,300.20 359.05,299.91 359.40,299.53 359.75,299.19 360.10,298.86 360.45,298.43 360.80,298.10 361.15,297.87 361.50,297.39 361.85,297.11 362.20,296.77 362.55,296.42 362.90,296.14 363.25,295.75 363.60,295.35 363.95,294.97 364.30,294.67 364.65,294.26 365.00,294.02 365.35,293.64 365.70,293.36 366.05,292.98 366.40,292.55 366.75,292.22 367.10,291.84 367.45,291.36 367.80,291.03 368.15,290.60 368.50,290.23 368.85,289.80 369.20,289.56 369.55,289.14 369.90,288.76 370.25,288.42 370.60,288.13 370.95,287.80 371.30,287.56 371.65,287.22 372.00,286.92 372.35,286.70 372.70,286.34 373.05,286.05 373.40,285.76 373.75,285.52 374.10,285.14 374.45,284.90 374.80,284.52 375.15,284.33 375.50,283.94 375.85,283.56 376.20,283.28 376.55,282.85 376.90,282.61 377.25,282.29 377.60,281.92 377.95,281.67 378.30,281.36 378.65,280.95 379.00,280.76 379.35,280.47 379.70,280.14 380.05,279.80 380.40,279.60 380.75,279.30 381.10,279.02 381.45,278.68 381.80,278.35 382.15,278.06 382.50,277.63 382.85,277.25 383.20,276.89 383.55,276.50 383.90,276.26 384.25,275.83 384.60,275.31 384.95,274.97 385.30,274.62 385.65,274.19 386.00,273.85 386.35,273.57 386.70,273.30 387.05,273.02 387.40,272.59 387.75,272.24 388.10,271.85 388.45,271.66 388.80,271.34 389.15,270.91 389.50,270.54 389.85,270.11 390.20,269.82 390.55,269.35 390.90,269.01 391.25,268.72 391.60,268.40 391.95,268.06 392.30,267.82 392.65,267.34 393.00,267.05 393.35,266.65 393.70,266.33 394.05,266.02 394.40,265.68 394.75,265.33 395.10,265.00 395.45,264.76 395.80,264.28 396.15,264.14 396.50,263.79 396.85,263.41 397.20,263.08 397.55,262.69 397.90,262.41 398.25,262.20 398.60,261.82 398.95,261.44 399.30,261.20 399.65,260.87 400.00,260.59 400.35,260.16 400.70,259.73 401.05,259.41 401.40,259.12 401.75,258.89 402.10,258.56 402.45,258.32 402.80,258.08 403.15,257.79 403.50,257.41 403.85,257.12 404.20,256.74 404.55,256.37 404.90,255.93 405.25,255.45 405.60,255.11 405.95,254.78 406.30,254.35 406.65,254.06 407.00,253.54 407.35,253.25 407.70,253.01 408.05,252.68 408.40,252.26 408.75,252.02 409.10,251.68 409.45,251.30 409.80,251.01 410.15,250.63 410.50,250.42 410.85,250.09 411.20,249.85 411.55,249.51 411.90,249.14 412.25,248.87 412.60,248.55 412.95,248.12 413.30,247.74 413.65,247.27 414.00,246.94 414.35,246.51 414.70,246.22 415.05,245.85 415.40,245.61 415.75,245.30 416.10,244.97 416.45,244.70 416.80,244.33 417.15,243.99 417.50,243.75 417.85,243.51 418.20,243.22 418.55,242.91 418.90,242.53 419.25,242.23 419.60,241.73 419.95,241.40 420.30,241.01 420.65,240.69 421.00,240.32 421.35,239.94 421.70,239.60 422.05,239.22 422.40,238.79 422.75,238.41 423.10,238.02 423.45,237.69 423.80,237.45 424.15,237.02 424.50,236.66 424.85,236.28 425.20,235.97 425.55,235.62 425.90,235.44 426.25,234.99 426.60,234.66 426.95,234.30 427.30,234.01 427.65,233.77 428.00,233.44 428.35,233.01 428.70,232.64 429.05,232.36 429.40,231.98 429.75,231.64 430.10,231.41 430.45,230.97 430.80,230.64 431.15,230.35 431.50,230.01 431.85,229.63 432.20,229.34 432.55,228.96 432.90,228.67 433.25,228.24 433.60,227.91 433.95,227.57 434.30,227.14 434.65,226.66 435.00,226.38 435.35,226.12 435.70,225.88 436.05,225.50 436.40,225.31 436.75,224.93 437.10,224.74 437.45,224.45 437.80,224.02 438.15,223.73 438.50,223.53 438.85,223.15 439.20,222.81 439.55,222.45 439.90,222.21 440.25,221.87 440.60,221.53 440.95,221.30 441.30,221.11 441.65,220.68 442.00,220.44 442.35,220.10 442.70,219.77 443.05,219.35 443.40,219.02 443.75,218.62 444.10,218.20 444.45,217.86 444.80,217.53 445.15,217.25 445.50,216.97 445.85,216.69 446.20,216.26 446.55,215.87 446.90,215.49 447.25,215.09 447.60,214.84 447.95,214.40 448.30,214.06 448.65,213.67 449.00,213.22 449.35,212.98 449.70,212.51 450.05,212.11 450.40,211.82 450.75,211.43 451.10,211.00 451.45,210.57 451.80,210.09 452.15,209.71 452.50,209.33 452.85,208.95 453.20,208.53 453.55,208.20 453.90,207.80 454.25,207.51 454.60,207.13 454.95,206.84 455.30,206.46 455.65,206.17 456.00,205.84 456.35,205.47 456.70,205.28 457.05,204.85 457.40,204.47 457.75,204.12 458.10,203.73 458.45,203.33 458.80,202.95 459.15,202.57 459.50,202.33 459.85,202.18 460.20,202.01 460.55,201.72 460.90,201.72 461.25,201.92 461.60,201.93 461.95,202.07 462.30,202.04 462.65,202.27 463.00,202.37 463.35,202.37 463.70,202.27 464.05,202.27 464.40,202.27 464.75,202.30 465.10,202.35 465.45,202.26 465.80,202.21 466.15,202.06 466.50,202.13 466.85,201.84 467.20,201.60 467.55,201.54 467.90,201.20 468.25,201.23 468.60,201.38 468.95,201.52 469.30,201.61 469.65,201.57 470.00,201.52 470.35,201.52 470.70,201.52 471.05,201.52 471.40,201.70 471.75,201.94 472.10,201.95 472.45,201.90 472.80,202.06 473.15,202.02 473.50,201.97 473.85,201.90 474.20,202.07 474.55,202.27 474.90,202.51 475.25,202.66 475.60,202.69 475.95,202.79 476.30,203.03 476.65,203.31 477.00,203.32 477.35,203.27 477.70,203.27 478.05,203.32 478.40,203.36 478.75,203.37 479.10,203.46 479.45,203.61 479.80,203.59 480.15,203.52 480.50,203.47 480.85,203.66 481.20,203.83 481.55,203.99 481.90,204.13 482.25,203.74 482.60,203.57 482.95,203.16 483.30,202.92 483.65,202.62 484.00,202.47 484.35,202.08 484.70,201.89 485.05,201.46 485.40,201.13 485.75,200.79 486.10,200.60 486.45,200.36 486.80,200.10 487.15,199.77 487.50,199.38 487.85,199.10 488.20,198.76 488.55,198.56 488.90,198.17 489.25,197.89 489.60,197.55 489.95,197.27 490.30,196.88 490.65,196.61 491.00,196.23 491.35,195.90 491.70,195.51 492.05,195.13 492.40,194.75 492.75,194.41 493.10,194.17 493.45,193.84 493.80,193.46 494.15,193.07 494.50,192.74 494.85,192.45 495.20,192.15 495.55,191.96 495.90,191.72 496.25,191.41 496.60,191.07 496.95,190.84 497.30,190.50 497.65,190.22 498.00,189.83 498.35,189.45 498.70,189.16 499.05,188.90 499.40,188.47 499.75,188.16 500.10,187.77 500.45,187.44 500.80,187.10 501.15,186.77 501.50,186.41 501.85,186.16 502.20,185.83 502.55,185.54 502.90,185.40 503.25,185.16 503.60,185.04 503.95,184.71 504.30,184.49 504.65,184.02 505.00,183.64 505.35,183.33 505.70,182.94 506.05,182.61 506.40,182.32 506.75,181.86 507.10,181.58 507.45,181.19 507.80,180.73 508.15,180.44 508.50,180.06 508.85,179.69 509.20,179.36 509.55,178.95 509.90,178.61 510.25,178.36 510.60,178.08 510.95,177.85 511.30,177.63 511.65,177.24 512.00,176.96 512.35,176.62 512.70,176.26 513.05,175.93 513.40,175.59 513.75,175.35 514.10,175.12 514.45,174.88 514.80,174.54 515.15,174.36 515.50,173.93 515.85,173.60 516.20,173.12 516.55,172.64 516.90,172.34 517.25,172.05 517.60,171.71 517.95,171.33 518.30,170.95 518.65,170.66 519.00,170.37 519.35,169.99 519.70,169.62 520.05,169.34 520.40,169.05 520.75,168.79 521.10,168.42 521.45,168.07 521.80,167.65 522.15,167.35 522.50,167.07 522.85,166.83 523.20,166.49 523.55,166.21 523.90,165.97 524.25,165.63 524.60,165.24 524.95,164.86 525.30,164.53 525.65,164.10 526.00,163.76 526.35,163.33 526.70,163.04 527.05,162.61 527.40,162.33 527.75,162.12 528.10,161.78 528.45,161.45 528.80,160.98 529.15,160.64 529.50,160.21 529.85,159.92 530.20,159.73 530.55,159.30 530.90,158.87 531.25,158.65 531.60,158.36 531.95,158.03 532.30,157.69 532.65,157.31 533.00,156.93 533.35,156.65 533.70,156.46 534.05,156.09 534.40,155.77 534.75,155.48 535.10,155.10 535.45,154.77 535.80,154.38 536.15,154.03 536.50,153.65 536.85,153.36 537.20,153.07 537.55,152.78 537.90,152.40 538.25,151.97 538.60,151.63 538.95,151.30 539.30,151.01 539.65,150.67 540.00,150.34 540.35,150.05 540.70,149.62 541.05,149.17 541.40,148.84 541.75,148.47 542.10,148.18 542.45,147.89 542.80,147.65 543.15,147.36 543.50,147.02 543.85,146.64 544.20,146.21 544.55,145.78 544.90,145.35 545.25,145.10 545.60,144.66 545.95,144.35 546.30,143.97 546.65,143.73 547.00,143.35 547.35,143.00 547.70,142.62 548.05,142.24 548.40,141.84 548.75,141.50 549.10,141.19 549.45,140.70 549.80,140.26 550.15,140.02 550.50,139.64 550.85,139.33 551.20,139.09 551.55,138.86 551.90,138.39 552.25,138.09 552.60,137.75 552.95,137.30 553.30,136.86 553.65,136.58 554.00,136.31 554.35,136.03 554.70,135.60 555.05,135.31 555.40,134.97 555.75,134.59 556.10,134.26 556.45,133.87 556.80,133.43 557.15,133.05 557.50,132.76 557.85,132.38 558.20,132.09 558.55,131.71 558.90,131.37 559.25,131.03 559.60,130.70 559.95,130.27 560.30,129.88 560.65,129.79 561.00,129.50 561.35,129.17 561.70,128.93 562.05,128.78 562.40,128.35 562.75,128.07 563.10,127.83 563.45,127.58 563.80,127.24 564.15,127.05 564.50,126.76 564.85,126.48 565.20,126.05 565.55,125.71 565.90,125.38 566.25,124.99 566.60,124.75 566.95,124.32 567.30,124.01 567.65,123.72 568.00,123.29 568.35,123.00 568.70,122.57 569.05,122.24 569.40,121.76 569.75,121.38 570.10,121.00 570.45,120.57 570.80,120.23 571.15,119.89 571.50,119.55 571.85,119.33 572.20,119.01 572.55,118.58 572.90,118.22 573.25,117.89 573.60,117.62 573.95,117.19 574.30,116.86 574.65,116.43 575.00,116.06 575.35,115.61 575.70,115.34 576.05,114.91 576.40,114.49 576.75,114.20 577.10,113.92 577.45,113.63 577.80,113.29 578.15,112.86 578.50,112.48 578.85,111.97 579.20,111.73 579.55,111.39 579.90,111.01 580.25,110.68 580.60,110.29 580.95,110.01 581.30,109.66 581.65,109.23 582.00,108.85 582.35,108.51 582.70,108.23 583.05,107.96 583.40,107.53 583.75,107.32 584.10,107.01 584.45,106.69 584.80,106.50 585.15,106.12 585.50,105.75 585.85,105.41 586.20,104.98 586.55,104.70 586.90,104.32 587.25,104.05 587.60,103.81 587.95,103.41 588.30,103.09 588.65,102.71 589.00,102.39 589.35,101.98 589.70,101.70 590.05,101.48 590.40,101.13 590.75,100.72 591.10,100.38 591.45,100.00 591.80,99.65 592.15,99.28 592.50,98.88 592.85,98.55 593.20,98.11 593.55,97.78 593.90,97.39 594.25,97.09 594.60,96.85 594.95,96.47 595.30,96.08 595.65,95.70 596.00,95.37 596.35,95.07 596.70,94.74 597.05,94.45 597.40,94.07 597.75,93.69 598.10,93.45 598.45,93.02 598.80,92.63 599.15,92.25 599.50,92.00 599.85,91.59 600.20,91.30 600.55,91.02 600.90,90.68 601.25,90.30 601.60,89.87 601.95,89.63 602.30,89.20 602.65,88.72 603.00,88.43 603.35,88.19 603.70,87.81 604.05,87.43 604.40,87.09 604.75,86.71 605.10,86.42 605.45,86.09 605.80,85.70 606.15,85.32 606.50,84.98 606.85,84.79 607.20,84.47 607.55,84.08 607.90,83.70 608.25,83.36 608.60,83.17 608.95,82.70 609.30,82.27 609.65,81.93 610.00,81.60 610.35,81.31 610.70,80.93 611.05,80.55 611.40,80.31 611.75,79.88 612.10,79.65 612.45,79.36 612.80,79.07 613.15,78.69 613.50,78.45 613.85,78.09 614.20,77.76 614.55,77.46 614.90,77.12 615.25,76.79 615.60,76.40 615.95,76.07 616.30,75.68 616.65,75.30 617.00,75.06 617.35,74.88 617.70,74.79 618.05,74.75 618.40,74.80 618.75,74.77 619.10,74.97 619.45,75.06 619.80,75.07 620.15,75.41 620.50,75.81 620.85,76.20 621.20,76.58 621.55,76.68 621.90,76.72 622.25,76.70 622.60,76.77 622.95,76.91 623.30,76.76 623.65,77.00 624.00,77.32 624.35,77.46 624.70,77.45 625.05,77.45 625.40,77.59 625.75,77.74 626.10,77.98 626.45,78.05 626.80,78.23 627.15,78.48 627.50,78.72 627.85,78.81 628.20,78.82 628.55,79.05 628.90,78.96 629.25,78.82 629.60,78.87 629.95,79.02 630.30,78.88 630.65,78.79 631.00,78.83 631.35,78.75 631.70,78.97 632.05,79.02 632.40,79.12 632.75,79.20 633.10,79.27 633.45,79.32 633.80,79.68 634.15,79.68 634.50,79.72 634.85,79.63 635.20,79.72 635.55,79.87 635.90,79.96 636.25,79.96 636.60,79.98 636.95,79.84 637.30,79.77 637.65,79.77 638.00,79.76 638.35,79.86 638.70,79.86 639.05,79.94 639.40,79.97 639.75,79.89 640.10,80.00 640.45,80.00 640.80,80.11 641.15,80.11 641.50,80.09 641.85,80.23 642.20,80.27 642.55,80.47 642.90,80.28 643.25,80.43 643.60,80.48 643.95,80.45 644.30,80.50 644.65,80.36 645.00,80.46 645.35,80.44 645.70,80.55 646.05,80.50 646.40,80.59 646.75,80.64 647.10,80.55 647.45,80.68 647.80,80.58 648.15,80.58 648.50,80.61 648.85,80.64 649.20,80.70 649.55,80.85 649.90,80.84 650.25,80.75 650.60,80.80 650.95,80.75 651.30,80.40 651.65,80.37 652.00,80.52 652.35,80.71 652.70,80.91 653.05,81.01 653.40,80.77 653.75,80.62 654.10,80.48 654.45,80.28 654.80,80.10 655.15,79.81 655.50,79.53 655.85,79.19 656.20,78.76 656.55,78.62 656.90,78.36 657.25,78.17 657.60,77.92 657.95,77.54 658.30,77.25 658.65,77.08 659.00,77.05 659.35,77.05 659.70,77.07 660.05,77.13 660.40,77.31 660.75,77.31 661.10,77.14 661.45,77.07 661.80,77.16 662.15,77.13 662.50,77.18 662.85,77.01 663.20,77.02 663.55,76.96 663.90,77.12 664.25,77.46 664.60,77.89 664.95,78.17 665.30,78.62 665.65,78.74 666.00,78.98 666.35,79.32 666.70,79.59 667.05,80.07 667.40,80.31 667.75,80.50 668.10,80.90 668.45,81.37 668.80,81.71 669.15,82.07 669.50,82.43 669.85,82.71 670.20,83.06 670.55,83.54 670.90,83.88 671.25,84.27 671.60,84.65 671.95,84.89 672.30,85.27 672.65,85.61 673.00,86.00 673.35,86.24 673.70,86.48 674.05,86.79 674.40,87.08 674.75,87.39 675.10,87.70 675.45,88.04 675.80,88.21 676.15,88.59 676.50,88.87 676.85,89.21 677.20,89.59 677.55,89.92 677.90,90.39 678.25,90.82 678.60,91.02 678.95,91.43 679.30,91.77 679.65,92.15 680.00,92.29 680.35,92.68 680.70,92.96 681.05,93.30 681.40,93.49 681.75,93.39 682.10,93.31 682.45,93.52 682.80,93.48 683.15,93.53 683.50,93.82 683.85,94.07 684.20,93.97 684.55,94.06 684.90,94.15 685.25,94.15 685.60,94.19 685.95,94.06 686.30,94.11 686.65,93.78 687.00,93.88 687.35,93.53 687.70,93.34 688.05,92.95 688.40,92.71 688.75,92.33 689.10,92.19 689.45,91.85 689.80,91.57 690.15,91.22 690.50,91.12 690.85,90.83 691.20,90.41 691.55,90.02 691.90,89.69 692.25,89.30 692.60,89.02 692.95,88.63 693.30,88.25 693.65,87.77 694.00,87.40 694.35,86.97 694.70,86.63 695.05,86.44 695.40,86.11 695.75,85.74 696.10,85.31 696.45,85.02 696.80,84.66 697.15,84.57 697.50,84.42 697.85,84.27 698.20,83.89 698.55,83.56 698.90,83.13 699.25,82.79 699.60,82.50 699.95,82.17 700.30,81.93 700.65,81.55 701.00,81.44 701.35,81.20 701.70,80.82 702.05,80.60 702.40,80.37 702.75,80.09 703.10,80.04 703.45,79.80 703.80,79.62 704.15,79.28 704.50,79.04 704.85,78.74 705.20,78.50 705.55,78.07 705.90,77.78 706.25,77.49 706.60,77.25 706.95,77.01 707.30,76.77 707.65,76.39 708.00,76.04 708.35,75.95 708.70,76.00 709.05,75.91 709.40,75.86 709.75,75.73 710.10,75.78 710.45,75.73 710.80,75.45 711.15,75.69 711.50,75.93 711.85,75.88 712.20,76.02 712.55,75.98 712.90,75.64 713.25,75.35 713.60,74.97 713.95,74.60 714.30,74.36 714.65,74.03 715.00,73.79 715.35,73.46 715.70,73.26 716.05,73.17 716.40,73.16 716.75,73.15 717.10,73.29 717.45,73.14 717.80,73.14 718.15,73.13 718.50,73.18 718.85,73.18 719.20,72.75 719.55,72.46 719.90,72.18 720.25,72.06 720.60,71.85 720.95,71.69 721.30,71.62 721.65,71.78 722.00,71.64 722.35,71.78 722.70,71.76 723.05,71.80 723.40,71.90 723.75,71.76 724.10,71.52 724.45,71.65 724.80,71.55 725.15,71.74 725.50,71.92 725.85,72.13 726.20,72.23 726.55,72.23 726.90,72.14 727.25,72.08 727.60,71.99 727.95,71.90 728.30,72.18 728.65,72.57 729.00,73.00 729.35,73.47 729.70,73.86 730.05,74.10 730.40,74.35 730.75,74.63 731.10,74.68 731.45,74.87 731.80,74.97 732.15,75.06 732.50,75.11 732.85,74.92 733.20,74.88 733.55,74.99 733.90,74.90 734.25,74.81 734.60,74.92 734.95,75.10 735.30,75.24 735.65,75.23 736.00,75.35 736.35,75.15 736.70,75.13 737.05,75.31 737.40,75.54 737.75,75.56 738.10,75.85 738.45,75.94 738.80,75.80 739.15,75.68 739.50,75.35 739.85,75.16 740.20,75.21 740.55,75.30 740.90,75.18 741.25,75.23 741.60,75.32 741.95,75.24 742.30,75.21 742.65,75.07 743.00,75.12 743.35,75.29 743.70,75.46 744.05,75.38 744.40,75.35 744.75,75.40 745.10,75.40 745.45,75.35 745.80,75.44 746.15,75.63 746.50,75.72 746.85,76.15 747.20,76.54 747.55,76.87 747.90,77.25 748.25,77.46 748.60,77.94 748.95,78.37 749.30,78.70 749.65,79.07 750.00,79.46 750.35,79.84 750.70,80.17 751.05,80.41 751.40,80.65 751.75,81.08 752.10,81.47 752.45,81.79 752.80,81.98 753.15,82.41 753.50,82.80 753.85,83.23 754.20,83.61 754.55,83.94 754.90,84.23 755.25,84.52 755.60,84.90 755.95,85.19 756.30,85.43 756.65,85.67 757.00,86.05 757.35,86.35 757.70,86.80 758.05,87.04 758.40,87.44 758.75,87.69 759.10,88.03 759.45,88.46 759.80,88.84 760.15,89.19 760.50,89.53 760.85,89.92 761.20,90.29 761.55,90.60 761.90,90.89 762.25,91.27 762.60,91.64 762.95,92.07 763.30,92.12 763.65,92.46 764.00,92.71 764.35,93.10 764.70,93.44 765.05,93.72 765.40,94.01 765.75,94.44 766.10,94.85 766.45,95.09 766.80,95.37 767.15,95.69 767.50,96.04 767.85,96.32 768.20,96.56 768.55,96.95 768.90,97.29 769.25,97.58 769.60,98.01 769.95,98.20 770.30,98.49 770.65,98.72 771.00,99.01 771.35,99.35 771.70,99.73 772.05,99.98 772.40,100.32 772.75,100.75 773.10,101.05 773.45,101.35 773.80,101.63 774.15,101.73 774.50,102.02 774.85,102.40 775.20,102.78 775.55,103.23 775.90,103.56 776.25,104.02 776.60,104.31 776.95,104.67 777.30,105.05 777.65,105.38 778.00,105.82 778.35,106.15 778.70,106.53 779.05,106.92 779.40,107.35 779.75,107.56 780.10,108.04 780.45,108.09 780.80,108.52 781.15,108.81 781.50,109.28 781.85,109.62 782.20,109.86 782.55,110.29 782.90,110.62 783.25,111.06 783.60,111.37 783.95,111.62 784.30,111.95 784.65,112.15 785.00,112.22"/>
<line x1="813" y1="54" x2="839" y2="54" stroke="#2563eb" stroke-width="3"/>
<text x="847" y="58" font-family="Arial" font-size="13" fill="#111827">low volatility</text>
<polyline fill="none" stroke="#dc2626" stroke-width="2" points="85.00,366.64 85.35,366.64 85.70,366.53 86.05,366.60 86.40,366.98 86.75,367.34 87.10,367.72 87.45,368.05 87.80,368.34 88.15,368.70 88.50,368.85 88.85,368.91 89.20,368.89 89.55,368.71 89.90,368.42 90.25,368.13 90.60,367.96 90.95,367.98 91.30,368.17 91.65,368.02 92.00,367.88 92.35,367.74 92.70,367.95 93.05,368.03 93.40,367.89 93.75,367.91 94.10,368.11 94.45,367.87 94.80,367.56 95.15,367.42 95.50,367.04 95.85,366.70 96.20,366.27 96.55,365.99 96.90,365.55 97.25,365.31 97.60,364.97 97.95,364.62 98.30,364.43 98.65,364.07 99.00,363.73 99.35,363.54 99.70,363.25 100.05,362.87 100.40,362.49 100.75,362.43 101.10,362.82 101.45,363.20 101.80,363.57 102.15,363.91 102.50,364.30 102.85,364.45 103.20,364.88 103.55,365.25 103.90,365.64 104.25,365.32 104.60,365.08 104.95,364.90 105.30,364.65 105.65,364.58 106.00,364.44 106.35,364.48 106.70,364.77 107.05,365.06 107.40,365.38 107.75,365.62 108.10,366.05 108.45,366.15 108.80,365.72 109.15,365.68 109.50,365.75 109.85,365.56 110.20,365.23 110.55,365.04 110.90,364.72 111.25,364.37 111.60,364.09 111.95,363.91 112.30,363.91 112.65,364.25 113.00,364.39 113.35,364.37 113.70,364.39 114.05,364.54 114.40,364.63 114.75,364.63 115.10,364.60 115.45,364.62 115.80,364.67 116.15,364.79 116.50,364.85 116.85,364.94 117.20,365.09 117.55,365.13 117.90,365.52 118.25,365.85 118.60,366.24 118.95,366.47 119.30,366.81 119.65,367.19 120.00,367.53 120.35,367.91 120.70,368.20 121.05,368.49 121.40,368.74 121.75,369.02 122.10,369.38 122.45,369.74 122.80,370.08 123.15,370.37 123.50,370.75 123.85,371.07 124.20,371.41 124.55,371.65 124.90,371.74 125.25,372.00 125.60,372.24 125.95,372.67 126.30,372.96 126.65,373.33 127.00,373.61 127.35,373.78 127.70,373.97 128.05,373.63 128.40,373.35 128.75,372.96 129.10,372.63 129.45,372.44 129.80,372.10 130.15,371.81 130.50,371.47 130.85,371.19 131.20,370.97 131.55,370.63 131.90,370.30 132.25,369.92 132.60,369.44 132.95,369.06 133.30,368.58 133.65,368.58 134.00,368.34 134.35,368.18 134.70,368.10 135.05,368.44 135.40,368.77 135.75,369.15 136.10,369.06 136.45,369.22 136.80,369.31 137.15,369.65 137.50,369.50 137.85,369.61 138.20,369.66 138.55,369.69 138.90,369.83 139.25,370.16 139.60,370.25 139.95,370.11 140.30,369.68 140.65,369.80 141.00,369.71 141.35,369.73 141.70,369.76 142.05,370.02 142.40,370.25 142.75,370.50 143.10,370.93 143.45,371.27 143.80,371.51 144.15,371.89 144.50,372.32 144.85,372.61 145.20,372.94 145.55,373.33 145.90,373.61 146.25,373.95 146.60,374.24 146.95,374.57 147.30,374.77 147.65,375.06 148.00,375.16 148.35,375.59 148.70,375.93 149.05,376.32 149.40,376.32 149.75,376.00 150.10,376.10 150.45,376.34 150.80,376.53 151.15,376.58 151.50,376.50 151.85,376.68 152.20,376.77 152.55,377.11 152.90,377.44 153.25,377.65 153.60,377.36 153.95,377.30 154.30,377.11 154.65,377.25 155.00,377.15 155.35,377.48 155.70,377.77 156.05,377.61 156.40,377.36 156.75,377.31 157.10,377.36 157.45,377.67 157.80,377.70 158.15,378.00 158.50,378.13 158.85,378.61 159.20,378.99 159.55,379.23 159.90,379.12 160.25,379.13 160.60,379.42 160.95,379.75 161.30,379.96 161.65,380.30 162.00,380.68 162.35,380.87 162.70,381.25 163.05,381.53 163.40,381.91 163.75,381.81 164.10,381.55 164.45,381.36 164.80,381.09 165.15,380.71 165.50,380.47 165.85,380.09 166.20,379.61 166.55,379.30 166.90,378.92 167.25,378.98 167.60,379.12 167.95,379.07 168.30,379.11 168.65,378.80 169.00,378.47 169.35,378.13 169.70,377.75 170.05,377.36 170.40,377.13 170.75,376.74 171.10,376.36 171.45,375.98 171.80,375.66 172.15,375.32 172.50,374.94 172.85,374.56 173.20,374.22 173.55,373.88 173.90,373.54 174.25,373.13 174.60,372.85 174.95,372.56 175.30,372.37 175.65,372.03 176.00,371.71 176.35,371.38 176.70,371.00 177.05,370.71 177.40,370.33 177.75,369.95 178.10,369.66 178.45,369.37 178.80,369.13 179.15,368.76 179.50,368.41 179.85,368.03 180.20,367.65 180.55,367.33 180.90,366.95 181.25,366.66 181.60,366.24 181.95,365.99 182.30,365.65 182.65,365.30 183.00,365.05 183.35,364.81 183.70,364.47 184.05,364.23 184.40,363.85 184.75,363.46 185.10,363.08 185.45,362.70 185.80,362.45 186.15,362.11 186.50,361.82 186.85,361.45 187.20,361.11 187.55,360.73 187.90,360.49 188.25,360.06 188.60,359.77 188.95,359.40 189.30,359.14 189.65,358.81 190.00,358.42 190.35,357.99 190.70,357.75 191.05,357.46 191.40,357.11 191.75,356.68 192.10,356.31 192.45,356.07 192.80,355.83 193.15,355.54 193.50,355.25 193.85,355.01 194.20,354.63 194.55,354.30 194.90,354.00 195.25,353.85 195.60,353.42 195.95,353.13 196.30,352.70 196.65,352.27 197.00,351.89 197.35,351.56 197.70,351.23 198.05,350.99 198.40,350.66 198.75,350.28 199.10,349.94 199.45,349.66 199.80,349.51 200.15,349.07 200.50,348.59 200.85,348.26 201.20,347.92 201.55,347.59 201.90,347.64 202.25,347.78 202.60,348.02 202.95,348.11 203.30,348.26 203.65,347.88 204.00,347.64 204.35,347.30 204.70,346.93 205.05,346.65 205.40,346.36 205.75,346.12 206.10,346.07 206.45,346.34 206.80,346.45 207.15,346.26 207.50,345.93 207.85,345.64 208.20,345.45 208.55,345.02 208.90,344.68 209.25,344.35 209.60,343.97 209.95,343.63 210.30,343.25 210.65,342.87 211.00,342.48 211.35,342.14 211.70,341.76 212.05,341.37 212.40,341.09 212.75,340.61 213.10,340.18 213.45,339.84 213.80,339.45 214.15,339.07 214.50,339.07 214.85,338.83 215.20,338.87 215.55,339.01 215.90,338.62 216.25,338.86 216.60,338.75 216.95,338.64 217.30,338.38 217.65,338.33 218.00,338.17 218.35,338.04 218.70,338.23 219.05,338.76 219.40,339.00 219.75,339.13 220.10,339.27 220.45,339.27 220.80,339.32 221.15,339.32 221.50,338.94 221.85,338.70 222.20,338.46 222.55,338.51 222.90,338.40 223.25,338.54 223.60,338.11 223.95,337.92 224.30,337.59 224.65,337.89 225.00,337.92 225.35,338.26 225.70,338.33 226.05,338.43 226.40,338.11 226.75,337.78 227.10,337.54 227.45,337.16 227.80,337.20 228.15,337.56 228.50,337.99 228.85,338.33 229.20,338.66 229.55,338.87 229.90,339.26 230.25,339.74 230.60,340.04 230.95,340.37 231.30,340.71 231.65,341.08 232.00,341.51 232.35,341.83 232.70,342.12 233.05,342.45 233.40,342.83 233.75,343.17 234.10,343.51 234.45,343.88 234.80,344.07 235.15,344.58 235.50,344.89 235.85,345.09 236.20,345.32 236.55,345.64 236.90,345.97 237.25,346.40 237.60,346.74 237.95,347.08 238.30,347.47 238.65,347.86 239.00,348.08 239.35,348.42 239.70,348.70 240.05,349.04 240.40,349.28 240.75,349.59 241.10,349.88 241.45,350.31 241.80,350.60 242.15,351.02 242.50,351.36 242.85,351.50 243.20,351.84 243.55,351.65 243.90,351.26 244.25,350.92 244.60,350.59 244.95,350.21 245.30,349.73 245.65,349.34 246.00,349.01 246.35,348.87 246.70,349.01 247.05,349.20 247.40,349.58 247.75,349.54 248.10,349.55 248.45,349.60 248.80,349.97 249.15,349.67 249.50,349.34 249.85,349.00 250.20,348.77 250.55,348.45 250.90,348.17 251.25,347.88 251.60,347.59 251.95,347.30 252.30,346.89 252.65,346.70 253.00,346.35 253.35,345.99 253.70,345.52 254.05,345.37 254.40,345.13 254.75,344.75 255.10,344.27 255.45,343.99 255.80,343.60 256.15,343.26 256.50,342.83 256.85,342.60 257.20,342.32 257.55,341.91 257.90,341.49 258.25,341.32 258.60,341.00 258.95,340.57 259.30,340.19 259.65,339.90 260.00,339.62 260.35,339.33 260.70,338.90 261.05,338.64 261.40,338.31 261.75,337.89 262.10,337.60 262.45,337.39 262.80,337.04 263.15,336.81 263.50,336.47 263.85,336.09 264.20,335.85 264.55,335.52 264.90,335.23 265.25,335.42 265.60,335.76 265.95,336.05 266.30,336.47 266.65,336.85 267.00,337.19 267.35,337.43 267.70,337.76 268.05,338.19 268.40,338.47 268.75,338.86 269.10,339.09 269.45,339.37 269.80,339.71 270.15,340.09 270.50,340.41 270.85,340.76 271.20,341.05 271.55,341.38 271.90,341.81 272.25,342.29 272.60,342.58 272.95,342.67 273.30,342.73 273.65,343.00 274.00,342.96 274.35,342.95 274.70,343.09 275.05,343.33 275.40,343.10 275.75,343.08 276.10,343.27 276.45,343.61 276.80,343.91 277.15,344.32 277.50,344.60 277.85,344.94 278.20,345.22 278.55,345.61 278.90,345.75 279.25,345.91 279.60,345.95 279.95,346.29 280.30,346.41 280.65,346.60 281.00,346.93 281.35,347.19 281.70,347.43 282.05,347.67 282.40,347.84 282.75,347.99 283.10,347.90 283.45,347.66 283.80,347.76 284.15,347.97 284.50,347.73 284.85,347.36 285.20,347.02 285.55,346.68 285.90,346.40 286.25,346.16 286.60,346.01 286.95,346.16 287.30,346.15 287.65,345.87 288.00,345.67 288.35,345.34 288.70,345.33 289.05,345.34 289.40,345.44 289.75,345.25 290.10,344.92 290.45,344.66 290.80,344.57 291.15,344.52 291.50,344.09 291.85,343.80 292.20,343.66 292.55,343.22 292.90,342.89 293.25,342.61 293.60,342.22 293.95,341.93 294.30,341.60 294.65,341.26 295.00,340.88 295.35,340.59 295.70,340.26 296.05,340.02 296.40,339.72 296.75,339.82 297.10,340.16 297.45,340.54 297.80,340.91 298.15,341.20 298.50,341.52 298.85,341.81 299.20,342.24 299.55,342.05 299.90,341.83 300.25,341.77 300.60,341.65 300.95,341.37 301.30,340.94 301.65,340.88 302.00,340.41 302.35,340.02 302.70,339.80 303.05,339.61 303.40,339.24 303.75,338.90 304.10,338.52 304.45,338.21 304.80,337.92 305.15,337.63 305.50,337.68 305.85,337.40 306.20,337.64 306.55,337.88 306.90,337.93 307.25,338.12 307.60,338.55 307.95,339.01 308.30,339.34 308.65,339.67 309.00,340.06 309.35,340.49 309.70,340.82 310.05,341.11 310.40,341.49 310.75,341.78 311.10,342.16 311.45,342.47 311.80,342.71 312.15,343.05 312.50,343.32 312.85,343.52 313.20,343.80 313.55,344.19 313.90,344.38 314.25,344.76 314.60,345.05 314.95,345.48 315.30,345.87 315.65,346.15 316.00,346.47 316.35,346.62 316.70,346.66 317.05,346.42 317.40,346.02 317.75,346.21 318.10,346.41 318.45,345.96 318.80,345.53 319.15,345.30 319.50,344.97 319.85,344.63 320.20,344.20 320.55,343.94 320.90,343.55 321.25,343.22 321.60,342.74 321.95,342.43 322.30,342.25 322.65,341.87 323.00,341.62 323.35,341.25 323.70,340.95 324.05,340.58 324.40,340.15 324.75,339.81 325.10,339.48 325.45,339.19 325.80,338.96 326.15,338.52 326.50,338.32 326.85,337.94 327.20,337.65 327.55,337.42 327.90,337.08 328.25,336.79 328.60,336.58 328.95,336.25 329.30,335.82 329.65,335.53 330.00,335.58 330.35,335.29 330.70,335.47 331.05,335.81 331.40,336.19 331.75,335.90 332.10,336.19 332.45,336.02 332.80,335.63 333.15,335.29 333.50,335.04 333.85,334.67 334.20,334.31 334.55,333.93 334.90,333.69 335.25,333.31 335.60,332.99 335.95,332.56 336.30,332.27 336.65,331.94 337.00,331.55 337.35,331.22 337.70,330.79 338.05,330.53 338.40,330.25 338.75,330.01 339.10,329.63 339.45,329.29 339.80,328.92 340.15,328.51 340.50,328.13 340.85,327.84 341.20,327.55 341.55,327.12 341.90,326.92 342.25,326.64 342.60,326.21 342.95,325.88 343.30,325.59 343.65,325.31 344.00,325.08 344.35,324.60 344.70,324.17 345.05,323.79 345.40,323.45 345.75,323.03 346.10,322.79 346.45,322.50 346.80,322.21 347.15,321.88 347.50,321.40 347.85,321.02 348.20,320.73 348.55,320.30 348.90,319.98 349.25,319.64 349.60,319.26 349.95,318.97 350.30,318.62 350.65,318.33 351.00,317.95 351.35,317.68 351.70,317.30 352.05,316.87 352.40,316.44 352.75,316.10 353.10,315.62 353.45,315.34 353.80,315.11 354.15,314.68 354.50,314.35 354.85,313.96 355.20,313.63 355.55,313.16 355.90,312.77 356.25,312.39 356.60,312.71 356.95,313.14 357.30,313.57 357.65,313.97 358.00,314.32 358.35,314.70 358.70,315.13 359.05,315.54 359.40,315.93 359.75,316.31 360.10,316.40 360.45,316.87 360.80,317.22 361.15,317.55 361.50,317.94 361.85,318.27 362.20,318.70 362.55,319.00 362.90,319.34 363.25,319.77 363.60,320.11 363.95,320.49 364.30,320.71 364.65,321.14 365.00,321.57 365.35,321.84 365.70,322.25 366.05,322.58 366.40,322.86 366.75,323.25 367.10,323.49 367.45,323.87 367.80,324.20 368.15,324.53 368.50,324.87 368.85,325.30 369.20,325.54 369.55,325.96 369.90,326.35 370.25,326.72 370.60,327.08 370.95,327.51 371.30,327.68 371.65,327.52 372.00,327.13 372.35,326.70 372.70,326.51 373.05,326.70 373.40,327.13 373.75,327.52 374.10,327.95 374.45,328.24 374.80,328.58 375.15,328.91 375.50,329.30 375.85,329.35 376.20,329.44 376.55,329.25 376.90,328.94 377.25,328.63 377.60,328.26 377.95,328.05 378.30,327.76 378.65,327.46 379.00,327.49 379.35,327.30 379.70,327.49 380.05,327.69 380.40,327.64 380.75,327.39 381.10,327.10 381.45,327.15 381.80,326.91 382.15,327.01 382.50,327.34 382.85,327.73 383.20,328.06 383.55,328.19 383.90,328.38 384.25,328.43 384.60,328.81 384.95,329.10 385.30,329.53 385.65,329.93 386.00,330.21 386.35,330.64 386.70,331.02 387.05,331.45 387.40,331.64 387.75,331.91 388.10,332.16 388.45,332.49 388.80,332.90 389.15,333.13 389.50,333.42 389.85,333.76 390.20,334.09 390.55,334.42 390.90,334.78 391.25,335.07 391.60,335.31 391.95,335.74 392.30,336.12 392.65,336.49 393.00,336.78 393.35,337.02 393.70,337.31 394.05,337.69 394.40,337.98 394.75,338.36 395.10,338.61 395.45,338.99 395.80,339.28 396.15,339.67 396.50,339.87 396.85,340.30 397.20,340.58 397.55,340.90 397.90,341.28 398.25,341.66 398.60,342.04 398.95,342.28 399.30,342.71 399.65,342.98 400.00,343.32 400.35,343.75 400.70,344.13 401.05,344.34 401.40,344.62 401.75,344.81 402.10,344.85 402.45,344.90 402.80,345.09 403.15,344.85 403.50,344.47 403.85,344.23 404.20,344.37 404.55,344.51 404.90,344.75 405.25,344.80 405.60,344.89 405.95,344.86 406.30,344.71 406.65,344.80 407.00,344.39 407.35,344.11 407.70,343.76 408.05,343.61 408.40,344.04 408.75,344.43 409.10,344.66 409.45,345.03 409.80,345.46 410.15,345.79 410.50,346.13 410.85,346.37 411.20,346.70 411.55,347.04 411.90,347.37 412.25,347.61 412.60,347.95 412.95,348.33 413.30,348.66 413.65,348.93 414.00,349.17 414.35,349.50 414.70,349.93 415.05,350.36 415.40,350.79 415.75,351.08 416.10,351.33 416.45,351.33 416.80,351.23 417.15,350.91 417.50,350.78 417.85,350.82 418.20,351.15 418.55,351.54 418.90,351.82 419.25,352.11 419.60,352.32 419.95,352.66 420.30,352.94 420.65,353.27 421.00,353.62 421.35,353.96 421.70,354.34 422.05,354.63 422.40,355.11 422.75,355.54 423.10,355.93 423.45,356.27 423.80,356.69 424.15,356.98 424.50,357.31 424.85,357.65 425.20,358.17 425.55,358.41 425.90,358.75 426.25,358.95 426.60,359.29 426.95,359.67 427.30,360.01 427.65,360.37 428.00,360.75 428.35,361.04 428.70,361.42 429.05,361.76 429.40,362.12 429.75,362.36 430.10,362.82 430.45,363.25 430.80,363.63 431.15,363.88 431.50,364.12 431.85,364.40 432.20,364.71 432.55,365.10 432.90,365.38 433.25,365.67 433.60,365.96 433.95,366.34 434.30,366.68 434.65,367.06 435.00,367.39 435.35,367.82 435.70,367.82 436.05,367.92 436.40,368.30 436.75,368.45 437.10,368.24 437.45,368.19 437.80,368.17 438.15,368.07 438.50,368.17 438.85,368.12 439.20,367.92 439.55,368.02 439.90,367.89 440.25,368.06 440.60,368.14 440.95,368.10 441.30,368.38 441.65,368.81 442.00,368.91 442.35,369.03 442.70,369.32 443.05,369.61 443.40,369.94 443.75,370.18 444.10,370.42 444.45,370.71 444.80,371.10 445.15,371.34 445.50,371.66 445.85,372.04 446.20,372.42 446.55,372.77 446.90,373.12 447.25,373.65 447.60,373.79 447.95,374.17 448.30,374.41 448.65,374.89 449.00,375.27 449.35,375.60 449.70,375.98 450.05,376.46 450.40,376.84 450.75,377.13 451.10,377.49 451.45,377.77 451.80,378.11 452.15,378.49 452.50,378.78 452.85,379.11 453.20,379.49 453.55,379.83 453.90,380.21 454.25,380.55 454.60,380.87 454.95,381.25 455.30,381.64 455.65,381.97 456.00,382.31 456.35,382.49 456.70,382.82 457.05,383.21 457.40,383.69 457.75,383.96 458.10,384.26 458.45,384.70 458.80,385.08 459.15,385.46 459.50,385.70 459.85,386.08 460.20,386.47 460.55,386.85 460.90,387.11 461.25,387.48 461.60,387.96 461.95,388.34 462.30,388.72 462.65,388.96 463.00,388.76 463.35,388.54 463.70,388.46 464.05,388.22 464.40,387.89 464.75,387.63 465.10,387.49 465.45,387.17 465.80,387.05 466.15,387.00 466.50,386.84 466.85,386.60 467.20,386.65 467.55,386.55 467.90,386.69 468.25,386.97 468.60,386.78 468.95,386.69 469.30,386.92 469.65,387.30 470.00,387.73 470.35,388.02 470.70,388.34 471.05,388.77 471.40,389.10 471.75,389.39 472.10,389.68 472.45,389.82 472.80,389.87 473.15,390.11 473.50,390.40 473.85,390.64 474.20,390.83 474.55,391.07 474.90,391.37 475.25,391.76 475.60,392.09 475.95,392.52 476.30,392.71 476.65,393.10 477.00,393.48 477.35,393.82 477.70,394.10 478.05,394.39 478.40,394.63 478.75,394.72 479.10,394.49 479.45,394.25 479.80,394.15 480.15,393.99 480.50,393.58 480.85,393.10 481.20,392.91 481.55,392.52 481.90,392.24 482.25,391.95 482.60,391.59 482.95,391.49 483.30,391.35 483.65,391.63 484.00,391.87 484.35,392.26 484.70,392.67 485.05,393.05 485.40,393.52 485.75,393.85 486.10,393.83 486.45,394.22 486.80,394.61 487.15,394.75 487.50,394.84 487.85,394.90 488.20,395.09 488.55,395.23 488.90,395.57 489.25,395.95 489.60,396.24 489.95,396.67 490.30,397.02 490.65,397.38 491.00,397.71 491.35,398.05 491.70,398.14 492.05,398.22 492.40,398.00 492.75,397.82 493.10,397.44 493.45,397.15 493.80,396.72 494.15,396.58 494.50,396.23 494.85,396.24 495.20,396.61 495.55,396.97 495.90,397.45 496.25,397.83 496.60,398.13 496.95,398.22 497.30,398.04 497.65,397.70 498.00,397.31 498.35,396.98 498.70,396.88 499.05,396.58 499.40,396.77 499.75,397.11 500.10,396.77 500.45,396.29 500.80,395.96 501.15,395.53 501.50,395.34 501.85,395.05 502.20,394.81 502.55,394.48 502.90,394.14 503.25,393.79 503.60,393.54 503.95,393.16 504.30,392.78 504.65,392.38 505.00,392.03 505.35,391.74 505.70,391.40 506.05,391.12 506.40,390.97 506.75,390.88 507.10,390.68 507.45,390.44 507.80,390.30 508.15,390.32 508.50,390.17 508.85,389.78 509.20,389.69 509.55,389.78 509.90,389.54 510.25,389.41 510.60,389.22 510.95,389.20 511.30,389.28 511.65,389.57 512.00,389.90 512.35,390.19 512.70,390.56 513.05,390.94 513.40,391.33 513.75,391.66 514.10,392.03 514.45,392.41 514.80,392.49 515.15,392.87 515.50,392.98 515.85,393.17 516.20,393.31 516.55,393.07 516.90,392.96 517.25,393.05 517.60,393.28 517.95,393.74 518.30,393.98 518.65,394.22 519.00,394.17 519.35,394.22 519.70,394.65 520.05,394.80 520.40,394.51 520.75,394.22 521.10,393.89 521.45,393.46 521.80,393.27 522.15,393.03 522.50,392.83 522.85,392.58 523.20,392.39 523.55,392.34 523.90,392.25 524.25,392.01 524.60,391.78 524.95,391.39 525.30,391.11 525.65,390.86 526.00,390.64 526.35,390.55 526.70,390.21 527.05,390.15 527.40,390.02 527.75,390.04 528.10,390.22 528.45,390.07 528.80,389.93 529.15,389.71 529.50,389.23 529.85,388.89 530.20,388.59 530.55,388.30 530.90,387.96 531.25,387.71 531.60,387.50 531.95,387.40 532.30,387.57 532.65,387.38 533.00,387.01 533.35,386.70 533.70,386.42 534.05,386.08 534.40,385.81 534.75,385.43 535.10,385.00 535.45,384.57 535.80,384.18 536.15,383.87 536.50,383.53 536.85,383.05 537.20,382.62 537.55,382.28 537.90,381.95 538.25,381.62 538.60,381.38 538.95,381.19 539.30,380.81 539.65,380.58 540.00,380.19 540.35,379.91 540.70,379.52 541.05,379.14 541.40,378.79 541.75,378.36 542.10,378.00 542.45,377.63 542.80,377.20 543.15,376.89 543.50,376.51 543.85,376.20 544.20,375.91 544.55,375.77 544.90,375.44 545.25,375.08 545.60,374.79 545.95,374.50 546.30,374.44 546.65,374.11 547.00,373.94 547.35,374.03 547.70,374.27 548.05,374.53 548.40,374.92 548.75,375.21 549.10,375.55 549.45,376.03 549.80,376.41 550.15,376.89 550.50,377.17 550.85,377.46 551.20,377.75 551.55,378.18 551.90,378.44 552.25,378.73 552.60,379.06 552.95,379.40 553.30,379.73 553.65,380.07 554.00,380.31 554.35,380.69 554.70,380.94 555.05,381.39 555.40,381.72 555.75,382.06 556.10,382.39 556.45,382.78 556.80,383.16 557.15,383.55 557.50,383.86 557.85,384.13 558.20,384.37 558.55,384.65 558.90,385.08 559.25,385.37 559.60,385.61 559.95,385.52 560.30,385.18 560.65,384.90 561.00,384.79 561.35,384.74 561.70,384.55 562.05,384.48 562.40,384.27 562.75,383.84 563.10,383.51 563.45,383.08 563.80,382.75 564.15,382.52 564.50,382.24 564.85,381.82 565.20,381.34 565.55,380.97 565.90,380.59 566.25,380.21 566.60,379.92 566.95,379.56 567.30,379.30 567.65,379.04 568.00,378.66 568.35,378.37 568.70,378.14 569.05,377.80 569.40,377.46 569.75,377.22 570.10,376.79 570.45,376.40 570.80,376.08 571.15,375.98 571.50,376.03 571.85,375.84 572.20,375.60 572.55,375.26 572.90,374.88 573.25,374.45 573.60,374.13 573.95,373.84 574.30,373.56 574.65,373.42 575.00,373.42 575.35,373.47 575.70,373.42 576.05,373.47 576.40,373.61 576.75,373.66 577.10,373.74 577.45,373.69 577.80,373.51 578.15,373.49 578.50,373.58 578.85,373.78 579.20,374.21 579.55,374.54 579.90,374.83 580.25,375.11 580.60,375.41 580.95,375.79 581.30,375.91 581.65,376.30 582.00,376.44 582.35,376.58 582.70,376.75 583.05,376.64 583.40,376.76 583.75,377.14 584.10,377.52 584.45,377.84 584.80,378.09 585.15,378.43 585.50,378.76 585.85,379.24 586.20,379.53 586.55,379.81 586.90,380.25 587.25,380.42 587.60,380.61 587.95,380.94 588.30,381.23 588.65,381.61 589.00,381.96 589.35,382.39 589.70,382.79 590.05,383.22 590.40,383.60 590.75,383.84 591.10,384.27 591.45,384.51 591.80,384.81 592.15,385.29 592.50,385.63 592.85,385.98 593.20,386.17 593.55,386.37 593.90,386.63 594.25,386.87 594.60,387.18 594.95,387.47 595.30,387.63 595.65,388.02 596.00,388.33 596.35,388.66 596.70,388.85 597.05,389.24 597.40,389.55 597.75,389.83 598.10,389.93 598.45,390.12 598.80,390.47 599.15,390.90 599.50,391.24 599.85,391.62 600.20,391.91 600.55,392.29 600.90,392.68 601.25,392.96 601.60,393.21 601.95,393.53 602.30,393.96 602.65,394.18 603.00,394.42 603.35,394.72 603.70,394.96 604.05,395.37 604.40,395.70 604.75,395.91 605.10,396.03 605.45,395.74 605.80,395.85 606.15,396.14 606.50,396.33 606.85,396.19 607.20,396.21 607.55,395.97 607.90,395.59 608.25,395.35 608.60,395.11 608.95,394.77 609.30,394.44 609.65,394.10 610.00,393.67 610.35,393.43 610.70,393.10 611.05,392.76 611.40,392.43 611.75,392.14 612.10,391.82 612.45,391.72 612.80,391.92 613.15,392.01 613.50,391.93 613.85,392.07 614.20,391.83 614.55,391.56 614.90,391.17 615.25,390.98 615.60,390.89 615.95,391.03 616.30,390.82 616.65,390.97 617.00,391.11 617.35,390.88 617.70,390.66 618.05,390.23 618.40,389.80 618.75,389.34 619.10,389.01 619.45,388.67 619.80,388.29 620.15,387.86 620.50,387.48 620.85,387.00 621.20,386.66 621.55,386.18 621.90,385.86 622.25,385.53 622.60,385.10 622.95,384.76 623.30,384.43 623.65,384.14 624.00,383.81 624.35,383.52 624.70,383.09 625.05,382.75 625.40,382.42 625.75,382.13 626.10,381.75 626.45,381.47 626.80,381.13 627.15,380.97 627.50,381.24 627.85,381.24 628.20,381.47 628.55,381.81 628.90,382.11 629.25,382.39 629.60,382.48 629.95,382.63 630.30,383.01 630.65,383.37 631.00,383.76 631.35,383.75 631.70,383.55 632.05,383.43 632.40,383.19 632.75,382.83 633.10,382.50 633.45,382.31 633.80,382.45 634.15,382.40 634.50,382.11 634.85,382.28 635.20,382.23 635.55,381.75 635.90,381.42 636.25,380.99 636.60,380.60 636.95,380.29 637.30,380.05 637.65,380.00 638.00,379.72 638.35,379.38 638.70,379.10 639.05,378.86 639.40,378.43 639.75,378.13 640.10,377.79 640.45,377.38 640.80,377.00 641.15,376.64 641.50,376.30 641.85,376.40 642.20,376.21 642.55,375.83 642.90,375.54 643.25,375.11 643.60,374.78 643.95,374.41 644.30,374.13 644.65,373.85 645.00,373.47 645.35,372.99 645.70,372.75 646.05,372.44 646.40,372.11 646.75,371.77 647.10,371.43 647.45,371.14 647.80,370.86 648.15,370.57 648.50,370.28 648.85,370.00 649.20,369.76 649.55,369.47 649.90,369.18 650.25,368.85 650.60,368.54 650.95,368.31 651.30,367.95 651.65,367.68 652.00,367.51 652.35,367.21 652.70,366.73 653.05,366.40 653.40,366.11 653.75,365.82 654.10,365.49 654.45,365.41 654.80,365.39 655.15,365.77 655.50,365.46 655.85,365.09 656.20,364.89 656.55,364.51 656.90,364.23 657.25,364.32 657.60,363.89 657.95,363.51 658.30,363.17 658.65,362.97 659.00,362.78 659.35,362.50 659.70,362.16 660.05,361.83 660.40,361.45 660.75,361.11 661.10,360.82 661.45,360.39 661.80,360.10 662.15,359.73 662.50,359.35 662.85,358.97 663.20,358.58 663.55,358.34 663.90,357.95 664.25,357.61 664.60,357.31 664.95,357.02 665.30,356.83 665.65,356.50 666.00,356.11 666.35,355.68 666.70,355.30 667.05,354.98 667.40,354.64 667.75,354.31 668.10,354.04 668.45,353.76 668.80,353.37 669.15,353.06 669.50,352.68 669.85,352.30 670.20,351.91 670.55,351.44 670.90,351.24 671.25,350.97 671.60,350.68 671.95,350.33 672.30,349.95 672.65,349.52 673.00,349.19 673.35,348.78 673.70,348.35 674.05,347.87 674.40,347.68 674.75,347.15 675.10,346.77 675.45,346.44 675.80,346.05 676.15,345.72 676.50,345.29 676.85,344.82 677.20,344.50 677.55,344.12 677.90,343.66 678.25,343.59 678.60,343.52 678.95,343.32 679.30,343.37 679.65,343.37 680.00,343.42 680.35,343.56 680.70,343.18 681.05,342.70 681.40,342.65 681.75,342.75 682.10,342.85 682.45,343.05 682.80,343.23 683.15,343.38 683.50,343.79 683.85,343.78 684.20,343.79 684.55,343.63 684.90,343.24 685.25,342.96 685.60,342.58 685.95,342.44 686.30,342.30 686.65,342.10 687.00,342.34 687.35,342.20 687.70,342.13 688.05,342.03 688.40,342.19 688.75,342.38 689.10,342.59 689.45,342.93 689.80,343.31 690.15,343.50 690.50,343.79 690.85,344.08 691.20,344.00 691.55,343.98 691.90,343.69 692.25,343.86 692.60,343.86 692.95,343.81 693.30,343.44 693.65,343.58 694.00,343.68 694.35,343.76 694.70,343.63 695.05,343.81 695.40,343.67 695.75,343.82 696.10,343.86 696.45,343.77 696.80,344.10 697.15,344.35 697.50,344.74 697.85,345.09 698.20,345.38 698.55,345.76 698.90,346.19 699.25,346.66 699.60,347.04 699.95,347.42 700.30,347.66 700.65,348.00 701.00,348.19 701.35,348.57 701.70,348.19 702.05,347.90 702.40,347.71 702.75,347.71 703.10,347.82 703.45,348.03 703.80,348.08 704.15,347.79 704.50,347.55 704.85,347.79 705.20,347.81 705.55,347.90 705.90,348.13 706.25,348.46 706.60,348.94 706.95,349.19 707.30,349.48 707.65,349.86 708.00,350.20 708.35,350.58 708.70,350.72 709.05,350.96 709.40,351.33 709.75,351.67 710.10,352.10 710.45,352.60 710.80,352.91 711.15,353.20 711.50,353.63 711.85,353.91 712.20,354.30 712.55,354.73 712.90,355.07 713.25,355.35 713.60,355.73 713.95,355.87 714.30,356.30 714.65,356.68 715.00,356.92 715.35,357.30 715.70,357.59 716.05,357.97 716.40,358.42 716.75,358.70 717.10,359.09 717.45,359.42 717.80,359.76 718.15,360.09 718.50,360.38 718.85,360.66 719.20,360.90 719.55,361.33 719.90,361.45 720.25,361.74 720.60,362.11 720.95,362.17 721.30,361.93 721.65,361.87 722.00,362.09 722.35,362.00 722.70,361.96 723.05,361.55 723.40,361.17 723.75,360.83 724.10,360.55 724.45,360.40 724.80,360.16 725.15,359.73 725.50,359.25 725.85,358.95 726.20,358.66 726.55,358.28 726.90,358.00 727.25,357.66 727.60,357.45 727.95,357.02 728.30,356.64 728.65,356.29 729.00,356.05 729.35,355.78 729.70,355.59 730.05,355.79 730.40,355.74 730.75,355.36 731.10,355.12 731.45,354.94 731.80,355.08 732.15,355.30 732.50,355.25 732.85,355.54 733.20,355.59 733.55,355.86 733.90,355.86 734.25,355.71 734.60,355.36 734.95,355.15 735.30,354.72 735.65,354.36 736.00,354.00 736.35,353.78 736.70,353.40 737.05,353.13 737.40,353.23 737.75,353.18 738.10,353.09 738.45,353.09 738.80,352.90 739.15,353.19 739.50,353.62 739.85,354.10 740.20,354.47 740.55,354.55 740.90,354.89 741.25,355.30 741.60,355.73 741.95,355.97 742.30,356.40 742.65,356.78 743.00,357.02 743.35,357.35 743.70,357.64 744.05,357.88 744.40,358.28 744.75,358.52 745.10,358.67 745.45,358.69 745.80,358.79 746.15,358.79 746.50,358.79 746.85,358.79 747.20,359.08 747.55,359.46 747.90,359.89 748.25,360.03 748.60,359.79 748.95,359.59 749.30,359.21 749.65,359.51 750.00,359.62 750.35,359.56 750.70,359.46 751.05,359.46 751.40,359.46 751.75,359.41 752.10,359.23 752.45,358.85 752.80,358.42 753.15,358.48 753.50,358.34 753.85,358.72 754.20,358.72 754.55,358.62 754.90,358.62 755.25,358.48 755.60,358.75 755.95,358.60 756.30,358.46 756.65,358.08 757.00,357.74 757.35,357.91 757.70,358.20 758.05,358.15 758.40,358.34 758.75,358.63 759.10,358.87 759.45,359.15 759.80,359.58 760.15,359.52 760.50,359.50 760.85,359.34 761.20,359.16 761.55,359.07 761.90,359.10 762.25,359.05 762.60,359.03 762.95,358.79 763.30,358.50 763.65,358.26 764.00,357.97 764.35,357.68 764.70,357.59 765.05,357.30 765.40,357.01 765.75,356.97 766.10,357.12 766.45,357.56 766.80,357.94 767.15,358.32 767.50,358.61 767.85,359.04 768.20,359.31 768.55,359.21 768.90,359.35 769.25,359.69 769.60,360.12 769.95,360.36 770.30,360.50 770.65,360.84 771.00,361.32 771.35,361.60 771.70,362.08 772.05,362.42 772.40,362.80 772.75,363.22 773.10,363.60 773.45,363.98 773.80,364.18 774.15,364.37 774.50,364.70 774.85,365.17 775.20,365.36 775.55,365.08 775.90,364.75 776.25,364.51 776.60,364.17 776.95,363.81 777.30,363.47 777.65,363.23 778.00,362.95 778.35,362.63 778.70,362.31 779.05,361.97 779.40,361.64 779.75,361.40 780.10,361.07 780.45,360.81 780.80,360.49 781.15,360.39 781.50,360.23 781.85,359.85 782.20,359.66 782.55,359.33 782.90,358.87 783.25,358.91 783.60,358.96 783.95,359.11 784.30,359.07 784.65,359.38 785.00,359.62"/>
<line x1="813" y1="78" x2="839" y2="78" stroke="#dc2626" stroke-width="3"/>
<text x="847" y="82" font-family="Arial" font-size="13" fill="#111827">high volatility</text>
<polyline fill="none" stroke="#059669" stroke-width="2" points="85.00,366.64 85.35,366.64 85.70,366.57 86.05,366.57 86.40,366.61 86.75,366.61 87.10,366.51 87.45,366.35 87.80,366.35 88.15,366.41 88.50,366.40 88.85,366.64 89.20,366.69 89.55,366.64 89.90,366.66 90.25,366.57 90.60,366.56 90.95,366.36 91.30,366.28 91.65,366.33 92.00,366.20 92.35,366.20 92.70,366.15 93.05,366.08 93.40,365.94 93.75,365.70 94.10,365.51 94.45,365.24 94.80,365.00 95.15,364.66 95.50,364.23 95.85,363.81 96.20,363.57 96.55,363.29 96.90,362.97 97.25,362.54 97.60,362.19 97.95,361.80 98.30,361.36 98.65,361.03 99.00,360.69 99.35,360.22 99.70,359.88 100.05,359.64 100.40,359.31 100.75,358.97 101.10,358.64 101.45,358.39 101.80,358.01 102.15,357.71 102.50,357.38 102.85,357.02 103.20,356.62 103.55,356.19 103.90,355.80 104.25,355.47 104.60,355.42 104.95,355.09 105.30,354.80 105.65,354.51 106.00,354.79 106.35,354.65 106.70,354.73 107.05,354.57 107.40,354.52 107.75,354.57 108.10,354.43 108.45,354.33 108.80,354.18 109.15,353.82 109.50,353.66 109.85,353.27 110.20,352.96 110.55,352.72 110.90,352.63 111.25,352.55 111.60,352.60 111.95,352.77 112.30,352.70 112.65,352.75 113.00,352.69 113.35,352.74 113.70,352.93 114.05,352.88 114.40,353.12 114.75,353.33 115.10,353.66 115.45,353.69 115.80,353.58 116.15,353.54 116.50,353.78 116.85,354.16 117.20,354.40 117.55,354.45 117.90,354.54 118.25,354.73 118.60,355.02 118.95,355.16 119.30,355.37 119.65,355.31 120.00,355.31 120.35,355.45 120.70,355.80 121.05,355.77 121.40,355.73 121.75,355.50 122.10,355.37 122.45,355.33 122.80,355.42 123.15,355.47 123.50,355.76 123.85,356.14 124.20,356.46 124.55,356.74 124.90,357.07 125.25,357.55 125.60,357.91 125.95,358.29 126.30,358.67 126.65,359.00 127.00,359.47 127.35,359.71 127.70,359.95 128.05,360.31 128.40,360.50 128.75,360.64 129.10,360.96 129.45,361.29 129.80,361.68 130.15,361.97 130.50,362.21 130.85,362.23 131.20,362.27 131.55,362.22 131.90,362.08 132.25,362.15 132.60,362.38 132.95,362.55 133.30,362.52 133.65,362.53 134.00,362.62 134.35,362.65 134.70,362.74 135.05,362.79 135.40,362.85 135.75,362.95 136.10,363.23 136.45,363.38 136.80,363.33 137.15,363.55 137.50,363.57 137.85,363.70 138.20,363.91 138.55,364.24 138.90,364.57 139.25,364.86 139.60,365.21 139.95,365.64 140.30,365.98 140.65,366.22 141.00,366.56 141.35,366.59 141.70,366.50 142.05,366.59 142.40,366.63 142.75,366.59 143.10,366.62 143.45,366.53 143.80,366.38 144.15,366.43 144.50,366.32 144.85,366.65 145.20,366.97 145.55,367.21 145.90,367.45 146.25,367.73 146.60,367.78 146.95,367.71 147.30,367.61 147.65,367.42 148.00,367.57 148.35,367.57 148.70,367.59 149.05,367.22 149.40,367.34 149.75,367.48 150.10,367.53 150.45,367.39 150.80,367.53 151.15,367.39 151.50,367.15 151.85,367.05 152.20,366.85 152.55,366.90 152.90,366.94 153.25,367.04 153.60,366.99 153.95,367.03 154.30,366.89 154.65,366.79 155.00,366.84 155.35,366.89 155.70,366.79 156.05,366.70 156.40,366.69 156.75,366.66 157.10,366.54 157.45,366.68 157.80,366.87 158.15,366.81 158.50,366.81 158.85,366.72 159.20,366.77 159.55,366.89 159.90,366.79 160.25,366.91 160.60,366.53 160.95,366.24 161.30,365.91 161.65,365.67 162.00,365.29 162.35,365.02 162.70,364.77 163.05,364.48 163.40,364.15 163.75,364.05 164.10,363.86 164.45,363.91 164.80,364.20 165.15,364.39 165.50,364.64 165.85,364.88 166.20,365.07 166.55,365.48 166.90,365.75 167.25,366.03 167.60,366.42 167.95,366.80 168.30,367.09 168.65,367.35 169.00,367.73 169.35,368.12 169.70,368.45 170.05,368.88 170.40,369.12 170.75,369.36 171.10,369.76 171.45,370.05 171.80,370.43 172.15,370.81 172.50,371.24 172.85,371.63 173.20,372.05 173.55,372.38 173.90,372.72 174.25,373.10 174.60,373.53 174.95,373.72 175.30,374.05 175.65,374.45 176.00,374.79 176.35,375.11 176.70,375.49 177.05,375.78 177.40,376.07 177.75,376.40 178.10,376.74 178.45,377.12 178.80,377.50 179.15,377.81 179.50,378.15 179.85,378.53 180.20,378.87 180.55,379.25 180.90,379.66 181.25,380.04 181.60,380.32 181.95,380.60 182.30,381.03 182.65,381.42 183.00,381.75 183.35,382.09 183.70,382.42 184.05,382.69 184.40,383.03 184.75,383.52 185.10,383.62 185.45,384.00 185.80,384.29 186.15,384.72 186.50,385.03 186.85,385.37 187.20,385.80 187.55,386.18 187.90,386.42 188.25,386.82 188.60,387.06 188.95,387.45 189.30,387.93 189.65,388.31 190.00,388.74 190.35,389.11 190.70,389.49 191.05,389.93 191.40,390.26 191.75,390.67 192.10,391.15 192.45,391.34 192.80,391.49 193.15,391.82 193.50,392.19 193.85,392.48 194.20,392.82 194.55,393.03 194.90,393.41 195.25,393.81 195.60,394.28 195.95,394.62 196.30,394.95 196.65,395.23 197.00,395.71 197.35,395.57 197.70,395.32 198.05,394.98 198.40,394.89 198.75,394.74 199.10,394.36 199.45,393.93 199.80,393.83 200.15,393.83 200.50,393.73 200.85,393.78 201.20,393.87 201.55,393.80 201.90,393.82 202.25,393.96 202.60,394.20 202.95,394.58 203.30,394.77 203.65,395.20 204.00,395.51 204.35,395.90 204.70,396.14 205.05,396.37 205.40,396.40 205.75,396.64 206.10,396.65 206.45,396.59 206.80,396.55 207.15,396.31 207.50,396.08 207.85,396.37 208.20,396.61 208.55,396.94 208.90,397.27 209.25,397.63 209.60,397.97 209.95,398.22 210.30,398.46 210.65,398.76 211.00,398.52 211.35,398.69 211.70,398.67 212.05,398.38 212.40,398.05 212.75,397.90 213.10,397.81 213.45,398.09 213.80,398.48 214.15,398.72 214.50,399.00 214.85,399.10 215.20,399.43 215.55,399.72 215.90,399.96 216.25,400.26 216.60,400.45 216.95,400.73 217.30,401.12 217.65,401.40 218.00,401.65 218.35,401.89 218.70,402.26 219.05,402.60 219.40,402.98 219.75,403.31 220.10,403.55 220.45,403.89 220.80,404.09 221.15,404.14 221.50,404.14 221.85,404.58 222.20,404.80 222.55,405.04 222.90,405.37 223.25,405.71 223.60,406.09 223.95,406.47 224.30,406.82 224.65,407.21 225.00,407.63 225.35,407.87 225.70,408.21 226.05,408.55 226.40,408.79 226.75,409.06 227.10,409.35 227.45,409.73 227.80,410.07 228.15,410.36 228.50,410.79 228.85,411.17 229.20,411.55 229.55,411.82 229.90,412.15 230.25,412.49 230.60,412.87 230.95,413.24 231.30,413.58 231.65,413.82 232.00,414.28 232.35,414.53 232.70,414.88 233.05,415.17 233.40,415.50 233.75,415.82 234.10,416.15 234.45,416.52 234.80,416.66 235.15,416.95 235.50,417.18 235.85,417.40 236.20,417.74 236.55,418.12 236.90,418.31 237.25,418.64 237.60,418.98 237.95,419.31 238.30,419.70 238.65,419.98 239.00,420.24 239.35,420.57 239.70,421.01 240.05,421.41 240.40,421.80 240.75,422.13 241.10,422.52 241.45,422.90 241.80,423.28 242.15,423.71 242.50,424.09 242.85,424.43 243.20,424.62 243.55,424.72 243.90,424.96 244.25,424.91 244.60,424.96 244.95,424.82 245.30,425.20 245.65,425.45 246.00,425.79 246.35,426.08 246.70,426.37 247.05,426.70 247.40,426.94 247.75,427.05 248.10,426.71 248.45,426.62 248.80,426.71 249.15,426.71 249.50,426.60 249.85,426.41 250.20,426.27 250.55,426.17 250.90,426.27 251.25,426.60 251.60,427.04 251.95,427.37 252.30,427.71 252.65,428.09 253.00,428.42 253.35,428.68 253.70,429.01 254.05,429.29 254.40,429.67 254.75,429.91 255.10,430.06 255.45,429.96 255.80,429.66 256.15,429.89 256.50,430.13 256.85,430.37 257.20,430.61 257.55,430.51 257.90,430.61 258.25,430.89 258.60,431.12 258.95,431.46 259.30,431.84 259.65,431.94 260.00,431.67 260.35,431.67 260.70,431.72 261.05,431.87 261.40,432.01 261.75,432.08 262.10,432.34 262.45,432.68 262.80,433.03 263.15,433.51 263.50,433.55 263.85,433.79 264.20,434.13 264.55,434.46 264.90,434.82 265.25,435.20 265.60,435.49 265.95,435.77 266.30,436.01 266.65,436.40 267.00,436.73 267.35,436.73 267.70,436.97 268.05,436.97 268.40,437.11 268.75,437.11 269.10,436.73 269.45,436.35 269.80,435.92 270.15,435.58 270.50,435.20 270.85,434.93 271.20,434.59 271.55,434.33 271.90,434.29 272.25,434.34 272.60,434.01 272.95,434.10 273.30,434.11 273.65,433.87 274.00,433.54 274.35,433.34 274.70,433.30 275.05,433.36 275.40,433.09 275.75,433.09 276.10,433.07 276.45,432.97 276.80,432.82 277.15,432.53 277.50,432.34 277.85,432.16 278.20,432.22 278.55,432.46 278.90,432.75 279.25,433.13 279.60,433.61 279.95,433.66 280.30,433.74 280.65,433.78 281.00,434.11 281.35,434.54 281.70,434.78 282.05,434.56 282.40,434.89 282.75,435.32 283.10,435.56 283.45,435.74 283.80,436.12 284.15,436.37 284.50,436.80 284.85,437.09 285.20,437.43 285.55,437.57 285.90,437.86 286.25,438.20 286.60,438.49 286.95,438.83 287.30,439.11 287.65,439.40 288.00,439.41 288.35,439.24 288.70,439.05 289.05,438.62 289.40,438.24 289.75,437.90 290.10,437.90 290.45,437.58 290.80,437.58 291.15,437.34 291.50,437.20 291.85,436.96 292.20,436.96 292.55,437.20 292.90,437.48 293.25,437.63 293.60,437.95 293.95,438.17 294.30,438.51 294.65,438.79 295.00,438.95 295.35,439.14 295.70,439.33 296.05,439.77 296.40,440.10 296.75,440.48 297.10,440.29 297.45,440.10 297.80,439.88 298.15,439.55 298.50,439.20 298.85,438.88 299.20,438.49 299.55,438.58 299.90,438.45 300.25,438.17 300.60,437.88 300.95,437.98 301.30,437.85 301.65,437.47 302.00,437.01 302.35,436.73 302.70,436.58 303.05,436.53 303.40,436.39 303.75,436.05 304.10,435.96 304.45,435.68 304.80,435.56 305.15,435.37 305.50,435.35 305.85,435.04 306.20,434.68 306.55,434.41 306.90,434.02 307.25,433.69 307.60,433.39 307.95,432.97 308.30,432.73 308.65,432.34 309.00,432.01 309.35,431.67 309.70,431.43 310.05,431.08 310.40,430.79 310.75,430.41 311.10,430.03 311.45,429.60 311.80,429.25 312.15,428.88 312.50,428.41 312.85,428.02 313.20,427.64 313.55,427.35 313.90,427.07 314.25,426.81 314.60,426.42 314.95,426.04 315.30,425.65 315.65,425.37 316.00,425.04 316.35,424.79 316.70,424.55 317.05,424.12 317.40,423.82 317.75,423.53 318.10,423.19 318.45,422.82 318.80,422.52 319.15,422.44 319.50,422.01 319.85,421.65 320.20,421.27 320.55,420.94 320.90,420.69 321.25,420.35 321.60,419.87 321.95,419.49 322.30,419.21 322.65,418.78 323.00,418.44 323.35,418.12 323.70,417.85 324.05,417.37 324.40,416.89 324.75,416.63 325.10,416.24 325.45,415.86 325.80,415.46 326.15,415.12 326.50,414.74 326.85,414.36 327.20,413.93 327.55,413.62 327.90,413.19 328.25,412.67 328.60,412.29 328.95,411.86 329.30,411.48 329.65,411.23 330.00,410.85 330.35,410.47 330.70,410.07 331.05,409.64 331.40,409.17 331.75,408.94 332.10,408.64 332.45,408.31 332.80,407.93 333.15,407.66 333.50,407.28 333.85,406.90 334.20,406.58 334.55,406.15 334.90,405.82 335.25,405.42 335.60,405.04 335.95,404.66 336.30,404.31 336.65,404.03 337.00,403.61 337.35,403.18 337.70,402.95 338.05,402.66 338.40,402.37 338.75,401.99 339.10,401.61 339.45,401.32 339.80,400.99 340.15,400.66 340.50,400.38 340.85,399.99 341.20,399.69 341.55,399.50 341.90,399.21 342.25,398.90 342.60,398.61 342.95,398.27 343.30,397.89 343.65,397.59 344.00,397.16 344.35,396.68 344.70,396.38 345.05,396.10 345.40,395.72 345.75,395.37 346.10,394.99 346.45,394.65 346.80,394.25 347.15,394.06 347.50,393.72 347.85,393.39 348.20,393.15 348.55,392.92 348.90,392.58 349.25,392.15 349.60,391.82 349.95,391.38 350.30,391.00 350.65,390.62 351.00,390.29 351.35,390.00 351.70,389.57 352.05,389.19 352.40,388.85 352.75,388.47 353.10,388.11 353.45,387.92 353.80,387.77 354.15,387.39 354.50,387.54 354.85,387.94 355.20,388.34 355.55,388.65 355.90,388.89 356.25,389.03 356.60,388.79 356.95,388.74 357.30,388.74 357.65,388.79 358.00,388.68 358.35,388.92 358.70,388.87 359.05,388.82 359.40,388.74 359.75,388.67 360.10,388.38 360.45,388.05 360.80,387.67 361.15,387.67 361.50,387.71 361.85,387.67 362.20,387.73 362.55,387.65 362.90,387.60 363.25,387.51 363.60,387.33 363.95,387.28 364.30,387.23 364.65,387.14 365.00,386.99 365.35,386.75 365.70,386.49 366.05,386.20 366.40,385.82 366.75,385.36 367.10,385.26 367.45,384.92 367.80,384.78 368.15,384.49 368.50,384.15 368.85,383.82 369.20,383.37 369.55,382.94 369.90,382.51 370.25,382.17 370.60,381.70 370.95,381.31 371.30,381.03 371.65,380.74 372.00,380.36 372.35,380.07 372.70,379.59 373.05,379.50 373.40,379.52 373.75,379.47 374.10,379.47 374.45,379.37 374.80,379.36 375.15,379.31 375.50,379.37 375.85,379.33 376.20,379.33 376.55,379.31 376.90,379.36 377.25,379.25 377.60,379.31 377.95,379.07 378.30,378.77 378.65,378.42 379.00,378.18 379.35,377.80 379.70,377.56 380.05,377.36 380.40,377.08 380.75,376.67 381.10,376.25 381.45,375.90 381.80,375.66 382.15,375.28 382.50,375.25 382.85,374.81 383.20,374.60 383.55,374.50 383.90,374.26 384.25,374.12 384.60,373.79 384.95,373.63 385.30,373.26 385.65,372.92 386.00,372.54 386.35,372.25 386.70,371.82 387.05,371.54 387.40,371.30 387.75,370.87 388.10,370.53 388.45,370.24 388.80,369.78 389.15,369.44 389.50,369.19 389.85,368.85 390.20,368.47 390.55,368.09 390.90,367.72 391.25,367.53 391.60,367.24 391.95,367.10 392.30,366.70 392.65,366.46 393.00,366.11 393.35,365.68 393.70,365.30 394.05,364.92 394.40,364.63 394.75,364.33 395.10,364.12 395.45,363.74 395.80,363.59 396.15,363.12 396.50,362.76 396.85,362.40 397.20,362.02 397.55,361.63 397.90,361.34 398.25,361.10 398.60,360.86 398.95,360.53 399.30,360.51 399.65,360.49 400.00,360.39 400.35,360.21 400.70,359.82 401.05,359.39 401.40,359.04 401.75,358.80 402.10,358.83 402.45,358.97 402.80,359.13 403.15,359.23 403.50,358.99 403.85,358.70 404.20,358.27 404.55,357.99 404.90,358.03 405.25,358.11 405.60,358.01 405.95,357.91 406.30,357.69 406.65,357.34 407.00,357.00 407.35,357.05 407.70,357.43 408.05,357.76 408.40,357.87 408.75,357.93 409.10,358.04 409.45,358.01 409.80,357.91 410.15,357.86 410.50,357.90 410.85,358.00 411.20,358.04 411.55,358.42 411.90,358.27 412.25,358.23 412.60,358.23 412.95,358.19 413.30,358.25 413.65,358.33 414.00,358.28 414.35,358.29 414.70,358.29 415.05,358.67 415.40,358.34 415.75,357.95 416.10,357.71 416.45,357.38 416.80,357.09 417.15,356.66 417.50,356.47 417.85,356.11 418.20,355.85 418.55,355.56 418.90,355.27 419.25,354.89 419.60,354.46 419.95,354.12 420.30,353.69 420.65,353.31 421.00,352.93 421.35,352.59 421.70,352.28 422.05,351.89 422.40,351.61 422.75,351.22 423.10,350.83 423.45,350.42 423.80,350.23 424.15,349.89 424.50,349.51 424.85,349.08 425.20,348.75 425.55,348.41 425.90,347.98 426.25,347.59 426.60,347.30 426.95,347.01 427.30,346.63 427.65,346.24 428.00,345.86 428.35,345.51 428.70,345.23 429.05,344.89 429.40,344.51 429.75,344.18 430.10,343.79 430.45,343.51 430.80,343.32 431.15,343.02 431.50,342.64 431.85,342.31 432.20,342.01 432.55,341.67 432.90,341.43 433.25,341.00 433.60,340.67 433.95,340.48 434.30,340.05 434.65,339.76 435.00,339.38 435.35,338.99 435.70,338.71 436.05,338.44 436.40,338.06 436.75,337.63 437.10,337.24 437.45,337.00 437.80,336.61 438.15,336.23 438.50,335.85 438.85,335.51 439.20,335.16 439.55,334.87 439.90,334.49 440.25,334.12 440.60,333.83 440.95,333.50 441.30,333.16 441.65,332.83 442.00,332.49 442.35,332.18 442.70,331.81 443.05,331.53 443.40,331.22 443.75,330.88 444.10,330.69 444.45,330.40 444.80,329.97 445.15,329.68 445.50,329.20 445.85,328.86 446.20,328.48 446.55,328.24 446.90,327.96 447.25,327.73 447.60,327.43 447.95,327.05 448.30,326.66 448.65,326.30 449.00,325.92 449.35,325.63 449.70,325.34 450.05,325.06 450.40,324.72 450.75,324.29 451.10,323.97 451.45,323.63 451.80,323.39 452.15,323.10 452.50,322.67 452.85,322.19 453.20,321.81 453.55,321.42 453.90,321.10 454.25,320.74 454.60,320.30 454.95,320.11 455.30,319.78 455.65,319.49 456.00,319.25 456.35,318.82 456.70,318.58 457.05,318.19 457.40,317.86 457.75,317.52 458.10,317.19 458.45,316.76 458.80,316.52 459.15,316.23 459.50,315.80 459.85,315.47 460.20,315.13 460.55,314.75 460.90,314.37 461.25,314.18 461.60,313.91 461.95,313.62 462.30,313.20 462.65,312.77 463.00,312.48 463.35,312.24 463.70,311.86 464.05,311.58 464.40,311.20 464.75,310.83 465.10,310.45 465.45,310.21 465.80,310.30 466.15,310.55 466.50,310.61 466.85,310.85 467.20,310.78 467.55,310.85 467.90,311.12 468.25,310.93 468.60,311.21 468.95,311.02 469.30,311.07 469.65,311.03 470.00,310.87 470.35,310.87 470.70,310.92 471.05,310.92 471.40,311.20 471.75,311.44 472.10,311.49 472.45,311.40 472.80,311.73 473.15,312.06 473.50,312.50 473.85,312.88 474.20,313.14 474.55,313.52 474.90,313.85 475.25,314.19 475.60,314.57 475.95,314.72 476.30,314.86 476.65,314.90 477.00,314.95 477.35,314.99 477.70,315.09 478.05,314.90 478.40,314.77 478.75,314.93 479.10,314.96 479.45,314.96 479.80,314.96 480.15,314.96 480.50,315.25 480.85,315.20 481.20,315.01 481.55,315.11 481.90,315.10 482.25,315.14 482.60,315.08 482.95,315.13 483.30,315.03 483.65,315.27 484.00,315.37 484.35,315.41 484.70,315.72 485.05,315.82 485.40,315.77 485.75,315.80 486.10,315.75 486.45,315.70 486.80,315.85 487.15,315.98 487.50,316.02 487.85,316.21 488.20,316.26 488.55,316.21 488.90,316.11 489.25,315.78 489.60,315.63 489.95,315.44 490.30,315.58 490.65,315.44 491.00,315.34 491.35,315.34 491.70,315.31 492.05,315.55 492.40,315.93 492.75,316.36 493.10,316.69 493.45,317.07 493.80,317.40 494.15,317.55 494.50,317.60 494.85,317.88 495.20,318.34 495.55,318.67 495.90,319.06 496.25,319.39 496.60,319.73 496.95,320.15 497.30,320.51 497.65,320.70 498.00,321.04 498.35,321.42 498.70,321.80 499.05,322.28 499.40,322.71 499.75,322.96 500.10,323.44 500.45,323.67 500.80,324.10 501.15,324.48 501.50,324.82 501.85,325.10 502.20,325.56 502.55,325.85 502.90,326.01 503.25,326.44 503.60,326.72 503.95,327.10 504.30,327.44 504.65,327.79 505.00,328.12 505.35,328.51 505.70,328.89 506.05,329.32 506.40,329.75 506.75,330.14 507.10,330.56 507.45,330.89 507.80,331.27 508.15,331.65 508.50,331.93 508.85,332.26 509.20,332.64 509.55,332.97 509.90,333.29 510.25,333.67 510.60,333.90 510.95,334.31 511.30,334.74 511.65,335.06 512.00,335.44 512.35,335.83 512.70,336.16 513.05,336.50 513.40,336.84 513.75,337.22 514.10,337.55 514.45,337.98 514.80,338.22 515.15,338.56 515.50,338.71 515.85,339.04 516.20,339.43 516.55,339.81 516.90,340.10 517.25,340.57 517.60,340.95 517.95,341.29 518.30,341.67 518.65,342.02 519.00,342.35 519.35,342.57 519.70,342.96 520.05,343.20 520.40,343.43 520.75,343.81 521.10,344.29 521.45,344.67 521.80,345.10 522.15,345.42 522.50,345.80 522.85,346.14 523.20,346.52 523.55,346.90 523.90,347.29 524.25,347.67 524.60,348.08 524.95,348.37 525.30,348.57 525.65,348.99 526.00,349.32 526.35,349.75 526.70,350.13 527.05,350.45 527.40,350.61 527.75,351.09 528.10,351.42 528.45,351.71 528.80,352.00 529.15,352.38 529.50,352.86 529.85,353.24 530.20,353.41 530.55,353.35 530.90,353.56 531.25,353.41 531.60,353.56 531.95,353.76 532.30,353.90 532.65,353.82 533.00,353.88 533.35,353.89 533.70,353.84 534.05,353.94 534.40,354.04 534.75,353.98 535.10,353.93 535.45,353.74 535.80,353.59 536.15,353.59 536.50,353.64 536.85,353.40 537.20,353.35 537.55,353.50 537.90,353.47 538.25,353.61 538.60,353.52 538.95,353.76 539.30,354.14 539.65,354.50 540.00,354.78 540.35,355.11 540.70,355.45 541.05,355.66 541.40,355.71 541.75,355.78 542.10,355.87 542.45,355.83 542.80,355.76 543.15,355.66 543.50,355.63 543.85,355.63 544.20,355.58 544.55,355.69 544.90,355.67 545.25,355.87 545.60,355.87 545.95,355.94 546.30,355.90 546.65,355.81 547.00,355.71 547.35,355.45 547.70,355.10 548.05,354.81 548.40,354.63 548.75,354.61 549.10,354.72 549.45,354.63 549.80,354.80 550.15,354.89 550.50,355.13 550.85,354.94 551.20,354.96 551.55,354.95 551.90,354.78 552.25,354.40 552.60,354.01 552.95,353.80 553.30,353.85 553.65,354.13 554.00,353.89 554.35,353.94 554.70,354.42 555.05,354.71 555.40,355.01 555.75,355.44 556.10,355.75 556.45,356.13 556.80,356.37 557.15,356.71 557.50,356.61 557.85,356.56 558.20,356.52 558.55,356.52 558.90,356.37 559.25,356.29 559.60,356.38 559.95,356.31 560.30,356.60 560.65,356.56 561.00,356.75 561.35,356.56 561.70,356.67 562.05,356.57 562.40,356.58 562.75,356.75 563.10,356.65 563.45,356.51 563.80,356.39 564.15,356.49 564.50,356.73 564.85,356.90 565.20,357.04 565.55,357.28 565.90,357.28 566.25,357.17 566.60,357.12 566.95,357.28 567.30,357.54 567.65,357.71 568.00,357.54 568.35,357.69 568.70,357.55 569.05,357.55 569.40,357.60 569.75,357.60 570.10,357.60 570.45,357.45 570.80,357.60 571.15,357.78 571.50,357.97 571.85,358.07 572.20,358.37 572.55,358.71 572.90,359.00 573.25,359.43 573.60,359.67 573.95,359.95 574.30,360.24 574.65,360.43 575.00,360.86 575.35,361.29 575.70,361.63 576.05,361.96 576.40,362.34 576.75,362.54 577.10,362.79 577.45,363.12 577.80,363.31 578.15,363.62 578.50,363.98 578.85,364.36 579.20,364.74 579.55,365.13 579.90,365.37 580.25,365.65 580.60,365.93 580.95,366.13 581.30,366.46 581.65,366.80 582.00,367.09 582.35,367.42 582.70,367.80 583.05,368.09 583.40,368.52 583.75,368.86 584.10,369.24 584.45,369.57 584.80,369.93 585.15,370.31 585.50,370.69 585.85,371.08 586.20,371.56 586.55,371.84 586.90,372.13 587.25,372.56 587.60,372.94 587.95,373.28 588.30,373.76 588.65,374.14 589.00,374.35 589.35,374.73 589.70,374.92 590.05,375.09 590.40,375.47 590.75,375.76 591.10,376.14 591.45,376.57 591.80,376.97 592.15,377.06 592.50,377.16 592.85,376.95 593.20,377.09 593.55,376.86 593.90,376.57 594.25,376.25 594.60,376.33 594.95,376.52 595.30,376.57 595.65,376.57 596.00,376.57 596.35,376.43 596.70,376.30 597.05,376.06 597.40,375.78 597.75,375.54 598.10,375.50 598.45,375.47 598.80,375.50 599.15,375.41 599.50,375.26 599.85,375.36 600.20,375.10 600.55,374.81 600.90,374.42 601.25,374.17 601.60,373.79 601.95,373.36 602.30,373.07 602.65,372.66 603.00,372.29 603.35,371.91 603.70,371.48 604.05,371.14 604.40,370.77 604.75,370.39 605.10,370.05 605.45,369.77 605.80,369.53 606.15,369.10 606.50,368.77 606.85,368.41 607.20,368.08 607.55,367.74 607.90,367.50 608.25,367.12 608.60,366.78 608.95,366.31 609.30,366.02 609.65,365.83 610.00,365.35 610.35,364.97 610.70,364.63 611.05,364.15 611.40,363.82 611.75,363.57 612.10,363.30 612.45,362.89 612.80,362.56 613.15,362.17 613.50,361.89 613.85,361.50 614.20,361.17 614.55,360.83 614.90,360.50 615.25,360.04 615.60,359.56 615.95,359.27 616.30,358.84 616.65,358.51 617.00,358.08 617.35,357.75 617.70,357.35 618.05,356.97 618.40,356.58 618.75,356.32 619.10,355.99 619.45,355.56 619.80,355.31 620.15,355.30 620.50,355.25 620.85,354.96 621.20,354.63 621.55,354.27 621.90,354.01 622.25,353.63 622.60,353.31 622.95,352.88 623.30,352.54 623.65,352.33 624.00,351.94 624.35,351.56 624.70,351.34 625.05,351.15 625.40,350.92 625.75,350.49 626.10,350.11 626.45,349.72 626.80,349.34 627.15,348.96 627.50,348.62 627.85,348.24 628.20,347.90 628.55,347.60 628.90,347.28 629.25,346.85 629.60,346.51 629.95,346.08 630.30,345.84 630.65,345.41 631.00,345.12 631.35,344.75 631.70,344.46 632.05,344.10 632.40,343.79 632.75,343.45 633.10,343.17 633.45,342.65 633.80,342.22 634.15,341.94 634.50,341.70 634.85,341.32 635.20,341.08 635.55,340.65 635.90,340.21 636.25,339.78 636.60,339.40 636.95,339.07 637.30,338.68 637.65,338.21 638.00,337.92 638.35,337.69 638.70,337.34 639.05,336.92 639.40,336.49 639.75,336.15 640.10,335.90 640.45,335.66 640.80,335.32 641.15,334.94 641.50,334.61 641.85,334.27 642.20,333.89 642.55,333.55 642.90,333.23 643.25,332.89 643.60,332.51 643.95,332.03 644.30,331.55 644.65,331.26 645.00,330.96 645.35,330.58 645.70,330.39 646.05,330.10 646.40,329.72 646.75,329.43 647.10,329.14 647.45,328.76 647.80,328.42 648.15,327.99 648.50,327.69 648.85,327.35 649.20,326.97 649.55,326.61 649.90,326.36 650.25,325.97 650.60,325.64 650.95,325.30 651.30,324.92 651.65,324.54 652.00,324.12 652.35,323.73 652.70,323.30 653.05,322.96 653.40,322.53 653.75,322.15 654.10,321.94 654.45,321.65 654.80,321.45 655.15,321.05 655.50,320.76 655.85,320.33 656.20,320.04 656.55,319.71 656.90,319.42 657.25,319.06 657.60,318.69 657.95,318.32 658.30,318.08 658.65,317.74 659.00,317.46 659.35,317.07 659.70,316.77 660.05,316.49 660.40,316.21 660.75,315.73 661.10,315.45 661.45,315.10 661.80,314.76 662.15,314.47 662.50,314.14 662.85,313.75 663.20,313.42 663.55,313.28 663.90,312.84 664.25,312.43 664.60,312.20 664.95,311.88 665.30,311.78 665.65,311.54 666.00,311.08 666.35,310.79 666.70,310.41 667.05,310.13 667.40,309.65 667.75,309.29 668.10,308.98 668.45,308.60 668.80,308.21 669.15,307.73 669.50,307.35 669.85,306.87 670.20,306.59 670.55,306.20 670.90,305.78 671.25,305.39 671.60,304.96 671.95,304.53 672.30,304.29 672.65,303.91 673.00,303.48 673.35,303.15 673.70,302.67 674.05,302.52 674.40,302.09 674.75,301.75 675.10,301.37 675.45,300.97 675.80,300.59 676.15,300.35 676.50,300.10 676.85,299.72 677.20,299.43 677.55,299.00 677.90,298.68 678.25,298.29 678.60,297.96 678.95,297.62 679.30,297.27 679.65,297.04 680.00,296.60 680.35,296.27 680.70,295.98 681.05,295.60 681.40,295.31 681.75,294.98 682.10,294.69 682.45,294.36 682.80,294.12 683.15,293.78 683.50,293.38 683.85,292.94 684.20,292.61 684.55,292.34 684.90,292.01 685.25,291.72 685.60,291.29 685.95,290.95 686.30,290.57 686.65,290.23 687.00,289.85 687.35,289.51 687.70,289.13 688.05,288.65 688.40,288.37 688.75,287.98 689.10,287.76 689.45,287.43 689.80,287.15 690.15,286.76 690.50,286.57 690.85,286.24 691.20,285.98 691.55,285.64 691.90,285.31 692.25,285.12 692.60,285.12 692.95,285.07 693.30,285.12 693.65,284.98 694.00,284.93 694.35,285.07 694.70,285.04 695.05,284.73 695.40,284.49 695.75,284.25 696.10,284.06 696.45,283.68 696.80,283.44 697.15,283.06 697.50,282.72 697.85,282.47 698.20,282.19 698.55,281.85 698.90,281.61 699.25,281.33 699.60,280.94 699.95,281.04 700.30,281.20 700.65,281.43 701.00,281.14 701.35,280.85 701.70,280.52 702.05,280.36 702.40,280.07 702.75,279.64 703.10,279.36 703.45,279.07 703.80,278.64 704.15,278.31 704.50,277.97 704.85,277.67 705.20,277.35 705.55,276.96 705.90,276.72 706.25,276.36 706.60,276.13 706.95,275.99 707.30,275.89 707.65,275.76 708.00,275.90 708.35,275.61 708.70,275.61 709.05,275.55 709.40,275.36 709.75,275.15 710.10,275.18 710.45,275.09 710.80,274.88 711.15,274.55 711.50,274.22 711.85,273.74 712.20,273.59 712.55,273.40 712.90,272.97 713.25,273.00 713.60,273.14 713.95,273.13 714.30,272.89 714.65,272.75 715.00,272.70 715.35,272.41 715.70,272.05 716.05,271.71 716.40,271.43 716.75,271.27 717.10,270.91 717.45,270.70 717.80,270.75 718.15,270.70 718.50,270.34 718.85,269.95 719.20,269.53 719.55,269.20 719.90,268.76 720.25,268.30 720.60,267.91 720.95,267.82 721.30,267.77 721.65,267.48 722.00,267.43 722.35,267.53 722.70,267.65 723.05,267.60 723.40,267.69 723.75,267.58 724.10,267.25 724.45,266.96 724.80,266.57 725.15,266.29 725.50,265.93 725.85,265.55 726.20,265.32 726.55,264.97 726.90,264.68 727.25,264.30 727.60,263.97 727.95,263.58 728.30,263.20 728.65,262.96 729.00,262.67 729.35,262.23 729.70,261.76 730.05,261.42 730.40,261.08 730.75,260.75 731.10,260.48 731.45,260.34 731.80,259.96 732.15,259.62 732.50,259.38 732.85,259.10 733.20,258.71 733.55,258.33 733.90,258.00 734.25,257.66 734.60,257.42 734.95,257.04 735.30,256.80 735.65,256.51 736.00,256.27 736.35,256.08 736.70,255.84 737.05,255.53 737.40,255.31 737.75,254.92 738.10,254.59 738.45,254.44 738.80,254.11 739.15,253.68 739.50,253.30 739.85,252.92 740.20,252.63 740.55,252.34 740.90,252.05 741.25,251.81 741.60,251.47 741.95,251.19 742.30,250.76 742.65,250.33 743.00,250.33 743.35,250.47 743.70,250.80 744.05,251.14 744.40,251.47 744.75,251.81 745.10,252.19 745.45,252.62 745.80,252.86 746.15,253.05 746.50,252.86 746.85,252.48 747.20,252.06 747.55,251.67 747.90,251.42 748.25,251.08 748.60,250.94 748.95,250.46 749.30,250.11 749.65,249.82 750.00,249.48 750.35,249.06 750.70,248.74 751.05,248.50 751.40,248.26 751.75,247.98 752.10,247.83 752.45,247.50 752.80,247.21 753.15,246.83 753.50,246.62 753.85,246.28 754.20,246.09 754.55,245.66 754.90,245.52 755.25,245.66 755.60,246.03 755.95,246.44 756.30,246.77 756.65,246.99 757.00,247.08 757.35,246.99 757.70,246.90 758.05,246.90 758.40,247.05 758.75,246.86 759.10,246.56 759.45,246.13 759.80,245.75 760.15,245.37 760.50,244.99 760.85,244.74 761.20,244.54 761.55,244.24 761.90,243.84 762.25,243.47 762.60,243.14 762.95,242.76 763.30,242.56 763.65,242.09 764.00,242.04 764.35,241.94 764.70,242.11 765.05,241.92 765.40,241.49 765.75,241.30 766.10,241.12 766.45,240.88 766.80,240.45 767.15,240.14 767.50,239.83 767.85,239.40 768.20,239.15 768.55,238.92 768.90,238.83 769.25,238.47 769.60,238.04 769.95,238.17 770.30,238.29 770.65,238.39 771.00,238.19 771.35,238.28 771.70,238.25 772.05,238.39 772.40,238.25 772.75,238.20 773.10,238.20 773.45,238.29 773.80,238.34 774.15,238.17 774.50,238.26 774.85,238.30 775.20,238.39 775.55,238.54 775.90,238.46 776.25,238.18 776.60,237.84 776.95,237.46 777.30,237.12 777.65,236.69 778.00,236.32 778.35,235.99 778.70,235.56 779.05,235.46 779.40,235.28 779.75,235.13 780.10,235.18 780.45,235.01 780.80,234.92 781.15,234.49 781.50,234.43 781.85,234.36 782.20,234.26 782.55,233.93 782.90,233.74 783.25,233.59 783.60,233.64 783.95,233.78 784.30,233.69 784.65,233.69 785.00,233.92"/>
<line x1="813" y1="102" x2="839" y2="102" stroke="#059669" stroke-width="3"/>
<text x="847" y="106" font-family="Arial" font-size="13" fill="#111827">trending</text>
<text x="435.0" y="518" text-anchor="middle" font-family="Arial" font-size="14" fill="#111827">Event index</text>
<text x="22" y="256.0" text-anchor="middle" transform="rotate(-90 22 256.0)" font-family="Arial" font-size="14" fill="#111827">Inventory</text>
</svg>
