<svg xmlns="http://www.w3.org/2000/svg" width="940" height="540" viewBox="0 0 940 540">
<rect width="100%" height="100%" fill="#ffffff"/>
<text x="470.0" y="26" text-anchor="middle" font-family="Arial" font-size="18" fill="#111827">Calibrated Avellaneda Stoikov Cumulative PnL After Fees By Regime</text>
<line x1="85" y1="470" x2="785" y2="470" stroke="#111827" stroke-width="1"/>
<line x1="85" y1="42" x2="85" y2="470" stroke="#111827" stroke-width="1"/>
<line x1="85.00" y1="42" x2="85.00" y2="470" stroke="#e5e7eb" stroke-width="1"/>
<text x="85.00" y="494" text-anchor="middle" font-family="Arial" font-size="12" fill="#374151">0</text>
<line x1="260.00" y1="42" x2="260.00" y2="470" stroke="#e5e7eb" stroke-width="1"/>
<text x="260.00" y="494" text-anchor="middle" font-family="Arial" font-size="12" fill="#374151">50000</text>
<line x1="435.00" y1="42" x2="435.00" y2="470" stroke="#e5e7eb" stroke-width="1"/>
<text x="435.00" y="494" text-anchor="middle" font-family="Arial" font-size="12" fill="#374151">100000</text>
<line x1="610.00" y1="42" x2="610.00" y2="470" stroke="#e5e7eb" stroke-width="1"/>
<text x="610.00" y="494" text-anchor="middle" font-family="Arial" font-size="12" fill="#374151">149999</text>
<line x1="785.00" y1="42" x2="785.00" y2="470" stroke="#e5e7eb" stroke-width="1"/>
<text x="785.00" y="494" text-anchor="middle" font-family="Arial" font-size="12" fill="#374151">199999</text>
<line x1="85" y1="470.00" x2="785" y2="470.00" stroke="#e5e7eb" stroke-width="1"/>
<text x="73" y="474.00" text-anchor="end" font-family="Arial" font-size="12" fill="#374151">-2151042</text>
<line x1="85" y1="363.00" x2="785" y2="363.00" stroke="#e5e7eb" stroke-width="1"/>
<text x="73" y="367.00" text-anchor="end" font-family="Arial" font-size="12" fill="#374151">2645750</text>
<line x1="85" y1="256.00" x2="785" y2="256.00" stroke="#e5e7eb" stroke-width="1"/>
<text x="73" y="260.00" text-anchor="end" font-family="Arial" font-size="12" fill="#374151">7442542</text>
<line x1="85" y1="149.00" x2="785" y2="149.00" stroke="#e5e7eb" stroke-width="1"/>
<text x="73" y="153.00" text-anchor="end" font-family="Arial" font-size="12" fill="#374151">12239334</text>
<line x1="85" y1="42.00" x2="785" y2="42.00" stroke="#e5e7eb" stroke-width="1"/>
<text x="73" y="46.00" text-anchor="end" font-family="Arial" font-size="12" fill="#374151">17036126</text>
<polyline fill="none" stroke="#2563eb" stroke-width="2" points="85.00,422.02 85.35,421.99 85.70,421.96 86.05,421.94 86.40,421.92 86.75,421.89 87.10,421.86 87.45,421.83 87.80,421.80 88.15,421.76 88.50,421.74 88.85,421.72 89.20,421.69 89.55,421.67 89.90,421.64 90.25,421.60 90.60,421.57 90.95,421.54 91.30,421.50 91.65,421.47 92.00,421.46 92.35,421.43 92.70,421.41 93.05,421.40 93.40,421.38 93.75,421.36 94.10,421.33 94.45,421.34 94.80,421.31 95.15,421.28 95.50,421.26 95.85,421.24 96.20,421.18 96.55,421.18 96.90,421.14 97.25,421.09 97.60,421.11 97.95,421.10 98.30,421.08 98.65,421.06 99.00,421.05 99.35,421.03 99.70,420.99 100.05,420.98 100.40,420.94 100.75,420.94 101.10,420.88 101.45,420.88 101.80,420.86 102.15,420.83 102.50,420.78 102.85,420.75 103.20,420.76 103.55,420.75 103.90,420.72 104.25,420.67 104.60,420.68 104.95,420.64 105.30,420.65 105.65,420.65 106.00,420.64 106.35,420.63 106.70,420.61 107.05,420.58 107.40,420.57 107.75,420.54 108.10,420.50 108.45,420.49 108.80,420.50 109.15,420.49 109.50,420.47 109.85,420.45 110.20,420.46 110.55,420.44 110.90,420.43 111.25,420.39 111.60,420.38 111.95,420.35 112.30,420.33 112.65,420.30 113.00,420.28 113.35,420.24 113.70,420.22 114.05,420.19 114.40,420.17 114.75,420.14 115.10,420.10 115.45,420.08 115.80,420.04 116.15,419.99 116.50,419.97 116.85,419.94 117.20,419.92 117.55,419.90 117.90,419.86 118.25,419.81 118.60,419.79 118.95,419.72 119.30,419.72 119.65,419.70 120.00,419.70 120.35,419.64 120.70,419.63 121.05,419.64 121.40,419.77 121.75,419.72 122.10,419.73 122.45,419.65 122.80,419.67 123.15,419.69 123.50,419.59 123.85,419.52 124.20,419.42 124.55,419.46 124.90,419.43 125.25,419.42 125.60,419.37 125.95,419.38 126.30,419.46 126.65,419.50 127.00,419.46 127.35,419.45 127.70,419.41 128.05,419.52 128.40,419.46 128.75,419.47 129.10,419.45 129.45,419.39 129.80,419.38 130.15,419.38 130.50,419.30 130.85,419.25 131.20,419.21 131.55,419.19 131.90,419.21 132.25,419.38 132.60,419.25 132.95,419.23 133.30,419.08 133.65,419.14 134.00,419.13 134.35,419.19 134.70,419.21 135.05,419.26 135.40,419.12 135.75,419.08 136.10,419.13 136.45,419.16 136.80,419.04 137.15,418.93 137.50,418.89 137.85,418.97 138.20,418.88 138.55,418.75 138.90,418.77 139.25,418.70 139.60,418.48 139.95,418.36 140.30,418.26 140.65,418.13 141.00,418.26 141.35,418.28 141.70,418.27 142.05,418.05 142.40,418.00 142.75,418.04 143.10,417.89 143.45,417.99 143.80,417.96 144.15,418.01 144.50,417.98 144.85,417.91 145.20,417.70 145.55,417.64 145.90,417.50 146.25,417.42 146.60,417.47 146.95,417.45 147.30,417.39 147.65,417.58 148.00,417.58 148.35,417.54 148.70,417.77 149.05,417.75 149.40,417.71 149.75,417.58 150.10,417.82 150.45,417.68 150.80,417.54 151.15,417.35 151.50,417.27 151.85,417.10 152.20,416.82 152.55,416.93 152.90,416.95 153.25,417.05 153.60,417.04 153.95,417.16 154.30,416.94 154.65,416.85 155.00,416.91 155.35,416.94 155.70,417.10 156.05,417.12 156.40,417.39 156.75,417.12 157.10,417.04 157.45,416.99 157.80,417.11 158.15,417.18 158.50,416.98 158.85,417.06 159.20,416.61 159.55,416.67 159.90,416.57 160.25,416.55 160.60,416.79 160.95,416.70 161.30,416.61 161.65,416.46 162.00,416.52 162.35,416.72 162.70,416.64 163.05,416.69 163.40,416.50 163.75,416.46 164.10,416.13 164.45,415.98 164.80,416.23 165.15,416.31 165.50,416.12 165.85,416.23 166.20,416.20 166.55,415.98 166.90,415.80 167.25,415.63 167.60,415.75 167.95,416.24 168.30,416.17 168.65,416.37 169.00,416.41 169.35,416.66 169.70,416.41 170.05,416.56 170.40,416.50 170.75,415.99 171.10,415.69 171.45,415.92 171.80,415.71 172.15,415.51 172.50,415.81 172.85,416.10 173.20,416.39 173.55,416.28 173.90,416.00 174.25,415.69 174.60,415.50 174.95,415.72 175.30,415.72 175.65,415.74 176.00,415.78 176.35,415.83 176.70,415.95 177.05,415.85 177.40,415.60 177.75,415.48 178.10,415.34 178.45,415.41 178.80,415.39 179.15,414.85 179.50,415.29 179.85,415.20 180.20,415.12 180.55,415.06 180.90,415.19 181.25,415.48 181.60,415.13 181.95,415.44 182.30,415.25 182.65,414.95 183.00,414.79 183.35,414.50 183.70,414.20 184.05,413.76 184.40,413.57 184.75,413.79 185.10,414.25 185.45,414.07 185.80,413.84 186.15,413.86 186.50,413.96 186.85,413.92 187.20,414.41 187.55,414.21 187.90,413.95 188.25,413.99 188.60,413.74 188.95,413.38 189.30,413.21 189.65,413.06 190.00,412.86 190.35,413.18 190.70,413.38 191.05,413.64 191.40,413.73 191.75,413.45 192.10,413.75 192.45,413.15 192.80,413.19 193.15,412.73 193.50,411.90 193.85,412.19 194.20,412.35 194.55,411.97 194.90,411.34 195.25,410.44 195.60,410.40 195.95,410.94 196.30,410.73 196.65,411.43 197.00,412.28 197.35,411.67 197.70,412.12 198.05,411.26 198.40,412.06 198.75,411.77 199.10,411.56 199.45,411.70 199.80,411.44 200.15,410.36 200.50,409.31 200.85,408.51 201.20,407.51 201.55,407.19 201.90,407.74 202.25,408.30 202.60,407.65 202.95,407.49 203.30,408.29 203.65,407.80 204.00,408.46 204.35,409.29 204.70,409.69 205.05,408.93 205.40,408.66 205.75,408.14 206.10,408.71 206.45,408.85 206.80,408.36 207.15,408.27 207.50,408.30 207.85,408.63 208.20,408.97 208.55,409.64 208.90,410.18 209.25,410.58 209.60,409.31 209.95,408.47 210.30,408.28 210.65,408.63 211.00,408.46 211.35,409.20 211.70,410.73 212.05,410.85 212.40,411.84 212.75,411.75 213.10,412.33 213.45,413.16 213.80,412.33 214.15,411.96 214.50,413.02 214.85,413.77 215.20,415.22 215.55,415.53 215.90,415.88 216.25,415.99 216.60,416.32 216.95,415.51 217.30,415.76 217.65,416.72 218.00,416.65 218.35,416.15 218.70,416.33 219.05,416.71 219.40,416.20 219.75,416.83 220.10,416.33 220.45,417.53 220.80,417.19 221.15,416.69 221.50,416.98 221.85,417.33 222.20,416.62 222.55,417.60 222.90,417.13 223.25,417.07 223.60,416.59 223.95,415.98 224.30,416.43 224.65,415.73 225.00,415.87 225.35,416.25 225.70,416.27 226.05,416.07 226.40,415.44 226.75,416.00 227.10,415.69 227.45,415.77 227.80,415.50 228.15,415.98 228.50,415.24 228.85,414.99 229.20,415.69 229.55,415.96 229.90,416.08 230.25,415.91 230.60,415.48 230.95,415.29 231.30,414.73 231.65,414.61 232.00,413.24 232.35,413.69 232.70,413.65 233.05,413.81 233.40,412.41 233.75,412.05 234.10,411.36 234.45,411.19 234.80,411.03 235.15,411.13 235.50,412.26 235.85,412.10 236.20,411.47 236.55,411.60 236.90,412.75 237.25,412.09 237.60,411.47 237.95,412.02 238.30,412.60 238.65,412.09 239.00,411.58 239.35,412.25 239.70,412.85 240.05,412.27 240.40,411.74 240.75,412.28 241.10,410.80 241.45,410.39 241.80,410.87 242.15,409.95 242.50,410.45 242.85,411.41 243.20,411.09 243.55,410.18 243.90,409.51 244.25,409.45 244.60,410.36 244.95,410.56 245.30,409.70 245.65,409.62 246.00,410.04 246.35,409.97 246.70,409.56 247.05,410.18 247.40,410.20 247.75,409.84 248.10,410.55 248.45,409.72 248.80,408.99 249.15,409.80 249.50,409.90 249.85,409.32 250.20,409.89 250.55,410.80 250.90,410.90 251.25,409.71 251.60,409.39 251.95,410.13 252.30,409.84 252.65,410.48 253.00,410.82 253.35,411.45 253.70,412.54 254.05,412.88 254.40,412.26 254.75,411.70 255.10,412.61 255.45,412.65 255.80,412.67 256.15,412.88 256.50,413.11 256.85,412.35 257.20,410.31 257.55,410.59 257.90,409.78 258.25,410.78 258.60,409.78 258.95,408.77 259.30,408.71 259.65,407.96 260.00,407.52 260.35,407.76 260.70,407.94 261.05,407.52 261.40,408.63 261.75,408.13 262.10,406.46 262.45,405.41 262.80,405.74 263.15,405.71 263.50,404.24 263.85,403.21 264.20,402.60 264.55,402.63 264.90,402.42 265.25,403.48 265.60,404.03 265.95,402.92 266.30,403.09 266.65,401.96 267.00,401.10 267.35,401.02 267.70,400.51 268.05,400.59 268.40,401.94 268.75,402.23 269.10,402.20 269.45,402.75 269.80,402.54 270.15,401.69 270.50,400.03 270.85,399.64 271.20,399.55 271.55,398.81 271.90,397.09 272.25,397.29 272.60,397.30 272.95,398.74 273.30,397.21 273.65,397.03 274.00,396.68 274.35,397.39 274.70,400.03 275.05,399.17 275.40,401.28 275.75,400.41 276.10,398.96 276.45,397.31 276.80,398.46 277.15,400.31 277.50,399.52 277.85,400.26 278.20,400.30 278.55,402.87 278.90,402.91 279.25,401.38 279.60,399.86 279.95,399.60 280.30,400.32 280.65,399.21 281.00,398.84 281.35,397.78 281.70,397.77 282.05,398.22 282.40,400.47 282.75,403.20 283.10,404.14 283.45,402.89 283.80,402.78 284.15,401.67 284.50,402.33 284.85,400.92 285.20,401.28 285.55,401.66 285.90,402.03 286.25,401.55 286.60,400.63 286.95,401.13 287.30,402.59 287.65,401.85 288.00,405.30 288.35,405.03 288.70,405.29 289.05,405.69 289.40,405.02 289.75,405.14 290.10,404.48 290.45,402.13 290.80,402.93 291.15,404.46 291.50,404.54 291.85,404.76 292.20,404.60 292.55,403.47 292.90,403.47 293.25,405.64 293.60,405.55 293.95,406.58 294.30,408.97 294.65,408.18 295.00,406.66 295.35,407.35 295.70,406.39 296.05,407.01 296.40,408.23 296.75,409.34 297.10,411.30 297.45,412.39 297.80,413.33 298.15,411.59 298.50,410.14 298.85,411.11 299.20,410.70 299.55,409.67 299.90,409.64 300.25,410.70 300.60,412.37 300.95,413.59 301.30,414.34 301.65,413.07 302.00,411.56 302.35,410.60 302.70,409.37 303.05,410.30 303.40,411.90 303.75,410.93 304.10,410.64 304.45,407.71 304.80,408.69 305.15,409.00 305.50,408.27 305.85,409.18 306.20,411.00 306.55,412.62 306.90,411.14 307.25,410.95 307.60,411.95 307.95,413.43 308.30,412.40 308.65,411.12 309.00,411.16 309.35,410.14 309.70,406.97 310.05,409.22 310.40,409.92 310.75,410.01 311.10,410.71 311.45,409.64 311.80,409.99 312.15,409.20 312.50,410.42 312.85,409.93 313.20,409.47 313.55,409.01 313.90,407.54 314.25,408.70 314.60,408.79 314.95,410.43 315.30,410.93 315.65,413.23 316.00,413.51 316.35,413.94 316.70,413.39 317.05,414.42 317.40,415.72 317.75,417.27 318.10,416.81 318.45,417.52 318.80,416.32 319.15,414.41 319.50,412.75 319.85,413.03 320.20,414.28 320.55,415.71 320.90,417.87 321.25,417.47 321.60,417.11 321.95,417.32 322.30,417.48 322.65,417.06 323.00,417.45 323.35,415.03 323.70,415.20 324.05,415.81 324.40,416.78 324.75,417.12 325.10,416.85 325.45,417.13 325.80,417.22 326.15,416.56 326.50,415.73 326.85,416.09 327.20,415.12 327.55,416.04 327.90,417.06 328.25,417.52 328.60,418.08 328.95,418.03 329.30,418.78 329.65,416.58 330.00,417.12 330.35,415.79 330.70,415.23 331.05,414.60 331.40,414.37 331.75,412.77 332.10,411.88 332.45,411.74 332.80,412.15 333.15,412.13 333.50,411.87 333.85,410.08 334.20,409.75 334.55,409.10 334.90,409.19 335.25,407.89 335.60,407.92 335.95,407.55 336.30,406.46 336.65,404.65 337.00,404.96 337.35,404.09 337.70,404.15 338.05,404.83 338.40,405.15 338.75,405.29 339.10,406.11 339.45,406.40 339.80,406.08 340.15,406.37 340.50,407.22 340.85,407.37 341.20,408.66 341.55,406.86 341.90,407.22 342.25,406.46 342.60,407.86 342.95,406.47 343.30,406.30 343.65,405.70 344.00,405.35 344.35,404.99 344.70,406.09 345.05,406.05 345.40,406.86 345.75,406.28 346.10,406.09 346.45,404.89 346.80,403.81 347.15,402.75 347.50,401.96 347.85,400.61 348.20,401.18 348.55,400.60 348.90,398.19 349.25,397.74 349.60,396.69 349.95,397.67 350.30,395.37 350.65,395.63 351.00,397.39 351.35,396.48 351.70,395.60 352.05,394.73 352.40,395.34 352.75,395.06 353.10,394.63 353.45,393.35 353.80,393.42 354.15,392.12 354.50,390.77 354.85,392.27 355.20,393.42 355.55,392.66 355.90,390.18 356.25,388.85 356.60,386.76 356.95,388.30 357.30,388.04 357.65,389.96 358.00,389.75 358.35,389.79 358.70,391.69 359.05,390.62 359.40,391.25 359.75,392.59 360.10,391.57 360.45,393.88 360.80,392.89 361.15,392.51 361.50,393.18 361.85,390.70 362.20,391.44 362.55,391.84 362.90,393.70 363.25,394.97 363.60,394.61 363.95,394.89 364.30,395.43 364.65,393.27 365.00,392.97 365.35,389.46 365.70,390.51 366.05,388.35 366.40,388.27 366.75,388.71 367.10,388.39 367.45,388.78 367.80,390.31 368.15,393.69 368.50,394.72 368.85,395.79 369.20,396.00 369.55,396.87 369.90,396.63 370.25,394.44 370.60,392.39 370.95,390.80 371.30,389.22 371.65,387.05 372.00,385.75 372.35,387.15 372.70,385.71 373.05,383.83 373.40,384.97 373.75,383.55 374.10,382.62 374.45,380.44 374.80,380.39 375.15,382.64 375.50,382.08 375.85,381.28 376.20,379.54 376.55,379.24 376.90,378.51 377.25,379.71 377.60,378.61 377.95,377.48 378.30,377.09 378.65,375.15 379.00,377.93 379.35,379.41 379.70,378.75 380.05,377.57 380.40,375.81 380.75,373.74 381.10,370.63 381.45,369.77 381.80,371.57 382.15,369.26 382.50,370.65 382.85,369.78 383.20,370.49 383.55,369.13 383.90,368.13 384.25,364.29 384.60,364.68 384.95,364.39 385.30,363.55 385.65,361.19 386.00,359.95 386.35,361.41 386.70,362.34 387.05,361.10 387.40,361.81 387.75,362.57 388.10,361.51 388.45,361.96 388.80,364.25 389.15,363.95 389.50,364.44 389.85,365.10 390.20,365.85 390.55,368.59 390.90,366.41 391.25,365.64 391.60,365.33 391.95,366.93 392.30,365.45 392.65,362.60 393.00,359.44 393.35,358.27 393.70,358.44 394.05,360.19 394.40,360.60 394.75,361.72 395.10,364.17 395.45,359.33 395.80,359.04 396.15,355.68 396.50,359.93 396.85,359.11 397.20,357.80 397.55,358.09 397.90,359.28 398.25,361.06 398.60,363.59 398.95,363.53 399.30,362.53 399.65,363.42 400.00,364.40 400.35,363.99 400.70,362.72 401.05,360.63 401.40,360.62 401.75,359.50 402.10,356.45 402.45,354.02 402.80,355.37 403.15,352.45 403.50,350.16 403.85,350.38 404.20,350.59 404.55,348.39 404.90,344.51 405.25,345.48 405.60,343.56 405.95,341.43 406.30,342.09 406.65,343.24 407.00,340.69 407.35,341.10 407.70,339.31 408.05,342.21 408.40,345.33 408.75,343.74 409.10,342.14 409.45,338.71 409.80,338.62 410.15,339.58 410.50,344.99 410.85,344.40 411.20,340.53 411.55,342.60 411.90,344.72 412.25,343.81 412.60,344.85 412.95,345.88 413.30,347.01 413.65,345.94 414.00,345.79 414.35,344.04 414.70,346.07 415.05,342.77 415.40,343.27 415.75,343.70 416.10,339.83 416.45,333.43 416.80,330.83 417.15,331.24 417.50,328.85 417.85,326.84 418.20,328.68 418.55,332.36 418.90,330.85 419.25,327.97 419.60,328.38 419.95,325.62 420.30,322.57 420.65,319.09 421.00,320.17 421.35,318.77 421.70,318.40 422.05,313.55 422.40,312.16 422.75,313.51 423.10,312.36 423.45,309.48 423.80,307.69 424.15,308.51 424.50,307.74 424.85,307.97 425.20,306.04 425.55,304.88 425.90,307.39 426.25,305.60 426.60,302.68 426.95,303.69 427.30,303.15 427.65,299.57 428.00,297.52 428.35,299.20 428.70,299.97 429.05,302.33 429.40,304.63 429.75,297.99 430.10,300.47 430.45,301.98 430.80,305.12 431.15,310.62 431.50,307.96 431.85,310.33 432.20,310.72 432.55,309.65 432.90,312.23 433.25,316.90 433.60,315.39 433.95,316.12 434.30,316.45 434.65,317.61 435.00,321.14 435.35,320.52 435.70,320.65 436.05,322.63 436.40,324.82 436.75,325.01 437.10,322.14 437.45,324.34 437.80,321.88 438.15,318.41 438.50,316.14 438.85,318.03 439.20,318.85 439.55,321.28 439.90,318.64 440.25,317.93 440.60,316.21 440.95,315.86 441.30,314.99 441.65,317.72 442.00,320.48 442.35,319.48 442.70,320.34 443.05,314.17 443.40,315.21 443.75,312.97 444.10,313.52 444.45,311.62 444.80,310.36 445.15,307.10 445.50,309.57 445.85,308.58 446.20,304.46 446.55,308.51 446.90,311.57 447.25,305.13 447.60,301.46 447.95,298.06 448.30,294.64 448.65,291.58 449.00,295.60 449.35,295.84 449.70,299.90 450.05,302.15 450.40,298.31 450.75,300.98 451.10,300.94 451.45,304.32 451.80,298.11 452.15,296.26 452.50,299.25 452.85,300.31 453.20,300.96 453.55,296.60 453.90,294.85 454.25,294.86 454.60,297.70 454.95,300.25 455.30,301.63 455.65,303.90 456.00,303.76 456.35,304.49 456.70,302.12 457.05,300.20 457.40,299.39 457.75,301.58 458.10,303.62 458.45,306.11 458.80,312.62 459.15,313.49 459.50,316.96 459.85,319.93 460.20,314.88 460.55,321.80 460.90,325.88 461.25,325.03 461.60,324.25 461.95,326.55 462.30,326.78 462.65,329.77 463.00,324.33 463.35,328.46 463.70,330.54 464.05,332.78 464.40,328.22 464.75,325.01 465.10,321.25 465.45,321.29 465.80,317.03 466.15,318.30 466.50,316.31 466.85,318.05 467.20,314.71 467.55,314.53 467.90,316.64 468.25,317.34 468.60,318.82 468.95,320.91 469.30,320.51 469.65,321.43 470.00,317.98 470.35,321.02 470.70,321.75 471.05,324.19 471.40,325.16 471.75,325.31 472.10,323.85 472.45,320.68 472.80,314.16 473.15,312.17 473.50,316.73 473.85,314.27 474.20,315.07 474.55,315.29 474.90,321.19 475.25,320.31 475.60,326.27 475.95,328.93 476.30,324.81 476.65,322.19 477.00,322.05 477.35,324.11 477.70,323.41 478.05,323.91 478.40,323.84 478.75,326.64 479.10,324.39 479.45,321.04 479.80,314.89 480.15,318.44 480.50,315.38 480.85,312.33 481.20,312.35 481.55,311.81 481.90,311.16 482.25,307.20 482.60,300.54 482.95,299.51 483.30,299.13 483.65,301.90 484.00,299.36 484.35,299.10 484.70,299.28 485.05,301.20 485.40,302.10 485.75,303.81 486.10,301.73 486.45,301.38 486.80,295.84 487.15,295.22 487.50,293.84 487.85,292.18 488.20,294.12 488.55,296.57 488.90,292.80 489.25,294.93 489.60,290.82 489.95,288.75 490.30,289.40 490.65,293.05 491.00,291.19 491.35,290.98 491.70,289.72 492.05,287.31 492.40,288.45 492.75,283.83 493.10,285.44 493.45,287.09 493.80,285.31 494.15,286.30 494.50,284.97 494.85,283.04 495.20,281.25 495.55,283.46 495.90,287.41 496.25,289.95 496.60,286.21 496.95,283.25 497.30,281.10 497.65,278.85 498.00,277.51 498.35,273.02 498.70,272.40 499.05,270.91 499.40,268.60 499.75,271.23 500.10,273.06 500.45,273.53 500.80,277.01 501.15,276.95 501.50,282.73 501.85,281.20 502.20,288.13 502.55,284.15 502.90,286.15 503.25,282.05 503.60,288.12 503.95,287.29 504.30,281.63 504.65,279.84 505.00,280.81 505.35,282.48 505.70,278.57 506.05,278.98 506.40,278.80 506.75,280.49 507.10,278.93 507.45,274.46 507.80,274.79 508.15,274.07 508.50,273.23 508.85,281.02 509.20,286.13 509.55,284.32 509.90,281.18 510.25,282.51 510.60,284.03 510.95,284.12 511.30,284.48 511.65,278.52 512.00,273.15 512.35,277.34 512.70,273.96 513.05,277.02 513.40,278.24 513.75,270.69 514.10,268.09 514.45,268.99 514.80,263.50 515.15,262.68 515.50,264.42 515.85,259.84 516.20,263.38 516.55,263.55 516.90,260.32 517.25,254.70 517.60,252.24 517.95,248.95 518.30,253.39 518.65,255.00 519.00,256.01 519.35,254.61 519.70,254.26 520.05,255.54 520.40,256.08 520.75,257.80 521.10,255.40 521.45,254.89 521.80,253.23 522.15,253.62 522.50,255.59 522.85,253.70 523.20,254.41 523.55,257.07 523.90,263.35 524.25,257.84 524.60,255.35 524.95,254.82 525.30,246.48 525.65,247.29 526.00,241.24 526.35,247.30 526.70,247.51 527.05,245.72 527.40,244.42 527.75,238.96 528.10,240.48 528.45,238.57 528.80,234.41 529.15,235.58 529.50,233.30 529.85,226.48 530.20,226.49 530.55,223.76 530.90,224.72 531.25,228.80 531.60,231.01 531.95,229.46 532.30,223.04 532.65,221.72 533.00,218.03 533.35,219.07 533.70,219.29 534.05,219.48 534.40,226.23 534.75,223.79 535.10,228.96 535.45,230.92 535.80,229.52 536.15,230.40 536.50,230.51 536.85,224.81 537.20,227.75 537.55,222.94 537.90,224.23 538.25,224.00 538.60,222.86 538.95,221.59 539.30,224.48 539.65,229.11 540.00,224.00 540.35,226.59 540.70,222.66 541.05,222.30 541.40,215.60 541.75,220.73 542.10,224.17 542.45,221.77 542.80,214.34 543.15,211.60 543.50,211.99 543.85,210.30 544.20,201.31 544.55,201.80 544.90,201.28 545.25,206.45 545.60,197.90 545.95,192.53 546.30,189.06 546.65,192.80 547.00,193.34 547.35,188.79 547.70,195.08 548.05,197.51 548.40,200.04 548.75,195.38 549.10,193.11 549.45,188.66 549.80,195.74 550.15,190.94 550.50,197.79 550.85,199.24 551.20,194.69 551.55,201.06 551.90,202.88 552.25,205.79 552.60,205.52 552.95,201.18 553.30,201.40 553.65,200.23 554.00,198.47 554.35,197.02 554.70,198.22 555.05,200.46 555.40,202.66 555.75,204.35 556.10,197.17 556.45,202.27 556.80,205.13 557.15,206.29 557.50,214.94 557.85,215.00 558.20,213.32 558.55,219.93 558.90,213.12 559.25,212.53 559.60,213.48 559.95,209.59 560.30,204.94 560.65,203.57 561.00,201.24 561.35,201.22 561.70,199.08 562.05,194.09 562.40,194.59 562.75,191.80 563.10,193.48 563.45,190.91 563.80,196.01 564.15,193.86 564.50,185.68 564.85,176.90 565.20,178.63 565.55,177.51 565.90,173.29 566.25,175.41 566.60,166.97 566.95,168.86 567.30,165.20 567.65,164.40 568.00,160.55 568.35,155.91 568.70,147.67 569.05,145.49 569.40,146.40 569.75,141.68 570.10,139.15 570.45,136.23 570.80,139.73 571.15,142.91 571.50,140.04 571.85,139.18 572.20,138.43 572.55,140.88 572.90,137.68 573.25,134.25 573.60,127.84 573.95,124.78 574.30,117.11 574.65,115.93 575.00,123.60 575.35,121.53 575.70,113.13 576.05,114.21 576.40,109.84 576.75,108.15 577.10,105.27 577.45,106.05 577.80,103.80 578.15,102.28 578.50,93.80 578.85,102.28 579.20,95.52 579.55,101.50 579.90,94.38 580.25,95.10 580.60,92.73 580.95,94.58 581.30,100.29 581.65,99.05 582.00,98.58 582.35,99.88 582.70,95.26 583.05,97.92 583.40,101.83 583.75,106.45 584.10,107.07 584.45,99.63 584.80,109.58 585.15,105.60 585.50,104.55 585.85,102.80 586.20,102.31 586.55,97.42 586.90,97.07 587.25,102.67 587.60,102.73 587.95,109.17 588.30,114.47 588.65,109.66 589.00,107.97 589.35,96.63 589.70,86.15 590.05,86.78 590.40,88.27 590.75,86.63 591.10,96.29 591.45,99.68 591.80,102.74 592.15,102.31 592.50,103.76 592.85,105.29 593.20,107.73 593.55,111.75 593.90,110.72 594.25,105.99 594.60,104.04 594.95,100.96 595.30,107.07 595.65,114.35 596.00,112.11 596.35,106.60 596.70,100.55 597.05,104.20 597.40,102.55 597.75,105.19 598.10,107.50 598.45,108.94 598.80,106.58 599.15,111.48 599.50,117.71 599.85,115.88 600.20,120.03 600.55,119.47 600.90,121.16 601.25,113.19 601.60,111.00 601.95,102.97 602.30,102.32 602.65,103.14 603.00,93.54 603.35,86.92 603.70,81.26 604.05,76.94 604.40,77.89 604.75,83.09 605.10,82.48 605.45,85.50 605.80,81.31 606.15,77.45 606.50,79.38 606.85,90.73 607.20,92.94 607.55,86.08 607.90,94.50 608.25,90.68 608.60,99.82 608.95,98.26 609.30,100.80 609.65,103.71 610.00,97.63 610.35,100.12 610.70,99.60 611.05,103.49 611.40,99.82 611.75,90.42 612.10,85.49 612.45,90.77 612.80,96.50 613.15,94.07 613.50,100.10 613.85,90.17 614.20,92.87 614.55,90.60 614.90,91.87 615.25,86.11 615.60,92.51 615.95,93.75 616.30,92.87 616.65,93.69 617.00,97.23 617.35,111.27 617.70,114.30 618.05,113.32 618.40,114.10 618.75,115.66 619.10,121.73 619.45,121.22 619.80,129.47 620.15,131.72 620.50,140.24 620.85,139.52 621.20,135.50 621.55,132.60 621.90,125.64 622.25,122.55 622.60,125.12 622.95,126.38 623.30,128.78 623.65,136.41 624.00,140.57 624.35,131.43 624.70,133.47 625.05,138.74 625.40,135.50 625.75,144.01 626.10,135.31 626.45,141.08 626.80,135.83 627.15,134.99 627.50,129.96 627.85,127.41 628.20,129.90 628.55,131.98 628.90,137.86 629.25,136.10 629.60,130.92 629.95,125.40 630.30,130.62 630.65,130.42 631.00,132.48 631.35,130.41 631.70,135.72 632.05,131.94 632.40,125.43 632.75,133.73 633.10,137.27 633.45,132.88 633.80,126.96 634.15,135.88 634.50,139.09 634.85,144.04 635.20,140.82 635.55,133.46 635.90,143.73 636.25,137.93 636.60,133.64 636.95,136.08 637.30,131.93 637.65,123.54 638.00,125.60 638.35,122.77 638.70,121.28 639.05,125.68 639.40,127.42 639.75,117.62 640.10,116.47 640.45,117.70 640.80,123.30 641.15,124.47 641.50,126.99 641.85,130.91 642.20,126.77 642.55,129.51 642.90,126.29 643.25,117.89 643.60,123.46 643.95,113.61 644.30,102.72 644.65,106.33 645.00,107.19 645.35,101.47 645.70,107.78 646.05,103.89 646.40,106.15 646.75,101.38 647.10,113.57 647.45,117.16 647.80,117.44 648.15,113.80 648.50,115.22 648.85,113.67 649.20,109.64 649.55,109.04 649.90,102.26 650.25,107.43 650.60,110.47 650.95,94.04 651.30,93.16 651.65,100.65 652.00,104.34 652.35,94.20 652.70,98.03 653.05,95.45 653.40,89.91 653.75,95.01 654.10,86.52 654.45,80.75 654.80,85.76 655.15,90.14 655.50,79.83 655.85,86.02 656.20,90.02 656.55,88.56 656.90,90.21 657.25,89.53 657.60,89.15 657.95,78.99 658.30,88.63 658.65,87.37 659.00,91.84 659.35,92.50 659.70,91.41 660.05,92.82 660.40,104.85 660.75,103.31 661.10,103.56 661.45,114.67 661.80,121.30 662.15,116.70 662.50,120.82 662.85,117.16 663.20,117.76 663.55,122.06 663.90,131.91 664.25,135.57 664.60,138.15 664.95,133.33 665.30,134.85 665.65,136.77 666.00,146.64 666.35,147.23 666.70,153.80 667.05,145.43 667.40,152.66 667.75,152.27 668.10,151.29 668.45,147.61 668.80,149.87 669.15,144.73 669.50,149.16 669.85,148.78 670.20,146.98 670.55,151.53 670.90,154.74 671.25,155.91 671.60,157.12 671.95,163.16 672.30,161.24 672.65,165.91 673.00,167.97 673.35,171.26 673.70,170.59 674.05,165.36 674.40,170.56 674.75,171.46 675.10,175.09 675.45,160.80 675.80,167.09 676.15,159.22 676.50,167.17 676.85,172.30 677.20,170.54 677.55,166.58 677.90,167.58 678.25,166.58 678.60,165.00 678.95,167.62 679.30,166.41 679.65,163.33 680.00,154.51 680.35,156.03 680.70,158.39 681.05,162.30 681.40,150.36 681.75,151.28 682.10,154.64 682.45,151.62 682.80,146.52 683.15,153.34 683.50,156.99 683.85,151.47 684.20,151.84 684.55,147.90 684.90,141.96 685.25,143.20 685.60,136.21 685.95,131.38 686.30,127.43 686.65,127.27 687.00,125.63 687.35,119.40 687.70,119.86 688.05,118.15 688.40,116.96 688.75,115.85 689.10,117.58 689.45,107.76 689.80,116.48 690.15,106.17 690.50,87.87 690.85,96.56 691.20,97.79 691.55,92.83 691.90,90.96 692.25,91.86 692.60,89.19 692.95,84.41 693.30,80.34 693.65,83.37 694.00,90.03 694.35,89.94 694.70,85.43 695.05,90.29 695.40,90.34 695.75,88.84 696.10,87.02 696.45,92.45 696.80,103.16 697.15,101.34 697.50,96.29 697.85,90.46 698.20,91.74 698.55,84.34 698.90,82.88 699.25,81.33 699.60,88.30 699.95,85.25 700.30,83.74 700.65,86.94 701.00,88.88 701.35,91.65 701.70,87.59 702.05,84.76 702.40,84.30 702.75,82.39 703.10,85.89 703.45,86.18 703.80,89.03 704.15,88.27 704.50,79.49 704.85,81.54 705.20,78.41 705.55,71.52 705.90,72.56 706.25,73.07 706.60,79.49 706.95,85.49 707.30,85.66 707.65,81.46 708.00,88.02 708.35,91.09 708.70,91.55 709.05,90.84 709.40,103.19 709.75,101.90 710.10,104.50 710.45,99.44 710.80,89.76 711.15,97.12 711.50,91.59 711.85,93.19 712.20,96.59 712.55,86.39 712.90,81.56 713.25,78.43 713.60,79.17 713.95,75.13 714.30,76.92 714.65,77.32 715.00,72.74 715.35,76.53 715.70,82.13 716.05,90.31 716.40,99.74 716.75,102.74 717.10,98.85 717.45,93.14 717.80,93.05 718.15,92.65 718.50,89.50 718.85,79.42 719.20,78.89 719.55,84.41 719.90,83.36 720.25,82.91 720.60,84.75 720.95,93.51 721.30,92.00 721.65,100.51 722.00,97.27 722.35,93.25 722.70,102.86 723.05,111.96 723.40,104.63 723.75,101.86 724.10,105.35 724.45,106.67 724.80,113.21 725.15,111.57 725.50,120.31 725.85,117.78 726.20,117.46 726.55,116.97 726.90,116.23 727.25,116.25 727.60,121.97 727.95,117.60 728.30,130.51 728.65,127.84 729.00,130.52 729.35,135.54 729.70,134.71 730.05,139.60 730.40,127.95 730.75,126.90 731.10,124.94 731.45,126.45 731.80,123.98 732.15,119.31 732.50,120.54 732.85,120.52 733.20,113.45 733.55,101.20 733.90,99.29 734.25,104.74 734.60,109.05 734.95,105.35 735.30,107.96 735.65,102.40 736.00,102.07 736.35,105.39 736.70,102.91 737.05,101.27 737.40,100.07 737.75,101.99 738.10,103.86 738.45,98.82 738.80,84.26 739.15,78.77 739.50,78.47 739.85,85.13 740.20,82.32 740.55,87.12 740.90,93.80 741.25,86.18 741.60,97.88 741.95,98.78 742.30,102.82 742.65,106.76 743.00,103.42 743.35,103.44 743.70,103.92 744.05,106.33 744.40,104.08 744.75,112.97 745.10,115.40 745.45,116.27 745.80,118.38 746.15,128.75 746.50,126.81 746.85,138.94 747.20,141.36 747.55,141.09 747.90,152.84 748.25,159.22 748.60,164.45 748.95,167.29 749.30,160.23 749.65,150.06 750.00,151.96 750.35,153.39 750.70,156.37 751.05,155.25 751.40,154.92 751.75,155.07 752.10,153.09 752.45,151.54 752.80,156.04 753.15,160.88 753.50,160.69 753.85,166.42 754.20,168.46 754.55,173.92 754.90,172.18 755.25,175.88 755.60,175.19 755.95,184.24 756.30,182.21 756.65,182.75 757.00,184.66 757.35,179.79 757.70,182.11 758.05,175.73 758.40,174.84 758.75,173.38 759.10,174.97 759.45,185.66 759.80,185.08 760.15,185.26 760.50,183.37 760.85,189.20 761.20,192.15 761.55,188.40 761.90,200.31 762.25,205.49 762.60,214.49 762.95,216.02 763.30,218.74 763.65,219.07 764.00,209.12 764.35,200.82 764.70,196.59 765.05,197.19 765.40,196.78 765.75,192.58 766.10,179.02 766.45,174.63 766.80,171.58 767.15,177.28 767.50,177.82 767.85,175.06 768.20,177.16 768.55,187.13 768.90,183.12 769.25,173.40 769.60,175.26 769.95,175.52 770.30,165.49 770.65,158.96 771.00,160.28 771.35,161.43 771.70,160.24 772.05,175.36 772.40,171.84 772.75,175.11 773.10,170.96 773.45,175.45 773.80,162.99 774.15,163.62 774.50,165.81 774.85,168.82 775.20,168.85 775.55,169.48 775.90,167.88 776.25,177.04 776.60,172.14 776.95,173.27 777.30,170.11 777.65,172.54 778.00,171.24 778.35,164.93 778.70,166.70 779.05,162.60 779.40,167.86 779.75,168.87 780.10,161.86 780.45,161.37 780.80,167.97 781.15,174.04 781.50,170.86 781.85,167.63 782.20,166.51 782.55,172.11 782.90,173.91 783.25,173.39 783.60,168.94 783.95,168.34 784.30,167.05 784.65,161.81 785.00,152.27"/>
<line x1="813" y1="54" x2="839" y2="54" stroke="#2563eb" stroke-width="3"/>
<text x="847" y="58" font-family="Arial" font-size="13" fill="#111827">low volatility</text>
<polyline fill="none" stroke="#dc2626" stroke-width="2" points="85.00,422.02 85.35,421.99 85.70,421.96 86.05,421.94 86.40,421.89 86.75,421.81 87.10,421.66 87.45,421.56 87.80,421.51 88.15,421.48 88.50,421.57 88.85,421.72 89.20,421.83 89.55,421.91 89.90,422.01 90.25,421.92 90.60,421.80 90.95,421.68 91.30,421.67 91.65,421.71 92.00,421.73 92.35,421.64 92.70,421.61 93.05,421.61 93.40,421.69 93.75,421.53 94.10,421.59 94.45,421.66 94.80,421.67 95.15,421.70 95.50,421.68 95.85,421.69 96.20,421.70 96.55,421.64 96.90,421.54 97.25,421.59 97.60,421.44 97.95,421.32 98.30,421.33 98.65,421.44 99.00,421.51 99.35,421.46 99.70,421.22 100.05,421.01 100.40,421.16 100.75,421.44 101.10,421.96 101.45,422.08 101.80,422.25 102.15,422.29 102.50,422.77 102.85,422.81 103.20,422.61 103.55,422.54 103.90,422.37 104.25,422.20 104.60,421.98 104.95,421.87 105.30,422.04 105.65,422.10 106.00,422.19 106.35,422.07 106.70,422.38 107.05,422.49 107.40,422.52 107.75,422.55 108.10,422.47 108.45,422.40 108.80,422.34 109.15,422.36 109.50,422.34 109.85,422.20 110.20,422.21 110.55,422.16 110.90,422.02 111.25,421.98 111.60,422.06 111.95,422.10 112.30,422.15 112.65,422.55 113.00,422.57 113.35,422.30 113.70,422.26 114.05,422.32 114.40,422.09 114.75,421.97 115.10,421.97 115.45,422.04 115.80,421.93 116.15,422.00 116.50,422.07 116.85,421.96 117.20,422.11 117.55,422.09 117.90,422.25 118.25,422.33 118.60,422.29 118.95,422.27 119.30,422.23 119.65,422.22 120.00,422.21 120.35,422.07 120.70,422.18 121.05,422.01 121.40,422.04 121.75,422.19 122.10,421.88 122.45,421.62 122.80,421.39 123.15,421.50 123.50,421.75 123.85,421.38 124.20,421.52 124.55,421.66 124.90,421.65 125.25,421.35 125.60,421.62 125.95,421.41 126.30,421.01 126.65,421.00 127.00,421.14 127.35,421.43 127.70,422.49 128.05,423.78 128.40,424.15 128.75,424.14 129.10,423.63 129.45,423.34 129.80,423.20 130.15,423.33 130.50,423.53 130.85,423.29 131.20,423.49 131.55,423.51 131.90,423.73 132.25,424.23 132.60,424.00 132.95,423.86 133.30,423.71 133.65,423.38 134.00,423.56 134.35,423.63 134.70,423.48 135.05,423.25 135.40,423.22 135.75,423.19 136.10,423.19 136.45,423.00 136.80,423.16 137.15,423.11 137.50,423.08 137.85,423.15 138.20,422.92 138.55,422.93 138.90,422.42 139.25,422.81 139.60,423.07 139.95,423.15 140.30,423.26 140.65,423.11 141.00,422.92 141.35,423.07 141.70,422.51 142.05,422.26 142.40,422.33 142.75,421.68 143.10,421.70 143.45,421.60 143.80,421.20 144.15,421.48 144.50,420.56 144.85,420.41 145.20,419.71 145.55,420.74 145.90,420.44 146.25,420.58 146.60,420.18 146.95,420.65 147.30,420.80 147.65,420.83 148.00,420.94 148.35,420.83 148.70,420.85 149.05,420.85 149.40,422.16 149.75,422.05 150.10,421.18 150.45,421.34 150.80,421.57 151.15,421.20 151.50,421.02 151.85,420.23 152.20,420.00 152.55,420.58 152.90,420.64 153.25,421.32 153.60,421.33 153.95,421.59 154.30,421.57 154.65,421.41 155.00,421.45 155.35,419.56 155.70,421.23 156.05,421.09 156.40,420.84 156.75,421.43 157.10,420.42 157.45,420.32 157.80,420.58 158.15,420.20 158.50,419.63 158.85,419.42 159.20,419.57 159.55,420.12 159.90,420.86 160.25,418.75 160.60,417.94 160.95,418.92 161.30,419.21 161.65,418.49 162.00,417.80 162.35,417.00 162.70,417.30 163.05,417.65 163.40,418.54 163.75,420.07 164.10,420.70 164.45,419.80 164.80,419.76 165.15,420.66 165.50,422.14 165.85,422.87 166.20,422.93 166.55,422.20 166.90,420.57 167.25,420.50 167.60,419.44 167.95,419.01 168.30,420.66 168.65,422.44 169.00,423.19 169.35,423.77 169.70,425.55 170.05,424.51 170.40,423.45 170.75,422.84 171.10,423.17 171.45,423.42 171.80,423.81 172.15,423.96 172.50,424.08 172.85,424.34 173.20,424.55 173.55,424.61 173.90,424.36 174.25,424.61 174.60,424.72 174.95,425.42 175.30,424.91 175.65,424.80 176.00,425.31 176.35,425.34 176.70,425.16 177.05,425.58 177.40,425.66 177.75,425.40 178.10,425.35 178.45,424.88 178.80,424.63 179.15,424.52 179.50,424.45 179.85,424.32 180.20,424.24 180.55,424.35 180.90,424.27 181.25,424.20 181.60,424.09 181.95,424.10 182.30,424.08 182.65,423.92 183.00,423.78 183.35,423.52 183.70,423.41 184.05,423.65 184.40,423.75 184.75,423.47 185.10,423.63 185.45,422.77 185.80,422.42 186.15,423.17 186.50,423.26 186.85,423.15 187.20,422.88 187.55,422.37 187.90,422.55 188.25,422.62 188.60,423.05 188.95,422.52 189.30,423.00 189.65,422.58 190.00,421.78 190.35,421.78 190.70,421.94 191.05,422.24 191.40,421.88 191.75,420.67 192.10,420.06 192.45,420.95 192.80,420.29 193.15,419.85 193.50,418.63 193.85,419.09 194.20,419.88 194.55,419.52 194.90,419.23 195.25,419.02 195.60,418.56 195.95,418.62 196.30,418.83 196.65,418.78 197.00,419.08 197.35,418.36 197.70,418.79 198.05,419.26 198.40,416.86 198.75,418.43 199.10,417.93 199.45,419.48 199.80,417.91 200.15,416.88 200.50,417.29 200.85,418.06 201.20,416.97 201.55,419.03 201.90,419.05 202.25,419.69 202.60,421.62 202.95,419.23 203.30,417.77 203.65,416.17 204.00,414.92 204.35,417.32 204.70,416.47 205.05,414.85 205.40,416.29 205.75,416.42 206.10,417.46 206.45,417.91 206.80,417.74 207.15,415.24 207.50,413.11 207.85,412.02 208.20,410.72 208.55,407.49 208.90,406.88 209.25,407.23 209.60,405.23 209.95,408.69 210.30,409.85 210.65,410.52 211.00,408.84 211.35,405.32 211.70,405.46 212.05,403.78 212.40,405.16 212.75,407.34 213.10,407.64 213.45,407.47 213.80,407.62 214.15,410.46 214.50,410.67 214.85,410.72 215.20,411.68 215.55,409.08 215.90,409.17 216.25,408.85 216.60,408.38 216.95,408.36 217.30,409.40 217.65,410.04 218.00,407.06 218.35,409.18 218.70,410.02 219.05,411.58 219.40,410.60 219.75,407.13 220.10,410.98 220.45,406.87 220.80,407.06 221.15,405.37 221.50,404.92 221.85,403.41 222.20,406.07 222.55,407.92 222.90,406.29 223.25,404.47 223.60,405.51 223.95,402.14 224.30,403.89 224.65,406.51 225.00,405.47 225.35,407.14 225.70,406.01 226.05,405.22 226.40,402.42 226.75,402.42 227.10,402.53 227.45,404.20 227.80,404.33 228.15,408.10 228.50,405.96 228.85,407.31 229.20,408.06 229.55,409.50 229.90,411.17 230.25,413.37 230.60,414.30 230.95,411.04 231.30,413.11 231.65,414.07 232.00,414.41 232.35,417.87 232.70,419.17 233.05,418.26 233.40,418.15 233.75,421.48 234.10,421.31 234.45,425.51 234.80,423.63 235.15,422.95 235.50,426.25 235.85,425.94 236.20,426.59 236.55,425.51 236.90,425.29 237.25,422.49 237.60,421.41 237.95,420.63 238.30,421.44 238.65,422.14 239.00,422.59 239.35,420.92 239.70,420.78 240.05,421.44 240.40,421.80 240.75,421.13 241.10,423.24 241.45,423.74 241.80,424.37 242.15,425.33 242.50,422.77 242.85,421.57 243.20,420.41 243.55,418.26 243.90,417.32 244.25,414.94 244.60,415.07 244.95,412.58 245.30,411.79 245.65,413.17 246.00,413.80 246.35,415.03 246.70,415.44 247.05,417.13 247.40,416.84 247.75,416.53 248.10,415.15 248.45,415.31 248.80,413.92 249.15,412.39 249.50,410.19 249.85,410.26 250.20,408.22 250.55,409.07 250.90,408.84 251.25,408.71 251.60,405.96 251.95,405.25 252.30,403.02 252.65,402.11 253.00,402.21 253.35,400.44 253.70,399.36 254.05,398.86 254.40,397.55 254.75,398.55 255.10,396.26 255.45,395.06 255.80,393.85 256.15,392.55 256.50,393.74 256.85,391.62 257.20,392.60 257.55,393.41 257.90,390.55 258.25,387.39 258.60,388.04 258.95,387.44 259.30,385.26 259.65,386.68 260.00,385.34 260.35,381.96 260.70,381.38 261.05,382.91 261.40,379.47 261.75,381.39 262.10,375.92 262.45,379.25 262.80,375.59 263.15,372.54 263.50,372.44 263.85,375.11 264.20,377.68 264.55,378.65 264.90,380.14 265.25,385.31 265.60,385.34 265.95,385.34 266.30,387.55 266.65,388.33 267.00,387.63 267.35,392.12 267.70,390.39 268.05,388.84 268.40,392.65 268.75,389.16 269.10,389.90 269.45,390.62 269.80,392.48 270.15,393.55 270.50,392.75 270.85,393.26 271.20,392.56 271.55,395.62 271.90,395.70 272.25,394.21 272.60,391.93 272.95,389.14 273.30,389.51 273.65,389.28 274.00,387.01 274.35,389.05 274.70,389.27 275.05,387.84 275.40,383.56 275.75,386.87 276.10,388.02 276.45,391.62 276.80,392.30 277.15,394.04 277.50,395.99 277.85,395.47 278.20,393.39 278.55,393.38 278.90,392.91 279.25,391.96 279.60,392.58 279.95,394.63 280.30,392.02 280.65,392.25 281.00,393.08 281.35,393.03 281.70,390.97 282.05,391.74 282.40,392.10 282.75,391.59 283.10,389.61 283.45,389.19 283.80,389.92 284.15,389.56 284.50,388.56 284.85,386.59 285.20,385.90 285.55,385.47 285.90,385.59 286.25,387.11 286.60,387.57 286.95,389.45 287.30,387.37 287.65,386.37 288.00,385.67 288.35,387.58 288.70,389.23 289.05,386.92 289.40,386.16 289.75,384.91 290.10,383.63 290.45,384.86 290.80,386.15 291.15,381.85 291.50,378.25 291.85,379.13 292.20,379.18 292.55,377.18 292.90,377.24 293.25,377.01 293.60,379.04 293.95,378.83 294.30,380.01 294.65,382.12 295.00,382.49 295.35,378.79 295.70,380.61 296.05,382.76 296.40,379.76 296.75,384.46 297.10,384.61 297.45,383.39 297.80,384.86 298.15,386.55 298.50,386.88 298.85,387.42 299.20,386.22 299.55,380.83 299.90,382.64 300.25,381.76 300.60,383.45 300.95,381.31 301.30,381.48 301.65,380.54 302.00,377.81 302.35,379.09 302.70,379.14 303.05,378.47 303.40,376.13 303.75,374.08 304.10,374.40 304.45,377.36 304.80,378.66 305.15,378.37 305.50,379.35 305.85,379.50 306.20,381.01 306.55,377.35 306.90,377.96 307.25,381.47 307.60,380.42 307.95,383.14 308.30,383.37 308.65,385.32 309.00,385.89 309.35,385.56 309.70,387.14 310.05,387.65 310.40,390.49 310.75,389.49 311.10,389.87 311.45,393.02 311.80,391.14 312.15,391.04 312.50,392.03 312.85,392.09 313.20,393.80 313.55,391.65 313.90,389.50 314.25,390.93 314.60,387.26 314.95,388.21 315.30,389.47 315.65,390.17 316.00,387.24 316.35,386.25 316.70,385.35 317.05,382.99 317.40,382.91 317.75,386.38 318.10,383.19 318.45,380.63 318.80,379.06 319.15,378.51 319.50,376.96 319.85,374.44 320.20,375.49 320.55,373.96 320.90,372.89 321.25,372.59 321.60,374.32 321.95,375.67 322.30,376.73 322.65,372.14 323.00,373.68 323.35,373.17 323.70,375.50 324.05,374.62 324.40,374.46 324.75,375.22 325.10,374.80 325.45,375.65 325.80,375.22 326.15,372.46 326.50,371.77 326.85,369.54 327.20,369.65 327.55,368.42 327.90,371.32 328.25,371.34 328.60,372.56 328.95,372.20 329.30,372.90 329.65,373.82 330.00,373.16 330.35,374.65 330.70,377.02 331.05,377.46 331.40,373.47 331.75,374.27 332.10,374.78 332.45,370.91 332.80,371.05 333.15,369.55 333.50,363.00 333.85,360.97 334.20,359.10 334.55,361.50 334.90,358.93 335.25,361.27 335.60,357.59 335.95,357.84 336.30,360.41 336.65,360.75 337.00,360.52 337.35,359.99 337.70,360.25 338.05,359.19 338.40,358.13 338.75,363.31 339.10,359.67 339.45,357.34 339.80,355.31 340.15,354.34 340.50,354.43 340.85,355.77 341.20,355.24 341.55,351.65 341.90,354.37 342.25,359.85 342.60,353.69 342.95,348.25 343.30,346.65 343.65,350.46 344.00,350.04 344.35,349.78 344.70,350.29 345.05,351.38 345.40,351.80 345.75,347.29 346.10,348.19 346.45,348.41 346.80,345.49 347.15,339.80 347.50,340.48 347.85,341.71 348.20,336.77 348.55,340.73 348.90,335.65 349.25,331.66 349.60,328.60 349.95,326.08 350.30,321.83 350.65,319.42 351.00,319.62 351.35,318.93 351.70,316.33 352.05,309.77 352.40,308.05 352.75,307.92 353.10,304.65 353.45,305.23 353.80,301.60 354.15,306.33 354.50,300.44 354.85,295.08 355.20,295.46 355.55,298.00 355.90,299.83 356.25,312.92 356.60,316.41 356.95,313.90 357.30,308.74 357.65,313.93 358.00,313.30 358.35,315.61 358.70,315.29 359.05,309.87 359.40,308.83 359.75,306.26 360.10,311.10 360.45,309.78 360.80,310.08 361.15,310.14 361.50,312.48 361.85,310.71 362.20,313.91 362.55,308.73 362.90,309.93 363.25,315.41 363.60,314.57 363.95,311.76 364.30,309.21 364.65,313.85 365.00,317.78 365.35,319.19 365.70,320.13 366.05,326.48 366.40,330.53 366.75,328.11 367.10,332.81 367.45,333.97 367.80,335.25 368.15,340.42 368.50,338.87 368.85,336.47 369.20,328.88 369.55,323.46 369.90,321.28 370.25,321.34 370.60,319.70 370.95,322.35 371.30,313.98 371.65,308.30 372.00,308.16 372.35,305.97 372.70,305.62 373.05,308.92 373.40,311.59 373.75,312.82 374.10,310.42 374.45,312.97 374.80,314.24 375.15,313.10 375.50,310.05 375.85,308.31 376.20,304.20 376.55,303.02 376.90,301.79 377.25,303.06 377.60,300.70 377.95,301.02 378.30,300.71 378.65,302.38 379.00,304.71 379.35,301.36 379.70,307.18 380.05,305.68 380.40,301.55 380.75,300.28 381.10,301.21 381.45,300.32 381.80,300.03 382.15,302.48 382.50,302.43 382.85,302.25 383.20,299.60 383.55,302.76 383.90,301.49 384.25,304.00 384.60,305.37 384.95,308.48 385.30,307.42 385.65,307.80 386.00,307.88 386.35,307.49 386.70,309.60 387.05,306.65 387.40,305.88 387.75,305.85 388.10,305.72 388.45,310.55 388.80,311.92 389.15,310.92 389.50,311.75 389.85,308.57 390.20,308.08 390.55,310.94 390.90,312.14 391.25,310.61 391.60,313.79 391.95,315.87 392.30,313.54 392.65,311.65 393.00,310.13 393.35,309.88 393.70,312.84 394.05,317.87 394.40,312.59 394.75,313.55 395.10,310.67 395.45,313.32 395.80,312.32 396.15,309.12 396.50,310.79 396.85,312.33 397.20,314.04 397.55,312.97 397.90,317.13 398.25,318.12 398.60,318.10 398.95,316.98 399.30,316.97 399.65,315.32 400.00,314.29 400.35,312.85 400.70,311.95 401.05,313.66 401.40,312.00 401.75,311.41 402.10,310.43 402.45,309.44 402.80,308.23 403.15,307.91 403.50,307.34 403.85,309.72 404.20,311.50 404.55,311.36 404.90,308.91 405.25,307.94 405.60,311.32 405.95,308.10 406.30,306.99 406.65,308.31 407.00,306.11 407.35,305.71 407.70,306.48 408.05,310.59 408.40,311.56 408.75,311.41 409.10,315.56 409.45,315.92 409.80,317.15 410.15,318.11 410.50,318.28 410.85,317.76 411.20,318.03 411.55,317.00 411.90,317.87 412.25,316.65 412.60,315.39 412.95,314.72 413.30,315.11 413.65,316.48 414.00,316.01 414.35,315.23 414.70,316.34 415.05,315.75 415.40,317.22 415.75,316.04 416.10,315.26 416.45,313.73 416.80,313.37 417.15,311.97 417.50,313.06 417.85,314.48 418.20,316.01 418.55,315.58 418.90,316.23 419.25,316.90 419.60,318.17 419.95,319.45 420.30,319.78 420.65,319.95 421.00,320.40 421.35,320.85 421.70,320.32 422.05,321.26 422.40,322.73 422.75,322.66 423.10,322.98 423.45,322.83 423.80,322.83 424.15,322.54 424.50,323.24 424.85,322.73 425.20,323.17 425.55,323.20 425.90,322.06 426.25,322.21 426.60,321.52 426.95,321.18 427.30,320.67 427.65,320.87 428.00,321.04 428.35,321.15 428.70,321.36 429.05,321.69 429.40,320.67 429.75,320.32 430.10,319.89 430.45,319.72 430.80,319.45 431.15,319.39 431.50,319.35 431.85,319.23 432.20,319.11 432.55,318.89 432.90,318.80 433.25,318.75 433.60,318.74 433.95,318.66 434.30,318.62 434.65,318.56 435.00,318.49 435.35,318.63 435.70,318.62 436.05,318.43 436.40,318.39 436.75,318.60 437.10,318.61 437.45,318.42 437.80,318.56 438.15,318.46 438.50,318.43 438.85,318.48 439.20,318.52 439.55,318.43 439.90,318.42 440.25,318.30 440.60,318.31 440.95,318.21 441.30,318.14 441.65,318.11 442.00,318.19 442.35,317.91 442.70,317.54 443.05,317.16 443.40,316.79 443.75,316.28 444.10,316.52 444.45,316.82 444.80,316.10 445.15,316.62 445.50,316.36 445.85,316.13 446.20,315.94 446.55,315.83 446.90,316.68 447.25,316.21 447.60,316.63 447.95,315.81 448.30,315.64 448.65,317.01 449.00,316.98 449.35,316.55 449.70,314.85 450.05,313.83 450.40,313.11 450.75,313.93 451.10,314.61 451.45,312.56 451.80,312.72 452.15,312.58 452.50,313.74 452.85,313.14 453.20,311.49 453.55,310.79 453.90,310.40 454.25,309.79 454.60,308.41 454.95,306.91 455.30,306.96 455.65,306.61 456.00,307.06 456.35,306.62 456.70,304.94 457.05,303.93 457.40,303.90 457.75,304.14 458.10,302.22 458.45,302.01 458.80,304.09 459.15,303.07 459.50,303.72 459.85,301.26 460.20,299.52 460.55,299.47 460.90,300.87 461.25,302.08 461.60,302.31 461.95,302.81 462.30,300.33 462.65,302.30 463.00,304.77 463.35,304.51 463.70,304.17 464.05,306.92 464.40,305.95 464.75,306.10 465.10,305.59 465.45,306.48 465.80,306.24 466.15,308.31 466.50,306.40 466.85,305.36 467.20,306.12 467.55,304.58 467.90,302.65 468.25,302.25 468.60,304.69 468.95,302.57 469.30,300.77 469.65,298.22 470.00,298.23 470.35,298.47 470.70,296.32 471.05,294.60 471.40,294.13 471.75,296.77 472.10,297.67 472.45,299.90 472.80,299.46 473.15,298.04 473.50,297.50 473.85,298.64 474.20,298.18 474.55,298.82 474.90,294.46 475.25,294.34 475.60,292.24 475.95,295.61 476.30,295.39 476.65,295.53 477.00,294.73 477.35,293.24 477.70,294.18 478.05,294.75 478.40,293.48 478.75,297.98 479.10,298.56 479.45,298.77 479.80,297.54 480.15,300.12 480.50,303.01 480.85,300.53 481.20,301.84 481.55,302.59 481.90,302.98 482.25,303.61 482.60,302.36 482.95,298.67 483.30,296.50 483.65,293.65 484.00,293.31 484.35,292.68 484.70,291.72 485.05,292.95 485.40,294.99 485.75,294.83 486.10,292.89 486.45,291.20 486.80,294.13 487.15,293.24 487.50,295.44 487.85,291.84 488.20,292.34 488.55,291.95 488.90,291.24 489.25,288.89 489.60,288.98 489.95,288.05 490.30,287.42 490.65,284.28 491.00,284.78 491.35,288.16 491.70,291.51 492.05,292.66 492.40,294.49 492.75,293.81 493.10,295.87 493.45,294.05 493.80,296.48 494.15,294.70 494.50,294.44 494.85,289.48 495.20,286.87 495.55,285.30 495.90,286.31 496.25,287.67 496.60,288.00 496.95,292.20 497.30,292.95 497.65,292.36 498.00,292.24 498.35,289.70 498.70,293.37 499.05,291.51 499.40,288.24 499.75,289.77 500.10,291.53 500.45,295.04 500.80,297.67 501.15,296.78 501.50,299.22 501.85,302.66 502.20,304.08 502.55,301.71 502.90,302.54 503.25,302.27 503.60,301.48 503.95,302.31 504.30,305.71 504.65,304.76 505.00,301.32 505.35,299.38 505.70,299.75 506.05,300.07 506.40,296.86 506.75,297.00 507.10,296.18 507.45,295.95 507.80,294.79 508.15,296.35 508.50,299.92 508.85,297.10 509.20,294.52 509.55,294.58 509.90,296.43 510.25,298.77 510.60,297.12 510.95,294.27 511.30,293.33 511.65,289.61 512.00,291.27 512.35,290.70 512.70,289.26 513.05,286.83 513.40,286.83 513.75,285.03 514.10,288.04 514.45,291.01 514.80,289.06 515.15,288.33 515.50,290.70 515.85,290.00 516.20,292.68 516.55,292.90 516.90,290.70 517.25,290.29 517.60,287.29 517.95,289.07 518.30,290.18 518.65,290.01 519.00,292.65 519.35,286.75 519.70,286.70 520.05,291.35 520.40,294.47 520.75,295.85 521.10,293.51 521.45,294.61 521.80,294.36 522.15,295.29 522.50,293.30 522.85,292.50 523.20,292.07 523.55,291.38 523.90,292.41 524.25,294.03 524.60,296.72 524.95,295.36 525.30,294.17 525.65,293.28 526.00,293.14 526.35,294.35 526.70,293.32 527.05,291.65 527.40,290.54 527.75,290.43 528.10,290.04 528.45,290.49 528.80,294.31 529.15,295.80 529.50,298.50 529.85,298.61 530.20,299.36 530.55,301.02 530.90,299.45 531.25,296.13 531.60,295.70 531.95,295.07 532.30,293.79 532.65,295.69 533.00,297.31 533.35,297.83 533.70,301.08 534.05,301.11 534.40,301.40 534.75,301.72 535.10,303.77 535.45,301.38 535.80,300.93 536.15,303.17 536.50,303.00 536.85,302.71 537.20,302.12 537.55,302.77 537.90,303.45 538.25,302.67 538.60,301.86 538.95,301.66 539.30,300.78 539.65,301.60 540.00,301.71 540.35,301.61 540.70,300.46 541.05,300.80 541.40,302.50 541.75,301.83 542.10,302.48 542.45,302.93 542.80,303.73 543.15,303.52 543.50,304.11 543.85,303.77 544.20,302.70 544.55,301.77 544.90,300.73 545.25,300.77 545.60,301.57 545.95,300.71 546.30,300.62 546.65,301.09 547.00,300.56 547.35,300.34 547.70,300.15 548.05,298.85 548.40,299.09 548.75,298.25 549.10,297.97 549.45,298.25 549.80,297.31 550.15,296.36 550.50,295.97 550.85,295.27 551.20,296.07 551.55,296.42 551.90,296.26 552.25,295.20 552.60,295.76 552.95,296.10 553.30,295.74 553.65,294.32 554.00,293.16 554.35,293.37 554.70,293.21 555.05,292.61 555.40,293.87 555.75,292.43 556.10,294.17 556.45,291.09 556.80,290.47 557.15,291.03 557.50,292.63 557.85,295.08 558.20,294.23 558.55,293.81 558.90,292.57 559.25,294.53 559.60,294.93 559.95,296.39 560.30,295.18 560.65,294.78 561.00,295.17 561.35,294.84 561.70,296.62 562.05,295.50 562.40,298.78 562.75,298.68 563.10,299.78 563.45,300.69 563.80,299.67 564.15,301.58 564.50,300.22 564.85,299.86 565.20,301.12 565.55,302.28 565.90,301.20 566.25,300.73 566.60,302.89 566.95,303.81 567.30,302.87 567.65,301.83 568.00,302.47 568.35,302.57 568.70,304.33 569.05,304.43 569.40,304.72 569.75,304.66 570.10,303.70 570.45,303.19 570.80,302.31 571.15,301.39 571.50,301.92 571.85,302.92 572.20,302.10 572.55,303.22 572.90,303.66 573.25,303.90 573.60,303.91 573.95,303.46 574.30,302.29 574.65,302.66 575.00,301.84 575.35,301.89 575.70,302.09 576.05,301.66 576.40,301.73 576.75,301.15 577.10,301.68 577.45,302.09 577.80,301.85 578.15,301.71 578.50,301.15 578.85,300.85 579.20,300.93 579.55,300.37 579.90,299.72 580.25,300.01 580.60,299.99 580.95,300.32 581.30,300.61 581.65,300.06 582.00,300.25 582.35,300.35 582.70,299.81 583.05,300.35 583.40,300.03 583.75,299.53 584.10,298.72 584.45,297.39 584.80,297.03 585.15,296.30 585.50,296.31 585.85,294.37 586.20,293.94 586.55,292.84 586.90,291.15 587.25,288.97 587.60,288.10 587.95,289.00 588.30,289.39 588.65,288.61 589.00,289.51 589.35,289.39 589.70,287.53 590.05,289.37 590.40,288.79 590.75,289.92 591.10,290.18 591.45,286.51 591.80,287.06 592.15,288.91 592.50,286.45 592.85,284.28 593.20,283.63 593.55,284.35 593.90,285.42 594.25,285.46 594.60,286.15 594.95,286.97 595.30,287.87 595.65,285.71 596.00,285.43 596.35,284.22 596.70,285.49 597.05,287.97 597.40,290.92 597.75,292.85 598.10,291.62 598.45,287.85 598.80,289.78 599.15,290.09 599.50,288.28 599.85,285.64 600.20,288.58 600.55,288.01 600.90,285.65 601.25,283.60 601.60,282.01 601.95,283.36 602.30,282.47 602.65,279.56 603.00,279.90 603.35,280.74 603.70,283.78 604.05,288.04 604.40,287.97 604.75,286.57 605.10,288.92 605.45,289.17 605.80,287.54 606.15,285.34 606.50,287.26 606.85,287.04 607.20,290.55 607.55,292.92 607.90,294.55 608.25,295.03 608.60,297.60 608.95,296.27 609.30,292.62 609.65,295.01 610.00,298.30 610.35,298.40 610.70,297.45 611.05,298.69 611.40,300.67 611.75,301.20 612.10,299.26 612.45,295.61 612.80,293.28 613.15,292.62 613.50,292.12 613.85,292.66 614.20,295.15 614.55,296.95 614.90,297.47 615.25,296.91 615.60,293.93 615.95,293.72 616.30,295.01 616.65,293.35 617.00,294.77 617.35,294.66 617.70,296.72 618.05,300.86 618.40,303.05 618.75,304.55 619.10,304.36 619.45,304.73 619.80,306.62 620.15,308.82 620.50,308.56 620.85,308.27 621.20,307.44 621.55,307.90 621.90,308.68 622.25,310.36 622.60,310.70 622.95,307.15 623.30,305.30 623.65,305.41 624.00,305.54 624.35,305.73 624.70,306.97 625.05,307.20 625.40,306.54 625.75,307.12 626.10,308.71 626.45,306.37 626.80,306.48 627.15,305.20 627.50,303.68 627.85,303.34 628.20,302.65 628.55,301.56 628.90,302.56 629.25,301.23 629.60,302.11 629.95,301.65 630.30,301.19 630.65,301.05 631.00,300.52 631.35,303.45 631.70,302.26 632.05,304.43 632.40,305.17 632.75,304.57 633.10,304.60 633.45,303.20 633.80,301.93 634.15,304.53 634.50,303.81 634.85,302.64 635.20,305.57 635.55,307.94 635.90,306.70 636.25,307.34 636.60,307.01 636.95,306.15 637.30,304.76 637.65,305.43 638.00,306.90 638.35,307.45 638.70,307.96 639.05,308.49 639.40,309.32 639.75,309.51 640.10,307.99 640.45,307.74 640.80,307.13 641.15,307.73 641.50,306.02 641.85,306.05 642.20,307.46 642.55,307.29 642.90,307.57 643.25,309.08 643.60,309.53 643.95,308.84 644.30,309.18 644.65,309.18 645.00,309.25 645.35,308.68 645.70,308.93 646.05,309.14 646.40,308.93 646.75,309.50 647.10,309.12 647.45,309.11 647.80,309.42 648.15,308.89 648.50,308.93 648.85,309.09 649.20,308.90 649.55,308.87 649.90,308.86 650.25,308.75 650.60,308.52 650.95,308.27 651.30,308.12 651.65,308.20 652.00,308.17 652.35,308.15 652.70,308.05 653.05,307.98 653.40,307.97 653.75,307.97 654.10,308.04 654.45,308.08 654.80,308.10 655.15,308.04 655.50,307.98 655.85,308.05 656.20,307.81 656.55,307.91 656.90,307.98 657.25,307.72 657.60,307.41 657.95,306.80 658.30,306.68 658.65,306.90 659.00,307.05 659.35,306.77 659.70,306.11 660.05,306.63 660.40,306.66 660.75,307.03 661.10,306.88 661.45,307.00 661.80,307.05 662.15,306.23 662.50,305.25 662.85,305.76 663.20,305.11 663.55,304.88 663.90,304.69 664.25,305.01 664.60,304.29 664.95,304.52 665.30,303.47 665.65,302.21 666.00,301.74 666.35,301.42 666.70,301.31 667.05,301.68 667.40,301.49 667.75,301.24 668.10,301.96 668.45,300.21 668.80,299.12 669.15,298.06 669.50,297.90 669.85,298.05 670.20,298.59 670.55,299.01 670.90,298.57 671.25,296.76 671.60,296.87 671.95,297.55 672.30,296.63 672.65,297.58 673.00,296.53 673.35,294.19 673.70,292.53 674.05,292.83 674.40,291.75 674.75,291.66 675.10,290.56 675.45,290.11 675.80,291.31 676.15,292.72 676.50,292.14 676.85,294.69 677.20,294.19 677.55,295.70 677.90,295.81 678.25,298.48 678.60,299.68 678.95,297.44 679.30,297.65 679.65,298.10 680.00,298.13 680.35,296.66 680.70,295.89 681.05,296.86 681.40,297.48 681.75,299.18 682.10,298.05 682.45,297.86 682.80,301.34 683.15,303.08 683.50,301.52 683.85,298.37 684.20,298.15 684.55,296.54 684.90,294.98 685.25,293.72 685.60,295.57 685.95,295.35 686.30,296.27 686.65,295.35 687.00,295.79 687.35,294.79 687.70,293.76 688.05,297.12 688.40,299.70 688.75,297.44 689.10,300.42 689.45,302.90 689.80,301.99 690.15,299.83 690.50,302.07 690.85,301.01 691.20,298.10 691.55,298.27 691.90,297.71 692.25,298.63 692.60,297.65 692.95,296.73 693.30,299.33 693.65,301.94 694.00,298.62 694.35,299.39 694.70,297.92 695.05,299.76 695.40,298.17 695.75,296.74 696.10,298.61 696.45,301.81 696.80,302.86 697.15,304.21 697.50,303.34 697.85,302.64 698.20,304.06 698.55,302.87 698.90,304.85 699.25,301.93 699.60,302.00 699.95,302.17 700.30,304.16 700.65,304.58 701.00,303.75 701.35,301.76 701.70,300.82 702.05,299.20 702.40,300.37 702.75,300.79 703.10,302.74 703.45,303.15 703.80,299.84 704.15,296.94 704.50,299.20 704.85,298.11 705.20,301.39 705.55,300.85 705.90,302.86 706.25,304.41 706.60,304.91 706.95,304.20 707.30,305.82 707.65,306.52 708.00,306.78 708.35,305.43 708.70,306.82 709.05,308.62 709.40,307.44 709.75,306.74 710.10,307.76 710.45,307.13 710.80,308.01 711.15,309.05 711.50,309.73 711.85,310.12 712.20,310.06 712.55,310.96 712.90,311.25 713.25,310.60 713.60,310.15 713.95,310.26 714.30,309.79 714.65,310.22 715.00,309.70 715.35,310.11 715.70,308.67 716.05,309.52 716.40,309.34 716.75,308.27 717.10,307.96 717.45,307.65 717.80,308.23 718.15,308.26 718.50,308.26 718.85,307.61 719.20,307.27 719.55,306.97 719.90,306.60 720.25,306.84 720.60,306.61 720.95,307.03 721.30,306.86 721.65,306.82 722.00,306.27 722.35,306.26 722.70,306.14 723.05,305.59 723.40,304.96 723.75,305.22 724.10,306.08 724.45,305.73 724.80,304.53 725.15,305.05 725.50,304.97 725.85,305.12 726.20,304.42 726.55,303.97 726.90,303.82 727.25,304.51 727.60,304.03 727.95,302.89 728.30,302.22 728.65,301.40 729.00,302.63 729.35,303.62 729.70,304.06 730.05,304.12 730.40,303.64 730.75,302.54 731.10,302.43 731.45,303.54 731.80,303.71 732.15,305.81 732.50,304.58 732.85,305.59 733.20,305.47 733.55,305.93 733.90,304.54 734.25,303.59 734.60,302.85 734.95,302.16 735.30,300.41 735.65,301.67 736.00,302.74 736.35,302.00 736.70,302.13 737.05,302.55 737.40,303.22 737.75,303.20 738.10,303.00 738.45,303.33 738.80,304.14 739.15,306.05 739.50,306.63 739.85,306.35 740.20,306.75 740.55,306.57 740.90,306.63 741.25,307.22 741.60,306.94 741.95,306.30 742.30,306.61 742.65,307.02 743.00,306.49 743.35,306.50 743.70,306.62 744.05,306.47 744.40,306.93 744.75,306.08 745.10,305.55 745.45,305.96 745.80,306.11 746.15,305.42 746.50,305.91 746.85,306.47 747.20,306.46 747.55,306.59 747.90,306.12 748.25,306.62 748.60,305.90 748.95,305.77 749.30,305.57 749.65,305.80 750.00,306.08 750.35,305.92 750.70,305.79 751.05,305.97 751.40,306.78 751.75,305.62 752.10,305.48 752.45,305.09 752.80,304.93 753.15,304.90 753.50,305.15 753.85,305.95 754.20,305.87 754.55,305.88 754.90,305.33 755.25,305.18 755.60,306.33 755.95,305.34 756.30,304.20 756.65,303.64 757.00,305.08 757.35,306.31 757.70,306.57 758.05,306.62 758.40,307.08 758.75,306.89 759.10,306.28 759.45,307.48 759.80,306.60 760.15,306.46 760.50,305.43 760.85,305.73 761.20,305.35 761.55,306.28 761.90,305.61 762.25,305.97 762.60,305.48 762.95,304.50 763.30,303.82 763.65,304.06 764.00,304.68 764.35,304.44 764.70,304.41 765.05,304.34 765.40,304.32 765.75,304.89 766.10,306.09 766.45,306.46 766.80,306.75 767.15,307.65 767.50,307.05 767.85,307.47 768.20,306.84 768.55,306.26 768.90,306.77 769.25,307.64 769.60,307.41 769.95,306.72 770.30,307.20 770.65,307.83 771.00,307.52 771.35,307.92 771.70,307.65 772.05,307.48 772.40,307.45 772.75,307.61 773.10,307.62 773.45,307.88 773.80,307.65 774.15,307.55 774.50,307.34 774.85,307.12 775.20,307.06 775.55,306.83 775.90,306.93 776.25,306.80 776.60,306.75 776.95,306.68 777.30,306.40 777.65,306.59 778.00,306.57 778.35,306.50 778.70,306.00 779.05,305.37 779.40,305.70 779.75,305.66 780.10,306.16 780.45,306.04 780.80,306.47 781.15,306.59 781.50,305.39 781.85,305.40 782.20,305.76 782.55,305.45 782.90,305.64 783.25,306.96 783.60,307.02 783.95,306.72 784.30,307.19 784.65,307.32 785.00,307.76"/>
<line x1="813" y1="78" x2="839" y2="78" stroke="#dc2626" stroke-width="3"/>
<text x="847" y="82" font-family="Arial" font-size="13" fill="#111827">high volatility</text>
<polyline fill="none" stroke="#059669" stroke-width="2" points="85.00,422.02 85.35,421.99 85.70,421.97 86.05,421.94 86.40,421.91 86.75,421.89 87.10,421.86 87.45,421.83 87.80,421.82 88.15,421.80 88.50,421.77 88.85,421.76 89.20,421.74 89.55,421.71 89.90,421.69 90.25,421.66 90.60,421.64 90.95,421.62 91.30,421.58 91.65,421.57 92.00,421.53 92.35,421.50 92.70,421.47 93.05,421.46 93.40,421.43 93.75,421.36 94.10,421.30 94.45,421.30 94.80,421.29 95.15,421.19 95.50,421.15 95.85,421.13 96.20,420.99 96.55,420.82 96.90,420.64 97.25,420.57 97.60,420.58 97.95,420.60 98.30,420.16 98.65,420.33 99.00,420.41 99.35,420.27 99.70,419.75 100.05,419.80 100.40,419.56 100.75,419.43 101.10,419.49 101.45,419.08 101.80,418.86 102.15,418.94 102.50,419.02 102.85,418.95 103.20,418.78 103.55,418.72 103.90,418.48 104.25,418.71 104.60,418.36 104.95,417.78 105.30,417.91 105.65,418.18 106.00,418.66 106.35,418.68 106.70,418.55 107.05,418.07 107.40,418.31 107.75,417.97 108.10,417.61 108.45,418.04 108.80,417.47 109.15,417.26 109.50,416.83 109.85,417.16 110.20,416.85 110.55,417.74 110.90,417.91 111.25,418.03 111.60,417.42 111.95,418.28 112.30,417.44 112.65,418.03 113.00,418.08 113.35,418.43 113.70,417.94 114.05,419.12 114.40,419.33 114.75,419.33 115.10,418.83 115.45,418.76 115.80,419.14 116.15,419.14 116.50,419.84 116.85,419.24 117.20,419.41 117.55,417.81 117.90,418.96 118.25,418.77 118.60,419.42 118.95,418.76 119.30,418.55 119.65,418.67 120.00,417.86 120.35,417.41 120.70,418.24 121.05,418.01 121.40,418.22 121.75,418.43 122.10,418.62 122.45,418.92 122.80,419.03 123.15,418.84 123.50,418.93 123.85,419.44 124.20,419.93 124.55,420.88 124.90,420.95 125.25,420.77 125.60,420.30 125.95,419.86 126.30,420.13 126.65,420.29 127.00,420.21 127.35,420.30 127.70,420.37 128.05,420.07 128.40,420.06 128.75,420.15 129.10,420.16 129.45,420.37 129.80,420.42 130.15,420.37 130.50,420.18 130.85,419.92 131.20,419.95 131.55,419.91 131.90,419.54 132.25,419.73 132.60,419.64 132.95,419.52 133.30,419.62 133.65,419.57 134.00,419.63 134.35,419.56 134.70,419.72 135.05,419.66 135.40,419.69 135.75,419.68 136.10,419.74 136.45,419.66 136.80,419.55 137.15,419.48 137.50,419.49 137.85,419.61 138.20,419.63 138.55,419.62 138.90,419.68 139.25,419.74 139.60,419.69 139.95,419.77 140.30,419.71 140.65,419.68 141.00,419.67 141.35,419.65 141.70,419.62 142.05,419.59 142.40,419.57 142.75,419.54 143.10,419.52 143.45,419.49 143.80,419.46 144.15,419.44 144.50,419.43 144.85,419.42 145.20,419.40 145.55,419.40 145.90,419.39 146.25,419.38 146.60,419.32 146.95,419.32 147.30,419.31 147.65,419.34 148.00,419.32 148.35,419.31 148.70,419.37 149.05,419.33 149.40,419.30 149.75,419.24 150.10,419.21 150.45,419.21 150.80,419.20 151.15,419.27 151.50,419.25 151.85,419.22 152.20,419.21 152.55,419.19 152.90,419.17 153.25,419.17 153.60,419.14 153.95,419.10 154.30,419.06 154.65,419.04 155.00,419.02 155.35,419.00 155.70,418.97 156.05,418.95 156.40,418.93 156.75,418.91 157.10,418.88 157.45,418.85 157.80,418.82 158.15,418.80 158.50,418.80 158.85,418.75 159.20,418.73 159.55,418.72 159.90,418.70 160.25,418.68 160.60,418.67 160.95,418.63 161.30,418.57 161.65,418.54 162.00,418.55 162.35,418.59 162.70,418.60 163.05,418.62 163.40,418.70 163.75,418.74 164.10,418.73 164.45,418.80 164.80,418.97 165.15,419.02 165.50,419.03 165.85,419.04 166.20,419.13 166.55,419.10 166.90,419.11 167.25,419.07 167.60,419.05 167.95,419.00 168.30,418.95 168.65,418.90 169.00,418.86 169.35,418.74 169.70,418.70 170.05,418.56 170.40,418.59 170.75,418.64 171.10,418.77 171.45,418.61 171.80,418.79 172.15,418.85 172.50,418.73 172.85,418.69 173.20,418.52 173.55,418.67 173.90,418.53 174.25,418.33 174.60,418.61 174.95,418.76 175.30,418.65 175.65,418.21 176.00,418.21 176.35,418.14 176.70,418.27 177.05,417.88 177.40,417.83 177.75,417.98 178.10,418.12 178.45,417.15 178.80,417.23 179.15,417.69 179.50,417.29 179.85,417.19 180.20,416.35 180.55,416.22 180.90,415.53 181.25,414.50 181.60,413.78 181.95,414.46 182.30,414.53 182.65,414.35 183.00,414.81 183.35,414.28 183.70,413.48 184.05,413.89 184.40,413.61 184.75,413.47 185.10,413.74 185.45,413.75 185.80,412.87 186.15,413.55 186.50,412.24 186.85,412.62 187.20,411.71 187.55,410.30 187.90,411.84 188.25,410.82 188.60,411.49 188.95,410.80 189.30,411.61 189.65,411.24 190.00,410.99 190.35,410.22 190.70,410.41 191.05,412.98 191.40,413.47 191.75,414.20 192.10,413.41 192.45,413.43 192.80,411.21 193.15,410.75 193.50,411.69 193.85,411.85 194.20,412.35 194.55,411.08 194.90,412.68 195.25,413.64 195.60,413.29 195.95,413.13 196.30,412.82 196.65,413.32 197.00,413.97 197.35,417.39 197.70,417.50 198.05,418.03 198.40,417.05 198.75,417.87 199.10,418.82 199.45,418.98 199.80,417.19 200.15,417.20 200.50,417.63 200.85,417.17 201.20,415.06 201.55,415.83 201.90,414.50 202.25,414.90 202.60,413.41 202.95,412.75 203.30,412.25 203.65,413.02 204.00,412.27 204.35,411.04 204.70,413.02 205.05,413.87 205.40,414.12 205.75,415.23 206.10,413.96 206.45,415.89 206.80,414.42 207.15,413.84 207.50,413.16 207.85,412.04 208.20,412.28 208.55,411.97 208.90,411.10 209.25,411.28 209.60,411.64 209.95,411.65 210.30,411.46 210.65,413.57 211.00,413.79 211.35,413.60 211.70,414.59 212.05,416.02 212.40,416.76 212.75,414.49 213.10,412.83 213.45,412.58 213.80,410.22 214.15,410.66 214.50,410.87 214.85,411.16 215.20,410.56 215.55,412.80 215.90,410.73 216.25,410.62 216.60,408.84 216.95,407.21 217.30,406.78 217.65,407.36 218.00,406.93 218.35,407.50 218.70,409.86 219.05,409.16 219.40,407.91 219.75,409.57 220.10,408.77 220.45,408.36 220.80,409.91 221.15,410.56 221.50,409.98 221.85,408.63 222.20,409.37 222.55,409.34 222.90,408.62 223.25,407.43 223.60,405.09 223.95,406.28 224.30,404.47 224.65,402.36 225.00,400.95 225.35,401.61 225.70,398.51 226.05,397.96 226.40,398.53 226.75,398.08 227.10,397.04 227.45,396.07 227.80,395.08 228.15,396.04 228.50,397.84 228.85,399.18 229.20,401.08 229.55,400.46 229.90,402.43 230.25,400.24 230.60,402.84 230.95,401.18 231.30,400.30 231.65,398.93 232.00,399.16 232.35,398.67 232.70,400.62 233.05,402.23 233.40,401.00 233.75,402.16 234.10,403.81 234.45,403.86 234.80,403.53 235.15,404.11 235.50,406.37 235.85,403.33 236.20,402.41 236.55,401.29 236.90,399.08 237.25,396.45 237.60,396.81 237.95,395.94 238.30,395.62 238.65,393.97 239.00,392.66 239.35,394.04 239.70,392.26 240.05,389.76 240.40,390.32 240.75,390.52 241.10,390.13 241.45,393.83 241.80,393.61 242.15,395.49 242.50,398.19 242.85,396.80 243.20,398.17 243.55,400.45 243.90,402.47 244.25,402.35 244.60,403.09 244.95,400.64 245.30,395.88 245.65,396.02 246.00,398.55 246.35,398.40 246.70,394.48 247.05,393.93 247.40,396.32 247.75,399.60 248.10,402.70 248.45,400.15 248.80,400.76 249.15,403.33 249.50,402.84 249.85,399.64 250.20,403.92 250.55,398.17 250.90,398.18 251.25,395.38 251.60,393.36 251.95,390.54 252.30,390.55 252.65,391.00 253.00,391.43 253.35,392.60 253.70,394.28 254.05,394.88 254.40,395.26 254.75,396.29 255.10,394.29 255.45,399.39 255.80,400.34 256.15,393.30 256.50,394.30 256.85,393.01 257.20,398.25 257.55,396.89 257.90,394.41 258.25,395.83 258.60,395.07 258.95,392.54 259.30,394.35 259.65,396.28 260.00,398.02 260.35,392.72 260.70,396.48 261.05,393.01 261.40,392.73 261.75,389.95 262.10,389.65 262.45,390.12 262.80,389.38 263.15,388.73 263.50,390.59 263.85,390.58 264.20,386.26 264.55,383.24 264.90,382.70 265.25,379.90 265.60,384.52 265.95,387.95 266.30,387.38 266.65,385.78 267.00,388.51 267.35,386.97 267.70,387.70 268.05,392.60 268.40,391.93 268.75,394.59 269.10,395.75 269.45,396.36 269.80,400.44 270.15,401.38 270.50,398.47 270.85,398.95 271.20,399.93 271.55,396.32 271.90,395.02 272.25,394.00 272.60,394.89 272.95,390.53 273.30,393.50 273.65,391.16 274.00,393.79 274.35,393.47 274.70,389.12 275.05,395.15 275.40,394.26 275.75,392.09 276.10,391.89 276.45,389.77 276.80,393.60 277.15,392.41 277.50,390.73 277.85,390.20 278.20,388.08 278.55,384.98 278.90,384.06 279.25,382.74 279.60,384.95 279.95,388.17 280.30,389.98 280.65,385.10 281.00,385.57 281.35,383.30 281.70,387.70 282.05,386.68 282.40,385.46 282.75,384.59 283.10,388.51 283.45,384.50 283.80,382.69 284.15,383.73 284.50,383.29 284.85,383.92 285.20,385.53 285.55,379.14 285.90,376.59 286.25,380.07 286.60,380.50 286.95,383.28 287.30,383.28 287.65,384.21 288.00,388.63 288.35,388.91 288.70,387.53 289.05,391.22 289.40,392.78 289.75,388.44 290.10,387.97 290.45,387.26 290.80,389.31 291.15,390.13 291.50,387.04 291.85,384.99 292.20,383.50 292.55,385.32 292.90,382.68 293.25,379.31 293.60,377.64 293.95,379.95 294.30,384.46 294.65,383.19 295.00,381.79 295.35,383.19 295.70,380.87 296.05,380.52 296.40,380.40 296.75,382.85 297.10,385.85 297.45,384.18 297.80,386.11 298.15,390.30 298.50,391.68 298.85,390.06 299.20,389.57 299.55,386.19 299.90,389.27 300.25,388.14 300.60,385.98 300.95,385.70 301.30,390.48 301.65,390.15 302.00,392.02 302.35,390.67 302.70,389.19 303.05,383.68 303.40,382.77 303.75,385.71 304.10,388.68 304.45,387.55 304.80,387.33 305.15,386.00 305.50,389.03 305.85,391.47 306.20,396.26 306.55,396.77 306.90,395.70 307.25,397.02 307.60,400.61 307.95,394.70 308.30,392.68 308.65,392.98 309.00,392.80 309.35,397.37 309.70,396.82 310.05,402.03 310.40,398.14 310.75,401.99 311.10,404.61 311.45,405.24 311.80,410.94 312.15,411.95 312.50,413.20 312.85,413.25 313.20,413.19 313.55,411.72 313.90,409.22 314.25,409.47 314.60,408.82 314.95,409.35 315.30,410.97 315.65,413.19 316.00,413.21 316.35,417.53 316.70,419.90 317.05,416.41 317.40,414.60 317.75,418.96 318.10,420.77 318.45,421.64 318.80,423.35 319.15,423.93 319.50,422.86 319.85,422.94 320.20,424.98 320.55,425.09 320.90,420.97 321.25,417.72 321.60,416.41 321.95,416.35 322.30,416.04 322.65,419.78 323.00,420.25 323.35,422.67 323.70,422.63 324.05,421.31 324.40,421.77 324.75,421.69 325.10,423.09 325.45,426.36 325.80,429.09 326.15,430.12 326.50,431.33 326.85,427.39 327.20,423.43 327.55,425.50 327.90,429.32 328.25,431.33 328.60,431.43 328.95,433.77 329.30,432.58 329.65,430.84 330.00,432.97 330.35,430.48 330.70,430.66 331.05,428.60 331.40,433.03 331.75,431.68 332.10,435.68 332.45,438.39 332.80,438.47 333.15,440.48 333.50,438.36 333.85,438.49 334.20,440.13 334.55,439.31 334.90,437.28 335.25,436.22 335.60,436.22 335.95,437.10 336.30,435.26 336.65,434.19 337.00,431.60 337.35,430.15 337.70,431.25 338.05,430.20 338.40,429.84 338.75,428.94 339.10,429.13 339.45,427.99 339.80,428.81 340.15,429.57 340.50,428.00 340.85,426.80 341.20,426.16 341.55,424.71 341.90,423.68 342.25,423.23 342.60,423.07 342.95,424.97 343.30,426.98 343.65,426.20 344.00,425.36 344.35,427.25 344.70,425.24 345.05,424.82 345.40,426.43 345.75,425.83 346.10,426.89 346.45,426.61 346.80,427.92 347.15,427.49 347.50,427.32 347.85,426.95 348.20,425.92 348.55,426.49 348.90,426.43 349.25,426.69 349.60,426.75 349.95,426.00 350.30,425.40 350.65,425.59 351.00,424.61 351.35,425.29 351.70,425.82 352.05,425.03 352.40,425.57 352.75,425.47 353.10,424.24 353.45,424.23 353.80,423.34 354.15,422.18 354.50,421.25 354.85,419.51 355.20,418.91 355.55,419.93 355.90,419.59 356.25,419.77 356.60,420.13 356.95,420.47 357.30,419.86 357.65,420.75 358.00,419.33 358.35,419.03 358.70,420.35 359.05,420.79 359.40,421.34 359.75,422.38 360.10,422.29 360.45,423.54 360.80,422.17 361.15,421.27 361.50,421.56 361.85,421.78 362.20,421.58 362.55,422.26 362.90,421.59 363.25,421.44 363.60,421.69 363.95,421.31 364.30,421.55 364.65,421.66 365.00,422.49 365.35,422.88 365.70,423.34 366.05,423.24 366.40,424.84 366.75,425.60 367.10,425.96 367.45,425.24 367.80,425.56 368.15,425.68 368.50,425.37 368.85,424.96 369.20,423.74 369.55,423.79 369.90,423.83 370.25,423.73 370.60,423.72 370.95,423.62 371.30,423.46 371.65,423.76 372.00,423.48 372.35,423.64 372.70,423.45 373.05,422.48 373.40,422.53 373.75,422.35 374.10,422.87 374.45,422.47 374.80,421.92 375.15,422.35 375.50,422.74 375.85,422.79 376.20,422.46 376.55,422.55 376.90,422.40 377.25,422.45 377.60,422.79 377.95,423.40 378.30,424.17 378.65,423.38 379.00,423.37 379.35,424.07 379.70,424.25 380.05,423.67 380.40,423.78 380.75,424.06 381.10,424.11 381.45,423.64 381.80,423.20 382.15,423.28 382.50,423.52 382.85,423.50 383.20,423.20 383.55,423.11 383.90,423.46 384.25,423.49 384.60,423.76 384.95,423.69 385.30,423.84 385.65,423.87 386.00,423.89 386.35,423.82 386.70,423.94 387.05,423.86 387.40,424.00 387.75,424.06 388.10,424.24 388.45,424.36 388.80,424.36 389.15,424.35 389.50,424.27 389.85,424.16 390.20,424.21 390.55,424.07 390.90,423.95 391.25,423.92 391.60,423.88 391.95,423.85 392.30,423.76 392.65,423.70 393.00,423.62 393.35,423.54 393.70,423.42 394.05,423.40 394.40,423.35 394.75,423.41 395.10,423.24 395.45,423.19 395.80,423.25 396.15,423.29 396.50,423.28 396.85,423.24 397.20,423.14 397.55,423.25 397.90,423.17 398.25,423.37 398.60,423.72 398.95,423.59 399.30,423.82 399.65,423.97 400.00,423.65 400.35,423.30 400.70,423.02 401.05,423.38 401.40,423.17 401.75,423.54 402.10,423.96 402.45,424.01 402.80,424.04 403.15,423.69 403.50,423.57 403.85,423.54 404.20,423.35 404.55,423.57 404.90,423.64 405.25,423.85 405.60,424.20 405.95,423.74 406.30,422.81 406.65,423.17 407.00,423.22 407.35,423.94 407.70,424.10 408.05,424.13 408.40,423.98 408.75,424.16 409.10,423.98 409.45,424.19 409.80,424.00 410.15,424.23 410.50,424.08 410.85,424.31 411.20,424.24 411.55,424.07 411.90,423.98 412.25,423.91 412.60,423.30 412.95,423.22 413.30,423.32 413.65,423.27 414.00,423.30 414.35,422.95 414.70,423.22 415.05,422.94 415.40,422.29 415.75,422.36 416.10,421.93 416.45,422.25 416.80,422.06 417.15,422.05 417.50,421.61 417.85,422.02 418.20,421.68 418.55,421.83 418.90,421.11 419.25,420.86 419.60,420.76 419.95,419.99 420.30,419.42 420.65,419.16 421.00,419.83 421.35,419.89 421.70,418.96 422.05,419.31 422.40,419.69 422.75,419.01 423.10,418.04 423.45,418.96 423.80,419.43 424.15,419.10 424.50,418.52 424.85,417.84 425.20,418.12 425.55,418.23 425.90,417.51 426.25,417.18 426.60,416.60 426.95,416.62 427.30,416.74 427.65,416.38 428.00,415.49 428.35,415.35 428.70,413.66 429.05,412.75 429.40,412.30 429.75,412.61 430.10,411.30 430.45,409.65 430.80,409.22 431.15,408.25 431.50,407.76 431.85,407.94 432.20,407.49 432.55,404.40 432.90,404.23 433.25,405.45 433.60,404.01 433.95,403.15 434.30,403.07 434.65,402.62 435.00,402.14 435.35,400.58 435.70,399.06 436.05,400.09 436.40,398.09 436.75,396.93 437.10,395.30 437.45,396.17 437.80,394.56 438.15,392.98 438.50,393.59 438.85,393.46 439.20,392.18 439.55,390.64 439.90,391.48 440.25,390.73 440.60,390.31 440.95,389.17 441.30,386.85 441.65,386.60 442.00,388.93 442.35,389.86 442.70,389.31 443.05,389.57 443.40,391.35 443.75,392.04 444.10,390.67 444.45,391.94 444.80,389.96 445.15,388.55 445.50,389.87 445.85,388.61 446.20,387.27 446.55,386.31 446.90,386.88 447.25,385.03 447.60,385.19 447.95,385.67 448.30,387.36 448.65,386.72 449.00,385.03 449.35,388.97 449.70,385.01 450.05,382.05 450.40,383.21 450.75,384.45 451.10,384.41 451.45,382.28 451.80,384.13 452.15,382.56 452.50,383.09 452.85,379.83 453.20,380.52 453.55,382.03 453.90,380.13 454.25,381.23 454.60,383.47 454.95,380.96 455.30,381.37 455.65,379.96 456.00,377.97 456.35,376.69 456.70,378.02 457.05,377.19 457.40,380.50 457.75,378.70 458.10,380.99 458.45,379.60 458.80,379.54 459.15,378.04 459.50,377.82 459.85,378.17 460.20,379.16 460.55,381.93 460.90,377.96 461.25,378.20 461.60,376.89 461.95,377.04 462.30,376.27 462.65,373.84 463.00,372.94 463.35,376.37 463.70,377.85 464.05,375.22 464.40,376.78 464.75,377.16 465.10,380.56 465.45,384.78 465.80,384.09 466.15,382.93 466.50,384.90 466.85,384.62 467.20,383.68 467.55,385.20 467.90,389.32 468.25,386.37 468.60,386.15 468.95,386.42 469.30,383.67 469.65,383.28 470.00,380.51 470.35,380.73 470.70,379.71 471.05,381.15 471.40,386.23 471.75,385.91 472.10,381.77 472.45,379.96 472.80,384.22 473.15,387.58 473.50,389.38 473.85,391.87 474.20,393.55 474.55,393.96 474.90,390.83 475.25,392.35 475.60,391.32 475.95,391.63 476.30,386.48 476.65,386.59 477.00,383.33 477.35,383.56 477.70,382.34 478.05,380.09 478.40,383.12 478.75,382.27 479.10,379.82 479.45,380.49 479.80,380.41 480.15,380.89 480.50,379.71 480.85,381.91 481.20,381.21 481.55,381.59 481.90,378.52 482.25,380.12 482.60,380.25 482.95,382.00 483.30,382.24 483.65,385.63 484.00,386.37 484.35,387.20 484.70,387.35 485.05,385.76 485.40,382.52 485.75,383.18 486.10,381.01 486.45,381.05 486.80,381.44 487.15,380.67 487.50,381.78 487.85,378.38 488.20,378.53 488.55,378.48 488.90,376.37 489.25,374.30 489.60,376.52 489.95,378.34 490.30,377.18 490.65,377.12 491.00,376.80 491.35,379.77 491.70,381.75 492.05,384.09 492.40,384.64 492.75,386.64 493.10,389.47 493.45,388.43 493.80,386.23 494.15,384.46 494.50,386.90 494.85,389.35 495.20,388.63 495.55,389.66 495.90,393.92 496.25,395.51 496.60,393.03 496.95,393.92 497.30,392.94 497.65,394.26 498.00,395.25 498.35,392.87 498.70,391.35 499.05,391.75 499.40,392.15 499.75,391.14 500.10,391.88 500.45,390.56 500.80,392.55 501.15,393.28 501.50,392.32 501.85,393.73 502.20,393.76 502.55,394.55 502.90,395.27 503.25,395.99 503.60,397.67 503.95,399.27 504.30,399.54 504.65,402.14 505.00,405.09 505.35,404.58 505.70,402.81 506.05,400.75 506.40,400.29 506.75,400.81 507.10,402.62 507.45,404.06 507.80,403.84 508.15,403.62 508.50,405.47 508.85,405.52 509.20,406.71 509.55,406.56 509.90,408.39 510.25,407.78 510.60,409.86 510.95,410.68 511.30,411.98 511.65,412.56 512.00,412.11 512.35,412.91 512.70,413.53 513.05,413.68 513.40,412.96 513.75,415.00 514.10,414.22 514.45,412.85 514.80,412.60 515.15,410.88 515.50,411.16 515.85,411.67 516.20,412.55 516.55,412.90 516.90,414.31 517.25,413.04 517.60,412.63 517.95,412.48 518.30,412.53 518.65,412.43 519.00,412.78 519.35,413.49 519.70,412.66 520.05,410.94 520.40,410.80 520.75,410.60 521.10,409.99 521.45,409.79 521.80,409.90 522.15,410.20 522.50,409.44 522.85,408.82 523.20,409.24 523.55,410.21 523.90,410.29 524.25,410.12 524.60,410.52 524.95,409.92 525.30,409.12 525.65,409.63 526.00,409.08 526.35,408.31 526.70,408.48 527.05,409.57 527.40,409.12 527.75,409.35 528.10,409.70 528.45,410.05 528.80,409.79 529.15,409.07 529.50,409.60 529.85,409.47 530.20,408.75 530.55,408.96 530.90,409.04 531.25,408.93 531.60,408.42 531.95,408.80 532.30,408.91 532.65,408.24 533.00,408.88 533.35,408.36 533.70,407.92 534.05,408.40 534.40,407.47 534.75,407.64 535.10,407.80 535.45,408.04 535.80,407.98 536.15,408.40 536.50,408.12 536.85,407.33 537.20,406.92 537.55,407.59 537.90,407.61 538.25,407.47 538.60,408.27 538.95,409.04 539.30,409.79 539.65,410.28 540.00,410.16 540.35,410.16 540.70,409.84 541.05,408.82 541.40,408.44 541.75,408.52 542.10,408.54 542.45,408.02 542.80,407.84 543.15,408.30 543.50,408.35 543.85,408.85 544.20,408.56 544.55,408.76 544.90,408.45 545.25,407.57 545.60,407.98 545.95,408.47 546.30,407.68 546.65,407.42 547.00,406.94 547.35,406.50 547.70,406.74 548.05,406.75 548.40,407.00 548.75,407.04 549.10,407.16 549.45,407.08 549.80,407.39 550.15,407.45 550.50,406.62 550.85,406.60 551.20,406.50 551.55,405.96 551.90,406.16 552.25,405.68 552.60,406.28 552.95,406.36 553.30,407.58 553.65,407.53 554.00,407.54 554.35,408.52 554.70,408.46 555.05,408.69 555.40,409.03 555.75,409.38 556.10,409.49 556.45,409.57 556.80,409.47 557.15,408.41 557.50,407.86 557.85,407.76 558.20,408.03 558.55,408.16 558.90,408.13 559.25,407.78 559.60,407.50 559.95,407.81 560.30,407.50 560.65,407.32 561.00,407.18 561.35,407.12 561.70,407.18 562.05,407.15 562.40,406.81 562.75,407.12 563.10,407.01 563.45,407.08 563.80,407.32 564.15,407.67 564.50,407.39 564.85,406.94 565.20,406.99 565.55,406.89 565.90,407.07 566.25,407.36 566.60,407.78 566.95,408.05 567.30,408.41 567.65,407.99 568.00,408.21 568.35,407.78 568.70,407.83 569.05,407.49 569.40,407.49 569.75,407.70 570.10,407.17 570.45,407.50 570.80,408.06 571.15,407.74 571.50,407.83 571.85,408.02 572.20,408.48 572.55,408.37 572.90,408.25 573.25,408.40 573.60,408.50 573.95,408.68 574.30,408.78 574.65,408.90 575.00,408.98 575.35,408.85 575.70,408.95 576.05,408.97 576.40,409.04 576.75,408.99 577.10,408.88 577.45,408.85 577.80,408.76 578.15,408.78 578.50,408.67 578.85,408.62 579.20,408.48 579.55,408.43 579.90,408.41 580.25,408.40 580.60,408.36 580.95,408.39 581.30,408.38 581.65,408.35 582.00,408.34 582.35,408.26 582.70,408.22 583.05,408.12 583.40,408.10 583.75,408.06 584.10,407.84 584.45,407.78 584.80,407.65 585.15,407.42 585.50,407.68 585.85,407.76 586.20,407.56 586.55,407.75 586.90,407.54 587.25,407.43 587.60,407.27 587.95,407.18 588.30,407.44 588.65,407.24 589.00,407.47 589.35,407.58 589.70,407.98 590.05,408.31 590.40,407.93 590.75,408.02 591.10,407.84 591.45,407.69 591.80,408.23 592.15,408.61 592.50,409.15 592.85,409.14 593.20,409.29 593.55,409.81 593.90,409.57 594.25,409.09 594.60,408.51 594.95,408.15 595.30,408.88 595.65,409.33 596.00,409.11 596.35,408.89 596.70,409.33 597.05,409.57 597.40,409.52 597.75,409.43 598.10,409.17 598.45,409.13 598.80,408.95 599.15,408.81 599.50,408.79 599.85,409.31 600.20,409.75 600.55,410.08 600.90,410.17 601.25,410.32 601.60,410.33 601.95,410.28 602.30,410.22 602.65,409.83 603.00,409.98 603.35,409.64 603.70,409.80 604.05,410.07 604.40,410.15 604.75,410.24 605.10,410.30 605.45,410.22 605.80,410.14 606.15,410.05 606.50,410.04 606.85,410.07 607.20,410.07 607.55,410.01 607.90,409.98 608.25,409.92 608.60,409.89 608.95,409.82 609.30,409.78 609.65,409.78 610.00,409.73 610.35,409.66 610.70,409.48 611.05,409.46 611.40,409.40 611.75,409.43 612.10,409.31 612.45,409.31 612.80,409.03 613.15,408.90 613.50,408.47 613.85,408.51 614.20,408.62 614.55,407.84 614.90,408.23 615.25,408.10 615.60,408.39 615.95,408.36 616.30,408.87 616.65,408.93 617.00,408.73 617.35,408.89 617.70,407.95 618.05,408.43 618.40,408.99 618.75,409.14 619.10,409.46 619.45,409.39 619.80,409.31 620.15,410.01 620.50,409.50 620.85,409.46 621.20,409.07 621.55,409.16 621.90,408.70 622.25,407.61 622.60,407.58 622.95,407.89 623.30,407.23 623.65,406.98 624.00,407.15 624.35,406.64 624.70,407.50 625.05,408.13 625.40,408.32 625.75,407.83 626.10,406.86 626.45,407.11 626.80,406.87 627.15,407.71 627.50,406.99 627.85,406.66 628.20,405.75 628.55,405.73 628.90,405.52 629.25,402.83 629.60,402.47 629.95,401.17 630.30,401.63 630.65,402.45 631.00,402.58 631.35,401.01 631.70,401.21 632.05,401.54 632.40,399.92 632.75,399.23 633.10,399.71 633.45,400.61 633.80,400.16 634.15,398.14 634.50,398.04 634.85,396.11 635.20,394.00 635.55,393.78 635.90,393.13 636.25,393.00 636.60,393.12 636.95,392.66 637.30,391.58 637.65,391.89 638.00,391.14 638.35,391.75 638.70,393.03 639.05,393.42 639.40,393.14 639.75,391.53 640.10,393.58 640.45,392.94 640.80,392.87 641.15,390.94 641.50,388.62 641.85,389.64 642.20,388.58 642.55,389.43 642.90,388.95 643.25,388.00 643.60,388.59 643.95,388.36 644.30,385.41 644.65,382.96 645.00,381.60 645.35,379.69 645.70,381.64 646.05,378.97 646.40,376.43 646.75,376.23 647.10,374.77 647.45,374.32 647.80,375.35 648.15,374.30 648.50,370.22 648.85,373.00 649.20,372.76 649.55,372.78 649.90,370.31 650.25,369.51 650.60,368.79 650.95,365.82 651.30,364.94 651.65,364.92 652.00,365.38 652.35,364.95 652.70,362.43 653.05,363.29 653.40,363.39 653.75,362.30 654.10,360.98 654.45,363.97 654.80,361.24 655.15,358.25 655.50,357.49 655.85,356.75 656.20,358.44 656.55,359.42 656.90,360.03 657.25,357.83 657.60,355.97 657.95,355.70 658.30,353.36 658.65,356.10 659.00,354.44 659.35,353.05 659.70,355.45 660.05,354.35 660.40,357.90 660.75,356.51 661.10,356.18 661.45,359.14 661.80,356.47 662.15,356.70 662.50,353.23 662.85,349.62 663.20,347.00 663.55,344.19 663.90,345.50 664.25,342.99 664.60,345.22 664.95,342.20 665.30,342.25 665.65,342.86 666.00,341.77 666.35,339.49 666.70,337.94 667.05,339.28 667.40,336.96 667.75,339.46 668.10,340.31 668.45,337.20 668.80,336.66 669.15,336.53 669.50,337.86 669.85,338.63 670.20,336.69 670.55,336.24 670.90,336.41 671.25,334.82 671.60,336.19 671.95,332.61 672.30,331.38 672.65,334.93 673.00,335.59 673.35,334.47 673.70,333.88 674.05,334.62 674.40,337.12 674.75,335.78 675.10,338.51 675.45,339.23 675.80,338.52 676.15,334.57 676.50,333.25 676.85,335.97 677.20,336.54 677.55,334.28 677.90,333.82 678.25,336.88 678.60,335.62 678.95,333.10 679.30,330.95 679.65,331.09 680.00,327.10 680.35,324.42 680.70,323.42 681.05,323.15 681.40,323.89 681.75,327.33 682.10,320.37 682.45,320.78 682.80,319.12 683.15,315.91 683.50,310.46 683.85,306.16 684.20,310.12 684.55,310.50 684.90,310.23 685.25,313.51 685.60,312.95 685.95,311.75 686.30,310.43 686.65,314.49 687.00,315.59 687.35,313.17 687.70,313.62 688.05,310.14 688.40,310.02 688.75,313.09 689.10,311.15 689.45,307.80 689.80,310.57 690.15,312.20 690.50,313.72 690.85,314.11 691.20,316.38 691.55,320.89 691.90,322.59 692.25,329.55 692.60,330.07 692.95,332.80 693.30,328.79 693.65,328.52 694.00,329.61 694.35,325.12 694.70,323.04 695.05,318.75 695.40,321.51 695.75,323.93 696.10,320.77 696.45,319.54 696.80,321.02 697.15,322.05 697.50,321.88 697.85,317.74 698.20,317.55 698.55,318.80 698.90,317.18 699.25,316.91 699.60,322.35 699.95,325.26 700.30,327.16 700.65,317.29 701.00,319.79 701.35,317.63 701.70,318.15 702.05,315.24 702.40,316.31 702.75,307.46 703.10,303.80 703.45,304.80 703.80,306.94 704.15,303.81 704.50,304.17 704.85,302.00 705.20,304.67 705.55,305.58 705.90,308.43 706.25,308.96 706.60,309.76 706.95,316.09 707.30,316.37 707.65,317.60 708.00,316.67 708.35,313.00 708.70,314.34 709.05,313.70 709.40,313.76 709.75,315.82 710.10,315.67 710.45,311.28 710.80,313.71 711.15,309.47 711.50,309.94 711.85,311.15 712.20,310.33 712.55,309.40 712.90,314.07 713.25,314.28 713.60,317.14 713.95,312.18 714.30,308.39 714.65,315.26 715.00,309.95 715.35,306.58 715.70,305.78 716.05,309.34 716.40,311.35 716.75,307.64 717.10,307.10 717.45,311.94 717.80,311.90 718.15,310.67 718.50,299.07 718.85,303.62 719.20,303.94 719.55,304.45 719.90,302.37 720.25,304.52 720.60,306.98 720.95,308.05 721.30,307.68 721.65,307.01 722.00,312.34 722.35,310.17 722.70,310.35 723.05,308.48 723.40,309.30 723.75,303.91 724.10,300.57 724.45,305.04 724.80,302.96 725.15,302.85 725.50,302.94 725.85,300.68 726.20,306.43 726.55,303.80 726.90,298.55 727.25,299.03 727.60,299.17 727.95,294.00 728.30,296.09 728.65,294.77 729.00,299.22 729.35,300.25 729.70,296.72 730.05,293.11 730.40,294.30 730.75,291.92 731.10,293.95 731.45,289.94 731.80,289.13 732.15,286.98 732.50,288.06 732.85,291.50 733.20,295.36 733.55,299.18 733.90,287.68 734.25,283.55 734.60,279.47 734.95,284.60 735.30,285.07 735.65,287.51 736.00,283.58 736.35,289.21 736.70,286.31 737.05,281.06 737.40,283.41 737.75,289.30 738.10,285.17 738.45,282.56 738.80,282.05 739.15,284.26 739.50,282.30 739.85,283.66 740.20,288.20 740.55,287.03 740.90,288.09 741.25,290.45 741.60,288.37 741.95,292.02 742.30,289.85 742.65,299.91 743.00,303.65 743.35,304.20 743.70,309.19 744.05,321.12 744.40,325.69 744.75,315.91 745.10,313.96 745.45,310.97 745.80,305.96 746.15,302.78 746.50,290.79 746.85,289.39 747.20,291.37 747.55,297.06 747.90,296.89 748.25,296.22 748.60,288.77 748.95,281.02 749.30,281.00 749.65,280.96 750.00,273.92 750.35,272.92 750.70,274.84 751.05,282.91 751.40,281.21 751.75,279.52 752.10,270.84 752.45,273.40 752.80,274.25 753.15,280.37 753.50,282.99 753.85,288.38 754.20,283.86 754.55,289.38 754.90,295.33 755.25,299.56 755.60,304.16 755.95,306.80 756.30,305.22 756.65,305.43 757.00,299.42 757.35,300.87 757.70,303.88 758.05,301.86 758.40,294.98 758.75,288.30 759.10,278.01 759.45,281.65 759.80,286.79 760.15,288.51 760.50,292.42 760.85,293.47 761.20,285.63 761.55,284.63 761.90,279.24 762.25,277.43 762.60,275.79 762.95,283.38 763.30,284.70 763.65,288.46 764.00,295.39 764.35,294.08 764.70,288.88 765.05,287.29 765.40,287.25 765.75,284.10 766.10,277.30 766.45,276.68 766.80,277.37 767.15,273.32 767.50,275.23 767.85,275.05 768.20,278.30 768.55,281.89 768.90,283.82 769.25,284.95 769.60,288.51 769.95,288.79 770.30,292.53 770.65,293.67 771.00,296.59 771.35,288.31 771.70,296.02 772.05,295.39 772.40,289.04 772.75,296.89 773.10,302.63 773.45,294.71 773.80,297.46 774.15,295.91 774.50,297.27 774.85,297.92 775.20,290.53 775.55,292.56 775.90,287.30 776.25,283.27 776.60,278.49 776.95,275.10 777.30,276.80 777.65,267.31 778.00,270.69 778.35,270.21 778.70,280.45 779.05,286.64 779.40,288.33 779.75,283.96 780.10,294.19 780.45,284.97 780.80,280.22 781.15,281.50 781.50,289.26 781.85,286.70 782.20,279.67 782.55,283.79 782.90,284.64 783.25,286.10 783.60,288.76 783.95,282.55 784.30,289.72 784.65,288.36 785.00,292.71"/>
<line x1="813" y1="102" x2="839" y2="102" stroke="#059669" stroke-width="3"/>
<text x="847" y="106" font-family="Arial" font-size="13" fill="#111827">trending</text>
<text x="435.0" y="518" text-anchor="middle" font-family="Arial" font-size="14" fill="#111827">Event index</text>
<text x="22" y="256.0" text-anchor="middle" transform="rotate(-90 22 256.0)" font-family="Arial" font-size="14" fill="#111827">Net PnL after fees</text>
</svg>
