<svg xmlns="http://www.w3.org/2000/svg" width="940" height="540" viewBox="0 0 940 540">
<rect width="100%" height="100%" fill="#ffffff"/>
<text x="470.0" y="26" text-anchor="middle" font-family="Arial" font-size="18" fill="#111827">Naive Inventory By Regime</text>
<line x1="85" y1="470" x2="785" y2="470" stroke="#111827" stroke-width="1"/>
<line x1="85" y1="42" x2="85" y2="470" stroke="#111827" stroke-width="1"/>
<line x1="85.00" y1="42" x2="85.00" y2="470" stroke="#e5e7eb" stroke-width="1"/>
<text x="85.00" y="494" text-anchor="middle" font-family="Arial" font-size="12" fill="#374151">0</text>
<line x1="260.00" y1="42" x2="260.00" y2="470" stroke="#e5e7eb" stroke-width="1"/>
<text x="260.00" y="494" text-anchor="middle" font-family="Arial" font-size="12" fill="#374151">50000</text>
<line x1="435.00" y1="42" x2="435.00" y2="470" stroke="#e5e7eb" stroke-width="1"/>
<text x="435.00" y="494" text-anchor="middle" font-family="Arial" font-size="12" fill="#374151">100000</text>
<line x1="610.00" y1="42" x2="610.00" y2="470" stroke="#e5e7eb" stroke-width="1"/>
<text x="610.00" y="494" text-anchor="middle" font-family="Arial" font-size="12" fill="#374151">149999</text>
<line x1="785.00" y1="42" x2="785.00" y2="470" stroke="#e5e7eb" stroke-width="1"/>
<text x="785.00" y="494" text-anchor="middle" font-family="Arial" font-size="12" fill="#374151">199999</text>
<line x1="85" y1="470.00" x2="785" y2="470.00" stroke="#e5e7eb" stroke-width="1"/>
<text x="73" y="474.00" text-anchor="end" font-family="Arial" font-size="12" fill="#374151">-29805</text>
<line x1="85" y1="363.00" x2="785" y2="363.00" stroke="#e5e7eb" stroke-width="1"/>
<text x="73" y="367.00" text-anchor="end" font-family="Arial" font-size="12" fill="#374151">-3508</text>
<line x1="85" y1="256.00" x2="785" y2="256.00" stroke="#e5e7eb" stroke-width="1"/>
<text x="73" y="260.00" text-anchor="end" font-family="Arial" font-size="12" fill="#374151">22789</text>
<line x1="85" y1="149.00" x2="785" y2="149.00" stroke="#e5e7eb" stroke-width="1"/>
<text x="73" y="153.00" text-anchor="end" font-family="Arial" font-size="12" fill="#374151">49085</text>
<line x1="85" y1="42.00" x2="785" y2="42.00" stroke="#e5e7eb" stroke-width="1"/>
<text x="73" y="46.00" text-anchor="end" font-family="Arial" font-size="12" fill="#374151">75382</text>
<polyline fill="none" stroke="#2563eb" stroke-width="2" points="85.00,348.72 85.35,348.75 85.70,348.67 86.05,348.75 86.40,348.89 86.75,348.78 87.10,348.72 87.45,348.74 87.80,348.66 88.15,348.76 88.50,348.73 88.85,348.81 89.20,348.98 89.55,349.07 89.90,349.11 90.25,348.98 90.60,349.01 90.95,349.24 91.30,349.28 91.65,349.48 92.00,349.44 92.35,349.56 92.70,349.68 93.05,349.60 93.40,349.65 93.75,349.69 94.10,349.75 94.45,349.87 94.80,349.86 95.15,349.78 95.50,349.68 95.85,349.74 96.20,349.58 96.55,349.62 96.90,349.72 97.25,349.84 97.60,349.85 97.95,349.97 98.30,350.01 98.65,349.93 99.00,349.80 99.35,349.80 99.70,349.83 100.05,349.87 100.40,349.92 100.75,349.84 101.10,349.97 101.45,349.85 101.80,349.84 102.15,349.75 102.50,349.80 102.85,349.92 103.20,350.03 103.55,350.07 103.90,350.05 104.25,350.09 104.60,350.11 104.95,350.08 105.30,350.08 105.65,350.16 106.00,350.22 106.35,350.16 106.70,350.05 107.05,350.09 107.40,350.05 107.75,350.06 108.10,349.98 108.45,350.10 108.80,349.88 109.15,349.72 109.50,349.40 109.85,349.07 110.20,348.99 110.55,348.99 110.90,349.03 111.25,349.18 111.60,349.14 111.95,349.10 112.30,349.16 112.65,349.08 113.00,349.20 113.35,349.16 113.70,349.29 114.05,349.25 114.40,349.30 114.75,349.36 115.10,349.31 115.45,349.27 115.80,349.20 116.15,349.20 116.50,349.40 116.85,349.32 117.20,349.25 117.55,349.24 117.90,349.12 118.25,349.07 118.60,349.00 118.95,348.89 119.30,348.64 119.65,348.32 120.00,348.11 120.35,347.75 120.70,347.46 121.05,347.19 121.40,347.06 121.75,347.06 122.10,346.90 122.45,346.91 122.80,346.90 123.15,346.90 123.50,346.90 123.85,346.93 124.20,347.01 124.55,346.98 124.90,346.98 125.25,346.94 125.60,346.78 125.95,346.66 126.30,346.71 126.65,346.80 127.00,346.83 127.35,346.87 127.70,347.03 128.05,346.85 128.40,346.97 128.75,346.93 129.10,346.92 129.45,346.76 129.80,346.82 130.15,346.84 130.50,346.88 130.85,346.92 131.20,346.92 131.55,346.80 131.90,346.70 132.25,346.58 132.60,346.49 132.95,346.45 133.30,346.37 133.65,346.41 134.00,346.37 134.35,346.21 134.70,346.30 135.05,346.34 135.40,346.34 135.75,346.49 136.10,346.42 136.45,346.50 136.80,346.46 137.15,346.34 137.50,346.34 137.85,346.35 138.20,346.35 138.55,346.44 138.90,346.36 139.25,346.34 139.60,346.34 139.95,346.25 140.30,346.17 140.65,346.16 141.00,345.96 141.35,345.92 141.70,345.90 142.05,345.84 142.40,345.78 142.75,345.64 143.10,345.64 143.45,345.56 143.80,345.53 144.15,345.58 144.50,345.62 144.85,345.72 145.20,345.72 145.55,345.51 145.90,345.31 146.25,345.03 146.60,344.78 146.95,344.45 147.30,344.25 147.65,344.07 148.00,344.03 148.35,344.19 148.70,344.26 149.05,344.31 149.40,344.26 149.75,344.26 150.10,344.46 150.45,344.54 150.80,344.53 151.15,344.61 151.50,344.81 151.85,344.61 152.20,344.29 152.55,344.08 152.90,343.84 153.25,343.59 153.60,343.31 153.95,343.28 154.30,343.36 154.65,342.99 155.00,342.68 155.35,342.44 155.70,342.40 156.05,342.23 156.40,342.28 156.75,342.32 157.10,342.32 157.45,342.20 157.80,342.22 158.15,342.34 158.50,342.26 158.85,342.30 159.20,342.34 159.55,342.10 159.90,342.06 160.25,341.93 160.60,341.84 160.95,341.92 161.30,342.00 161.65,341.84 162.00,341.80 162.35,341.82 162.70,341.82 163.05,341.86 163.40,341.69 163.75,341.72 164.10,341.77 164.45,341.49 164.80,341.21 165.15,341.09 165.50,341.13 165.85,341.24 166.20,341.24 166.55,341.28 166.90,341.14 167.25,340.86 167.60,340.57 167.95,340.42 168.30,340.36 168.65,340.48 169.00,340.58 169.35,340.75 169.70,340.77 170.05,340.77 170.40,340.70 170.75,340.62 171.10,340.58 171.45,340.74 171.80,340.74 172.15,340.74 172.50,340.74 172.85,340.98 173.20,340.94 173.55,340.86 173.90,340.94 174.25,340.82 174.60,340.89 174.95,340.89 175.30,340.96 175.65,340.96 176.00,341.16 176.35,341.09 176.70,341.19 177.05,341.18 177.40,341.18 177.75,341.23 178.10,341.07 178.45,340.97 178.80,341.06 179.15,341.02 179.50,341.05 179.85,341.08 180.20,341.12 180.55,341.06 180.90,341.27 181.25,341.27 181.60,341.35 181.95,341.40 182.30,341.44 182.65,341.33 183.00,341.36 183.35,341.44 183.70,341.52 184.05,341.27 184.40,340.95 184.75,340.62 185.10,340.34 185.45,339.99 185.80,339.76 186.15,339.50 186.50,339.20 186.85,338.80 187.20,338.54 187.55,338.55 187.90,338.26 188.25,337.94 188.60,337.73 188.95,337.42 189.30,337.12 189.65,336.75 190.00,336.38 190.35,336.01 190.70,335.63 191.05,335.38 191.40,335.14 191.75,334.96 192.10,334.68 192.45,334.48 192.80,334.23 193.15,333.99 193.50,333.68 193.85,333.44 194.20,333.12 194.55,332.85 194.90,332.56 195.25,332.25 195.60,331.89 195.95,331.56 196.30,331.28 196.65,330.95 197.00,330.63 197.35,330.42 197.70,330.26 198.05,330.02 198.40,329.65 198.75,329.29 199.10,329.03 199.45,328.79 199.80,328.57 200.15,328.25 200.50,327.92 200.85,327.68 201.20,327.46 201.55,327.10 201.90,326.98 202.25,326.64 202.60,326.37 202.95,326.04 203.30,325.76 203.65,325.39 204.00,325.19 204.35,324.98 204.70,324.82 205.05,324.55 205.40,324.35 205.75,323.99 206.10,323.71 206.45,323.34 206.80,323.06 207.15,322.70 207.50,322.35 207.85,322.15 208.20,321.87 208.55,321.58 208.90,321.26 209.25,321.04 209.60,320.79 209.95,320.47 210.30,320.10 210.65,319.81 211.00,319.53 211.35,319.37 211.70,319.00 212.05,318.76 212.40,318.39 212.75,318.47 213.10,318.36 213.45,318.44 213.80,318.40 214.15,318.37 214.50,318.53 214.85,318.65 215.20,318.57 215.55,318.64 215.90,318.68 216.25,318.68 216.60,318.85 216.95,318.93 217.30,318.97 217.65,319.05 218.00,319.34 218.35,319.38 218.70,319.30 219.05,319.36 219.40,319.51 219.75,319.49 220.10,319.61 220.45,319.77 220.80,320.14 221.15,320.18 221.50,320.15 221.85,320.26 222.20,320.38 222.55,320.46 222.90,320.58 223.25,320.48 223.60,320.40 223.95,320.36 224.30,320.28 224.65,320.27 225.00,320.35 225.35,320.38 225.70,320.39 226.05,320.34 226.40,320.34 226.75,320.27 227.10,320.34 227.45,320.22 227.80,320.14 228.15,320.19 228.50,319.99 228.85,319.99 229.20,320.03 229.55,320.15 229.90,320.12 230.25,320.31 230.60,320.16 230.95,320.08 231.30,320.20 231.65,320.28 232.00,320.20 232.35,320.04 232.70,320.08 233.05,320.31 233.40,320.27 233.75,320.28 234.10,320.29 234.45,319.92 234.80,319.62 235.15,319.45 235.50,319.21 235.85,319.17 236.20,319.17 236.55,319.25 236.90,319.33 237.25,319.28 237.60,319.20 237.95,319.29 238.30,319.25 238.65,319.10 239.00,319.14 239.35,319.16 239.70,319.11 240.05,319.15 240.40,319.11 240.75,318.97 241.10,319.05 241.45,318.85 241.80,318.69 242.15,318.48 242.50,318.28 242.85,318.08 243.20,318.08 243.55,317.88 243.90,317.55 244.25,317.32 244.60,317.03 244.95,317.03 245.30,316.81 245.65,316.52 246.00,316.32 246.35,316.05 246.70,315.79 247.05,315.71 247.40,315.47 247.75,315.22 248.10,314.98 248.45,314.90 248.80,314.59 249.15,314.29 249.50,314.13 249.85,313.89 250.20,314.05 250.55,313.87 250.90,313.87 251.25,313.92 251.60,313.74 251.95,313.49 252.30,313.48 252.65,313.49 253.00,313.45 253.35,313.59 253.70,313.58 254.05,313.62 254.40,313.66 254.75,313.66 255.10,313.70 255.45,313.59 255.80,313.64 256.15,313.64 256.50,313.48 256.85,313.41 257.20,313.24 257.55,313.24 257.90,313.24 258.25,313.38 258.60,313.38 258.95,313.31 259.30,313.13 259.65,313.01 260.00,312.73 260.35,312.47 260.70,312.23 261.05,311.80 261.40,311.58 261.75,311.47 262.10,311.25 262.45,310.93 262.80,310.65 263.15,310.32 263.50,310.12 263.85,309.89 264.20,309.68 264.55,309.33 264.90,308.96 265.25,308.67 265.60,308.32 265.95,307.99 266.30,307.62 266.65,307.42 267.00,307.05 267.35,306.81 267.70,306.46 268.05,306.09 268.40,305.81 268.75,305.49 269.10,305.24 269.45,305.07 269.80,304.82 270.15,304.50 270.50,304.21 270.85,303.85 271.20,303.60 271.55,303.36 271.90,303.18 272.25,302.81 272.60,302.45 272.95,302.08 273.30,301.88 273.65,301.60 274.00,301.27 274.35,300.87 274.70,300.62 275.05,300.32 275.40,300.00 275.75,299.79 276.10,299.49 276.45,299.17 276.80,298.93 277.15,298.64 277.50,298.32 277.85,298.16 278.20,297.93 278.55,297.73 278.90,297.49 279.25,297.20 279.60,296.97 279.95,296.69 280.30,296.36 280.65,296.06 281.00,295.84 281.35,295.56 281.70,295.32 282.05,294.98 282.40,294.69 282.75,294.52 283.10,294.25 283.45,293.98 283.80,293.67 284.15,293.41 284.50,293.22 284.85,292.89 285.20,292.52 285.55,292.32 285.90,292.08 286.25,291.79 286.60,291.55 286.95,291.22 287.30,290.99 287.65,290.67 288.00,290.43 288.35,290.55 288.70,290.60 289.05,290.60 289.40,290.52 289.75,290.60 290.10,290.54 290.45,290.28 290.80,290.03 291.15,289.79 291.50,289.71 291.85,289.70 292.20,289.79 292.55,289.63 292.90,289.46 293.25,289.39 293.60,289.44 293.95,289.58 294.30,289.70 294.65,289.70 295.00,289.66 295.35,289.72 295.70,289.70 296.05,289.64 296.40,289.64 296.75,289.51 297.10,289.54 297.45,289.62 297.80,289.86 298.15,290.07 298.50,290.05 298.85,289.97 299.20,289.93 299.55,290.01 299.90,289.99 300.25,289.97 300.60,290.01 300.95,290.21 301.30,290.50 301.65,290.70 302.00,290.78 302.35,290.78 302.70,290.83 303.05,290.83 303.40,290.88 303.75,290.88 304.10,290.93 304.45,290.88 304.80,290.92 305.15,290.84 305.50,290.92 305.85,291.00 306.20,291.12 306.55,291.20 306.90,291.24 307.25,291.29 307.60,291.12 307.95,291.08 308.30,291.08 308.65,291.15 309.00,291.15 309.35,291.02 309.70,291.18 310.05,291.04 310.40,290.87 310.75,290.78 311.10,290.86 311.45,290.65 311.80,290.57 312.15,290.58 312.50,290.66 312.85,290.66 313.20,290.64 313.55,290.52 313.90,290.52 314.25,290.50 314.60,290.51 314.95,290.43 315.30,290.35 315.65,290.23 316.00,290.39 316.35,290.49 316.70,290.61 317.05,290.82 317.40,291.14 317.75,291.47 318.10,291.73 318.45,292.01 318.80,292.30 319.15,292.62 319.50,292.60 319.85,292.60 320.20,292.64 320.55,292.89 320.90,293.17 321.25,293.44 321.60,293.76 321.95,294.01 322.30,294.21 322.65,294.53 323.00,294.78 323.35,295.02 323.70,295.36 324.05,295.55 324.40,295.76 324.75,296.12 325.10,296.45 325.45,296.73 325.80,297.10 326.15,297.34 326.50,297.63 326.85,297.98 327.20,298.24 327.55,298.41 327.90,298.72 328.25,298.99 328.60,299.39 328.95,299.63 329.30,299.92 329.65,300.24 330.00,300.45 330.35,300.60 330.70,300.48 331.05,300.56 331.40,300.60 331.75,300.64 332.10,300.49 332.45,300.52 332.80,300.48 333.15,300.39 333.50,300.47 333.85,300.43 334.20,300.37 334.55,300.37 334.90,300.23 335.25,300.23 335.60,299.90 335.95,299.56 336.30,299.15 336.65,298.91 337.00,298.62 337.35,298.26 337.70,297.93 338.05,297.61 338.40,297.35 338.75,296.98 339.10,296.62 339.45,296.29 339.80,296.05 340.15,295.80 340.50,295.52 340.85,295.28 341.20,295.28 341.55,295.16 341.90,295.27 342.25,295.19 342.60,295.26 342.95,295.22 343.30,295.14 343.65,294.94 344.00,294.68 344.35,294.51 344.70,294.39 345.05,294.28 345.40,294.21 345.75,294.17 346.10,294.09 346.45,294.14 346.80,293.78 347.15,293.50 347.50,293.21 347.85,293.05 348.20,292.64 348.55,292.36 348.90,292.07 349.25,291.91 349.60,291.67 349.95,291.50 350.30,291.30 350.65,291.05 351.00,290.82 351.35,290.49 351.70,290.16 352.05,289.94 352.40,289.66 352.75,289.33 353.10,288.93 353.45,288.68 353.80,288.40 354.15,288.03 354.50,287.79 354.85,287.50 355.20,287.30 355.55,287.06 355.90,286.85 356.25,286.60 356.60,286.27 356.95,285.95 357.30,285.70 357.65,285.38 358.00,285.15 358.35,284.79 358.70,284.50 359.05,284.26 359.40,283.93 359.75,283.65 360.10,283.36 360.45,283.00 360.80,282.71 361.15,282.52 361.50,282.12 361.85,281.87 362.20,281.59 362.55,281.29 362.90,281.05 363.25,280.72 363.60,280.38 363.95,280.05 364.30,279.80 364.65,279.45 365.00,279.25 365.35,278.93 365.70,278.65 366.05,278.33 366.40,277.97 366.75,277.69 367.10,277.36 367.45,276.95 367.80,276.67 368.15,276.30 368.50,275.99 368.85,275.63 369.20,275.42 369.55,275.06 369.90,274.74 370.25,274.45 370.60,274.21 370.95,273.92 371.30,273.72 371.65,273.43 372.00,273.18 372.35,272.99 372.70,272.68 373.05,272.44 373.40,272.15 373.75,271.94 374.10,271.62 374.45,271.42 374.80,271.09 375.15,270.93 375.50,270.60 375.85,270.28 376.20,270.04 376.55,269.67 376.90,269.47 377.25,269.20 377.60,268.88 377.95,268.66 378.30,268.40 378.65,268.06 379.00,267.90 379.35,267.65 379.70,267.37 380.05,267.08 380.40,266.91 380.75,266.65 381.10,266.41 381.45,266.13 381.80,265.84 382.15,265.60 382.50,265.23 382.85,264.91 383.20,264.60 383.55,264.27 383.90,264.07 384.25,263.70 384.60,263.26 384.95,262.97 385.30,262.63 385.65,262.26 386.00,261.98 386.35,261.74 386.70,261.51 387.05,261.27 387.40,260.91 387.75,260.60 388.10,260.28 388.45,260.12 388.80,259.84 389.15,259.48 389.50,259.16 389.85,258.80 390.20,258.55 390.55,258.15 390.90,257.86 391.25,257.63 391.60,257.34 391.95,257.05 392.30,256.85 392.65,256.44 393.00,256.20 393.35,255.85 393.70,255.58 394.05,255.32 394.40,255.03 394.75,254.73 395.10,254.45 395.45,254.21 395.80,253.80 396.15,253.64 396.50,253.35 396.85,253.02 397.20,252.73 397.55,252.41 397.90,252.17 398.25,251.99 398.60,251.66 398.95,251.34 399.30,251.14 399.65,250.85 400.00,250.62 400.35,250.25 400.70,249.89 401.05,249.62 401.40,249.37 401.75,249.18 402.10,248.89 402.45,248.69 402.80,248.49 403.15,248.24 403.50,247.92 403.85,247.67 404.20,247.35 404.55,247.03 404.90,246.66 405.25,246.25 405.60,245.96 405.95,245.68 406.30,245.31 406.65,245.07 407.00,244.62 407.35,244.38 407.70,244.17 408.05,243.90 408.40,243.54 408.75,243.33 409.10,243.05 409.45,242.72 409.80,242.48 410.15,242.15 410.50,241.97 410.85,241.69 411.20,241.48 411.55,241.20 411.90,240.88 412.25,240.65 412.60,240.38 412.95,240.02 413.30,239.69 413.65,239.30 414.00,239.01 414.35,238.64 414.70,238.40 415.05,238.09 415.40,237.88 415.75,237.62 416.10,237.33 416.45,237.11 416.80,236.79 417.15,236.51 417.50,236.30 417.85,236.10 418.20,235.85 418.55,235.58 418.90,235.26 419.25,235.01 419.60,234.58 419.95,234.30 420.30,233.97 420.65,233.70 421.00,233.38 421.35,233.06 421.70,232.77 422.05,232.45 422.40,232.08 422.75,231.76 423.10,231.43 423.45,231.15 423.80,230.94 424.15,230.58 424.50,230.27 424.85,229.95 425.20,229.68 425.55,229.38 425.90,229.24 426.25,228.85 426.60,228.57 426.95,228.26 427.30,228.02 427.65,227.82 428.00,227.53 428.35,227.17 428.70,226.85 429.05,226.62 429.40,226.29 429.75,226.01 430.10,225.80 430.45,225.44 430.80,225.15 431.15,224.91 431.50,224.62 431.85,224.29 432.20,224.05 432.55,223.72 432.90,223.48 433.25,223.11 433.60,222.83 433.95,222.54 434.30,222.18 434.65,221.77 435.00,221.53 435.35,221.31 435.70,221.07 436.05,220.74 436.40,220.58 436.75,220.24 437.10,220.08 437.45,219.84 437.80,219.47 438.15,219.27 438.50,219.06 438.85,218.73 439.20,218.45 439.55,218.10 439.90,217.86 440.25,217.57 440.60,217.28 440.95,217.08 441.30,216.92 441.65,216.55 442.00,216.35 442.35,216.07 442.70,215.78 443.05,215.43 443.40,215.14 443.75,214.80 444.10,214.45 444.45,214.16 444.80,213.88 445.15,213.64 445.50,213.40 445.85,213.16 446.20,212.79 446.55,212.47 446.90,212.14 447.25,211.81 447.60,211.59 447.95,211.22 448.30,210.92 448.65,210.60 449.00,210.21 449.35,210.01 449.70,209.60 450.05,209.27 450.40,209.02 450.75,208.69 451.10,208.33 451.45,207.96 451.80,207.55 452.15,207.23 452.50,206.90 452.85,206.58 453.20,206.23 453.55,205.94 453.90,205.60 454.25,205.36 454.60,205.03 454.95,204.79 455.30,204.47 455.65,204.22 456.00,203.94 456.35,203.62 456.70,203.46 457.05,203.09 457.40,202.77 457.75,202.47 458.10,202.15 458.45,201.80 458.80,201.48 459.15,201.16 459.50,200.87 459.85,200.55 460.20,200.30 460.55,200.06 460.90,200.06 461.25,200.10 461.60,200.07 461.95,200.15 462.30,200.04 462.65,200.12 463.00,200.16 463.35,200.16 463.70,200.08 464.05,200.08 464.40,200.04 464.75,200.03 465.10,199.94 465.45,199.82 465.80,199.78 466.15,199.66 466.50,199.59 466.85,199.27 467.20,198.94 467.55,198.76 467.90,198.40 468.25,198.39 468.60,198.43 468.95,198.56 469.30,198.60 469.65,198.56 470.00,198.48 470.35,198.45 470.70,198.41 471.05,198.37 471.40,198.48 471.75,198.60 472.10,198.53 472.45,198.37 472.80,198.50 473.15,198.33 473.50,198.28 473.85,198.02 474.20,198.06 474.55,198.15 474.90,198.24 475.25,198.36 475.60,198.35 475.95,198.30 476.30,198.51 476.65,198.71 477.00,198.72 477.35,198.64 477.70,198.64 478.05,198.68 478.40,198.57 478.75,198.55 479.10,198.63 479.45,198.76 479.80,198.70 480.15,198.60 480.50,198.52 480.85,198.57 481.20,198.43 481.55,198.33 481.90,198.42 482.25,198.02 482.60,197.78 482.95,197.44 483.30,197.11 483.65,196.82 484.00,196.63 484.35,196.26 484.70,196.07 485.05,195.70 485.40,195.38 485.75,195.09 486.10,194.93 486.45,194.65 486.80,194.39 487.15,194.10 487.50,193.78 487.85,193.53 488.20,193.21 488.55,192.96 488.90,192.63 489.25,192.39 489.60,192.10 489.95,191.86 490.30,191.53 490.65,191.31 491.00,190.98 491.35,190.70 491.70,190.37 492.05,190.04 492.40,189.72 492.75,189.43 493.10,189.23 493.45,188.95 493.80,188.62 494.15,188.30 494.50,188.01 494.85,187.77 495.20,187.51 495.55,187.35 495.90,187.14 496.25,186.88 496.60,186.59 496.95,186.40 497.30,186.11 497.65,185.87 498.00,185.54 498.35,185.22 498.70,184.97 499.05,184.75 499.40,184.38 499.75,184.12 500.10,183.79 500.45,183.50 500.80,183.22 501.15,182.93 501.50,182.63 501.85,182.42 502.20,182.13 502.55,181.81 502.90,181.65 503.25,181.44 503.60,181.32 503.95,181.00 504.30,180.77 504.65,180.37 505.00,180.04 505.35,179.78 505.70,179.45 506.05,179.17 506.40,178.92 506.75,178.53 507.10,178.29 507.45,177.96 507.80,177.57 508.15,177.33 508.50,177.00 508.85,176.69 509.20,176.40 509.55,176.02 509.90,175.73 510.25,175.45 510.60,175.21 510.95,174.89 511.30,174.64 511.65,174.32 512.00,174.07 512.35,173.79 512.70,173.48 513.05,173.20 513.40,172.91 513.75,172.71 514.10,172.51 514.45,172.30 514.80,172.02 515.15,171.87 515.50,171.50 515.85,171.22 516.20,170.81 516.55,170.40 516.90,170.14 517.25,169.90 517.60,169.61 517.95,169.29 518.30,168.96 518.65,168.72 519.00,168.48 519.35,168.15 519.70,167.84 520.05,167.59 520.40,167.35 520.75,167.13 521.10,166.81 521.45,166.52 521.80,166.16 522.15,165.91 522.50,165.66 522.85,165.46 523.20,165.18 523.55,164.93 523.90,164.73 524.25,164.44 524.60,164.11 524.95,163.78 525.30,163.50 525.65,163.14 526.00,162.85 526.35,162.49 526.70,162.24 527.05,161.88 527.40,161.63 527.75,161.46 528.10,161.17 528.45,160.89 528.80,160.48 529.15,160.20 529.50,159.83 529.85,159.59 530.20,159.43 530.55,159.06 530.90,158.69 531.25,158.51 531.60,158.26 531.95,157.98 532.30,157.69 532.65,157.37 533.00,157.04 533.35,156.81 533.70,156.64 534.05,156.33 534.40,156.06 534.75,155.81 535.10,155.49 535.45,155.20 535.80,154.88 536.15,154.58 536.50,154.25 536.85,154.01 537.20,153.76 537.55,153.51 537.90,153.19 538.25,152.82 538.60,152.54 538.95,152.25 539.30,152.01 539.65,151.72 540.00,151.44 540.35,151.19 540.70,150.83 541.05,150.45 541.40,150.16 541.75,149.85 542.10,149.60 542.45,149.36 542.80,149.16 543.15,148.90 543.50,148.62 543.85,148.29 544.20,147.93 544.55,147.57 544.90,147.20 545.25,146.98 545.60,146.61 545.95,146.35 546.30,146.02 546.65,145.82 547.00,145.49 547.35,145.20 547.70,144.88 548.05,144.55 548.40,144.21 548.75,143.92 549.10,143.66 549.45,143.24 549.80,142.87 550.15,142.67 550.50,142.34 550.85,142.08 551.20,141.88 551.55,141.67 551.90,141.27 552.25,141.02 552.60,140.73 552.95,140.35 553.30,139.98 553.65,139.74 554.00,139.51 554.35,139.27 554.70,138.90 555.05,138.66 555.40,138.37 555.75,138.05 556.10,137.76 556.45,137.44 556.80,137.06 557.15,136.73 557.50,136.49 557.85,136.16 558.20,135.92 558.55,135.59 558.90,135.31 559.25,135.02 559.60,134.74 559.95,134.37 560.30,134.04 560.65,133.96 561.00,133.72 561.35,133.43 561.70,133.23 562.05,133.11 562.40,132.74 562.75,132.50 563.10,132.29 563.45,132.08 563.80,131.80 564.15,131.64 564.50,131.39 564.85,131.15 565.20,130.78 565.55,130.50 565.90,130.21 566.25,129.89 566.60,129.68 566.95,129.32 567.30,129.05 567.65,128.80 568.00,128.44 568.35,128.19 568.70,127.83 569.05,127.54 569.40,127.14 569.75,126.81 570.10,126.49 570.45,126.12 570.80,125.84 571.15,125.54 571.50,125.26 571.85,125.07 572.20,124.80 572.55,124.43 572.90,124.13 573.25,123.84 573.60,123.62 573.95,123.25 574.30,122.97 574.65,122.60 575.00,122.29 575.35,121.90 575.70,121.68 576.05,121.31 576.40,120.95 576.75,120.71 577.10,120.47 577.45,120.22 577.80,119.94 578.15,119.57 578.50,119.24 578.85,118.81 579.20,118.61 579.55,118.32 579.90,118.00 580.25,117.71 580.60,117.39 580.95,117.14 581.30,116.85 581.65,116.48 582.00,116.16 582.35,115.87 582.70,115.63 583.05,115.40 583.40,115.04 583.75,114.86 584.10,114.59 584.45,114.32 584.80,114.16 585.15,113.83 585.50,113.52 585.85,113.24 586.20,112.87 586.55,112.63 586.90,112.30 587.25,112.08 587.60,111.87 587.95,111.54 588.30,111.26 588.65,110.94 589.00,110.66 589.35,110.32 589.70,110.07 590.05,109.89 590.40,109.59 590.75,109.24 591.10,108.96 591.45,108.63 591.80,108.33 592.15,108.02 592.50,107.68 592.85,107.40 593.20,107.03 593.55,106.74 593.90,106.41 594.25,106.16 594.60,105.95 594.95,105.63 595.30,105.30 595.65,104.98 596.00,104.70 596.35,104.44 596.70,104.16 597.05,103.91 597.40,103.59 597.75,103.26 598.10,103.06 598.45,102.69 598.80,102.37 599.15,102.04 599.50,101.83 599.85,101.48 600.20,101.24 600.55,100.99 600.90,100.71 601.25,100.38 601.60,100.02 601.95,99.81 602.30,99.45 602.65,99.04 603.00,98.80 603.35,98.59 603.70,98.27 604.05,97.94 604.40,97.66 604.75,97.33 605.10,97.09 605.45,96.80 605.80,96.48 606.15,96.15 606.50,95.86 606.85,95.69 607.20,95.42 607.55,95.10 607.90,94.77 608.25,94.49 608.60,94.32 608.95,93.92 609.30,93.55 609.65,93.27 610.00,92.98 610.35,92.74 610.70,92.42 611.05,92.09 611.40,91.89 611.75,91.52 612.10,91.33 612.45,91.06 612.80,90.81 613.15,90.49 613.50,90.24 613.85,89.92 614.20,89.63 614.55,89.38 614.90,89.09 615.25,88.81 615.60,88.48 615.95,88.20 616.30,87.87 616.65,87.54 617.00,87.26 617.35,87.02 617.70,86.77 618.05,86.74 618.40,86.78 618.75,86.67 619.10,86.81 619.45,86.89 619.80,86.90 620.15,86.86 620.50,87.00 620.85,87.04 621.20,87.08 621.55,87.08 621.90,87.04 622.25,86.98 622.60,87.04 622.95,87.03 623.30,86.91 623.65,86.95 624.00,86.95 624.35,87.03 624.70,87.02 625.05,86.89 625.40,86.89 625.75,86.89 626.10,86.93 626.45,86.96 626.80,87.03 627.15,87.11 627.50,87.07 627.85,87.05 628.20,86.98 628.55,87.01 628.90,86.97 629.25,86.84 629.60,86.82 629.95,86.91 630.30,86.79 630.65,86.71 631.00,86.75 631.35,86.68 631.70,86.71 632.05,86.75 632.40,86.83 632.75,86.86 633.10,86.80 633.45,86.78 633.80,86.94 634.15,86.94 634.50,86.98 634.85,86.90 635.20,86.98 635.55,87.06 635.90,87.14 636.25,87.14 636.60,87.16 636.95,87.04 637.30,86.89 637.65,86.89 638.00,86.86 638.35,86.94 638.70,86.89 639.05,86.96 639.40,86.98 639.75,86.91 640.10,86.96 640.45,86.96 640.80,87.05 641.15,87.05 641.50,87.04 641.85,87.16 642.20,87.12 642.55,87.20 642.90,87.04 643.25,87.17 643.60,87.13 643.95,87.11 644.30,87.11 644.65,86.95 645.00,86.95 645.35,86.87 645.70,86.95 646.05,86.87 646.40,86.87 646.75,86.87 647.10,86.79 647.45,86.83 647.80,86.74 648.15,86.58 648.50,86.49 648.85,86.52 649.20,86.52 649.55,86.64 649.90,86.64 650.25,86.56 650.60,86.60 650.95,86.50 651.30,86.16 651.65,86.05 652.00,86.13 652.35,86.21 652.70,86.35 653.05,86.43 653.40,86.18 653.75,86.06 654.10,85.93 654.45,85.69 654.80,85.49 655.15,85.21 655.50,84.96 655.85,84.68 656.20,84.31 656.55,84.11 656.90,83.86 657.25,83.66 657.60,83.37 657.95,82.97 658.30,82.69 658.65,82.55 659.00,82.48 659.35,82.48 659.70,82.46 660.05,82.42 660.40,82.54 660.75,82.46 661.10,82.31 661.45,82.26 661.80,82.29 662.15,82.23 662.50,82.23 662.85,82.08 663.20,82.09 663.55,81.99 663.90,81.97 664.25,82.04 664.60,82.26 664.95,82.28 665.30,82.33 665.65,82.11 666.00,82.11 666.35,82.39 666.70,82.63 667.05,83.03 667.40,83.20 667.75,83.36 668.10,83.70 668.45,84.10 668.80,84.35 669.15,84.53 669.50,84.67 669.85,84.83 670.20,84.97 670.55,85.25 670.90,85.54 671.25,85.87 671.60,86.20 671.95,86.40 672.30,86.73 672.65,87.02 673.00,87.34 673.35,87.54 673.70,87.75 674.05,87.95 674.40,88.20 674.75,88.46 675.10,88.72 675.45,89.02 675.80,89.16 676.15,89.48 676.50,89.72 676.85,90.01 677.20,90.33 677.55,90.61 677.90,91.02 678.25,91.38 678.60,91.54 678.95,91.90 679.30,92.18 679.65,92.51 680.00,92.47 680.35,92.63 680.70,92.59 681.05,92.76 681.40,92.63 681.75,92.55 682.10,92.48 682.45,92.50 682.80,92.46 683.15,92.50 683.50,92.59 683.85,92.63 684.20,92.51 684.55,92.51 684.90,92.59 685.25,92.59 685.60,92.62 685.95,92.48 686.30,92.43 686.65,92.18 687.00,92.24 687.35,91.95 687.70,91.71 688.05,91.42 688.40,91.22 688.75,90.93 689.10,90.85 689.45,90.57 689.80,90.36 690.15,90.04 690.50,89.88 690.85,89.63 691.20,89.27 691.55,88.93 691.90,88.61 692.25,88.28 692.60,88.00 692.95,87.67 693.30,87.35 693.65,86.94 694.00,86.62 694.35,86.25 694.70,85.97 695.05,85.81 695.40,85.52 695.75,85.21 696.10,84.80 696.45,84.56 696.80,84.23 697.15,84.15 697.50,83.95 697.85,83.76 698.20,83.43 698.55,83.11 698.90,82.74 699.25,82.45 699.60,82.21 699.95,81.93 700.30,81.72 700.65,81.36 701.00,81.21 701.35,80.93 701.70,80.56 702.05,80.34 702.40,80.09 702.75,79.85 703.10,79.77 703.45,79.57 703.80,79.27 704.15,78.95 704.50,78.69 704.85,78.42 705.20,78.21 705.55,77.81 705.90,77.56 706.25,77.32 706.60,77.11 706.95,76.81 707.30,76.60 707.65,76.28 708.00,75.98 708.35,75.98 708.70,75.98 709.05,75.83 709.40,75.79 709.75,75.68 710.10,75.64 710.45,75.60 710.80,75.36 711.15,75.41 711.50,75.49 711.85,75.41 712.20,75.53 712.55,75.49 712.90,75.28 713.25,75.01 713.60,74.64 713.95,74.33 714.30,74.13 714.65,73.76 715.00,73.56 715.35,73.27 715.70,72.99 716.05,72.90 716.40,72.86 716.75,72.86 717.10,72.90 717.45,72.77 717.80,72.73 718.15,72.68 718.50,72.68 718.85,72.72 719.20,72.36 719.55,72.11 719.90,71.91 720.25,71.77 720.60,71.79 720.95,71.82 721.30,71.76 721.65,71.90 722.00,71.77 722.35,71.90 722.70,71.88 723.05,71.92 723.40,72.00 723.75,71.79 724.10,71.63 724.45,71.75 724.80,71.66 725.15,71.78 725.50,71.90 725.85,71.88 726.20,71.84 726.55,71.80 726.90,71.77 727.25,71.71 727.60,71.64 727.95,71.52 728.30,71.68 728.65,71.92 729.00,72.01 729.35,72.41 729.70,72.74 730.05,72.95 730.40,73.10 730.75,73.06 731.10,73.06 731.45,73.02 731.80,73.02 732.15,73.10 732.50,73.10 732.85,72.94 733.20,72.86 733.55,72.96 733.90,72.93 734.25,72.85 734.60,72.98 734.95,73.14 735.30,73.26 735.65,73.24 736.00,73.32 736.35,73.14 736.70,73.13 737.05,73.19 737.40,73.36 737.75,73.34 738.10,73.39 738.45,73.43 738.80,73.41 739.15,73.33 739.50,73.09 739.85,73.13 740.20,73.29 740.55,73.33 740.90,73.23 741.25,73.27 741.60,73.35 741.95,73.28 742.30,73.25 742.65,73.14 743.00,73.18 743.35,73.32 743.70,73.42 744.05,73.36 744.40,73.34 744.75,73.30 745.10,73.30 745.45,73.25 745.80,73.36 746.15,73.53 746.50,73.48 746.85,73.73 747.20,74.05 747.55,74.34 747.90,74.66 748.25,74.84 748.60,75.24 748.95,75.61 749.30,75.90 749.65,76.21 750.00,76.53 750.35,76.90 750.70,77.19 751.05,77.39 751.40,77.59 751.75,77.96 752.10,78.28 752.45,78.56 752.80,78.72 753.15,79.09 753.50,79.42 753.85,79.78 754.20,80.11 754.55,80.39 754.90,80.64 755.25,80.88 755.60,81.21 755.95,81.45 756.30,81.57 756.65,81.77 757.00,82.10 757.35,82.35 757.70,82.74 758.05,82.95 758.40,83.28 758.75,83.50 759.10,83.78 759.45,84.15 759.80,84.47 760.15,84.77 760.50,85.06 760.85,85.42 761.20,85.74 761.55,86.00 761.90,86.24 762.25,86.57 762.60,86.89 762.95,87.25 763.30,87.29 763.65,87.58 764.00,87.80 764.35,88.13 764.70,88.45 765.05,88.70 765.40,88.94 765.75,89.31 766.10,89.65 766.45,89.86 766.80,90.10 767.15,90.37 767.50,90.66 767.85,90.91 768.20,91.11 768.55,91.44 768.90,91.73 769.25,91.98 769.60,92.34 769.95,92.50 770.30,92.79 770.65,92.82 771.00,92.94 771.35,93.27 771.70,93.51 772.05,93.73 772.40,94.02 772.75,94.38 773.10,94.64 773.45,94.89 773.80,95.13 774.15,95.09 774.50,95.34 774.85,95.66 775.20,95.99 775.55,96.37 775.90,96.65 776.25,97.04 776.60,97.29 776.95,97.59 777.30,97.92 777.65,98.20 778.00,98.57 778.35,98.81 778.70,98.97 779.05,99.26 779.40,99.58 779.75,99.77 780.10,100.05 780.45,99.97 780.80,100.26 781.15,100.50 781.50,100.91 781.85,101.23 782.20,101.52 782.55,101.88 782.90,102.17 783.25,102.53 783.60,102.80 783.95,102.93 784.30,103.22 784.65,103.22 785.00,103.16"/>
<line x1="813" y1="54" x2="839" y2="54" stroke="#2563eb" stroke-width="3"/>
<text x="847" y="58" font-family="Arial" font-size="13" fill="#111827">low volatility</text>
<polyline fill="none" stroke="#dc2626" stroke-width="2" points="85.00,348.72 85.35,348.72 85.70,348.59 86.05,348.69 86.40,349.02 86.75,349.32 87.10,349.64 87.45,349.93 87.80,350.17 88.15,350.48 88.50,350.60 88.85,350.75 89.20,350.80 89.55,350.75 89.90,350.55 90.25,350.39 90.60,350.28 90.95,350.25 91.30,350.42 91.65,350.34 92.00,350.30 92.35,350.17 92.70,350.44 93.05,350.52 93.40,350.40 93.75,350.41 94.10,350.54 94.45,350.33 94.80,350.07 95.15,349.99 95.50,349.71 95.85,349.42 96.20,349.06 96.55,348.81 96.90,348.44 97.25,348.24 97.60,347.95 97.95,347.65 98.30,347.49 98.65,347.16 99.00,346.84 99.35,346.63 99.70,346.35 100.05,345.98 100.40,345.62 100.75,345.49 101.10,345.73 101.45,346.06 101.80,346.37 102.15,346.66 102.50,346.99 102.85,347.15 103.20,347.52 103.55,347.84 103.90,348.17 104.25,347.81 104.60,347.61 104.95,347.46 105.30,347.20 105.65,347.12 106.00,347.00 106.35,347.08 106.70,347.28 107.05,347.53 107.40,347.80 107.75,348.00 108.10,348.37 108.45,348.38 108.80,348.06 109.15,348.02 109.50,347.96 109.85,347.80 110.20,347.52 110.55,347.36 110.90,347.08 111.25,346.79 111.60,346.55 111.95,346.47 112.30,346.43 112.65,346.58 113.00,346.63 113.35,346.61 113.70,346.67 114.05,346.79 114.40,346.87 114.75,346.87 115.10,346.86 115.45,346.86 115.80,346.90 116.15,346.94 116.50,346.88 116.85,346.84 117.20,346.91 117.55,346.91 117.90,347.16 118.25,347.48 118.60,347.81 118.95,348.09 119.30,348.38 119.65,348.70 120.00,348.99 120.35,349.32 120.70,349.56 121.05,349.81 121.40,350.02 121.75,350.30 122.10,350.59 122.45,350.89 122.80,351.18 123.15,351.43 123.50,351.75 123.85,352.02 124.20,352.31 124.55,352.55 124.90,352.83 125.25,353.14 125.60,353.34 125.95,353.70 126.30,353.95 126.65,354.30 127.00,354.55 127.35,354.73 127.70,354.93 128.05,354.69 128.40,354.44 128.75,354.12 129.10,353.83 129.45,353.67 129.80,353.62 130.15,353.50 130.50,353.21 130.85,353.14 131.20,353.07 131.55,352.99 131.90,352.71 132.25,352.39 132.60,351.98 132.95,351.65 133.30,351.25 133.65,351.25 134.00,351.08 134.35,351.15 134.70,351.07 135.05,351.37 135.40,351.65 135.75,351.98 136.10,351.94 136.45,352.15 136.80,352.24 137.15,352.52 137.50,352.48 137.85,352.68 138.20,352.77 138.55,352.79 138.90,352.92 139.25,353.20 139.60,353.28 139.95,353.28 140.30,352.95 140.65,353.10 141.00,353.06 141.35,353.11 141.70,353.20 142.05,353.41 142.40,353.62 142.75,353.83 143.10,354.19 143.45,354.48 143.80,354.68 144.15,355.01 144.50,355.37 144.85,355.62 145.20,355.90 145.55,356.23 145.90,356.47 146.25,356.76 146.60,357.00 146.95,357.29 147.30,357.46 147.65,357.70 148.00,357.79 148.35,358.15 148.70,358.45 149.05,358.77 149.40,359.06 149.75,358.90 150.10,359.10 150.45,359.43 150.80,359.67 151.15,359.89 151.50,360.13 151.85,360.28 152.20,360.40 152.55,360.69 152.90,361.05 153.25,361.38 153.60,361.48 153.95,361.68 154.30,361.68 154.65,361.84 155.00,361.89 155.35,362.21 155.70,362.50 156.05,362.66 156.40,362.82 156.75,363.02 157.10,363.14 157.45,363.41 157.80,363.66 158.15,364.02 158.50,364.30 158.85,364.71 159.20,365.03 159.55,365.32 159.90,365.50 160.25,365.59 160.60,365.84 160.95,366.20 161.30,366.38 161.65,366.75 162.00,367.08 162.35,367.24 162.70,367.56 163.05,367.80 163.40,368.12 163.75,368.37 164.10,368.45 164.45,368.49 164.80,368.49 165.15,368.40 165.50,368.36 165.85,368.04 166.20,367.67 166.55,367.52 166.90,367.32 167.25,367.39 167.60,367.69 167.95,367.89 168.30,368.13 168.65,367.93 169.00,367.65 169.35,367.36 169.70,367.06 170.05,366.73 170.40,366.53 170.75,366.32 171.10,366.07 171.45,365.75 171.80,365.48 172.15,365.23 172.50,364.91 172.85,364.58 173.20,364.30 173.55,364.00 173.90,363.72 174.25,363.37 174.60,363.17 174.95,362.93 175.30,362.72 175.65,362.44 176.00,362.16 176.35,361.84 176.70,361.51 177.05,361.27 177.40,360.95 177.75,360.62 178.10,360.38 178.45,360.13 178.80,359.89 179.15,359.57 179.50,359.28 179.85,358.91 180.20,358.58 180.55,358.34 180.90,358.01 181.25,357.77 181.60,357.42 181.95,357.20 182.30,356.91 182.65,356.61 183.00,356.40 183.35,356.20 183.70,355.91 184.05,355.71 184.40,355.42 184.75,355.09 185.10,354.77 185.45,354.44 185.80,354.27 186.15,353.98 186.50,353.66 186.85,353.33 187.20,353.05 187.55,352.81 187.90,352.60 188.25,352.24 188.60,351.99 188.95,351.67 189.30,351.45 189.65,351.17 190.00,350.84 190.35,350.47 190.70,350.23 191.05,349.96 191.40,349.66 191.75,349.29 192.10,348.97 192.45,348.73 192.80,348.49 193.15,348.21 193.50,347.96 193.85,347.76 194.20,347.43 194.55,347.11 194.90,346.85 195.25,346.73 195.60,346.36 195.95,346.12 196.30,345.75 196.65,345.39 197.00,345.06 197.35,344.79 197.70,344.50 198.05,344.30 198.40,344.02 198.75,343.69 199.10,343.41 199.45,343.16 199.80,342.93 200.15,342.55 200.50,342.14 200.85,341.86 201.20,341.58 201.55,341.29 201.90,341.05 202.25,340.73 202.60,340.74 202.95,340.53 203.30,340.33 203.65,340.00 204.00,339.80 204.35,339.52 204.70,339.20 205.05,338.96 205.40,338.72 205.75,338.51 206.10,338.15 206.45,337.90 206.80,337.58 207.15,337.29 207.50,337.01 207.85,336.76 208.20,336.60 208.55,336.23 208.90,335.95 209.25,335.66 209.60,335.34 209.95,335.05 210.30,334.73 210.65,334.40 211.00,334.08 211.35,333.78 211.70,333.46 212.05,333.13 212.40,332.89 212.75,332.48 213.10,332.12 213.45,331.83 213.80,331.50 214.15,331.17 214.50,330.85 214.85,330.48 215.20,330.32 215.55,330.03 215.90,329.63 216.25,329.38 216.60,329.16 216.95,328.87 217.30,328.59 217.65,328.38 218.00,328.12 218.35,327.79 218.70,327.47 219.05,327.40 219.40,327.22 219.75,326.94 220.10,326.61 220.45,326.33 220.80,326.00 221.15,325.80 221.50,325.47 221.85,325.26 222.20,324.99 222.55,324.66 222.90,324.38 223.25,324.17 223.60,323.81 223.95,323.60 224.30,323.32 224.65,323.11 225.00,322.87 225.35,322.67 225.70,322.45 226.05,322.10 226.40,321.73 226.75,321.45 227.10,321.19 227.45,320.86 227.80,320.54 228.15,320.44 228.50,320.40 228.85,320.40 229.20,320.32 229.55,320.40 229.90,320.60 230.25,320.97 230.60,321.22 230.95,321.51 231.30,321.72 231.65,321.98 232.00,322.35 232.35,322.66 232.70,322.90 233.05,323.18 233.40,323.51 233.75,323.80 234.10,324.08 234.45,324.40 234.80,324.64 235.15,325.08 235.50,325.34 235.85,325.51 236.20,325.71 236.55,325.98 236.90,326.26 237.25,326.59 237.60,326.87 237.95,327.13 238.30,327.47 238.65,327.77 239.00,328.01 239.35,328.25 239.70,328.49 240.05,328.70 240.40,328.90 240.75,329.12 241.10,329.32 241.45,329.69 241.80,329.93 242.15,330.29 242.50,330.58 242.85,330.66 243.20,330.66 243.55,330.33 243.90,330.01 244.25,329.72 244.60,329.44 244.95,329.12 245.30,328.71 245.65,328.38 246.00,328.06 246.35,327.73 246.70,327.57 247.05,327.56 247.40,327.61 247.75,327.48 248.10,327.44 248.45,327.40 248.80,327.39 249.15,327.15 249.50,326.86 249.85,326.58 250.20,326.34 250.55,326.06 250.90,325.81 251.25,325.56 251.60,325.28 251.95,325.03 252.30,324.69 252.65,324.52 253.00,324.23 253.35,323.92 253.70,323.52 254.05,323.40 254.40,323.19 254.75,322.87 255.10,322.46 255.45,322.22 255.80,321.89 256.15,321.60 256.50,321.23 256.85,321.04 257.20,320.80 257.55,320.45 257.90,320.09 258.25,319.95 258.60,319.68 258.95,319.31 259.30,318.99 259.65,318.74 260.00,318.50 260.35,318.26 260.70,317.89 261.05,317.67 261.40,317.39 261.75,317.03 262.10,316.79 262.45,316.61 262.80,316.31 263.15,316.11 263.50,315.83 263.85,315.50 264.20,315.38 264.55,315.09 264.90,314.85 265.25,314.65 265.60,314.57 265.95,314.64 266.30,314.69 266.65,314.77 267.00,314.77 267.35,314.60 267.70,314.56 268.05,314.73 268.40,314.81 268.75,314.89 269.10,314.90 269.45,314.82 269.80,314.83 270.15,314.83 270.50,314.78 270.85,314.67 271.20,314.67 271.55,314.75 271.90,315.12 272.25,315.48 272.60,315.53 272.95,315.37 273.30,315.04 273.65,315.04 274.00,314.76 274.35,314.43 274.70,314.22 275.05,314.05 275.40,313.68 275.75,313.39 276.10,313.19 276.45,313.23 276.80,313.45 277.15,313.79 277.50,314.04 277.85,314.32 278.20,314.57 278.55,314.65 278.90,314.57 279.25,314.40 279.60,314.32 279.95,314.40 280.30,314.49 280.65,314.50 281.00,314.58 281.35,314.55 281.70,314.57 282.05,314.57 282.40,314.57 282.75,314.61 283.10,314.33 283.45,314.00 283.80,313.84 284.15,313.80 284.50,313.47 284.85,313.12 285.20,312.83 285.55,312.55 285.90,312.30 286.25,312.06 286.60,311.77 286.95,311.77 287.30,311.62 287.65,311.29 288.00,311.09 288.35,310.72 288.70,310.56 289.05,310.31 289.40,310.09 289.75,309.81 290.10,309.52 290.45,309.31 290.80,309.12 291.15,308.91 291.50,308.54 291.85,308.30 292.20,308.18 292.55,307.81 292.90,307.53 293.25,307.29 293.60,306.96 293.95,306.71 294.30,306.43 294.65,306.14 295.00,305.82 295.35,305.53 295.70,305.29 296.05,305.01 296.40,304.68 296.75,304.52 297.10,304.72 297.45,304.61 297.80,304.40 298.15,304.28 298.50,304.31 298.85,304.39 299.20,304.47 299.55,304.14 299.90,303.83 300.25,303.59 300.60,303.32 300.95,303.00 301.30,302.59 301.65,302.18 302.00,301.78 302.35,301.45 302.70,301.22 303.05,300.90 303.40,300.58 303.75,300.30 304.10,299.97 304.45,299.71 304.80,299.46 305.15,299.17 305.50,298.86 305.85,298.41 306.20,298.25 306.55,298.00 306.90,297.80 307.25,297.51 307.60,297.48 307.95,297.62 308.30,297.51 308.65,297.50 309.00,297.83 309.35,298.19 309.70,298.48 310.05,298.75 310.40,299.11 310.75,299.36 311.10,299.68 311.45,299.94 311.80,300.15 312.15,300.43 312.50,300.66 312.85,300.83 313.20,301.12 313.55,301.48 313.90,301.65 314.25,301.93 314.60,302.09 314.95,302.19 315.30,302.47 315.65,302.72 316.00,302.88 316.35,302.84 316.70,302.67 317.05,302.39 317.40,301.98 317.75,301.78 318.10,301.78 318.45,301.44 318.80,301.07 319.15,300.88 319.50,300.59 319.85,300.31 320.20,299.94 320.55,299.72 320.90,299.39 321.25,299.11 321.60,298.70 321.95,298.44 322.30,298.29 322.65,297.96 323.00,297.79 323.35,297.48 323.70,297.20 324.05,296.92 324.40,296.59 324.75,296.30 325.10,296.05 325.45,295.80 325.80,295.61 326.15,295.23 326.50,295.07 326.85,294.74 327.20,294.54 327.55,294.34 327.90,294.09 328.25,293.85 328.60,293.67 328.95,293.38 329.30,293.02 329.65,292.69 330.00,292.33 330.35,291.96 330.70,291.79 331.05,291.63 331.40,291.50 331.75,291.14 332.10,290.94 332.45,290.58 332.80,290.21 333.15,289.92 333.50,289.72 333.85,289.41 334.20,289.10 334.55,288.77 334.90,288.57 335.25,288.24 335.60,287.98 335.95,287.61 336.30,287.37 336.65,287.08 337.00,286.75 337.35,286.47 337.70,286.10 338.05,285.91 338.40,285.66 338.75,285.46 339.10,285.14 339.45,284.85 339.80,284.53 340.15,284.17 340.50,283.84 340.85,283.61 341.20,283.37 341.55,283.00 341.90,282.80 342.25,282.60 342.60,282.28 342.95,281.99 343.30,281.75 343.65,281.51 344.00,281.27 344.35,280.86 344.70,280.50 345.05,280.18 345.40,279.89 345.75,279.53 346.10,279.33 346.45,279.08 346.80,278.83 347.15,278.55 347.50,278.14 347.85,277.82 348.20,277.53 348.55,277.16 348.90,276.89 349.25,276.61 349.60,276.28 349.95,276.04 350.30,275.74 350.65,275.49 351.00,275.17 351.35,274.94 351.70,274.61 352.05,274.25 352.40,273.88 352.75,273.60 353.10,273.19 353.45,272.95 353.80,272.75 354.15,272.39 354.50,272.10 354.85,271.78 355.20,271.50 355.55,271.09 355.90,270.76 356.25,270.40 356.60,270.11 356.95,269.99 357.30,269.74 357.65,269.58 358.00,269.34 358.35,269.36 358.70,269.38 359.05,269.30 359.40,269.06 359.75,268.77 360.10,268.49 360.45,268.36 360.80,268.38 361.15,268.38 361.50,268.48 361.85,268.45 362.20,268.57 362.55,268.52 362.90,268.53 363.25,268.65 363.60,268.69 363.95,268.65 364.30,268.63 364.65,268.59 365.00,268.79 365.35,268.94 365.70,269.28 366.05,269.53 366.40,269.77 366.75,270.06 367.10,270.26 367.45,270.59 367.80,270.87 368.15,271.15 368.50,271.44 368.85,271.80 369.20,272.01 369.55,272.36 369.90,272.27 370.25,272.29 370.60,272.20 370.95,272.28 371.30,272.27 371.65,271.89 372.00,271.52 372.35,271.15 372.70,270.99 373.05,270.63 373.40,270.46 373.75,270.42 374.10,270.48 374.45,270.38 374.80,270.26 375.15,270.30 375.50,270.39 375.85,270.15 376.20,269.99 376.55,269.70 376.90,269.42 377.25,269.15 377.60,268.75 377.95,268.49 378.30,268.21 378.65,267.92 379.00,267.60 379.35,267.31 379.70,266.95 380.05,266.77 380.40,266.45 380.75,266.15 381.10,265.78 381.45,265.54 381.80,265.17 382.15,264.93 382.50,264.62 382.85,264.33 383.20,264.01 383.55,263.73 383.90,263.48 384.25,263.24 384.60,263.34 384.95,263.46 385.30,263.69 385.65,263.66 386.00,263.50 386.35,263.42 386.70,263.61 387.05,263.73 387.40,263.48 387.75,263.32 388.10,263.31 388.45,263.27 388.80,263.37 389.15,263.53 389.50,263.65 389.85,263.81 390.20,263.86 390.55,263.77 390.90,264.07 391.25,264.28 391.60,264.48 391.95,264.85 392.30,265.17 392.65,265.45 393.00,265.41 393.35,265.41 393.70,265.49 394.05,265.82 394.40,266.06 394.75,266.39 395.10,266.51 395.45,266.59 395.80,266.84 396.15,266.97 396.50,266.85 396.85,266.97 397.20,267.05 397.55,267.28 397.90,267.60 398.25,267.93 398.60,268.25 398.95,268.45 399.30,268.82 399.65,268.98 400.00,269.26 400.35,269.49 400.70,269.53 401.05,269.51 401.40,269.48 401.75,269.47 402.10,269.43 402.45,269.19 402.80,269.02 403.15,268.79 403.50,268.46 403.85,268.26 404.20,268.24 404.55,268.08 404.90,268.12 405.25,268.00 405.60,267.92 405.95,267.76 406.30,267.56 406.65,267.35 407.00,266.96 407.35,266.67 407.70,266.37 408.05,266.16 408.40,266.47 408.75,266.48 409.10,266.64 409.45,266.97 409.80,267.31 410.15,267.60 410.50,267.88 410.85,268.09 411.20,268.37 411.55,268.66 411.90,268.94 412.25,269.14 412.60,269.43 412.95,269.63 413.30,269.75 413.65,269.94 414.00,270.17 414.35,270.38 414.70,270.74 415.05,271.11 415.40,271.48 415.75,271.76 416.10,271.88 416.45,271.72 416.80,271.55 417.15,271.28 417.50,271.00 417.85,271.02 418.20,271.11 418.55,271.39 418.90,271.64 419.25,271.84 419.60,272.02 419.95,272.31 420.30,272.55 420.65,272.83 421.00,273.13 421.35,273.42 421.70,273.74 422.05,273.99 422.40,274.39 422.75,274.76 423.10,275.09 423.45,275.38 423.80,275.74 424.15,275.98 424.50,276.27 424.85,276.55 425.20,277.00 425.55,277.20 425.90,277.49 426.25,277.66 426.60,277.95 426.95,278.27 427.30,278.56 427.65,278.87 428.00,279.19 428.35,279.43 428.70,279.76 429.05,280.05 429.40,280.36 429.75,280.56 430.10,280.95 430.45,281.31 430.80,281.64 431.15,281.85 431.50,282.05 431.85,282.34 432.20,282.62 432.55,282.95 432.90,283.19 433.25,283.43 433.60,283.76 433.95,284.08 434.30,284.37 434.65,284.69 435.00,284.98 435.35,285.34 435.70,285.42 436.05,285.59 436.40,285.91 436.75,286.03 437.10,285.87 437.45,285.87 437.80,285.85 438.15,285.77 438.50,285.94 438.85,285.89 439.20,285.77 439.55,285.86 439.90,285.78 440.25,285.92 440.60,285.96 440.95,285.92 441.30,286.16 441.65,286.57 442.00,286.63 442.35,286.73 442.70,286.98 443.05,287.23 443.40,287.51 443.75,287.72 444.10,287.88 444.45,288.12 444.80,288.45 445.15,288.66 445.50,288.86 445.85,289.18 446.20,289.51 446.55,289.81 446.90,290.05 447.25,290.50 447.60,290.62 447.95,290.97 448.30,291.18 448.65,291.58 449.00,291.91 449.35,292.19 449.70,292.47 450.05,292.83 450.40,293.16 450.75,293.36 451.10,293.61 451.45,293.84 451.80,294.13 452.15,294.45 452.50,294.78 452.85,295.06 453.20,295.39 453.55,295.67 453.90,295.99 454.25,296.28 454.60,296.55 454.95,296.88 455.30,297.20 455.65,297.49 456.00,297.77 456.35,297.93 456.70,298.21 457.05,298.54 457.40,298.95 457.75,299.18 458.10,299.44 458.45,299.80 458.80,300.13 459.15,300.45 459.50,300.66 459.85,300.98 460.20,301.31 460.55,301.63 460.90,301.85 461.25,302.17 461.60,302.58 461.95,302.90 462.30,303.23 462.65,303.43 463.00,303.51 463.35,303.47 463.70,303.52 464.05,303.49 464.40,303.41 464.75,303.44 465.10,303.36 465.45,303.24 465.80,303.26 466.15,303.34 466.50,303.34 466.85,303.43 467.20,303.59 467.55,303.64 467.90,303.88 468.25,304.12 468.60,304.24 468.95,304.24 469.30,304.60 469.65,304.93 470.00,305.29 470.35,305.54 470.70,305.81 471.05,306.18 471.40,306.46 471.75,306.71 472.10,306.95 472.45,307.20 472.80,307.52 473.15,307.81 473.50,308.05 473.85,308.26 474.20,308.50 474.55,308.82 474.90,309.08 475.25,309.41 475.60,309.70 475.95,310.06 476.30,310.22 476.65,310.55 477.00,310.88 477.35,311.16 477.70,311.40 478.05,311.65 478.40,311.85 478.75,312.10 479.10,312.22 479.45,312.18 479.80,312.30 480.15,312.53 480.50,312.25 480.85,312.09 481.20,312.09 481.55,311.84 481.90,311.85 482.25,311.73 482.60,311.60 482.95,311.77 483.30,311.97 483.65,312.25 484.00,312.46 484.35,312.74 484.70,313.10 485.05,313.46 485.40,313.86 485.75,314.22 486.10,314.37 486.45,314.69 486.80,315.03 487.15,315.31 487.50,315.60 487.85,315.84 488.20,316.05 488.55,316.33 488.90,316.62 489.25,316.98 489.60,317.23 489.95,317.59 490.30,317.89 490.65,318.20 491.00,318.52 491.35,318.81 491.70,318.92 492.05,319.33 492.40,319.55 492.75,319.75 493.10,319.48 493.45,319.52 493.80,319.32 494.15,319.48 494.50,319.36 494.85,319.57 495.20,319.88 495.55,320.19 495.90,320.60 496.25,320.92 496.60,321.17 496.95,321.45 497.30,321.71 497.65,321.71 498.00,321.63 498.35,321.58 498.70,321.83 499.05,321.90 499.40,322.18 499.75,322.55 500.10,322.83 500.45,322.43 500.80,322.14 501.15,321.82 501.50,321.78 501.85,321.49 502.20,321.29 502.55,321.00 502.90,320.72 503.25,320.42 503.60,320.21 503.95,319.88 504.30,319.56 504.65,319.26 505.00,318.96 505.35,318.76 505.70,318.72 506.05,318.55 506.40,318.55 506.75,318.55 507.10,318.53 507.45,318.45 507.80,318.50 508.15,318.68 508.50,318.59 508.85,318.55 509.20,318.67 509.55,319.00 509.90,319.00 510.25,319.05 510.60,319.05 510.95,319.12 511.30,319.34 511.65,319.59 512.00,319.87 512.35,320.12 512.70,320.43 513.05,320.76 513.40,321.08 513.75,321.41 514.10,321.76 514.45,322.13 514.80,322.29 515.15,322.66 515.50,322.87 515.85,323.24 516.20,323.53 516.55,323.49 516.90,323.56 517.25,323.89 517.60,324.13 517.95,324.52 518.30,324.85 518.65,325.17 519.00,325.38 519.35,325.62 519.70,325.99 520.05,326.23 520.40,326.28 520.75,326.28 521.10,326.21 521.45,326.25 521.80,326.21 522.15,326.29 522.50,326.29 522.85,326.32 523.20,326.31 523.55,326.31 523.90,326.59 524.25,326.47 524.60,326.44 524.95,326.15 525.30,326.19 525.65,326.15 526.00,326.05 526.35,326.13 526.70,326.05 527.05,326.08 527.40,326.17 527.75,326.45 528.10,326.68 528.45,326.72 528.80,326.85 529.15,326.65 529.50,326.25 529.85,326.00 530.20,325.75 530.55,325.50 530.90,325.21 531.25,325.10 531.60,325.12 531.95,325.21 532.30,325.49 532.65,325.54 533.00,325.42 533.35,325.17 533.70,324.92 534.05,324.64 534.40,324.40 534.75,324.08 535.10,323.71 535.45,323.35 535.80,323.02 536.15,322.76 536.50,322.46 536.85,322.06 537.20,321.69 537.55,321.41 537.90,321.11 538.25,320.83 538.60,320.62 538.95,320.46 539.30,320.14 539.65,319.94 540.00,319.62 540.35,319.37 540.70,319.05 541.05,318.73 541.40,318.43 541.75,318.11 542.10,317.76 542.45,317.45 542.80,317.09 543.15,316.83 543.50,316.50 543.85,316.24 544.20,316.00 544.55,315.79 544.90,315.51 545.25,315.20 545.60,315.00 545.95,314.80 546.30,314.79 546.65,314.58 547.00,314.53 547.35,314.61 547.70,314.84 548.05,315.01 548.40,315.38 548.75,315.62 549.10,315.90 549.45,316.31 549.80,316.64 550.15,317.04 550.50,317.29 550.85,317.53 551.20,317.78 551.55,318.14 551.90,318.41 552.25,318.65 552.60,318.94 552.95,319.22 553.30,319.46 553.65,319.75 554.00,319.95 554.35,320.28 554.70,320.49 555.05,320.87 555.40,321.16 555.75,321.44 556.10,321.73 556.45,322.05 556.80,322.38 557.15,322.71 557.50,322.97 557.85,323.24 558.20,323.60 558.55,323.84 558.90,324.17 559.25,324.42 559.60,324.66 559.95,324.74 560.30,324.59 560.65,324.48 561.00,324.51 561.35,324.59 561.70,324.59 562.05,324.66 562.40,324.64 562.75,324.28 563.10,324.03 563.45,323.67 563.80,323.39 564.15,323.20 564.50,322.95 564.85,322.60 565.20,322.19 565.55,321.88 565.90,321.55 566.25,321.23 566.60,320.98 566.95,320.71 567.30,320.48 567.65,320.23 568.00,319.90 568.35,319.66 568.70,319.45 569.05,319.17 569.40,318.88 569.75,318.68 570.10,318.31 570.45,317.94 570.80,317.91 571.15,317.87 571.50,317.91 571.85,317.91 572.20,317.71 572.55,317.38 572.90,317.06 573.25,316.69 573.60,316.41 573.95,316.17 574.30,315.97 574.65,315.90 575.00,315.90 575.35,315.98 575.70,315.94 576.05,315.98 576.40,316.10 576.75,316.17 577.10,316.24 577.45,316.20 577.80,316.13 578.15,316.11 578.50,316.19 578.85,316.40 579.20,316.76 579.55,317.04 579.90,317.29 580.25,317.53 580.60,317.78 580.95,318.11 581.30,318.26 581.65,318.58 582.00,318.74 582.35,318.87 582.70,319.01 583.05,318.99 583.40,319.11 583.75,319.48 584.10,319.84 584.45,320.11 584.80,320.33 585.15,320.61 585.50,320.94 585.85,321.34 586.20,321.59 586.55,321.83 586.90,322.20 587.25,322.35 587.60,322.51 587.95,322.79 588.30,323.04 588.65,323.36 589.00,323.66 589.35,324.02 589.70,324.36 590.05,324.73 590.40,325.05 590.75,325.26 591.10,325.62 591.45,325.83 591.80,326.09 592.15,326.49 592.50,326.78 592.85,327.07 593.20,327.24 593.55,327.41 593.90,327.63 594.25,327.83 594.60,328.10 594.95,328.34 595.30,328.48 595.65,328.81 596.00,329.07 596.35,329.36 596.70,329.52 597.05,329.84 597.40,330.11 597.75,330.39 598.10,330.60 598.45,330.76 598.80,331.06 599.15,331.42 599.50,331.71 599.85,332.04 600.20,332.24 600.55,332.57 600.90,332.89 601.25,333.18 601.60,333.38 601.95,333.66 602.30,334.02 602.65,334.21 603.00,334.45 603.35,334.71 603.70,334.96 604.05,335.30 604.40,335.59 604.75,335.79 605.10,335.99 605.45,335.99 605.80,336.28 606.15,336.56 606.50,336.77 606.85,337.01 607.20,337.17 607.55,337.05 607.90,336.77 608.25,336.56 608.60,336.32 608.95,336.03 609.30,335.79 609.65,335.63 610.00,335.30 610.35,335.10 610.70,334.81 611.05,334.53 611.40,334.24 611.75,334.00 612.10,333.73 612.45,333.77 612.80,334.01 613.15,334.17 613.50,334.26 613.85,334.50 614.20,334.47 614.55,334.32 614.90,334.03 615.25,334.07 615.60,334.03 615.95,334.15 616.30,334.04 616.65,334.19 617.00,334.45 617.35,334.34 617.70,334.27 618.05,333.99 618.40,333.62 618.75,333.18 619.10,332.90 619.45,332.61 619.80,332.29 620.15,331.92 620.50,331.59 620.85,331.19 621.20,330.90 621.55,330.50 621.90,330.22 622.25,329.94 622.60,329.57 622.95,329.29 623.30,329.00 623.65,328.76 624.00,328.47 624.35,328.23 624.70,327.86 625.05,327.58 625.40,327.29 625.75,327.05 626.10,326.73 626.45,326.48 626.80,326.32 627.15,326.30 627.50,326.61 627.85,326.65 628.20,326.85 628.55,327.13 628.90,327.42 629.25,327.63 629.60,327.71 629.95,327.83 630.30,328.16 630.65,328.47 631.00,328.79 631.35,328.91 631.70,328.90 632.05,328.84 632.40,328.64 632.75,328.46 633.10,328.21 633.45,328.22 633.80,328.34 634.15,328.34 634.50,328.38 634.85,328.69 635.20,328.73 635.55,328.32 635.90,328.03 636.25,327.67 636.60,327.34 636.95,327.07 637.30,326.91 637.65,326.91 638.00,326.75 638.35,326.47 638.70,326.26 639.05,326.06 639.40,325.69 639.75,325.44 640.10,325.15 640.45,324.81 640.80,324.45 641.15,324.14 641.50,323.90 641.85,323.98 642.20,323.86 642.55,323.58 642.90,323.33 643.25,323.01 643.60,322.72 643.95,322.50 644.30,322.25 644.65,322.02 645.00,321.69 645.35,321.28 645.70,321.08 646.05,320.82 646.40,320.54 646.75,320.25 647.10,319.96 647.45,319.72 647.80,319.47 648.15,319.23 648.50,318.98 648.85,318.74 649.20,318.54 649.55,318.29 649.90,318.05 650.25,317.78 650.60,317.51 650.95,317.32 651.30,317.02 651.65,316.79 652.00,316.58 652.35,316.33 652.70,315.93 653.05,315.64 653.40,315.40 653.75,315.15 654.10,314.87 654.45,314.84 654.80,314.80 655.15,315.03 655.50,314.77 655.85,314.45 656.20,314.28 656.55,313.96 656.90,313.72 657.25,313.86 657.60,313.50 657.95,313.17 658.30,312.89 658.65,312.71 659.00,312.55 659.35,312.31 659.70,312.02 660.05,311.78 660.40,311.46 660.75,311.16 661.10,310.91 661.45,310.55 661.80,310.30 662.15,309.99 662.50,309.66 662.85,309.34 663.20,309.01 663.55,308.84 663.90,308.52 664.25,308.22 664.60,307.97 664.95,307.73 665.30,307.56 665.65,307.28 666.00,306.95 666.35,306.59 666.70,306.26 667.05,305.98 667.40,305.70 667.75,305.41 668.10,305.19 668.45,304.95 668.80,304.62 669.15,304.36 669.50,304.03 669.85,303.71 670.20,303.38 670.55,302.97 670.90,302.81 671.25,302.57 671.60,302.33 671.95,302.03 672.30,301.71 672.65,301.35 673.00,301.06 673.35,300.72 673.70,300.35 674.05,299.94 674.40,299.78 674.75,299.33 675.10,299.01 675.45,298.72 675.80,298.40 676.15,298.11 676.50,297.75 676.85,297.35 677.20,297.20 677.55,296.91 677.90,296.52 678.25,296.38 678.60,296.20 678.95,296.00 679.30,295.96 679.65,295.84 680.00,295.88 680.35,295.93 680.70,295.63 681.05,295.23 681.40,295.12 681.75,295.08 682.10,295.17 682.45,295.33 682.80,295.45 683.15,295.53 683.50,295.84 683.85,295.78 684.20,295.78 684.55,295.64 684.90,295.28 685.25,294.99 685.60,294.66 685.95,294.38 686.30,294.14 686.65,293.90 687.00,293.98 687.35,293.78 687.70,293.64 688.05,293.51 688.40,293.65 688.75,293.73 689.10,293.91 689.45,294.19 689.80,294.52 690.15,294.64 690.50,294.76 690.85,295.01 691.20,294.90 691.55,294.88 691.90,294.64 692.25,294.70 692.60,294.70 692.95,294.66 693.30,294.35 693.65,294.47 694.00,294.51 694.35,294.40 694.70,294.27 695.05,294.28 695.40,294.16 695.75,294.29 696.10,294.25 696.45,294.08 696.80,294.33 697.15,294.54 697.50,294.87 697.85,295.17 698.20,295.41 698.55,295.74 698.90,296.11 699.25,296.50 699.60,296.79 699.95,297.11 700.30,297.27 700.65,297.57 701.00,297.72 701.35,298.05 701.70,297.81 702.05,297.58 702.40,297.37 702.75,297.37 703.10,297.43 703.45,297.57 703.80,297.57 704.15,297.36 704.50,297.20 704.85,297.32 705.20,297.26 705.55,297.26 705.90,297.34 706.25,297.62 706.60,298.03 706.95,298.24 707.30,298.49 707.65,298.81 708.00,299.10 708.35,299.42 708.70,299.54 709.05,299.75 709.40,300.06 709.75,300.35 710.10,300.72 710.45,301.14 710.80,301.41 711.15,301.65 711.50,302.01 711.85,302.26 712.20,302.58 712.55,302.95 712.90,303.24 713.25,303.48 713.60,303.80 713.95,303.92 714.30,304.29 714.65,304.61 715.00,304.81 715.35,305.14 715.70,305.38 716.05,305.71 716.40,306.09 716.75,306.33 717.10,306.62 717.45,306.86 717.80,307.18 718.15,307.47 718.50,307.71 718.85,307.95 719.20,308.15 719.55,308.52 719.90,308.59 720.25,308.67 720.60,308.98 720.95,309.00 721.30,308.83 721.65,308.77 722.00,308.96 722.35,308.88 722.70,308.85 723.05,308.50 723.40,308.23 723.75,307.95 724.10,307.75 724.45,307.67 724.80,307.47 725.15,307.14 725.50,306.73 725.85,306.51 726.20,306.27 726.55,305.94 726.90,305.70 727.25,305.42 727.60,305.24 727.95,304.88 728.30,304.55 728.65,304.26 729.00,304.05 729.35,303.82 729.70,303.70 730.05,303.84 730.40,303.84 730.75,303.59 731.10,303.38 731.45,303.19 731.80,303.27 732.15,303.45 732.50,303.37 732.85,303.66 733.20,303.78 733.55,303.97 733.90,303.89 734.25,303.84 734.60,303.54 734.95,303.31 735.30,302.95 735.65,302.64 736.00,302.30 736.35,302.18 736.70,301.85 737.05,301.71 737.40,301.79 737.75,301.75 738.10,301.67 738.45,301.66 738.80,301.49 739.15,301.74 739.50,302.10 739.85,302.51 740.20,302.83 740.55,302.90 740.90,303.18 741.25,303.53 741.60,303.90 741.95,304.10 742.30,304.43 742.65,304.75 743.00,304.96 743.35,305.12 743.70,305.32 744.05,305.55 744.40,305.92 744.75,306.08 745.10,306.25 745.45,306.31 745.80,306.35 746.15,306.35 746.50,306.43 746.85,306.43 747.20,306.68 747.55,307.00 747.90,307.37 748.25,307.53 748.60,307.32 748.95,307.15 749.30,306.87 749.65,307.12 750.00,307.21 750.35,307.16 750.70,307.08 751.05,307.00 751.40,307.04 751.75,306.96 752.10,306.81 752.45,306.49 752.80,306.12 753.15,306.17 753.50,306.05 753.85,306.26 754.20,306.26 754.55,306.18 754.90,306.22 755.25,306.18 755.60,306.33 755.95,306.12 756.30,305.94 756.65,305.62 757.00,305.33 757.35,305.44 757.70,305.64 758.05,305.60 758.40,305.76 758.75,305.96 759.10,306.17 759.45,306.33 759.80,306.69 760.15,306.60 760.50,306.56 760.85,306.50 761.20,306.43 761.55,306.35 761.90,306.38 762.25,306.35 762.60,306.35 762.95,306.19 763.30,305.94 763.65,305.70 764.00,305.45 764.35,305.33 764.70,305.25 765.05,305.04 765.40,304.76 765.75,304.74 766.10,304.87 766.45,305.24 766.80,305.56 767.15,305.89 767.50,306.13 767.85,306.50 768.20,306.73 768.55,306.64 768.90,306.77 769.25,307.01 769.60,307.38 769.95,307.50 770.30,307.63 770.65,307.91 771.00,308.32 771.35,308.56 771.70,308.97 772.05,309.26 772.40,309.59 772.75,309.94 773.10,310.26 773.45,310.59 773.80,310.75 774.15,310.92 774.50,311.20 774.85,311.60 775.20,311.68 775.55,311.44 775.90,311.16 776.25,310.99 776.60,310.71 776.95,310.40 777.30,310.12 777.65,309.92 778.00,309.68 778.35,309.40 778.70,309.13 779.05,308.85 779.40,308.56 779.75,308.36 780.10,308.08 780.45,307.86 780.80,307.62 781.15,307.67 781.50,307.57 781.85,307.25 782.20,307.04 782.55,306.76 782.90,306.37 783.25,306.37 783.60,306.37 783.95,306.46 784.30,306.43 784.65,306.69 785.00,306.94"/>
<line x1="813" y1="78" x2="839" y2="78" stroke="#dc2626" stroke-width="3"/>
<text x="847" y="82" font-family="Arial" font-size="13" fill="#111827">high volatility</text>
<polyline fill="none" stroke="#059669" stroke-width="2" points="85.00,348.72 85.35,348.81 85.70,348.79 86.05,348.79 86.40,348.91 86.75,348.91 87.10,348.82 87.45,348.68 87.80,348.68 88.15,348.74 88.50,348.76 88.85,348.91 89.20,348.91 89.55,348.83 89.90,348.85 90.25,348.77 90.60,348.76 90.95,348.68 91.30,348.68 91.65,348.75 92.00,348.74 92.35,348.74 92.70,348.74 93.05,348.68 93.40,348.53 93.75,348.32 94.10,348.28 94.45,348.05 94.80,347.85 95.15,347.56 95.50,347.19 95.85,346.84 96.20,346.64 96.55,346.36 96.90,346.08 97.25,345.71 97.60,345.42 97.95,345.09 98.30,344.71 98.65,344.43 99.00,344.15 99.35,343.74 99.70,343.46 100.05,343.25 100.40,342.97 100.75,342.68 101.10,342.40 101.45,342.15 101.80,341.82 102.15,341.57 102.50,341.29 102.85,340.95 103.20,340.60 103.55,340.24 103.90,339.91 104.25,339.63 104.60,339.50 104.95,339.22 105.30,338.98 105.65,338.73 106.00,338.89 106.35,338.77 106.70,338.82 107.05,338.62 107.40,338.62 107.75,338.66 108.10,338.54 108.45,338.41 108.80,338.29 109.15,337.98 109.50,337.76 109.85,337.43 110.20,337.15 110.55,336.95 110.90,336.87 111.25,336.80 111.60,336.84 111.95,336.95 112.30,336.77 112.65,336.77 113.00,336.72 113.35,336.72 113.70,336.84 114.05,336.72 114.40,336.76 114.75,336.77 115.10,336.81 115.45,336.81 115.80,336.72 116.15,336.67 116.50,336.75 116.85,336.91 117.20,336.99 117.55,337.03 117.90,337.03 118.25,337.03 118.60,337.20 118.95,337.23 119.30,337.40 119.65,337.35 120.00,337.27 120.35,337.27 120.70,337.53 121.05,337.51 121.40,337.47 121.75,337.23 122.10,337.13 122.45,337.05 122.80,337.13 123.15,337.13 123.50,337.33 123.85,337.41 124.20,337.65 124.55,337.88 124.90,338.17 125.25,338.57 125.60,338.88 125.95,339.20 126.30,339.53 126.65,339.76 127.00,340.16 127.35,340.45 127.70,340.65 128.05,340.96 128.40,341.12 128.75,341.20 129.10,341.47 129.45,341.75 129.80,342.08 130.15,342.33 130.50,342.53 130.85,342.60 131.20,342.63 131.55,342.54 131.90,342.46 132.25,342.52 132.60,342.71 132.95,342.86 133.30,342.83 133.65,342.87 134.00,342.95 134.35,343.01 134.70,343.01 135.05,342.85 135.40,342.90 135.75,342.98 136.10,343.15 136.45,343.22 136.80,343.18 137.15,343.30 137.50,343.32 137.85,343.35 138.20,343.25 138.55,343.52 138.90,343.69 139.25,343.93 139.60,344.22 139.95,344.59 140.30,344.88 140.65,345.08 141.00,345.37 141.35,345.45 141.70,345.36 142.05,345.45 142.40,345.47 142.75,345.45 143.10,345.51 143.45,345.43 143.80,345.31 144.15,345.35 144.50,345.25 144.85,345.41 145.20,345.69 145.55,345.73 145.90,345.85 146.25,345.97 146.60,345.97 146.95,345.87 147.30,345.79 147.65,345.79 148.00,345.91 148.35,345.87 148.70,345.91 149.05,345.72 149.40,345.80 149.75,345.93 150.10,345.93 150.45,345.84 150.80,345.96 151.15,345.88 151.50,345.63 151.85,345.52 152.20,345.47 152.55,345.51 152.90,345.59 153.25,345.67 153.60,345.67 153.95,345.67 154.30,345.55 154.65,345.47 155.00,345.58 155.35,345.62 155.70,345.53 156.05,345.56 156.40,345.61 156.75,345.59 157.10,345.51 157.45,345.63 157.80,345.79 158.15,345.74 158.50,345.86 158.85,345.78 159.20,345.82 159.55,346.09 159.90,345.99 160.25,346.09 160.60,345.73 160.95,345.48 161.30,345.20 161.65,344.99 162.00,344.67 162.35,344.44 162.70,344.15 163.05,343.90 163.40,343.66 163.75,343.62 164.10,343.46 164.45,343.50 164.80,343.62 165.15,343.78 165.50,343.99 165.85,344.20 166.20,344.36 166.55,344.71 166.90,344.94 167.25,345.18 167.60,345.51 167.95,345.83 168.30,346.08 168.65,346.30 169.00,346.63 169.35,346.95 169.70,347.24 170.05,347.60 170.40,347.80 170.75,348.01 171.10,348.35 171.45,348.59 171.80,348.92 172.15,349.25 172.50,349.61 172.85,349.94 173.20,350.30 173.55,350.58 173.90,350.86 174.25,351.19 174.60,351.56 174.95,351.72 175.30,352.00 175.65,352.39 176.00,352.63 176.35,352.94 176.70,353.27 177.05,353.51 177.40,353.76 177.75,353.98 178.10,354.27 178.45,354.59 178.80,354.92 179.15,355.18 179.50,355.47 179.85,355.79 180.20,356.08 180.55,356.40 180.90,356.75 181.25,357.08 181.60,357.31 181.95,357.55 182.30,357.92 182.65,358.25 183.00,358.53 183.35,358.82 183.70,359.10 184.05,359.33 184.40,359.61 184.75,360.04 185.10,360.16 185.45,360.48 185.80,360.73 186.15,361.09 186.50,361.32 186.85,361.60 187.20,361.97 187.55,362.29 187.90,362.50 188.25,362.84 188.60,363.05 188.95,363.36 189.30,363.76 189.65,364.09 190.00,364.46 190.35,364.77 190.70,365.10 191.05,365.46 191.40,365.75 191.75,366.10 192.10,366.51 192.45,366.67 192.80,366.78 193.15,367.06 193.50,367.38 193.85,367.62 194.20,367.91 194.55,368.09 194.90,368.42 195.25,368.75 195.60,369.16 195.95,369.44 196.30,369.77 196.65,369.93 197.00,370.34 197.35,370.49 197.70,370.45 198.05,370.51 198.40,370.47 198.75,370.47 199.10,370.46 199.45,370.46 199.80,370.46 200.15,370.45 200.50,370.37 200.85,370.45 201.20,370.53 201.55,370.58 201.90,370.70 202.25,371.03 202.60,371.35 202.95,371.68 203.30,372.00 203.65,372.37 204.00,372.67 204.35,373.00 204.70,373.20 205.05,373.49 205.40,373.72 205.75,373.96 206.10,374.05 206.45,374.09 206.80,374.29 207.15,374.24 207.50,374.29 207.85,374.57 208.20,374.78 208.55,375.06 208.90,375.39 209.25,375.73 209.60,376.06 209.95,376.30 210.30,376.51 210.65,376.88 211.00,376.92 211.35,377.20 211.70,377.23 212.05,377.23 212.40,377.19 212.75,377.19 213.10,377.17 213.45,377.49 213.80,377.82 214.15,378.10 214.50,378.39 214.85,378.57 215.20,378.89 215.55,379.22 215.90,379.46 216.25,379.75 216.60,379.96 216.95,380.20 217.30,380.53 217.65,380.77 218.00,380.98 218.35,381.18 218.70,381.50 219.05,381.78 219.40,382.11 219.75,382.39 220.10,382.67 220.45,382.95 220.80,383.25 221.15,383.44 221.50,383.72 221.85,384.10 222.20,384.32 222.55,384.65 222.90,385.02 223.25,385.32 223.60,385.64 223.95,385.97 224.30,386.26 224.65,386.59 225.00,386.96 225.35,387.16 225.70,387.44 226.05,387.74 226.40,387.94 226.75,388.17 227.10,388.42 227.45,388.74 227.80,389.03 228.15,389.27 228.50,389.64 228.85,389.96 229.20,390.29 229.55,390.51 229.90,390.80 230.25,391.08 230.60,391.41 230.95,391.72 231.30,392.01 231.65,392.21 232.00,392.60 232.35,392.82 232.70,393.12 233.05,393.36 233.40,393.65 233.75,393.91 234.10,394.28 234.45,394.61 234.80,394.88 235.15,395.20 235.50,395.57 235.85,395.96 236.20,396.25 236.55,396.57 236.90,396.75 237.25,397.04 237.60,397.32 237.95,397.61 238.30,397.93 238.65,398.18 239.00,398.39 239.35,398.68 239.70,399.05 240.05,399.39 240.40,399.72 240.75,400.01 241.10,400.33 241.45,400.66 241.80,400.98 242.15,401.35 242.50,401.67 242.85,401.96 243.20,402.28 243.55,402.48 243.90,402.77 244.25,403.09 244.60,403.41 244.95,403.61 245.30,403.98 245.65,404.23 246.00,404.52 246.35,404.81 246.70,405.13 247.05,405.42 247.40,405.62 247.75,405.88 248.10,405.84 248.45,405.96 248.80,406.36 249.15,406.61 249.50,406.61 249.85,406.77 250.20,406.85 250.55,407.06 250.90,407.26 251.25,407.54 251.60,407.92 251.95,408.20 252.30,408.48 252.65,408.81 253.00,409.10 253.35,409.39 253.70,409.68 254.05,409.95 254.40,410.32 254.75,410.57 255.10,410.82 255.45,410.94 255.80,411.18 256.15,411.47 256.50,411.67 256.85,411.96 257.20,412.28 257.55,412.69 257.90,412.93 258.25,413.22 258.60,413.50 258.95,413.83 259.30,414.19 259.65,414.51 260.00,414.49 260.35,414.73 260.70,414.98 261.05,415.26 261.40,415.54 261.75,415.82 262.10,416.04 262.45,416.33 262.80,416.61 263.15,417.01 263.50,417.18 263.85,417.50 264.20,417.79 264.55,418.07 264.90,418.38 265.25,418.71 265.60,418.95 265.95,419.24 266.30,419.44 266.65,419.77 267.00,420.05 267.35,420.26 267.70,420.54 268.05,420.86 268.40,421.23 268.75,421.51 269.10,421.46 269.45,421.46 269.80,421.36 270.15,421.36 270.50,421.20 270.85,421.25 271.20,421.29 271.55,421.41 271.90,421.37 272.25,421.44 272.60,421.37 272.95,421.65 273.30,421.94 273.65,422.10 274.00,422.10 274.35,422.18 274.70,422.55 275.05,422.71 275.40,422.77 275.75,422.89 276.10,423.15 276.45,423.46 276.80,423.75 277.15,423.74 277.50,424.02 277.85,424.39 278.20,424.64 278.55,424.93 278.90,425.25 279.25,425.58 279.60,425.99 279.95,426.15 280.30,426.40 280.65,426.64 281.00,426.94 281.35,427.30 281.70,427.55 282.05,427.75 282.40,428.16 282.75,428.56 283.10,428.93 283.45,429.22 283.80,429.54 284.15,429.83 284.50,430.19 284.85,430.44 285.20,430.76 285.55,430.90 285.90,431.14 286.25,431.39 286.60,431.64 286.95,431.92 287.30,432.25 287.65,432.53 288.00,432.86 288.35,433.02 288.70,433.14 289.05,433.26 289.40,433.26 289.75,433.30 290.10,433.63 290.45,433.91 290.80,434.11 291.15,434.16 291.50,434.32 291.85,434.64 292.20,434.89 292.55,435.22 292.90,435.50 293.25,435.66 293.60,435.93 293.95,436.12 294.30,436.45 294.65,436.77 295.00,437.09 295.35,437.34 295.70,437.50 296.05,437.91 296.40,438.19 296.75,438.52 297.10,438.68 297.45,438.82 297.80,439.00 298.15,439.12 298.50,438.94 298.85,438.93 299.20,438.88 299.55,439.13 299.90,439.09 300.25,439.05 300.60,439.13 300.95,439.45 301.30,439.65 301.65,439.73 302.00,439.43 302.35,439.48 302.70,439.48 303.05,439.68 303.40,440.03 303.75,440.40 304.10,440.48 304.45,440.36 304.80,440.34 305.15,440.42 305.50,440.48 305.85,440.34 306.20,440.21 306.55,439.98 306.90,439.69 307.25,439.41 307.60,439.16 307.95,438.96 308.30,439.09 308.65,439.01 309.00,438.97 309.35,438.88 309.70,438.68 310.05,438.42 310.40,438.17 310.75,437.85 311.10,437.52 311.45,437.17 311.80,436.87 312.15,436.56 312.50,436.16 312.85,435.83 313.20,435.51 313.55,435.18 313.90,434.90 314.25,434.68 314.60,434.35 314.95,434.02 315.30,433.70 315.65,433.46 316.00,433.17 316.35,432.96 316.70,432.76 317.05,432.47 317.40,432.22 317.75,431.97 318.10,431.69 318.45,431.45 318.80,431.14 319.15,431.00 319.50,430.64 319.85,430.33 320.20,430.01 320.55,429.72 320.90,429.47 321.25,429.18 321.60,428.78 321.95,428.45 322.30,428.21 322.65,427.89 323.00,427.64 323.35,427.36 323.70,427.10 324.05,426.69 324.40,426.28 324.75,426.00 325.10,425.67 325.45,425.35 325.80,425.00 326.15,424.72 326.50,424.39 326.85,424.07 327.20,423.70 327.55,423.44 327.90,423.08 328.25,422.64 328.60,422.31 328.95,421.94 329.30,421.62 329.65,421.41 330.00,421.09 330.35,420.76 330.70,420.43 331.05,420.06 331.40,419.66 331.75,419.46 332.10,419.21 332.45,418.93 332.80,418.60 333.15,418.38 333.50,418.05 333.85,417.73 334.20,417.45 334.55,417.09 334.90,416.81 335.25,416.47 335.60,416.15 335.95,415.82 336.30,415.53 336.65,415.28 337.00,414.93 337.35,414.57 337.70,414.36 338.05,414.12 338.40,413.88 338.75,413.55 339.10,413.23 339.45,412.98 339.80,412.70 340.15,412.42 340.50,412.18 340.85,411.85 341.20,411.60 341.55,411.48 341.90,411.23 342.25,411.00 342.60,410.76 342.95,410.47 343.30,410.15 343.65,409.89 344.00,409.52 344.35,409.12 344.70,408.87 345.05,408.62 345.40,408.26 345.75,408.05 346.10,407.72 346.45,407.43 346.80,407.09 347.15,406.93 347.50,406.60 347.85,406.32 348.20,406.12 348.55,405.92 348.90,405.63 349.25,405.27 349.60,404.98 349.95,404.62 350.30,404.29 350.65,403.97 351.00,403.68 351.35,403.44 351.70,403.07 352.05,402.75 352.40,402.46 352.75,402.14 353.10,401.83 353.45,401.67 353.80,401.54 354.15,401.26 354.50,401.35 354.85,401.71 355.20,402.04 355.55,402.30 355.90,402.47 356.25,402.59 356.60,402.43 356.95,402.52 357.30,402.56 357.65,402.56 358.00,402.52 358.35,402.76 358.70,402.80 359.05,402.82 359.40,402.82 359.75,402.81 360.10,402.69 360.45,402.52 360.80,402.35 361.15,402.35 361.50,402.39 361.85,402.39 362.20,402.47 362.55,402.40 362.90,402.36 363.25,402.32 363.60,402.24 363.95,402.20 364.30,402.20 364.65,402.12 365.00,402.04 365.35,401.98 365.70,401.84 366.05,401.60 366.40,401.27 366.75,400.88 367.10,400.79 367.45,400.51 367.80,400.38 368.15,400.14 368.50,399.85 368.85,399.57 369.20,399.20 369.55,398.83 369.90,398.46 370.25,398.18 370.60,397.77 370.95,397.45 371.30,397.28 371.65,397.08 372.00,396.92 372.35,396.63 372.70,396.27 373.05,396.19 373.40,396.20 373.75,396.20 374.10,396.25 374.45,396.25 374.80,396.23 375.15,396.19 375.50,396.29 375.85,396.37 376.20,396.37 376.55,396.36 376.90,396.40 377.25,396.36 377.60,396.41 377.95,396.25 378.30,395.99 378.65,395.73 379.00,395.61 379.35,395.29 379.70,395.08 380.05,394.88 380.40,394.63 380.75,394.29 381.10,393.96 381.45,393.67 381.80,393.50 382.15,393.39 382.50,393.39 382.85,393.02 383.20,392.84 383.55,392.83 383.90,392.66 384.25,392.66 384.60,392.38 384.95,392.18 385.30,391.85 385.65,391.57 386.00,391.24 386.35,391.04 386.70,390.67 387.05,390.43 387.40,390.22 387.75,389.86 388.10,389.57 388.45,389.29 388.80,388.89 389.15,388.60 389.50,388.39 389.85,388.10 390.20,387.78 390.55,387.45 390.90,387.14 391.25,386.98 391.60,386.74 391.95,386.50 392.30,386.15 392.65,385.95 393.00,385.69 393.35,385.33 393.70,385.00 394.05,384.68 394.40,384.43 394.75,384.17 395.10,383.93 395.45,383.61 395.80,383.49 396.15,383.12 396.50,382.82 396.85,382.47 397.20,382.15 397.55,381.82 397.90,381.57 398.25,381.37 398.60,381.16 398.95,380.84 399.30,380.82 399.65,380.80 400.00,380.75 400.35,380.59 400.70,380.27 401.05,379.90 401.40,379.60 401.75,379.40 402.10,379.42 402.45,379.38 402.80,379.51 403.15,379.59 403.50,379.47 403.85,379.31 404.20,379.02 404.55,378.78 404.90,378.78 405.25,378.84 405.60,378.75 405.95,378.67 406.30,378.47 406.65,378.10 407.00,377.90 407.35,377.82 407.70,378.10 408.05,378.22 408.40,378.19 408.75,378.22 409.10,378.32 409.45,378.29 409.80,378.21 410.15,378.19 410.50,378.25 410.85,378.14 411.20,378.14 411.55,378.33 411.90,378.29 412.25,378.25 412.60,378.25 412.95,378.22 413.30,378.23 413.65,378.30 414.00,378.25 414.35,378.26 414.70,378.18 415.05,378.38 415.40,378.14 415.75,377.81 416.10,377.61 416.45,377.32 416.80,377.08 417.15,376.71 417.50,376.55 417.85,376.29 418.20,376.02 418.55,375.78 418.90,375.53 419.25,375.21 419.60,374.84 419.95,374.56 420.30,374.19 420.65,373.87 421.00,373.54 421.35,373.26 421.70,372.99 422.05,372.66 422.40,372.42 422.75,372.09 423.10,371.75 423.45,371.41 423.80,371.25 424.15,371.00 424.50,370.68 424.85,370.31 425.20,370.03 425.55,369.74 425.90,369.37 426.25,369.04 426.60,368.79 426.95,368.55 427.30,368.22 427.65,367.90 428.00,367.57 428.35,367.27 428.70,367.03 429.05,366.75 429.40,366.42 429.75,366.14 430.10,365.81 430.45,365.57 430.80,365.41 431.15,365.16 431.50,364.83 431.85,364.55 432.20,364.30 432.55,364.01 432.90,363.81 433.25,363.44 433.60,363.16 433.95,362.99 434.30,362.63 434.65,362.38 435.00,362.06 435.35,361.73 435.70,361.49 436.05,361.26 436.40,360.94 436.75,360.57 437.10,360.24 437.45,360.04 437.80,359.71 438.15,359.38 438.50,359.06 438.85,358.77 439.20,358.47 439.55,358.23 439.90,357.90 440.25,357.59 440.60,357.34 440.95,357.06 441.30,356.77 441.65,356.49 442.00,356.20 442.35,355.93 442.70,355.63 443.05,355.38 443.40,355.12 443.75,354.84 444.10,354.67 444.45,354.42 444.80,354.05 445.15,353.81 445.50,353.40 445.85,353.12 446.20,352.79 446.55,352.59 446.90,352.35 447.25,352.15 447.60,351.90 447.95,351.57 448.30,351.25 448.65,350.94 449.00,350.62 449.35,350.36 449.70,350.12 450.05,349.88 450.40,349.60 450.75,349.23 451.10,348.95 451.45,348.67 451.80,348.46 452.15,348.22 452.50,347.85 452.85,347.45 453.20,347.12 453.55,346.79 453.90,346.52 454.25,346.21 454.60,345.84 454.95,345.68 455.30,345.39 455.65,345.15 456.00,344.94 456.35,344.58 456.70,344.37 457.05,344.05 457.40,343.76 457.75,343.48 458.10,343.19 458.45,342.82 458.80,342.62 459.15,342.38 459.50,342.01 459.85,341.73 460.20,341.44 460.55,341.12 460.90,340.79 461.25,340.63 461.60,340.40 461.95,340.16 462.30,339.80 462.65,339.43 463.00,339.19 463.35,338.98 463.70,338.66 464.05,338.42 464.40,338.10 464.75,337.78 465.10,337.46 465.45,337.13 465.80,336.89 466.15,336.58 466.50,336.39 466.85,336.43 467.20,336.35 467.55,336.36 467.90,336.43 468.25,336.15 468.60,336.29 468.95,336.12 469.30,336.12 469.65,336.04 470.00,335.79 470.35,335.57 470.70,335.41 471.05,335.33 471.40,335.51 471.75,335.59 472.10,335.63 472.45,335.44 472.80,335.56 473.15,335.77 473.50,336.09 473.85,336.38 474.20,336.60 474.55,336.92 474.90,337.16 475.25,337.16 475.60,337.21 475.95,337.04 476.30,337.08 476.65,337.04 477.00,336.97 477.35,336.97 477.70,336.69 478.05,336.40 478.40,336.26 478.75,336.31 479.10,336.26 479.45,336.05 479.80,335.97 480.15,335.97 480.50,336.09 480.85,336.05 481.20,335.85 481.55,335.85 481.90,335.69 482.25,335.65 482.60,335.55 482.95,335.59 483.30,335.47 483.65,335.56 484.00,335.56 484.35,335.56 484.70,335.63 485.05,335.67 485.40,335.63 485.75,335.59 486.10,335.50 486.45,335.35 486.80,335.43 487.15,335.50 487.50,335.51 487.85,335.63 488.20,335.47 488.55,335.31 488.90,335.15 489.25,334.86 489.60,334.66 489.95,334.41 490.30,334.41 490.65,334.17 491.00,333.93 491.35,333.89 491.70,333.81 492.05,333.79 492.40,333.83 492.75,333.85 493.10,334.13 493.45,334.45 493.80,334.61 494.15,334.57 494.50,334.53 494.85,334.52 495.20,334.78 495.55,334.90 495.90,335.23 496.25,335.51 496.60,335.80 496.95,336.16 497.30,336.50 497.65,336.70 498.00,337.03 498.35,337.39 498.70,337.71 499.05,338.12 499.40,338.45 499.75,338.62 500.10,338.94 500.45,338.93 500.80,339.18 501.15,339.50 501.50,339.79 501.85,340.03 502.20,340.42 502.55,340.66 502.90,340.79 503.25,341.15 503.60,341.44 503.95,341.76 504.30,342.05 504.65,342.34 505.00,342.63 505.35,342.95 505.70,343.28 506.05,343.65 506.40,344.01 506.75,344.35 507.10,344.70 507.45,344.98 507.80,345.31 508.15,345.63 508.50,345.86 508.85,346.15 509.20,346.47 509.55,346.75 509.90,347.02 510.25,347.35 510.60,347.54 510.95,347.89 511.30,348.25 511.65,348.53 512.00,348.85 512.35,349.18 512.70,349.47 513.05,349.75 513.40,350.04 513.75,350.36 514.10,350.65 514.45,351.02 514.80,351.22 515.15,351.51 515.50,351.63 515.85,351.91 516.20,352.24 516.55,352.57 516.90,352.81 517.25,353.22 517.60,353.53 517.95,353.83 518.30,354.15 518.65,354.45 519.00,354.73 519.35,354.92 519.70,355.24 520.05,355.49 520.40,355.68 520.75,356.01 521.10,356.41 521.45,356.74 521.80,357.11 522.15,357.34 522.50,357.66 522.85,357.95 523.20,358.27 523.55,358.60 523.90,358.88 524.25,359.21 524.60,359.56 524.95,359.80 525.30,359.98 525.65,360.33 526.00,360.61 526.35,360.90 526.70,361.10 527.05,361.17 527.40,361.30 527.75,361.46 528.10,361.75 528.45,361.99 528.80,362.24 529.15,362.48 529.50,362.73 529.85,362.73 530.20,362.79 530.55,362.74 530.90,362.87 531.25,362.75 531.60,362.87 531.95,363.04 532.30,363.12 532.65,363.06 533.00,363.10 533.35,363.09 533.70,363.06 534.05,363.10 534.40,363.18 534.75,363.09 535.10,363.05 535.45,362.88 535.80,362.76 536.15,362.76 536.50,362.80 536.85,362.64 537.20,362.64 537.55,362.78 537.90,362.74 538.25,362.74 538.60,362.66 538.95,362.86 539.30,363.19 539.65,363.49 540.00,363.73 540.35,364.01 540.70,364.30 541.05,364.44 541.40,364.51 541.75,364.57 542.10,364.65 542.45,364.58 542.80,364.51 543.15,364.43 543.50,364.44 543.85,364.44 544.20,364.41 544.55,364.50 544.90,364.43 545.25,364.61 545.60,364.56 545.95,364.63 546.30,364.64 546.65,364.52 547.00,364.48 547.35,364.29 547.70,364.00 548.05,363.87 548.40,363.76 548.75,363.78 549.10,363.88 549.45,363.80 549.80,363.82 550.15,363.86 550.50,364.02 550.85,363.86 551.20,363.86 551.55,363.85 551.90,363.78 552.25,363.37 552.60,363.05 552.95,363.03 553.30,362.90 553.65,362.95 554.00,362.79 554.35,362.79 554.70,363.09 555.05,363.34 555.40,363.59 555.75,363.96 556.10,364.24 556.45,364.56 556.80,364.77 557.15,364.97 557.50,365.01 557.85,365.05 558.20,365.01 558.55,364.97 558.90,364.85 559.25,364.78 559.60,364.86 559.95,364.81 560.30,364.94 560.65,364.89 561.00,364.97 561.35,364.81 561.70,364.91 562.05,364.82 562.40,364.78 562.75,364.88 563.10,364.78 563.45,364.65 563.80,364.56 564.15,364.63 564.50,364.83 564.85,364.97 565.20,365.09 565.55,365.25 565.90,365.17 566.25,365.05 566.60,365.01 566.95,364.98 567.30,365.08 567.65,365.06 568.00,365.08 568.35,365.13 568.70,365.00 569.05,365.04 569.40,365.11 569.75,365.02 570.10,364.98 570.45,364.94 570.80,365.07 571.15,365.20 571.50,365.28 571.85,365.32 572.20,365.42 572.55,365.71 572.90,365.99 573.25,366.36 573.60,366.56 573.95,366.81 574.30,367.05 574.65,367.21 575.00,367.58 575.35,367.95 575.70,368.23 576.05,368.52 576.40,368.84 576.75,369.00 577.10,369.17 577.45,369.45 577.80,369.61 578.15,369.88 578.50,370.18 578.85,370.51 579.20,370.83 579.55,371.16 579.90,371.37 580.25,371.61 580.60,371.86 580.95,372.02 581.30,372.30 581.65,372.60 582.00,372.84 582.35,373.12 582.70,373.45 583.05,373.69 583.40,374.06 583.75,374.34 584.10,374.67 584.45,374.95 584.80,375.25 585.15,375.58 585.50,375.90 585.85,376.23 586.20,376.60 586.55,376.84 586.90,377.08 587.25,377.45 587.60,377.74 587.95,377.98 588.30,378.39 588.65,378.71 589.00,378.89 589.35,379.22 589.70,379.38 590.05,379.68 590.40,379.86 590.75,380.14 591.10,380.47 591.45,380.83 591.80,381.19 592.15,381.27 592.50,381.39 592.85,381.29 593.20,381.45 593.55,381.30 593.90,381.05 594.25,380.90 594.60,380.93 594.95,381.05 595.30,381.09 595.65,381.09 596.00,381.17 596.35,381.05 596.70,380.95 597.05,380.91 597.40,380.71 597.75,380.59 598.10,380.64 598.45,380.62 598.80,380.64 599.15,380.56 599.50,380.54 599.85,380.65 600.20,380.47 600.55,380.23 600.90,379.90 601.25,379.68 601.60,379.36 601.95,378.99 602.30,378.75 602.65,378.40 603.00,378.09 603.35,377.88 603.70,377.60 604.05,377.31 604.40,377.00 604.75,376.67 605.10,376.39 605.45,376.15 605.80,375.94 606.15,375.58 606.50,375.29 606.85,374.99 607.20,374.70 607.55,374.42 607.90,374.22 608.25,373.89 608.60,373.60 608.95,373.20 609.30,372.95 609.65,372.79 610.00,372.39 610.35,372.06 610.70,371.77 611.05,371.37 611.40,371.04 611.75,370.83 612.10,370.60 612.45,370.25 612.80,369.97 613.15,369.64 613.50,369.40 613.85,369.07 614.20,368.79 614.55,368.50 614.90,368.22 615.25,367.83 615.60,367.42 615.95,367.18 616.30,366.81 616.65,366.53 617.00,366.16 617.35,365.88 617.70,365.54 618.05,365.22 618.40,364.89 618.75,364.63 619.10,364.35 619.45,363.98 619.80,363.73 620.15,363.73 620.50,363.73 620.85,363.69 621.20,363.48 621.55,363.18 621.90,362.96 622.25,362.63 622.60,362.36 622.95,361.99 623.30,361.71 623.65,361.53 624.00,361.20 624.35,360.87 624.70,360.65 625.05,360.48 625.40,360.25 625.75,359.88 626.10,359.56 626.45,359.23 626.80,358.90 627.15,358.58 627.50,358.29 627.85,357.97 628.20,357.68 628.55,357.42 628.90,357.15 629.25,356.79 629.60,356.50 629.95,356.13 630.30,355.93 630.65,355.56 631.00,355.32 631.35,355.00 631.70,354.75 632.05,354.45 632.40,354.19 632.75,353.90 633.10,353.66 633.45,353.22 633.80,352.85 634.15,352.61 634.50,352.41 634.85,352.08 635.20,351.88 635.55,351.51 635.90,351.15 636.25,350.78 636.60,350.45 636.95,350.17 637.30,349.84 637.65,349.44 638.00,349.19 638.35,349.00 638.70,348.70 639.05,348.34 639.40,347.98 639.75,347.69 640.10,347.48 640.45,347.27 640.80,346.99 641.15,346.66 641.50,346.38 641.85,346.09 642.20,345.77 642.55,345.48 642.90,345.21 643.25,344.92 643.60,344.59 643.95,344.18 644.30,343.78 644.65,343.53 645.00,343.28 645.35,342.95 645.70,342.79 646.05,342.54 646.40,342.22 646.75,341.97 647.10,341.73 647.45,341.40 647.80,341.12 648.15,340.75 648.50,340.50 648.85,340.20 649.20,339.88 649.55,339.58 649.90,339.36 650.25,339.04 650.60,338.75 650.95,338.47 651.30,338.14 651.65,337.82 652.00,337.46 652.35,337.12 652.70,336.76 653.05,336.47 653.40,336.11 653.75,335.78 654.10,335.61 654.45,335.36 654.80,335.19 655.15,334.85 655.50,334.60 655.85,334.24 656.20,333.99 656.55,333.71 656.90,333.46 657.25,333.15 657.60,332.84 657.95,332.53 658.30,332.32 658.65,332.04 659.00,331.79 659.35,331.47 659.70,331.21 660.05,330.97 660.40,330.73 660.75,330.32 661.10,330.08 661.45,329.79 661.80,329.50 662.15,329.25 662.50,328.97 662.85,328.64 663.20,328.36 663.55,328.24 663.90,327.87 664.25,327.52 664.60,327.32 664.95,327.05 665.30,326.96 665.65,326.76 666.00,326.37 666.35,326.13 666.70,325.80 667.05,325.56 667.40,325.15 667.75,324.85 668.10,324.58 668.45,324.26 668.80,323.93 669.15,323.53 669.50,323.20 669.85,322.79 670.20,322.55 670.55,322.22 670.90,321.86 671.25,321.54 671.60,321.17 671.95,320.80 672.30,320.60 672.65,320.27 673.00,319.91 673.35,319.62 673.70,319.22 674.05,319.09 674.40,318.73 674.75,318.44 675.10,318.11 675.45,317.77 675.80,317.45 676.15,317.24 676.50,317.04 676.85,316.71 677.20,316.47 677.55,316.10 677.90,315.82 678.25,315.50 678.60,315.21 678.95,314.93 679.30,314.63 679.65,314.43 680.00,314.06 680.35,313.78 680.70,313.53 681.05,313.21 681.40,312.96 681.75,312.68 682.10,312.43 682.45,312.15 682.80,311.95 683.15,311.66 683.50,311.31 683.85,310.95 684.20,310.66 684.55,310.44 684.90,310.15 685.25,309.91 685.60,309.54 685.95,309.25 686.30,308.93 686.65,308.64 687.00,308.32 687.35,308.03 687.70,307.70 688.05,307.30 688.40,307.05 688.75,306.73 689.10,306.54 689.45,306.26 689.80,306.02 690.15,305.69 690.50,305.53 690.85,305.24 691.20,305.02 691.55,304.74 691.90,304.41 692.25,304.25 692.60,304.17 692.95,304.13 693.30,304.17 693.65,304.05 694.00,304.01 694.35,304.17 694.70,304.19 695.05,303.93 695.40,303.68 695.75,303.44 696.10,303.27 696.45,302.91 696.80,302.66 697.15,302.34 697.50,302.14 697.85,301.84 698.20,301.52 698.55,301.23 698.90,300.95 699.25,300.70 699.60,300.38 699.95,300.46 700.30,300.39 700.65,300.48 701.00,300.19 701.35,299.91 701.70,299.54 702.05,299.41 702.40,299.16 702.75,298.79 703.10,298.55 703.45,298.31 703.80,297.94 704.15,297.66 704.50,297.37 704.85,297.11 705.20,296.84 705.55,296.52 705.90,296.31 706.25,296.00 706.60,295.81 706.95,295.60 707.30,295.52 707.65,295.41 708.00,295.49 708.35,295.26 708.70,295.22 709.05,295.09 709.40,294.97 709.75,294.87 710.10,294.90 710.45,294.86 710.80,294.64 711.15,294.36 711.50,294.03 711.85,293.63 712.20,293.40 712.55,293.19 712.90,292.83 713.25,292.89 713.60,293.02 713.95,293.03 714.30,292.80 714.65,292.59 715.00,292.55 715.35,292.23 715.70,291.92 716.05,291.63 716.40,291.39 716.75,291.30 717.10,290.99 717.45,290.79 717.80,290.79 718.15,290.75 718.50,290.44 718.85,290.12 719.20,289.72 719.55,289.43 719.90,289.06 720.25,288.67 720.60,288.34 720.95,288.26 721.30,288.22 721.65,287.91 722.00,287.79 722.35,287.79 722.70,287.89 723.05,287.81 723.40,287.80 723.75,287.59 724.10,287.27 724.45,286.98 724.80,286.65 725.15,286.41 725.50,286.10 725.85,285.78 726.20,285.53 726.55,285.28 726.90,285.00 727.25,284.67 727.60,284.39 727.95,284.06 728.30,283.74 728.65,283.53 729.00,283.28 729.35,282.91 729.70,282.51 730.05,282.22 730.40,281.93 730.75,281.65 731.10,281.42 731.45,281.30 731.80,280.98 732.15,280.73 732.50,280.53 732.85,280.29 733.20,279.96 733.55,279.63 733.90,279.35 734.25,279.06 734.60,278.86 734.95,278.54 735.30,278.33 735.65,278.13 736.00,277.93 736.35,277.78 736.70,277.58 737.05,277.32 737.40,277.13 737.75,276.80 738.10,276.52 738.45,276.40 738.80,276.11 739.15,275.75 739.50,275.42 739.85,275.10 740.20,274.85 740.55,274.61 740.90,274.36 741.25,274.15 741.60,273.87 741.95,273.62 742.30,273.26 742.65,272.89 743.00,272.85 743.35,272.89 743.70,273.10 744.05,273.34 744.40,273.62 744.75,273.91 745.10,274.23 745.45,274.45 745.80,274.54 746.15,274.66 746.50,274.39 746.85,274.06 747.20,273.70 747.55,273.41 747.90,273.19 748.25,273.03 748.60,272.91 748.95,272.50 749.30,272.21 749.65,271.96 750.00,271.67 750.35,271.31 750.70,271.04 751.05,270.84 751.40,270.63 751.75,270.39 752.10,270.27 752.45,269.98 752.80,269.74 753.15,269.41 753.50,269.23 753.85,268.95 754.20,268.75 754.55,268.38 754.90,268.26 755.25,268.30 755.60,268.47 755.95,268.81 756.30,269.10 756.65,269.11 757.00,269.15 757.35,269.07 757.70,269.00 758.05,268.92 758.40,269.01 758.75,268.91 759.10,268.66 759.45,268.30 759.80,267.97 760.15,267.69 760.50,267.33 760.85,267.09 761.20,266.95 761.55,266.62 761.90,266.28 762.25,265.96 762.60,265.68 762.95,265.35 763.30,265.19 763.65,264.78 764.00,264.74 764.35,264.56 764.70,264.67 765.05,264.55 765.40,264.18 765.75,264.02 766.10,263.87 766.45,263.66 766.80,263.30 767.15,263.03 767.50,262.77 767.85,262.40 768.20,262.19 768.55,262.00 768.90,261.78 769.25,261.56 769.60,261.28 769.95,261.39 770.30,261.44 770.65,261.52 771.00,261.36 771.35,261.44 771.70,261.41 772.05,261.45 772.40,261.37 772.75,261.33 773.10,261.33 773.45,261.41 773.80,261.45 774.15,261.30 774.50,261.43 774.85,261.38 775.20,261.45 775.55,261.54 775.90,261.52 776.25,261.24 776.60,260.96 776.95,260.59 777.30,260.31 777.65,259.94 778.00,259.63 778.35,259.34 778.70,258.98 779.05,258.81 779.40,258.70 779.75,258.61 780.10,258.61 780.45,258.52 780.80,258.48 781.15,258.15 781.50,258.13 781.85,258.11 782.20,258.06 782.55,257.74 782.90,257.86 783.25,257.75 783.60,257.79 783.95,257.95 784.30,257.99 784.65,257.99 785.00,258.15"/>
<line x1="813" y1="102" x2="839" y2="102" stroke="#059669" stroke-width="3"/>
<text x="847" y="106" font-family="Arial" font-size="13" fill="#111827">trending</text>
<text x="435.0" y="518" text-anchor="middle" font-family="Arial" font-size="14" fill="#111827">Event index</text>
<text x="22" y="256.0" text-anchor="middle" transform="rotate(-90 22 256.0)" font-family="Arial" font-size="14" fill="#111827">Inventory</text>
</svg>
