<svg xmlns="http://www.w3.org/2000/svg" width="940" height="540" viewBox="0 0 940 540">
<rect width="100%" height="100%" fill="#ffffff"/>
<text x="470.0" y="26" text-anchor="middle" font-family="Arial" font-size="18" fill="#111827">Avellaneda Stoikov Inventory By Regime</text>
<line x1="85" y1="470" x2="785" y2="470" stroke="#111827" stroke-width="1"/>
<line x1="85" y1="42" x2="85" y2="470" stroke="#111827" stroke-width="1"/>
<line x1="85.00" y1="42" x2="85.00" y2="470" stroke="#e5e7eb" stroke-width="1"/>
<text x="85.00" y="494" text-anchor="middle" font-family="Arial" font-size="12" fill="#374151">0</text>
<line x1="260.00" y1="42" x2="260.00" y2="470" stroke="#e5e7eb" stroke-width="1"/>
<text x="260.00" y="494" text-anchor="middle" font-family="Arial" font-size="12" fill="#374151">50000</text>
<line x1="435.00" y1="42" x2="435.00" y2="470" stroke="#e5e7eb" stroke-width="1"/>
<text x="435.00" y="494" text-anchor="middle" font-family="Arial" font-size="12" fill="#374151">100000</text>
<line x1="610.00" y1="42" x2="610.00" y2="470" stroke="#e5e7eb" stroke-width="1"/>
<text x="610.00" y="494" text-anchor="middle" font-family="Arial" font-size="12" fill="#374151">150000</text>
<line x1="785.00" y1="42" x2="785.00" y2="470" stroke="#e5e7eb" stroke-width="1"/>
<text x="785.00" y="494" text-anchor="middle" font-family="Arial" font-size="12" fill="#374151">200000</text>
<line x1="85" y1="470.00" x2="785" y2="470.00" stroke="#e5e7eb" stroke-width="1"/>
<text x="73" y="474.00" text-anchor="end" font-family="Arial" font-size="12" fill="#374151">-17114</text>
<line x1="85" y1="363.00" x2="785" y2="363.00" stroke="#e5e7eb" stroke-width="1"/>
<text x="73" y="367.00" text-anchor="end" font-family="Arial" font-size="12" fill="#374151">-7149</text>
<line x1="85" y1="256.00" x2="785" y2="256.00" stroke="#e5e7eb" stroke-width="1"/>
<text x="73" y="260.00" text-anchor="end" font-family="Arial" font-size="12" fill="#374151">2816</text>
<line x1="85" y1="149.00" x2="785" y2="149.00" stroke="#e5e7eb" stroke-width="1"/>
<text x="73" y="153.00" text-anchor="end" font-family="Arial" font-size="12" fill="#374151">12781</text>
<line x1="85" y1="42.00" x2="785" y2="42.00" stroke="#e5e7eb" stroke-width="1"/>
<text x="73" y="46.00" text-anchor="end" font-family="Arial" font-size="12" fill="#374151">22746</text>
<polyline fill="none" stroke="#2563eb" stroke-width="2" points="85.00,286.24 85.35,286.31 85.70,286.09 86.05,286.30 86.40,286.67 86.75,286.39 87.10,286.23 87.45,286.28 87.80,286.07 88.15,286.32 88.50,286.26 88.85,286.47 89.20,286.92 89.55,287.14 89.90,287.25 90.25,286.92 90.60,286.99 90.95,287.59 91.30,287.70 91.65,288.23 92.00,288.13 92.35,288.45 92.70,288.77 93.05,288.56 93.40,288.69 93.75,288.79 94.10,288.93 94.45,289.25 94.80,289.22 95.15,289.02 95.50,288.77 95.85,288.92 96.20,288.49 96.55,288.60 96.90,288.87 97.25,289.19 97.60,289.21 97.95,289.52 98.30,289.62 98.65,289.42 99.00,289.08 99.35,289.08 99.70,289.16 100.05,289.27 100.40,289.39 100.75,289.18 101.10,289.52 101.45,289.20 101.80,289.17 102.15,288.95 102.50,289.08 102.85,289.40 103.20,289.69 103.55,289.79 103.90,289.73 104.25,289.83 104.60,289.89 104.95,289.82 105.30,289.82 105.65,290.04 106.00,290.18 106.35,290.04 106.70,289.74 107.05,289.84 107.40,289.74 107.75,289.76 108.10,289.54 108.45,289.87 108.80,289.40 109.15,289.08 109.50,288.33 109.85,287.47 110.20,287.36 110.55,287.47 110.90,287.58 111.25,287.98 111.60,287.88 111.95,287.77 112.30,287.93 112.65,287.72 113.00,288.04 113.35,287.93 113.70,288.26 114.05,288.15 114.40,288.29 114.75,288.44 115.10,288.33 115.45,288.22 115.80,288.02 116.15,288.02 116.50,288.56 116.85,288.34 117.20,288.17 117.55,288.13 117.90,287.82 118.25,287.69 118.60,287.50 118.95,287.20 119.30,286.56 119.65,285.70 120.00,285.16 120.35,284.20 120.70,283.45 121.05,282.72 121.40,282.39 121.75,282.39 122.10,281.96 122.45,282.00 122.80,281.95 123.15,281.96 123.50,281.96 123.85,282.03 124.20,282.24 124.55,282.18 124.90,282.18 125.25,282.07 125.60,281.64 125.95,281.32 126.30,281.47 126.65,281.68 127.00,281.78 127.35,281.89 127.70,282.31 128.05,281.83 128.40,282.16 128.75,282.04 129.10,282.01 129.45,281.59 129.80,281.76 130.15,281.79 130.50,281.91 130.85,282.02 131.20,282.02 131.55,281.70 131.90,281.43 132.25,281.10 132.60,280.89 132.95,280.78 133.30,280.63 133.65,280.72 134.00,280.62 134.35,280.19 134.70,280.45 135.05,280.56 135.40,280.56 135.75,280.93 136.10,280.75 136.45,280.96 136.80,280.86 137.15,280.55 137.50,280.55 137.85,280.57 138.20,280.57 138.55,280.81 138.90,280.60 139.25,280.54 139.60,280.55 139.95,280.30 140.30,280.10 140.65,280.07 141.00,279.64 141.35,279.55 141.70,279.50 142.05,279.34 142.40,279.17 142.75,278.81 143.10,278.81 143.45,278.59 143.80,278.53 144.15,278.66 144.50,278.74 144.85,279.01 145.20,279.01 145.55,278.58 145.90,278.06 146.25,277.29 146.60,276.64 146.95,275.78 147.30,275.24 147.65,274.89 148.00,274.78 148.35,275.20 148.70,275.37 149.05,275.50 149.40,275.37 149.75,275.37 150.10,275.91 150.45,276.12 150.80,276.09 151.15,276.30 151.50,276.84 151.85,276.32 152.20,275.46 152.55,274.91 152.90,274.26 153.25,273.62 153.60,273.08 153.95,273.11 154.30,273.32 154.65,272.35 155.00,271.54 155.35,271.00 155.70,271.00 156.05,270.57 156.40,270.68 156.75,270.79 157.10,270.79 157.45,270.49 157.80,270.53 158.15,270.85 158.50,270.64 158.85,270.74 159.20,270.85 159.55,270.31 159.90,270.42 160.25,270.41 160.60,270.25 160.95,270.46 161.30,270.68 161.65,270.36 162.00,270.36 162.35,270.42 162.70,270.40 163.05,270.51 163.40,270.08 163.75,270.14 164.10,270.39 164.45,269.65 164.80,269.00 165.15,268.69 165.50,268.81 165.85,269.21 166.20,269.21 166.55,269.31 166.90,268.94 167.25,268.72 167.60,267.97 167.95,267.67 168.30,267.52 168.65,267.84 169.00,268.11 169.35,268.55 169.70,268.62 170.05,268.62 170.40,268.42 170.75,268.21 171.10,268.21 171.45,268.64 171.80,268.64 172.15,268.63 172.50,268.63 172.85,269.27 173.20,269.16 173.55,268.95 173.90,269.16 174.25,268.85 174.60,269.04 174.95,269.02 175.30,269.22 175.65,269.22 176.00,269.74 176.35,269.56 176.70,269.82 177.05,269.81 177.40,269.81 177.75,269.93 178.10,269.50 178.45,269.24 178.80,269.48 179.15,269.37 179.50,269.45 179.85,269.54 180.20,269.65 180.55,269.49 180.90,270.02 181.25,270.03 181.60,270.25 181.95,270.37 182.30,270.47 182.65,270.20 183.00,270.26 183.35,270.47 183.70,270.80 184.05,270.15 184.40,269.29 184.75,268.43 185.10,267.68 185.45,266.76 185.80,266.16 186.15,265.47 186.50,264.67 186.85,263.63 187.20,262.93 187.55,262.96 187.90,262.64 188.25,261.78 188.60,261.22 188.95,260.40 189.30,259.61 189.65,258.64 190.00,257.66 190.35,256.70 190.70,255.68 191.05,255.03 191.40,254.39 191.75,253.93 192.10,253.18 192.45,252.64 192.80,251.99 193.15,251.36 193.50,250.55 193.85,249.90 194.20,249.07 194.55,248.54 194.90,247.77 195.25,246.97 195.60,246.00 195.95,245.14 196.30,244.39 196.65,243.53 197.00,242.67 197.35,242.14 197.70,241.71 198.05,241.06 198.40,240.10 198.75,239.14 199.10,238.47 199.45,237.82 199.80,237.25 200.15,236.39 200.50,235.53 200.85,234.91 201.20,234.33 201.55,233.37 201.90,233.04 202.25,232.16 202.60,231.43 202.95,230.57 203.30,229.82 203.65,228.86 204.00,228.32 204.35,227.78 204.70,227.35 205.05,226.64 205.40,226.11 205.75,225.17 206.10,224.42 206.45,223.45 206.80,222.70 207.15,221.79 207.50,220.93 207.85,220.42 208.20,219.66 208.55,218.91 208.90,218.05 209.25,217.47 209.60,216.83 209.95,215.97 210.30,215.00 210.65,214.25 211.00,213.50 211.35,213.07 211.70,212.10 212.05,211.46 212.40,210.60 212.75,211.03 213.10,211.37 213.45,211.59 213.80,211.48 214.15,211.40 214.50,211.83 214.85,212.15 215.20,211.93 215.55,212.58 215.90,212.90 216.25,213.33 216.60,213.97 216.95,214.19 217.30,214.31 217.65,214.84 218.00,215.59 218.35,215.81 218.70,215.70 219.05,216.30 219.40,216.79 219.75,216.73 220.10,217.27 220.45,217.81 220.80,218.78 221.15,219.21 221.50,219.14 221.85,219.85 222.20,220.28 222.55,220.60 222.90,221.03 223.25,220.76 223.60,220.53 223.95,220.45 224.30,220.23 224.65,220.20 225.00,220.42 225.35,220.49 225.70,220.51 226.05,220.37 226.40,220.37 226.75,220.19 227.10,220.39 227.45,220.07 227.80,219.87 228.15,219.98 228.50,219.45 228.85,219.45 229.20,219.56 229.55,219.89 229.90,219.79 230.25,220.30 230.60,219.90 230.95,219.69 231.30,220.01 231.65,220.22 232.00,220.01 232.35,219.60 232.70,219.69 233.05,220.31 233.40,220.20 233.75,220.22 234.10,220.36 234.45,219.61 234.80,219.00 235.15,218.78 235.50,218.41 235.85,218.31 236.20,218.31 236.55,218.53 236.90,218.74 237.25,218.59 237.60,218.38 237.95,218.61 238.30,218.50 238.65,218.13 239.00,218.24 239.35,218.27 239.70,218.14 240.05,218.25 240.40,218.14 240.75,217.77 241.10,217.98 241.45,217.58 241.80,217.38 242.15,217.04 242.50,216.83 242.85,216.51 243.20,216.51 243.55,216.20 243.90,215.66 244.25,215.04 244.60,214.39 244.95,214.50 245.30,214.12 245.65,213.47 246.00,213.04 246.35,212.66 246.70,212.30 247.05,212.41 247.40,211.98 247.75,211.65 248.10,211.33 248.45,211.33 248.80,210.64 249.15,209.94 249.50,209.84 249.85,209.65 250.20,210.18 250.55,209.81 250.90,209.81 251.25,209.94 251.60,209.67 251.95,209.35 252.30,209.32 252.65,209.33 253.00,209.23 253.35,209.59 253.70,209.58 254.05,209.69 254.40,209.80 254.75,209.80 255.10,209.90 255.45,209.60 255.80,209.73 256.15,209.73 256.50,209.30 256.85,209.12 257.20,208.69 257.55,208.69 257.90,208.69 258.25,209.06 258.60,209.06 258.95,208.86 259.30,209.00 259.65,209.32 260.00,208.68 260.35,208.09 260.70,207.55 261.05,206.53 261.40,206.37 261.75,206.20 262.10,205.61 262.45,204.88 262.80,204.13 263.15,203.27 263.50,202.73 263.85,202.14 264.20,201.56 264.55,200.64 264.90,199.67 265.25,198.92 265.60,197.97 265.95,197.11 266.30,196.15 266.65,195.61 267.00,194.65 267.35,194.00 267.70,193.17 268.05,192.21 268.40,191.47 268.75,190.50 269.10,189.86 269.45,189.39 269.80,188.75 270.15,187.89 270.50,187.14 270.85,186.17 271.20,185.53 271.55,184.88 271.90,184.40 272.25,183.44 272.60,182.48 272.95,181.51 273.30,180.98 273.65,180.34 274.00,179.48 274.35,178.41 274.70,177.77 275.05,176.96 275.40,176.11 275.75,175.58 276.10,174.79 276.45,173.93 276.80,173.29 277.15,172.64 277.50,171.81 277.85,171.38 278.20,170.78 278.55,170.25 278.90,169.61 279.25,168.85 279.60,168.24 279.95,167.49 280.30,166.63 280.65,165.99 281.00,165.41 281.35,164.66 281.70,164.03 282.05,163.12 282.40,162.48 282.75,161.94 283.10,161.22 283.45,160.52 283.80,159.71 284.15,159.02 284.50,158.56 284.85,157.70 285.20,156.73 285.55,156.19 285.90,155.55 286.25,154.80 286.60,154.15 286.95,153.29 287.30,152.75 287.65,151.89 288.00,151.35 288.35,151.67 288.70,151.93 289.05,151.93 289.40,151.92 289.75,152.24 290.10,152.20 290.45,151.82 290.80,151.18 291.15,150.86 291.50,150.75 291.85,150.86 292.20,151.07 292.55,151.19 292.90,151.19 293.25,151.41 293.60,151.54 293.95,151.91 294.30,152.23 294.65,152.34 295.00,152.34 295.35,152.49 295.70,152.54 296.05,152.38 296.40,152.38 296.75,152.06 297.10,152.23 297.45,153.09 297.80,153.74 298.15,154.49 298.50,154.87 298.85,154.98 299.20,154.98 299.55,155.20 299.90,155.13 300.25,155.10 300.60,155.52 300.95,156.16 301.30,157.24 301.65,158.20 302.00,158.52 302.35,158.52 302.70,158.64 303.05,158.64 303.40,158.77 303.75,158.79 304.10,158.91 304.45,158.77 304.80,158.88 305.15,158.66 305.50,158.88 305.85,159.09 306.20,159.52 306.55,159.74 306.90,159.84 307.25,159.96 307.60,159.53 307.95,159.86 308.30,160.29 308.65,160.49 309.00,160.49 309.35,160.15 309.70,160.67 310.05,160.36 310.40,159.93 310.75,159.67 311.10,159.89 311.45,159.35 311.80,159.13 312.15,159.25 312.50,159.47 312.85,159.47 313.20,159.43 313.55,159.11 313.90,159.11 314.25,159.05 314.60,159.08 314.95,158.87 315.30,158.76 315.65,158.65 316.00,159.40 316.35,160.10 316.70,160.75 317.05,161.50 317.40,162.36 317.75,163.22 318.10,163.90 318.45,164.66 318.80,165.41 319.15,166.37 319.50,166.42 319.85,166.42 320.20,166.64 320.55,167.39 320.90,168.14 321.25,168.84 321.60,169.70 321.95,170.35 322.30,170.88 322.65,171.74 323.00,172.39 323.35,173.03 323.70,173.92 324.05,174.43 324.40,174.96 324.75,175.93 325.10,176.79 325.45,177.54 325.80,178.51 326.15,179.15 326.50,179.90 326.85,180.84 327.20,181.74 327.55,182.50 327.90,183.33 328.25,184.04 328.60,185.09 328.95,185.73 329.30,186.48 329.65,187.33 330.00,187.88 330.35,188.40 330.70,188.29 331.05,188.61 331.40,188.72 331.75,188.83 332.10,188.42 332.45,188.50 332.80,188.40 333.15,188.15 333.50,188.36 333.85,188.26 334.20,188.10 334.55,188.10 334.90,188.05 335.25,188.16 335.60,187.30 335.95,186.40 336.30,185.33 336.65,184.68 337.00,183.93 337.35,182.96 337.70,182.10 338.05,181.24 338.40,180.57 338.75,179.60 339.10,178.64 339.45,177.78 339.80,177.13 340.15,176.49 340.50,176.06 340.85,175.52 341.20,175.64 341.55,175.33 341.90,175.62 342.25,175.73 342.60,175.93 342.95,176.25 343.30,176.04 343.65,175.82 344.00,175.68 344.35,175.58 344.70,175.58 345.05,175.27 345.40,175.10 345.75,175.00 346.10,174.78 346.45,174.92 346.80,174.43 347.15,173.69 347.50,172.93 347.85,172.50 348.20,171.43 348.55,170.68 348.90,169.93 349.25,169.50 349.60,168.85 349.95,168.42 350.30,167.89 350.65,167.23 351.00,166.61 351.35,165.86 351.70,165.00 352.05,164.42 352.40,163.67 352.75,162.81 353.10,161.73 353.45,161.09 353.80,160.34 354.15,159.37 354.50,158.73 354.85,157.98 355.20,157.44 355.55,156.80 355.90,156.26 356.25,155.58 356.60,154.72 356.95,153.86 357.30,153.22 357.65,152.36 358.00,151.77 358.35,150.80 358.70,150.05 359.05,149.41 359.40,148.55 359.75,147.80 360.10,147.05 360.45,146.09 360.80,145.34 361.15,144.83 361.50,143.76 361.85,143.12 362.20,142.36 362.55,141.58 362.90,140.94 363.25,140.08 363.60,139.17 363.95,138.32 364.30,137.65 364.65,136.73 365.00,136.19 365.35,135.34 365.70,134.54 366.05,133.70 366.40,132.73 366.75,131.99 367.10,131.13 367.45,130.06 367.80,129.31 368.15,128.34 368.50,127.52 368.85,126.56 369.20,126.02 369.55,125.08 369.90,124.22 370.25,123.47 370.60,122.92 370.95,122.17 371.30,121.63 371.65,120.88 372.00,120.09 372.35,119.75 372.70,118.95 373.05,118.30 373.40,117.54 373.75,117.04 374.10,116.19 374.45,115.65 374.80,114.79 375.15,114.36 375.50,113.50 375.85,112.64 376.20,112.01 376.55,111.04 376.90,110.51 377.25,109.80 377.60,108.95 377.95,108.39 378.30,107.70 378.65,106.79 379.00,106.36 379.35,105.72 379.70,104.96 380.05,104.21 380.40,103.76 380.75,103.09 381.10,102.44 381.45,101.69 381.80,100.94 382.15,100.29 382.50,99.33 382.85,98.49 383.20,97.67 383.55,96.80 383.90,96.27 384.25,95.30 384.60,94.12 384.95,93.37 385.30,92.47 385.65,91.50 386.00,90.75 386.35,90.10 386.70,89.50 387.05,88.88 387.40,87.91 387.75,87.12 388.10,86.26 388.45,85.83 388.80,85.11 389.15,84.14 389.50,83.31 389.85,82.35 390.20,81.71 390.55,80.63 390.90,79.88 391.25,79.26 391.60,78.51 391.95,77.75 392.30,77.21 392.65,76.13 393.00,75.49 393.35,74.58 393.70,73.86 394.05,73.17 394.40,72.42 394.75,71.62 395.10,71.52 395.45,71.52 395.80,71.52 396.15,71.52 396.50,71.52 396.85,71.52 397.20,71.52 397.55,71.52 397.90,71.52 398.25,71.52 398.60,71.52 398.95,71.52 399.30,71.52 399.65,71.52 400.00,71.52 400.35,71.52 400.70,71.52 401.05,71.52 401.40,71.52 401.75,71.52 402.10,71.52 402.45,71.52 402.80,71.52 403.15,71.52 403.50,71.52 403.85,71.52 404.20,71.52 404.55,71.52 404.90,71.52 405.25,71.52 405.60,71.52 405.95,71.52 406.30,71.52 406.65,71.52 407.00,71.52 407.35,71.52 407.70,71.52 408.05,71.52 408.40,71.52 408.75,71.52 409.10,71.52 409.45,71.52 409.80,71.52 410.15,71.52 410.50,71.52 410.85,71.52 411.20,71.52 411.55,71.52 411.90,71.52 412.25,71.52 412.60,71.52 412.95,71.52 413.30,71.52 413.65,71.52 414.00,71.52 414.35,71.52 414.70,71.52 415.05,71.52 415.40,71.52 415.75,71.52 416.10,71.52 416.45,71.52 416.80,71.52 417.15,71.52 417.50,71.52 417.85,71.52 418.20,71.52 418.55,71.52 418.90,71.52 419.25,71.52 419.60,71.52 419.95,71.52 420.30,71.52 420.65,71.52 421.00,71.52 421.35,71.52 421.70,71.52 422.05,71.52 422.40,71.52 422.75,71.52 423.10,71.52 423.45,71.52 423.80,71.52 424.15,71.52 424.50,71.52 424.85,71.52 425.20,71.52 425.55,71.52 425.90,71.52 426.25,71.52 426.60,71.52 426.95,71.52 427.30,71.52 427.65,71.52 428.00,71.52 428.35,71.52 428.70,71.52 429.05,71.52 429.40,71.52 429.75,71.52 430.10,71.52 430.45,71.52 430.80,71.52 431.15,71.52 431.50,71.52 431.85,71.52 432.20,71.52 432.55,71.52 432.90,71.52 433.25,71.52 433.60,71.52 433.95,71.52 434.30,71.52 434.65,71.52 435.00,71.52 435.35,71.52 435.70,71.52 436.05,71.52 436.40,71.52 436.75,71.52 437.10,71.52 437.45,71.52 437.80,71.52 438.15,71.52 438.50,71.52 438.85,71.52 439.20,71.52 439.55,71.52 439.90,71.52 440.25,71.52 440.60,71.52 440.95,71.52 441.30,71.52 441.65,71.52 442.00,71.52 442.35,71.52 442.70,71.52 443.05,71.52 443.40,71.52 443.75,71.52 444.10,71.52 444.45,71.52 444.80,71.52 445.15,71.52 445.50,71.52 445.85,71.52 446.20,71.52 446.55,71.52 446.90,71.52 447.25,71.52 447.60,71.52 447.95,71.52 448.30,71.52 448.65,71.52 449.00,71.52 449.35,71.52 449.70,71.52 450.05,71.52 450.40,71.52 450.75,71.52 451.10,71.52 451.45,71.52 451.80,71.52 452.15,71.52 452.50,71.52 452.85,71.52 453.20,71.52 453.55,71.52 453.90,71.52 454.25,71.52 454.60,71.52 454.95,71.52 455.30,71.52 455.65,71.52 456.00,71.52 456.35,71.52 456.70,71.52 457.05,71.52 457.40,71.52 457.75,71.52 458.10,71.52 458.45,71.74 458.80,71.65 459.15,71.71 459.50,72.04 459.85,72.39 460.20,73.03 460.55,73.68 460.90,73.95 461.25,74.49 461.60,75.39 461.95,76.31 462.30,76.79 462.65,77.64 463.00,78.07 463.35,78.99 463.70,79.21 464.05,79.96 464.40,80.71 464.75,80.90 465.10,81.33 465.45,81.22 465.80,81.33 466.15,81.55 466.50,81.94 466.85,82.48 467.20,83.02 467.55,83.66 467.90,83.34 468.25,83.62 468.60,84.16 468.95,84.58 469.30,85.01 469.65,84.91 470.00,85.20 470.35,85.30 470.70,85.35 471.05,85.77 471.40,86.28 471.75,87.25 472.10,87.92 472.45,88.41 472.80,89.09 473.15,89.09 473.50,89.21 473.85,89.37 474.20,89.91 474.55,90.47 474.90,91.33 475.25,92.29 475.60,92.68 475.95,93.33 476.30,94.22 476.65,94.83 477.00,95.02 477.35,95.55 477.70,95.87 478.05,96.28 478.40,96.83 478.75,96.77 479.10,97.31 479.45,97.63 479.80,97.80 480.15,97.85 480.50,97.79 480.85,98.33 481.20,98.97 481.55,99.56 481.90,99.98 482.25,99.98 482.60,100.41 482.95,99.88 483.30,99.46 483.65,99.18 484.00,99.70 484.35,99.02 484.70,98.91 485.05,98.16 485.40,98.04 485.75,98.07 486.10,98.82 486.45,99.27 486.80,99.47 487.15,98.87 487.50,98.11 487.85,97.60 488.20,96.63 488.55,96.68 488.90,96.14 489.25,95.60 489.60,95.06 489.95,94.42 490.30,93.56 490.65,93.02 491.00,92.27 491.35,91.67 491.70,90.92 492.05,90.06 492.40,89.20 492.75,88.45 493.10,87.91 493.45,87.24 493.80,86.38 494.15,85.52 494.50,84.77 494.85,84.12 495.20,83.45 495.55,82.91 495.90,82.37 496.25,83.02 496.60,82.80 496.95,82.37 497.30,81.62 497.65,80.98 498.00,80.12 498.35,79.26 498.70,78.61 499.05,78.13 499.40,77.17 499.75,76.47 500.10,75.60 500.45,74.85 500.80,74.09 501.15,73.35 501.50,72.77 501.85,72.96 502.20,73.17 502.55,73.71 502.90,74.42 503.25,74.85 503.60,75.13 503.95,75.53 504.30,75.75 504.65,75.04 505.00,74.82 505.35,75.25 505.70,75.36 506.05,75.25 506.40,75.47 506.75,75.58 507.10,75.36 507.45,74.72 507.80,73.75 508.15,73.43 508.50,72.57 508.85,72.49 509.20,73.57 509.55,73.98 509.90,74.20 510.25,74.63 510.60,75.11 510.95,75.87 511.30,76.64 511.65,76.75 512.00,76.53 512.35,75.89 512.70,76.23 513.05,76.23 513.40,76.23 513.75,76.10 514.10,75.61 514.45,74.96 514.80,74.21 515.15,74.00 515.50,73.03 515.85,72.28 516.20,71.53 516.55,71.53 516.90,71.53 517.25,71.53 517.60,71.53 517.95,71.53 518.30,71.53 518.65,71.53 519.00,71.53 519.35,71.53 519.70,71.53 520.05,71.53 520.40,71.53 520.75,71.53 521.10,71.53 521.45,71.53 521.80,71.53 522.15,71.53 522.50,71.53 522.85,71.53 523.20,71.53 523.55,71.53 523.90,71.53 524.25,71.53 524.60,71.53 524.95,71.53 525.30,71.53 525.65,71.53 526.00,71.53 526.35,71.53 526.70,71.53 527.05,71.53 527.40,71.53 527.75,71.53 528.10,71.53 528.45,71.53 528.80,71.53 529.15,71.53 529.50,71.53 529.85,71.53 530.20,71.53 530.55,71.53 530.90,71.53 531.25,71.53 531.60,71.53 531.95,71.53 532.30,71.53 532.65,71.53 533.00,71.53 533.35,71.53 533.70,71.53 534.05,71.53 534.40,71.53 534.75,71.53 535.10,71.53 535.45,71.53 535.80,71.53 536.15,71.53 536.50,71.53 536.85,71.53 537.20,71.53 537.55,71.53 537.90,71.53 538.25,71.53 538.60,71.53 538.95,71.53 539.30,71.53 539.65,71.53 540.00,71.53 540.35,71.53 540.70,71.53 541.05,71.53 541.40,71.53 541.75,71.53 542.10,71.53 542.45,71.53 542.80,71.53 543.15,71.53 543.50,71.53 543.85,71.53 544.20,71.53 544.55,71.53 544.90,71.53 545.25,71.53 545.60,71.53 545.95,71.53 546.30,71.53 546.65,71.53 547.00,71.53 547.35,71.53 547.70,71.53 548.05,71.53 548.40,71.53 548.75,71.53 549.10,71.53 549.45,71.53 549.80,71.53 550.15,71.53 550.50,71.53 550.85,71.53 551.20,71.53 551.55,71.53 551.90,71.53 552.25,71.53 552.60,71.53 552.95,71.53 553.30,71.53 553.65,71.53 554.00,71.53 554.35,71.53 554.70,71.53 555.05,71.53 555.40,71.53 555.75,71.53 556.10,71.53 556.45,71.53 556.80,71.53 557.15,71.53 557.50,71.53 557.85,71.53 558.20,71.53 558.55,71.53 558.90,71.53 559.25,71.53 559.60,71.53 559.95,71.53 560.30,71.53 560.65,71.53 561.00,71.53 561.35,71.53 561.70,71.53 562.05,71.53 562.40,71.53 562.75,71.53 563.10,71.53 563.45,71.53 563.80,71.53 564.15,71.53 564.50,71.53 564.85,71.53 565.20,71.53 565.55,71.53 565.90,71.53 566.25,71.53 566.60,71.53 566.95,71.53 567.30,71.53 567.65,71.53 568.00,71.53 568.35,71.53 568.70,71.53 569.05,71.53 569.40,71.53 569.75,71.53 570.10,71.53 570.45,71.53 570.80,71.53 571.15,71.53 571.50,71.53 571.85,71.53 572.20,71.53 572.55,71.53 572.90,71.53 573.25,71.53 573.60,71.53 573.95,71.53 574.30,71.53 574.65,71.53 575.00,71.53 575.35,71.53 575.70,71.53 576.05,71.53 576.40,71.53 576.75,71.53 577.10,71.53 577.45,71.53 577.80,71.53 578.15,71.53 578.50,71.53 578.85,71.53 579.20,71.53 579.55,71.53 579.90,71.53 580.25,71.53 580.60,71.53 580.95,71.53 581.30,71.53 581.65,71.53 582.00,71.53 582.35,71.53 582.70,71.53 583.05,71.53 583.40,71.53 583.75,71.53 584.10,71.53 584.45,71.53 584.80,71.53 585.15,71.53 585.50,71.53 585.85,71.53 586.20,71.53 586.55,71.53 586.90,71.53 587.25,71.53 587.60,71.53 587.95,71.53 588.30,71.53 588.65,71.53 589.00,71.53 589.35,71.53 589.70,71.53 590.05,71.53 590.40,71.53 590.75,71.53 591.10,71.53 591.45,71.53 591.80,71.53 592.15,71.53 592.50,71.53 592.85,71.53 593.20,71.53 593.55,71.53 593.90,71.53 594.25,71.53 594.60,71.53 594.95,71.53 595.30,71.53 595.65,71.53 596.00,71.53 596.35,71.53 596.70,71.53 597.05,71.53 597.40,71.53 597.75,71.53 598.10,71.53 598.45,71.53 598.80,71.53 599.15,71.53 599.50,71.53 599.85,71.53 600.20,71.53 600.55,71.53 600.90,71.88 601.25,71.56 601.60,71.56 601.95,71.56 602.30,71.56 602.65,71.56 603.00,71.56 603.35,71.56 603.70,71.56 604.05,71.56 604.40,71.56 604.75,71.56 605.10,71.56 605.45,71.56 605.80,71.56 606.15,71.56 606.50,71.56 606.85,71.56 607.20,71.56 607.55,71.56 607.90,71.56 608.25,71.56 608.60,71.56 608.95,71.56 609.30,71.77 609.65,72.03 610.00,72.35 610.35,72.14 610.70,71.82 611.05,72.22 611.40,73.00 611.75,72.89 612.10,72.59 612.45,71.73 612.80,71.62 613.15,72.08 613.50,72.70 613.85,73.13 614.20,73.45 614.55,73.84 614.90,74.37 615.25,74.05 615.60,73.84 615.95,74.36 616.30,74.15 616.65,73.93 617.00,74.57 617.35,75.18 617.70,75.61 618.05,76.25 618.40,77.22 618.75,77.57 619.10,78.56 619.45,79.63 619.80,80.19 620.15,80.94 620.50,81.96 620.85,82.82 621.20,83.79 621.55,84.76 621.90,85.54 622.25,85.49 622.60,86.08 622.95,86.66 623.30,86.72 623.65,87.37 624.00,88.22 624.35,89.08 624.70,89.79 625.05,90.33 625.40,91.19 625.75,91.94 626.10,92.83 626.45,93.05 626.80,93.55 627.15,94.11 627.50,94.86 627.85,95.18 628.20,95.52 628.55,96.04 628.90,96.16 629.25,96.16 629.60,96.71 629.95,97.14 630.30,96.94 630.65,96.94 631.00,97.05 631.35,97.07 631.70,97.58 632.05,97.79 632.40,98.22 632.75,98.59 633.10,99.02 633.45,99.23 633.80,100.09 634.15,100.20 634.50,100.30 634.85,100.24 635.20,100.56 635.55,100.88 635.90,101.10 636.25,101.10 636.60,101.25 636.95,100.93 637.30,100.78 637.65,100.78 638.00,100.86 638.35,101.08 638.70,101.19 639.05,101.71 639.40,101.78 639.75,101.81 640.10,102.15 640.45,102.44 640.80,102.68 641.15,102.75 641.50,102.82 641.85,103.03 642.20,103.24 642.55,103.67 642.90,103.25 643.25,103.59 643.60,103.70 643.95,103.63 644.30,103.75 644.65,103.43 645.00,103.87 645.35,103.84 645.70,104.07 646.05,103.97 646.40,104.18 646.75,104.29 647.10,104.07 647.45,104.48 647.80,104.25 648.15,104.30 648.50,104.46 648.85,104.74 649.20,104.88 649.55,105.20 649.90,105.30 650.25,105.21 650.60,105.43 650.95,105.32 651.30,105.39 651.65,105.85 652.00,106.17 652.35,106.70 652.70,107.17 653.05,107.38 653.40,107.05 653.75,107.58 654.10,107.48 654.45,107.99 654.80,108.44 655.15,108.70 655.50,108.64 655.85,108.53 656.20,108.21 656.55,108.53 656.90,108.71 657.25,109.14 657.60,108.89 657.95,108.86 658.30,108.86 658.65,109.13 659.00,109.54 659.35,109.54 659.70,109.58 660.05,109.80 660.40,110.32 660.75,110.32 661.10,109.94 661.45,109.79 661.80,110.09 662.15,110.25 662.50,110.36 662.85,110.08 663.20,110.10 663.55,110.07 663.90,110.65 664.25,111.40 664.60,112.36 664.95,113.01 665.30,114.01 665.65,114.29 666.00,114.82 666.35,115.57 666.70,116.19 667.05,117.26 667.40,117.80 667.75,118.33 668.10,119.22 668.45,120.30 668.80,121.05 669.15,121.86 669.50,122.66 669.85,123.30 670.20,124.09 670.55,125.16 670.90,125.91 671.25,126.79 671.60,127.65 671.95,128.19 672.30,129.05 672.65,129.81 673.00,130.67 673.35,131.21 673.70,131.77 674.05,132.52 674.40,133.16 674.75,133.86 675.10,134.56 675.45,135.33 675.80,135.70 676.15,136.54 676.50,137.19 676.85,137.94 677.20,138.80 677.55,139.53 677.90,140.60 678.25,141.57 678.60,142.00 678.95,142.93 679.30,143.68 679.65,144.54 680.00,144.44 680.35,144.98 680.70,144.88 681.05,145.41 681.40,145.31 681.75,145.09 682.10,144.91 682.45,144.95 682.80,144.84 683.15,144.96 683.50,145.19 683.85,145.30 684.20,144.97 684.55,144.97 684.90,145.19 685.25,145.19 685.60,145.27 685.95,144.90 686.30,144.76 686.65,144.44 687.00,144.58 687.35,144.15 687.70,144.25 688.05,143.82 688.40,143.93 688.75,143.82 689.10,143.72 689.45,143.34 689.80,143.13 690.15,143.02 690.50,142.59 690.85,141.95 691.20,141.00 691.55,140.10 691.90,139.35 692.25,138.49 692.60,137.74 692.95,136.88 693.30,136.02 693.65,134.94 694.00,134.11 694.35,133.14 694.70,132.39 695.05,131.96 695.40,131.21 695.75,130.38 696.10,129.41 696.45,128.77 696.80,128.29 697.15,128.29 697.50,128.66 697.85,128.56 698.20,127.91 698.55,127.05 698.90,126.09 699.25,125.33 699.60,124.69 699.95,123.94 700.30,123.40 700.65,122.65 701.00,122.52 701.35,122.41 701.70,122.09 702.05,121.72 702.40,121.20 702.75,121.31 703.10,121.52 703.45,121.52 703.80,122.19 704.15,122.39 704.50,122.19 704.85,121.50 705.20,121.07 705.55,120.10 705.90,119.45 706.25,118.81 706.60,118.27 706.95,118.48 707.30,118.30 707.65,118.41 708.00,118.28 708.35,118.28 708.70,118.39 709.05,118.19 709.40,118.09 709.75,117.90 710.10,118.01 710.45,117.89 710.80,117.27 711.15,117.81 711.50,118.42 711.85,118.42 712.20,118.74 712.55,118.63 712.90,118.53 713.25,118.53 713.60,118.20 713.95,118.34 714.30,118.45 714.65,118.45 715.00,118.02 715.35,117.56 715.70,117.99 716.05,118.05 716.40,118.03 716.75,118.01 717.10,118.33 717.45,118.10 717.80,118.11 718.15,118.09 718.50,118.19 718.85,118.30 719.20,118.09 719.55,118.15 719.90,117.72 720.25,118.10 720.60,118.27 720.95,118.34 721.30,118.19 721.65,118.55 722.00,118.23 722.35,118.55 722.70,118.49 723.05,118.60 723.40,118.82 723.75,118.49 724.10,117.96 724.45,118.26 724.80,118.02 725.15,118.45 725.50,119.07 725.85,119.65 726.20,119.86 726.55,120.07 726.90,120.00 727.25,119.85 727.60,119.76 727.95,119.65 728.30,120.30 728.65,121.16 729.00,122.12 729.35,123.20 729.70,124.06 730.05,124.60 730.40,125.24 730.75,125.88 731.10,125.99 731.45,126.42 731.80,126.53 732.15,126.74 732.50,126.85 732.85,126.42 733.20,126.32 733.55,126.58 733.90,126.49 734.25,126.28 734.60,126.63 734.95,127.04 735.30,127.36 735.65,127.33 736.00,127.52 736.35,127.07 736.70,127.03 737.05,127.31 737.40,127.83 737.75,127.88 738.10,128.46 738.45,128.67 738.80,128.62 739.15,128.57 739.50,128.46 739.85,128.67 740.20,129.21 740.55,129.43 740.90,129.15 741.25,129.25 741.60,129.47 741.95,129.30 742.30,129.22 742.65,128.91 743.00,129.02 743.35,129.39 743.70,129.77 744.05,129.60 744.40,129.54 744.75,129.65 745.10,129.65 745.45,129.54 745.80,129.83 746.15,130.26 746.50,130.36 746.85,131.33 747.20,132.18 747.55,132.94 747.90,133.80 748.25,134.26 748.60,135.33 748.95,136.30 749.30,137.05 749.65,137.88 750.00,138.73 750.35,139.59 750.70,140.35 751.05,140.88 751.40,141.42 751.75,142.39 752.10,143.24 752.45,143.97 752.80,144.40 753.15,145.37 753.50,146.23 753.85,147.20 754.20,148.05 754.55,148.81 754.90,149.45 755.25,150.10 755.60,150.95 755.95,151.60 756.30,152.14 756.65,152.67 757.00,153.53 757.35,154.20 757.70,155.21 758.05,155.76 758.40,156.64 758.75,157.21 759.10,157.97 759.45,158.93 759.80,159.79 760.15,160.59 760.50,161.34 760.85,162.20 761.20,163.02 761.55,163.71 761.90,164.35 762.25,165.21 762.60,166.05 762.95,167.02 763.30,167.23 763.65,167.98 764.00,168.56 764.35,169.43 764.70,170.19 765.05,170.83 765.40,171.47 765.75,172.44 766.10,173.35 766.45,173.89 766.80,174.53 767.15,175.24 767.50,176.02 767.85,176.66 768.20,177.20 768.55,178.08 768.90,178.83 769.25,179.48 769.60,180.44 769.95,180.87 770.30,181.62 770.65,181.72 771.00,181.82 771.35,182.68 771.70,183.33 772.05,183.79 772.40,184.55 772.75,185.52 773.10,186.19 773.45,186.85 773.80,187.49 774.15,187.06 774.50,187.71 774.85,188.57 775.20,189.43 775.55,190.43 775.90,191.18 776.25,192.21 776.60,192.85 776.95,193.66 777.30,194.52 777.65,195.27 778.00,196.23 778.35,196.66 778.70,196.88 779.05,197.04 779.40,197.90 779.75,198.38 780.10,199.03 780.45,198.81 780.80,199.35 781.15,199.99 781.50,201.07 781.85,201.71 782.20,202.39 782.55,203.25 782.90,204.00 783.25,204.96 783.60,205.67 783.95,206.02 784.30,206.77 784.65,206.77 785.00,206.61 785.00,286.24"/>
<line x1="813" y1="54" x2="839" y2="54" stroke="#2563eb" stroke-width="3"/>
<text x="847" y="58" font-family="Arial" font-size="13" fill="#111827">low volatility</text>
<polyline fill="none" stroke="#dc2626" stroke-width="2" points="85.00,286.24 85.35,286.24 85.70,285.88 86.05,286.15 86.40,287.01 86.75,287.82 87.10,288.66 87.45,289.42 87.80,290.06 88.15,290.74 88.50,290.95 88.85,291.15 89.20,291.22 89.55,291.00 89.90,290.47 90.25,289.93 90.60,289.65 90.95,289.58 91.30,289.90 91.65,289.58 92.00,289.25 92.35,288.82 92.70,289.52 93.05,289.74 93.40,289.42 93.75,289.35 94.10,289.67 94.45,289.14 94.80,288.44 95.15,288.25 95.50,287.49 95.85,286.74 96.20,285.78 96.55,285.13 96.90,284.14 97.25,283.61 97.60,282.85 97.95,282.06 98.30,281.63 98.65,280.77 99.00,280.02 99.35,279.59 99.70,278.84 100.05,277.87 100.40,276.91 100.75,276.88 101.10,277.54 101.45,278.40 101.80,279.23 102.15,279.99 102.50,280.86 102.85,281.29 103.20,282.25 103.55,283.10 103.90,283.96 104.25,283.13 104.60,282.60 104.95,282.20 105.30,281.63 105.65,281.52 106.00,281.20 106.35,281.42 106.70,281.95 107.05,282.60 107.40,283.32 107.75,283.85 108.10,284.82 108.45,284.85 108.80,283.99 109.15,284.11 109.50,283.96 109.85,283.64 110.20,282.89 110.55,282.68 110.90,281.96 111.25,281.19 111.60,280.76 111.95,280.65 112.30,280.65 112.65,281.13 113.00,281.56 113.35,281.51 113.70,281.66 114.05,281.98 114.40,282.20 114.75,282.20 115.10,282.18 115.45,282.43 115.80,282.64 116.15,282.85 116.50,282.83 116.85,282.83 117.20,283.11 117.55,283.11 117.90,283.76 118.25,284.62 118.60,285.47 118.95,286.23 119.30,286.98 119.65,287.84 120.00,288.60 120.35,289.46 120.70,290.10 121.05,290.75 121.40,291.31 121.75,292.06 122.10,292.81 122.45,293.61 122.80,294.37 123.15,295.02 123.50,295.88 123.85,296.60 124.20,297.35 124.55,297.98 124.90,298.41 125.25,299.10 125.60,299.64 125.95,300.60 126.30,301.25 126.65,302.18 127.00,302.83 127.35,303.19 127.70,303.73 128.05,302.98 128.40,302.33 128.75,301.47 129.10,300.72 129.45,300.29 129.80,299.64 130.15,298.99 130.50,298.03 130.85,297.49 131.20,297.20 131.55,296.45 131.90,295.71 132.25,294.85 132.60,293.77 132.95,292.92 133.30,291.84 133.65,291.84 134.00,291.29 134.35,291.37 134.70,291.15 135.05,291.76 135.40,292.51 135.75,293.26 136.10,292.94 136.45,293.33 136.80,293.33 137.15,293.98 137.50,293.81 137.85,294.14 138.20,294.25 138.55,294.22 138.90,294.32 139.25,294.86 139.60,294.74 139.95,294.74 140.30,293.88 140.65,294.10 141.00,293.88 141.35,294.03 141.70,294.03 142.05,294.60 142.40,295.14 142.75,295.70 143.10,296.60 143.45,297.35 143.80,297.89 144.15,298.75 144.50,299.71 144.85,300.36 145.20,301.11 145.55,301.97 145.90,302.61 146.25,303.36 146.60,304.01 146.95,304.76 147.30,305.22 147.65,305.88 148.00,306.09 148.35,307.06 148.70,307.92 149.05,308.78 149.40,309.20 149.75,308.60 150.10,308.93 150.45,309.57 150.80,309.78 151.15,309.74 151.50,309.37 151.85,309.75 152.20,309.97 152.55,310.72 152.90,311.69 153.25,312.27 153.60,311.62 153.95,311.61 154.30,311.30 154.65,311.62 155.00,311.41 155.35,312.16 155.70,312.69 156.05,312.44 156.40,311.98 156.75,311.76 157.10,311.87 157.45,312.58 157.80,312.33 158.15,312.55 158.50,312.77 158.85,313.84 159.20,314.60 159.55,315.24 159.90,315.30 160.25,315.22 160.60,315.86 160.95,316.61 161.30,317.09 161.65,318.16 162.00,318.80 162.35,319.23 162.70,320.09 163.05,320.70 163.40,321.56 163.75,321.43 164.10,321.33 164.45,321.11 164.80,320.58 165.15,319.80 165.50,319.27 165.85,318.42 166.20,317.34 166.55,316.64 166.90,315.78 167.25,315.92 167.60,316.13 167.95,316.02 168.30,316.18 168.65,315.49 169.00,314.73 169.35,313.98 169.70,313.12 170.05,312.27 170.40,311.73 170.75,310.87 171.10,310.01 171.45,309.15 171.80,308.43 172.15,307.68 172.50,306.82 172.85,305.96 173.20,305.21 173.55,304.44 173.90,303.69 174.25,302.77 174.60,302.13 174.95,301.48 175.30,301.05 175.65,300.30 176.00,299.58 176.35,298.83 176.70,297.97 177.05,297.33 177.40,296.48 177.75,295.62 178.10,294.98 178.45,294.33 178.80,293.80 179.15,292.95 179.50,292.17 179.85,291.32 180.20,290.46 180.55,289.75 180.90,288.89 181.25,288.25 181.60,287.31 181.95,286.73 182.30,285.98 182.65,285.18 183.00,284.64 183.35,284.09 183.70,283.34 184.05,282.80 184.40,281.94 184.75,281.07 185.10,280.21 185.45,279.35 185.80,278.79 186.15,278.03 186.50,277.39 186.85,276.54 187.20,275.79 187.55,274.94 187.90,274.40 188.25,273.44 188.60,272.78 188.95,271.96 189.30,271.37 189.65,270.62 190.00,269.75 190.35,268.79 190.70,268.14 191.05,267.50 191.40,266.71 191.75,265.74 192.10,264.90 192.45,264.26 192.80,263.63 193.15,262.88 193.50,262.24 193.85,261.70 194.20,260.84 194.55,259.98 194.90,259.31 195.25,258.99 195.60,258.02 195.95,257.37 196.30,256.41 196.65,255.44 197.00,254.58 197.35,253.85 197.70,253.10 198.05,252.56 198.40,251.82 198.75,250.96 199.10,250.21 199.45,249.57 199.80,249.05 200.15,248.05 200.50,246.98 200.85,246.24 201.20,245.49 201.55,244.84 201.90,245.13 202.25,245.56 202.60,246.21 202.95,246.42 203.30,246.64 203.65,245.78 204.00,245.24 204.35,244.49 204.70,243.66 205.05,243.02 205.40,242.37 205.75,241.84 206.10,241.73 206.45,242.16 206.80,242.16 207.15,241.62 207.50,240.87 207.85,240.23 208.20,239.80 208.55,238.83 208.90,238.08 209.25,237.33 209.60,236.47 209.95,235.72 210.30,234.75 210.65,233.89 211.00,233.03 211.35,232.26 211.70,231.40 212.05,230.54 212.40,229.90 212.75,228.82 213.10,227.86 213.45,227.09 213.80,226.24 214.15,225.37 214.50,225.58 214.85,225.27 215.20,225.45 215.55,225.99 215.90,224.91 216.25,225.56 216.60,225.52 216.95,225.18 217.30,224.81 217.65,224.59 218.00,224.33 218.35,224.38 218.70,224.49 219.05,225.67 219.40,226.05 219.75,226.24 220.10,226.45 220.45,226.45 220.80,226.66 221.15,226.77 221.50,225.91 221.85,225.34 222.20,224.81 222.55,224.70 222.90,224.47 223.25,224.90 223.60,223.95 223.95,223.52 224.30,222.77 224.65,223.38 225.00,223.34 225.35,223.98 225.70,224.04 226.05,224.25 226.40,223.53 226.75,222.79 227.10,222.22 227.45,221.47 227.80,221.79 228.15,222.60 228.50,223.24 228.85,223.99 229.20,224.31 229.55,224.79 229.90,225.64 230.25,226.72 230.60,227.40 230.95,228.15 231.30,228.91 231.65,229.73 232.00,230.69 232.35,231.41 232.70,232.07 233.05,232.82 233.40,233.67 233.75,234.43 234.10,235.18 234.45,236.03 234.80,236.45 235.15,237.60 235.50,238.29 235.85,238.72 236.20,239.26 236.55,239.96 236.90,240.71 237.25,241.68 237.60,242.44 237.95,243.19 238.30,244.08 238.65,244.94 239.00,245.55 239.35,246.30 239.70,246.95 240.05,247.71 240.40,248.25 240.75,248.95 241.10,249.59 241.45,250.56 241.80,251.20 242.15,252.16 242.50,252.91 242.85,253.23 243.20,253.87 243.55,253.34 243.90,252.48 244.25,251.72 244.60,250.96 244.95,250.11 245.30,249.03 245.65,248.17 246.00,247.42 246.35,247.10 246.70,247.42 247.05,247.73 247.40,248.60 247.75,248.39 248.10,248.49 248.45,248.71 248.80,249.43 249.15,248.67 249.50,247.91 249.85,247.16 250.20,246.65 250.55,245.93 250.90,245.28 251.25,244.63 251.60,243.98 251.95,243.33 252.30,242.42 252.65,241.99 253.00,241.20 253.35,240.41 253.70,239.34 254.05,239.01 254.40,238.48 254.75,237.62 255.10,236.54 255.45,235.90 255.80,235.04 256.15,234.27 256.50,233.30 256.85,232.79 257.20,232.15 257.55,231.24 257.90,230.29 258.25,229.93 258.60,229.21 258.95,228.24 259.30,227.38 259.65,226.74 260.00,226.10 260.35,225.46 260.70,224.50 261.05,223.91 261.40,223.16 261.75,222.22 262.10,221.58 262.45,221.10 262.80,220.32 263.15,219.79 263.50,219.04 263.85,218.18 264.20,217.65 264.55,216.89 264.90,216.25 265.25,216.54 265.60,217.40 265.95,217.98 266.30,218.87 266.65,219.72 267.00,220.47 267.35,221.01 267.70,221.76 268.05,222.62 268.40,223.29 268.75,224.15 269.10,224.80 269.45,225.14 269.80,225.75 270.15,226.61 270.50,227.33 270.85,228.01 271.20,228.65 271.55,229.30 271.90,230.26 272.25,231.34 272.60,231.98 272.95,232.09 273.30,232.12 273.65,232.66 274.00,232.66 274.35,232.61 274.70,232.94 275.05,233.45 275.40,232.95 275.75,232.73 276.10,233.14 276.45,233.57 276.80,234.25 277.15,235.16 277.50,235.80 277.85,236.55 278.20,237.20 278.55,238.27 278.90,238.49 279.25,238.85 279.60,239.05 279.95,239.69 280.30,239.96 280.65,240.17 281.00,240.82 281.35,241.17 281.70,241.50 282.05,241.93 282.40,242.21 282.75,242.32 283.10,242.32 283.45,241.88 283.80,242.34 284.15,243.00 284.50,242.46 284.85,241.74 285.20,240.97 285.55,240.22 285.90,239.57 286.25,239.03 286.60,238.61 286.95,238.93 287.30,239.02 287.65,238.27 288.00,237.84 288.35,237.09 288.70,236.87 289.05,237.40 289.40,237.72 289.75,237.19 290.10,236.44 290.45,235.87 290.80,235.65 291.15,235.65 291.50,234.68 291.85,234.03 292.20,233.71 292.55,232.74 292.90,232.00 293.25,231.36 293.60,230.49 293.95,229.84 294.30,229.09 294.65,228.34 295.00,227.59 295.35,226.94 295.70,226.19 296.05,225.66 296.40,224.99 296.75,225.31 297.10,226.07 297.45,226.93 297.80,227.62 298.15,228.16 298.50,228.78 298.85,229.42 299.20,230.26 299.55,229.73 299.90,229.05 300.25,228.94 300.60,228.76 300.95,228.35 301.30,227.60 301.65,227.59 302.00,226.51 302.35,225.66 302.70,225.05 303.05,224.41 303.40,223.57 303.75,222.82 304.10,221.96 304.45,221.27 304.80,220.72 305.15,220.50 305.50,220.31 305.85,220.01 306.20,220.54 306.55,221.08 306.90,221.19 307.25,221.51 307.60,222.38 307.95,223.40 308.30,224.04 308.65,224.79 309.00,225.64 309.35,226.61 309.70,227.36 310.05,228.01 310.40,228.97 310.75,229.62 311.10,230.48 311.45,231.16 311.80,231.70 312.15,232.46 312.50,233.06 312.85,233.52 313.20,234.16 313.55,235.13 313.90,235.56 314.25,236.41 314.60,237.07 314.95,238.04 315.30,238.89 315.65,239.54 316.00,240.23 316.35,240.44 316.70,240.43 317.05,239.89 317.40,239.03 317.75,239.14 318.10,239.57 318.45,238.56 318.80,237.60 319.15,237.09 319.50,236.34 319.85,235.59 320.20,234.62 320.55,234.03 320.90,233.17 321.25,232.42 321.60,231.35 321.95,230.65 322.30,230.25 322.65,229.39 323.00,228.82 323.35,228.01 323.70,227.33 324.05,226.49 324.40,225.53 324.75,224.78 325.10,224.02 325.45,223.38 325.80,222.86 326.15,221.87 326.50,221.44 326.85,220.58 327.20,219.93 327.55,219.40 327.90,218.64 328.25,218.00 328.60,217.53 328.95,216.78 329.30,215.81 329.65,215.16 330.00,215.38 330.35,214.74 330.70,215.23 331.05,215.78 331.40,216.64 331.75,216.10 332.10,217.07 332.45,216.74 332.80,215.86 333.15,215.11 333.50,214.66 333.85,213.83 334.20,213.02 334.55,212.16 334.90,211.62 335.25,210.76 335.60,210.05 335.95,209.09 336.30,208.44 336.65,207.69 337.00,206.83 337.35,206.08 337.70,205.11 338.05,204.55 338.40,203.90 338.75,203.36 339.10,202.51 339.45,201.75 339.80,201.02 340.15,200.11 340.50,199.25 340.85,198.61 341.20,197.96 341.55,197.00 341.90,196.46 342.25,195.71 342.60,194.87 342.95,194.12 343.30,193.47 343.65,192.85 344.00,192.32 344.35,191.24 344.70,190.29 345.05,189.43 345.40,188.78 345.75,187.83 346.10,187.29 346.45,186.64 346.80,185.99 347.15,185.24 347.50,184.17 347.85,183.31 348.20,182.77 348.55,181.80 348.90,181.08 349.25,180.33 349.60,179.47 349.95,178.83 350.30,178.03 350.65,177.39 351.00,176.53 351.35,175.93 351.70,175.07 352.05,174.10 352.40,173.14 352.75,172.39 353.10,171.31 353.45,170.67 353.80,170.16 354.15,169.20 354.50,168.45 354.85,167.59 355.20,166.85 355.55,165.77 355.90,164.91 356.25,164.38 356.60,165.10 356.95,166.06 357.30,166.95 357.65,167.74 358.00,168.52 358.35,169.38 358.70,170.35 359.05,171.22 359.40,172.07 359.75,172.83 360.10,173.15 360.45,174.08 360.80,174.97 361.15,175.73 361.50,176.58 361.85,177.34 362.20,178.30 362.55,178.97 362.90,179.73 363.25,180.70 363.60,181.46 363.95,182.32 364.30,182.71 364.65,183.56 365.00,184.53 365.35,185.13 365.70,186.04 366.05,186.79 366.40,187.43 366.75,188.29 367.10,188.83 367.45,189.68 367.80,190.44 368.15,191.18 368.50,191.93 368.85,192.90 369.20,193.43 369.55,194.37 369.90,195.25 370.25,196.08 370.60,196.91 370.95,197.66 371.30,198.06 371.65,197.38 372.00,196.52 372.35,195.56 372.70,195.24 373.05,195.88 373.40,196.74 373.75,197.60 374.10,198.56 374.45,199.23 374.80,199.98 375.15,200.63 375.50,201.31 375.85,201.53 376.20,201.74 376.55,201.21 376.90,200.45 377.25,199.75 377.60,198.81 377.95,198.34 378.30,197.69 378.65,197.19 379.00,197.25 379.35,197.05 379.70,197.48 380.05,197.93 380.40,197.93 380.75,197.25 381.10,196.61 381.45,197.04 381.80,196.72 382.15,197.15 382.50,197.90 382.85,198.76 383.20,199.51 383.55,199.94 383.90,200.25 384.25,200.30 384.60,201.16 384.95,201.81 385.30,202.77 385.65,203.56 386.00,204.20 386.35,205.16 386.70,206.02 387.05,206.98 387.40,207.28 387.75,207.61 388.10,208.17 388.45,208.92 388.80,209.83 389.15,210.35 389.50,211.00 389.85,211.75 390.20,212.50 390.55,213.12 390.90,213.94 391.25,214.59 391.60,215.12 391.95,216.09 392.30,216.95 392.65,217.78 393.00,218.48 393.35,219.02 393.70,219.66 394.05,220.52 394.40,221.17 394.75,222.03 395.10,222.58 395.45,223.34 395.80,223.99 396.15,224.80 396.50,225.06 396.85,226.03 397.20,226.68 397.55,227.38 397.90,228.24 398.25,229.05 398.60,229.89 398.95,230.42 399.30,231.39 399.65,232.00 400.00,232.75 400.35,233.72 400.70,234.47 401.05,234.94 401.40,235.67 401.75,236.10 402.10,236.31 402.45,236.09 402.80,236.44 403.15,236.09 403.50,235.23 403.85,234.80 404.20,235.12 404.55,235.33 404.90,235.87 405.25,235.97 405.60,236.19 405.95,236.32 406.30,236.10 406.65,236.31 407.00,235.48 407.35,234.84 407.70,234.03 408.05,233.92 408.40,234.89 408.75,235.68 409.10,236.22 409.45,237.08 409.80,238.05 410.15,238.80 410.50,239.55 410.85,240.09 411.20,240.84 411.55,241.59 411.90,242.34 412.25,242.88 412.60,243.63 412.95,244.49 413.30,245.24 413.65,245.83 414.00,246.37 414.35,247.12 414.70,248.09 415.05,249.05 415.40,250.02 415.75,250.66 416.10,251.32 416.45,251.32 416.80,251.10 417.15,250.50 417.50,250.29 417.85,250.47 418.20,250.90 418.55,251.76 418.90,252.40 419.25,253.05 419.60,253.52 419.95,254.27 420.30,254.90 420.65,255.66 421.00,256.44 421.35,257.20 421.70,258.06 422.05,258.71 422.40,259.78 422.75,260.75 423.10,261.63 423.45,262.38 423.80,263.32 424.15,263.97 424.50,264.72 424.85,265.47 425.20,266.65 425.55,267.19 425.90,267.94 426.25,268.40 426.60,269.15 426.95,270.01 427.30,270.76 427.65,271.58 428.00,272.44 428.35,273.08 428.70,273.94 429.05,274.69 429.40,275.52 429.75,276.06 430.10,277.08 430.45,278.04 430.80,278.90 431.15,279.45 431.50,279.99 431.85,280.63 432.20,281.38 432.55,282.14 432.90,282.78 433.25,283.42 433.60,284.07 433.95,284.93 434.30,285.68 434.65,286.54 435.00,287.29 435.35,288.15 435.70,288.04 436.05,288.15 436.40,289.01 436.75,289.33 437.10,288.90 437.45,288.90 437.80,288.85 438.15,288.52 438.50,288.85 438.85,288.73 439.20,288.41 439.55,288.63 439.90,288.44 440.25,288.81 440.60,288.79 440.95,288.62 441.30,289.11 441.65,290.08 442.00,290.19 442.35,290.35 442.70,291.10 443.05,291.76 443.40,292.51 443.75,293.04 444.10,293.58 444.45,294.23 444.80,295.10 445.15,295.63 445.50,296.35 445.85,297.21 446.20,298.07 446.55,298.85 446.90,299.64 447.25,300.82 447.60,301.14 447.95,302.00 448.30,302.54 448.65,303.61 449.00,304.47 449.35,305.20 449.70,306.05 450.05,307.12 450.40,307.98 450.75,308.62 451.10,309.45 451.45,310.07 451.80,310.83 452.15,311.69 452.50,312.33 452.85,313.08 453.20,313.94 453.55,314.69 453.90,315.55 454.25,316.30 454.60,317.03 454.95,317.89 455.30,318.75 455.65,319.50 456.00,320.25 456.35,320.66 456.70,321.41 457.05,322.27 457.40,323.35 457.75,323.96 458.10,324.65 458.45,325.61 458.80,326.47 459.15,327.33 459.50,327.87 459.85,328.73 460.20,329.58 460.55,330.44 460.90,331.02 461.25,331.86 461.60,332.93 461.95,333.78 462.30,334.64 462.65,335.29 463.00,334.84 463.35,334.51 463.70,334.44 464.05,333.90 464.40,333.36 464.75,333.11 465.10,332.90 465.45,332.29 465.80,332.13 466.15,332.24 466.50,331.82 466.85,331.28 467.20,331.39 467.55,331.16 467.90,331.49 468.25,332.12 468.60,331.69 468.95,331.47 469.30,332.08 469.65,332.93 470.00,333.90 470.35,334.55 470.70,335.26 471.05,336.23 471.40,336.98 471.75,337.64 472.10,338.28 472.45,338.52 472.80,338.73 473.15,339.16 473.50,339.81 473.85,340.34 474.20,340.77 474.55,341.10 474.90,341.65 475.25,342.53 475.60,343.29 475.95,344.25 476.30,344.68 476.65,345.54 477.00,346.40 477.35,347.15 477.70,347.80 478.05,348.44 478.40,348.98 478.75,349.30 479.10,349.06 479.45,348.63 479.80,348.42 480.15,348.28 480.50,347.34 480.85,346.38 481.20,346.06 481.55,345.20 481.90,344.66 482.25,344.12 482.60,343.31 482.95,343.20 483.30,343.09 483.65,343.74 484.00,344.27 484.35,345.13 484.70,346.07 485.05,346.93 485.40,347.98 485.75,348.40 486.10,348.13 486.45,348.99 486.80,349.87 487.15,350.08 487.50,350.29 487.85,350.41 488.20,350.94 488.55,350.83 488.90,351.59 489.25,352.34 489.60,352.98 489.95,353.95 490.30,354.74 490.65,355.54 491.00,356.29 491.35,357.04 491.70,357.23 492.05,357.37 492.40,357.17 492.75,356.82 493.10,356.06 493.45,355.74 493.80,354.78 494.15,354.45 494.50,353.81 494.85,353.94 495.20,354.78 495.55,355.58 495.90,356.65 496.25,357.51 496.60,358.17 496.95,358.38 497.30,358.18 497.65,357.33 498.00,357.01 498.35,356.26 498.70,356.04 499.05,355.26 499.40,355.47 499.75,356.20 500.10,355.67 500.45,354.59 500.80,353.84 501.15,352.87 501.50,352.45 501.85,351.69 502.20,351.16 502.55,350.41 502.90,349.65 503.25,348.87 503.60,348.31 503.95,347.45 504.30,346.59 504.65,345.69 505.00,344.91 505.35,344.26 505.70,343.51 506.05,342.87 506.40,342.65 506.75,342.44 507.10,342.22 507.45,341.90 507.80,341.58 508.15,341.62 508.50,341.28 508.85,340.52 509.20,340.15 509.55,340.04 509.90,339.83 510.25,339.76 510.60,339.44 510.95,339.39 511.30,339.71 511.65,340.35 512.00,341.11 512.35,341.75 512.70,342.59 513.05,343.45 513.40,344.31 513.75,345.06 514.10,345.88 514.45,346.71 514.80,346.87 515.15,347.84 515.50,348.09 515.85,348.41 516.20,348.84 516.55,348.30 516.90,347.66 517.25,348.09 517.60,348.52 517.95,349.55 518.30,349.76 518.65,349.98 519.00,349.87 519.35,349.98 519.70,350.94 520.05,351.37 520.40,351.05 520.75,350.41 521.10,349.65 521.45,349.11 521.80,348.83 522.15,348.40 522.50,348.07 522.85,347.61 523.20,347.40 523.55,347.29 523.90,347.29 524.25,346.97 524.60,346.67 524.95,345.81 525.30,345.38 525.65,344.93 526.00,344.45 526.35,344.38 526.70,343.63 527.05,343.49 527.40,343.08 527.75,342.90 528.10,343.09 528.45,342.66 528.80,342.45 529.15,341.94 529.50,340.87 529.85,340.12 530.20,339.44 530.55,338.79 530.90,338.04 531.25,337.46 531.60,336.99 531.95,336.83 532.30,337.05 532.65,336.64 533.00,336.01 533.35,335.33 533.70,334.69 534.05,333.93 534.40,333.32 534.75,332.46 535.10,331.50 535.45,330.53 535.80,329.67 536.15,328.97 536.50,328.20 536.85,327.13 537.20,326.16 537.55,325.41 537.90,324.66 538.25,323.93 538.60,323.38 538.95,322.95 539.30,322.09 539.65,321.57 540.00,320.72 540.35,320.07 540.70,319.20 541.05,318.34 541.40,317.56 541.75,316.70 542.10,315.79 542.45,314.98 542.80,314.02 543.15,313.33 543.50,312.47 543.85,311.78 544.20,311.14 544.55,310.60 544.90,309.85 545.25,309.04 545.60,308.51 545.95,307.97 546.30,307.76 546.65,307.11 547.00,306.85 547.35,307.07 547.70,307.68 548.05,308.14 548.40,309.10 548.75,309.74 549.10,310.49 549.45,311.57 549.80,312.43 550.15,313.50 550.50,314.14 550.85,314.79 551.20,315.43 551.55,316.40 551.90,317.10 552.25,317.74 552.60,318.49 552.95,319.24 553.30,319.89 553.65,320.64 554.00,321.18 554.35,322.04 554.70,322.59 555.05,323.60 555.40,324.36 555.75,325.11 556.10,325.86 556.45,326.72 556.80,327.59 557.15,328.45 557.50,329.14 557.85,329.64 558.20,329.91 558.55,330.55 558.90,331.52 559.25,332.07 559.60,332.07 559.95,331.85 560.30,331.16 560.65,330.67 561.00,330.53 561.35,330.53 561.70,330.21 562.05,330.27 562.40,329.91 562.75,328.94 563.10,328.19 563.45,327.22 563.80,326.48 564.15,325.98 564.50,325.33 564.85,324.40 565.20,323.32 565.55,322.50 565.90,321.64 566.25,320.78 566.60,320.14 566.95,319.41 567.30,318.81 567.65,318.14 568.00,317.28 568.35,316.64 568.70,316.10 569.05,315.35 569.40,314.57 569.75,314.04 570.10,313.07 570.45,312.10 570.80,311.59 571.15,311.48 571.50,311.48 571.85,311.27 572.20,310.73 572.55,309.87 572.90,309.01 573.25,308.05 573.60,307.32 573.95,306.67 574.30,306.16 574.65,305.74 575.00,305.74 575.35,305.63 575.70,305.52 576.05,305.53 576.40,305.85 576.75,305.82 577.10,305.99 577.45,305.89 577.80,305.70 578.15,305.66 578.50,305.88 578.85,306.41 579.20,307.38 579.55,308.12 579.90,308.78 580.25,309.41 580.60,310.07 580.95,310.93 581.30,311.21 581.65,312.07 582.00,312.18 582.35,312.39 582.70,312.54 583.05,312.31 583.40,312.40 583.75,313.05 584.10,314.02 584.45,314.72 584.80,315.29 585.15,316.04 585.50,316.80 585.85,317.87 586.20,318.51 586.55,319.16 586.90,320.12 587.25,320.51 587.60,320.95 587.95,321.69 588.30,322.34 588.65,323.20 589.00,323.97 589.35,324.94 589.70,325.83 590.05,326.79 590.40,327.65 590.75,328.19 591.10,329.16 591.45,329.70 591.80,330.38 592.15,331.45 592.50,332.20 592.85,332.99 593.20,333.42 593.55,333.87 593.90,334.45 594.25,334.99 594.60,335.68 594.95,336.33 595.30,336.70 595.65,337.56 596.00,338.26 596.35,339.01 596.70,339.44 597.05,340.30 597.40,341.00 597.75,341.75 598.10,342.07 598.45,342.39 598.80,343.18 599.15,344.14 599.50,344.91 599.85,345.77 600.20,346.41 600.55,347.27 600.90,348.13 601.25,348.77 601.60,349.32 601.95,350.04 602.30,351.01 602.65,351.50 603.00,352.04 603.35,352.71 603.70,353.36 604.05,354.27 604.40,354.41 604.75,354.87 605.10,355.03 605.45,354.39 605.80,354.54 606.15,355.07 606.50,355.49 606.85,355.17 607.20,355.11 607.55,354.79 607.90,353.93 608.25,353.39 608.60,352.80 608.95,352.05 609.30,351.30 609.65,350.54 610.00,349.58 610.35,349.04 610.70,348.29 611.05,347.54 611.40,346.79 611.75,346.14 612.10,345.42 612.45,345.21 612.80,345.54 613.15,345.42 613.50,345.34 613.85,345.43 614.20,345.00 614.55,344.39 614.90,343.53 615.25,343.21 615.60,343.00 615.95,343.32 616.30,342.88 616.65,343.26 617.00,343.59 617.35,343.18 617.70,342.67 618.05,341.71 618.40,340.74 618.75,339.72 619.10,338.97 619.45,338.22 619.80,337.36 620.15,336.39 620.50,335.53 620.85,334.46 621.20,333.71 621.55,332.63 621.90,331.91 622.25,331.16 622.60,330.20 622.95,329.45 623.30,328.69 623.65,328.05 624.00,327.30 624.35,326.65 624.70,325.69 625.05,324.94 625.40,324.18 625.75,323.53 626.10,322.69 626.45,322.05 626.80,321.40 627.15,321.36 627.50,321.89 627.85,321.78 628.20,322.08 628.55,322.83 628.90,323.48 629.25,323.93 629.60,324.03 629.95,323.93 630.30,324.39 630.65,325.20 631.00,326.06 631.35,325.85 631.70,325.65 632.05,325.39 632.40,324.85 632.75,324.11 633.10,323.36 633.45,323.03 633.80,323.36 634.15,323.36 634.50,322.93 634.85,323.39 635.20,323.39 635.55,322.32 635.90,321.56 636.25,320.60 636.60,319.74 636.95,319.03 637.30,318.49 637.65,318.48 638.00,317.86 638.35,317.11 638.70,316.46 639.05,315.93 639.40,314.96 639.75,314.28 640.10,313.53 640.45,312.62 640.80,311.76 641.15,310.94 641.50,310.30 641.85,310.41 642.20,310.10 642.55,309.24 642.90,308.59 643.25,307.63 643.60,306.87 643.95,306.06 644.30,305.41 644.65,304.79 645.00,303.93 645.35,302.86 645.70,302.32 646.05,301.63 646.40,300.88 646.75,300.12 647.10,299.37 647.45,298.72 647.80,298.08 648.15,297.44 648.50,296.79 648.85,296.15 649.20,295.61 649.55,294.97 649.90,294.32 650.25,293.57 650.60,292.87 650.95,292.36 651.30,291.56 651.65,290.96 652.00,290.35 652.35,289.68 652.70,288.61 653.05,287.86 653.40,287.21 653.75,286.57 654.10,285.82 654.45,285.74 654.80,285.65 655.15,286.14 655.50,285.45 655.85,284.71 656.20,284.27 656.55,283.42 656.90,282.78 657.25,283.17 657.60,282.20 657.95,281.34 658.30,280.59 658.65,280.13 659.00,279.70 659.35,279.08 659.70,278.31 660.05,277.68 660.40,276.82 660.75,276.07 661.10,275.41 661.45,274.45 661.80,273.80 662.15,272.98 662.50,272.12 662.85,271.26 663.20,270.40 663.55,269.95 663.90,269.09 664.25,268.32 664.60,267.65 664.95,267.01 665.30,266.58 665.65,265.82 666.00,264.97 666.35,264.00 666.70,263.14 667.05,262.41 667.40,261.66 667.75,260.91 668.10,260.32 668.45,259.67 668.80,258.81 669.15,258.12 669.50,257.26 669.85,256.40 670.20,255.54 670.55,254.46 670.90,254.04 671.25,253.41 671.60,252.77 671.95,251.97 672.30,251.14 672.65,250.17 673.00,249.53 673.35,248.61 673.70,247.65 674.05,246.57 674.40,246.14 674.75,244.96 675.10,244.10 675.45,243.35 675.80,242.49 676.15,241.74 676.50,240.77 676.85,239.73 677.20,239.11 677.55,238.25 677.90,237.23 678.25,237.06 678.60,236.69 678.95,236.37 679.30,236.37 679.65,236.48 680.00,236.59 680.35,236.73 680.70,236.02 681.05,235.05 681.40,234.89 681.75,234.94 682.10,235.16 682.45,235.61 682.80,235.94 683.15,236.17 683.50,237.08 683.85,236.96 684.20,236.97 684.55,236.70 684.90,235.85 685.25,235.31 685.60,234.45 685.95,234.13 686.30,233.81 686.65,233.38 687.00,234.10 687.35,233.67 687.70,233.40 688.05,233.40 688.40,233.75 688.75,234.18 689.10,234.65 689.45,235.41 689.80,236.26 690.15,236.69 690.50,237.12 690.85,237.77 691.20,237.82 691.55,237.76 691.90,237.33 692.25,237.49 692.60,237.49 692.95,237.38 693.30,236.78 693.65,237.09 694.00,237.27 694.35,237.20 694.70,237.02 695.05,237.35 695.40,237.03 695.75,237.37 696.10,237.26 696.45,236.83 696.80,237.59 697.15,238.14 697.50,239.01 697.85,239.81 698.20,240.45 698.55,241.31 698.90,242.28 699.25,243.32 699.60,244.18 699.95,245.03 700.30,245.46 700.65,246.23 701.00,246.65 701.35,247.51 701.70,246.86 702.05,246.86 702.40,246.43 702.75,246.43 703.10,246.58 703.45,247.04 703.80,247.04 704.15,246.51 704.50,246.08 704.85,246.51 705.20,246.34 705.55,246.66 705.90,246.87 706.25,247.62 706.60,248.70 706.95,249.26 707.30,249.90 707.65,250.76 708.00,251.52 708.35,252.37 708.70,252.69 709.05,253.23 709.40,254.07 709.75,254.82 710.10,255.79 710.45,256.90 710.80,257.61 711.15,258.24 711.50,259.21 711.85,259.85 712.20,260.71 712.55,261.69 712.90,262.44 713.25,263.09 713.60,263.92 713.95,264.25 714.30,265.21 714.65,266.06 715.00,266.60 715.35,267.46 715.70,268.10 716.05,268.96 716.40,269.96 716.75,270.60 717.10,271.35 717.45,272.11 717.80,272.97 718.15,273.72 718.50,274.36 718.85,274.98 719.20,275.52 719.55,276.49 719.90,276.67 720.25,276.78 720.60,277.64 720.95,277.64 721.30,277.21 721.65,277.06 722.00,277.55 722.35,277.34 722.70,277.27 723.05,276.46 723.40,275.75 723.75,274.99 724.10,274.54 724.45,274.33 724.80,273.92 725.15,272.95 725.50,271.88 725.85,271.30 726.20,270.66 726.55,269.80 726.90,269.16 727.25,268.41 727.60,267.95 727.95,266.98 728.30,266.13 728.65,265.34 729.00,264.80 729.35,264.20 729.70,263.88 730.05,264.24 730.40,264.24 730.75,263.70 731.10,263.14 731.45,262.63 731.80,262.84 732.15,263.33 732.50,263.12 732.85,263.87 733.20,264.19 733.55,264.69 733.90,264.47 734.25,264.36 734.60,263.55 734.95,263.07 735.30,262.11 735.65,261.30 736.00,260.39 736.35,260.18 736.70,259.32 737.05,258.94 737.40,259.16 737.75,259.05 738.10,258.83 738.45,258.80 738.80,258.37 739.15,259.02 739.50,259.98 739.85,261.06 740.20,261.91 740.55,262.08 740.90,262.83 741.25,263.75 741.60,264.72 741.95,265.26 742.30,266.11 742.65,266.97 743.00,267.51 743.35,267.94 743.70,268.48 744.05,269.09 744.40,270.06 744.75,270.59 745.10,271.02 745.45,271.19 745.80,271.30 746.15,271.30 746.50,271.62 746.85,271.62 747.20,272.27 747.55,273.13 747.90,274.09 748.25,274.51 748.60,273.96 748.95,273.51 749.30,272.88 749.65,273.49 750.00,273.74 750.35,273.60 750.70,273.49 751.05,273.28 751.40,273.38 751.75,273.28 752.10,272.88 752.45,272.04 752.80,271.08 753.15,271.20 753.50,270.88 753.85,271.44 754.20,271.44 754.55,271.23 754.90,271.33 755.25,271.23 755.60,271.57 755.95,271.02 756.30,270.70 756.65,269.84 757.00,269.20 757.35,269.46 757.70,269.96 758.05,269.85 758.40,270.28 758.75,270.82 759.10,271.35 759.45,271.77 759.80,272.74 760.15,272.49 760.50,272.39 760.85,272.24 761.20,272.05 761.55,271.84 761.90,271.90 762.25,271.85 762.60,271.85 762.95,271.53 763.30,270.86 763.65,270.22 764.00,269.57 764.35,269.36 764.70,269.14 765.05,268.71 765.40,267.96 765.75,268.00 766.10,268.36 766.45,269.33 766.80,270.18 767.15,271.04 767.50,271.69 767.85,272.65 768.20,273.26 768.55,273.04 768.90,273.37 769.25,274.02 769.60,274.98 769.95,275.20 770.30,275.53 770.65,276.28 771.00,277.36 771.35,278.00 771.70,279.08 772.05,279.84 772.40,280.70 772.75,281.62 773.10,282.48 773.45,283.34 773.80,283.78 774.15,284.21 774.50,284.96 774.85,286.00 775.20,286.22 775.55,285.59 775.90,284.84 776.25,284.41 776.60,283.66 776.95,282.84 777.30,282.09 777.65,281.56 778.00,280.91 778.35,280.19 778.70,279.47 779.05,278.72 779.40,277.97 779.75,277.43 780.10,276.69 780.45,276.11 780.80,275.61 781.15,275.71 781.50,275.47 781.85,274.61 782.20,273.96 782.55,273.21 782.90,272.18 783.25,272.18 783.60,272.07 783.95,272.32 784.30,272.25 784.65,272.93 785.00,273.58 785.00,286.24"/>
<line x1="813" y1="78" x2="839" y2="78" stroke="#dc2626" stroke-width="3"/>
<text x="847" y="82" font-family="Arial" font-size="13" fill="#111827">high volatility</text>
<polyline fill="none" stroke="#059669" stroke-width="2" points="85.00,286.24 85.35,286.45 85.70,286.40 86.05,286.40 86.40,286.72 86.75,286.72 87.10,286.48 87.45,286.12 87.80,286.12 88.15,286.27 88.50,286.32 88.85,286.73 89.20,286.73 89.55,286.52 89.90,286.56 90.25,286.34 90.60,286.32 90.95,286.11 91.30,286.13 91.65,286.31 92.00,286.29 92.35,286.40 92.70,286.51 93.05,286.34 93.40,285.93 93.75,285.39 94.10,285.28 94.45,284.67 94.80,284.13 95.15,283.38 95.50,282.41 95.85,281.58 96.20,281.05 96.55,280.31 96.90,279.58 97.25,278.61 97.60,277.83 97.95,276.97 98.30,275.97 98.65,275.23 99.00,274.48 99.35,273.41 99.70,272.65 100.05,272.12 100.40,271.37 100.75,270.61 101.10,269.86 101.45,269.21 101.80,268.35 102.15,267.68 102.50,266.94 102.85,266.04 103.20,265.13 103.55,264.59 103.90,263.84 104.25,263.30 104.60,263.19 104.95,262.55 105.30,261.91 105.65,261.26 106.00,261.79 106.35,261.47 106.70,261.61 107.05,261.24 107.40,261.45 107.75,261.56 108.10,261.24 108.45,261.01 108.80,260.80 109.15,260.64 109.50,260.05 109.85,259.19 110.20,258.44 110.55,258.12 110.90,257.91 111.25,257.74 111.60,257.85 111.95,258.22 112.30,258.12 112.65,258.17 113.00,258.04 113.35,258.15 113.70,258.58 114.05,258.24 114.40,258.46 114.75,258.70 115.10,258.80 115.45,258.87 115.80,258.63 116.15,258.50 116.50,258.93 116.85,259.68 117.20,259.90 117.55,260.01 117.90,260.01 118.25,260.11 118.60,260.54 118.95,260.64 119.30,261.07 119.65,260.94 120.00,260.86 120.35,261.05 120.70,261.83 121.05,261.77 121.40,261.68 121.75,261.05 122.10,260.77 122.45,260.55 122.80,260.77 123.15,260.87 123.50,261.41 123.85,261.63 124.20,262.36 124.55,262.97 124.90,263.72 125.25,264.79 125.60,265.60 125.95,266.46 126.30,267.32 126.65,267.93 127.00,268.99 127.35,269.74 127.70,270.28 128.05,271.09 128.40,271.52 128.75,271.84 129.10,272.55 129.45,273.30 129.80,274.16 130.15,274.81 130.50,275.35 130.85,275.68 131.20,275.76 131.55,275.54 131.90,275.44 132.25,275.61 132.60,276.11 132.95,276.49 133.30,276.42 133.65,276.53 134.00,276.73 134.35,276.90 134.70,276.90 135.05,276.68 135.40,276.82 135.75,277.03 136.10,277.46 136.45,277.66 136.80,277.55 137.15,277.87 137.50,277.92 137.85,278.11 138.20,277.84 138.55,278.57 138.90,279.11 139.25,279.75 139.60,280.52 139.95,281.49 140.30,282.25 140.65,282.79 141.00,283.55 141.35,283.84 141.70,283.63 142.05,283.84 142.40,283.92 142.75,283.84 143.10,284.01 143.45,283.91 143.80,283.58 144.15,283.69 144.50,283.43 144.85,283.86 145.20,284.59 145.55,284.59 145.90,284.92 146.25,285.24 146.60,285.24 146.95,284.97 147.30,284.76 147.65,284.76 148.00,285.08 148.35,284.97 148.70,285.08 149.05,284.66 149.40,284.87 149.75,285.20 150.10,285.20 150.45,284.96 150.80,285.28 151.15,285.17 151.50,284.53 151.85,284.24 152.20,284.11 152.55,284.22 152.90,284.42 153.25,284.63 153.60,284.63 153.95,284.63 154.30,284.30 154.65,284.09 155.00,284.38 155.35,284.49 155.70,284.27 156.05,284.35 156.40,284.48 156.75,284.41 157.10,284.20 157.45,284.52 157.80,284.95 158.15,284.82 158.50,285.14 158.85,284.93 159.20,285.03 159.55,285.73 159.90,285.57 160.25,285.85 160.60,284.88 160.95,284.24 161.30,283.49 161.65,282.95 162.00,282.10 162.35,281.49 162.70,280.72 163.05,280.07 163.40,279.54 163.75,279.43 164.10,279.00 164.45,279.11 164.80,279.43 165.15,279.86 165.50,280.42 165.85,280.96 166.20,281.39 166.55,282.32 166.90,282.91 167.25,283.55 167.60,284.41 167.95,285.27 168.30,285.91 168.65,286.49 169.00,287.36 169.35,288.22 169.70,288.98 170.05,289.94 170.40,290.48 170.75,291.02 171.10,291.92 171.45,292.56 171.80,293.42 172.15,294.28 172.50,295.25 172.85,296.10 173.20,297.05 173.55,297.80 173.90,298.55 174.25,299.41 174.60,300.38 174.95,300.81 175.30,301.55 175.65,302.58 176.00,303.22 176.35,304.03 176.70,304.89 177.05,305.53 177.40,306.19 177.75,306.78 178.10,307.53 178.45,308.39 178.80,309.25 179.15,309.95 179.50,310.70 179.85,311.56 180.20,312.31 180.55,313.17 180.90,314.09 181.25,314.95 181.60,315.56 181.95,316.21 182.30,317.17 182.65,318.03 183.00,318.78 183.35,319.53 183.70,320.29 184.05,320.89 184.40,321.64 184.75,322.76 185.10,323.08 185.45,323.94 185.80,324.58 186.15,325.55 186.50,326.14 186.85,326.89 187.20,327.86 187.55,328.72 187.90,329.25 188.25,330.15 188.60,330.70 188.95,331.52 189.30,332.59 189.65,333.45 190.00,334.42 190.35,335.25 190.70,336.11 191.05,337.08 191.40,337.83 191.75,338.75 192.10,339.83 192.45,340.26 192.80,340.55 193.15,341.30 193.50,342.14 193.85,342.78 194.20,343.53 194.55,344.02 194.90,344.88 195.25,345.76 195.60,346.83 195.95,347.58 196.30,348.44 196.65,349.08 197.00,350.16 197.35,349.94 197.70,349.49 198.05,349.22 198.40,349.12 198.75,349.12 199.10,348.58 199.45,347.83 199.80,347.61 200.15,347.60 200.50,347.39 200.85,347.60 201.20,347.81 201.55,347.72 201.90,347.59 202.25,347.75 202.60,348.18 202.95,348.93 203.30,349.58 203.65,350.54 204.00,351.24 204.35,352.10 204.70,352.64 205.05,353.16 205.40,353.01 205.75,353.55 206.10,353.47 206.45,353.47 206.80,353.53 207.15,353.10 207.50,352.79 207.85,353.43 208.20,353.97 208.55,354.72 208.90,355.47 209.25,356.39 209.60,357.14 209.95,357.70 210.30,358.23 210.65,358.90 211.00,358.46 211.35,358.98 211.70,359.06 212.05,358.63 212.40,357.87 212.75,357.65 213.10,357.38 213.45,357.49 213.80,358.35 214.15,359.10 214.50,359.85 214.85,360.07 215.20,360.82 215.55,361.46 215.90,362.00 216.25,362.67 216.60,363.29 216.95,363.83 217.30,364.69 217.65,365.33 218.00,365.88 218.35,366.41 218.70,367.25 219.05,368.00 219.40,368.86 219.75,369.61 220.10,370.33 220.45,371.09 220.80,371.44 221.15,371.79 221.50,371.36 221.85,372.26 222.20,372.79 222.55,373.44 222.90,374.08 223.25,374.88 223.60,375.74 223.95,376.59 224.30,377.37 224.65,378.14 225.00,379.10 225.35,379.63 225.70,380.38 226.05,381.16 226.40,381.69 226.75,382.19 227.10,382.83 227.45,383.69 227.80,384.44 228.15,385.09 228.50,386.05 228.85,386.91 229.20,387.77 229.55,388.36 229.90,389.11 230.25,389.87 230.60,390.72 230.95,391.56 231.30,392.31 231.65,392.85 232.00,393.88 232.35,394.46 232.70,395.23 233.05,395.88 233.40,396.63 233.75,397.34 234.10,398.20 234.45,399.06 234.80,399.67 235.15,400.42 235.50,400.85 235.85,401.01 236.20,401.76 236.55,402.62 236.90,403.11 237.25,403.86 237.60,404.61 237.95,405.36 238.30,406.22 238.65,406.86 239.00,407.43 239.35,408.18 239.70,409.17 240.05,410.07 240.40,410.93 240.75,411.68 241.10,412.54 241.45,413.40 241.80,414.26 242.15,415.23 242.50,416.09 242.85,416.84 243.20,417.47 243.55,417.79 243.90,417.86 244.25,417.75 244.60,417.86 244.95,417.54 245.30,418.09 245.65,418.66 246.00,419.42 246.35,420.07 246.70,420.71 247.05,421.47 247.40,422.11 247.75,422.13 248.10,421.46 248.45,421.24 248.80,421.46 249.15,421.56 249.50,421.32 249.85,420.89 250.20,420.24 250.55,420.03 250.90,419.60 251.25,420.24 251.60,421.22 251.95,421.97 252.30,422.72 252.65,423.58 253.00,424.33 253.35,425.12 253.70,425.87 254.05,426.56 254.40,427.42 254.75,427.46 255.10,427.67 255.45,427.03 255.80,426.36 256.15,426.77 256.50,427.31 256.85,427.52 257.20,427.52 257.55,427.42 257.90,427.31 258.25,427.63 258.60,427.63 258.95,428.19 259.30,428.94 259.65,428.73 260.00,428.12 260.35,427.90 260.70,427.90 261.05,428.02 261.40,428.57 261.75,428.68 262.10,429.28 262.45,430.04 262.80,430.82 263.15,431.89 263.50,432.11 263.85,432.64 264.20,433.40 264.55,434.15 264.90,434.94 265.25,435.80 265.60,436.45 265.95,437.07 266.30,437.61 266.65,438.57 267.00,439.32 267.35,439.15 267.70,439.69 268.05,439.47 268.40,439.69 268.75,439.78 269.10,439.04 269.45,438.18 269.80,437.22 270.15,436.47 270.50,435.61 270.85,434.89 271.20,434.03 271.55,433.56 271.90,433.45 272.25,433.63 272.60,433.10 272.95,432.98 273.30,432.78 273.65,432.18 274.00,431.43 274.35,431.11 274.70,430.89 275.05,430.71 275.40,430.21 275.75,430.21 276.10,430.16 276.45,429.83 276.80,429.51 277.15,428.76 277.50,428.33 277.85,427.92 278.20,427.83 278.55,428.37 278.90,429.15 279.25,430.01 279.60,431.09 279.95,430.85 280.30,430.37 280.65,430.36 281.00,431.14 281.35,432.11 281.70,432.10 282.05,431.59 282.40,432.34 282.75,433.20 283.10,433.55 283.45,433.73 283.80,434.59 284.15,435.04 284.50,436.01 284.85,436.65 285.20,437.19 285.55,437.54 285.90,438.18 286.25,438.95 286.60,439.60 286.95,440.35 287.30,440.27 287.65,440.48 288.00,440.29 288.35,439.97 288.70,439.54 289.05,438.57 289.40,437.61 289.75,437.06 290.10,437.16 290.45,436.46 290.80,436.46 291.15,435.92 291.50,435.60 291.85,435.06 292.20,434.95 292.55,435.26 292.90,435.48 293.25,435.89 293.60,436.61 293.95,437.11 294.30,437.65 294.65,437.97 295.00,437.85 295.35,437.96 295.70,438.28 296.05,439.25 296.40,439.68 296.75,440.32 297.10,440.11 297.45,439.34 297.80,438.76 298.15,438.01 298.50,437.22 298.85,436.50 299.20,435.63 299.55,435.84 299.90,435.55 300.25,435.12 300.60,434.59 300.95,434.80 301.30,434.52 301.65,433.66 302.00,432.64 302.35,431.79 302.70,431.50 303.05,431.28 303.40,431.13 303.75,430.49 304.10,430.27 304.45,429.84 304.80,429.57 305.15,429.36 305.50,429.32 305.85,428.64 306.20,427.84 306.55,427.22 306.90,426.36 307.25,425.61 307.60,424.95 307.95,424.00 308.30,423.56 308.65,422.70 309.00,422.06 309.35,421.52 309.70,420.98 310.05,420.18 310.40,419.53 310.75,418.69 311.10,417.83 311.45,416.86 311.80,416.08 312.15,415.25 312.50,414.19 312.85,413.33 313.20,412.47 313.55,411.82 313.90,411.18 314.25,410.60 314.60,409.73 314.95,408.87 315.30,408.01 315.65,407.38 316.00,406.63 316.35,406.07 316.70,405.53 317.05,404.57 317.40,403.90 317.75,403.26 318.10,402.49 318.45,401.66 318.80,400.97 319.15,400.80 319.50,399.83 319.85,399.04 320.20,398.18 320.55,397.42 320.90,396.87 321.25,396.11 321.60,395.04 321.95,394.18 322.30,393.55 322.65,392.58 323.00,391.83 323.35,391.10 323.70,390.50 324.05,389.43 324.40,388.35 324.75,387.75 325.10,386.89 325.45,386.03 325.80,385.13 326.15,384.38 326.50,383.52 326.85,382.66 327.20,381.69 327.55,381.01 327.90,380.04 328.25,378.88 328.60,378.02 328.95,377.06 329.30,376.20 329.65,375.64 330.00,374.79 330.35,373.93 330.70,373.05 331.05,372.08 331.40,371.03 331.75,370.50 332.10,369.84 332.45,369.09 332.80,368.23 333.15,367.64 333.50,366.78 333.85,365.92 334.20,365.20 334.55,364.24 334.90,363.49 335.25,362.61 335.60,361.75 335.95,360.90 336.30,360.12 336.65,359.48 337.00,358.55 337.35,357.59 337.70,357.05 338.05,356.41 338.40,355.76 338.75,354.90 339.10,354.05 339.45,353.40 339.80,352.66 340.15,351.93 340.50,351.29 340.85,350.43 341.20,349.75 341.55,349.32 341.90,348.68 342.25,347.97 342.60,347.32 342.95,346.57 343.30,345.71 343.65,345.03 344.00,344.06 344.35,342.99 344.70,342.33 345.05,341.69 345.40,340.72 345.75,339.95 346.10,339.09 346.45,338.34 346.80,337.43 347.15,337.00 347.50,336.25 347.85,335.50 348.20,334.96 348.55,334.44 348.90,333.69 349.25,332.72 349.60,331.97 349.95,331.00 350.30,330.14 350.65,329.29 351.00,328.54 351.35,327.90 351.70,326.93 352.05,326.07 352.40,325.32 352.75,324.46 353.10,323.65 353.45,323.22 353.80,322.79 354.15,322.14 354.50,322.37 354.85,323.30 355.20,324.19 355.55,324.88 355.90,324.99 356.25,325.20 356.60,324.45 356.95,324.70 357.30,324.81 357.65,324.81 358.00,324.70 358.35,324.97 358.70,324.86 359.05,324.90 359.40,324.91 359.75,324.87 360.10,324.55 360.45,324.10 360.80,323.67 361.15,323.67 361.50,323.78 361.85,323.71 362.20,323.90 362.55,323.73 362.90,323.63 363.25,323.52 363.60,323.31 363.95,323.21 364.30,323.21 364.65,322.99 365.00,322.78 365.35,322.63 365.70,322.25 366.05,321.61 366.40,320.75 366.75,319.72 367.10,319.48 367.45,318.73 367.80,318.41 368.15,317.76 368.50,317.01 368.85,316.26 369.20,315.25 369.55,314.28 369.90,313.32 370.25,312.57 370.60,311.49 370.95,310.63 371.30,310.20 371.65,309.77 372.00,309.34 372.35,308.59 372.70,307.84 373.05,307.74 373.40,307.79 373.75,307.79 374.10,307.89 374.45,307.89 374.80,307.86 375.15,307.76 375.50,307.89 375.85,308.12 376.20,308.12 376.55,307.97 376.90,308.08 377.25,307.97 377.60,308.11 377.95,307.68 378.30,307.01 378.65,306.33 379.00,306.01 379.35,305.15 379.70,304.61 380.05,304.18 380.40,303.54 380.75,302.62 381.10,301.68 381.45,300.89 381.80,300.46 382.15,300.15 382.50,300.15 382.85,299.19 383.20,298.71 383.55,298.61 383.90,298.18 384.25,298.28 384.60,297.53 384.95,297.07 385.30,296.35 385.65,295.60 386.00,294.74 386.35,294.10 386.70,293.13 387.05,292.49 387.40,291.95 387.75,290.98 388.10,290.23 388.45,289.48 388.80,288.43 389.15,287.68 389.50,287.11 389.85,286.36 390.20,285.50 390.55,284.64 390.90,283.81 391.25,283.38 391.60,282.75 391.95,282.43 392.30,281.52 392.65,280.99 393.00,280.20 393.35,279.25 393.70,278.39 394.05,277.53 394.40,276.88 394.75,276.21 395.10,275.72 395.45,274.88 395.80,274.55 396.15,273.48 396.50,272.69 396.85,271.88 397.20,271.02 397.55,270.15 397.90,269.50 398.25,268.96 398.60,268.42 398.95,267.67 399.30,267.63 399.65,267.59 400.00,267.45 400.35,267.35 400.70,266.49 401.05,265.52 401.40,264.73 401.75,264.19 402.10,264.36 402.45,264.26 402.80,264.60 403.15,264.82 403.50,264.49 403.85,264.39 404.20,263.85 404.55,263.31 404.90,263.42 405.25,263.69 405.60,263.46 405.95,263.25 406.30,262.82 406.65,261.85 407.00,261.74 407.35,261.74 407.70,262.50 408.05,262.80 408.40,262.73 408.75,262.82 409.10,263.07 409.45,262.99 409.80,262.78 410.15,262.72 410.50,262.89 410.85,262.70 411.20,262.70 411.55,263.43 411.90,263.31 412.25,263.20 412.60,263.20 412.95,263.12 413.30,263.16 413.65,263.33 414.00,263.22 414.35,263.24 414.70,263.13 415.05,263.67 415.40,263.24 415.75,262.38 416.10,261.84 416.45,261.09 416.80,260.45 417.15,259.48 417.50,259.05 417.85,258.25 418.20,257.55 418.55,256.90 418.90,256.26 419.25,255.40 419.60,254.43 419.95,253.68 420.30,252.71 420.65,251.86 421.00,251.00 421.35,250.24 421.70,249.54 422.05,248.68 422.40,248.03 422.75,247.17 423.10,246.28 423.45,245.37 423.80,244.94 424.15,244.19 424.50,243.33 424.85,242.36 425.20,241.61 425.55,240.86 425.90,239.89 426.25,239.01 426.60,238.36 426.95,237.71 427.30,236.85 427.65,236.00 428.00,235.14 428.35,234.35 428.70,233.72 429.05,232.97 429.40,232.11 429.75,231.36 430.10,230.50 430.45,229.85 430.80,229.42 431.15,228.77 431.50,227.91 431.85,227.16 432.20,226.49 432.55,225.74 432.90,225.20 433.25,224.24 433.60,223.49 433.95,223.06 434.30,222.09 434.65,221.45 435.00,220.59 435.35,219.73 435.70,219.08 436.05,218.48 436.40,217.62 436.75,216.66 437.10,215.80 437.45,215.26 437.80,214.38 438.15,213.52 438.50,212.66 438.85,211.91 439.20,211.13 439.55,210.48 439.90,209.62 440.25,208.79 440.60,208.14 440.95,207.39 441.30,206.64 441.65,205.89 442.00,205.14 442.35,204.43 442.70,203.61 443.05,202.97 443.40,202.28 443.75,201.53 444.10,201.10 444.45,200.43 444.80,199.47 445.15,198.82 445.50,197.75 445.85,197.00 446.20,196.14 446.55,195.60 446.90,194.96 447.25,194.44 447.60,193.78 447.95,192.92 448.30,192.06 448.65,191.25 449.00,190.39 449.35,189.73 449.70,189.08 450.05,188.45 450.40,187.70 450.75,186.73 451.10,186.00 451.45,185.25 451.80,184.71 452.15,184.07 452.50,183.10 452.85,182.03 453.20,181.17 453.55,180.30 453.90,179.57 454.25,178.75 454.60,177.79 454.95,177.36 455.30,176.61 455.65,175.96 456.00,175.43 456.35,174.46 456.70,173.91 457.05,173.05 457.40,172.30 457.75,171.55 458.10,170.80 458.45,169.83 458.80,169.29 459.15,168.65 459.50,167.68 459.85,166.93 460.20,166.18 460.55,165.33 460.90,164.47 461.25,164.04 461.60,163.44 461.95,162.80 462.30,161.84 462.65,160.88 463.00,160.23 463.35,159.69 463.70,158.85 464.05,158.31 464.40,157.46 464.75,156.63 465.10,155.78 465.45,155.35 465.80,155.55 466.15,155.83 466.50,155.75 466.85,156.18 467.20,156.02 467.55,156.14 467.90,156.55 468.25,156.12 468.60,156.59 468.95,156.16 469.30,156.26 469.65,156.15 470.00,155.91 470.35,155.91 470.70,156.68 471.05,156.68 471.40,157.17 471.75,157.60 472.10,157.71 472.45,157.40 472.80,158.15 473.15,158.72 473.50,159.68 473.85,160.54 474.20,161.12 474.55,161.98 474.90,162.73 475.25,163.16 475.60,163.81 475.95,163.91 476.30,164.02 476.65,164.12 477.00,164.15 477.35,164.26 477.70,164.31 478.05,164.25 478.40,164.29 478.75,164.42 479.10,164.50 479.45,164.61 479.80,164.72 480.15,164.72 480.50,165.15 480.85,165.04 481.20,164.52 481.55,164.62 481.90,164.39 482.25,164.32 482.60,164.18 482.95,164.29 483.30,164.08 483.65,164.50 484.00,164.50 484.35,164.61 484.70,165.08 485.05,165.28 485.40,165.17 485.75,165.17 486.10,165.06 486.45,164.96 486.80,165.17 487.15,165.36 487.50,165.45 487.85,165.77 488.20,165.88 488.55,165.77 488.90,165.77 489.25,165.02 489.60,165.02 489.95,164.81 490.30,164.91 490.65,164.91 491.00,165.05 491.35,165.15 491.70,164.98 492.05,165.24 492.40,165.77 492.75,166.63 493.10,167.36 493.45,168.22 493.80,168.97 494.15,169.07 494.50,169.07 494.85,169.42 495.20,170.34 495.55,171.09 495.90,171.95 496.25,172.70 496.60,173.45 496.95,174.40 497.30,175.21 497.65,175.75 498.00,176.50 498.35,177.36 498.70,178.22 499.05,179.29 499.40,180.26 499.75,180.82 500.10,181.89 500.45,182.40 500.80,183.26 501.15,184.12 501.50,184.87 501.85,185.52 502.20,186.54 502.55,187.18 502.90,187.56 503.25,188.52 503.60,189.15 503.95,190.01 504.30,190.76 504.65,191.54 505.00,192.29 505.35,193.15 505.70,194.01 506.05,194.98 506.40,195.94 506.75,196.83 507.10,197.76 507.45,198.50 507.80,199.36 508.15,200.22 508.50,200.83 508.85,201.58 509.20,202.44 509.55,203.16 509.90,203.88 510.25,204.74 510.60,205.25 510.95,206.17 511.30,207.13 511.65,207.86 512.00,208.72 512.35,209.58 512.70,210.33 513.05,211.10 513.40,211.85 513.75,212.71 514.10,213.46 514.45,214.42 514.80,214.96 515.15,215.72 515.50,216.05 515.85,216.80 516.20,217.66 516.55,218.52 516.90,219.16 517.25,220.23 517.60,221.07 517.95,221.84 518.30,222.70 518.65,223.49 519.00,224.22 519.35,224.72 519.70,225.58 520.05,226.12 520.40,226.63 520.75,227.49 521.10,228.57 521.45,229.42 521.80,230.39 522.15,231.11 522.50,231.97 522.85,232.72 523.20,233.58 523.55,234.44 523.90,235.30 524.25,236.16 524.60,237.08 524.95,237.72 525.30,238.18 525.65,239.11 526.00,239.86 526.35,240.72 526.70,241.36 527.05,241.54 527.40,241.89 527.75,242.54 528.10,243.29 528.45,243.93 528.80,244.58 529.15,245.43 529.50,246.08 529.85,246.51 530.20,246.67 530.55,246.55 530.90,246.89 531.25,246.57 531.60,246.89 531.95,247.35 532.30,247.56 532.65,247.38 533.00,247.51 533.35,247.47 533.70,247.38 534.05,247.49 534.40,247.82 534.75,247.57 535.10,247.46 535.45,247.03 535.80,246.71 536.15,246.71 536.50,246.82 536.85,246.39 537.20,246.60 537.55,247.03 537.90,246.93 538.25,246.97 538.60,246.75 538.95,247.29 539.30,248.15 539.65,248.96 540.00,249.60 540.35,250.33 540.70,251.08 541.05,251.46 541.40,251.65 541.75,251.80 542.10,252.02 542.45,251.82 542.80,251.65 543.15,251.44 543.50,251.47 543.85,251.47 544.20,251.37 544.55,251.61 544.90,251.45 545.25,251.90 545.60,251.79 545.95,251.95 546.30,251.98 546.65,251.77 547.00,252.20 547.35,251.70 547.70,250.93 548.05,250.82 548.40,250.62 548.75,250.68 549.10,250.94 549.45,250.84 549.80,251.01 550.15,251.11 550.50,251.54 550.85,251.11 551.20,251.11 551.55,251.31 551.90,251.22 552.25,250.36 552.60,249.61 552.95,249.66 553.30,249.56 553.65,249.69 554.00,249.26 554.35,249.26 554.70,250.05 555.05,250.70 555.40,251.37 555.75,252.34 556.10,253.08 556.45,253.94 556.80,254.48 557.15,255.01 557.50,255.12 557.85,255.33 558.20,255.23 558.55,255.12 558.90,254.80 559.25,254.60 559.60,254.82 559.95,254.69 560.30,255.02 560.65,254.90 561.00,255.33 561.35,254.90 561.70,255.16 562.05,254.93 562.40,254.82 562.75,255.09 563.10,254.82 563.45,254.50 563.80,254.24 564.15,254.42 564.50,254.96 564.85,255.33 565.20,255.66 565.55,256.08 565.90,255.86 566.25,255.54 566.60,255.43 566.95,255.36 567.30,255.62 567.65,255.79 568.00,255.84 568.35,255.96 568.70,255.63 569.05,255.74 569.40,255.90 569.75,255.69 570.10,255.58 570.45,255.47 570.80,255.80 571.15,256.25 571.50,256.46 571.85,256.57 572.20,256.85 572.55,257.60 572.90,258.35 573.25,259.32 573.60,259.85 573.95,260.50 574.30,261.14 574.65,261.57 575.00,262.54 575.35,263.51 575.70,264.26 576.05,265.01 576.40,265.87 576.75,266.30 577.10,266.86 577.45,267.61 577.80,268.04 578.15,268.73 578.50,269.54 578.85,270.40 579.20,271.24 579.55,272.13 579.90,272.66 580.25,273.42 580.60,274.06 580.95,274.49 581.30,275.24 581.65,276.01 582.00,276.65 582.35,277.40 582.70,278.26 583.05,278.90 583.40,279.87 583.75,280.62 584.10,281.48 584.45,282.23 584.80,283.03 585.15,283.89 585.50,284.74 585.85,285.60 586.20,286.57 586.55,287.21 586.90,287.86 587.25,288.82 587.60,289.58 587.95,290.22 588.30,291.29 588.65,292.15 589.00,292.63 589.35,293.48 589.70,293.91 590.05,294.70 590.40,295.05 590.75,295.80 591.10,296.66 591.45,297.63 591.80,298.56 592.15,298.67 592.50,298.99 592.85,298.74 593.20,299.17 593.55,298.76 593.90,298.09 594.25,297.70 594.60,297.74 594.95,298.06 595.30,298.06 595.65,298.07 596.00,298.28 596.35,297.96 596.70,297.68 597.05,297.60 597.40,297.06 597.75,296.85 598.10,296.99 598.45,296.92 598.80,296.99 599.15,296.77 599.50,296.71 599.85,297.02 600.20,296.53 600.55,295.89 600.90,295.02 601.25,294.46 601.60,293.60 601.95,292.64 602.30,291.99 602.65,291.06 603.00,290.24 603.35,289.71 603.70,289.03 604.05,288.28 604.40,287.44 604.75,286.58 605.10,285.83 605.45,285.20 605.80,284.66 606.15,283.69 606.50,282.94 606.85,282.15 607.20,281.39 607.55,280.64 607.90,280.11 608.25,279.25 608.60,278.48 608.95,277.42 609.30,276.78 609.65,276.56 610.00,275.49 610.35,274.63 610.70,273.88 611.05,272.80 611.40,271.95 611.75,271.39 612.10,270.79 612.45,269.86 612.80,269.11 613.15,268.25 613.50,267.61 613.85,266.75 614.20,266.00 614.55,265.25 614.90,264.49 615.25,263.46 615.60,262.39 615.95,261.74 616.30,260.78 616.65,260.03 617.00,259.06 617.35,258.31 617.70,257.42 618.05,256.56 618.40,255.70 618.75,255.02 619.10,254.38 619.45,253.41 619.80,252.86 620.15,252.95 620.50,252.95 620.85,253.06 621.20,252.63 621.55,251.82 621.90,251.24 622.25,250.38 622.60,249.66 622.95,248.70 623.30,247.95 623.65,247.46 624.00,246.60 624.35,245.75 624.70,245.04 625.05,244.61 625.40,243.98 625.75,243.23 626.10,242.37 626.45,241.51 626.80,240.66 627.15,239.80 627.50,239.05 627.85,238.19 628.20,237.43 628.55,236.75 628.90,236.03 629.25,235.06 629.60,234.31 629.95,233.34 630.30,232.81 630.65,231.84 631.00,231.20 631.35,230.35 631.70,229.70 632.05,228.91 632.40,228.21 632.75,227.45 633.10,226.82 633.45,225.66 633.80,224.69 634.15,224.04 634.50,223.51 634.85,222.65 635.20,222.11 635.55,221.15 635.90,220.18 636.25,219.21 636.60,218.35 636.95,217.60 637.30,216.74 637.65,215.67 638.00,215.03 638.35,214.52 638.70,213.73 639.05,212.78 639.40,211.81 639.75,211.06 640.10,210.49 640.45,209.96 640.80,209.21 641.15,208.35 641.50,207.59 641.85,206.84 642.20,205.98 642.55,205.23 642.90,204.51 643.25,203.74 643.60,202.88 643.95,201.81 644.30,200.73 644.65,200.08 645.00,199.41 645.35,198.55 645.70,198.12 646.05,197.48 646.40,196.62 646.75,195.98 647.10,195.33 647.45,194.47 647.80,193.72 648.15,192.76 648.50,192.08 648.85,191.31 649.20,190.45 649.55,189.65 649.90,189.08 650.25,188.22 650.60,187.47 650.95,186.72 651.30,185.86 651.65,185.00 652.00,184.07 652.35,183.18 652.70,182.21 653.05,181.46 653.40,180.49 653.75,179.63 654.10,179.17 654.45,178.53 654.80,178.08 655.15,177.16 655.50,176.52 655.85,175.55 656.20,174.91 656.55,174.16 656.90,173.51 657.25,172.70 657.60,171.88 657.95,171.04 658.30,170.51 658.65,169.76 659.00,169.11 659.35,168.25 659.70,167.58 660.05,166.93 660.40,166.31 660.75,165.24 661.10,164.60 661.45,163.82 661.80,163.06 662.15,162.41 662.50,161.66 662.85,160.80 663.20,160.05 663.55,159.73 663.90,158.76 664.25,157.83 664.60,157.31 664.95,156.59 665.30,156.37 665.65,155.84 666.00,154.81 666.35,154.15 666.70,153.29 667.05,152.66 667.40,151.59 667.75,150.78 668.10,150.08 668.45,149.23 668.80,148.37 669.15,147.29 669.50,146.43 669.85,145.36 670.20,144.72 670.55,143.86 670.90,142.90 671.25,142.04 671.60,141.08 671.95,140.11 672.30,139.57 672.65,138.71 673.00,137.75 673.35,137.00 673.70,135.92 674.05,135.60 674.40,134.63 674.75,133.86 675.10,132.99 675.45,132.10 675.80,131.24 676.15,130.70 676.50,130.16 676.85,129.30 677.20,128.65 677.55,127.79 677.90,127.15 678.25,126.40 678.60,125.65 678.95,124.89 679.30,124.11 679.65,123.57 680.00,122.61 680.35,121.86 680.70,121.21 681.05,120.35 681.40,119.60 681.75,118.85 682.10,118.10 682.45,117.35 682.80,116.63 683.15,115.87 683.50,114.96 683.85,114.00 684.20,113.24 684.55,112.75 684.90,112.00 685.25,111.27 685.60,110.30 685.95,109.54 686.30,108.68 686.65,107.93 687.00,107.07 687.35,106.31 687.70,105.45 688.05,104.39 688.40,103.74 688.75,102.88 689.10,102.38 689.45,101.65 689.80,101.00 690.15,100.14 690.50,99.71 690.85,98.96 691.20,98.38 691.55,97.66 691.90,98.09 692.25,98.34 692.60,98.66 692.95,99.41 693.30,99.63 693.65,99.42 694.00,99.75 694.35,100.18 694.70,100.42 695.05,100.68 695.40,100.57 695.75,101.05 696.10,101.26 696.45,101.19 696.80,101.17 697.15,101.07 697.50,101.39 697.85,101.69 698.20,101.48 698.55,101.37 698.90,101.80 699.25,102.23 699.60,102.87 699.95,103.30 700.30,104.19 700.65,105.14 701.00,105.18 701.35,105.29 701.70,105.51 702.05,105.88 702.40,106.07 702.75,105.10 703.10,104.57 703.45,103.92 703.80,103.04 704.15,102.29 704.50,101.54 704.85,100.85 705.20,100.20 705.55,99.34 705.90,98.80 706.25,98.19 706.60,97.90 706.95,98.44 707.30,98.92 707.65,99.05 708.00,99.59 708.35,100.10 708.70,100.85 709.05,101.07 709.40,101.28 709.75,101.67 710.10,102.17 710.45,102.29 710.80,102.42 711.15,102.42 711.50,102.54 711.85,102.22 712.20,102.65 712.55,103.17 712.90,102.96 713.25,103.60 713.60,104.03 713.95,104.10 714.30,104.63 714.65,105.17 715.00,105.38 715.35,105.60 715.70,105.53 716.05,105.10 716.40,105.15 716.75,105.44 717.10,105.50 717.45,105.45 717.80,105.56 718.15,105.45 718.50,104.95 718.85,104.10 719.20,103.47 719.55,103.26 719.90,102.51 720.25,101.68 720.60,101.25 720.95,101.79 721.30,102.65 721.65,102.70 722.00,102.81 722.35,103.24 722.70,103.50 723.05,103.52 723.40,104.14 723.75,104.65 724.10,104.44 724.45,103.90 724.80,103.67 725.15,103.46 725.50,104.05 725.85,103.52 726.20,103.84 726.55,103.81 726.90,103.27 727.25,102.52 727.60,101.87 727.95,101.23 728.30,100.37 728.65,99.83 729.00,99.39 729.35,98.86 729.70,97.89 730.05,97.13 730.40,96.37 730.75,95.62 731.10,94.97 731.45,94.54 731.80,93.68 732.15,92.93 732.50,92.50 732.85,91.85 733.20,91.10 733.55,91.15 733.90,90.67 734.25,89.71 734.60,89.17 734.95,88.42 735.30,87.99 735.65,87.38 736.00,86.84 736.35,86.36 736.70,85.82 737.05,85.13 737.40,84.63 737.75,83.92 738.10,83.22 738.45,82.89 738.80,82.35 739.15,81.39 739.50,80.53 739.85,79.67 740.20,79.24 740.55,79.24 740.90,79.51 741.25,80.16 741.60,80.53 741.95,80.97 742.30,80.75 742.65,80.86 743.00,81.64 743.35,82.29 743.70,83.15 744.05,83.90 744.40,84.54 744.75,85.29 745.10,86.15 745.45,87.12 745.80,87.98 746.15,88.84 746.50,89.30 746.85,89.19 747.20,88.25 747.55,88.35 747.90,89.00 748.25,89.26 748.60,90.22 748.95,89.74 749.30,88.86 749.65,88.19 750.00,87.44 750.35,86.49 750.70,85.84 751.05,85.41 751.40,84.87 751.75,84.12 752.10,83.80 752.45,83.29 752.80,82.64 753.15,81.74 753.50,81.27 753.85,81.48 754.20,82.34 754.55,82.34 754.90,82.99 755.25,83.63 755.60,84.55 755.95,85.47 756.30,86.22 756.65,87.08 757.00,87.83 757.35,88.26 757.70,88.58 758.05,89.22 758.40,89.65 758.75,90.30 759.10,90.07 759.45,89.11 759.80,88.88 760.15,89.09 760.50,89.20 760.85,88.98 761.20,89.28 761.55,89.92 761.90,89.60 762.25,88.76 762.60,88.01 762.95,87.69 763.30,88.09 763.65,88.09 764.00,88.62 764.35,89.01 764.70,89.76 765.05,90.08 765.40,90.43 765.75,91.07 766.10,91.37 766.45,90.83 766.80,89.87 767.15,89.17 767.50,88.47 767.85,87.61 768.20,87.42 768.55,87.74 768.90,88.71 769.25,89.57 769.60,89.46 769.95,89.89 770.30,90.60 770.65,91.24 771.00,91.66 771.35,92.52 771.70,93.06 772.05,93.70 772.40,94.02 772.75,93.92 773.10,94.56 773.45,95.09 773.80,95.19 774.15,95.45 774.50,96.31 774.85,96.55 775.20,96.86 775.55,97.49 775.90,97.55 776.25,97.82 776.60,98.13 776.95,97.60 777.30,96.95 777.65,95.99 778.00,95.24 778.35,94.48 778.70,94.27 779.05,94.59 779.40,95.11 779.75,95.02 780.10,95.67 780.45,95.88 780.80,96.30 781.15,96.41 781.50,96.90 781.85,96.85 782.20,97.23 782.55,97.66 782.90,98.31 783.25,98.52 783.60,98.84 783.95,99.38 784.30,99.54 784.65,99.65 785.00,100.36 785.00,286.24"/>
<line x1="813" y1="102" x2="839" y2="102" stroke="#059669" stroke-width="3"/>
<text x="847" y="106" font-family="Arial" font-size="13" fill="#111827">trending</text>
<text x="435.0" y="518" text-anchor="middle" font-family="Arial" font-size="14" fill="#111827">Event index</text>
<text x="22" y="256.0" text-anchor="middle" transform="rotate(-90 22 256.0)" font-family="Arial" font-size="14" fill="#111827">Inventory</text>
</svg>
