<svg xmlns="http://www.w3.org/2000/svg" width="940" height="720" viewBox="0 0 940 720">
<rect width="100%" height="100%" fill="#ffffff"/>
<text x="470.0" y="26" text-anchor="middle" font-family="Arial" font-size="18" fill="#111827">Avellaneda Stoikov Trending Inventory And Reservation Skew</text>
<line x1="85" y1="228.67" x2="900" y2="228.67" stroke="#111827" stroke-width="1"/>
<line x1="85" y1="46.00" x2="85" y2="228.67" stroke="#111827" stroke-width="1"/>
<text x="73" y="60.00" text-anchor="end" font-family="Arial" font-size="12" fill="#111827">Inventory</text>
<line x1="85" y1="228.67" x2="900" y2="228.67" stroke="#e5e7eb" stroke-width="1"/>
<text x="73" y="232.67" text-anchor="end" font-family="Arial" font-size="11" fill="#374151">-17056</text>
<line x1="85" y1="137.33" x2="900" y2="137.33" stroke="#e5e7eb" stroke-width="1"/>
<text x="73" y="141.33" text-anchor="end" font-family="Arial" font-size="11" fill="#374151">2456</text>
<line x1="85" y1="46.00" x2="900" y2="46.00" stroke="#e5e7eb" stroke-width="1"/>
<text x="73" y="50.00" text-anchor="end" font-family="Arial" font-size="11" fill="#374151">21969</text>
<polyline fill="none" stroke="#2563eb" stroke-width="2" points="85.00,148.83 85.41,148.92 85.81,148.90 86.22,148.90 86.63,149.04 87.04,149.04 87.44,148.94 87.85,148.78 88.26,148.78 88.67,148.85 89.08,148.87 89.48,149.05 89.89,149.05 90.30,148.95 90.70,148.97 91.11,148.88 91.52,148.87 91.93,148.78 92.33,148.78 92.74,148.86 93.15,148.85 93.56,148.90 93.97,148.95 94.37,148.88 94.78,148.70 95.19,148.46 95.59,148.41 96.00,148.15 96.41,147.91 96.82,147.59 97.22,147.17 97.63,146.80 98.04,146.57 98.45,146.25 98.86,145.93 99.26,145.51 99.67,145.17 100.08,144.79 100.48,144.36 100.89,144.03 101.30,143.71 101.71,143.24 102.11,142.91 102.52,142.68 102.93,142.35 103.34,142.02 103.75,141.69 104.15,141.41 104.56,141.03 104.97,140.74 105.38,140.42 105.78,140.03 106.19,139.63 106.60,139.40 107.00,139.07 107.41,138.83 107.82,138.79 108.23,138.51 108.64,138.22 109.04,137.94 109.45,138.17 109.86,138.03 110.27,138.09 110.67,137.93 111.08,138.03 111.49,138.08 111.89,137.93 112.30,137.84 112.71,137.74 113.12,137.67 113.53,137.42 113.93,137.04 114.34,136.71 114.75,136.57 115.16,136.48 115.56,136.41 115.97,136.46 116.38,136.62 116.78,136.57 117.19,136.60 117.60,136.54 118.01,136.59 118.41,136.77 118.82,136.63 119.23,136.72 119.64,136.83 120.05,136.87 120.45,136.90 120.86,136.80 121.27,136.74 121.67,136.93 122.08,137.26 122.49,137.35 122.90,137.40 123.31,137.40 123.71,137.44 124.12,137.63 124.53,137.67 124.94,137.86 125.34,137.80 125.75,137.77 126.16,137.85 126.56,138.19 126.97,138.16 127.38,138.13 127.79,137.85 128.19,137.73 128.60,137.64 129.01,137.73 129.42,137.78 129.82,138.01 130.23,138.10 130.64,138.42 131.05,138.69 131.45,139.02 131.86,139.48 132.27,139.84 132.68,140.21 133.09,140.58 133.49,140.85 133.90,141.31 134.31,141.64 134.72,141.88 135.12,142.23 135.53,142.41 135.94,142.55 136.34,142.86 136.75,143.19 137.16,143.57 137.57,143.85 137.97,144.09 138.38,144.23 138.79,144.26 139.20,144.17 139.60,144.12 140.01,144.20 140.42,144.42 140.83,144.58 141.24,144.55 141.64,144.60 142.05,144.69 142.46,144.76 142.87,144.76 143.27,144.67 143.68,144.73 144.09,144.82 144.50,145.01 144.90,145.09 145.31,145.04 145.72,145.19 146.12,145.20 146.53,145.29 146.94,145.17 147.35,145.49 147.75,145.72 148.16,146.00 148.57,146.34 148.98,146.76 149.38,147.09 149.79,147.33 150.20,147.66 150.61,147.79 151.01,147.69 151.42,147.79 151.83,147.82 152.24,147.79 152.64,147.86 153.05,147.82 153.46,147.68 153.87,147.72 154.28,147.61 154.68,147.80 155.09,148.12 155.50,148.12 155.91,148.26 156.31,148.40 156.72,148.40 157.13,148.28 157.53,148.19 157.94,148.19 158.35,148.33 158.76,148.28 159.17,148.33 159.57,148.14 159.98,148.24 160.39,148.38 160.80,148.38 161.20,148.27 161.61,148.41 162.02,148.37 162.43,148.09 162.83,147.96 163.24,147.90 163.65,147.95 164.06,148.04 164.46,148.13 164.87,148.13 165.28,148.13 165.69,147.99 166.09,147.90 166.50,148.02 166.91,148.07 167.31,147.97 167.72,148.01 168.13,148.06 168.54,148.04 168.94,147.94 169.35,148.08 169.76,148.27 170.17,148.21 170.57,148.35 170.98,148.26 171.39,148.31 171.80,148.61 172.20,148.54 172.61,148.66 173.02,148.24 173.43,147.96 173.83,147.63 174.24,147.40 174.65,147.03 175.06,146.76 175.47,146.43 175.87,146.14 176.28,145.91 176.69,145.86 177.09,145.68 177.50,145.72 177.91,145.86 178.32,146.05 178.72,146.29 179.13,146.53 179.54,146.72 179.95,147.12 180.36,147.38 180.76,147.66 181.17,148.04 181.58,148.41 181.99,148.69 182.39,148.94 182.80,149.32 183.21,149.70 183.62,150.02 184.02,150.45 184.43,150.68 184.84,150.91 185.25,151.31 185.65,151.59 186.06,151.96 186.47,152.34 186.88,152.76 187.28,153.13 187.69,153.54 188.10,153.87 188.50,154.20 188.91,154.57 189.32,155.00 189.73,155.18 190.13,155.51 190.54,155.96 190.95,156.24 191.36,156.59 191.76,156.96 192.17,157.24 192.58,157.53 192.99,157.79 193.39,158.11 193.80,158.49 194.21,158.86 194.62,159.17 195.03,159.49 195.43,159.87 195.84,160.20 196.25,160.57 196.66,160.97 197.06,161.35 197.47,161.61 197.88,161.90 198.28,162.32 198.69,162.69 199.10,163.02 199.51,163.35 199.92,163.67 200.32,163.94 200.73,164.26 201.14,164.75 201.55,164.89 201.95,165.27 202.36,165.55 202.77,165.97 203.18,166.22 203.58,166.55 203.99,166.97 204.40,167.35 204.81,167.58 205.21,167.98 205.62,168.21 206.03,168.57 206.44,169.04 206.84,169.41 207.25,169.83 207.66,170.20 208.06,170.57 208.47,170.99 208.88,171.32 209.29,171.72 209.69,172.19 210.10,172.38 210.51,172.51 210.92,172.83 211.32,173.20 211.73,173.48 212.14,173.81 212.55,174.02 212.95,174.39 213.36,174.78 213.77,175.24 214.18,175.57 214.59,175.95 214.99,176.23 215.40,176.70 215.81,176.60 216.22,176.41 216.62,176.29 217.03,176.24 217.44,176.24 217.84,176.01 218.25,175.68 218.66,175.59 219.07,175.58 219.47,175.49 219.88,175.58 220.29,175.67 220.70,175.63 221.10,175.58 221.51,175.65 221.92,175.83 222.33,176.16 222.74,176.44 223.14,176.86 223.55,177.17 223.96,177.54 224.37,177.78 224.77,178.01 225.18,177.94 225.59,178.17 226.00,178.14 226.40,178.14 226.81,178.17 227.22,177.98 227.62,177.84 228.03,178.12 228.44,178.36 228.85,178.68 229.25,179.01 229.66,179.41 230.07,179.74 230.48,179.98 230.88,180.22 231.29,180.51 231.70,180.31 232.11,180.54 232.51,180.58 232.92,180.39 233.33,180.06 233.74,179.96 234.15,179.85 234.55,179.89 234.96,180.27 235.37,180.59 235.78,180.92 236.18,181.02 236.59,181.34 237.00,181.62 237.41,181.86 237.81,182.15 238.22,182.42 238.63,182.65 239.03,183.03 239.44,183.31 239.85,183.55 240.26,183.78 240.66,184.15 241.07,184.47 241.48,184.85 241.89,185.18 242.29,185.49 242.70,185.82 243.11,185.97 243.52,186.13 243.93,185.94 244.33,186.33 244.74,186.56 245.15,186.84 245.56,187.12 245.96,187.47 246.37,187.84 246.78,188.22 247.19,188.56 247.59,188.89 248.00,189.31 248.41,189.54 248.81,189.87 249.22,190.21 249.63,190.44 250.04,190.66 250.44,190.94 250.85,191.31 251.26,191.64 251.67,191.92 252.07,192.34 252.48,192.72 252.89,193.09 253.30,193.35 253.71,193.68 254.11,194.00 254.52,194.38 254.93,194.74 255.34,195.07 255.74,195.31 256.15,195.75 256.56,196.01 256.97,196.34 257.37,196.63 257.78,196.95 258.19,197.26 258.60,197.64 259.00,198.01 259.41,198.28 259.82,198.61 260.23,198.79 260.63,198.86 261.04,199.19 261.45,199.56 261.86,199.78 262.26,200.10 262.67,200.43 263.08,200.76 263.49,201.13 263.89,201.41 264.30,201.66 264.71,201.99 265.12,202.42 265.52,202.81 265.93,203.19 266.34,203.52 266.75,203.89 267.15,204.26 267.56,204.64 267.97,205.06 268.38,205.43 268.78,205.76 269.19,206.04 269.60,206.18 270.00,206.21 270.41,206.16 270.82,206.21 271.23,206.07 271.63,206.31 272.04,206.56 272.45,206.89 272.86,207.17 273.26,207.45 273.67,207.78 274.08,208.06 274.49,208.07 274.89,207.77 275.30,207.68 275.71,207.77 276.12,207.82 276.52,207.71 276.93,207.53 277.34,207.25 277.75,207.15 278.15,206.97 278.56,207.25 278.97,207.67 279.38,208.00 279.78,208.33 280.19,208.70 280.60,209.03 281.01,209.37 281.41,209.70 281.82,210.00 282.23,210.37 282.64,210.39 283.04,210.48 283.45,210.20 283.86,209.91 284.27,210.09 284.68,210.33 285.08,210.42 285.49,210.42 285.90,210.37 286.31,210.33 286.71,210.47 287.12,210.47 287.53,210.71 287.94,211.04 288.34,210.94 288.75,210.68 289.16,210.58 289.56,210.58 289.97,210.63 290.38,210.88 290.79,210.92 291.19,211.19 291.60,211.51 292.01,211.86 292.42,212.32 292.82,212.42 293.23,212.65 293.64,212.98 294.05,213.31 294.46,213.65 294.86,214.03 295.27,214.31 295.68,214.58 296.09,214.81 296.49,215.24 296.90,215.56 297.31,215.49 297.72,215.72 298.12,215.63 298.53,215.72 298.94,215.76 299.35,215.44 299.75,215.07 300.16,214.65 300.57,214.32 300.98,213.94 301.38,213.63 301.79,213.26 302.20,213.05 302.61,213.00 303.01,213.08 303.42,212.85 303.83,212.80 304.24,212.71 304.64,212.45 305.05,212.12 305.46,211.98 305.87,211.89 306.27,211.81 306.68,211.59 307.09,211.59 307.50,211.57 307.90,211.43 308.31,211.29 308.72,210.96 309.12,210.77 309.53,210.59 309.94,210.56 310.35,210.79 310.75,211.13 311.16,211.51 311.57,211.97 311.98,211.87 312.38,211.66 312.79,211.66 313.20,212.00 313.61,212.42 314.01,212.41 314.42,212.19 314.83,212.52 315.24,212.90 315.64,213.05 316.05,213.12 316.46,213.50 316.87,213.70 317.27,214.12 317.68,214.40 318.09,214.63 318.50,214.79 318.90,215.07 319.31,215.40 319.72,215.69 320.13,216.01 320.53,215.98 320.94,216.07 321.35,215.98 321.76,215.84 322.16,215.66 322.57,215.24 322.98,214.81 323.39,214.58 323.79,214.62 324.20,214.31 324.61,214.31 325.02,214.08 325.43,213.94 325.83,213.71 326.24,213.66 326.65,213.79 327.06,213.89 327.46,214.07 327.87,214.38 328.28,214.60 328.69,214.83 329.09,214.97 329.50,214.92 329.91,214.97 330.31,215.11 330.72,215.53 331.13,215.72 331.54,216.00 331.94,215.91 332.35,215.57 332.76,215.32 333.17,214.99 333.57,214.65 333.98,214.33 334.39,213.95 334.80,214.05 335.21,213.92 335.61,213.73 336.02,213.50 336.43,213.59 336.84,213.47 337.24,213.10 337.65,212.65 338.06,212.28 338.47,212.15 338.87,212.06 339.28,211.99 339.69,211.71 340.10,211.62 340.50,211.43 340.91,211.31 341.32,211.22 341.73,211.20 342.13,210.91 342.54,210.56 342.95,210.29 343.36,209.91 343.76,209.59 344.17,209.30 344.58,208.88 344.99,208.69 345.39,208.32 345.80,208.04 346.21,207.80 346.62,207.57 347.02,207.22 347.43,206.94 347.84,206.57 348.25,206.19 348.65,205.77 349.06,205.43 349.47,205.07 349.88,204.61 350.28,204.23 350.69,203.86 351.10,203.58 351.50,203.30 351.91,203.04 352.32,202.66 352.73,202.29 353.13,201.91 353.54,201.64 353.95,201.31 354.36,201.07 354.76,200.83 355.17,200.41 355.58,200.12 355.99,199.84 356.39,199.51 356.80,199.14 357.21,198.84 357.62,198.77 358.02,198.35 358.43,198.00 358.84,197.63 359.25,197.30 359.65,197.06 360.06,196.73 360.47,196.26 360.88,195.89 361.29,195.61 361.69,195.19 362.10,194.86 362.51,194.54 362.92,194.28 363.32,193.81 363.73,193.34 364.14,193.08 364.55,192.71 364.95,192.33 365.36,191.94 365.77,191.61 366.18,191.24 366.58,190.86 366.99,190.44 367.40,190.14 367.81,189.72 368.21,189.22 368.62,188.84 369.03,188.42 369.44,188.05 369.84,187.80 370.25,187.43 370.66,187.06 371.06,186.67 371.47,186.25 371.88,185.79 372.29,185.56 372.69,185.27 373.10,184.95 373.51,184.57 373.92,184.32 374.32,183.94 374.73,183.57 375.14,183.25 375.55,182.83 375.95,182.51 376.36,182.12 376.77,181.75 377.18,181.38 377.58,181.04 377.99,180.76 378.40,180.36 378.81,179.93 379.21,179.70 379.62,179.42 380.03,179.14 380.44,178.76 380.85,178.39 381.25,178.11 381.66,177.79 382.07,177.47 382.48,177.19 382.88,176.81 383.29,176.52 383.70,176.33 384.11,176.05 384.51,175.74 384.92,175.46 385.33,175.13 385.74,174.76 386.14,174.46 386.55,174.04 386.96,173.57 387.37,173.28 387.77,173.00 388.18,172.58 388.59,172.24 389.00,171.87 389.40,171.54 389.81,171.15 390.22,170.96 390.62,170.63 391.03,170.31 391.44,170.07 391.85,169.84 392.25,169.52 392.66,169.09 393.07,168.77 393.48,168.35 393.88,167.97 394.29,167.60 394.70,167.27 395.11,166.99 395.51,166.57 395.92,166.20 396.33,165.87 396.74,165.49 397.14,165.14 397.55,164.95 397.96,164.76 398.37,164.48 398.77,164.58 399.18,164.99 399.59,165.38 400.00,165.68 400.40,165.72 400.81,165.82 401.22,165.49 401.63,165.60 402.04,165.64 402.44,165.64 402.85,165.60 403.26,165.71 403.67,165.67 404.07,165.69 404.48,165.69 404.89,165.67 405.30,165.53 405.70,165.34 406.11,165.15 406.52,165.15 406.93,165.19 407.33,165.17 407.74,165.25 408.15,165.18 408.56,165.13 408.96,165.08 409.37,164.99 409.78,164.95 410.19,164.95 410.59,164.85 411.00,164.76 411.41,164.69 411.81,164.53 412.22,164.25 412.63,163.87 413.04,163.43 413.44,163.32 413.85,163.00 414.26,162.85 414.67,162.57 415.07,162.25 415.48,161.92 415.89,161.48 416.30,161.06 416.70,160.64 417.11,160.31 417.52,159.84 417.93,159.47 418.33,159.28 418.74,159.09 419.15,158.90 419.56,158.58 419.96,158.25 420.37,158.21 420.78,158.23 421.19,158.23 421.60,158.27 422.00,158.27 422.41,158.26 422.82,158.21 423.23,158.27 423.63,158.37 424.04,158.37 424.45,158.31 424.86,158.35 425.26,158.31 425.67,158.37 426.08,158.18 426.49,157.89 426.89,157.59 427.30,157.45 427.71,157.07 428.12,156.84 428.52,156.65 428.93,156.37 429.34,155.97 429.75,155.56 430.15,155.22 430.56,155.03 430.97,154.90 431.38,154.90 431.78,154.48 432.19,154.27 432.60,154.22 433.00,154.04 433.41,154.08 433.82,153.76 434.23,153.55 434.63,153.24 435.04,152.91 435.45,152.54 435.86,152.26 436.26,151.84 436.67,151.56 437.08,151.32 437.49,150.90 437.89,150.57 438.30,150.24 438.71,149.79 439.12,149.46 439.52,149.21 439.93,148.88 440.34,148.51 440.75,148.13 441.15,147.77 441.56,147.59 441.97,147.31 442.38,147.17 442.79,146.78 443.19,146.54 443.60,146.20 444.01,145.78 444.42,145.41 444.82,145.04 445.23,144.75 445.64,144.46 446.05,144.25 446.45,143.88 446.86,143.74 447.27,143.27 447.68,142.92 448.08,142.57 448.49,142.20 448.90,141.82 449.31,141.53 449.71,141.30 450.12,141.07 450.53,140.74 450.94,140.72 451.34,140.70 451.75,140.64 452.16,140.60 452.56,140.22 452.97,139.80 453.38,139.46 453.79,139.22 454.19,139.30 454.60,139.25 455.01,139.40 455.42,139.49 455.82,139.35 456.23,139.31 456.64,139.07 457.05,138.84 457.45,138.88 457.86,139.00 458.27,138.90 458.68,138.81 459.08,138.62 459.49,138.20 459.90,138.15 460.31,138.15 460.71,138.48 461.12,138.61 461.53,138.59 461.94,138.62 462.35,138.73 462.75,138.70 463.16,138.60 463.57,138.58 463.98,138.66 464.38,138.57 464.79,138.57 465.20,138.89 465.61,138.84 466.01,138.79 466.42,138.79 466.83,138.75 467.24,138.77 467.64,138.85 468.05,138.80 468.46,138.81 468.87,138.76 469.27,138.99 469.68,138.81 470.09,138.43 470.50,138.20 470.90,137.87 471.31,137.59 471.72,137.17 472.12,136.98 472.53,136.63 472.94,136.32 473.35,136.04 473.75,135.76 474.16,135.39 474.57,134.97 474.98,134.64 475.38,134.22 475.79,133.84 476.20,133.47 476.61,133.14 477.01,132.83 477.42,132.46 477.83,132.18 478.24,131.80 478.64,131.41 479.05,131.02 479.46,130.83 479.87,130.50 480.27,130.13 480.68,129.71 481.09,129.38 481.50,129.05 481.90,128.63 482.31,128.25 482.72,127.96 483.13,127.68 483.54,127.31 483.94,126.93 484.35,126.56 484.76,126.21 485.17,125.94 485.57,125.61 485.98,125.24 486.39,124.91 486.80,124.53 487.20,124.25 487.61,124.07 488.02,123.78 488.43,123.41 488.83,123.08 489.24,122.79 489.65,122.46 490.06,122.23 490.46,121.81 490.87,121.48 491.28,121.29 491.69,120.87 492.09,120.59 492.50,120.21 492.91,119.84 493.31,119.56 493.72,119.30 494.13,118.92 494.54,118.50 494.94,118.13 495.35,117.89 495.76,117.51 496.17,117.13 496.57,116.76 496.98,116.43 497.39,116.09 497.80,115.81 498.20,115.43 498.61,115.07 499.02,114.79 499.43,114.46 499.83,114.13 500.24,113.81 500.65,113.48 501.06,113.17 501.46,112.81 501.87,112.53 502.28,112.23 502.69,111.91 503.10,111.72 503.50,111.43 503.91,111.01 504.32,110.73 504.73,110.26 505.13,109.93 505.54,109.56 505.95,109.32 506.36,109.04 506.76,108.82 507.17,108.53 507.58,108.15 507.99,107.78 508.39,107.43 508.80,107.05 509.21,106.76 509.62,106.48 510.02,106.20 510.43,105.88 510.84,105.46 511.25,105.14 511.65,104.81 512.06,104.58 512.47,104.29 512.88,103.87 513.28,103.41 513.69,103.03 514.10,102.65 514.50,102.33 514.91,101.98 515.32,101.56 515.73,101.37 516.13,101.04 516.54,100.76 516.95,100.53 517.36,100.11 517.76,99.87 518.17,99.49 518.58,99.16 518.99,98.84 519.39,98.51 519.80,98.09 520.21,97.85 520.62,97.57 521.02,97.15 521.43,96.82 521.84,96.50 522.25,96.13 522.65,95.75 523.06,95.57 523.47,95.30 523.88,95.02 524.29,94.61 524.69,94.18 525.10,93.90 525.51,93.67 525.91,93.30 526.32,93.07 526.73,92.70 527.14,92.34 527.55,91.96 527.95,91.77 528.36,91.86 528.77,91.98 529.17,91.95 529.58,92.14 529.99,92.07 530.40,92.12 530.81,92.30 531.21,92.11 531.62,92.32 532.03,92.13 532.43,92.17 532.84,92.13 533.25,92.02 533.66,92.02 534.07,92.35 534.47,92.35 534.88,92.57 535.29,92.76 535.69,92.80 536.10,92.67 536.51,93.00 536.92,93.24 537.33,93.67 537.73,94.04 538.14,94.29 538.55,94.67 538.95,94.99 539.36,95.18 539.77,95.46 540.18,95.51 540.59,95.56 540.99,95.60 541.40,95.61 541.81,95.66 542.21,95.68 542.62,95.65 543.03,95.67 543.44,95.73 543.85,95.77 544.25,95.81 544.66,95.86 545.07,95.86 545.48,96.05 545.88,96.00 546.29,95.77 546.70,95.82 547.11,95.72 547.51,95.69 547.92,95.63 548.33,95.67 548.74,95.58 549.14,95.77 549.55,95.77 549.96,95.81 550.37,96.02 550.77,96.10 551.18,96.06 551.59,96.06 552.00,96.01 552.40,95.96 552.81,96.06 553.22,96.14 553.62,96.18 554.03,96.32 554.44,96.37 554.85,96.32 555.25,96.32 555.66,95.99 556.07,95.99 556.48,95.90 556.88,95.94 557.29,95.94 557.70,96.01 558.11,96.05 558.51,95.97 558.92,96.09 559.33,96.32 559.74,96.69 560.14,97.01 560.55,97.39 560.96,97.71 561.37,97.76 561.77,97.76 562.18,97.91 562.59,98.31 563.00,98.64 563.40,99.01 563.81,99.34 564.22,99.67 564.63,100.08 565.04,100.43 565.44,100.67 565.85,101.00 566.26,101.37 566.66,101.74 567.07,102.21 567.48,102.63 567.89,102.88 568.30,103.34 568.70,103.57 569.11,103.94 569.52,104.32 569.92,104.65 570.33,104.93 570.74,105.37 571.15,105.65 571.56,105.82 571.96,106.24 572.37,106.51 572.78,106.88 573.18,107.21 573.59,107.55 574.00,107.88 574.41,108.25 574.82,108.63 575.22,109.05 575.63,109.47 576.04,109.86 576.44,110.26 576.85,110.59 577.26,110.96 577.67,111.33 578.08,111.60 578.48,111.93 578.89,112.30 579.30,112.62 579.70,112.93 580.11,113.31 580.52,113.53 580.93,113.93 581.34,114.35 581.74,114.67 582.15,115.04 582.56,115.42 582.96,115.74 583.37,116.08 583.78,116.40 584.19,116.78 584.60,117.11 585.00,117.53 585.41,117.76 585.82,118.09 586.23,118.23 586.63,118.56 587.04,118.94 587.45,119.31 587.86,119.59 588.26,120.06 588.67,120.42 589.08,120.76 589.49,121.14 589.89,121.48 590.30,121.80 590.71,122.02 591.12,122.39 591.52,122.62 591.93,122.85 592.34,123.22 592.75,123.69 593.15,124.07 593.56,124.49 593.97,124.80 594.38,125.18 594.78,125.50 595.19,125.88 595.60,126.25 596.00,126.63 596.41,127.00 596.82,127.40 597.23,127.68 597.63,127.88 598.04,128.29 598.45,128.62 598.86,128.99 599.26,129.27 599.67,129.35 600.08,129.50 600.49,129.78 600.89,130.11 601.30,130.39 601.71,130.67 602.12,131.04 602.52,131.33 602.93,131.51 603.34,131.58 603.75,131.53 604.15,131.68 604.56,131.54 604.97,131.68 605.38,131.88 605.78,131.97 606.19,131.89 606.60,131.95 607.01,131.93 607.41,131.89 607.82,131.94 608.23,132.08 608.64,131.98 609.04,131.93 609.45,131.74 609.86,131.60 610.27,131.60 610.67,131.65 611.08,131.46 611.49,131.56 611.90,131.74 612.30,131.70 612.71,131.71 613.12,131.62 613.53,131.85 613.93,132.23 614.34,132.58 614.75,132.86 615.16,133.18 615.57,133.51 615.97,133.67 616.38,133.75 616.79,133.82 617.20,133.91 617.60,133.83 618.01,133.75 618.42,133.66 618.83,133.68 619.23,133.68 619.64,133.63 620.05,133.74 620.46,133.67 620.86,133.86 621.27,133.82 621.68,133.89 622.09,133.90 622.49,133.81 622.90,133.99 623.31,133.78 623.72,133.44 624.12,133.39 624.53,133.31 624.94,133.33 625.35,133.45 625.75,133.40 626.16,133.47 626.57,133.52 626.98,133.71 627.38,133.52 627.79,133.52 628.20,133.61 628.61,133.57 629.01,133.19 629.42,132.87 629.83,132.89 630.24,132.84 630.64,132.90 631.05,132.71 631.46,132.71 631.87,133.06 632.27,133.34 632.68,133.63 633.09,134.05 633.50,134.38 633.90,134.75 634.31,134.99 634.72,135.22 635.12,135.27 635.53,135.36 635.94,135.31 636.35,135.27 636.75,135.13 637.16,135.04 637.57,135.14 637.98,135.08 638.38,135.22 638.79,135.17 639.20,135.36 639.61,135.17 640.01,135.29 640.42,135.18 640.83,135.14 641.24,135.25 641.64,135.14 642.05,135.00 642.46,134.88 642.87,134.96 643.27,135.20 643.68,135.36 644.09,135.50 644.50,135.68 644.90,135.59 645.31,135.45 645.72,135.40 646.13,135.37 646.53,135.49 646.94,135.56 647.35,135.58 647.76,135.63 648.16,135.49 648.57,135.54 648.98,135.61 649.39,135.51 649.79,135.47 650.20,135.42 650.61,135.56 651.02,135.76 651.42,135.85 651.83,135.90 652.24,136.02 652.65,136.35 653.05,136.68 653.46,137.10 653.87,137.33 654.28,137.61 654.68,137.89 655.09,138.08 655.50,138.50 655.91,138.92 656.32,139.25 656.72,139.58 657.13,139.95 657.54,140.14 657.95,140.38 658.35,140.71 658.76,140.90 659.17,141.20 659.58,141.55 659.98,141.93 660.39,142.29 660.80,142.68 661.21,142.92 661.61,143.24 662.02,143.52 662.43,143.71 662.84,144.04 663.24,144.38 663.65,144.65 664.06,144.98 664.47,145.35 664.87,145.63 665.28,146.06 665.69,146.38 666.10,146.76 666.50,147.09 666.91,147.43 667.32,147.81 667.73,148.18 668.13,148.56 668.54,148.98 668.95,149.26 669.36,149.54 669.76,149.96 670.17,150.29 670.58,150.57 670.99,151.04 671.39,151.41 671.80,151.62 672.21,151.99 672.62,152.18 673.02,152.52 673.43,152.67 673.84,153.00 674.25,153.38 674.65,153.80 675.06,154.20 675.47,154.25 675.88,154.39 676.28,154.28 676.69,154.47 677.10,154.29 677.50,154.00 677.91,153.83 678.32,153.84 678.73,153.98 679.13,153.98 679.54,153.99 679.95,154.08 680.36,153.94 680.76,153.82 681.17,153.78 681.58,153.55 681.99,153.46 682.39,153.52 682.80,153.49 683.21,153.52 683.62,153.42 684.02,153.39 684.43,153.53 684.84,153.32 685.25,153.04 685.65,152.66 686.06,152.42 686.47,152.04 686.88,151.62 687.28,151.34 687.69,150.93 688.10,150.58 688.51,150.34 688.91,150.05 689.32,149.72 689.73,149.36 690.14,148.98 690.54,148.65 690.95,148.38 691.36,148.14 691.77,147.72 692.17,147.39 692.58,147.05 692.99,146.72 693.40,146.39 693.80,146.16 694.21,145.78 694.62,145.45 695.03,144.99 695.43,144.71 695.84,144.61 696.25,144.15 696.66,143.77 697.07,143.44 697.47,142.98 697.88,142.60 698.29,142.36 698.70,142.10 699.10,141.69 699.51,141.37 699.92,140.99 700.33,140.71 700.73,140.34 701.14,140.01 701.55,139.68 701.96,139.35 702.36,138.90 702.77,138.44 703.18,138.15 703.59,137.73 703.99,137.41 704.40,136.98 704.81,136.66 705.22,136.27 705.62,135.89 706.03,135.52 706.44,135.22 706.85,134.94 707.25,134.52 707.66,134.28 708.07,134.32 708.48,134.32 708.88,134.37 709.29,134.18 709.70,133.83 710.11,133.58 710.51,133.20 710.92,132.89 711.33,132.47 711.74,132.14 712.14,131.93 712.55,131.56 712.96,131.18 713.37,130.87 713.77,130.68 714.18,130.41 714.59,130.09 715.00,129.71 715.40,129.34 715.81,128.96 716.22,128.59 716.62,128.26 717.03,127.89 717.44,127.56 717.85,127.26 718.25,126.94 718.66,126.52 719.07,126.20 719.48,125.77 719.88,125.54 720.29,125.12 720.70,124.84 721.11,124.47 721.51,124.19 721.92,123.84 722.33,123.54 722.74,123.20 723.14,122.93 723.55,122.42 723.96,122.00 724.37,121.72 724.77,121.49 725.18,121.11 725.59,120.88 726.00,120.46 726.40,120.04 726.81,119.61 727.22,119.24 727.63,118.91 728.03,118.54 728.44,118.07 728.85,117.79 729.26,117.57 729.66,117.22 730.07,116.81 730.48,116.39 730.89,116.06 731.29,115.81 731.70,115.58 732.11,115.25 732.52,114.88 732.92,114.55 733.33,114.22 733.74,113.85 734.15,113.52 734.55,113.21 734.96,112.87 735.37,112.50 735.78,112.03 736.18,111.56 736.59,111.27 737.00,110.98 737.41,110.61 737.82,110.42 738.22,110.14 738.63,109.77 739.04,109.49 739.45,109.20 739.85,108.83 740.26,108.50 740.67,108.08 741.08,107.79 741.48,107.45 741.89,107.08 742.30,106.73 742.71,106.48 743.11,106.11 743.52,105.78 743.93,105.45 744.34,105.08 744.74,104.70 745.15,104.29 745.56,103.91 745.97,103.49 746.37,103.16 746.78,102.74 747.19,102.36 747.60,102.16 748.00,101.88 748.41,101.68 748.82,101.29 749.23,101.00 749.63,100.58 750.04,100.30 750.45,99.97 750.86,99.69 751.26,99.34 751.67,98.98 752.08,98.62 752.49,98.38 752.89,98.06 753.30,97.77 753.71,97.40 754.12,97.11 754.52,96.82 754.93,96.55 755.34,96.09 755.75,95.81 756.15,95.47 756.56,95.13 756.97,94.85 757.38,94.53 757.78,94.15 758.19,93.82 758.60,93.68 759.00,93.26 759.41,92.86 759.82,92.63 760.23,92.32 760.63,92.22 761.04,91.99 761.45,91.54 761.86,91.25 762.26,90.88 762.67,90.60 763.08,90.14 763.49,89.78 763.89,89.48 764.30,89.11 764.71,88.73 765.12,88.26 765.52,87.89 765.93,87.42 766.34,87.14 766.75,86.77 767.15,86.35 767.56,85.97 767.97,85.55 768.38,85.13 768.78,84.90 769.19,84.52 769.60,84.10 770.01,83.77 770.41,83.31 770.82,83.17 771.23,82.75 771.64,82.41 772.04,82.03 772.45,81.64 772.86,81.27 773.27,81.03 773.67,80.79 774.08,80.42 774.49,80.14 774.90,79.76 775.30,79.48 775.71,79.16 776.12,78.83 776.53,78.50 776.93,78.16 777.34,77.92 777.75,77.50 778.16,77.18 778.57,76.89 778.97,76.52 779.38,76.19 779.79,75.86 780.20,75.54 780.60,75.21 781.01,74.90 781.42,74.57 781.83,74.17 782.23,73.75 782.64,73.42 783.05,73.21 783.46,72.88 783.86,72.56 784.27,72.14 784.68,71.81 785.09,71.43 785.49,71.10 785.90,70.73 786.31,70.40 786.72,70.02 787.12,69.56 787.53,69.28 787.94,68.90 788.35,68.68 788.75,68.37 789.16,68.09 789.57,67.71 789.98,67.52 790.38,67.20 790.79,66.94 791.20,66.63 791.61,66.82 792.01,66.92 792.42,67.07 792.83,67.39 793.24,67.49 793.64,67.40 794.05,67.54 794.46,67.72 794.87,67.83 795.27,67.94 795.68,67.90 796.09,68.10 796.50,68.20 796.90,68.16 797.31,68.16 797.72,68.11 798.12,68.25 798.53,68.38 798.94,68.29 799.35,68.24 799.75,68.43 800.16,68.62 800.57,68.90 800.98,69.09 801.38,69.48 801.79,69.89 802.20,69.91 802.61,69.95 803.01,70.05 803.42,70.21 803.83,70.29 804.24,69.87 804.64,69.64 805.05,69.36 805.46,68.97 805.87,68.65 806.27,68.32 806.68,68.02 807.09,67.73 807.50,67.36 807.90,67.13 808.31,66.86 808.72,66.73 809.13,66.97 809.53,67.18 809.94,67.23 810.35,67.47 810.76,67.69 811.16,68.02 811.57,68.11 811.98,68.21 812.39,68.38 812.79,68.60 813.20,68.65 813.61,68.70 814.02,68.70 814.42,68.75 814.83,68.61 815.24,68.80 815.65,69.03 816.05,68.94 816.46,69.22 816.87,69.41 817.28,69.43 817.68,69.67 818.09,69.90 818.50,70.00 818.91,70.09 819.32,70.06 819.72,69.87 820.13,69.89 820.54,70.02 820.95,70.05 821.35,70.02 821.76,70.07 822.17,70.02 822.58,69.81 822.98,69.43 823.39,69.16 823.80,69.07 824.21,68.74 824.61,68.38 825.02,68.19 825.43,68.43 825.84,68.80 826.24,68.82 826.65,68.87 827.06,69.06 827.47,69.18 827.87,69.18 828.28,69.45 828.69,69.68 829.10,69.58 829.50,69.35 829.91,69.25 830.32,69.16 830.73,69.41 831.13,69.18 831.54,69.32 831.95,69.31 832.36,69.07 832.76,68.75 833.17,68.46 833.58,68.18 833.99,67.81 834.39,67.58 834.80,67.38 835.21,67.15 835.62,66.73 836.02,66.40 836.43,66.07 836.84,65.74 837.25,65.45 837.65,65.27 838.06,64.89 838.47,64.57 838.88,64.38 839.28,64.10 839.69,63.77 840.10,63.79 840.50,63.58 840.91,63.16 841.32,62.93 841.73,62.60 842.13,62.41 842.54,62.15 842.95,61.91 843.36,61.70 843.76,61.47 844.17,61.17 844.58,60.95 844.99,60.64 845.39,60.33 845.80,60.19 846.21,59.96 846.62,59.53 847.02,59.16 847.43,58.78 847.84,58.60 848.25,58.60 848.65,58.71 849.06,59.00 849.47,59.16 849.88,59.35 850.28,59.26 850.69,59.30 851.10,59.65 851.51,59.93 851.91,60.30 852.32,60.63 852.73,60.91 853.14,61.24 853.54,61.61 853.95,62.03 854.36,62.41 854.77,62.78 855.17,62.98 855.58,62.94 855.99,62.52 856.40,62.57 856.80,62.85 857.21,62.96 857.62,63.39 858.03,63.18 858.43,62.79 858.84,62.50 859.25,62.17 859.66,61.76 860.07,61.48 860.47,61.29 860.88,61.06 861.29,60.73 861.70,60.59 862.10,60.36 862.51,60.08 862.92,59.69 863.33,59.48 863.73,59.58 864.14,59.95 864.55,59.95 864.96,60.23 865.36,60.51 865.77,60.91 866.18,61.31 866.59,61.64 866.99,62.01 867.40,62.34 867.81,62.53 868.22,62.67 868.62,62.95 869.03,63.14 869.44,63.42 869.85,63.32 870.25,62.90 870.66,62.80 871.07,62.89 871.48,62.94 871.88,62.84 872.29,62.97 872.70,63.25 873.11,63.11 873.51,62.75 873.92,62.42 874.33,62.28 874.74,62.45 875.14,62.45 875.55,62.69 875.96,62.86 876.37,63.18 876.77,63.33 877.18,63.47 877.59,63.76 878.00,63.89 878.40,63.65 878.81,63.23 879.22,62.93 879.62,62.62 880.03,62.25 880.44,62.16 880.85,62.30 881.25,62.73 881.66,63.10 882.07,63.05 882.48,63.24 882.88,63.55 883.29,63.83 883.70,64.01 884.11,64.39 884.51,64.62 884.92,64.90 885.33,65.04 885.74,65.00 886.14,65.28 886.55,65.51 886.96,65.55 887.37,65.67 887.77,66.04 888.18,66.14 888.59,66.28 889.00,66.55 889.40,66.58 889.81,66.70 890.22,66.83 890.63,66.60 891.03,66.32 891.44,65.90 891.85,65.57 892.26,65.24 892.66,65.15 893.07,65.29 893.48,65.52 893.89,65.48 894.29,65.76 894.70,65.85 895.11,66.04 895.52,66.08 895.92,66.30 896.33,66.27 896.74,66.44 897.15,66.63 897.55,66.91 897.96,67.00 898.37,67.14 898.78,67.38 899.18,67.45 899.59,67.50 900.00,67.80 900.00,148.83"/>
<line x1="85" y1="445.33" x2="900" y2="445.33" stroke="#111827" stroke-width="1"/>
<line x1="85" y1="262.67" x2="85" y2="445.33" stroke="#111827" stroke-width="1"/>
<text x="73" y="276.67" text-anchor="end" font-family="Arial" font-size="12" fill="#111827">Reservation skew ticks</text>
<line x1="85" y1="445.33" x2="900" y2="445.33" stroke="#e5e7eb" stroke-width="1"/>
<text x="73" y="449.33" text-anchor="end" font-family="Arial" font-size="11" fill="#374151">-20</text>
<line x1="85" y1="354.00" x2="900" y2="354.00" stroke="#e5e7eb" stroke-width="1"/>
<text x="73" y="358.00" text-anchor="end" font-family="Arial" font-size="11" fill="#374151">1</text>
<line x1="85" y1="262.67" x2="900" y2="262.67" stroke="#e5e7eb" stroke-width="1"/>
<text x="73" y="266.67" text-anchor="end" font-family="Arial" font-size="11" fill="#374151">22</text>
<polyline fill="none" stroke="#dc2626" stroke-width="2" points="85.00,357.49 85.41,357.60 85.81,357.57 86.22,357.57 86.63,357.74 87.04,357.74 87.44,357.62 87.85,357.43 88.26,357.43 88.67,357.51 89.08,357.53 89.48,357.74 89.89,357.74 90.30,357.63 90.70,357.66 91.11,357.54 91.52,357.53 91.93,357.42 92.33,357.43 92.74,357.53 93.15,357.52 93.56,357.57 93.97,357.63 94.37,357.54 94.78,357.33 95.19,357.05 95.59,357.00 96.00,356.68 96.41,356.41 96.82,356.02 97.22,355.52 97.63,355.10 98.04,354.83 98.45,354.45 98.86,354.08 99.26,353.58 99.67,353.18 100.08,352.75 100.48,352.24 100.89,351.86 101.30,351.48 101.71,350.93 102.11,350.55 102.52,350.28 102.93,349.90 103.34,349.52 103.75,349.15 104.15,348.82 104.56,348.38 104.97,348.05 105.38,347.68 105.78,347.22 106.19,346.77 106.60,346.50 107.00,346.12 107.41,345.86 107.82,345.81 108.23,345.49 108.64,345.17 109.04,344.85 109.45,345.12 109.86,344.96 110.27,345.04 110.67,344.86 111.08,344.98 111.49,345.04 111.89,344.88 112.30,344.78 112.71,344.67 113.12,344.60 113.53,344.31 113.93,343.88 114.34,343.51 114.75,343.36 115.16,343.26 115.56,343.18 115.97,343.25 116.38,343.44 116.78,343.40 117.19,343.43 117.60,343.37 118.01,343.43 118.41,343.66 118.82,343.50 119.23,343.61 119.64,343.74 120.05,343.80 120.45,343.84 120.86,343.73 121.27,343.67 121.67,343.89 122.08,344.27 122.49,344.38 122.90,344.44 123.31,344.45 123.71,344.51 124.12,344.73 124.53,344.79 124.94,345.01 125.34,344.95 125.75,344.92 126.16,345.02 126.56,345.41 126.97,345.38 127.38,345.35 127.79,345.04 128.19,344.91 128.60,344.81 129.01,344.92 129.42,344.98 129.82,345.25 130.23,345.37 130.64,345.73 131.05,346.04 131.45,346.42 131.86,346.95 132.27,347.35 132.68,347.78 133.09,348.20 133.49,348.51 133.90,349.04 134.31,349.41 134.72,349.67 135.12,350.07 135.53,350.29 135.94,350.45 136.34,350.80 136.75,351.17 137.16,351.59 137.57,351.91 137.97,352.18 138.38,352.34 138.79,352.38 139.20,352.28 139.60,352.23 140.01,352.32 140.42,352.57 140.83,352.75 141.24,352.72 141.64,352.78 142.05,352.88 142.46,352.96 142.87,352.96 143.27,352.86 143.68,352.93 144.09,353.04 144.50,353.25 144.90,353.34 145.31,353.29 145.72,353.45 146.12,353.47 146.53,353.57 146.94,353.44 147.35,353.80 147.75,354.06 148.16,354.37 148.57,354.74 148.98,355.21 149.38,355.58 149.79,355.83 150.20,356.20 150.61,356.34 151.01,356.24 151.42,356.34 151.83,356.38 152.24,356.34 152.64,356.43 153.05,356.37 153.46,356.22 153.87,356.27 154.28,356.15 154.68,356.36 155.09,356.71 155.50,356.71 155.91,356.86 156.31,357.01 156.72,357.01 157.13,356.89 157.53,356.78 157.94,356.78 158.35,356.94 158.76,356.89 159.17,356.94 159.57,356.74 159.98,356.84 160.39,357.00 160.80,357.00 161.20,356.88 161.61,357.04 162.02,356.99 162.43,356.68 162.83,356.55 163.24,356.49 163.65,356.54 164.06,356.63 164.46,356.73 164.87,356.73 165.28,356.73 165.69,356.58 166.09,356.48 166.50,356.62 166.91,356.67 167.31,356.57 167.72,356.60 168.13,356.66 168.54,356.63 168.94,356.53 169.35,356.69 169.76,356.89 170.17,356.83 170.57,356.98 170.98,356.88 171.39,356.93 171.80,357.25 172.20,357.18 172.61,357.31 173.02,356.86 173.43,356.56 173.83,356.21 174.24,355.96 174.65,355.57 175.06,355.29 175.47,354.93 175.87,354.63 176.28,354.39 176.69,354.34 177.09,354.14 177.50,354.19 177.91,354.34 178.32,354.54 178.72,354.80 179.13,355.06 179.54,355.26 179.95,355.68 180.36,355.96 180.76,356.25 181.17,356.65 181.58,357.04 181.99,357.34 182.39,357.61 182.80,358.01 183.21,358.40 183.62,358.74 184.02,359.19 184.43,359.43 184.84,359.67 185.25,360.09 185.65,360.38 186.06,360.77 186.47,361.16 186.88,361.60 187.28,361.99 187.69,362.42 188.10,362.76 188.50,363.10 188.91,363.48 189.32,363.92 189.73,364.11 190.13,364.44 190.54,364.91 190.95,365.20 191.36,365.56 191.76,365.94 192.17,366.23 192.58,366.52 192.99,366.78 193.39,367.12 193.80,367.50 194.21,367.88 194.62,368.19 195.03,368.52 195.43,368.90 195.84,369.24 196.25,369.62 196.66,370.02 197.06,370.40 197.47,370.67 197.88,370.95 198.28,371.38 198.69,371.76 199.10,372.08 199.51,372.41 199.92,372.74 200.32,373.00 200.73,373.33 201.14,373.82 201.55,373.95 201.95,374.33 202.36,374.61 202.77,375.03 203.18,375.28 203.58,375.60 203.99,376.02 204.40,376.40 204.81,376.62 205.21,377.01 205.62,377.24 206.03,377.60 206.44,378.06 206.84,378.43 207.25,378.84 207.66,379.20 208.06,379.57 208.47,379.99 208.88,380.30 209.29,380.70 209.69,381.16 210.10,381.34 210.51,381.45 210.92,381.77 211.32,382.12 211.73,382.39 212.14,382.71 212.55,382.90 212.95,383.27 213.36,383.64 213.77,384.09 214.18,384.41 214.59,384.77 214.99,385.04 215.40,385.49 215.81,385.38 216.22,385.16 216.62,385.03 217.03,384.97 217.44,384.95 217.84,384.70 218.25,384.36 218.66,384.25 219.07,384.23 219.47,384.12 219.88,384.19 220.29,384.27 220.70,384.21 221.10,384.14 221.51,384.19 221.92,384.37 222.33,384.68 222.74,384.94 223.14,385.34 223.55,385.63 223.96,385.98 224.37,386.19 224.77,386.40 225.18,386.32 225.59,386.54 226.00,386.48 226.40,386.46 226.81,386.47 227.22,386.27 227.62,386.12 228.03,386.38 228.44,386.59 228.85,386.90 229.25,387.20 229.66,387.58 230.07,387.88 230.48,388.10 230.88,388.31 231.29,388.58 231.70,388.37 232.11,388.58 232.51,388.59 232.92,388.39 233.33,388.04 233.74,387.93 234.15,387.80 234.55,387.83 234.96,388.18 235.37,388.48 235.78,388.78 236.18,388.85 236.59,389.15 237.00,389.40 237.41,389.61 237.81,389.87 238.22,390.12 238.63,390.32 239.03,390.67 239.44,390.92 239.85,391.13 240.26,391.34 240.66,391.67 241.07,391.96 241.48,392.30 241.89,392.60 242.29,392.88 242.70,393.17 243.11,393.30 243.52,393.43 243.93,393.23 244.33,393.58 244.74,393.78 245.15,394.03 245.56,394.27 245.96,394.58 246.37,394.92 246.78,395.26 247.19,395.55 247.59,395.85 248.00,396.23 248.41,396.43 248.81,396.72 249.22,397.01 249.63,397.21 250.04,397.39 250.44,397.64 250.85,397.97 251.26,398.25 251.67,398.50 252.07,398.87 252.48,399.20 252.89,399.53 253.30,399.75 253.71,400.03 254.11,400.32 254.52,400.64 254.93,400.96 255.34,401.25 255.74,401.44 256.15,401.84 256.56,402.05 256.97,402.36 257.37,402.61 257.78,402.92 258.19,403.22 258.60,403.60 259.00,403.99 259.41,404.26 259.82,404.61 260.23,404.81 260.63,404.86 261.04,405.23 261.45,405.66 261.86,405.89 262.26,406.28 262.67,406.68 263.08,407.08 263.49,407.56 263.89,407.92 264.30,408.24 264.71,408.67 265.12,409.27 265.52,409.82 265.93,410.36 266.34,410.83 266.75,411.39 267.15,411.95 267.56,412.53 267.97,413.20 268.38,413.80 268.78,414.33 269.19,414.78 269.60,414.99 270.00,415.01 270.41,414.89 270.82,414.94 271.23,414.66 271.63,415.05 272.04,415.46 272.45,416.02 272.86,416.51 273.26,416.99 273.67,417.57 274.08,418.07 274.49,418.05 274.89,417.46 275.30,417.24 275.71,417.39 276.12,417.44 276.52,417.20 276.93,416.82 277.34,416.26 277.75,416.05 278.15,415.68 278.56,416.16 278.97,416.91 279.38,417.49 279.78,418.08 280.19,418.77 280.60,419.38 281.01,420.03 281.41,420.65 281.82,421.23 282.23,421.97 282.64,421.97 283.04,422.13 283.45,421.51 283.86,420.87 284.27,421.20 284.68,421.65 285.08,421.80 285.49,421.77 285.90,421.63 286.31,421.50 286.71,421.76 287.12,421.72 287.53,422.19 287.94,422.85 288.34,422.61 288.75,422.02 289.16,421.78 289.56,421.74 289.97,421.81 290.38,422.29 290.79,422.35 291.19,422.87 291.60,423.53 292.01,424.24 292.42,425.23 292.82,425.41 293.23,425.89 293.64,426.59 294.05,427.31 294.46,428.07 294.86,428.91 295.27,429.53 295.68,430.14 296.09,430.67 296.49,431.65 296.90,432.42 297.31,432.20 297.72,432.74 298.12,432.46 298.53,432.66 298.94,432.72 299.35,431.88 299.75,430.92 300.16,429.87 300.57,429.05 300.98,428.12 301.38,427.36 301.79,426.46 302.20,425.95 302.61,425.80 303.01,425.95 303.42,425.38 303.83,425.22 304.24,425.00 304.64,424.38 305.05,423.62 305.46,423.27 305.87,423.03 306.27,422.82 306.68,422.31 307.09,422.27 307.50,422.19 307.90,421.85 308.31,421.51 308.72,420.78 309.12,420.36 309.53,419.95 309.94,419.84 310.35,420.28 310.75,420.96 311.16,421.71 311.57,422.68 311.98,422.42 312.38,421.93 312.79,421.88 313.20,422.58 313.61,423.47 314.01,423.42 314.42,422.90 314.83,423.58 315.24,424.37 315.64,424.67 316.05,424.81 316.46,425.62 316.87,426.03 317.27,426.97 317.68,427.59 318.09,428.10 318.50,428.43 318.90,429.06 319.31,429.83 319.72,430.48 320.13,431.25 320.53,431.12 320.94,431.31 321.35,431.06 321.76,430.67 322.16,430.17 322.57,429.11 322.98,428.06 323.39,427.46 323.79,427.53 324.20,426.76 324.61,426.72 325.02,426.14 325.43,425.78 325.83,425.20 326.24,425.06 326.65,425.33 327.06,425.50 327.46,425.87 327.87,426.56 328.28,427.04 328.69,427.55 329.09,427.85 329.50,427.69 329.91,427.76 330.31,428.05 330.72,429.03 331.13,429.44 331.54,430.09 331.94,429.82 332.35,428.97 332.76,428.32 333.17,427.50 333.57,426.64 333.98,425.87 334.39,424.95 334.80,425.13 335.21,424.80 335.61,424.33 336.02,423.76 336.43,423.94 336.84,423.62 337.24,422.75 337.65,421.73 338.06,420.88 338.47,420.57 338.87,420.33 339.28,420.16 339.69,419.52 340.10,419.29 340.50,418.86 340.91,418.58 341.32,418.35 341.73,418.27 342.13,417.63 342.54,416.89 342.95,416.31 343.36,415.54 343.76,414.86 344.17,414.27 344.58,413.46 344.99,413.06 345.39,412.34 345.80,411.79 346.21,411.34 346.62,410.89 347.02,410.24 347.43,409.72 347.84,409.05 348.25,408.39 348.65,407.67 349.06,407.09 349.47,406.49 349.88,405.74 350.28,405.14 350.69,404.55 351.10,404.11 351.50,403.68 351.91,403.29 352.32,402.74 352.73,402.20 353.13,401.67 353.54,401.28 353.95,400.84 354.36,400.50 354.76,400.19 355.17,399.65 355.58,399.28 355.99,398.93 356.39,398.52 356.80,398.10 357.21,397.75 357.62,397.64 358.02,397.17 358.43,396.80 358.84,396.41 359.25,396.07 359.65,395.82 360.06,395.50 360.47,395.07 360.88,394.73 361.29,394.48 361.69,394.12 362.10,393.83 362.51,393.55 362.92,393.32 363.32,392.92 363.73,392.53 364.14,392.30 364.55,391.97 364.95,391.65 365.36,391.32 365.77,391.04 366.18,390.72 366.58,390.40 366.99,390.04 367.40,389.79 367.81,389.43 368.21,389.01 368.62,388.70 369.03,388.34 369.44,388.03 369.84,387.82 370.25,387.51 370.66,387.19 371.06,386.87 371.47,386.52 371.88,386.14 372.29,385.94 372.69,385.70 373.10,385.42 373.51,385.11 373.92,384.89 374.32,384.58 374.73,384.27 375.14,384.01 375.55,383.66 375.95,383.39 376.36,383.08 376.77,382.77 377.18,382.46 377.58,382.19 377.99,381.95 378.40,381.62 378.81,381.28 379.21,381.09 379.62,380.85 380.03,380.62 380.44,380.32 380.85,380.01 381.25,379.78 381.66,379.52 382.07,379.26 382.48,379.03 382.88,378.73 383.29,378.49 383.70,378.33 384.11,378.10 384.51,377.85 384.92,377.62 385.33,377.36 385.74,377.06 386.14,376.82 386.55,376.49 386.96,376.12 387.37,375.89 387.77,375.66 388.18,375.33 388.59,375.06 389.00,374.77 389.40,374.51 389.81,374.20 390.22,374.05 390.62,373.79 391.03,373.53 391.44,373.34 391.85,373.16 392.25,372.90 392.66,372.58 393.07,372.32 393.48,372.00 393.88,371.71 394.29,371.42 394.70,371.17 395.11,370.95 395.51,370.62 395.92,370.34 396.33,370.08 396.74,369.80 397.14,369.53 397.55,369.38 397.96,369.23 398.37,369.01 398.77,369.08 399.18,369.37 399.59,369.64 400.00,369.85 400.40,369.88 400.81,369.93 401.22,369.68 401.63,369.75 402.04,369.78 402.44,369.77 402.85,369.72 403.26,369.80 403.67,369.75 404.07,369.76 404.48,369.75 404.89,369.73 405.30,369.62 405.70,369.46 406.11,369.32 406.52,369.31 406.93,369.33 407.33,369.30 407.74,369.35 408.15,369.29 408.56,369.25 408.96,369.20 409.37,369.13 409.78,369.08 410.19,369.08 410.59,369.00 411.00,368.92 411.41,368.87 411.81,368.74 412.22,368.53 412.63,368.25 413.04,367.92 413.44,367.84 413.85,367.60 414.26,367.49 414.67,367.28 415.07,367.04 415.48,366.80 415.89,366.48 416.30,366.17 416.70,365.86 417.11,365.62 417.52,365.29 417.93,365.01 418.33,364.87 418.74,364.74 419.15,364.60 419.56,364.36 419.96,364.12 420.37,364.09 420.78,364.10 421.19,364.09 421.60,364.12 422.00,364.11 422.41,364.10 422.82,364.06 423.23,364.10 423.63,364.16 424.04,364.15 424.45,364.10 424.86,364.13 425.26,364.09 425.67,364.13 426.08,363.99 426.49,363.78 426.89,363.57 427.30,363.47 427.71,363.20 428.12,363.04 428.52,362.90 428.93,362.70 429.34,362.42 429.75,362.13 430.15,361.89 430.56,361.76 430.97,361.66 431.38,361.66 431.78,361.37 432.19,361.22 432.60,361.19 433.00,361.06 433.41,361.09 433.82,360.86 434.23,360.72 434.63,360.50 435.04,360.27 435.45,360.02 435.86,359.82 436.26,359.53 436.67,359.34 437.08,359.18 437.49,358.89 437.89,358.67 438.30,358.45 438.71,358.13 439.12,357.91 439.52,357.74 439.93,357.52 440.34,357.27 440.75,357.02 441.15,356.78 441.56,356.65 441.97,356.47 442.38,356.37 442.79,356.11 443.19,355.95 443.60,355.73 444.01,355.45 444.42,355.20 444.82,354.95 445.23,354.77 445.64,354.57 446.05,354.43 446.45,354.19 446.86,354.10 447.27,353.79 447.68,353.57 448.08,353.34 448.49,353.09 448.90,352.85 449.31,352.66 449.71,352.51 450.12,352.36 450.53,352.15 450.94,352.14 451.34,352.13 451.75,352.10 452.16,352.08 452.56,351.84 452.97,351.56 453.38,351.34 453.79,351.19 454.19,351.25 454.60,351.22 455.01,351.33 455.42,351.39 455.82,351.31 456.23,351.28 456.64,351.14 457.05,350.99 457.45,351.03 457.86,351.11 458.27,351.05 458.68,351.00 459.08,350.88 459.49,350.62 459.90,350.59 460.31,350.60 460.71,350.82 461.12,350.91 461.53,350.89 461.94,350.92 462.35,351.00 462.75,350.98 463.16,350.93 463.57,350.92 463.98,350.98 464.38,350.93 464.79,350.93 465.20,351.14 465.61,351.12 466.01,351.09 466.42,351.10 466.83,351.08 467.24,351.10 467.64,351.15 468.05,351.13 468.46,351.14 468.87,351.11 469.27,351.27 469.68,351.16 470.09,350.93 470.50,350.78 470.90,350.58 471.31,350.41 471.72,350.16 472.12,350.04 472.53,349.83 472.94,349.65 473.35,349.48 473.75,349.31 474.16,349.09 474.57,348.83 474.98,348.63 475.38,348.38 475.79,348.16 476.20,347.93 476.61,347.74 477.01,347.56 477.42,347.33 477.83,347.17 478.24,346.95 478.64,346.72 479.05,346.48 479.46,346.38 479.87,346.18 480.27,345.96 480.68,345.72 481.09,345.53 481.50,345.34 481.90,345.09 482.31,344.87 482.72,344.70 483.13,344.55 483.54,344.33 483.94,344.11 484.35,343.90 484.76,343.70 485.17,343.55 485.57,343.36 485.98,343.15 486.39,342.96 486.80,342.75 487.20,342.60 487.61,342.50 488.02,342.34 488.43,342.13 488.83,341.95 489.24,341.79 489.65,341.60 490.06,341.48 490.46,341.24 490.87,341.06 491.28,340.97 491.69,340.73 492.09,340.58 492.50,340.37 492.91,340.16 493.31,340.01 493.72,339.87 494.13,339.67 494.54,339.44 494.94,339.23 495.35,339.11 495.76,338.90 496.17,338.70 496.57,338.50 496.98,338.32 497.39,338.14 497.80,337.99 498.20,337.79 498.61,337.60 499.02,337.45 499.43,337.28 499.83,337.11 500.24,336.94 500.65,336.76 501.06,336.60 501.46,336.42 501.87,336.28 502.28,336.12 502.69,335.95 503.10,335.87 503.50,335.72 503.91,335.50 504.32,335.36 504.73,335.11 505.13,334.94 505.54,334.75 505.95,334.64 506.36,334.50 506.76,334.39 507.17,334.25 507.58,334.06 507.99,333.86 508.39,333.69 508.80,333.50 509.21,333.36 509.62,333.22 510.02,333.09 510.43,332.93 510.84,332.71 511.25,332.55 511.65,332.39 512.06,332.29 512.47,332.15 512.88,331.94 513.28,331.70 513.69,331.52 514.10,331.33 514.50,331.18 514.91,331.00 515.32,330.79 515.73,330.70 516.13,330.52 516.54,330.37 516.95,330.24 517.36,329.97 517.76,329.83 518.17,329.58 518.58,329.35 518.99,329.12 519.39,328.88 519.80,328.55 520.21,328.37 520.62,328.15 521.02,327.79 521.43,327.51 521.84,327.22 522.25,326.88 522.65,326.52 523.06,326.35 523.47,326.10 523.88,325.82 524.29,325.38 524.69,324.93 525.10,324.63 525.51,324.38 525.91,323.96 526.32,323.70 526.73,323.26 527.14,322.82 527.55,322.35 527.95,322.13 528.36,322.29 528.77,322.49 529.17,322.48 529.58,322.76 529.99,322.70 530.40,322.80 530.81,323.07 531.21,322.86 531.62,323.17 532.03,322.95 532.43,323.04 532.84,323.01 533.25,322.91 533.66,322.94 534.07,323.42 534.47,323.45 534.88,323.76 535.29,324.04 535.69,324.13 536.10,323.99 536.51,324.44 536.92,324.78 537.33,325.33 537.73,325.81 538.14,326.13 538.55,326.59 538.95,326.98 539.36,327.22 539.77,327.55 540.18,327.63 540.59,327.71 540.99,327.79 541.40,327.83 541.81,327.91 542.21,327.97 542.62,327.97 543.03,328.02 543.44,328.11 543.85,328.18 544.25,328.26 544.66,328.34 545.07,328.37 545.48,328.59 545.88,328.58 546.29,328.38 546.70,328.46 547.11,328.38 547.51,328.39 547.92,328.36 548.33,328.44 548.74,328.37 549.14,328.60 549.55,328.63 549.96,328.71 550.37,328.94 550.77,329.06 551.18,329.04 551.59,329.08 552.00,329.06 552.40,329.05 552.81,329.17 553.22,329.28 553.62,329.35 554.03,329.52 554.44,329.60 554.85,329.58 555.25,329.61 555.66,329.33 556.07,329.36 556.48,329.30 556.88,329.38 557.29,329.41 557.70,329.50 558.11,329.57 558.51,329.53 558.92,329.67 559.33,329.93 559.74,330.31 560.14,330.63 560.55,331.00 560.96,331.31 561.37,331.37 561.77,331.40 562.18,331.56 562.59,331.91 563.00,332.20 563.40,332.51 563.81,332.78 564.22,333.03 564.63,333.34 565.04,333.59 565.44,333.76 565.85,333.98 566.26,334.22 566.66,334.45 567.07,334.71 567.48,334.94 567.89,335.09 568.30,335.34 568.70,335.48 569.11,335.69 569.52,335.89 569.92,336.08 570.33,336.24 570.74,336.48 571.15,336.65 571.56,336.75 571.96,336.98 572.37,337.13 572.78,337.34 573.18,337.52 573.59,337.71 574.00,337.89 574.41,338.10 574.82,338.30 575.22,338.52 575.63,338.75 576.04,338.95 576.44,339.17 576.85,339.35 577.26,339.55 577.67,339.75 578.08,339.90 578.48,340.07 578.89,340.27 579.30,340.44 579.70,340.61 580.11,340.81 580.52,340.93 580.93,341.14 581.34,341.36 581.74,341.53 582.15,341.72 582.56,341.92 582.96,342.09 583.37,342.26 583.78,342.44 584.19,342.63 584.60,342.80 585.00,343.01 585.41,343.14 585.82,343.31 586.23,343.40 586.63,343.56 587.04,343.75 587.45,343.94 587.86,344.09 588.26,344.32 588.67,344.51 589.08,344.68 589.49,344.86 589.89,345.04 590.30,345.20 590.71,345.31 591.12,345.50 591.52,345.62 591.93,345.74 592.34,345.92 592.75,346.15 593.15,346.33 593.56,346.54 593.97,346.69 594.38,346.88 594.78,347.04 595.19,347.22 595.60,347.40 596.00,347.58 596.41,347.76 596.82,347.95 597.23,348.09 597.63,348.19 598.04,348.38 598.45,348.54 598.86,348.72 599.26,348.85 599.67,348.90 600.08,348.98 600.49,349.11 600.89,349.27 601.30,349.40 601.71,349.54 602.12,349.71 602.52,349.84 602.93,349.94 603.34,349.98 603.75,349.97 604.15,350.04 604.56,349.99 604.97,350.06 605.38,350.16 605.78,350.21 606.19,350.18 606.60,350.22 607.01,350.22 607.41,350.21 607.82,350.24 608.23,350.32 608.64,350.28 609.04,350.27 609.45,350.20 609.86,350.15 610.27,350.16 610.67,350.19 611.08,350.12 611.49,350.17 611.90,350.26 612.30,350.25 612.71,350.27 613.12,350.24 613.53,350.35 613.93,350.52 614.34,350.67 614.75,350.80 615.16,350.94 615.57,351.09 615.97,351.17 616.38,351.21 616.79,351.25 617.20,351.30 617.60,351.27 618.01,351.25 618.42,351.22 618.83,351.23 619.23,351.24 619.64,351.23 620.05,351.29 620.46,351.27 620.86,351.36 621.27,351.34 621.68,351.38 622.09,351.40 622.49,351.37 622.90,351.45 623.31,351.37 623.72,351.25 624.12,351.24 624.53,351.21 624.94,351.23 625.35,351.29 625.75,351.28 626.16,351.32 626.57,351.34 626.98,351.43 627.38,351.36 627.79,351.37 628.20,351.41 628.61,351.41 629.01,351.27 629.42,351.15 629.83,351.17 630.24,351.16 630.64,351.19 631.05,351.12 631.46,351.13 631.87,351.28 632.27,351.40 632.68,351.52 633.09,351.70 633.50,351.83 633.90,351.99 634.31,352.09 634.72,352.19 635.12,352.21 635.53,352.26 635.94,352.25 636.35,352.24 636.75,352.19 637.16,352.17 637.57,352.21 637.98,352.20 638.38,352.26 638.79,352.25 639.20,352.33 639.61,352.27 640.01,352.32 640.42,352.29 640.83,352.28 641.24,352.33 641.64,352.29 642.05,352.25 642.46,352.22 642.87,352.25 643.27,352.35 643.68,352.42 644.09,352.48 644.50,352.56 644.90,352.53 645.31,352.49 645.72,352.48 646.13,352.47 646.53,352.52 646.94,352.56 647.35,352.57 647.76,352.60 648.16,352.56 648.57,352.58 648.98,352.62 649.39,352.59 649.79,352.58 650.20,352.57 650.61,352.63 651.02,352.71 651.42,352.75 651.83,352.78 652.24,352.83 652.65,352.96 653.05,353.08 653.46,353.24 653.87,353.33 654.28,353.44 654.68,353.55 655.09,353.62 655.50,353.78 655.91,353.94 656.32,354.06 656.72,354.18 657.13,354.32 657.54,354.39 657.95,354.49 658.35,354.61 658.76,354.68 659.17,354.79 659.58,354.92 659.98,355.06 660.39,355.19 660.80,355.33 661.21,355.41 661.61,355.53 662.02,355.63 662.43,355.70 662.84,355.82 663.24,355.94 663.65,356.04 664.06,356.15 664.47,356.29 664.87,356.39 665.28,356.53 665.69,356.65 666.10,356.78 666.50,356.89 666.91,357.01 667.32,357.14 667.73,357.27 668.13,357.39 668.54,357.54 668.95,357.63 669.36,357.73 669.76,357.87 670.17,357.98 670.58,358.07 670.99,358.23 671.39,358.35 671.80,358.42 672.21,358.54 672.62,358.61 673.02,358.72 673.43,358.77 673.84,358.87 674.25,358.99 674.65,359.13 675.06,359.26 675.47,359.27 675.88,359.32 676.28,359.28 676.69,359.34 677.10,359.27 677.50,359.18 677.91,359.12 678.32,359.12 678.73,359.16 679.13,359.16 679.54,359.16 679.95,359.18 680.36,359.14 680.76,359.09 681.17,359.08 681.58,359.00 681.99,358.97 682.39,358.98 682.80,358.97 683.21,358.98 683.62,358.95 684.02,358.94 684.43,358.98 684.84,358.91 685.25,358.81 685.65,358.69 686.06,358.61 686.47,358.49 686.88,358.36 687.28,358.27 687.69,358.14 688.10,358.03 688.51,357.96 688.91,357.87 689.32,357.76 689.73,357.65 690.14,357.53 690.54,357.43 690.95,357.35 691.36,357.28 691.77,357.15 692.17,357.05 692.58,356.95 692.99,356.85 693.40,356.75 693.80,356.68 694.21,356.57 694.62,356.47 695.03,356.33 695.43,356.25 695.84,356.22 696.25,356.09 696.66,355.98 697.07,355.88 697.47,355.75 697.88,355.64 698.29,355.57 698.70,355.50 699.10,355.38 699.51,355.29 699.92,355.19 700.33,355.11 700.73,355.00 701.14,354.91 701.55,354.82 701.96,354.73 702.36,354.61 702.77,354.48 703.18,354.40 703.59,354.29 703.99,354.20 704.40,354.09 704.81,354.00 705.22,353.90 705.62,353.80 706.03,353.70 706.44,353.62 706.85,353.55 707.25,353.44 707.66,353.38 708.07,353.40 708.48,353.41 708.88,353.43 709.29,353.39 709.70,353.30 710.11,353.24 710.51,353.14 710.92,353.06 711.33,352.96 711.74,352.88 712.14,352.83 712.55,352.73 712.96,352.64 713.37,352.57 713.77,352.53 714.18,352.46 714.59,352.39 715.00,352.30 715.40,352.21 715.81,352.12 716.22,352.03 716.62,351.95 717.03,351.86 717.44,351.79 717.85,351.72 718.25,351.65 718.66,351.55 719.07,351.48 719.48,351.38 719.88,351.33 720.29,351.23 720.70,351.17 721.11,351.09 721.51,351.03 721.92,350.96 722.33,350.89 722.74,350.82 723.14,350.76 723.55,350.65 723.96,350.56 724.37,350.50 724.77,350.46 725.18,350.38 725.59,350.33 726.00,350.24 726.40,350.15 726.81,350.06 727.22,349.98 727.63,349.92 728.03,349.84 728.44,349.74 728.85,349.69 729.26,349.65 729.66,349.59 730.07,349.50 730.48,349.42 730.89,349.35 731.29,349.31 731.70,349.27 732.11,349.21 732.52,349.14 732.92,349.08 733.33,349.02 733.74,348.95 734.15,348.89 734.55,348.84 734.96,348.78 735.37,348.71 735.78,348.62 736.18,348.53 736.59,348.48 737.00,348.43 737.41,348.37 737.82,348.34 738.22,348.30 738.63,348.24 739.04,348.19 739.45,348.15 739.85,348.09 740.26,348.03 740.67,347.96 741.08,347.91 741.48,347.86 741.89,347.80 742.30,347.74 742.71,347.71 743.11,347.65 743.52,347.60 743.93,347.55 744.34,347.49 744.74,347.43 745.15,347.37 745.56,347.30 745.97,347.24 746.37,347.19 746.78,347.12 747.19,347.06 747.60,347.05 748.00,347.01 748.41,346.99 748.82,346.92 749.23,346.86 749.63,346.76 750.04,346.69 750.45,346.60 750.86,346.51 751.26,346.39 751.67,346.27 752.08,346.12 752.49,346.04 752.89,345.90 753.30,345.77 753.71,345.59 754.12,345.45 754.52,345.30 754.93,345.16 755.34,344.88 755.75,344.72 756.15,344.50 756.56,344.29 756.97,344.10 757.38,343.87 757.78,343.60 758.19,343.35 758.60,343.26 759.00,342.92 759.41,342.58 759.82,342.40 760.23,342.13 760.63,342.07 761.04,341.87 761.45,341.45 761.86,341.18 762.26,340.81 762.67,340.54 763.08,340.05 763.49,339.67 763.89,339.35 764.30,338.93 764.71,338.50 765.12,337.93 765.52,337.48 765.93,336.89 766.34,336.54 766.75,336.05 767.15,335.49 767.56,334.98 767.97,334.39 768.38,333.79 768.78,333.46 769.19,332.91 769.60,332.27 770.01,331.77 770.41,331.03 770.82,330.83 771.23,330.15 771.64,329.61 772.04,328.97 772.45,328.31 772.86,327.67 773.27,327.28 773.67,326.87 774.08,326.20 774.49,325.70 774.90,325.01 775.30,324.50 775.71,323.89 776.12,323.27 776.53,322.64 776.93,321.97 777.34,321.53 777.75,320.67 778.16,320.01 778.57,319.44 778.97,318.66 779.38,317.98 779.79,317.28 780.20,316.58 780.60,315.87 781.01,315.18 781.42,314.46 781.83,313.55 782.23,312.58 782.64,311.82 783.05,311.34 783.46,310.57 783.86,309.82 784.27,308.79 784.68,307.98 785.09,307.06 785.49,306.24 785.90,305.30 786.31,304.45 786.72,303.49 787.12,302.26 787.53,301.53 787.94,300.53 788.35,299.96 788.75,299.11 789.16,298.35 789.57,297.32 789.98,296.82 790.38,295.91 790.79,295.21 791.20,294.33 791.61,294.93 792.01,295.30 792.42,295.77 792.83,296.78 793.24,297.10 793.64,296.89 794.05,297.35 794.46,297.94 794.87,298.30 795.27,298.67 795.68,298.58 796.09,299.22 796.50,299.54 796.90,299.49 797.31,299.53 797.72,299.44 798.12,299.89 798.53,300.31 798.94,300.10 799.35,300.01 799.75,300.59 800.16,301.17 800.57,302.00 800.98,302.57 801.38,303.69 801.79,304.86 802.20,304.96 802.61,305.13 803.01,305.45 803.42,305.92 803.83,306.19 804.24,305.11 804.64,304.52 805.05,303.80 805.46,302.78 805.87,301.92 806.27,301.04 806.68,300.24 807.09,299.47 807.50,298.44 807.90,297.80 808.31,297.07 808.72,296.75 809.13,297.48 809.53,298.15 809.94,298.36 810.35,299.09 810.76,299.79 811.16,300.77 811.57,301.09 811.98,301.40 812.39,301.92 812.79,302.59 813.20,302.78 813.61,302.99 814.02,303.03 814.42,303.22 814.83,302.88 815.24,303.45 815.65,304.13 816.05,303.92 816.46,304.74 816.87,305.30 817.28,305.43 817.68,306.11 818.09,306.79 818.50,307.09 818.91,307.38 819.32,307.36 819.72,306.90 820.13,307.00 820.54,307.39 820.95,307.51 821.35,307.49 821.76,307.66 822.17,307.59 822.58,307.06 822.98,306.09 823.39,305.40 823.80,305.19 824.21,304.34 824.61,303.38 825.02,302.90 825.43,303.61 825.84,304.70 826.24,304.81 826.65,304.98 827.06,305.55 827.47,305.91 827.87,305.98 828.28,306.76 828.69,307.41 829.10,307.21 829.50,306.62 829.91,306.39 830.32,306.20 830.73,306.94 831.13,306.36 831.54,306.79 831.95,306.80 832.36,306.21 832.76,305.35 833.17,304.63 833.58,303.89 833.99,302.88 834.39,302.27 834.80,301.77 835.21,301.15 835.62,299.97 836.02,299.05 836.43,298.13 836.84,297.21 837.25,296.40 837.65,295.88 838.06,294.80 838.47,293.84 838.88,293.31 839.28,292.49 839.69,291.51 840.10,291.62 840.50,291.03 840.91,289.74 841.32,289.04 841.73,288.04 842.13,287.48 842.54,286.67 842.95,285.95 843.36,285.31 843.76,284.58 844.17,283.64 844.58,282.95 844.99,281.96 845.39,280.98 845.80,280.54 846.21,279.79 846.62,278.39 847.02,277.14 847.43,275.87 847.84,275.26 848.25,275.32 848.65,275.79 849.06,276.85 849.47,277.46 849.88,278.18 850.28,277.91 850.69,278.12 851.10,279.36 851.51,280.39 851.91,281.72 852.32,282.88 852.73,283.88 853.14,285.03 853.54,286.32 853.95,287.75 854.36,289.02 854.77,290.27 855.17,290.97 855.58,290.87 855.99,289.60 856.40,289.81 856.80,290.76 857.21,291.17 857.62,292.55 858.03,291.94 858.43,290.77 858.84,289.89 859.25,288.88 859.66,287.58 860.07,286.71 860.47,286.14 860.88,285.42 861.29,284.37 861.70,283.95 862.10,283.25 862.51,282.35 862.92,281.06 863.33,280.40 863.73,280.78 864.14,282.11 864.55,282.17 864.96,283.17 865.36,284.18 865.77,285.58 866.18,286.95 866.59,288.08 866.99,289.35 867.40,290.46 867.81,291.12 868.22,291.62 868.62,292.56 869.03,293.20 869.44,294.14 869.85,293.88 870.25,292.60 870.66,292.34 871.07,292.69 871.48,292.89 871.88,292.63 872.29,293.10 872.70,294.03 873.11,293.64 873.51,292.54 873.92,291.55 874.33,291.15 874.74,291.75 875.14,291.81 875.55,292.60 875.96,293.19 876.37,294.27 876.77,294.76 877.18,295.28 877.59,296.20 878.00,296.66 878.40,295.99 878.81,294.73 879.22,293.82 879.62,292.91 880.03,291.77 880.44,291.55 880.85,292.05 881.25,293.44 881.66,294.67 882.07,294.58 882.48,295.22 882.88,296.23 883.29,297.15 883.70,297.76 884.11,298.95 884.51,299.70 884.92,300.60 885.33,301.07 885.74,300.98 886.14,301.86 886.55,302.59 886.96,302.77 887.37,303.15 887.77,304.29 888.18,304.64 888.59,305.08 889.00,305.92 889.40,306.03 889.81,306.43 890.22,306.85 890.63,306.25 891.03,305.49 891.44,304.33 891.85,303.43 892.26,302.51 892.66,302.29 893.07,302.75 893.48,303.46 893.89,303.40 894.29,304.27 894.70,304.59 895.11,305.17 895.52,305.35 895.92,306.02 896.33,306.00 896.74,306.53 897.15,307.11 897.55,307.95 897.96,308.26 898.37,308.71 898.78,309.41 899.18,309.65 899.59,309.83 900.00,310.72 900.00,357.49"/>
<line x1="85" y1="662.00" x2="900" y2="662.00" stroke="#111827" stroke-width="1"/>
<line x1="85" y1="479.33" x2="85" y2="662.00" stroke="#111827" stroke-width="1"/>
<text x="73" y="493.33" text-anchor="end" font-family="Arial" font-size="12" fill="#111827">Reference mid</text>
<line x1="85" y1="662.00" x2="900" y2="662.00" stroke="#e5e7eb" stroke-width="1"/>
<text x="73" y="666.00" text-anchor="end" font-family="Arial" font-size="11" fill="#374151">99822</text>
<line x1="85" y1="570.67" x2="900" y2="570.67" stroke="#e5e7eb" stroke-width="1"/>
<text x="73" y="574.67" text-anchor="end" font-family="Arial" font-size="11" fill="#374151">100250</text>
<line x1="85" y1="479.33" x2="900" y2="479.33" stroke="#e5e7eb" stroke-width="1"/>
<text x="73" y="483.33" text-anchor="end" font-family="Arial" font-size="11" fill="#374151">100679</text>
<polyline fill="none" stroke="#059669" stroke-width="2" points="85.00,623.99 85.41,624.59 85.81,626.03 86.22,627.02 86.63,627.24 87.04,625.59 87.44,624.03 87.85,623.54 88.26,625.45 88.67,626.11 89.08,623.53 89.48,625.63 89.89,624.41 90.30,623.90 90.70,625.24 91.11,622.06 91.52,620.85 91.93,621.61 92.33,619.91 92.74,621.16 93.15,618.68 93.56,617.66 93.97,615.94 94.37,616.79 94.78,616.87 95.19,614.34 95.59,612.53 96.00,612.77 96.41,612.86 96.82,610.65 97.22,610.15 97.63,610.47 98.04,608.39 98.45,606.24 98.86,604.27 99.26,603.99 99.67,604.50 100.08,604.91 100.48,601.31 100.89,603.05 101.30,603.79 101.71,602.94 102.11,599.57 102.52,600.03 102.93,598.68 103.34,598.06 103.75,598.55 104.15,596.33 104.56,595.29 104.97,595.80 105.38,596.30 105.78,596.01 106.19,595.33 106.60,595.19 107.00,594.23 107.41,595.32 107.82,593.95 108.23,591.68 108.64,592.23 109.04,593.31 109.45,595.17 109.86,595.36 110.27,594.94 110.67,593.21 111.08,594.19 111.49,593.01 111.89,591.78 112.30,593.41 112.71,591.40 113.12,590.69 113.53,589.19 113.93,590.38 114.34,589.39 114.75,592.42 115.16,593.06 115.56,593.55 115.97,591.62 116.38,594.49 116.78,591.75 117.19,593.74 117.60,594.01 118.01,595.24 118.41,593.64 118.82,597.68 119.23,598.41 119.64,598.46 120.05,596.75 120.45,596.60 120.86,598.02 121.27,598.11 121.67,600.65 122.08,598.49 122.49,599.18 122.90,593.25 123.31,597.71 123.71,597.03 124.12,599.66 124.53,597.17 124.94,596.42 125.34,597.00 125.75,593.80 126.16,592.05 126.56,595.52 126.97,594.69 127.38,595.70 127.79,596.65 128.19,597.55 128.60,598.89 129.01,599.42 129.42,598.68 129.82,599.12 130.23,601.36 130.64,603.59 131.05,607.99 131.45,608.50 131.86,607.87 132.27,605.58 132.68,603.31 133.09,604.87 133.49,605.89 133.90,605.56 134.31,606.17 134.72,606.68 135.12,604.67 135.53,604.65 135.94,605.46 136.34,605.66 136.75,607.58 137.16,608.16 137.57,607.92 137.97,606.03 138.38,603.41 138.79,603.95 139.20,603.82 139.60,600.16 140.01,602.29 140.42,601.44 140.83,600.33 141.24,601.82 141.64,601.59 142.05,602.48 142.46,601.88 142.87,603.92 143.27,603.41 143.68,604.16 144.09,604.38 144.50,605.22 144.90,604.52 145.31,603.36 145.72,602.86 146.12,603.45 146.53,605.52 146.94,606.19 147.35,605.97 147.75,607.61 148.16,609.37 148.57,608.12 148.98,612.05 149.38,610.24 149.79,608.93 150.20,607.83 150.61,605.21 151.01,605.36 151.42,603.82 151.83,604.82 152.24,603.55 152.64,603.20 153.05,604.16 153.46,604.23 153.87,604.04 154.28,607.22 154.68,606.90 155.09,608.76 155.50,606.98 155.91,606.64 156.31,605.63 156.72,607.40 157.13,606.52 157.53,606.31 157.94,603.95 158.35,603.65 158.76,603.16 159.17,599.52 159.57,600.64 159.98,601.42 160.39,603.46 160.80,603.70 161.20,602.59 161.61,601.46 162.02,596.61 162.43,597.79 162.83,599.51 163.24,599.76 163.65,599.35 164.06,600.20 164.46,598.87 164.87,599.19 165.28,600.63 165.69,602.06 166.09,601.20 166.50,599.33 166.91,598.53 167.31,599.90 167.72,598.07 168.13,599.83 168.54,599.27 168.94,600.42 169.35,600.40 169.76,600.87 170.17,598.16 170.57,596.38 170.98,600.43 171.39,599.31 171.80,597.47 172.20,596.58 172.61,597.32 173.02,594.86 173.43,591.77 173.83,589.64 174.24,589.60 174.65,591.55 175.06,593.22 175.47,593.86 175.87,594.61 176.28,596.44 176.69,597.50 177.09,597.92 177.50,599.43 177.91,602.62 178.32,603.83 178.72,604.16 179.13,604.74 179.54,607.66 179.95,607.89 180.36,609.61 180.76,609.08 181.17,611.07 181.58,611.87 181.99,613.45 182.39,614.27 182.80,613.46 183.21,615.70 183.62,615.17 184.02,616.65 184.43,615.27 184.84,613.81 185.25,611.39 185.65,613.32 186.06,610.62 186.47,609.80 186.88,610.83 187.28,611.00 187.69,612.29 188.10,610.91 188.50,611.86 188.91,613.13 189.32,611.06 189.73,610.07 190.13,610.63 190.54,613.19 190.95,613.02 191.36,613.27 191.76,612.46 192.17,614.35 192.58,614.48 192.99,613.62 193.39,612.85 193.80,617.02 194.21,616.47 194.62,614.40 195.03,615.91 195.43,616.13 195.84,619.12 196.25,619.33 196.66,621.51 197.06,624.73 197.47,626.87 197.88,624.34 198.28,623.73 198.69,623.98 199.10,622.34 199.51,623.70 199.92,625.77 200.32,624.39 200.73,624.94 201.14,624.96 201.55,624.17 201.95,623.93 202.36,626.04 202.77,624.02 203.18,627.12 203.58,625.96 203.99,627.87 204.40,630.92 204.81,627.18 205.21,629.23 205.62,627.56 206.03,628.86 206.44,626.83 206.84,627.40 207.25,627.71 207.66,629.10 208.06,628.49 208.47,623.23 208.88,622.20 209.29,620.72 209.69,622.13 210.10,622.06 210.51,626.11 210.92,626.83 211.32,625.02 211.73,624.67 212.14,623.70 212.55,625.85 212.95,623.02 213.36,621.34 213.77,621.85 214.18,622.08 214.59,622.55 214.99,621.72 215.40,620.64 215.81,615.25 216.22,615.06 216.62,614.21 217.03,615.75 217.44,614.40 217.84,612.84 218.25,612.56 218.66,615.52 219.07,615.48 219.47,614.71 219.88,615.43 220.29,618.94 220.70,617.62 221.10,619.82 221.51,619.12 221.92,621.56 222.33,622.60 222.74,623.39 223.14,622.12 223.55,623.27 223.96,625.15 224.37,622.03 224.77,620.71 225.18,620.29 225.59,618.54 226.00,620.46 226.40,617.48 226.81,619.70 227.22,620.57 227.62,621.62 228.03,623.32 228.44,622.93 228.85,623.38 229.25,624.64 229.66,624.34 230.07,623.77 230.48,623.73 230.88,623.98 231.29,620.93 231.70,620.61 232.11,620.85 232.51,619.38 232.92,617.33 233.33,616.24 233.74,619.54 234.15,621.94 234.55,622.27 234.96,625.63 235.37,624.98 235.78,624.66 236.18,624.24 236.59,625.04 237.00,621.91 237.41,624.73 237.81,624.84 238.22,627.25 238.63,629.40 239.03,629.89 239.44,629.08 239.85,629.61 240.26,628.83 240.66,625.74 241.07,626.61 241.48,628.15 241.89,626.05 242.29,627.02 242.70,627.49 243.11,625.57 243.52,624.78 243.93,625.47 244.33,627.06 244.74,626.16 245.15,626.18 245.56,627.01 245.96,628.37 246.37,631.05 246.78,629.63 247.19,631.65 247.59,633.97 248.00,635.46 248.41,634.68 248.81,638.01 249.22,638.51 249.63,637.84 250.04,638.24 250.44,639.28 250.85,640.21 251.26,641.14 251.67,640.05 252.07,638.07 252.48,636.60 252.89,634.59 253.30,635.18 253.71,633.15 254.11,635.30 254.52,632.67 254.93,634.26 255.34,635.08 255.74,636.38 256.15,636.08 256.56,636.51 256.97,634.61 257.37,633.06 257.78,634.18 258.19,633.08 258.60,631.52 259.00,631.46 259.41,631.74 259.82,631.20 260.23,629.13 260.63,631.84 261.04,632.65 261.45,633.62 261.86,635.56 262.26,637.83 262.67,637.47 263.08,638.18 263.49,638.40 263.89,639.77 264.30,640.84 264.71,639.61 265.12,641.04 265.52,643.06 265.93,642.51 266.34,642.28 266.75,642.53 267.15,639.45 267.56,639.57 267.97,638.01 268.38,635.82 268.78,636.90 269.19,635.80 269.60,633.99 270.00,632.40 270.41,632.47 270.82,631.88 271.23,633.78 271.63,637.48 272.04,637.35 272.45,635.36 272.86,635.45 273.26,638.44 273.67,638.82 274.08,636.99 274.49,634.50 274.89,632.14 275.30,634.09 275.71,633.59 276.12,631.61 276.52,631.98 276.93,634.42 277.34,631.14 277.75,635.54 278.15,635.53 278.56,637.64 278.97,639.15 279.38,641.24 279.78,641.20 280.19,640.82 280.60,640.48 281.01,639.59 281.41,638.32 281.82,637.88 282.23,637.57 282.64,636.81 283.04,638.25 283.45,634.57 283.86,633.89 284.27,638.97 284.68,638.23 285.08,639.14 285.49,635.37 285.90,636.32 286.31,638.09 286.71,637.06 287.12,637.58 287.53,639.35 287.94,638.05 288.34,636.69 288.75,635.47 289.16,639.18 289.56,636.54 289.97,638.97 290.38,639.16 290.79,641.09 291.19,641.28 291.60,640.93 292.01,641.42 292.42,641.83 292.82,640.56 293.23,640.55 293.64,643.45 294.05,645.46 294.46,645.78 294.86,647.60 295.27,644.49 295.68,642.20 296.09,642.56 296.49,643.58 296.90,641.77 297.31,642.78 297.72,642.29 298.12,639.10 298.53,639.51 298.94,637.77 299.35,637.02 299.75,636.63 300.16,633.95 300.57,633.33 300.98,635.27 301.38,634.95 301.79,634.29 302.20,636.72 302.61,637.59 303.01,638.27 303.42,637.66 303.83,640.61 304.24,638.59 304.64,640.16 305.05,638.38 305.46,638.60 305.87,641.56 306.27,637.42 306.68,638.03 307.09,639.50 307.50,639.62 307.90,641.07 308.31,638.42 308.72,639.24 309.12,640.41 309.53,640.77 309.94,642.24 310.35,644.38 310.75,645.00 311.16,645.88 311.57,644.33 311.98,642.13 312.38,640.89 312.79,644.20 313.20,643.86 313.61,645.37 314.01,642.39 314.42,643.08 314.83,643.88 315.24,644.43 315.64,641.81 316.05,644.44 316.46,645.61 316.87,644.91 317.27,645.17 317.68,644.74 318.09,643.68 318.50,647.79 318.90,649.40 319.31,647.14 319.72,646.84 320.13,645.06 320.53,645.04 320.94,644.43 321.35,641.64 321.76,641.47 322.16,642.33 322.57,640.00 322.98,639.02 323.39,641.79 323.79,642.08 324.20,642.54 324.61,641.20 325.02,640.68 325.43,642.67 325.83,644.00 326.24,644.96 326.65,643.76 327.06,645.45 327.46,647.62 327.87,648.67 328.28,647.17 328.69,644.28 329.09,645.06 329.50,645.94 329.91,645.05 330.31,646.49 330.72,646.69 331.13,646.74 331.54,645.20 331.94,643.34 332.35,644.38 332.76,643.18 333.17,640.57 333.57,639.71 333.98,640.74 334.39,641.05 334.80,643.18 335.21,641.22 335.61,641.94 336.02,643.32 336.43,643.48 336.84,640.41 337.24,640.63 337.65,639.43 338.06,640.31 338.47,641.27 338.87,644.86 339.28,645.46 339.69,643.53 340.10,641.56 340.50,642.30 340.91,642.43 341.32,643.31 341.73,641.28 342.13,639.66 342.54,636.45 342.95,636.10 343.36,636.83 343.76,635.94 344.17,633.48 344.58,637.54 344.99,638.94 345.39,638.74 345.80,638.87 346.21,635.66 346.62,636.05 347.02,632.36 347.43,635.12 347.84,632.37 348.25,630.47 348.65,629.98 349.06,625.80 349.47,625.01 349.88,624.02 350.28,623.92 350.69,623.90 351.10,624.96 351.50,626.82 351.91,626.60 352.32,627.06 352.73,626.61 353.13,625.32 353.54,623.56 353.95,623.49 354.36,620.06 354.76,618.14 355.17,620.81 355.58,622.20 355.99,618.66 356.39,617.11 356.80,616.32 357.21,614.83 357.62,614.33 358.02,615.10 358.43,614.93 358.84,613.12 359.25,612.92 359.65,616.32 360.06,619.01 360.47,620.04 360.88,620.02 361.29,620.24 361.69,616.88 362.10,616.40 362.51,614.16 362.92,614.12 363.32,615.18 363.73,614.63 364.14,614.63 364.55,613.23 364.95,610.08 365.36,607.37 365.77,606.27 366.18,604.95 366.58,608.55 366.99,612.21 367.40,610.09 367.81,606.19 368.21,603.97 368.62,603.68 369.03,601.11 369.44,602.11 369.84,603.77 370.25,601.37 370.66,603.77 371.06,603.39 371.47,605.37 371.88,600.40 372.29,601.72 372.69,597.21 373.10,594.03 373.51,593.67 373.92,591.23 374.32,593.32 374.73,592.90 375.14,590.78 375.55,591.39 375.95,593.50 376.36,594.47 376.77,594.21 377.18,592.88 377.58,594.86 377.99,595.98 378.40,598.92 378.81,600.48 379.21,598.98 379.62,600.16 380.03,600.47 380.44,601.45 380.85,601.03 381.25,602.41 381.66,601.19 382.07,600.02 382.48,602.01 382.88,603.51 383.29,604.29 383.70,606.25 384.11,607.63 384.51,608.21 384.92,608.39 385.33,605.59 385.74,602.57 386.14,603.61 386.55,604.76 386.96,601.76 387.37,604.76 387.77,605.35 388.18,602.72 388.59,603.59 389.00,601.78 389.40,602.13 389.81,599.84 390.22,600.48 390.62,600.66 391.03,601.18 391.44,602.87 391.85,601.82 392.25,601.83 392.66,601.24 393.07,601.03 393.48,602.29 393.88,603.32 394.29,602.86 394.70,604.68 395.11,603.31 395.51,602.15 395.92,603.65 396.33,602.49 396.74,602.60 397.14,605.16 397.55,605.15 397.96,607.07 398.37,609.59 398.77,611.59 399.18,615.29 399.59,616.53 400.00,614.38 400.40,615.02 400.81,614.64 401.22,613.87 401.63,613.14 402.04,614.34 402.44,612.46 402.85,615.35 403.26,615.92 403.67,613.17 404.07,612.22 404.48,611.01 404.89,608.82 405.30,608.98 405.70,606.32 406.11,609.24 406.52,611.14 406.93,610.44 407.33,609.88 407.74,610.28 408.15,608.73 408.56,610.13 408.96,610.40 409.37,609.81 409.78,610.60 410.19,610.02 410.59,609.71 411.00,607.80 411.41,606.88 411.81,605.82 412.22,606.04 412.63,602.23 413.04,600.30 413.44,599.37 413.85,601.07 414.26,600.22 414.67,599.84 415.07,600.57 415.48,601.57 415.89,604.79 416.30,604.63 416.70,604.51 417.11,604.78 417.52,604.79 417.93,605.08 418.33,605.54 418.74,604.55 419.15,605.44 419.56,604.88 419.96,605.50 420.37,608.83 420.78,608.57 421.19,609.08 421.60,607.14 422.00,608.49 422.41,610.41 422.82,608.78 423.23,607.26 423.63,607.03 424.04,608.12 424.45,607.73 424.86,608.18 425.26,607.88 425.67,606.59 426.08,604.29 426.49,601.41 426.89,604.37 427.30,604.34 427.71,601.48 428.12,600.66 428.52,603.11 428.93,602.57 429.34,601.24 429.75,600.94 430.15,603.15 430.56,605.34 430.97,604.85 431.38,603.49 431.78,603.55 432.19,605.12 432.60,605.46 433.00,603.26 433.41,602.97 433.82,601.25 434.23,601.61 434.63,600.55 435.04,600.22 435.45,599.92 435.86,600.40 436.26,599.19 436.67,599.76 437.08,598.29 437.49,597.39 437.89,594.93 438.30,592.87 438.71,591.61 439.12,590.55 439.52,590.87 439.93,591.71 440.34,588.59 440.75,589.90 441.15,591.30 441.56,591.09 441.97,589.42 442.38,588.92 442.79,588.76 443.19,588.78 443.60,589.45 444.01,590.07 444.42,588.69 444.82,590.48 445.23,590.51 445.64,592.84 446.05,590.26 446.45,590.70 446.86,591.99 447.27,593.44 447.68,593.72 448.08,593.70 448.49,593.17 448.90,594.54 449.31,594.10 449.71,595.90 450.12,598.85 450.53,597.93 450.94,599.78 451.34,601.13 451.75,598.98 452.16,596.55 452.56,594.77 452.97,597.25 453.38,596.02 453.79,598.31 454.19,600.77 454.60,601.17 455.01,601.48 455.42,599.51 455.82,598.93 456.23,598.79 456.64,597.88 457.05,599.13 457.45,599.57 457.86,600.82 458.27,602.85 458.68,600.59 459.08,595.90 459.49,597.74 459.90,598.07 460.31,601.55 460.71,602.42 461.12,602.60 461.53,601.97 461.94,603.01 462.35,602.22 462.75,603.44 463.16,602.65 463.57,603.92 463.98,603.27 464.38,604.55 464.79,604.25 465.20,603.35 465.61,602.97 466.01,602.71 466.42,599.57 466.83,599.25 467.24,599.98 467.64,599.86 468.05,600.19 468.46,598.40 468.87,599.98 469.27,598.46 469.68,594.95 470.09,595.38 470.50,593.27 470.90,594.96 471.31,594.12 471.72,594.22 472.12,592.28 472.53,594.22 472.94,592.83 473.35,593.56 473.75,590.73 474.16,589.94 474.57,589.79 474.98,587.18 475.38,585.46 475.79,584.88 476.20,587.43 476.61,587.83 477.01,585.03 477.42,586.41 477.83,587.72 478.24,585.91 478.64,583.34 479.05,586.25 479.46,587.68 479.87,586.90 480.27,585.56 480.68,584.01 481.09,584.92 481.50,585.40 481.90,583.84 482.31,583.28 482.72,582.08 483.13,582.30 483.54,582.80 483.94,582.22 484.35,580.50 484.76,580.43 485.17,576.99 485.57,575.33 485.98,574.75 486.39,575.64 486.80,573.33 487.20,570.33 487.61,569.67 488.02,568.08 488.43,567.54 488.83,568.25 489.24,567.71 489.65,562.38 490.06,562.37 490.46,565.04 490.87,562.86 491.28,561.57 491.69,561.92 492.09,561.47 492.50,561.09 492.91,558.93 493.31,556.78 493.72,558.78 494.13,556.02 494.54,554.71 494.94,552.64 495.35,554.29 495.76,552.31 496.17,550.41 496.57,551.82 496.98,552.04 497.39,550.59 497.80,548.74 498.20,550.42 498.61,549.80 499.02,549.57 499.43,548.40 499.83,545.64 500.24,545.73 500.65,549.27 501.06,550.85 501.46,550.53 501.87,551.18 502.28,553.80 502.69,555.00 503.10,553.44 503.50,555.32 503.91,553.23 504.32,551.76 504.73,553.82 505.13,552.59 505.54,551.33 505.95,550.40 506.36,551.35 506.76,549.39 507.17,549.85 507.58,550.76 507.99,553.03 508.39,552.59 508.80,551.01 509.21,555.65 509.62,551.47 510.02,548.44 510.43,550.00 510.84,551.69 511.25,551.89 511.65,549.88 512.06,552.03 512.47,550.59 512.88,551.45 513.28,548.44 513.69,549.43 514.10,551.24 514.50,549.55 514.91,550.90 515.32,553.40 515.73,551.05 516.13,551.65 516.54,550.46 516.95,548.69 517.36,547.75 517.76,549.17 518.17,548.63 518.58,551.93 518.99,550.44 519.39,552.74 519.80,551.67 520.21,551.74 520.62,550.51 521.02,550.53 521.43,551.01 521.84,552.04 522.25,554.64 522.65,551.30 523.06,551.58 523.47,550.55 523.88,550.79 524.29,550.27 524.69,548.35 525.10,547.68 525.51,550.63 525.91,551.95 526.32,549.80 526.73,551.16 527.14,551.52 527.55,554.32 527.95,557.77 528.36,557.22 528.77,556.29 529.17,557.90 529.58,557.69 529.99,556.94 530.40,558.20 530.81,561.60 531.21,559.19 531.62,559.02 532.03,559.27 532.43,557.03 532.84,556.74 533.25,554.49 533.66,554.69 534.07,553.85 534.47,555.05 534.88,559.24 535.29,558.98 535.69,555.58 536.10,554.10 536.51,557.63 536.92,560.44 537.33,561.95 537.73,564.07 538.14,565.50 538.55,565.86 538.95,563.16 539.36,564.49 539.77,563.59 540.18,563.87 540.59,559.35 540.99,559.46 541.40,556.60 541.81,556.82 542.21,555.77 542.62,553.78 543.03,556.48 543.44,555.75 543.85,553.60 544.25,554.22 544.66,554.18 545.07,554.62 545.48,553.59 545.88,555.58 546.29,554.98 546.70,555.34 547.11,552.63 547.51,554.07 547.92,554.21 548.33,555.78 548.74,556.02 549.14,559.04 549.55,559.72 549.96,560.47 550.37,560.61 550.77,559.20 551.18,556.32 551.59,556.93 552.00,555.01 552.40,555.06 552.81,555.43 553.22,554.76 553.62,555.78 554.03,552.72 554.44,552.88 554.85,552.85 555.25,550.95 555.66,549.10 556.07,551.10 556.48,552.74 556.88,551.72 557.29,551.68 557.70,551.42 558.11,554.09 558.51,555.88 558.92,557.98 559.33,558.48 559.74,560.29 560.14,562.87 560.55,561.93 560.96,559.90 561.37,558.27 561.77,560.56 562.18,562.86 562.59,562.19 563.00,563.17 563.40,567.27 563.81,568.82 564.22,566.44 564.63,567.34 565.04,566.39 565.44,567.71 565.85,568.72 566.26,566.35 566.66,564.82 567.07,565.23 567.48,565.66 567.89,564.60 568.30,565.40 568.70,564.00 569.11,566.15 569.52,566.94 569.92,565.91 570.33,567.46 570.74,567.51 571.15,568.40 571.56,569.22 571.96,570.06 572.37,572.02 572.78,573.92 573.18,574.29 573.59,577.42 574.00,581.01 574.41,580.52 574.82,578.51 575.22,576.11 575.63,575.63 576.04,576.36 576.44,578.75 576.85,580.68 577.26,580.52 577.67,580.36 578.08,582.89 578.48,583.08 578.89,584.83 579.30,584.77 579.70,587.42 580.11,586.78 580.52,589.79 580.93,591.19 581.34,593.33 581.74,594.40 582.15,594.01 582.56,595.47 582.96,596.66 583.37,597.16 583.78,596.32 584.19,599.79 584.60,598.88 585.00,597.06 585.41,596.84 585.82,594.30 586.23,594.86 586.63,595.93 587.04,597.70 587.45,598.58 587.86,601.23 588.26,599.43 588.67,599.01 589.08,598.98 589.49,599.36 589.89,599.44 590.30,600.34 590.71,601.85 591.12,600.55 591.52,597.37 591.93,597.22 592.34,597.02 592.75,595.99 593.15,595.70 593.56,596.09 593.97,596.83 594.38,595.30 594.78,594.00 595.19,595.01 595.60,597.33 596.00,597.62 596.41,597.30 596.82,598.39 597.23,596.96 597.63,594.98 598.04,596.30 598.45,594.91 598.86,592.87 599.26,593.37 599.67,596.48 600.08,595.23 600.49,595.93 600.89,597.02 601.30,598.09 601.71,597.31 602.12,595.06 602.52,596.80 602.93,596.42 603.34,594.03 603.75,594.84 604.15,595.23 604.56,594.93 604.97,593.23 605.38,594.64 605.78,595.14 606.19,592.85 606.60,595.24 607.01,593.47 607.41,591.96 607.82,593.75 608.23,590.49 608.64,591.18 609.04,591.89 609.45,592.84 609.86,592.74 610.27,594.32 610.67,593.41 611.08,590.71 611.49,589.36 611.90,591.70 612.30,591.84 612.71,591.40 613.12,594.33 613.53,597.05 613.93,599.78 614.34,601.68 614.75,601.32 615.16,601.37 615.57,600.10 615.97,595.97 616.38,594.49 616.79,594.96 617.20,595.20 617.60,593.08 618.01,592.40 618.42,594.40 618.83,594.75 619.23,596.93 619.64,595.85 620.05,596.81 620.46,595.62 620.86,591.99 621.27,593.87 621.68,596.08 622.09,592.77 622.49,591.78 622.90,589.81 623.31,588.07 623.72,589.09 624.12,589.19 624.53,590.23 624.94,590.47 625.35,591.02 625.75,590.75 626.16,592.02 626.57,592.35 626.98,589.19 627.38,589.21 627.79,588.90 628.20,586.83 628.61,587.70 629.01,585.91 629.42,588.17 629.83,588.51 630.24,592.91 630.64,592.78 631.05,592.92 631.46,596.56 631.87,596.43 632.27,597.34 632.68,598.66 633.09,600.16 633.50,600.67 633.90,601.13 634.31,600.73 634.72,595.97 635.12,593.51 635.53,593.13 635.94,594.49 636.35,595.18 636.75,595.19 637.16,593.76 637.57,592.63 637.98,594.09 638.38,592.74 638.79,592.04 639.20,591.49 639.61,591.30 640.01,591.72 640.42,591.70 640.83,590.28 641.24,591.80 641.64,591.36 642.05,591.81 642.46,593.02 642.87,594.70 643.27,593.56 643.68,591.61 644.09,591.94 644.50,591.54 644.90,592.54 645.31,594.13 645.72,596.27 646.13,597.64 646.53,599.51 646.94,597.38 647.35,598.63 647.76,596.55 648.16,596.92 648.57,595.28 648.98,595.45 649.39,596.62 649.79,593.96 650.20,595.79 650.61,598.75 651.02,597.20 651.42,597.80 651.83,598.94 652.24,601.59 652.65,601.06 653.05,600.36 653.46,601.37 653.87,602.06 654.28,603.40 654.68,604.24 655.09,605.21 655.50,606.16 655.91,605.50 656.32,606.70 656.72,607.28 657.13,608.62 657.54,608.48 657.95,607.64 658.35,607.81 658.76,607.00 659.17,607.85 659.58,606.76 659.98,606.54 660.39,604.11 660.80,603.48 661.21,603.04 661.61,602.86 662.02,601.52 662.43,604.29 662.84,606.19 663.24,606.05 663.65,604.69 664.06,607.85 664.47,607.83 664.87,609.74 665.28,608.65 665.69,608.48 666.10,611.47 666.50,611.41 666.91,612.30 667.32,614.11 667.73,610.13 668.13,608.72 668.54,610.10 668.95,608.06 669.36,609.53 669.76,609.93 670.17,610.69 670.58,611.00 670.99,608.82 671.39,609.80 671.80,608.24 672.21,607.44 672.62,605.16 673.02,603.34 673.43,605.20 673.84,604.71 674.25,605.52 674.65,606.12 675.06,603.65 675.47,601.85 675.88,599.38 676.28,599.35 676.69,598.55 677.10,596.20 677.50,597.28 677.91,599.42 678.32,602.09 678.73,603.68 679.13,600.21 679.54,598.04 679.95,598.95 680.36,599.86 680.76,597.64 681.17,596.37 681.58,596.61 681.99,596.98 682.39,598.21 682.80,598.29 683.21,599.05 683.62,599.64 684.02,599.69 684.43,596.88 684.84,594.51 685.25,592.58 685.65,591.96 686.06,590.94 686.47,590.68 686.88,590.76 687.28,591.03 687.69,593.77 688.10,592.49 688.51,595.17 688.91,593.60 689.32,590.79 689.73,589.64 690.14,588.04 690.54,586.74 690.95,587.34 691.36,588.08 691.77,588.97 692.17,588.49 692.58,586.93 692.99,585.63 693.40,586.22 693.80,585.81 694.21,586.92 694.62,584.80 695.03,584.91 695.43,584.90 695.84,586.62 696.25,586.27 696.66,585.47 697.07,582.19 697.47,583.50 697.88,583.27 698.29,584.33 698.70,583.14 699.10,583.91 699.51,581.23 699.92,580.64 700.33,576.97 700.73,578.24 701.14,579.81 701.55,574.17 701.96,577.90 702.36,577.70 702.77,580.27 703.18,580.36 703.59,583.76 703.99,584.25 704.40,583.31 704.81,584.28 705.22,579.75 705.62,582.30 706.03,585.02 706.44,585.76 706.85,587.18 707.25,586.91 707.66,586.66 708.07,589.53 708.48,587.53 708.88,587.41 709.29,585.97 709.70,586.35 710.11,584.72 710.51,580.94 710.92,580.96 711.33,582.16 711.74,580.09 712.14,579.39 712.55,580.08 712.96,578.69 713.37,581.36 713.77,583.26 714.18,583.86 714.59,582.52 715.00,579.92 715.40,580.71 715.81,580.18 716.22,582.45 716.62,580.67 717.03,579.95 717.44,577.82 717.85,577.89 718.25,577.49 718.66,571.44 719.07,570.84 719.48,568.23 719.88,569.44 720.29,571.50 720.70,571.94 721.11,568.87 721.51,569.47 721.92,570.37 722.33,567.31 722.74,566.18 723.14,567.32 723.55,569.37 723.96,568.77 724.37,565.18 724.77,565.16 725.18,561.93 725.59,558.35 726.00,558.35 726.40,557.62 726.81,557.78 727.22,558.31 727.63,557.82 728.03,556.37 728.44,557.29 728.85,556.33 729.26,557.47 729.66,559.74 730.07,560.64 730.48,560.48 730.89,558.28 731.29,561.50 731.70,560.69 732.11,560.79 732.52,558.23 732.92,555.13 733.33,556.82 733.74,555.58 734.15,556.99 734.55,556.53 734.96,555.46 735.37,556.51 735.78,556.49 736.18,552.93 736.59,549.96 737.00,548.44 737.41,546.32 737.82,548.93 738.22,545.82 738.63,542.98 739.04,542.99 739.45,541.46 739.85,541.25 740.26,542.78 740.67,541.90 741.08,537.36 741.48,540.92 741.89,540.96 742.30,541.28 742.71,538.68 743.11,538.10 743.52,537.59 743.93,534.59 744.34,533.97 744.74,534.29 745.15,535.15 745.56,535.03 745.97,532.73 746.37,533.92 746.78,534.38 747.19,533.57 747.60,532.39 748.00,535.66 748.41,533.04 748.82,530.35 749.23,529.82 749.63,529.44 750.04,531.32 750.45,532.53 750.86,533.31 751.26,531.43 751.67,529.90 752.08,529.89 752.49,527.83 752.89,530.62 753.30,529.24 753.71,528.17 754.12,530.54 754.52,529.68 754.93,533.04 755.34,531.99 755.75,531.82 756.15,534.59 756.56,532.35 756.97,532.65 757.38,529.75 757.78,526.79 758.19,524.68 758.60,522.34 759.00,523.68 759.41,521.76 759.82,523.76 760.23,521.38 760.63,521.48 761.04,522.10 761.45,521.43 761.86,519.70 762.26,518.64 762.67,519.86 763.08,518.24 763.49,520.41 763.89,521.23 764.30,518.95 764.71,518.71 765.12,518.83 765.52,520.02 765.93,520.82 766.34,519.45 766.75,519.28 767.15,519.58 767.56,518.54 767.97,519.74 768.38,517.26 768.78,516.46 769.19,519.21 769.60,519.84 770.01,519.15 770.41,518.90 770.82,519.48 771.23,521.39 771.64,520.55 772.04,522.58 772.45,523.18 772.86,522.78 773.27,520.11 773.67,519.27 774.08,521.23 774.49,521.68 774.90,520.25 775.30,520.01 775.71,522.15 776.12,521.37 776.53,519.75 776.93,518.40 777.34,518.54 777.75,516.01 778.16,514.34 778.57,513.76 778.97,513.67 779.38,514.20 779.79,516.46 780.20,512.08 780.60,512.41 781.01,511.40 781.42,509.45 781.83,506.14 782.23,503.58 782.64,506.11 783.05,506.40 783.46,506.31 783.86,508.37 784.27,508.10 784.68,507.43 785.09,506.70 785.49,509.18 785.90,509.88 786.31,508.49 786.72,508.80 787.12,506.82 787.53,506.79 787.94,508.62 788.35,507.53 788.75,505.63 789.16,507.27 789.57,508.24 789.98,509.13 790.38,509.38 790.79,510.68 791.20,513.25 791.61,514.22 792.01,518.14 792.42,518.44 792.83,519.99 793.24,517.76 793.64,517.62 794.05,518.25 794.46,515.74 794.87,514.59 795.27,512.20 795.68,513.74 796.09,515.09 796.50,513.35 796.90,512.68 797.31,513.51 797.72,514.08 798.12,514.00 798.53,511.75 798.94,511.66 799.35,512.35 799.75,511.48 800.16,511.34 800.57,514.26 800.98,515.83 801.38,516.86 801.79,511.57 802.20,512.92 802.61,511.77 803.01,512.06 803.42,510.52 803.83,511.09 804.24,506.44 804.64,504.55 805.05,505.09 805.46,506.24 805.87,504.63 806.27,504.84 806.68,503.75 807.09,505.14 807.50,505.63 807.90,507.09 808.31,507.37 808.72,507.78 809.13,510.98 809.53,511.13 809.94,511.76 810.35,511.30 810.76,509.46 811.16,510.14 811.57,509.82 811.98,509.86 812.39,510.90 812.79,510.84 813.20,508.66 813.61,509.88 814.02,507.78 814.42,508.02 814.83,508.63 815.24,508.23 815.65,507.77 816.05,510.07 816.46,510.18 816.87,511.59 817.28,509.18 817.68,507.33 818.09,510.68 818.50,508.11 818.91,506.48 819.32,506.10 819.72,507.82 820.13,508.79 820.54,507.02 820.95,506.77 821.35,509.09 821.76,509.09 822.17,508.51 822.58,503.01 822.98,505.17 823.39,505.34 823.80,505.59 824.21,504.62 824.61,505.63 825.02,506.78 825.43,507.28 825.84,507.11 826.24,506.81 826.65,509.28 827.06,508.29 827.47,508.38 827.87,507.53 828.28,507.91 828.69,505.43 829.10,503.90 829.50,505.96 829.91,505.02 830.32,504.97 830.73,505.03 831.13,504.01 831.54,506.61 831.95,505.43 832.36,503.08 832.76,503.31 833.17,503.38 833.58,501.09 833.99,502.03 834.39,501.46 834.80,503.43 835.21,503.89 835.62,502.36 836.02,500.80 836.43,501.33 836.84,500.31 837.25,501.20 837.65,499.48 838.06,499.15 838.47,498.25 838.88,498.72 839.28,500.20 839.69,501.85 840.10,503.47 840.50,498.63 840.91,496.92 841.32,495.22 841.73,497.39 842.13,497.60 842.54,498.63 842.95,497.02 843.36,499.35 843.76,498.17 844.17,496.02 844.58,497.00 844.99,499.43 845.39,497.75 845.80,496.70 846.21,496.51 846.62,497.42 847.02,496.65 847.43,497.22 847.84,499.05 848.25,498.59 848.65,499.02 849.06,499.97 849.47,499.15 849.88,500.61 850.28,499.76 850.69,503.73 851.10,505.21 851.51,505.43 851.91,507.40 852.32,512.12 852.73,513.95 853.14,510.07 853.54,509.29 853.95,508.10 854.36,506.09 854.77,504.82 855.17,500.00 855.58,499.45 855.99,500.25 856.40,502.52 856.80,502.46 857.21,502.20 857.62,499.25 858.03,496.21 858.43,496.22 858.84,496.22 859.25,493.48 859.66,493.12 860.07,493.89 860.47,497.02 860.88,496.37 861.29,495.73 861.70,492.40 862.10,493.40 862.51,493.74 862.92,496.10 863.33,497.10 863.73,499.16 864.14,497.45 864.55,499.54 864.96,501.79 865.36,503.40 865.77,505.14 866.18,506.15 866.59,505.54 866.99,505.63 867.40,503.34 867.81,503.91 868.22,505.07 868.62,504.30 869.03,501.69 869.44,499.14 869.85,495.22 870.25,496.62 870.66,498.57 871.07,499.23 871.48,500.70 871.88,501.10 872.29,498.17 872.70,497.81 873.11,495.80 873.51,495.14 873.92,494.54 874.33,497.36 874.74,497.85 875.14,499.23 875.55,501.79 875.96,501.31 876.37,499.41 876.77,498.83 877.18,498.82 877.59,497.67 878.00,495.20 878.40,494.98 878.81,495.24 879.22,493.78 879.62,494.48 880.03,494.43 880.44,495.60 880.85,496.89 881.25,497.58 881.66,497.99 882.07,499.27 882.48,499.37 882.88,500.71 883.29,501.13 883.70,502.18 884.11,499.24 884.51,502.00 884.92,501.77 885.33,499.52 885.74,502.33 886.14,504.38 886.55,501.56 886.96,502.55 887.37,502.01 887.77,502.50 888.18,502.74 888.59,500.12 889.00,500.85 889.40,498.98 889.81,497.55 890.22,495.86 890.63,494.66 891.03,495.27 891.44,491.93 891.85,493.13 892.26,492.97 892.66,496.56 893.07,498.72 893.48,499.31 893.89,497.80 894.29,501.37 894.70,498.17 895.11,496.53 895.52,496.98 895.92,499.67 896.33,498.79 896.74,496.37 897.15,497.79 897.55,498.09 897.96,498.60 898.37,499.52 898.78,497.40 899.18,499.87 899.59,499.41 900.00,500.92 900.00,500.92"/>
<text x="85.00" y="696" text-anchor="middle" font-family="Arial" font-size="12" fill="#374151">0</text>
<text x="288.75" y="696" text-anchor="middle" font-family="Arial" font-size="12" fill="#374151">50000</text>
<text x="492.50" y="696" text-anchor="middle" font-family="Arial" font-size="12" fill="#374151">100000</text>
<text x="696.25" y="696" text-anchor="middle" font-family="Arial" font-size="12" fill="#374151">150000</text>
<text x="900.00" y="696" text-anchor="middle" font-family="Arial" font-size="12" fill="#374151">200000</text>
<text x="492.5" y="716" text-anchor="middle" font-family="Arial" font-size="14" fill="#111827">Event index</text>
</svg>
