<svg xmlns="http://www.w3.org/2000/svg" width="940" height="540" viewBox="0 0 940 540">
<rect width="100%" height="100%" fill="#ffffff"/>
<text x="470.0" y="26" text-anchor="middle" font-family="Arial" font-size="18" fill="#111827">Avellaneda Stoikov Cumulative PnL After Fees By Regime</text>
<line x1="85" y1="470" x2="785" y2="470" stroke="#111827" stroke-width="1"/>
<line x1="85" y1="42" x2="85" y2="470" stroke="#111827" stroke-width="1"/>
<line x1="85.00" y1="42" x2="85.00" y2="470" stroke="#e5e7eb" stroke-width="1"/>
<text x="85.00" y="494" text-anchor="middle" font-family="Arial" font-size="12" fill="#374151">0</text>
<line x1="260.00" y1="42" x2="260.00" y2="470" stroke="#e5e7eb" stroke-width="1"/>
<text x="260.00" y="494" text-anchor="middle" font-family="Arial" font-size="12" fill="#374151">50000</text>
<line x1="435.00" y1="42" x2="435.00" y2="470" stroke="#e5e7eb" stroke-width="1"/>
<text x="435.00" y="494" text-anchor="middle" font-family="Arial" font-size="12" fill="#374151">100000</text>
<line x1="610.00" y1="42" x2="610.00" y2="470" stroke="#e5e7eb" stroke-width="1"/>
<text x="610.00" y="494" text-anchor="middle" font-family="Arial" font-size="12" fill="#374151">150000</text>
<line x1="785.00" y1="42" x2="785.00" y2="470" stroke="#e5e7eb" stroke-width="1"/>
<text x="785.00" y="494" text-anchor="middle" font-family="Arial" font-size="12" fill="#374151">200000</text>
<line x1="85" y1="470.00" x2="785" y2="470.00" stroke="#e5e7eb" stroke-width="1"/>
<text x="73" y="474.00" text-anchor="end" font-family="Arial" font-size="12" fill="#374151">-1404206</text>
<line x1="85" y1="363.00" x2="785" y2="363.00" stroke="#e5e7eb" stroke-width="1"/>
<text x="73" y="367.00" text-anchor="end" font-family="Arial" font-size="12" fill="#374151">1023224</text>
<line x1="85" y1="256.00" x2="785" y2="256.00" stroke="#e5e7eb" stroke-width="1"/>
<text x="73" y="260.00" text-anchor="end" font-family="Arial" font-size="12" fill="#374151">3450653</text>
<line x1="85" y1="149.00" x2="785" y2="149.00" stroke="#e5e7eb" stroke-width="1"/>
<text x="73" y="153.00" text-anchor="end" font-family="Arial" font-size="12" fill="#374151">5878083</text>
<line x1="85" y1="42.00" x2="785" y2="42.00" stroke="#e5e7eb" stroke-width="1"/>
<text x="73" y="46.00" text-anchor="end" font-family="Arial" font-size="12" fill="#374151">8305512</text>
<polyline fill="none" stroke="#2563eb" stroke-width="2" points="85.00,408.10 85.35,408.08 85.70,408.04 86.05,408.02 86.40,408.00 86.75,407.97 87.10,407.94 87.45,407.90 87.80,407.87 88.15,407.83 88.50,407.81 88.85,407.78 89.20,407.76 89.55,407.74 89.90,407.71 90.25,407.63 90.60,407.61 90.95,407.56 91.30,407.51 91.65,407.46 92.00,407.47 92.35,407.42 92.70,407.41 93.05,407.41 93.40,407.41 93.75,407.39 94.10,407.34 94.45,407.39 94.80,407.35 95.15,407.32 95.50,407.31 95.85,407.28 96.20,407.18 96.55,407.19 96.90,407.15 97.25,407.08 97.60,407.15 97.95,407.17 98.30,407.15 98.65,407.12 99.00,407.14 99.35,407.11 99.70,407.08 100.05,407.07 100.40,407.02 100.75,407.06 101.10,406.94 101.45,406.99 101.80,406.94 102.15,406.92 102.50,406.82 102.85,406.79 103.20,406.83 103.55,406.83 103.90,406.79 104.25,406.70 104.60,406.76 104.95,406.71 105.30,406.75 105.65,406.81 106.00,406.81 106.35,406.80 106.70,406.80 107.05,406.75 107.40,406.77 107.75,406.73 108.10,406.64 108.45,406.70 108.80,406.75 109.15,406.75 109.50,406.75 109.85,406.76 110.20,406.72 110.55,406.69 110.90,406.65 111.25,406.64 111.60,406.59 111.95,406.58 112.30,406.53 112.65,406.52 113.00,406.48 113.35,406.46 113.70,406.41 114.05,406.40 114.40,406.37 114.75,406.34 115.10,406.34 115.45,406.31 115.80,406.29 116.15,406.26 116.50,406.23 116.85,406.21 117.20,406.16 117.55,406.14 117.90,406.13 118.25,406.13 118.60,406.11 118.95,406.13 119.30,406.12 119.65,406.10 120.00,406.09 120.35,406.05 120.70,406.04 121.05,406.04 121.40,406.15 121.75,406.10 122.10,406.10 122.45,406.02 122.80,406.04 123.15,406.04 123.50,405.94 123.85,405.87 124.20,405.78 124.55,405.80 124.90,405.78 125.25,405.76 125.60,405.71 125.95,405.71 126.30,405.79 126.65,405.82 127.00,405.78 127.35,405.77 127.70,405.72 128.05,405.83 128.40,405.77 128.75,405.77 129.10,405.75 129.45,405.69 129.80,405.68 130.15,405.67 130.50,405.59 130.85,405.53 131.20,405.49 131.55,405.47 131.90,405.49 132.25,405.67 132.60,405.53 132.95,405.51 133.30,405.34 133.65,405.40 134.00,405.39 134.35,405.45 134.70,405.48 135.05,405.54 135.40,405.38 135.75,405.33 136.10,405.39 136.45,405.42 136.80,405.29 137.15,405.17 137.50,405.12 137.85,405.21 138.20,405.11 138.55,404.97 138.90,404.99 139.25,404.91 139.60,404.67 139.95,404.53 140.30,404.41 140.65,404.27 141.00,404.41 141.35,404.43 141.70,404.41 142.05,404.17 142.40,404.11 142.75,404.16 143.10,403.97 143.45,404.11 143.80,404.07 144.15,404.14 144.50,404.11 144.85,404.02 145.20,403.78 145.55,403.69 145.90,403.53 146.25,403.42 146.60,403.49 146.95,403.46 147.30,403.39 147.65,403.64 148.00,403.64 148.35,403.59 148.70,403.91 149.05,403.89 149.40,403.83 149.75,403.68 150.10,403.99 150.45,403.82 150.80,403.64 151.15,403.40 151.50,403.29 151.85,403.08 152.20,402.75 152.55,402.88 152.90,402.90 153.25,403.03 153.60,403.03 153.95,403.18 154.30,402.89 154.65,402.78 155.00,402.86 155.35,402.90 155.70,403.10 156.05,403.14 156.40,403.50 156.75,403.14 157.10,403.03 157.45,402.95 157.80,403.13 158.15,403.23 158.50,402.96 158.85,403.08 159.20,402.48 159.55,402.56 159.90,402.42 160.25,402.40 160.60,402.69 160.95,402.58 161.30,402.46 161.65,402.28 162.00,402.33 162.35,402.57 162.70,402.47 163.05,402.53 163.40,402.30 163.75,402.27 164.10,401.86 164.45,401.68 164.80,401.99 165.15,402.08 165.50,401.84 165.85,401.97 166.20,401.92 166.55,401.67 166.90,401.45 167.25,401.25 167.60,401.39 167.95,401.96 168.30,401.86 168.65,402.10 169.00,402.15 169.35,402.44 169.70,402.14 170.05,402.32 170.40,402.25 170.75,401.67 171.10,401.31 171.45,401.56 171.80,401.33 172.15,401.11 172.50,401.43 172.85,401.75 173.20,402.07 173.55,401.95 173.90,401.63 174.25,401.29 174.60,401.08 174.95,401.32 175.30,401.32 175.65,401.34 176.00,401.39 176.35,401.43 176.70,401.57 177.05,401.45 177.40,401.18 177.75,401.04 178.10,400.89 178.45,400.97 178.80,400.95 179.15,400.34 179.50,400.83 179.85,400.74 180.20,400.65 180.55,400.57 180.90,400.72 181.25,401.05 181.60,400.66 181.95,401.00 182.30,400.80 182.65,400.47 183.00,400.28 183.35,399.96 183.70,399.62 184.05,399.15 184.40,398.92 184.75,399.16 185.10,399.69 185.45,399.48 185.80,399.20 186.15,399.23 186.50,399.35 186.85,399.30 187.20,399.93 187.55,399.67 187.90,399.34 188.25,399.39 188.60,399.07 188.95,398.60 189.30,398.38 189.65,398.17 190.00,397.89 190.35,398.32 190.70,398.60 191.05,398.96 191.40,399.08 191.75,398.70 192.10,399.12 192.45,398.27 192.80,398.34 193.15,397.68 193.50,396.47 193.85,396.88 194.20,397.10 194.55,396.54 194.90,395.61 195.25,394.24 195.60,394.15 195.95,394.93 196.30,394.60 196.65,395.64 197.00,396.93 197.35,396.00 197.70,396.68 198.05,395.36 198.40,396.58 198.75,396.12 199.10,395.80 199.45,396.00 199.80,395.58 200.15,393.87 200.50,392.21 200.85,390.93 201.20,389.32 201.55,388.78 201.90,389.65 202.25,390.52 202.60,389.46 202.95,389.18 203.30,390.44 203.65,389.61 204.00,390.68 204.35,392.01 204.70,392.65 205.05,391.40 205.40,390.94 205.75,390.09 206.10,391.01 206.45,391.21 206.80,390.39 207.15,390.23 207.50,390.27 207.85,390.82 208.20,391.36 208.55,392.48 208.90,393.36 209.25,394.04 209.60,391.92 209.95,390.51 210.30,390.18 210.65,390.76 211.00,390.46 211.35,391.71 211.70,394.29 212.05,394.49 212.40,396.18 212.75,396.03 213.10,396.98 213.45,398.38 213.80,397.03 214.15,396.42 214.50,398.19 214.85,399.45 215.20,401.87 215.55,402.38 215.90,402.98 216.25,403.16 216.60,403.73 216.95,402.36 217.30,402.78 217.65,404.41 218.00,404.29 218.35,403.46 218.70,403.75 219.05,404.41 219.40,403.54 219.75,404.61 220.10,403.74 220.45,405.83 220.80,405.26 221.15,404.39 221.50,404.90 221.85,405.51 222.20,404.27 222.55,406.01 222.90,405.17 223.25,405.04 223.60,404.17 223.95,403.09 224.30,403.91 224.65,402.65 225.00,402.93 225.35,403.64 225.70,403.70 226.05,403.36 226.40,402.22 226.75,403.25 227.10,402.71 227.45,402.88 227.80,402.38 228.15,403.28 228.50,401.92 228.85,401.50 229.20,402.80 229.55,403.32 229.90,403.56 230.25,403.25 230.60,402.47 230.95,402.15 231.30,401.14 231.65,400.93 232.00,398.39 232.35,399.25 232.70,399.19 233.05,399.52 233.40,396.95 233.75,396.29 234.10,395.03 234.45,394.72 234.80,394.43 235.15,394.63 235.50,396.69 235.85,396.41 236.20,395.30 236.55,395.53 236.90,397.64 237.25,396.46 237.60,395.35 237.95,396.36 238.30,397.44 238.65,396.53 239.00,395.63 239.35,396.87 239.70,397.97 240.05,396.95 240.40,396.00 240.75,397.00 241.10,394.34 241.45,393.61 241.80,394.47 242.15,392.81 242.50,393.73 242.85,395.44 243.20,394.89 243.55,393.28 243.90,392.10 244.25,392.01 244.60,393.63 244.95,393.99 245.30,392.48 245.65,392.35 246.00,393.09 246.35,392.99 246.70,392.27 247.05,393.34 247.40,393.38 247.75,392.76 248.10,393.98 248.45,392.57 248.80,391.36 249.15,392.73 249.50,392.91 249.85,391.93 250.20,392.89 250.55,394.41 250.90,394.58 251.25,392.61 251.60,392.09 251.95,393.31 252.30,392.85 252.65,393.92 253.00,394.51 253.35,395.57 253.70,397.40 254.05,397.98 254.40,396.97 254.75,396.07 255.10,397.57 255.45,397.66 255.80,397.71 256.15,398.07 256.50,398.47 256.85,397.20 257.20,393.80 257.55,394.28 257.90,392.95 258.25,394.63 258.60,392.99 258.95,391.31 259.30,391.20 259.65,389.95 260.00,389.24 260.35,389.65 260.70,389.94 261.05,389.27 261.40,391.09 261.75,390.28 262.10,387.54 262.45,385.83 262.80,386.36 263.15,386.32 263.50,383.88 263.85,382.17 264.20,381.16 264.55,381.19 264.90,380.82 265.25,382.56 265.60,383.49 265.95,381.62 266.30,381.88 266.65,380.00 267.00,378.53 267.35,378.39 267.70,377.53 268.05,377.65 268.40,379.90 268.75,380.37 269.10,380.31 269.45,381.24 269.80,380.86 270.15,379.42 270.50,376.59 270.85,375.92 271.20,375.75 271.55,374.49 271.90,371.54 272.25,371.85 272.60,371.86 272.95,374.30 273.30,371.71 273.65,371.39 274.00,370.76 274.35,371.96 274.70,376.47 275.05,374.99 275.40,378.58 275.75,377.09 276.10,374.60 276.45,371.74 276.80,373.71 277.15,376.89 277.50,375.52 277.85,376.80 278.20,376.86 278.55,381.28 278.90,381.36 279.25,378.71 279.60,376.08 279.95,375.62 280.30,376.87 280.65,374.94 281.00,374.29 281.35,372.45 281.70,372.41 282.05,373.18 282.40,377.09 282.75,381.82 283.10,383.47 283.45,381.29 283.80,381.10 284.15,379.14 284.50,380.29 284.85,377.82 285.20,378.46 285.55,379.12 285.90,379.77 286.25,378.93 286.60,377.31 286.95,378.18 287.30,380.77 287.65,379.47 288.00,385.60 288.35,385.14 288.70,385.61 289.05,386.34 289.40,385.17 289.75,385.39 290.10,384.24 290.45,380.12 290.80,381.53 291.15,384.22 291.50,384.37 291.85,384.77 292.20,384.51 292.55,382.54 292.90,382.55 293.25,386.34 293.60,386.20 293.95,388.03 294.30,392.19 294.65,390.84 295.00,388.20 295.35,389.42 295.70,387.77 296.05,388.86 296.40,391.01 296.75,392.95 297.10,396.39 297.45,398.31 297.80,399.96 298.15,396.94 298.50,394.40 298.85,396.11 299.20,395.39 299.55,393.59 299.90,393.55 300.25,395.44 300.60,398.39 300.95,400.54 301.30,401.87 301.65,399.65 302.00,397.00 302.35,395.29 302.70,393.13 303.05,394.80 303.40,397.64 303.75,395.94 304.10,395.43 304.45,390.22 304.80,391.98 305.15,392.55 305.50,391.27 305.85,392.91 306.20,396.18 306.55,399.07 306.90,396.43 307.25,396.10 307.60,397.89 307.95,400.57 308.30,398.72 308.65,396.42 309.00,396.52 309.35,394.68 309.70,388.96 310.05,393.03 310.40,394.32 310.75,394.50 311.10,395.79 311.45,393.87 311.80,394.52 312.15,393.12 312.50,395.33 312.85,394.47 313.20,393.65 313.55,392.84 313.90,390.18 314.25,392.31 314.60,392.49 314.95,395.50 315.30,396.40 315.65,400.61 316.00,401.13 316.35,401.94 316.70,400.94 317.05,402.83 317.40,405.20 317.75,408.02 318.10,407.19 318.45,408.48 318.80,406.30 319.15,402.85 319.50,399.81 319.85,400.34 320.20,402.62 320.55,405.25 320.90,409.22 321.25,408.49 321.60,407.83 321.95,408.21 322.30,408.51 322.65,407.74 323.00,408.45 323.35,404.04 323.70,404.36 324.05,405.49 324.40,407.25 324.75,407.87 325.10,407.39 325.45,407.91 325.80,408.08 326.15,406.88 326.50,405.39 326.85,406.04 327.20,404.30 327.55,405.99 327.90,407.85 328.25,408.69 328.60,409.72 328.95,409.62 329.30,410.98 329.65,407.00 330.00,407.98 330.35,405.57 330.70,404.56 331.05,403.41 331.40,403.02 331.75,400.12 332.10,398.50 332.45,398.27 332.80,399.03 333.15,399.01 333.50,398.55 333.85,395.29 334.20,394.69 334.55,393.51 334.90,393.67 335.25,391.33 335.60,391.39 335.95,390.73 336.30,388.75 336.65,385.46 337.00,386.03 337.35,384.43 337.70,384.54 338.05,385.78 338.40,386.38 338.75,386.64 339.10,388.14 339.45,388.68 339.80,388.10 340.15,388.65 340.50,390.21 340.85,390.51 341.20,392.86 341.55,389.59 341.90,390.27 342.25,388.89 342.60,391.45 342.95,388.94 343.30,388.65 343.65,387.57 344.00,386.93 344.35,386.28 344.70,388.26 345.05,388.22 345.40,389.66 345.75,388.65 346.10,388.33 346.45,386.20 346.80,384.29 347.15,382.41 347.50,381.02 347.85,378.62 348.20,379.63 348.55,378.58 348.90,374.30 349.25,373.48 349.60,371.59 349.95,373.35 350.30,369.24 350.65,369.70 351.00,372.83 351.35,371.21 351.70,369.63 352.05,368.06 352.40,369.14 352.75,368.64 353.10,367.84 353.45,365.55 353.80,365.66 354.15,363.31 354.50,360.88 354.85,363.56 355.20,365.64 355.55,364.26 355.90,359.80 356.25,357.39 356.60,353.62 356.95,356.36 357.30,355.89 357.65,359.33 358.00,358.94 358.35,358.99 358.70,362.41 359.05,360.47 359.40,361.61 359.75,364.02 360.10,362.17 360.45,366.33 360.80,364.52 361.15,363.83 361.50,365.03 361.85,360.53 362.20,361.87 362.55,362.58 362.90,365.96 363.25,368.25 363.60,367.59 363.95,368.08 364.30,369.06 364.65,365.12 365.00,364.59 365.35,358.18 365.70,360.06 366.05,356.11 366.40,355.95 366.75,356.75 367.10,356.17 367.45,356.85 367.80,359.64 368.15,365.81 368.50,367.69 368.85,369.64 369.20,370.03 369.55,371.61 369.90,371.17 370.25,367.14 370.60,363.40 370.95,360.48 371.30,357.58 371.65,353.59 372.00,351.19 372.35,353.77 372.70,351.12 373.05,347.66 373.40,349.72 373.75,347.12 374.10,345.39 374.45,341.38 374.80,341.27 375.15,345.40 375.50,344.37 375.85,342.87 376.20,339.66 376.55,339.10 376.90,337.75 377.25,339.95 377.60,337.91 377.95,335.82 378.30,335.08 378.65,331.49 379.00,336.62 379.35,339.33 379.70,338.12 380.05,335.92 380.40,332.67 380.75,328.83 381.10,323.07 381.45,321.47 381.80,324.79 382.15,320.50 382.50,323.06 382.85,321.43 383.20,322.73 383.55,320.19 383.90,318.33 384.25,311.21 384.60,311.89 384.95,311.35 385.30,309.74 385.65,305.35 386.00,303.03 386.35,305.71 386.70,307.44 387.05,305.11 387.40,306.42 387.75,307.82 388.10,305.82 388.45,306.66 388.80,310.89 389.15,310.31 389.50,311.21 389.85,312.42 390.20,313.82 390.55,318.89 390.90,314.82 391.25,313.39 391.60,312.79 391.95,315.76 392.30,312.99 392.65,307.65 393.00,301.77 393.35,299.56 393.70,299.88 394.05,303.12 394.40,303.87 394.75,305.94 395.10,310.67 395.45,301.80 395.80,301.54 396.15,295.41 396.50,303.45 396.85,302.16 397.20,299.95 397.55,300.69 397.90,303.01 398.25,306.34 398.60,311.10 398.95,311.16 399.30,309.47 399.65,311.21 400.00,313.07 400.35,312.52 400.70,310.45 401.05,306.90 401.40,307.02 401.75,305.15 402.10,299.98 402.45,295.86 402.80,298.34 403.15,293.42 403.50,289.66 403.85,290.20 404.20,290.79 404.55,287.22 404.90,280.85 405.25,282.82 405.60,279.77 405.95,276.38 406.30,277.77 406.65,279.89 407.00,275.95 407.35,276.82 407.70,273.99 408.05,279.02 408.40,284.42 408.75,281.94 409.10,279.50 409.45,274.11 409.80,274.15 410.15,275.94 410.50,284.87 410.85,284.09 411.20,277.95 411.55,281.47 411.90,285.08 412.25,283.77 412.60,285.59 412.95,287.44 413.30,289.41 413.65,287.93 414.00,287.84 414.35,285.27 414.70,288.60 415.05,283.59 415.40,284.48 415.75,285.30 416.10,279.43 416.45,269.64 416.80,265.82 417.15,266.65 417.50,263.12 417.85,260.17 418.20,263.16 418.55,268.98 418.90,266.87 419.25,262.65 419.60,263.56 419.95,259.58 420.30,255.21 420.65,250.17 421.00,252.02 421.35,250.18 421.70,249.83 422.05,242.87 422.40,241.11 422.75,243.35 423.10,241.90 423.45,237.90 423.80,235.43 424.15,236.93 424.50,236.04 424.85,236.63 425.20,234.04 425.55,232.59 425.90,236.32 426.25,234.04 426.60,230.06 426.95,231.75 427.30,231.17 427.65,226.22 428.00,223.54 428.35,226.21 428.70,227.53 429.05,231.02 429.40,234.49 429.75,225.38 430.10,228.99 430.45,231.36 430.80,235.90 431.15,243.68 431.50,240.15 431.85,243.61 432.20,244.27 432.55,242.96 432.90,246.63 433.25,253.17 433.60,251.22 433.95,252.34 434.30,252.93 434.65,254.65 435.00,259.50 435.35,258.73 435.70,258.97 436.05,261.72 436.40,264.70 436.75,265.03 437.10,261.25 437.45,264.24 437.80,261.06 438.15,256.54 438.50,253.58 438.85,256.19 439.20,257.34 439.55,260.61 439.90,257.21 440.25,256.34 440.60,254.19 440.95,253.78 441.30,252.69 441.65,256.33 442.00,259.94 442.35,258.71 442.70,259.88 443.05,252.02 443.40,253.42 443.75,250.64 444.10,251.43 444.45,249.09 444.80,247.56 445.15,243.49 445.50,246.69 445.85,245.51 446.20,240.42 446.55,245.60 446.90,249.51 447.25,241.54 447.60,237.03 447.95,232.92 448.30,228.77 448.65,225.10 449.00,230.20 449.35,230.56 449.70,235.67 450.05,238.52 450.40,233.89 450.75,237.23 451.10,237.27 451.45,241.45 451.80,234.04 452.15,231.88 452.50,235.57 452.85,236.91 453.20,237.77 453.55,232.62 453.90,230.63 454.25,230.69 454.60,234.14 454.95,237.21 455.30,238.90 455.65,241.62 456.00,241.50 456.35,242.40 456.70,239.64 457.05,237.46 457.40,236.57 457.75,239.16 458.10,241.58 458.45,244.51 458.80,252.01 459.15,253.02 459.50,257.03 459.85,260.45 460.20,254.74 460.55,262.66 460.90,267.31 461.25,266.37 461.60,265.57 461.95,268.24 462.30,268.54 462.65,271.94 463.00,265.91 463.35,270.59 463.70,272.92 464.05,275.48 464.40,270.52 464.75,266.99 465.10,262.90 465.45,262.93 465.80,258.27 466.15,259.69 466.50,257.55 466.85,259.46 467.20,255.87 467.55,255.72 467.90,257.98 468.25,258.75 468.60,260.38 468.95,262.66 469.30,262.26 469.65,263.25 470.00,259.56 470.35,262.83 470.70,263.62 471.05,266.26 471.40,267.33 471.75,267.54 472.10,266.05 472.45,262.73 472.80,255.89 473.15,253.79 473.50,258.61 473.85,256.02 474.20,256.90 474.55,257.16 474.90,263.37 475.25,262.53 475.60,268.76 475.95,271.56 476.30,267.35 476.65,264.67 477.00,264.55 477.35,266.69 477.70,265.99 478.05,266.52 478.40,266.49 478.75,269.34 479.10,267.08 479.45,263.68 479.80,257.43 480.15,261.04 480.50,257.93 480.85,254.85 481.20,254.90 481.55,254.37 481.90,253.73 482.25,249.75 482.60,243.06 482.95,242.02 483.30,241.62 483.65,244.38 484.00,241.87 484.35,241.58 484.70,241.75 485.05,243.65 485.40,244.53 485.75,246.24 486.10,244.22 486.45,243.87 486.80,238.41 487.15,237.77 487.50,236.38 487.85,234.71 488.20,236.59 488.55,239.03 488.90,235.25 489.25,237.35 489.60,233.24 489.95,231.16 490.30,231.77 490.65,235.39 491.00,233.49 491.35,233.25 491.70,231.95 492.05,229.49 492.40,230.60 492.75,225.90 493.10,227.50 493.45,229.15 493.80,227.29 494.15,228.25 494.50,226.86 494.85,224.86 495.20,222.99 495.55,225.23 495.90,229.24 496.25,231.91 496.60,228.08 496.95,225.04 497.30,222.80 497.65,220.47 498.00,219.05 498.35,214.39 498.70,213.71 499.05,212.14 499.40,209.70 499.75,212.37 500.10,214.22 500.45,214.66 500.80,218.24 501.15,218.13 501.50,224.13 501.85,222.56 502.20,229.78 502.55,225.69 502.90,227.81 503.25,223.63 503.60,229.86 503.95,229.04 504.30,223.29 504.65,221.42 505.00,222.40 505.35,224.13 505.70,220.19 506.05,220.62 506.40,220.48 506.75,222.19 507.10,220.61 507.45,216.09 507.80,216.37 508.15,215.63 508.50,214.73 508.85,222.59 509.20,227.81 509.55,226.04 509.90,222.94 510.25,224.29 510.60,225.83 510.95,225.96 511.30,226.36 511.65,220.55 512.00,215.31 512.35,219.35 512.70,216.11 513.05,219.09 513.40,220.26 513.75,212.95 514.10,210.41 514.45,211.24 514.80,205.86 515.15,205.07 515.50,206.70 515.85,202.19 516.20,205.61 516.55,205.84 516.90,202.73 517.25,197.31 517.60,194.97 517.95,191.85 518.30,196.22 518.65,197.82 519.00,198.83 519.35,197.54 519.70,197.26 520.05,198.53 520.40,199.09 520.75,200.76 521.10,198.52 521.45,198.08 521.80,196.57 522.15,196.98 522.50,198.88 522.85,197.12 523.20,197.84 523.55,200.39 523.90,206.33 524.25,201.18 524.60,198.88 524.95,198.43 525.30,190.67 525.65,191.49 526.00,185.90 526.35,191.61 526.70,191.85 527.05,190.26 527.40,189.10 527.75,184.08 528.10,185.55 528.45,183.84 528.80,180.10 529.15,181.24 529.50,179.22 529.85,173.04 530.20,173.10 530.55,170.70 530.90,171.67 531.25,175.43 531.60,177.50 531.95,176.15 532.30,170.41 532.65,169.30 533.00,166.06 533.35,167.06 533.70,167.30 534.05,167.55 534.40,173.68 534.75,171.55 535.10,176.24 535.45,178.05 535.80,176.87 536.15,177.71 536.50,177.87 536.85,172.86 537.20,175.52 537.55,171.32 537.90,172.53 538.25,172.40 538.60,171.46 538.95,170.40 539.30,172.99 539.65,177.10 540.00,172.68 540.35,174.99 540.70,171.63 541.05,171.40 541.40,165.64 541.75,170.15 542.10,173.18 542.45,171.15 542.80,164.77 543.15,162.47 543.50,162.87 543.85,161.49 544.20,153.86 544.55,154.39 544.90,154.03 545.25,158.51 545.60,151.31 545.95,146.81 546.30,143.97 546.65,147.20 547.00,147.75 547.35,143.99 547.70,149.40 548.05,151.53 548.40,153.75 548.75,149.90 549.10,148.06 549.45,144.45 549.80,150.47 550.15,146.52 550.50,152.31 550.85,153.57 551.20,149.84 551.55,155.18 551.90,156.77 552.25,159.23 552.60,159.06 552.95,155.55 553.30,155.81 553.65,154.89 554.00,153.49 554.35,152.36 554.70,153.41 555.05,155.29 555.40,157.14 555.75,158.58 556.10,152.78 556.45,156.99 556.80,159.38 557.15,160.37 557.50,167.40 557.85,167.48 558.20,166.16 558.55,171.51 558.90,166.07 559.25,165.63 559.60,166.42 559.95,163.36 560.30,159.68 560.65,158.60 561.00,156.78 561.35,156.80 561.70,155.13 562.05,151.19 562.40,151.65 562.75,149.48 563.10,150.85 563.45,148.85 563.80,152.93 564.15,151.26 564.50,144.85 564.85,137.99 565.20,139.43 565.55,138.61 565.90,135.36 566.25,137.10 566.60,130.54 566.95,132.12 567.30,129.33 567.65,128.76 568.00,125.86 568.35,122.33 568.70,116.04 569.05,114.44 569.40,115.26 569.75,111.72 570.10,109.87 570.45,107.74 570.80,110.52 571.15,113.05 571.50,110.93 571.85,110.33 572.20,109.83 572.55,111.81 572.90,109.46 573.25,106.93 573.60,102.13 573.95,99.92 574.30,94.21 574.65,93.44 575.00,99.34 575.35,97.90 575.70,91.65 576.05,92.58 576.40,89.43 576.75,88.25 577.10,86.17 577.45,86.84 577.80,85.26 578.15,84.25 578.50,78.06 578.85,84.51 579.20,79.57 579.55,84.10 579.90,78.94 580.25,79.58 580.60,77.93 580.95,79.38 581.30,83.68 581.65,82.89 582.00,82.64 582.35,83.68 582.70,80.37 583.05,82.39 583.40,85.35 583.75,88.76 584.10,89.28 584.45,83.94 584.80,91.22 585.15,88.40 585.50,87.72 585.85,86.52 586.20,86.26 586.55,82.79 586.90,82.62 587.25,86.72 587.60,86.80 587.95,91.51 588.30,95.36 588.65,91.98 589.00,90.82 589.35,82.79 589.70,75.37 590.05,75.87 590.40,77.00 590.75,75.92 591.10,82.85 591.45,85.32 591.80,87.55 592.15,87.31 592.50,88.40 592.85,89.52 593.20,91.30 593.55,94.18 593.90,93.50 594.25,90.22 594.60,88.88 594.95,86.78 595.30,91.10 595.65,96.23 596.00,94.70 596.35,90.90 596.70,86.73 597.05,89.30 597.40,88.20 597.75,90.08 598.10,91.70 598.45,92.74 598.80,91.15 599.15,94.57 599.50,98.88 599.85,97.65 600.20,100.51 600.55,100.15 600.90,101.34 601.25,95.88 601.60,94.42 601.95,88.95 602.30,88.55 602.65,89.15 603.00,82.65 603.35,78.18 603.70,74.39 604.05,71.52 604.40,72.21 604.75,75.77 605.10,75.40 605.45,77.47 605.80,74.70 606.15,72.15 606.50,73.49 606.85,81.12 607.20,82.64 607.55,78.08 607.90,83.73 608.25,81.21 608.60,87.32 608.95,86.31 609.30,88.02 609.65,89.97 610.00,85.97 610.35,87.60 610.70,87.22 611.05,89.81 611.40,87.45 611.75,81.29 612.10,78.04 612.45,81.43 612.80,85.21 613.15,83.64 613.50,87.62 613.85,81.19 614.20,82.96 614.55,81.51 614.90,82.37 615.25,78.63 615.60,82.74 615.95,83.57 616.30,82.98 616.65,83.48 617.00,85.77 617.35,94.76 617.70,96.72 618.05,96.13 618.40,96.71 618.75,97.71 619.10,101.58 619.45,101.35 619.80,106.53 620.15,107.96 620.50,113.27 620.85,112.86 621.20,110.42 621.55,108.71 621.90,104.51 622.25,102.60 622.60,104.19 622.95,104.99 623.30,106.44 623.65,111.09 624.00,113.64 624.35,108.20 624.70,109.47 625.05,112.66 625.40,110.77 625.75,115.86 626.10,110.77 626.45,114.17 626.80,111.10 627.15,110.62 627.50,107.70 627.85,106.22 628.20,107.68 628.55,108.91 628.90,112.33 629.25,111.30 629.60,108.31 629.95,105.12 630.30,108.13 630.65,108.00 631.00,109.19 631.35,107.97 631.70,111.06 632.05,108.88 632.40,105.13 632.75,109.92 633.10,111.97 633.45,109.45 633.80,106.09 634.15,111.18 634.50,113.00 634.85,115.82 635.20,113.99 635.55,109.80 635.90,115.63 636.25,112.32 636.60,109.88 636.95,111.24 637.30,108.86 637.65,104.07 638.00,105.23 638.35,103.62 638.70,102.77 639.05,105.28 639.40,106.26 639.75,100.70 640.10,100.05 640.45,100.75 640.80,103.90 641.15,104.55 641.50,105.97 641.85,108.17 642.20,105.83 642.55,107.38 642.90,105.54 643.25,100.81 643.60,103.93 643.95,98.38 644.30,92.26 644.65,94.26 645.00,94.75 645.35,91.53 645.70,95.06 646.05,92.86 646.40,94.13 646.75,91.45 647.10,98.26 647.45,100.28 647.80,100.41 648.15,98.37 648.50,99.17 648.85,98.30 649.20,96.04 649.55,95.71 649.90,91.92 650.25,94.79 650.60,96.48 650.95,87.31 651.30,86.80 651.65,90.96 652.00,93.01 652.35,87.41 652.70,89.53 653.05,88.10 653.40,85.01 653.75,87.82 654.10,83.13 654.45,79.97 654.80,82.71 655.15,85.09 655.50,79.46 655.85,82.82 656.20,84.96 656.55,84.17 656.90,85.06 657.25,84.69 657.60,84.46 657.95,78.94 658.30,84.14 658.65,83.45 659.00,85.86 659.35,86.20 659.70,85.60 660.05,86.35 660.40,92.81 660.75,91.97 661.10,92.07 661.45,98.02 661.80,101.57 662.15,99.11 662.50,101.30 662.85,99.32 663.20,99.63 663.55,101.92 663.90,107.20 664.25,109.18 664.60,110.57 664.95,108.03 665.30,108.85 665.65,109.87 666.00,115.06 666.35,115.38 666.70,118.82 667.05,114.47 667.40,118.22 667.75,118.02 668.10,117.52 668.45,115.65 668.80,116.81 669.15,114.21 669.50,116.47 669.85,116.28 670.20,115.38 670.55,117.68 670.90,119.29 671.25,119.88 671.60,120.49 671.95,123.48 672.30,122.52 672.65,124.81 673.00,125.80 673.35,127.40 673.70,127.06 674.05,124.52 674.40,127.02 674.75,127.44 675.10,129.16 675.45,122.33 675.80,125.33 676.15,121.59 676.50,125.36 676.85,127.77 677.20,126.93 677.55,125.08 677.90,125.54 678.25,125.08 678.60,124.35 678.95,125.55 679.30,125.00 679.65,123.59 680.00,119.57 680.35,120.25 680.70,121.30 681.05,123.06 681.40,117.62 681.75,118.02 682.10,119.53 682.45,118.14 682.80,115.80 683.15,118.89 683.50,120.53 683.85,117.99 684.20,118.14 684.55,116.33 684.90,113.61 685.25,114.16 685.60,110.95 685.95,108.73 686.30,106.91 686.65,106.82 687.00,106.05 687.35,103.17 687.70,103.36 688.05,102.56 688.40,102.00 688.75,101.46 689.10,102.24 689.45,97.73 689.80,101.72 690.15,96.97 690.50,88.56 690.85,92.53 691.20,93.08 691.55,90.75 691.90,89.86 692.25,90.25 692.60,88.97 692.95,86.68 693.30,84.70 693.65,86.09 694.00,89.25 694.35,89.18 694.70,86.98 695.05,89.32 695.40,89.32 695.75,88.56 696.10,87.64 696.45,90.29 696.80,95.55 697.15,94.64 697.50,92.14 697.85,89.27 698.20,89.87 698.55,86.19 698.90,85.43 699.25,84.63 699.60,88.10 699.95,86.55 700.30,85.77 700.65,87.36 701.00,88.34 701.35,89.72 701.70,87.65 702.05,86.20 702.40,85.95 702.75,84.97 703.10,86.74 703.45,86.88 703.80,88.31 704.15,87.91 704.50,83.49 704.85,84.50 705.20,82.91 705.55,79.39 705.90,79.89 706.25,80.13 706.60,83.39 706.95,86.44 707.30,86.51 707.65,84.35 708.00,87.67 708.35,89.21 708.70,89.44 709.05,89.06 709.40,95.32 709.75,94.65 710.10,95.96 710.45,93.37 710.80,88.40 711.15,92.16 711.50,89.35 711.85,90.15 712.20,91.87 712.55,86.67 712.90,84.20 713.25,82.60 713.60,82.95 713.95,80.89 714.30,81.78 714.65,81.97 715.00,79.64 715.35,81.53 715.70,84.35 716.05,88.46 716.40,93.21 716.75,94.71 717.10,92.74 717.45,89.84 717.80,89.78 718.15,89.57 718.50,87.97 718.85,82.88 719.20,82.59 719.55,85.35 719.90,84.79 720.25,84.55 720.60,85.46 720.95,89.83 721.30,89.06 721.65,93.32 722.00,91.68 722.35,89.65 722.70,94.45 723.05,99.00 723.40,95.32 723.75,93.91 724.10,95.64 724.45,96.29 724.80,99.55 725.15,98.73 725.50,103.10 725.85,101.85 726.20,101.69 726.55,101.44 726.90,101.05 727.25,101.04 727.60,103.87 727.95,101.69 728.30,108.12 728.65,106.81 729.00,108.14 729.35,110.62 729.70,110.22 730.05,112.61 730.40,106.95 730.75,106.45 731.10,105.49 731.45,106.22 731.80,105.02 732.15,102.75 732.50,103.34 732.85,103.30 733.20,99.87 733.55,93.95 733.90,93.02 734.25,95.63 734.60,97.69 734.95,95.91 735.30,97.15 735.65,94.47 736.00,94.30 736.35,95.87 736.70,94.66 737.05,93.87 737.40,93.29 737.75,94.19 738.10,95.09 738.45,92.67 738.80,85.70 739.15,83.06 739.50,82.89 739.85,86.05 740.20,84.71 740.55,86.97 740.90,90.12 741.25,86.49 741.60,92.02 741.95,92.43 742.30,94.34 742.65,96.19 743.00,94.59 743.35,94.59 743.70,94.81 744.05,95.94 744.40,94.85 744.75,99.05 745.10,100.18 745.45,100.58 745.80,101.57 746.15,106.46 746.50,105.53 746.85,111.25 747.20,112.39 747.55,112.27 747.90,117.72 748.25,120.67 748.60,123.03 748.95,124.29 749.30,121.03 749.65,116.37 750.00,117.22 750.35,117.85 750.70,119.17 751.05,118.66 751.40,118.50 751.75,118.55 752.10,117.66 752.45,116.96 752.80,118.93 753.15,121.03 753.50,120.92 753.85,123.36 754.20,124.20 754.55,126.50 754.90,125.72 755.25,127.26 755.60,126.91 755.95,130.68 756.30,129.78 756.65,129.97 757.00,130.70 757.35,128.62 757.70,129.51 758.05,126.85 758.40,126.44 758.75,125.81 759.10,126.41 759.45,130.67 759.80,130.37 760.15,130.38 760.50,129.57 760.85,131.81 761.20,132.90 761.55,131.36 761.90,135.95 762.25,137.86 762.60,141.21 762.95,141.66 763.30,142.66 763.65,142.67 764.00,138.82 764.35,135.58 764.70,133.92 765.05,134.09 765.40,133.87 765.75,132.24 766.10,127.20 766.45,125.58 766.80,124.45 767.15,126.49 767.50,126.66 767.85,125.65 768.20,126.37 768.55,129.87 768.90,128.41 769.25,124.98 769.60,125.60 769.95,125.68 770.30,122.21 770.65,119.95 771.00,120.39 771.35,120.77 771.70,120.36 772.05,125.47 772.40,124.27 772.75,125.35 773.10,123.96 773.45,125.43 773.80,121.32 774.15,121.52 774.50,122.23 774.85,123.20 775.20,123.20 775.55,123.39 775.90,122.86 776.25,125.74 776.60,124.19 776.95,124.53 777.30,123.53 777.65,124.27 778.00,123.85 778.35,121.92 778.70,122.43 779.05,121.17 779.40,122.75 779.75,123.05 780.10,120.94 780.45,120.77 780.80,122.71 781.15,124.50 781.50,123.55 781.85,122.59 782.20,122.26 782.55,123.85 782.90,124.35 783.25,124.18 783.60,122.93 783.95,122.75 784.30,122.39 784.65,120.93 785.00,118.28 785.00,124.22"/>
<line x1="813" y1="54" x2="839" y2="54" stroke="#2563eb" stroke-width="3"/>
<text x="847" y="58" font-family="Arial" font-size="13" fill="#111827">low volatility</text>
<polyline fill="none" stroke="#dc2626" stroke-width="2" points="85.00,408.10 85.35,408.07 85.70,408.05 86.05,408.02 86.40,407.92 86.75,407.77 87.10,407.47 87.45,407.28 87.80,407.19 88.15,407.14 88.50,407.32 88.85,407.61 89.20,407.84 89.55,408.01 89.90,408.21 90.25,408.03 90.60,407.79 90.95,407.55 91.30,407.56 91.65,407.65 92.00,407.72 92.35,407.52 92.70,407.47 93.05,407.48 93.40,407.69 93.75,407.36 94.10,407.48 94.45,407.66 94.80,407.70 95.15,407.77 95.50,407.74 95.85,407.80 96.20,407.78 96.55,407.70 96.90,407.54 97.25,407.60 97.60,407.34 97.95,407.11 98.30,407.13 98.65,407.33 99.00,407.47 99.35,407.38 99.70,406.92 100.05,406.52 100.40,406.80 100.75,407.35 101.10,408.40 101.45,408.64 101.80,408.98 102.15,409.05 102.50,410.03 102.85,410.09 103.20,409.70 103.55,409.55 103.90,409.22 104.25,408.87 104.60,408.42 104.95,408.21 105.30,408.54 105.65,408.68 106.00,408.89 106.35,408.67 106.70,409.32 107.05,409.54 107.40,409.60 107.75,409.67 108.10,409.50 108.45,409.36 108.80,409.24 109.15,409.29 109.50,409.24 109.85,408.96 110.20,409.00 110.55,408.89 110.90,408.62 111.25,408.56 111.60,408.72 111.95,408.81 112.30,408.91 112.65,409.65 113.00,409.69 113.35,409.21 113.70,409.14 114.05,409.27 114.40,408.89 114.75,408.69 115.10,408.71 115.45,408.83 115.80,408.68 116.15,408.79 116.50,408.93 116.85,408.73 117.20,409.01 117.55,408.99 117.90,409.30 118.25,409.44 118.60,409.36 118.95,409.29 119.30,409.24 119.65,409.23 120.00,409.22 120.35,408.92 120.70,409.15 121.05,408.81 121.40,408.87 121.75,409.20 122.10,408.55 122.45,408.02 122.80,407.55 123.15,407.77 123.50,408.30 123.85,407.54 124.20,407.82 124.55,408.11 124.90,408.08 125.25,407.43 125.60,408.01 125.95,407.57 126.30,406.75 126.65,406.71 127.00,407.00 127.35,407.62 127.70,409.85 128.05,412.57 128.40,413.36 128.75,413.34 129.10,412.26 129.45,411.64 129.80,411.36 130.15,411.65 130.50,412.10 130.85,411.59 131.20,412.04 131.55,412.10 131.90,412.60 132.25,413.78 132.60,413.26 132.95,412.96 133.30,412.59 133.65,411.76 134.00,412.26 134.35,412.48 134.70,412.06 135.05,411.44 135.40,411.37 135.75,411.31 136.10,411.35 136.45,410.89 136.80,411.30 137.15,411.20 137.50,411.13 137.85,411.33 138.20,410.79 138.55,410.83 138.90,409.70 139.25,410.60 139.60,411.14 139.95,411.31 140.30,411.56 140.65,411.26 141.00,410.86 141.35,411.22 141.70,410.00 142.05,409.44 142.40,409.60 142.75,408.20 143.10,408.29 143.45,408.08 143.80,407.23 144.15,407.84 144.50,405.92 144.85,405.63 145.20,404.17 145.55,406.33 145.90,405.71 146.25,406.00 146.60,405.19 146.95,406.15 147.30,406.47 147.65,406.53 148.00,406.75 148.35,406.53 148.70,406.56 149.05,406.56 149.40,409.25 149.75,409.02 150.10,407.18 150.45,407.53 150.80,408.03 151.15,407.26 151.50,406.93 151.85,405.30 152.20,404.83 152.55,406.03 152.90,406.15 153.25,407.55 153.60,407.60 153.95,408.14 154.30,408.10 154.65,407.79 155.00,407.90 155.35,403.94 155.70,407.46 156.05,407.19 156.40,406.66 156.75,407.93 157.10,405.84 157.45,405.64 157.80,406.17 158.15,405.42 158.50,404.27 158.85,403.85 159.20,404.17 159.55,405.28 159.90,406.77 160.25,402.47 160.60,400.82 160.95,402.83 161.30,403.42 161.65,401.93 162.00,400.53 162.35,398.90 162.70,399.53 163.05,400.24 163.40,402.05 163.75,405.18 164.10,406.47 164.45,404.59 164.80,404.52 165.15,406.41 165.50,409.51 165.85,411.05 166.20,411.19 166.55,409.66 166.90,406.22 167.25,406.08 167.60,403.86 167.95,402.96 168.30,406.47 168.65,410.23 169.00,411.82 169.35,413.05 169.70,416.85 170.05,414.65 170.40,412.38 170.75,411.08 171.10,411.80 171.45,412.34 171.80,413.19 172.15,413.52 172.50,413.77 172.85,414.35 173.20,414.82 173.55,414.97 173.90,414.42 174.25,415.00 174.60,415.27 174.95,416.87 175.30,415.74 175.65,415.50 176.00,416.70 176.35,416.81 176.70,416.43 177.05,417.47 177.40,417.75 177.75,417.19 178.10,417.12 178.45,415.97 178.80,415.37 179.15,415.13 179.50,414.97 179.85,414.63 180.20,414.42 180.55,414.96 180.90,414.88 181.25,414.74 181.60,414.53 181.95,414.34 182.30,414.27 182.65,414.11 183.00,413.94 183.35,413.61 183.70,413.40 184.05,413.64 184.40,413.74 184.75,413.33 185.10,413.53 185.45,412.18 185.80,411.61 186.15,412.76 186.50,412.89 186.85,412.70 187.20,412.23 187.55,411.37 187.90,411.65 188.25,411.76 188.60,412.50 188.95,411.57 189.30,412.39 189.65,411.67 190.00,410.24 190.35,410.23 190.70,410.48 191.05,411.02 191.40,410.37 191.75,408.15 192.10,407.03 192.45,408.63 192.80,407.40 193.15,406.55 193.50,404.27 193.85,405.12 194.20,406.57 194.55,405.86 194.90,405.32 195.25,404.92 195.60,404.04 195.95,404.15 196.30,404.54 196.65,404.44 197.00,405.00 197.35,403.63 197.70,404.44 198.05,405.34 198.40,400.77 198.75,403.74 199.10,402.79 199.45,405.74 199.80,402.72 200.15,400.76 200.50,401.54 200.85,403.00 201.20,400.92 201.55,404.87 201.90,404.92 202.25,406.15 202.60,409.82 202.95,405.31 203.30,402.54 203.65,399.49 204.00,397.11 204.35,401.68 204.70,400.05 205.05,396.97 205.40,399.71 205.75,399.95 206.10,401.95 206.45,402.80 206.80,402.46 207.15,397.63 207.50,393.51 207.85,391.40 208.20,388.89 208.55,382.64 208.90,381.45 209.25,382.13 209.60,378.26 209.95,384.94 210.30,387.16 210.65,388.44 211.00,385.19 211.35,378.35 211.70,378.62 212.05,375.35 212.40,378.03 212.75,382.26 213.10,382.83 213.45,382.51 213.80,382.80 214.15,388.31 214.50,388.74 214.85,388.86 215.20,390.74 215.55,385.75 215.90,385.92 216.25,385.32 216.60,384.43 216.95,384.39 217.30,386.40 217.65,387.63 218.00,381.94 218.35,386.03 218.70,387.59 219.05,390.60 219.40,388.71 219.75,382.04 220.10,389.44 220.45,381.54 220.80,381.95 221.15,378.71 221.50,377.84 221.85,374.94 222.20,380.04 222.55,383.57 222.90,380.46 223.25,376.97 223.60,378.97 223.95,372.50 224.30,375.87 224.65,380.90 225.00,378.89 225.35,382.09 225.70,379.91 226.05,378.39 226.40,372.98 226.75,372.99 227.10,373.20 227.45,376.45 227.80,376.71 228.15,383.99 228.50,379.83 228.85,382.45 229.20,383.89 229.55,386.69 229.90,389.95 230.25,394.24 230.60,396.06 230.95,389.70 231.30,393.73 231.65,395.60 232.00,396.25 232.35,402.99 232.70,405.52 233.05,403.75 233.40,403.53 233.75,409.99 234.10,409.66 234.45,417.83 234.80,414.17 235.15,412.84 235.50,419.24 235.85,418.64 236.20,419.89 236.55,417.79 236.90,417.36 237.25,411.94 237.60,409.82 237.95,408.32 238.30,409.87 238.65,411.22 239.00,412.08 239.35,408.86 239.70,408.59 240.05,409.87 240.40,410.57 240.75,409.27 241.10,413.35 241.45,414.30 241.80,415.50 242.15,417.35 242.50,412.43 242.85,410.12 243.20,407.90 243.55,403.76 243.90,401.93 244.25,397.33 244.60,397.59 244.95,392.76 245.30,391.22 245.65,393.89 246.00,395.12 246.35,397.49 246.70,398.30 247.05,401.58 247.40,401.03 247.75,400.44 248.10,397.77 248.45,398.10 248.80,395.40 249.15,392.42 249.50,388.13 249.85,388.28 250.20,384.28 250.55,385.94 250.90,385.50 251.25,385.24 251.60,379.86 251.95,378.47 252.30,374.12 252.65,372.33 253.00,372.53 253.35,369.06 253.70,366.94 254.05,365.98 254.40,363.41 254.75,365.37 255.10,360.88 255.45,358.53 255.80,356.15 256.15,353.61 256.50,355.93 256.85,351.77 257.20,353.70 257.55,355.27 257.90,349.66 258.25,343.47 258.60,344.75 258.95,343.57 259.30,339.29 259.65,342.06 260.00,339.44 260.35,332.81 260.70,331.66 261.05,334.65 261.40,327.90 261.75,331.66 262.10,320.93 262.45,327.46 262.80,320.28 263.15,314.28 263.50,314.09 263.85,319.33 264.20,324.37 264.55,326.26 264.90,329.18 265.25,339.35 265.60,339.42 265.95,339.42 266.30,343.76 266.65,345.29 267.00,343.92 267.35,352.75 267.70,349.37 268.05,346.31 268.40,353.82 268.75,346.96 269.10,348.42 269.45,349.82 269.80,353.49 270.15,355.61 270.50,354.03 270.85,355.04 271.20,353.66 271.55,359.73 271.90,359.89 272.25,356.93 272.60,352.41 272.95,346.87 273.30,347.62 273.65,347.16 274.00,342.66 274.35,346.73 274.70,347.18 275.05,344.34 275.40,335.80 275.75,342.39 276.10,344.70 276.45,351.91 276.80,353.29 277.15,356.80 277.50,360.72 277.85,359.68 278.20,355.48 278.55,355.48 278.90,354.52 279.25,352.63 279.60,353.89 279.95,358.03 280.30,352.79 280.65,353.24 281.00,354.93 281.35,354.83 281.70,350.61 282.05,352.19 282.40,352.93 282.75,351.88 283.10,347.80 283.45,346.96 283.80,348.48 284.15,347.74 284.50,345.72 284.85,341.74 285.20,340.34 285.55,339.46 285.90,339.71 286.25,342.79 286.60,343.72 286.95,347.55 287.30,343.33 287.65,341.30 288.00,339.89 288.35,343.79 288.70,347.13 289.05,342.44 289.40,340.92 289.75,338.39 290.10,335.82 290.45,338.31 290.80,340.92 291.15,332.24 291.50,325.00 291.85,326.79 292.20,326.88 292.55,322.86 292.90,322.99 293.25,322.53 293.60,326.62 293.95,326.20 294.30,328.58 294.65,332.81 295.00,333.56 295.35,326.15 295.70,329.81 296.05,334.12 296.40,328.12 296.75,337.53 297.10,337.83 297.45,335.40 297.80,338.34 298.15,341.74 298.50,342.40 298.85,343.50 299.20,341.08 299.55,330.20 299.90,333.85 300.25,332.07 300.60,335.51 300.95,331.20 301.30,331.58 301.65,329.72 302.00,324.24 302.35,326.82 302.70,326.89 303.05,325.53 303.40,320.81 303.75,316.68 304.10,317.32 304.45,323.30 304.80,325.92 305.15,325.39 305.50,327.33 305.85,327.64 306.20,330.67 306.55,323.37 306.90,324.59 307.25,331.62 307.60,329.52 307.95,334.95 308.30,335.43 308.65,339.34 309.00,340.49 309.35,339.83 309.70,343.00 310.05,344.03 310.40,349.72 310.75,347.70 311.10,348.47 311.45,354.79 311.80,351.02 312.15,350.82 312.50,352.81 312.85,352.93 313.20,356.36 313.55,352.04 313.90,347.71 314.25,350.60 314.60,343.23 314.95,345.16 315.30,347.68 315.65,349.09 316.00,343.21 316.35,341.21 316.70,339.42 317.05,334.68 317.40,334.53 317.75,341.53 318.10,335.08 318.45,329.90 318.80,326.71 319.15,325.59 319.50,322.46 319.85,317.36 320.20,319.49 320.55,316.39 320.90,314.24 321.25,313.64 321.60,317.14 321.95,319.87 322.30,322.02 322.65,312.74 323.00,315.86 323.35,314.84 323.70,319.54 324.05,317.77 324.40,317.45 324.75,318.99 325.10,318.13 325.45,319.86 325.80,318.99 326.15,313.43 326.50,312.04 326.85,307.55 327.20,307.78 327.55,305.30 327.90,311.14 328.25,311.18 328.60,313.65 328.95,312.92 329.30,314.34 329.65,316.19 330.00,314.87 330.35,317.90 330.70,322.66 331.05,323.54 331.40,315.51 331.75,317.14 332.10,318.18 332.45,310.46 332.80,310.75 333.15,307.75 333.50,294.70 333.85,290.64 334.20,286.92 334.55,291.72 334.90,286.59 335.25,291.26 335.60,283.91 335.95,284.42 336.30,289.54 336.65,290.22 337.00,289.76 337.35,288.71 337.70,289.22 338.05,287.13 338.40,285.01 338.75,295.33 339.10,288.09 339.45,283.45 339.80,279.43 340.15,277.50 340.50,277.68 340.85,280.34 341.20,279.29 341.55,272.15 341.90,277.55 342.25,288.45 342.60,276.20 342.95,265.38 343.30,262.19 343.65,269.78 344.00,268.94 344.35,268.42 344.70,269.45 345.05,271.61 345.40,272.48 345.75,263.52 346.10,265.29 346.45,265.74 346.80,259.93 347.15,248.63 347.50,249.97 347.85,252.42 348.20,242.64 348.55,250.51 348.90,240.42 349.25,232.50 349.60,226.42 349.95,221.42 350.30,212.99 350.65,208.21 351.00,208.61 351.35,207.24 351.70,202.08 352.05,189.06 352.40,185.66 352.75,185.41 353.10,178.92 353.45,180.06 353.80,172.86 354.15,182.24 354.50,170.57 354.85,159.92 355.20,160.69 355.55,165.73 355.90,169.35 356.25,195.34 356.60,202.27 356.95,197.30 357.30,187.08 357.65,197.34 358.00,196.12 358.35,200.68 358.70,200.06 359.05,189.30 359.40,187.25 359.75,182.14 360.10,191.74 360.45,189.11 360.80,189.73 361.15,189.85 361.50,194.49 361.85,190.98 362.20,197.33 362.55,187.07 362.90,189.45 363.25,200.32 363.60,198.64 363.95,193.07 364.30,188.01 364.65,197.23 365.00,205.05 365.35,207.84 365.70,209.72 366.05,222.34 366.40,230.39 366.75,225.57 367.10,234.92 367.45,237.22 367.80,239.78 368.15,250.05 368.50,246.98 368.85,242.20 369.20,227.10 369.55,216.33 369.90,212.00 370.25,212.13 370.60,208.88 370.95,214.15 371.30,197.48 371.65,186.10 372.00,185.83 372.35,181.46 372.70,180.78 373.05,187.38 373.40,192.69 373.75,195.15 374.10,190.38 374.45,195.47 374.80,198.01 375.15,195.74 375.50,189.63 375.85,186.15 376.20,177.94 376.55,175.57 376.90,173.09 377.25,175.64 377.60,170.89 377.95,171.55 378.30,170.94 378.65,174.30 379.00,178.97 379.35,172.31 379.70,183.93 380.05,180.93 380.40,172.69 380.75,170.16 381.10,172.03 381.45,170.28 381.80,169.75 382.15,174.62 382.50,174.53 382.85,174.19 383.20,168.94 383.55,175.21 383.90,172.69 384.25,177.67 384.60,180.38 384.95,186.54 385.30,184.46 385.65,185.20 386.00,185.36 386.35,184.60 386.70,188.79 387.05,182.93 387.40,181.41 387.75,181.33 388.10,181.08 388.45,190.71 388.80,193.44 389.15,191.44 389.50,193.11 389.85,186.76 390.20,185.80 390.55,191.51 390.90,193.92 391.25,190.86 391.60,197.21 391.95,201.36 392.30,196.70 392.65,192.92 393.00,189.90 393.35,189.40 393.70,195.32 394.05,205.38 394.40,194.83 394.75,196.73 395.10,190.99 395.45,196.29 395.80,194.29 396.15,187.88 396.50,191.25 396.85,194.34 397.20,197.80 397.55,195.63 397.90,204.01 398.25,206.02 398.60,205.99 398.95,203.73 399.30,203.71 399.65,200.39 400.00,198.29 400.35,195.39 400.70,193.58 401.05,197.05 401.40,193.73 401.75,192.55 402.10,190.59 402.45,188.59 402.80,186.14 403.15,185.51 403.50,184.35 403.85,189.20 404.20,192.79 404.55,192.52 404.90,187.56 405.25,185.61 405.60,192.48 405.95,186.00 406.30,183.76 406.65,186.43 407.00,182.01 407.35,181.22 407.70,182.78 408.05,191.03 408.40,192.97 408.75,192.66 409.10,200.99 409.45,201.72 409.80,204.18 410.15,206.10 410.50,206.45 410.85,205.40 411.20,205.94 411.55,203.88 411.90,205.63 412.25,203.19 412.60,200.66 412.95,199.32 413.30,200.10 413.65,202.86 414.00,201.91 414.35,200.34 414.70,202.59 415.05,201.40 415.40,204.36 415.75,201.98 416.10,200.42 416.45,197.36 416.80,196.64 417.15,193.86 417.50,196.03 417.85,198.87 418.20,201.96 418.55,201.09 418.90,202.40 419.25,203.75 419.60,206.29 419.95,208.87 420.30,209.55 420.65,209.89 421.00,210.81 421.35,211.72 421.70,210.66 422.05,212.55 422.40,215.54 422.75,215.41 423.10,216.05 423.45,215.77 423.80,215.77 424.15,215.20 424.50,216.64 424.85,215.60 425.20,216.53 425.55,216.60 425.90,214.29 426.25,214.59 426.60,213.20 426.95,212.52 427.30,211.48 427.65,211.91 428.00,212.28 428.35,212.53 428.70,212.98 429.05,213.68 429.40,211.58 429.75,210.87 430.10,209.99 430.45,209.65 430.80,209.09 431.15,208.98 431.50,208.92 431.85,208.68 432.20,208.42 432.55,207.98 432.90,207.79 433.25,207.69 433.60,207.69 433.95,207.50 434.30,207.52 434.65,207.38 435.00,207.26 435.35,207.44 435.70,207.43 436.05,207.18 436.40,207.12 436.75,207.44 437.10,207.46 437.45,207.19 437.80,207.41 438.15,207.26 438.50,207.21 438.85,207.31 439.20,207.38 439.55,207.25 439.90,207.25 440.25,207.07 440.60,207.09 440.95,206.95 441.30,206.87 441.65,206.82 442.00,206.95 442.35,206.53 442.70,205.93 443.05,205.28 443.40,204.63 443.75,203.75 444.10,204.12 444.45,204.61 444.80,203.33 445.15,204.22 445.50,203.75 445.85,203.33 446.20,202.95 446.55,202.73 446.90,204.27 447.25,203.40 447.60,204.17 447.95,202.65 448.30,202.34 448.65,204.86 449.00,204.81 449.35,204.02 449.70,200.84 450.05,198.91 450.40,197.55 450.75,199.08 451.10,200.35 451.45,196.49 451.80,196.77 452.15,196.50 452.50,198.69 452.85,197.54 453.20,194.40 453.55,193.07 453.90,192.32 454.25,191.15 454.60,188.51 454.95,185.64 455.30,185.72 455.65,185.04 456.00,185.89 456.35,185.05 456.70,181.81 457.05,179.87 457.40,179.81 457.75,180.25 458.10,176.57 458.45,176.15 458.80,180.14 459.15,178.16 459.50,179.41 459.85,174.67 460.20,171.32 460.55,171.21 460.90,173.91 461.25,176.24 461.60,176.67 461.95,177.64 462.30,172.85 462.65,176.64 463.00,181.41 463.35,180.92 463.70,180.28 464.05,185.64 464.40,183.75 464.75,184.04 465.10,183.04 465.45,184.82 465.80,184.35 466.15,188.46 466.50,184.68 466.85,182.63 467.20,184.17 467.55,181.12 467.90,177.31 468.25,176.51 468.60,181.37 468.95,177.17 469.30,173.61 469.65,168.53 470.00,168.55 470.35,169.02 470.70,164.75 471.05,161.34 471.40,160.40 471.75,165.64 472.10,167.44 472.45,171.88 472.80,171.00 473.15,168.18 473.50,167.11 473.85,169.39 474.20,168.47 474.55,169.76 474.90,161.16 475.25,160.92 475.60,156.78 475.95,163.44 476.30,162.99 476.65,163.28 477.00,161.70 477.35,158.74 477.70,160.60 478.05,161.72 478.40,159.23 478.75,168.11 479.10,169.25 479.45,169.68 479.80,167.25 480.15,172.38 480.50,178.17 480.85,173.22 481.20,175.84 481.55,177.36 481.90,178.14 482.25,179.41 482.60,176.89 482.95,169.47 483.30,165.08 483.65,159.30 484.00,158.63 484.35,157.35 484.70,155.42 485.05,157.90 485.40,162.04 485.75,161.75 486.10,157.87 486.45,154.48 486.80,160.36 487.15,158.60 487.50,163.00 487.85,155.82 488.20,156.80 488.55,156.07 488.90,154.66 489.25,150.01 489.60,150.19 489.95,148.34 490.30,147.10 490.65,140.86 491.00,141.85 491.35,148.56 491.70,155.20 492.05,157.51 492.40,161.14 492.75,159.79 493.10,163.88 493.45,160.24 493.80,165.12 494.15,161.57 494.50,161.04 494.85,151.06 495.20,145.80 495.55,142.65 495.90,144.68 496.25,147.42 496.60,148.08 496.95,156.53 497.30,158.06 497.65,156.87 498.00,156.61 498.35,151.44 498.70,158.91 499.05,155.15 499.40,148.54 499.75,151.63 500.10,155.19 500.45,162.32 500.80,167.67 501.15,165.86 501.50,170.82 501.85,177.79 502.20,180.67 502.55,175.86 502.90,177.55 503.25,177.00 503.60,175.39 503.95,177.09 504.30,184.00 504.65,182.08 505.00,175.07 505.35,171.12 505.70,171.88 506.05,172.54 506.40,165.99 506.75,166.30 507.10,164.64 507.45,164.18 507.80,161.80 508.15,165.03 508.50,172.39 508.85,166.58 509.20,161.26 509.55,161.40 509.90,165.19 510.25,170.04 510.60,166.62 510.95,160.74 511.30,158.78 511.65,151.07 512.00,154.51 512.35,153.32 512.70,150.35 513.05,145.31 513.40,145.34 513.75,141.61 514.10,147.85 514.45,154.01 514.80,149.99 515.15,148.47 515.50,153.38 515.85,151.94 516.20,157.47 516.55,157.94 516.90,153.41 517.25,152.55 517.60,146.39 517.95,150.07 518.30,152.37 518.65,152.06 519.00,157.42 519.35,145.42 519.70,145.32 520.05,154.79 520.40,161.15 520.75,163.98 521.10,159.19 521.45,161.45 521.80,160.94 522.15,162.87 522.50,158.75 522.85,157.09 523.20,156.20 523.55,154.79 523.90,156.98 524.25,160.39 524.60,166.07 524.95,163.21 525.30,160.68 525.65,158.79 526.00,158.50 526.35,161.09 526.70,158.90 527.05,155.35 527.40,152.99 527.75,152.77 528.10,151.96 528.45,152.92 528.80,161.03 529.15,164.19 529.50,169.96 529.85,170.20 530.20,171.80 530.55,175.34 530.90,172.00 531.25,164.90 531.60,164.01 531.95,162.66 532.30,159.93 532.65,164.00 533.00,167.48 533.35,168.60 533.70,175.62 534.05,175.69 534.40,176.34 534.75,177.02 535.10,181.50 535.45,176.32 535.80,175.35 536.15,180.25 536.50,179.90 536.85,179.30 537.20,178.02 537.55,179.48 537.90,180.98 538.25,179.28 538.60,177.49 538.95,177.04 539.30,175.09 539.65,176.95 540.00,177.20 540.35,176.99 540.70,174.39 541.05,175.17 541.40,179.04 541.75,177.55 542.10,179.03 542.45,180.10 542.80,182.00 543.15,181.53 543.50,182.95 543.85,182.20 544.20,179.71 544.55,177.49 544.90,175.04 545.25,175.13 545.60,177.05 545.95,174.99 546.30,174.77 546.65,175.95 547.00,174.67 547.35,174.15 547.70,173.71 548.05,170.52 548.40,171.13 548.75,169.10 549.10,168.46 549.45,169.15 549.80,166.92 550.15,164.73 550.50,163.84 550.85,162.25 551.20,164.14 551.55,164.95 551.90,164.59 552.25,162.16 552.60,163.48 552.95,164.26 553.30,163.47 553.65,160.27 554.00,157.67 554.35,158.17 554.70,157.82 555.05,156.50 555.40,159.34 555.75,156.14 556.10,160.02 556.45,153.22 556.80,151.87 557.15,153.12 557.50,156.63 557.85,162.03 558.20,160.20 558.55,159.30 558.90,156.62 559.25,160.88 559.60,161.74 559.95,164.85 560.30,162.30 560.65,161.45 561.00,162.31 561.35,161.62 561.70,165.46 562.05,163.06 562.40,170.20 562.75,170.00 563.10,172.40 563.45,174.41 563.80,172.17 564.15,176.38 564.50,173.41 564.85,172.61 565.20,175.40 565.55,178.02 565.90,175.61 566.25,174.55 566.60,179.41 566.95,181.52 567.30,179.42 567.65,177.06 568.00,178.52 568.35,178.76 568.70,182.79 569.05,183.05 569.40,183.75 569.75,183.63 570.10,181.44 570.45,180.25 570.80,178.21 571.15,176.04 571.50,177.33 571.85,179.73 572.20,177.75 572.55,180.46 572.90,181.56 573.25,182.17 573.60,182.21 573.95,181.11 574.30,178.17 574.65,179.12 575.00,177.06 575.35,177.20 575.70,177.76 576.05,176.69 576.40,176.90 576.75,175.51 577.10,176.85 577.45,177.89 577.80,177.31 578.15,177.01 578.50,175.64 578.85,174.91 579.20,175.11 579.55,173.76 579.90,172.20 580.25,172.91 580.60,172.88 580.95,173.67 581.30,174.38 581.65,173.08 582.00,173.56 582.35,173.81 582.70,172.59 583.05,173.84 583.40,173.13 583.75,171.99 584.10,170.18 584.45,167.22 584.80,166.43 585.15,164.82 585.50,164.84 585.85,160.59 586.20,159.66 586.55,157.28 586.90,153.61 587.25,148.86 587.60,146.98 587.95,148.99 588.30,149.88 588.65,148.21 589.00,150.21 589.35,149.99 589.70,146.00 590.05,150.01 590.40,148.78 590.75,151.23 591.10,151.82 591.45,143.97 591.80,145.18 592.15,149.15 592.50,143.93 592.85,139.32 593.20,137.96 593.55,139.51 593.90,141.80 594.25,141.91 594.60,143.39 594.95,145.13 595.30,147.05 595.65,142.49 596.00,141.93 596.35,139.38 596.70,142.07 597.05,147.30 597.40,153.52 597.75,157.59 598.10,155.00 598.45,147.06 598.80,151.14 599.15,151.78 599.50,147.99 599.85,142.46 600.20,148.63 600.55,147.43 600.90,142.52 601.25,138.22 601.60,134.92 601.95,137.74 602.30,135.89 602.65,129.82 603.00,130.56 603.35,132.31 603.70,138.63 604.05,147.52 604.40,147.41 604.75,144.53 605.10,149.39 605.45,149.92 605.80,146.57 606.15,142.06 606.50,146.01 606.85,145.56 607.20,152.80 607.55,157.67 607.90,161.03 608.25,162.01 608.60,167.30 608.95,164.58 609.30,157.05 609.65,162.00 610.00,168.80 610.35,169.01 610.70,167.05 611.05,169.61 611.40,173.70 611.75,174.81 612.10,170.78 612.45,163.25 612.80,158.45 613.15,157.09 613.50,156.07 613.85,157.17 614.20,162.30 614.55,165.99 614.90,167.08 615.25,165.94 615.60,159.81 615.95,159.40 616.30,162.08 616.65,158.67 617.00,161.64 617.35,161.44 617.70,165.72 618.05,174.28 618.40,178.83 618.75,181.96 619.10,181.57 619.45,182.34 619.80,186.29 620.15,190.87 620.50,190.36 620.85,189.76 621.20,188.04 621.55,189.02 621.90,190.68 622.25,194.20 622.60,194.96 622.95,187.52 623.30,183.64 623.65,183.88 624.00,184.15 624.35,184.55 624.70,187.18 625.05,187.68 625.40,186.28 625.75,187.53 626.10,190.90 626.45,185.94 626.80,186.19 627.15,183.47 627.50,180.20 627.85,179.47 628.20,178.03 628.55,175.71 628.90,177.85 629.25,175.07 629.60,176.93 629.95,175.97 630.30,175.06 630.65,174.78 631.00,173.69 631.35,179.67 631.70,177.25 632.05,181.72 632.40,183.23 632.75,182.00 633.10,182.07 633.45,179.21 633.80,176.60 634.15,182.00 634.50,180.49 634.85,178.07 635.20,184.20 635.55,189.18 635.90,186.59 636.25,187.94 636.60,187.25 636.95,185.43 637.30,182.52 637.65,183.95 638.00,187.08 638.35,188.27 638.70,189.36 639.05,190.50 639.40,192.29 639.75,192.70 640.10,189.46 640.45,188.91 640.80,187.61 641.15,188.91 641.50,185.19 641.85,185.27 642.20,188.37 642.55,188.02 642.90,188.64 643.25,191.99 643.60,193.04 643.95,191.50 644.30,192.28 644.65,192.29 645.00,192.48 645.35,191.20 645.70,191.80 646.05,192.31 646.40,191.85 646.75,193.23 647.10,192.37 647.45,192.37 647.80,193.18 648.15,191.91 648.50,192.05 648.85,192.52 649.20,192.06 649.55,192.05 649.90,192.10 650.25,191.88 650.60,191.30 650.95,190.57 651.30,190.11 651.65,190.45 652.00,190.36 652.35,190.45 652.70,190.27 653.05,190.11 653.40,189.92 653.75,189.84 654.10,189.82 654.45,189.82 654.80,189.81 655.15,189.78 655.50,189.76 655.85,189.81 656.20,189.59 656.55,189.69 656.90,189.77 657.25,189.47 657.60,189.05 657.95,188.16 658.30,187.93 658.65,188.21 659.00,188.41 659.35,187.95 659.70,186.89 660.05,187.70 660.40,187.70 660.75,188.27 661.10,188.02 661.45,188.21 661.80,188.28 662.15,186.88 662.50,185.19 662.85,186.03 663.20,184.89 663.55,184.50 663.90,184.14 664.25,184.68 664.60,183.39 664.95,183.79 665.30,181.92 665.65,179.67 666.00,178.79 666.35,178.18 666.70,177.94 667.05,178.59 667.40,178.22 667.75,177.74 668.10,179.04 668.45,175.83 668.80,173.82 669.15,171.87 669.50,171.53 669.85,171.78 670.20,172.74 670.55,173.50 670.90,172.67 671.25,169.32 671.60,169.50 671.95,170.74 672.30,169.02 672.65,170.74 673.00,168.83 673.35,164.46 673.70,161.34 674.05,161.87 674.40,159.86 674.75,159.65 675.10,157.58 675.45,156.70 675.80,158.91 676.15,161.54 676.50,160.44 676.85,165.20 677.20,164.27 677.55,167.10 677.90,167.28 678.25,172.32 678.60,174.59 678.95,170.39 679.30,170.80 679.65,171.65 680.00,171.74 680.35,168.99 680.70,167.55 681.05,169.37 681.40,170.54 681.75,173.77 682.10,171.65 682.45,171.32 682.80,177.89 683.15,181.22 683.50,178.26 683.85,172.31 684.20,171.90 684.55,168.87 684.90,165.91 685.25,163.56 685.60,167.05 685.95,166.65 686.30,168.40 686.65,166.65 687.00,167.48 687.35,165.59 687.70,163.63 688.05,170.01 688.40,174.88 688.75,170.63 689.10,176.27 689.45,180.96 689.80,179.24 690.15,175.15 690.50,179.40 690.85,177.40 691.20,171.90 691.55,172.24 691.90,171.19 692.25,172.93 692.60,171.10 692.95,169.40 693.30,174.29 693.65,179.22 694.00,172.99 694.35,174.43 694.70,171.68 695.05,175.15 695.40,172.19 695.75,169.50 696.10,173.03 696.45,179.13 696.80,181.13 697.15,183.68 697.50,182.03 697.85,180.70 698.20,183.40 698.55,181.14 698.90,184.90 699.25,179.36 699.60,179.50 699.95,179.84 700.30,183.61 700.65,184.39 701.00,182.82 701.35,179.07 701.70,177.32 702.05,174.31 702.40,176.49 702.75,177.29 703.10,180.93 703.45,181.70 703.80,175.58 704.15,170.20 704.50,174.41 704.85,172.40 705.20,178.50 705.55,177.49 705.90,181.25 706.25,184.16 706.60,185.09 706.95,183.76 707.30,186.78 707.65,188.07 708.00,188.54 708.35,186.03 708.70,188.60 709.05,191.94 709.40,189.74 709.75,188.43 710.10,190.30 710.45,189.12 710.80,190.73 711.15,192.63 711.50,193.85 711.85,194.54 712.20,194.39 712.55,196.00 712.90,196.50 713.25,195.29 713.60,194.45 713.95,194.63 714.30,193.74 714.65,194.47 715.00,193.53 715.35,194.22 715.70,191.65 716.05,193.12 716.40,192.74 716.75,190.86 717.10,190.32 717.45,189.76 717.80,190.71 718.15,190.74 718.50,190.70 718.85,189.60 719.20,189.04 719.55,188.55 719.90,187.95 720.25,188.35 720.60,187.97 720.95,188.68 721.30,188.39 721.65,188.34 722.00,187.42 722.35,187.42 722.70,187.22 723.05,186.32 723.40,185.25 723.75,185.68 724.10,187.15 724.45,186.57 724.80,184.56 725.15,185.43 725.50,185.30 725.85,185.55 726.20,184.35 726.55,183.57 726.90,183.31 727.25,184.50 727.60,183.67 727.95,181.64 728.30,180.45 728.65,178.98 729.00,181.16 729.35,182.93 729.70,183.71 730.05,183.82 730.40,183.00 730.75,181.06 731.10,180.85 731.45,182.82 731.80,183.14 732.15,186.90 732.50,184.72 732.85,186.52 733.20,186.32 733.55,187.12 733.90,184.68 734.25,183.00 734.60,181.70 734.95,180.47 735.30,177.34 735.65,179.59 736.00,181.50 736.35,180.19 736.70,180.43 737.05,181.19 737.40,182.40 737.75,182.38 738.10,182.04 738.45,182.64 738.80,184.12 739.15,187.54 739.50,188.56 739.85,188.06 740.20,188.75 740.55,188.43 740.90,188.53 741.25,189.56 741.60,189.07 741.95,187.94 742.30,188.49 742.65,189.20 743.00,188.28 743.35,188.32 743.70,188.52 744.05,188.26 744.40,189.06 744.75,187.62 745.10,186.74 745.45,187.43 745.80,187.71 746.15,186.57 746.50,187.37 746.85,188.30 747.20,188.29 747.55,188.51 747.90,187.77 748.25,188.55 748.60,187.43 748.95,187.24 749.30,186.93 749.65,187.30 750.00,187.75 750.35,187.51 750.70,187.31 751.05,187.59 751.40,188.88 751.75,187.05 752.10,186.84 752.45,186.23 752.80,185.98 753.15,185.94 753.50,186.35 753.85,187.68 754.20,187.56 754.55,187.58 754.90,186.70 755.25,186.45 755.60,188.34 755.95,186.70 756.30,184.80 756.65,183.84 757.00,186.28 757.35,188.38 757.70,188.82 758.05,188.92 758.40,189.71 758.75,189.39 759.10,188.38 759.45,190.41 759.80,188.92 760.15,188.70 760.50,186.94 760.85,187.48 761.20,186.84 761.55,188.41 761.90,187.31 762.25,187.92 762.60,187.12 762.95,185.51 763.30,184.37 763.65,184.76 764.00,185.80 764.35,185.41 764.70,185.35 765.05,185.25 765.40,185.21 765.75,186.17 766.10,188.18 766.45,188.79 766.80,189.26 767.15,190.70 767.50,189.74 767.85,190.41 768.20,189.41 768.55,188.51 768.90,189.33 769.25,190.68 769.60,190.30 769.95,189.25 770.30,189.99 770.65,190.95 771.00,190.46 771.35,191.01 771.70,190.59 772.05,190.33 772.40,190.27 772.75,190.43 773.10,190.39 773.45,190.57 773.80,190.31 774.15,190.18 774.50,189.98 774.85,189.86 775.20,189.85 775.55,189.79 775.90,189.82 776.25,189.73 776.60,189.68 776.95,189.60 777.30,189.27 777.65,189.48 778.00,189.45 778.35,189.36 778.70,188.67 779.05,187.74 779.40,188.18 779.75,188.11 780.10,188.84 780.45,188.66 780.80,189.33 781.15,189.49 781.50,187.72 781.85,187.71 782.20,188.25 782.55,187.75 782.90,188.05 783.25,190.15 783.60,190.26 783.95,189.78 784.30,190.56 784.65,190.78 785.00,191.48 785.00,191.07"/>
<line x1="813" y1="78" x2="839" y2="78" stroke="#dc2626" stroke-width="3"/>
<text x="847" y="82" font-family="Arial" font-size="13" fill="#111827">high volatility</text>
<polyline fill="none" stroke="#059669" stroke-width="2" points="85.00,408.10 85.35,408.07 85.70,408.04 86.05,408.00 86.40,407.97 86.75,407.96 87.10,407.94 87.45,407.91 87.80,407.89 88.15,407.87 88.50,407.85 88.85,407.81 89.20,407.79 89.55,407.77 89.90,407.74 90.25,407.73 90.60,407.70 90.95,407.67 91.30,407.64 91.65,407.61 92.00,407.58 92.35,407.55 92.70,407.54 93.05,407.51 93.40,407.48 93.75,407.43 94.10,407.37 94.45,407.37 94.80,407.37 95.15,407.25 95.50,407.18 95.85,407.16 96.20,406.94 96.55,406.66 96.90,406.37 97.25,406.24 97.60,406.25 97.95,406.27 98.30,405.51 98.65,405.80 99.00,405.92 99.35,405.67 99.70,404.76 100.05,404.83 100.40,404.40 100.75,404.16 101.10,404.27 101.45,403.52 101.80,403.12 102.15,403.26 102.50,403.42 102.85,403.28 103.20,402.99 103.55,402.90 103.90,402.46 104.25,402.90 104.60,402.27 104.95,401.23 105.30,401.47 105.65,401.96 106.00,402.84 106.35,402.89 106.70,402.67 107.05,401.82 107.40,402.26 107.75,401.66 108.10,401.04 108.45,401.81 108.80,400.81 109.15,400.43 109.50,399.68 109.85,400.27 110.20,399.72 110.55,401.33 110.90,401.65 111.25,401.88 111.60,400.81 111.95,402.36 112.30,400.86 112.65,401.91 113.00,402.03 113.35,402.66 113.70,401.79 114.05,403.92 114.40,404.30 114.75,404.31 115.10,403.38 115.45,403.26 115.80,403.99 116.15,404.01 116.50,405.33 116.85,404.22 117.20,404.55 117.55,401.53 117.90,403.74 118.25,403.38 118.60,404.66 118.95,403.39 119.30,403.00 119.65,403.26 120.00,401.68 120.35,400.81 120.70,402.46 121.05,402.04 121.40,402.48 121.75,402.91 122.10,403.32 122.45,403.94 122.80,404.19 123.15,403.81 123.50,404.00 123.85,405.04 124.20,406.08 124.55,408.04 124.90,408.19 125.25,407.82 125.60,406.85 125.95,405.94 126.30,406.51 126.65,406.86 127.00,406.70 127.35,406.88 127.70,407.02 128.05,406.40 128.40,406.38 128.75,406.58 129.10,406.62 129.45,407.09 129.80,407.18 130.15,407.10 130.50,406.67 130.85,406.12 131.20,406.20 131.55,406.15 131.90,405.38 132.25,405.79 132.60,405.61 132.95,405.37 133.30,405.62 133.65,405.55 134.00,405.68 134.35,405.55 134.70,405.90 135.05,405.77 135.40,405.87 135.75,405.88 136.10,406.02 136.45,405.87 136.80,405.65 137.15,405.53 137.50,405.60 137.85,405.90 138.20,405.98 138.55,405.94 138.90,406.15 139.25,406.37 139.60,406.20 139.95,406.54 140.30,406.34 140.65,406.23 141.00,406.15 141.35,406.01 141.70,405.99 142.05,405.89 142.40,405.90 142.75,405.81 143.10,405.78 143.45,405.79 143.80,405.75 144.15,405.72 144.50,405.85 144.85,405.82 145.20,405.89 145.55,405.81 145.90,405.78 146.25,405.72 146.60,405.73 146.95,405.69 147.30,405.66 147.65,405.57 148.00,405.54 148.35,405.50 148.70,405.39 149.05,405.40 149.40,405.40 149.75,405.42 150.10,405.40 150.45,405.34 150.80,405.30 151.15,405.18 151.50,405.20 151.85,405.25 152.20,405.24 152.55,405.21 152.90,405.21 153.25,405.14 153.60,405.12 153.95,405.13 154.30,405.15 154.65,405.09 155.00,404.99 155.35,404.94 155.70,404.96 156.05,404.87 156.40,404.89 156.75,404.85 157.10,404.87 157.45,404.83 157.80,404.82 158.15,404.71 158.50,404.66 158.85,404.72 159.20,404.67 159.55,404.61 159.90,404.56 160.25,404.55 160.60,404.50 160.95,404.37 161.30,404.20 161.65,404.13 162.00,404.19 162.35,404.30 162.70,404.33 163.05,404.40 163.40,404.61 163.75,404.72 164.10,404.75 164.45,404.93 164.80,405.35 165.15,405.48 165.50,405.50 165.85,405.54 166.20,405.80 166.55,405.75 166.90,405.81 167.25,405.72 167.60,405.72 167.95,405.65 168.30,405.59 168.65,405.52 169.00,405.42 169.35,405.23 169.70,405.14 170.05,404.90 170.40,404.93 170.75,404.99 171.10,405.17 171.45,404.90 171.80,405.20 172.15,405.30 172.50,405.10 172.85,405.04 173.20,404.73 173.55,405.00 173.90,404.75 174.25,404.38 174.60,404.88 174.95,405.14 175.30,404.96 175.65,404.14 176.00,404.15 176.35,404.02 176.70,404.25 177.05,403.52 177.40,403.41 177.75,403.70 178.10,403.97 178.45,402.15 178.80,402.28 179.15,403.15 179.50,402.39 179.85,402.19 180.20,400.61 180.55,400.37 180.90,399.05 181.25,397.11 181.60,395.74 181.95,397.01 182.30,397.14 182.65,396.79 183.00,397.64 183.35,396.63 183.70,395.11 184.05,395.88 184.40,395.34 184.75,395.07 185.10,395.56 185.45,395.56 185.80,393.88 186.15,395.18 186.50,392.69 186.85,393.41 187.20,391.66 187.55,388.95 187.90,391.88 188.25,389.93 188.60,391.22 188.95,389.89 189.30,391.43 189.65,390.73 190.00,390.23 190.35,388.74 190.70,389.11 191.05,394.05 191.40,394.97 191.75,396.39 192.10,394.85 192.45,394.89 192.80,390.62 193.15,389.74 193.50,391.54 193.85,391.84 194.20,392.80 194.55,390.36 194.90,393.44 195.25,395.29 195.60,394.63 195.95,394.32 196.30,393.71 196.65,394.68 197.00,395.94 197.35,402.58 197.70,402.80 198.05,403.82 198.40,401.92 198.75,403.53 199.10,405.41 199.45,405.74 199.80,402.22 200.15,402.25 200.50,403.12 200.85,402.24 201.20,398.06 201.55,399.60 201.90,396.98 202.25,397.78 202.60,394.84 202.95,393.55 203.30,392.55 203.65,394.06 204.00,392.59 204.35,390.16 204.70,394.10 205.05,395.78 205.40,396.30 205.75,398.51 206.10,396.01 206.45,399.84 206.80,396.94 207.15,395.81 207.50,394.45 207.85,392.23 208.20,392.72 208.55,392.10 208.90,390.38 209.25,390.73 209.60,391.46 209.95,391.49 210.30,391.12 210.65,395.33 211.00,395.77 211.35,395.41 211.70,397.42 212.05,400.28 212.40,401.80 212.75,397.25 213.10,393.92 213.45,393.44 213.80,388.75 214.15,389.63 214.50,390.04 214.85,390.62 215.20,389.45 215.55,393.93 215.90,389.81 216.25,389.61 216.60,386.01 216.95,382.76 217.30,381.91 217.65,383.06 218.00,382.20 218.35,383.34 218.70,388.08 219.05,386.68 219.40,384.19 219.75,387.51 220.10,385.91 220.45,385.10 220.80,388.22 221.15,389.51 221.50,388.37 221.85,385.70 222.20,387.18 222.55,387.11 222.90,385.69 223.25,383.32 223.60,378.66 223.95,381.02 224.30,377.41 224.65,373.22 225.00,370.41 225.35,371.72 225.70,365.54 226.05,364.46 226.40,365.58 226.75,364.72 227.10,362.64 227.45,360.71 227.80,358.75 228.15,360.66 228.50,364.23 228.85,366.91 229.20,370.70 229.55,369.46 229.90,373.38 230.25,369.01 230.60,374.19 230.95,370.89 231.30,369.15 231.65,366.42 232.00,366.88 232.35,365.89 232.70,369.77 233.05,372.99 233.40,370.54 233.75,372.84 234.10,376.13 234.45,376.23 234.80,375.57 235.15,376.72 235.50,381.25 235.85,375.22 236.20,373.39 236.55,371.16 236.90,366.76 237.25,361.53 237.60,362.23 237.95,360.51 238.30,359.88 238.65,356.58 239.00,353.98 239.35,356.72 239.70,353.19 240.05,348.20 240.40,349.33 240.75,349.71 241.10,348.93 241.45,356.30 241.80,355.87 242.15,359.62 242.50,364.98 242.85,362.22 243.20,364.95 243.55,369.49 243.90,373.51 244.25,373.29 244.60,374.77 244.95,369.93 245.30,360.52 245.65,360.79 246.00,365.81 246.35,365.53 246.70,357.75 247.05,356.67 247.40,361.39 247.75,367.92 248.10,374.08 248.45,369.03 248.80,370.28 249.15,375.38 249.50,374.42 249.85,368.07 250.20,376.56 250.55,365.19 250.90,365.24 251.25,359.76 251.60,355.77 251.95,350.23 252.30,350.23 252.65,351.13 253.00,351.96 253.35,354.26 253.70,357.58 254.05,358.74 254.40,359.51 254.75,361.56 255.10,357.64 255.45,367.65 255.80,369.52 256.15,355.75 256.50,357.72 256.85,355.21 257.20,365.46 257.55,362.84 257.90,358.03 258.25,360.81 258.60,359.37 258.95,354.49 259.30,357.98 259.65,361.70 260.00,365.07 260.35,354.92 260.70,362.13 261.05,355.50 261.40,354.94 261.75,349.61 262.10,349.05 262.45,349.94 262.80,348.53 263.15,347.28 263.50,350.84 263.85,350.81 264.20,342.53 264.55,336.72 264.90,335.68 265.25,330.30 265.60,339.17 265.95,345.74 266.30,344.65 266.65,341.57 267.00,346.83 267.35,343.87 267.70,345.27 268.05,354.69 268.40,353.43 268.75,358.53 269.10,360.77 269.45,361.97 269.80,369.83 270.15,371.64 270.50,366.07 270.85,367.01 271.20,368.92 271.55,362.01 271.90,359.54 272.25,357.58 272.60,359.31 272.95,350.96 273.30,356.66 273.65,352.23 274.00,357.27 274.35,356.65 274.70,348.36 275.05,359.89 275.40,358.20 275.75,354.09 276.10,353.73 276.45,349.71 276.80,357.04 277.15,354.79 277.50,351.60 277.85,350.61 278.20,346.58 278.55,340.69 278.90,338.93 279.25,336.41 279.60,340.61 279.95,346.76 280.30,350.22 280.65,341.01 281.00,341.89 281.35,337.59 281.70,345.94 282.05,344.03 282.40,341.72 282.75,340.09 283.10,347.47 283.45,339.96 283.80,336.55 284.15,338.53 284.50,337.69 284.85,338.87 285.20,341.91 285.55,329.91 285.90,325.11 286.25,331.64 286.60,332.46 286.95,337.68 287.30,337.72 287.65,339.48 288.00,347.75 288.35,348.28 288.70,345.73 289.05,352.61 289.40,355.55 289.75,347.48 290.10,346.61 290.45,345.31 290.80,349.15 291.15,350.69 291.50,344.94 291.85,341.15 292.20,338.39 292.55,341.79 292.90,336.91 293.25,330.63 293.60,327.53 293.95,331.83 294.30,340.21 294.65,337.87 295.00,335.31 295.35,337.90 295.70,333.64 296.05,332.99 296.40,332.79 296.75,337.31 297.10,342.83 297.45,339.78 297.80,343.34 298.15,351.03 298.50,353.56 298.85,350.61 299.20,349.75 299.55,343.55 299.90,349.21 300.25,347.14 300.60,343.21 300.95,342.71 301.30,351.48 301.65,350.89 302.00,354.35 302.35,351.91 302.70,349.22 303.05,339.17 303.40,337.49 303.75,342.88 304.10,348.32 304.45,346.27 304.80,345.88 305.15,343.44 305.50,349.02 305.85,353.51 306.20,362.29 306.55,363.24 306.90,361.29 307.25,363.70 307.60,370.27 307.95,359.46 308.30,355.78 308.65,356.33 309.00,356.01 309.35,364.39 309.70,363.39 310.05,372.91 310.40,365.80 310.75,372.84 311.10,377.63 311.45,378.78 311.80,389.18 312.15,391.01 312.50,393.28 312.85,393.36 313.20,393.25 313.55,390.56 313.90,386.00 314.25,386.45 314.60,385.26 314.95,386.22 315.30,389.14 315.65,393.17 316.00,393.20 316.35,401.03 316.70,405.32 317.05,398.98 317.40,395.68 317.75,403.56 318.10,406.83 318.45,408.37 318.80,411.46 319.15,412.51 319.50,410.54 319.85,410.66 320.20,414.32 320.55,414.51 320.90,407.07 321.25,401.19 321.60,398.82 321.95,398.70 322.30,398.13 322.65,404.83 323.00,405.65 323.35,409.98 323.70,409.90 324.05,407.50 324.40,408.30 324.75,408.14 325.10,410.62 325.45,416.44 325.80,421.28 326.15,423.08 326.50,425.19 326.85,418.16 327.20,411.08 327.55,414.75 327.90,421.48 328.25,425.01 328.60,425.15 328.95,429.24 329.30,427.09 329.65,423.99 330.00,427.72 330.35,423.28 330.70,423.56 331.05,419.90 331.40,427.63 331.75,425.24 332.10,432.22 332.45,436.92 332.80,437.00 333.15,440.48 333.50,436.72 333.85,436.89 334.20,439.69 334.55,438.20 334.90,434.63 335.25,432.74 335.60,432.67 335.95,434.14 336.30,430.91 336.65,429.03 337.00,424.51 337.35,421.99 337.70,423.84 338.05,422.01 338.40,421.37 338.75,419.79 339.10,420.09 339.45,418.11 339.80,419.48 340.15,420.74 340.50,418.06 340.85,415.99 341.20,414.90 341.55,412.43 341.90,410.67 342.25,409.91 342.60,409.63 342.95,412.81 343.30,416.15 343.65,414.84 344.00,413.40 344.35,416.53 344.70,413.17 345.05,412.46 345.40,415.10 345.75,414.08 346.10,415.80 346.45,415.32 346.80,417.44 347.15,416.73 347.50,416.42 347.85,415.80 348.20,414.12 348.55,415.03 348.90,414.91 349.25,415.30 349.60,415.38 349.95,414.15 350.30,413.17 350.65,413.47 351.00,411.91 351.35,412.96 351.70,413.77 352.05,412.53 352.40,413.34 352.75,413.18 353.10,411.26 353.45,411.25 353.80,409.88 354.15,408.12 354.50,406.71 354.85,404.06 355.20,403.13 355.55,404.71 355.90,404.20 356.25,404.47 356.60,405.04 356.95,405.54 357.30,404.63 357.65,405.99 358.00,403.82 358.35,403.37 358.70,405.39 359.05,406.07 359.40,406.94 359.75,408.54 360.10,408.41 360.45,410.35 360.80,408.22 361.15,406.81 361.50,407.28 361.85,407.65 362.20,407.34 362.55,408.43 362.90,407.39 363.25,407.17 363.60,407.56 363.95,406.98 364.30,407.36 364.65,407.56 365.00,408.88 365.35,409.50 365.70,410.22 366.05,410.07 366.40,412.61 366.75,413.79 367.10,414.37 367.45,413.22 367.80,413.72 368.15,413.89 368.50,413.38 368.85,412.74 369.20,410.88 369.55,410.96 369.90,411.02 370.25,410.88 370.60,410.86 370.95,410.73 371.30,410.50 371.65,410.94 372.00,410.52 372.35,410.76 372.70,410.48 373.05,409.07 373.40,409.15 373.75,408.91 374.10,409.68 374.45,409.08 374.80,408.26 375.15,408.92 375.50,409.51 375.85,409.58 376.20,409.10 376.55,409.23 376.90,409.02 377.25,409.11 377.60,409.63 377.95,410.58 378.30,411.74 378.65,410.56 379.00,410.55 379.35,411.59 379.70,411.87 380.05,411.00 380.40,411.17 380.75,411.58 381.10,411.64 381.45,410.98 381.80,410.37 382.15,410.48 382.50,410.82 382.85,410.80 383.20,410.39 383.55,410.28 383.90,410.77 384.25,410.81 384.60,411.18 384.95,411.09 385.30,411.29 385.65,411.33 386.00,411.35 386.35,411.25 386.70,411.38 387.05,411.28 387.40,411.42 387.75,411.44 388.10,411.57 388.45,411.61 388.80,411.49 389.15,411.38 389.50,411.25 389.85,411.11 390.20,410.91 390.55,410.75 390.90,410.65 391.25,410.57 391.60,410.34 391.95,410.24 392.30,410.03 392.65,409.92 393.00,409.83 393.35,409.73 393.70,409.36 394.05,409.49 394.40,409.38 394.75,409.72 395.10,409.14 395.45,409.10 395.80,409.34 396.15,409.55 396.50,409.55 396.85,409.47 397.20,409.23 397.55,409.56 397.90,409.37 398.25,409.93 398.60,410.91 398.95,410.57 399.30,411.21 399.65,411.67 400.00,410.86 400.35,409.95 400.70,409.25 401.05,410.18 401.40,409.66 401.75,410.61 402.10,411.65 402.45,411.79 402.80,411.90 403.15,411.06 403.50,410.78 403.85,410.70 404.20,410.28 404.55,410.81 404.90,410.98 405.25,411.50 405.60,412.35 405.95,411.33 406.30,409.20 406.65,410.03 407.00,410.16 407.35,411.78 407.70,412.17 408.05,412.23 408.40,411.91 408.75,412.36 409.10,411.97 409.45,412.49 409.80,412.10 410.15,412.65 410.50,412.33 410.85,412.89 411.20,412.73 411.55,412.33 411.90,412.14 412.25,412.00 412.60,410.57 412.95,410.40 413.30,410.69 413.65,410.61 414.00,410.73 414.35,409.90 414.70,410.58 415.05,409.90 415.40,408.33 415.75,408.49 416.10,407.48 416.45,408.25 416.80,407.81 417.15,407.81 417.50,406.77 417.85,407.75 418.20,406.94 418.55,407.31 418.90,405.63 419.25,405.07 419.60,404.86 419.95,403.12 420.30,401.84 420.65,401.28 421.00,402.83 421.35,402.98 421.70,400.89 422.05,401.71 422.40,402.56 422.75,401.06 423.10,398.92 423.45,401.00 423.80,402.06 424.15,401.32 424.50,400.07 424.85,398.59 425.20,399.21 425.55,399.48 425.90,397.92 426.25,397.22 426.60,395.97 426.95,396.02 427.30,396.30 427.65,395.54 428.00,393.65 428.35,393.36 428.70,389.72 429.05,387.77 429.40,386.84 429.75,387.51 430.10,384.73 430.45,381.22 430.80,380.31 431.15,378.25 431.50,377.23 431.85,377.66 432.20,376.72 432.55,370.15 432.90,369.82 433.25,372.45 433.60,369.43 433.95,367.61 434.30,367.47 434.65,366.54 435.00,365.56 435.35,362.29 435.70,359.11 436.05,361.30 436.40,357.13 436.75,354.72 437.10,351.31 437.45,353.17 437.80,349.82 438.15,346.53 438.50,347.86 438.85,347.63 439.20,344.96 439.55,341.77 439.90,343.57 440.25,342.03 440.60,341.17 440.95,338.82 441.30,334.01 441.65,333.53 442.00,338.42 442.35,340.39 442.70,339.28 443.05,339.85 443.40,343.59 443.75,345.06 444.10,342.22 444.45,344.89 444.80,340.79 445.15,337.88 445.50,340.66 445.85,338.07 446.20,335.31 446.55,333.32 446.90,334.54 447.25,330.72 447.60,331.06 447.95,332.09 448.30,335.62 448.65,334.32 449.00,330.85 449.35,339.02 449.70,330.84 450.05,324.73 450.40,327.16 450.75,329.76 451.10,329.67 451.45,325.29 451.80,329.15 452.15,325.92 452.50,327.03 452.85,320.33 453.20,321.77 453.55,324.91 453.90,321.01 454.25,323.29 454.60,327.93 454.95,322.77 455.30,323.62 455.65,320.73 456.00,316.65 456.35,314.04 456.70,316.78 457.05,315.10 457.40,321.91 457.75,318.23 458.10,322.95 458.45,320.10 458.80,319.99 459.15,316.91 459.50,316.47 459.85,317.21 460.20,319.24 460.55,324.93 460.90,316.79 461.25,317.28 461.60,314.60 461.95,314.92 462.30,313.34 462.65,308.36 463.00,306.50 463.35,313.53 463.70,316.56 464.05,311.18 464.40,314.37 464.75,315.15 465.10,322.09 465.45,330.74 465.80,329.35 466.15,326.98 466.50,331.02 466.85,330.46 467.20,328.56 467.55,331.70 467.90,340.19 468.25,334.13 468.60,333.69 468.95,334.28 469.30,328.63 469.65,327.86 470.00,322.18 470.35,322.66 470.70,320.56 471.05,323.54 471.40,333.96 471.75,333.31 472.10,324.86 472.45,321.15 472.80,329.92 473.15,336.83 473.50,340.54 473.85,345.69 474.20,349.14 474.55,349.98 474.90,343.54 475.25,346.69 475.60,344.56 475.95,345.21 476.30,334.52 476.65,334.77 477.00,328.01 477.35,328.52 477.70,326.01 478.05,321.32 478.40,327.63 478.75,325.88 479.10,320.83 479.45,322.24 479.80,322.12 480.15,323.13 480.50,320.70 480.85,325.30 481.20,323.87 481.55,324.68 481.90,318.29 482.25,321.65 482.60,321.94 482.95,325.61 483.30,326.14 483.65,333.21 484.00,334.78 484.35,336.52 484.70,336.85 485.05,333.53 485.40,326.78 485.75,328.19 486.10,323.66 486.45,323.77 486.80,324.60 487.15,323.02 487.50,325.36 487.85,318.23 488.20,318.58 488.55,318.49 488.90,314.08 489.25,309.73 489.60,314.40 489.95,318.20 490.30,315.80 490.65,315.69 491.00,315.05 491.35,321.24 491.70,325.39 492.05,330.27 492.40,331.42 492.75,335.62 493.10,341.55 493.45,339.39 493.80,334.79 494.15,331.08 494.50,336.23 494.85,341.40 495.20,339.88 495.55,342.07 495.90,351.09 496.25,354.45 496.60,349.20 496.95,351.10 497.30,349.02 497.65,351.80 498.00,353.91 498.35,348.87 498.70,345.66 499.05,346.51 499.40,347.38 499.75,345.23 500.10,346.84 500.45,344.03 500.80,348.30 501.15,349.86 501.50,347.82 501.85,350.82 502.20,350.89 502.55,352.58 502.90,354.13 503.25,355.66 503.60,359.27 503.95,362.71 504.30,363.29 504.65,368.89 505.00,375.24 505.35,374.15 505.70,370.36 506.05,365.96 506.40,364.97 506.75,366.10 507.10,370.03 507.45,373.15 507.80,372.69 508.15,372.23 508.50,376.26 508.85,376.39 509.20,378.98 509.55,378.68 509.90,382.67 510.25,381.39 510.60,385.92 510.95,387.75 511.30,390.64 511.65,391.94 512.00,390.98 512.35,392.78 512.70,394.17 513.05,394.55 513.40,392.99 513.75,397.53 514.10,395.87 514.45,392.89 514.80,392.36 515.15,388.59 515.50,389.23 515.85,390.39 516.20,392.40 516.55,393.20 516.90,396.37 517.25,393.60 517.60,392.74 517.95,392.42 518.30,392.58 518.65,392.40 519.00,393.21 519.35,394.84 519.70,393.01 520.05,389.15 520.40,388.85 520.75,388.43 521.10,387.07 521.45,386.63 521.80,386.91 522.15,387.60 522.50,385.88 522.85,384.47 523.20,385.45 523.55,387.70 523.90,387.90 524.25,387.50 524.60,388.46 524.95,387.06 525.30,385.21 525.65,386.40 526.00,385.13 526.35,383.32 526.70,383.75 527.05,386.41 527.40,385.32 527.75,385.89 528.10,386.79 528.45,387.67 528.80,387.02 529.15,385.24 529.50,386.59 529.85,386.28 530.20,384.42 530.55,385.01 530.90,385.27 531.25,385.02 531.60,383.71 531.95,384.74 532.30,385.08 532.65,383.33 533.00,385.10 533.35,383.74 533.70,382.59 534.05,383.91 534.40,381.45 534.75,381.94 535.10,382.43 535.45,383.12 535.80,383.00 536.15,384.17 536.50,383.46 536.85,381.37 537.20,380.31 537.55,382.08 537.90,382.16 538.25,381.81 538.60,383.99 538.95,386.05 539.30,388.05 539.65,389.38 540.00,389.09 540.35,389.10 540.70,388.21 541.05,385.41 541.40,384.39 541.75,384.67 542.10,384.80 542.45,383.37 542.80,382.90 543.15,384.21 543.50,384.41 543.85,385.84 544.20,385.08 544.55,385.70 544.90,384.88 545.25,382.43 545.60,383.64 545.95,385.08 546.30,382.87 546.65,382.18 547.00,380.84 547.35,379.67 547.70,380.34 548.05,380.38 548.40,381.07 548.75,381.21 549.10,381.56 549.45,381.35 549.80,382.19 550.15,382.38 550.50,380.23 550.85,380.22 551.20,379.99 551.55,378.58 551.90,379.14 552.25,377.90 552.60,379.46 552.95,379.67 553.30,382.75 553.65,382.64 554.00,382.70 554.35,385.25 554.70,385.14 555.05,385.76 555.40,386.64 555.75,387.60 556.10,387.89 556.45,388.14 556.80,387.86 557.15,384.98 557.50,383.48 557.85,383.23 558.20,384.01 558.55,384.39 558.90,384.37 559.25,383.46 559.60,382.75 559.95,383.62 560.30,382.79 560.65,382.33 561.00,381.98 561.35,381.84 561.70,382.07 562.05,382.03 562.40,381.14 562.75,382.03 563.10,381.74 563.45,381.98 563.80,382.69 564.15,383.70 564.50,382.97 564.85,381.77 565.20,381.95 565.55,381.69 565.90,382.24 566.25,383.15 566.60,384.38 566.95,385.16 567.30,386.26 567.65,385.00 568.00,385.70 568.35,384.46 568.70,384.65 569.05,383.66 569.40,383.73 569.75,384.39 570.10,382.81 570.45,383.85 570.80,385.57 571.15,384.64 571.50,384.96 571.85,385.58 572.20,387.06 572.55,386.75 572.90,386.36 573.25,386.88 573.60,387.22 573.95,387.86 574.30,388.24 574.65,388.67 575.00,389.02 575.35,388.63 575.70,389.07 576.05,389.22 576.40,389.64 576.75,389.53 577.10,389.14 577.45,389.10 577.80,388.76 578.15,388.98 578.50,388.53 578.85,388.37 579.20,387.59 579.55,387.38 579.90,387.25 580.25,387.18 580.60,386.84 580.95,387.47 581.30,387.84 581.65,387.75 582.00,387.45 582.35,387.95 582.70,387.85 583.05,388.05 583.40,387.78 583.75,387.67 584.10,387.85 584.45,387.71 584.80,387.63 585.15,387.56 585.50,387.26 585.85,387.13 586.20,387.02 586.55,386.97 586.90,386.87 587.25,386.74 587.60,386.59 587.95,386.48 588.30,386.54 588.65,386.35 589.00,386.48 589.35,386.52 589.70,386.83 590.05,387.10 590.40,386.77 590.75,386.84 591.10,386.67 591.45,386.51 591.80,387.05 592.15,387.46 592.50,388.03 592.85,388.00 593.20,388.17 593.55,388.74 593.90,388.48 594.25,387.97 594.60,387.36 594.95,386.99 595.30,387.75 595.65,388.22 596.00,387.98 596.35,387.75 596.70,388.20 597.05,388.46 597.40,388.40 597.75,388.30 598.10,388.02 598.45,387.97 598.80,387.78 599.15,387.64 599.50,387.60 599.85,388.16 600.20,388.64 600.55,388.99 600.90,389.05 601.25,389.18 601.60,389.16 601.95,389.08 602.30,389.00 602.65,388.68 603.00,388.77 603.35,388.55 603.70,388.63 604.05,388.73 604.40,388.71 604.75,388.65 605.10,388.56 605.45,388.49 605.80,388.46 606.15,388.41 606.50,388.32 606.85,388.13 607.20,387.93 607.55,387.90 607.90,387.79 608.25,387.83 608.60,387.44 608.95,387.32 609.30,387.24 609.65,387.53 610.00,387.37 610.35,387.11 610.70,386.26 611.05,386.42 611.40,386.25 611.75,386.47 612.10,386.05 612.45,386.18 612.80,385.21 613.15,384.87 613.50,383.44 613.85,383.72 614.20,384.17 614.55,381.76 614.90,383.12 615.25,382.83 615.60,383.80 615.95,383.74 616.30,385.28 616.65,385.48 617.00,384.92 617.35,385.39 617.70,382.83 618.05,384.17 618.40,385.70 618.75,386.12 619.10,386.97 619.45,386.80 619.80,386.63 620.15,388.45 620.50,387.16 620.85,387.06 621.20,386.11 621.55,386.34 621.90,385.23 622.25,382.60 622.60,382.54 622.95,383.31 623.30,381.73 623.65,381.15 624.00,381.58 624.35,380.39 624.70,382.42 625.05,383.90 625.40,384.37 625.75,383.23 626.10,380.98 626.45,381.57 626.80,381.03 627.15,382.98 627.50,381.33 627.85,380.58 628.20,378.50 628.55,378.48 628.90,378.00 629.25,371.89 629.60,371.11 629.95,368.20 630.30,369.27 630.65,371.16 631.00,371.46 631.35,367.97 631.70,368.43 632.05,369.21 632.40,365.61 632.75,364.10 633.10,365.19 633.45,367.24 633.80,366.28 634.15,361.81 634.50,361.60 634.85,357.37 635.20,352.73 635.55,352.29 635.90,350.92 636.25,350.69 636.60,350.98 636.95,350.00 637.30,347.68 637.65,348.43 638.00,346.82 638.35,348.16 638.70,350.98 639.05,351.88 639.40,351.30 639.75,347.83 640.10,352.30 640.45,350.93 640.80,350.80 641.15,346.67 641.50,341.68 641.85,343.91 642.20,341.64 642.55,343.51 642.90,342.50 643.25,340.49 643.60,341.80 643.95,341.33 644.30,335.04 644.65,329.81 645.00,326.92 645.35,322.87 645.70,327.06 646.05,321.39 646.40,316.00 646.75,315.61 647.10,312.52 647.45,311.59 647.80,313.83 648.15,311.64 648.50,302.99 648.85,308.94 649.20,308.47 649.55,308.55 649.90,303.33 650.25,301.67 650.60,300.18 650.95,293.93 651.30,292.10 651.65,292.11 652.00,293.12 652.35,292.26 652.70,286.97 653.05,288.84 653.40,289.09 653.75,286.82 654.10,284.07 654.45,290.40 654.80,284.66 655.15,278.40 655.50,276.82 655.85,275.31 656.20,278.89 656.55,281.00 656.90,282.30 657.25,277.70 657.60,273.82 657.95,273.29 658.30,268.38 658.65,274.16 659.00,270.70 659.35,267.82 659.70,272.85 660.05,270.57 660.40,278.02 660.75,275.14 661.10,274.46 661.45,280.67 661.80,275.11 662.15,275.59 662.50,268.35 662.85,260.84 663.20,255.37 663.55,249.52 663.90,252.29 664.25,247.07 664.60,251.74 664.95,245.46 665.30,245.57 665.65,246.85 666.00,244.62 666.35,239.88 666.70,236.68 667.05,239.47 667.40,234.68 667.75,239.90 668.10,241.68 668.45,235.24 668.80,234.14 669.15,233.90 669.50,236.67 669.85,238.29 670.20,234.28 670.55,233.37 670.90,233.75 671.25,230.45 671.60,233.33 671.95,225.91 672.30,223.38 672.65,230.75 673.00,232.13 673.35,229.82 673.70,228.63 674.05,230.17 674.40,235.34 674.75,232.58 675.10,238.23 675.45,239.73 675.80,238.27 676.15,230.13 676.50,227.39 676.85,233.02 677.20,234.20 677.55,229.59 677.90,228.65 678.25,235.00 678.60,232.40 678.95,227.21 679.30,222.78 679.65,223.07 680.00,214.87 680.35,209.36 680.70,207.31 681.05,206.76 681.40,208.26 681.75,215.33 682.10,201.00 682.45,201.84 682.80,198.38 683.15,191.77 683.50,180.56 683.85,171.72 684.20,179.88 684.55,180.70 684.90,180.14 685.25,186.88 685.60,185.73 685.95,183.27 686.30,180.57 686.65,188.92 687.00,191.17 687.35,186.21 687.70,187.13 688.05,179.99 688.40,179.75 688.75,186.05 689.10,182.09 689.45,175.21 689.80,180.91 690.15,184.24 690.50,187.37 690.85,188.18 691.20,192.82 691.55,202.08 691.90,205.59 692.25,219.78 692.60,220.87 692.95,226.49 693.30,218.44 693.65,217.92 694.00,220.14 694.35,211.16 694.70,207.02 695.05,198.45 695.40,203.96 695.75,208.77 696.10,202.54 696.45,200.15 696.80,203.06 697.15,205.07 697.50,204.79 697.85,196.79 698.20,196.42 698.55,198.83 698.90,195.75 699.25,195.29 699.60,205.65 699.95,211.16 700.30,214.81 700.65,196.36 701.00,201.04 701.35,197.02 701.70,198.02 702.05,192.69 702.40,194.67 702.75,178.42 703.10,171.72 703.45,173.55 703.80,177.47 704.15,171.72 704.50,172.37 704.85,168.37 705.20,173.28 705.55,174.94 705.90,180.16 706.25,181.13 706.60,182.60 706.95,194.20 707.30,194.74 707.65,196.99 708.00,195.35 708.35,188.76 708.70,191.20 709.05,190.08 709.40,190.21 709.75,193.89 710.10,193.67 710.45,185.92 710.80,190.22 711.15,182.76 711.50,183.58 711.85,185.69 712.20,184.28 712.55,182.69 712.90,190.73 713.25,191.13 713.60,196.07 713.95,187.59 714.30,181.12 714.65,192.83 715.00,183.83 715.35,178.16 715.70,176.81 716.05,182.80 716.40,186.17 716.75,179.98 717.10,179.09 717.45,187.13 717.80,187.09 718.15,185.06 718.50,165.82 718.85,173.35 719.20,173.87 719.55,174.71 719.90,171.26 720.25,174.80 720.60,178.85 720.95,180.64 721.30,180.10 721.65,179.00 722.00,187.69 722.35,184.21 722.70,184.53 723.05,181.50 723.40,182.85 723.75,174.17 724.10,168.78 724.45,175.97 724.80,172.63 725.15,172.44 725.50,172.64 725.85,169.03 726.20,178.19 726.55,174.03 726.90,165.72 727.25,166.46 727.60,166.67 727.95,158.50 728.30,161.79 728.65,159.69 729.00,166.73 729.35,168.34 729.70,162.73 730.05,157.00 730.40,158.88 730.75,155.09 731.10,158.28 731.45,151.91 731.80,150.60 732.15,147.15 732.50,148.87 732.85,154.33 733.20,160.45 733.55,166.54 733.90,148.30 734.25,141.71 734.60,135.21 734.95,143.34 735.30,144.09 735.65,147.96 736.00,141.70 736.35,150.64 736.70,146.01 737.05,137.62 737.40,141.36 737.75,150.74 738.10,144.15 738.45,139.96 738.80,139.15 739.15,142.66 739.50,139.49 739.85,141.65 740.20,148.91 740.55,147.07 740.90,148.80 741.25,152.60 741.60,149.34 741.95,155.12 742.30,151.72 742.65,167.41 743.00,173.30 743.35,174.21 743.70,181.96 744.05,200.37 744.40,207.43 744.75,192.33 745.10,189.35 745.45,184.78 745.80,177.14 746.15,172.34 746.50,154.04 746.85,151.91 747.20,154.88 747.55,163.53 747.90,163.30 748.25,162.30 748.60,151.20 748.95,139.64 749.30,139.59 749.65,139.51 750.00,128.97 750.35,127.43 750.70,130.29 751.05,142.37 751.40,139.81 751.75,137.25 752.10,124.21 752.45,128.07 752.80,129.31 753.15,138.48 753.50,142.40 753.85,150.51 754.20,143.84 754.55,152.05 754.90,160.90 755.25,167.19 755.60,174.00 755.95,177.90 756.30,175.59 756.65,175.95 757.00,167.22 757.35,169.39 757.70,173.81 758.05,170.92 758.40,160.99 758.75,151.37 759.10,136.57 759.45,141.77 759.80,149.18 760.15,151.65 760.50,157.22 760.85,158.70 761.20,147.58 761.55,146.21 761.90,138.60 762.25,136.02 762.60,133.68 762.95,144.39 763.30,146.27 763.65,151.53 764.00,161.28 764.35,159.49 764.70,152.30 765.05,150.15 765.40,150.09 765.75,145.77 766.10,136.48 766.45,135.61 766.80,136.52 767.15,130.94 767.50,133.53 767.85,133.26 768.20,137.72 768.55,142.65 768.90,145.33 769.25,146.92 769.60,151.71 769.95,152.11 770.30,157.19 770.65,158.77 771.00,162.70 771.35,151.76 771.70,162.05 772.05,161.26 772.40,152.91 772.75,163.26 773.10,170.87 773.45,160.49 773.80,164.12 774.15,162.12 774.50,163.94 774.85,164.80 775.20,155.21 775.55,157.88 775.90,151.06 776.25,145.86 776.60,139.69 776.95,135.32 777.30,137.48 777.65,125.22 778.00,129.56 778.35,128.91 778.70,142.14 779.05,150.13 779.40,152.33 779.75,146.74 780.10,159.87 780.45,148.13 780.80,142.13 781.15,143.75 781.50,153.57 781.85,150.34 782.20,141.52 782.55,146.67 782.90,147.74 783.25,149.57 783.60,152.91 783.95,145.23 784.30,154.11 784.65,152.44 785.00,157.85 785.00,180.82"/>
<line x1="813" y1="102" x2="839" y2="102" stroke="#059669" stroke-width="3"/>
<text x="847" y="106" font-family="Arial" font-size="13" fill="#111827">trending</text>
<text x="435.0" y="518" text-anchor="middle" font-family="Arial" font-size="14" fill="#111827">Event index</text>
<text x="22" y="256.0" text-anchor="middle" transform="rotate(-90 22 256.0)" font-family="Arial" font-size="14" fill="#111827">Net PnL after fees</text>
</svg>
