<svg xmlns="http://www.w3.org/2000/svg" width="940" height="540" viewBox="0 0 940 540">
<rect width="100%" height="100%" fill="#ffffff"/>
<text x="470.0" y="26" text-anchor="middle" font-family="Arial" font-size="18" fill="#111827">Avellaneda Stoikov Inventory By Regime</text>
<line x1="85" y1="470" x2="785" y2="470" stroke="#111827" stroke-width="1"/>
<line x1="85" y1="42" x2="85" y2="470" stroke="#111827" stroke-width="1"/>
<line x1="85.00" y1="42" x2="85.00" y2="470" stroke="#e5e7eb" stroke-width="1"/>
<text x="85.00" y="494" text-anchor="middle" font-family="Arial" font-size="12" fill="#374151">0</text>
<line x1="260.00" y1="42" x2="260.00" y2="470" stroke="#e5e7eb" stroke-width="1"/>
<text x="260.00" y="494" text-anchor="middle" font-family="Arial" font-size="12" fill="#374151">50000</text>
<line x1="435.00" y1="42" x2="435.00" y2="470" stroke="#e5e7eb" stroke-width="1"/>
<text x="435.00" y="494" text-anchor="middle" font-family="Arial" font-size="12" fill="#374151">100000</text>
<line x1="610.00" y1="42" x2="610.00" y2="470" stroke="#e5e7eb" stroke-width="1"/>
<text x="610.00" y="494" text-anchor="middle" font-family="Arial" font-size="12" fill="#374151">149999</text>
<line x1="785.00" y1="42" x2="785.00" y2="470" stroke="#e5e7eb" stroke-width="1"/>
<text x="785.00" y="494" text-anchor="middle" font-family="Arial" font-size="12" fill="#374151">199999</text>
<line x1="85" y1="470.00" x2="785" y2="470.00" stroke="#e5e7eb" stroke-width="1"/>
<text x="73" y="474.00" text-anchor="end" font-family="Arial" font-size="12" fill="#374151">-21676</text>
<line x1="85" y1="363.00" x2="785" y2="363.00" stroke="#e5e7eb" stroke-width="1"/>
<text x="73" y="367.00" text-anchor="end" font-family="Arial" font-size="12" fill="#374151">649</text>
<line x1="85" y1="256.00" x2="785" y2="256.00" stroke="#e5e7eb" stroke-width="1"/>
<text x="73" y="260.00" text-anchor="end" font-family="Arial" font-size="12" fill="#374151">22974</text>
<line x1="85" y1="149.00" x2="785" y2="149.00" stroke="#e5e7eb" stroke-width="1"/>
<text x="73" y="153.00" text-anchor="end" font-family="Arial" font-size="12" fill="#374151">45299</text>
<line x1="85" y1="42.00" x2="785" y2="42.00" stroke="#e5e7eb" stroke-width="1"/>
<text x="73" y="46.00" text-anchor="end" font-family="Arial" font-size="12" fill="#374151">67624</text>
<polyline fill="none" stroke="#2563eb" stroke-width="2" points="85.00,366.11 85.35,366.15 85.70,366.04 86.05,366.14 86.40,366.30 86.75,366.18 87.10,366.11 87.45,366.13 87.80,366.03 88.15,366.15 88.50,366.12 88.85,366.22 89.20,366.42 89.55,366.51 89.90,366.56 90.25,366.42 90.60,366.45 90.95,366.72 91.30,366.76 91.65,367.00 92.00,366.96 92.35,367.10 92.70,367.24 93.05,367.15 93.40,367.20 93.75,367.25 94.10,367.31 94.45,367.46 94.80,367.44 95.15,367.35 95.50,367.24 95.85,367.31 96.20,367.12 96.55,367.17 96.90,367.29 97.25,367.43 97.60,367.44 97.95,367.58 98.30,367.62 98.65,367.53 99.00,367.38 99.35,367.38 99.70,367.42 100.05,367.46 100.40,367.52 100.75,367.42 101.10,367.58 101.45,367.43 101.80,367.42 102.15,367.32 102.50,367.38 102.85,367.53 103.20,367.65 103.55,367.70 103.90,367.67 104.25,367.72 104.60,367.74 104.95,367.71 105.30,367.71 105.65,367.81 106.00,367.87 106.35,367.81 106.70,367.67 107.05,367.72 107.40,367.67 107.75,367.68 108.10,367.59 108.45,367.73 108.80,367.53 109.15,367.38 109.50,367.05 109.85,366.66 110.20,366.61 110.55,366.66 110.90,366.71 111.25,366.89 111.60,366.84 111.95,366.80 112.30,366.87 112.65,366.77 113.00,366.92 113.35,366.87 113.70,367.01 114.05,366.96 114.40,367.03 114.75,367.09 115.10,367.05 115.45,367.00 115.80,366.91 116.15,366.91 116.50,367.15 116.85,367.05 117.20,366.97 117.55,366.96 117.90,366.82 118.25,366.76 118.60,366.68 118.95,366.54 119.30,366.26 119.65,365.87 120.00,365.63 120.35,365.20 120.70,364.87 121.05,364.54 121.40,364.40 121.75,364.40 122.10,364.20 122.45,364.22 122.80,364.20 123.15,364.20 123.50,364.20 123.85,364.23 124.20,364.33 124.55,364.30 124.90,364.30 125.25,364.25 125.60,364.06 125.95,363.92 126.30,363.98 126.65,364.08 127.00,364.12 127.35,364.17 127.70,364.36 128.05,364.15 128.40,364.29 128.75,364.24 129.10,364.22 129.45,364.04 129.80,364.11 130.15,364.13 130.50,364.18 130.85,364.23 131.20,364.23 131.55,364.08 131.90,363.96 132.25,363.82 132.60,363.72 132.95,363.68 133.30,363.61 133.65,363.65 134.00,363.60 134.35,363.41 134.70,363.53 135.05,363.58 135.40,363.58 135.75,363.74 136.10,363.66 136.45,363.76 136.80,363.71 137.15,363.57 137.50,363.57 137.85,363.58 138.20,363.58 138.55,363.69 138.90,363.60 139.25,363.57 139.60,363.57 139.95,363.46 140.30,363.37 140.65,363.36 141.00,363.17 141.35,363.13 141.70,363.11 142.05,363.03 142.40,362.96 142.75,362.79 143.10,362.79 143.45,362.70 143.80,362.67 144.15,362.73 144.50,362.77 144.85,362.89 145.20,362.89 145.55,362.69 145.90,362.46 146.25,362.12 146.60,361.83 146.95,361.44 147.30,361.20 147.65,361.05 148.00,361.00 148.35,361.18 148.70,361.26 149.05,361.32 149.40,361.26 149.75,361.26 150.10,361.50 150.45,361.60 150.80,361.58 151.15,361.68 151.50,361.92 151.85,361.68 152.20,361.30 152.55,361.06 152.90,360.77 153.25,360.48 153.60,360.24 153.95,360.25 154.30,360.35 154.65,359.91 155.00,359.55 155.35,359.31 155.70,359.31 156.05,359.12 156.40,359.17 156.75,359.21 157.10,359.21 157.45,359.08 157.80,359.10 158.15,359.24 158.50,359.15 158.85,359.20 159.20,359.24 159.55,359.00 159.90,359.05 160.25,359.05 160.60,358.98 160.95,359.07 161.30,359.17 161.65,359.02 162.00,359.02 162.35,359.05 162.70,359.04 163.05,359.09 163.40,358.90 163.75,358.93 164.10,359.04 164.45,358.71 164.80,358.42 165.15,358.28 165.50,358.33 165.85,358.51 166.20,358.51 166.55,358.56 166.90,358.39 167.25,358.29 167.60,357.96 167.95,357.82 168.30,357.76 168.65,357.90 169.00,358.02 169.35,358.22 169.70,358.25 170.05,358.25 170.40,358.16 170.75,358.06 171.10,358.06 171.45,358.26 171.80,358.26 172.15,358.25 172.50,358.25 172.85,358.54 173.20,358.49 173.55,358.40 173.90,358.49 174.25,358.35 174.60,358.43 174.95,358.43 175.30,358.51 175.65,358.51 176.00,358.75 176.35,358.67 176.70,358.78 177.05,358.78 177.40,358.78 177.75,358.83 178.10,358.64 178.45,358.52 178.80,358.63 179.15,358.58 179.50,358.62 179.85,358.66 180.20,358.71 180.55,358.63 180.90,358.87 181.25,358.88 181.60,358.98 181.95,359.03 182.30,359.08 182.65,358.95 183.00,358.98 183.35,359.08 183.70,359.22 184.05,358.93 184.40,358.55 184.75,358.17 185.10,357.83 185.45,357.42 185.80,357.15 186.15,356.84 186.50,356.48 186.85,356.02 187.20,355.71 187.55,355.72 187.90,355.58 188.25,355.19 188.60,354.94 188.95,354.58 189.30,354.23 189.65,353.79 190.00,353.36 190.35,352.93 190.70,352.47 191.05,352.18 191.40,351.90 191.75,351.69 192.10,351.35 192.45,351.11 192.80,350.83 193.15,350.54 193.50,350.18 193.85,349.89 194.20,349.52 194.55,349.28 194.90,348.94 195.25,348.58 195.60,348.15 195.95,347.77 196.30,347.43 196.65,347.05 197.00,346.67 197.35,346.43 197.70,346.24 198.05,345.95 198.40,345.52 198.75,345.09 199.10,344.79 199.45,344.50 199.80,344.25 200.15,343.86 200.50,343.48 200.85,343.20 201.20,342.94 201.55,342.51 201.90,342.37 202.25,341.97 202.60,341.65 202.95,341.27 203.30,340.93 203.65,340.50 204.00,340.26 204.35,340.02 204.70,339.83 205.05,339.51 205.40,339.27 205.75,338.85 206.10,338.52 206.45,338.09 206.80,337.75 207.15,337.34 207.50,336.96 207.85,336.73 208.20,336.40 208.55,336.06 208.90,335.68 209.25,335.42 209.60,335.13 209.95,334.75 210.30,334.32 210.65,333.98 211.00,333.64 211.35,333.45 211.70,333.02 212.05,332.73 212.40,332.35 212.75,332.54 213.10,332.70 213.45,332.79 213.80,332.74 214.15,332.71 214.50,332.90 214.85,333.04 215.20,332.94 215.55,333.23 215.90,333.38 216.25,333.57 216.60,333.86 216.95,333.95 217.30,334.00 217.65,334.24 218.00,334.58 218.35,334.68 218.70,334.63 219.05,334.90 219.40,335.11 219.75,335.09 220.10,335.33 220.45,335.57 220.80,336.00 221.15,336.19 221.50,336.16 221.85,336.48 222.20,336.67 222.55,336.81 222.90,337.00 223.25,336.88 223.60,336.78 223.95,336.75 224.30,336.65 224.65,336.64 225.00,336.73 225.35,336.76 225.70,336.77 226.05,336.71 226.40,336.71 226.75,336.63 227.10,336.72 227.45,336.58 227.80,336.49 228.15,336.53 228.50,336.30 228.85,336.30 229.20,336.35 229.55,336.50 229.90,336.45 230.25,336.68 230.60,336.50 230.95,336.41 231.30,336.55 231.65,336.65 232.00,336.55 232.35,336.37 232.70,336.41 233.05,336.68 233.40,336.64 233.75,336.65 234.10,336.71 234.45,336.37 234.80,336.10 235.15,336.00 235.50,335.84 235.85,335.79 236.20,335.79 236.55,335.89 236.90,335.98 237.25,335.92 237.60,335.82 237.95,335.93 238.30,335.88 238.65,335.71 239.00,335.76 239.35,335.77 239.70,335.72 240.05,335.76 240.40,335.72 240.75,335.55 241.10,335.64 241.45,335.47 241.80,335.37 242.15,335.23 242.50,335.13 242.85,334.99 243.20,334.99 243.55,334.85 243.90,334.61 244.25,334.33 244.60,334.04 244.95,334.09 245.30,333.92 245.65,333.63 246.00,333.44 246.35,333.27 246.70,333.11 247.05,333.16 247.40,332.96 247.75,332.82 248.10,332.68 248.45,332.68 248.80,332.37 249.15,332.05 249.50,332.01 249.85,331.92 250.20,332.16 250.55,332.00 250.90,332.00 251.25,332.05 251.60,331.93 251.95,331.79 252.30,331.78 252.65,331.79 253.00,331.74 253.35,331.90 253.70,331.90 254.05,331.94 254.40,331.99 254.75,331.99 255.10,332.04 255.45,331.90 255.80,331.96 256.15,331.96 256.50,331.77 256.85,331.69 257.20,331.50 257.55,331.50 257.90,331.50 258.25,331.66 258.60,331.66 258.95,331.57 259.30,331.64 259.65,331.78 260.00,331.49 260.35,331.23 260.70,330.99 261.05,330.53 261.40,330.46 261.75,330.39 262.10,330.12 262.45,329.80 262.80,329.46 263.15,329.08 263.50,328.84 263.85,328.57 264.20,328.31 264.55,327.90 264.90,327.47 265.25,327.14 265.60,326.71 265.95,326.33 266.30,325.90 266.65,325.66 267.00,325.23 267.35,324.94 267.70,324.57 268.05,324.14 268.40,323.81 268.75,323.38 269.10,323.09 269.45,322.88 269.80,322.60 270.15,322.21 270.50,321.88 270.85,321.45 271.20,321.16 271.55,320.87 271.90,320.66 272.25,320.22 272.60,319.80 272.95,319.37 273.30,319.13 273.65,318.84 274.00,318.46 274.35,317.98 274.70,317.69 275.05,317.33 275.40,316.96 275.75,316.72 276.10,316.37 276.45,315.98 276.80,315.70 277.15,315.41 277.50,315.03 277.85,314.84 278.20,314.57 278.55,314.34 278.90,314.05 279.25,313.72 279.60,313.44 279.95,313.11 280.30,312.72 280.65,312.44 281.00,312.18 281.35,311.84 281.70,311.56 282.05,311.16 282.40,310.87 282.75,310.63 283.10,310.31 283.45,310.00 283.80,309.63 284.15,309.33 284.50,309.10 284.85,308.71 285.20,308.28 285.55,308.04 285.90,307.75 286.25,307.42 286.60,307.13 286.95,306.75 287.30,306.48 287.65,306.10 288.00,305.86 288.35,306.00 288.70,306.11 289.05,306.11 289.40,306.11 289.75,306.25 290.10,306.23 290.45,306.07 290.80,305.78 291.15,305.54 291.50,305.49 291.85,305.54 292.20,305.64 292.55,305.59 292.90,305.59 293.25,305.64 293.60,305.71 293.95,305.87 294.30,306.01 294.65,306.01 295.00,305.97 295.35,306.03 295.70,306.01 296.05,305.94 296.40,305.94 296.75,305.79 297.10,305.82 297.45,306.06 297.80,306.35 298.15,306.68 298.50,306.86 298.85,306.81 299.20,306.76 299.55,306.86 299.90,306.83 300.25,306.81 300.60,306.95 300.95,307.24 301.30,307.72 301.65,308.10 302.00,308.20 302.35,308.20 302.70,308.25 303.05,308.25 303.40,308.31 303.75,308.32 304.10,308.37 304.45,308.31 304.80,308.36 305.15,308.26 305.50,308.36 305.85,308.45 306.20,308.64 306.55,308.74 306.90,308.79 307.25,308.84 307.60,308.65 307.95,308.79 308.30,308.94 308.65,309.01 309.00,309.01 309.35,308.86 309.70,309.09 310.05,308.95 310.40,308.76 310.75,308.64 311.10,308.74 311.45,308.50 311.80,308.40 312.15,308.41 312.50,308.51 312.85,308.51 313.20,308.49 313.55,308.35 313.90,308.35 314.25,308.32 314.60,308.33 314.95,308.24 315.30,308.14 315.65,308.00 316.00,308.33 316.35,308.64 316.70,308.93 317.05,309.27 317.40,309.65 317.75,310.03 318.10,310.34 318.45,310.68 318.80,311.01 319.15,311.40 319.50,311.42 319.85,311.42 320.20,311.52 320.55,311.85 320.90,312.19 321.25,312.50 321.60,312.88 321.95,313.17 322.30,313.41 322.65,313.79 323.00,314.08 323.35,314.37 323.70,314.77 324.05,314.99 324.40,315.23 324.75,315.66 325.10,316.05 325.45,316.38 325.80,316.81 326.15,317.10 326.50,317.44 326.85,317.85 327.20,318.25 327.55,318.60 327.90,318.96 328.25,319.28 328.60,319.75 328.95,320.04 329.30,320.37 329.65,320.75 330.00,321.00 330.35,321.23 330.70,321.18 331.05,321.37 331.40,321.42 331.75,321.47 332.10,321.28 332.45,321.32 332.80,321.27 333.15,321.16 333.50,321.26 333.85,321.21 334.20,321.14 334.55,321.14 334.90,321.12 335.25,321.17 335.60,320.79 335.95,320.38 336.30,319.90 336.65,319.62 337.00,319.28 337.35,318.85 337.70,318.47 338.05,318.08 338.40,317.78 338.75,317.35 339.10,316.92 339.45,316.53 339.80,316.25 340.15,315.96 340.50,315.86 340.85,315.62 341.20,315.68 341.55,315.54 341.90,315.67 342.25,315.71 342.60,315.81 342.95,315.95 343.30,315.85 343.65,315.76 344.00,315.70 344.35,315.65 344.70,315.65 345.05,315.51 345.40,315.44 345.75,315.39 346.10,315.29 346.45,315.36 346.80,315.13 347.15,314.80 347.50,314.47 347.85,314.28 348.20,313.80 348.55,313.46 348.90,313.13 349.25,312.93 349.60,312.65 349.95,312.46 350.30,312.22 350.65,311.92 351.00,311.65 351.35,311.31 351.70,310.93 352.05,310.67 352.40,310.33 352.75,309.95 353.10,309.47 353.45,309.18 353.80,308.85 354.15,308.41 354.50,308.13 354.85,307.79 355.20,307.55 355.55,307.26 355.90,307.03 356.25,306.72 356.60,306.34 356.95,305.96 357.30,305.67 357.65,305.29 358.00,305.02 358.35,304.59 358.70,304.25 359.05,303.97 359.40,303.58 359.75,303.25 360.10,302.91 360.45,302.49 360.80,302.15 361.15,301.93 361.50,301.45 361.85,301.16 362.20,300.82 362.55,300.47 362.90,300.19 363.25,299.80 363.60,299.40 363.95,299.02 364.30,298.72 364.65,298.31 365.00,298.07 365.35,297.69 365.70,297.33 366.05,296.96 366.40,296.52 366.75,296.19 367.10,295.81 367.45,295.33 367.80,294.99 368.15,294.56 368.50,294.20 368.85,293.77 369.20,293.53 369.55,293.11 369.90,292.72 370.25,292.39 370.60,292.14 370.95,291.81 371.30,291.57 371.65,291.23 372.00,290.88 372.35,290.73 372.70,290.37 373.05,290.08 373.40,289.74 373.75,289.52 374.10,289.14 374.45,288.90 374.80,288.51 375.15,288.32 375.50,287.94 375.85,287.56 376.20,287.27 376.55,286.84 376.90,286.60 377.25,286.29 377.60,285.91 377.95,285.66 378.30,285.35 378.65,284.94 379.00,284.75 379.35,284.46 379.70,284.13 380.05,283.79 380.40,283.59 380.75,283.29 381.10,283.00 381.45,282.67 381.80,282.33 382.15,282.04 382.50,281.61 382.85,281.24 383.20,280.88 383.55,280.49 383.90,280.25 384.25,279.82 384.60,279.29 384.95,278.95 385.30,278.55 385.65,278.12 386.00,277.78 386.35,277.50 386.70,277.23 387.05,276.95 387.40,276.52 387.75,276.16 388.10,275.78 388.45,275.59 388.80,275.27 389.15,274.84 389.50,274.46 389.85,274.04 390.20,273.75 390.55,273.27 390.90,272.93 391.25,272.66 391.60,272.32 391.95,271.98 392.30,271.74 392.65,271.26 393.00,270.97 393.35,270.57 393.70,270.24 394.05,269.94 394.40,269.60 394.75,269.25 395.10,268.91 395.45,268.63 395.80,268.15 396.15,267.96 396.50,267.61 396.85,267.23 397.20,266.89 397.55,266.51 397.90,266.22 398.25,266.02 398.60,265.63 398.95,265.26 399.30,265.02 399.65,264.68 400.00,264.40 400.35,263.99 400.70,263.56 401.05,263.25 401.40,262.96 401.75,262.73 402.10,262.39 402.45,262.15 402.80,261.91 403.15,261.63 403.50,261.24 403.85,260.96 404.20,260.57 404.55,260.20 404.90,259.83 405.25,259.36 405.60,259.01 405.95,258.68 406.30,258.25 406.65,257.96 407.00,257.43 407.35,257.15 407.70,256.91 408.05,256.58 408.40,256.16 408.75,255.91 409.10,255.58 409.45,255.19 409.80,254.91 410.15,254.52 410.50,254.31 410.85,253.98 411.20,253.74 411.55,253.40 411.90,253.03 412.25,252.76 412.60,252.44 412.95,252.01 413.30,251.62 413.65,251.16 414.00,250.82 414.35,250.39 414.70,250.10 415.05,249.74 415.40,249.50 415.75,249.18 416.10,248.85 416.45,248.58 416.80,248.21 417.15,247.88 417.50,247.63 417.85,247.39 418.20,247.10 418.55,246.79 418.90,246.36 419.25,246.06 419.60,245.56 419.95,245.23 420.30,244.84 420.65,244.52 421.00,244.15 421.35,243.76 421.70,243.43 422.05,243.04 422.40,242.61 422.75,242.23 423.10,241.85 423.45,241.51 423.80,241.27 424.15,240.84 424.50,240.48 424.85,240.10 425.20,239.79 425.55,239.44 425.90,239.26 426.25,238.81 426.60,238.48 426.95,238.12 427.30,237.83 427.65,237.59 428.00,237.26 428.35,236.82 428.70,236.45 429.05,236.18 429.40,235.79 429.75,235.46 430.10,235.22 430.45,234.79 430.80,234.45 431.15,234.16 431.50,233.82 431.85,233.44 432.20,233.15 432.55,232.77 432.90,232.48 433.25,232.05 433.60,231.71 433.95,231.47 434.30,231.04 434.65,230.56 435.00,230.28 435.35,230.02 435.70,229.62 436.05,229.24 436.40,228.91 436.75,228.51 437.10,228.27 437.45,227.99 437.80,227.55 438.15,227.31 438.50,227.07 438.85,226.69 439.20,226.35 439.55,225.94 439.90,225.65 440.25,225.32 440.60,224.97 440.95,224.74 441.30,224.55 441.65,224.12 442.00,223.88 442.35,223.54 442.70,223.21 443.05,222.79 443.40,222.45 443.75,222.05 444.10,221.64 444.45,221.30 444.80,220.96 445.15,220.68 445.50,220.41 445.85,220.12 446.20,219.69 446.55,219.31 446.90,218.92 447.25,218.52 447.60,218.27 447.95,217.83 448.30,217.48 448.65,217.10 449.00,216.65 449.35,216.41 449.70,215.93 450.05,215.53 450.40,215.24 450.75,214.86 451.10,214.43 451.45,214.00 451.80,213.52 452.15,213.13 452.50,212.75 452.85,212.37 453.20,211.95 453.55,211.62 453.90,211.22 454.25,210.93 454.60,210.55 454.95,210.26 455.30,209.88 455.65,209.59 456.00,209.26 456.35,208.89 456.70,208.69 457.05,208.26 457.40,207.88 457.75,207.53 458.10,207.15 458.45,206.74 458.80,206.32 459.15,205.93 459.50,205.69 459.85,205.69 460.20,205.71 460.55,205.56 460.90,205.56 461.25,205.66 461.60,205.63 461.95,205.74 462.30,205.61 462.65,205.76 463.00,205.80 463.35,205.80 463.70,205.71 464.05,205.71 464.40,205.66 464.75,205.69 465.10,205.65 465.45,205.50 465.80,205.45 466.15,205.31 466.50,205.33 466.85,205.43 467.20,205.38 467.55,205.45 467.90,205.21 468.25,205.24 468.60,205.39 468.95,205.53 469.30,205.63 469.65,205.58 470.00,205.53 470.35,205.53 470.70,205.48 471.05,205.48 471.40,205.66 471.75,205.85 472.10,205.77 472.45,205.64 472.80,205.80 473.15,205.76 473.50,205.71 473.85,205.59 474.20,205.72 474.55,205.83 474.90,206.02 475.25,206.16 475.60,206.16 475.95,206.11 476.30,206.35 476.65,206.59 477.00,206.60 477.35,206.55 477.70,206.55 478.05,206.60 478.40,206.60 478.75,206.61 479.10,206.71 479.45,206.85 479.80,206.78 480.15,206.71 480.50,206.66 480.85,206.72 481.20,206.80 481.55,206.96 481.90,207.15 482.25,207.06 482.60,206.93 482.95,206.52 483.30,206.14 483.65,205.76 484.00,205.53 484.35,205.10 484.70,204.87 485.05,204.44 485.40,204.06 485.75,203.72 486.10,203.58 486.45,203.34 486.80,203.03 487.15,202.70 487.50,202.31 487.85,202.03 488.20,201.60 488.55,201.36 488.90,200.97 489.25,200.69 489.60,200.35 489.95,200.06 490.30,199.68 490.65,199.41 491.00,199.03 491.35,198.69 491.70,198.31 492.05,197.92 492.40,197.54 492.75,197.21 493.10,196.97 493.45,196.63 493.80,196.25 494.15,195.86 494.50,195.53 494.85,195.24 495.20,194.94 495.55,194.75 495.90,194.51 496.25,194.20 496.60,193.86 496.95,193.63 497.30,193.29 497.65,193.00 498.00,192.62 498.35,192.24 498.70,191.95 499.05,191.68 499.40,191.25 499.75,190.94 500.10,190.55 500.45,190.22 500.80,189.88 501.15,189.55 501.50,189.19 501.85,188.94 502.20,188.61 502.55,188.22 502.90,188.03 503.25,187.79 503.60,187.68 503.95,187.30 504.30,187.03 504.65,186.56 505.00,186.18 505.35,185.87 505.70,185.48 506.05,185.11 506.40,184.83 506.75,184.37 507.10,184.08 507.45,183.69 507.80,183.23 508.15,182.94 508.50,182.56 508.85,182.19 509.20,181.85 509.55,181.40 509.90,181.06 510.25,180.73 510.60,180.45 510.95,180.07 511.30,179.78 511.65,179.40 512.00,179.11 512.35,178.78 512.70,178.42 513.05,178.08 513.40,177.75 513.75,177.51 514.10,177.27 514.45,177.03 514.80,176.69 515.15,176.60 515.50,176.16 515.85,175.83 516.20,175.35 516.55,174.87 516.90,174.56 517.25,174.28 517.60,173.94 517.95,173.56 518.30,173.13 518.65,172.84 519.00,172.55 519.35,172.17 519.70,171.80 520.05,171.51 520.40,171.22 520.75,170.96 521.10,170.59 521.45,170.25 521.80,169.82 522.15,169.53 522.50,169.24 522.85,169.00 523.20,168.66 523.55,168.38 523.90,168.14 524.25,167.80 524.60,167.41 524.95,167.02 525.30,166.69 525.65,166.26 526.00,165.93 526.35,165.52 526.70,165.23 527.05,164.80 527.40,164.51 527.75,164.31 528.10,163.97 528.45,163.64 528.80,163.16 529.15,162.83 529.50,162.40 529.85,162.11 530.20,161.92 530.55,161.48 530.90,161.05 531.25,160.83 531.60,160.54 531.95,160.21 532.30,159.87 532.65,159.49 533.00,159.11 533.35,158.83 533.70,158.64 534.05,158.26 534.40,157.95 534.75,157.66 535.10,157.28 535.45,156.94 535.80,156.65 536.15,156.30 536.50,155.92 536.85,155.63 537.20,155.34 537.55,155.05 537.90,154.66 538.25,154.23 538.60,153.90 538.95,153.56 539.30,153.27 539.65,152.94 540.00,152.60 540.35,152.32 540.70,151.88 541.05,151.43 541.40,151.10 541.75,150.73 542.10,150.44 542.45,150.15 542.80,149.91 543.15,149.62 543.50,149.28 543.85,148.90 544.20,148.47 544.55,148.04 544.90,147.61 545.25,147.35 545.60,146.92 545.95,146.61 546.30,146.22 546.65,145.98 547.00,145.60 547.35,145.26 547.70,144.87 548.05,144.49 548.40,144.09 548.75,143.75 549.10,143.43 549.45,142.95 549.80,142.50 550.15,142.27 550.50,141.89 550.85,141.58 551.20,141.34 551.55,141.10 551.90,140.63 552.25,140.33 552.60,139.99 552.95,139.54 553.30,139.11 553.65,138.82 554.00,138.56 554.35,138.27 554.70,137.93 555.05,137.64 555.40,137.31 555.75,136.93 556.10,136.59 556.45,136.21 556.80,135.76 557.15,135.38 557.50,135.09 557.85,134.71 558.20,134.42 558.55,134.04 558.90,133.70 559.25,133.35 559.60,133.02 559.95,132.59 560.30,132.21 560.65,132.11 561.00,131.83 561.35,131.49 561.70,131.25 562.05,131.11 562.40,130.68 562.75,130.39 563.10,130.15 563.45,129.90 563.80,129.56 564.15,129.37 564.50,129.08 564.85,128.80 565.20,128.37 565.55,128.03 565.90,127.69 566.25,127.31 566.60,127.07 566.95,126.64 567.30,126.32 567.65,126.04 568.00,125.60 568.35,125.32 568.70,124.89 569.05,124.55 569.40,124.08 569.75,123.69 570.10,123.31 570.45,122.88 570.80,122.54 571.15,122.20 571.50,121.91 571.85,121.69 572.20,121.37 572.55,120.94 572.90,120.58 573.25,120.24 573.60,119.98 573.95,119.55 574.30,119.21 574.65,118.78 575.00,118.41 575.35,117.96 575.70,117.69 576.05,117.26 576.40,116.83 576.75,116.55 577.10,116.26 577.45,115.98 577.80,115.64 578.15,115.20 578.50,114.82 578.85,114.31 579.20,114.07 579.55,113.74 579.90,113.35 580.25,113.02 580.60,112.64 580.95,112.35 581.30,112.00 581.65,111.57 582.00,111.19 582.35,110.85 582.70,110.58 583.05,110.32 583.40,109.89 583.75,109.67 584.10,109.36 584.45,109.04 584.80,108.90 585.15,108.52 585.50,108.15 585.85,107.81 586.20,107.38 586.55,107.09 586.90,106.72 587.25,106.50 587.60,106.26 587.95,105.86 588.30,105.53 588.65,105.15 589.00,104.83 589.35,104.43 589.70,104.14 590.05,103.92 590.40,103.57 590.75,103.16 591.10,102.82 591.45,102.44 591.80,102.09 592.15,101.72 592.50,101.32 592.85,100.98 593.20,100.55 593.55,100.21 593.90,99.82 594.25,99.52 594.60,99.28 594.95,98.90 595.30,98.52 595.65,98.13 596.00,97.81 596.35,97.50 596.70,97.17 597.05,96.88 597.40,96.55 597.75,96.16 598.10,95.87 598.45,95.44 598.80,95.06 599.15,94.68 599.50,94.43 599.85,94.02 600.20,93.73 600.55,93.44 600.90,93.10 601.25,92.72 601.60,92.29 601.95,92.05 602.30,91.62 602.65,91.14 603.00,90.85 603.35,90.61 603.70,90.23 604.05,89.85 604.40,89.51 604.75,89.13 605.10,88.84 605.45,88.50 605.80,88.12 606.15,87.74 606.50,87.39 606.85,87.20 607.20,86.91 607.55,86.53 607.90,86.15 608.25,85.81 608.60,85.62 608.95,85.14 609.30,84.71 609.65,84.38 610.00,84.04 610.35,83.75 610.70,83.37 611.05,82.99 611.40,82.75 611.75,82.32 612.10,82.09 612.45,81.71 612.80,81.41 613.15,81.03 613.50,80.74 613.85,80.36 614.20,80.02 614.55,79.72 614.90,79.33 615.25,79.00 615.60,78.62 615.95,78.28 616.30,77.90 616.65,77.51 617.00,77.23 617.35,77.13 617.70,77.03 618.05,77.00 618.40,77.05 618.75,76.97 619.10,77.12 619.45,77.22 619.80,77.23 620.15,77.26 620.50,77.67 620.85,78.05 621.20,78.34 621.55,78.34 621.90,78.29 622.25,78.27 622.60,78.34 622.95,78.33 623.30,78.19 623.65,78.28 624.00,78.28 624.35,78.38 624.70,78.36 625.05,78.22 625.40,78.27 625.75,78.27 626.10,78.36 626.45,78.44 626.80,78.57 627.15,78.76 627.50,78.84 627.85,78.82 628.20,78.73 628.55,78.82 628.90,78.72 629.25,78.57 629.60,78.55 629.95,78.69 630.30,78.56 630.65,78.46 631.00,78.51 631.35,78.42 631.70,78.52 632.05,78.57 632.40,78.67 632.75,78.70 633.10,78.67 633.45,78.67 633.80,78.96 634.15,78.96 634.50,79.01 634.85,78.91 635.20,79.01 635.55,79.10 635.90,79.20 636.25,79.20 636.60,79.22 636.95,79.08 637.30,78.91 637.65,78.91 638.00,78.86 638.35,78.96 638.70,78.95 639.05,79.03 639.40,79.06 639.75,78.98 640.10,79.04 640.45,79.04 640.80,79.14 641.15,79.14 641.50,79.12 641.85,79.27 642.20,79.27 642.55,79.36 642.90,79.18 643.25,79.33 643.60,79.33 643.95,79.30 644.30,79.31 644.65,79.11 645.00,79.12 645.35,79.02 645.70,79.11 646.05,79.02 646.40,79.02 646.75,79.02 647.10,78.93 647.45,78.97 647.80,78.87 648.15,78.76 648.50,78.66 648.85,78.69 649.20,78.75 649.55,78.90 649.90,78.89 650.25,78.80 650.60,78.85 650.95,78.78 651.30,78.81 651.65,78.87 652.00,78.97 652.35,79.11 652.70,79.27 653.05,79.37 653.40,79.22 653.75,79.36 654.10,79.31 654.45,79.11 654.80,78.88 655.15,78.95 655.50,78.71 655.85,78.42 656.20,78.14 656.55,78.14 656.90,78.22 657.25,78.31 657.60,78.20 657.95,78.01 658.30,77.77 658.65,77.80 659.00,77.86 659.35,77.86 659.70,77.83 660.05,77.82 660.40,77.96 660.75,77.86 661.10,77.69 661.45,77.62 661.80,77.66 662.15,77.59 662.50,77.64 662.85,77.47 663.20,77.47 663.55,77.36 663.90,77.43 664.25,77.77 664.60,78.15 664.95,78.22 665.30,78.33 665.65,78.16 666.00,78.36 666.35,78.69 666.70,78.97 667.05,79.44 667.40,79.68 667.75,79.92 668.10,80.32 668.45,80.80 668.80,81.14 669.15,81.50 669.50,81.86 669.85,82.14 670.20,82.45 670.55,82.92 670.90,83.26 671.25,83.65 671.60,84.04 671.95,84.28 672.30,84.66 672.65,85.00 673.00,85.38 673.35,85.62 673.70,85.86 674.05,86.20 674.40,86.49 674.75,86.80 675.10,87.11 675.45,87.45 675.80,87.62 676.15,88.00 676.50,88.28 676.85,88.62 677.20,89.00 677.55,89.33 677.90,89.81 678.25,90.24 678.60,90.43 678.95,90.85 679.30,91.18 679.65,91.57 680.00,91.61 680.35,91.95 680.70,92.00 681.05,92.28 681.40,92.28 681.75,92.19 682.10,92.11 682.45,92.13 682.80,92.08 683.15,92.13 683.50,92.23 683.85,92.28 684.20,92.14 684.55,92.14 684.90,92.23 685.25,92.23 685.60,92.27 685.95,92.10 686.30,92.04 686.65,91.90 687.00,91.96 687.35,91.77 687.70,91.82 688.05,91.62 688.40,91.67 688.75,91.62 689.10,91.58 689.45,91.31 689.80,91.22 690.15,91.17 690.50,90.98 690.85,90.69 691.20,90.27 691.55,89.86 691.90,89.53 692.25,89.15 692.60,88.81 692.95,88.43 693.30,88.04 693.65,87.56 694.00,87.19 694.35,86.76 694.70,86.42 695.05,86.23 695.40,85.90 695.75,85.53 696.10,85.10 696.45,84.81 696.80,84.47 697.15,84.47 697.50,84.28 697.85,84.06 698.20,83.67 698.55,83.29 698.90,82.86 699.25,82.52 699.60,82.23 699.95,81.90 700.30,81.66 700.65,81.23 701.00,81.06 701.35,80.72 701.70,80.29 702.05,80.03 702.40,79.74 702.75,79.45 703.10,79.36 703.45,79.12 703.80,79.01 704.15,78.86 704.50,78.66 704.85,78.34 705.20,78.10 705.55,77.62 705.90,77.33 706.25,77.04 706.60,76.80 706.95,76.44 707.30,76.30 707.65,76.11 708.00,75.91 708.35,75.91 708.70,75.91 709.05,75.73 709.40,75.68 709.75,75.55 710.10,75.50 710.45,75.45 710.80,75.17 711.15,75.27 711.50,75.42 711.85,75.32 712.20,75.47 712.55,75.42 712.90,75.37 713.25,75.04 713.60,74.61 713.95,74.39 714.30,74.15 714.65,73.72 715.00,73.48 715.35,73.14 715.70,72.81 716.05,72.84 716.40,72.79 716.75,72.78 717.10,72.83 717.45,72.67 717.80,72.63 718.15,72.57 718.50,72.57 718.85,72.62 719.20,72.24 719.55,71.98 719.90,71.79 720.25,71.76 720.60,71.84 720.95,71.87 721.30,71.80 721.65,71.96 722.00,71.82 722.35,71.96 722.70,71.94 723.05,71.99 723.40,72.08 723.75,71.84 724.10,71.65 724.45,71.79 724.80,71.68 725.15,71.82 725.50,71.96 725.85,71.95 726.20,71.90 726.55,71.85 726.90,71.81 727.25,71.75 727.60,71.66 727.95,71.52 728.30,71.76 728.65,72.04 729.00,72.19 729.35,72.67 729.70,73.05 730.05,73.30 730.40,73.53 730.75,73.48 731.10,73.53 731.45,73.48 731.80,73.48 732.15,73.58 732.50,73.58 732.85,73.39 733.20,73.30 733.55,73.41 733.90,73.37 734.25,73.28 734.60,73.43 734.95,73.62 735.30,73.76 735.65,73.74 736.00,73.83 736.35,73.63 736.70,73.61 737.05,73.68 737.40,73.88 737.75,73.85 738.10,73.92 738.45,73.97 738.80,73.94 739.15,73.85 739.50,73.65 739.85,73.70 740.20,73.89 740.55,73.94 740.90,73.82 741.25,73.87 741.60,73.96 741.95,73.88 742.30,73.85 742.65,73.71 743.00,73.76 743.35,73.93 743.70,74.05 744.05,73.97 744.40,73.95 744.75,73.90 745.10,73.90 745.45,73.85 745.80,73.98 746.15,74.17 746.50,74.12 746.85,74.46 747.20,74.84 747.55,75.17 747.90,75.56 748.25,75.76 748.60,76.24 748.95,76.67 749.30,77.01 749.65,77.38 750.00,77.76 750.35,78.19 750.70,78.53 751.05,78.77 751.40,79.01 751.75,79.44 752.10,79.82 752.45,80.15 752.80,80.34 753.15,80.77 753.50,81.16 753.85,81.59 754.20,81.97 754.55,82.31 754.90,82.59 755.25,82.88 755.60,83.26 755.95,83.55 756.30,83.70 756.65,83.94 757.00,84.32 757.35,84.62 757.70,85.07 758.05,85.32 758.40,85.71 758.75,85.96 759.10,86.30 759.45,86.73 759.80,87.11 760.15,87.47 760.50,87.80 760.85,88.23 761.20,88.60 761.55,88.91 761.90,89.20 762.25,89.58 762.60,89.96 762.95,90.39 763.30,90.43 763.65,90.77 764.00,91.03 764.35,91.42 764.70,91.80 765.05,92.09 765.40,92.38 765.75,92.81 766.10,93.21 766.45,93.45 766.80,93.74 767.15,94.06 767.50,94.40 767.85,94.69 768.20,94.93 768.55,95.32 768.90,95.66 769.25,95.95 769.60,96.38 769.95,96.57 770.30,96.91 770.65,96.95 771.00,97.09 771.35,97.48 771.70,97.76 772.05,97.97 772.40,98.31 772.75,98.74 773.10,99.04 773.45,99.34 773.80,99.62 774.15,99.57 774.50,99.86 774.85,100.25 775.20,100.63 775.55,101.07 775.90,101.41 776.25,101.87 776.60,102.16 776.95,102.52 777.30,102.90 777.65,103.24 778.00,103.67 778.35,103.91 778.70,104.05 779.05,104.12 779.40,104.51 779.75,104.72 780.10,105.06 780.45,104.96 780.80,105.25 781.15,105.54 781.50,106.02 781.85,106.40 782.20,106.74 782.55,107.17 782.90,107.50 783.25,107.93 783.60,108.25 783.95,108.40 784.30,108.74 784.65,108.74 785.00,108.67"/>
<line x1="813" y1="54" x2="839" y2="54" stroke="#2563eb" stroke-width="3"/>
<text x="847" y="58" font-family="Arial" font-size="13" fill="#111827">low volatility</text>
<polyline fill="none" stroke="#dc2626" stroke-width="2" points="85.00,366.11 85.35,366.11 85.70,365.95 86.05,366.07 86.40,366.46 86.75,366.82 87.10,367.19 87.45,367.53 87.80,367.82 88.15,368.12 88.50,368.22 88.85,368.31 89.20,368.34 89.55,368.24 89.90,368.00 90.25,367.76 90.60,367.64 90.95,367.60 91.30,367.75 91.65,367.60 92.00,367.46 92.35,367.27 92.70,367.58 93.05,367.67 93.40,367.53 93.75,367.50 94.10,367.65 94.45,367.41 94.80,367.09 95.15,367.01 95.50,366.67 95.85,366.34 96.20,365.91 96.55,365.62 96.90,365.18 97.25,364.94 97.60,364.60 97.95,364.25 98.30,364.06 98.65,363.67 99.00,363.34 99.35,363.14 99.70,362.81 100.05,362.38 100.40,361.95 100.75,361.94 101.10,362.23 101.45,362.61 101.80,362.98 102.15,363.32 102.50,363.71 102.85,363.90 103.20,364.33 103.55,364.71 103.90,365.10 104.25,364.73 104.60,364.49 104.95,364.31 105.30,364.06 105.65,364.01 106.00,363.86 106.35,363.96 106.70,364.20 107.05,364.49 107.40,364.81 107.75,365.05 108.10,365.48 108.45,365.49 108.80,365.11 109.15,365.16 109.50,365.10 109.85,364.95 110.20,364.62 110.55,364.53 110.90,364.20 111.25,363.86 111.60,363.67 111.95,363.62 112.30,363.62 112.65,363.83 113.00,364.02 113.35,364.00 113.70,364.07 114.05,364.21 114.40,364.31 114.75,364.31 115.10,364.30 115.45,364.41 115.80,364.51 116.15,364.60 116.50,364.59 116.85,364.59 117.20,364.72 117.55,364.72 117.90,365.00 118.25,365.39 118.60,365.77 118.95,366.11 119.30,366.44 119.65,366.83 120.00,367.17 120.35,367.55 120.70,367.84 121.05,368.12 121.40,368.37 121.75,368.71 122.10,369.04 122.45,369.40 122.80,369.74 123.15,370.03 123.50,370.42 123.85,370.74 124.20,371.07 124.55,371.36 124.90,371.55 125.25,371.85 125.60,372.09 125.95,372.52 126.30,372.81 126.65,373.23 127.00,373.52 127.35,373.68 127.70,373.92 128.05,373.58 128.40,373.30 128.75,372.91 129.10,372.58 129.45,372.39 129.80,372.09 130.15,371.81 130.50,371.37 130.85,371.13 131.20,371.01 131.55,370.67 131.90,370.34 132.25,369.96 132.60,369.48 132.95,369.09 133.30,368.61 133.65,368.61 134.00,368.37 134.35,368.40 134.70,368.31 135.05,368.58 135.40,368.91 135.75,369.25 136.10,369.10 136.45,369.28 136.80,369.28 137.15,369.57 137.50,369.49 137.85,369.64 138.20,369.69 138.55,369.67 138.90,369.72 139.25,369.96 139.60,369.91 139.95,369.91 140.30,369.52 140.65,369.62 141.00,369.52 141.35,369.59 141.70,369.59 142.05,369.85 142.40,370.08 142.75,370.33 143.10,370.74 143.45,371.07 143.80,371.31 144.15,371.70 144.50,372.13 144.85,372.41 145.20,372.75 145.55,373.13 145.90,373.42 146.25,373.76 146.60,374.04 146.95,374.38 147.30,374.59 147.65,374.88 148.00,374.97 148.35,375.41 148.70,375.79 149.05,376.17 149.40,376.36 149.75,376.10 150.10,376.24 150.45,376.53 150.80,376.62 151.15,376.60 151.50,376.44 151.85,376.61 152.20,376.70 152.55,377.04 152.90,377.47 153.25,377.73 153.60,377.44 153.95,377.44 154.30,377.30 154.65,377.44 155.00,377.35 155.35,377.68 155.70,377.92 156.05,377.81 156.40,377.60 156.75,377.50 157.10,377.55 157.45,377.87 157.80,377.76 158.15,377.86 158.50,377.95 158.85,378.43 159.20,378.77 159.55,379.06 159.90,379.09 160.25,379.05 160.60,379.34 160.95,379.67 161.30,379.88 161.65,380.36 162.00,380.65 162.35,380.84 162.70,381.22 163.05,381.50 163.40,381.88 163.75,381.82 164.10,381.77 164.45,381.68 164.80,381.44 165.15,381.09 165.50,380.85 165.85,380.48 166.20,380.00 166.55,379.68 166.90,379.30 167.25,379.36 167.60,379.46 167.95,379.41 168.30,379.48 168.65,379.17 169.00,378.83 169.35,378.50 169.70,378.11 170.05,377.73 170.40,377.49 170.75,377.11 171.10,376.72 171.45,376.34 171.80,376.02 172.15,375.68 172.50,375.30 172.85,374.92 173.20,374.58 173.55,374.24 173.90,373.90 174.25,373.49 174.60,373.21 174.95,372.92 175.30,372.73 175.65,372.39 176.00,372.07 176.35,371.73 176.70,371.35 177.05,371.06 177.40,370.68 177.75,370.30 178.10,370.01 178.45,369.73 178.80,369.49 179.15,369.11 179.50,368.76 179.85,368.38 180.20,368.00 180.55,367.68 180.90,367.30 181.25,367.01 181.60,366.59 181.95,366.33 182.30,366.00 182.65,365.64 183.00,365.40 183.35,365.15 183.70,364.82 184.05,364.58 184.40,364.19 184.75,363.81 185.10,363.42 185.45,363.04 185.80,362.79 186.15,362.45 186.50,362.16 186.85,361.78 187.20,361.45 187.55,361.07 187.90,360.83 188.25,360.40 188.60,360.11 188.95,359.74 189.30,359.47 189.65,359.14 190.00,358.75 190.35,358.32 190.70,358.04 191.05,357.75 191.40,357.39 191.75,356.96 192.10,356.59 192.45,356.30 192.80,356.02 193.15,355.69 193.50,355.40 193.85,355.16 194.20,354.78 194.55,354.39 194.90,354.09 195.25,353.95 195.60,353.52 195.95,353.23 196.30,352.80 196.65,352.37 197.00,351.98 197.35,351.66 197.70,351.32 198.05,351.08 198.40,350.75 198.75,350.37 199.10,350.03 199.45,349.74 199.80,349.51 200.15,349.07 200.50,348.59 200.85,348.26 201.20,347.92 201.55,347.64 201.90,347.76 202.25,347.96 202.60,348.24 202.95,348.34 203.30,348.44 203.65,348.05 204.00,347.81 204.35,347.48 204.70,347.11 205.05,346.82 205.40,346.53 205.75,346.29 206.10,346.25 206.45,346.44 206.80,346.44 207.15,346.20 207.50,345.86 207.85,345.57 208.20,345.38 208.55,344.95 208.90,344.62 209.25,344.28 209.60,343.90 209.95,343.56 210.30,343.13 210.65,342.75 211.00,342.36 211.35,342.02 211.70,341.63 212.05,341.25 212.40,340.96 212.75,340.48 213.10,340.05 213.45,339.71 213.80,339.33 214.15,338.94 214.50,339.04 214.85,338.90 215.20,338.98 215.55,339.22 215.90,338.74 216.25,339.03 216.60,339.01 216.95,338.86 217.30,338.69 217.65,338.60 218.00,338.48 218.35,338.50 218.70,338.55 219.05,339.07 219.40,339.25 219.75,339.33 220.10,339.42 220.45,339.42 220.80,339.52 221.15,339.57 221.50,339.19 221.85,338.93 222.20,338.69 222.55,338.64 222.90,338.54 223.25,338.73 223.60,338.31 223.95,338.12 224.30,337.78 224.65,338.05 225.00,338.03 225.35,338.32 225.70,338.35 226.05,338.44 226.40,338.12 226.75,337.79 227.10,337.54 227.45,337.20 227.80,337.34 228.15,337.70 228.50,337.99 228.85,338.33 229.20,338.47 229.55,338.68 229.90,339.07 230.25,339.54 230.60,339.85 230.95,340.18 231.30,340.52 231.65,340.89 232.00,341.32 232.35,341.64 232.70,341.93 233.05,342.27 233.40,342.65 233.75,342.99 234.10,343.32 234.45,343.70 234.80,343.89 235.15,344.40 235.50,344.71 235.85,344.90 236.20,345.14 236.55,345.45 236.90,345.79 237.25,346.22 237.60,346.56 237.95,346.90 238.30,347.29 238.65,347.68 239.00,347.95 239.35,348.29 239.70,348.57 240.05,348.91 240.40,349.15 240.75,349.47 241.10,349.75 241.45,350.18 241.80,350.47 242.15,350.90 242.50,351.23 242.85,351.38 243.20,351.67 243.55,351.43 243.90,351.04 244.25,350.70 244.60,350.37 244.95,349.98 245.30,349.50 245.65,349.12 246.00,348.79 246.35,348.64 246.70,348.79 247.05,348.92 247.40,349.31 247.75,349.22 248.10,349.26 248.45,349.36 248.80,349.68 249.15,349.34 249.50,349.01 249.85,348.67 250.20,348.44 250.55,348.12 250.90,347.83 251.25,347.54 251.60,347.25 251.95,346.96 252.30,346.55 252.65,346.36 253.00,346.01 253.35,345.66 253.70,345.18 254.05,345.03 254.40,344.79 254.75,344.41 255.10,343.93 255.45,343.64 255.80,343.26 256.15,342.91 256.50,342.48 256.85,342.25 257.20,341.97 257.55,341.56 257.90,341.14 258.25,340.98 258.60,340.66 258.95,340.23 259.30,339.84 259.65,339.55 260.00,339.27 260.35,338.98 260.70,338.55 261.05,338.29 261.40,337.96 261.75,337.54 262.10,337.25 262.45,337.04 262.80,336.69 263.15,336.45 263.50,336.12 263.85,335.73 264.20,335.49 264.55,335.16 264.90,334.87 265.25,335.00 265.60,335.38 265.95,335.64 266.30,336.04 266.65,336.42 267.00,336.76 267.35,336.99 267.70,337.33 268.05,337.71 268.40,338.02 268.75,338.40 269.10,338.69 269.45,338.84 269.80,339.11 270.15,339.50 270.50,339.82 270.85,340.12 271.20,340.41 271.55,340.69 271.90,341.13 272.25,341.61 272.60,341.89 272.95,341.94 273.30,341.96 273.65,342.20 274.00,342.20 274.35,342.18 274.70,342.32 275.05,342.55 275.40,342.32 275.75,342.23 276.10,342.41 276.45,342.60 276.80,342.90 277.15,343.31 277.50,343.60 277.85,343.93 278.20,344.22 278.55,344.70 278.90,344.80 279.25,344.96 279.60,345.05 279.95,345.33 280.30,345.45 280.65,345.55 281.00,345.84 281.35,346.00 281.70,346.14 282.05,346.34 282.40,346.46 282.75,346.51 283.10,346.51 283.45,346.31 283.80,346.52 284.15,346.81 284.50,346.57 284.85,346.25 285.20,345.90 285.55,345.57 285.90,345.28 286.25,345.04 286.60,344.85 286.95,344.99 287.30,345.04 287.65,344.70 288.00,344.51 288.35,344.17 288.70,344.07 289.05,344.31 289.40,344.46 289.75,344.22 290.10,343.88 290.45,343.63 290.80,343.53 291.15,343.53 291.50,343.10 291.85,342.81 292.20,342.66 292.55,342.23 292.90,341.90 293.25,341.62 293.60,341.23 293.95,340.94 294.30,340.60 294.65,340.27 295.00,339.93 295.35,339.65 295.70,339.31 296.05,339.07 296.40,338.77 296.75,338.92 297.10,339.26 297.45,339.64 297.80,339.95 298.15,340.19 298.50,340.46 298.85,340.75 299.20,341.13 299.55,340.89 299.90,340.58 300.25,340.54 300.60,340.46 300.95,340.27 301.30,339.94 301.65,339.93 302.00,339.45 302.35,339.07 302.70,338.80 303.05,338.51 303.40,338.14 303.75,337.80 304.10,337.42 304.45,337.11 304.80,336.87 305.15,336.77 305.50,336.68 305.85,336.55 306.20,336.79 306.55,337.03 306.90,337.08 307.25,337.22 307.60,337.61 307.95,338.06 308.30,338.35 308.65,338.68 309.00,339.07 309.35,339.50 309.70,339.83 310.05,340.12 310.40,340.55 310.75,340.84 311.10,341.22 311.45,341.53 311.80,341.77 312.15,342.11 312.50,342.38 312.85,342.58 313.20,342.87 313.55,343.30 313.90,343.49 314.25,343.87 314.60,344.17 314.95,344.60 315.30,344.98 315.65,345.27 316.00,345.57 316.35,345.67 316.70,345.67 317.05,345.43 317.40,345.04 317.75,345.09 318.10,345.28 318.45,344.83 318.80,344.40 319.15,344.17 319.50,343.84 319.85,343.50 320.20,343.07 320.55,342.81 320.90,342.43 321.25,342.09 321.60,341.61 321.95,341.30 322.30,341.12 322.65,340.74 323.00,340.48 323.35,340.12 323.70,339.82 324.05,339.44 324.40,339.01 324.75,338.68 325.10,338.34 325.45,338.05 325.80,337.82 326.15,337.38 326.50,337.19 326.85,336.80 327.20,336.52 327.55,336.28 327.90,335.94 328.25,335.65 328.60,335.44 328.95,335.11 329.30,334.68 329.65,334.39 330.00,334.48 330.35,334.20 330.70,334.42 331.05,334.66 331.40,335.04 331.75,334.80 332.10,335.24 332.45,335.09 332.80,334.70 333.15,334.36 333.50,334.16 333.85,333.79 334.20,333.43 334.55,333.05 334.90,332.81 335.25,332.42 335.60,332.11 335.95,331.67 336.30,331.39 336.65,331.05 337.00,330.67 337.35,330.33 337.70,329.90 338.05,329.65 338.40,329.36 338.75,329.12 339.10,328.74 339.45,328.40 339.80,328.08 340.15,327.67 340.50,327.28 340.85,327.00 341.20,326.71 341.55,326.28 341.90,326.04 342.25,325.70 342.60,325.33 342.95,324.99 343.30,324.71 343.65,324.43 344.00,324.19 344.35,323.71 344.70,323.28 345.05,322.90 345.40,322.61 345.75,322.18 346.10,321.95 346.45,321.65 346.80,321.37 347.15,321.03 347.50,320.55 347.85,320.17 348.20,319.93 348.55,319.50 348.90,319.17 349.25,318.84 349.60,318.46 349.95,318.17 350.30,317.81 350.65,317.53 351.00,317.14 351.35,316.87 351.70,316.49 352.05,316.06 352.40,315.63 352.75,315.29 353.10,314.81 353.45,314.53 353.80,314.30 354.15,313.87 354.50,313.53 354.85,313.15 355.20,312.82 355.55,312.34 355.90,311.96 356.25,311.67 356.60,311.99 356.95,312.42 357.30,312.82 357.65,313.17 358.00,313.52 358.35,313.90 358.70,314.33 359.05,314.72 359.40,315.11 359.75,315.44 360.10,315.59 360.45,316.00 360.80,316.40 361.15,316.74 361.50,317.12 361.85,317.45 362.20,317.89 362.55,318.18 362.90,318.52 363.25,318.95 363.60,319.29 363.95,319.68 364.30,319.85 364.65,320.23 365.00,320.67 365.35,320.93 365.70,321.34 366.05,321.67 366.40,321.96 366.75,322.34 367.10,322.58 367.45,322.97 367.80,323.30 368.15,323.63 368.50,323.97 368.85,324.40 369.20,324.64 369.55,325.06 369.90,325.45 370.25,325.82 370.60,326.19 370.95,326.53 371.30,326.70 371.65,326.40 372.00,326.02 372.35,325.59 372.70,325.44 373.05,325.73 373.40,326.12 373.75,326.50 374.10,326.93 374.45,327.23 374.80,327.56 375.15,327.85 375.50,328.16 375.85,328.25 376.20,328.35 376.55,328.11 376.90,327.77 377.25,327.46 377.60,327.04 377.95,326.83 378.30,326.54 378.65,326.32 379.00,326.35 379.35,326.25 379.70,326.45 380.05,326.65 380.40,326.65 380.75,326.35 381.10,326.06 381.45,326.25 381.80,326.11 382.15,326.30 382.50,326.63 382.85,327.02 383.20,327.35 383.55,327.54 383.90,327.68 384.25,327.71 384.60,328.09 384.95,328.38 385.30,328.81 385.65,329.16 386.00,329.45 386.35,329.87 386.70,330.26 387.05,330.69 387.40,330.82 387.75,330.97 388.10,331.22 388.45,331.55 388.80,331.96 389.15,332.19 389.50,332.48 389.85,332.82 390.20,333.15 390.55,333.43 390.90,333.79 391.25,334.08 391.60,334.32 391.95,334.75 392.30,335.14 392.65,335.51 393.00,335.82 393.35,336.06 393.70,336.35 394.05,336.73 394.40,337.02 394.75,337.40 395.10,337.65 395.45,337.99 395.80,338.28 396.15,338.64 396.50,338.76 396.85,339.19 397.20,339.48 397.55,339.79 397.90,340.18 398.25,340.56 398.60,340.93 398.95,341.17 399.30,341.61 399.65,341.88 400.00,342.21 400.35,342.65 400.70,342.98 401.05,343.19 401.40,343.52 401.75,343.71 402.10,343.80 402.45,343.70 402.80,343.86 403.15,343.70 403.50,343.32 403.85,343.13 404.20,343.27 404.55,343.36 404.90,343.60 405.25,343.65 405.60,343.75 405.95,343.81 406.30,343.71 406.65,343.80 407.00,343.43 407.35,343.14 407.70,342.78 408.05,342.74 408.40,343.17 408.75,343.52 409.10,343.76 409.45,344.15 409.80,344.58 410.15,344.91 410.50,345.25 410.85,345.49 411.20,345.82 411.55,346.16 411.90,346.49 412.25,346.73 412.60,347.07 412.95,347.45 413.30,347.79 413.65,348.05 414.00,348.29 414.35,348.63 414.70,349.06 415.05,349.49 415.40,349.92 415.75,350.21 416.10,350.50 416.45,350.50 416.80,350.41 417.15,350.14 417.50,350.04 417.85,350.12 418.20,350.31 418.55,350.70 418.90,350.99 419.25,351.27 419.60,351.48 419.95,351.82 420.30,352.10 420.65,352.44 421.00,352.79 421.35,353.13 421.70,353.51 422.05,353.80 422.40,354.28 422.75,354.71 423.10,355.10 423.45,355.44 423.80,355.86 424.15,356.15 424.50,356.48 424.85,356.82 425.20,357.35 425.55,357.59 425.90,357.92 426.25,358.13 426.60,358.46 426.95,358.85 427.30,359.18 427.65,359.55 428.00,359.93 428.35,360.22 428.70,360.60 429.05,360.94 429.40,361.30 429.75,361.54 430.10,362.00 430.45,362.43 430.80,362.81 431.15,363.06 431.50,363.30 431.85,363.59 432.20,363.92 432.55,364.26 432.90,364.54 433.25,364.83 433.60,365.12 433.95,365.50 434.30,365.84 434.65,366.22 435.00,366.56 435.35,366.94 435.70,366.89 436.05,366.94 436.40,367.32 436.75,367.47 437.10,367.28 437.45,367.28 437.80,367.25 438.15,367.11 438.50,367.25 438.85,367.20 439.20,367.06 439.55,367.16 439.90,367.07 440.25,367.24 440.60,367.23 440.95,367.15 441.30,367.37 441.65,367.80 442.00,367.88 442.35,367.95 442.70,368.29 443.05,368.58 443.40,368.92 443.75,369.16 444.10,369.39 444.45,369.68 444.80,370.07 445.15,370.31 445.50,370.63 445.85,371.01 446.20,371.40 446.55,371.75 446.90,372.10 447.25,372.63 447.60,372.77 447.95,373.15 448.30,373.39 448.65,373.87 449.00,374.25 449.35,374.58 449.70,374.96 450.05,375.44 450.40,375.82 450.75,376.11 451.10,376.48 451.45,376.76 451.80,377.09 452.15,377.48 452.50,377.76 452.85,378.10 453.20,378.48 453.55,378.82 453.90,379.20 454.25,379.54 454.60,379.86 454.95,380.25 455.30,380.63 455.65,380.96 456.00,381.30 456.35,381.48 456.70,381.82 457.05,382.20 457.40,382.68 457.75,382.95 458.10,383.26 458.45,383.69 458.80,384.08 459.15,384.46 459.50,384.70 459.85,385.08 460.20,385.47 460.55,385.85 460.90,386.11 461.25,386.48 461.60,386.96 461.95,387.34 462.30,387.72 462.65,388.01 463.00,387.81 463.35,387.67 463.70,387.63 464.05,387.39 464.40,387.15 464.75,387.04 465.10,386.95 465.45,386.67 465.80,386.60 466.15,386.65 466.50,386.46 466.85,386.22 467.20,386.27 467.55,386.17 467.90,386.31 468.25,386.60 468.60,386.40 468.95,386.31 469.30,386.58 469.65,386.96 470.00,387.39 470.35,387.68 470.70,388.00 471.05,388.43 471.40,388.77 471.75,389.06 472.10,389.35 472.45,389.45 472.80,389.55 473.15,389.74 473.50,390.03 473.85,390.27 474.20,390.46 474.55,390.60 474.90,390.85 475.25,391.25 475.60,391.58 475.95,392.01 476.30,392.20 476.65,392.59 477.00,392.97 477.35,393.31 477.70,393.59 478.05,393.88 478.40,394.12 478.75,394.27 479.10,394.16 479.45,393.97 479.80,393.87 480.15,393.81 480.50,393.39 480.85,392.96 481.20,392.82 481.55,392.43 481.90,392.19 482.25,391.95 482.60,391.59 482.95,391.54 483.30,391.49 483.65,391.78 484.00,392.02 484.35,392.41 484.70,392.82 485.05,393.21 485.40,393.68 485.75,393.86 486.10,393.74 486.45,394.13 486.80,394.52 487.15,394.61 487.50,394.71 487.85,394.76 488.20,395.00 488.55,394.95 488.90,395.29 489.25,395.62 489.60,395.91 489.95,396.34 490.30,396.70 490.65,397.05 491.00,397.39 491.35,397.72 491.70,397.81 492.05,397.87 492.40,397.78 492.75,397.62 493.10,397.28 493.45,397.14 493.80,396.71 494.15,396.57 494.50,396.28 494.85,396.34 495.20,396.71 495.55,397.07 495.90,397.55 496.25,397.93 496.60,398.22 496.95,398.32 497.30,398.23 497.65,397.85 498.00,397.71 498.35,397.37 498.70,397.27 499.05,396.93 499.40,397.02 499.75,397.35 500.10,397.11 500.45,396.63 500.80,396.29 501.15,395.86 501.50,395.67 501.85,395.33 502.20,395.09 502.55,394.76 502.90,394.42 503.25,394.07 503.60,393.82 503.95,393.44 504.30,393.06 504.65,392.65 505.00,392.30 505.35,392.02 505.70,391.68 506.05,391.39 506.40,391.30 506.75,391.20 507.10,391.11 507.45,390.96 507.80,390.82 508.15,390.84 508.50,390.68 508.85,390.34 509.20,390.18 509.55,390.13 509.90,390.04 510.25,390.01 510.60,389.87 510.95,389.84 511.30,389.98 511.65,390.27 512.00,390.61 512.35,390.90 512.70,391.27 513.05,391.65 513.40,392.04 513.75,392.37 514.10,392.74 514.45,393.11 514.80,393.18 515.15,393.61 515.50,393.72 515.85,393.87 516.20,394.06 516.55,393.82 516.90,393.53 517.25,393.72 517.60,393.92 517.95,394.38 518.30,394.47 518.65,394.57 519.00,394.52 519.35,394.57 519.70,395.00 520.05,395.19 520.40,395.05 520.75,394.76 521.10,394.42 521.45,394.18 521.80,394.05 522.15,393.86 522.50,393.72 522.85,393.51 523.20,393.42 523.55,393.37 523.90,393.37 524.25,393.22 524.60,393.09 524.95,392.71 525.30,392.52 525.65,392.31 526.00,392.10 526.35,392.07 526.70,391.73 527.05,391.67 527.40,391.49 527.75,391.41 528.10,391.49 528.45,391.30 528.80,391.21 529.15,390.98 529.50,390.50 529.85,390.17 530.20,389.87 530.55,389.57 530.90,389.24 531.25,388.98 531.60,388.77 531.95,388.70 532.30,388.80 532.65,388.61 533.00,388.33 533.35,388.03 533.70,387.74 534.05,387.41 534.40,387.13 534.75,386.75 535.10,386.32 535.45,385.89 535.80,385.50 536.15,385.19 536.50,384.85 536.85,384.37 537.20,383.94 537.55,383.60 537.90,383.27 538.25,382.94 538.60,382.69 538.95,382.50 539.30,382.12 539.65,381.89 540.00,381.51 540.35,381.22 540.70,380.83 541.05,380.45 541.40,380.10 541.75,379.71 542.10,379.31 542.45,378.95 542.80,378.52 543.15,378.21 543.50,377.83 543.85,377.52 544.20,377.23 544.55,376.99 544.90,376.66 545.25,376.30 545.60,376.06 545.95,375.82 546.30,375.72 546.65,375.43 547.00,375.32 547.35,375.41 547.70,375.69 548.05,375.89 548.40,376.32 548.75,376.61 549.10,376.94 549.45,377.42 549.80,377.81 550.15,378.29 550.50,378.57 550.85,378.86 551.20,379.15 551.55,379.58 551.90,379.89 552.25,380.18 552.60,380.51 552.95,380.85 553.30,381.14 553.65,381.47 554.00,381.71 554.35,382.10 554.70,382.35 555.05,382.80 555.40,383.13 555.75,383.47 556.10,383.80 556.45,384.19 556.80,384.57 557.15,384.96 557.50,385.27 557.85,385.49 558.20,385.61 558.55,385.90 558.90,386.33 559.25,386.57 559.60,386.57 559.95,386.48 560.30,386.17 560.65,385.95 561.00,385.89 561.35,385.89 561.70,385.74 562.05,385.77 562.40,385.61 562.75,385.18 563.10,384.84 563.45,384.41 563.80,384.08 564.15,383.85 564.50,383.57 564.85,383.15 565.20,382.67 565.55,382.30 565.90,381.92 566.25,381.54 566.60,381.25 566.95,380.92 567.30,380.66 567.65,380.36 568.00,379.97 568.35,379.69 568.70,379.45 569.05,379.11 569.40,378.76 569.75,378.53 570.10,378.09 570.45,377.66 570.80,377.43 571.15,377.38 571.50,377.38 571.85,377.29 572.20,377.05 572.55,376.67 572.90,376.28 573.25,375.85 573.60,375.52 573.95,375.24 574.30,375.01 574.65,374.82 575.00,374.82 575.35,374.77 575.70,374.72 576.05,374.73 576.40,374.87 576.75,374.86 577.10,374.94 577.45,374.89 577.80,374.81 578.15,374.79 578.50,374.88 578.85,375.12 579.20,375.55 579.55,375.88 579.90,376.18 580.25,376.46 580.60,376.76 580.95,377.14 581.30,377.26 581.65,377.65 582.00,377.70 582.35,377.79 582.70,377.86 583.05,377.75 583.40,377.80 583.75,378.08 584.10,378.52 584.45,378.83 584.80,379.09 585.15,379.42 585.50,379.76 585.85,380.24 586.20,380.52 586.55,380.81 586.90,381.24 587.25,381.42 587.60,381.61 587.95,381.94 588.30,382.23 588.65,382.61 589.00,382.96 589.35,383.39 589.70,383.79 590.05,384.22 590.40,384.60 590.75,384.84 591.10,385.27 591.45,385.52 591.80,385.82 592.15,386.30 592.50,386.63 592.85,386.98 593.20,387.18 593.55,387.38 593.90,387.64 594.25,387.88 594.60,388.19 594.95,388.48 595.30,388.64 595.65,389.03 596.00,389.34 596.35,389.67 596.70,389.87 597.05,390.25 597.40,390.56 597.75,390.90 598.10,391.04 598.45,391.18 598.80,391.53 599.15,391.96 599.50,392.30 599.85,392.69 600.20,392.98 600.55,393.36 600.90,393.74 601.25,394.03 601.60,394.27 601.95,394.60 602.30,395.03 602.65,395.25 603.00,395.49 603.35,395.79 603.70,396.08 604.05,396.48 604.40,396.55 604.75,396.75 605.10,396.82 605.45,396.54 605.80,396.60 606.15,396.84 606.50,397.03 606.85,396.89 607.20,396.86 607.55,396.71 607.90,396.33 608.25,396.09 608.60,395.83 608.95,395.49 609.30,395.16 609.65,394.82 610.00,394.39 610.35,394.15 610.70,393.81 611.05,393.48 611.40,393.14 611.75,392.86 612.10,392.53 612.45,392.44 612.80,392.59 613.15,392.53 613.50,392.50 613.85,392.54 614.20,392.35 614.55,392.07 614.90,391.69 615.25,391.55 615.60,391.45 615.95,391.60 616.30,391.40 616.65,391.57 617.00,391.72 617.35,391.53 617.70,391.31 618.05,390.88 618.40,390.45 618.75,389.99 619.10,389.65 619.45,389.32 619.80,388.94 620.15,388.50 620.50,388.12 620.85,387.64 621.20,387.31 621.55,386.83 621.90,386.51 622.25,386.17 622.60,385.74 622.95,385.40 623.30,385.07 623.65,384.78 624.00,384.44 624.35,384.16 624.70,383.73 625.05,383.39 625.40,383.05 625.75,382.76 626.10,382.39 626.45,382.10 626.80,381.81 627.15,381.79 627.50,382.03 627.85,381.98 628.20,382.12 628.55,382.45 628.90,382.74 629.25,382.94 629.60,382.99 629.95,382.94 630.30,383.15 630.65,383.51 631.00,383.89 631.35,383.80 631.70,383.71 632.05,383.59 632.40,383.35 632.75,383.02 633.10,382.69 633.45,382.54 633.80,382.69 634.15,382.69 634.50,382.49 634.85,382.70 635.20,382.70 635.55,382.22 635.90,381.89 636.25,381.45 636.60,381.07 636.95,380.75 637.30,380.51 637.65,380.51 638.00,380.23 638.35,379.90 638.70,379.61 639.05,379.37 639.40,378.94 639.75,378.64 640.10,378.30 640.45,377.89 640.80,377.51 641.15,377.14 641.50,376.86 641.85,376.91 642.20,376.77 642.55,376.38 642.90,376.10 643.25,375.66 643.60,375.33 643.95,374.96 644.30,374.68 644.65,374.40 645.00,374.02 645.35,373.54 645.70,373.30 646.05,372.99 646.40,372.65 646.75,372.31 647.10,371.98 647.45,371.69 647.80,371.40 648.15,371.12 648.50,370.83 648.85,370.54 649.20,370.30 649.55,370.01 649.90,369.73 650.25,369.39 650.60,369.08 650.95,368.85 651.30,368.49 651.65,368.23 652.00,367.95 652.35,367.65 652.70,367.18 653.05,366.84 653.40,366.55 653.75,366.27 654.10,365.93 654.45,365.90 654.80,365.85 655.15,366.07 655.50,365.77 655.85,365.44 656.20,365.24 656.55,364.86 656.90,364.57 657.25,364.75 657.60,364.31 657.95,363.93 658.30,363.60 658.65,363.39 659.00,363.20 659.35,362.92 659.70,362.58 660.05,362.30 660.40,361.91 660.75,361.58 661.10,361.29 661.45,360.85 661.80,360.57 662.15,360.20 662.50,359.81 662.85,359.43 663.20,359.05 663.55,358.85 663.90,358.46 664.25,358.12 664.60,357.82 664.95,357.53 665.30,357.34 665.65,357.01 666.00,356.62 666.35,356.19 666.70,355.81 667.05,355.48 667.40,355.15 667.75,354.81 668.10,354.55 668.45,354.26 668.80,353.88 669.15,353.56 669.50,353.18 669.85,352.80 670.20,352.41 670.55,351.93 670.90,351.74 671.25,351.46 671.60,351.18 671.95,350.82 672.30,350.45 672.65,350.02 673.00,349.73 673.35,349.32 673.70,348.89 674.05,348.41 674.40,348.22 674.75,347.69 675.10,347.31 675.45,346.97 675.80,346.59 676.15,346.25 676.50,345.82 676.85,345.36 677.20,345.08 677.55,344.70 677.90,344.24 678.25,344.17 678.60,344.00 678.95,343.86 679.30,343.86 679.65,343.91 680.00,343.95 680.35,344.02 680.70,343.70 681.05,343.27 681.40,343.20 681.75,343.22 682.10,343.32 682.45,343.52 682.80,343.67 683.15,343.77 683.50,344.17 683.85,344.12 684.20,344.13 684.55,344.01 684.90,343.62 685.25,343.38 685.60,343.00 685.95,342.86 686.30,342.71 686.65,342.52 687.00,342.84 687.35,342.65 687.70,342.53 688.05,342.53 688.40,342.69 688.75,342.88 689.10,343.09 689.45,343.43 689.80,343.81 690.15,344.00 690.50,344.19 690.85,344.48 691.20,344.51 691.55,344.48 691.90,344.28 692.25,344.36 692.60,344.36 692.95,344.31 693.30,344.04 693.65,344.18 694.00,344.26 694.35,344.23 694.70,344.15 695.05,344.29 695.40,344.15 695.75,344.30 696.10,344.26 696.45,344.06 696.80,344.40 697.15,344.65 697.50,345.04 697.85,345.39 698.20,345.68 698.55,346.06 698.90,346.49 699.25,346.96 699.60,347.34 699.95,347.72 700.30,347.91 700.65,348.26 701.00,348.45 701.35,348.83 701.70,348.54 702.05,348.54 702.40,348.35 702.75,348.35 703.10,348.42 703.45,348.62 703.80,348.62 704.15,348.38 704.50,348.19 704.85,348.38 705.20,348.31 705.55,348.45 705.90,348.55 706.25,348.88 706.60,349.36 706.95,349.61 707.30,349.90 707.65,350.28 708.00,350.62 708.35,351.00 708.70,351.14 709.05,351.38 709.40,351.76 709.75,352.09 710.10,352.52 710.45,353.02 710.80,353.34 711.15,353.62 711.50,354.05 711.85,354.34 712.20,354.72 712.55,355.16 712.90,355.50 713.25,355.78 713.60,356.16 713.95,356.30 714.30,356.73 714.65,357.11 715.00,357.35 715.35,357.73 715.70,358.02 716.05,358.40 716.40,358.85 716.75,359.14 717.10,359.47 717.45,359.81 717.80,360.19 718.15,360.53 718.50,360.82 718.85,361.09 719.20,361.33 719.55,361.76 719.90,361.85 720.25,361.89 720.60,362.28 720.95,362.28 721.30,362.09 721.65,362.02 722.00,362.24 722.35,362.14 722.70,362.11 723.05,361.75 723.40,361.43 723.75,361.10 724.10,360.90 724.45,360.80 724.80,360.62 725.15,360.19 725.50,359.71 725.85,359.45 726.20,359.16 726.55,358.78 726.90,358.50 727.25,358.16 727.60,357.95 727.95,357.52 728.30,357.14 728.65,356.79 729.00,356.55 729.35,356.28 729.70,356.14 730.05,356.30 730.40,356.30 730.75,356.06 731.10,355.81 731.45,355.58 731.80,355.67 732.15,355.89 732.50,355.80 732.85,356.13 733.20,356.28 733.55,356.50 733.90,356.40 734.25,356.35 734.60,355.99 734.95,355.77 735.30,355.35 735.65,354.99 736.00,354.58 736.35,354.48 736.70,354.10 737.05,353.93 737.40,354.03 737.75,353.98 738.10,353.88 738.45,353.87 738.80,353.68 739.15,353.97 739.50,354.40 739.85,354.88 740.20,355.26 740.55,355.33 740.90,355.67 741.25,356.08 741.60,356.51 741.95,356.75 742.30,357.13 742.65,357.52 743.00,357.76 743.35,357.95 743.70,358.19 744.05,358.46 744.40,358.89 744.75,359.13 745.10,359.32 745.45,359.40 745.80,359.45 746.15,359.45 746.50,359.59 746.85,359.59 747.20,359.88 747.55,360.26 747.90,360.70 748.25,360.88 748.60,360.64 748.95,360.44 749.30,360.15 749.65,360.43 750.00,360.54 750.35,360.48 750.70,360.43 751.05,360.33 751.40,360.38 751.75,360.33 752.10,360.15 752.45,359.78 752.80,359.35 753.15,359.41 753.50,359.26 753.85,359.51 754.20,359.51 754.55,359.42 754.90,359.46 755.25,359.42 755.60,359.57 755.95,359.32 756.30,359.18 756.65,358.80 757.00,358.51 757.35,358.63 757.70,358.85 758.05,358.80 758.40,358.99 758.75,359.23 759.10,359.47 759.45,359.66 759.80,360.09 760.15,359.98 760.50,359.93 760.85,359.87 761.20,359.79 761.55,359.69 761.90,359.72 762.25,359.69 762.60,359.69 762.95,359.55 763.30,359.25 763.65,358.97 764.00,358.68 764.35,358.58 764.70,358.49 765.05,358.29 765.40,357.96 765.75,357.98 766.10,358.14 766.45,358.57 766.80,358.95 767.15,359.33 767.50,359.62 767.85,360.05 768.20,360.32 768.55,360.23 768.90,360.37 769.25,360.66 769.60,361.09 769.95,361.19 770.30,361.34 770.65,361.67 771.00,362.15 771.35,362.44 771.70,362.92 772.05,363.26 772.40,363.64 772.75,364.06 773.10,364.44 773.45,364.82 773.80,365.02 774.15,365.21 774.50,365.55 774.85,366.01 775.20,366.11 775.55,365.83 775.90,365.49 776.25,365.30 776.60,364.97 776.95,364.60 777.30,364.27 777.65,364.03 778.00,363.74 778.35,363.42 778.70,363.10 779.05,362.76 779.40,362.43 779.75,362.19 780.10,361.86 780.45,361.60 780.80,361.37 781.15,361.42 781.50,361.31 781.85,360.93 782.20,360.64 782.55,360.30 782.90,359.84 783.25,359.84 783.60,359.79 783.95,359.90 784.30,359.87 784.65,360.18 785.00,360.47"/>
<line x1="813" y1="78" x2="839" y2="78" stroke="#dc2626" stroke-width="3"/>
<text x="847" y="82" font-family="Arial" font-size="13" fill="#111827">high volatility</text>
<polyline fill="none" stroke="#059669" stroke-width="2" points="85.00,366.11 85.35,366.21 85.70,366.18 86.05,366.18 86.40,366.33 86.75,366.33 87.10,366.22 87.45,366.06 87.80,366.06 88.15,366.13 88.50,366.15 88.85,366.33 89.20,366.33 89.55,366.24 89.90,366.26 90.25,366.16 90.60,366.15 90.95,366.05 91.30,366.06 91.65,366.15 92.00,366.14 92.35,366.18 92.70,366.23 93.05,366.16 93.40,365.97 93.75,365.73 94.10,365.69 94.45,365.41 94.80,365.17 95.15,364.84 95.50,364.41 95.85,364.03 96.20,363.80 96.55,363.47 96.90,363.14 97.25,362.71 97.60,362.36 97.95,361.98 98.30,361.53 98.65,361.20 99.00,360.86 99.35,360.38 99.70,360.05 100.05,359.81 100.40,359.47 100.75,359.14 101.10,358.80 101.45,358.51 101.80,358.13 102.15,357.83 102.50,357.50 102.85,357.10 103.20,356.69 103.55,356.45 103.90,356.11 104.25,355.87 104.60,355.83 104.95,355.54 105.30,355.25 105.65,354.96 106.00,355.20 106.35,355.05 106.70,355.12 107.05,354.95 107.40,355.05 107.75,355.10 108.10,354.95 108.45,354.85 108.80,354.76 109.15,354.69 109.50,354.42 109.85,354.04 110.20,353.70 110.55,353.56 110.90,353.47 111.25,353.39 111.60,353.44 111.95,353.61 112.30,353.56 112.65,353.58 113.00,353.53 113.35,353.57 113.70,353.77 114.05,353.62 114.40,353.71 114.75,353.82 115.10,353.87 115.45,353.89 115.80,353.79 116.15,353.73 116.50,353.92 116.85,354.26 117.20,354.35 117.55,354.40 117.90,354.40 118.25,354.45 118.60,354.64 118.95,354.69 119.30,354.88 119.65,354.82 120.00,354.79 120.35,354.87 120.70,355.22 121.05,355.19 121.40,355.15 121.75,354.87 122.10,354.74 122.45,354.65 122.80,354.74 123.15,354.79 123.50,355.03 123.85,355.13 124.20,355.45 124.55,355.73 124.90,356.06 125.25,356.54 125.60,356.90 125.95,357.28 126.30,357.67 126.65,357.94 127.00,358.41 127.35,358.75 127.70,358.99 128.05,359.35 128.40,359.54 128.75,359.68 129.10,360.00 129.45,360.34 129.80,360.72 130.15,361.01 130.50,361.25 130.85,361.40 131.20,361.43 131.55,361.34 131.90,361.29 132.25,361.37 132.60,361.59 132.95,361.76 133.30,361.73 133.65,361.78 134.00,361.87 134.35,361.94 134.70,361.94 135.05,361.85 135.40,361.91 135.75,362.00 136.10,362.20 136.45,362.28 136.80,362.23 137.15,362.38 137.50,362.40 137.85,362.48 138.20,362.36 138.55,362.69 138.90,362.93 139.25,363.22 139.60,363.56 139.95,363.99 140.30,364.33 140.65,364.57 141.00,364.91 141.35,365.04 141.70,364.95 142.05,365.04 142.40,365.08 142.75,365.04 143.10,365.12 143.45,365.07 143.80,364.93 144.15,364.98 144.50,364.86 144.85,365.05 145.20,365.38 145.55,365.38 145.90,365.52 146.25,365.67 146.60,365.67 146.95,365.55 147.30,365.45 147.65,365.45 148.00,365.59 148.35,365.55 148.70,365.59 149.05,365.41 149.40,365.50 149.75,365.65 150.10,365.65 150.45,365.54 150.80,365.69 151.15,365.64 151.50,365.35 151.85,365.22 152.20,365.16 152.55,365.21 152.90,365.30 153.25,365.39 153.60,365.39 153.95,365.39 154.30,365.25 154.65,365.15 155.00,365.28 155.35,365.33 155.70,365.23 156.05,365.27 156.40,365.33 156.75,365.30 157.10,365.20 157.45,365.34 157.80,365.54 158.15,365.48 158.50,365.62 158.85,365.53 159.20,365.57 159.55,365.89 159.90,365.81 160.25,365.94 160.60,365.51 160.95,365.22 161.30,364.88 161.65,364.65 162.00,364.27 162.35,363.99 162.70,363.65 163.05,363.36 163.40,363.12 163.75,363.07 164.10,362.88 164.45,362.93 164.80,363.07 165.15,363.26 165.50,363.51 165.85,363.76 166.20,363.95 166.55,364.36 166.90,364.63 167.25,364.91 167.60,365.30 167.95,365.68 168.30,365.97 168.65,366.23 169.00,366.61 169.35,367.00 169.70,367.33 170.05,367.77 170.40,368.00 170.75,368.24 171.10,368.65 171.45,368.93 171.80,369.32 172.15,369.70 172.50,370.13 172.85,370.52 173.20,370.94 173.55,371.27 173.90,371.61 174.25,371.99 174.60,372.42 174.95,372.62 175.30,372.95 175.65,373.41 176.00,373.69 176.35,374.05 176.70,374.44 177.05,374.72 177.40,375.02 177.75,375.28 178.10,375.62 178.45,376.00 178.80,376.38 179.15,376.69 179.50,377.03 179.85,377.41 180.20,377.75 180.55,378.13 180.90,378.54 181.25,378.93 181.60,379.20 181.95,379.49 182.30,379.92 182.65,380.30 183.00,380.64 183.35,380.97 183.70,381.31 184.05,381.58 184.40,381.91 184.75,382.41 185.10,382.56 185.45,382.94 185.80,383.23 186.15,383.66 186.50,383.92 186.85,384.26 187.20,384.69 187.55,385.07 187.90,385.31 188.25,385.71 188.60,385.96 188.95,386.32 189.30,386.80 189.65,387.19 190.00,387.62 190.35,387.99 190.70,388.37 191.05,388.81 191.40,389.14 191.75,389.55 192.10,390.03 192.45,390.22 192.80,390.35 193.15,390.69 193.50,391.06 193.85,391.35 194.20,391.69 194.55,391.90 194.90,392.29 195.25,392.68 195.60,393.16 195.95,393.49 196.30,393.88 196.65,394.16 197.00,394.64 197.35,394.55 197.70,394.35 198.05,394.23 198.40,394.18 198.75,394.18 199.10,393.94 199.45,393.60 199.80,393.51 200.15,393.50 200.50,393.41 200.85,393.50 201.20,393.59 201.55,393.56 201.90,393.50 202.25,393.57 202.60,393.76 202.95,394.10 203.30,394.38 203.65,394.82 204.00,395.13 204.35,395.51 204.70,395.75 205.05,395.99 205.40,395.92 205.75,396.16 206.10,396.12 206.45,396.12 206.80,396.15 207.15,395.96 207.50,395.82 207.85,396.11 208.20,396.35 208.55,396.68 208.90,397.02 209.25,397.42 209.60,397.76 209.95,398.01 210.30,398.25 210.65,398.55 211.00,398.35 211.35,398.58 211.70,398.62 212.05,398.43 212.40,398.08 212.75,397.99 213.10,397.87 213.45,397.92 213.80,398.30 214.15,398.64 214.50,398.97 214.85,399.07 215.20,399.40 215.55,399.69 215.90,399.93 216.25,400.23 216.60,400.51 216.95,400.74 217.30,401.13 217.65,401.42 218.00,401.66 218.35,401.90 218.70,402.27 219.05,402.61 219.40,402.99 219.75,403.33 220.10,403.65 220.45,403.98 220.80,404.14 221.15,404.30 221.50,404.11 221.85,404.51 222.20,404.75 222.55,405.03 222.90,405.32 223.25,405.68 223.60,406.06 223.95,406.44 224.30,406.79 224.65,407.13 225.00,407.56 225.35,407.80 225.70,408.14 226.05,408.48 226.40,408.72 226.75,408.94 227.10,409.23 227.45,409.61 227.80,409.95 228.15,410.23 228.50,410.67 228.85,411.05 229.20,411.43 229.55,411.70 229.90,412.03 230.25,412.37 230.60,412.75 230.95,413.12 231.30,413.46 231.65,413.70 232.00,414.16 232.35,414.42 232.70,414.76 233.05,415.05 233.40,415.39 233.75,415.70 234.10,416.09 234.45,416.47 234.80,416.74 235.15,417.08 235.50,417.27 235.85,417.34 236.20,417.68 236.55,418.06 236.90,418.28 237.25,418.61 237.60,418.95 237.95,419.28 238.30,419.67 238.65,419.95 239.00,420.21 239.35,420.54 239.70,420.99 240.05,421.39 240.40,421.77 240.75,422.11 241.10,422.49 241.45,422.87 241.80,423.26 242.15,423.69 242.50,424.07 242.85,424.41 243.20,424.69 243.55,424.88 243.90,424.96 244.25,424.91 244.60,424.96 244.95,424.81 245.30,425.06 245.65,425.32 246.00,425.65 246.35,425.99 246.70,426.28 247.05,426.62 247.40,426.90 247.75,426.95 248.10,426.71 248.45,426.62 248.80,426.72 249.15,426.77 249.50,426.67 249.85,426.48 250.20,426.19 250.55,426.09 250.90,425.97 251.25,426.25 251.60,426.69 251.95,427.02 252.30,427.36 252.65,427.74 253.00,428.08 253.35,428.43 253.70,428.76 254.05,429.07 254.40,429.50 254.75,429.62 255.10,429.71 255.45,429.47 255.80,429.18 256.15,429.36 256.50,429.60 256.85,429.74 257.20,429.74 257.55,429.69 257.90,429.74 258.25,429.93 258.60,429.93 258.95,430.21 259.30,430.64 259.65,430.67 260.00,430.40 260.35,430.35 260.70,430.39 261.05,430.54 261.40,430.79 261.75,430.93 262.10,431.19 262.45,431.53 262.80,431.88 263.15,432.36 263.50,432.55 263.85,432.93 264.20,433.27 264.55,433.60 264.90,433.96 265.25,434.34 265.60,434.63 265.95,434.91 266.30,435.15 266.65,435.58 267.00,435.92 267.35,436.01 267.70,436.35 268.05,436.39 268.40,436.44 268.75,436.48 269.10,436.17 269.45,435.86 269.80,435.52 270.15,435.19 270.50,434.80 270.85,434.53 271.20,434.15 271.55,434.03 271.90,433.98 272.25,434.07 272.60,433.87 272.95,433.82 273.30,433.78 273.65,433.56 274.00,433.23 274.35,433.09 274.70,433.04 275.05,432.96 275.40,432.88 275.75,432.92 276.10,432.95 276.45,432.91 276.80,432.77 277.15,432.49 277.50,432.45 277.85,432.36 278.20,432.37 278.55,432.66 278.90,433.01 279.25,433.39 279.60,433.87 279.95,433.76 280.30,433.60 280.65,433.59 281.00,433.94 281.35,434.37 281.70,434.51 282.05,434.24 282.40,434.62 282.75,435.10 283.10,435.25 283.45,435.34 283.80,435.72 284.15,436.00 284.50,436.43 284.85,436.72 285.20,437.00 285.55,437.21 285.90,437.50 286.25,437.84 286.60,438.13 286.95,438.46 287.30,438.61 287.65,438.94 288.00,438.91 288.35,438.74 288.70,438.55 289.05,438.16 289.40,437.78 289.75,437.58 290.10,437.68 290.45,437.36 290.80,437.41 291.15,437.31 291.50,437.22 291.85,436.98 292.20,437.03 292.55,437.27 292.90,437.41 293.25,437.59 293.60,437.91 293.95,438.14 294.30,438.43 294.65,438.67 295.00,438.85 295.35,439.09 295.70,439.28 296.05,439.76 296.40,440.10 296.75,440.48 297.10,440.48 297.45,440.19 297.80,439.93 298.15,439.63 298.50,439.27 298.85,438.95 299.20,438.62 299.55,438.72 299.90,438.59 300.25,438.45 300.60,438.21 300.95,438.35 301.30,438.23 301.65,437.84 302.00,437.39 302.35,437.10 302.70,437.02 303.05,436.92 303.40,436.93 303.75,436.69 304.10,436.69 304.45,436.47 304.80,436.35 305.15,436.25 305.50,436.23 305.85,435.93 306.20,435.57 306.55,435.30 306.90,434.91 307.25,434.58 307.60,434.28 307.95,433.86 308.30,433.66 308.65,433.28 309.00,433.04 309.35,432.80 309.70,432.56 310.05,432.20 310.40,431.91 310.75,431.53 311.10,431.20 311.45,430.77 311.80,430.42 312.15,430.05 312.50,429.57 312.85,429.19 313.20,428.81 313.55,428.52 313.90,428.17 314.25,427.92 314.60,427.53 314.95,427.14 315.30,426.76 315.65,426.48 316.00,426.14 316.35,425.89 316.70,425.65 317.05,425.22 317.40,424.93 317.75,424.64 318.10,424.30 318.45,423.92 318.80,423.62 319.15,423.54 319.50,423.11 319.85,422.75 320.20,422.37 320.55,422.03 320.90,421.79 321.25,421.45 321.60,420.97 321.95,420.59 322.30,420.30 322.65,419.87 323.00,419.54 323.35,419.21 323.70,418.94 324.05,418.46 324.40,417.98 324.75,417.72 325.10,417.38 325.45,417.00 325.80,416.60 326.15,416.26 326.50,415.88 326.85,415.49 327.20,415.06 327.55,414.75 327.90,414.32 328.25,413.81 328.60,413.42 328.95,412.99 329.30,412.61 329.65,412.36 330.00,411.98 330.35,411.60 330.70,411.20 331.05,410.77 331.40,410.30 331.75,410.06 332.10,409.77 332.45,409.43 332.80,409.05 333.15,408.79 333.50,408.40 333.85,408.02 334.20,407.70 334.55,407.27 334.90,406.94 335.25,406.54 335.60,406.16 335.95,405.78 336.30,405.43 336.65,405.14 337.00,404.73 337.35,404.30 337.70,404.06 338.05,403.77 338.40,403.49 338.75,403.10 339.10,402.72 339.45,402.43 339.80,402.10 340.15,401.78 340.50,401.49 340.85,401.10 341.20,400.80 341.55,400.61 341.90,400.32 342.25,400.01 342.60,399.77 342.95,399.43 343.30,399.05 343.65,398.74 344.00,398.31 344.35,397.83 344.70,397.54 345.05,397.25 345.40,396.92 345.75,396.59 346.10,396.21 346.45,395.87 346.80,395.47 347.15,395.28 347.50,394.94 347.85,394.61 348.20,394.37 348.55,394.13 348.90,393.80 349.25,393.36 349.60,393.03 349.95,392.60 350.30,392.21 350.65,391.84 351.00,391.50 351.35,391.21 351.70,390.78 352.05,390.40 352.40,390.06 352.75,389.68 353.10,389.39 353.45,389.20 353.80,389.01 354.15,388.67 354.50,388.72 354.85,389.05 355.20,389.44 355.55,389.75 355.90,389.75 356.25,389.75 356.60,389.41 356.95,389.46 357.30,389.51 357.65,389.51 358.00,389.40 358.35,389.37 358.70,389.32 359.05,389.34 359.40,389.35 359.75,389.33 360.10,389.14 360.45,388.84 360.80,388.65 361.15,388.65 361.50,388.70 361.85,388.65 362.20,388.73 362.55,388.66 362.90,388.61 363.25,388.52 363.60,388.43 363.95,388.38 364.30,388.38 364.65,388.28 365.00,388.14 365.35,388.02 365.70,387.81 366.05,387.52 366.40,387.14 366.75,386.68 367.10,386.57 367.45,386.24 367.80,386.09 368.15,385.81 368.50,385.47 368.85,385.13 369.20,384.68 369.55,384.25 369.90,383.82 370.25,383.49 370.60,383.01 370.95,382.62 371.30,382.43 371.65,382.14 372.00,381.86 372.35,381.52 372.70,381.09 373.05,381.00 373.40,381.02 373.75,381.02 374.10,381.07 374.45,381.07 374.80,381.00 375.15,380.96 375.50,381.02 375.85,381.05 376.20,381.05 376.55,380.98 376.90,381.03 377.25,380.98 377.60,381.05 377.95,380.85 378.30,380.56 378.65,380.25 379.00,380.11 379.35,379.72 379.70,379.48 380.05,379.29 380.40,379.00 380.75,378.60 381.10,378.18 381.45,377.83 381.80,377.63 382.15,377.49 382.50,377.49 382.85,377.06 383.20,376.85 383.55,376.80 383.90,376.61 384.25,376.56 384.60,376.23 384.95,376.02 385.30,375.65 385.65,375.32 386.00,374.94 386.35,374.65 386.70,374.22 387.05,373.93 387.40,373.69 387.75,373.26 388.10,372.92 388.45,372.59 388.80,372.12 389.15,371.78 389.50,371.53 389.85,371.19 390.20,370.81 390.55,370.43 390.90,370.06 391.25,369.86 391.60,369.58 391.95,369.30 392.30,368.90 392.65,368.66 393.00,368.35 393.35,367.92 393.70,367.54 394.05,367.16 394.40,366.87 394.75,366.57 395.10,366.35 395.45,365.97 395.80,365.83 396.15,365.35 396.50,364.99 396.85,364.64 397.20,364.25 397.55,363.86 397.90,363.57 398.25,363.33 398.60,363.09 398.95,362.71 399.30,362.69 399.65,362.67 400.00,362.61 400.35,362.52 400.70,362.13 401.05,361.70 401.40,361.35 401.75,361.11 402.10,361.18 402.45,361.14 402.80,361.29 403.15,361.39 403.50,361.24 403.85,361.15 404.20,360.86 404.55,360.62 404.90,360.67 405.25,360.79 405.60,360.69 405.95,360.59 406.30,360.40 406.65,359.97 407.00,359.92 407.35,359.92 407.70,360.25 408.05,360.39 408.40,360.36 408.75,360.40 409.10,360.51 409.45,360.48 409.80,360.38 410.15,360.36 410.50,360.43 410.85,360.35 411.20,360.35 411.55,360.67 411.90,360.62 412.25,360.57 412.60,360.57 412.95,360.53 413.30,360.55 413.65,360.63 414.00,360.58 414.35,360.59 414.70,360.54 415.05,360.78 415.40,360.54 415.75,360.15 416.10,359.91 416.45,359.58 416.80,359.29 417.15,358.86 417.50,358.67 417.85,358.36 418.20,358.05 418.55,357.76 418.90,357.47 419.25,357.09 419.60,356.66 419.95,356.32 420.30,355.89 420.65,355.50 421.00,355.12 421.35,354.79 421.70,354.47 422.05,354.09 422.40,353.80 422.75,353.42 423.10,353.02 423.45,352.61 423.80,352.42 424.15,352.08 424.50,351.70 424.85,351.27 425.20,350.93 425.55,350.60 425.90,350.17 426.25,349.77 426.60,349.48 426.95,349.19 427.30,348.81 427.65,348.43 428.00,348.04 428.35,347.69 428.70,347.41 429.05,347.07 429.40,346.69 429.75,346.36 430.10,345.97 430.45,345.68 430.80,345.49 431.15,345.20 431.50,344.82 431.85,344.48 432.20,344.18 432.55,343.85 432.90,343.61 433.25,343.18 433.60,342.84 433.95,342.65 434.30,342.22 434.65,341.93 435.00,341.55 435.35,341.16 435.70,340.88 436.05,340.61 436.40,340.23 436.75,339.79 437.10,339.41 437.45,339.17 437.80,338.78 438.15,338.39 438.50,338.01 438.85,337.68 439.20,337.33 439.55,337.04 439.90,336.65 440.25,336.28 440.60,335.99 440.95,335.66 441.30,335.32 441.65,334.99 442.00,334.65 442.35,334.33 442.70,333.97 443.05,333.68 443.40,333.38 443.75,333.04 444.10,332.85 444.45,332.55 444.80,332.12 445.15,331.83 445.50,331.35 445.85,331.02 446.20,330.63 446.55,330.40 446.90,330.11 447.25,329.88 447.60,329.58 447.95,329.20 448.30,328.81 448.65,328.45 449.00,328.07 449.35,327.77 449.70,327.49 450.05,327.20 450.40,326.87 450.75,326.44 451.10,326.11 451.45,325.77 451.80,325.54 452.15,325.25 452.50,324.82 452.85,324.34 453.20,323.95 453.55,323.57 453.90,323.24 454.25,322.88 454.60,322.44 454.95,322.25 455.30,321.92 455.65,321.63 456.00,321.39 456.35,320.96 456.70,320.71 457.05,320.33 457.40,319.99 457.75,319.66 458.10,319.32 458.45,318.89 458.80,318.65 459.15,318.36 459.50,317.93 459.85,317.60 460.20,317.26 460.55,316.88 460.90,316.50 461.25,316.31 461.60,316.04 461.95,315.75 462.30,315.33 462.65,314.89 463.00,314.61 463.35,314.37 463.70,313.99 464.05,313.75 464.40,313.37 464.75,313.00 465.10,312.62 465.45,312.43 465.80,312.52 466.15,312.55 466.50,312.46 466.85,312.56 467.20,312.49 467.55,312.54 467.90,312.68 468.25,312.44 468.60,312.65 468.95,312.46 469.30,312.50 469.65,312.40 470.00,312.25 470.35,312.25 470.70,312.54 471.05,312.54 471.40,312.76 471.75,312.85 472.10,312.90 472.45,312.75 472.80,313.09 473.15,313.34 473.50,313.77 473.85,314.16 474.20,314.42 474.55,314.80 474.90,315.09 475.25,315.23 475.60,315.42 475.95,315.47 476.30,315.52 476.65,315.56 477.00,315.53 477.35,315.53 477.70,315.55 478.05,315.43 478.40,315.45 478.75,315.50 479.10,315.54 479.45,315.59 479.80,315.64 480.15,315.64 480.50,315.83 480.85,315.78 481.20,315.55 481.55,315.59 481.90,315.49 482.25,315.46 482.60,315.35 482.95,315.40 483.30,315.30 483.65,315.45 484.00,315.45 484.35,315.50 484.70,315.71 485.05,315.80 485.40,315.75 485.75,315.75 486.10,315.70 486.45,315.60 486.80,315.70 487.15,315.79 487.50,315.82 487.85,315.97 488.20,316.02 488.55,315.97 488.90,315.92 489.25,315.59 489.60,315.49 489.95,315.35 490.30,315.39 490.65,315.35 491.00,315.39 491.35,315.44 491.70,315.36 492.05,315.47 492.40,315.71 492.75,316.10 493.10,316.42 493.45,316.81 493.80,317.14 494.15,317.14 494.50,317.09 494.85,317.25 495.20,317.66 495.55,317.99 495.90,318.37 496.25,318.71 496.60,319.05 496.95,319.47 497.30,319.83 497.65,320.07 498.00,320.41 498.35,320.79 498.70,321.17 499.05,321.65 499.40,322.08 499.75,322.33 500.10,322.81 500.45,323.04 500.80,323.43 501.15,323.81 501.50,324.15 501.85,324.43 502.20,324.89 502.55,325.18 502.90,325.34 503.25,325.77 503.60,326.05 503.95,326.44 504.30,326.77 504.65,327.12 505.00,327.46 505.35,327.84 505.70,328.22 506.05,328.66 506.40,329.09 506.75,329.48 507.10,329.90 507.45,330.23 507.80,330.61 508.15,330.99 508.50,331.27 508.85,331.60 509.20,331.99 509.55,332.31 509.90,332.63 510.25,333.01 510.60,333.24 510.95,333.65 511.30,334.08 511.65,334.41 512.00,334.79 512.35,335.17 512.70,335.51 513.05,335.85 513.40,336.18 513.75,336.57 514.10,336.90 514.45,337.34 514.80,337.57 515.15,337.92 515.50,338.06 515.85,338.39 516.20,338.78 516.55,339.16 516.90,339.45 517.25,339.93 517.60,340.30 517.95,340.65 518.30,341.03 518.65,341.38 519.00,341.71 519.35,341.93 519.70,342.31 520.05,342.55 520.40,342.78 520.75,343.17 521.10,343.65 521.45,344.03 521.80,344.46 522.15,344.78 522.50,345.17 522.85,345.50 523.20,345.89 523.55,346.27 523.90,346.65 524.25,347.04 524.60,347.45 524.95,347.74 525.30,347.94 525.65,348.35 526.00,348.69 526.35,349.03 526.70,349.26 527.05,349.34 527.40,349.50 527.75,349.79 528.10,350.12 528.45,350.41 528.80,350.70 529.15,351.08 529.50,351.32 529.85,351.46 530.20,351.54 530.55,351.48 530.90,351.64 531.25,351.49 531.60,351.64 531.95,351.84 532.30,351.93 532.65,351.85 533.00,351.91 533.35,351.90 533.70,351.85 534.05,351.90 534.40,352.05 534.75,351.94 535.10,351.89 535.45,351.70 535.80,351.56 536.15,351.56 536.50,351.60 536.85,351.41 537.20,351.51 537.55,351.70 537.90,351.65 538.25,351.67 538.60,351.57 538.95,351.81 539.30,352.20 539.65,352.56 540.00,352.84 540.35,353.17 540.70,353.51 541.05,353.67 541.40,353.76 541.75,353.83 542.10,353.92 542.45,353.84 542.80,353.76 543.15,353.66 543.50,353.68 543.85,353.68 544.20,353.64 544.55,353.74 544.90,353.67 545.25,353.87 545.60,353.82 545.95,353.89 546.30,353.91 546.65,353.81 547.00,353.96 547.35,353.74 547.70,353.39 548.05,353.25 548.40,353.16 548.75,353.19 549.10,353.30 549.45,353.25 549.80,353.33 550.15,353.38 550.50,353.57 550.85,353.38 551.20,353.38 551.55,353.46 551.90,353.42 552.25,352.99 552.60,352.66 552.95,352.68 553.30,352.62 553.65,352.68 554.00,352.49 554.35,352.49 554.70,352.84 555.05,353.13 555.40,353.43 555.75,353.86 556.10,354.19 556.45,354.58 556.80,354.81 557.15,355.05 557.50,355.10 557.85,355.20 558.20,355.15 558.55,355.10 558.90,354.96 559.25,354.87 559.60,354.97 559.95,354.91 560.30,355.06 560.65,355.01 561.00,355.20 561.35,355.01 561.70,355.12 562.05,355.02 562.40,354.97 562.75,355.09 563.10,354.97 563.45,354.82 563.80,354.71 564.15,354.79 564.50,355.03 564.85,355.20 565.20,355.34 565.55,355.53 565.90,355.43 566.25,355.29 566.60,355.24 566.95,355.21 567.30,355.33 567.65,355.40 568.00,355.42 568.35,355.48 568.70,355.33 569.05,355.38 569.40,355.45 569.75,355.36 570.10,355.31 570.45,355.26 570.80,355.40 571.15,355.61 571.50,355.70 571.85,355.75 572.20,355.87 572.55,356.21 572.90,356.55 573.25,356.98 573.60,357.22 573.95,357.50 574.30,357.79 574.65,357.98 575.00,358.41 575.35,358.85 575.70,359.18 576.05,359.52 576.40,359.90 576.75,360.09 577.10,360.33 577.45,360.67 577.80,360.86 578.15,361.17 578.50,361.53 578.85,361.91 579.20,362.29 579.55,362.68 579.90,362.92 580.25,363.26 580.60,363.55 580.95,363.74 581.30,364.07 581.65,364.42 582.00,364.70 582.35,365.04 582.70,365.42 583.05,365.71 583.40,366.14 583.75,366.48 584.10,366.86 584.45,367.19 584.80,367.55 585.15,367.93 585.50,368.32 585.85,368.70 586.20,369.13 586.55,369.42 586.90,369.71 587.25,370.14 587.60,370.47 587.95,370.76 588.30,371.24 588.65,371.62 589.00,371.83 589.35,372.22 589.70,372.41 590.05,372.76 590.40,372.87 590.75,373.21 591.10,373.59 591.45,374.02 591.80,374.44 592.15,374.48 592.50,374.63 592.85,374.51 593.20,374.71 593.55,374.52 593.90,374.23 594.25,374.05 594.60,374.07 594.95,374.21 595.30,374.21 595.65,374.22 596.00,374.31 596.35,374.17 596.70,374.04 597.05,374.01 597.40,373.77 597.75,373.62 598.10,373.68 598.45,373.66 598.80,373.68 599.15,373.59 599.50,373.56 599.85,373.66 600.20,373.44 600.55,373.15 600.90,372.76 601.25,372.51 601.60,372.13 601.95,371.70 602.30,371.41 602.65,371.00 603.00,370.63 603.35,370.39 603.70,370.06 604.05,369.72 604.40,369.35 604.75,368.96 605.10,368.63 605.45,368.35 605.80,368.11 606.15,367.67 606.50,367.34 606.85,366.98 607.20,366.65 607.55,366.31 607.90,366.07 608.25,365.69 608.60,365.35 608.95,364.88 609.30,364.59 609.65,364.49 610.00,364.01 610.35,363.63 610.70,363.29 611.05,362.81 611.40,362.43 611.75,362.18 612.10,361.91 612.45,361.50 612.80,361.17 613.15,360.78 613.50,360.49 613.85,360.11 614.20,359.78 614.55,359.44 614.90,359.10 615.25,358.64 615.60,358.17 615.95,357.88 616.30,357.45 616.65,357.11 617.00,356.68 617.35,356.34 617.70,355.95 618.05,355.56 618.40,355.18 618.75,354.88 619.10,354.54 619.45,354.11 619.80,353.82 620.15,353.86 620.50,353.86 620.85,353.90 621.20,353.66 621.55,353.31 621.90,353.05 622.25,352.66 622.60,352.34 622.95,351.91 623.30,351.57 623.65,351.36 624.00,350.98 624.35,350.59 624.70,350.28 625.05,350.08 625.40,349.81 625.75,349.47 626.10,349.09 626.45,348.70 626.80,348.32 627.15,347.94 627.50,347.60 627.85,347.22 628.20,346.88 628.55,346.58 628.90,346.25 629.25,345.82 629.60,345.49 629.95,345.06 630.30,344.82 630.65,344.39 631.00,344.10 631.35,343.72 631.70,343.43 632.05,343.08 632.40,342.77 632.75,342.43 633.10,342.14 633.45,341.62 633.80,341.19 634.15,340.91 634.50,340.67 634.85,340.28 635.20,340.04 635.55,339.61 635.90,339.18 636.25,338.75 636.60,338.37 636.95,338.03 637.30,337.65 637.65,337.17 638.00,336.88 638.35,336.65 638.70,336.30 639.05,335.88 639.40,335.45 639.75,335.11 640.10,334.86 640.45,334.62 640.80,334.28 641.15,333.90 641.50,333.56 641.85,333.23 642.20,332.84 642.55,332.51 642.90,332.19 643.25,331.84 643.60,331.46 643.95,330.98 644.30,330.50 644.65,330.21 645.00,329.91 645.35,329.53 645.70,329.34 646.05,329.05 646.40,328.66 646.75,328.38 647.10,328.09 647.45,327.71 647.80,327.37 648.15,326.94 648.50,326.64 648.85,326.29 649.20,325.91 649.55,325.55 649.90,325.30 650.25,324.92 650.60,324.58 650.95,324.25 651.30,323.86 651.65,323.48 652.00,323.06 652.35,322.66 652.70,322.23 653.05,321.90 653.40,321.47 653.75,321.08 654.10,320.88 654.45,320.59 654.80,320.39 655.15,319.98 655.50,319.69 655.85,319.26 656.20,318.97 656.55,318.64 656.90,318.35 657.25,317.99 657.60,317.62 657.95,317.25 658.30,317.01 658.65,316.67 659.00,316.39 659.35,316.00 659.70,315.70 660.05,315.41 660.40,315.13 660.75,314.66 661.10,314.37 661.45,314.02 661.80,313.68 662.15,313.39 662.50,313.06 662.85,312.68 663.20,312.34 663.55,312.20 663.90,311.77 664.25,311.35 664.60,311.12 664.95,310.80 665.30,310.70 665.65,310.46 666.00,310.00 666.35,309.71 666.70,309.33 667.05,309.04 667.40,308.56 667.75,308.20 668.10,307.89 668.45,307.51 668.80,307.13 669.15,306.65 669.50,306.26 669.85,305.78 670.20,305.50 670.55,305.11 670.90,304.69 671.25,304.30 671.60,303.87 671.95,303.44 672.30,303.20 672.65,302.82 673.00,302.39 673.35,302.05 673.70,301.57 674.05,301.43 674.40,301.00 674.75,300.65 675.10,300.27 675.45,299.87 675.80,299.49 676.15,299.25 676.50,299.00 676.85,298.62 677.20,298.33 677.55,297.95 677.90,297.62 678.25,297.29 678.60,296.95 678.95,296.61 679.30,296.26 679.65,296.03 680.00,295.59 680.35,295.26 680.70,294.97 681.05,294.59 681.40,294.25 681.75,293.92 682.10,293.58 682.45,293.25 682.80,292.92 683.15,292.59 683.50,292.18 683.85,291.75 684.20,291.41 684.55,291.19 684.90,290.86 685.25,290.61 685.60,290.18 685.95,289.84 686.30,289.46 686.65,289.12 687.00,288.74 687.35,288.40 687.70,288.02 688.05,287.54 688.40,287.25 688.75,286.87 689.10,286.65 689.45,286.32 689.80,286.03 690.15,285.65 690.50,285.46 690.85,285.12 691.20,284.86 691.55,284.53 691.90,284.14 692.25,284.00 692.60,283.90 692.95,283.86 693.30,283.90 693.65,283.77 694.00,283.81 694.35,284.00 694.70,284.07 695.05,283.76 695.40,283.47 695.75,283.35 696.10,283.16 696.45,282.77 696.80,282.63 697.15,282.25 697.50,282.25 697.85,281.90 698.20,281.57 698.55,281.23 698.90,280.89 699.25,280.61 699.60,280.32 699.95,280.41 700.30,280.33 700.65,280.52 701.00,280.18 701.35,279.99 701.70,279.80 702.05,279.64 702.40,279.35 702.75,278.92 703.10,278.63 703.45,278.34 703.80,277.92 704.15,277.58 704.50,277.25 704.85,276.94 705.20,276.65 705.55,276.34 705.90,276.10 706.25,275.73 706.60,275.51 706.95,275.29 707.30,275.29 707.65,275.24 708.00,275.38 708.35,275.17 708.70,275.21 709.05,275.10 709.40,275.01 709.75,275.13 710.10,275.21 710.45,275.22 710.80,275.15 711.15,274.86 711.50,274.49 711.85,274.01 712.20,273.74 712.55,273.49 712.90,273.16 713.25,273.38 713.60,273.53 713.95,273.55 714.30,273.41 714.65,273.27 715.00,273.22 715.35,272.89 715.70,272.52 716.05,272.19 716.40,271.95 716.75,271.98 717.10,271.62 717.45,271.48 717.80,271.48 718.15,271.43 718.50,271.12 718.85,270.73 719.20,270.31 719.55,269.98 719.90,269.54 720.25,269.07 720.60,268.69 720.95,268.74 721.30,268.83 721.65,268.52 722.00,268.42 722.35,268.42 722.70,268.54 723.05,268.45 723.40,268.59 723.75,268.38 724.10,268.00 724.45,267.71 724.80,267.37 725.15,267.09 725.50,266.73 725.85,266.39 726.20,266.20 726.55,266.09 726.90,265.75 727.25,265.37 727.60,265.03 727.95,264.65 728.30,264.27 728.65,264.03 729.00,263.73 729.35,263.30 729.70,262.82 730.05,262.48 730.40,262.19 730.75,261.86 731.10,261.56 731.45,261.42 731.80,261.03 732.15,260.74 732.50,260.51 732.85,260.22 733.20,259.83 733.55,259.45 733.90,259.12 734.25,258.68 734.60,258.49 734.95,258.11 735.30,257.87 735.65,257.63 736.00,257.39 736.35,257.22 736.70,256.98 737.05,256.68 737.40,256.45 737.75,256.07 738.10,255.73 738.45,255.59 738.80,255.26 739.15,254.83 739.50,254.44 739.85,254.06 740.20,253.77 740.55,253.48 740.90,253.19 741.25,252.95 741.60,252.61 741.95,252.33 742.30,251.90 742.65,251.47 743.00,251.47 743.35,251.51 743.70,251.85 744.05,252.18 744.40,252.52 744.75,252.86 745.10,253.24 745.45,253.55 745.80,253.64 746.15,253.79 746.50,253.51 746.85,253.12 747.20,252.70 747.55,252.51 747.90,252.35 748.25,252.40 748.60,252.40 748.95,251.92 749.30,251.52 749.65,251.23 750.00,250.89 750.35,250.46 750.70,250.15 751.05,249.91 751.40,249.67 751.75,249.33 752.10,249.19 752.45,248.85 752.80,248.57 753.15,248.18 753.50,247.97 753.85,247.64 754.20,247.40 754.55,246.97 754.90,246.87 755.25,246.97 755.60,247.15 755.95,247.56 756.30,247.90 756.65,247.91 757.00,247.96 757.35,247.87 757.70,247.79 758.05,247.69 758.40,247.80 758.75,247.78 759.10,247.48 759.45,247.05 759.80,246.67 760.15,246.33 760.50,246.01 760.85,245.82 761.20,245.69 761.55,245.29 761.90,244.89 762.25,244.52 762.60,244.19 762.95,243.80 763.30,243.61 763.65,243.27 764.00,243.23 764.35,243.02 764.70,243.14 765.05,243.04 765.40,242.66 765.75,242.47 766.10,242.29 766.45,242.05 766.80,241.62 767.15,241.31 767.50,241.00 767.85,240.57 768.20,240.31 768.55,240.09 768.90,239.84 769.25,239.68 769.60,239.44 769.95,239.56 770.30,239.63 770.65,239.72 771.00,239.53 771.35,239.63 771.70,239.59 772.05,239.64 772.40,239.55 772.75,239.50 773.10,239.50 773.45,239.59 773.80,239.64 774.15,239.46 774.50,239.61 774.85,239.55 775.20,239.64 775.55,239.74 775.90,239.71 776.25,239.45 776.60,239.11 776.95,238.68 777.30,238.34 777.65,237.91 778.00,237.54 778.35,237.21 778.70,236.78 779.05,236.58 779.40,236.49 779.75,236.40 780.10,236.40 780.45,236.33 780.80,236.28 781.15,235.85 781.50,235.82 781.85,235.79 782.20,235.75 782.55,235.36 782.90,235.55 783.25,235.42 783.60,235.47 783.95,235.66 784.30,235.71 784.65,235.71 785.00,235.89"/>
<line x1="813" y1="102" x2="839" y2="102" stroke="#059669" stroke-width="3"/>
<text x="847" y="106" font-family="Arial" font-size="13" fill="#111827">trending</text>
<text x="435.0" y="518" text-anchor="middle" font-family="Arial" font-size="14" fill="#111827">Event index</text>
<text x="22" y="256.0" text-anchor="middle" transform="rotate(-90 22 256.0)" font-family="Arial" font-size="14" fill="#111827">Inventory</text>
</svg>
